0, 0, Header, 1, 3, 384
1, 0, Start_track
1, 0, Title_t, "L.v.Beethoven 3mov - Piano Sonata No.31 in Ab Major Op.110\000"
1, 0, Copyright_t, "Copyright(C) 1995-2016, Suzuki Software\000"
1, 0, Sequencer_specific, 9, 67, 123, 0, 88, 70, 48, 50, 0, 1
1, 0, Text_t, "XFhd:2016/01/01:JP:Classical::::L.v.Beethoven:::Kaoru Suzuki\000"
1, 0, Text_t, "XFln:JP:\203s\203A\203m\203\\\203i\203^\221æ31\224Ô\225Ï\203C\222·\222²\215ì\225i110\201`\221æ3\212y\217Í:L.v.\203x\201[\203g\201[\203\224\203F\203\223:::\227é\202¿\202á\202ñ:\227é\202¿\202á\202ñ\000"
1, 0, Time_signature, 4, 2, 96, 8
1, 0, Sequencer_specific, 5, 0, 0, 119, 14, 0
1, 0, Tempo, 1500000
1, 768, Tempo, 1578947
1, 1152, Tempo, 1764705
1, 1344, Tempo, 2142857
1, 1536, Tempo, 1578947
1, 2304, Tempo, 1666666
1, 3072, Tempo, 1578947
1, 3840, Tempo, 1666666
1, 4224, Tempo, 2000000
1, 4416, Tempo, 2500000
1, 4800, Tempo, 1500000
1, 6336, Tempo, 1578947
1, 6384, Tempo, 1666666
1, 6480, Tempo, 1764705
1, 6912, Tempo, 1578947
1, 7104, Tempo, 1764705
1, 7296, Tempo, 2142857
1, 7680, Tempo, 1578947
1, 7872, Tempo, 1500000
1, 9984, Tempo, 1578947
1, 10176, Tempo, 1666666
1, 10368, Tempo, 1875000
1, 10464, Tempo, 2142857
1, 10476, Tempo, 2500000
1, 10752, Tempo, 2000000
1, 11328, Tempo, 1250000
1, 11520, Tempo, 1363636
1, 11712, Tempo, 1428571
1, 11904, Tempo, 1500000
1, 13824, Time_signature, 12, 4, 96, 8
1, 13824, Tempo, 1875000
1, 15552, Tempo, 2000000
1, 15648, Tempo, 2068965
1, 15744, Tempo, 2222222
1, 15840, Tempo, 2222222
1, 15936, Tempo, 2307692
1, 16032, Tempo, 2400000
1, 16128, Tempo, 2222222
1, 16224, Tempo, 2000000
1, 23328, Tempo, 1935483
1, 23520, Tempo, 2000000
1, 23712, Tempo, 1935483
1, 23904, Tempo, 1875000
1, 24000, Tempo, 2000000
1, 24096, Tempo, 2400000
1, 24288, Tempo, 1935483
1, 24768, Tempo, 1818181
1, 25056, Tempo, 1875000
1, 26208, Tempo, 1935483
1, 26304, Tempo, 2000000
1, 26400, Tempo, 2222222
1, 26496, Tempo, 2000000
1, 26592, Tempo, 1875000
1, 26880, Tempo, 1875000
1, 27168, Tempo, 2000000
1, 27264, Tempo, 2033898
1, 28608, Tempo, 2000000
1, 29088, Tempo, 1935483
1, 29376, Tempo, 1875000
1, 29664, Tempo, 1935483
1, 29856, Tempo, 2033898
1, 30048, Tempo, 1875000
1, 30912, Tempo, 2000000
1, 31008, Tempo, 2181818
1, 31104, Tempo, 1875000
1, 33120, Tempo, 1967213
1, 33216, Tempo, 2105263
1, 33312, Tempo, 2222222
1, 33408, Tempo, 2142857
1, 33504, Tempo, 2000000
1, 33792, Tempo, 2307692
1, 33888, Tempo, 3000000
1, 34464, Tempo, 2400000
1, 34848, Tempo, 2222222
1, 35136, Tempo, 2307692
1, 35424, Tempo, 2790697
1, 35712, Time_signature, 3, 3, 96, 8
1, 35712, Tempo, 3000000
1, 36288, Tempo, 500000
1, 36864, Time_signature, 6, 3, 96, 8
1, 76608, Tempo, 545454
1, 76800, Tempo, 582524
1, 76992, Tempo, 612244
1, 77184, Tempo, 576923
1, 77376, Tempo, 521739
1, 77568, Tempo, 500000
1, 89280, Tempo, 545454
1, 89664, Tempo, 600000
1, 89856, Tempo, 480000
1, 99648, Tempo, 500000
1, 105984, Tempo, 521739
1, 106368, Tempo, 545454
1, 106560, Tempo, 571428
1, 106752, Tempo, 600000
1, 106944, Tempo, 666666
1, 107136, Tempo, 600000
1, 107328, Tempo, 500000
1, 117888, Tempo, 521739
1, 118080, Tempo, 545454
1, 118272, Tempo, 571428
1, 118464, Tempo, 600000
1, 118656, Tempo, 500000
1, 121344, Tempo, 521739
1, 121536, Tempo, 545454
1, 121728, Tempo, 571428
1, 121920, Tempo, 666666
1, 122112, Tempo, 600000
1, 122304, Tempo, 500000
1, 131328, Tempo, 512820
1, 131712, Tempo, 521739
1, 131904, Tempo, 535714
1, 132096, Tempo, 545454
1, 132288, Tempo, 600000
1, 133056, Tempo, 521739
1, 135360, Tempo, 545454
1, 135936, Tempo, 571428
1, 136128, Tempo, 674157
1, 136320, Tempo, 857142
1, 136512, Tempo, 888888
1, 138240, Time_signature, 6, 4, 96, 8
1, 138240, Tempo, 1690140
1, 138816, Time_signature, 12, 4, 96, 8
1, 139392, Tempo, 1621621
1, 139680, Tempo, 1846153
1, 139776, Tempo, 2000000
1, 139872, Tempo, 2222222
1, 139968, Tempo, 2000000
1, 140064, Tempo, 1621621
1, 140832, Tempo, 1714285
1, 140928, Tempo, 2000000
1, 141024, Tempo, 2090592
1, 141120, Tempo, 1875000
1, 141216, Tempo, 1714285
1, 144288, Tempo, 1666666
1, 144384, Tempo, 1714285
1, 144480, Tempo, 1818181
1, 144576, Tempo, 1714285
1, 144672, Tempo, 1621621
1, 147168, Tempo, 1714285
1, 147264, Tempo, 2000000
1, 147360, Tempo, 1875000
1, 147456, Tempo, 1818181
1, 147744, Tempo, 1666666
1, 147936, Tempo, 1621621
1, 152064, Tempo, 1714285
1, 152352, Tempo, 1818181
1, 152544, Tempo, 1875000
1, 152640, Tempo, 1764705
1, 152736, Tempo, 1714285
1, 152832, Tempo, 1621621
1, 153504, Tempo, 1714285
1, 153600, Tempo, 1875000
1, 153696, Tempo, 2000000
1, 153792, Tempo, 1818181
1, 153888, Tempo, 1714285
1, 153984, Tempo, 1621621
1, 157248, Tempo, 1666666
1, 157440, Tempo, 1714285
1, 157536, Tempo, 1875000
1, 157632, Tempo, 2105263
1, 157728, Tempo, 3000000
1, 158304, Tempo, 2400000
1, 163008, Time_signature, 6, 4, 96, 8
1, 163584, Time_signature, 3, 3, 96, 8
1, 163584, Tempo, 500000
1, 164160, Time_signature, 6, 3, 96, 8
1, 190656, Tempo, 545454
1, 190848, Tempo, 571428
1, 191040, Tempo, 600000
1, 191424, Tempo, 500000
1, 200152, Tempo, 491803
1, 200432, Tempo, 480000
1, 200712, Tempo, 472440
1, 200992, Tempo, 461538
1, 201272, Tempo, 454545
1, 201552, Tempo, 444444
1, 201832, Tempo, 437956
1, 202112, Tempo, 428571
1, 206784, Tempo, 444444
1, 206976, Tempo, 461538
1, 207168, Tempo, 500000
1, 207264, Tempo, 545454
1, 207360, Tempo, 600000
1, 207456, Tempo, 500000
1, 207552, Tempo, 444444
1, 218112, Tempo, 461538
1, 218304, Tempo, 500000
1, 218496, Tempo, 521739
1, 218688, Tempo, 545454
1, 218880, Tempo, 480000
1, 219264, Tempo, 444444
1, 233856, Tempo, 461538
1, 234048, Tempo, 500000
1, 234240, Tempo, 545454
1, 234432, Tempo, 500000
1, 234528, Tempo, 444444
1, 236160, Tempo, 437956
1, 236736, Tempo, 444444
1, 236832, Tempo, 480000
1, 236928, Tempo, 500000
1, 237024, Tempo, 521739
1, 237120, Tempo, 545454
1, 237312, Tempo, 461538
1, 237408, Tempo, 444444
1, 237504, Tempo, 428571
1, 244416, Tempo, 461538
1, 244608, Tempo, 480000
1, 246528, Tempo, 500000
1, 246720, Tempo, 521739
1, 246912, Tempo, 545454
1, 247008, Tempo, 571428
1, 247200, Tempo, 545454
1, 247296, Tempo, 500000
1, 247392, Tempo, 461538
1, 247488, Tempo, 444444
1, 247584, Tempo, 428571
1, 251328, Tempo, 444444
1, 251424, Tempo, 461538
1, 251520, Tempo, 480000
1, 251616, Tempo, 545454
1, 251616, End_track
2, 0, Start_track
2, 0, Title_t, "Right"
2, 0, Control_c, 0, 0, 0
2, 0, Program_c, 0, 0
2, 0, Control_c, 0, 7, 100
2, 0, Control_c, 0, 10, 77
2, 0, Control_c, 0, 91, 127
2, 0, Key_signature, -5, "minor"
2, 0, Note_on_c, 0, 77, 80
2, 0, Note_on_c, 0, 73, 80
2, 336, Note_on_c, 0, 73, 80
2, 336, Note_on_c, 0, 77, 80
2, 380, Note_off_c, 0, 77, 100
2, 380, Note_off_c, 0, 73, 100
2, 384, Note_on_c, 0, 78, 80
2, 384, Note_on_c, 0, 75, 80
2, 572, Note_off_c, 0, 73, 100
2, 572, Note_off_c, 0, 77, 100
2, 572, Note_off_c, 0, 78, 100
2, 572, Note_off_c, 0, 75, 100
2, 576, Note_on_c, 0, 63, 80
2, 576, Note_on_c, 0, 66, 80
2, 576, Note_on_c, 0, 69, 80
2, 576, Note_on_c, 0, 60, 80
2, 756, Note_off_c, 0, 60, 100
2, 764, Note_off_c, 0, 63, 100
2, 764, Note_off_c, 0, 66, 100
2, 764, Note_off_c, 0, 69, 100
2, 768, Note_on_c, 0, 65, 80
2, 768, Note_on_c, 0, 61, 80
2, 768, Note_on_c, 0, 70, 80
2, 956, Note_off_c, 0, 65, 100
2, 956, Note_off_c, 0, 61, 100
2, 956, Note_off_c, 0, 70, 100
2, 960, Note_on_c, 0, 77, 80
2, 960, Note_on_c, 0, 74, 80
2, 1148, Note_off_c, 0, 77, 100
2, 1148, Note_off_c, 0, 74, 100
2, 1152, Note_on_c, 0, 75, 80
2, 1152, Note_on_c, 0, 80, 80
2, 1340, Note_off_c, 0, 80, 100
2, 1344, Note_on_c, 0, 78, 80
2, 1532, Note_off_c, 0, 75, 100
2, 1532, Note_off_c, 0, 78, 100
2, 1536, Note_on_c, 0, 75, 80
2, 1536, Note_on_c, 0, 78, 80
2, 1916, Note_off_c, 0, 75, 100
2, 1916, Note_off_c, 0, 78, 100
2, 1920, Note_on_c, 0, 71, 80
2, 1920, Note_on_c, 0, 80, 80
2, 2300, Note_off_c, 0, 71, 100
2, 2300, Note_off_c, 0, 80, 100
2, 2304, Note_on_c, 0, 59, 80
2, 2304, Note_on_c, 0, 61, 80
2, 2684, Note_off_c, 0, 59, 100
2, 2684, Note_off_c, 0, 61, 100
2, 2688, Note_on_c, 0, 58, 80
2, 2688, Note_on_c, 0, 61, 80
2, 2688, Note_on_c, 0, 64, 80
2, 3068, Note_off_c, 0, 58, 100
2, 3068, Note_off_c, 0, 61, 100
2, 3068, Note_off_c, 0, 64, 100
2, 3072, Note_on_c, 0, 58, 80
2, 3072, Note_on_c, 0, 61, 80
2, 3072, Note_on_c, 0, 63, 80
2, 3260, Note_off_c, 0, 58, 100
2, 3260, Note_off_c, 0, 61, 100
2, 3264, Note_on_c, 0, 59, 80
2, 3452, Note_off_c, 0, 63, 100
2, 3452, Note_off_c, 0, 59, 100
2, 3456, Note_on_c, 0, 56, 80
2, 3456, Note_on_c, 0, 58, 80
2, 3456, Note_on_c, 0, 64, 80
2, 3644, Note_off_c, 0, 56, 100
2, 3644, Note_off_c, 0, 58, 100
2, 3644, Note_off_c, 0, 64, 100
2, 3648, Note_on_c, 0, 76, 80
2, 3836, Note_off_c, 0, 76, 100
2, 4032, Note_on_c, 0, 56, 80
2, 4032, Note_on_c, 0, 58, 80
2, 4220, Note_off_c, 0, 56, 100
2, 4220, Note_off_c, 0, 58, 100
2, 4416, Note_on_c, 0, 55, 80
2, 4416, Note_on_c, 0, 58, 80
2, 4416, Note_on_c, 0, 63, 80
2, 4604, Note_off_c, 0, 55, 100
2, 4604, Note_off_c, 0, 58, 100
2, 4604, Note_off_c, 0, 63, 100
2, 4608, Control_c, 0, 64, 127
2, 4800, Note_on_c, 0, 55, 80
2, 4832, Note_on_c, 0, 58, 80
2, 4864, Note_on_c, 0, 61, 80
2, 4896, Note_on_c, 0, 63, 80
2, 4928, Note_on_c, 0, 67, 80
2, 4960, Note_on_c, 0, 70, 80
2, 4992, Note_on_c, 0, 73, 80
2, 5588, Note_off_c, 0, 70, 100
2, 5664, Note_on_c, 0, 70, 80
2, 5752, Control_c, 0, 64, 0
2, 5756, Note_off_c, 0, 55, 100
2, 5756, Note_off_c, 0, 58, 100
2, 5756, Note_off_c, 0, 61, 100
2, 5756, Note_off_c, 0, 63, 100
2, 5756, Note_off_c, 0, 67, 100
2, 5760, Note_on_c, 0, 68, 80
2, 5952, Note_on_c, 0, 67, 80
2, 6140, Note_off_c, 0, 73, 100
2, 6140, Note_off_c, 0, 70, 100
2, 6236, Note_off_c, 0, 67, 64
2, 6236, Note_off_c, 0, 68, 64
2, 6240, Note_on_c, 0, 70, 80
2, 6288, Note_on_c, 0, 73, 80
2, 6332, Note_off_c, 0, 70, 100
2, 6336, Note_on_c, 0, 76, 80
2, 6380, Note_off_c, 0, 73, 100
2, 6384, Note_on_c, 0, 75, 80
2, 6428, Note_off_c, 0, 76, 100
2, 6476, Note_off_c, 0, 75, 100
2, 6480, Note_on_c, 0, 70, 80
2, 6528, Note_on_c, 0, 73, 80
2, 6572, Note_off_c, 0, 70, 100
2, 6620, Note_off_c, 0, 73, 100
2, 6624, Note_on_c, 0, 71, 80
2, 6812, Note_off_c, 0, 71, 100
2, 6912, Note_on_c, 0, 56, 80
2, 6912, Note_on_c, 0, 59, 80
2, 7100, Note_off_c, 0, 56, 100
2, 7100, Note_off_c, 0, 59, 100
2, 7104, Note_on_c, 0, 52, 80
2, 7104, Note_on_c, 0, 57, 80
2, 7292, Note_off_c, 0, 52, 100
2, 7292, Note_off_c, 0, 57, 100
2, 7296, Note_on_c, 0, 54, 80
2, 7296, Note_on_c, 0, 51, 80
2, 7296, Note_on_c, 0, 57, 80
2, 7676, Note_off_c, 0, 54, 100
2, 7676, Note_off_c, 0, 51, 100
2, 7676, Note_off_c, 0, 57, 100
2, 7680, Control_c, 0, 64, 127
2, 7680, Note_on_c, 0, 69, 80
2, 7772, Note_off_c, 0, 69, 100
2, 7824, Note_on_c, 0, 81, 82
2, 8048, Note_on_c, 0, 81, 86
2, 8160, Note_on_c, 0, 81, 74
2, 8204, Note_off_c, 0, 81, 100
2, 8236, Note_off_c, 0, 81, 100
2, 8252, Note_off_c, 0, 81, 100
2, 8256, Note_on_c, 0, 81, 89
2, 8348, Note_off_c, 0, 81, 100
2, 8352, Note_on_c, 0, 81, 78
2, 8444, Note_off_c, 0, 81, 100
2, 8448, Note_on_c, 0, 81, 93
2, 8540, Note_off_c, 0, 81, 100
2, 8544, Note_on_c, 0, 81, 81
2, 8636, Note_off_c, 0, 81, 100
2, 8640, Note_on_c, 0, 81, 96
2, 8732, Note_off_c, 0, 81, 100
2, 8736, Note_on_c, 0, 81, 85
2, 8828, Note_off_c, 0, 81, 100
2, 8832, Note_on_c, 0, 81, 99
2, 8924, Note_off_c, 0, 81, 100
2, 8928, Note_on_c, 0, 81, 89
2, 9020, Note_off_c, 0, 81, 100
2, 9024, Note_on_c, 0, 81, 102
2, 9116, Note_off_c, 0, 81, 100
2, 9120, Note_on_c, 0, 81, 92
2, 9212, Note_off_c, 0, 81, 100
2, 9216, Key_signature, 4, "minor"
2, 9216, Note_on_c, 0, 81, 106
2, 9308, Note_off_c, 0, 81, 100
2, 9312, Note_on_c, 0, 81, 92
2, 9404, Note_off_c, 0, 81, 100
2, 9408, Note_on_c, 0, 81, 109
2, 9500, Note_off_c, 0, 81, 100
2, 9504, Note_on_c, 0, 81, 95
2, 9596, Note_off_c, 0, 81, 100
2, 9600, Note_on_c, 0, 81, 110
2, 9692, Note_off_c, 0, 81, 100
2, 9696, Note_on_c, 0, 81, 106
2, 9788, Note_off_c, 0, 81, 100
2, 9792, Note_on_c, 0, 81, 104
2, 9884, Note_off_c, 0, 81, 100
2, 9888, Note_on_c, 0, 81, 93
2, 9980, Note_off_c, 0, 81, 100
2, 9984, Note_on_c, 0, 81, 98
2, 10076, Note_off_c, 0, 81, 100
2, 10080, Note_on_c, 0, 81, 81
2, 10172, Note_off_c, 0, 81, 100
2, 10176, Note_on_c, 0, 81, 92
2, 10268, Note_off_c, 0, 81, 100
2, 10272, Note_on_c, 0, 81, 77
2, 10364, Note_off_c, 0, 81, 100
2, 10368, Note_on_c, 0, 81, 86
2, 10460, Note_off_c, 0, 81, 100
2, 10464, Note_on_c, 0, 81, 75
2, 10556, Note_off_c, 0, 81, 100
2, 10560, Note_on_c, 0, 81, 80
2, 10748, Note_off_c, 0, 81, 100
2, 10752, Note_on_c, 0, 78, 80
2, 10940, Note_off_c, 0, 78, 100
2, 10944, Note_on_c, 0, 75, 80
2, 11132, Note_off_c, 0, 75, 100
2, 11136, Note_on_c, 0, 69, 80
2, 11324, Note_off_c, 0, 69, 100
2, 11328, Note_on_c, 0, 73, 80
2, 11516, Note_off_c, 0, 73, 100
2, 11520, Note_on_c, 0, 71, 80
2, 11704, Control_c, 0, 64, 0
2, 11708, Note_off_c, 0, 71, 100
2, 11712, Note_on_c, 0, 69, 80
2, 11900, Note_off_c, 0, 69, 100
2, 11904, Note_on_c, 0, 68, 80
2, 12092, Note_off_c, 0, 68, 100
2, 12096, Note_on_c, 0, 76, 80
2, 12476, Note_off_c, 0, 76, 64
2, 12480, Note_on_c, 0, 67, 80
2, 12668, Note_off_c, 0, 67, 100
2, 12672, Note_on_c, 0, 71, 80
2, 13052, Note_off_c, 0, 71, 100
2, 13056, Note_on_c, 0, 70, 80
2, 13244, Note_off_c, 0, 70, 100
2, 13248, Note_on_c, 0, 68, 80
2, 13436, Note_off_c, 0, 68, 100
2, 13440, Note_on_c, 0, 67, 80
2, 13724, Note_off_c, 0, 67, 100
2, 13728, Note_on_c, 0, 68, 80
2, 13820, Note_off_c, 0, 68, 100
2, 13824, Note_on_c, 0, 68, 80
2, 14108, Note_off_c, 0, 68, 100
2, 14112, Note_on_c, 0, 63, 80
2, 14396, Note_off_c, 0, 63, 100
2, 14400, Control_c, 0, 64, 127
2, 14400, Note_on_c, 0, 63, 80
2, 14492, Note_off_c, 0, 63, 100
2, 14496, Note_on_c, 0, 63, 80
2, 14588, Note_off_c, 0, 63, 100
2, 14592, Note_on_c, 0, 63, 80
2, 14684, Note_off_c, 0, 63, 100
2, 14688, Note_on_c, 0, 63, 80
2, 14780, Note_off_c, 0, 63, 100
2, 14784, Note_on_c, 0, 63, 80
2, 14876, Note_off_c, 0, 63, 100
2, 14880, Note_on_c, 0, 63, 80
2, 14972, Note_off_c, 0, 63, 100
2, 14976, Key_signature, -6, "minor"
2, 14976, Note_on_c, 0, 59, 80
2, 14976, Note_on_c, 0, 63, 80
2, 15068, Note_off_c, 0, 59, 100
2, 15068, Note_off_c, 0, 63, 100
2, 15072, Note_on_c, 0, 59, 83
2, 15072, Note_on_c, 0, 63, 83
2, 15164, Note_off_c, 0, 59, 100
2, 15164, Note_off_c, 0, 63, 100
2, 15168, Note_on_c, 0, 59, 87
2, 15168, Note_on_c, 0, 63, 87
2, 15260, Note_off_c, 0, 59, 100
2, 15260, Note_off_c, 0, 63, 100
2, 15264, Note_on_c, 0, 59, 91
2, 15264, Note_on_c, 0, 63, 91
2, 15356, Note_off_c, 0, 59, 100
2, 15356, Note_off_c, 0, 63, 100
2, 15360, Note_on_c, 0, 59, 95
2, 15360, Note_on_c, 0, 63, 95
2, 15452, Note_off_c, 0, 59, 100
2, 15452, Note_off_c, 0, 63, 100
2, 15456, Note_on_c, 0, 59, 99
2, 15456, Note_on_c, 0, 63, 99
2, 15548, Note_off_c, 0, 59, 100
2, 15548, Note_off_c, 0, 63, 100
2, 15552, Note_on_c, 0, 56, 100
2, 15552, Note_on_c, 0, 59, 100
2, 15552, Note_on_c, 0, 63, 100
2, 15644, Note_off_c, 0, 56, 100
2, 15644, Note_off_c, 0, 59, 100
2, 15644, Note_off_c, 0, 63, 100
2, 15648, Note_on_c, 0, 56, 97
2, 15648, Note_on_c, 0, 59, 97
2, 15648, Note_on_c, 0, 63, 97
2, 15740, Note_off_c, 0, 56, 100
2, 15740, Note_off_c, 0, 59, 100
2, 15740, Note_off_c, 0, 63, 100
2, 15744, Note_on_c, 0, 56, 93
2, 15744, Note_on_c, 0, 59, 93
2, 15744, Note_on_c, 0, 63, 93
2, 15836, Note_off_c, 0, 56, 100
2, 15836, Note_off_c, 0, 59, 100
2, 15836, Note_off_c, 0, 63, 100
2, 15840, Note_on_c, 0, 56, 89
2, 15840, Note_on_c, 0, 59, 89
2, 15840, Note_on_c, 0, 63, 89
2, 15932, Note_off_c, 0, 56, 100
2, 15932, Note_off_c, 0, 59, 100
2, 15932, Note_off_c, 0, 63, 100
2, 15936, Note_on_c, 0, 56, 85
2, 15936, Note_on_c, 0, 59, 85
2, 15936, Note_on_c, 0, 63, 85
2, 16028, Note_off_c, 0, 56, 100
2, 16028, Note_off_c, 0, 59, 100
2, 16028, Note_off_c, 0, 63, 100
2, 16032, Note_on_c, 0, 56, 81
2, 16032, Note_on_c, 0, 59, 81
2, 16032, Note_on_c, 0, 63, 81
2, 16124, Note_off_c, 0, 56, 100
2, 16124, Note_off_c, 0, 59, 100
2, 16124, Note_off_c, 0, 63, 100
2, 16128, Note_on_c, 0, 75, 80
2, 16604, Note_off_c, 0, 75, 100
2, 16608, Note_on_c, 0, 73, 80
2, 16892, Note_off_c, 0, 73, 100
2, 16896, Note_on_c, 0, 71, 80
2, 16988, Note_off_c, 0, 71, 100
2, 16992, Note_on_c, 0, 70, 80
2, 17084, Note_off_c, 0, 70, 100
2, 17088, Note_on_c, 0, 71, 80
2, 17180, Note_off_c, 0, 71, 100
2, 17184, Note_on_c, 0, 68, 80
2, 17276, Note_off_c, 0, 68, 100
2, 17278, Control_c, 0, 64, 0
2, 17280, Note_on_c, 0, 68, 80
2, 17564, Note_off_c, 0, 68, 100
2, 17568, Note_on_c, 0, 67, 80
2, 18044, Note_off_c, 0, 67, 100
2, 18048, Note_on_c, 0, 76, 80
2, 18332, Note_off_c, 0, 76, 100
2, 18336, Note_on_c, 0, 75, 80
2, 18428, Note_off_c, 0, 75, 100
2, 18432, Note_on_c, 0, 75, 80
2, 18620, Note_off_c, 0, 75, 100
2, 18624, Note_on_c, 0, 80, 80
2, 18908, Note_off_c, 0, 80, 100
2, 18912, Note_on_c, 0, 78, 80
2, 19196, Note_off_c, 0, 78, 100
2, 19200, Note_on_c, 0, 76, 80
2, 19292, Note_off_c, 0, 76, 100
2, 19296, Note_on_c, 0, 75, 80
2, 19484, Note_off_c, 0, 75, 100
2, 19488, Note_on_c, 0, 73, 80
2, 19580, Note_off_c, 0, 73, 100
2, 19584, Note_on_c, 0, 71, 80
2, 19964, Note_off_c, 0, 71, 100
2, 19968, Note_on_c, 0, 73, 80
2, 20060, Note_off_c, 0, 73, 100
2, 20064, Note_on_c, 0, 75, 80
2, 20108, Note_off_c, 0, 75, 100
2, 20112, Note_on_c, 0, 73, 80
2, 20132, Note_off_c, 0, 73, 100
2, 20136, Note_on_c, 0, 71, 80
2, 20156, Note_off_c, 0, 71, 100
2, 20160, Note_on_c, 0, 70, 80
2, 20540, Note_off_c, 0, 70, 100
2, 20544, Note_on_c, 0, 71, 80
2, 20636, Note_off_c, 0, 71, 100
2, 20640, Note_on_c, 0, 73, 80
2, 20732, Note_off_c, 0, 73, 100
2, 20736, Note_on_c, 0, 71, 80
2, 21308, Note_off_c, 0, 71, 100
2, 21312, Note_on_c, 0, 73, 86
2, 21884, Note_off_c, 0, 73, 100
2, 21888, Note_on_c, 0, 75, 92
2, 22460, Note_off_c, 0, 75, 100
2, 22464, Note_on_c, 0, 76, 99
2, 22748, Note_off_c, 0, 76, 100
2, 22752, Note_on_c, 0, 80, 102
2, 23036, Note_off_c, 0, 80, 100
2, 23040, Note_on_c, 0, 78, 105
2, 23228, Note_off_c, 0, 78, 100
2, 23232, Note_on_c, 0, 83, 107
2, 23324, Note_off_c, 0, 83, 100
2, 23328, Note_on_c, 0, 80, 108
2, 23516, Note_off_c, 0, 80, 100
2, 23520, Note_on_c, 0, 92, 110
2, 23804, Note_off_c, 0, 92, 100
2, 23808, Note_on_c, 0, 90, 110
2, 23996, Note_off_c, 0, 90, 100
2, 24000, Note_on_c, 0, 87, 110
2, 24092, Note_off_c, 0, 87, 100
2, 24096, Note_on_c, 0, 88, 97
2, 24140, Note_off_c, 0, 88, 100
2, 24144, Note_on_c, 0, 82, 91
2, 24188, Note_off_c, 0, 82, 100
2, 24192, Note_on_c, 0, 85, 80
2, 24764, Note_off_c, 0, 85, 100
2, 24768, Note_on_c, 0, 83, 80
2, 25052, Note_off_c, 0, 83, 100
2, 25056, Note_on_c, 0, 75, 80
2, 25628, Note_off_c, 0, 75, 64
2, 25632, Note_on_c, 0, 69, 80
2, 25916, Note_off_c, 0, 69, 100
2, 25920, Note_on_c, 0, 68, 80
2, 26204, Note_off_c, 0, 68, 100
2, 26208, Note_on_c, 0, 78, 80
2, 26396, Note_off_c, 0, 78, 100
2, 26400, Note_on_c, 0, 75, 80
2, 26492, Note_off_c, 0, 75, 100
2, 26496, Note_on_c, 0, 78, 80
2, 26780, Note_off_c, 0, 78, 100
2, 26784, Note_on_c, 0, 76, 80
2, 26880, Note_on_c, 0, 68, 80
2, 26972, Note_off_c, 0, 68, 100
2, 26976, Note_on_c, 0, 68, 80
2, 27068, Note_off_c, 0, 68, 100
2, 27072, Note_on_c, 0, 68, 80
2, 27164, Note_off_c, 0, 68, 100
2, 27168, Note_on_c, 0, 68, 80
2, 27260, Note_off_c, 0, 68, 100
2, 27264, Note_on_c, 0, 68, 80
2, 27356, Note_off_c, 0, 76, 100
2, 27356, Note_off_c, 0, 68, 100
2, 27360, Note_on_c, 0, 75, 80
2, 27360, Note_on_c, 0, 68, 80
2, 27452, Note_off_c, 0, 68, 100
2, 27456, Note_on_c, 0, 68, 80
2, 27548, Note_off_c, 0, 68, 100
2, 27552, Note_on_c, 0, 68, 80
2, 27644, Note_off_c, 0, 68, 100
2, 27648, Note_on_c, 0, 68, 80
2, 27740, Note_off_c, 0, 68, 100
2, 27744, Note_on_c, 0, 68, 80
2, 27836, Note_off_c, 0, 75, 64
2, 27836, Note_off_c, 0, 68, 100
2, 27840, Note_on_c, 0, 73, 80
2, 27840, Note_on_c, 0, 68, 80
2, 27932, Note_off_c, 0, 68, 100
2, 27936, Note_on_c, 0, 68, 80
2, 28028, Note_off_c, 0, 68, 100
2, 28032, Note_on_c, 0, 68, 80
2, 28124, Note_off_c, 0, 73, 100
2, 28124, Note_off_c, 0, 68, 100
2, 28128, Note_on_c, 0, 71, 80
2, 28128, Note_on_c, 0, 68, 80
2, 28220, Note_off_c, 0, 68, 100
2, 28412, Note_off_c, 0, 71, 100
2, 28416, Note_on_c, 0, 70, 80
2, 28604, Note_off_c, 0, 70, 100
2, 28608, Note_on_c, 0, 71, 80
2, 28700, Note_off_c, 0, 71, 100
2, 28704, Note_on_c, 0, 68, 80
2, 28796, Note_off_c, 0, 68, 100
2, 28800, Note_on_c, 0, 68, 80
2, 29372, Note_off_c, 0, 68, 100
2, 29376, Note_on_c, 0, 67, 80
2, 29660, Note_off_c, 0, 67, 100
2, 29664, Note_on_c, 0, 63, 80
2, 29948, Note_off_c, 0, 63, 100
2, 29952, Note_on_c, 0, 68, 80
2, 30048, Note_on_c, 0, 62, 80
2, 30140, Note_off_c, 0, 62, 100
2, 30144, Note_on_c, 0, 62, 80
2, 30236, Note_off_c, 0, 62, 100
2, 30240, Note_on_c, 0, 62, 80
2, 30332, Note_off_c, 0, 62, 100
2, 30336, Note_on_c, 0, 63, 80
2, 30428, Note_off_c, 0, 63, 100
2, 30432, Note_on_c, 0, 63, 80
2, 30524, Note_off_c, 0, 68, 100
2, 30524, Note_off_c, 0, 63, 100
2, 30528, Note_on_c, 0, 64, 80
2, 30528, Note_on_c, 0, 67, 80
2, 30812, Note_off_c, 0, 64, 100
2, 30816, Note_on_c, 0, 63, 80
2, 31100, Note_off_c, 0, 67, 100
2, 31104, Note_on_c, 0, 71, 80
2, 31196, Note_off_c, 0, 63, 64
2, 31200, Note_on_c, 0, 62, 80
2, 31292, Note_off_c, 0, 62, 100
2, 31296, Note_on_c, 0, 62, 80
2, 31388, Note_off_c, 0, 62, 100
2, 31392, Note_on_c, 0, 62, 80
2, 31484, Note_off_c, 0, 62, 100
2, 31488, Note_on_c, 0, 63, 80
2, 31580, Note_off_c, 0, 63, 100
2, 31584, Note_on_c, 0, 63, 80
2, 31676, Note_off_c, 0, 71, 100
2, 31676, Note_off_c, 0, 63, 100
2, 31680, Note_on_c, 0, 64, 80
2, 31680, Note_on_c, 0, 70, 80
2, 31868, Note_off_c, 0, 64, 100
2, 31872, Note_on_c, 0, 63, 80
2, 31964, Note_off_c, 0, 70, 100
2, 31964, Note_off_c, 0, 63, 100
2, 31968, Note_on_c, 0, 68, 80
2, 31968, Note_on_c, 0, 72, 80
2, 32156, Note_off_c, 0, 68, 100
2, 32160, Note_on_c, 0, 63, 80
2, 32252, Note_off_c, 0, 72, 100
2, 32252, Note_off_c, 0, 63, 100
2, 32256, Note_on_c, 0, 73, 80
2, 32256, Note_on_c, 0, 68, 80
2, 32348, Note_off_c, 0, 68, 100
2, 32352, Note_on_c, 0, 68, 80
2, 32444, Note_off_c, 0, 68, 100
2, 32448, Note_on_c, 0, 68, 80
2, 32540, Note_off_c, 0, 68, 100
2, 32544, Note_on_c, 0, 68, 80
2, 32636, Note_off_c, 0, 73, 100
2, 32636, Note_off_c, 0, 68, 100
2, 32640, Note_on_c, 0, 75, 80
2, 32640, Note_on_c, 0, 68, 80
2, 32732, Note_off_c, 0, 75, 100
2, 32732, Note_off_c, 0, 68, 100
2, 32736, Note_on_c, 0, 76, 80
2, 32736, Note_on_c, 0, 68, 80
2, 32828, Note_off_c, 0, 76, 100
2, 32828, Note_off_c, 0, 68, 100
2, 32832, Note_on_c, 0, 76, 80
2, 33020, Note_off_c, 0, 76, 100
2, 33024, Note_on_c, 0, 75, 80
2, 33308, Note_off_c, 0, 75, 100
2, 33312, Note_on_c, 0, 67, 80
2, 33404, Note_off_c, 0, 67, 100
2, 33408, Note_on_c, 0, 70, 80
2, 33696, Note_on_c, 0, 63, 80
2, 33788, Note_off_c, 0, 63, 100
2, 33792, Note_on_c, 0, 63, 80
2, 33884, Note_off_c, 0, 63, 100
2, 33888, Note_on_c, 0, 63, 80
2, 33980, Note_off_c, 0, 70, 100
2, 33980, Note_off_c, 0, 63, 100
2, 33984, Note_on_c, 0, 68, 80
2, 33984, Note_on_c, 0, 63, 80
2, 34268, Note_off_c, 0, 68, 100
2, 34268, Note_off_c, 0, 63, 100
2, 34272, Note_on_c, 0, 59, 80
2, 34556, Note_off_c, 0, 59, 100
2, 34560, Note_on_c, 0, 58, 75
2, 34844, Note_off_c, 0, 58, 100
2, 34848, Note_on_c, 0, 63, 71
2, 35132, Note_off_c, 0, 63, 100
2, 35136, Note_on_c, 0, 56, 70
2, 35420, Note_off_c, 0, 56, 100
2, 35424, Note_on_c, 0, 56, 70
2, 35708, Note_off_c, 0, 56, 100
2, 35712, Key_signature, -4, "minor"
2, 35712, Note_on_c, 0, 56, 70
2, 35998, Note_off_c, 0, 56, 100
2, 40896, Note_on_c, 0, 63, 80
2, 41468, Note_off_c, 0, 63, 100
2, 41472, Note_on_c, 0, 68, 80
2, 42044, Note_off_c, 0, 68, 100
2, 42048, Note_on_c, 0, 65, 80
2, 42620, Note_off_c, 0, 65, 100
2, 42624, Note_on_c, 0, 70, 80
2, 43196, Note_off_c, 0, 70, 100
2, 43200, Note_on_c, 0, 67, 80
2, 43772, Note_off_c, 0, 67, 100
2, 43776, Note_on_c, 0, 72, 80
2, 44348, Note_off_c, 0, 72, 100
2, 44352, Note_on_c, 0, 70, 80
2, 44732, Note_off_c, 0, 70, 100
2, 44736, Note_on_c, 0, 68, 80
2, 44924, Note_off_c, 0, 68, 100
2, 44928, Note_on_c, 0, 67, 80
2, 45500, Note_off_c, 0, 67, 100
2, 45504, Note_on_c, 0, 70, 80
2, 46652, Note_off_c, 0, 70, 100
2, 46656, Note_on_c, 0, 68, 80
2, 47036, Note_off_c, 0, 68, 100
2, 47040, Note_on_c, 0, 66, 80
2, 47228, Note_off_c, 0, 66, 100
2, 47232, Note_on_c, 0, 65, 80
2, 47808, Note_on_c, 0, 68, 80
2, 47996, Note_off_c, 0, 65, 100
2, 48000, Note_on_c, 0, 62, 80
2, 48188, Note_off_c, 0, 62, 100
2, 48192, Note_on_c, 0, 63, 80
2, 48380, Note_off_c, 0, 68, 100
2, 48380, Note_off_c, 0, 63, 100
2, 48384, Note_on_c, 0, 73, 80
2, 48384, Note_on_c, 0, 65, 80
2, 48572, Note_off_c, 0, 65, 100
2, 48576, Note_on_c, 0, 70, 80
2, 48764, Note_off_c, 0, 70, 100
2, 48768, Note_on_c, 0, 68, 80
2, 48956, Note_off_c, 0, 73, 100
2, 48960, Note_on_c, 0, 70, 80
2, 49152, Note_on_c, 0, 65, 80
2, 49172, Note_off_c, 0, 68, 100
2, 49340, Note_off_c, 0, 65, 100
2, 49344, Note_on_c, 0, 67, 80
2, 49532, Note_off_c, 0, 70, 100
2, 49536, Note_on_c, 0, 75, 80
2, 49724, Note_off_c, 0, 67, 100
2, 49728, Note_on_c, 0, 72, 80
2, 49916, Note_off_c, 0, 72, 100
2, 49920, Note_on_c, 0, 70, 80
2, 50108, Note_off_c, 0, 75, 100
2, 50112, Note_on_c, 0, 72, 80
2, 50300, Note_off_c, 0, 70, 100
2, 50304, Note_on_c, 0, 67, 80
2, 50492, Note_off_c, 0, 67, 100
2, 50496, Note_on_c, 0, 69, 80
2, 50684, Note_off_c, 0, 72, 100
2, 50688, Note_on_c, 0, 77, 80
2, 50876, Note_off_c, 0, 69, 100
2, 50880, Note_on_c, 0, 70, 80
2, 51068, Note_off_c, 0, 70, 100
2, 51072, Note_on_c, 0, 68, 80
2, 51260, Note_off_c, 0, 77, 100
2, 51260, Note_off_c, 0, 68, 100
2, 51264, Note_on_c, 0, 75, 80
2, 51264, Note_on_c, 0, 67, 80
2, 51452, Note_off_c, 0, 67, 100
2, 51456, Note_on_c, 0, 68, 80
2, 51644, Note_off_c, 0, 75, 100
2, 51644, Note_off_c, 0, 68, 100
2, 51648, Note_on_c, 0, 73, 80
2, 51648, Note_on_c, 0, 70, 80
2, 51836, Note_off_c, 0, 73, 100
2, 51836, Note_off_c, 0, 70, 100
2, 51840, Note_on_c, 0, 72, 80
2, 51840, Note_on_c, 0, 63, 80
2, 52412, Note_off_c, 0, 72, 100
2, 52412, Note_off_c, 0, 63, 100
2, 52416, Note_on_c, 0, 75, 80
2, 52416, Note_on_c, 0, 72, 80
2, 52604, Note_off_c, 0, 72, 100
2, 52608, Note_on_c, 0, 73, 80
2, 52796, Note_off_c, 0, 73, 100
2, 52800, Note_on_c, 0, 70, 80
2, 52988, Note_off_c, 0, 70, 100
2, 52992, Note_on_c, 0, 68, 80
2, 53180, Note_off_c, 0, 68, 100
2, 53184, Note_on_c, 0, 72, 80
2, 53372, Note_off_c, 0, 72, 100
2, 53376, Note_on_c, 0, 70, 80
2, 53564, Note_off_c, 0, 75, 100
2, 53564, Note_off_c, 0, 70, 100
2, 53568, Note_on_c, 0, 68, 80
2, 53568, Note_on_c, 0, 73, 80
2, 53756, Note_off_c, 0, 68, 100
2, 53760, Note_on_c, 0, 67, 80
2, 53948, Note_off_c, 0, 73, 100
2, 53948, Note_off_c, 0, 67, 100
2, 53952, Note_on_c, 0, 68, 80
2, 53952, Note_on_c, 0, 72, 80
2, 54140, Note_off_c, 0, 68, 100
2, 54140, Note_off_c, 0, 72, 100
2, 54144, Note_on_c, 0, 70, 80
2, 54144, Note_on_c, 0, 64, 80
2, 54332, Note_off_c, 0, 64, 100
2, 54336, Note_on_c, 0, 67, 80
2, 54524, Note_off_c, 0, 67, 100
2, 54528, Note_on_c, 0, 65, 80
2, 54716, Note_off_c, 0, 70, 100
2, 54716, Note_off_c, 0, 65, 100
2, 54720, Note_on_c, 0, 73, 80
2, 54720, Note_on_c, 0, 70, 80
2, 54908, Note_off_c, 0, 70, 100
2, 54912, Note_on_c, 0, 72, 80
2, 55100, Note_off_c, 0, 72, 100
2, 55104, Note_on_c, 0, 68, 80
2, 55292, Note_off_c, 0, 68, 100
2, 55296, Note_on_c, 0, 67, 80
2, 55484, Note_off_c, 0, 67, 100
2, 55488, Note_on_c, 0, 70, 80
2, 55676, Note_off_c, 0, 70, 100
2, 55680, Note_on_c, 0, 68, 80
2, 55868, Note_off_c, 0, 73, 100
2, 55868, Note_off_c, 0, 68, 100
2, 55872, Note_on_c, 0, 72, 80
2, 55872, Note_on_c, 0, 67, 80
2, 56060, Note_off_c, 0, 67, 100
2, 56064, Note_on_c, 0, 65, 80
2, 56252, Note_off_c, 0, 72, 100
2, 56252, Note_off_c, 0, 65, 100
2, 56256, Note_on_c, 0, 70, 80
2, 56256, Note_on_c, 0, 67, 80
2, 56444, Note_off_c, 0, 70, 100
2, 56448, Note_on_c, 0, 68, 80
2, 56636, Note_off_c, 0, 67, 100
2, 56640, Note_on_c, 0, 60, 83
2, 56828, Note_off_c, 0, 68, 100
2, 56828, Note_off_c, 0, 60, 100
2, 56832, Note_on_c, 0, 65, 86
2, 56832, Note_on_c, 0, 70, 86
2, 57020, Note_off_c, 0, 70, 100
2, 57024, Note_on_c, 0, 67, 90
2, 57212, Note_off_c, 0, 65, 100
2, 57216, Note_on_c, 0, 63, 93
2, 57404, Note_off_c, 0, 67, 100
2, 57404, Note_off_c, 0, 63, 100
2, 57408, Note_on_c, 0, 65, 97
2, 57408, Note_on_c, 0, 68, 97
2, 57596, Note_off_c, 0, 65, 100
2, 57596, Note_off_c, 0, 68, 100
2, 57600, Note_on_c, 0, 67, 100
2, 57600, Note_on_c, 0, 63, 100
2, 57648, Note_on_c, 0, 65, 101
2, 57694, Note_off_c, 0, 67, 100
2, 57696, Note_on_c, 0, 67, 102
2, 57742, Note_off_c, 0, 65, 100
2, 57744, Note_on_c, 0, 65, 103
2, 57788, Note_off_c, 0, 63, 100
2, 57790, Note_off_c, 0, 67, 100
2, 57792, Note_on_c, 0, 67, 104
2, 57792, Note_on_c, 0, 62, 104
2, 57838, Note_off_c, 0, 65, 100
2, 57840, Note_on_c, 0, 65, 104
2, 57886, Note_off_c, 0, 67, 100
2, 57888, Note_on_c, 0, 67, 105
2, 57934, Note_off_c, 0, 65, 100
2, 57936, Note_on_c, 0, 65, 106
2, 57980, Note_off_c, 0, 62, 100
2, 57982, Note_off_c, 0, 67, 100
2, 57982, Note_off_c, 0, 65, 100
2, 57984, Note_on_c, 0, 63, 107
2, 57984, Note_on_c, 0, 56, 107
2, 58076, Note_off_c, 0, 63, 100
2, 58080, Note_on_c, 0, 65, 109
2, 58172, Note_off_c, 0, 56, 100
2, 58176, Note_on_c, 0, 55, 110
2, 58364, Note_off_c, 0, 65, 100
2, 58368, Note_on_c, 0, 63, 110
2, 58556, Note_off_c, 0, 63, 100
2, 58560, Note_on_c, 0, 61, 110
2, 58748, Note_off_c, 0, 55, 100
2, 58748, Note_off_c, 0, 61, 100
2, 58752, Note_on_c, 0, 60, 110
2, 58752, Note_on_c, 0, 60, 110
2, 58940, Note_off_c, 0, 60, 100
2, 58940, Note_off_c, 0, 60, 100
2, 58944, Note_on_c, 0, 61, 110
2, 58944, Note_on_c, 0, 70, 110
2, 59134, Note_off_c, 0, 61, 100
2, 59134, Note_off_c, 0, 70, 100
2, 59136, Note_on_c, 0, 58, 110
2, 59136, Note_on_c, 0, 68, 110
2, 59326, Note_off_c, 0, 58, 100
2, 59326, Note_off_c, 0, 68, 100
2, 59328, Note_on_c, 0, 72, 110
2, 59328, Note_on_c, 0, 56, 110
2, 59518, Note_off_c, 0, 56, 100
2, 59520, Note_on_c, 0, 58, 110
2, 59710, Note_off_c, 0, 58, 100
2, 59712, Note_on_c, 0, 60, 110
2, 59902, Note_off_c, 0, 72, 100
2, 59902, Note_off_c, 0, 60, 100
2, 59904, Note_on_c, 0, 67, 110
2, 59904, Note_on_c, 0, 61, 110
2, 60094, Note_off_c, 0, 61, 100
2, 60096, Note_on_c, 0, 63, 110
2, 60286, Note_off_c, 0, 67, 100
2, 60286, Note_off_c, 0, 63, 100
2, 60288, Note_on_c, 0, 60, 110
2, 60478, Note_off_c, 0, 60, 100
2, 60480, Note_on_c, 0, 70, 110
2, 60480, Note_on_c, 0, 58, 110
2, 60670, Note_off_c, 0, 58, 100
2, 60672, Note_on_c, 0, 60, 110
2, 60862, Note_off_c, 0, 60, 100
2, 60864, Note_on_c, 0, 61, 110
2, 61054, Note_off_c, 0, 70, 100
2, 61054, Note_off_c, 0, 61, 100
2, 61056, Note_on_c, 0, 70, 110
2, 61056, Note_on_c, 0, 63, 110
2, 61246, Note_off_c, 0, 70, 100
2, 61246, Note_off_c, 0, 63, 100
2, 61248, Note_on_c, 0, 63, 110
2, 61248, Note_on_c, 0, 67, 110
2, 61438, Note_off_c, 0, 67, 100
2, 61440, Note_on_c, 0, 68, 110
2, 61630, Note_off_c, 0, 63, 100
2, 61632, Note_on_c, 0, 62, 110
2, 61822, Note_off_c, 0, 68, 100
2, 61824, Note_on_c, 0, 70, 110
2, 62014, Note_off_c, 0, 70, 100
2, 62016, Note_on_c, 0, 72, 110
2, 62206, Note_off_c, 0, 62, 100
2, 62208, Note_on_c, 0, 63, 110
2, 62398, Note_off_c, 0, 72, 64
2, 62400, Note_on_c, 0, 68, 110
2, 62590, Note_off_c, 0, 68, 100
2, 62592, Note_on_c, 0, 70, 110
2, 62782, Note_off_c, 0, 63, 100
2, 62782, Note_off_c, 0, 70, 100
2, 62784, Note_on_c, 0, 61, 110
2, 62784, Note_on_c, 0, 63, 110
2, 62974, Note_off_c, 0, 63, 100
2, 62976, Note_on_c, 0, 65, 109
2, 63166, Note_off_c, 0, 65, 100
2, 63168, Note_on_c, 0, 67, 108
2, 63358, Note_off_c, 0, 67, 100
2, 63360, Note_on_c, 0, 68, 107
2, 63550, Note_off_c, 0, 68, 100
2, 63552, Note_on_c, 0, 65, 105
2, 63742, Note_off_c, 0, 65, 100
2, 63744, Note_on_c, 0, 67, 104
2, 63934, Note_off_c, 0, 61, 64
2, 63936, Note_on_c, 0, 60, 103
2, 64126, Note_off_c, 0, 67, 100
2, 64128, Note_on_c, 0, 68, 101
2, 64318, Note_off_c, 0, 68, 100
2, 64320, Note_on_c, 0, 70, 100
2, 64510, Note_off_c, 0, 60, 100
2, 64512, Note_on_c, 0, 61, 99
2, 64702, Note_off_c, 0, 70, 64
2, 64704, Note_on_c, 0, 67, 97
2, 64894, Note_off_c, 0, 67, 100
2, 64896, Note_on_c, 0, 68, 96
2, 65086, Note_off_c, 0, 61, 100
2, 65088, Note_on_c, 0, 61, 95
2, 65278, Note_off_c, 0, 68, 100
2, 65280, Note_on_c, 0, 70, 94
2, 65470, Note_off_c, 0, 70, 100
2, 65472, Note_on_c, 0, 68, 92
2, 65662, Note_off_c, 0, 61, 100
2, 65664, Note_on_c, 0, 63, 91
2, 65854, Note_off_c, 0, 68, 64
2, 65856, Note_on_c, 0, 65, 90
2, 66046, Note_off_c, 0, 65, 100
2, 66048, Note_on_c, 0, 66, 88
2, 66238, Note_off_c, 0, 63, 100
2, 66240, Note_on_c, 0, 58, 87
2, 66430, Note_off_c, 0, 66, 100
2, 66432, Note_on_c, 0, 68, 86
2, 66622, Note_off_c, 0, 58, 100
2, 66622, Note_off_c, 0, 68, 100
2, 66624, Note_on_c, 0, 66, 84
2, 66624, Note_on_c, 0, 60, 84
2, 66814, Note_off_c, 0, 60, 100
2, 66816, Note_on_c, 0, 61, 83
2, 67006, Note_off_c, 0, 66, 64
2, 67006, Note_off_c, 0, 61, 100
2, 67008, Note_on_c, 0, 64, 82
2, 67198, Note_off_c, 0, 64, 100
2, 67200, Note_on_c, 0, 65, 81
2, 67392, Note_on_c, 0, 56, 80
2, 67582, Note_off_c, 0, 65, 100
2, 67584, Note_on_c, 0, 62, 80
2, 67774, Note_off_c, 0, 62, 100
2, 67776, Note_on_c, 0, 63, 80
2, 67966, Note_off_c, 0, 56, 100
2, 67966, Note_off_c, 0, 63, 100
2, 67968, Note_on_c, 0, 61, 80
2, 67968, Note_on_c, 0, 67, 80
2, 68158, Note_off_c, 0, 67, 100
2, 68160, Note_on_c, 0, 68, 80
2, 68350, Note_off_c, 0, 68, 100
2, 68352, Note_on_c, 0, 67, 80
2, 68542, Note_off_c, 0, 61, 100
2, 68542, Note_off_c, 0, 67, 100
2, 68544, Note_on_c, 0, 58, 80
2, 68544, Note_on_c, 0, 63, 80
2, 68734, Note_off_c, 0, 63, 100
2, 68736, Note_on_c, 0, 65, 80
2, 68926, Note_off_c, 0, 65, 100
2, 68928, Note_on_c, 0, 67, 80
2, 69118, Note_off_c, 0, 58, 100
2, 69118, Note_off_c, 0, 67, 100
2, 69120, Note_on_c, 0, 63, 80
2, 69120, Note_on_c, 0, 68, 80
2, 69310, Note_off_c, 0, 68, 100
2, 69312, Note_on_c, 0, 70, 80
2, 69502, Note_off_c, 0, 70, 100
2, 69504, Note_on_c, 0, 66, 80
2, 69694, Note_off_c, 0, 63, 100
2, 69694, Note_off_c, 0, 66, 100
2, 69696, Note_on_c, 0, 60, 80
2, 69696, Note_on_c, 0, 65, 80
2, 69886, Note_off_c, 0, 65, 100
2, 69888, Note_on_c, 0, 67, 80
2, 70078, Note_off_c, 0, 67, 100
2, 70080, Note_on_c, 0, 69, 80
2, 70270, Note_off_c, 0, 60, 100
2, 70270, Note_off_c, 0, 69, 100
2, 70272, Note_on_c, 0, 70, 80
2, 70272, Note_on_c, 0, 65, 80
2, 70654, Note_off_c, 0, 70, 100
2, 70656, Note_on_c, 0, 68, 80
2, 70846, Note_off_c, 0, 65, 100
2, 70846, Note_off_c, 0, 68, 100
2, 70848, Note_on_c, 0, 63, 80
2, 70848, Note_on_c, 0, 67, 80
2, 71038, Note_off_c, 0, 67, 100
2, 71040, Note_on_c, 0, 68, 80
2, 71230, Note_off_c, 0, 63, 100
2, 71230, Note_off_c, 0, 68, 100
2, 71232, Note_on_c, 0, 70, 80
2, 71232, Note_on_c, 0, 61, 80
2, 71422, Note_off_c, 0, 61, 100
2, 71424, Note_on_c, 0, 60, 80
2, 71998, Note_off_c, 0, 70, 64
2, 71998, Note_off_c, 0, 60, 100
2, 72000, Note_on_c, 0, 68, 80
2, 72000, Note_on_c, 0, 61, 80
2, 72382, Note_off_c, 0, 61, 100
2, 72384, Note_on_c, 0, 60, 80
2, 72574, Note_off_c, 0, 60, 100
2, 72576, Note_on_c, 0, 58, 80
2, 73150, Note_off_c, 0, 68, 64
2, 73150, Note_off_c, 0, 58, 100
2, 73152, Note_on_c, 0, 67, 80
2, 73152, Note_on_c, 0, 60, 80
2, 73534, Note_off_c, 0, 60, 100
2, 73536, Note_on_c, 0, 58, 80
2, 73726, Note_off_c, 0, 58, 100
2, 73728, Note_on_c, 0, 56, 80
2, 73918, Note_off_c, 0, 67, 64
2, 73920, Note_on_c, 0, 68, 80
2, 74110, Note_off_c, 0, 68, 100
2, 74112, Note_on_c, 0, 67, 80
2, 74302, Note_off_c, 0, 56, 100
2, 74302, Note_off_c, 0, 67, 100
2, 74304, Note_on_c, 0, 58, 80
2, 74304, Note_on_c, 0, 65, 80
2, 74494, Note_off_c, 0, 65, 100
2, 74496, Note_on_c, 0, 64, 80
2, 74686, Note_off_c, 0, 58, 100
2, 74686, Note_off_c, 0, 64, 100
2, 74688, Note_on_c, 0, 65, 80
2, 74688, Note_on_c, 0, 56, 80
2, 74878, Note_off_c, 0, 65, 100
2, 74878, Note_off_c, 0, 56, 100
2, 74880, Note_on_c, 0, 67, 80
2, 74880, Note_on_c, 0, 55, 80
2, 75070, Note_off_c, 0, 67, 100
2, 75072, Note_on_c, 0, 68, 80
2, 75262, Note_off_c, 0, 68, 100
2, 75264, Note_on_c, 0, 65, 80
2, 75454, Note_off_c, 0, 55, 100
2, 75456, Note_on_c, 0, 56, 80
2, 75646, Note_off_c, 0, 65, 100
2, 75648, Note_on_c, 0, 62, 80
2, 75838, Note_off_c, 0, 56, 100
2, 75838, Note_off_c, 0, 62, 100
2, 75840, Note_on_c, 0, 55, 80
2, 75840, Note_on_c, 0, 64, 80
2, 76030, Note_off_c, 0, 55, 100
2, 76030, Note_off_c, 0, 64, 100
2, 76032, Note_on_c, 0, 60, 80
2, 76032, Note_on_c, 0, 65, 80
2, 76222, Note_off_c, 0, 65, 100
2, 76224, Note_on_c, 0, 66, 80
2, 76414, Note_off_c, 0, 66, 100
2, 76416, Note_on_c, 0, 63, 80
2, 76606, Note_off_c, 0, 60, 100
2, 76606, Note_off_c, 0, 63, 100
2, 76608, Note_on_c, 0, 53, 80
2, 76608, Note_on_c, 0, 61, 80
2, 76798, Note_off_c, 0, 61, 100
2, 76800, Note_on_c, 0, 60, 80
2, 76990, Note_off_c, 0, 60, 100
2, 76992, Note_on_c, 0, 61, 80
2, 77182, Note_off_c, 0, 53, 100
2, 77184, Note_on_c, 0, 51, 80
2, 77374, Note_off_c, 0, 61, 64
2, 77376, Note_on_c, 0, 60, 80
2, 77566, Note_off_c, 0, 51, 100
2, 77566, Note_off_c, 0, 60, 100
2, 77568, Note_on_c, 0, 63, 80
2, 77568, Note_on_c, 0, 58, 80
2, 77758, Note_off_c, 0, 63, 100
2, 77758, Note_off_c, 0, 58, 100
2, 77760, Note_on_c, 0, 63, 80
2, 77760, Note_on_c, 0, 56, 80
2, 77950, Note_off_c, 0, 56, 100
2, 77952, Note_on_c, 0, 55, 80
2, 78142, Note_off_c, 0, 55, 100
2, 78144, Note_on_c, 0, 58, 80
2, 78334, Note_off_c, 0, 63, 100
2, 78334, Note_off_c, 0, 58, 100
2, 78336, Note_on_c, 0, 63, 80
2, 78336, Note_on_c, 0, 68, 80
2, 78526, Note_off_c, 0, 63, 100
2, 78528, Note_on_c, 0, 65, 80
2, 78718, Note_off_c, 0, 65, 100
2, 78720, Note_on_c, 0, 61, 80
2, 78910, Note_off_c, 0, 68, 100
2, 78910, Note_off_c, 0, 61, 100
2, 78912, Note_on_c, 0, 60, 80
2, 78912, Note_on_c, 0, 65, 80
2, 79102, Note_off_c, 0, 60, 100
2, 79104, Note_on_c, 0, 61, 80
2, 79294, Note_off_c, 0, 61, 100
2, 79296, Note_on_c, 0, 63, 80
2, 79486, Note_off_c, 0, 65, 100
2, 79486, Note_off_c, 0, 63, 100
2, 79488, Note_on_c, 0, 70, 80
2, 79488, Note_on_c, 0, 65, 80
2, 79676, Note_off_c, 0, 65, 100
2, 79680, Note_on_c, 0, 67, 80
2, 79868, Note_off_c, 0, 67, 100
2, 79872, Note_on_c, 0, 63, 80
2, 80060, Note_off_c, 0, 70, 100
2, 80060, Note_off_c, 0, 63, 100
2, 80064, Note_on_c, 0, 67, 80
2, 80064, Note_on_c, 0, 61, 80
2, 80252, Note_off_c, 0, 61, 100
2, 80256, Note_on_c, 0, 63, 80
2, 80444, Note_off_c, 0, 63, 100
2, 80448, Note_on_c, 0, 65, 80
2, 80636, Note_off_c, 0, 67, 100
2, 80636, Note_off_c, 0, 65, 100
2, 80640, Note_on_c, 0, 72, 80
2, 80640, Note_on_c, 0, 63, 80
2, 80828, Note_off_c, 0, 63, 100
2, 80832, Note_on_c, 0, 68, 80
2, 81212, Note_off_c, 0, 72, 100
2, 81216, Note_on_c, 0, 70, 80
2, 81404, Note_off_c, 0, 68, 100
2, 81408, Note_on_c, 0, 61, 80
2, 81596, Note_off_c, 0, 70, 100
2, 81596, Note_off_c, 0, 61, 100
2, 81600, Note_on_c, 0, 68, 80
2, 81600, Note_on_c, 0, 65, 80
2, 81788, Note_off_c, 0, 68, 100
2, 81788, Note_off_c, 0, 65, 100
2, 81792, Note_on_c, 0, 67, 80
2, 81792, Note_on_c, 0, 58, 80
2, 82364, Note_off_c, 0, 67, 100
2, 82364, Note_off_c, 0, 58, 100
2, 82368, Note_on_c, 0, 70, 83
2, 82368, Note_on_c, 0, 73, 83
2, 82940, Note_off_c, 0, 70, 100
2, 82944, Note_on_c, 0, 67, 87
2, 83132, Note_off_c, 0, 67, 100
2, 83136, Note_on_c, 0, 70, 88
2, 83324, Note_off_c, 0, 70, 100
2, 83328, Note_on_c, 0, 68, 89
2, 83516, Note_off_c, 0, 73, 100
2, 83516, Note_off_c, 0, 68, 100
2, 83520, Note_on_c, 0, 72, 90
2, 83520, Note_on_c, 0, 67, 90
2, 83708, Note_off_c, 0, 67, 100
2, 83712, Note_on_c, 0, 65, 91
2, 83900, Note_off_c, 0, 72, 100
2, 83900, Note_off_c, 0, 65, 100
2, 83904, Note_on_c, 0, 70, 93
2, 83904, Note_on_c, 0, 67, 93
2, 84092, Note_off_c, 0, 70, 100
2, 84092, Note_off_c, 0, 67, 100
2, 84096, Note_on_c, 0, 69, 94
2, 84096, Note_on_c, 0, 60, 94
2, 84284, Note_off_c, 0, 60, 100
2, 84288, Note_on_c, 0, 72, 95
2, 84476, Note_off_c, 0, 72, 100
2, 84480, Note_on_c, 0, 70, 96
2, 84668, Note_off_c, 0, 69, 100
2, 84668, Note_off_c, 0, 70, 100
2, 84672, Note_on_c, 0, 75, 97
2, 84672, Note_on_c, 0, 69, 97
2, 84860, Note_off_c, 0, 69, 100
2, 84864, Note_on_c, 0, 70, 99
2, 85052, Note_off_c, 0, 70, 100
2, 85056, Note_on_c, 0, 72, 100
2, 85244, Note_off_c, 0, 72, 100
2, 85248, Note_on_c, 0, 69, 101
2, 85436, Note_off_c, 0, 69, 100
2, 85440, Note_on_c, 0, 72, 102
2, 85628, Note_off_c, 0, 72, 100
2, 85632, Note_on_c, 0, 70, 103
2, 85820, Note_off_c, 0, 75, 100
2, 85820, Note_off_c, 0, 70, 100
2, 85824, Note_on_c, 0, 74, 105
2, 85824, Note_on_c, 0, 69, 105
2, 86012, Note_off_c, 0, 69, 100
2, 86016, Note_on_c, 0, 70, 106
2, 86204, Note_off_c, 0, 74, 100
2, 86204, Note_off_c, 0, 70, 100
2, 86208, Note_on_c, 0, 72, 107
2, 86208, Note_on_c, 0, 66, 107
2, 86396, Note_off_c, 0, 72, 100
2, 86396, Note_off_c, 0, 66, 100
2, 86400, Note_on_c, 0, 71, 108
2, 86400, Note_on_c, 0, 62, 108
2, 86588, Note_off_c, 0, 62, 100
2, 86592, Note_on_c, 0, 77, 109
2, 86780, Note_off_c, 0, 77, 100
2, 86784, Note_on_c, 0, 75, 110
2, 86972, Note_off_c, 0, 71, 100
2, 86972, Note_off_c, 0, 75, 100
2, 86976, Note_on_c, 0, 80, 110
2, 86976, Note_on_c, 0, 74, 110
2, 87164, Note_off_c, 0, 74, 100
2, 87168, Note_on_c, 0, 75, 110
2, 87356, Note_off_c, 0, 75, 100
2, 87360, Note_on_c, 0, 77, 110
2, 87548, Note_off_c, 0, 77, 100
2, 87552, Note_on_c, 0, 71, 110
2, 87740, Note_off_c, 0, 71, 100
2, 87744, Note_on_c, 0, 72, 100
2, 87932, Note_off_c, 0, 72, 100
2, 87936, Note_on_c, 0, 74, 98
2, 88124, Note_off_c, 0, 80, 100
2, 88124, Note_off_c, 0, 74, 100
2, 88128, Note_on_c, 0, 79, 96
2, 88128, Note_on_c, 0, 75, 96
2, 88316, Note_off_c, 0, 75, 100
2, 88320, Note_on_c, 0, 77, 93
2, 88508, Note_off_c, 0, 79, 100
2, 88508, Note_off_c, 0, 77, 100
2, 88512, Note_on_c, 0, 77, 91
2, 88512, Note_on_c, 0, 74, 91
2, 88700, Note_off_c, 0, 77, 100
2, 88700, Note_off_c, 0, 74, 100
2, 88704, Note_on_c, 0, 75, 80
2, 88704, Note_on_c, 0, 67, 80
2, 88892, Note_off_c, 0, 67, 100
2, 88896, Note_on_c, 0, 72, 80
2, 89084, Note_off_c, 0, 72, 100
2, 89088, Note_on_c, 0, 70, 80
2, 89276, Note_off_c, 0, 75, 100
2, 89276, Note_off_c, 0, 70, 100
2, 89280, Note_on_c, 0, 77, 80
2, 89280, Note_on_c, 0, 68, 80
2, 89468, Note_off_c, 0, 68, 100
2, 89472, Note_on_c, 0, 67, 80
2, 89660, Note_off_c, 0, 77, 100
2, 89660, Note_off_c, 0, 67, 100
2, 89664, Note_on_c, 0, 74, 80
2, 89664, Note_on_c, 0, 65, 80
2, 89852, Note_off_c, 0, 74, 100
2, 89852, Note_off_c, 0, 65, 100
2, 89856, Note_on_c, 0, 75, 110
2, 89856, Note_on_c, 0, 67, 110
2, 90044, Note_off_c, 0, 67, 100
2, 90048, Note_on_c, 0, 71, 110
2, 90236, Note_off_c, 0, 71, 100
2, 90240, Note_on_c, 0, 72, 110
2, 90428, Note_off_c, 0, 75, 100
2, 90432, Note_on_c, 0, 74, 110
2, 90620, Note_off_c, 0, 72, 100
2, 90624, Note_on_c, 0, 69, 110
2, 90812, Note_off_c, 0, 69, 100
2, 90816, Note_on_c, 0, 71, 110
2, 91004, Note_off_c, 0, 71, 100
2, 91008, Note_on_c, 0, 63, 110
2, 91196, Note_off_c, 0, 74, 100
2, 91200, Note_on_c, 0, 75, 110
2, 91388, Note_off_c, 0, 75, 100
2, 91392, Note_on_c, 0, 72, 110
2, 91580, Note_off_c, 0, 63, 100
2, 91584, Note_on_c, 0, 65, 110
2, 91772, Note_off_c, 0, 72, 100
2, 91776, Note_on_c, 0, 74, 110
2, 91964, Note_off_c, 0, 74, 100
2, 91968, Note_on_c, 0, 75, 110
2, 92156, Note_off_c, 0, 65, 100
2, 92160, Note_on_c, 0, 65, 110
2, 92348, Note_off_c, 0, 75, 100
2, 92352, Note_on_c, 0, 77, 110
2, 92540, Note_off_c, 0, 77, 100
2, 92544, Note_on_c, 0, 75, 110
2, 92732, Note_off_c, 0, 65, 100
2, 92732, Note_off_c, 0, 75, 100
2, 92736, Note_on_c, 0, 74, 110
2, 92736, Note_on_c, 0, 67, 110
2, 92924, Note_off_c, 0, 74, 100
2, 92928, Note_on_c, 0, 75, 110
2, 93116, Note_off_c, 0, 75, 100
2, 93120, Note_on_c, 0, 77, 110
2, 93308, Note_off_c, 0, 77, 100
2, 93312, Note_on_c, 0, 79, 110
2, 93500, Note_off_c, 0, 67, 100
2, 93504, Note_on_c, 0, 68, 110
2, 93692, Note_off_c, 0, 79, 100
2, 93692, Note_off_c, 0, 68, 100
2, 93696, Note_on_c, 0, 65, 110
2, 93884, Note_off_c, 0, 65, 100
2, 93888, Note_on_c, 0, 63, 110
2, 94076, Note_off_c, 0, 63, 100
2, 94080, Note_on_c, 0, 65, 110
2, 94268, Note_off_c, 0, 65, 100
2, 94272, Note_on_c, 0, 67, 110
2, 94652, Note_off_c, 0, 67, 100
2, 94656, Note_on_c, 0, 68, 110
2, 94844, Note_off_c, 0, 68, 100
2, 94848, Note_on_c, 0, 67, 110
2, 95036, Note_off_c, 0, 67, 100
2, 95040, Note_on_c, 0, 65, 110
2, 95228, Note_off_c, 0, 65, 100
2, 95232, Note_on_c, 0, 67, 110
2, 95420, Note_off_c, 0, 67, 100
2, 95424, Note_on_c, 0, 68, 110
2, 95612, Note_off_c, 0, 68, 100
2, 95616, Note_on_c, 0, 80, 110
2, 95616, Note_on_c, 0, 70, 110
2, 95804, Note_off_c, 0, 80, 100
2, 95808, Note_on_c, 0, 82, 110
2, 95996, Note_off_c, 0, 82, 100
2, 96000, Note_on_c, 0, 79, 110
2, 96188, Note_off_c, 0, 70, 100
2, 96192, Note_on_c, 0, 72, 110
2, 96380, Note_off_c, 0, 79, 100
2, 96384, Note_on_c, 0, 81, 110
2, 96572, Note_off_c, 0, 81, 100
2, 96576, Note_on_c, 0, 82, 110
2, 96956, Note_off_c, 0, 82, 100
2, 96960, Note_on_c, 0, 84, 110
2, 97148, Note_off_c, 0, 84, 100
2, 97152, Note_on_c, 0, 82, 110
2, 97340, Note_off_c, 0, 72, 100
2, 97340, Note_off_c, 0, 82, 100
2, 97344, Note_on_c, 0, 81, 110
2, 97344, Note_on_c, 0, 75, 110
2, 97532, Note_off_c, 0, 81, 100
2, 97536, Note_on_c, 0, 82, 110
2, 97724, Note_off_c, 0, 82, 100
2, 97728, Note_on_c, 0, 84, 110
2, 97916, Note_off_c, 0, 84, 100
2, 97920, Note_on_c, 0, 85, 110
2, 98108, Note_off_c, 0, 75, 100
2, 98112, Note_on_c, 0, 73, 110
2, 98300, Note_off_c, 0, 85, 100
2, 98300, Note_off_c, 0, 73, 100
2, 98304, Note_on_c, 0, 70, 110
2, 98496, Note_on_c, 0, 77, 110
2, 98684, Note_off_c, 0, 70, 100
2, 98688, Note_on_c, 0, 69, 110
2, 98876, Note_off_c, 0, 69, 100
2, 98880, Note_on_c, 0, 72, 110
2, 99260, Note_off_c, 0, 72, 100
2, 99264, Note_on_c, 0, 70, 110
2, 99452, Note_off_c, 0, 70, 100
2, 99456, Note_on_c, 0, 73, 110
2, 99644, Note_off_c, 0, 77, 100
2, 99644, Note_off_c, 0, 73, 100
2, 99648, Note_on_c, 0, 69, 80
2, 99648, Note_on_c, 0, 65, 80
2, 100028, Note_off_c, 0, 69, 100
2, 100032, Note_on_c, 0, 72, 80
2, 100220, Note_off_c, 0, 72, 100
2, 100224, Note_on_c, 0, 70, 80
2, 100604, Note_off_c, 0, 70, 100
2, 100608, Note_on_c, 0, 73, 80
2, 100796, Note_off_c, 0, 73, 100
2, 100800, Note_on_c, 0, 72, 80
2, 101180, Note_off_c, 0, 72, 100
2, 101184, Note_on_c, 0, 75, 80
2, 101372, Note_off_c, 0, 75, 100
2, 101376, Note_on_c, 0, 73, 80
2, 101756, Note_off_c, 0, 73, 100
2, 101760, Note_on_c, 0, 77, 80
2, 101948, Note_off_c, 0, 65, 100
2, 101948, Note_off_c, 0, 77, 100
2, 101952, Note_on_c, 0, 75, 110
2, 101952, Note_on_c, 0, 70, 110
2, 102140, Note_off_c, 0, 70, 100
2, 102144, Note_on_c, 0, 72, 110
2, 102332, Note_off_c, 0, 72, 100
2, 102336, Note_on_c, 0, 73, 110
2, 102524, Note_off_c, 0, 73, 100
2, 102528, Note_on_c, 0, 72, 110
2, 102908, Note_off_c, 0, 72, 100
2, 102912, Note_on_c, 0, 68, 110
2, 103100, Note_off_c, 0, 68, 100
2, 103104, Note_on_c, 0, 67, 110
2, 103484, Note_off_c, 0, 67, 100
2, 103488, Note_on_c, 0, 70, 110
2, 103676, Note_off_c, 0, 70, 100
2, 103680, Note_on_c, 0, 68, 110
2, 104060, Note_off_c, 0, 68, 100
2, 104064, Note_on_c, 0, 72, 110
2, 104252, Note_off_c, 0, 75, 100
2, 104252, Note_off_c, 0, 72, 100
2, 104256, Note_on_c, 0, 67, 80
2, 104256, Note_on_c, 0, 63, 80
2, 104636, Note_off_c, 0, 67, 100
2, 104640, Note_on_c, 0, 70, 80
2, 104828, Note_off_c, 0, 70, 100
2, 104832, Note_on_c, 0, 68, 80
2, 105212, Note_off_c, 0, 68, 100
2, 105216, Note_on_c, 0, 72, 80
2, 105404, Note_off_c, 0, 72, 100
2, 105408, Note_on_c, 0, 70, 80
2, 105788, Note_off_c, 0, 70, 100
2, 105792, Note_on_c, 0, 73, 80
2, 105980, Note_off_c, 0, 73, 100
2, 105984, Note_on_c, 0, 72, 80
2, 106172, Note_off_c, 0, 63, 100
2, 106172, Note_off_c, 0, 72, 100
2, 106176, Note_on_c, 0, 73, 80
2, 106176, Note_on_c, 0, 70, 80
2, 106364, Note_off_c, 0, 73, 100
2, 106364, Note_off_c, 0, 70, 100
2, 106368, Note_on_c, 0, 75, 80
2, 106368, Note_on_c, 0, 72, 80
2, 106556, Note_off_c, 0, 75, 100
2, 106556, Note_off_c, 0, 72, 100
2, 106560, Note_on_c, 0, 77, 80
2, 106560, Note_on_c, 0, 61, 80
2, 106940, Note_off_c, 0, 77, 100
2, 107132, Note_off_c, 0, 61, 100
2, 107136, Note_on_c, 0, 66, 80
2, 107520, Note_on_c, 0, 58, 80
2, 107708, Note_off_c, 0, 66, 100
2, 107712, Note_on_c, 0, 63, 80
2, 107900, Note_off_c, 0, 58, 100
2, 107904, Note_on_c, 0, 56, 80
2, 108092, Note_off_c, 0, 56, 100
2, 108096, Note_on_c, 0, 60, 80
2, 108284, Note_off_c, 0, 63, 100
2, 108288, Note_on_c, 0, 68, 80
2, 108476, Note_off_c, 0, 60, 100
2, 108480, Note_on_c, 0, 61, 80
2, 108668, Note_off_c, 0, 61, 100
2, 108672, Note_on_c, 0, 63, 80
2, 108860, Note_off_c, 0, 68, 100
2, 108864, Note_on_c, 0, 65, 80
2, 109052, Note_off_c, 0, 63, 100
2, 109056, Note_on_c, 0, 61, 80
2, 109244, Note_off_c, 0, 61, 100
2, 109248, Note_on_c, 0, 62, 80
2, 109436, Note_off_c, 0, 65, 100
2, 109436, Note_off_c, 0, 62, 100
2, 109440, Note_on_c, 0, 70, 80
2, 109440, Note_on_c, 0, 63, 80
2, 109628, Note_off_c, 0, 63, 100
2, 109632, Note_on_c, 0, 66, 80
2, 109820, Note_off_c, 0, 66, 100
2, 109824, Note_on_c, 0, 65, 80
2, 110012, Note_off_c, 0, 70, 100
2, 110012, Note_off_c, 0, 65, 100
2, 110016, Note_on_c, 0, 68, 80
2, 110016, Note_on_c, 0, 63, 80
2, 110204, Note_off_c, 0, 63, 100
2, 110208, Note_on_c, 0, 65, 80
2, 110396, Note_off_c, 0, 68, 100
2, 110396, Note_off_c, 0, 65, 100
2, 110400, Note_on_c, 0, 66, 80
2, 110400, Note_on_c, 0, 60, 80
2, 110588, Note_off_c, 0, 66, 100
2, 110588, Note_off_c, 0, 60, 100
2, 110592, Note_on_c, 0, 61, 80
2, 110592, Note_on_c, 0, 65, 80
2, 110780, Note_off_c, 0, 65, 100
2, 110784, Note_on_c, 0, 66, 80
2, 110972, Note_off_c, 0, 61, 100
2, 110972, Note_off_c, 0, 66, 100
2, 110976, Note_on_c, 0, 56, 80
2, 110976, Note_on_c, 0, 65, 80
2, 111164, Note_off_c, 0, 56, 100
2, 111168, Note_on_c, 0, 68, 80
2, 111356, Note_off_c, 0, 65, 100
2, 111360, Note_on_c, 0, 62, 80
2, 111548, Note_off_c, 0, 62, 100
2, 111552, Note_on_c, 0, 63, 80
2, 111740, Note_off_c, 0, 68, 100
2, 111740, Note_off_c, 0, 63, 100
2, 111744, Note_on_c, 0, 73, 80
2, 111744, Note_on_c, 0, 65, 80
2, 112316, Note_off_c, 0, 73, 100
2, 112316, Note_off_c, 0, 65, 100
2, 112320, Note_on_c, 0, 70, 80
2, 112320, Note_on_c, 0, 67, 80
2, 112892, Note_off_c, 0, 70, 100
2, 112892, Note_off_c, 0, 67, 100
2, 112896, Note_on_c, 0, 75, 80
2, 112896, Note_on_c, 0, 68, 80
2, 113084, Note_off_c, 0, 68, 100
2, 113088, Note_on_c, 0, 72, 80
2, 113276, Note_off_c, 0, 72, 100
2, 113280, Note_on_c, 0, 70, 80
2, 113468, Note_off_c, 0, 75, 100
2, 113472, Note_on_c, 0, 72, 80
2, 113660, Note_off_c, 0, 70, 100
2, 113664, Note_on_c, 0, 68, 80
2, 113852, Note_off_c, 0, 68, 100
2, 113856, Note_on_c, 0, 66, 80
2, 114044, Note_off_c, 0, 72, 100
2, 114044, Note_off_c, 0, 66, 100
2, 114048, Note_on_c, 0, 77, 80
2, 114048, Note_on_c, 0, 65, 80
2, 114236, Note_off_c, 0, 65, 100
2, 114240, Note_on_c, 0, 70, 80
2, 114428, Note_off_c, 0, 70, 100
2, 114432, Note_on_c, 0, 68, 80
2, 114620, Note_off_c, 0, 77, 100
2, 114620, Note_off_c, 0, 68, 100
2, 114624, Note_on_c, 0, 75, 80
2, 114624, Note_on_c, 0, 67, 80
2, 114812, Note_off_c, 0, 67, 100
2, 114816, Note_on_c, 0, 68, 80
2, 115004, Note_off_c, 0, 75, 100
2, 115004, Note_off_c, 0, 68, 100
2, 115008, Note_on_c, 0, 73, 80
2, 115008, Note_on_c, 0, 70, 80
2, 115196, Note_off_c, 0, 73, 100
2, 115200, Note_on_c, 0, 72, 80
2, 115388, Note_off_c, 0, 70, 100
2, 115392, Note_on_c, 0, 68, 80
2, 115580, Note_off_c, 0, 72, 100
2, 115580, Note_off_c, 0, 68, 100
2, 115584, Note_on_c, 0, 75, 80
2, 115584, Note_on_c, 0, 67, 80
2, 115772, Note_off_c, 0, 75, 100
2, 115772, Note_off_c, 0, 67, 100
2, 115776, Note_on_c, 0, 73, 80
2, 115776, Note_on_c, 0, 65, 80
2, 115964, Note_off_c, 0, 65, 100
2, 115968, Note_on_c, 0, 67, 80
2, 116156, Note_off_c, 0, 73, 100
2, 116156, Note_off_c, 0, 67, 100
2, 116160, Note_on_c, 0, 72, 80
2, 116160, Note_on_c, 0, 68, 80
2, 116348, Note_off_c, 0, 72, 100
2, 116352, Note_on_c, 0, 70, 80
2, 116540, Note_off_c, 0, 68, 100
2, 116544, Note_on_c, 0, 67, 80
2, 116732, Note_off_c, 0, 70, 100
2, 116732, Note_off_c, 0, 67, 100
2, 116736, Note_on_c, 0, 73, 80
2, 116736, Note_on_c, 0, 65, 80
2, 116924, Note_off_c, 0, 73, 100
2, 116924, Note_off_c, 0, 65, 100
2, 116928, Note_on_c, 0, 72, 80
2, 116928, Note_on_c, 0, 64, 80
2, 117116, Note_off_c, 0, 64, 100
2, 117120, Note_on_c, 0, 65, 80
2, 117308, Note_off_c, 0, 72, 100
2, 117308, Note_off_c, 0, 65, 100
2, 117312, Note_on_c, 0, 70, 80
2, 117312, Note_on_c, 0, 67, 80
2, 117500, Note_off_c, 0, 70, 100
2, 117504, Note_on_c, 0, 68, 80
2, 117692, Note_off_c, 0, 67, 100
2, 117696, Note_on_c, 0, 65, 80
2, 117884, Note_off_c, 0, 68, 100
2, 117884, Note_off_c, 0, 65, 100
2, 117888, Note_on_c, 0, 72, 80
2, 117888, Note_on_c, 0, 63, 80
2, 118076, Note_off_c, 0, 72, 100
2, 118076, Note_off_c, 0, 63, 100
2, 118080, Note_on_c, 0, 70, 80
2, 118080, Note_on_c, 0, 62, 80
2, 118268, Note_off_c, 0, 62, 100
2, 118272, Note_on_c, 0, 63, 80
2, 118460, Note_off_c, 0, 70, 100
2, 118460, Note_off_c, 0, 63, 100
2, 118464, Note_on_c, 0, 68, 80
2, 118464, Note_on_c, 0, 65, 80
2, 118652, Note_off_c, 0, 68, 100
2, 118652, Note_off_c, 0, 65, 100
2, 118656, Note_on_c, 0, 67, 80
2, 118656, Note_on_c, 0, 58, 80
2, 118844, Note_off_c, 0, 67, 100
2, 118844, Note_off_c, 0, 58, 100
2, 118848, Note_on_c, 0, 72, 81
2, 118848, Note_on_c, 0, 63, 81
2, 119036, Note_off_c, 0, 72, 100
2, 119036, Note_off_c, 0, 63, 100
2, 119040, Note_on_c, 0, 70, 83
2, 119040, Note_on_c, 0, 67, 83
2, 119228, Note_off_c, 0, 70, 100
2, 119228, Note_off_c, 0, 67, 100
2, 119232, Note_on_c, 0, 68, 84
2, 119232, Note_on_c, 0, 65, 84
2, 119420, Note_off_c, 0, 68, 100
2, 119424, Note_on_c, 0, 70, 86
2, 119612, Note_off_c, 0, 65, 100
2, 119612, Note_off_c, 0, 70, 100
2, 119616, Note_on_c, 0, 72, 87
2, 119616, Note_on_c, 0, 63, 87
2, 119804, Note_off_c, 0, 63, 100
2, 119808, Note_on_c, 0, 62, 89
2, 119996, Note_off_c, 0, 72, 100
2, 120000, Note_on_c, 0, 70, 90
2, 120188, Note_off_c, 0, 62, 100
2, 120188, Note_off_c, 0, 70, 100
2, 120192, Note_on_c, 0, 68, 92
2, 120192, Note_on_c, 0, 65, 92
2, 120380, Note_off_c, 0, 68, 100
2, 120380, Note_off_c, 0, 65, 100
2, 120384, Note_on_c, 0, 67, 93
2, 120384, Note_on_c, 0, 63, 93
2, 120572, Note_off_c, 0, 67, 100
2, 120576, Note_on_c, 0, 68, 95
2, 120764, Note_off_c, 0, 63, 100
2, 120764, Note_off_c, 0, 68, 100
2, 120768, Note_on_c, 0, 70, 97
2, 120768, Note_on_c, 0, 61, 97
2, 120956, Note_off_c, 0, 61, 100
2, 120960, Note_on_c, 0, 60, 98
2, 121148, Note_off_c, 0, 70, 100
2, 121152, Note_on_c, 0, 68, 100
2, 121340, Note_off_c, 0, 60, 100
2, 121340, Note_off_c, 0, 68, 100
2, 121344, Note_on_c, 0, 66, 101
2, 121344, Note_on_c, 0, 58, 101
2, 121532, Note_off_c, 0, 58, 100
2, 121536, Note_on_c, 0, 66, 103
2, 121536, Note_on_c, 0, 57, 103
2, 121916, Note_off_c, 0, 66, 100
2, 121916, Note_off_c, 0, 66, 100
2, 121920, Note_on_c, 0, 66, 106
2, 122108, Note_off_c, 0, 57, 100
2, 122112, Note_on_c, 0, 61, 107
2, 122492, Note_off_c, 0, 66, 100
2, 122496, Note_on_c, 0, 65, 110
2, 122684, Note_off_c, 0, 61, 100
2, 122688, Note_on_c, 0, 55, 110
2, 122876, Note_off_c, 0, 65, 100
2, 122880, Note_on_c, 0, 63, 110
2, 123068, Note_off_c, 0, 63, 100
2, 123072, Note_on_c, 0, 61, 110
2, 123260, Note_off_c, 0, 55, 100
2, 123264, Note_on_c, 0, 51, 110
2, 123452, Note_off_c, 0, 61, 100
2, 123456, Note_on_c, 0, 58, 110
2, 123644, Note_off_c, 0, 58, 100
2, 123648, Note_on_c, 0, 60, 110
2, 123836, Note_off_c, 0, 51, 100
2, 123840, Note_on_c, 0, 57, 110
2, 124028, Note_off_c, 0, 60, 100
2, 124028, Note_off_c, 0, 57, 100
2, 124032, Note_on_c, 0, 61, 110
2, 124032, Note_on_c, 0, 58, 110
2, 124220, Note_off_c, 0, 61, 100
2, 124220, Note_off_c, 0, 58, 100
2, 124224, Note_on_c, 0, 63, 110
2, 124224, Note_on_c, 0, 60, 110
2, 124604, Note_off_c, 0, 60, 100
2, 124604, Note_off_c, 0, 63, 100
2, 124608, Note_on_c, 0, 60, 110
2, 124608, Note_on_c, 0, 57, 110
2, 124796, Note_off_c, 0, 60, 100
2, 124796, Note_off_c, 0, 57, 100
2, 124800, Note_on_c, 0, 61, 110
2, 124800, Note_on_c, 0, 58, 110
2, 124988, Note_off_c, 0, 58, 100
2, 124992, Note_on_c, 0, 51, 110
2, 125180, Note_off_c, 0, 61, 100
2, 125184, Note_on_c, 0, 58, 110
2, 125372, Note_off_c, 0, 58, 100
2, 125376, Note_on_c, 0, 63, 110
2, 125564, Note_off_c, 0, 51, 100
2, 125568, Note_on_c, 0, 56, 110
2, 125756, Note_off_c, 0, 63, 100
2, 125760, Note_on_c, 0, 62, 110
2, 125948, Note_off_c, 0, 62, 100
2, 125952, Note_on_c, 0, 60, 110
2, 126140, Note_off_c, 0, 56, 100
2, 126140, Note_off_c, 0, 60, 100
2, 126144, Note_on_c, 0, 62, 110
2, 126144, Note_on_c, 0, 53, 110
2, 126332, Note_off_c, 0, 62, 100
2, 126336, Note_on_c, 0, 63, 110
2, 126524, Note_off_c, 0, 63, 100
2, 126528, Note_on_c, 0, 65, 110
2, 126716, Note_off_c, 0, 53, 100
2, 126720, Note_on_c, 0, 58, 121
2, 126908, Note_off_c, 0, 65, 100
2, 126912, Note_on_c, 0, 63, 80
2, 127100, Note_off_c, 0, 58, 100
2, 127104, Note_on_c, 0, 61, 80
2, 127292, Note_off_c, 0, 63, 100
2, 127296, Note_on_c, 0, 68, 80
2, 127484, Note_off_c, 0, 61, 100
2, 127488, Note_on_c, 0, 60, 80
2, 127676, Note_off_c, 0, 60, 100
2, 127680, Note_on_c, 0, 63, 80
2, 127868, Note_off_c, 0, 68, 100
2, 127868, Note_off_c, 0, 63, 100
2, 127872, Note_on_c, 0, 73, 80
2, 127872, Note_on_c, 0, 61, 80
2, 128060, Note_off_c, 0, 61, 100
2, 128064, Note_on_c, 0, 70, 80
2, 128252, Note_off_c, 0, 70, 100
2, 128256, Note_on_c, 0, 68, 80
2, 128444, Note_off_c, 0, 73, 100
2, 128444, Note_off_c, 0, 68, 100
2, 128448, Note_on_c, 0, 70, 80
2, 128448, Note_on_c, 0, 67, 80
2, 128636, Note_off_c, 0, 67, 100
2, 128640, Note_on_c, 0, 65, 80
2, 128828, Note_off_c, 0, 65, 100
2, 128832, Note_on_c, 0, 67, 80
2, 129020, Note_off_c, 0, 70, 100
2, 129024, Note_on_c, 0, 75, 80
2, 129212, Note_off_c, 0, 67, 100
2, 129216, Note_on_c, 0, 70, 80
2, 129404, Note_off_c, 0, 75, 100
2, 129404, Note_off_c, 0, 70, 100
2, 129408, Note_on_c, 0, 72, 80
2, 129408, Note_on_c, 0, 68, 80
2, 129596, Note_off_c, 0, 72, 100
2, 129596, Note_off_c, 0, 68, 100
2, 129600, Note_on_c, 0, 77, 80
2, 129600, Note_on_c, 0, 67, 80
2, 129788, Note_off_c, 0, 67, 100
2, 129792, Note_on_c, 0, 65, 86
2, 129980, Note_off_c, 0, 77, 100
2, 129980, Note_off_c, 0, 65, 100
2, 129984, Note_on_c, 0, 73, 92
2, 129984, Note_on_c, 0, 70, 92
2, 130172, Note_off_c, 0, 73, 100
2, 130172, Note_off_c, 0, 70, 100
2, 130176, Note_on_c, 0, 79, 98
2, 130176, Note_on_c, 0, 68, 98
2, 130364, Note_off_c, 0, 68, 100
2, 130368, Note_on_c, 0, 67, 104
2, 130556, Note_off_c, 0, 79, 100
2, 130556, Note_off_c, 0, 67, 100
2, 130560, Note_on_c, 0, 75, 110
2, 130560, Note_on_c, 0, 72, 110
2, 130748, Note_off_c, 0, 75, 100
2, 130752, Note_on_c, 0, 80, 110
2, 130940, Note_off_c, 0, 72, 100
2, 130940, Note_off_c, 0, 80, 100
2, 130944, Note_on_c, 0, 79, 110
2, 130944, Note_on_c, 0, 75, 110
2, 131132, Note_off_c, 0, 79, 100
2, 131132, Note_off_c, 0, 75, 100
2, 131136, Note_on_c, 0, 77, 110
2, 131136, Note_on_c, 0, 73, 110
2, 131516, Note_off_c, 0, 73, 100
2, 131516, Note_off_c, 0, 77, 100
2, 131520, Note_on_c, 0, 75, 110
2, 131520, Note_on_c, 0, 72, 110
2, 131708, Note_off_c, 0, 75, 100
2, 131708, Note_off_c, 0, 72, 100
2, 131712, Note_on_c, 0, 73, 110
2, 131712, Note_on_c, 0, 70, 110
2, 131712, Note_on_c, 0, 67, 110
2, 131900, Note_off_c, 0, 73, 100
2, 131900, Note_off_c, 0, 70, 100
2, 131900, Note_off_c, 0, 67, 100
2, 131904, Note_on_c, 0, 72, 110
2, 131904, Note_on_c, 0, 68, 110
2, 132092, Note_off_c, 0, 72, 100
2, 132092, Note_off_c, 0, 68, 100
2, 132096, Note_on_c, 0, 73, 110
2, 132096, Note_on_c, 0, 68, 110
2, 132096, Note_on_c, 0, 65, 110
2, 132284, Note_off_c, 0, 73, 100
2, 132284, Note_off_c, 0, 68, 100
2, 132284, Note_off_c, 0, 65, 100
2, 132288, Note_on_c, 0, 70, 110
2, 132288, Note_on_c, 0, 68, 110
2, 132288, Note_on_c, 0, 65, 110
2, 132476, Note_off_c, 0, 70, 100
2, 132476, Note_off_c, 0, 68, 100
2, 132476, Note_off_c, 0, 65, 100
2, 132480, Control_c, 0, 64, 127
2, 132480, Note_on_c, 0, 72, 110
2, 132480, Note_on_c, 0, 67, 110
2, 132528, Note_on_c, 0, 70, 110
2, 132574, Note_off_c, 0, 72, 100
2, 132576, Note_on_c, 0, 72, 110
2, 132622, Note_off_c, 0, 70, 100
2, 132624, Note_on_c, 0, 70, 110
2, 132670, Note_off_c, 0, 72, 100
2, 132672, Note_on_c, 0, 72, 110
2, 132718, Note_off_c, 0, 70, 100
2, 132720, Note_on_c, 0, 70, 110
2, 132766, Note_off_c, 0, 72, 100
2, 132768, Note_on_c, 0, 72, 110
2, 132814, Note_off_c, 0, 70, 100
2, 132816, Note_on_c, 0, 70, 110
2, 132862, Note_off_c, 0, 72, 100
2, 132864, Note_on_c, 0, 72, 110
2, 132910, Note_off_c, 0, 70, 100
2, 132912, Note_on_c, 0, 70, 110
2, 132958, Note_off_c, 0, 72, 100
2, 132960, Note_on_c, 0, 68, 110
2, 133004, Note_off_c, 0, 68, 100
2, 133006, Note_off_c, 0, 70, 100
2, 133008, Note_on_c, 0, 70, 120
2, 133052, Note_off_c, 0, 67, 100
2, 133052, Note_off_c, 0, 70, 100
2, 133056, Note_on_c, 0, 70, 120
2, 133056, Note_on_c, 0, 67, 120
2, 133056, Note_on_c, 0, 73, 120
2, 133244, Note_off_c, 0, 70, 100
2, 133244, Note_off_c, 0, 67, 100
2, 133248, Note_on_c, 0, 70, 118
2, 133440, Note_on_c, 0, 67, 115
2, 133632, Note_on_c, 0, 61, 113
2, 133820, Note_off_c, 0, 70, 100
2, 133820, Note_off_c, 0, 73, 100
2, 133824, Note_on_c, 0, 58, 111
2, 134012, Note_off_c, 0, 67, 100
2, 134016, Note_on_c, 0, 55, 108
2, 134780, Note_off_c, 0, 58, 100
2, 134784, Note_off_c, 0, 61, 100
2, 134784, Note_off_c, 0, 55, 100
2, 135936, Note_on_c, 0, 61, 85
2, 136128, Note_on_c, 0, 67, 83
2, 136320, Note_on_c, 0, 70, 81
2, 136508, Note_off_c, 0, 61, 100
2, 136508, Note_off_c, 0, 67, 100
2, 136508, Note_off_c, 0, 70, 100
2, 136512, Note_on_c, 0, 61, 80
2, 136512, Note_on_c, 0, 67, 80
2, 136512, Note_on_c, 0, 70, 80
2, 136512, Note_on_c, 0, 73, 80
2, 138236, Note_off_c, 0, 61, 64
2, 138236, Note_off_c, 0, 67, 64
2, 138236, Note_off_c, 0, 70, 64
2, 138236, Note_off_c, 0, 73, 64
2, 138236, Control_c, 0, 64, 0
2, 138240, Control_c, 0, 64, 127
2, 138240, Note_on_c, 0, 74, 80
2, 138240, Note_on_c, 0, 70, 80
2, 138240, Note_on_c, 0, 67, 80
2, 138240, Note_on_c, 0, 62, 80
2, 138332, Note_off_c, 0, 74, 100
2, 138332, Note_off_c, 0, 70, 100
2, 138332, Note_off_c, 0, 67, 100
2, 138332, Note_off_c, 0, 62, 100
2, 138336, Note_on_c, 0, 70, 80
2, 138432, Note_on_c, 0, 67, 80
2, 138528, Note_on_c, 0, 62, 80
2, 138620, Note_off_c, 0, 62, 100
2, 138624, Note_on_c, 0, 58, 80
2, 138720, Note_on_c, 0, 55, 80
2, 138812, Note_off_c, 0, 70, 100
2, 138908, Note_off_c, 0, 67, 100
2, 139100, Note_off_c, 0, 58, 100
2, 139196, Note_off_c, 0, 55, 100
2, 139200, Note_on_c, 0, 62, 80
2, 139200, Note_on_c, 0, 55, 80
2, 139200, Note_on_c, 0, 50, 80
2, 139292, Note_off_c, 0, 62, 100
2, 139292, Note_off_c, 0, 55, 100
2, 139292, Note_off_c, 0, 50, 100
2, 139296, Note_on_c, 0, 62, 80
2, 139296, Note_on_c, 0, 55, 80
2, 139296, Note_on_c, 0, 50, 80
2, 139388, Note_off_c, 0, 62, 100
2, 139388, Note_off_c, 0, 55, 100
2, 139388, Note_off_c, 0, 50, 100
2, 139392, Note_on_c, 0, 62, 80
2, 139392, Note_on_c, 0, 55, 80
2, 139392, Note_on_c, 0, 50, 80
2, 139484, Note_off_c, 0, 62, 100
2, 139484, Note_off_c, 0, 55, 100
2, 139484, Note_off_c, 0, 50, 100
2, 139488, Note_on_c, 0, 62, 80
2, 139488, Note_on_c, 0, 55, 80
2, 139488, Note_on_c, 0, 50, 80
2, 139580, Note_off_c, 0, 62, 100
2, 139580, Note_off_c, 0, 55, 100
2, 139580, Note_off_c, 0, 50, 100
2, 139584, Note_on_c, 0, 62, 80
2, 139584, Note_on_c, 0, 55, 80
2, 139584, Note_on_c, 0, 50, 80
2, 139676, Note_off_c, 0, 62, 100
2, 139676, Note_off_c, 0, 55, 100
2, 139676, Note_off_c, 0, 50, 100
2, 139680, Note_on_c, 0, 62, 80
2, 139680, Note_on_c, 0, 55, 80
2, 139680, Note_on_c, 0, 50, 80
2, 139772, Note_off_c, 0, 62, 100
2, 139772, Note_off_c, 0, 55, 100
2, 139772, Note_off_c, 0, 50, 100
2, 139776, Note_on_c, 0, 62, 80
2, 139776, Note_on_c, 0, 55, 80
2, 139776, Note_on_c, 0, 50, 80
2, 139868, Note_off_c, 0, 62, 100
2, 139868, Note_off_c, 0, 55, 100
2, 139868, Note_off_c, 0, 50, 100
2, 139872, Note_on_c, 0, 62, 80
2, 139872, Note_on_c, 0, 55, 80
2, 139872, Note_on_c, 0, 50, 80
2, 139964, Note_off_c, 0, 62, 100
2, 139964, Note_off_c, 0, 55, 100
2, 139964, Note_off_c, 0, 50, 100
2, 139968, Key_signature, -2, "minor"
2, 139968, Note_on_c, 0, 62, 80
2, 140012, Note_off_c, 0, 62, 100
2, 140016, Note_on_c, 0, 74, 80
2, 140444, Note_off_c, 0, 74, 100
2, 140448, Note_on_c, 0, 72, 80
2, 140636, Note_off_c, 0, 72, 100
2, 140640, Note_on_c, 0, 70, 80
2, 140732, Note_off_c, 0, 70, 100
2, 140784, Note_on_c, 0, 69, 80
2, 140828, Note_off_c, 0, 69, 100
2, 140830, Control_c, 0, 64, 0
2, 140832, Note_on_c, 0, 69, 80
2, 140924, Note_off_c, 0, 69, 100
2, 140928, Note_on_c, 0, 70, 80
2, 141020, Note_off_c, 0, 70, 100
2, 141072, Note_on_c, 0, 67, 80
2, 141116, Note_off_c, 0, 67, 100
2, 141120, Note_on_c, 0, 67, 80
2, 141308, Note_off_c, 0, 67, 100
2, 141312, Note_on_c, 0, 66, 82
2, 141600, Note_on_c, 0, 75, 85
2, 141692, Note_off_c, 0, 66, 100
2, 141692, Note_off_c, 0, 75, 100
2, 141792, Note_on_c, 0, 75, 88
2, 141884, Note_off_c, 0, 75, 100
2, 141888, Note_on_c, 0, 77, 89
2, 141932, Note_off_c, 0, 77, 100
2, 141936, Note_on_c, 0, 75, 89
2, 141980, Note_off_c, 0, 75, 100
2, 142080, Note_on_c, 0, 74, 80
2, 142172, Note_off_c, 0, 74, 100
2, 142176, Note_on_c, 0, 75, 80
2, 142220, Note_off_c, 0, 75, 100
2, 142224, Note_on_c, 0, 74, 80
2, 142268, Note_off_c, 0, 74, 100
2, 142272, Note_on_c, 0, 74, 80
2, 142460, Note_off_c, 0, 74, 100
2, 142464, Note_on_c, 0, 79, 82
2, 142652, Note_off_c, 0, 79, 100
2, 142656, Note_on_c, 0, 79, 85
2, 142748, Note_off_c, 0, 79, 100
2, 142752, Note_on_c, 0, 77, 86
2, 142844, Note_off_c, 0, 77, 100
2, 142944, Note_on_c, 0, 77, 89
2, 143036, Note_off_c, 0, 77, 100
2, 143040, Note_on_c, 0, 75, 91
2, 143132, Note_off_c, 0, 75, 100
2, 143232, Note_on_c, 0, 74, 93
2, 143324, Note_off_c, 0, 74, 100
2, 143328, Note_on_c, 0, 72, 95
2, 143420, Note_off_c, 0, 72, 100
2, 143424, Note_on_c, 0, 72, 96
2, 143516, Note_off_c, 0, 72, 100
2, 143520, Note_on_c, 0, 70, 98
2, 143612, Note_off_c, 0, 70, 100
2, 143616, Note_on_c, 0, 72, 99
2, 143660, Note_off_c, 0, 72, 100
2, 143664, Note_on_c, 0, 74, 100
2, 143708, Note_off_c, 0, 74, 100
2, 143808, Note_on_c, 0, 74, 100
2, 143900, Note_off_c, 0, 74, 100
2, 143904, Note_on_c, 0, 72, 91
2, 143948, Note_off_c, 0, 72, 100
2, 143952, Note_on_c, 0, 70, 86
2, 143996, Note_off_c, 0, 70, 100
2, 144000, Note_on_c, 0, 70, 81
2, 144287, Note_off_c, 0, 70, 100
2, 144288, Note_on_c, 0, 69, 80
2, 144572, Note_off_c, 0, 69, 100
2, 144576, Note_on_c, 0, 70, 80
2, 144956, Note_off_c, 0, 70, 100
2, 144960, Note_on_c, 0, 69, 80
2, 145052, Note_off_c, 0, 69, 100
2, 145056, Note_on_c, 0, 70, 80
2, 145100, Note_off_c, 0, 70, 100
2, 145152, Note_on_c, 0, 72, 80
2, 145532, Note_off_c, 0, 72, 100
2, 145536, Note_on_c, 0, 71, 80
2, 145628, Note_off_c, 0, 71, 100
2, 145632, Note_on_c, 0, 72, 80
2, 145676, Note_off_c, 0, 72, 100
2, 145728, Note_on_c, 0, 74, 80
2, 146108, Note_off_c, 0, 74, 100
2, 146112, Note_on_c, 0, 73, 87
2, 146204, Note_off_c, 0, 73, 100
2, 146208, Note_on_c, 0, 74, 89
2, 146252, Note_off_c, 0, 74, 100
2, 146400, Note_on_c, 0, 74, 92
2, 146492, Note_off_c, 0, 74, 100
2, 146496, Note_on_c, 0, 75, 94
2, 146588, Note_off_c, 0, 75, 100
2, 146688, Note_on_c, 0, 78, 98
2, 146780, Note_off_c, 0, 78, 100
2, 146784, Note_on_c, 0, 79, 100
2, 146876, Note_off_c, 0, 79, 100
2, 146976, Note_on_c, 0, 79, 103
2, 147020, Note_off_c, 0, 79, 100
2, 147024, Note_on_c, 0, 77, 104
2, 147068, Note_off_c, 0, 77, 100
2, 147072, Note_on_c, 0, 82, 105
2, 147260, Note_off_c, 0, 82, 100
2, 147264, Note_on_c, 0, 81, 109
2, 147308, Note_off_c, 0, 81, 100
2, 147312, Note_on_c, 0, 79, 110
2, 147356, Note_off_c, 0, 79, 100
2, 147360, Note_on_c, 0, 91, 110
2, 147548, Note_off_c, 0, 91, 100
2, 147552, Note_on_c, 0, 89, 110
2, 147644, Note_off_c, 0, 89, 100
2, 147648, Note_on_c, 0, 74, 110
2, 147740, Note_off_c, 0, 74, 100
2, 147888, Note_on_c, 0, 77, 82
2, 147932, Note_off_c, 0, 77, 100
2, 147936, Note_on_c, 0, 75, 76
2, 147980, Note_off_c, 0, 75, 100
2, 147984, Note_on_c, 0, 69, 71
2, 148028, Note_off_c, 0, 69, 100
2, 148032, Note_on_c, 0, 69, 70
2, 148076, Note_off_c, 0, 69, 100
2, 148080, Note_on_c, 0, 72, 70
2, 148604, Note_off_c, 0, 72, 100
2, 148608, Note_on_c, 0, 70, 70
2, 148892, Note_off_c, 0, 70, 100
2, 148896, Note_on_c, 0, 74, 77
2, 149184, Note_on_c, 0, 74, 70
2, 149372, Note_off_c, 0, 74, 100
2, 149376, Note_on_c, 0, 74, 71
2, 149468, Note_off_c, 0, 74, 100
2, 149468, Note_off_c, 0, 74, 100
2, 149664, Note_on_c, 0, 68, 74
2, 149948, Note_off_c, 0, 68, 100
2, 149952, Note_on_c, 0, 67, 77
2, 150044, Note_off_c, 0, 67, 100
2, 150048, Note_on_c, 0, 77, 78
2, 150236, Note_off_c, 0, 77, 100
2, 150240, Note_on_c, 0, 74, 79
2, 150332, Note_off_c, 0, 74, 100
2, 150336, Note_on_c, 0, 74, 80
2, 150380, Note_off_c, 0, 74, 100
2, 150384, Note_on_c, 0, 77, 80
2, 150528, Note_on_c, 0, 75, 80
2, 150572, Note_off_c, 0, 77, 100
2, 150620, Note_off_c, 0, 75, 100
2, 150624, Note_on_c, 0, 75, 80
2, 151004, Note_off_c, 0, 75, 100
2, 151008, Note_on_c, 0, 75, 80
2, 151100, Note_off_c, 0, 75, 100
2, 151104, Note_on_c, 0, 75, 80
2, 151196, Note_off_c, 0, 75, 100
2, 151296, Note_on_c, 0, 74, 80
2, 151388, Note_off_c, 0, 74, 100
2, 151392, Note_on_c, 0, 74, 80
2, 151484, Note_off_c, 0, 74, 100
2, 151584, Note_on_c, 0, 72, 80
2, 151676, Note_off_c, 0, 72, 100
2, 151680, Note_on_c, 0, 72, 70
2, 151772, Note_off_c, 0, 72, 100
2, 151872, Note_on_c, 0, 70, 80
2, 151964, Note_off_c, 0, 70, 100
2, 151968, Note_on_c, 0, 70, 70
2, 152060, Note_off_c, 0, 70, 100
2, 152160, Note_on_c, 0, 68, 80
2, 152252, Note_off_c, 0, 68, 100
2, 152256, Note_on_c, 0, 68, 70
2, 152348, Note_off_c, 0, 68, 100
2, 152448, Note_on_c, 0, 67, 80
2, 152540, Note_off_c, 0, 67, 100
2, 152544, Note_on_c, 0, 67, 70
2, 152636, Note_off_c, 0, 67, 100
2, 152640, Note_on_c, 0, 67, 80
2, 152828, Note_off_c, 0, 67, 100
2, 152832, Note_on_c, 0, 70, 83
2, 153020, Note_off_c, 0, 70, 100
2, 153024, Note_on_c, 0, 69, 90
2, 153116, Note_off_c, 0, 69, 100
2, 153120, Note_on_c, 0, 67, 90
2, 153404, Note_off_c, 0, 67, 100
2, 153408, Note_on_c, 0, 66, 86
2, 153500, Note_off_c, 0, 66, 100
2, 153696, Note_on_c, 0, 62, 81
2, 153788, Note_off_c, 0, 62, 100
2, 153792, Note_on_c, 0, 67, 80
2, 154268, Note_off_c, 0, 67, 100
2, 154272, Note_on_c, 0, 67, 80
2, 154364, Note_off_c, 0, 67, 100
2, 154368, Note_on_c, 0, 66, 80
2, 154460, Note_off_c, 0, 66, 100
2, 154560, Note_on_c, 0, 66, 80
2, 154652, Note_off_c, 0, 66, 100
2, 154848, Note_on_c, 0, 62, 80
2, 154940, Note_off_c, 0, 62, 100
2, 154944, Note_on_c, 0, 70, 80
2, 155420, Note_off_c, 0, 70, 100
2, 155424, Note_on_c, 0, 70, 80
2, 155516, Note_off_c, 0, 70, 100
2, 155520, Note_on_c, 0, 69, 80
2, 155612, Note_off_c, 0, 69, 100
2, 155712, Note_on_c, 0, 69, 80
2, 155804, Note_off_c, 0, 69, 100
2, 156000, Note_on_c, 0, 71, 80
2, 156092, Note_off_c, 0, 71, 100
2, 156288, Note_on_c, 0, 71, 80
2, 156332, Note_off_c, 0, 71, 100
2, 156336, Note_on_c, 0, 72, 80
2, 156380, Note_off_c, 0, 72, 100
2, 156576, Note_on_c, 0, 77, 80
2, 156620, Note_off_c, 0, 77, 100
2, 156624, Note_on_c, 0, 75, 80
2, 156668, Note_off_c, 0, 75, 100
2, 156864, Note_on_c, 0, 75, 80
2, 156908, Note_off_c, 0, 75, 100
2, 156912, Note_on_c, 0, 74, 80
2, 156956, Note_off_c, 0, 74, 100
2, 157152, Note_on_c, 0, 67, 80
2, 157196, Note_off_c, 0, 67, 100
2, 157200, Note_on_c, 0, 66, 80
2, 157244, Note_off_c, 0, 66, 100
2, 157440, Note_on_c, 0, 66, 80
2, 157532, Note_off_c, 0, 66, 100
2, 157536, Note_on_c, 0, 69, 80
2, 157632, Note_on_c, 0, 62, 80
2, 157724, Note_off_c, 0, 62, 100
2, 157728, Note_on_c, 0, 63, 80
2, 157772, Note_off_c, 0, 63, 100
2, 157776, Note_on_c, 0, 62, 80
2, 157820, Note_off_c, 0, 69, 100
2, 157820, Note_off_c, 0, 62, 100
2, 157824, Note_on_c, 0, 67, 80
2, 157824, Note_on_c, 0, 62, 80
2, 158012, Note_off_c, 0, 67, 100
2, 158012, Note_off_c, 0, 62, 100
2, 158304, Note_on_c, 0, 58, 70
2, 158396, Note_off_c, 0, 58, 100
2, 158592, Note_on_c, 0, 57, 70
2, 158684, Note_off_c, 0, 57, 100
2, 158880, Note_on_c, 0, 62, 70
2, 158972, Note_off_c, 0, 62, 100
2, 159168, Control_c, 0, 64, 127
2, 159168, Note_on_c, 0, 55, 70
2, 159168, Note_on_c, 0, 59, 70
2, 159452, Note_off_c, 0, 55, 100
2, 159452, Note_off_c, 0, 59, 100
2, 159456, Note_on_c, 0, 59, 70
2, 159456, Note_on_c, 0, 55, 70
2, 159456, Note_on_c, 0, 50, 70
2, 159740, Note_off_c, 0, 50, 100
2, 159740, Note_off_c, 0, 55, 100
2, 159740, Note_off_c, 0, 59, 100
2, 159744, Note_on_c, 0, 59, 70
2, 159744, Note_on_c, 0, 55, 70
2, 159744, Note_on_c, 0, 50, 70
2, 160028, Note_off_c, 0, 59, 100
2, 160028, Note_off_c, 0, 55, 100
2, 160028, Note_off_c, 0, 50, 100
2, 160032, Note_on_c, 0, 59, 74
2, 160032, Note_on_c, 0, 55, 74
2, 160032, Note_on_c, 0, 50, 74
2, 160316, Note_off_c, 0, 59, 100
2, 160316, Note_off_c, 0, 55, 100
2, 160316, Note_off_c, 0, 50, 100
2, 160320, Note_on_c, 0, 59, 80
2, 160320, Note_on_c, 0, 55, 80
2, 160320, Note_on_c, 0, 50, 80
2, 160604, Note_off_c, 0, 59, 100
2, 160604, Note_off_c, 0, 55, 100
2, 160604, Note_off_c, 0, 50, 100
2, 160608, Note_on_c, 0, 59, 90
2, 160608, Note_on_c, 0, 55, 90
2, 160608, Note_on_c, 0, 50, 90
2, 160892, Note_off_c, 0, 50, 100
2, 160892, Note_off_c, 0, 55, 100
2, 160892, Note_off_c, 0, 59, 100
2, 160896, Note_on_c, 0, 59, 100
2, 160896, Note_on_c, 0, 55, 100
2, 160896, Note_on_c, 0, 50, 100
2, 160896, Note_on_c, 0, 62, 100
2, 161180, Note_off_c, 0, 59, 100
2, 161180, Note_off_c, 0, 55, 100
2, 161180, Note_off_c, 0, 50, 100
2, 161180, Note_off_c, 0, 62, 100
2, 161184, Note_on_c, 0, 62, 110
2, 161184, Note_on_c, 0, 59, 110
2, 161184, Note_on_c, 0, 55, 110
2, 161184, Note_on_c, 0, 50, 110
2, 161468, Note_off_c, 0, 62, 100
2, 161468, Note_off_c, 0, 59, 100
2, 161468, Note_off_c, 0, 55, 100
2, 161468, Note_off_c, 0, 50, 100
2, 161472, Note_on_c, 0, 62, 120
2, 161472, Note_on_c, 0, 59, 120
2, 161472, Note_on_c, 0, 55, 120
2, 161472, Note_on_c, 0, 50, 120
2, 161756, Note_off_c, 0, 62, 100
2, 161756, Note_off_c, 0, 59, 100
2, 161756, Note_off_c, 0, 55, 100
2, 161756, Note_off_c, 0, 50, 100
2, 161760, Note_on_c, 0, 55, 125
2, 161760, Note_on_c, 0, 50, 125
2, 161760, Note_on_c, 0, 62, 125
2, 161760, Note_on_c, 0, 59, 125
2, 163004, Note_off_c, 0, 50, 64
2, 163004, Note_off_c, 0, 55, 64
2, 163004, Note_off_c, 0, 59, 64
2, 163004, Note_off_c, 0, 62, 64
2, 163008, Note_on_c, 0, 59, 91
2, 163200, Note_on_c, 0, 62, 87
2, 163296, Note_on_c, 0, 67, 85
2, 163488, Note_on_c, 0, 71, 81
2, 163580, Note_off_c, 0, 59, 100
2, 163580, Note_off_c, 0, 62, 100
2, 163580, Note_off_c, 0, 67, 100
2, 163580, Note_off_c, 0, 71, 100
2, 163582, Control_c, 0, 64, 0
2, 163584, Key_signature, 1, "major"
2, 163584, Note_on_c, 0, 74, 80
2, 164156, Note_off_c, 0, 74, 100
2, 164160, Note_on_c, 0, 69, 80
2, 164732, Note_off_c, 0, 69, 100
2, 164736, Note_on_c, 0, 72, 80
2, 165308, Note_off_c, 0, 72, 100
2, 165312, Note_on_c, 0, 67, 80
2, 165884, Note_off_c, 0, 67, 100
2, 165888, Note_on_c, 0, 71, 80
2, 166460, Note_off_c, 0, 71, 100
2, 166464, Note_on_c, 0, 66, 80
2, 167036, Note_off_c, 0, 66, 100
2, 167040, Note_on_c, 0, 67, 80
2, 167420, Note_off_c, 0, 67, 100
2, 167424, Note_on_c, 0, 69, 80
2, 167612, Note_off_c, 0, 69, 100
2, 167616, Note_on_c, 0, 71, 80
2, 168192, Note_on_c, 0, 79, 80
2, 168380, Note_off_c, 0, 71, 100
2, 168384, Note_on_c, 0, 72, 80
2, 168572, Note_off_c, 0, 72, 100
2, 168576, Note_on_c, 0, 71, 80
2, 168764, Note_off_c, 0, 79, 100
2, 168768, Note_on_c, 0, 74, 80
2, 168956, Note_off_c, 0, 71, 100
2, 168960, Note_on_c, 0, 69, 80
2, 169148, Note_off_c, 0, 69, 100
2, 169152, Note_on_c, 0, 68, 80
2, 169340, Note_off_c, 0, 74, 100
2, 169340, Note_off_c, 0, 68, 100
2, 169344, Note_on_c, 0, 78, 80
2, 169344, Note_on_c, 0, 69, 80
2, 169532, Note_off_c, 0, 69, 100
2, 169536, Note_on_c, 0, 71, 80
2, 169724, Note_off_c, 0, 71, 100
2, 169728, Note_on_c, 0, 69, 80
2, 169916, Note_off_c, 0, 78, 100
2, 169920, Note_on_c, 0, 73, 80
2, 170108, Note_off_c, 0, 69, 100
2, 170112, Note_on_c, 0, 67, 80
2, 170300, Note_off_c, 0, 67, 100
2, 170304, Note_on_c, 0, 66, 80
2, 170492, Note_off_c, 0, 73, 100
2, 170492, Note_off_c, 0, 66, 100
2, 170496, Note_on_c, 0, 76, 80
2, 170496, Note_on_c, 0, 67, 80
2, 170684, Note_off_c, 0, 67, 100
2, 170688, Note_on_c, 0, 69, 80
2, 170876, Note_off_c, 0, 69, 100
2, 170880, Note_on_c, 0, 67, 80
2, 171068, Note_off_c, 0, 76, 100
2, 171072, Note_on_c, 0, 69, 80
2, 171260, Note_off_c, 0, 67, 100
2, 171264, Note_on_c, 0, 64, 80
2, 171452, Note_off_c, 0, 64, 100
2, 171456, Note_on_c, 0, 66, 80
2, 171644, Note_off_c, 0, 69, 100
2, 171644, Note_off_c, 0, 66, 100
2, 171648, Note_on_c, 0, 71, 80
2, 171648, Note_on_c, 0, 67, 80
2, 171836, Note_off_c, 0, 67, 100
2, 171840, Note_on_c, 0, 66, 80
2, 172028, Note_off_c, 0, 71, 100
2, 172028, Note_off_c, 0, 66, 100
2, 172032, Note_on_c, 0, 73, 80
2, 172032, Note_on_c, 0, 64, 80
2, 172220, Note_off_c, 0, 73, 100
2, 172220, Note_off_c, 0, 64, 100
2, 172224, Note_on_c, 0, 74, 80
2, 172224, Note_on_c, 0, 66, 80
2, 172412, Note_off_c, 0, 74, 100
2, 172412, Note_off_c, 0, 66, 100
2, 172416, Note_on_c, 0, 72, 80
2, 172416, Note_on_c, 0, 69, 80
2, 172604, Note_off_c, 0, 72, 100
2, 172604, Note_off_c, 0, 69, 100
2, 172608, Note_on_c, 0, 71, 80
2, 172608, Note_on_c, 0, 67, 80
2, 172796, Note_off_c, 0, 71, 100
2, 172800, Note_on_c, 0, 69, 80
2, 172988, Note_off_c, 0, 67, 100
2, 172992, Note_on_c, 0, 65, 80
2, 173180, Note_off_c, 0, 69, 100
2, 173184, Note_on_c, 0, 71, 80
2, 173372, Note_off_c, 0, 65, 100
2, 173372, Note_off_c, 0, 71, 100
2, 173376, Note_on_c, 0, 72, 80
2, 173376, Note_on_c, 0, 64, 80
2, 173564, Note_off_c, 0, 72, 100
2, 173568, Note_on_c, 0, 71, 80
2, 173756, Note_off_c, 0, 71, 100
2, 173760, Note_on_c, 0, 69, 80
2, 173948, Note_off_c, 0, 64, 100
2, 173952, Note_on_c, 0, 63, 80
2, 174140, Note_off_c, 0, 69, 100
2, 174144, Note_on_c, 0, 67, 80
2, 174332, Note_off_c, 0, 63, 100
2, 174332, Note_off_c, 0, 67, 100
2, 174336, Note_on_c, 0, 69, 80
2, 174336, Note_on_c, 0, 66, 80
2, 174524, Note_off_c, 0, 69, 100
2, 174524, Note_off_c, 0, 66, 100
2, 174528, Note_on_c, 0, 71, 80
2, 174528, Note_on_c, 0, 62, 80
2, 174716, Note_off_c, 0, 71, 100
2, 174720, Note_on_c, 0, 69, 80
2, 174908, Note_off_c, 0, 69, 100
2, 174912, Note_on_c, 0, 67, 80
2, 175292, Note_off_c, 0, 62, 100
2, 175296, Note_on_c, 0, 61, 80
2, 175484, Note_off_c, 0, 61, 100
2, 175488, Note_on_c, 0, 62, 80
2, 175676, Note_off_c, 0, 67, 100
2, 175676, Note_off_c, 0, 62, 100
2, 175680, Note_on_c, 0, 69, 80
2, 175680, Note_on_c, 0, 62, 80
2, 175868, Note_off_c, 0, 69, 100
2, 175872, Note_on_c, 0, 71, 80
2, 176060, Note_off_c, 0, 71, 100
2, 176064, Note_on_c, 0, 69, 80
2, 176252, Note_off_c, 0, 69, 100
2, 176256, Note_on_c, 0, 71, 80
2, 176444, Note_off_c, 0, 62, 100
2, 176448, Note_on_c, 0, 67, 80
2, 176636, Note_off_c, 0, 71, 100
2, 176640, Note_on_c, 0, 72, 80
2, 176828, Note_off_c, 0, 67, 100
2, 176832, Note_on_c, 0, 65, 80
2, 177020, Note_off_c, 0, 72, 100
2, 177024, Note_on_c, 0, 71, 80
2, 177212, Note_off_c, 0, 65, 100
2, 177212, Note_off_c, 0, 71, 100
2, 177216, Note_on_c, 0, 74, 80
2, 177216, Note_on_c, 0, 62, 80
2, 177404, Note_off_c, 0, 74, 100
2, 177404, Note_off_c, 0, 62, 100
2, 177408, Note_on_c, 0, 79, 80
2, 177600, Note_on_c, 0, 75, 80
2, 177788, Note_off_c, 0, 75, 100
2, 177792, Note_on_c, 0, 72, 80
2, 177980, Note_off_c, 0, 79, 100
2, 177980, Note_off_c, 0, 72, 100
2, 177984, Note_on_c, 0, 74, 80
2, 177984, Note_on_c, 0, 71, 80
2, 178556, Note_off_c, 0, 74, 100
2, 178556, Note_off_c, 0, 71, 100
2, 178560, Note_on_c, 0, 77, 80
2, 178560, Note_on_c, 0, 71, 80
2, 179132, Note_off_c, 0, 77, 100
2, 179132, Note_off_c, 0, 71, 100
2, 179136, Note_on_c, 0, 72, 80
2, 179136, Note_on_c, 0, 69, 80
2, 179516, Note_off_c, 0, 72, 100
2, 179516, Note_off_c, 0, 69, 100
2, 179520, Note_on_c, 0, 74, 80
2, 179520, Note_on_c, 0, 71, 80
2, 179708, Note_off_c, 0, 74, 100
2, 179708, Note_off_c, 0, 71, 100
2, 179712, Note_on_c, 0, 75, 80
2, 179712, Note_on_c, 0, 67, 80
2, 180284, Note_off_c, 0, 75, 100
2, 180284, Note_off_c, 0, 67, 100
2, 180288, Note_on_c, 0, 69, 80
2, 180288, Note_on_c, 0, 65, 80
2, 180668, Note_off_c, 0, 69, 100
2, 180668, Note_off_c, 0, 65, 100
2, 180672, Note_on_c, 0, 74, 80
2, 180672, Note_on_c, 0, 65, 80
2, 181244, Note_off_c, 0, 74, 100
2, 181244, Note_off_c, 0, 65, 100
2, 181248, Note_on_c, 0, 72, 80
2, 181248, Note_on_c, 0, 63, 80
2, 181436, Note_off_c, 0, 72, 100
2, 181436, Note_off_c, 0, 63, 100
2, 181440, Note_on_c, 0, 71, 80
2, 181440, Note_on_c, 0, 62, 80
2, 181820, Note_off_c, 0, 71, 100
2, 181820, Note_off_c, 0, 62, 100
2, 182400, Note_on_c, 0, 67, 80
2, 182592, Key_signature, -2, "minor"
2, 182592, Note_on_c, 0, 59, 80
2, 182780, Note_off_c, 0, 59, 100
2, 182784, Note_on_c, 0, 62, 80
2, 182972, Note_off_c, 0, 62, 100
2, 182976, Note_on_c, 0, 60, 80
2, 183164, Note_off_c, 0, 67, 100
2, 183164, Note_off_c, 0, 60, 100
2, 183168, Note_on_c, 0, 72, 80
2, 183168, Note_on_c, 0, 63, 80
2, 183356, Note_off_c, 0, 63, 100
2, 183360, Note_on_c, 0, 62, 80
2, 183548, Note_off_c, 0, 62, 100
2, 183552, Note_on_c, 0, 65, 80
2, 183740, Note_off_c, 0, 65, 100
2, 183744, Note_on_c, 0, 63, 80
2, 183836, Note_off_c, 0, 63, 100
2, 183840, Note_on_c, 0, 62, 80
2, 183932, Note_off_c, 0, 62, 100
2, 183936, Note_on_c, 0, 60, 80
2, 184124, Note_off_c, 0, 60, 100
2, 184316, Note_off_c, 0, 72, 100
2, 184320, Note_on_c, 0, 69, 80
2, 184896, Note_on_c, 0, 62, 80
2, 185084, Note_off_c, 0, 62, 100
2, 185088, Note_on_c, 0, 67, 80
2, 185276, Note_off_c, 0, 67, 100
2, 185280, Note_on_c, 0, 66, 80
2, 185468, Note_off_c, 0, 69, 100
2, 185468, Note_off_c, 0, 66, 100
2, 185472, Note_on_c, 0, 74, 80
2, 185472, Note_on_c, 0, 69, 80
2, 185660, Note_off_c, 0, 69, 100
2, 185664, Note_on_c, 0, 67, 80
2, 185852, Note_off_c, 0, 67, 100
2, 185856, Note_on_c, 0, 72, 80
2, 186044, Note_off_c, 0, 72, 100
2, 186048, Note_on_c, 0, 70, 80
2, 186140, Note_off_c, 0, 70, 100
2, 186144, Note_on_c, 0, 69, 80
2, 186236, Note_off_c, 0, 69, 100
2, 186240, Note_on_c, 0, 67, 80
2, 186428, Note_off_c, 0, 67, 100
2, 186620, Note_off_c, 0, 74, 100
2, 186624, Note_on_c, 0, 70, 80
2, 187392, Note_on_c, 0, 62, 80
2, 187580, Note_off_c, 0, 62, 100
2, 187584, Note_on_c, 0, 67, 80
2, 187772, Note_off_c, 0, 70, 100
2, 187776, Note_on_c, 0, 75, 80
2, 187868, Note_off_c, 0, 67, 100
2, 187872, Note_on_c, 0, 65, 80
2, 187964, Note_off_c, 0, 65, 100
2, 187968, Note_on_c, 0, 63, 80
2, 188156, Note_off_c, 0, 63, 100
2, 188544, Note_on_c, 0, 66, 80
2, 188732, Note_off_c, 0, 66, 100
2, 188736, Note_on_c, 0, 72, 80
2, 188924, Note_off_c, 0, 75, 100
2, 188928, Note_on_c, 0, 74, 80
2, 189020, Note_off_c, 0, 72, 100
2, 189024, Note_on_c, 0, 70, 80
2, 189116, Note_off_c, 0, 70, 100
2, 189120, Note_on_c, 0, 69, 80
2, 189308, Note_off_c, 0, 69, 100
2, 189312, Note_on_c, 0, 72, 80
2, 189500, Note_off_c, 0, 72, 100
2, 189504, Note_on_c, 0, 71, 80
2, 189596, Note_off_c, 0, 71, 100
2, 189600, Note_on_c, 0, 69, 80
2, 189692, Note_off_c, 0, 69, 100
2, 189696, Note_on_c, 0, 67, 80
2, 189884, Note_off_c, 0, 67, 100
2, 189888, Note_on_c, 0, 67, 80
2, 190076, Note_off_c, 0, 74, 100
2, 190080, Note_on_c, 0, 72, 80
2, 190268, Note_off_c, 0, 67, 100
2, 190272, Note_on_c, 0, 67, 80
2, 190364, Note_off_c, 0, 67, 100
2, 190368, Note_on_c, 0, 65, 80
2, 190460, Note_off_c, 0, 65, 100
2, 190464, Note_on_c, 0, 63, 80
2, 190748, Note_off_c, 0, 63, 100
2, 190752, Note_on_c, 0, 62, 80
2, 190848, Note_on_c, 0, 60, 80
2, 191036, Note_off_c, 0, 60, 100
2, 191040, Note_on_c, 0, 71, 80
2, 191040, Note_on_c, 0, 62, 80
2, 191228, Note_off_c, 0, 72, 100
2, 191228, Note_off_c, 0, 62, 100
2, 191228, Note_off_c, 0, 71, 100
2, 191228, Note_off_c, 0, 62, 100
2, 191232, Note_on_c, 0, 72, 80
2, 191232, Note_on_c, 0, 63, 80
2, 191420, Note_off_c, 0, 72, 100
2, 191420, Note_off_c, 0, 63, 100
2, 191424, Note_on_c, 0, 77, 81
2, 191424, Note_on_c, 0, 68, 81
2, 191612, Note_off_c, 0, 77, 100
2, 191612, Note_off_c, 0, 68, 100
2, 191616, Note_on_c, 0, 74, 82
2, 191616, Note_on_c, 0, 65, 82
2, 191804, Note_off_c, 0, 74, 100
2, 191804, Note_off_c, 0, 65, 100
2, 191808, Note_on_c, 0, 79, 83
2, 191808, Note_on_c, 0, 70, 83
2, 191996, Note_off_c, 0, 79, 100
2, 191996, Note_off_c, 0, 70, 100
2, 192000, Note_on_c, 0, 76, 84
2, 192000, Note_on_c, 0, 65, 84
2, 192188, Note_off_c, 0, 76, 100
2, 192188, Note_off_c, 0, 65, 100
2, 192192, Note_on_c, 0, 80, 85
2, 192192, Note_on_c, 0, 72, 85
2, 192476, Note_off_c, 0, 80, 100
2, 192476, Note_off_c, 0, 72, 100
2, 192480, Note_on_c, 0, 79, 86
2, 192480, Note_on_c, 0, 70, 86
2, 192572, Note_off_c, 0, 79, 100
2, 192572, Note_off_c, 0, 70, 100
2, 192576, Note_on_c, 0, 77, 87
2, 192576, Note_on_c, 0, 68, 87
2, 192764, Note_off_c, 0, 77, 100
2, 192768, Note_on_c, 0, 72, 88
2, 192768, Note_on_c, 0, 68, 88
2, 192956, Note_off_c, 0, 68, 100
2, 193148, Note_off_c, 0, 68, 100
2, 193148, Note_off_c, 0, 72, 100
2, 193152, Note_on_c, 0, 68, 90
2, 193152, Note_on_c, 0, 65, 90
2, 193340, Note_off_c, 0, 68, 100
2, 193340, Note_off_c, 0, 65, 100
2, 193344, Note_on_c, 0, 72, 91
2, 193344, Note_on_c, 0, 69, 91
2, 193628, Note_off_c, 0, 72, 100
2, 193628, Note_off_c, 0, 69, 100
2, 193632, Note_on_c, 0, 70, 93
2, 193632, Note_on_c, 0, 67, 93
2, 193724, Note_off_c, 0, 70, 100
2, 193724, Note_off_c, 0, 67, 100
2, 193728, Note_on_c, 0, 69, 93
2, 193728, Note_on_c, 0, 66, 93
2, 193916, Note_off_c, 0, 69, 100
2, 193916, Note_off_c, 0, 66, 100
2, 193920, Note_on_c, 0, 81, 94
2, 193920, Note_on_c, 0, 72, 94
2, 194300, Note_off_c, 0, 72, 100
2, 194300, Note_off_c, 0, 81, 100
2, 194304, Note_on_c, 0, 78, 97
2, 194304, Note_on_c, 0, 69, 97
2, 194492, Note_off_c, 0, 78, 100
2, 194492, Note_off_c, 0, 69, 100
2, 194496, Note_on_c, 0, 82, 98
2, 194496, Note_on_c, 0, 74, 98
2, 194780, Note_off_c, 0, 82, 100
2, 194780, Note_off_c, 0, 74, 100
2, 194784, Note_on_c, 0, 81, 99
2, 194784, Note_on_c, 0, 72, 99
2, 194876, Note_off_c, 0, 81, 100
2, 194876, Note_off_c, 0, 72, 100
2, 194880, Note_on_c, 0, 79, 100
2, 194880, Note_on_c, 0, 70, 100
2, 195068, Note_off_c, 0, 79, 100
2, 195068, Note_off_c, 0, 70, 100
2, 195072, Note_on_c, 0, 62, 101
2, 195452, Note_off_c, 0, 62, 100
2, 195456, Note_on_c, 0, 59, 103
2, 195644, Note_off_c, 0, 59, 100
2, 195648, Note_on_c, 0, 67, 104
2, 195932, Note_off_c, 0, 67, 100
2, 195936, Note_on_c, 0, 65, 106
2, 196028, Note_off_c, 0, 65, 100
2, 196032, Note_on_c, 0, 63, 106
2, 196220, Note_off_c, 0, 63, 100
2, 196224, Note_on_c, 0, 70, 107
2, 196224, Note_on_c, 0, 67, 107
2, 196604, Note_off_c, 0, 67, 100
2, 196604, Note_off_c, 0, 70, 100
2, 196608, Note_on_c, 0, 67, 109
2, 196608, Note_on_c, 0, 63, 109
2, 196796, Note_off_c, 0, 67, 100
2, 196796, Note_off_c, 0, 63, 100
2, 196800, Note_on_c, 0, 75, 110
2, 196800, Note_on_c, 0, 72, 110
2, 197084, Note_off_c, 0, 75, 100
2, 197084, Note_off_c, 0, 72, 100
2, 197088, Note_on_c, 0, 73, 110
2, 197088, Note_on_c, 0, 70, 110
2, 197180, Note_off_c, 0, 73, 100
2, 197180, Note_off_c, 0, 70, 100
2, 197184, Note_on_c, 0, 72, 110
2, 197184, Note_on_c, 0, 68, 110
2, 197372, Note_off_c, 0, 72, 100
2, 197372, Note_off_c, 0, 68, 100
2, 197376, Note_on_c, 0, 65, 110
2, 197756, Note_off_c, 0, 65, 100
2, 197760, Note_on_c, 0, 60, 110
2, 197948, Note_off_c, 0, 60, 100
2, 197952, Note_on_c, 0, 70, 110
2, 198332, Note_off_c, 0, 70, 100
2, 198336, Note_on_c, 0, 75, 105
2, 198524, Note_off_c, 0, 75, 100
2, 198528, Note_on_c, 0, 63, 102
2, 198908, Note_off_c, 0, 63, 100
2, 198912, Note_on_c, 0, 58, 97
2, 199100, Note_off_c, 0, 58, 100
2, 199104, Note_on_c, 0, 68, 94
2, 199484, Note_off_c, 0, 68, 100
2, 199488, Note_on_c, 0, 74, 89
2, 199676, Note_off_c, 0, 74, 100
2, 199680, Note_on_c, 0, 62, 86
2, 200060, Note_off_c, 0, 62, 100
2, 200064, Note_on_c, 0, 56, 81
2, 200252, Note_off_c, 0, 56, 100
2, 200256, Note_on_c, 0, 63, 80
2, 200348, Note_off_c, 0, 63, 100
2, 200352, Note_on_c, 0, 68, 80
2, 200444, Note_off_c, 0, 68, 100
2, 200448, Note_on_c, 0, 67, 80
2, 200540, Note_off_c, 0, 67, 100
2, 200544, Note_on_c, 0, 72, 80
2, 200636, Note_off_c, 0, 72, 100
2, 200640, Note_on_c, 0, 70, 80
2, 200688, Note_on_c, 0, 68, 80
2, 200734, Note_off_c, 0, 70, 100
2, 200736, Note_on_c, 0, 67, 80
2, 200782, Note_off_c, 0, 68, 100
2, 200828, Note_off_c, 0, 67, 100
2, 200832, Note_on_c, 0, 58, 80
2, 200924, Note_off_c, 0, 58, 100
2, 200928, Note_on_c, 0, 63, 80
2, 201020, Note_off_c, 0, 63, 100
2, 201024, Note_on_c, 0, 68, 80
2, 201024, Note_on_c, 0, 62, 80
2, 201116, Note_off_c, 0, 62, 100
2, 201120, Note_on_c, 0, 67, 80
2, 201212, Note_off_c, 0, 68, 100
2, 201212, Note_off_c, 0, 67, 100
2, 201216, Note_on_c, 0, 65, 80
2, 201264, Note_on_c, 0, 63, 80
2, 201308, Note_off_c, 0, 65, 100
2, 201312, Note_on_c, 0, 62, 80
2, 201358, Note_off_c, 0, 63, 100
2, 201404, Note_off_c, 0, 62, 100
2, 201600, Note_on_c, 0, 63, 80
2, 201692, Note_off_c, 0, 63, 100
2, 201696, Note_on_c, 0, 72, 80
2, 201788, Note_off_c, 0, 72, 100
2, 201792, Note_on_c, 0, 70, 80
2, 201840, Note_on_c, 0, 68, 80
2, 201886, Note_off_c, 0, 70, 100
2, 201888, Note_on_c, 0, 67, 80
2, 201934, Note_off_c, 0, 68, 100
2, 201980, Note_off_c, 0, 67, 100
2, 201984, Note_on_c, 0, 75, 80
2, 202076, Note_off_c, 0, 75, 100
2, 202080, Note_on_c, 0, 80, 80
2, 202172, Note_off_c, 0, 80, 100
2, 202176, Note_on_c, 0, 79, 80
2, 202176, Note_on_c, 0, 63, 80
2, 202268, Note_off_c, 0, 79, 100
2, 202268, Note_off_c, 0, 63, 100
2, 202272, Note_on_c, 0, 84, 80
2, 202272, Note_on_c, 0, 68, 80
2, 202364, Note_off_c, 0, 84, 100
2, 202364, Note_off_c, 0, 68, 100
2, 202368, Note_on_c, 0, 82, 80
2, 202368, Note_on_c, 0, 67, 80
2, 202412, Note_off_c, 0, 82, 100
2, 202416, Note_on_c, 0, 80, 80
2, 202460, Note_off_c, 0, 67, 100
2, 202460, Note_off_c, 0, 80, 100
2, 202464, Note_on_c, 0, 79, 80
2, 202464, Note_on_c, 0, 72, 80
2, 202556, Note_off_c, 0, 79, 100
2, 202556, Note_off_c, 0, 72, 100
2, 202560, Note_on_c, 0, 70, 80
2, 202604, Note_off_c, 0, 70, 100
2, 202608, Note_on_c, 0, 68, 80
2, 202652, Note_off_c, 0, 68, 100
2, 202656, Note_on_c, 0, 67, 80
2, 202748, Note_off_c, 0, 67, 100
2, 202752, Note_on_c, 0, 78, 80
2, 202752, Note_on_c, 0, 75, 80
2, 202844, Note_off_c, 0, 78, 100
2, 202848, Note_on_c, 0, 87, 80
2, 202940, Note_off_c, 0, 87, 100
2, 202944, Note_on_c, 0, 84, 80
2, 203036, Note_off_c, 0, 84, 100
2, 203040, Note_on_c, 0, 89, 80
2, 203132, Note_off_c, 0, 89, 100
2, 203136, Note_on_c, 0, 87, 80
2, 203180, Note_off_c, 0, 87, 100
2, 203184, Note_on_c, 0, 85, 80
2, 203228, Note_off_c, 0, 85, 100
2, 203232, Note_on_c, 0, 84, 80
2, 203324, Note_off_c, 0, 75, 100
2, 203324, Note_off_c, 0, 84, 100
2, 203328, Note_on_c, 0, 69, 80
2, 203900, Note_off_c, 0, 69, 100
2, 203904, Note_on_c, 0, 73, 80
2, 203904, Note_on_c, 0, 77, 80
2, 203996, Note_off_c, 0, 77, 100
2, 204000, Note_on_c, 0, 84, 80
2, 204092, Note_off_c, 0, 84, 100
2, 204096, Note_on_c, 0, 82, 80
2, 204188, Note_off_c, 0, 82, 100
2, 204192, Note_on_c, 0, 87, 80
2, 204236, Note_off_c, 0, 87, 100
2, 204288, Note_on_c, 0, 85, 80
2, 204332, Note_off_c, 0, 85, 100
2, 204336, Note_on_c, 0, 84, 80
2, 204384, Note_on_c, 0, 82, 80
2, 204428, Note_off_c, 0, 84, 100
2, 204476, Note_off_c, 0, 73, 100
2, 204476, Note_off_c, 0, 82, 100
2, 204480, Note_on_c, 0, 67, 80
2, 205052, Note_off_c, 0, 67, 100
2, 205056, Note_on_c, 0, 72, 80
2, 205056, Note_on_c, 0, 75, 80
2, 205148, Note_off_c, 0, 75, 100
2, 205152, Note_on_c, 0, 82, 81
2, 205244, Note_off_c, 0, 82, 100
2, 205248, Note_on_c, 0, 80, 82
2, 205340, Note_off_c, 0, 80, 100
2, 205344, Note_on_c, 0, 85, 84
2, 205436, Note_off_c, 0, 85, 100
2, 205440, Note_on_c, 0, 84, 85
2, 205484, Note_off_c, 0, 84, 100
2, 205488, Note_on_c, 0, 82, 86
2, 205532, Note_off_c, 0, 82, 100
2, 205536, Note_on_c, 0, 80, 86
2, 205628, Note_off_c, 0, 72, 100
2, 205628, Note_off_c, 0, 80, 100
2, 205632, Note_on_c, 0, 65, 88
2, 206204, Note_off_c, 0, 65, 100
2, 206208, Note_on_c, 0, 67, 96
2, 206588, Note_off_c, 0, 67, 100
2, 206592, Note_on_c, 0, 68, 101
2, 206780, Note_off_c, 0, 68, 100
2, 206784, Key_signature, -4, "major"
2, 206784, Note_on_c, 0, 70, 104
2, 206784, Note_on_c, 0, 79, 104
2, 206876, Note_off_c, 0, 79, 100
2, 206880, Note_on_c, 0, 74, 105
2, 206972, Note_off_c, 0, 74, 100
2, 206976, Note_on_c, 0, 77, 106
2, 207068, Note_off_c, 0, 77, 100
2, 207072, Note_on_c, 0, 73, 108
2, 207164, Note_off_c, 0, 73, 100
2, 207168, Note_on_c, 0, 77, 109
2, 207212, Note_off_c, 0, 77, 100
2, 207216, Note_on_c, 0, 75, 110
2, 207260, Note_off_c, 0, 75, 100
2, 207264, Note_on_c, 0, 73, 110
2, 207356, Note_off_c, 0, 70, 100
2, 207356, Note_off_c, 0, 73, 100
2, 207360, Note_on_c, 0, 72, 110
2, 207360, Note_on_c, 0, 63, 110
2, 207456, Note_on_c, 0, 70, 110
2, 207542, Note_off_c, 0, 63, 100
2, 207548, Note_off_c, 0, 72, 100
2, 207552, Note_on_c, 0, 67, 110
2, 207638, Note_off_c, 0, 70, 100
2, 207648, Note_on_c, 0, 68, 110
2, 207736, Note_off_c, 0, 67, 100
2, 207744, Note_on_c, 0, 60, 110
2, 207828, Note_off_c, 0, 68, 100
2, 207840, Note_on_c, 0, 66, 110
2, 207934, Note_off_c, 0, 60, 100
2, 207936, Note_on_c, 0, 56, 110
2, 208028, Note_off_c, 0, 66, 100
2, 208032, Note_on_c, 0, 66, 110
2, 208120, Note_off_c, 0, 56, 100
2, 208128, Note_on_c, 0, 56, 110
2, 208218, Note_off_c, 0, 66, 100
2, 208224, Note_on_c, 0, 64, 110
2, 208314, Note_off_c, 0, 56, 100
2, 208320, Note_on_c, 0, 56, 110
2, 208412, Note_off_c, 0, 64, 100
2, 208416, Note_on_c, 0, 65, 110
2, 208510, Note_off_c, 0, 56, 100
2, 208512, Note_on_c, 0, 61, 110
2, 208602, Note_off_c, 0, 65, 100
2, 208608, Note_on_c, 0, 65, 110
2, 208702, Note_off_c, 0, 61, 100
2, 208704, Note_on_c, 0, 61, 110
2, 208798, Note_off_c, 0, 65, 100
2, 208800, Note_on_c, 0, 72, 110
2, 208888, Note_off_c, 0, 61, 100
2, 208896, Note_on_c, 0, 61, 110
2, 208990, Note_off_c, 0, 72, 100
2, 208992, Note_on_c, 0, 70, 110
2, 209086, Note_off_c, 0, 61, 100
2, 209088, Note_on_c, 0, 58, 110
2, 209176, Note_off_c, 0, 70, 100
2, 209184, Note_on_c, 0, 68, 110
2, 209276, Note_off_c, 0, 58, 100
2, 209280, Note_on_c, 0, 58, 110
2, 209366, Note_off_c, 0, 68, 100
2, 209376, Note_on_c, 0, 66, 110
2, 209464, Note_off_c, 0, 58, 100
2, 209472, Note_on_c, 0, 58, 110
2, 209562, Note_off_c, 0, 66, 100
2, 209568, Note_on_c, 0, 67, 110
2, 209658, Note_off_c, 0, 58, 100
2, 209664, Note_on_c, 0, 63, 110
2, 209752, Note_off_c, 0, 67, 100
2, 209760, Note_on_c, 0, 67, 110
2, 209850, Note_off_c, 0, 63, 100
2, 209856, Note_on_c, 0, 63, 110
2, 209946, Note_off_c, 0, 67, 100
2, 209952, Note_on_c, 0, 70, 110
2, 210044, Note_off_c, 0, 63, 100
2, 210048, Note_on_c, 0, 63, 110
2, 210140, Note_off_c, 0, 70, 100
2, 210144, Note_on_c, 0, 68, 110
2, 210234, Note_off_c, 0, 63, 100
2, 210240, Note_on_c, 0, 62, 110
2, 210334, Note_off_c, 0, 68, 100
2, 210336, Note_on_c, 0, 68, 110
2, 210426, Note_off_c, 0, 62, 100
2, 210432, Note_on_c, 0, 67, 110
2, 210526, Note_off_c, 0, 68, 100
2, 210528, Note_on_c, 0, 70, 110
2, 210618, Note_off_c, 0, 67, 100
2, 210624, Note_on_c, 0, 61, 110
2, 210718, Note_off_c, 0, 70, 100
2, 210720, Note_on_c, 0, 68, 110
2, 210814, Note_off_c, 0, 61, 100
2, 210816, Note_on_c, 0, 60, 110
2, 210906, Note_off_c, 0, 68, 100
2, 210912, Note_on_c, 0, 68, 110
2, 211002, Note_off_c, 0, 60, 100
2, 211008, Note_on_c, 0, 58, 110
2, 211102, Note_off_c, 0, 68, 100
2, 211104, Note_on_c, 0, 68, 110
2, 211194, Note_off_c, 0, 58, 100
2, 211200, Note_on_c, 0, 65, 110
2, 211290, Note_off_c, 0, 68, 100
2, 211296, Note_on_c, 0, 67, 110
2, 211382, Note_off_c, 0, 65, 100
2, 211392, Note_on_c, 0, 63, 110
2, 211486, Note_off_c, 0, 67, 100
2, 211488, Note_on_c, 0, 68, 110
2, 211580, Note_off_c, 0, 63, 100
2, 211584, Note_on_c, 0, 63, 110
2, 211668, Note_off_c, 0, 68, 100
2, 211680, Note_on_c, 0, 70, 110
2, 211770, Note_off_c, 0, 63, 100
2, 211776, Note_on_c, 0, 63, 110
2, 211866, Note_off_c, 0, 70, 100
2, 211872, Note_on_c, 0, 72, 110
2, 211958, Note_off_c, 0, 63, 100
2, 211968, Note_on_c, 0, 70, 110
2, 211968, Note_on_c, 0, 63, 110
2, 212060, Note_off_c, 0, 72, 100
2, 212064, Note_on_c, 0, 75, 110
2, 212158, Note_off_c, 0, 70, 100
2, 212160, Note_on_c, 0, 70, 110
2, 212252, Note_off_c, 0, 75, 100
2, 212256, Note_on_c, 0, 73, 110
2, 212350, Note_off_c, 0, 70, 100
2, 212352, Note_on_c, 0, 72, 110
2, 212442, Note_off_c, 0, 73, 100
2, 212448, Note_on_c, 0, 73, 110
2, 212540, Note_off_c, 0, 63, 100
2, 212540, Note_off_c, 0, 73, 100
2, 212542, Note_off_c, 0, 72, 100
2, 212544, Note_on_c, 0, 70, 110
2, 212636, Note_off_c, 0, 70, 100
2, 212640, Note_on_c, 0, 73, 110
2, 212732, Note_off_c, 0, 73, 100
2, 212736, Note_on_c, 0, 71, 110
2, 212828, Note_off_c, 0, 71, 100
2, 212832, Note_on_c, 0, 73, 110
2, 212924, Note_off_c, 0, 73, 100
2, 212928, Note_on_c, 0, 71, 110
2, 213020, Note_off_c, 0, 71, 100
2, 213024, Note_on_c, 0, 72, 110
2, 213116, Note_off_c, 0, 72, 100
2, 213120, Note_on_c, 0, 72, 110
2, 213212, Note_off_c, 0, 72, 100
2, 213216, Note_on_c, 0, 80, 110
2, 213308, Note_off_c, 0, 80, 100
2, 213312, Note_on_c, 0, 72, 110
2, 213404, Note_off_c, 0, 72, 100
2, 213408, Note_on_c, 0, 82, 110
2, 213500, Note_off_c, 0, 82, 100
2, 213504, Note_on_c, 0, 72, 110
2, 213596, Note_off_c, 0, 72, 100
2, 213600, Note_on_c, 0, 80, 110
2, 213692, Note_off_c, 0, 80, 100
2, 213696, Note_on_c, 0, 74, 110
2, 213788, Note_off_c, 0, 74, 100
2, 213792, Note_on_c, 0, 79, 110
2, 213884, Note_off_c, 0, 79, 100
2, 213888, Note_on_c, 0, 74, 110
2, 213980, Note_off_c, 0, 74, 100
2, 213984, Note_on_c, 0, 76, 110
2, 214076, Note_off_c, 0, 76, 100
2, 214080, Note_on_c, 0, 74, 110
2, 214172, Note_off_c, 0, 74, 100
2, 214176, Note_on_c, 0, 77, 110
2, 214268, Note_off_c, 0, 77, 100
2, 214272, Note_on_c, 0, 75, 110
2, 214364, Note_off_c, 0, 75, 100
2, 214368, Note_on_c, 0, 82, 110
2, 214460, Note_off_c, 0, 82, 100
2, 214464, Note_on_c, 0, 75, 110
2, 214556, Note_off_c, 0, 75, 100
2, 214560, Note_on_c, 0, 84, 110
2, 214652, Note_off_c, 0, 84, 100
2, 214656, Note_on_c, 0, 75, 110
2, 214748, Note_off_c, 0, 75, 100
2, 214752, Note_on_c, 0, 82, 110
2, 214844, Note_off_c, 0, 82, 100
2, 214848, Note_on_c, 0, 75, 110
2, 214940, Note_off_c, 0, 75, 100
2, 214944, Note_on_c, 0, 82, 110
2, 215036, Note_off_c, 0, 82, 100
2, 215040, Note_on_c, 0, 75, 110
2, 215132, Note_off_c, 0, 75, 100
2, 215136, Note_on_c, 0, 79, 110
2, 215228, Note_off_c, 0, 79, 100
2, 215232, Note_on_c, 0, 75, 110
2, 215324, Note_off_c, 0, 75, 100
2, 215328, Note_on_c, 0, 80, 110
2, 215420, Note_off_c, 0, 80, 100
2, 215424, Note_on_c, 0, 74, 110
2, 215516, Note_off_c, 0, 74, 100
2, 215520, Note_on_c, 0, 80, 110
2, 215612, Note_off_c, 0, 80, 100
2, 215616, Note_on_c, 0, 74, 110
2, 215708, Note_off_c, 0, 74, 100
2, 215712, Note_on_c, 0, 82, 110
2, 215804, Note_off_c, 0, 82, 100
2, 215808, Note_on_c, 0, 74, 110
2, 215900, Note_off_c, 0, 74, 100
2, 215904, Note_on_c, 0, 80, 110
2, 215996, Note_off_c, 0, 80, 100
2, 216000, Note_on_c, 0, 75, 110
2, 216092, Note_off_c, 0, 75, 100
2, 216096, Note_on_c, 0, 84, 110
2, 216188, Note_off_c, 0, 84, 100
2, 216192, Note_on_c, 0, 75, 110
2, 216284, Note_off_c, 0, 75, 100
2, 216288, Note_on_c, 0, 81, 110
2, 216380, Note_off_c, 0, 81, 100
2, 216384, Note_on_c, 0, 73, 110
2, 216476, Note_off_c, 0, 73, 100
2, 216480, Note_on_c, 0, 82, 110
2, 216572, Note_off_c, 0, 82, 100
2, 216576, Note_on_c, 0, 73, 110
2, 216668, Note_off_c, 0, 73, 100
2, 216672, Note_on_c, 0, 80, 110
2, 216744, Note_on_c, 0, 73, 110
2, 216764, Note_off_c, 0, 80, 100
2, 216836, Note_off_c, 0, 73, 100
2, 216864, Note_on_c, 0, 77, 110
2, 216956, Note_off_c, 0, 77, 100
2, 216960, Note_on_c, 0, 73, 110
2, 217052, Note_off_c, 0, 73, 100
2, 217056, Note_on_c, 0, 79, 110
2, 217148, Note_off_c, 0, 79, 100
2, 217152, Note_on_c, 0, 73, 110
2, 217244, Note_off_c, 0, 73, 100
2, 217248, Note_on_c, 0, 79, 110
2, 217340, Note_off_c, 0, 79, 100
2, 217344, Note_on_c, 0, 73, 110
2, 217436, Note_off_c, 0, 73, 100
2, 217440, Note_on_c, 0, 75, 110
2, 217532, Note_off_c, 0, 75, 100
2, 217536, Note_on_c, 0, 73, 110
2, 217628, Note_off_c, 0, 73, 100
2, 217632, Note_on_c, 0, 77, 110
2, 217724, Note_off_c, 0, 77, 100
2, 217728, Note_on_c, 0, 73, 110
2, 217820, Note_off_c, 0, 73, 100
2, 217824, Note_on_c, 0, 79, 110
2, 217916, Note_off_c, 0, 79, 100
2, 217920, Note_on_c, 0, 72, 110
2, 218012, Note_off_c, 0, 72, 100
2, 218016, Note_on_c, 0, 80, 110
2, 218108, Note_off_c, 0, 80, 100
2, 218112, Note_on_c, 0, 72, 110
2, 218204, Note_off_c, 0, 72, 100
2, 218208, Note_on_c, 0, 82, 110
2, 218300, Note_off_c, 0, 82, 100
2, 218304, Note_on_c, 0, 73, 110
2, 218396, Note_off_c, 0, 73, 100
2, 218400, Note_on_c, 0, 82, 110
2, 218492, Note_off_c, 0, 82, 100
2, 218496, Note_on_c, 0, 80, 110
2, 218588, Note_off_c, 0, 80, 100
2, 218592, Note_on_c, 0, 85, 110
2, 218684, Note_off_c, 0, 85, 100
2, 218688, Note_on_c, 0, 82, 110
2, 218780, Note_off_c, 0, 82, 100
2, 218784, Note_on_c, 0, 87, 110
2, 218876, Note_off_c, 0, 87, 100
2, 218880, Note_on_c, 0, 80, 110
2, 218880, Note_on_c, 0, 75, 110
2, 218880, Note_on_c, 0, 68, 110
2, 219452, Note_off_c, 0, 80, 100
2, 219452, Note_off_c, 0, 75, 100
2, 219452, Note_off_c, 0, 68, 100
2, 219456, Note_on_c, 0, 85, 110
2, 219456, Note_on_c, 0, 79, 110
2, 219456, Note_on_c, 0, 73, 110
2, 220028, Note_off_c, 0, 85, 100
2, 220028, Note_off_c, 0, 79, 100
2, 220028, Note_off_c, 0, 73, 100
2, 220032, Note_on_c, 0, 82, 110
2, 220032, Note_on_c, 0, 79, 110
2, 220032, Note_on_c, 0, 70, 110
2, 220604, Note_off_c, 0, 82, 100
2, 220604, Note_off_c, 0, 79, 100
2, 220604, Note_off_c, 0, 70, 100
2, 220608, Note_on_c, 0, 87, 110
2, 220608, Note_on_c, 0, 80, 110
2, 220608, Note_on_c, 0, 75, 110
2, 221180, Note_off_c, 0, 87, 100
2, 221180, Note_off_c, 0, 80, 100
2, 221180, Note_off_c, 0, 75, 100
2, 221184, Note_on_c, 0, 84, 110
2, 221184, Note_on_c, 0, 72, 110
2, 221184, Note_on_c, 0, 78, 110
2, 221564, Note_off_c, 0, 78, 100
2, 221568, Note_on_c, 0, 75, 110
2, 221756, Note_off_c, 0, 84, 100
2, 221756, Note_off_c, 0, 72, 100
2, 221756, Note_off_c, 0, 75, 100
2, 221760, Note_on_c, 0, 77, 110
2, 221760, Note_on_c, 0, 89, 110
2, 222140, Note_off_c, 0, 77, 100
2, 222144, Note_on_c, 0, 82, 110
2, 222144, Note_on_c, 0, 77, 110
2, 222332, Note_off_c, 0, 89, 100
2, 222332, Note_off_c, 0, 82, 100
2, 222332, Note_off_c, 0, 77, 100
2, 222336, Note_on_c, 0, 87, 110
2, 222336, Note_on_c, 0, 82, 110
2, 222336, Note_on_c, 0, 75, 110
2, 222716, Note_off_c, 0, 87, 100
2, 222716, Note_off_c, 0, 82, 100
2, 222716, Note_off_c, 0, 75, 100
2, 222720, Note_on_c, 0, 85, 110
2, 222720, Note_on_c, 0, 79, 110
2, 222720, Note_on_c, 0, 73, 110
2, 222908, Note_off_c, 0, 85, 100
2, 222908, Note_off_c, 0, 79, 100
2, 222908, Note_off_c, 0, 73, 100
2, 222912, Note_on_c, 0, 84, 110
2, 222912, Note_on_c, 0, 80, 110
2, 222912, Note_on_c, 0, 72, 110
2, 223484, Note_off_c, 0, 84, 100
2, 223484, Note_off_c, 0, 80, 100
2, 223484, Note_off_c, 0, 72, 100
2, 223488, Note_on_c, 0, 80, 110
2, 223488, Note_on_c, 0, 77, 110
2, 224636, Note_off_c, 0, 77, 100
2, 224636, Note_off_c, 0, 80, 100
2, 224640, Note_on_c, 0, 79, 110
2, 224640, Note_on_c, 0, 75, 110
2, 225020, Note_off_c, 0, 79, 100
2, 225020, Note_off_c, 0, 75, 100
2, 225024, Note_on_c, 0, 77, 110
2, 225024, Note_on_c, 0, 73, 110
2, 225212, Note_off_c, 0, 77, 100
2, 225212, Note_off_c, 0, 73, 100
2, 225216, Note_on_c, 0, 75, 110
2, 225216, Note_on_c, 0, 72, 110
2, 225788, Note_off_c, 0, 75, 100
2, 225788, Note_off_c, 0, 72, 100
2, 225792, Note_on_c, 0, 75, 110
2, 225792, Note_on_c, 0, 84, 110
2, 225792, Note_on_c, 0, 72, 110
2, 226364, Note_off_c, 0, 75, 100
2, 226368, Note_on_c, 0, 77, 110
2, 226940, Note_off_c, 0, 72, 100
2, 226940, Note_off_c, 0, 84, 100
2, 226944, Note_on_c, 0, 82, 110
2, 226944, Note_on_c, 0, 70, 110
2, 227324, Note_off_c, 0, 77, 100
2, 227324, Note_off_c, 0, 82, 100
2, 227324, Note_off_c, 0, 70, 100
2, 227328, Note_on_c, 0, 80, 110
2, 227328, Note_on_c, 0, 77, 110
2, 227328, Note_on_c, 0, 68, 110
2, 227516, Note_off_c, 0, 80, 100
2, 227516, Note_off_c, 0, 77, 100
2, 227516, Note_off_c, 0, 68, 100
2, 227520, Note_on_c, 0, 79, 110
2, 227520, Note_on_c, 0, 75, 110
2, 227520, Note_on_c, 0, 67, 110
2, 228092, Note_off_c, 0, 79, 100
2, 228092, Note_off_c, 0, 75, 100
2, 228092, Note_off_c, 0, 67, 100
2, 228096, Note_on_c, 0, 89, 110
2, 228096, Note_on_c, 0, 85, 110
2, 228096, Note_on_c, 0, 77, 110
2, 229244, Note_off_c, 0, 77, 100
2, 229244, Note_off_c, 0, 85, 100
2, 229244, Note_off_c, 0, 89, 100
2, 229248, Note_on_c, 0, 87, 110
2, 229248, Note_on_c, 0, 84, 110
2, 229248, Note_on_c, 0, 75, 110
2, 229628, Note_off_c, 0, 87, 100
2, 229628, Note_off_c, 0, 84, 100
2, 229628, Note_off_c, 0, 75, 100
2, 229632, Note_on_c, 0, 85, 110
2, 229632, Note_on_c, 0, 82, 110
2, 229632, Note_on_c, 0, 73, 110
2, 229820, Note_off_c, 0, 85, 100
2, 229820, Note_off_c, 0, 82, 100
2, 229820, Note_off_c, 0, 73, 100
2, 229824, Note_on_c, 0, 84, 110
2, 229824, Note_on_c, 0, 80, 110
2, 229824, Note_on_c, 0, 72, 110
2, 230396, Note_off_c, 0, 84, 100
2, 230396, Note_off_c, 0, 80, 100
2, 230396, Note_off_c, 0, 72, 100
2, 230400, Note_on_c, 0, 92, 110
2, 230400, Note_on_c, 0, 86, 110
2, 230400, Note_on_c, 0, 80, 110
2, 231548, Note_off_c, 0, 80, 100
2, 231548, Note_off_c, 0, 86, 100
2, 231548, Note_off_c, 0, 92, 100
2, 231552, Note_on_c, 0, 91, 110
2, 231552, Note_on_c, 0, 85, 110
2, 231552, Note_on_c, 0, 80, 110
2, 231932, Note_off_c, 0, 91, 100
2, 231932, Note_off_c, 0, 85, 100
2, 231932, Note_off_c, 0, 80, 100
2, 231936, Note_on_c, 0, 89, 110
2, 231936, Note_on_c, 0, 85, 110
2, 231936, Note_on_c, 0, 80, 110
2, 232124, Note_off_c, 0, 89, 100
2, 232124, Note_off_c, 0, 85, 100
2, 232124, Note_off_c, 0, 80, 100
2, 232128, Note_on_c, 0, 87, 110
2, 232128, Note_on_c, 0, 84, 110
2, 232128, Note_on_c, 0, 80, 110
2, 232700, Note_off_c, 0, 87, 100
2, 232700, Note_off_c, 0, 84, 100
2, 232700, Note_off_c, 0, 80, 100
2, 232704, Note_on_c, 0, 89, 110
2, 232704, Note_on_c, 0, 82, 110
2, 232704, Note_on_c, 0, 80, 110
2, 233084, Note_off_c, 0, 89, 100
2, 233084, Note_off_c, 0, 82, 100
2, 233084, Note_off_c, 0, 80, 100
2, 233088, Note_on_c, 0, 82, 110
2, 233088, Note_on_c, 0, 80, 110
2, 233088, Note_on_c, 0, 77, 110
2, 233276, Note_off_c, 0, 82, 100
2, 233276, Note_off_c, 0, 80, 100
2, 233276, Note_off_c, 0, 77, 100
2, 233280, Note_on_c, 0, 84, 110
2, 233280, Note_on_c, 0, 80, 110
2, 233280, Note_on_c, 0, 75, 110
2, 233852, Note_off_c, 0, 84, 100
2, 233852, Note_off_c, 0, 80, 100
2, 233852, Note_off_c, 0, 75, 100
2, 233856, Note_on_c, 0, 75, 110
2, 233856, Note_on_c, 0, 82, 110
2, 234044, Note_off_c, 0, 75, 100
2, 234048, Note_on_c, 0, 79, 110
2, 234236, Note_off_c, 0, 82, 100
2, 234236, Note_off_c, 0, 79, 100
2, 234240, Note_on_c, 0, 79, 110
2, 234240, Note_on_c, 0, 75, 110
2, 234240, Note_on_c, 0, 82, 110
2, 234240, Note_on_c, 0, 87, 110
2, 234428, Note_off_c, 0, 79, 100
2, 234428, Note_off_c, 0, 75, 100
2, 234428, Note_off_c, 0, 82, 100
2, 234428, Note_off_c, 0, 87, 100
2, 234432, Note_on_c, 0, 86, 110
2, 234432, Note_on_c, 0, 80, 110
2, 234432, Note_on_c, 0, 74, 110
2, 235004, Note_off_c, 0, 86, 100
2, 235004, Note_off_c, 0, 80, 100
2, 235004, Note_off_c, 0, 74, 100
2, 235008, Note_on_c, 0, 85, 110
2, 235008, Note_on_c, 0, 82, 110
2, 235008, Note_on_c, 0, 73, 110
2, 235580, Note_off_c, 0, 85, 100
2, 235580, Note_off_c, 0, 82, 100
2, 235580, Note_off_c, 0, 73, 100
2, 235584, Note_on_c, 0, 84, 110
2, 235584, Note_on_c, 0, 72, 110
2, 235584, Note_on_c, 0, 75, 110
2, 235964, Note_off_c, 0, 75, 100
2, 235968, Note_on_c, 0, 80, 110
2, 236156, Note_off_c, 0, 84, 100
2, 236156, Note_off_c, 0, 72, 100
2, 236156, Note_off_c, 0, 80, 100
2, 236160, Note_on_c, 0, 85, 110
2, 236160, Note_on_c, 0, 80, 110
2, 236160, Note_on_c, 0, 77, 110
2, 236540, Note_off_c, 0, 85, 100
2, 236540, Note_off_c, 0, 80, 100
2, 236540, Note_off_c, 0, 77, 100
2, 236544, Note_on_c, 0, 82, 110
2, 236544, Note_on_c, 0, 80, 110
2, 236544, Note_on_c, 0, 77, 110
2, 236732, Note_off_c, 0, 82, 100
2, 236732, Note_off_c, 0, 80, 100
2, 236732, Note_off_c, 0, 77, 100
2, 236736, Note_on_c, 0, 84, 110
2, 236736, Note_on_c, 0, 80, 110
2, 236736, Note_on_c, 0, 75, 110
2, 236924, Note_off_c, 0, 84, 100
2, 236924, Note_off_c, 0, 80, 100
2, 236924, Note_off_c, 0, 75, 100
2, 236928, Note_on_c, 0, 80, 110
2, 236928, Note_on_c, 0, 77, 110
2, 236928, Note_on_c, 0, 82, 110
2, 237116, Note_off_c, 0, 80, 100
2, 237116, Note_off_c, 0, 77, 100
2, 237120, Note_on_c, 0, 79, 110
2, 237120, Note_on_c, 0, 73, 110
2, 237308, Note_off_c, 0, 82, 100
2, 237308, Note_off_c, 0, 79, 100
2, 237308, Note_off_c, 0, 73, 100
2, 237312, Note_on_c, 0, 72, 110
2, 237312, Note_on_c, 0, 75, 110
2, 237312, Note_on_c, 0, 80, 110
2, 237884, Note_off_c, 0, 72, 100
2, 237884, Note_off_c, 0, 75, 100
2, 237884, Note_off_c, 0, 80, 100
2, 237888, Note_on_c, 0, 85, 120
2, 237888, Note_on_c, 0, 80, 120
2, 237888, Note_on_c, 0, 77, 120
2, 238460, Note_off_c, 0, 85, 100
2, 238460, Note_off_c, 0, 80, 100
2, 238460, Note_off_c, 0, 77, 100
2, 238464, Note_on_c, 0, 82, 110
2, 238464, Note_on_c, 0, 79, 110
2, 238464, Note_on_c, 0, 73, 110
2, 239036, Note_off_c, 0, 82, 100
2, 239036, Note_off_c, 0, 79, 100
2, 239036, Note_off_c, 0, 73, 100
2, 239040, Note_on_c, 0, 87, 120
2, 239040, Note_on_c, 0, 84, 120
2, 239040, Note_on_c, 0, 80, 120
2, 239040, Note_on_c, 0, 75, 120
2, 239612, Note_off_c, 0, 87, 100
2, 239612, Note_off_c, 0, 84, 100
2, 239612, Note_off_c, 0, 80, 100
2, 239612, Note_off_c, 0, 75, 100
2, 239616, Note_on_c, 0, 84, 110
2, 239616, Note_on_c, 0, 78, 110
2, 239616, Note_on_c, 0, 75, 110
2, 240188, Note_off_c, 0, 84, 100
2, 240188, Note_off_c, 0, 78, 100
2, 240188, Note_off_c, 0, 75, 100
2, 240192, Note_on_c, 0, 89, 120
2, 240192, Note_on_c, 0, 85, 120
2, 240192, Note_on_c, 0, 77, 120
2, 240764, Note_off_c, 0, 89, 100
2, 240764, Note_off_c, 0, 85, 100
2, 240764, Note_off_c, 0, 77, 100
2, 240768, Note_on_c, 0, 86, 110
2, 240768, Note_on_c, 0, 83, 110
2, 240768, Note_on_c, 0, 77, 110
2, 241340, Note_off_c, 0, 86, 100
2, 241340, Note_off_c, 0, 83, 100
2, 241340, Note_off_c, 0, 77, 100
2, 241344, Note_on_c, 0, 90, 120
2, 241344, Note_on_c, 0, 84, 120
2, 241344, Note_on_c, 0, 78, 120
2, 241916, Note_off_c, 0, 90, 100
2, 241920, Note_on_c, 0, 89, 110
2, 242300, Note_off_c, 0, 89, 100
2, 242304, Note_on_c, 0, 87, 110
2, 242492, Note_off_c, 0, 84, 100
2, 242492, Note_off_c, 0, 78, 100
2, 242492, Note_off_c, 0, 87, 100
2, 242496, Note_on_c, 0, 89, 120
2, 242496, Note_on_c, 0, 85, 120
2, 242496, Note_on_c, 0, 77, 120
2, 243068, Note_off_c, 0, 85, 100
2, 243068, Note_off_c, 0, 77, 100
2, 243072, Note_on_c, 0, 86, 110
2, 243072, Note_on_c, 0, 77, 110
2, 243644, Note_off_c, 0, 89, 100
2, 243644, Note_off_c, 0, 86, 100
2, 243644, Note_off_c, 0, 77, 100
2, 243648, Note_on_c, 0, 86, 120
2, 243648, Note_on_c, 0, 83, 120
2, 243648, Note_on_c, 0, 92, 120
2, 244220, Note_off_c, 0, 92, 100
2, 244224, Note_on_c, 0, 90, 110
2, 244604, Note_off_c, 0, 90, 100
2, 244608, Note_on_c, 0, 89, 110
2, 244796, Note_off_c, 0, 86, 100
2, 244796, Note_off_c, 0, 83, 100
2, 244796, Note_off_c, 0, 89, 100
2, 244800, Control_c, 0, 64, 127
2, 244800, Note_on_c, 0, 91, 120
2, 244800, Note_on_c, 0, 88, 120
2, 244800, Note_on_c, 0, 85, 120
2, 244800, Note_on_c, 0, 82, 120
2, 245948, Note_off_c, 0, 91, 100
2, 245948, Note_off_c, 0, 88, 100
2, 245948, Note_off_c, 0, 85, 100
2, 245948, Note_off_c, 0, 82, 100
2, 245952, Note_on_c, 0, 88, 120
2, 245952, Note_on_c, 0, 85, 120
2, 245952, Note_on_c, 0, 91, 120
2, 245952, Note_on_c, 0, 94, 120
2, 246524, Note_off_c, 0, 91, 100
2, 246524, Note_off_c, 0, 94, 100
2, 246528, Note_on_c, 0, 92, 120
2, 246908, Note_off_c, 0, 92, 100
2, 246912, Note_on_c, 0, 91, 120
2, 247100, Note_off_c, 0, 88, 100
2, 247100, Note_off_c, 0, 85, 100
2, 247100, Note_off_c, 0, 91, 100
2, 247100, Control_c, 0, 64, 0
2, 247104, Control_c, 0, 64, 127
2, 247104, Note_on_c, 0, 96, 120
2, 247104, Note_on_c, 0, 92, 120
2, 247104, Note_on_c, 0, 87, 120
2, 247104, Note_on_c, 0, 84, 120
2, 247200, Note_on_c, 0, 92, 120
2, 247296, Note_on_c, 0, 87, 120
2, 247388, Note_off_c, 0, 96, 100
2, 247388, Note_off_c, 0, 92, 100
2, 247388, Note_off_c, 0, 87, 100
2, 247388, Note_off_c, 0, 84, 100
2, 247392, Note_on_c, 0, 92, 120
2, 247484, Note_off_c, 0, 92, 100
2, 247488, Note_on_c, 0, 87, 120
2, 247580, Note_off_c, 0, 87, 100
2, 247584, Note_on_c, 0, 84, 120
2, 247676, Note_off_c, 0, 92, 100
2, 247680, Note_on_c, 0, 87, 120
2, 247772, Note_off_c, 0, 87, 100
2, 247776, Note_on_c, 0, 84, 120
2, 247868, Note_off_c, 0, 84, 100
2, 247872, Note_on_c, 0, 80, 120
2, 247964, Note_off_c, 0, 87, 100
2, 247968, Note_on_c, 0, 84, 120
2, 248060, Note_off_c, 0, 84, 100
2, 248064, Note_on_c, 0, 80, 120
2, 248156, Note_off_c, 0, 80, 100
2, 248160, Note_on_c, 0, 75, 120
2, 248252, Note_off_c, 0, 84, 100
2, 248256, Note_on_c, 0, 72, 120
2, 248348, Note_off_c, 0, 80, 100
2, 248352, Note_on_c, 0, 68, 120
2, 248444, Note_off_c, 0, 75, 100
2, 248448, Note_on_c, 0, 63, 120
2, 248540, Note_off_c, 0, 72, 100
2, 248544, Note_on_c, 0, 68, 120
2, 248636, Note_off_c, 0, 68, 100
2, 248640, Note_on_c, 0, 63, 120
2, 248732, Note_off_c, 0, 63, 100
2, 248736, Note_on_c, 0, 60, 120
2, 248828, Note_off_c, 0, 68, 100
2, 248924, Note_off_c, 0, 63, 100
2, 249020, Note_off_c, 0, 60, 100
2, 250272, Note_on_c, 0, 56, 120
2, 250368, Note_on_c, 0, 60, 120
2, 250464, Note_on_c, 0, 63, 120
2, 250556, Note_off_c, 0, 56, 100
2, 250652, Note_off_c, 0, 60, 100
2, 250748, Note_off_c, 0, 63, 100
2, 250848, Note_on_c, 0, 68, 120
2, 250944, Note_on_c, 0, 72, 120
2, 251040, Note_on_c, 0, 75, 120
2, 251132, Note_off_c, 0, 68, 100
2, 251136, Note_on_c, 0, 68, 120
2, 251228, Note_off_c, 0, 72, 100
2, 251232, Note_on_c, 0, 72, 120
2, 251324, Note_off_c, 0, 75, 100
2, 251328, Note_on_c, 0, 75, 120
2, 251420, Note_off_c, 0, 68, 100
2, 251424, Note_on_c, 0, 80, 120
2, 251516, Note_off_c, 0, 72, 100
2, 251520, Note_on_c, 0, 84, 120
2, 251612, Note_off_c, 0, 75, 100
2, 251616, Note_on_c, 0, 87, 120
2, 251656, Note_off_c, 0, 80, 100
2, 251702, Note_off_c, 0, 84, 100
2, 251708, Note_off_c, 0, 87, 100
2, 251712, Note_on_c, 0, 92, 120
2, 251712, Note_on_c, 0, 87, 120
2, 251712, Note_on_c, 0, 84, 120
2, 251712, Note_on_c, 0, 80, 120
2, 252668, Note_off_c, 0, 92, 100
2, 252668, Note_off_c, 0, 87, 100
2, 252668, Note_off_c, 0, 84, 100
2, 252668, Note_off_c, 0, 80, 100
2, 252668, Control_c, 0, 64, 0
2, 254976, Control_c, 0, 7, 0
2, 255936, Note_on_c, 0, 68, 1
2, 256316, Note_off_c, 0, 68, 100
2, 256316, End_track
3, 0, Start_track
3, 0, Title_t, "Left"
3, 0, Control_c, 1, 0, 0
3, 0, Program_c, 1, 0
3, 0, Control_c, 1, 7, 100
3, 0, Control_c, 1, 10, 53
3, 0, Control_c, 1, 91, 127
3, 0, Key_signature, -5, "minor"
3, 0, Note_on_c, 1, 34, 80
3, 0, Note_on_c, 1, 46, 80
3, 336, Note_on_c, 1, 34, 80
3, 336, Note_on_c, 1, 46, 80
3, 380, Note_off_c, 1, 34, 100
3, 380, Note_off_c, 1, 46, 100
3, 384, Note_on_c, 1, 34, 80
3, 384, Note_on_c, 1, 46, 80
3, 572, Note_off_c, 1, 34, 100
3, 572, Note_off_c, 1, 46, 100
3, 572, Note_off_c, 1, 34, 100
3, 572, Note_off_c, 1, 46, 100
3, 576, Note_on_c, 1, 34, 80
3, 576, Note_on_c, 1, 46, 80
3, 764, Note_off_c, 1, 34, 100
3, 764, Note_off_c, 1, 46, 100
3, 768, Note_on_c, 1, 34, 80
3, 768, Note_on_c, 1, 46, 80
3, 1532, Note_off_c, 1, 34, 100
3, 1532, Note_off_c, 1, 46, 100
3, 1536, Note_on_c, 1, 35, 80
3, 1536, Note_on_c, 1, 47, 80
3, 1916, Note_off_c, 1, 35, 100
3, 1916, Note_off_c, 1, 47, 100
3, 1920, Note_on_c, 1, 40, 80
3, 1920, Note_on_c, 1, 52, 80
3, 2300, Note_off_c, 1, 40, 100
3, 2300, Note_off_c, 1, 52, 100
3, 2304, Note_on_c, 1, 42, 80
3, 2304, Note_on_c, 1, 54, 80
3, 3068, Note_off_c, 1, 42, 100
3, 3068, Note_off_c, 1, 54, 100
3, 3072, Note_on_c, 1, 43, 80
3, 3072, Note_on_c, 1, 55, 80
3, 3260, Note_off_c, 1, 43, 100
3, 3260, Note_off_c, 1, 55, 100
3, 3264, Note_on_c, 1, 44, 80
3, 3264, Note_on_c, 1, 56, 80
3, 3452, Note_off_c, 1, 44, 100
3, 3452, Note_off_c, 1, 56, 100
3, 3456, Note_on_c, 1, 37, 80
3, 3456, Note_on_c, 1, 49, 80
3, 3836, Note_off_c, 1, 37, 100
3, 3836, Note_off_c, 1, 49, 100
3, 3840, Note_on_c, 1, 39, 80
3, 3840, Note_on_c, 1, 51, 80
3, 4220, Note_off_c, 1, 39, 100
3, 4220, Note_off_c, 1, 51, 100
3, 4224, Note_on_c, 1, 39, 80
3, 4604, Note_off_c, 1, 39, 100
3, 4608, Control_c, 1, 64, 127
3, 4608, Note_on_c, 1, 39, 80
3, 4656, Note_on_c, 1, 43, 80
3, 4704, Note_on_c, 1, 46, 80
3, 4736, Note_on_c, 1, 49, 80
3, 4768, Note_on_c, 1, 51, 80
3, 5084, Note_off_c, 1, 39, 100
3, 5084, Note_off_c, 1, 43, 100
3, 5084, Note_off_c, 1, 46, 100
3, 5084, Note_off_c, 1, 49, 100
3, 5084, Note_off_c, 1, 51, 100
3, 5752, Control_c, 1, 64, 0
3, 6528, Note_on_c, 1, 59, 80
3, 6528, Note_on_c, 1, 56, 80
3, 6716, Note_off_c, 1, 59, 100
3, 6716, Note_off_c, 1, 56, 100
3, 6912, Note_on_c, 1, 40, 80
3, 6912, Note_on_c, 1, 52, 80
3, 7100, Note_off_c, 1, 40, 100
3, 7100, Note_off_c, 1, 52, 100
3, 7104, Note_on_c, 1, 37, 80
3, 7104, Note_on_c, 1, 49, 80
3, 7292, Note_off_c, 1, 37, 100
3, 7292, Note_off_c, 1, 49, 100
3, 7296, Note_on_c, 1, 35, 80
3, 7296, Note_on_c, 1, 47, 80
3, 7676, Note_off_c, 1, 35, 100
3, 7676, Note_off_c, 1, 47, 100
3, 7680, Control_c, 1, 64, 127
3, 7680, Note_on_c, 1, 47, 80
3, 7680, Note_on_c, 1, 51, 80
3, 7680, Note_on_c, 1, 54, 80
3, 7680, Note_on_c, 1, 57, 80
3, 9212, Note_off_c, 1, 47, 100
3, 9212, Note_off_c, 1, 51, 100
3, 9212, Note_off_c, 1, 54, 100
3, 9212, Note_off_c, 1, 57, 100
3, 9216, Key_signature, 4, "minor"
3, 9600, Note_on_c, 1, 47, 80
3, 9600, Note_on_c, 1, 51, 80
3, 9600, Note_on_c, 1, 54, 80
3, 9600, Note_on_c, 1, 59, 80
3, 11704, Control_c, 1, 64, 0
3, 11904, Note_on_c, 1, 52, 80
3, 11904, Note_on_c, 1, 56, 80
3, 11904, Note_on_c, 1, 59, 80
3, 12284, Note_off_c, 1, 47, 64
3, 12284, Note_off_c, 1, 51, 64
3, 12284, Note_off_c, 1, 54, 64
3, 12284, Note_off_c, 1, 59, 64
3, 12284, Note_off_c, 1, 52, 100
3, 12284, Note_off_c, 1, 56, 100
3, 12284, Note_off_c, 1, 59, 100
3, 12288, Note_on_c, 1, 49, 80
3, 12288, Note_on_c, 1, 52, 80
3, 12288, Note_on_c, 1, 55, 80
3, 12288, Note_on_c, 1, 58, 80
3, 12668, Note_off_c, 1, 49, 100
3, 12668, Note_off_c, 1, 52, 100
3, 12668, Note_off_c, 1, 55, 100
3, 12668, Note_off_c, 1, 58, 100
3, 12672, Note_on_c, 1, 50, 80
3, 12672, Note_on_c, 1, 53, 80
3, 12672, Note_on_c, 1, 56, 80
3, 12672, Note_on_c, 1, 59, 80
3, 13052, Note_off_c, 1, 50, 100
3, 13052, Note_off_c, 1, 53, 100
3, 13052, Note_off_c, 1, 56, 100
3, 13052, Note_off_c, 1, 59, 100
3, 14400, Control_c, 1, 64, 127
3, 14400, Note_on_c, 1, 51, 80
3, 14492, Note_off_c, 1, 51, 100
3, 14496, Note_on_c, 1, 51, 80
3, 14588, Note_off_c, 1, 51, 100
3, 14592, Note_on_c, 1, 51, 80
3, 14684, Note_off_c, 1, 51, 100
3, 14688, Note_on_c, 1, 51, 80
3, 14780, Note_off_c, 1, 51, 100
3, 14784, Note_on_c, 1, 51, 80
3, 14876, Note_off_c, 1, 51, 100
3, 14880, Note_on_c, 1, 51, 80
3, 14972, Note_off_c, 1, 51, 100
3, 14976, Key_signature, -6, "minor"
3, 14976, Note_on_c, 1, 47, 80
3, 14976, Note_on_c, 1, 51, 80
3, 15068, Note_off_c, 1, 47, 100
3, 15068, Note_off_c, 1, 51, 100
3, 15072, Note_on_c, 1, 47, 83
3, 15072, Note_on_c, 1, 51, 83
3, 15164, Note_off_c, 1, 47, 100
3, 15164, Note_off_c, 1, 51, 100
3, 15168, Note_on_c, 1, 47, 87
3, 15168, Note_on_c, 1, 51, 87
3, 15260, Note_off_c, 1, 47, 100
3, 15260, Note_off_c, 1, 51, 100
3, 15264, Note_on_c, 1, 47, 91
3, 15264, Note_on_c, 1, 51, 91
3, 15356, Note_off_c, 1, 47, 100
3, 15356, Note_off_c, 1, 51, 100
3, 15360, Note_on_c, 1, 47, 95
3, 15360, Note_on_c, 1, 51, 95
3, 15452, Note_off_c, 1, 47, 100
3, 15452, Note_off_c, 1, 51, 100
3, 15456, Note_on_c, 1, 47, 99
3, 15456, Note_on_c, 1, 51, 99
3, 15548, Note_off_c, 1, 47, 100
3, 15548, Note_off_c, 1, 51, 100
3, 15552, Note_on_c, 1, 44, 100
3, 15552, Note_on_c, 1, 47, 100
3, 15552, Note_on_c, 1, 51, 100
3, 15644, Note_off_c, 1, 44, 100
3, 15644, Note_off_c, 1, 47, 100
3, 15644, Note_off_c, 1, 51, 100
3, 15648, Note_on_c, 1, 44, 97
3, 15648, Note_on_c, 1, 47, 97
3, 15648, Note_on_c, 1, 51, 97
3, 15740, Note_off_c, 1, 44, 100
3, 15740, Note_off_c, 1, 47, 100
3, 15740, Note_off_c, 1, 51, 100
3, 15744, Note_on_c, 1, 44, 93
3, 15744, Note_on_c, 1, 47, 93
3, 15744, Note_on_c, 1, 51, 93
3, 15836, Note_off_c, 1, 44, 100
3, 15836, Note_off_c, 1, 47, 100
3, 15836, Note_off_c, 1, 51, 100
3, 15840, Note_on_c, 1, 44, 89
3, 15840, Note_on_c, 1, 47, 89
3, 15840, Note_on_c, 1, 51, 89
3, 15932, Note_off_c, 1, 44, 100
3, 15932, Note_off_c, 1, 47, 100
3, 15932, Note_off_c, 1, 51, 100
3, 15936, Note_on_c, 1, 44, 85
3, 15936, Note_on_c, 1, 47, 85
3, 15936, Note_on_c, 1, 51, 85
3, 16028, Note_off_c, 1, 44, 100
3, 16028, Note_off_c, 1, 47, 100
3, 16028, Note_off_c, 1, 51, 100
3, 16032, Note_on_c, 1, 44, 81
3, 16032, Note_on_c, 1, 47, 81
3, 16032, Note_on_c, 1, 51, 81
3, 16124, Note_off_c, 1, 44, 100
3, 16124, Note_off_c, 1, 47, 100
3, 16124, Note_off_c, 1, 51, 100
3, 16128, Note_on_c, 1, 44, 70
3, 16128, Note_on_c, 1, 47, 70
3, 16128, Note_on_c, 1, 51, 70
3, 16220, Note_off_c, 1, 44, 100
3, 16220, Note_off_c, 1, 47, 100
3, 16220, Note_off_c, 1, 51, 100
3, 16224, Note_on_c, 1, 44, 70
3, 16224, Note_on_c, 1, 47, 70
3, 16224, Note_on_c, 1, 51, 70
3, 16316, Note_off_c, 1, 44, 100
3, 16316, Note_off_c, 1, 47, 100
3, 16316, Note_off_c, 1, 51, 100
3, 16320, Note_on_c, 1, 44, 70
3, 16320, Note_on_c, 1, 47, 70
3, 16320, Note_on_c, 1, 51, 70
3, 16412, Note_off_c, 1, 44, 100
3, 16412, Note_off_c, 1, 47, 100
3, 16412, Note_off_c, 1, 51, 100
3, 16416, Note_on_c, 1, 44, 70
3, 16416, Note_on_c, 1, 47, 70
3, 16416, Note_on_c, 1, 51, 70
3, 16508, Note_off_c, 1, 44, 100
3, 16508, Note_off_c, 1, 47, 100
3, 16508, Note_off_c, 1, 51, 100
3, 16512, Note_on_c, 1, 44, 70
3, 16512, Note_on_c, 1, 47, 70
3, 16512, Note_on_c, 1, 51, 70
3, 16604, Note_off_c, 1, 44, 100
3, 16604, Note_off_c, 1, 47, 100
3, 16604, Note_off_c, 1, 51, 100
3, 16608, Note_on_c, 1, 44, 70
3, 16608, Note_on_c, 1, 47, 70
3, 16608, Note_on_c, 1, 51, 70
3, 16700, Note_off_c, 1, 44, 100
3, 16700, Note_off_c, 1, 47, 100
3, 16700, Note_off_c, 1, 51, 100
3, 16704, Note_on_c, 1, 44, 70
3, 16704, Note_on_c, 1, 47, 70
3, 16704, Note_on_c, 1, 51, 70
3, 16796, Note_off_c, 1, 44, 100
3, 16796, Note_off_c, 1, 47, 100
3, 16796, Note_off_c, 1, 51, 100
3, 16800, Note_on_c, 1, 44, 70
3, 16800, Note_on_c, 1, 47, 70
3, 16800, Note_on_c, 1, 51, 70
3, 16892, Note_off_c, 1, 44, 100
3, 16892, Note_off_c, 1, 47, 100
3, 16892, Note_off_c, 1, 51, 100
3, 16896, Note_on_c, 1, 44, 70
3, 16896, Note_on_c, 1, 47, 70
3, 16896, Note_on_c, 1, 51, 70
3, 16988, Note_off_c, 1, 44, 100
3, 16988, Note_off_c, 1, 47, 100
3, 16988, Note_off_c, 1, 51, 100
3, 16992, Note_on_c, 1, 44, 70
3, 16992, Note_on_c, 1, 47, 70
3, 16992, Note_on_c, 1, 51, 70
3, 17084, Note_off_c, 1, 44, 100
3, 17084, Note_off_c, 1, 47, 100
3, 17084, Note_off_c, 1, 51, 100
3, 17088, Note_on_c, 1, 44, 70
3, 17088, Note_on_c, 1, 47, 70
3, 17088, Note_on_c, 1, 51, 70
3, 17180, Note_off_c, 1, 44, 100
3, 17180, Note_off_c, 1, 47, 100
3, 17180, Note_off_c, 1, 51, 100
3, 17184, Note_on_c, 1, 44, 70
3, 17184, Note_on_c, 1, 47, 70
3, 17184, Note_on_c, 1, 51, 70
3, 17276, Note_off_c, 1, 44, 100
3, 17276, Note_off_c, 1, 47, 100
3, 17276, Note_off_c, 1, 51, 100
3, 17278, Control_c, 1, 64, 0
3, 17280, Note_on_c, 1, 46, 70
3, 17280, Note_on_c, 1, 49, 70
3, 17280, Note_on_c, 1, 51, 70
3, 17372, Note_off_c, 1, 46, 100
3, 17372, Note_off_c, 1, 49, 100
3, 17372, Note_off_c, 1, 51, 100
3, 17376, Note_on_c, 1, 46, 70
3, 17376, Note_on_c, 1, 49, 70
3, 17376, Note_on_c, 1, 51, 70
3, 17468, Note_off_c, 1, 46, 100
3, 17468, Note_off_c, 1, 49, 100
3, 17468, Note_off_c, 1, 51, 100
3, 17472, Note_on_c, 1, 46, 70
3, 17472, Note_on_c, 1, 49, 70
3, 17472, Note_on_c, 1, 51, 70
3, 17564, Note_off_c, 1, 46, 100
3, 17564, Note_off_c, 1, 49, 100
3, 17564, Note_off_c, 1, 51, 100
3, 17568, Note_on_c, 1, 46, 70
3, 17568, Note_on_c, 1, 49, 70
3, 17568, Note_on_c, 1, 51, 70
3, 17660, Note_off_c, 1, 46, 100
3, 17660, Note_off_c, 1, 49, 100
3, 17660, Note_off_c, 1, 51, 100
3, 17664, Note_on_c, 1, 46, 70
3, 17664, Note_on_c, 1, 49, 70
3, 17664, Note_on_c, 1, 51, 70
3, 17756, Note_off_c, 1, 46, 100
3, 17756, Note_off_c, 1, 49, 100
3, 17756, Note_off_c, 1, 51, 100
3, 17760, Note_on_c, 1, 46, 70
3, 17760, Note_on_c, 1, 49, 70
3, 17760, Note_on_c, 1, 51, 70
3, 17852, Note_off_c, 1, 46, 100
3, 17852, Note_off_c, 1, 49, 100
3, 17852, Note_off_c, 1, 51, 100
3, 17856, Note_on_c, 1, 46, 70
3, 17856, Note_on_c, 1, 49, 70
3, 17856, Note_on_c, 1, 51, 70
3, 17948, Note_off_c, 1, 46, 100
3, 17948, Note_off_c, 1, 49, 100
3, 17948, Note_off_c, 1, 51, 100
3, 17952, Note_on_c, 1, 46, 70
3, 17952, Note_on_c, 1, 49, 70
3, 17952, Note_on_c, 1, 51, 70
3, 18044, Note_off_c, 1, 46, 100
3, 18044, Note_off_c, 1, 49, 100
3, 18044, Note_off_c, 1, 51, 100
3, 18048, Note_on_c, 1, 46, 70
3, 18048, Note_on_c, 1, 49, 70
3, 18048, Note_on_c, 1, 51, 70
3, 18140, Note_off_c, 1, 46, 100
3, 18140, Note_off_c, 1, 49, 100
3, 18140, Note_off_c, 1, 51, 100
3, 18144, Note_on_c, 1, 46, 70
3, 18144, Note_on_c, 1, 49, 70
3, 18144, Note_on_c, 1, 51, 70
3, 18236, Note_off_c, 1, 46, 100
3, 18236, Note_off_c, 1, 49, 100
3, 18236, Note_off_c, 1, 51, 100
3, 18240, Note_on_c, 1, 46, 70
3, 18240, Note_on_c, 1, 49, 70
3, 18240, Note_on_c, 1, 51, 70
3, 18332, Note_off_c, 1, 46, 100
3, 18332, Note_off_c, 1, 49, 100
3, 18332, Note_off_c, 1, 51, 100
3, 18336, Note_on_c, 1, 51, 70
3, 18336, Note_on_c, 1, 46, 70
3, 18336, Note_on_c, 1, 49, 70
3, 18336, Note_on_c, 1, 55, 70
3, 18428, Note_off_c, 1, 51, 64
3, 18428, Note_off_c, 1, 46, 64
3, 18428, Note_off_c, 1, 49, 64
3, 18428, Note_off_c, 1, 55, 100
3, 18432, Note_on_c, 1, 47, 70
3, 18432, Note_on_c, 1, 51, 70
3, 18432, Note_on_c, 1, 56, 70
3, 18524, Note_off_c, 1, 47, 100
3, 18524, Note_off_c, 1, 51, 100
3, 18524, Note_off_c, 1, 56, 100
3, 18528, Note_on_c, 1, 47, 70
3, 18528, Note_on_c, 1, 51, 70
3, 18528, Note_on_c, 1, 56, 70
3, 18620, Note_off_c, 1, 47, 100
3, 18620, Note_off_c, 1, 51, 100
3, 18620, Note_off_c, 1, 56, 100
3, 18624, Note_on_c, 1, 47, 70
3, 18624, Note_on_c, 1, 51, 70
3, 18624, Note_on_c, 1, 56, 70
3, 18716, Note_off_c, 1, 47, 100
3, 18716, Note_off_c, 1, 51, 100
3, 18716, Note_off_c, 1, 56, 100
3, 18720, Note_on_c, 1, 48, 70
3, 18720, Note_on_c, 1, 51, 70
3, 18720, Note_on_c, 1, 56, 70
3, 18812, Note_off_c, 1, 48, 100
3, 18812, Note_off_c, 1, 51, 100
3, 18812, Note_off_c, 1, 56, 100
3, 18816, Note_on_c, 1, 48, 70
3, 18816, Note_on_c, 1, 51, 70
3, 18816, Note_on_c, 1, 56, 70
3, 18908, Note_off_c, 1, 48, 100
3, 18908, Note_off_c, 1, 51, 100
3, 18908, Note_off_c, 1, 56, 100
3, 18912, Note_on_c, 1, 48, 70
3, 18912, Note_on_c, 1, 51, 70
3, 18912, Note_on_c, 1, 56, 70
3, 19004, Note_off_c, 1, 48, 100
3, 19004, Note_off_c, 1, 51, 100
3, 19004, Note_off_c, 1, 56, 100
3, 19008, Note_on_c, 1, 49, 70
3, 19008, Note_on_c, 1, 52, 70
3, 19008, Note_on_c, 1, 56, 70
3, 19100, Note_off_c, 1, 49, 100
3, 19100, Note_off_c, 1, 52, 100
3, 19100, Note_off_c, 1, 56, 100
3, 19104, Note_on_c, 1, 49, 70
3, 19104, Note_on_c, 1, 52, 70
3, 19104, Note_on_c, 1, 56, 70
3, 19196, Note_off_c, 1, 49, 100
3, 19196, Note_off_c, 1, 52, 100
3, 19196, Note_off_c, 1, 56, 100
3, 19200, Note_on_c, 1, 49, 70
3, 19200, Note_on_c, 1, 52, 70
3, 19200, Note_on_c, 1, 56, 70
3, 19292, Note_off_c, 1, 49, 100
3, 19292, Note_off_c, 1, 52, 100
3, 19292, Note_off_c, 1, 56, 100
3, 19296, Note_on_c, 1, 52, 70
3, 19296, Note_on_c, 1, 56, 70
3, 19296, Note_on_c, 1, 61, 70
3, 19388, Note_off_c, 1, 52, 100
3, 19388, Note_off_c, 1, 56, 100
3, 19388, Note_off_c, 1, 61, 100
3, 19392, Note_on_c, 1, 52, 70
3, 19392, Note_on_c, 1, 56, 70
3, 19392, Note_on_c, 1, 61, 70
3, 19484, Note_off_c, 1, 52, 100
3, 19484, Note_off_c, 1, 56, 100
3, 19484, Note_off_c, 1, 61, 100
3, 19488, Note_on_c, 1, 52, 70
3, 19488, Note_on_c, 1, 56, 70
3, 19488, Note_on_c, 1, 61, 70
3, 19580, Note_off_c, 1, 52, 100
3, 19580, Note_off_c, 1, 56, 100
3, 19580, Note_off_c, 1, 61, 100
3, 19584, Note_on_c, 1, 51, 70
3, 19584, Note_on_c, 1, 56, 70
3, 19584, Note_on_c, 1, 59, 70
3, 19676, Note_off_c, 1, 51, 100
3, 19676, Note_off_c, 1, 56, 100
3, 19676, Note_off_c, 1, 59, 100
3, 19680, Note_on_c, 1, 51, 70
3, 19680, Note_on_c, 1, 56, 70
3, 19680, Note_on_c, 1, 59, 70
3, 19772, Note_off_c, 1, 51, 100
3, 19772, Note_off_c, 1, 56, 100
3, 19772, Note_off_c, 1, 59, 100
3, 19776, Note_on_c, 1, 51, 70
3, 19776, Note_on_c, 1, 56, 70
3, 19776, Note_on_c, 1, 59, 70
3, 19868, Note_off_c, 1, 51, 100
3, 19868, Note_off_c, 1, 56, 100
3, 19868, Note_off_c, 1, 59, 100
3, 19872, Note_on_c, 1, 51, 70
3, 19872, Note_on_c, 1, 56, 70
3, 19872, Note_on_c, 1, 59, 70
3, 19964, Note_off_c, 1, 51, 100
3, 19964, Note_off_c, 1, 56, 100
3, 19964, Note_off_c, 1, 59, 100
3, 19968, Note_on_c, 1, 51, 70
3, 19968, Note_on_c, 1, 56, 70
3, 19968, Note_on_c, 1, 59, 70
3, 20060, Note_off_c, 1, 51, 100
3, 20060, Note_off_c, 1, 56, 100
3, 20060, Note_off_c, 1, 59, 100
3, 20064, Note_on_c, 1, 51, 70
3, 20064, Note_on_c, 1, 56, 70
3, 20064, Note_on_c, 1, 59, 70
3, 20156, Note_off_c, 1, 51, 100
3, 20156, Note_off_c, 1, 56, 100
3, 20156, Note_off_c, 1, 59, 100
3, 20160, Note_on_c, 1, 51, 70
3, 20160, Note_on_c, 1, 55, 70
3, 20160, Note_on_c, 1, 58, 70
3, 20252, Note_off_c, 1, 51, 100
3, 20252, Note_off_c, 1, 55, 100
3, 20252, Note_off_c, 1, 58, 100
3, 20256, Note_on_c, 1, 51, 70
3, 20256, Note_on_c, 1, 55, 70
3, 20256, Note_on_c, 1, 58, 70
3, 20348, Note_off_c, 1, 51, 100
3, 20348, Note_off_c, 1, 55, 100
3, 20348, Note_off_c, 1, 58, 100
3, 20352, Note_on_c, 1, 51, 70
3, 20352, Note_on_c, 1, 55, 70
3, 20352, Note_on_c, 1, 58, 70
3, 20444, Note_off_c, 1, 51, 100
3, 20444, Note_off_c, 1, 55, 100
3, 20444, Note_off_c, 1, 58, 100
3, 20448, Note_on_c, 1, 49, 70
3, 20448, Note_on_c, 1, 51, 70
3, 20448, Note_on_c, 1, 55, 70
3, 20448, Note_on_c, 1, 58, 70
3, 20540, Note_off_c, 1, 49, 100
3, 20540, Note_off_c, 1, 51, 100
3, 20540, Note_off_c, 1, 55, 100
3, 20540, Note_off_c, 1, 58, 100
3, 20544, Note_on_c, 1, 47, 70
3, 20544, Note_on_c, 1, 51, 70
3, 20544, Note_on_c, 1, 56, 70
3, 20636, Note_off_c, 1, 47, 100
3, 20636, Note_off_c, 1, 51, 100
3, 20636, Note_off_c, 1, 56, 100
3, 20640, Note_on_c, 1, 46, 70
3, 20640, Note_on_c, 1, 51, 70
3, 20640, Note_on_c, 1, 55, 70
3, 20732, Note_off_c, 1, 46, 100
3, 20732, Note_off_c, 1, 51, 100
3, 20732, Note_off_c, 1, 55, 100
3, 20736, Note_on_c, 1, 44, 70
3, 20736, Note_on_c, 1, 51, 70
3, 20736, Note_on_c, 1, 56, 70
3, 20828, Note_off_c, 1, 44, 100
3, 20828, Note_off_c, 1, 51, 100
3, 20828, Note_off_c, 1, 56, 100
3, 20832, Note_on_c, 1, 44, 71
3, 20832, Note_on_c, 1, 47, 71
3, 20832, Note_on_c, 1, 51, 71
3, 20924, Note_off_c, 1, 44, 100
3, 20924, Note_off_c, 1, 47, 100
3, 20924, Note_off_c, 1, 51, 100
3, 20928, Note_on_c, 1, 44, 72
3, 20928, Note_on_c, 1, 47, 72
3, 20928, Note_on_c, 1, 51, 72
3, 21020, Note_off_c, 1, 44, 100
3, 21020, Note_off_c, 1, 47, 100
3, 21020, Note_off_c, 1, 51, 100
3, 21024, Note_on_c, 1, 44, 73
3, 21024, Note_on_c, 1, 47, 73
3, 21024, Note_on_c, 1, 51, 73
3, 21116, Note_off_c, 1, 44, 100
3, 21116, Note_off_c, 1, 47, 100
3, 21116, Note_off_c, 1, 51, 100
3, 21120, Note_on_c, 1, 44, 74
3, 21120, Note_on_c, 1, 47, 74
3, 21120, Note_on_c, 1, 51, 74
3, 21212, Note_off_c, 1, 44, 100
3, 21212, Note_off_c, 1, 47, 100
3, 21212, Note_off_c, 1, 51, 100
3, 21216, Note_on_c, 1, 44, 75
3, 21216, Note_on_c, 1, 47, 75
3, 21216, Note_on_c, 1, 51, 75
3, 21308, Note_off_c, 1, 44, 100
3, 21308, Note_off_c, 1, 47, 100
3, 21308, Note_off_c, 1, 51, 100
3, 21312, Note_on_c, 1, 42, 76
3, 21312, Note_on_c, 1, 47, 76
3, 21312, Note_on_c, 1, 52, 76
3, 21404, Note_off_c, 1, 42, 100
3, 21404, Note_off_c, 1, 47, 100
3, 21404, Note_off_c, 1, 52, 100
3, 21408, Note_on_c, 1, 42, 77
3, 21408, Note_on_c, 1, 47, 77
3, 21408, Note_on_c, 1, 52, 77
3, 21500, Note_off_c, 1, 42, 100
3, 21500, Note_off_c, 1, 47, 100
3, 21500, Note_off_c, 1, 52, 100
3, 21504, Note_on_c, 1, 42, 78
3, 21504, Note_on_c, 1, 47, 78
3, 21504, Note_on_c, 1, 52, 78
3, 21596, Note_off_c, 1, 42, 100
3, 21596, Note_off_c, 1, 47, 100
3, 21596, Note_off_c, 1, 52, 100
3, 21600, Note_on_c, 1, 42, 79
3, 21600, Note_on_c, 1, 47, 79
3, 21600, Note_on_c, 1, 52, 79
3, 21692, Note_off_c, 1, 42, 100
3, 21692, Note_off_c, 1, 47, 100
3, 21692, Note_off_c, 1, 52, 100
3, 21696, Note_on_c, 1, 42, 80
3, 21696, Note_on_c, 1, 47, 80
3, 21696, Note_on_c, 1, 52, 80
3, 21788, Note_off_c, 1, 42, 100
3, 21788, Note_off_c, 1, 47, 100
3, 21788, Note_off_c, 1, 52, 100
3, 21792, Note_on_c, 1, 42, 81
3, 21792, Note_on_c, 1, 47, 81
3, 21792, Note_on_c, 1, 52, 81
3, 21884, Note_off_c, 1, 42, 100
3, 21884, Note_off_c, 1, 47, 100
3, 21884, Note_off_c, 1, 52, 100
3, 21888, Note_on_c, 1, 42, 82
3, 21888, Note_on_c, 1, 47, 82
3, 21888, Note_on_c, 1, 51, 82
3, 21980, Note_off_c, 1, 42, 100
3, 21980, Note_off_c, 1, 47, 100
3, 21980, Note_off_c, 1, 51, 100
3, 21984, Note_on_c, 1, 42, 83
3, 21984, Note_on_c, 1, 47, 83
3, 21984, Note_on_c, 1, 51, 83
3, 22076, Note_off_c, 1, 42, 100
3, 22076, Note_off_c, 1, 47, 100
3, 22076, Note_off_c, 1, 51, 100
3, 22080, Note_on_c, 1, 42, 84
3, 22080, Note_on_c, 1, 47, 84
3, 22080, Note_on_c, 1, 51, 84
3, 22172, Note_off_c, 1, 42, 100
3, 22172, Note_off_c, 1, 47, 100
3, 22172, Note_off_c, 1, 51, 100
3, 22176, Note_on_c, 1, 47, 86
3, 22176, Note_on_c, 1, 54, 86
3, 22176, Note_on_c, 1, 59, 86
3, 22268, Note_off_c, 1, 47, 100
3, 22268, Note_off_c, 1, 54, 100
3, 22268, Note_off_c, 1, 59, 100
3, 22272, Note_on_c, 1, 47, 87
3, 22272, Note_on_c, 1, 54, 87
3, 22272, Note_on_c, 1, 59, 87
3, 22364, Note_off_c, 1, 47, 100
3, 22364, Note_off_c, 1, 54, 100
3, 22364, Note_off_c, 1, 59, 100
3, 22368, Note_on_c, 1, 47, 88
3, 22368, Note_on_c, 1, 54, 88
3, 22368, Note_on_c, 1, 59, 88
3, 22460, Note_off_c, 1, 47, 100
3, 22460, Note_off_c, 1, 54, 100
3, 22460, Note_off_c, 1, 59, 100
3, 22464, Note_on_c, 1, 49, 89
3, 22464, Note_on_c, 1, 52, 89
3, 22464, Note_on_c, 1, 59, 89
3, 22556, Note_off_c, 1, 49, 100
3, 22556, Note_off_c, 1, 52, 100
3, 22556, Note_off_c, 1, 59, 100
3, 22560, Note_on_c, 1, 49, 90
3, 22560, Note_on_c, 1, 52, 90
3, 22560, Note_on_c, 1, 59, 90
3, 22652, Note_off_c, 1, 49, 100
3, 22652, Note_off_c, 1, 52, 100
3, 22652, Note_off_c, 1, 59, 100
3, 22656, Note_on_c, 1, 49, 91
3, 22656, Note_on_c, 1, 52, 91
3, 22656, Note_on_c, 1, 59, 91
3, 22748, Note_off_c, 1, 49, 100
3, 22748, Note_off_c, 1, 52, 100
3, 22748, Note_off_c, 1, 59, 100
3, 22752, Note_on_c, 1, 49, 92
3, 22752, Note_on_c, 1, 52, 92
3, 22752, Note_on_c, 1, 58, 92
3, 22844, Note_off_c, 1, 49, 100
3, 22844, Note_off_c, 1, 52, 100
3, 22844, Note_off_c, 1, 58, 100
3, 22848, Note_on_c, 1, 49, 93
3, 22848, Note_on_c, 1, 52, 93
3, 22848, Note_on_c, 1, 58, 93
3, 22940, Note_off_c, 1, 49, 100
3, 22940, Note_off_c, 1, 52, 100
3, 22940, Note_off_c, 1, 58, 100
3, 22944, Note_on_c, 1, 49, 94
3, 22944, Note_on_c, 1, 52, 94
3, 22944, Note_on_c, 1, 58, 94
3, 23036, Note_off_c, 1, 49, 100
3, 23036, Note_off_c, 1, 52, 100
3, 23036, Note_off_c, 1, 58, 100
3, 23040, Note_on_c, 1, 51, 95
3, 23040, Note_on_c, 1, 54, 95
3, 23040, Note_on_c, 1, 59, 95
3, 23132, Note_off_c, 1, 51, 100
3, 23132, Note_off_c, 1, 54, 100
3, 23132, Note_off_c, 1, 59, 100
3, 23136, Note_on_c, 1, 51, 96
3, 23136, Note_on_c, 1, 54, 96
3, 23136, Note_on_c, 1, 59, 96
3, 23228, Note_off_c, 1, 51, 100
3, 23228, Note_off_c, 1, 54, 100
3, 23228, Note_off_c, 1, 59, 100
3, 23232, Note_on_c, 1, 51, 97
3, 23232, Note_on_c, 1, 54, 97
3, 23232, Note_on_c, 1, 59, 97
3, 23324, Note_off_c, 1, 51, 100
3, 23324, Note_off_c, 1, 54, 100
3, 23324, Note_off_c, 1, 59, 100
3, 23328, Note_on_c, 1, 52, 98
3, 23328, Note_on_c, 1, 59, 98
3, 23328, Note_on_c, 1, 64, 98
3, 23420, Note_off_c, 1, 52, 100
3, 23420, Note_off_c, 1, 59, 100
3, 23420, Note_off_c, 1, 64, 100
3, 23424, Note_on_c, 1, 52, 99
3, 23424, Note_on_c, 1, 59, 99
3, 23424, Note_on_c, 1, 64, 99
3, 23516, Note_off_c, 1, 52, 100
3, 23516, Note_off_c, 1, 59, 100
3, 23516, Note_off_c, 1, 64, 100
3, 23520, Note_on_c, 1, 52, 100
3, 23520, Note_on_c, 1, 59, 100
3, 23520, Note_on_c, 1, 64, 100
3, 23612, Note_off_c, 1, 52, 100
3, 23612, Note_off_c, 1, 59, 100
3, 23612, Note_off_c, 1, 64, 100
3, 23616, Note_on_c, 1, 54, 100
3, 23616, Note_on_c, 1, 59, 100
3, 23616, Note_on_c, 1, 63, 100
3, 23708, Note_off_c, 1, 54, 100
3, 23708, Note_off_c, 1, 59, 100
3, 23708, Note_off_c, 1, 63, 100
3, 23712, Note_on_c, 1, 54, 100
3, 23712, Note_on_c, 1, 59, 100
3, 23712, Note_on_c, 1, 63, 100
3, 23804, Note_off_c, 1, 54, 100
3, 23804, Note_off_c, 1, 59, 100
3, 23804, Note_off_c, 1, 63, 100
3, 23808, Note_on_c, 1, 54, 100
3, 23808, Note_on_c, 1, 59, 100
3, 23808, Note_on_c, 1, 63, 100
3, 23900, Note_off_c, 1, 54, 100
3, 23900, Note_off_c, 1, 59, 100
3, 23900, Note_off_c, 1, 63, 100
3, 23904, Note_on_c, 1, 54, 100
3, 23904, Note_on_c, 1, 58, 100
3, 23904, Note_on_c, 1, 61, 100
3, 23904, Note_on_c, 1, 64, 100
3, 23996, Note_off_c, 1, 54, 100
3, 23996, Note_off_c, 1, 58, 100
3, 23996, Note_off_c, 1, 61, 100
3, 23996, Note_off_c, 1, 64, 100
3, 24000, Note_on_c, 1, 54, 100
3, 24000, Note_on_c, 1, 58, 100
3, 24000, Note_on_c, 1, 61, 100
3, 24000, Note_on_c, 1, 64, 100
3, 24092, Note_off_c, 1, 54, 100
3, 24092, Note_off_c, 1, 58, 100
3, 24092, Note_off_c, 1, 61, 100
3, 24092, Note_off_c, 1, 64, 100
3, 24096, Note_on_c, 1, 54, 87
3, 24096, Note_on_c, 1, 58, 87
3, 24096, Note_on_c, 1, 61, 87
3, 24096, Note_on_c, 1, 64, 87
3, 24188, Note_off_c, 1, 54, 100
3, 24188, Note_off_c, 1, 58, 100
3, 24188, Note_off_c, 1, 61, 100
3, 24188, Note_off_c, 1, 64, 100
3, 24192, Note_on_c, 1, 55, 70
3, 24192, Note_on_c, 1, 58, 70
3, 24192, Note_on_c, 1, 61, 70
3, 24192, Note_on_c, 1, 64, 70
3, 24284, Note_off_c, 1, 55, 100
3, 24284, Note_off_c, 1, 58, 100
3, 24284, Note_off_c, 1, 61, 100
3, 24284, Note_off_c, 1, 64, 100
3, 24288, Note_on_c, 1, 55, 70
3, 24288, Note_on_c, 1, 58, 70
3, 24288, Note_on_c, 1, 61, 70
3, 24288, Note_on_c, 1, 64, 70
3, 24380, Note_off_c, 1, 55, 100
3, 24380, Note_off_c, 1, 58, 100
3, 24380, Note_off_c, 1, 61, 100
3, 24380, Note_off_c, 1, 64, 100
3, 24384, Note_on_c, 1, 55, 70
3, 24384, Note_on_c, 1, 58, 70
3, 24384, Note_on_c, 1, 61, 70
3, 24384, Note_on_c, 1, 64, 70
3, 24476, Note_off_c, 1, 55, 100
3, 24476, Note_off_c, 1, 58, 100
3, 24476, Note_off_c, 1, 61, 100
3, 24476, Note_off_c, 1, 64, 100
3, 24480, Note_on_c, 1, 54, 70
3, 24480, Note_on_c, 1, 58, 70
3, 24480, Note_on_c, 1, 61, 70
3, 24480, Note_on_c, 1, 64, 70
3, 24572, Note_off_c, 1, 54, 100
3, 24572, Note_off_c, 1, 58, 100
3, 24572, Note_off_c, 1, 61, 100
3, 24572, Note_off_c, 1, 64, 100
3, 24576, Note_on_c, 1, 54, 70
3, 24576, Note_on_c, 1, 58, 70
3, 24576, Note_on_c, 1, 61, 70
3, 24576, Note_on_c, 1, 64, 70
3, 24668, Note_off_c, 1, 54, 100
3, 24668, Note_off_c, 1, 58, 100
3, 24668, Note_off_c, 1, 61, 100
3, 24668, Note_off_c, 1, 64, 100
3, 24672, Note_on_c, 1, 66, 70
3, 24672, Note_on_c, 1, 54, 70
3, 24672, Note_on_c, 1, 58, 70
3, 24672, Note_on_c, 1, 61, 70
3, 24764, Note_off_c, 1, 66, 100
3, 24764, Note_off_c, 1, 54, 100
3, 24764, Note_off_c, 1, 58, 100
3, 24764, Note_off_c, 1, 61, 100
3, 24768, Note_on_c, 1, 59, 70
3, 24768, Note_on_c, 1, 63, 70
3, 24768, Note_on_c, 1, 66, 70
3, 24860, Note_off_c, 1, 59, 100
3, 24860, Note_off_c, 1, 63, 100
3, 24860, Note_off_c, 1, 66, 100
3, 24864, Note_on_c, 1, 59, 70
3, 24864, Note_on_c, 1, 63, 70
3, 24864, Note_on_c, 1, 66, 70
3, 24956, Note_off_c, 1, 59, 100
3, 24956, Note_off_c, 1, 63, 100
3, 24956, Note_off_c, 1, 66, 100
3, 24960, Note_on_c, 1, 59, 70
3, 24960, Note_on_c, 1, 63, 70
3, 24960, Note_on_c, 1, 66, 70
3, 25052, Note_off_c, 1, 59, 100
3, 25052, Note_off_c, 1, 63, 100
3, 25052, Note_off_c, 1, 66, 100
3, 25056, Note_on_c, 1, 59, 70
3, 25056, Note_on_c, 1, 63, 70
3, 25056, Note_on_c, 1, 66, 70
3, 25148, Note_off_c, 1, 59, 100
3, 25148, Note_off_c, 1, 63, 100
3, 25148, Note_off_c, 1, 66, 100
3, 25152, Note_on_c, 1, 59, 70
3, 25152, Note_on_c, 1, 63, 70
3, 25152, Note_on_c, 1, 66, 70
3, 25244, Note_off_c, 1, 59, 100
3, 25244, Note_off_c, 1, 63, 100
3, 25244, Note_off_c, 1, 66, 100
3, 25248, Note_on_c, 1, 59, 70
3, 25248, Note_on_c, 1, 63, 70
3, 25248, Note_on_c, 1, 66, 70
3, 25340, Note_off_c, 1, 59, 100
3, 25340, Note_off_c, 1, 63, 100
3, 25340, Note_off_c, 1, 66, 100
3, 25344, Note_on_c, 1, 60, 70
3, 25344, Note_on_c, 1, 63, 70
3, 25344, Note_on_c, 1, 66, 70
3, 25436, Note_off_c, 1, 60, 100
3, 25436, Note_off_c, 1, 63, 100
3, 25436, Note_off_c, 1, 66, 100
3, 25440, Note_on_c, 1, 60, 70
3, 25440, Note_on_c, 1, 63, 70
3, 25440, Note_on_c, 1, 66, 70
3, 25532, Note_off_c, 1, 60, 100
3, 25532, Note_off_c, 1, 63, 100
3, 25532, Note_off_c, 1, 66, 100
3, 25536, Note_on_c, 1, 60, 70
3, 25536, Note_on_c, 1, 63, 70
3, 25536, Note_on_c, 1, 66, 70
3, 25628, Note_off_c, 1, 60, 100
3, 25628, Note_off_c, 1, 63, 100
3, 25628, Note_off_c, 1, 66, 100
3, 25632, Note_on_c, 1, 60, 70
3, 25632, Note_on_c, 1, 63, 70
3, 25632, Note_on_c, 1, 66, 70
3, 25724, Note_off_c, 1, 60, 100
3, 25724, Note_off_c, 1, 63, 100
3, 25724, Note_off_c, 1, 66, 100
3, 25728, Note_on_c, 1, 60, 70
3, 25728, Note_on_c, 1, 63, 70
3, 25728, Note_on_c, 1, 66, 70
3, 25820, Note_off_c, 1, 60, 100
3, 25820, Note_off_c, 1, 63, 100
3, 25820, Note_off_c, 1, 66, 100
3, 25824, Note_on_c, 1, 60, 70
3, 25824, Note_on_c, 1, 63, 70
3, 25824, Note_on_c, 1, 66, 70
3, 25916, Note_off_c, 1, 60, 100
3, 25916, Note_off_c, 1, 63, 100
3, 25916, Note_off_c, 1, 66, 100
3, 25920, Note_on_c, 1, 60, 70
3, 25920, Note_on_c, 1, 63, 70
3, 25920, Note_on_c, 1, 66, 70
3, 26012, Note_off_c, 1, 60, 100
3, 26012, Note_off_c, 1, 63, 100
3, 26012, Note_off_c, 1, 66, 100
3, 26016, Note_on_c, 1, 60, 70
3, 26016, Note_on_c, 1, 63, 70
3, 26016, Note_on_c, 1, 66, 70
3, 26108, Note_off_c, 1, 60, 100
3, 26108, Note_off_c, 1, 63, 100
3, 26108, Note_off_c, 1, 66, 100
3, 26112, Note_on_c, 1, 60, 70
3, 26112, Note_on_c, 1, 63, 70
3, 26112, Note_on_c, 1, 66, 70
3, 26204, Note_off_c, 1, 60, 100
3, 26204, Note_off_c, 1, 63, 100
3, 26204, Note_off_c, 1, 66, 100
3, 26208, Note_on_c, 1, 68, 70
3, 26208, Note_on_c, 1, 60, 70
3, 26208, Note_on_c, 1, 63, 70
3, 26208, Note_on_c, 1, 66, 70
3, 26300, Note_off_c, 1, 68, 100
3, 26300, Note_off_c, 1, 60, 100
3, 26300, Note_off_c, 1, 63, 100
3, 26300, Note_off_c, 1, 66, 100
3, 26304, Note_on_c, 1, 68, 70
3, 26304, Note_on_c, 1, 60, 70
3, 26304, Note_on_c, 1, 63, 70
3, 26304, Note_on_c, 1, 66, 70
3, 26396, Note_off_c, 1, 68, 100
3, 26396, Note_off_c, 1, 60, 100
3, 26396, Note_off_c, 1, 63, 100
3, 26396, Note_off_c, 1, 66, 100
3, 26400, Note_on_c, 1, 68, 70
3, 26400, Note_on_c, 1, 60, 70
3, 26400, Note_on_c, 1, 63, 70
3, 26400, Note_on_c, 1, 66, 70
3, 26492, Note_off_c, 1, 68, 100
3, 26492, Note_off_c, 1, 60, 100
3, 26492, Note_off_c, 1, 63, 100
3, 26492, Note_off_c, 1, 66, 100
3, 26496, Note_on_c, 1, 68, 70
3, 26496, Note_on_c, 1, 64, 70
3, 26496, Note_on_c, 1, 61, 70
3, 26588, Note_off_c, 1, 68, 100
3, 26588, Note_off_c, 1, 64, 100
3, 26588, Note_off_c, 1, 61, 100
3, 26592, Note_on_c, 1, 68, 70
3, 26592, Note_on_c, 1, 64, 70
3, 26592, Note_on_c, 1, 61, 70
3, 26684, Note_off_c, 1, 68, 100
3, 26684, Note_off_c, 1, 64, 100
3, 26684, Note_off_c, 1, 61, 100
3, 26688, Note_on_c, 1, 68, 70
3, 26688, Note_on_c, 1, 64, 70
3, 26688, Note_on_c, 1, 61, 70
3, 26780, Note_off_c, 1, 68, 100
3, 26780, Note_off_c, 1, 64, 100
3, 26780, Note_off_c, 1, 61, 100
3, 26784, Note_on_c, 1, 68, 70
3, 26784, Note_on_c, 1, 64, 70
3, 26784, Note_on_c, 1, 61, 70
3, 26876, Note_off_c, 1, 68, 100
3, 26876, Note_off_c, 1, 64, 100
3, 26876, Note_off_c, 1, 61, 100
3, 26880, Note_on_c, 1, 61, 70
3, 26880, Note_on_c, 1, 56, 70
3, 26880, Note_on_c, 1, 49, 70
3, 26972, Note_off_c, 1, 61, 100
3, 26972, Note_off_c, 1, 56, 100
3, 26972, Note_off_c, 1, 49, 100
3, 26976, Note_on_c, 1, 61, 70
3, 26976, Note_on_c, 1, 56, 70
3, 26976, Note_on_c, 1, 49, 70
3, 27068, Note_off_c, 1, 61, 100
3, 27068, Note_off_c, 1, 56, 100
3, 27068, Note_off_c, 1, 49, 100
3, 27072, Note_on_c, 1, 61, 70
3, 27072, Note_on_c, 1, 56, 70
3, 27072, Note_on_c, 1, 49, 70
3, 27164, Note_off_c, 1, 61, 100
3, 27164, Note_off_c, 1, 56, 100
3, 27164, Note_off_c, 1, 49, 100
3, 27168, Note_on_c, 1, 61, 70
3, 27168, Note_on_c, 1, 56, 70
3, 27168, Note_on_c, 1, 49, 70
3, 27260, Note_off_c, 1, 61, 100
3, 27260, Note_off_c, 1, 56, 100
3, 27260, Note_off_c, 1, 49, 100
3, 27264, Note_on_c, 1, 61, 70
3, 27264, Note_on_c, 1, 56, 70
3, 27264, Note_on_c, 1, 49, 70
3, 27356, Note_off_c, 1, 61, 100
3, 27356, Note_off_c, 1, 56, 100
3, 27356, Note_off_c, 1, 49, 100
3, 27360, Note_on_c, 1, 59, 70
3, 27360, Note_on_c, 1, 56, 70
3, 27360, Note_on_c, 1, 51, 70
3, 27452, Note_off_c, 1, 59, 100
3, 27452, Note_off_c, 1, 56, 100
3, 27452, Note_off_c, 1, 51, 100
3, 27456, Note_on_c, 1, 59, 70
3, 27456, Note_on_c, 1, 56, 70
3, 27456, Note_on_c, 1, 51, 70
3, 27548, Note_off_c, 1, 59, 100
3, 27548, Note_off_c, 1, 56, 100
3, 27548, Note_off_c, 1, 51, 100
3, 27552, Note_on_c, 1, 59, 70
3, 27552, Note_on_c, 1, 56, 70
3, 27552, Note_on_c, 1, 51, 70
3, 27644, Note_off_c, 1, 59, 100
3, 27644, Note_off_c, 1, 56, 100
3, 27644, Note_off_c, 1, 51, 100
3, 27648, Note_on_c, 1, 52, 70
3, 27648, Note_on_c, 1, 56, 70
3, 27648, Note_on_c, 1, 61, 70
3, 27740, Note_off_c, 1, 52, 100
3, 27740, Note_off_c, 1, 56, 100
3, 27740, Note_off_c, 1, 61, 100
3, 27744, Note_on_c, 1, 52, 70
3, 27744, Note_on_c, 1, 56, 70
3, 27744, Note_on_c, 1, 61, 70
3, 27836, Note_off_c, 1, 52, 100
3, 27836, Note_off_c, 1, 56, 100
3, 27836, Note_off_c, 1, 61, 100
3, 27840, Note_on_c, 1, 52, 70
3, 27840, Note_on_c, 1, 56, 70
3, 27840, Note_on_c, 1, 61, 70
3, 27932, Note_off_c, 1, 52, 100
3, 27932, Note_off_c, 1, 56, 100
3, 27932, Note_off_c, 1, 61, 100
3, 27936, Note_on_c, 1, 51, 70
3, 27936, Note_on_c, 1, 56, 70
3, 27936, Note_on_c, 1, 59, 70
3, 28028, Note_off_c, 1, 51, 100
3, 28028, Note_off_c, 1, 56, 100
3, 28028, Note_off_c, 1, 59, 100
3, 28032, Note_on_c, 1, 51, 70
3, 28032, Note_on_c, 1, 56, 70
3, 28032, Note_on_c, 1, 59, 70
3, 28124, Note_off_c, 1, 51, 100
3, 28124, Note_off_c, 1, 56, 100
3, 28124, Note_off_c, 1, 59, 100
3, 28128, Note_on_c, 1, 51, 70
3, 28128, Note_on_c, 1, 56, 70
3, 28128, Note_on_c, 1, 59, 70
3, 28220, Note_off_c, 1, 51, 100
3, 28220, Note_off_c, 1, 56, 100
3, 28220, Note_off_c, 1, 59, 100
3, 28224, Note_on_c, 1, 49, 70
3, 28224, Note_on_c, 1, 52, 70
3, 28224, Note_on_c, 1, 58, 70
3, 28316, Note_off_c, 1, 49, 100
3, 28316, Note_off_c, 1, 52, 100
3, 28316, Note_off_c, 1, 58, 100
3, 28320, Note_on_c, 1, 49, 70
3, 28320, Note_on_c, 1, 52, 70
3, 28320, Note_on_c, 1, 58, 70
3, 28412, Note_off_c, 1, 49, 100
3, 28412, Note_off_c, 1, 52, 100
3, 28412, Note_off_c, 1, 58, 100
3, 28416, Note_on_c, 1, 49, 70
3, 28416, Note_on_c, 1, 52, 70
3, 28416, Note_on_c, 1, 58, 70
3, 28508, Note_off_c, 1, 49, 100
3, 28508, Note_off_c, 1, 52, 100
3, 28508, Note_off_c, 1, 58, 100
3, 28512, Note_on_c, 1, 58, 70
3, 28512, Note_on_c, 1, 53, 70
3, 28512, Note_on_c, 1, 50, 70
3, 28604, Note_off_c, 1, 58, 100
3, 28604, Note_off_c, 1, 53, 100
3, 28604, Note_off_c, 1, 50, 100
3, 28608, Note_on_c, 1, 61, 70
3, 28608, Note_on_c, 1, 58, 70
3, 28608, Note_on_c, 1, 53, 70
3, 28608, Note_on_c, 1, 50, 70
3, 28700, Note_off_c, 1, 61, 100
3, 28700, Note_off_c, 1, 58, 100
3, 28700, Note_off_c, 1, 53, 100
3, 28700, Note_off_c, 1, 50, 100
3, 28704, Note_on_c, 1, 61, 70
3, 28704, Note_on_c, 1, 58, 70
3, 28704, Note_on_c, 1, 53, 70
3, 28704, Note_on_c, 1, 50, 70
3, 28796, Note_off_c, 1, 61, 100
3, 28796, Note_off_c, 1, 58, 100
3, 28796, Note_off_c, 1, 53, 100
3, 28796, Note_off_c, 1, 50, 100
3, 28800, Note_on_c, 1, 51, 70
3, 28800, Note_on_c, 1, 56, 70
3, 28800, Note_on_c, 1, 59, 70
3, 28892, Note_off_c, 1, 51, 100
3, 28892, Note_off_c, 1, 56, 100
3, 28892, Note_off_c, 1, 59, 100
3, 28896, Note_on_c, 1, 51, 70
3, 28896, Note_on_c, 1, 56, 70
3, 28896, Note_on_c, 1, 59, 70
3, 28988, Note_off_c, 1, 51, 100
3, 28988, Note_off_c, 1, 56, 100
3, 28988, Note_off_c, 1, 59, 100
3, 28992, Note_on_c, 1, 51, 70
3, 28992, Note_on_c, 1, 56, 70
3, 28992, Note_on_c, 1, 59, 70
3, 29084, Note_off_c, 1, 51, 100
3, 29084, Note_off_c, 1, 56, 100
3, 29084, Note_off_c, 1, 59, 100
3, 29088, Note_on_c, 1, 51, 70
3, 29088, Note_on_c, 1, 59, 70
3, 29088, Note_on_c, 1, 62, 70
3, 29180, Note_off_c, 1, 51, 100
3, 29180, Note_off_c, 1, 59, 100
3, 29180, Note_off_c, 1, 62, 100
3, 29184, Note_on_c, 1, 51, 70
3, 29184, Note_on_c, 1, 59, 70
3, 29184, Note_on_c, 1, 62, 70
3, 29276, Note_off_c, 1, 51, 100
3, 29276, Note_off_c, 1, 59, 100
3, 29276, Note_off_c, 1, 62, 100
3, 29280, Note_on_c, 1, 51, 70
3, 29280, Note_on_c, 1, 59, 70
3, 29280, Note_on_c, 1, 62, 70
3, 29372, Note_off_c, 1, 51, 100
3, 29372, Note_off_c, 1, 59, 100
3, 29372, Note_off_c, 1, 62, 100
3, 29376, Note_on_c, 1, 51, 70
3, 29376, Note_on_c, 1, 58, 70
3, 29376, Note_on_c, 1, 63, 70
3, 29468, Note_off_c, 1, 51, 100
3, 29468, Note_off_c, 1, 58, 100
3, 29468, Note_off_c, 1, 63, 100
3, 29472, Note_on_c, 1, 51, 70
3, 29564, Note_off_c, 1, 51, 100
3, 29568, Note_on_c, 1, 51, 70
3, 29660, Note_off_c, 1, 51, 100
3, 29664, Note_on_c, 1, 51, 70
3, 29756, Note_off_c, 1, 51, 100
3, 29760, Note_on_c, 1, 51, 70
3, 29852, Note_off_c, 1, 51, 100
3, 29856, Note_on_c, 1, 49, 70
3, 29856, Note_on_c, 1, 51, 70
3, 29948, Note_off_c, 1, 49, 100
3, 29948, Note_off_c, 1, 51, 100
3, 29952, Note_on_c, 1, 47, 70
3, 29952, Note_on_c, 1, 51, 70
3, 30044, Note_off_c, 1, 47, 100
3, 30044, Note_off_c, 1, 51, 100
3, 30048, Note_on_c, 1, 47, 70
3, 30048, Note_on_c, 1, 51, 70
3, 30140, Note_off_c, 1, 47, 100
3, 30140, Note_off_c, 1, 51, 100
3, 30144, Note_on_c, 1, 47, 70
3, 30144, Note_on_c, 1, 51, 70
3, 30236, Note_off_c, 1, 47, 100
3, 30236, Note_off_c, 1, 51, 100
3, 30240, Note_on_c, 1, 47, 70
3, 30240, Note_on_c, 1, 51, 70
3, 30332, Note_off_c, 1, 47, 100
3, 30332, Note_off_c, 1, 51, 100
3, 30336, Note_on_c, 1, 47, 70
3, 30336, Note_on_c, 1, 51, 70
3, 30428, Note_off_c, 1, 47, 100
3, 30428, Note_off_c, 1, 51, 100
3, 30432, Note_on_c, 1, 47, 70
3, 30432, Note_on_c, 1, 51, 70
3, 30524, Note_off_c, 1, 47, 100
3, 30524, Note_off_c, 1, 51, 100
3, 30528, Note_on_c, 1, 46, 70
3, 30528, Note_on_c, 1, 51, 70
3, 30620, Note_off_c, 1, 46, 100
3, 30620, Note_off_c, 1, 51, 100
3, 30624, Note_on_c, 1, 46, 70
3, 30624, Note_on_c, 1, 51, 70
3, 30716, Note_off_c, 1, 46, 100
3, 30716, Note_off_c, 1, 51, 100
3, 30720, Note_on_c, 1, 46, 70
3, 30720, Note_on_c, 1, 51, 70
3, 30812, Note_off_c, 1, 46, 100
3, 30812, Note_off_c, 1, 51, 100
3, 30816, Note_on_c, 1, 46, 70
3, 30816, Note_on_c, 1, 51, 70
3, 30908, Note_off_c, 1, 46, 100
3, 30908, Note_off_c, 1, 51, 100
3, 30912, Note_on_c, 1, 46, 70
3, 30912, Note_on_c, 1, 51, 70
3, 31004, Note_off_c, 1, 46, 100
3, 31004, Note_off_c, 1, 51, 100
3, 31008, Note_on_c, 1, 46, 70
3, 31008, Note_on_c, 1, 51, 70
3, 31100, Note_off_c, 1, 46, 100
3, 31100, Note_off_c, 1, 51, 100
3, 31104, Note_on_c, 1, 44, 70
3, 31104, Note_on_c, 1, 51, 70
3, 31196, Note_off_c, 1, 44, 100
3, 31196, Note_off_c, 1, 51, 100
3, 31200, Note_on_c, 1, 44, 70
3, 31200, Note_on_c, 1, 51, 70
3, 31292, Note_off_c, 1, 44, 100
3, 31292, Note_off_c, 1, 51, 100
3, 31296, Note_on_c, 1, 44, 70
3, 31296, Note_on_c, 1, 51, 70
3, 31388, Note_off_c, 1, 44, 100
3, 31388, Note_off_c, 1, 51, 100
3, 31392, Note_on_c, 1, 44, 70
3, 31392, Note_on_c, 1, 51, 70
3, 31484, Note_off_c, 1, 44, 100
3, 31484, Note_off_c, 1, 51, 100
3, 31488, Note_on_c, 1, 44, 70
3, 31488, Note_on_c, 1, 51, 70
3, 31580, Note_off_c, 1, 44, 100
3, 31580, Note_off_c, 1, 51, 100
3, 31584, Note_on_c, 1, 44, 70
3, 31584, Note_on_c, 1, 51, 70
3, 31676, Note_off_c, 1, 44, 100
3, 31676, Note_off_c, 1, 51, 100
3, 31680, Note_on_c, 1, 43, 70
3, 31680, Note_on_c, 1, 51, 70
3, 31772, Note_off_c, 1, 43, 100
3, 31772, Note_off_c, 1, 51, 100
3, 31776, Note_on_c, 1, 43, 70
3, 31776, Note_on_c, 1, 51, 70
3, 31868, Note_off_c, 1, 43, 100
3, 31868, Note_off_c, 1, 51, 100
3, 31872, Note_on_c, 1, 43, 70
3, 31872, Note_on_c, 1, 51, 70
3, 31964, Note_off_c, 1, 43, 100
3, 31964, Note_off_c, 1, 51, 100
3, 31968, Note_on_c, 1, 42, 70
3, 31968, Note_on_c, 1, 51, 70
3, 32060, Note_off_c, 1, 42, 100
3, 32060, Note_off_c, 1, 51, 100
3, 32064, Note_on_c, 1, 42, 70
3, 32064, Note_on_c, 1, 51, 70
3, 32156, Note_off_c, 1, 42, 100
3, 32156, Note_off_c, 1, 51, 100
3, 32160, Note_on_c, 1, 56, 70
3, 32160, Note_on_c, 1, 54, 70
3, 32252, Note_off_c, 1, 56, 100
3, 32252, Note_off_c, 1, 54, 100
3, 32256, Note_on_c, 1, 52, 70
3, 32256, Note_on_c, 1, 56, 70
3, 32348, Note_off_c, 1, 52, 100
3, 32348, Note_off_c, 1, 56, 100
3, 32352, Note_on_c, 1, 52, 70
3, 32352, Note_on_c, 1, 56, 70
3, 32352, Note_on_c, 1, 61, 70
3, 32444, Note_off_c, 1, 52, 100
3, 32444, Note_off_c, 1, 56, 100
3, 32444, Note_off_c, 1, 61, 100
3, 32448, Note_on_c, 1, 52, 70
3, 32448, Note_on_c, 1, 56, 70
3, 32448, Note_on_c, 1, 61, 70
3, 32540, Note_off_c, 1, 52, 100
3, 32540, Note_off_c, 1, 56, 100
3, 32540, Note_off_c, 1, 61, 100
3, 32544, Note_on_c, 1, 52, 70
3, 32544, Note_on_c, 1, 56, 70
3, 32544, Note_on_c, 1, 61, 70
3, 32636, Note_off_c, 1, 52, 100
3, 32636, Note_off_c, 1, 56, 100
3, 32636, Note_off_c, 1, 61, 100
3, 32640, Note_on_c, 1, 51, 70
3, 32640, Note_on_c, 1, 56, 70
3, 32640, Note_on_c, 1, 60, 70
3, 32732, Note_off_c, 1, 51, 100
3, 32732, Note_off_c, 1, 56, 100
3, 32732, Note_off_c, 1, 60, 100
3, 32736, Note_on_c, 1, 49, 70
3, 32736, Note_on_c, 1, 56, 70
3, 32736, Note_on_c, 1, 61, 70
3, 32828, Note_off_c, 1, 49, 100
3, 32828, Note_off_c, 1, 56, 100
3, 32828, Note_off_c, 1, 61, 100
3, 32832, Note_on_c, 1, 51, 70
3, 32832, Note_on_c, 1, 56, 70
3, 32832, Note_on_c, 1, 59, 70
3, 32924, Note_off_c, 1, 51, 100
3, 32924, Note_off_c, 1, 56, 100
3, 32924, Note_off_c, 1, 59, 100
3, 32928, Note_on_c, 1, 51, 70
3, 32928, Note_on_c, 1, 56, 70
3, 32928, Note_on_c, 1, 59, 70
3, 33020, Note_off_c, 1, 51, 100
3, 33020, Note_off_c, 1, 56, 100
3, 33020, Note_off_c, 1, 59, 100
3, 33024, Note_on_c, 1, 51, 70
3, 33024, Note_on_c, 1, 56, 70
3, 33024, Note_on_c, 1, 59, 70
3, 33116, Note_off_c, 1, 51, 100
3, 33116, Note_off_c, 1, 56, 100
3, 33116, Note_off_c, 1, 59, 100
3, 33120, Note_on_c, 1, 51, 70
3, 33120, Note_on_c, 1, 55, 70
3, 33120, Note_on_c, 1, 58, 70
3, 33120, Note_on_c, 1, 61, 70
3, 33212, Note_off_c, 1, 51, 100
3, 33212, Note_off_c, 1, 55, 100
3, 33212, Note_off_c, 1, 58, 100
3, 33212, Note_off_c, 1, 61, 100
3, 33216, Note_on_c, 1, 51, 70
3, 33216, Note_on_c, 1, 55, 70
3, 33216, Note_on_c, 1, 58, 70
3, 33216, Note_on_c, 1, 61, 70
3, 33308, Note_off_c, 1, 51, 100
3, 33308, Note_off_c, 1, 55, 100
3, 33308, Note_off_c, 1, 58, 100
3, 33308, Note_off_c, 1, 61, 100
3, 33312, Note_on_c, 1, 51, 70
3, 33312, Note_on_c, 1, 55, 70
3, 33312, Note_on_c, 1, 58, 70
3, 33312, Note_on_c, 1, 61, 70
3, 33404, Note_off_c, 1, 51, 100
3, 33404, Note_off_c, 1, 55, 100
3, 33404, Note_off_c, 1, 58, 100
3, 33404, Note_off_c, 1, 61, 100
3, 33408, Note_on_c, 1, 52, 70
3, 33408, Note_on_c, 1, 55, 70
3, 33408, Note_on_c, 1, 58, 70
3, 33408, Note_on_c, 1, 61, 70
3, 33500, Note_off_c, 1, 52, 100
3, 33500, Note_off_c, 1, 55, 100
3, 33500, Note_off_c, 1, 58, 100
3, 33500, Note_off_c, 1, 61, 100
3, 33504, Note_on_c, 1, 52, 70
3, 33504, Note_on_c, 1, 55, 70
3, 33504, Note_on_c, 1, 58, 70
3, 33504, Note_on_c, 1, 61, 70
3, 33596, Note_off_c, 1, 52, 100
3, 33596, Note_off_c, 1, 55, 100
3, 33596, Note_off_c, 1, 58, 100
3, 33596, Note_off_c, 1, 61, 100
3, 33600, Note_on_c, 1, 52, 70
3, 33600, Note_on_c, 1, 55, 70
3, 33600, Note_on_c, 1, 58, 70
3, 33600, Note_on_c, 1, 61, 70
3, 33692, Note_off_c, 1, 52, 100
3, 33692, Note_off_c, 1, 55, 100
3, 33692, Note_off_c, 1, 58, 100
3, 33692, Note_off_c, 1, 61, 100
3, 33696, Note_on_c, 1, 51, 70
3, 33696, Note_on_c, 1, 55, 70
3, 33696, Note_on_c, 1, 58, 70
3, 33696, Note_on_c, 1, 61, 70
3, 33788, Note_off_c, 1, 51, 100
3, 33788, Note_off_c, 1, 55, 100
3, 33788, Note_off_c, 1, 58, 100
3, 33788, Note_off_c, 1, 61, 100
3, 33792, Note_on_c, 1, 51, 70
3, 33792, Note_on_c, 1, 55, 70
3, 33792, Note_on_c, 1, 58, 70
3, 33792, Note_on_c, 1, 61, 70
3, 33884, Note_off_c, 1, 51, 100
3, 33884, Note_off_c, 1, 55, 100
3, 33884, Note_off_c, 1, 58, 100
3, 33884, Note_off_c, 1, 61, 100
3, 33888, Note_on_c, 1, 51, 70
3, 33888, Note_on_c, 1, 55, 70
3, 33888, Note_on_c, 1, 58, 70
3, 33888, Note_on_c, 1, 61, 70
3, 33980, Note_off_c, 1, 51, 100
3, 33980, Note_off_c, 1, 55, 100
3, 33980, Note_off_c, 1, 58, 100
3, 33980, Note_off_c, 1, 61, 100
3, 33984, Note_on_c, 1, 59, 80
3, 33984, Note_on_c, 1, 56, 80
3, 34268, Note_off_c, 1, 59, 100
3, 34268, Note_off_c, 1, 56, 100
3, 34272, Note_on_c, 1, 35, 80
3, 34272, Note_on_c, 1, 47, 80
3, 34556, Note_off_c, 1, 35, 100
3, 34556, Note_off_c, 1, 47, 100
3, 34560, Note_on_c, 1, 34, 75
3, 34560, Note_on_c, 1, 46, 75
3, 34844, Note_off_c, 1, 34, 100
3, 34844, Note_off_c, 1, 46, 100
3, 34848, Note_on_c, 1, 39, 71
3, 34848, Note_on_c, 1, 51, 71
3, 35132, Note_off_c, 1, 39, 100
3, 35132, Note_off_c, 1, 51, 100
3, 35136, Note_on_c, 1, 32, 70
3, 35136, Note_on_c, 1, 44, 70
3, 35420, Note_off_c, 1, 32, 100
3, 35420, Note_off_c, 1, 44, 100
3, 35424, Note_on_c, 1, 32, 70
3, 35424, Note_on_c, 1, 44, 70
3, 35708, Note_off_c, 1, 32, 100
3, 35708, Note_off_c, 1, 44, 100
3, 35712, Key_signature, -4, "minor"
3, 35712, Note_on_c, 1, 32, 70
3, 35712, Note_on_c, 1, 44, 70
3, 35998, Note_off_c, 1, 32, 100
3, 35998, Note_off_c, 1, 44, 100
3, 36288, Note_on_c, 1, 56, 80
3, 36862, Note_off_c, 1, 56, 100
3, 36864, Note_on_c, 1, 61, 80
3, 37436, Note_off_c, 1, 61, 100
3, 37440, Note_on_c, 1, 58, 80
3, 38012, Note_off_c, 1, 58, 100
3, 38016, Note_on_c, 1, 63, 80
3, 38588, Note_off_c, 1, 63, 100
3, 38592, Note_on_c, 1, 60, 80
3, 39164, Note_off_c, 1, 60, 100
3, 39168, Note_on_c, 1, 65, 80
3, 39740, Note_off_c, 1, 65, 100
3, 39744, Note_on_c, 1, 63, 80
3, 40128, Note_on_c, 1, 61, 80
3, 40196, Note_off_c, 1, 63, 100
3, 40316, Note_off_c, 1, 61, 100
3, 40320, Note_on_c, 1, 60, 80
3, 41084, Note_off_c, 1, 60, 100
3, 41088, Note_on_c, 1, 56, 80
3, 41276, Note_off_c, 1, 56, 100
3, 41280, Note_on_c, 1, 55, 80
3, 41468, Note_off_c, 1, 55, 100
3, 41472, Note_on_c, 1, 53, 80
3, 41660, Note_off_c, 1, 53, 100
3, 41664, Note_on_c, 1, 55, 80
3, 41852, Note_off_c, 1, 55, 100
3, 41856, Note_on_c, 1, 51, 80
3, 42044, Note_off_c, 1, 51, 100
3, 42048, Note_on_c, 1, 50, 80
3, 42236, Note_off_c, 1, 50, 100
3, 42240, Note_on_c, 1, 51, 80
3, 42428, Note_off_c, 1, 51, 100
3, 42432, Note_on_c, 1, 53, 80
3, 42620, Note_off_c, 1, 53, 100
3, 42624, Note_on_c, 1, 55, 80
3, 42812, Note_off_c, 1, 55, 100
3, 42816, Note_on_c, 1, 56, 80
3, 43004, Note_off_c, 1, 56, 100
3, 43008, Note_on_c, 1, 53, 80
3, 43196, Note_off_c, 1, 53, 100
3, 43200, Note_on_c, 1, 52, 80
3, 43388, Note_off_c, 1, 52, 100
3, 43392, Note_on_c, 1, 53, 80
3, 43580, Note_off_c, 1, 53, 100
3, 43584, Note_on_c, 1, 55, 80
3, 43772, Note_off_c, 1, 55, 100
3, 43776, Note_on_c, 1, 56, 80
3, 43964, Note_off_c, 1, 56, 100
3, 43968, Note_on_c, 1, 55, 80
3, 44156, Note_off_c, 1, 55, 100
3, 44160, Note_on_c, 1, 56, 80
3, 44348, Note_off_c, 1, 56, 100
3, 44352, Note_on_c, 1, 58, 80
3, 44540, Note_off_c, 1, 58, 100
3, 44544, Note_on_c, 1, 60, 80
3, 44732, Note_off_c, 1, 60, 100
3, 44736, Note_on_c, 1, 61, 80
3, 44924, Note_off_c, 1, 61, 100
3, 44928, Note_on_c, 1, 63, 80
3, 45116, Note_off_c, 1, 63, 100
3, 45120, Note_on_c, 1, 65, 80
3, 45308, Note_off_c, 1, 65, 100
3, 45312, Note_on_c, 1, 62, 80
3, 45500, Note_off_c, 1, 62, 100
3, 45504, Note_on_c, 1, 63, 80
3, 45692, Note_off_c, 1, 63, 100
3, 45696, Note_on_c, 1, 65, 80
3, 45884, Note_off_c, 1, 65, 100
3, 45888, Note_on_c, 1, 61, 80
3, 46076, Note_off_c, 1, 61, 100
3, 46080, Note_on_c, 1, 60, 80
3, 46268, Note_off_c, 1, 60, 100
3, 46272, Note_on_c, 1, 63, 80
3, 46460, Note_off_c, 1, 63, 100
3, 46464, Note_on_c, 1, 61, 80
3, 46652, Note_off_c, 1, 61, 100
3, 46656, Note_on_c, 1, 60, 80
3, 46844, Note_off_c, 1, 60, 100
3, 46848, Note_on_c, 1, 61, 80
3, 47036, Note_off_c, 1, 61, 100
3, 47040, Note_on_c, 1, 63, 80
3, 47420, Note_off_c, 1, 63, 100
3, 47424, Note_on_c, 1, 60, 80
3, 47612, Note_off_c, 1, 60, 100
3, 47616, Note_on_c, 1, 61, 80
3, 47996, Note_off_c, 1, 61, 100
3, 48000, Note_on_c, 1, 59, 80
3, 48188, Note_off_c, 1, 59, 100
3, 48192, Note_on_c, 1, 60, 80
3, 48572, Note_off_c, 1, 60, 100
3, 48576, Note_on_c, 1, 58, 80
3, 48764, Note_off_c, 1, 58, 100
3, 48768, Note_on_c, 1, 61, 80
3, 48956, Note_off_c, 1, 61, 100
3, 48960, Note_on_c, 1, 63, 80
3, 49340, Note_off_c, 1, 63, 100
3, 49344, Note_on_c, 1, 61, 80
3, 49532, Note_off_c, 1, 61, 100
3, 49536, Note_on_c, 1, 60, 80
3, 49916, Note_off_c, 1, 60, 100
3, 49920, Note_on_c, 1, 48, 80
3, 50112, Note_on_c, 1, 53, 80
3, 50204, Note_off_c, 1, 48, 100
3, 50492, Note_off_c, 1, 53, 100
3, 50496, Note_on_c, 1, 51, 80
3, 50684, Note_off_c, 1, 51, 100
3, 50688, Note_on_c, 1, 49, 80
3, 51068, Note_off_c, 1, 49, 100
3, 51072, Note_on_c, 1, 49, 80
3, 51260, Note_off_c, 1, 49, 100
3, 51264, Note_on_c, 1, 51, 80
3, 51452, Note_off_c, 1, 51, 100
3, 51456, Note_on_c, 1, 53, 80
3, 51644, Note_off_c, 1, 53, 100
3, 51648, Note_on_c, 1, 55, 80
3, 51836, Note_off_c, 1, 55, 100
3, 51840, Note_on_c, 1, 56, 80
3, 52028, Note_off_c, 1, 56, 100
3, 52032, Note_on_c, 1, 60, 80
3, 52220, Note_off_c, 1, 60, 100
3, 52224, Note_on_c, 1, 58, 80
3, 52412, Note_off_c, 1, 58, 100
3, 52416, Note_on_c, 1, 56, 80
3, 52604, Note_off_c, 1, 56, 100
3, 52608, Note_on_c, 1, 58, 80
3, 52796, Note_off_c, 1, 58, 100
3, 52800, Note_on_c, 1, 55, 80
3, 52988, Note_off_c, 1, 55, 100
3, 52992, Note_on_c, 1, 53, 80
3, 53180, Note_off_c, 1, 53, 100
3, 53184, Note_on_c, 1, 56, 80
3, 53372, Note_off_c, 1, 56, 100
3, 53376, Note_on_c, 1, 55, 80
3, 53564, Note_off_c, 1, 55, 100
3, 53568, Note_on_c, 1, 53, 80
3, 53756, Note_off_c, 1, 53, 100
3, 53760, Note_on_c, 1, 52, 80
3, 53948, Note_off_c, 1, 52, 100
3, 53952, Note_on_c, 1, 53, 80
3, 54140, Note_off_c, 1, 53, 100
3, 54144, Note_on_c, 1, 55, 80
3, 54332, Note_off_c, 1, 55, 100
3, 54336, Note_on_c, 1, 58, 80
3, 54524, Note_off_c, 1, 58, 100
3, 54528, Note_on_c, 1, 56, 80
3, 54716, Note_off_c, 1, 56, 100
3, 54720, Note_on_c, 1, 55, 80
3, 54908, Note_off_c, 1, 55, 100
3, 54912, Note_on_c, 1, 56, 80
3, 55100, Note_off_c, 1, 56, 100
3, 55104, Note_on_c, 1, 53, 80
3, 55292, Note_off_c, 1, 53, 100
3, 55296, Note_on_c, 1, 52, 80
3, 55484, Note_off_c, 1, 52, 100
3, 55488, Note_on_c, 1, 55, 80
3, 55676, Note_off_c, 1, 55, 100
3, 55680, Note_on_c, 1, 53, 80
3, 55868, Note_off_c, 1, 53, 100
3, 55872, Note_on_c, 1, 52, 80
3, 56060, Note_off_c, 1, 52, 100
3, 56064, Note_on_c, 1, 50, 80
3, 56252, Note_off_c, 1, 50, 100
3, 56256, Note_on_c, 1, 52, 80
3, 56444, Note_off_c, 1, 52, 100
3, 56448, Note_on_c, 1, 53, 80
3, 56636, Note_off_c, 1, 53, 100
3, 56640, Note_on_c, 1, 51, 83
3, 56828, Note_off_c, 1, 51, 100
3, 56832, Note_on_c, 1, 50, 86
3, 57020, Note_off_c, 1, 50, 100
3, 57024, Note_on_c, 1, 51, 90
3, 57212, Note_off_c, 1, 51, 100
3, 57216, Note_on_c, 1, 48, 93
3, 57404, Note_off_c, 1, 48, 100
3, 57408, Note_on_c, 1, 44, 97
3, 57596, Note_off_c, 1, 44, 100
3, 57600, Note_on_c, 1, 44, 100
3, 57788, Note_off_c, 1, 44, 100
3, 57792, Note_on_c, 1, 46, 104
3, 58172, Note_off_c, 1, 46, 100
3, 58176, Note_on_c, 1, 48, 110
3, 58176, Note_on_c, 1, 36, 110
3, 58748, Note_off_c, 1, 48, 100
3, 58748, Note_off_c, 1, 36, 100
3, 58752, Note_on_c, 1, 56, 110
3, 58752, Note_on_c, 1, 44, 110
3, 59326, Note_off_c, 1, 56, 64
3, 59326, Note_off_c, 1, 44, 100
3, 59328, Note_on_c, 1, 41, 110
3, 59328, Note_on_c, 1, 53, 110
3, 59902, Note_off_c, 1, 41, 100
3, 59902, Note_off_c, 1, 53, 100
3, 59904, Note_on_c, 1, 46, 110
3, 59904, Note_on_c, 1, 58, 110
3, 60478, Note_off_c, 1, 46, 100
3, 60478, Note_off_c, 1, 58, 100
3, 60480, Note_on_c, 1, 43, 110
3, 60480, Note_on_c, 1, 55, 110
3, 61054, Note_off_c, 1, 43, 100
3, 61054, Note_off_c, 1, 55, 100
3, 61056, Note_on_c, 1, 48, 110
3, 61056, Note_on_c, 1, 60, 110
3, 61630, Note_off_c, 1, 48, 100
3, 61630, Note_off_c, 1, 60, 100
3, 61632, Note_on_c, 1, 58, 110
3, 61632, Note_on_c, 1, 46, 110
3, 62014, Note_off_c, 1, 58, 64
3, 62014, Note_off_c, 1, 46, 100
3, 62016, Note_on_c, 1, 56, 110
3, 62016, Note_on_c, 1, 44, 110
3, 62206, Note_off_c, 1, 56, 64
3, 62206, Note_off_c, 1, 44, 100
3, 62208, Note_on_c, 1, 43, 110
3, 62208, Note_on_c, 1, 55, 110
3, 62782, Note_off_c, 1, 43, 100
3, 62782, Note_off_c, 1, 55, 100
3, 62784, Note_on_c, 1, 58, 110
3, 62784, Note_on_c, 1, 46, 110
3, 63934, Note_off_c, 1, 46, 64
3, 63934, Note_off_c, 1, 58, 64
3, 63936, Note_on_c, 1, 56, 103
3, 63936, Note_on_c, 1, 44, 103
3, 64318, Note_off_c, 1, 56, 64
3, 64318, Note_off_c, 1, 44, 100
3, 64320, Note_on_c, 1, 54, 100
3, 64320, Note_on_c, 1, 42, 100
3, 64510, Note_off_c, 1, 54, 100
3, 64510, Note_off_c, 1, 42, 100
3, 64512, Note_on_c, 1, 53, 99
3, 64512, Note_on_c, 1, 41, 99
3, 65278, Note_off_c, 1, 53, 100
3, 65278, Note_off_c, 1, 41, 100
3, 65280, Note_on_c, 1, 54, 94
3, 65470, Note_off_c, 1, 54, 100
3, 65472, Note_on_c, 1, 53, 92
3, 65854, Note_off_c, 1, 53, 64
3, 65856, Note_on_c, 1, 49, 90
3, 66046, Note_off_c, 1, 49, 100
3, 66048, Note_on_c, 1, 51, 88
3, 66430, Note_off_c, 1, 51, 100
3, 66432, Note_on_c, 1, 53, 86
3, 66622, Note_off_c, 1, 53, 100
3, 66624, Note_on_c, 1, 51, 84
3, 67006, Note_off_c, 1, 51, 64
3, 67008, Note_on_c, 1, 48, 82
3, 67198, Note_off_c, 1, 48, 100
3, 67200, Note_on_c, 1, 49, 81
3, 67582, Note_off_c, 1, 49, 100
3, 67584, Note_on_c, 1, 47, 80
3, 67774, Note_off_c, 1, 47, 100
3, 67776, Note_on_c, 1, 48, 80
3, 67966, Note_off_c, 1, 48, 100
3, 67968, Note_on_c, 1, 46, 80
3, 68158, Note_off_c, 1, 46, 100
3, 68160, Note_on_c, 1, 48, 80
3, 68350, Note_off_c, 1, 48, 100
3, 68352, Note_on_c, 1, 44, 80
3, 68542, Note_off_c, 1, 44, 100
3, 68544, Note_on_c, 1, 43, 80
3, 68734, Note_off_c, 1, 43, 100
3, 68736, Note_on_c, 1, 44, 80
3, 68926, Note_off_c, 1, 44, 100
3, 68928, Note_on_c, 1, 46, 80
3, 69118, Note_off_c, 1, 46, 100
3, 69120, Note_on_c, 1, 48, 80
3, 69310, Note_off_c, 1, 48, 100
3, 69312, Note_on_c, 1, 49, 80
3, 69502, Note_off_c, 1, 49, 100
3, 69504, Note_on_c, 1, 46, 80
3, 69694, Note_off_c, 1, 46, 100
3, 69696, Note_on_c, 1, 45, 80
3, 69886, Note_off_c, 1, 45, 100
3, 69888, Note_on_c, 1, 46, 80
3, 70078, Note_off_c, 1, 46, 100
3, 70080, Note_on_c, 1, 48, 80
3, 70270, Note_off_c, 1, 48, 100
3, 70272, Note_on_c, 1, 49, 80
3, 70462, Note_off_c, 1, 49, 100
3, 70464, Note_on_c, 1, 48, 80
3, 70654, Note_off_c, 1, 48, 100
3, 70656, Note_on_c, 1, 50, 80
3, 70846, Note_off_c, 1, 50, 100
3, 70848, Note_on_c, 1, 51, 80
3, 71038, Note_off_c, 1, 51, 100
3, 71040, Note_on_c, 1, 53, 80
3, 71230, Note_off_c, 1, 53, 100
3, 71232, Note_on_c, 1, 55, 80
3, 71422, Note_off_c, 1, 55, 100
3, 71424, Note_on_c, 1, 56, 80
3, 71614, Note_off_c, 1, 56, 64
3, 71616, Note_on_c, 1, 58, 80
3, 71806, Note_off_c, 1, 58, 100
3, 71808, Note_on_c, 1, 55, 80
3, 71998, Note_off_c, 1, 55, 100
3, 72000, Note_on_c, 1, 53, 80
3, 72190, Note_off_c, 1, 53, 100
3, 72192, Note_on_c, 1, 52, 80
3, 72382, Note_off_c, 1, 52, 100
3, 72384, Note_on_c, 1, 53, 80
3, 72574, Note_off_c, 1, 53, 100
3, 72576, Note_on_c, 1, 55, 80
3, 72766, Note_off_c, 1, 55, 100
3, 72768, Note_on_c, 1, 56, 80
3, 72958, Note_off_c, 1, 56, 64
3, 72960, Note_on_c, 1, 53, 80
3, 73150, Note_off_c, 1, 53, 100
3, 73152, Note_on_c, 1, 52, 80
3, 73342, Note_off_c, 1, 52, 100
3, 73344, Note_on_c, 1, 50, 80
3, 73534, Note_off_c, 1, 50, 100
3, 73536, Note_on_c, 1, 52, 80
3, 73726, Note_off_c, 1, 52, 100
3, 73728, Note_on_c, 1, 53, 80
3, 74110, Note_off_c, 1, 53, 100
3, 74112, Note_on_c, 1, 51, 80
3, 74302, Note_off_c, 1, 51, 100
3, 74304, Note_on_c, 1, 49, 80
3, 74686, Note_off_c, 1, 49, 100
3, 74688, Note_on_c, 1, 48, 80
3, 74878, Note_off_c, 1, 48, 100
3, 74880, Note_on_c, 1, 46, 80
3, 75262, Note_off_c, 1, 46, 100
3, 75264, Note_on_c, 1, 47, 80
3, 75454, Note_off_c, 1, 47, 100
3, 75456, Note_on_c, 1, 48, 80
3, 75838, Note_off_c, 1, 48, 100
3, 75840, Note_on_c, 1, 46, 80
3, 76030, Note_off_c, 1, 46, 100
3, 76032, Note_on_c, 1, 44, 80
3, 76414, Note_off_c, 1, 44, 100
3, 76416, Note_on_c, 1, 45, 80
3, 76606, Note_off_c, 1, 45, 100
3, 76608, Note_on_c, 1, 46, 80
3, 76990, Note_off_c, 1, 46, 100
3, 76992, Note_on_c, 1, 44, 80
3, 77182, Note_off_c, 1, 44, 100
3, 77184, Note_on_c, 1, 43, 80
3, 77374, Note_off_c, 1, 43, 100
3, 77376, Note_on_c, 1, 44, 80
3, 77566, Note_off_c, 1, 44, 100
3, 77568, Note_on_c, 1, 43, 80
3, 77758, Note_off_c, 1, 43, 100
3, 77760, Note_on_c, 1, 41, 80
3, 77950, Note_off_c, 1, 41, 100
3, 77952, Note_on_c, 1, 39, 80
3, 78142, Note_off_c, 1, 39, 100
3, 78144, Note_on_c, 1, 37, 80
3, 78334, Note_off_c, 1, 37, 100
3, 78336, Note_on_c, 1, 36, 80
3, 78526, Note_off_c, 1, 36, 100
3, 78528, Note_on_c, 1, 37, 80
3, 78718, Note_off_c, 1, 37, 100
3, 78720, Note_on_c, 1, 34, 80
3, 78910, Note_off_c, 1, 34, 100
3, 78912, Note_on_c, 1, 33, 80
3, 79102, Note_off_c, 1, 33, 100
3, 79104, Note_on_c, 1, 34, 80
3, 79294, Note_off_c, 1, 34, 100
3, 79296, Note_on_c, 1, 36, 80
3, 79486, Note_off_c, 1, 36, 100
3, 79488, Note_on_c, 1, 37, 80
3, 79676, Note_off_c, 1, 37, 100
3, 79680, Note_on_c, 1, 39, 80
3, 79868, Note_off_c, 1, 39, 100
3, 79872, Note_on_c, 1, 36, 80
3, 80060, Note_off_c, 1, 36, 100
3, 80064, Note_on_c, 1, 34, 80
3, 80252, Note_off_c, 1, 34, 100
3, 80256, Note_on_c, 1, 36, 80
3, 80444, Note_off_c, 1, 36, 100
3, 80448, Note_on_c, 1, 37, 80
3, 80828, Note_off_c, 1, 37, 100
3, 80832, Note_on_c, 1, 36, 80
3, 81020, Note_off_c, 1, 36, 100
3, 81024, Note_on_c, 1, 39, 80
3, 81212, Note_off_c, 1, 39, 100
3, 81216, Note_on_c, 1, 37, 80
3, 81404, Note_off_c, 1, 37, 100
3, 81408, Note_on_c, 1, 41, 80
3, 81596, Note_off_c, 1, 41, 100
3, 81600, Note_on_c, 1, 37, 80
3, 81788, Note_off_c, 1, 37, 100
3, 81792, Note_on_c, 1, 39, 80
3, 81980, Note_off_c, 1, 39, 100
3, 81984, Note_on_c, 1, 43, 81
3, 82172, Note_off_c, 1, 43, 100
3, 82176, Note_on_c, 1, 41, 82
3, 82364, Note_off_c, 1, 41, 100
3, 82368, Note_on_c, 1, 39, 83
3, 82556, Note_off_c, 1, 39, 100
3, 82560, Note_on_c, 1, 38, 84
3, 82748, Note_off_c, 1, 38, 100
3, 82752, Note_on_c, 1, 39, 85
3, 82940, Note_off_c, 1, 39, 100
3, 82944, Note_on_c, 1, 40, 87
3, 83132, Note_off_c, 1, 40, 100
3, 83136, Note_on_c, 1, 43, 88
3, 83324, Note_off_c, 1, 43, 100
3, 83328, Note_on_c, 1, 41, 89
3, 83516, Note_off_c, 1, 41, 100
3, 83520, Note_on_c, 1, 40, 90
3, 83708, Note_off_c, 1, 40, 100
3, 83712, Note_on_c, 1, 38, 91
3, 83900, Note_off_c, 1, 38, 100
3, 83904, Note_on_c, 1, 40, 93
3, 84092, Note_off_c, 1, 40, 100
3, 84096, Note_on_c, 1, 41, 94
3, 84284, Note_off_c, 1, 41, 100
3, 84288, Note_on_c, 1, 45, 95
3, 84476, Note_off_c, 1, 45, 100
3, 84480, Note_on_c, 1, 43, 96
3, 84668, Note_off_c, 1, 43, 100
3, 84672, Note_on_c, 1, 41, 97
3, 84860, Note_off_c, 1, 41, 100
3, 84864, Note_on_c, 1, 43, 99
3, 85052, Note_off_c, 1, 43, 100
3, 85056, Note_on_c, 1, 45, 100
3, 85244, Note_off_c, 1, 45, 100
3, 85248, Note_on_c, 1, 42, 101
3, 85436, Note_off_c, 1, 42, 100
3, 85440, Note_on_c, 1, 45, 102
3, 85628, Note_off_c, 1, 45, 100
3, 85632, Note_on_c, 1, 43, 103
3, 85820, Note_off_c, 1, 43, 100
3, 85824, Note_on_c, 1, 42, 105
3, 86012, Note_off_c, 1, 42, 100
3, 86016, Note_on_c, 1, 43, 106
3, 86204, Note_off_c, 1, 43, 100
3, 86208, Note_on_c, 1, 45, 107
3, 86396, Note_off_c, 1, 45, 100
3, 86400, Note_on_c, 1, 43, 108
3, 86588, Note_off_c, 1, 43, 100
3, 86592, Note_on_c, 1, 50, 109
3, 86780, Note_off_c, 1, 50, 100
3, 86784, Note_on_c, 1, 48, 110
3, 86972, Note_off_c, 1, 48, 100
3, 86976, Note_on_c, 1, 47, 110
3, 87164, Note_off_c, 1, 47, 100
3, 87168, Note_on_c, 1, 48, 110
3, 87356, Note_off_c, 1, 48, 100
3, 87360, Note_on_c, 1, 50, 110
3, 87548, Note_off_c, 1, 50, 100
3, 87552, Note_on_c, 1, 50, 110
3, 87740, Note_off_c, 1, 50, 100
3, 87744, Note_on_c, 1, 51, 100
3, 87932, Note_off_c, 1, 51, 100
3, 87936, Note_on_c, 1, 53, 98
3, 88124, Note_off_c, 1, 53, 100
3, 89856, Note_on_c, 1, 43, 120
3, 89856, Note_on_c, 1, 31, 120
3, 91004, Note_off_c, 1, 43, 100
3, 91004, Note_off_c, 1, 31, 100
3, 91008, Note_on_c, 1, 48, 120
3, 91008, Note_on_c, 1, 36, 120
3, 91580, Note_off_c, 1, 48, 100
3, 91580, Note_off_c, 1, 36, 100
3, 91584, Note_on_c, 1, 45, 120
3, 91584, Note_on_c, 1, 33, 120
3, 92156, Note_off_c, 1, 45, 100
3, 92156, Note_off_c, 1, 33, 100
3, 92160, Note_on_c, 1, 38, 120
3, 92160, Note_on_c, 1, 50, 120
3, 92732, Note_off_c, 1, 38, 100
3, 92732, Note_off_c, 1, 50, 100
3, 92736, Note_on_c, 1, 47, 120
3, 92736, Note_on_c, 1, 35, 120
3, 93308, Note_off_c, 1, 47, 100
3, 93308, Note_off_c, 1, 35, 100
3, 93312, Note_on_c, 1, 51, 120
3, 93312, Note_on_c, 1, 39, 120
3, 93884, Note_off_c, 1, 51, 100
3, 93884, Note_off_c, 1, 39, 100
3, 93888, Note_on_c, 1, 48, 120
3, 93888, Note_on_c, 1, 36, 120
3, 94460, Note_off_c, 1, 48, 100
3, 94460, Note_off_c, 1, 36, 100
3, 94464, Note_on_c, 1, 53, 120
3, 94464, Note_on_c, 1, 41, 120
3, 95036, Note_off_c, 1, 53, 100
3, 95036, Note_off_c, 1, 41, 100
3, 95040, Note_on_c, 1, 50, 120
3, 95040, Note_on_c, 1, 38, 120
3, 95612, Note_off_c, 1, 50, 100
3, 95612, Note_off_c, 1, 38, 100
3, 95616, Note_on_c, 1, 55, 120
3, 95616, Note_on_c, 1, 43, 120
3, 96188, Note_off_c, 1, 55, 100
3, 96188, Note_off_c, 1, 43, 100
3, 96192, Note_on_c, 1, 52, 120
3, 96192, Note_on_c, 1, 40, 120
3, 96764, Note_off_c, 1, 52, 100
3, 96764, Note_off_c, 1, 40, 100
3, 96768, Note_on_c, 1, 57, 120
3, 96768, Note_on_c, 1, 45, 120
3, 97148, Note_off_c, 1, 57, 100
3, 97148, Note_off_c, 1, 45, 100
3, 97152, Note_on_c, 1, 55, 120
3, 97152, Note_on_c, 1, 43, 120
3, 97340, Note_off_c, 1, 55, 100
3, 97340, Note_off_c, 1, 43, 100
3, 97344, Note_on_c, 1, 53, 120
3, 97344, Note_on_c, 1, 41, 120
3, 97532, Note_off_c, 1, 53, 100
3, 97532, Note_off_c, 1, 41, 100
3, 97536, Note_on_c, 1, 55, 120
3, 97536, Note_on_c, 1, 43, 120
3, 97724, Note_off_c, 1, 55, 100
3, 97724, Note_off_c, 1, 43, 100
3, 97728, Note_on_c, 1, 57, 120
3, 97728, Note_on_c, 1, 45, 120
3, 97916, Note_off_c, 1, 57, 100
3, 97916, Note_off_c, 1, 45, 100
3, 97920, Note_on_c, 1, 58, 120
3, 97920, Note_on_c, 1, 46, 120
3, 98492, Note_off_c, 1, 58, 100
3, 98492, Note_off_c, 1, 46, 100
3, 98496, Note_on_c, 1, 60, 120
3, 98496, Note_on_c, 1, 48, 120
3, 99068, Note_off_c, 1, 60, 100
3, 99068, Note_off_c, 1, 48, 100
3, 99072, Note_on_c, 1, 61, 120
3, 99072, Note_on_c, 1, 49, 120
3, 99644, Note_off_c, 1, 61, 100
3, 99644, Note_off_c, 1, 49, 100
3, 99648, Note_on_c, 1, 60, 80
3, 99836, Note_off_c, 1, 60, 100
3, 99840, Note_on_c, 1, 61, 80
3, 100028, Note_off_c, 1, 61, 100
3, 100032, Note_on_c, 1, 63, 80
3, 100412, Note_off_c, 1, 63, 100
3, 100416, Note_on_c, 1, 61, 80
3, 100604, Note_off_c, 1, 61, 100
3, 100608, Note_on_c, 1, 58, 80
3, 100988, Note_off_c, 1, 58, 100
3, 100992, Note_on_c, 1, 57, 80
3, 101180, Note_off_c, 1, 57, 100
3, 101184, Note_on_c, 1, 60, 80
3, 101564, Note_off_c, 1, 60, 100
3, 101568, Note_on_c, 1, 58, 80
3, 101756, Note_off_c, 1, 58, 100
3, 101760, Note_on_c, 1, 61, 80
3, 101948, Note_off_c, 1, 61, 100
3, 101952, Note_on_c, 1, 55, 110
3, 102140, Note_off_c, 1, 55, 100
3, 102144, Note_on_c, 1, 56, 110
3, 102332, Note_off_c, 1, 56, 100
3, 102336, Note_on_c, 1, 58, 110
3, 102716, Note_off_c, 1, 58, 100
3, 102720, Note_on_c, 1, 56, 110
3, 102908, Note_off_c, 1, 56, 100
3, 102912, Note_on_c, 1, 60, 110
3, 103292, Note_off_c, 1, 60, 100
3, 103296, Note_on_c, 1, 58, 110
3, 103484, Note_off_c, 1, 58, 100
3, 103488, Note_on_c, 1, 61, 110
3, 103868, Note_off_c, 1, 61, 100
3, 103872, Note_on_c, 1, 60, 110
3, 104060, Note_off_c, 1, 60, 100
3, 104064, Note_on_c, 1, 63, 110
3, 104252, Note_off_c, 1, 63, 100
3, 104256, Note_on_c, 1, 58, 80
3, 104444, Note_off_c, 1, 58, 100
3, 104448, Note_on_c, 1, 60, 80
3, 104636, Note_off_c, 1, 60, 100
3, 104640, Note_on_c, 1, 61, 80
3, 105020, Note_off_c, 1, 61, 100
3, 105024, Note_on_c, 1, 60, 80
3, 105212, Note_off_c, 1, 60, 100
3, 105216, Note_on_c, 1, 56, 80
3, 105596, Note_off_c, 1, 56, 100
3, 105600, Note_on_c, 1, 55, 80
3, 105788, Note_off_c, 1, 55, 100
3, 105792, Note_on_c, 1, 58, 80
3, 106172, Note_off_c, 1, 58, 100
3, 106176, Note_on_c, 1, 56, 80
3, 106364, Note_off_c, 1, 56, 100
3, 106368, Note_on_c, 1, 54, 80
3, 106556, Note_off_c, 1, 54, 100
3, 106560, Note_on_c, 1, 53, 80
3, 106748, Note_off_c, 1, 53, 100
3, 106752, Note_on_c, 1, 52, 80
3, 106940, Note_off_c, 1, 52, 100
3, 106944, Note_on_c, 1, 53, 80
3, 107132, Note_off_c, 1, 53, 100
3, 107136, Note_on_c, 1, 51, 80
3, 107324, Note_off_c, 1, 51, 100
3, 107328, Note_on_c, 1, 53, 80
3, 107516, Note_off_c, 1, 53, 100
3, 107520, Note_on_c, 1, 49, 80
3, 107900, Note_off_c, 1, 49, 100
3, 107904, Note_on_c, 1, 48, 80
3, 108092, Note_off_c, 1, 48, 100
3, 108096, Note_on_c, 1, 54, 80
3, 108476, Note_off_c, 1, 54, 100
3, 108480, Note_on_c, 1, 53, 80
3, 108668, Note_off_c, 1, 53, 100
3, 108672, Note_on_c, 1, 51, 80
3, 108860, Note_off_c, 1, 51, 100
3, 108864, Note_on_c, 1, 49, 80
3, 109052, Note_off_c, 1, 49, 100
3, 109056, Note_on_c, 1, 58, 80
3, 109244, Note_off_c, 1, 58, 100
3, 109248, Note_on_c, 1, 56, 80
3, 109436, Note_off_c, 1, 56, 100
3, 109440, Note_on_c, 1, 55, 80
3, 109628, Note_off_c, 1, 55, 100
3, 109632, Note_on_c, 1, 51, 80
3, 109820, Note_off_c, 1, 51, 100
3, 109824, Note_on_c, 1, 49, 80
3, 110012, Note_off_c, 1, 49, 100
3, 110016, Note_on_c, 1, 48, 80
3, 110204, Note_off_c, 1, 48, 100
3, 110208, Note_on_c, 1, 49, 80
3, 110396, Note_off_c, 1, 49, 100
3, 110400, Note_on_c, 1, 51, 80
3, 110588, Note_off_c, 1, 51, 100
3, 110592, Note_on_c, 1, 49, 80
3, 110780, Note_off_c, 1, 49, 100
3, 110784, Note_on_c, 1, 51, 80
3, 110972, Note_off_c, 1, 51, 100
3, 110976, Note_on_c, 1, 49, 80
3, 111356, Note_off_c, 1, 49, 100
3, 111360, Note_on_c, 1, 47, 80
3, 111548, Note_off_c, 1, 47, 100
3, 111552, Note_on_c, 1, 48, 80
3, 111932, Note_off_c, 1, 48, 100
3, 111936, Note_on_c, 1, 46, 80
3, 112124, Note_off_c, 1, 46, 100
3, 112128, Note_on_c, 1, 49, 80
3, 112316, Note_off_c, 1, 49, 100
3, 112320, Note_on_c, 1, 51, 80
3, 112508, Note_off_c, 1, 51, 100
3, 112512, Note_on_c, 1, 53, 80
3, 112700, Note_off_c, 1, 53, 100
3, 112704, Note_on_c, 1, 49, 80
3, 112892, Note_off_c, 1, 49, 100
3, 112896, Note_on_c, 1, 48, 80
3, 113084, Note_off_c, 1, 48, 100
3, 113088, Note_on_c, 1, 44, 80
3, 113276, Note_off_c, 1, 44, 100
3, 113472, Note_on_c, 1, 56, 80
3, 114044, Note_off_c, 1, 56, 100
3, 114048, Note_on_c, 1, 61, 80
3, 114620, Note_off_c, 1, 61, 100
3, 114624, Note_on_c, 1, 58, 80
3, 115196, Note_off_c, 1, 58, 100
3, 115200, Note_on_c, 1, 63, 80
3, 115580, Note_off_c, 1, 63, 100
3, 115584, Note_on_c, 1, 60, 80
3, 115964, Note_off_c, 1, 60, 100
3, 115968, Note_on_c, 1, 58, 80
3, 116156, Note_off_c, 1, 58, 100
3, 116160, Note_on_c, 1, 56, 80
3, 116348, Note_off_c, 1, 56, 100
3, 116352, Note_on_c, 1, 55, 80
3, 116540, Note_off_c, 1, 55, 100
3, 116544, Note_on_c, 1, 56, 80
3, 116732, Note_off_c, 1, 56, 100
3, 116736, Note_on_c, 1, 58, 80
3, 116924, Note_off_c, 1, 58, 100
3, 116928, Note_on_c, 1, 60, 80
3, 117116, Note_off_c, 1, 60, 100
3, 117120, Note_on_c, 1, 50, 80
3, 117308, Note_off_c, 1, 50, 100
3, 117312, Note_on_c, 1, 52, 80
3, 117500, Note_off_c, 1, 52, 100
3, 117504, Note_on_c, 1, 53, 80
3, 117692, Note_off_c, 1, 53, 100
3, 117696, Note_on_c, 1, 55, 80
3, 117884, Note_off_c, 1, 55, 100
3, 117888, Note_on_c, 1, 56, 80
3, 118076, Note_off_c, 1, 56, 100
3, 118080, Note_on_c, 1, 58, 80
3, 118268, Note_off_c, 1, 58, 100
3, 118272, Note_on_c, 1, 48, 80
3, 118460, Note_off_c, 1, 48, 100
3, 118464, Note_on_c, 1, 50, 80
3, 118652, Note_off_c, 1, 50, 100
3, 118656, Note_on_c, 1, 51, 80
3, 118656, Note_on_c, 1, 39, 80
3, 119036, Note_off_c, 1, 51, 100
3, 119036, Note_off_c, 1, 39, 100
3, 119040, Note_on_c, 1, 51, 83
3, 119040, Note_on_c, 1, 39, 83
3, 120188, Note_off_c, 1, 39, 100
3, 120192, Note_on_c, 1, 51, 92
3, 120192, Note_on_c, 1, 39, 92
3, 120932, Note_off_c, 1, 51, 100
3, 121340, Note_off_c, 1, 39, 100
3, 121340, Note_off_c, 1, 51, 100
3, 121344, Note_on_c, 1, 51, 101
3, 121344, Note_on_c, 1, 39, 101
3, 121724, Note_off_c, 1, 51, 100
3, 121724, Note_off_c, 1, 39, 100
3, 121728, Note_on_c, 1, 49, 104
3, 121728, Note_on_c, 1, 37, 104
3, 121916, Note_off_c, 1, 49, 100
3, 121916, Note_off_c, 1, 37, 100
3, 121920, Note_on_c, 1, 48, 106
3, 121920, Note_on_c, 1, 36, 106
3, 122108, Note_off_c, 1, 48, 100
3, 122108, Note_off_c, 1, 36, 100
3, 122112, Note_on_c, 1, 46, 107
3, 122112, Note_on_c, 1, 34, 107
3, 122300, Note_off_c, 1, 46, 100
3, 122300, Note_off_c, 1, 34, 100
3, 122304, Note_on_c, 1, 48, 109
3, 122304, Note_on_c, 1, 36, 109
3, 122492, Note_off_c, 1, 48, 100
3, 122492, Note_off_c, 1, 36, 100
3, 122496, Note_on_c, 1, 49, 110
3, 122496, Note_on_c, 1, 37, 110
3, 122684, Note_off_c, 1, 49, 100
3, 122684, Note_off_c, 1, 37, 100
3, 122688, Note_on_c, 1, 39, 110
3, 122688, Note_on_c, 1, 27, 110
3, 123260, Note_off_c, 1, 39, 100
3, 123260, Note_off_c, 1, 27, 100
3, 123264, Note_on_c, 1, 44, 110
3, 123264, Note_on_c, 1, 32, 110
3, 123836, Note_off_c, 1, 44, 100
3, 123836, Note_off_c, 1, 32, 100
3, 123840, Note_on_c, 1, 41, 110
3, 123840, Note_on_c, 1, 29, 110
3, 124412, Note_off_c, 1, 41, 100
3, 124412, Note_off_c, 1, 29, 100
3, 124416, Note_on_c, 1, 46, 110
3, 124416, Note_on_c, 1, 34, 110
3, 124988, Note_off_c, 1, 46, 100
3, 124988, Note_off_c, 1, 34, 100
3, 124992, Note_on_c, 1, 43, 110
3, 124992, Note_on_c, 1, 31, 110
3, 125564, Note_off_c, 1, 43, 100
3, 125564, Note_off_c, 1, 31, 100
3, 125568, Note_on_c, 1, 48, 110
3, 125568, Note_on_c, 1, 36, 110
3, 126140, Note_off_c, 1, 48, 100
3, 126140, Note_off_c, 1, 36, 100
3, 126144, Note_on_c, 1, 46, 110
3, 126144, Note_on_c, 1, 34, 110
3, 126524, Note_off_c, 1, 46, 100
3, 126524, Note_off_c, 1, 34, 100
3, 126528, Note_on_c, 1, 44, 110
3, 126528, Note_on_c, 1, 32, 110
3, 126716, Note_off_c, 1, 44, 100
3, 126716, Note_off_c, 1, 32, 100
3, 126720, Note_on_c, 1, 43, 110
3, 126720, Note_on_c, 1, 31, 110
3, 127292, Note_off_c, 1, 43, 100
3, 127292, Note_off_c, 1, 31, 100
3, 127296, Note_on_c, 1, 42, 80
3, 127296, Note_on_c, 1, 30, 80
3, 127868, Note_off_c, 1, 42, 100
3, 127868, Note_off_c, 1, 30, 100
3, 127872, Note_on_c, 1, 41, 80
3, 127872, Note_on_c, 1, 29, 80
3, 128252, Note_off_c, 1, 41, 100
3, 128252, Note_off_c, 1, 29, 100
3, 128256, Note_on_c, 1, 41, 80
3, 128256, Note_on_c, 1, 29, 80
3, 128444, Note_off_c, 1, 41, 100
3, 128444, Note_off_c, 1, 29, 100
3, 128448, Note_on_c, 1, 39, 80
3, 128448, Note_on_c, 1, 27, 80
3, 128828, Note_off_c, 1, 39, 100
3, 128828, Note_off_c, 1, 27, 100
3, 128832, Note_on_c, 1, 37, 80
3, 128832, Note_on_c, 1, 25, 80
3, 129020, Note_off_c, 1, 37, 100
3, 129020, Note_off_c, 1, 25, 100
3, 129024, Note_on_c, 1, 36, 80
3, 129024, Note_on_c, 1, 24, 80
3, 129404, Note_off_c, 1, 36, 100
3, 129404, Note_off_c, 1, 24, 100
3, 129408, Note_on_c, 1, 56, 80
3, 129408, Note_on_c, 1, 44, 80
3, 129596, Note_off_c, 1, 56, 100
3, 129596, Note_off_c, 1, 44, 100
3, 129600, Note_on_c, 1, 61, 80
3, 129600, Note_on_c, 1, 49, 80
3, 129980, Note_off_c, 1, 61, 100
3, 129980, Note_off_c, 1, 49, 100
3, 129984, Note_on_c, 1, 58, 92
3, 129984, Note_on_c, 1, 46, 92
3, 130172, Note_off_c, 1, 58, 100
3, 130172, Note_off_c, 1, 46, 100
3, 130176, Note_on_c, 1, 63, 98
3, 130176, Note_on_c, 1, 51, 98
3, 130556, Note_off_c, 1, 63, 100
3, 130556, Note_off_c, 1, 51, 100
3, 130560, Note_on_c, 1, 60, 110
3, 130560, Note_on_c, 1, 48, 110
3, 130748, Note_off_c, 1, 60, 100
3, 130748, Note_off_c, 1, 48, 100
3, 130752, Note_on_c, 1, 65, 110
3, 130752, Note_on_c, 1, 53, 110
3, 131132, Note_off_c, 1, 65, 100
3, 131132, Note_off_c, 1, 53, 100
3, 131136, Note_on_c, 1, 67, 110
3, 131136, Note_on_c, 1, 55, 110
3, 131324, Note_off_c, 1, 67, 100
3, 131324, Note_off_c, 1, 55, 100
3, 131328, Note_on_c, 1, 68, 110
3, 131328, Note_on_c, 1, 56, 110
3, 131708, Note_off_c, 1, 68, 100
3, 131708, Note_off_c, 1, 56, 100
3, 131712, Note_on_c, 1, 64, 110
3, 131712, Note_on_c, 1, 52, 110
3, 131900, Note_off_c, 1, 64, 100
3, 131900, Note_off_c, 1, 52, 100
3, 131904, Note_on_c, 1, 65, 110
3, 131904, Note_on_c, 1, 53, 110
3, 132092, Note_off_c, 1, 65, 100
3, 132092, Note_off_c, 1, 53, 100
3, 132096, Note_on_c, 1, 61, 110
3, 132096, Note_on_c, 1, 49, 110
3, 132284, Note_off_c, 1, 61, 100
3, 132284, Note_off_c, 1, 49, 100
3, 132288, Note_on_c, 1, 62, 110
3, 132288, Note_on_c, 1, 50, 110
3, 132476, Note_off_c, 1, 62, 100
3, 132476, Note_off_c, 1, 50, 100
3, 132480, Control_c, 1, 64, 127
3, 132480, Note_on_c, 1, 63, 110
3, 132480, Note_on_c, 1, 51, 110
3, 133052, Note_off_c, 1, 63, 100
3, 133052, Note_off_c, 1, 51, 100
3, 133056, Note_on_c, 1, 39, 120
3, 133056, Note_on_c, 1, 51, 120
3, 133436, Note_off_c, 1, 39, 100
3, 133436, Note_off_c, 1, 51, 100
3, 134208, Note_on_c, 1, 49, 106
3, 134400, Note_on_c, 1, 46, 104
3, 134592, Note_on_c, 1, 43, 101
3, 134784, Note_on_c, 1, 39, 99
3, 134972, Note_off_c, 1, 43, 100
3, 134972, Note_off_c, 1, 46, 100
3, 134972, Note_off_c, 1, 49, 100
3, 134976, Note_on_c, 1, 43, 97
3, 135168, Note_on_c, 1, 46, 94
3, 135360, Note_on_c, 1, 49, 92
3, 135552, Note_on_c, 1, 55, 90
3, 135744, Note_on_c, 1, 58, 87
3, 136508, Note_off_c, 1, 39, 100
3, 136508, Note_off_c, 1, 43, 100
3, 136508, Note_off_c, 1, 46, 100
3, 136508, Note_off_c, 1, 49, 100
3, 136508, Note_off_c, 1, 55, 100
3, 136508, Note_off_c, 1, 58, 100
3, 136512, Note_on_c, 1, 39, 80
3, 136512, Note_on_c, 1, 51, 80
3, 138236, Note_off_c, 1, 39, 64
3, 138236, Note_off_c, 1, 51, 64
3, 138236, Control_c, 1, 64, 0
3, 138240, Control_c, 1, 64, 127
3, 138240, Note_on_c, 1, 50, 80
3, 138240, Note_on_c, 1, 38, 80
3, 138524, Note_off_c, 1, 50, 100
3, 138524, Note_off_c, 1, 38, 100
3, 138816, Note_on_c, 1, 50, 80
3, 138908, Note_off_c, 1, 50, 100
3, 138912, Note_on_c, 1, 46, 80
3, 139008, Note_on_c, 1, 43, 80
3, 139104, Note_on_c, 1, 38, 80
3, 139196, Note_off_c, 1, 46, 100
3, 139196, Note_off_c, 1, 43, 100
3, 139196, Note_off_c, 1, 38, 100
3, 139200, Note_on_c, 1, 46, 80
3, 139200, Note_on_c, 1, 38, 80
3, 139200, Note_on_c, 1, 34, 80
3, 139292, Note_off_c, 1, 46, 100
3, 139292, Note_off_c, 1, 38, 100
3, 139292, Note_off_c, 1, 34, 100
3, 139296, Note_on_c, 1, 46, 80
3, 139296, Note_on_c, 1, 38, 80
3, 139296, Note_on_c, 1, 34, 80
3, 139388, Note_off_c, 1, 46, 100
3, 139388, Note_off_c, 1, 38, 100
3, 139388, Note_off_c, 1, 34, 100
3, 139392, Note_on_c, 1, 46, 80
3, 139392, Note_on_c, 1, 38, 80
3, 139392, Note_on_c, 1, 34, 80
3, 139484, Note_off_c, 1, 46, 100
3, 139484, Note_off_c, 1, 38, 100
3, 139484, Note_off_c, 1, 34, 100
3, 139488, Note_on_c, 1, 43, 80
3, 139488, Note_on_c, 1, 38, 80
3, 139488, Note_on_c, 1, 31, 80
3, 139580, Note_off_c, 1, 43, 100
3, 139580, Note_off_c, 1, 38, 100
3, 139580, Note_off_c, 1, 31, 100
3, 139584, Note_on_c, 1, 46, 80
3, 139584, Note_on_c, 1, 43, 80
3, 139676, Note_off_c, 1, 46, 100
3, 139676, Note_off_c, 1, 43, 100
3, 139680, Note_on_c, 1, 46, 80
3, 139680, Note_on_c, 1, 43, 80
3, 139772, Note_off_c, 1, 46, 100
3, 139772, Note_off_c, 1, 43, 100
3, 139776, Note_on_c, 1, 46, 80
3, 139776, Note_on_c, 1, 43, 80
3, 139868, Note_off_c, 1, 46, 100
3, 139868, Note_off_c, 1, 43, 100
3, 139872, Note_on_c, 1, 46, 80
3, 139872, Note_on_c, 1, 43, 80
3, 139964, Note_off_c, 1, 46, 100
3, 139964, Note_off_c, 1, 43, 100
3, 139968, Key_signature, -2, "minor"
3, 139968, Note_on_c, 1, 50, 70
3, 139968, Note_on_c, 1, 46, 70
3, 139968, Note_on_c, 1, 43, 70
3, 140060, Note_off_c, 1, 50, 100
3, 140060, Note_off_c, 1, 46, 100
3, 140060, Note_off_c, 1, 43, 100
3, 140064, Note_on_c, 1, 50, 70
3, 140064, Note_on_c, 1, 46, 70
3, 140064, Note_on_c, 1, 43, 70
3, 140156, Note_off_c, 1, 50, 100
3, 140156, Note_off_c, 1, 46, 100
3, 140156, Note_off_c, 1, 43, 100
3, 140160, Note_on_c, 1, 50, 70
3, 140160, Note_on_c, 1, 46, 70
3, 140160, Note_on_c, 1, 43, 70
3, 140252, Note_off_c, 1, 50, 100
3, 140252, Note_off_c, 1, 46, 100
3, 140252, Note_off_c, 1, 43, 100
3, 140256, Note_on_c, 1, 50, 70
3, 140256, Note_on_c, 1, 46, 70
3, 140256, Note_on_c, 1, 43, 70
3, 140348, Note_off_c, 1, 50, 100
3, 140348, Note_off_c, 1, 46, 100
3, 140348, Note_off_c, 1, 43, 100
3, 140352, Note_on_c, 1, 50, 70
3, 140352, Note_on_c, 1, 46, 70
3, 140352, Note_on_c, 1, 43, 70
3, 140444, Note_off_c, 1, 50, 100
3, 140444, Note_off_c, 1, 46, 100
3, 140444, Note_off_c, 1, 43, 100
3, 140448, Note_on_c, 1, 50, 70
3, 140448, Note_on_c, 1, 46, 70
3, 140448, Note_on_c, 1, 43, 70
3, 140540, Note_off_c, 1, 50, 100
3, 140540, Note_off_c, 1, 46, 100
3, 140540, Note_off_c, 1, 43, 100
3, 140544, Note_on_c, 1, 50, 70
3, 140544, Note_on_c, 1, 46, 70
3, 140544, Note_on_c, 1, 43, 70
3, 140636, Note_off_c, 1, 50, 100
3, 140636, Note_off_c, 1, 46, 100
3, 140636, Note_off_c, 1, 43, 100
3, 140640, Note_on_c, 1, 50, 70
3, 140640, Note_on_c, 1, 46, 70
3, 140640, Note_on_c, 1, 43, 70
3, 140732, Note_off_c, 1, 50, 100
3, 140732, Note_off_c, 1, 46, 100
3, 140732, Note_off_c, 1, 43, 100
3, 140736, Note_on_c, 1, 50, 70
3, 140736, Note_on_c, 1, 46, 70
3, 140736, Note_on_c, 1, 43, 70
3, 140828, Note_off_c, 1, 50, 100
3, 140828, Note_off_c, 1, 46, 100
3, 140828, Note_off_c, 1, 43, 100
3, 140830, Control_c, 1, 64, 0
3, 140832, Note_on_c, 1, 50, 70
3, 140832, Note_on_c, 1, 46, 70
3, 140832, Note_on_c, 1, 43, 70
3, 140924, Note_off_c, 1, 50, 100
3, 140924, Note_off_c, 1, 46, 100
3, 140924, Note_off_c, 1, 43, 100
3, 140928, Note_on_c, 1, 50, 70
3, 140928, Note_on_c, 1, 46, 70
3, 140928, Note_on_c, 1, 43, 70
3, 141020, Note_off_c, 1, 50, 100
3, 141020, Note_off_c, 1, 46, 100
3, 141020, Note_off_c, 1, 43, 100
3, 141024, Note_on_c, 1, 50, 70
3, 141024, Note_on_c, 1, 46, 70
3, 141024, Note_on_c, 1, 43, 70
3, 141116, Note_off_c, 1, 50, 100
3, 141116, Note_off_c, 1, 46, 100
3, 141116, Note_off_c, 1, 43, 100
3, 141120, Note_on_c, 1, 45, 70
3, 141120, Note_on_c, 1, 48, 70
3, 141120, Note_on_c, 1, 50, 70
3, 141212, Note_off_c, 1, 45, 100
3, 141212, Note_off_c, 1, 48, 100
3, 141212, Note_off_c, 1, 50, 100
3, 141216, Note_on_c, 1, 45, 71
3, 141216, Note_on_c, 1, 48, 71
3, 141216, Note_on_c, 1, 50, 71
3, 141216, Note_on_c, 1, 54, 71
3, 141308, Note_off_c, 1, 45, 100
3, 141308, Note_off_c, 1, 48, 100
3, 141308, Note_off_c, 1, 50, 100
3, 141308, Note_off_c, 1, 54, 100
3, 141312, Note_on_c, 1, 45, 72
3, 141312, Note_on_c, 1, 48, 72
3, 141312, Note_on_c, 1, 50, 72
3, 141312, Note_on_c, 1, 54, 72
3, 141404, Note_off_c, 1, 45, 100
3, 141404, Note_off_c, 1, 48, 100
3, 141404, Note_off_c, 1, 50, 100
3, 141404, Note_off_c, 1, 54, 100
3, 141408, Note_on_c, 1, 45, 73
3, 141408, Note_on_c, 1, 48, 73
3, 141408, Note_on_c, 1, 50, 73
3, 141408, Note_on_c, 1, 54, 73
3, 141500, Note_off_c, 1, 45, 100
3, 141500, Note_off_c, 1, 48, 100
3, 141500, Note_off_c, 1, 50, 100
3, 141500, Note_off_c, 1, 54, 100
3, 141504, Note_on_c, 1, 45, 74
3, 141504, Note_on_c, 1, 48, 74
3, 141504, Note_on_c, 1, 50, 74
3, 141504, Note_on_c, 1, 54, 74
3, 141596, Note_off_c, 1, 45, 100
3, 141596, Note_off_c, 1, 48, 100
3, 141596, Note_off_c, 1, 50, 100
3, 141596, Note_off_c, 1, 54, 100
3, 141600, Note_on_c, 1, 45, 75
3, 141600, Note_on_c, 1, 48, 75
3, 141600, Note_on_c, 1, 50, 75
3, 141600, Note_on_c, 1, 54, 75
3, 141692, Note_off_c, 1, 45, 100
3, 141692, Note_off_c, 1, 48, 100
3, 141692, Note_off_c, 1, 50, 100
3, 141692, Note_off_c, 1, 54, 100
3, 141696, Note_on_c, 1, 45, 77
3, 141696, Note_on_c, 1, 48, 77
3, 141696, Note_on_c, 1, 50, 77
3, 141696, Note_on_c, 1, 54, 77
3, 141788, Note_off_c, 1, 45, 100
3, 141788, Note_off_c, 1, 48, 100
3, 141788, Note_off_c, 1, 50, 100
3, 141788, Note_off_c, 1, 54, 100
3, 141792, Note_on_c, 1, 45, 78
3, 141792, Note_on_c, 1, 48, 78
3, 141792, Note_on_c, 1, 50, 78
3, 141792, Note_on_c, 1, 54, 78
3, 141884, Note_off_c, 1, 45, 100
3, 141884, Note_off_c, 1, 48, 100
3, 141884, Note_off_c, 1, 50, 100
3, 141884, Note_off_c, 1, 54, 100
3, 141888, Note_on_c, 1, 45, 79
3, 141888, Note_on_c, 1, 48, 79
3, 141888, Note_on_c, 1, 50, 79
3, 141888, Note_on_c, 1, 54, 79
3, 141980, Note_off_c, 1, 45, 100
3, 141980, Note_off_c, 1, 48, 100
3, 141980, Note_off_c, 1, 50, 100
3, 141980, Note_off_c, 1, 54, 100
3, 141984, Note_on_c, 1, 45, 70
3, 141984, Note_on_c, 1, 48, 70
3, 141984, Note_on_c, 1, 50, 70
3, 141984, Note_on_c, 1, 54, 70
3, 142076, Note_off_c, 1, 45, 100
3, 142076, Note_off_c, 1, 48, 100
3, 142076, Note_off_c, 1, 50, 100
3, 142076, Note_off_c, 1, 54, 100
3, 142080, Note_on_c, 1, 45, 70
3, 142080, Note_on_c, 1, 48, 70
3, 142080, Note_on_c, 1, 50, 70
3, 142080, Note_on_c, 1, 54, 70
3, 142172, Note_off_c, 1, 45, 100
3, 142172, Note_off_c, 1, 48, 100
3, 142172, Note_off_c, 1, 50, 100
3, 142172, Note_off_c, 1, 54, 100
3, 142176, Note_on_c, 1, 45, 70
3, 142176, Note_on_c, 1, 48, 70
3, 142176, Note_on_c, 1, 50, 70
3, 142176, Note_on_c, 1, 54, 70
3, 142268, Note_off_c, 1, 45, 100
3, 142268, Note_off_c, 1, 48, 100
3, 142268, Note_off_c, 1, 50, 100
3, 142268, Note_off_c, 1, 54, 100
3, 142272, Note_on_c, 1, 55, 70
3, 142272, Note_on_c, 1, 50, 70
3, 142272, Note_on_c, 1, 46, 70
3, 142364, Note_off_c, 1, 55, 100
3, 142364, Note_off_c, 1, 50, 100
3, 142364, Note_off_c, 1, 46, 100
3, 142368, Note_on_c, 1, 55, 71
3, 142368, Note_on_c, 1, 50, 71
3, 142368, Note_on_c, 1, 46, 71
3, 142460, Note_off_c, 1, 55, 100
3, 142460, Note_off_c, 1, 50, 100
3, 142460, Note_off_c, 1, 46, 100
3, 142464, Note_on_c, 1, 55, 72
3, 142464, Note_on_c, 1, 50, 72
3, 142464, Note_on_c, 1, 46, 72
3, 142556, Note_off_c, 1, 55, 100
3, 142556, Note_off_c, 1, 50, 100
3, 142556, Note_off_c, 1, 46, 100
3, 142560, Note_on_c, 1, 55, 74
3, 142560, Note_on_c, 1, 50, 74
3, 142560, Note_on_c, 1, 47, 74
3, 142652, Note_off_c, 1, 55, 100
3, 142652, Note_off_c, 1, 50, 100
3, 142652, Note_off_c, 1, 47, 100
3, 142656, Note_on_c, 1, 55, 75
3, 142656, Note_on_c, 1, 50, 75
3, 142656, Note_on_c, 1, 47, 75
3, 142748, Note_off_c, 1, 55, 100
3, 142748, Note_off_c, 1, 50, 100
3, 142748, Note_off_c, 1, 47, 100
3, 142752, Note_on_c, 1, 55, 76
3, 142752, Note_on_c, 1, 50, 76
3, 142752, Note_on_c, 1, 47, 76
3, 142844, Note_off_c, 1, 55, 100
3, 142844, Note_off_c, 1, 50, 100
3, 142844, Note_off_c, 1, 47, 100
3, 142848, Note_on_c, 1, 55, 78
3, 142848, Note_on_c, 1, 51, 78
3, 142848, Note_on_c, 1, 48, 78
3, 142940, Note_off_c, 1, 55, 100
3, 142940, Note_off_c, 1, 51, 100
3, 142940, Note_off_c, 1, 48, 100
3, 142944, Note_on_c, 1, 55, 79
3, 142944, Note_on_c, 1, 51, 79
3, 142944, Note_on_c, 1, 48, 79
3, 143036, Note_off_c, 1, 55, 100
3, 143036, Note_off_c, 1, 51, 100
3, 143036, Note_off_c, 1, 48, 100
3, 143040, Note_on_c, 1, 55, 81
3, 143040, Note_on_c, 1, 51, 81
3, 143040, Note_on_c, 1, 48, 81
3, 143132, Note_off_c, 1, 55, 100
3, 143132, Note_off_c, 1, 51, 100
3, 143132, Note_off_c, 1, 48, 100
3, 143136, Note_on_c, 1, 60, 82
3, 143136, Note_on_c, 1, 55, 82
3, 143136, Note_on_c, 1, 51, 82
3, 143228, Note_off_c, 1, 60, 100
3, 143228, Note_off_c, 1, 55, 100
3, 143228, Note_off_c, 1, 51, 100
3, 143232, Note_on_c, 1, 60, 83
3, 143232, Note_on_c, 1, 55, 83
3, 143232, Note_on_c, 1, 51, 83
3, 143324, Note_off_c, 1, 60, 100
3, 143324, Note_off_c, 1, 55, 100
3, 143324, Note_off_c, 1, 51, 100
3, 143328, Note_on_c, 1, 60, 85
3, 143328, Note_on_c, 1, 55, 85
3, 143328, Note_on_c, 1, 51, 85
3, 143420, Note_off_c, 1, 60, 100
3, 143420, Note_off_c, 1, 55, 100
3, 143420, Note_off_c, 1, 51, 100
3, 143424, Note_on_c, 1, 58, 86
3, 143424, Note_on_c, 1, 55, 86
3, 143424, Note_on_c, 1, 50, 86
3, 143516, Note_off_c, 1, 58, 100
3, 143516, Note_off_c, 1, 55, 100
3, 143516, Note_off_c, 1, 50, 100
3, 143520, Note_on_c, 1, 58, 88
3, 143520, Note_on_c, 1, 55, 88
3, 143520, Note_on_c, 1, 50, 88
3, 143612, Note_off_c, 1, 58, 100
3, 143612, Note_off_c, 1, 55, 100
3, 143612, Note_off_c, 1, 50, 100
3, 143616, Note_on_c, 1, 58, 89
3, 143616, Note_on_c, 1, 55, 89
3, 143616, Note_on_c, 1, 50, 89
3, 143708, Note_off_c, 1, 58, 100
3, 143708, Note_off_c, 1, 55, 100
3, 143708, Note_off_c, 1, 50, 100
3, 143712, Note_on_c, 1, 58, 90
3, 143712, Note_on_c, 1, 55, 90
3, 143712, Note_on_c, 1, 50, 90
3, 143804, Note_off_c, 1, 58, 100
3, 143804, Note_off_c, 1, 55, 100
3, 143804, Note_off_c, 1, 50, 100
3, 143808, Note_on_c, 1, 58, 90
3, 143808, Note_on_c, 1, 55, 90
3, 143808, Note_on_c, 1, 50, 90
3, 143900, Note_off_c, 1, 58, 100
3, 143900, Note_off_c, 1, 55, 100
3, 143900, Note_off_c, 1, 50, 100
3, 143904, Note_on_c, 1, 58, 81
3, 143904, Note_on_c, 1, 55, 81
3, 143904, Note_on_c, 1, 50, 81
3, 143996, Note_off_c, 1, 58, 100
3, 143996, Note_off_c, 1, 55, 100
3, 143996, Note_off_c, 1, 50, 100
3, 144000, Note_on_c, 1, 58, 71
3, 144000, Note_on_c, 1, 55, 71
3, 144000, Note_on_c, 1, 50, 71
3, 144092, Note_off_c, 1, 58, 100
3, 144092, Note_off_c, 1, 55, 100
3, 144092, Note_off_c, 1, 50, 100
3, 144096, Note_on_c, 1, 58, 70
3, 144096, Note_on_c, 1, 55, 70
3, 144096, Note_on_c, 1, 50, 70
3, 144188, Note_off_c, 1, 58, 100
3, 144188, Note_off_c, 1, 55, 100
3, 144188, Note_off_c, 1, 50, 100
3, 144192, Note_on_c, 1, 58, 70
3, 144192, Note_on_c, 1, 55, 70
3, 144192, Note_on_c, 1, 50, 70
3, 144284, Note_off_c, 1, 58, 100
3, 144284, Note_off_c, 1, 55, 100
3, 144284, Note_off_c, 1, 50, 100
3, 144288, Note_on_c, 1, 57, 70
3, 144288, Note_on_c, 1, 54, 70
3, 144288, Note_on_c, 1, 50, 70
3, 144380, Note_off_c, 1, 57, 100
3, 144380, Note_off_c, 1, 54, 100
3, 144380, Note_off_c, 1, 50, 100
3, 144384, Note_on_c, 1, 57, 70
3, 144384, Note_on_c, 1, 54, 70
3, 144384, Note_on_c, 1, 50, 70
3, 144476, Note_off_c, 1, 57, 100
3, 144476, Note_off_c, 1, 54, 100
3, 144476, Note_off_c, 1, 50, 100
3, 144480, Note_on_c, 1, 57, 70
3, 144480, Note_on_c, 1, 54, 70
3, 144480, Note_on_c, 1, 50, 70
3, 144572, Note_off_c, 1, 57, 100
3, 144572, Note_off_c, 1, 54, 100
3, 144572, Note_off_c, 1, 50, 100
3, 144576, Note_on_c, 1, 55, 70
3, 144576, Note_on_c, 1, 50, 70
3, 144576, Note_on_c, 1, 46, 70
3, 144576, Note_on_c, 1, 43, 70
3, 144668, Note_off_c, 1, 55, 100
3, 144668, Note_off_c, 1, 50, 100
3, 144668, Note_off_c, 1, 46, 100
3, 144668, Note_off_c, 1, 43, 100
3, 144672, Note_on_c, 1, 55, 70
3, 144672, Note_on_c, 1, 50, 70
3, 144672, Note_on_c, 1, 46, 70
3, 144672, Note_on_c, 1, 43, 70
3, 144764, Note_off_c, 1, 55, 100
3, 144764, Note_off_c, 1, 50, 100
3, 144764, Note_off_c, 1, 46, 100
3, 144764, Note_off_c, 1, 43, 100
3, 144768, Note_on_c, 1, 55, 70
3, 144768, Note_on_c, 1, 50, 70
3, 144768, Note_on_c, 1, 46, 70
3, 144768, Note_on_c, 1, 43, 70
3, 144860, Note_off_c, 1, 55, 100
3, 144860, Note_off_c, 1, 50, 100
3, 144860, Note_off_c, 1, 46, 100
3, 144860, Note_off_c, 1, 43, 100
3, 144864, Note_on_c, 1, 51, 70
3, 144864, Note_on_c, 1, 46, 70
3, 144864, Note_on_c, 1, 43, 70
3, 144956, Note_off_c, 1, 51, 100
3, 144956, Note_off_c, 1, 46, 100
3, 144956, Note_off_c, 1, 43, 100
3, 144960, Note_on_c, 1, 51, 70
3, 144960, Note_on_c, 1, 46, 70
3, 144960, Note_on_c, 1, 43, 70
3, 145052, Note_off_c, 1, 51, 100
3, 145052, Note_off_c, 1, 46, 100
3, 145052, Note_off_c, 1, 43, 100
3, 145056, Note_on_c, 1, 51, 70
3, 145056, Note_on_c, 1, 46, 70
3, 145056, Note_on_c, 1, 43, 70
3, 145148, Note_off_c, 1, 51, 100
3, 145148, Note_off_c, 1, 46, 100
3, 145148, Note_off_c, 1, 43, 100
3, 145152, Note_on_c, 1, 51, 70
3, 145152, Note_on_c, 1, 46, 70
3, 145152, Note_on_c, 1, 41, 70
3, 145244, Note_off_c, 1, 51, 100
3, 145244, Note_off_c, 1, 46, 100
3, 145244, Note_off_c, 1, 41, 100
3, 145248, Note_on_c, 1, 51, 70
3, 145248, Note_on_c, 1, 46, 70
3, 145248, Note_on_c, 1, 41, 70
3, 145340, Note_off_c, 1, 51, 100
3, 145340, Note_off_c, 1, 46, 100
3, 145340, Note_off_c, 1, 41, 100
3, 145344, Note_on_c, 1, 51, 70
3, 145344, Note_on_c, 1, 46, 70
3, 145344, Note_on_c, 1, 41, 70
3, 145436, Note_off_c, 1, 51, 100
3, 145436, Note_off_c, 1, 46, 100
3, 145436, Note_off_c, 1, 41, 100
3, 145440, Note_on_c, 1, 51, 70
3, 145440, Note_on_c, 1, 45, 70
3, 145440, Note_on_c, 1, 41, 70
3, 145532, Note_off_c, 1, 51, 100
3, 145532, Note_off_c, 1, 45, 100
3, 145532, Note_off_c, 1, 41, 100
3, 145536, Note_on_c, 1, 51, 70
3, 145536, Note_on_c, 1, 45, 70
3, 145536, Note_on_c, 1, 41, 70
3, 145628, Note_off_c, 1, 51, 100
3, 145628, Note_off_c, 1, 45, 100
3, 145628, Note_off_c, 1, 41, 100
3, 145632, Note_on_c, 1, 51, 70
3, 145632, Note_on_c, 1, 45, 70
3, 145632, Note_on_c, 1, 41, 70
3, 145724, Note_off_c, 1, 51, 100
3, 145724, Note_off_c, 1, 45, 100
3, 145724, Note_off_c, 1, 41, 100
3, 145728, Note_on_c, 1, 50, 70
3, 145728, Note_on_c, 1, 46, 70
3, 145728, Note_on_c, 1, 41, 70
3, 145820, Note_off_c, 1, 50, 100
3, 145820, Note_off_c, 1, 46, 100
3, 145820, Note_off_c, 1, 41, 100
3, 145824, Note_on_c, 1, 50, 71
3, 145824, Note_on_c, 1, 46, 71
3, 145824, Note_on_c, 1, 41, 71
3, 145916, Note_off_c, 1, 50, 100
3, 145916, Note_off_c, 1, 46, 100
3, 145916, Note_off_c, 1, 41, 100
3, 145920, Note_on_c, 1, 50, 73
3, 145920, Note_on_c, 1, 46, 73
3, 145920, Note_on_c, 1, 41, 73
3, 146012, Note_off_c, 1, 50, 100
3, 146012, Note_off_c, 1, 46, 100
3, 146012, Note_off_c, 1, 41, 100
3, 146016, Note_on_c, 1, 50, 75
3, 146016, Note_on_c, 1, 46, 75
3, 146016, Note_on_c, 1, 44, 75
3, 146016, Note_on_c, 1, 41, 75
3, 146108, Note_off_c, 1, 50, 100
3, 146108, Note_off_c, 1, 46, 100
3, 146108, Note_off_c, 1, 44, 100
3, 146108, Note_off_c, 1, 41, 100
3, 146112, Note_on_c, 1, 50, 77
3, 146112, Note_on_c, 1, 46, 77
3, 146112, Note_on_c, 1, 44, 77
3, 146112, Note_on_c, 1, 41, 77
3, 146204, Note_off_c, 1, 50, 100
3, 146204, Note_off_c, 1, 46, 100
3, 146204, Note_off_c, 1, 44, 100
3, 146204, Note_off_c, 1, 41, 100
3, 146208, Note_on_c, 1, 50, 79
3, 146208, Note_on_c, 1, 46, 79
3, 146208, Note_on_c, 1, 44, 79
3, 146208, Note_on_c, 1, 41, 79
3, 146300, Note_off_c, 1, 50, 100
3, 146300, Note_off_c, 1, 46, 100
3, 146300, Note_off_c, 1, 44, 100
3, 146300, Note_off_c, 1, 41, 100
3, 146304, Note_on_c, 1, 51, 80
3, 146304, Note_on_c, 1, 46, 80
3, 146304, Note_on_c, 1, 43, 80
3, 146396, Note_off_c, 1, 51, 100
3, 146396, Note_off_c, 1, 46, 100
3, 146396, Note_off_c, 1, 43, 100
3, 146400, Note_on_c, 1, 51, 82
3, 146400, Note_on_c, 1, 46, 82
3, 146400, Note_on_c, 1, 43, 82
3, 146492, Note_off_c, 1, 51, 100
3, 146492, Note_off_c, 1, 46, 100
3, 146492, Note_off_c, 1, 43, 100
3, 146496, Note_on_c, 1, 51, 84
3, 146496, Note_on_c, 1, 46, 84
3, 146496, Note_on_c, 1, 43, 84
3, 146588, Note_off_c, 1, 51, 100
3, 146588, Note_off_c, 1, 46, 100
3, 146588, Note_off_c, 1, 43, 100
3, 146592, Note_on_c, 1, 51, 86
3, 146592, Note_on_c, 1, 46, 86
3, 146592, Note_on_c, 1, 39, 86
3, 146684, Note_off_c, 1, 51, 100
3, 146684, Note_off_c, 1, 46, 100
3, 146684, Note_off_c, 1, 39, 100
3, 146688, Note_on_c, 1, 51, 88
3, 146688, Note_on_c, 1, 46, 88
3, 146688, Note_on_c, 1, 39, 88
3, 146780, Note_off_c, 1, 51, 100
3, 146780, Note_off_c, 1, 46, 100
3, 146780, Note_off_c, 1, 39, 100
3, 146784, Note_on_c, 1, 51, 90
3, 146784, Note_on_c, 1, 46, 90
3, 146784, Note_on_c, 1, 39, 90
3, 146876, Note_off_c, 1, 51, 100
3, 146876, Note_off_c, 1, 46, 100
3, 146876, Note_off_c, 1, 39, 100
3, 146880, Note_on_c, 1, 50, 91
3, 146880, Note_on_c, 1, 46, 91
3, 146880, Note_on_c, 1, 38, 91
3, 146972, Note_off_c, 1, 50, 100
3, 146972, Note_off_c, 1, 46, 100
3, 146972, Note_off_c, 1, 38, 100
3, 146976, Note_on_c, 1, 50, 93
3, 146976, Note_on_c, 1, 46, 93
3, 146976, Note_on_c, 1, 38, 93
3, 147068, Note_off_c, 1, 50, 100
3, 147068, Note_off_c, 1, 46, 100
3, 147068, Note_off_c, 1, 38, 100
3, 147072, Note_on_c, 1, 50, 95
3, 147072, Note_on_c, 1, 46, 95
3, 147072, Note_on_c, 1, 38, 95
3, 147164, Note_off_c, 1, 50, 100
3, 147164, Note_off_c, 1, 46, 100
3, 147164, Note_off_c, 1, 38, 100
3, 147168, Note_on_c, 1, 46, 97
3, 147168, Note_on_c, 1, 51, 97
3, 147168, Note_on_c, 1, 39, 97
3, 147260, Note_off_c, 1, 46, 100
3, 147260, Note_off_c, 1, 51, 100
3, 147260, Note_off_c, 1, 39, 100
3, 147264, Note_on_c, 1, 46, 99
3, 147264, Note_on_c, 1, 51, 99
3, 147264, Note_on_c, 1, 39, 99
3, 147356, Note_off_c, 1, 46, 100
3, 147356, Note_off_c, 1, 51, 100
3, 147356, Note_off_c, 1, 39, 100
3, 147360, Note_on_c, 1, 46, 100
3, 147360, Note_on_c, 1, 51, 100
3, 147360, Note_on_c, 1, 39, 100
3, 147452, Note_off_c, 1, 46, 100
3, 147452, Note_off_c, 1, 51, 100
3, 147452, Note_off_c, 1, 39, 100
3, 147456, Note_on_c, 1, 50, 100
3, 147456, Note_on_c, 1, 46, 100
3, 147456, Note_on_c, 1, 41, 100
3, 147548, Note_off_c, 1, 50, 100
3, 147548, Note_off_c, 1, 46, 100
3, 147548, Note_off_c, 1, 41, 100
3, 147552, Note_on_c, 1, 50, 100
3, 147552, Note_on_c, 1, 46, 100
3, 147552, Note_on_c, 1, 41, 100
3, 147644, Note_off_c, 1, 50, 100
3, 147644, Note_off_c, 1, 46, 100
3, 147644, Note_off_c, 1, 41, 100
3, 147648, Note_on_c, 1, 50, 100
3, 147648, Note_on_c, 1, 46, 100
3, 147648, Note_on_c, 1, 41, 100
3, 147740, Note_off_c, 1, 50, 100
3, 147740, Note_off_c, 1, 46, 100
3, 147740, Note_off_c, 1, 41, 100
3, 147744, Note_on_c, 1, 51, 89
3, 147744, Note_on_c, 1, 48, 89
3, 147744, Note_on_c, 1, 42, 89
3, 147836, Note_off_c, 1, 51, 100
3, 147836, Note_off_c, 1, 48, 100
3, 147836, Note_off_c, 1, 42, 100
3, 147840, Note_on_c, 1, 51, 78
3, 147840, Note_on_c, 1, 48, 78
3, 147840, Note_on_c, 1, 42, 78
3, 147932, Note_off_c, 1, 51, 100
3, 147932, Note_off_c, 1, 48, 100
3, 147932, Note_off_c, 1, 42, 100
3, 147936, Note_on_c, 1, 51, 66
3, 147936, Note_on_c, 1, 48, 66
3, 147936, Note_on_c, 1, 42, 66
3, 147936, Note_on_c, 1, 54, 66
3, 148028, Note_off_c, 1, 51, 100
3, 148028, Note_off_c, 1, 48, 100
3, 148028, Note_off_c, 1, 42, 100
3, 148028, Note_off_c, 1, 54, 100
3, 148032, Note_on_c, 1, 54, 60
3, 148032, Note_on_c, 1, 51, 60
3, 148032, Note_on_c, 1, 48, 60
3, 148032, Note_on_c, 1, 42, 60
3, 148124, Note_off_c, 1, 54, 100
3, 148124, Note_off_c, 1, 51, 100
3, 148124, Note_off_c, 1, 48, 100
3, 148124, Note_off_c, 1, 42, 100
3, 148128, Note_on_c, 1, 54, 60
3, 148128, Note_on_c, 1, 51, 60
3, 148128, Note_on_c, 1, 48, 60
3, 148128, Note_on_c, 1, 42, 60
3, 148220, Note_off_c, 1, 54, 100
3, 148220, Note_off_c, 1, 51, 100
3, 148220, Note_off_c, 1, 48, 100
3, 148220, Note_off_c, 1, 42, 100
3, 148224, Note_on_c, 1, 51, 60
3, 148224, Note_on_c, 1, 53, 60
3, 148224, Note_on_c, 1, 48, 60
3, 148224, Note_on_c, 1, 41, 60
3, 148316, Note_off_c, 1, 51, 100
3, 148316, Note_off_c, 1, 53, 100
3, 148316, Note_off_c, 1, 48, 100
3, 148316, Note_off_c, 1, 41, 100
3, 148320, Note_on_c, 1, 53, 60
3, 148320, Note_on_c, 1, 51, 60
3, 148320, Note_on_c, 1, 48, 60
3, 148320, Note_on_c, 1, 41, 60
3, 148412, Note_off_c, 1, 53, 100
3, 148412, Note_off_c, 1, 51, 100
3, 148412, Note_off_c, 1, 48, 100
3, 148412, Note_off_c, 1, 41, 100
3, 148416, Note_on_c, 1, 51, 60
3, 148416, Note_on_c, 1, 48, 60
3, 148416, Note_on_c, 1, 45, 60
3, 148416, Note_on_c, 1, 41, 60
3, 148508, Note_off_c, 1, 51, 100
3, 148508, Note_off_c, 1, 48, 100
3, 148508, Note_off_c, 1, 45, 100
3, 148508, Note_off_c, 1, 41, 100
3, 148512, Note_on_c, 1, 51, 60
3, 148512, Note_on_c, 1, 45, 60
3, 148512, Note_on_c, 1, 41, 60
3, 148512, Note_on_c, 1, 48, 60
3, 148604, Note_off_c, 1, 51, 100
3, 148604, Note_off_c, 1, 45, 100
3, 148604, Note_off_c, 1, 41, 100
3, 148604, Note_off_c, 1, 48, 100
3, 148608, Note_on_c, 1, 50, 60
3, 148608, Note_on_c, 1, 46, 60
3, 148608, Note_on_c, 1, 41, 60
3, 148700, Note_off_c, 1, 50, 100
3, 148700, Note_off_c, 1, 46, 100
3, 148700, Note_off_c, 1, 41, 100
3, 148704, Note_on_c, 1, 53, 60
3, 148704, Note_on_c, 1, 50, 60
3, 148704, Note_on_c, 1, 46, 60
3, 148796, Note_off_c, 1, 53, 100
3, 148796, Note_off_c, 1, 50, 100
3, 148796, Note_off_c, 1, 46, 100
3, 148800, Note_on_c, 1, 53, 60
3, 148800, Note_on_c, 1, 50, 60
3, 148800, Note_on_c, 1, 46, 60
3, 148892, Note_off_c, 1, 53, 100
3, 148892, Note_off_c, 1, 50, 100
3, 148892, Note_off_c, 1, 46, 100
3, 148896, Note_on_c, 1, 53, 60
3, 148896, Note_on_c, 1, 50, 60
3, 148896, Note_on_c, 1, 46, 60
3, 148988, Note_off_c, 1, 53, 100
3, 148988, Note_off_c, 1, 50, 100
3, 148988, Note_off_c, 1, 46, 100
3, 148992, Note_on_c, 1, 53, 60
3, 148992, Note_on_c, 1, 50, 60
3, 148992, Note_on_c, 1, 46, 60
3, 149084, Note_off_c, 1, 53, 100
3, 149084, Note_off_c, 1, 50, 100
3, 149084, Note_off_c, 1, 46, 100
3, 149088, Note_on_c, 1, 53, 60
3, 149088, Note_on_c, 1, 50, 60
3, 149088, Note_on_c, 1, 46, 60
3, 149180, Note_off_c, 1, 53, 100
3, 149180, Note_off_c, 1, 50, 100
3, 149180, Note_off_c, 1, 46, 100
3, 149184, Note_on_c, 1, 53, 60
3, 149184, Note_on_c, 1, 50, 60
3, 149184, Note_on_c, 1, 47, 60
3, 149184, Note_on_c, 1, 44, 60
3, 149276, Note_off_c, 1, 53, 100
3, 149276, Note_off_c, 1, 50, 100
3, 149276, Note_off_c, 1, 47, 100
3, 149276, Note_off_c, 1, 44, 100
3, 149280, Note_on_c, 1, 53, 60
3, 149280, Note_on_c, 1, 50, 60
3, 149280, Note_on_c, 1, 47, 60
3, 149280, Note_on_c, 1, 44, 60
3, 149372, Note_off_c, 1, 53, 100
3, 149372, Note_off_c, 1, 50, 100
3, 149372, Note_off_c, 1, 47, 100
3, 149372, Note_off_c, 1, 44, 100
3, 149376, Note_on_c, 1, 53, 61
3, 149376, Note_on_c, 1, 50, 61
3, 149376, Note_on_c, 1, 47, 61
3, 149376, Note_on_c, 1, 44, 61
3, 149468, Note_off_c, 1, 53, 100
3, 149468, Note_off_c, 1, 50, 100
3, 149468, Note_off_c, 1, 47, 100
3, 149468, Note_off_c, 1, 44, 100
3, 149472, Note_on_c, 1, 53, 62
3, 149472, Note_on_c, 1, 50, 62
3, 149472, Note_on_c, 1, 47, 62
3, 149472, Note_on_c, 1, 43, 62
3, 149564, Note_off_c, 1, 53, 100
3, 149564, Note_off_c, 1, 50, 100
3, 149564, Note_off_c, 1, 47, 100
3, 149564, Note_off_c, 1, 43, 100
3, 149568, Note_on_c, 1, 53, 63
3, 149568, Note_on_c, 1, 50, 63
3, 149568, Note_on_c, 1, 47, 63
3, 149568, Note_on_c, 1, 43, 63
3, 149660, Note_off_c, 1, 53, 100
3, 149660, Note_off_c, 1, 50, 100
3, 149660, Note_off_c, 1, 47, 100
3, 149660, Note_off_c, 1, 43, 100
3, 149664, Note_on_c, 1, 56, 64
3, 149664, Note_on_c, 1, 53, 64
3, 149664, Note_on_c, 1, 50, 64
3, 149664, Note_on_c, 1, 48, 64
3, 149756, Note_off_c, 1, 56, 100
3, 149756, Note_off_c, 1, 53, 100
3, 149756, Note_off_c, 1, 50, 100
3, 149756, Note_off_c, 1, 48, 100
3, 149760, Note_on_c, 1, 55, 65
3, 149760, Note_on_c, 1, 53, 65
3, 149760, Note_on_c, 1, 50, 65
3, 149760, Note_on_c, 1, 47, 65
3, 149852, Note_off_c, 1, 55, 100
3, 149852, Note_off_c, 1, 53, 100
3, 149852, Note_off_c, 1, 50, 100
3, 149852, Note_off_c, 1, 47, 100
3, 149856, Note_on_c, 1, 55, 66
3, 149856, Note_on_c, 1, 53, 66
3, 149856, Note_on_c, 1, 50, 66
3, 149856, Note_on_c, 1, 47, 66
3, 149948, Note_off_c, 1, 55, 100
3, 149948, Note_off_c, 1, 53, 100
3, 149948, Note_off_c, 1, 50, 100
3, 149948, Note_off_c, 1, 47, 100
3, 149952, Note_on_c, 1, 55, 67
3, 149952, Note_on_c, 1, 53, 67
3, 149952, Note_on_c, 1, 50, 67
3, 149952, Note_on_c, 1, 47, 67
3, 150044, Note_off_c, 1, 55, 100
3, 150044, Note_off_c, 1, 53, 100
3, 150044, Note_off_c, 1, 50, 100
3, 150044, Note_off_c, 1, 47, 100
3, 150048, Note_on_c, 1, 55, 68
3, 150048, Note_on_c, 1, 53, 68
3, 150048, Note_on_c, 1, 50, 68
3, 150048, Note_on_c, 1, 47, 68
3, 150140, Note_off_c, 1, 55, 100
3, 150140, Note_off_c, 1, 53, 100
3, 150140, Note_off_c, 1, 50, 100
3, 150140, Note_off_c, 1, 47, 100
3, 150144, Note_on_c, 1, 55, 69
3, 150144, Note_on_c, 1, 53, 69
3, 150144, Note_on_c, 1, 50, 69
3, 150144, Note_on_c, 1, 47, 69
3, 150236, Note_off_c, 1, 55, 100
3, 150236, Note_off_c, 1, 53, 100
3, 150236, Note_off_c, 1, 50, 100
3, 150236, Note_off_c, 1, 47, 100
3, 150240, Note_on_c, 1, 55, 69
3, 150240, Note_on_c, 1, 53, 69
3, 150240, Note_on_c, 1, 50, 69
3, 150240, Note_on_c, 1, 47, 69
3, 150332, Note_off_c, 1, 55, 100
3, 150332, Note_off_c, 1, 53, 100
3, 150332, Note_off_c, 1, 50, 100
3, 150332, Note_off_c, 1, 47, 100
3, 150336, Note_on_c, 1, 55, 70
3, 150336, Note_on_c, 1, 51, 70
3, 150336, Note_on_c, 1, 48, 70
3, 150428, Note_off_c, 1, 55, 100
3, 150428, Note_off_c, 1, 51, 100
3, 150428, Note_off_c, 1, 48, 100
3, 150432, Note_on_c, 1, 55, 70
3, 150432, Note_on_c, 1, 51, 70
3, 150432, Note_on_c, 1, 48, 70
3, 150524, Note_off_c, 1, 55, 100
3, 150524, Note_off_c, 1, 51, 100
3, 150524, Note_off_c, 1, 48, 100
3, 150528, Note_on_c, 1, 55, 70
3, 150528, Note_on_c, 1, 51, 70
3, 150528, Note_on_c, 1, 48, 70
3, 150620, Note_off_c, 1, 55, 100
3, 150620, Note_off_c, 1, 51, 100
3, 150620, Note_off_c, 1, 48, 100
3, 150624, Note_on_c, 1, 55, 70
3, 150624, Note_on_c, 1, 51, 70
3, 150624, Note_on_c, 1, 48, 70
3, 150716, Note_off_c, 1, 55, 100
3, 150716, Note_off_c, 1, 51, 100
3, 150716, Note_off_c, 1, 48, 100
3, 150720, Note_on_c, 1, 57, 70
3, 150720, Note_on_c, 1, 54, 70
3, 150720, Note_on_c, 1, 48, 70
3, 150812, Note_off_c, 1, 57, 100
3, 150812, Note_off_c, 1, 54, 100
3, 150812, Note_off_c, 1, 48, 100
3, 150816, Note_on_c, 1, 57, 70
3, 150816, Note_on_c, 1, 54, 70
3, 150816, Note_on_c, 1, 48, 70
3, 150908, Note_off_c, 1, 57, 100
3, 150908, Note_off_c, 1, 54, 100
3, 150908, Note_off_c, 1, 48, 100
3, 150912, Note_on_c, 1, 57, 70
3, 150912, Note_on_c, 1, 54, 70
3, 150912, Note_on_c, 1, 48, 70
3, 151004, Note_off_c, 1, 57, 100
3, 151004, Note_off_c, 1, 54, 100
3, 151004, Note_off_c, 1, 48, 100
3, 151008, Note_on_c, 1, 57, 70
3, 151008, Note_on_c, 1, 54, 70
3, 151008, Note_on_c, 1, 48, 70
3, 151100, Note_off_c, 1, 57, 100
3, 151100, Note_off_c, 1, 54, 100
3, 151100, Note_off_c, 1, 48, 100
3, 151104, Note_on_c, 1, 57, 70
3, 151104, Note_on_c, 1, 54, 70
3, 151104, Note_on_c, 1, 48, 70
3, 151196, Note_off_c, 1, 57, 100
3, 151196, Note_off_c, 1, 54, 100
3, 151196, Note_off_c, 1, 48, 100
3, 151200, Note_on_c, 1, 58, 70
3, 151200, Note_on_c, 1, 55, 70
3, 151200, Note_on_c, 1, 46, 70
3, 151292, Note_off_c, 1, 58, 100
3, 151292, Note_off_c, 1, 55, 100
3, 151292, Note_off_c, 1, 46, 100
3, 151296, Note_on_c, 1, 58, 70
3, 151296, Note_on_c, 1, 55, 70
3, 151296, Note_on_c, 1, 46, 70
3, 151388, Note_off_c, 1, 58, 100
3, 151388, Note_off_c, 1, 55, 100
3, 151388, Note_off_c, 1, 46, 100
3, 151392, Note_on_c, 1, 58, 70
3, 151392, Note_on_c, 1, 55, 70
3, 151392, Note_on_c, 1, 46, 70
3, 151484, Note_off_c, 1, 58, 100
3, 151484, Note_off_c, 1, 55, 100
3, 151484, Note_off_c, 1, 46, 100
3, 151488, Note_on_c, 1, 57, 70
3, 151488, Note_on_c, 1, 54, 70
3, 151488, Note_on_c, 1, 45, 70
3, 151580, Note_off_c, 1, 57, 100
3, 151580, Note_off_c, 1, 54, 100
3, 151580, Note_off_c, 1, 45, 100
3, 151584, Note_on_c, 1, 57, 70
3, 151584, Note_on_c, 1, 54, 70
3, 151584, Note_on_c, 1, 45, 70
3, 151676, Note_off_c, 1, 57, 100
3, 151676, Note_off_c, 1, 54, 100
3, 151676, Note_off_c, 1, 45, 100
3, 151680, Note_on_c, 1, 57, 70
3, 151680, Note_on_c, 1, 54, 70
3, 151680, Note_on_c, 1, 45, 70
3, 151772, Note_off_c, 1, 57, 100
3, 151772, Note_off_c, 1, 54, 100
3, 151772, Note_off_c, 1, 45, 100
3, 151776, Note_on_c, 1, 55, 70
3, 151776, Note_on_c, 1, 50, 70
3, 151776, Note_on_c, 1, 43, 70
3, 151868, Note_off_c, 1, 55, 100
3, 151868, Note_off_c, 1, 50, 100
3, 151868, Note_off_c, 1, 43, 100
3, 151872, Note_on_c, 1, 55, 70
3, 151872, Note_on_c, 1, 50, 70
3, 151872, Note_on_c, 1, 43, 70
3, 151964, Note_off_c, 1, 55, 100
3, 151964, Note_off_c, 1, 50, 100
3, 151964, Note_off_c, 1, 43, 100
3, 151968, Note_on_c, 1, 55, 70
3, 151968, Note_on_c, 1, 50, 70
3, 151968, Note_on_c, 1, 43, 70
3, 152060, Note_off_c, 1, 55, 100
3, 152060, Note_off_c, 1, 50, 100
3, 152060, Note_off_c, 1, 43, 100
3, 152064, Note_on_c, 1, 56, 70
3, 152064, Note_on_c, 1, 51, 70
3, 152064, Note_on_c, 1, 48, 70
3, 152156, Note_off_c, 1, 56, 100
3, 152156, Note_off_c, 1, 51, 100
3, 152156, Note_off_c, 1, 48, 100
3, 152160, Note_on_c, 1, 56, 70
3, 152160, Note_on_c, 1, 51, 70
3, 152160, Note_on_c, 1, 48, 70
3, 152252, Note_off_c, 1, 56, 100
3, 152252, Note_off_c, 1, 51, 100
3, 152252, Note_off_c, 1, 48, 100
3, 152256, Note_on_c, 1, 56, 70
3, 152256, Note_on_c, 1, 51, 70
3, 152256, Note_on_c, 1, 48, 70
3, 152348, Note_off_c, 1, 56, 100
3, 152348, Note_off_c, 1, 51, 100
3, 152348, Note_off_c, 1, 48, 100
3, 152352, Note_on_c, 1, 58, 70
3, 152352, Note_on_c, 1, 55, 70
3, 152352, Note_on_c, 1, 52, 70
3, 152352, Note_on_c, 1, 49, 70
3, 152444, Note_off_c, 1, 58, 100
3, 152444, Note_off_c, 1, 55, 100
3, 152444, Note_off_c, 1, 52, 100
3, 152444, Note_off_c, 1, 49, 100
3, 152448, Note_on_c, 1, 58, 70
3, 152448, Note_on_c, 1, 55, 70
3, 152448, Note_on_c, 1, 52, 70
3, 152448, Note_on_c, 1, 49, 70
3, 152540, Note_off_c, 1, 58, 100
3, 152540, Note_off_c, 1, 55, 100
3, 152540, Note_off_c, 1, 52, 100
3, 152540, Note_off_c, 1, 49, 100
3, 152544, Note_on_c, 1, 58, 70
3, 152544, Note_on_c, 1, 55, 70
3, 152544, Note_on_c, 1, 52, 70
3, 152544, Note_on_c, 1, 49, 70
3, 152636, Note_off_c, 1, 58, 100
3, 152636, Note_off_c, 1, 55, 100
3, 152636, Note_off_c, 1, 52, 100
3, 152636, Note_off_c, 1, 49, 100
3, 152640, Note_on_c, 1, 58, 70
3, 152640, Note_on_c, 1, 55, 70
3, 152640, Note_on_c, 1, 50, 70
3, 152732, Note_off_c, 1, 58, 100
3, 152732, Note_off_c, 1, 55, 100
3, 152732, Note_off_c, 1, 50, 100
3, 152736, Note_on_c, 1, 58, 71
3, 152736, Note_on_c, 1, 55, 71
3, 152736, Note_on_c, 1, 50, 71
3, 152828, Note_off_c, 1, 58, 100
3, 152828, Note_off_c, 1, 55, 100
3, 152828, Note_off_c, 1, 50, 100
3, 152832, Note_on_c, 1, 58, 73
3, 152832, Note_on_c, 1, 55, 73
3, 152832, Note_on_c, 1, 50, 73
3, 152924, Note_off_c, 1, 58, 100
3, 152924, Note_off_c, 1, 55, 100
3, 152924, Note_off_c, 1, 50, 100
3, 152928, Note_on_c, 1, 61, 75
3, 152928, Note_on_c, 1, 55, 75
3, 152928, Note_on_c, 1, 52, 75
3, 152928, Note_on_c, 1, 50, 75
3, 153020, Note_off_c, 1, 61, 100
3, 153020, Note_off_c, 1, 55, 100
3, 153020, Note_off_c, 1, 52, 100
3, 153020, Note_off_c, 1, 50, 100
3, 153024, Note_on_c, 1, 61, 83
3, 153024, Note_on_c, 1, 55, 83
3, 153024, Note_on_c, 1, 52, 82
3, 153024, Note_on_c, 1, 50, 81
3, 153116, Note_off_c, 1, 61, 100
3, 153116, Note_off_c, 1, 55, 100
3, 153116, Note_off_c, 1, 52, 100
3, 153116, Note_off_c, 1, 50, 100
3, 153120, Note_on_c, 1, 61, 80
3, 153120, Note_on_c, 1, 55, 80
3, 153120, Note_on_c, 1, 52, 80
3, 153120, Note_on_c, 1, 50, 80
3, 153212, Note_off_c, 1, 61, 100
3, 153212, Note_off_c, 1, 55, 100
3, 153212, Note_off_c, 1, 52, 100
3, 153212, Note_off_c, 1, 50, 100
3, 153216, Note_on_c, 1, 58, 79
3, 153216, Note_on_c, 1, 52, 79
3, 153216, Note_on_c, 1, 50, 79
3, 153216, Note_on_c, 1, 61, 79
3, 153308, Note_off_c, 1, 58, 100
3, 153308, Note_off_c, 1, 52, 100
3, 153308, Note_off_c, 1, 50, 100
3, 153308, Note_off_c, 1, 61, 100
3, 153312, Note_on_c, 1, 58, 77
3, 153312, Note_on_c, 1, 52, 77
3, 153312, Note_on_c, 1, 50, 77
3, 153312, Note_on_c, 1, 61, 77
3, 153404, Note_off_c, 1, 58, 100
3, 153404, Note_off_c, 1, 52, 100
3, 153404, Note_off_c, 1, 50, 100
3, 153404, Note_off_c, 1, 61, 100
3, 153408, Note_on_c, 1, 62, 76
3, 153408, Note_on_c, 1, 57, 76
3, 153408, Note_on_c, 1, 54, 76
3, 153408, Note_on_c, 1, 50, 76
3, 153500, Note_off_c, 1, 62, 100
3, 153500, Note_off_c, 1, 57, 100
3, 153500, Note_off_c, 1, 54, 100
3, 153500, Note_off_c, 1, 50, 100
3, 153504, Note_on_c, 1, 62, 74
3, 153504, Note_on_c, 1, 57, 74
3, 153504, Note_on_c, 1, 54, 74
3, 153504, Note_on_c, 1, 50, 74
3, 153596, Note_off_c, 1, 62, 100
3, 153596, Note_off_c, 1, 57, 100
3, 153596, Note_off_c, 1, 54, 100
3, 153596, Note_off_c, 1, 50, 100
3, 153600, Note_on_c, 1, 50, 72
3, 153692, Note_off_c, 1, 50, 100
3, 153696, Note_on_c, 1, 50, 71
3, 153696, Note_on_c, 1, 48, 71
3, 153788, Note_off_c, 1, 50, 100
3, 153788, Note_off_c, 1, 48, 100
3, 153792, Note_on_c, 1, 50, 70
3, 153792, Note_on_c, 1, 46, 70
3, 153884, Note_off_c, 1, 50, 100
3, 153884, Note_off_c, 1, 46, 100
3, 153888, Note_on_c, 1, 51, 70
3, 153888, Note_on_c, 1, 46, 70
3, 153980, Note_off_c, 1, 51, 100
3, 153980, Note_off_c, 1, 46, 100
3, 153984, Note_on_c, 1, 51, 70
3, 153984, Note_on_c, 1, 46, 70
3, 154076, Note_off_c, 1, 51, 100
3, 154076, Note_off_c, 1, 46, 100
3, 154080, Note_on_c, 1, 51, 70
3, 154080, Note_on_c, 1, 46, 70
3, 154172, Note_off_c, 1, 51, 100
3, 154172, Note_off_c, 1, 46, 100
3, 154176, Note_on_c, 1, 50, 70
3, 154176, Note_on_c, 1, 46, 70
3, 154268, Note_off_c, 1, 50, 100
3, 154268, Note_off_c, 1, 46, 100
3, 154272, Note_on_c, 1, 50, 70
3, 154272, Note_on_c, 1, 46, 70
3, 154364, Note_off_c, 1, 50, 100
3, 154364, Note_off_c, 1, 46, 100
3, 154368, Note_on_c, 1, 50, 70
3, 154368, Note_on_c, 1, 45, 70
3, 154460, Note_off_c, 1, 50, 100
3, 154460, Note_off_c, 1, 45, 100
3, 154464, Note_on_c, 1, 50, 70
3, 154464, Note_on_c, 1, 45, 70
3, 154556, Note_off_c, 1, 50, 100
3, 154556, Note_off_c, 1, 45, 100
3, 154560, Note_on_c, 1, 50, 70
3, 154560, Note_on_c, 1, 45, 70
3, 154652, Note_off_c, 1, 50, 100
3, 154652, Note_off_c, 1, 45, 100
3, 154656, Note_on_c, 1, 50, 70
3, 154656, Note_on_c, 1, 45, 70
3, 154748, Note_off_c, 1, 50, 100
3, 154748, Note_off_c, 1, 45, 100
3, 154752, Note_on_c, 1, 50, 70
3, 154752, Note_on_c, 1, 45, 70
3, 154844, Note_off_c, 1, 50, 100
3, 154844, Note_off_c, 1, 45, 100
3, 154848, Note_on_c, 1, 50, 70
3, 154848, Note_on_c, 1, 45, 70
3, 154940, Note_off_c, 1, 50, 100
3, 154940, Note_off_c, 1, 45, 100
3, 154944, Note_on_c, 1, 50, 70
3, 154944, Note_on_c, 1, 43, 70
3, 155036, Note_off_c, 1, 50, 100
3, 155036, Note_off_c, 1, 43, 100
3, 155040, Note_on_c, 1, 43, 70
3, 155040, Note_on_c, 1, 51, 70
3, 155132, Note_off_c, 1, 43, 100
3, 155132, Note_off_c, 1, 51, 100
3, 155136, Note_on_c, 1, 43, 70
3, 155136, Note_on_c, 1, 51, 70
3, 155228, Note_off_c, 1, 43, 100
3, 155228, Note_off_c, 1, 51, 100
3, 155232, Note_on_c, 1, 43, 70
3, 155232, Note_on_c, 1, 51, 70
3, 155324, Note_off_c, 1, 43, 100
3, 155324, Note_off_c, 1, 51, 100
3, 155328, Note_on_c, 1, 50, 70
3, 155328, Note_on_c, 1, 43, 70
3, 155420, Note_off_c, 1, 50, 100
3, 155420, Note_off_c, 1, 43, 100
3, 155424, Note_on_c, 1, 50, 70
3, 155424, Note_on_c, 1, 43, 70
3, 155516, Note_off_c, 1, 50, 100
3, 155516, Note_off_c, 1, 43, 100
3, 155520, Note_on_c, 1, 50, 70
3, 155520, Note_on_c, 1, 43, 70
3, 155612, Note_off_c, 1, 50, 100
3, 155612, Note_off_c, 1, 43, 100
3, 155616, Note_on_c, 1, 50, 70
3, 155616, Note_on_c, 1, 42, 70
3, 155708, Note_off_c, 1, 50, 100
3, 155708, Note_off_c, 1, 42, 100
3, 155712, Note_on_c, 1, 50, 70
3, 155712, Note_on_c, 1, 42, 70
3, 155804, Note_off_c, 1, 50, 100
3, 155804, Note_off_c, 1, 42, 100
3, 155808, Note_on_c, 1, 50, 70
3, 155808, Note_on_c, 1, 42, 70
3, 155900, Note_off_c, 1, 50, 100
3, 155900, Note_off_c, 1, 42, 100
3, 155904, Note_on_c, 1, 50, 70
3, 155904, Note_on_c, 1, 41, 70
3, 155904, Note_on_c, 1, 43, 70
3, 155996, Note_off_c, 1, 50, 100
3, 155996, Note_off_c, 1, 41, 100
3, 155996, Note_off_c, 1, 43, 100
3, 156000, Note_on_c, 1, 50, 70
3, 156000, Note_on_c, 1, 41, 70
3, 156000, Note_on_c, 1, 43, 70
3, 156092, Note_off_c, 1, 50, 100
3, 156092, Note_off_c, 1, 41, 100
3, 156092, Note_off_c, 1, 43, 100
3, 156096, Note_on_c, 1, 50, 70
3, 156096, Note_on_c, 1, 43, 70
3, 156096, Note_on_c, 1, 41, 70
3, 156188, Note_off_c, 1, 50, 100
3, 156188, Note_off_c, 1, 43, 100
3, 156188, Note_off_c, 1, 41, 100
3, 156192, Note_on_c, 1, 48, 70
3, 156192, Note_on_c, 1, 43, 70
3, 156192, Note_on_c, 1, 39, 70
3, 156284, Note_off_c, 1, 48, 100
3, 156284, Note_off_c, 1, 43, 100
3, 156284, Note_off_c, 1, 39, 100
3, 156288, Note_on_c, 1, 48, 70
3, 156288, Note_on_c, 1, 43, 70
3, 156288, Note_on_c, 1, 39, 70
3, 156380, Note_off_c, 1, 48, 100
3, 156380, Note_off_c, 1, 43, 100
3, 156380, Note_off_c, 1, 39, 100
3, 156384, Note_on_c, 1, 48, 70
3, 156384, Note_on_c, 1, 43, 70
3, 156384, Note_on_c, 1, 39, 70
3, 156476, Note_off_c, 1, 48, 100
3, 156476, Note_off_c, 1, 43, 100
3, 156476, Note_off_c, 1, 39, 100
3, 156480, Note_on_c, 1, 60, 70
3, 156480, Note_on_c, 1, 55, 70
3, 156480, Note_on_c, 1, 48, 70
3, 156572, Note_off_c, 1, 60, 100
3, 156572, Note_off_c, 1, 55, 100
3, 156572, Note_off_c, 1, 48, 100
3, 156576, Note_on_c, 1, 60, 70
3, 156576, Note_on_c, 1, 55, 70
3, 156576, Note_on_c, 1, 48, 70
3, 156668, Note_off_c, 1, 60, 100
3, 156668, Note_off_c, 1, 55, 100
3, 156668, Note_off_c, 1, 48, 100
3, 156672, Note_on_c, 1, 60, 70
3, 156672, Note_on_c, 1, 55, 70
3, 156672, Note_on_c, 1, 48, 70
3, 156764, Note_off_c, 1, 60, 100
3, 156764, Note_off_c, 1, 55, 100
3, 156764, Note_off_c, 1, 48, 100
3, 156768, Note_on_c, 1, 58, 70
3, 156768, Note_on_c, 1, 55, 70
3, 156768, Note_on_c, 1, 50, 70
3, 156860, Note_off_c, 1, 58, 100
3, 156860, Note_off_c, 1, 55, 100
3, 156860, Note_off_c, 1, 50, 100
3, 156864, Note_on_c, 1, 58, 70
3, 156864, Note_on_c, 1, 55, 70
3, 156864, Note_on_c, 1, 50, 70
3, 156956, Note_off_c, 1, 58, 100
3, 156956, Note_off_c, 1, 55, 100
3, 156956, Note_off_c, 1, 50, 100
3, 156960, Note_on_c, 1, 58, 70
3, 156960, Note_on_c, 1, 55, 70
3, 156960, Note_on_c, 1, 50, 70
3, 157052, Note_off_c, 1, 58, 100
3, 157052, Note_off_c, 1, 55, 100
3, 157052, Note_off_c, 1, 50, 100
3, 157056, Note_on_c, 1, 60, 70
3, 157056, Note_on_c, 1, 57, 70
3, 157056, Note_on_c, 1, 50, 70
3, 157148, Note_off_c, 1, 60, 100
3, 157148, Note_off_c, 1, 57, 100
3, 157148, Note_off_c, 1, 50, 100
3, 157152, Note_on_c, 1, 60, 70
3, 157152, Note_on_c, 1, 57, 70
3, 157152, Note_on_c, 1, 51, 70
3, 157244, Note_off_c, 1, 60, 100
3, 157244, Note_off_c, 1, 57, 100
3, 157244, Note_off_c, 1, 51, 100
3, 157248, Note_on_c, 1, 60, 70
3, 157248, Note_on_c, 1, 57, 70
3, 157248, Note_on_c, 1, 51, 70
3, 157340, Note_off_c, 1, 60, 100
3, 157340, Note_off_c, 1, 57, 100
3, 157340, Note_off_c, 1, 51, 100
3, 157344, Note_on_c, 1, 60, 70
3, 157344, Note_on_c, 1, 57, 70
3, 157344, Note_on_c, 1, 51, 70
3, 157436, Note_off_c, 1, 60, 100
3, 157436, Note_off_c, 1, 57, 100
3, 157436, Note_off_c, 1, 51, 100
3, 157440, Note_on_c, 1, 60, 70
3, 157440, Note_on_c, 1, 57, 70
3, 157440, Note_on_c, 1, 51, 70
3, 157532, Note_off_c, 1, 60, 100
3, 157532, Note_off_c, 1, 57, 100
3, 157532, Note_off_c, 1, 51, 100
3, 157536, Note_on_c, 1, 60, 70
3, 157536, Note_on_c, 1, 54, 70
3, 157536, Note_on_c, 1, 50, 70
3, 157628, Note_off_c, 1, 60, 100
3, 157628, Note_off_c, 1, 54, 100
3, 157628, Note_off_c, 1, 50, 100
3, 157632, Note_on_c, 1, 60, 70
3, 157632, Note_on_c, 1, 54, 70
3, 157632, Note_on_c, 1, 50, 70
3, 157724, Note_off_c, 1, 60, 100
3, 157724, Note_off_c, 1, 54, 100
3, 157724, Note_off_c, 1, 50, 100
3, 157728, Note_on_c, 1, 60, 70
3, 157728, Note_on_c, 1, 54, 70
3, 157728, Note_on_c, 1, 50, 70
3, 157820, Note_off_c, 1, 60, 100
3, 157820, Note_off_c, 1, 54, 100
3, 157820, Note_off_c, 1, 50, 100
3, 157824, Note_on_c, 1, 58, 70
3, 157824, Note_on_c, 1, 55, 70
3, 158012, Note_off_c, 1, 58, 100
3, 158012, Note_off_c, 1, 55, 100
3, 158304, Note_on_c, 1, 46, 70
3, 158304, Note_on_c, 1, 34, 70
3, 158396, Note_off_c, 1, 46, 100
3, 158396, Note_off_c, 1, 34, 100
3, 158592, Note_on_c, 1, 45, 70
3, 158592, Note_on_c, 1, 33, 70
3, 158684, Note_off_c, 1, 45, 100
3, 158684, Note_off_c, 1, 33, 100
3, 158880, Note_on_c, 1, 50, 70
3, 158880, Note_on_c, 1, 38, 70
3, 158972, Note_off_c, 1, 50, 100
3, 158972, Note_off_c, 1, 38, 100
3, 159168, Control_c, 1, 64, 127
3, 159168, Note_on_c, 1, 50, 70
3, 159168, Note_on_c, 1, 43, 70
3, 159452, Note_off_c, 1, 50, 100
3, 159452, Note_off_c, 1, 43, 100
3, 159456, Note_on_c, 1, 43, 70
3, 159456, Note_on_c, 1, 38, 70
3, 159456, Note_on_c, 1, 31, 70
3, 159740, Note_off_c, 1, 31, 100
3, 159740, Note_off_c, 1, 38, 100
3, 159740, Note_off_c, 1, 43, 100
3, 159744, Note_on_c, 1, 43, 70
3, 159744, Note_on_c, 1, 38, 70
3, 159744, Note_on_c, 1, 31, 70
3, 160028, Note_off_c, 1, 43, 100
3, 160028, Note_off_c, 1, 38, 100
3, 160028, Note_off_c, 1, 31, 100
3, 160032, Note_on_c, 1, 43, 74
3, 160032, Note_on_c, 1, 38, 74
3, 160032, Note_on_c, 1, 31, 74
3, 160316, Note_off_c, 1, 43, 100
3, 160316, Note_off_c, 1, 38, 100
3, 160316, Note_off_c, 1, 31, 100
3, 160320, Note_on_c, 1, 43, 80
3, 160320, Note_on_c, 1, 38, 80
3, 160320, Note_on_c, 1, 31, 80
3, 160604, Note_off_c, 1, 43, 100
3, 160604, Note_off_c, 1, 38, 100
3, 160604, Note_off_c, 1, 31, 100
3, 160608, Note_on_c, 1, 43, 90
3, 160608, Note_on_c, 1, 38, 90
3, 160608, Note_on_c, 1, 31, 90
3, 160892, Note_off_c, 1, 31, 100
3, 160892, Note_off_c, 1, 38, 100
3, 160892, Note_off_c, 1, 43, 100
3, 160896, Note_on_c, 1, 43, 100
3, 160896, Note_on_c, 1, 38, 100
3, 160896, Note_on_c, 1, 35, 100
3, 160896, Note_on_c, 1, 31, 100
3, 161180, Note_off_c, 1, 43, 100
3, 161180, Note_off_c, 1, 38, 100
3, 161180, Note_off_c, 1, 35, 100
3, 161180, Note_off_c, 1, 31, 100
3, 161184, Note_on_c, 1, 43, 110
3, 161184, Note_on_c, 1, 38, 110
3, 161184, Note_on_c, 1, 35, 110
3, 161184, Note_on_c, 1, 31, 110
3, 161468, Note_off_c, 1, 43, 100
3, 161468, Note_off_c, 1, 38, 100
3, 161468, Note_off_c, 1, 35, 100
3, 161468, Note_off_c, 1, 31, 100
3, 161472, Note_on_c, 1, 43, 120
3, 161472, Note_on_c, 1, 38, 120
3, 161472, Note_on_c, 1, 35, 120
3, 161472, Note_on_c, 1, 31, 120
3, 161756, Note_off_c, 1, 43, 100
3, 161756, Note_off_c, 1, 38, 100
3, 161756, Note_off_c, 1, 35, 100
3, 161756, Note_off_c, 1, 31, 100
3, 161760, Note_on_c, 1, 43, 125
3, 161760, Note_on_c, 1, 38, 125
3, 161760, Note_on_c, 1, 35, 125
3, 161760, Note_on_c, 1, 31, 125
3, 162044, Note_off_c, 1, 31, 64
3, 162048, Note_on_c, 1, 31, 110
3, 162140, Note_off_c, 1, 35, 64
3, 162144, Note_on_c, 1, 35, 109
3, 162332, Note_off_c, 1, 38, 64
3, 162336, Note_on_c, 1, 38, 105
3, 162428, Note_off_c, 1, 43, 64
3, 162432, Note_on_c, 1, 43, 103
3, 162624, Note_on_c, 1, 47, 99
3, 162720, Note_on_c, 1, 50, 97
3, 162908, Note_off_c, 1, 47, 99
3, 162912, Note_on_c, 1, 55, 93
3, 163004, Note_off_c, 1, 50, 100
3, 163196, Note_off_c, 1, 31, 100
3, 163196, Note_off_c, 1, 35, 100
3, 163196, Note_off_c, 1, 38, 100
3, 163196, Note_off_c, 1, 43, 100
3, 163196, Note_off_c, 1, 55, 100
3, 163582, Control_c, 1, 64, 0
3, 163584, Key_signature, 1, "major"
3, 172800, Note_on_c, 1, 62, 80
3, 173372, Note_off_c, 1, 62, 100
3, 173376, Note_on_c, 1, 57, 80
3, 173948, Note_off_c, 1, 57, 100
3, 173952, Note_on_c, 1, 60, 80
3, 174524, Note_off_c, 1, 60, 100
3, 174528, Note_on_c, 1, 55, 80
3, 175100, Note_off_c, 1, 55, 100
3, 175104, Note_on_c, 1, 59, 80
3, 175676, Note_off_c, 1, 59, 100
3, 175680, Note_on_c, 1, 54, 80
3, 176252, Note_off_c, 1, 54, 100
3, 176256, Note_on_c, 1, 55, 80
3, 176444, Note_off_c, 1, 55, 100
3, 176448, Note_on_c, 1, 53, 80
3, 176636, Note_off_c, 1, 53, 100
3, 176640, Note_on_c, 1, 51, 80
3, 177020, Note_off_c, 1, 51, 100
3, 177024, Note_on_c, 1, 50, 80
3, 177212, Note_off_c, 1, 50, 100
3, 177216, Note_on_c, 1, 47, 80
3, 177596, Note_off_c, 1, 47, 100
3, 177600, Note_on_c, 1, 48, 80
3, 177788, Note_off_c, 1, 48, 100
3, 177792, Note_on_c, 1, 51, 80
3, 177980, Note_off_c, 1, 51, 100
3, 177984, Note_on_c, 1, 55, 80
3, 178172, Note_off_c, 1, 55, 100
3, 178176, Note_on_c, 1, 53, 80
3, 178364, Note_off_c, 1, 53, 100
3, 178368, Note_on_c, 1, 51, 80
3, 178556, Note_off_c, 1, 51, 100
3, 178560, Note_on_c, 1, 50, 80
3, 178748, Note_off_c, 1, 50, 100
3, 178752, Note_on_c, 1, 48, 80
3, 178940, Note_off_c, 1, 48, 100
3, 178944, Note_on_c, 1, 50, 80
3, 179132, Note_off_c, 1, 50, 100
3, 179136, Note_on_c, 1, 53, 80
3, 179324, Note_off_c, 1, 53, 100
3, 179328, Note_on_c, 1, 51, 80
3, 179516, Note_off_c, 1, 51, 100
3, 179520, Note_on_c, 1, 50, 80
3, 179708, Note_off_c, 1, 50, 100
3, 179712, Note_on_c, 1, 48, 80
3, 179900, Note_off_c, 1, 48, 100
3, 179904, Note_on_c, 1, 47, 80
3, 180092, Note_off_c, 1, 47, 100
3, 180096, Note_on_c, 1, 48, 80
3, 180284, Note_off_c, 1, 48, 100
3, 180288, Note_on_c, 1, 51, 80
3, 180476, Note_off_c, 1, 51, 100
3, 180480, Note_on_c, 1, 50, 80
3, 180668, Note_off_c, 1, 50, 100
3, 180672, Note_on_c, 1, 48, 80
3, 180860, Note_off_c, 1, 48, 100
3, 180864, Note_on_c, 1, 47, 80
3, 181052, Note_off_c, 1, 47, 100
3, 181056, Note_on_c, 1, 48, 80
3, 181244, Note_off_c, 1, 48, 100
3, 181248, Note_on_c, 1, 42, 80
3, 181436, Note_off_c, 1, 42, 100
3, 181440, Note_on_c, 1, 43, 80
3, 181628, Note_off_c, 1, 43, 100
3, 181632, Note_on_c, 1, 48, 80
3, 181820, Note_off_c, 1, 48, 100
3, 181824, Note_on_c, 1, 45, 80
3, 182012, Note_off_c, 1, 45, 100
3, 182016, Note_on_c, 1, 50, 80
3, 182204, Note_off_c, 1, 50, 100
3, 182208, Note_on_c, 1, 47, 80
3, 182396, Note_off_c, 1, 47, 100
3, 182400, Note_on_c, 1, 51, 80
3, 182588, Note_off_c, 1, 51, 100
3, 182592, Key_signature, -2, "minor"
3, 182592, Note_on_c, 1, 50, 80
3, 182684, Note_off_c, 1, 50, 100
3, 182688, Note_on_c, 1, 48, 80
3, 182780, Note_off_c, 1, 48, 100
3, 182784, Note_on_c, 1, 47, 80
3, 182972, Note_off_c, 1, 47, 100
3, 183744, Note_on_c, 1, 48, 80
3, 183932, Note_off_c, 1, 48, 100
3, 183936, Note_on_c, 1, 53, 80
3, 184124, Note_off_c, 1, 53, 100
3, 184128, Note_on_c, 1, 51, 80
3, 184316, Note_off_c, 1, 51, 100
3, 184320, Note_on_c, 1, 55, 80
3, 184508, Note_off_c, 1, 55, 100
3, 184512, Note_on_c, 1, 54, 80
3, 184700, Note_off_c, 1, 54, 100
3, 184704, Note_on_c, 1, 60, 80
3, 184988, Note_off_c, 1, 60, 100
3, 184992, Note_on_c, 1, 58, 80
3, 185084, Note_off_c, 1, 58, 100
3, 185088, Note_on_c, 1, 57, 80
3, 185276, Note_off_c, 1, 57, 100
3, 185472, Note_on_c, 1, 54, 80
3, 185660, Note_off_c, 1, 54, 100
3, 185664, Note_on_c, 1, 58, 80
3, 185852, Note_off_c, 1, 58, 100
3, 185856, Note_on_c, 1, 57, 80
3, 186044, Note_off_c, 1, 57, 100
3, 186048, Note_on_c, 1, 55, 80
3, 186236, Note_off_c, 1, 55, 100
3, 186240, Note_on_c, 1, 60, 80
3, 186428, Note_off_c, 1, 60, 100
3, 186432, Note_on_c, 1, 57, 80
3, 186620, Note_off_c, 1, 57, 100
3, 186624, Note_on_c, 1, 62, 80
3, 186812, Note_off_c, 1, 62, 100
3, 186816, Note_on_c, 1, 58, 80
3, 187004, Note_off_c, 1, 58, 100
3, 187008, Note_on_c, 1, 63, 80
3, 187196, Note_off_c, 1, 63, 100
3, 187200, Note_on_c, 1, 62, 80
3, 187292, Note_off_c, 1, 62, 100
3, 187296, Note_on_c, 1, 60, 80
3, 187388, Note_off_c, 1, 60, 100
3, 187392, Note_on_c, 1, 58, 80
3, 187580, Note_off_c, 1, 58, 100
3, 187968, Note_on_c, 1, 55, 80
3, 188156, Note_off_c, 1, 55, 100
3, 188160, Note_on_c, 1, 60, 80
3, 188444, Note_off_c, 1, 60, 100
3, 188448, Note_on_c, 1, 58, 80
3, 188540, Note_off_c, 1, 58, 100
3, 188544, Note_on_c, 1, 57, 80
3, 188828, Note_off_c, 1, 57, 100
3, 188832, Note_on_c, 1, 55, 80
3, 188924, Note_off_c, 1, 55, 100
3, 188928, Note_on_c, 1, 54, 80
3, 189116, Note_off_c, 1, 54, 100
3, 189120, Note_on_c, 1, 60, 80
3, 189308, Note_off_c, 1, 60, 100
3, 189312, Note_on_c, 1, 57, 80
3, 189500, Note_off_c, 1, 57, 100
3, 189504, Note_on_c, 1, 62, 80
3, 189692, Note_off_c, 1, 62, 100
3, 189696, Note_on_c, 1, 59, 80
3, 189884, Note_off_c, 1, 59, 100
3, 189888, Note_on_c, 1, 65, 80
3, 190076, Note_off_c, 1, 65, 100
3, 190080, Note_on_c, 1, 63, 80
3, 190172, Note_off_c, 1, 63, 100
3, 190176, Note_on_c, 1, 62, 80
3, 190268, Note_off_c, 1, 62, 100
3, 190272, Note_on_c, 1, 60, 80
3, 190556, Note_off_c, 1, 60, 100
3, 190560, Note_on_c, 1, 58, 80
3, 190652, Note_off_c, 1, 58, 100
3, 190656, Note_on_c, 1, 56, 80
3, 190940, Note_off_c, 1, 56, 100
3, 190944, Note_on_c, 1, 55, 80
3, 191036, Note_off_c, 1, 55, 100
3, 191040, Note_on_c, 1, 53, 80
3, 191132, Note_off_c, 1, 53, 100
3, 191136, Note_on_c, 1, 55, 80
3, 191228, Note_off_c, 1, 55, 100
3, 191232, Note_on_c, 1, 48, 80
3, 191232, Note_on_c, 1, 36, 80
3, 192380, Note_off_c, 1, 36, 100
3, 192380, Note_off_c, 1, 48, 100
3, 192384, Note_on_c, 1, 53, 86
3, 192384, Note_on_c, 1, 41, 86
3, 193532, Note_off_c, 1, 41, 100
3, 193532, Note_off_c, 1, 53, 100
3, 193536, Note_on_c, 1, 50, 92
3, 193536, Note_on_c, 1, 38, 92
3, 194684, Note_off_c, 1, 38, 100
3, 194684, Note_off_c, 1, 50, 100
3, 194688, Note_on_c, 1, 55, 99
3, 194688, Note_on_c, 1, 43, 99
3, 195836, Note_off_c, 1, 43, 100
3, 195836, Note_off_c, 1, 55, 100
3, 195840, Note_on_c, 1, 51, 105
3, 195840, Note_on_c, 1, 39, 105
3, 196988, Note_off_c, 1, 39, 100
3, 196988, Note_off_c, 1, 51, 100
3, 196992, Note_on_c, 1, 56, 110
3, 196992, Note_on_c, 1, 44, 110
3, 198140, Note_off_c, 1, 44, 100
3, 198140, Note_off_c, 1, 56, 100
3, 198144, Note_on_c, 1, 55, 108
3, 198144, Note_on_c, 1, 43, 108
3, 199292, Note_off_c, 1, 43, 100
3, 199292, Note_off_c, 1, 55, 100
3, 199296, Note_on_c, 1, 53, 91
3, 199296, Note_on_c, 1, 41, 91
3, 200444, Note_off_c, 1, 41, 100
3, 200444, Note_off_c, 1, 53, 100
3, 200448, Note_on_c, 1, 51, 80
3, 200448, Note_on_c, 1, 39, 80
3, 200828, Note_off_c, 1, 51, 100
3, 200828, Note_off_c, 1, 39, 100
3, 201408, Note_on_c, 1, 46, 80
3, 201500, Note_off_c, 1, 46, 100
3, 201504, Note_on_c, 1, 53, 80
3, 201596, Note_off_c, 1, 53, 100
3, 201600, Note_on_c, 1, 51, 80
3, 201692, Note_off_c, 1, 51, 100
3, 201696, Note_on_c, 1, 56, 80
3, 201788, Note_off_c, 1, 56, 100
3, 201792, Note_on_c, 1, 55, 80
3, 201836, Note_off_c, 1, 55, 100
3, 201840, Note_on_c, 1, 53, 80
3, 201884, Note_off_c, 1, 53, 100
3, 201888, Note_on_c, 1, 51, 80
3, 201980, Note_off_c, 1, 51, 100
3, 203328, Note_on_c, 1, 60, 80
3, 203420, Note_off_c, 1, 60, 100
3, 203424, Note_on_c, 1, 53, 80
3, 203516, Note_off_c, 1, 53, 100
3, 203520, Note_on_c, 1, 58, 80
3, 203612, Note_off_c, 1, 58, 100
3, 203616, Note_on_c, 1, 53, 80
3, 203708, Note_off_c, 1, 53, 100
3, 203712, Note_on_c, 1, 57, 80
3, 203756, Note_off_c, 1, 57, 100
3, 203760, Note_on_c, 1, 55, 80
3, 203804, Note_off_c, 1, 55, 100
3, 203808, Note_on_c, 1, 53, 80
3, 203900, Note_off_c, 1, 53, 100
3, 204480, Note_on_c, 1, 58, 80
3, 204572, Note_off_c, 1, 58, 100
3, 204576, Note_on_c, 1, 51, 80
3, 204668, Note_off_c, 1, 51, 100
3, 204672, Note_on_c, 1, 56, 80
3, 204764, Note_off_c, 1, 56, 100
3, 204768, Note_on_c, 1, 51, 80
3, 204860, Note_off_c, 1, 51, 100
3, 204864, Note_on_c, 1, 55, 80
3, 204908, Note_off_c, 1, 55, 100
3, 204912, Note_on_c, 1, 53, 80
3, 204956, Note_off_c, 1, 53, 100
3, 204960, Note_on_c, 1, 51, 80
3, 205052, Note_off_c, 1, 51, 100
3, 205632, Note_on_c, 1, 56, 88
3, 205724, Note_off_c, 1, 56, 100
3, 205728, Note_on_c, 1, 49, 89
3, 205820, Note_off_c, 1, 49, 100
3, 205824, Note_on_c, 1, 54, 90
3, 205916, Note_off_c, 1, 54, 100
3, 205920, Note_on_c, 1, 49, 92
3, 206012, Note_off_c, 1, 49, 100
3, 206016, Note_on_c, 1, 53, 93
3, 206060, Note_off_c, 1, 53, 100
3, 206064, Note_on_c, 1, 51, 94
3, 206108, Note_off_c, 1, 51, 100
3, 206112, Note_on_c, 1, 49, 94
3, 206204, Note_off_c, 1, 49, 100
3, 206208, Note_on_c, 1, 63, 96
3, 206300, Note_off_c, 1, 63, 100
3, 206304, Note_on_c, 1, 58, 97
3, 206396, Note_off_c, 1, 58, 100
3, 206400, Note_on_c, 1, 61, 98
3, 206492, Note_off_c, 1, 61, 100
3, 206496, Note_on_c, 1, 58, 100
3, 206588, Note_off_c, 1, 58, 100
3, 206592, Note_on_c, 1, 60, 101
3, 206636, Note_off_c, 1, 60, 100
3, 206640, Note_on_c, 1, 58, 102
3, 206684, Note_off_c, 1, 58, 100
3, 206688, Note_on_c, 1, 56, 102
3, 206780, Note_off_c, 1, 56, 100
3, 206784, Key_signature, -4, "major"
3, 207360, Note_on_c, 1, 44, 110
3, 207360, Note_on_c, 1, 32, 110
3, 207932, Note_off_c, 1, 44, 100
3, 207932, Note_off_c, 1, 32, 100
3, 207936, Note_on_c, 1, 49, 110
3, 207936, Note_on_c, 1, 37, 110
3, 208508, Note_off_c, 1, 49, 100
3, 208508, Note_off_c, 1, 37, 100
3, 208512, Note_on_c, 1, 46, 110
3, 208512, Note_on_c, 1, 34, 110
3, 209084, Note_off_c, 1, 46, 100
3, 209084, Note_off_c, 1, 34, 100
3, 209088, Note_on_c, 1, 51, 110
3, 209088, Note_on_c, 1, 39, 110
3, 209660, Note_off_c, 1, 51, 100
3, 209660, Note_off_c, 1, 39, 100
3, 209664, Note_on_c, 1, 48, 110
3, 209664, Note_on_c, 1, 36, 110
3, 210236, Note_off_c, 1, 48, 100
3, 210236, Note_off_c, 1, 36, 100
3, 210240, Note_on_c, 1, 53, 110
3, 210240, Note_on_c, 1, 41, 110
3, 210812, Note_off_c, 1, 53, 100
3, 210812, Note_off_c, 1, 41, 100
3, 210816, Note_on_c, 1, 51, 110
3, 210816, Note_on_c, 1, 39, 110
3, 211196, Note_off_c, 1, 51, 100
3, 211196, Note_off_c, 1, 39, 100
3, 211200, Note_on_c, 1, 49, 110
3, 211200, Note_on_c, 1, 37, 110
3, 211388, Note_off_c, 1, 49, 100
3, 211388, Note_off_c, 1, 37, 100
3, 211392, Note_on_c, 1, 48, 110
3, 211392, Note_on_c, 1, 36, 110
3, 211580, Note_off_c, 1, 48, 100
3, 211580, Note_off_c, 1, 36, 100
3, 211584, Note_on_c, 1, 46, 110
3, 211584, Note_on_c, 1, 34, 110
3, 211772, Note_off_c, 1, 46, 100
3, 211772, Note_off_c, 1, 34, 100
3, 211776, Note_on_c, 1, 44, 110
3, 211776, Note_on_c, 1, 32, 110
3, 211964, Note_off_c, 1, 44, 100
3, 211964, Note_off_c, 1, 32, 100
3, 211968, Note_on_c, 1, 43, 110
3, 211968, Note_on_c, 1, 31, 110
3, 212348, Note_off_c, 1, 43, 100
3, 212348, Note_off_c, 1, 31, 100
3, 212544, Note_on_c, 1, 68, 110
3, 213116, Note_off_c, 1, 68, 100
3, 213120, Note_on_c, 1, 65, 110
3, 213692, Note_off_c, 1, 65, 100
3, 213696, Note_on_c, 1, 70, 110
3, 214268, Note_off_c, 1, 70, 100
3, 214272, Note_on_c, 1, 67, 110
3, 214844, Note_off_c, 1, 67, 100
3, 214848, Note_on_c, 1, 72, 110
3, 215420, Note_off_c, 1, 72, 100
3, 215424, Note_on_c, 1, 70, 110
3, 215804, Note_off_c, 1, 70, 100
3, 215808, Note_on_c, 1, 68, 110
3, 215996, Note_off_c, 1, 68, 100
3, 216000, Note_on_c, 1, 67, 110
3, 216572, Note_off_c, 1, 67, 100
3, 216576, Note_on_c, 1, 70, 110
3, 217916, Note_off_c, 1, 70, 100
3, 217920, Note_on_c, 1, 68, 110
3, 218108, Note_off_c, 1, 68, 100
3, 218112, Note_on_c, 1, 66, 110
3, 218300, Note_off_c, 1, 66, 100
3, 218304, Note_on_c, 1, 65, 110
3, 218684, Note_off_c, 1, 65, 100
3, 218688, Note_on_c, 1, 67, 110
3, 218876, Note_off_c, 1, 67, 100
3, 218880, Note_on_c, 1, 48, 110
3, 218976, Note_on_c, 1, 53, 110
3, 219070, Note_off_c, 1, 48, 100
3, 219072, Note_on_c, 1, 51, 110
3, 219164, Note_off_c, 1, 53, 100
3, 219168, Note_on_c, 1, 56, 110
3, 219260, Note_off_c, 1, 51, 100
3, 219264, Note_on_c, 1, 55, 110
3, 219356, Note_off_c, 1, 56, 100
3, 219360, Note_on_c, 1, 56, 110
3, 219446, Note_off_c, 1, 55, 100
3, 219456, Note_on_c, 1, 46, 110
3, 219548, Note_off_c, 1, 56, 100
3, 219552, Note_on_c, 1, 55, 110
3, 219644, Note_off_c, 1, 46, 100
3, 219648, Note_on_c, 1, 51, 110
3, 219736, Note_off_c, 1, 55, 100
3, 219744, Note_on_c, 1, 55, 110
3, 219830, Note_off_c, 1, 51, 100
3, 219840, Note_on_c, 1, 51, 110
3, 219930, Note_off_c, 1, 55, 100
3, 219936, Note_on_c, 1, 55, 110
3, 220026, Note_off_c, 1, 51, 100
3, 220032, Note_on_c, 1, 49, 110
3, 220126, Note_off_c, 1, 55, 100
3, 220128, Note_on_c, 1, 58, 110
3, 220220, Note_off_c, 1, 49, 100
3, 220224, Note_on_c, 1, 51, 110
3, 220312, Note_off_c, 1, 58, 100
3, 220320, Note_on_c, 1, 58, 110
3, 220412, Note_off_c, 1, 51, 100
3, 220416, Note_on_c, 1, 51, 110
3, 220506, Note_off_c, 1, 58, 100
3, 220512, Note_on_c, 1, 58, 110
3, 220602, Note_off_c, 1, 51, 100
3, 220608, Note_on_c, 1, 48, 110
3, 220694, Note_off_c, 1, 58, 100
3, 220704, Note_on_c, 1, 53, 110
3, 220796, Note_off_c, 1, 48, 100
3, 220800, Note_on_c, 1, 51, 110
3, 220894, Note_off_c, 1, 53, 100
3, 220896, Note_on_c, 1, 56, 110
3, 220990, Note_off_c, 1, 51, 100
3, 220992, Note_on_c, 1, 55, 110
3, 221084, Note_off_c, 1, 56, 100
3, 221088, Note_on_c, 1, 56, 110
3, 221180, Note_off_c, 1, 55, 100
3, 221184, Note_on_c, 1, 51, 110
3, 221272, Note_off_c, 1, 56, 100
3, 221280, Note_on_c, 1, 56, 110
3, 221374, Note_off_c, 1, 51, 100
3, 221376, Note_on_c, 1, 54, 110
3, 221468, Note_off_c, 1, 56, 100
3, 221472, Note_on_c, 1, 56, 110
3, 221566, Note_off_c, 1, 54, 100
3, 221568, Note_on_c, 1, 55, 110
3, 221662, Note_off_c, 1, 56, 100
3, 221664, Note_on_c, 1, 56, 110
3, 221750, Note_off_c, 1, 55, 100
3, 221760, Note_on_c, 1, 49, 110
3, 221852, Note_off_c, 1, 56, 100
3, 221856, Note_on_c, 1, 56, 110
3, 221948, Note_off_c, 1, 49, 100
3, 221952, Note_on_c, 1, 55, 110
3, 222046, Note_off_c, 1, 56, 100
3, 222048, Note_on_c, 1, 56, 110
3, 222136, Note_off_c, 1, 55, 100
3, 222144, Note_on_c, 1, 50, 110
3, 222232, Note_off_c, 1, 56, 100
3, 222240, Note_on_c, 1, 56, 110
3, 222332, Note_off_c, 1, 50, 100
3, 222336, Note_on_c, 1, 51, 110
3, 222424, Note_off_c, 1, 56, 100
3, 222432, Note_on_c, 1, 55, 110
3, 222526, Note_off_c, 1, 51, 100
3, 222528, Note_on_c, 1, 51, 110
3, 222618, Note_off_c, 1, 55, 100
3, 222624, Note_on_c, 1, 55, 110
3, 222716, Note_off_c, 1, 51, 100
3, 222720, Note_on_c, 1, 52, 110
3, 222814, Note_off_c, 1, 55, 100
3, 222816, Note_on_c, 1, 58, 110
3, 222910, Note_off_c, 1, 52, 100
3, 222912, Note_on_c, 1, 53, 110
3, 223002, Note_off_c, 1, 58, 100
3, 223008, Note_on_c, 1, 60, 110
3, 223100, Note_off_c, 1, 53, 100
3, 223104, Note_on_c, 1, 56, 110
3, 223198, Note_off_c, 1, 60, 100
3, 223200, Note_on_c, 1, 60, 110
3, 223290, Note_off_c, 1, 56, 100
3, 223296, Note_on_c, 1, 59, 110
3, 223384, Note_off_c, 1, 60, 100
3, 223392, Note_on_c, 1, 60, 110
3, 223480, Note_off_c, 1, 59, 100
3, 223488, Note_on_c, 1, 53, 110
3, 223576, Note_off_c, 1, 60, 100
3, 223584, Note_on_c, 1, 61, 110
3, 223672, Note_off_c, 1, 53, 100
3, 223680, Note_on_c, 1, 56, 110
3, 223774, Note_off_c, 1, 61, 100
3, 223776, Note_on_c, 1, 61, 110
3, 223864, Note_off_c, 1, 56, 100
3, 223872, Note_on_c, 1, 60, 110
3, 223964, Note_off_c, 1, 61, 100
3, 223968, Note_on_c, 1, 61, 110
3, 224058, Note_off_c, 1, 60, 100
3, 224064, Note_on_c, 1, 49, 110
3, 224158, Note_off_c, 1, 61, 100
3, 224160, Note_on_c, 1, 61, 110
3, 224254, Note_off_c, 1, 49, 100
3, 224256, Note_on_c, 1, 56, 110
3, 224346, Note_off_c, 1, 61, 100
3, 224352, Note_on_c, 1, 61, 110
3, 224438, Note_off_c, 1, 56, 100
3, 224448, Note_on_c, 1, 60, 110
3, 224534, Note_off_c, 1, 61, 100
3, 224544, Note_on_c, 1, 61, 110
3, 224634, Note_off_c, 1, 60, 100
3, 224640, Note_on_c, 1, 53, 110
3, 224728, Note_off_c, 1, 61, 100
3, 224736, Note_on_c, 1, 61, 110
3, 224828, Note_off_c, 1, 53, 100
3, 224832, Note_on_c, 1, 56, 110
3, 224922, Note_off_c, 1, 61, 100
3, 224928, Note_on_c, 1, 61, 110
3, 225016, Note_off_c, 1, 56, 100
3, 225024, Note_on_c, 1, 56, 110
3, 225112, Note_off_c, 1, 61, 100
3, 225120, Note_on_c, 1, 61, 110
3, 225208, Note_off_c, 1, 56, 100
3, 225216, Note_on_c, 1, 56, 110
3, 225308, Note_off_c, 1, 61, 100
3, 225312, Note_on_c, 1, 63, 110
3, 225406, Note_off_c, 1, 56, 100
3, 225408, Note_on_c, 1, 60, 110
3, 225494, Note_off_c, 1, 63, 100
3, 225504, Note_on_c, 1, 63, 110
3, 225592, Note_off_c, 1, 60, 100
3, 225600, Note_on_c, 1, 62, 110
3, 225690, Note_off_c, 1, 63, 100
3, 225696, Note_on_c, 1, 63, 110
3, 225782, Note_off_c, 1, 62, 100
3, 225792, Note_on_c, 1, 56, 110
3, 225886, Note_off_c, 1, 63, 100
3, 225888, Note_on_c, 1, 60, 110
3, 225982, Note_off_c, 1, 56, 100
3, 225984, Note_on_c, 1, 59, 110
3, 226076, Note_off_c, 1, 60, 100
3, 226080, Note_on_c, 1, 60, 110
3, 226174, Note_off_c, 1, 59, 100
3, 226176, Note_on_c, 1, 56, 110
3, 226264, Note_off_c, 1, 60, 100
3, 226272, Note_on_c, 1, 60, 110
3, 226364, Note_off_c, 1, 56, 100
3, 226368, Note_on_c, 1, 49, 110
3, 226454, Note_off_c, 1, 60, 100
3, 226464, Note_on_c, 1, 58, 110
3, 226558, Note_off_c, 1, 49, 100
3, 226560, Note_on_c, 1, 53, 110
3, 226648, Note_off_c, 1, 58, 100
3, 226656, Note_on_c, 1, 58, 110
3, 226748, Note_off_c, 1, 53, 100
3, 226752, Note_on_c, 1, 57, 110
3, 226842, Note_off_c, 1, 58, 100
3, 226848, Note_on_c, 1, 58, 110
3, 226938, Note_off_c, 1, 57, 100
3, 226944, Note_on_c, 1, 49, 110
3, 227032, Note_off_c, 1, 58, 100
3, 227040, Note_on_c, 1, 58, 110
3, 227128, Note_off_c, 1, 49, 100
3, 227136, Note_on_c, 1, 53, 110
3, 227226, Note_off_c, 1, 58, 100
3, 227232, Note_on_c, 1, 58, 110
3, 227324, Note_off_c, 1, 53, 100
3, 227328, Note_on_c, 1, 49, 110
3, 227418, Note_off_c, 1, 58, 100
3, 227424, Note_on_c, 1, 58, 110
3, 227518, Note_off_c, 1, 49, 100
3, 227520, Note_on_c, 1, 51, 110
3, 227612, Note_off_c, 1, 58, 100
3, 227616, Note_on_c, 1, 58, 110
3, 227708, Note_off_c, 1, 51, 100
3, 227712, Note_on_c, 1, 55, 110
3, 227804, Note_off_c, 1, 58, 100
3, 227808, Note_on_c, 1, 58, 110
3, 227902, Note_off_c, 1, 55, 100
3, 227904, Note_on_c, 1, 57, 110
3, 227992, Note_off_c, 1, 58, 100
3, 228000, Note_on_c, 1, 58, 110
3, 228088, Note_off_c, 1, 57, 100
3, 228096, Note_on_c, 1, 51, 110
3, 228182, Note_off_c, 1, 58, 100
3, 228192, Note_on_c, 1, 58, 110
3, 228278, Note_off_c, 1, 51, 100
3, 228288, Note_on_c, 1, 55, 110
3, 228376, Note_off_c, 1, 58, 100
3, 228384, Note_on_c, 1, 58, 110
3, 228478, Note_off_c, 1, 55, 100
3, 228480, Note_on_c, 1, 51, 110
3, 228568, Note_off_c, 1, 58, 100
3, 228576, Note_on_c, 1, 55, 110
3, 228666, Note_off_c, 1, 51, 100
3, 228672, Note_on_c, 1, 51, 110
3, 228760, Note_off_c, 1, 55, 100
3, 228768, Note_on_c, 1, 55, 110
3, 228860, Note_off_c, 1, 51, 100
3, 228864, Note_on_c, 1, 53, 110
3, 228950, Note_off_c, 1, 55, 100
3, 228960, Note_on_c, 1, 56, 110
3, 229052, Note_off_c, 1, 53, 100
3, 229056, Note_on_c, 1, 55, 110
3, 229144, Note_off_c, 1, 56, 100
3, 229152, Note_on_c, 1, 58, 110
3, 229242, Note_off_c, 1, 55, 100
3, 229248, Note_on_c, 1, 55, 110
3, 229336, Note_off_c, 1, 58, 100
3, 229344, Note_on_c, 1, 58, 110
3, 229438, Note_off_c, 1, 55, 100
3, 229440, Note_on_c, 1, 56, 110
3, 229528, Note_off_c, 1, 58, 100
3, 229536, Note_on_c, 1, 60, 110
3, 229626, Note_off_c, 1, 56, 100
3, 229632, Note_on_c, 1, 58, 110
3, 229726, Note_off_c, 1, 60, 100
3, 229728, Note_on_c, 1, 61, 110
3, 229822, Note_off_c, 1, 58, 100
3, 229824, Note_on_c, 1, 60, 110
3, 229912, Note_off_c, 1, 61, 100
3, 229920, Note_on_c, 1, 63, 110
3, 230004, Note_off_c, 1, 60, 100
3, 230016, Note_on_c, 1, 61, 110
3, 230108, Note_off_c, 1, 63, 100
3, 230112, Note_on_c, 1, 65, 110
3, 230206, Note_off_c, 1, 61, 100
3, 230208, Note_on_c, 1, 60, 110
3, 230298, Note_off_c, 1, 65, 100
3, 230304, Note_on_c, 1, 63, 110
3, 230390, Note_off_c, 1, 60, 100
3, 230400, Note_on_c, 1, 59, 110
3, 230486, Note_off_c, 1, 63, 100
3, 230496, Note_on_c, 1, 65, 110
3, 230582, Note_off_c, 1, 59, 100
3, 230592, Note_on_c, 1, 62, 110
3, 230678, Note_off_c, 1, 65, 100
3, 230688, Note_on_c, 1, 65, 110
3, 230774, Note_off_c, 1, 62, 100
3, 230784, Note_on_c, 1, 64, 110
3, 230874, Note_off_c, 1, 65, 100
3, 230880, Note_on_c, 1, 65, 110
3, 230968, Note_off_c, 1, 64, 100
3, 230976, Note_on_c, 1, 59, 110
3, 231064, Note_off_c, 1, 65, 100
3, 231072, Note_on_c, 1, 65, 110
3, 231156, Note_off_c, 1, 59, 100
3, 231168, Note_on_c, 1, 62, 110
3, 231260, Note_off_c, 1, 65, 100
3, 231264, Note_on_c, 1, 65, 110
3, 231352, Note_off_c, 1, 62, 100
3, 231360, Note_on_c, 1, 63, 110
3, 231448, Note_off_c, 1, 65, 100
3, 231456, Note_on_c, 1, 65, 110
3, 231548, Note_off_c, 1, 63, 100
3, 231552, Note_on_c, 1, 59, 110
3, 231638, Note_off_c, 1, 65, 100
3, 231648, Note_on_c, 1, 68, 110
3, 231738, Note_off_c, 1, 59, 100
3, 231744, Note_on_c, 1, 62, 110
3, 231836, Note_off_c, 1, 68, 100
3, 231840, Note_on_c, 1, 68, 110
3, 231934, Note_off_c, 1, 62, 100
3, 231936, Note_on_c, 1, 59, 110
3, 232026, Note_off_c, 1, 68, 100
3, 232032, Note_on_c, 1, 68, 110
3, 232124, Note_off_c, 1, 59, 100
3, 232128, Note_on_c, 1, 60, 110
3, 232214, Note_off_c, 1, 68, 100
3, 232224, Note_on_c, 1, 68, 110
3, 232318, Note_off_c, 1, 60, 100
3, 232320, Note_on_c, 1, 63, 110
3, 232406, Note_off_c, 1, 68, 100
3, 232416, Note_on_c, 1, 68, 110
3, 232504, Note_off_c, 1, 63, 100
3, 232512, Note_on_c, 1, 67, 110
3, 232604, Note_off_c, 1, 68, 100
3, 232608, Note_on_c, 1, 68, 110
3, 232698, Note_off_c, 1, 67, 100
3, 232704, Note_on_c, 1, 61, 110
3, 232794, Note_off_c, 1, 68, 100
3, 232800, Note_on_c, 1, 68, 110
3, 232892, Note_off_c, 1, 61, 100
3, 232896, Note_on_c, 1, 65, 110
3, 232986, Note_off_c, 1, 68, 100
3, 232992, Note_on_c, 1, 68, 110
3, 233082, Note_off_c, 1, 65, 100
3, 233088, Note_on_c, 1, 62, 110
3, 233178, Note_off_c, 1, 68, 100
3, 233184, Note_on_c, 1, 65, 110
3, 233272, Note_off_c, 1, 62, 100
3, 233280, Note_on_c, 1, 65, 110
3, 233374, Note_off_c, 1, 65, 100
3, 233376, Note_on_c, 1, 63, 110
3, 233466, Note_off_c, 1, 65, 100
3, 233472, Note_on_c, 1, 61, 110
3, 233566, Note_off_c, 1, 63, 100
3, 233568, Note_on_c, 1, 60, 110
3, 233656, Note_off_c, 1, 61, 100
3, 233664, Note_on_c, 1, 58, 110
3, 233752, Note_off_c, 1, 60, 100
3, 233760, Note_on_c, 1, 56, 110
3, 233848, Note_off_c, 1, 58, 100
3, 233950, Note_off_c, 1, 56, 100
3, 233952, Note_on_c, 1, 55, 110
3, 234048, Note_on_c, 1, 53, 110
3, 234142, Note_off_c, 1, 55, 100
3, 234144, Note_on_c, 1, 51, 110
3, 234238, Note_off_c, 1, 53, 100
3, 234240, Note_on_c, 1, 50, 110
3, 234328, Note_off_c, 1, 51, 100
3, 234336, Note_on_c, 1, 51, 110
3, 234424, Note_off_c, 1, 50, 100
3, 234432, Note_on_c, 1, 41, 110
3, 234518, Note_off_c, 1, 51, 100
3, 234528, Note_on_c, 1, 53, 110
3, 234618, Note_off_c, 1, 41, 100
3, 234624, Note_on_c, 1, 46, 110
3, 234718, Note_off_c, 1, 53, 100
3, 234720, Note_on_c, 1, 53, 110
3, 234810, Note_off_c, 1, 46, 100
3, 234816, Note_on_c, 1, 46, 110
3, 234906, Note_off_c, 1, 53, 100
3, 234912, Note_on_c, 1, 53, 110
3, 235006, Note_off_c, 1, 46, 100
3, 235008, Note_on_c, 1, 43, 110
3, 235098, Note_off_c, 1, 53, 100
3, 235104, Note_on_c, 1, 55, 110
3, 235194, Note_off_c, 1, 43, 100
3, 235200, Note_on_c, 1, 51, 110
3, 235294, Note_off_c, 1, 55, 100
3, 235296, Note_on_c, 1, 55, 110
3, 235390, Note_off_c, 1, 51, 100
3, 235392, Note_on_c, 1, 51, 110
3, 235484, Note_off_c, 1, 55, 100
3, 235488, Note_on_c, 1, 55, 110
3, 235580, Note_off_c, 1, 51, 100
3, 235584, Note_on_c, 1, 44, 110
3, 235676, Note_off_c, 1, 55, 100
3, 235680, Note_on_c, 1, 46, 110
3, 235770, Note_off_c, 1, 44, 100
3, 235776, Note_on_c, 1, 44, 110
3, 235870, Note_off_c, 1, 46, 100
3, 235872, Note_on_c, 1, 42, 110
3, 235966, Note_off_c, 1, 44, 100
3, 235968, Note_on_c, 1, 41, 110
3, 236062, Note_off_c, 1, 42, 100
3, 236064, Note_on_c, 1, 39, 110
3, 236154, Note_off_c, 1, 41, 100
3, 236160, Note_on_c, 1, 37, 110
3, 236248, Note_off_c, 1, 39, 100
3, 236256, Note_on_c, 1, 44, 110
3, 236344, Note_off_c, 1, 37, 100
3, 236352, Note_on_c, 1, 41, 110
3, 236438, Note_off_c, 1, 44, 100
3, 236448, Note_on_c, 1, 44, 110
3, 236536, Note_off_c, 1, 41, 100
3, 236544, Note_on_c, 1, 38, 110
3, 236634, Note_off_c, 1, 44, 100
3, 236640, Note_on_c, 1, 44, 110
3, 236730, Note_off_c, 1, 38, 100
3, 236736, Note_on_c, 1, 39, 110
3, 236826, Note_off_c, 1, 44, 100
3, 236832, Note_on_c, 1, 51, 110
3, 236926, Note_off_c, 1, 39, 100
3, 236928, Note_on_c, 1, 37, 110
3, 237022, Note_off_c, 1, 51, 100
3, 237024, Note_on_c, 1, 49, 110
3, 237110, Note_off_c, 1, 37, 100
3, 237120, Note_on_c, 1, 39, 110
3, 237212, Note_off_c, 1, 49, 100
3, 237216, Note_on_c, 1, 51, 110
3, 237306, Note_off_c, 1, 39, 100
3, 237312, Note_on_c, 1, 32, 110
3, 237400, Note_off_c, 1, 51, 100
3, 237408, Note_on_c, 1, 44, 110
3, 237498, Note_off_c, 1, 32, 100
3, 237504, Note_on_c, 1, 36, 110
3, 237592, Note_off_c, 1, 44, 100
3, 237600, Note_on_c, 1, 44, 110
3, 237688, Note_off_c, 1, 36, 100
3, 237696, Note_on_c, 1, 39, 110
3, 237788, Note_off_c, 1, 44, 100
3, 237792, Note_on_c, 1, 44, 110
3, 237886, Note_off_c, 1, 39, 100
3, 237888, Note_on_c, 1, 32, 110
3, 237982, Note_off_c, 1, 44, 100
3, 237984, Note_on_c, 1, 44, 110
3, 238078, Note_off_c, 1, 32, 100
3, 238080, Note_on_c, 1, 37, 110
3, 238166, Note_off_c, 1, 44, 100
3, 238176, Note_on_c, 1, 44, 110
3, 238266, Note_off_c, 1, 37, 100
3, 238272, Note_on_c, 1, 41, 110
3, 238362, Note_off_c, 1, 44, 100
3, 238368, Note_on_c, 1, 44, 110
3, 238462, Note_off_c, 1, 41, 100
3, 238464, Note_on_c, 1, 32, 110
3, 238556, Note_off_c, 1, 44, 100
3, 238560, Note_on_c, 1, 44, 110
3, 238648, Note_off_c, 1, 32, 100
3, 238656, Note_on_c, 1, 37, 110
3, 238748, Note_off_c, 1, 44, 100
3, 238752, Note_on_c, 1, 44, 110
3, 238840, Note_off_c, 1, 37, 100
3, 238848, Note_on_c, 1, 40, 110
3, 238936, Note_off_c, 1, 44, 100
3, 238944, Note_on_c, 1, 44, 110
3, 239034, Note_off_c, 1, 40, 100
3, 239040, Note_on_c, 1, 32, 110
3, 239134, Note_off_c, 1, 44, 100
3, 239136, Note_on_c, 1, 44, 110
3, 239224, Note_off_c, 1, 32, 100
3, 239232, Note_on_c, 1, 36, 110
3, 239326, Note_off_c, 1, 44, 100
3, 239328, Note_on_c, 1, 44, 110
3, 239422, Note_off_c, 1, 36, 100
3, 239424, Note_on_c, 1, 39, 110
3, 239512, Note_off_c, 1, 44, 100
3, 239520, Note_on_c, 1, 44, 110
3, 239614, Note_off_c, 1, 39, 100
3, 239616, Note_on_c, 1, 32, 110
3, 239700, Note_off_c, 1, 44, 100
3, 239712, Note_on_c, 1, 44, 110
3, 239802, Note_off_c, 1, 32, 100
3, 239808, Note_on_c, 1, 39, 110
3, 239892, Note_off_c, 1, 44, 100
3, 239904, Note_on_c, 1, 44, 110
3, 239994, Note_off_c, 1, 39, 100
3, 240000, Note_on_c, 1, 42, 110
3, 240092, Note_off_c, 1, 44, 100
3, 240096, Note_on_c, 1, 44, 110
3, 240186, Note_off_c, 1, 42, 100
3, 240192, Note_on_c, 1, 32, 110
3, 240276, Note_off_c, 1, 44, 100
3, 240288, Note_on_c, 1, 44, 110
3, 240378, Note_off_c, 1, 32, 100
3, 240384, Note_on_c, 1, 37, 110
3, 240468, Note_off_c, 1, 44, 100
3, 240480, Note_on_c, 1, 44, 110
3, 240568, Note_off_c, 1, 37, 100
3, 240576, Note_on_c, 1, 41, 110
3, 240668, Note_off_c, 1, 44, 100
3, 240672, Note_on_c, 1, 44, 110
3, 240762, Note_off_c, 1, 41, 100
3, 240768, Note_on_c, 1, 32, 110
3, 240858, Note_off_c, 1, 44, 100
3, 240864, Note_on_c, 1, 44, 110
3, 240954, Note_off_c, 1, 32, 100
3, 240960, Note_on_c, 1, 37, 110
3, 241050, Note_off_c, 1, 44, 100
3, 241056, Note_on_c, 1, 44, 110
3, 241150, Note_off_c, 1, 37, 100
3, 241152, Note_on_c, 1, 40, 110
3, 241246, Note_off_c, 1, 44, 100
3, 241248, Note_on_c, 1, 44, 110
3, 241334, Note_off_c, 1, 40, 100
3, 241344, Note_on_c, 1, 32, 110
3, 241428, Note_off_c, 1, 44, 100
3, 241440, Note_on_c, 1, 44, 110
3, 241530, Note_off_c, 1, 32, 100
3, 241536, Note_on_c, 1, 39, 110
3, 241624, Note_off_c, 1, 44, 100
3, 241632, Note_on_c, 1, 44, 110
3, 241724, Note_off_c, 1, 39, 100
3, 241728, Note_on_c, 1, 42, 110
3, 241820, Note_off_c, 1, 44, 100
3, 241824, Note_on_c, 1, 44, 110
3, 241910, Note_off_c, 1, 42, 100
3, 241920, Note_on_c, 1, 32, 110
3, 242006, Note_off_c, 1, 44, 100
3, 242016, Note_on_c, 1, 44, 110
3, 242108, Note_off_c, 1, 32, 100
3, 242112, Note_on_c, 1, 39, 110
3, 242206, Note_off_c, 1, 44, 100
3, 242208, Note_on_c, 1, 44, 110
3, 242296, Note_off_c, 1, 39, 100
3, 242304, Note_on_c, 1, 42, 110
3, 242394, Note_off_c, 1, 44, 100
3, 242400, Note_on_c, 1, 44, 110
3, 242490, Note_off_c, 1, 42, 100
3, 242496, Note_on_c, 1, 32, 110
3, 242584, Note_off_c, 1, 44, 100
3, 242592, Note_on_c, 1, 44, 110
3, 242684, Note_off_c, 1, 32, 100
3, 242688, Note_on_c, 1, 37, 110
3, 242774, Note_off_c, 1, 44, 100
3, 242784, Note_on_c, 1, 44, 110
3, 242876, Note_off_c, 1, 37, 100
3, 242880, Note_on_c, 1, 41, 110
3, 242966, Note_off_c, 1, 44, 100
3, 242976, Note_on_c, 1, 44, 110
3, 243062, Note_off_c, 1, 41, 100
3, 243072, Note_on_c, 1, 32, 110
3, 243164, Note_off_c, 1, 44, 100
3, 243168, Note_on_c, 1, 44, 110
3, 243258, Note_off_c, 1, 32, 100
3, 243264, Note_on_c, 1, 38, 110
3, 243352, Note_off_c, 1, 44, 100
3, 243360, Note_on_c, 1, 44, 110
3, 243452, Note_off_c, 1, 38, 100
3, 243456, Note_on_c, 1, 41, 110
3, 243550, Note_off_c, 1, 44, 100
3, 243552, Note_on_c, 1, 44, 110
3, 243646, Note_off_c, 1, 41, 100
3, 243648, Note_on_c, 1, 32, 110
3, 243742, Note_off_c, 1, 44, 100
3, 243744, Note_on_c, 1, 44, 110
3, 243830, Note_off_c, 1, 32, 100
3, 243840, Note_on_c, 1, 38, 110
3, 243932, Note_off_c, 1, 44, 100
3, 243936, Note_on_c, 1, 44, 110
3, 244022, Note_off_c, 1, 38, 100
3, 244032, Note_on_c, 1, 41, 110
3, 244124, Note_off_c, 1, 44, 100
3, 244128, Note_on_c, 1, 44, 110
3, 244222, Note_off_c, 1, 41, 100
3, 244224, Note_on_c, 1, 32, 110
3, 244310, Note_off_c, 1, 44, 100
3, 244320, Note_on_c, 1, 44, 110
3, 244410, Note_off_c, 1, 32, 100
3, 244416, Note_on_c, 1, 38, 110
3, 244510, Note_off_c, 1, 44, 100
3, 244512, Note_on_c, 1, 44, 110
3, 244602, Note_off_c, 1, 38, 100
3, 244608, Note_on_c, 1, 41, 110
3, 244702, Note_off_c, 1, 44, 100
3, 244704, Note_on_c, 1, 44, 110
3, 244796, Note_off_c, 1, 41, 100
3, 244796, Note_off_c, 1, 44, 100
3, 244800, Control_c, 1, 64, 127
3, 244800, Note_on_c, 1, 32, 120
3, 244892, Note_off_c, 1, 32, 100
3, 244896, Note_on_c, 1, 43, 120
3, 244988, Note_off_c, 1, 43, 100
3, 244992, Note_on_c, 1, 34, 120
3, 245084, Note_off_c, 1, 34, 100
3, 245088, Note_on_c, 1, 43, 120
3, 245180, Note_off_c, 1, 43, 100
3, 245184, Note_on_c, 1, 37, 120
3, 245276, Note_off_c, 1, 37, 100
3, 245280, Note_on_c, 1, 43, 120
3, 245372, Note_off_c, 1, 43, 100
3, 245376, Note_on_c, 1, 40, 120
3, 245468, Note_off_c, 1, 40, 100
3, 245472, Note_on_c, 1, 43, 120
3, 245564, Note_off_c, 1, 43, 100
3, 245568, Note_on_c, 1, 37, 120
3, 245660, Note_off_c, 1, 37, 100
3, 245664, Note_on_c, 1, 43, 120
3, 245736, Note_on_c, 1, 34, 120
3, 245756, Note_off_c, 1, 43, 100
3, 245828, Note_off_c, 1, 34, 100
3, 245856, Note_on_c, 1, 43, 120
3, 245948, Note_off_c, 1, 43, 100
3, 245952, Note_on_c, 1, 32, 120
3, 246044, Note_off_c, 1, 32, 100
3, 246048, Note_on_c, 1, 43, 120
3, 246140, Note_off_c, 1, 43, 100
3, 246144, Note_on_c, 1, 34, 120
3, 246236, Note_off_c, 1, 34, 100
3, 246240, Note_on_c, 1, 43, 120
3, 246332, Note_off_c, 1, 43, 100
3, 246336, Note_on_c, 1, 37, 120
3, 246428, Note_off_c, 1, 37, 100
3, 246432, Note_on_c, 1, 43, 120
3, 246524, Note_off_c, 1, 43, 100
3, 246528, Note_on_c, 1, 40, 120
3, 246620, Note_off_c, 1, 40, 100
3, 246624, Note_on_c, 1, 43, 120
3, 246716, Note_off_c, 1, 43, 100
3, 246720, Note_on_c, 1, 37, 120
3, 246812, Note_off_c, 1, 37, 100
3, 246816, Note_on_c, 1, 43, 120
3, 246888, Note_on_c, 1, 34, 120
3, 246908, Note_off_c, 1, 43, 100
3, 246980, Note_off_c, 1, 34, 100
3, 247008, Note_on_c, 1, 43, 120
3, 247100, Note_off_c, 1, 43, 100
3, 247100, Control_c, 1, 64, 0
3, 247104, Control_c, 1, 64, 127
3, 247104, Note_on_c, 1, 44, 120
3, 247104, Note_on_c, 1, 39, 120
3, 247104, Note_on_c, 1, 36, 120
3, 247104, Note_on_c, 1, 32, 120
3, 247484, Note_off_c, 1, 44, 100
3, 247484, Note_off_c, 1, 39, 100
3, 247484, Note_off_c, 1, 36, 100
3, 247484, Note_off_c, 1, 32, 100
3, 248832, Note_on_c, 1, 56, 120
3, 248928, Note_on_c, 1, 51, 120
3, 249024, Note_on_c, 1, 48, 120
3, 249116, Note_off_c, 1, 56, 100
3, 249120, Note_on_c, 1, 51, 120
3, 249212, Note_off_c, 1, 51, 100
3, 249216, Note_on_c, 1, 48, 120
3, 249308, Note_off_c, 1, 48, 100
3, 249312, Note_on_c, 1, 44, 120
3, 249404, Note_off_c, 1, 51, 100
3, 249408, Note_on_c, 1, 32, 120
3, 249500, Note_off_c, 1, 48, 100
3, 249504, Note_on_c, 1, 36, 120
3, 249596, Note_off_c, 1, 44, 100
3, 249600, Note_on_c, 1, 39, 120
3, 249692, Note_off_c, 1, 32, 100
3, 249696, Note_on_c, 1, 44, 120
3, 249788, Note_off_c, 1, 36, 100
3, 249792, Note_on_c, 1, 48, 120
3, 249884, Note_off_c, 1, 39, 100
3, 249888, Note_on_c, 1, 51, 120
3, 249980, Note_off_c, 1, 44, 100
3, 249984, Note_on_c, 1, 44, 120
3, 250076, Note_off_c, 1, 48, 100
3, 250080, Note_on_c, 1, 48, 120
3, 250172, Note_off_c, 1, 51, 100
3, 250176, Note_on_c, 1, 51, 120
3, 250268, Note_off_c, 1, 44, 100
3, 250364, Note_off_c, 1, 48, 100
3, 250460, Note_off_c, 1, 51, 100
3, 250560, Note_on_c, 1, 56, 120
3, 250656, Note_on_c, 1, 60, 120
3, 250752, Note_on_c, 1, 63, 120
3, 250844, Note_off_c, 1, 56, 100
3, 250940, Note_off_c, 1, 60, 100
3, 251036, Note_off_c, 1, 63, 100
3, 251712, Note_on_c, 1, 44, 120
3, 251712, Note_on_c, 1, 39, 120
3, 251712, Note_on_c, 1, 36, 120
3, 251712, Note_on_c, 1, 32, 120
3, 252668, Note_off_c, 1, 44, 100
3, 252668, Note_off_c, 1, 39, 100
3, 252668, Note_off_c, 1, 36, 100
3, 252668, Note_off_c, 1, 32, 100
3, 252668, Control_c, 1, 64, 0
3, 252668, End_track
0, 0, End_of_file
