0, 0, Header, 1, 3, 384
1, 0, Start_track
1, 0, Title_t, "L.v.Beethoven 2mov - Piano Sonata No.31 in Ab Major Op.110\000"
1, 0, Copyright_t, "Copyright(C) 1995-2016, Suzuki Software\000"
1, 0, Sequencer_specific, 9, 67, 123, 0, 88, 70, 48, 50, 0, 1
1, 0, Text_t, "XFhd:2016/01/01:JP:Classical::::L.v.Beethoven:::Kaoru Suzuki\000"
1, 0, Text_t, "XFln:JP:\203s\203A\203m\203\\\203i\203^\221æ31\224Ô\225Ï\203C\222·\222²\215ì\225i110\201`\221æ2\212y\217Í:L.v.\203x\201[\203g\201[\203\224\203F\203\223:::\227é\202¿\202á\202ñ:\227é\202¿\202á\202ñ\000"
1, 0, Time_signature, 2, 2, 96, 8
1, 0, Sequencer_specific, 5, 0, 0, 119, 14, 0
1, 0, Tempo, 222222
1, 1920, Tempo, 250000
1, 3072, Tempo, 222222
1, 4608, Tempo, 230769
1, 4992, Tempo, 240000
1, 5376, Tempo, 250000
1, 6144, Tempo, 222222
1, 8064, Tempo, 250000
1, 9216, Tempo, 222222
1, 11136, Tempo, 230769
1, 11520, Tempo, 250000
1, 12288, Tempo, 222222
1, 17280, Tempo, 250000
1, 17664, Tempo, 300000
1, 18432, Tempo, 222222
1, 23808, Tempo, 240000
1, 24192, Tempo, 260869
1, 24576, Tempo, 222222
1, 28416, Tempo, 226415
1, 29184, Tempo, 230769
1, 29568, Tempo, 250000
1, 30720, Tempo, 260869
1, 31488, Tempo, 300000
1, 32256, Tempo, 352941
1, 32640, Tempo, 428571
1, 33024, Tempo, 222222
1, 41472, Tempo, 230769
1, 41856, Tempo, 250000
1, 43008, Tempo, 235294
1, 43392, Tempo, 222222
1, 52224, Tempo, 226415
1, 52992, Tempo, 230769
1, 53760, Tempo, 244897
1, 54144, Tempo, 260869
1, 55296, Tempo, 272727
1, 56064, Tempo, 300000
1, 56832, Tempo, 333333
1, 57216, Tempo, 428571
1, 57600, Tempo, 222222
1, 60288, Tempo, 232558
1, 60672, Tempo, 250000
1, 61056, Tempo, 222222
1, 86400, Tempo, 230769
1, 86592, Tempo, 240000
1, 86784, Tempo, 272727
1, 87168, Tempo, 250000
1, 87552, Tempo, 300000
1, 88320, Tempo, 222222
1, 100608, Tempo, 226415
1, 101376, Tempo, 230769
1, 102144, Tempo, 236220
1, 102720, Tempo, 256410
1, 102912, Tempo, 272727
1, 103104, Tempo, 300000
1, 103296, Tempo, 333333
1, 105216, Tempo, 230769
1, 105600, Tempo, 222222
1, 112128, Tempo, 240000
1, 112896, Tempo, 260869
1, 113280, Tempo, 285714
1, 113664, Tempo, 333333
1, 114432, Tempo, 230769
1, 114816, Tempo, 222222
1, 133632, Tempo, 226415
1, 134400, Tempo, 230769
1, 135168, Tempo, 240000
1, 135936, Tempo, 250000
1, 136704, Tempo, 272727
1, 137088, Tempo, 315789
1, 137472, Tempo, 375000
1, 137856, Tempo, 428571
1, 138240, Tempo, 222222
1, 157440, Tempo, 226415
1, 158208, Tempo, 230769
1, 158976, Tempo, 235294
1, 159744, Tempo, 240000
1, 160512, Tempo, 250000
1, 161280, Tempo, 300000
1, 161664, Tempo, 333333
1, 162048, Tempo, 400000
1, 162432, Tempo, 500000
1, 162816, Tempo, 230769
1, 165120, Tempo, 222222
1, 171264, Tempo, 226415
1, 172800, Tempo, 230769
1, 174336, Tempo, 235294
1, 174336, End_track
2, 0, Start_track
2, 0, Title_t, "Right"
2, 0, Control_c, 0, 0, 0
2, 0, Program_c, 0, 0
2, 0, Control_c, 0, 7, 100
2, 0, Control_c, 0, 10, 77
2, 0, Control_c, 0, 91, 127
2, 0, Note_on_c, 0, 68, 80
2, 0, Note_on_c, 0, 72, 80
2, 380, Note_off_c, 0, 68, 100
2, 380, Note_off_c, 0, 72, 100
2, 384, Note_on_c, 0, 64, 80
2, 384, Note_on_c, 0, 70, 80
2, 764, Note_off_c, 0, 64, 100
2, 764, Note_off_c, 0, 70, 100
2, 768, Note_on_c, 0, 65, 80
2, 768, Note_on_c, 0, 68, 80
2, 1148, Note_off_c, 0, 65, 100
2, 1148, Note_off_c, 0, 68, 100
2, 1152, Note_on_c, 0, 61, 80
2, 1152, Note_on_c, 0, 64, 80
2, 1152, Note_on_c, 0, 67, 80
2, 1532, Note_off_c, 0, 61, 100
2, 1532, Note_off_c, 0, 64, 100
2, 1532, Note_off_c, 0, 67, 100
2, 1536, Note_on_c, 0, 56, 80
2, 1536, Note_on_c, 0, 62, 80
2, 1536, Note_on_c, 0, 65, 80
2, 1916, Note_off_c, 0, 56, 100
2, 1916, Note_off_c, 0, 62, 100
2, 1916, Note_off_c, 0, 65, 100
2, 1920, Note_on_c, 0, 56, 80
2, 1920, Note_on_c, 0, 62, 80
2, 1920, Note_on_c, 0, 65, 80
2, 2300, Note_off_c, 0, 56, 100
2, 2300, Note_off_c, 0, 62, 100
2, 2300, Note_off_c, 0, 65, 100
2, 2304, Note_on_c, 0, 55, 80
2, 2304, Note_on_c, 0, 64, 80
2, 3068, Note_off_c, 0, 55, 100
2, 3068, Note_off_c, 0, 64, 100
2, 3072, Note_on_c, 0, 72, 120
2, 3072, Note_on_c, 0, 76, 120
2, 3072, Note_on_c, 0, 79, 120
2, 3452, Note_off_c, 0, 72, 100
2, 3452, Note_off_c, 0, 76, 100
2, 3452, Note_off_c, 0, 79, 100
2, 3456, Note_on_c, 0, 67, 120
2, 3456, Note_on_c, 0, 72, 120
2, 3456, Note_on_c, 0, 76, 120
2, 3836, Note_off_c, 0, 67, 100
2, 3836, Note_off_c, 0, 72, 100
2, 3836, Note_off_c, 0, 76, 100
2, 3840, Note_on_c, 0, 64, 120
2, 3840, Note_on_c, 0, 67, 120
2, 3840, Note_on_c, 0, 72, 120
2, 4220, Note_off_c, 0, 64, 100
2, 4220, Note_off_c, 0, 67, 100
2, 4220, Note_off_c, 0, 72, 100
2, 4224, Note_on_c, 0, 64, 120
2, 4224, Note_on_c, 0, 67, 120
2, 4224, Note_on_c, 0, 72, 120
2, 4604, Note_off_c, 0, 64, 100
2, 4604, Note_off_c, 0, 67, 100
2, 4604, Note_off_c, 0, 72, 100
2, 4608, Note_on_c, 0, 64, 120
2, 4608, Note_on_c, 0, 67, 120
2, 4608, Note_on_c, 0, 72, 120
2, 4988, Note_off_c, 0, 64, 100
2, 4988, Note_off_c, 0, 67, 100
2, 4988, Note_off_c, 0, 72, 100
2, 4992, Note_on_c, 0, 67, 120
2, 4992, Note_on_c, 0, 71, 120
2, 4992, Note_on_c, 0, 74, 120
2, 5372, Note_off_c, 0, 67, 100
2, 5372, Note_off_c, 0, 71, 100
2, 5372, Note_off_c, 0, 74, 100
2, 5376, Note_on_c, 0, 67, 120
2, 5376, Note_on_c, 0, 72, 120
2, 5376, Note_on_c, 0, 76, 120
2, 6140, Note_off_c, 0, 67, 100
2, 6140, Note_off_c, 0, 72, 100
2, 6140, Note_off_c, 0, 76, 100
2, 6144, Note_on_c, 0, 68, 80
2, 6144, Note_on_c, 0, 72, 80
2, 6524, Note_off_c, 0, 68, 100
2, 6524, Note_off_c, 0, 72, 100
2, 6528, Note_on_c, 0, 64, 80
2, 6528, Note_on_c, 0, 70, 80
2, 6908, Note_off_c, 0, 64, 100
2, 6908, Note_off_c, 0, 70, 100
2, 6912, Note_on_c, 0, 65, 80
2, 6912, Note_on_c, 0, 68, 80
2, 7292, Note_off_c, 0, 65, 100
2, 7292, Note_off_c, 0, 68, 100
2, 7296, Note_on_c, 0, 61, 80
2, 7296, Note_on_c, 0, 64, 80
2, 7296, Note_on_c, 0, 67, 80
2, 7676, Note_off_c, 0, 61, 100
2, 7676, Note_off_c, 0, 64, 100
2, 7676, Note_off_c, 0, 67, 100
2, 7680, Note_on_c, 0, 56, 80
2, 7680, Note_on_c, 0, 62, 80
2, 7680, Note_on_c, 0, 65, 80
2, 8060, Note_off_c, 0, 56, 100
2, 8060, Note_off_c, 0, 62, 100
2, 8060, Note_off_c, 0, 65, 100
2, 8064, Note_on_c, 0, 56, 80
2, 8064, Note_on_c, 0, 62, 80
2, 8064, Note_on_c, 0, 65, 80
2, 8444, Note_off_c, 0, 56, 100
2, 8444, Note_off_c, 0, 62, 100
2, 8444, Note_off_c, 0, 65, 100
2, 8448, Note_on_c, 0, 55, 80
2, 8448, Note_on_c, 0, 64, 80
2, 9212, Note_off_c, 0, 55, 100
2, 9212, Note_off_c, 0, 64, 100
2, 9216, Note_on_c, 0, 72, 120
2, 9216, Note_on_c, 0, 76, 120
2, 9216, Note_on_c, 0, 79, 120
2, 9596, Note_off_c, 0, 72, 100
2, 9596, Note_off_c, 0, 76, 100
2, 9596, Note_off_c, 0, 79, 100
2, 9600, Note_on_c, 0, 67, 120
2, 9600, Note_on_c, 0, 72, 120
2, 9600, Note_on_c, 0, 76, 120
2, 9980, Note_off_c, 0, 67, 100
2, 9980, Note_off_c, 0, 72, 100
2, 9980, Note_off_c, 0, 76, 100
2, 9984, Note_on_c, 0, 64, 120
2, 9984, Note_on_c, 0, 67, 120
2, 9984, Note_on_c, 0, 72, 120
2, 10364, Note_off_c, 0, 64, 100
2, 10364, Note_off_c, 0, 67, 100
2, 10364, Note_off_c, 0, 72, 100
2, 10368, Note_on_c, 0, 64, 120
2, 10368, Note_on_c, 0, 67, 120
2, 10368, Note_on_c, 0, 72, 120
2, 10748, Note_off_c, 0, 64, 100
2, 10748, Note_off_c, 0, 67, 100
2, 10748, Note_off_c, 0, 72, 100
2, 10752, Note_on_c, 0, 64, 120
2, 10752, Note_on_c, 0, 67, 120
2, 10752, Note_on_c, 0, 72, 120
2, 11132, Note_off_c, 0, 64, 100
2, 11132, Note_off_c, 0, 67, 100
2, 11132, Note_off_c, 0, 72, 100
2, 11136, Note_on_c, 0, 67, 120
2, 11136, Note_on_c, 0, 71, 120
2, 11136, Note_on_c, 0, 74, 120
2, 11516, Note_off_c, 0, 67, 100
2, 11516, Note_off_c, 0, 71, 100
2, 11516, Note_off_c, 0, 74, 100
2, 11520, Note_on_c, 0, 67, 120
2, 11520, Note_on_c, 0, 72, 120
2, 11520, Note_on_c, 0, 76, 120
2, 12284, Note_off_c, 0, 67, 100
2, 12284, Note_off_c, 0, 72, 100
2, 12284, Note_off_c, 0, 76, 100
2, 12288, Note_on_c, 0, 76, 120
2, 12288, Note_on_c, 0, 79, 120
2, 12668, Note_off_c, 0, 76, 100
2, 12668, Note_off_c, 0, 79, 100
2, 12672, Note_on_c, 0, 74, 120
2, 12672, Note_on_c, 0, 79, 120
2, 13052, Note_off_c, 0, 74, 100
2, 13052, Note_off_c, 0, 79, 100
2, 13056, Note_on_c, 0, 76, 120
2, 13056, Note_on_c, 0, 79, 120
2, 13436, Note_off_c, 0, 79, 100
2, 13440, Note_on_c, 0, 80, 120
2, 13820, Note_off_c, 0, 80, 100
2, 13824, Note_on_c, 0, 80, 120
2, 14204, Note_off_c, 0, 76, 64
2, 14204, Note_off_c, 0, 80, 100
2, 14208, Note_on_c, 0, 77, 120
2, 14208, Note_on_c, 0, 80, 120
2, 14588, Note_off_c, 0, 80, 100
2, 14592, Note_on_c, 0, 80, 120
2, 14972, Note_off_c, 0, 77, 64
2, 14972, Note_off_c, 0, 80, 100
2, 14976, Note_on_c, 0, 77, 120
2, 14976, Note_on_c, 0, 80, 120
2, 14976, Note_on_c, 0, 82, 120
2, 15356, Note_off_c, 0, 82, 100
2, 15360, Note_on_c, 0, 82, 120
2, 15740, Note_off_c, 0, 77, 64
2, 15740, Note_off_c, 0, 80, 64
2, 15740, Note_off_c, 0, 82, 100
2, 15744, Note_on_c, 0, 75, 120
2, 15744, Note_on_c, 0, 79, 120
2, 15744, Note_on_c, 0, 82, 120
2, 16124, Note_off_c, 0, 79, 100
2, 16124, Note_off_c, 0, 82, 100
2, 16128, Note_on_c, 0, 79, 120
2, 16128, Note_on_c, 0, 82, 120
2, 16508, Note_off_c, 0, 79, 100
2, 16508, Note_off_c, 0, 82, 100
2, 16512, Note_on_c, 0, 80, 120
2, 16512, Note_on_c, 0, 84, 120
2, 16892, Note_off_c, 0, 75, 64
2, 16892, Note_off_c, 0, 80, 100
2, 16892, Note_off_c, 0, 84, 100
2, 16896, Note_on_c, 0, 77, 120
2, 16896, Note_on_c, 0, 82, 120
2, 16896, Note_on_c, 0, 85, 120
2, 17276, Note_off_c, 0, 77, 100
2, 17276, Note_off_c, 0, 82, 100
2, 17276, Note_off_c, 0, 85, 100
2, 17280, Note_on_c, 0, 73, 120
2, 17280, Note_on_c, 0, 79, 120
2, 17280, Note_on_c, 0, 82, 120
2, 17660, Note_off_c, 0, 73, 100
2, 17660, Note_off_c, 0, 79, 100
2, 17660, Note_off_c, 0, 82, 100
2, 17664, Note_on_c, 0, 72, 120
2, 17664, Note_on_c, 0, 80, 120
2, 18428, Note_off_c, 0, 72, 100
2, 18428, Note_off_c, 0, 80, 100
2, 18432, Note_on_c, 0, 68, 80
2, 18812, Note_off_c, 0, 68, 100
2, 18816, Note_on_c, 0, 68, 80
2, 19196, Note_off_c, 0, 68, 100
2, 19200, Note_on_c, 0, 67, 80
2, 19388, Note_off_c, 0, 67, 100
2, 19392, Note_on_c, 0, 65, 80
2, 19580, Note_off_c, 0, 65, 100
2, 19584, Note_on_c, 0, 63, 80
2, 19964, Note_off_c, 0, 63, 100
2, 19968, Note_on_c, 0, 68, 80
2, 19968, Note_on_c, 0, 72, 80
2, 20348, Note_off_c, 0, 68, 100
2, 20348, Note_off_c, 0, 72, 100
2, 20352, Note_on_c, 0, 68, 80
2, 20352, Note_on_c, 0, 72, 80
2, 20732, Note_off_c, 0, 68, 100
2, 20732, Note_off_c, 0, 72, 100
2, 20736, Note_on_c, 0, 67, 80
2, 20736, Note_on_c, 0, 70, 80
2, 20924, Note_off_c, 0, 67, 100
2, 20924, Note_off_c, 0, 70, 100
2, 20928, Note_on_c, 0, 65, 80
2, 20928, Note_on_c, 0, 68, 80
2, 21116, Note_off_c, 0, 65, 100
2, 21116, Note_off_c, 0, 68, 100
2, 21120, Note_on_c, 0, 63, 80
2, 21120, Note_on_c, 0, 67, 80
2, 21500, Note_off_c, 0, 63, 100
2, 21500, Note_off_c, 0, 67, 100
2, 21504, Note_on_c, 0, 72, 80
2, 21504, Note_on_c, 0, 75, 80
2, 21884, Note_off_c, 0, 72, 100
2, 21884, Note_off_c, 0, 75, 100
2, 21888, Note_on_c, 0, 72, 80
2, 21888, Note_on_c, 0, 75, 80
2, 22268, Note_off_c, 0, 72, 100
2, 22268, Note_off_c, 0, 75, 100
2, 22272, Note_on_c, 0, 70, 80
2, 22272, Note_on_c, 0, 73, 80
2, 22652, Note_off_c, 0, 70, 100
2, 22652, Note_off_c, 0, 73, 100
2, 22656, Note_on_c, 0, 68, 80
2, 22656, Note_on_c, 0, 72, 80
2, 23036, Note_off_c, 0, 68, 100
2, 23036, Note_off_c, 0, 72, 100
2, 23040, Note_on_c, 0, 67, 80
2, 23040, Note_on_c, 0, 70, 80
2, 23420, Note_off_c, 0, 67, 100
2, 23420, Note_off_c, 0, 70, 100
2, 23424, Note_on_c, 0, 68, 80
2, 23424, Note_on_c, 0, 72, 80
2, 23804, Note_off_c, 0, 68, 100
2, 23804, Note_off_c, 0, 72, 100
2, 23808, Note_on_c, 0, 67, 80
2, 23808, Note_on_c, 0, 70, 80
2, 24188, Note_off_c, 0, 67, 100
2, 24188, Note_off_c, 0, 70, 100
2, 24192, Note_on_c, 0, 67, 80
2, 24192, Note_on_c, 0, 72, 80
2, 24572, Note_off_c, 0, 67, 100
2, 24572, Note_off_c, 0, 72, 100
2, 24576, Note_on_c, 0, 65, 80
2, 24956, Note_off_c, 0, 65, 100
2, 24960, Note_on_c, 0, 65, 80
2, 25340, Note_off_c, 0, 65, 100
2, 25344, Note_on_c, 0, 64, 80
2, 25532, Note_off_c, 0, 64, 100
2, 25536, Note_on_c, 0, 62, 80
2, 25724, Note_off_c, 0, 62, 100
2, 25728, Note_on_c, 0, 60, 80
2, 26108, Note_off_c, 0, 60, 100
2, 26112, Note_on_c, 0, 65, 80
2, 26112, Note_on_c, 0, 68, 80
2, 26492, Note_off_c, 0, 65, 100
2, 26492, Note_off_c, 0, 68, 100
2, 26496, Note_on_c, 0, 65, 80
2, 26496, Note_on_c, 0, 68, 80
2, 26876, Note_off_c, 0, 65, 100
2, 26876, Note_off_c, 0, 68, 100
2, 26880, Note_on_c, 0, 64, 80
2, 26880, Note_on_c, 0, 67, 80
2, 27068, Note_off_c, 0, 64, 100
2, 27068, Note_off_c, 0, 67, 100
2, 27072, Note_on_c, 0, 62, 80
2, 27072, Note_on_c, 0, 65, 80
2, 27260, Note_off_c, 0, 62, 100
2, 27260, Note_off_c, 0, 65, 100
2, 27264, Note_on_c, 0, 60, 80
2, 27264, Note_on_c, 0, 64, 80
2, 27644, Note_off_c, 0, 60, 100
2, 27644, Note_off_c, 0, 64, 100
2, 27648, Note_on_c, 0, 68, 80
2, 27648, Note_on_c, 0, 72, 80
2, 28028, Note_off_c, 0, 68, 100
2, 28028, Note_off_c, 0, 72, 100
2, 28032, Note_on_c, 0, 68, 80
2, 28032, Note_on_c, 0, 72, 80
2, 28412, Note_off_c, 0, 68, 100
2, 28412, Note_off_c, 0, 72, 100
2, 28416, Note_on_c, 0, 67, 80
2, 28416, Note_on_c, 0, 70, 80
2, 28796, Note_off_c, 0, 67, 100
2, 28796, Note_off_c, 0, 70, 100
2, 28800, Note_on_c, 0, 65, 80
2, 28800, Note_on_c, 0, 68, 80
2, 29180, Note_off_c, 0, 65, 100
2, 29180, Note_off_c, 0, 68, 100
2, 29184, Note_on_c, 0, 64, 80
2, 29184, Note_on_c, 0, 67, 80
2, 29564, Note_off_c, 0, 64, 100
2, 29564, Note_off_c, 0, 67, 100
2, 29568, Note_on_c, 0, 65, 80
2, 29568, Note_on_c, 0, 68, 80
2, 29948, Note_off_c, 0, 65, 100
2, 29948, Note_off_c, 0, 68, 100
2, 29952, Note_on_c, 0, 64, 80
2, 29952, Note_on_c, 0, 67, 80
2, 30716, Note_off_c, 0, 64, 100
2, 30716, Note_off_c, 0, 67, 100
2, 30720, Note_on_c, 0, 65, 80
2, 30720, Note_on_c, 0, 72, 80
2, 31100, Note_off_c, 0, 72, 100
2, 31104, Note_on_c, 0, 72, 80
2, 31484, Note_off_c, 0, 65, 100
2, 31484, Note_off_c, 0, 72, 100
2, 31488, Note_on_c, 0, 74, 80
2, 31868, Note_off_c, 0, 74, 100
2, 31872, Note_on_c, 0, 79, 80
2, 32252, Note_off_c, 0, 79, 100
2, 32256, Note_on_c, 0, 77, 80
2, 32636, Note_off_c, 0, 77, 100
2, 32640, Note_on_c, 0, 76, 80
2, 33020, Note_off_c, 0, 76, 100
2, 33024, Note_on_c, 0, 68, 120
2, 33024, Note_on_c, 0, 77, 120
2, 33404, Note_off_c, 0, 68, 100
2, 33404, Note_off_c, 0, 77, 100
2, 33408, Note_on_c, 0, 73, 120
2, 33408, Note_on_c, 0, 79, 120
2, 33788, Note_off_c, 0, 73, 100
2, 33788, Note_off_c, 0, 79, 100
2, 35328, Note_on_c, 0, 72, 120
2, 35328, Note_on_c, 0, 77, 120
2, 35328, Note_on_c, 0, 80, 120
2, 35708, Note_off_c, 0, 72, 100
2, 35708, Note_off_c, 0, 77, 100
2, 35708, Note_off_c, 0, 80, 100
2, 35712, Note_on_c, 0, 72, 120
2, 35712, Note_on_c, 0, 79, 120
2, 35712, Note_on_c, 0, 84, 120
2, 36092, Note_off_c, 0, 72, 100
2, 36092, Note_off_c, 0, 79, 100
2, 36092, Note_off_c, 0, 84, 100
2, 36096, Note_on_c, 0, 77, 120
2, 36476, Note_off_c, 0, 77, 100
2, 36480, Note_on_c, 0, 76, 120
2, 36480, Note_on_c, 0, 79, 120
2, 37244, Note_off_c, 0, 76, 64
2, 37244, Note_off_c, 0, 79, 64
2, 37248, Note_on_c, 0, 74, 120
2, 37248, Note_on_c, 0, 79, 120
2, 37628, Note_off_c, 0, 74, 100
2, 37628, Note_off_c, 0, 79, 100
2, 37632, Note_on_c, 0, 76, 120
2, 37632, Note_on_c, 0, 79, 120
2, 38012, Note_off_c, 0, 79, 100
2, 38016, Note_on_c, 0, 80, 120
2, 38396, Note_off_c, 0, 80, 100
2, 38400, Note_on_c, 0, 80, 120
2, 38780, Note_off_c, 0, 76, 64
2, 38780, Note_off_c, 0, 80, 100
2, 38784, Note_on_c, 0, 77, 120
2, 38784, Note_on_c, 0, 80, 120
2, 39164, Note_off_c, 0, 80, 100
2, 39168, Note_on_c, 0, 80, 120
2, 39548, Note_off_c, 0, 77, 64
2, 39548, Note_off_c, 0, 80, 100
2, 39552, Note_on_c, 0, 77, 120
2, 39552, Note_on_c, 0, 80, 120
2, 39552, Note_on_c, 0, 82, 120
2, 39932, Note_off_c, 0, 82, 100
2, 39936, Note_on_c, 0, 82, 120
2, 40316, Note_off_c, 0, 77, 64
2, 40316, Note_off_c, 0, 80, 64
2, 40316, Note_off_c, 0, 82, 100
2, 40320, Note_on_c, 0, 75, 120
2, 40320, Note_on_c, 0, 79, 120
2, 40320, Note_on_c, 0, 82, 120
2, 40700, Note_off_c, 0, 79, 100
2, 40700, Note_off_c, 0, 82, 100
2, 40704, Note_on_c, 0, 79, 120
2, 40704, Note_on_c, 0, 82, 120
2, 41084, Note_off_c, 0, 79, 100
2, 41084, Note_off_c, 0, 82, 100
2, 41088, Note_on_c, 0, 80, 120
2, 41088, Note_on_c, 0, 84, 120
2, 41468, Note_off_c, 0, 75, 64
2, 41468, Note_off_c, 0, 80, 100
2, 41468, Note_off_c, 0, 84, 100
2, 41472, Note_on_c, 0, 77, 120
2, 41472, Note_on_c, 0, 82, 120
2, 41472, Note_on_c, 0, 85, 120
2, 41852, Note_off_c, 0, 77, 100
2, 41852, Note_off_c, 0, 82, 100
2, 41852, Note_off_c, 0, 85, 100
2, 41856, Note_on_c, 0, 73, 120
2, 41856, Note_on_c, 0, 79, 120
2, 41856, Note_on_c, 0, 82, 120
2, 42236, Note_off_c, 0, 73, 100
2, 42236, Note_off_c, 0, 79, 100
2, 42236, Note_off_c, 0, 82, 100
2, 42240, Note_on_c, 0, 72, 120
2, 42240, Note_on_c, 0, 80, 120
2, 43004, Note_off_c, 0, 72, 100
2, 43004, Note_off_c, 0, 80, 100
2, 43008, Note_on_c, 0, 68, 80
2, 43388, Note_off_c, 0, 68, 100
2, 43392, Note_on_c, 0, 68, 80
2, 43772, Note_off_c, 0, 68, 100
2, 43776, Note_on_c, 0, 67, 80
2, 43964, Note_off_c, 0, 67, 100
2, 43968, Note_on_c, 0, 65, 80
2, 44156, Note_off_c, 0, 65, 100
2, 44160, Note_on_c, 0, 63, 80
2, 44540, Note_off_c, 0, 63, 100
2, 44544, Note_on_c, 0, 68, 80
2, 44544, Note_on_c, 0, 72, 80
2, 44924, Note_off_c, 0, 68, 100
2, 44924, Note_off_c, 0, 72, 100
2, 44928, Note_on_c, 0, 68, 80
2, 44928, Note_on_c, 0, 72, 80
2, 45308, Note_off_c, 0, 68, 100
2, 45308, Note_off_c, 0, 72, 100
2, 45312, Note_on_c, 0, 67, 80
2, 45312, Note_on_c, 0, 70, 80
2, 45500, Note_off_c, 0, 67, 100
2, 45500, Note_off_c, 0, 70, 100
2, 45504, Note_on_c, 0, 65, 80
2, 45504, Note_on_c, 0, 68, 80
2, 45692, Note_off_c, 0, 65, 100
2, 45692, Note_off_c, 0, 68, 100
2, 45696, Note_on_c, 0, 63, 80
2, 45696, Note_on_c, 0, 67, 80
2, 46076, Note_off_c, 0, 63, 100
2, 46076, Note_off_c, 0, 67, 100
2, 46080, Note_on_c, 0, 72, 80
2, 46080, Note_on_c, 0, 75, 80
2, 46460, Note_off_c, 0, 72, 100
2, 46460, Note_off_c, 0, 75, 100
2, 46464, Note_on_c, 0, 72, 80
2, 46464, Note_on_c, 0, 75, 80
2, 46844, Note_off_c, 0, 72, 100
2, 46844, Note_off_c, 0, 75, 100
2, 46848, Note_on_c, 0, 70, 80
2, 46848, Note_on_c, 0, 73, 80
2, 47228, Note_off_c, 0, 70, 100
2, 47228, Note_off_c, 0, 73, 100
2, 47232, Note_on_c, 0, 68, 80
2, 47232, Note_on_c, 0, 72, 80
2, 47612, Note_off_c, 0, 68, 100
2, 47612, Note_off_c, 0, 72, 100
2, 47616, Note_on_c, 0, 67, 80
2, 47616, Note_on_c, 0, 70, 80
2, 47996, Note_off_c, 0, 67, 100
2, 47996, Note_off_c, 0, 70, 100
2, 48000, Note_on_c, 0, 68, 80
2, 48000, Note_on_c, 0, 72, 80
2, 48380, Note_off_c, 0, 68, 100
2, 48380, Note_off_c, 0, 72, 100
2, 48384, Note_on_c, 0, 67, 80
2, 48384, Note_on_c, 0, 70, 80
2, 48764, Note_off_c, 0, 67, 100
2, 48764, Note_off_c, 0, 70, 100
2, 48768, Note_on_c, 0, 67, 80
2, 48768, Note_on_c, 0, 72, 80
2, 49148, Note_off_c, 0, 67, 100
2, 49148, Note_off_c, 0, 72, 100
2, 49152, Note_on_c, 0, 65, 80
2, 49532, Note_off_c, 0, 65, 100
2, 49536, Note_on_c, 0, 65, 80
2, 49916, Note_off_c, 0, 65, 100
2, 49920, Note_on_c, 0, 64, 80
2, 50108, Note_off_c, 0, 64, 100
2, 50112, Note_on_c, 0, 62, 80
2, 50300, Note_off_c, 0, 62, 100
2, 50304, Note_on_c, 0, 60, 80
2, 50684, Note_off_c, 0, 60, 100
2, 50688, Note_on_c, 0, 65, 80
2, 50688, Note_on_c, 0, 68, 80
2, 51068, Note_off_c, 0, 65, 100
2, 51068, Note_off_c, 0, 68, 100
2, 51072, Note_on_c, 0, 65, 80
2, 51072, Note_on_c, 0, 68, 80
2, 51452, Note_off_c, 0, 65, 100
2, 51452, Note_off_c, 0, 68, 100
2, 51456, Note_on_c, 0, 64, 80
2, 51456, Note_on_c, 0, 67, 80
2, 51644, Note_off_c, 0, 64, 100
2, 51644, Note_off_c, 0, 67, 100
2, 51648, Note_on_c, 0, 62, 80
2, 51648, Note_on_c, 0, 65, 80
2, 51836, Note_off_c, 0, 62, 100
2, 51836, Note_off_c, 0, 65, 100
2, 51840, Note_on_c, 0, 60, 80
2, 51840, Note_on_c, 0, 64, 80
2, 52220, Note_off_c, 0, 60, 100
2, 52220, Note_off_c, 0, 64, 100
2, 52224, Note_on_c, 0, 68, 80
2, 52224, Note_on_c, 0, 72, 80
2, 52604, Note_off_c, 0, 68, 100
2, 52604, Note_off_c, 0, 72, 100
2, 52608, Note_on_c, 0, 68, 80
2, 52608, Note_on_c, 0, 72, 80
2, 52988, Note_off_c, 0, 68, 100
2, 52988, Note_off_c, 0, 72, 100
2, 52992, Note_on_c, 0, 67, 80
2, 52992, Note_on_c, 0, 70, 80
2, 53372, Note_off_c, 0, 67, 100
2, 53372, Note_off_c, 0, 70, 100
2, 53376, Note_on_c, 0, 65, 80
2, 53376, Note_on_c, 0, 68, 80
2, 53756, Note_off_c, 0, 65, 100
2, 53756, Note_off_c, 0, 68, 100
2, 53760, Note_on_c, 0, 64, 80
2, 53760, Note_on_c, 0, 67, 80
2, 54140, Note_off_c, 0, 64, 100
2, 54140, Note_off_c, 0, 67, 100
2, 54144, Note_on_c, 0, 65, 80
2, 54144, Note_on_c, 0, 68, 80
2, 54524, Note_off_c, 0, 65, 100
2, 54524, Note_off_c, 0, 68, 100
2, 54528, Note_on_c, 0, 64, 80
2, 54528, Note_on_c, 0, 67, 80
2, 55292, Note_off_c, 0, 64, 100
2, 55292, Note_off_c, 0, 67, 100
2, 55296, Note_on_c, 0, 65, 80
2, 55296, Note_on_c, 0, 72, 80
2, 55676, Note_off_c, 0, 72, 100
2, 55680, Note_on_c, 0, 72, 80
2, 56060, Note_off_c, 0, 65, 100
2, 56060, Note_off_c, 0, 72, 100
2, 56064, Note_on_c, 0, 74, 80
2, 56444, Note_off_c, 0, 74, 100
2, 56448, Note_on_c, 0, 79, 80
2, 56828, Note_off_c, 0, 79, 100
2, 56832, Note_on_c, 0, 77, 80
2, 57212, Note_off_c, 0, 77, 100
2, 57216, Note_on_c, 0, 76, 80
2, 57596, Note_off_c, 0, 76, 100
2, 57600, Note_on_c, 0, 68, 120
2, 57600, Note_on_c, 0, 77, 120
2, 57980, Note_off_c, 0, 68, 100
2, 57980, Note_off_c, 0, 77, 100
2, 57984, Note_on_c, 0, 73, 120
2, 57984, Note_on_c, 0, 79, 120
2, 58364, Note_off_c, 0, 73, 100
2, 58364, Note_off_c, 0, 79, 100
2, 59904, Note_on_c, 0, 72, 120
2, 59904, Note_on_c, 0, 77, 120
2, 59904, Note_on_c, 0, 80, 120
2, 60284, Note_off_c, 0, 72, 100
2, 60284, Note_off_c, 0, 77, 100
2, 60284, Note_off_c, 0, 80, 100
2, 60288, Note_on_c, 0, 72, 120
2, 60288, Note_on_c, 0, 79, 120
2, 60288, Note_on_c, 0, 84, 120
2, 60668, Note_off_c, 0, 72, 100
2, 60668, Note_off_c, 0, 79, 100
2, 60668, Note_off_c, 0, 84, 100
2, 60672, Note_on_c, 0, 77, 120
2, 61052, Note_off_c, 0, 77, 100
2, 61056, Note_on_c, 0, 89, 120
2, 61632, Note_on_c, 0, 84, 120
2, 61824, Note_on_c, 0, 87, 120
2, 62016, Note_on_c, 0, 85, 120
2, 62204, Note_off_c, 0, 89, 64
2, 62204, Note_off_c, 0, 84, 100
2, 62204, Note_off_c, 0, 87, 100
2, 62204, Note_off_c, 0, 85, 100
2, 62208, Note_on_c, 0, 80, 110
2, 62396, Note_off_c, 0, 80, 100
2, 62400, Note_on_c, 0, 84, 104
2, 62588, Note_off_c, 0, 84, 100
2, 62592, Note_on_c, 0, 82, 97
2, 62780, Note_off_c, 0, 82, 100
2, 62784, Note_on_c, 0, 79, 91
2, 62972, Note_off_c, 0, 79, 100
2, 62976, Note_on_c, 0, 82, 80
2, 63164, Note_off_c, 0, 82, 100
2, 63168, Note_on_c, 0, 77, 80
2, 63356, Note_off_c, 0, 77, 100
2, 63360, Note_on_c, 0, 80, 80
2, 63548, Note_off_c, 0, 80, 100
2, 63552, Note_on_c, 0, 78, 80
2, 63740, Note_off_c, 0, 78, 100
2, 63744, Note_on_c, 0, 75, 80
2, 63932, Note_off_c, 0, 75, 100
2, 63936, Note_on_c, 0, 78, 80
2, 64124, Note_off_c, 0, 78, 100
2, 64128, Note_on_c, 0, 77, 80
2, 64316, Note_off_c, 0, 77, 100
2, 64320, Note_on_c, 0, 73, 80
2, 64508, Note_off_c, 0, 73, 100
2, 64512, Note_on_c, 0, 78, 80
2, 64700, Note_off_c, 0, 78, 100
2, 64704, Note_on_c, 0, 74, 80
2, 64892, Note_off_c, 0, 74, 100
2, 64896, Note_on_c, 0, 77, 80
2, 65084, Note_off_c, 0, 77, 100
2, 65088, Note_on_c, 0, 75, 80
2, 65276, Note_off_c, 0, 75, 100
2, 65280, Note_on_c, 0, 71, 80
2, 65468, Note_off_c, 0, 71, 100
2, 65472, Note_on_c, 0, 73, 80
2, 65660, Note_off_c, 0, 73, 100
2, 65664, Note_on_c, 0, 72, 80
2, 65852, Note_off_c, 0, 72, 100
2, 65856, Note_on_c, 0, 68, 80
2, 66044, Note_off_c, 0, 68, 100
2, 66048, Note_on_c, 0, 70, 80
2, 66236, Note_off_c, 0, 70, 100
2, 66240, Note_on_c, 0, 66, 80
2, 66428, Note_off_c, 0, 66, 100
2, 66432, Note_on_c, 0, 70, 80
2, 66620, Note_off_c, 0, 70, 100
2, 66624, Note_on_c, 0, 68, 80
2, 66812, Note_off_c, 0, 68, 100
2, 66816, Note_on_c, 0, 65, 120
2, 67196, Note_off_c, 0, 65, 100
2, 67200, Note_on_c, 0, 89, 120
2, 67776, Note_on_c, 0, 84, 120
2, 67968, Note_on_c, 0, 87, 120
2, 68160, Note_on_c, 0, 85, 120
2, 68348, Note_off_c, 0, 89, 64
2, 68348, Note_off_c, 0, 84, 100
2, 68348, Note_off_c, 0, 87, 100
2, 68348, Note_off_c, 0, 85, 100
2, 68352, Note_on_c, 0, 80, 110
2, 68540, Note_off_c, 0, 80, 100
2, 68544, Note_on_c, 0, 84, 104
2, 68732, Note_off_c, 0, 84, 100
2, 68736, Note_on_c, 0, 82, 97
2, 68924, Note_off_c, 0, 82, 100
2, 68928, Note_on_c, 0, 79, 91
2, 69116, Note_off_c, 0, 79, 100
2, 69120, Note_on_c, 0, 82, 80
2, 69308, Note_off_c, 0, 82, 100
2, 69312, Note_on_c, 0, 77, 80
2, 69500, Note_off_c, 0, 77, 100
2, 69504, Note_on_c, 0, 80, 80
2, 69692, Note_off_c, 0, 80, 100
2, 69696, Note_on_c, 0, 78, 80
2, 69884, Note_off_c, 0, 78, 100
2, 69888, Note_on_c, 0, 75, 80
2, 70076, Note_off_c, 0, 75, 100
2, 70080, Note_on_c, 0, 78, 80
2, 70268, Note_off_c, 0, 78, 100
2, 70272, Note_on_c, 0, 77, 80
2, 70460, Note_off_c, 0, 77, 100
2, 70464, Note_on_c, 0, 73, 80
2, 70652, Note_off_c, 0, 73, 100
2, 70656, Note_on_c, 0, 77, 80
2, 70844, Note_off_c, 0, 77, 100
2, 70848, Note_on_c, 0, 72, 80
2, 71036, Note_off_c, 0, 72, 100
2, 71040, Note_on_c, 0, 75, 80
2, 71228, Note_off_c, 0, 75, 100
2, 71232, Note_on_c, 0, 73, 80
2, 71420, Note_off_c, 0, 73, 100
2, 71424, Note_on_c, 0, 68, 80
2, 71612, Note_off_c, 0, 68, 100
2, 71616, Note_on_c, 0, 73, 80
2, 71804, Note_off_c, 0, 73, 100
2, 71808, Note_on_c, 0, 71, 80
2, 71996, Note_off_c, 0, 71, 100
2, 72000, Note_on_c, 0, 68, 80
2, 72188, Note_off_c, 0, 68, 100
2, 72192, Note_on_c, 0, 71, 80
2, 72380, Note_off_c, 0, 71, 100
2, 72384, Note_on_c, 0, 68, 80
2, 72572, Note_off_c, 0, 68, 100
2, 72576, Note_on_c, 0, 71, 80
2, 72764, Note_off_c, 0, 71, 100
2, 72768, Note_on_c, 0, 69, 80
2, 72956, Note_off_c, 0, 69, 100
2, 72960, Note_on_c, 0, 70, 120
2, 73340, Note_off_c, 0, 70, 100
2, 73344, Note_on_c, 0, 94, 120
2, 73920, Note_on_c, 0, 89, 120
2, 74112, Note_on_c, 0, 92, 120
2, 74304, Note_on_c, 0, 90, 120
2, 74496, Note_on_c, 0, 85, 110
2, 74684, Note_off_c, 0, 89, 64
2, 74684, Note_off_c, 0, 90, 64
2, 74684, Note_off_c, 0, 92, 64
2, 74684, Note_off_c, 0, 94, 64
2, 74684, Note_off_c, 0, 85, 100
2, 74688, Note_on_c, 0, 89, 104
2, 74876, Note_off_c, 0, 89, 100
2, 74880, Note_on_c, 0, 87, 97
2, 75068, Note_off_c, 0, 87, 100
2, 75072, Note_on_c, 0, 84, 91
2, 75260, Note_off_c, 0, 84, 100
2, 75264, Note_on_c, 0, 87, 80
2, 75452, Note_off_c, 0, 87, 100
2, 75456, Note_on_c, 0, 82, 80
2, 75644, Note_off_c, 0, 82, 100
2, 75648, Note_on_c, 0, 85, 80
2, 75836, Note_off_c, 0, 85, 100
2, 75840, Note_on_c, 0, 83, 80
2, 76028, Note_off_c, 0, 83, 100
2, 76032, Note_on_c, 0, 80, 80
2, 76220, Note_off_c, 0, 80, 100
2, 76224, Note_on_c, 0, 83, 80
2, 76412, Note_off_c, 0, 83, 100
2, 76416, Note_on_c, 0, 82, 80
2, 76604, Note_off_c, 0, 82, 100
2, 76608, Note_on_c, 0, 78, 80
2, 76796, Note_off_c, 0, 78, 100
2, 76800, Note_on_c, 0, 83, 80
2, 76988, Note_off_c, 0, 83, 100
2, 76992, Note_on_c, 0, 79, 80
2, 77180, Note_off_c, 0, 79, 100
2, 77184, Note_on_c, 0, 82, 80
2, 77372, Note_off_c, 0, 82, 100
2, 77376, Note_on_c, 0, 80, 80
2, 77564, Note_off_c, 0, 80, 100
2, 77568, Note_on_c, 0, 76, 80
2, 77756, Note_off_c, 0, 76, 100
2, 77760, Note_on_c, 0, 78, 80
2, 77948, Note_off_c, 0, 78, 100
2, 77952, Note_on_c, 0, 77, 80
2, 78140, Note_off_c, 0, 77, 100
2, 78144, Note_on_c, 0, 73, 80
2, 78332, Note_off_c, 0, 73, 100
2, 78336, Note_on_c, 0, 75, 80
2, 78524, Note_off_c, 0, 75, 100
2, 78528, Note_on_c, 0, 71, 80
2, 78716, Note_off_c, 0, 71, 100
2, 78720, Note_on_c, 0, 75, 80
2, 78908, Note_off_c, 0, 75, 100
2, 78912, Note_on_c, 0, 73, 80
2, 79100, Note_off_c, 0, 73, 100
2, 79104, Note_on_c, 0, 70, 120
2, 79484, Note_off_c, 0, 70, 100
2, 79488, Note_on_c, 0, 94, 120
2, 80064, Note_on_c, 0, 89, 120
2, 80256, Note_on_c, 0, 92, 120
2, 80448, Note_on_c, 0, 90, 120
2, 80636, Note_off_c, 0, 94, 64
2, 80636, Note_off_c, 0, 89, 100
2, 80636, Note_off_c, 0, 92, 100
2, 80636, Note_off_c, 0, 90, 100
2, 80640, Note_on_c, 0, 85, 110
2, 80828, Note_off_c, 0, 85, 100
2, 80832, Note_on_c, 0, 89, 104
2, 81020, Note_off_c, 0, 89, 100
2, 81024, Note_on_c, 0, 87, 97
2, 81212, Note_off_c, 0, 87, 100
2, 81216, Note_on_c, 0, 84, 91
2, 81404, Note_off_c, 0, 84, 100
2, 81408, Note_on_c, 0, 87, 80
2, 81596, Note_off_c, 0, 87, 100
2, 81600, Note_on_c, 0, 82, 80
2, 81788, Note_off_c, 0, 82, 100
2, 81792, Note_on_c, 0, 85, 80
2, 81980, Note_off_c, 0, 85, 100
2, 81984, Note_on_c, 0, 83, 80
2, 82172, Note_off_c, 0, 83, 100
2, 82176, Note_on_c, 0, 80, 80
2, 82364, Note_off_c, 0, 80, 100
2, 82368, Note_on_c, 0, 83, 80
2, 82556, Note_off_c, 0, 83, 100
2, 82560, Note_on_c, 0, 82, 80
2, 82748, Note_off_c, 0, 82, 100
2, 82752, Note_on_c, 0, 78, 80
2, 82940, Note_off_c, 0, 78, 100
2, 82944, Note_on_c, 0, 82, 80
2, 83132, Note_off_c, 0, 82, 100
2, 83136, Note_on_c, 0, 79, 80
2, 83324, Note_off_c, 0, 79, 100
2, 83328, Note_on_c, 0, 82, 80
2, 83516, Note_off_c, 0, 82, 100
2, 83520, Note_on_c, 0, 80, 80
2, 83708, Note_off_c, 0, 80, 100
2, 83712, Note_on_c, 0, 77, 80
2, 83900, Note_off_c, 0, 77, 100
2, 83904, Note_on_c, 0, 80, 80
2, 84092, Note_off_c, 0, 80, 100
2, 84096, Note_on_c, 0, 78, 80
2, 84284, Note_off_c, 0, 78, 100
2, 84288, Note_on_c, 0, 75, 80
2, 84476, Note_off_c, 0, 75, 100
2, 84480, Note_on_c, 0, 74, 80
2, 84668, Note_off_c, 0, 74, 100
2, 84672, Note_on_c, 0, 68, 80
2, 84860, Note_off_c, 0, 68, 100
2, 84864, Note_on_c, 0, 71, 80
2, 85052, Note_off_c, 0, 71, 100
2, 85056, Note_on_c, 0, 70, 80
2, 85244, Note_off_c, 0, 70, 100
2, 85248, Note_on_c, 0, 66, 120
2, 85628, Note_off_c, 0, 66, 100
2, 85632, Note_on_c, 0, 90, 120
2, 86208, Note_on_c, 0, 85, 120
2, 86400, Note_on_c, 0, 89, 120
2, 86592, Note_on_c, 0, 87, 120
2, 86780, Note_off_c, 0, 90, 64
2, 86780, Note_off_c, 0, 85, 100
2, 86780, Note_off_c, 0, 89, 100
2, 86780, Note_off_c, 0, 87, 100
2, 86784, Note_on_c, 0, 78, 120
2, 87164, Note_off_c, 0, 78, 100
2, 87168, Note_on_c, 0, 90, 120
2, 87168, Note_on_c, 0, 87, 120
2, 87168, Note_on_c, 0, 78, 120
2, 87552, Note_on_c, 0, 77, 120
2, 87932, Note_off_c, 0, 78, 64
2, 87932, Note_off_c, 0, 87, 64
2, 87932, Note_off_c, 0, 90, 64
2, 87932, Note_off_c, 0, 77, 100
2, 87936, Note_on_c, 0, 89, 120
2, 87936, Note_on_c, 0, 77, 120
2, 87936, Note_on_c, 0, 85, 120
2, 88316, Note_off_c, 0, 77, 100
2, 88316, Note_off_c, 0, 85, 100
2, 88512, Note_on_c, 0, 84, 120
2, 88704, Note_on_c, 0, 87, 120
2, 88896, Note_on_c, 0, 85, 120
2, 89088, Note_on_c, 0, 80, 110
2, 89276, Note_off_c, 0, 84, 64
2, 89276, Note_off_c, 0, 85, 64
2, 89276, Note_off_c, 0, 87, 64
2, 89276, Note_off_c, 0, 89, 64
2, 89276, Note_off_c, 0, 80, 100
2, 89280, Note_on_c, 0, 84, 104
2, 89468, Note_off_c, 0, 84, 100
2, 89472, Note_on_c, 0, 82, 97
2, 89660, Note_off_c, 0, 82, 100
2, 89664, Note_on_c, 0, 79, 91
2, 89852, Note_off_c, 0, 79, 100
2, 89856, Note_on_c, 0, 82, 80
2, 90044, Note_off_c, 0, 82, 100
2, 90048, Note_on_c, 0, 77, 80
2, 90236, Note_off_c, 0, 77, 100
2, 90240, Note_on_c, 0, 80, 80
2, 90428, Note_off_c, 0, 80, 100
2, 90432, Note_on_c, 0, 78, 80
2, 90620, Note_off_c, 0, 78, 100
2, 90624, Note_on_c, 0, 75, 80
2, 90812, Note_off_c, 0, 75, 100
2, 90816, Note_on_c, 0, 78, 80
2, 91004, Note_off_c, 0, 78, 100
2, 91008, Note_on_c, 0, 77, 80
2, 91196, Note_off_c, 0, 77, 100
2, 91200, Note_on_c, 0, 73, 80
2, 91388, Note_off_c, 0, 73, 100
2, 91392, Note_on_c, 0, 78, 80
2, 91580, Note_off_c, 0, 78, 100
2, 91584, Note_on_c, 0, 74, 80
2, 91772, Note_off_c, 0, 74, 100
2, 91776, Note_on_c, 0, 77, 80
2, 91964, Note_off_c, 0, 77, 100
2, 91968, Note_on_c, 0, 75, 80
2, 92156, Note_off_c, 0, 75, 100
2, 92160, Note_on_c, 0, 71, 80
2, 92348, Note_off_c, 0, 71, 100
2, 92352, Note_on_c, 0, 73, 80
2, 92540, Note_off_c, 0, 73, 100
2, 92544, Note_on_c, 0, 72, 80
2, 92732, Note_off_c, 0, 72, 100
2, 92736, Note_on_c, 0, 68, 80
2, 92924, Note_off_c, 0, 68, 100
2, 92928, Note_on_c, 0, 70, 80
2, 93116, Note_off_c, 0, 70, 100
2, 93120, Note_on_c, 0, 66, 80
2, 93308, Note_off_c, 0, 66, 100
2, 93312, Note_on_c, 0, 70, 80
2, 93500, Note_off_c, 0, 70, 100
2, 93504, Note_on_c, 0, 68, 80
2, 93692, Note_off_c, 0, 68, 100
2, 93696, Note_on_c, 0, 63, 80
2, 94076, Note_off_c, 0, 63, 100
2, 94080, Note_on_c, 0, 77, 80
2, 94656, Note_on_c, 0, 72, 80
2, 94848, Note_on_c, 0, 75, 80
2, 95040, Note_on_c, 0, 73, 80
2, 95040, Note_on_c, 0, 73, 80
2, 95228, Note_off_c, 0, 77, 64
2, 95228, Note_off_c, 0, 72, 100
2, 95228, Note_off_c, 0, 75, 100
2, 95228, Note_off_c, 0, 73, 100
2, 95228, Note_off_c, 0, 73, 100
2, 95232, Note_on_c, 0, 68, 80
2, 95420, Note_off_c, 0, 68, 100
2, 95424, Note_on_c, 0, 72, 80
2, 95612, Note_off_c, 0, 72, 100
2, 95616, Note_on_c, 0, 70, 80
2, 95804, Note_off_c, 0, 70, 100
2, 95808, Note_on_c, 0, 67, 80
2, 95996, Note_off_c, 0, 67, 100
2, 96000, Note_on_c, 0, 70, 80
2, 96188, Note_off_c, 0, 70, 100
2, 96192, Note_on_c, 0, 65, 80
2, 96380, Note_off_c, 0, 65, 100
2, 96384, Note_on_c, 0, 68, 80
2, 96572, Note_off_c, 0, 68, 100
2, 96576, Note_on_c, 0, 66, 80
2, 96764, Note_off_c, 0, 66, 100
2, 96768, Note_on_c, 0, 63, 80
2, 96956, Note_off_c, 0, 63, 100
2, 96960, Note_on_c, 0, 66, 80
2, 97148, Note_off_c, 0, 66, 100
2, 97152, Note_on_c, 0, 65, 79
2, 97340, Note_off_c, 0, 65, 100
2, 97344, Note_on_c, 0, 61, 79
2, 97532, Note_off_c, 0, 61, 100
2, 97536, Note_on_c, 0, 66, 78
2, 97724, Note_off_c, 0, 66, 100
2, 97728, Note_on_c, 0, 61, 78
2, 97916, Note_off_c, 0, 61, 100
2, 97920, Note_on_c, 0, 65, 77
2, 98108, Note_off_c, 0, 65, 100
2, 98112, Note_on_c, 0, 63, 77
2, 98300, Note_off_c, 0, 63, 100
2, 98304, Note_on_c, 0, 59, 76
2, 98492, Note_off_c, 0, 59, 100
2, 98496, Note_on_c, 0, 61, 76
2, 98684, Note_off_c, 0, 61, 100
2, 98688, Note_on_c, 0, 60, 75
2, 98876, Note_off_c, 0, 60, 100
2, 98880, Note_on_c, 0, 56, 75
2, 99068, Note_off_c, 0, 56, 100
2, 99072, Note_on_c, 0, 58, 74
2, 99260, Note_off_c, 0, 58, 100
2, 99264, Note_on_c, 0, 54, 74
2, 99452, Note_off_c, 0, 54, 100
2, 99456, Note_on_c, 0, 58, 73
2, 99644, Note_off_c, 0, 58, 100
2, 99648, Note_on_c, 0, 56, 73
2, 99836, Note_off_c, 0, 56, 100
2, 99840, Note_on_c, 0, 51, 72
2, 100028, Note_off_c, 0, 51, 100
2, 100032, Note_on_c, 0, 54, 72
2, 100220, Note_off_c, 0, 54, 100
2, 100224, Note_on_c, 0, 53, 71
2, 100412, Note_off_c, 0, 53, 100
2, 100416, Note_on_c, 0, 49, 71
2, 100604, Note_off_c, 0, 49, 100
2, 101376, Note_on_c, 0, 65, 70
2, 101564, Note_off_c, 0, 65, 100
2, 101568, Note_on_c, 0, 60, 70
2, 101756, Note_off_c, 0, 60, 100
2, 101760, Note_on_c, 0, 63, 70
2, 101948, Note_off_c, 0, 63, 100
2, 101952, Note_on_c, 0, 61, 70
2, 102140, Note_off_c, 0, 61, 100
2, 102912, Note_on_c, 0, 77, 70
2, 103100, Note_off_c, 0, 77, 100
2, 103104, Note_on_c, 0, 72, 70
2, 103292, Note_off_c, 0, 72, 100
2, 103296, Note_on_c, 0, 75, 70
2, 103484, Note_off_c, 0, 75, 100
2, 103488, Note_on_c, 0, 73, 70
2, 104828, Note_off_c, 0, 73, 64
2, 105216, Note_on_c, 0, 68, 80
2, 105216, Note_on_c, 0, 72, 80
2, 105596, Note_off_c, 0, 68, 100
2, 105596, Note_off_c, 0, 72, 100
2, 105600, Note_on_c, 0, 64, 80
2, 105600, Note_on_c, 0, 70, 80
2, 105980, Note_off_c, 0, 64, 100
2, 105980, Note_off_c, 0, 70, 100
2, 105984, Note_on_c, 0, 65, 80
2, 105984, Note_on_c, 0, 68, 80
2, 106364, Note_off_c, 0, 65, 100
2, 106364, Note_off_c, 0, 68, 100
2, 106368, Note_on_c, 0, 61, 80
2, 106368, Note_on_c, 0, 64, 80
2, 106368, Note_on_c, 0, 67, 80
2, 106748, Note_off_c, 0, 61, 100
2, 106748, Note_off_c, 0, 64, 100
2, 106748, Note_off_c, 0, 67, 100
2, 106752, Note_on_c, 0, 56, 80
2, 106752, Note_on_c, 0, 62, 80
2, 106752, Note_on_c, 0, 65, 80
2, 107132, Note_off_c, 0, 56, 100
2, 107132, Note_off_c, 0, 62, 100
2, 107132, Note_off_c, 0, 65, 100
2, 107136, Note_on_c, 0, 56, 80
2, 107136, Note_on_c, 0, 62, 80
2, 107136, Note_on_c, 0, 65, 80
2, 107516, Note_off_c, 0, 56, 100
2, 107516, Note_off_c, 0, 62, 100
2, 107516, Note_off_c, 0, 65, 100
2, 107520, Note_on_c, 0, 55, 80
2, 107520, Note_on_c, 0, 64, 80
2, 108284, Note_off_c, 0, 55, 100
2, 108284, Note_off_c, 0, 64, 100
2, 108288, Note_on_c, 0, 72, 120
2, 108288, Note_on_c, 0, 76, 120
2, 108288, Note_on_c, 0, 79, 120
2, 108668, Note_off_c, 0, 72, 100
2, 108668, Note_off_c, 0, 76, 100
2, 108668, Note_off_c, 0, 79, 100
2, 108672, Note_on_c, 0, 67, 120
2, 108672, Note_on_c, 0, 72, 120
2, 108672, Note_on_c, 0, 76, 120
2, 109052, Note_off_c, 0, 67, 100
2, 109052, Note_off_c, 0, 72, 100
2, 109052, Note_off_c, 0, 76, 100
2, 109056, Note_on_c, 0, 64, 120
2, 109056, Note_on_c, 0, 67, 120
2, 109056, Note_on_c, 0, 72, 120
2, 109436, Note_off_c, 0, 64, 100
2, 109436, Note_off_c, 0, 67, 100
2, 109436, Note_off_c, 0, 72, 100
2, 109440, Note_on_c, 0, 64, 120
2, 109440, Note_on_c, 0, 67, 120
2, 109440, Note_on_c, 0, 72, 120
2, 109820, Note_off_c, 0, 64, 100
2, 109820, Note_off_c, 0, 67, 100
2, 109820, Note_off_c, 0, 72, 100
2, 109824, Note_on_c, 0, 64, 120
2, 109824, Note_on_c, 0, 67, 120
2, 109824, Note_on_c, 0, 72, 120
2, 110204, Note_off_c, 0, 64, 100
2, 110204, Note_off_c, 0, 67, 100
2, 110204, Note_off_c, 0, 72, 100
2, 110208, Note_on_c, 0, 67, 120
2, 110208, Note_on_c, 0, 71, 120
2, 110208, Note_on_c, 0, 74, 120
2, 110588, Note_off_c, 0, 67, 100
2, 110588, Note_off_c, 0, 71, 100
2, 110588, Note_off_c, 0, 74, 100
2, 110592, Note_on_c, 0, 67, 120
2, 110592, Note_on_c, 0, 72, 120
2, 110592, Note_on_c, 0, 76, 120
2, 111356, Note_off_c, 0, 67, 100
2, 111356, Note_off_c, 0, 72, 100
2, 111356, Note_off_c, 0, 76, 100
2, 111360, Note_on_c, 0, 68, 80
2, 111360, Note_on_c, 0, 72, 80
2, 111740, Note_off_c, 0, 68, 100
2, 111740, Note_off_c, 0, 72, 100
2, 111744, Note_on_c, 0, 64, 80
2, 111744, Note_on_c, 0, 70, 80
2, 112124, Note_off_c, 0, 64, 100
2, 112124, Note_off_c, 0, 70, 100
2, 112128, Note_on_c, 0, 65, 80
2, 112128, Note_on_c, 0, 68, 80
2, 112508, Note_off_c, 0, 65, 100
2, 112508, Note_off_c, 0, 68, 100
2, 112512, Note_on_c, 0, 61, 80
2, 112512, Note_on_c, 0, 64, 80
2, 112512, Note_on_c, 0, 67, 80
2, 112892, Note_off_c, 0, 61, 100
2, 112892, Note_off_c, 0, 64, 100
2, 112892, Note_off_c, 0, 67, 100
2, 112896, Note_on_c, 0, 56, 80
2, 112896, Note_on_c, 0, 62, 80
2, 112896, Note_on_c, 0, 65, 80
2, 113276, Note_off_c, 0, 56, 100
2, 113276, Note_off_c, 0, 62, 100
2, 113276, Note_off_c, 0, 65, 100
2, 113280, Note_on_c, 0, 56, 80
2, 113280, Note_on_c, 0, 62, 80
2, 113280, Note_on_c, 0, 65, 80
2, 113660, Note_off_c, 0, 56, 100
2, 113660, Note_off_c, 0, 62, 100
2, 113660, Note_off_c, 0, 65, 100
2, 113664, Note_on_c, 0, 55, 80
2, 113664, Note_on_c, 0, 64, 80
2, 114428, Note_off_c, 0, 55, 100
2, 114428, Note_off_c, 0, 64, 100
2, 114432, Note_on_c, 0, 72, 120
2, 114432, Note_on_c, 0, 76, 120
2, 114432, Note_on_c, 0, 79, 120
2, 114812, Note_off_c, 0, 72, 100
2, 114812, Note_off_c, 0, 76, 100
2, 114812, Note_off_c, 0, 79, 100
2, 114816, Note_on_c, 0, 67, 120
2, 114816, Note_on_c, 0, 72, 120
2, 114816, Note_on_c, 0, 76, 120
2, 115196, Note_off_c, 0, 67, 100
2, 115196, Note_off_c, 0, 72, 100
2, 115196, Note_off_c, 0, 76, 100
2, 115200, Note_on_c, 0, 64, 120
2, 115200, Note_on_c, 0, 67, 120
2, 115200, Note_on_c, 0, 72, 120
2, 115580, Note_off_c, 0, 64, 100
2, 115580, Note_off_c, 0, 67, 100
2, 115580, Note_off_c, 0, 72, 100
2, 115584, Note_on_c, 0, 64, 120
2, 115584, Note_on_c, 0, 67, 120
2, 115584, Note_on_c, 0, 72, 120
2, 115964, Note_off_c, 0, 64, 100
2, 115964, Note_off_c, 0, 67, 100
2, 115964, Note_off_c, 0, 72, 100
2, 115968, Note_on_c, 0, 64, 120
2, 115968, Note_on_c, 0, 67, 120
2, 115968, Note_on_c, 0, 72, 120
2, 116348, Note_off_c, 0, 64, 100
2, 116348, Note_off_c, 0, 67, 100
2, 116348, Note_off_c, 0, 72, 100
2, 116352, Note_on_c, 0, 67, 120
2, 116352, Note_on_c, 0, 71, 120
2, 116352, Note_on_c, 0, 74, 120
2, 116732, Note_off_c, 0, 67, 100
2, 116732, Note_off_c, 0, 71, 100
2, 116732, Note_off_c, 0, 74, 100
2, 116736, Note_on_c, 0, 67, 120
2, 116736, Note_on_c, 0, 72, 120
2, 116736, Note_on_c, 0, 76, 120
2, 117500, Note_off_c, 0, 67, 100
2, 117500, Note_off_c, 0, 72, 100
2, 117500, Note_off_c, 0, 76, 100
2, 117504, Note_on_c, 0, 76, 120
2, 117504, Note_on_c, 0, 79, 120
2, 117884, Note_off_c, 0, 76, 100
2, 117884, Note_off_c, 0, 79, 100
2, 117888, Note_on_c, 0, 74, 120
2, 117888, Note_on_c, 0, 79, 120
2, 118268, Note_off_c, 0, 74, 100
2, 118268, Note_off_c, 0, 79, 100
2, 118272, Note_on_c, 0, 76, 120
2, 118272, Note_on_c, 0, 79, 120
2, 118652, Note_off_c, 0, 79, 100
2, 118656, Note_on_c, 0, 80, 120
2, 119036, Note_off_c, 0, 80, 100
2, 119040, Note_on_c, 0, 80, 120
2, 119420, Note_off_c, 0, 76, 64
2, 119420, Note_off_c, 0, 80, 100
2, 119424, Note_on_c, 0, 77, 120
2, 119424, Note_on_c, 0, 80, 120
2, 119804, Note_off_c, 0, 80, 100
2, 119808, Note_on_c, 0, 80, 120
2, 120188, Note_off_c, 0, 77, 64
2, 120188, Note_off_c, 0, 80, 100
2, 120192, Note_on_c, 0, 77, 120
2, 120192, Note_on_c, 0, 80, 120
2, 120192, Note_on_c, 0, 82, 120
2, 120572, Note_off_c, 0, 82, 100
2, 120576, Note_on_c, 0, 82, 120
2, 120956, Note_off_c, 0, 77, 64
2, 120956, Note_off_c, 0, 80, 64
2, 120956, Note_off_c, 0, 82, 100
2, 120960, Note_on_c, 0, 75, 120
2, 120960, Note_on_c, 0, 79, 120
2, 120960, Note_on_c, 0, 82, 120
2, 121340, Note_off_c, 0, 79, 100
2, 121340, Note_off_c, 0, 82, 100
2, 121344, Note_on_c, 0, 79, 120
2, 121344, Note_on_c, 0, 82, 120
2, 121724, Note_off_c, 0, 79, 100
2, 121724, Note_off_c, 0, 82, 100
2, 121728, Note_on_c, 0, 80, 120
2, 121728, Note_on_c, 0, 84, 120
2, 122108, Note_off_c, 0, 75, 64
2, 122108, Note_off_c, 0, 80, 100
2, 122108, Note_off_c, 0, 84, 100
2, 122112, Note_on_c, 0, 77, 120
2, 122112, Note_on_c, 0, 82, 120
2, 122112, Note_on_c, 0, 85, 120
2, 122492, Note_off_c, 0, 77, 100
2, 122492, Note_off_c, 0, 82, 100
2, 122492, Note_off_c, 0, 85, 100
2, 122496, Note_on_c, 0, 73, 120
2, 122496, Note_on_c, 0, 79, 120
2, 122496, Note_on_c, 0, 82, 120
2, 122876, Note_off_c, 0, 73, 100
2, 122876, Note_off_c, 0, 79, 100
2, 122876, Note_off_c, 0, 82, 100
2, 122880, Note_on_c, 0, 72, 120
2, 122880, Note_on_c, 0, 80, 120
2, 123644, Note_off_c, 0, 72, 100
2, 123644, Note_off_c, 0, 80, 100
2, 123648, Note_on_c, 0, 68, 80
2, 124028, Note_off_c, 0, 68, 100
2, 124032, Note_on_c, 0, 68, 80
2, 124412, Note_off_c, 0, 68, 100
2, 124416, Note_on_c, 0, 67, 80
2, 124604, Note_off_c, 0, 67, 100
2, 124608, Note_on_c, 0, 65, 80
2, 124796, Note_off_c, 0, 65, 100
2, 124800, Note_on_c, 0, 63, 80
2, 125180, Note_off_c, 0, 63, 100
2, 125184, Note_on_c, 0, 68, 80
2, 125184, Note_on_c, 0, 72, 80
2, 125564, Note_off_c, 0, 68, 100
2, 125564, Note_off_c, 0, 72, 100
2, 125568, Note_on_c, 0, 68, 80
2, 125568, Note_on_c, 0, 72, 80
2, 125948, Note_off_c, 0, 68, 100
2, 125948, Note_off_c, 0, 72, 100
2, 125952, Note_on_c, 0, 67, 80
2, 125952, Note_on_c, 0, 70, 80
2, 126140, Note_off_c, 0, 67, 100
2, 126140, Note_off_c, 0, 70, 100
2, 126144, Note_on_c, 0, 65, 80
2, 126144, Note_on_c, 0, 68, 80
2, 126332, Note_off_c, 0, 65, 100
2, 126332, Note_off_c, 0, 68, 100
2, 126336, Note_on_c, 0, 63, 80
2, 126336, Note_on_c, 0, 67, 80
2, 126716, Note_off_c, 0, 63, 100
2, 126716, Note_off_c, 0, 67, 100
2, 126720, Note_on_c, 0, 72, 80
2, 126720, Note_on_c, 0, 75, 80
2, 127100, Note_off_c, 0, 72, 100
2, 127100, Note_off_c, 0, 75, 100
2, 127104, Note_on_c, 0, 72, 80
2, 127104, Note_on_c, 0, 75, 80
2, 127484, Note_off_c, 0, 72, 100
2, 127484, Note_off_c, 0, 75, 100
2, 127488, Note_on_c, 0, 70, 80
2, 127488, Note_on_c, 0, 73, 80
2, 127868, Note_off_c, 0, 70, 100
2, 127868, Note_off_c, 0, 73, 100
2, 127872, Note_on_c, 0, 68, 80
2, 127872, Note_on_c, 0, 72, 80
2, 128252, Note_off_c, 0, 68, 100
2, 128252, Note_off_c, 0, 72, 100
2, 128256, Note_on_c, 0, 67, 80
2, 128256, Note_on_c, 0, 70, 80
2, 128636, Note_off_c, 0, 67, 100
2, 128636, Note_off_c, 0, 70, 100
2, 128640, Note_on_c, 0, 68, 80
2, 128640, Note_on_c, 0, 72, 80
2, 129020, Note_off_c, 0, 68, 100
2, 129020, Note_off_c, 0, 72, 100
2, 129024, Note_on_c, 0, 67, 80
2, 129024, Note_on_c, 0, 70, 80
2, 129404, Note_off_c, 0, 67, 100
2, 129404, Note_off_c, 0, 70, 100
2, 129408, Note_on_c, 0, 67, 80
2, 129408, Note_on_c, 0, 72, 80
2, 129788, Note_off_c, 0, 67, 100
2, 129788, Note_off_c, 0, 72, 100
2, 129792, Note_on_c, 0, 65, 80
2, 130172, Note_off_c, 0, 65, 100
2, 130176, Note_on_c, 0, 65, 80
2, 130556, Note_off_c, 0, 65, 100
2, 130560, Note_on_c, 0, 64, 80
2, 130748, Note_off_c, 0, 64, 100
2, 130752, Note_on_c, 0, 62, 80
2, 130940, Note_off_c, 0, 62, 100
2, 130944, Note_on_c, 0, 60, 80
2, 131324, Note_off_c, 0, 60, 100
2, 131328, Note_on_c, 0, 65, 80
2, 131328, Note_on_c, 0, 68, 80
2, 131708, Note_off_c, 0, 65, 100
2, 131708, Note_off_c, 0, 68, 100
2, 131712, Note_on_c, 0, 65, 80
2, 131712, Note_on_c, 0, 68, 80
2, 132092, Note_off_c, 0, 65, 100
2, 132092, Note_off_c, 0, 68, 100
2, 132096, Note_on_c, 0, 64, 80
2, 132096, Note_on_c, 0, 67, 80
2, 132284, Note_off_c, 0, 64, 100
2, 132284, Note_off_c, 0, 67, 100
2, 132288, Note_on_c, 0, 62, 80
2, 132288, Note_on_c, 0, 65, 80
2, 132476, Note_off_c, 0, 62, 100
2, 132476, Note_off_c, 0, 65, 100
2, 132480, Note_on_c, 0, 60, 80
2, 132480, Note_on_c, 0, 64, 80
2, 132860, Note_off_c, 0, 60, 100
2, 132860, Note_off_c, 0, 64, 100
2, 132864, Note_on_c, 0, 68, 80
2, 132864, Note_on_c, 0, 72, 80
2, 133244, Note_off_c, 0, 68, 100
2, 133244, Note_off_c, 0, 72, 100
2, 133248, Note_on_c, 0, 68, 80
2, 133248, Note_on_c, 0, 72, 80
2, 133628, Note_off_c, 0, 68, 100
2, 133628, Note_off_c, 0, 72, 100
2, 133632, Note_on_c, 0, 67, 80
2, 133632, Note_on_c, 0, 70, 80
2, 134012, Note_off_c, 0, 67, 100
2, 134012, Note_off_c, 0, 70, 100
2, 134016, Note_on_c, 0, 65, 80
2, 134016, Note_on_c, 0, 68, 80
2, 134396, Note_off_c, 0, 65, 100
2, 134396, Note_off_c, 0, 68, 100
2, 134400, Note_on_c, 0, 64, 80
2, 134400, Note_on_c, 0, 67, 80
2, 134780, Note_off_c, 0, 64, 100
2, 134780, Note_off_c, 0, 67, 100
2, 134784, Note_on_c, 0, 65, 80
2, 134784, Note_on_c, 0, 68, 80
2, 135164, Note_off_c, 0, 65, 100
2, 135164, Note_off_c, 0, 68, 100
2, 135168, Note_on_c, 0, 64, 80
2, 135168, Note_on_c, 0, 67, 80
2, 135932, Note_off_c, 0, 64, 100
2, 135932, Note_off_c, 0, 67, 100
2, 135936, Note_on_c, 0, 65, 80
2, 135936, Note_on_c, 0, 72, 80
2, 136316, Note_off_c, 0, 72, 100
2, 136320, Note_on_c, 0, 72, 80
2, 136700, Note_off_c, 0, 65, 100
2, 136700, Note_off_c, 0, 72, 100
2, 136704, Note_on_c, 0, 74, 80
2, 137084, Note_off_c, 0, 74, 100
2, 137088, Note_on_c, 0, 79, 80
2, 137468, Note_off_c, 0, 79, 100
2, 137472, Note_on_c, 0, 77, 80
2, 137852, Note_off_c, 0, 77, 100
2, 137856, Note_on_c, 0, 76, 80
2, 138236, Note_off_c, 0, 76, 100
2, 138240, Note_on_c, 0, 68, 120
2, 138240, Note_on_c, 0, 77, 120
2, 138620, Note_off_c, 0, 68, 100
2, 138620, Note_off_c, 0, 77, 100
2, 138624, Note_on_c, 0, 73, 120
2, 138624, Note_on_c, 0, 79, 120
2, 139004, Note_off_c, 0, 73, 100
2, 139004, Note_off_c, 0, 79, 100
2, 140544, Note_on_c, 0, 72, 120
2, 140544, Note_on_c, 0, 77, 120
2, 140544, Note_on_c, 0, 80, 120
2, 140924, Note_off_c, 0, 72, 100
2, 140924, Note_off_c, 0, 77, 100
2, 140924, Note_off_c, 0, 80, 100
2, 140928, Note_on_c, 0, 72, 120
2, 140928, Note_on_c, 0, 79, 120
2, 140928, Note_on_c, 0, 84, 120
2, 141308, Note_off_c, 0, 72, 100
2, 141308, Note_off_c, 0, 79, 100
2, 141308, Note_off_c, 0, 84, 100
2, 141312, Note_on_c, 0, 77, 120
2, 141692, Note_off_c, 0, 77, 100
2, 141696, Note_on_c, 0, 76, 120
2, 141696, Note_on_c, 0, 79, 120
2, 142460, Note_off_c, 0, 76, 64
2, 142460, Note_off_c, 0, 79, 64
2, 142464, Note_on_c, 0, 74, 120
2, 142464, Note_on_c, 0, 79, 120
2, 142844, Note_off_c, 0, 74, 100
2, 142844, Note_off_c, 0, 79, 100
2, 142848, Note_on_c, 0, 76, 120
2, 142848, Note_on_c, 0, 79, 120
2, 143228, Note_off_c, 0, 79, 100
2, 143232, Note_on_c, 0, 80, 120
2, 143612, Note_off_c, 0, 80, 100
2, 143616, Note_on_c, 0, 80, 120
2, 143996, Note_off_c, 0, 76, 64
2, 143996, Note_off_c, 0, 80, 100
2, 144000, Note_on_c, 0, 77, 120
2, 144000, Note_on_c, 0, 80, 120
2, 144380, Note_off_c, 0, 80, 100
2, 144384, Note_on_c, 0, 80, 120
2, 144764, Note_off_c, 0, 77, 64
2, 144764, Note_off_c, 0, 80, 100
2, 144768, Note_on_c, 0, 77, 120
2, 144768, Note_on_c, 0, 80, 120
2, 144768, Note_on_c, 0, 82, 120
2, 145148, Note_off_c, 0, 82, 100
2, 145152, Note_on_c, 0, 82, 120
2, 145532, Note_off_c, 0, 77, 64
2, 145532, Note_off_c, 0, 80, 64
2, 145532, Note_off_c, 0, 82, 100
2, 145536, Note_on_c, 0, 75, 120
2, 145536, Note_on_c, 0, 79, 120
2, 145536, Note_on_c, 0, 82, 120
2, 145916, Note_off_c, 0, 79, 100
2, 145916, Note_off_c, 0, 82, 100
2, 145920, Note_on_c, 0, 79, 120
2, 145920, Note_on_c, 0, 82, 120
2, 146300, Note_off_c, 0, 79, 100
2, 146300, Note_off_c, 0, 82, 100
2, 146304, Note_on_c, 0, 80, 120
2, 146304, Note_on_c, 0, 84, 120
2, 146684, Note_off_c, 0, 75, 64
2, 146684, Note_off_c, 0, 80, 100
2, 146684, Note_off_c, 0, 84, 100
2, 146688, Note_on_c, 0, 77, 120
2, 146688, Note_on_c, 0, 82, 120
2, 146688, Note_on_c, 0, 85, 120
2, 147068, Note_off_c, 0, 77, 100
2, 147068, Note_off_c, 0, 82, 100
2, 147068, Note_off_c, 0, 85, 100
2, 147072, Note_on_c, 0, 73, 120
2, 147072, Note_on_c, 0, 79, 120
2, 147072, Note_on_c, 0, 82, 120
2, 147452, Note_off_c, 0, 73, 100
2, 147452, Note_off_c, 0, 79, 100
2, 147452, Note_off_c, 0, 82, 100
2, 147456, Note_on_c, 0, 72, 120
2, 147456, Note_on_c, 0, 80, 120
2, 148220, Note_off_c, 0, 72, 100
2, 148220, Note_off_c, 0, 80, 100
2, 148224, Note_on_c, 0, 68, 80
2, 148604, Note_off_c, 0, 68, 100
2, 148608, Note_on_c, 0, 68, 80
2, 148988, Note_off_c, 0, 68, 100
2, 148992, Note_on_c, 0, 67, 80
2, 149180, Note_off_c, 0, 67, 100
2, 149184, Note_on_c, 0, 65, 80
2, 149372, Note_off_c, 0, 65, 100
2, 149376, Note_on_c, 0, 63, 80
2, 149756, Note_off_c, 0, 63, 100
2, 149760, Note_on_c, 0, 68, 80
2, 149760, Note_on_c, 0, 72, 80
2, 150140, Note_off_c, 0, 68, 100
2, 150140, Note_off_c, 0, 72, 100
2, 150144, Note_on_c, 0, 68, 80
2, 150144, Note_on_c, 0, 72, 80
2, 150524, Note_off_c, 0, 68, 100
2, 150524, Note_off_c, 0, 72, 100
2, 150528, Note_on_c, 0, 67, 80
2, 150528, Note_on_c, 0, 70, 80
2, 150716, Note_off_c, 0, 67, 100
2, 150716, Note_off_c, 0, 70, 100
2, 150720, Note_on_c, 0, 65, 80
2, 150720, Note_on_c, 0, 68, 80
2, 150908, Note_off_c, 0, 65, 100
2, 150908, Note_off_c, 0, 68, 100
2, 150912, Note_on_c, 0, 63, 80
2, 150912, Note_on_c, 0, 67, 80
2, 151292, Note_off_c, 0, 63, 100
2, 151292, Note_off_c, 0, 67, 100
2, 151296, Note_on_c, 0, 72, 80
2, 151296, Note_on_c, 0, 75, 80
2, 151676, Note_off_c, 0, 72, 100
2, 151676, Note_off_c, 0, 75, 100
2, 151680, Note_on_c, 0, 72, 80
2, 151680, Note_on_c, 0, 75, 80
2, 152060, Note_off_c, 0, 72, 100
2, 152060, Note_off_c, 0, 75, 100
2, 152064, Note_on_c, 0, 70, 80
2, 152064, Note_on_c, 0, 73, 80
2, 152444, Note_off_c, 0, 70, 100
2, 152444, Note_off_c, 0, 73, 100
2, 152448, Note_on_c, 0, 68, 80
2, 152448, Note_on_c, 0, 72, 80
2, 152828, Note_off_c, 0, 68, 100
2, 152828, Note_off_c, 0, 72, 100
2, 152832, Note_on_c, 0, 67, 80
2, 152832, Note_on_c, 0, 70, 80
2, 153212, Note_off_c, 0, 67, 100
2, 153212, Note_off_c, 0, 70, 100
2, 153216, Note_on_c, 0, 68, 80
2, 153216, Note_on_c, 0, 72, 80
2, 153596, Note_off_c, 0, 68, 100
2, 153596, Note_off_c, 0, 72, 100
2, 153600, Note_on_c, 0, 67, 80
2, 153600, Note_on_c, 0, 70, 80
2, 153980, Note_off_c, 0, 67, 100
2, 153980, Note_off_c, 0, 70, 100
2, 153984, Note_on_c, 0, 67, 80
2, 153984, Note_on_c, 0, 72, 80
2, 154364, Note_off_c, 0, 67, 100
2, 154364, Note_off_c, 0, 72, 100
2, 154368, Note_on_c, 0, 65, 80
2, 154748, Note_off_c, 0, 65, 100
2, 154752, Note_on_c, 0, 65, 80
2, 155132, Note_off_c, 0, 65, 100
2, 155136, Note_on_c, 0, 64, 80
2, 155324, Note_off_c, 0, 64, 100
2, 155328, Note_on_c, 0, 62, 80
2, 155516, Note_off_c, 0, 62, 100
2, 155520, Note_on_c, 0, 60, 80
2, 155900, Note_off_c, 0, 60, 100
2, 155904, Note_on_c, 0, 65, 80
2, 155904, Note_on_c, 0, 68, 80
2, 156284, Note_off_c, 0, 65, 100
2, 156284, Note_off_c, 0, 68, 100
2, 156288, Note_on_c, 0, 65, 80
2, 156288, Note_on_c, 0, 68, 80
2, 156668, Note_off_c, 0, 65, 100
2, 156668, Note_off_c, 0, 68, 100
2, 156672, Note_on_c, 0, 64, 80
2, 156672, Note_on_c, 0, 67, 80
2, 156860, Note_off_c, 0, 64, 100
2, 156860, Note_off_c, 0, 67, 100
2, 156864, Note_on_c, 0, 62, 80
2, 156864, Note_on_c, 0, 65, 80
2, 157052, Note_off_c, 0, 62, 100
2, 157052, Note_off_c, 0, 65, 100
2, 157056, Note_on_c, 0, 60, 80
2, 157056, Note_on_c, 0, 64, 80
2, 157436, Note_off_c, 0, 60, 100
2, 157436, Note_off_c, 0, 64, 100
2, 157440, Note_on_c, 0, 68, 80
2, 157440, Note_on_c, 0, 72, 80
2, 157820, Note_off_c, 0, 68, 100
2, 157820, Note_off_c, 0, 72, 100
2, 157824, Note_on_c, 0, 68, 80
2, 157824, Note_on_c, 0, 72, 80
2, 158204, Note_off_c, 0, 68, 100
2, 158204, Note_off_c, 0, 72, 100
2, 158208, Note_on_c, 0, 67, 80
2, 158208, Note_on_c, 0, 70, 80
2, 158588, Note_off_c, 0, 67, 100
2, 158588, Note_off_c, 0, 70, 100
2, 158592, Note_on_c, 0, 65, 80
2, 158592, Note_on_c, 0, 68, 80
2, 158972, Note_off_c, 0, 65, 100
2, 158972, Note_off_c, 0, 68, 100
2, 158976, Note_on_c, 0, 64, 80
2, 158976, Note_on_c, 0, 67, 80
2, 159356, Note_off_c, 0, 64, 100
2, 159356, Note_off_c, 0, 67, 100
2, 159360, Note_on_c, 0, 65, 80
2, 159360, Note_on_c, 0, 68, 80
2, 159740, Note_off_c, 0, 65, 100
2, 159740, Note_off_c, 0, 68, 100
2, 159744, Note_on_c, 0, 64, 80
2, 159744, Note_on_c, 0, 67, 80
2, 160508, Note_off_c, 0, 64, 100
2, 160508, Note_off_c, 0, 67, 100
2, 160512, Note_on_c, 0, 65, 80
2, 160512, Note_on_c, 0, 72, 80
2, 160892, Note_off_c, 0, 72, 100
2, 160896, Note_on_c, 0, 72, 80
2, 161276, Note_off_c, 0, 65, 100
2, 161276, Note_off_c, 0, 72, 100
2, 161280, Note_on_c, 0, 74, 80
2, 161660, Note_off_c, 0, 74, 100
2, 161664, Note_on_c, 0, 79, 80
2, 162044, Note_off_c, 0, 79, 100
2, 162048, Note_on_c, 0, 77, 80
2, 162428, Note_off_c, 0, 77, 100
2, 162432, Note_on_c, 0, 76, 80
2, 162812, Note_off_c, 0, 76, 100
2, 162816, Note_on_c, 0, 68, 120
2, 162816, Note_on_c, 0, 77, 120
2, 163196, Note_off_c, 0, 68, 100
2, 163196, Note_off_c, 0, 77, 100
2, 163200, Note_on_c, 0, 73, 120
2, 163200, Note_on_c, 0, 79, 120
2, 163580, Note_off_c, 0, 73, 100
2, 163580, Note_off_c, 0, 79, 100
2, 165120, Note_on_c, 0, 72, 120
2, 165120, Note_on_c, 0, 77, 120
2, 165120, Note_on_c, 0, 80, 120
2, 165500, Note_off_c, 0, 72, 100
2, 165500, Note_off_c, 0, 77, 100
2, 165500, Note_off_c, 0, 80, 100
2, 165504, Note_on_c, 0, 72, 120
2, 165504, Note_on_c, 0, 79, 120
2, 165504, Note_on_c, 0, 84, 120
2, 165884, Note_off_c, 0, 72, 100
2, 165884, Note_off_c, 0, 79, 100
2, 165884, Note_off_c, 0, 84, 100
2, 165888, Note_on_c, 0, 68, 120
2, 165888, Note_on_c, 0, 72, 120
2, 165888, Note_on_c, 0, 77, 120
2, 166268, Note_off_c, 0, 68, 100
2, 166268, Note_off_c, 0, 72, 100
2, 166268, Note_off_c, 0, 77, 100
2, 166656, Note_on_c, 0, 68, 120
2, 166656, Note_on_c, 0, 72, 120
2, 166656, Note_on_c, 0, 77, 120
2, 167420, Note_off_c, 0, 68, 100
2, 167420, Note_off_c, 0, 72, 100
2, 167420, Note_off_c, 0, 77, 100
2, 168192, Note_on_c, 0, 67, 120
2, 168192, Note_on_c, 0, 72, 120
2, 168192, Note_on_c, 0, 79, 120
2, 168956, Note_off_c, 0, 67, 100
2, 168956, Note_off_c, 0, 72, 100
2, 168956, Note_off_c, 0, 79, 100
2, 169728, Note_on_c, 0, 68, 120
2, 169728, Note_on_c, 0, 72, 120
2, 169728, Note_on_c, 0, 77, 120
2, 169728, Note_on_c, 0, 80, 120
2, 170492, Note_off_c, 0, 68, 100
2, 170492, Note_off_c, 0, 72, 100
2, 170492, Note_off_c, 0, 77, 100
2, 170492, Note_off_c, 0, 80, 100
2, 171264, Note_on_c, 0, 73, 120
2, 171264, Note_on_c, 0, 77, 120
2, 171264, Note_on_c, 0, 82, 120
2, 171264, Note_on_c, 0, 85, 120
2, 172028, Note_off_c, 0, 73, 100
2, 172028, Note_off_c, 0, 77, 100
2, 172028, Note_off_c, 0, 82, 100
2, 172028, Note_off_c, 0, 85, 100
2, 172800, Note_on_c, 0, 72, 100
2, 172800, Note_on_c, 0, 77, 100
2, 172800, Note_on_c, 0, 80, 100
2, 172800, Note_on_c, 0, 84, 100
2, 173564, Note_off_c, 0, 72, 100
2, 173564, Note_off_c, 0, 77, 100
2, 173564, Note_off_c, 0, 80, 100
2, 173564, Note_off_c, 0, 84, 100
2, 174336, Note_on_c, 0, 72, 90
2, 174336, Note_on_c, 0, 76, 90
2, 174336, Note_on_c, 0, 79, 90
2, 174336, Note_on_c, 0, 84, 90
2, 175100, Note_off_c, 0, 72, 100
2, 175100, Note_off_c, 0, 76, 100
2, 175100, Note_off_c, 0, 79, 100
2, 175100, Note_off_c, 0, 84, 100
2, 175104, Control_c, 0, 64, 127
2, 175104, Note_on_c, 0, 72, 80
2, 175104, Note_on_c, 0, 77, 80
2, 175104, Note_on_c, 0, 80, 80
2, 175104, Note_on_c, 0, 84, 80
2, 176636, Note_off_c, 0, 72, 64
2, 177404, Note_off_c, 0, 77, 64
2, 178172, Note_off_c, 0, 80, 64
2, 180856, Control_c, 0, 64, 0
2, 180860, Note_off_c, 0, 84, 64
2, 182784, Control_c, 0, 7, 0
2, 183552, Note_on_c, 0, 65, 1
2, 183932, Note_off_c, 0, 65, 100
2, 183932, End_track
3, 0, Start_track
3, 0, Title_t, "Left"
3, 0, Control_c, 1, 0, 0
3, 0, Program_c, 1, 0
3, 0, Control_c, 1, 7, 100
3, 0, Control_c, 1, 10, 51
3, 0, Control_c, 1, 91, 127
3, 0, Note_on_c, 1, 41, 80
3, 0, Note_on_c, 1, 53, 80
3, 380, Note_off_c, 1, 41, 100
3, 380, Note_off_c, 1, 53, 100
3, 384, Note_on_c, 1, 43, 80
3, 384, Note_on_c, 1, 55, 80
3, 764, Note_off_c, 1, 43, 100
3, 764, Note_off_c, 1, 55, 100
3, 768, Note_on_c, 1, 44, 80
3, 768, Note_on_c, 1, 56, 80
3, 1148, Note_off_c, 1, 44, 100
3, 1148, Note_off_c, 1, 56, 100
3, 1152, Note_on_c, 1, 46, 80
3, 1152, Note_on_c, 1, 58, 80
3, 1532, Note_off_c, 1, 46, 100
3, 1532, Note_off_c, 1, 58, 100
3, 1536, Note_on_c, 1, 47, 80
3, 1536, Note_on_c, 1, 59, 80
3, 1916, Note_off_c, 1, 47, 100
3, 1916, Note_off_c, 1, 59, 100
3, 1920, Note_on_c, 1, 47, 80
3, 1920, Note_on_c, 1, 59, 80
3, 2300, Note_off_c, 1, 47, 100
3, 2300, Note_off_c, 1, 59, 100
3, 2304, Note_on_c, 1, 48, 80
3, 2304, Note_on_c, 1, 60, 80
3, 3068, Note_off_c, 1, 48, 100
3, 3068, Note_off_c, 1, 60, 100
3, 3072, Note_on_c, 1, 36, 120
3, 3072, Note_on_c, 1, 48, 120
3, 3452, Note_off_c, 1, 36, 100
3, 3452, Note_off_c, 1, 48, 100
3, 3456, Note_on_c, 1, 40, 120
3, 3456, Note_on_c, 1, 52, 120
3, 3836, Note_off_c, 1, 40, 100
3, 3836, Note_off_c, 1, 52, 100
3, 3840, Note_on_c, 1, 43, 120
3, 3840, Note_on_c, 1, 55, 120
3, 4220, Note_off_c, 1, 43, 100
3, 4220, Note_off_c, 1, 55, 100
3, 4224, Note_on_c, 1, 48, 120
3, 4224, Note_on_c, 1, 60, 120
3, 4604, Note_off_c, 1, 48, 100
3, 4604, Note_off_c, 1, 60, 100
3, 4608, Note_on_c, 1, 43, 120
3, 4608, Note_on_c, 1, 55, 120
3, 4988, Note_off_c, 1, 43, 100
3, 4988, Note_off_c, 1, 55, 100
3, 4992, Note_on_c, 1, 31, 120
3, 4992, Note_on_c, 1, 43, 120
3, 5372, Note_off_c, 1, 31, 100
3, 5372, Note_off_c, 1, 43, 100
3, 5376, Note_on_c, 1, 36, 120
3, 5376, Note_on_c, 1, 48, 120
3, 6140, Note_off_c, 1, 36, 100
3, 6140, Note_off_c, 1, 48, 100
3, 6144, Note_on_c, 1, 41, 80
3, 6144, Note_on_c, 1, 53, 80
3, 6524, Note_off_c, 1, 41, 100
3, 6524, Note_off_c, 1, 53, 100
3, 6528, Note_on_c, 1, 43, 80
3, 6528, Note_on_c, 1, 55, 80
3, 6908, Note_off_c, 1, 43, 100
3, 6908, Note_off_c, 1, 55, 100
3, 6912, Note_on_c, 1, 44, 80
3, 6912, Note_on_c, 1, 56, 80
3, 7292, Note_off_c, 1, 44, 100
3, 7292, Note_off_c, 1, 56, 100
3, 7296, Note_on_c, 1, 46, 80
3, 7296, Note_on_c, 1, 58, 80
3, 7676, Note_off_c, 1, 46, 100
3, 7676, Note_off_c, 1, 58, 100
3, 7680, Note_on_c, 1, 47, 80
3, 7680, Note_on_c, 1, 59, 80
3, 8060, Note_off_c, 1, 47, 100
3, 8060, Note_off_c, 1, 59, 100
3, 8064, Note_on_c, 1, 47, 80
3, 8064, Note_on_c, 1, 59, 80
3, 8444, Note_off_c, 1, 47, 100
3, 8444, Note_off_c, 1, 59, 100
3, 8448, Note_on_c, 1, 48, 80
3, 8448, Note_on_c, 1, 60, 80
3, 9212, Note_off_c, 1, 48, 100
3, 9212, Note_off_c, 1, 60, 100
3, 9216, Note_on_c, 1, 36, 120
3, 9216, Note_on_c, 1, 48, 120
3, 9596, Note_off_c, 1, 36, 100
3, 9596, Note_off_c, 1, 48, 100
3, 9600, Note_on_c, 1, 40, 120
3, 9600, Note_on_c, 1, 52, 120
3, 9980, Note_off_c, 1, 40, 100
3, 9980, Note_off_c, 1, 52, 100
3, 9984, Note_on_c, 1, 43, 120
3, 9984, Note_on_c, 1, 55, 120
3, 10364, Note_off_c, 1, 43, 100
3, 10364, Note_off_c, 1, 55, 100
3, 10368, Note_on_c, 1, 48, 120
3, 10368, Note_on_c, 1, 60, 120
3, 10748, Note_off_c, 1, 48, 100
3, 10748, Note_off_c, 1, 60, 100
3, 10752, Note_on_c, 1, 43, 120
3, 10752, Note_on_c, 1, 55, 120
3, 11132, Note_off_c, 1, 43, 100
3, 11132, Note_off_c, 1, 55, 100
3, 11136, Note_on_c, 1, 31, 120
3, 11136, Note_on_c, 1, 43, 120
3, 11516, Note_off_c, 1, 31, 100
3, 11516, Note_off_c, 1, 43, 100
3, 11520, Note_on_c, 1, 36, 120
3, 11520, Note_on_c, 1, 48, 120
3, 12284, Note_off_c, 1, 36, 100
3, 12284, Note_off_c, 1, 48, 100
3, 12288, Note_on_c, 1, 36, 120
3, 12288, Note_on_c, 1, 48, 120
3, 12668, Note_off_c, 1, 36, 100
3, 12668, Note_off_c, 1, 48, 100
3, 12672, Note_on_c, 1, 35, 120
3, 12672, Note_on_c, 1, 47, 120
3, 13052, Note_off_c, 1, 35, 100
3, 13052, Note_off_c, 1, 47, 100
3, 13056, Note_on_c, 1, 36, 120
3, 13056, Note_on_c, 1, 48, 120
3, 14204, Note_off_c, 1, 36, 64
3, 14204, Note_off_c, 1, 48, 64
3, 14208, Note_on_c, 1, 37, 120
3, 14208, Note_on_c, 1, 49, 120
3, 14972, Note_off_c, 1, 37, 64
3, 14972, Note_off_c, 1, 49, 64
3, 14976, Note_on_c, 1, 38, 120
3, 14976, Note_on_c, 1, 50, 120
3, 15740, Note_off_c, 1, 38, 64
3, 15740, Note_off_c, 1, 50, 64
3, 15744, Note_on_c, 1, 39, 120
3, 15744, Note_on_c, 1, 51, 120
3, 16508, Note_off_c, 1, 39, 64
3, 16508, Note_off_c, 1, 51, 64
3, 16512, Note_on_c, 1, 32, 120
3, 16512, Note_on_c, 1, 44, 120
3, 16892, Note_off_c, 1, 32, 100
3, 16892, Note_off_c, 1, 44, 100
3, 16896, Note_on_c, 1, 37, 120
3, 16896, Note_on_c, 1, 49, 120
3, 17276, Note_off_c, 1, 37, 100
3, 17276, Note_off_c, 1, 49, 100
3, 17280, Note_on_c, 1, 51, 120
3, 17280, Note_on_c, 1, 39, 120
3, 17660, Note_off_c, 1, 51, 100
3, 17660, Note_off_c, 1, 39, 100
3, 17664, Note_on_c, 1, 44, 120
3, 17664, Note_on_c, 1, 56, 120
3, 18428, Note_off_c, 1, 44, 100
3, 18428, Note_off_c, 1, 56, 100
3, 18816, Note_on_c, 1, 56, 80
3, 18816, Note_on_c, 1, 60, 80
3, 19196, Note_off_c, 1, 56, 100
3, 19196, Note_off_c, 1, 60, 100
3, 19200, Note_on_c, 1, 58, 80
3, 19200, Note_on_c, 1, 61, 80
3, 19580, Note_off_c, 1, 58, 100
3, 19580, Note_off_c, 1, 61, 100
3, 20352, Note_on_c, 1, 56, 80
3, 20352, Note_on_c, 1, 60, 80
3, 20732, Note_off_c, 1, 56, 100
3, 20732, Note_off_c, 1, 60, 100
3, 20736, Note_on_c, 1, 58, 80
3, 20736, Note_on_c, 1, 61, 80
3, 21116, Note_off_c, 1, 58, 100
3, 21116, Note_off_c, 1, 61, 100
3, 21888, Note_on_c, 1, 32, 80
3, 21888, Note_on_c, 1, 44, 80
3, 22268, Note_off_c, 1, 32, 100
3, 22268, Note_off_c, 1, 44, 100
3, 22272, Note_on_c, 1, 34, 80
3, 22272, Note_on_c, 1, 46, 80
3, 22652, Note_off_c, 1, 34, 100
3, 22652, Note_off_c, 1, 46, 100
3, 22656, Note_on_c, 1, 36, 80
3, 22656, Note_on_c, 1, 48, 80
3, 23036, Note_off_c, 1, 36, 100
3, 23036, Note_off_c, 1, 48, 100
3, 23040, Note_on_c, 1, 37, 80
3, 23040, Note_on_c, 1, 49, 80
3, 23420, Note_off_c, 1, 37, 100
3, 23420, Note_off_c, 1, 49, 100
3, 23424, Note_on_c, 1, 50, 80
3, 23424, Note_on_c, 1, 38, 80
3, 23804, Note_off_c, 1, 50, 100
3, 23804, Note_off_c, 1, 38, 100
3, 23808, Note_on_c, 1, 39, 80
3, 23808, Note_on_c, 1, 51, 80
3, 24188, Note_off_c, 1, 39, 100
3, 24188, Note_off_c, 1, 51, 100
3, 24192, Note_on_c, 1, 40, 80
3, 24192, Note_on_c, 1, 52, 80
3, 24572, Note_off_c, 1, 40, 100
3, 24572, Note_off_c, 1, 52, 100
3, 24960, Note_on_c, 1, 53, 80
3, 24960, Note_on_c, 1, 56, 80
3, 25340, Note_off_c, 1, 53, 100
3, 25340, Note_off_c, 1, 56, 100
3, 25344, Note_on_c, 1, 55, 80
3, 25344, Note_on_c, 1, 58, 80
3, 25724, Note_off_c, 1, 55, 100
3, 25724, Note_off_c, 1, 58, 100
3, 26496, Note_on_c, 1, 53, 80
3, 26496, Note_on_c, 1, 56, 80
3, 26876, Note_off_c, 1, 53, 100
3, 26876, Note_off_c, 1, 56, 100
3, 26880, Note_on_c, 1, 55, 80
3, 26880, Note_on_c, 1, 58, 80
3, 27260, Note_off_c, 1, 55, 100
3, 27260, Note_off_c, 1, 58, 100
3, 28032, Note_on_c, 1, 41, 80
3, 28032, Note_on_c, 1, 53, 80
3, 28412, Note_off_c, 1, 41, 100
3, 28412, Note_off_c, 1, 53, 100
3, 28416, Note_on_c, 1, 43, 80
3, 28416, Note_on_c, 1, 55, 80
3, 28796, Note_off_c, 1, 43, 100
3, 28796, Note_off_c, 1, 55, 100
3, 28800, Note_on_c, 1, 44, 80
3, 28800, Note_on_c, 1, 56, 80
3, 29180, Note_off_c, 1, 44, 100
3, 29180, Note_off_c, 1, 56, 100
3, 29184, Note_on_c, 1, 46, 80
3, 29184, Note_on_c, 1, 58, 80
3, 29564, Note_off_c, 1, 46, 100
3, 29564, Note_off_c, 1, 58, 100
3, 29568, Note_on_c, 1, 47, 80
3, 29568, Note_on_c, 1, 59, 80
3, 29948, Note_off_c, 1, 47, 100
3, 29948, Note_off_c, 1, 59, 100
3, 29952, Note_on_c, 1, 48, 80
3, 29952, Note_on_c, 1, 60, 80
3, 30716, Note_off_c, 1, 48, 100
3, 30716, Note_off_c, 1, 60, 100
3, 30720, Note_on_c, 1, 44, 80
3, 30720, Note_on_c, 1, 56, 80
3, 31484, Note_off_c, 1, 44, 100
3, 31484, Note_off_c, 1, 56, 100
3, 31488, Note_on_c, 1, 46, 80
3, 31488, Note_on_c, 1, 43, 80
3, 31868, Note_off_c, 1, 46, 100
3, 31872, Note_on_c, 1, 58, 80
3, 32252, Note_off_c, 1, 43, 100
3, 32252, Note_off_c, 1, 58, 100
3, 32256, Note_on_c, 1, 56, 80
3, 32256, Note_on_c, 1, 48, 80
3, 32636, Note_off_c, 1, 56, 100
3, 32640, Note_on_c, 1, 55, 80
3, 33020, Note_off_c, 1, 48, 100
3, 33020, Note_off_c, 1, 55, 100
3, 33024, Note_on_c, 1, 49, 120
3, 33024, Note_on_c, 1, 53, 120
3, 33404, Note_off_c, 1, 49, 100
3, 33404, Note_off_c, 1, 53, 100
3, 33408, Note_on_c, 1, 46, 120
3, 33408, Note_on_c, 1, 53, 120
3, 33788, Note_off_c, 1, 46, 100
3, 33788, Note_off_c, 1, 53, 100
3, 35328, Note_on_c, 1, 48, 120
3, 35328, Note_on_c, 1, 53, 120
3, 35708, Note_off_c, 1, 48, 100
3, 35708, Note_off_c, 1, 53, 100
3, 35712, Note_on_c, 1, 48, 120
3, 35712, Note_on_c, 1, 52, 120
3, 36092, Note_off_c, 1, 48, 100
3, 36092, Note_off_c, 1, 52, 100
3, 36096, Note_on_c, 1, 41, 120
3, 36096, Note_on_c, 1, 53, 120
3, 36476, Note_off_c, 1, 41, 100
3, 36476, Note_off_c, 1, 53, 100
3, 36480, Note_on_c, 1, 36, 120
3, 36480, Note_on_c, 1, 48, 120
3, 37244, Note_off_c, 1, 36, 64
3, 37244, Note_off_c, 1, 48, 64
3, 37248, Note_on_c, 1, 35, 120
3, 37248, Note_on_c, 1, 47, 120
3, 37628, Note_off_c, 1, 35, 100
3, 37628, Note_off_c, 1, 47, 100
3, 37632, Note_on_c, 1, 36, 120
3, 37632, Note_on_c, 1, 48, 120
3, 38780, Note_off_c, 1, 36, 64
3, 38780, Note_off_c, 1, 48, 64
3, 38784, Note_on_c, 1, 37, 120
3, 38784, Note_on_c, 1, 49, 120
3, 39548, Note_off_c, 1, 37, 64
3, 39548, Note_off_c, 1, 49, 64
3, 39552, Note_on_c, 1, 38, 120
3, 39552, Note_on_c, 1, 50, 120
3, 40316, Note_off_c, 1, 38, 64
3, 40316, Note_off_c, 1, 50, 64
3, 40320, Note_on_c, 1, 39, 120
3, 40320, Note_on_c, 1, 51, 120
3, 41084, Note_off_c, 1, 39, 64
3, 41084, Note_off_c, 1, 51, 64
3, 41088, Note_on_c, 1, 32, 120
3, 41088, Note_on_c, 1, 44, 120
3, 41468, Note_off_c, 1, 32, 100
3, 41468, Note_off_c, 1, 44, 100
3, 41472, Note_on_c, 1, 37, 120
3, 41472, Note_on_c, 1, 49, 120
3, 41852, Note_off_c, 1, 37, 100
3, 41852, Note_off_c, 1, 49, 100
3, 41856, Note_on_c, 1, 51, 120
3, 41856, Note_on_c, 1, 39, 120
3, 42236, Note_off_c, 1, 51, 100
3, 42236, Note_off_c, 1, 39, 100
3, 42240, Note_on_c, 1, 44, 120
3, 42240, Note_on_c, 1, 56, 120
3, 43004, Note_off_c, 1, 44, 100
3, 43004, Note_off_c, 1, 56, 100
3, 43392, Note_on_c, 1, 56, 80
3, 43392, Note_on_c, 1, 60, 80
3, 43772, Note_off_c, 1, 56, 100
3, 43772, Note_off_c, 1, 60, 100
3, 43776, Note_on_c, 1, 58, 80
3, 43776, Note_on_c, 1, 61, 80
3, 44156, Note_off_c, 1, 58, 100
3, 44156, Note_off_c, 1, 61, 100
3, 44928, Note_on_c, 1, 56, 80
3, 44928, Note_on_c, 1, 60, 80
3, 45308, Note_off_c, 1, 56, 100
3, 45308, Note_off_c, 1, 60, 100
3, 45312, Note_on_c, 1, 58, 80
3, 45312, Note_on_c, 1, 61, 80
3, 45692, Note_off_c, 1, 58, 100
3, 45692, Note_off_c, 1, 61, 100
3, 46464, Note_on_c, 1, 32, 80
3, 46464, Note_on_c, 1, 44, 80
3, 46844, Note_off_c, 1, 32, 100
3, 46844, Note_off_c, 1, 44, 100
3, 46848, Note_on_c, 1, 34, 80
3, 46848, Note_on_c, 1, 46, 80
3, 47228, Note_off_c, 1, 34, 100
3, 47228, Note_off_c, 1, 46, 100
3, 47232, Note_on_c, 1, 36, 80
3, 47232, Note_on_c, 1, 48, 80
3, 47612, Note_off_c, 1, 36, 100
3, 47612, Note_off_c, 1, 48, 100
3, 47616, Note_on_c, 1, 37, 80
3, 47616, Note_on_c, 1, 49, 80
3, 47996, Note_off_c, 1, 37, 100
3, 47996, Note_off_c, 1, 49, 100
3, 48000, Note_on_c, 1, 50, 80
3, 48000, Note_on_c, 1, 38, 80
3, 48380, Note_off_c, 1, 50, 100
3, 48380, Note_off_c, 1, 38, 100
3, 48384, Note_on_c, 1, 39, 80
3, 48384, Note_on_c, 1, 51, 80
3, 48764, Note_off_c, 1, 39, 100
3, 48764, Note_off_c, 1, 51, 100
3, 48768, Note_on_c, 1, 40, 80
3, 48768, Note_on_c, 1, 52, 80
3, 49148, Note_off_c, 1, 40, 100
3, 49148, Note_off_c, 1, 52, 100
3, 49536, Note_on_c, 1, 53, 80
3, 49536, Note_on_c, 1, 56, 80
3, 49916, Note_off_c, 1, 53, 100
3, 49916, Note_off_c, 1, 56, 100
3, 49920, Note_on_c, 1, 55, 80
3, 49920, Note_on_c, 1, 58, 80
3, 50300, Note_off_c, 1, 55, 100
3, 50300, Note_off_c, 1, 58, 100
3, 51072, Note_on_c, 1, 53, 80
3, 51072, Note_on_c, 1, 56, 80
3, 51452, Note_off_c, 1, 53, 100
3, 51452, Note_off_c, 1, 56, 100
3, 51456, Note_on_c, 1, 55, 80
3, 51456, Note_on_c, 1, 58, 80
3, 51836, Note_off_c, 1, 55, 100
3, 51836, Note_off_c, 1, 58, 100
3, 52608, Note_on_c, 1, 41, 80
3, 52608, Note_on_c, 1, 53, 80
3, 52988, Note_off_c, 1, 41, 100
3, 52988, Note_off_c, 1, 53, 100
3, 52992, Note_on_c, 1, 43, 80
3, 52992, Note_on_c, 1, 55, 80
3, 53372, Note_off_c, 1, 43, 100
3, 53372, Note_off_c, 1, 55, 100
3, 53376, Note_on_c, 1, 44, 80
3, 53376, Note_on_c, 1, 56, 80
3, 53756, Note_off_c, 1, 44, 100
3, 53756, Note_off_c, 1, 56, 100
3, 53760, Note_on_c, 1, 46, 80
3, 53760, Note_on_c, 1, 58, 80
3, 54140, Note_off_c, 1, 46, 100
3, 54140, Note_off_c, 1, 58, 100
3, 54144, Note_on_c, 1, 47, 80
3, 54144, Note_on_c, 1, 59, 80
3, 54524, Note_off_c, 1, 47, 100
3, 54524, Note_off_c, 1, 59, 100
3, 54528, Note_on_c, 1, 48, 80
3, 54528, Note_on_c, 1, 60, 80
3, 55292, Note_off_c, 1, 48, 100
3, 55292, Note_off_c, 1, 60, 100
3, 55296, Note_on_c, 1, 44, 80
3, 55296, Note_on_c, 1, 56, 80
3, 56060, Note_off_c, 1, 44, 100
3, 56060, Note_off_c, 1, 56, 100
3, 56064, Note_on_c, 1, 46, 80
3, 56064, Note_on_c, 1, 43, 80
3, 56444, Note_off_c, 1, 46, 100
3, 56448, Note_on_c, 1, 58, 80
3, 56828, Note_off_c, 1, 43, 100
3, 56828, Note_off_c, 1, 58, 100
3, 56832, Note_on_c, 1, 56, 80
3, 56832, Note_on_c, 1, 48, 80
3, 57212, Note_off_c, 1, 56, 100
3, 57216, Note_on_c, 1, 55, 80
3, 57596, Note_off_c, 1, 48, 100
3, 57596, Note_off_c, 1, 55, 100
3, 57600, Note_on_c, 1, 49, 120
3, 57600, Note_on_c, 1, 53, 120
3, 57980, Note_off_c, 1, 49, 100
3, 57980, Note_off_c, 1, 53, 100
3, 57984, Note_on_c, 1, 46, 120
3, 57984, Note_on_c, 1, 53, 120
3, 58364, Note_off_c, 1, 46, 100
3, 58364, Note_off_c, 1, 53, 100
3, 59904, Note_on_c, 1, 48, 120
3, 59904, Note_on_c, 1, 53, 120
3, 60284, Note_off_c, 1, 48, 100
3, 60284, Note_off_c, 1, 53, 100
3, 60288, Note_on_c, 1, 48, 120
3, 60288, Note_on_c, 1, 52, 120
3, 60668, Note_off_c, 1, 48, 100
3, 60668, Note_off_c, 1, 52, 100
3, 60672, Note_on_c, 1, 41, 120
3, 60672, Note_on_c, 1, 53, 120
3, 61052, Note_off_c, 1, 41, 100
3, 61052, Note_off_c, 1, 53, 100
3, 61440, Note_on_c, 1, 37, 120
3, 61824, Note_on_c, 1, 53, 120
3, 62204, Note_off_c, 1, 37, 100
3, 62204, Note_off_c, 1, 53, 100
3, 62592, Note_on_c, 1, 56, 97
3, 62972, Note_off_c, 1, 56, 100
3, 63360, Note_on_c, 1, 53, 80
3, 63740, Note_off_c, 1, 53, 100
3, 64128, Note_on_c, 1, 56, 80
3, 64508, Note_off_c, 1, 56, 100
3, 64896, Note_on_c, 1, 60, 80
3, 65276, Note_off_c, 1, 60, 100
3, 65664, Note_on_c, 1, 75, 80
3, 66044, Note_off_c, 1, 75, 100
3, 66432, Note_on_c, 1, 84, 80
3, 66812, Note_off_c, 1, 84, 100
3, 66816, Note_on_c, 1, 85, 120
3, 67196, Note_off_c, 1, 85, 100
3, 67584, Note_on_c, 1, 37, 120
3, 67968, Note_on_c, 1, 53, 120
3, 68348, Note_off_c, 1, 37, 100
3, 68348, Note_off_c, 1, 53, 100
3, 68736, Note_on_c, 1, 56, 97
3, 69116, Note_off_c, 1, 56, 100
3, 69504, Note_on_c, 1, 53, 80
3, 69884, Note_off_c, 1, 53, 100
3, 70272, Note_on_c, 1, 56, 80
3, 70652, Note_off_c, 1, 56, 100
3, 71040, Note_on_c, 1, 65, 80
3, 71420, Note_off_c, 1, 65, 100
3, 71808, Note_on_c, 1, 77, 80
3, 72188, Note_off_c, 1, 77, 100
3, 72576, Note_on_c, 1, 89, 80
3, 72956, Note_off_c, 1, 89, 100
3, 72960, Note_on_c, 1, 90, 120
3, 73340, Note_off_c, 1, 90, 100
3, 73728, Note_on_c, 1, 42, 120
3, 74112, Note_on_c, 1, 58, 120
3, 74492, Note_off_c, 1, 42, 100
3, 74492, Note_off_c, 1, 58, 100
3, 74880, Note_on_c, 1, 61, 97
3, 75260, Note_off_c, 1, 61, 100
3, 75648, Note_on_c, 1, 58, 80
3, 76028, Note_off_c, 1, 58, 100
3, 76416, Note_on_c, 1, 61, 80
3, 76796, Note_off_c, 1, 61, 100
3, 77184, Note_on_c, 1, 65, 80
3, 77564, Note_off_c, 1, 65, 100
3, 77952, Note_on_c, 1, 80, 80
3, 78332, Note_off_c, 1, 80, 100
3, 78720, Note_on_c, 1, 89, 80
3, 79100, Note_off_c, 1, 89, 100
3, 79104, Note_on_c, 1, 90, 120
3, 79484, Note_off_c, 1, 90, 100
3, 79872, Note_on_c, 1, 42, 120
3, 80256, Note_on_c, 1, 58, 120
3, 80636, Note_off_c, 1, 42, 100
3, 80636, Note_off_c, 1, 58, 100
3, 81024, Note_on_c, 1, 61, 97
3, 81404, Note_off_c, 1, 61, 100
3, 81792, Note_on_c, 1, 58, 80
3, 82172, Note_off_c, 1, 58, 100
3, 82560, Note_on_c, 1, 61, 80
3, 82940, Note_off_c, 1, 61, 100
3, 83328, Note_on_c, 1, 53, 80
3, 83328, Note_on_c, 1, 62, 80
3, 83708, Note_off_c, 1, 53, 100
3, 83708, Note_off_c, 1, 62, 100
3, 84096, Note_on_c, 1, 82, 80
3, 84476, Note_off_c, 1, 82, 100
3, 84864, Note_on_c, 1, 86, 80
3, 85244, Note_off_c, 1, 86, 100
3, 85248, Note_on_c, 1, 87, 120
3, 85628, Note_off_c, 1, 87, 100
3, 86016, Note_on_c, 1, 39, 120
3, 86400, Note_on_c, 1, 54, 120
3, 86780, Note_off_c, 1, 39, 100
3, 86780, Note_off_c, 1, 54, 100
3, 87168, Note_on_c, 1, 48, 120
3, 87168, Note_on_c, 1, 36, 120
3, 87168, Note_on_c, 1, 44, 120
3, 87548, Note_off_c, 1, 36, 100
3, 87548, Note_off_c, 1, 44, 100
3, 87932, Note_off_c, 1, 48, 64
3, 87936, Note_on_c, 1, 37, 120
3, 87936, Note_on_c, 1, 44, 120
3, 87936, Note_on_c, 1, 49, 120
3, 88316, Note_off_c, 1, 37, 100
3, 88316, Note_off_c, 1, 44, 100
3, 88316, Note_off_c, 1, 49, 100
3, 88320, Note_on_c, 1, 37, 120
3, 88700, Note_off_c, 1, 37, 100
3, 88704, Note_on_c, 1, 53, 120
3, 89084, Note_off_c, 1, 53, 100
3, 89472, Note_on_c, 1, 56, 97
3, 89852, Note_off_c, 1, 56, 100
3, 90240, Note_on_c, 1, 53, 80
3, 90620, Note_off_c, 1, 53, 100
3, 91008, Note_on_c, 1, 56, 80
3, 91388, Note_off_c, 1, 56, 100
3, 91776, Note_on_c, 1, 60, 80
3, 92156, Note_off_c, 1, 60, 100
3, 92544, Note_on_c, 1, 75, 80
3, 92924, Note_off_c, 1, 75, 100
3, 93312, Note_on_c, 1, 84, 80
3, 93692, Note_off_c, 1, 84, 100
3, 93696, Note_on_c, 1, 85, 80
3, 94076, Note_off_c, 1, 85, 100
3, 94464, Note_on_c, 1, 37, 80
3, 94848, Note_on_c, 1, 53, 80
3, 95228, Note_off_c, 1, 37, 100
3, 95228, Note_off_c, 1, 53, 100
3, 95616, Note_on_c, 1, 56, 80
3, 95996, Note_off_c, 1, 56, 100
3, 96384, Note_on_c, 1, 53, 80
3, 96764, Note_off_c, 1, 53, 100
3, 97152, Note_on_c, 1, 56, 79
3, 97532, Note_off_c, 1, 56, 100
3, 97920, Note_on_c, 1, 60, 77
3, 98300, Note_off_c, 1, 60, 100
3, 98688, Note_on_c, 1, 75, 75
3, 99068, Note_off_c, 1, 75, 100
3, 99456, Note_on_c, 1, 84, 73
3, 99836, Note_off_c, 1, 84, 100
3, 100224, Note_on_c, 1, 85, 71
3, 100604, Note_off_c, 1, 85, 100
3, 100608, Note_on_c, 1, 53, 70
3, 100796, Note_off_c, 1, 53, 100
3, 100800, Note_on_c, 1, 48, 70
3, 100988, Note_off_c, 1, 48, 100
3, 100992, Note_on_c, 1, 51, 70
3, 101180, Note_off_c, 1, 51, 100
3, 101184, Note_on_c, 1, 49, 70
3, 101372, Note_off_c, 1, 49, 100
3, 102144, Note_on_c, 1, 65, 70
3, 102332, Note_off_c, 1, 65, 100
3, 102336, Note_on_c, 1, 60, 70
3, 102524, Note_off_c, 1, 60, 100
3, 102528, Note_on_c, 1, 63, 70
3, 102716, Note_off_c, 1, 63, 100
3, 102720, Note_on_c, 1, 61, 70
3, 102908, Note_off_c, 1, 61, 100
3, 105216, Note_on_c, 1, 41, 80
3, 105216, Note_on_c, 1, 53, 80
3, 105596, Note_off_c, 1, 41, 100
3, 105596, Note_off_c, 1, 53, 100
3, 105600, Note_on_c, 1, 43, 80
3, 105600, Note_on_c, 1, 55, 80
3, 105980, Note_off_c, 1, 43, 100
3, 105980, Note_off_c, 1, 55, 100
3, 105984, Note_on_c, 1, 44, 80
3, 105984, Note_on_c, 1, 56, 80
3, 106364, Note_off_c, 1, 44, 100
3, 106364, Note_off_c, 1, 56, 100
3, 106368, Note_on_c, 1, 46, 80
3, 106368, Note_on_c, 1, 58, 80
3, 106748, Note_off_c, 1, 46, 100
3, 106748, Note_off_c, 1, 58, 100
3, 106752, Note_on_c, 1, 47, 80
3, 106752, Note_on_c, 1, 59, 80
3, 107132, Note_off_c, 1, 47, 100
3, 107132, Note_off_c, 1, 59, 100
3, 107136, Note_on_c, 1, 47, 80
3, 107136, Note_on_c, 1, 59, 80
3, 107516, Note_off_c, 1, 47, 100
3, 107516, Note_off_c, 1, 59, 100
3, 107520, Note_on_c, 1, 48, 80
3, 107520, Note_on_c, 1, 60, 80
3, 108284, Note_off_c, 1, 48, 100
3, 108284, Note_off_c, 1, 60, 100
3, 108288, Note_on_c, 1, 36, 120
3, 108288, Note_on_c, 1, 48, 120
3, 108668, Note_off_c, 1, 36, 100
3, 108668, Note_off_c, 1, 48, 100
3, 108672, Note_on_c, 1, 40, 120
3, 108672, Note_on_c, 1, 52, 120
3, 109052, Note_off_c, 1, 40, 100
3, 109052, Note_off_c, 1, 52, 100
3, 109056, Note_on_c, 1, 43, 120
3, 109056, Note_on_c, 1, 55, 120
3, 109436, Note_off_c, 1, 43, 100
3, 109436, Note_off_c, 1, 55, 100
3, 109440, Note_on_c, 1, 48, 120
3, 109440, Note_on_c, 1, 60, 120
3, 109820, Note_off_c, 1, 48, 100
3, 109820, Note_off_c, 1, 60, 100
3, 109824, Note_on_c, 1, 43, 120
3, 109824, Note_on_c, 1, 55, 120
3, 110204, Note_off_c, 1, 43, 100
3, 110204, Note_off_c, 1, 55, 100
3, 110208, Note_on_c, 1, 31, 120
3, 110208, Note_on_c, 1, 43, 120
3, 110588, Note_off_c, 1, 31, 100
3, 110588, Note_off_c, 1, 43, 100
3, 110592, Note_on_c, 1, 36, 120
3, 110592, Note_on_c, 1, 48, 120
3, 111356, Note_off_c, 1, 36, 100
3, 111356, Note_off_c, 1, 48, 100
3, 111360, Note_on_c, 1, 41, 80
3, 111360, Note_on_c, 1, 53, 80
3, 111740, Note_off_c, 1, 41, 100
3, 111740, Note_off_c, 1, 53, 100
3, 111744, Note_on_c, 1, 43, 80
3, 111744, Note_on_c, 1, 55, 80
3, 112124, Note_off_c, 1, 43, 100
3, 112124, Note_off_c, 1, 55, 100
3, 112128, Note_on_c, 1, 44, 80
3, 112128, Note_on_c, 1, 56, 80
3, 112508, Note_off_c, 1, 44, 100
3, 112508, Note_off_c, 1, 56, 100
3, 112512, Note_on_c, 1, 46, 80
3, 112512, Note_on_c, 1, 58, 80
3, 112892, Note_off_c, 1, 46, 100
3, 112892, Note_off_c, 1, 58, 100
3, 112896, Note_on_c, 1, 47, 80
3, 112896, Note_on_c, 1, 59, 80
3, 113276, Note_off_c, 1, 47, 100
3, 113276, Note_off_c, 1, 59, 100
3, 113280, Note_on_c, 1, 47, 80
3, 113280, Note_on_c, 1, 59, 80
3, 113660, Note_off_c, 1, 47, 100
3, 113660, Note_off_c, 1, 59, 100
3, 113664, Note_on_c, 1, 48, 80
3, 113664, Note_on_c, 1, 60, 80
3, 114428, Note_off_c, 1, 48, 100
3, 114428, Note_off_c, 1, 60, 100
3, 114432, Note_on_c, 1, 36, 120
3, 114432, Note_on_c, 1, 48, 120
3, 114812, Note_off_c, 1, 36, 100
3, 114812, Note_off_c, 1, 48, 100
3, 114816, Note_on_c, 1, 40, 120
3, 114816, Note_on_c, 1, 52, 120
3, 115196, Note_off_c, 1, 40, 100
3, 115196, Note_off_c, 1, 52, 100
3, 115200, Note_on_c, 1, 43, 120
3, 115200, Note_on_c, 1, 55, 120
3, 115580, Note_off_c, 1, 43, 100
3, 115580, Note_off_c, 1, 55, 100
3, 115584, Note_on_c, 1, 48, 120
3, 115584, Note_on_c, 1, 60, 120
3, 115964, Note_off_c, 1, 48, 100
3, 115964, Note_off_c, 1, 60, 100
3, 115968, Note_on_c, 1, 43, 120
3, 115968, Note_on_c, 1, 55, 120
3, 116348, Note_off_c, 1, 43, 100
3, 116348, Note_off_c, 1, 55, 100
3, 116352, Note_on_c, 1, 31, 120
3, 116352, Note_on_c, 1, 43, 120
3, 116732, Note_off_c, 1, 31, 100
3, 116732, Note_off_c, 1, 43, 100
3, 116736, Note_on_c, 1, 36, 120
3, 116736, Note_on_c, 1, 48, 120
3, 117500, Note_off_c, 1, 36, 100
3, 117500, Note_off_c, 1, 48, 100
3, 117504, Note_on_c, 1, 36, 120
3, 117504, Note_on_c, 1, 48, 120
3, 117884, Note_off_c, 1, 36, 100
3, 117884, Note_off_c, 1, 48, 100
3, 117888, Note_on_c, 1, 35, 120
3, 117888, Note_on_c, 1, 47, 120
3, 118268, Note_off_c, 1, 35, 100
3, 118268, Note_off_c, 1, 47, 100
3, 118272, Note_on_c, 1, 36, 120
3, 118272, Note_on_c, 1, 48, 120
3, 119420, Note_off_c, 1, 36, 64
3, 119420, Note_off_c, 1, 48, 64
3, 119424, Note_on_c, 1, 37, 120
3, 119424, Note_on_c, 1, 49, 120
3, 120188, Note_off_c, 1, 37, 64
3, 120188, Note_off_c, 1, 49, 64
3, 120192, Note_on_c, 1, 38, 120
3, 120192, Note_on_c, 1, 50, 120
3, 120956, Note_off_c, 1, 38, 64
3, 120956, Note_off_c, 1, 50, 64
3, 120960, Note_on_c, 1, 39, 120
3, 120960, Note_on_c, 1, 51, 120
3, 121724, Note_off_c, 1, 39, 64
3, 121724, Note_off_c, 1, 51, 64
3, 121728, Note_on_c, 1, 32, 120
3, 121728, Note_on_c, 1, 44, 120
3, 122108, Note_off_c, 1, 32, 100
3, 122108, Note_off_c, 1, 44, 100
3, 122112, Note_on_c, 1, 37, 120
3, 122112, Note_on_c, 1, 49, 120
3, 122492, Note_off_c, 1, 37, 100
3, 122492, Note_off_c, 1, 49, 100
3, 122496, Note_on_c, 1, 51, 120
3, 122496, Note_on_c, 1, 39, 120
3, 122876, Note_off_c, 1, 51, 100
3, 122876, Note_off_c, 1, 39, 100
3, 122880, Note_on_c, 1, 44, 120
3, 122880, Note_on_c, 1, 56, 120
3, 123644, Note_off_c, 1, 44, 100
3, 123644, Note_off_c, 1, 56, 100
3, 124032, Note_on_c, 1, 56, 80
3, 124032, Note_on_c, 1, 60, 80
3, 124412, Note_off_c, 1, 56, 100
3, 124412, Note_off_c, 1, 60, 100
3, 124416, Note_on_c, 1, 58, 80
3, 124416, Note_on_c, 1, 61, 80
3, 124796, Note_off_c, 1, 58, 100
3, 124796, Note_off_c, 1, 61, 100
3, 125568, Note_on_c, 1, 56, 80
3, 125568, Note_on_c, 1, 60, 80
3, 125948, Note_off_c, 1, 56, 100
3, 125948, Note_off_c, 1, 60, 100
3, 125952, Note_on_c, 1, 58, 80
3, 125952, Note_on_c, 1, 61, 80
3, 126332, Note_off_c, 1, 58, 100
3, 126332, Note_off_c, 1, 61, 100
3, 127104, Note_on_c, 1, 32, 80
3, 127104, Note_on_c, 1, 44, 80
3, 127484, Note_off_c, 1, 32, 100
3, 127484, Note_off_c, 1, 44, 100
3, 127488, Note_on_c, 1, 34, 80
3, 127488, Note_on_c, 1, 46, 80
3, 127868, Note_off_c, 1, 34, 100
3, 127868, Note_off_c, 1, 46, 100
3, 127872, Note_on_c, 1, 36, 80
3, 127872, Note_on_c, 1, 48, 80
3, 128252, Note_off_c, 1, 36, 100
3, 128252, Note_off_c, 1, 48, 100
3, 128256, Note_on_c, 1, 37, 80
3, 128256, Note_on_c, 1, 49, 80
3, 128636, Note_off_c, 1, 37, 100
3, 128636, Note_off_c, 1, 49, 100
3, 128640, Note_on_c, 1, 50, 80
3, 128640, Note_on_c, 1, 38, 80
3, 129020, Note_off_c, 1, 50, 100
3, 129020, Note_off_c, 1, 38, 100
3, 129024, Note_on_c, 1, 39, 80
3, 129024, Note_on_c, 1, 51, 80
3, 129404, Note_off_c, 1, 39, 100
3, 129404, Note_off_c, 1, 51, 100
3, 129408, Note_on_c, 1, 40, 80
3, 129408, Note_on_c, 1, 52, 80
3, 129788, Note_off_c, 1, 40, 100
3, 129788, Note_off_c, 1, 52, 100
3, 130176, Note_on_c, 1, 53, 80
3, 130176, Note_on_c, 1, 56, 80
3, 130556, Note_off_c, 1, 53, 100
3, 130556, Note_off_c, 1, 56, 100
3, 130560, Note_on_c, 1, 55, 80
3, 130560, Note_on_c, 1, 58, 80
3, 130940, Note_off_c, 1, 55, 100
3, 130940, Note_off_c, 1, 58, 100
3, 131712, Note_on_c, 1, 53, 80
3, 131712, Note_on_c, 1, 56, 80
3, 132092, Note_off_c, 1, 53, 100
3, 132092, Note_off_c, 1, 56, 100
3, 132096, Note_on_c, 1, 55, 80
3, 132096, Note_on_c, 1, 58, 80
3, 132476, Note_off_c, 1, 55, 100
3, 132476, Note_off_c, 1, 58, 100
3, 133248, Note_on_c, 1, 41, 80
3, 133248, Note_on_c, 1, 53, 80
3, 133628, Note_off_c, 1, 41, 100
3, 133628, Note_off_c, 1, 53, 100
3, 133632, Note_on_c, 1, 43, 80
3, 133632, Note_on_c, 1, 55, 80
3, 134012, Note_off_c, 1, 43, 100
3, 134012, Note_off_c, 1, 55, 100
3, 134016, Note_on_c, 1, 44, 80
3, 134016, Note_on_c, 1, 56, 80
3, 134396, Note_off_c, 1, 44, 100
3, 134396, Note_off_c, 1, 56, 100
3, 134400, Note_on_c, 1, 46, 80
3, 134400, Note_on_c, 1, 58, 80
3, 134780, Note_off_c, 1, 46, 100
3, 134780, Note_off_c, 1, 58, 100
3, 134784, Note_on_c, 1, 47, 80
3, 134784, Note_on_c, 1, 59, 80
3, 135164, Note_off_c, 1, 47, 100
3, 135164, Note_off_c, 1, 59, 100
3, 135168, Note_on_c, 1, 48, 80
3, 135168, Note_on_c, 1, 60, 80
3, 135932, Note_off_c, 1, 48, 100
3, 135932, Note_off_c, 1, 60, 100
3, 135936, Note_on_c, 1, 44, 80
3, 135936, Note_on_c, 1, 56, 80
3, 136700, Note_off_c, 1, 44, 100
3, 136700, Note_off_c, 1, 56, 100
3, 136704, Note_on_c, 1, 46, 80
3, 136704, Note_on_c, 1, 43, 80
3, 137084, Note_off_c, 1, 46, 100
3, 137088, Note_on_c, 1, 58, 80
3, 137468, Note_off_c, 1, 43, 100
3, 137468, Note_off_c, 1, 58, 100
3, 137472, Note_on_c, 1, 56, 80
3, 137472, Note_on_c, 1, 48, 80
3, 137852, Note_off_c, 1, 56, 100
3, 137856, Note_on_c, 1, 55, 80
3, 138236, Note_off_c, 1, 48, 100
3, 138236, Note_off_c, 1, 55, 100
3, 138240, Note_on_c, 1, 49, 120
3, 138240, Note_on_c, 1, 53, 120
3, 138620, Note_off_c, 1, 49, 100
3, 138620, Note_off_c, 1, 53, 100
3, 138624, Note_on_c, 1, 46, 120
3, 138624, Note_on_c, 1, 53, 120
3, 139004, Note_off_c, 1, 46, 100
3, 139004, Note_off_c, 1, 53, 100
3, 140544, Note_on_c, 1, 48, 120
3, 140544, Note_on_c, 1, 53, 120
3, 140924, Note_off_c, 1, 48, 100
3, 140924, Note_off_c, 1, 53, 100
3, 140928, Note_on_c, 1, 48, 120
3, 140928, Note_on_c, 1, 52, 120
3, 141308, Note_off_c, 1, 48, 100
3, 141308, Note_off_c, 1, 52, 100
3, 141312, Note_on_c, 1, 41, 120
3, 141312, Note_on_c, 1, 53, 120
3, 141692, Note_off_c, 1, 41, 100
3, 141692, Note_off_c, 1, 53, 100
3, 141696, Note_on_c, 1, 36, 120
3, 141696, Note_on_c, 1, 48, 120
3, 142460, Note_off_c, 1, 36, 64
3, 142460, Note_off_c, 1, 48, 64
3, 142464, Note_on_c, 1, 35, 120
3, 142464, Note_on_c, 1, 47, 120
3, 142844, Note_off_c, 1, 35, 100
3, 142844, Note_off_c, 1, 47, 100
3, 142848, Note_on_c, 1, 36, 120
3, 142848, Note_on_c, 1, 48, 120
3, 143996, Note_off_c, 1, 36, 64
3, 143996, Note_off_c, 1, 48, 64
3, 144000, Note_on_c, 1, 37, 120
3, 144000, Note_on_c, 1, 49, 120
3, 144764, Note_off_c, 1, 37, 64
3, 144764, Note_off_c, 1, 49, 64
3, 144768, Note_on_c, 1, 38, 120
3, 144768, Note_on_c, 1, 50, 120
3, 145532, Note_off_c, 1, 38, 64
3, 145532, Note_off_c, 1, 50, 64
3, 145536, Note_on_c, 1, 39, 120
3, 145536, Note_on_c, 1, 51, 120
3, 146300, Note_off_c, 1, 39, 64
3, 146300, Note_off_c, 1, 51, 64
3, 146304, Note_on_c, 1, 32, 120
3, 146304, Note_on_c, 1, 44, 120
3, 146684, Note_off_c, 1, 32, 100
3, 146684, Note_off_c, 1, 44, 100
3, 146688, Note_on_c, 1, 37, 120
3, 146688, Note_on_c, 1, 49, 120
3, 147068, Note_off_c, 1, 37, 100
3, 147068, Note_off_c, 1, 49, 100
3, 147072, Note_on_c, 1, 51, 120
3, 147072, Note_on_c, 1, 39, 120
3, 147452, Note_off_c, 1, 51, 100
3, 147452, Note_off_c, 1, 39, 100
3, 147456, Note_on_c, 1, 44, 120
3, 147456, Note_on_c, 1, 56, 120
3, 148220, Note_off_c, 1, 44, 100
3, 148220, Note_off_c, 1, 56, 100
3, 148608, Note_on_c, 1, 56, 80
3, 148608, Note_on_c, 1, 60, 80
3, 148988, Note_off_c, 1, 56, 100
3, 148988, Note_off_c, 1, 60, 100
3, 148992, Note_on_c, 1, 58, 80
3, 148992, Note_on_c, 1, 61, 80
3, 149372, Note_off_c, 1, 58, 100
3, 149372, Note_off_c, 1, 61, 100
3, 150144, Note_on_c, 1, 56, 80
3, 150144, Note_on_c, 1, 60, 80
3, 150524, Note_off_c, 1, 56, 100
3, 150524, Note_off_c, 1, 60, 100
3, 150528, Note_on_c, 1, 58, 80
3, 150528, Note_on_c, 1, 61, 80
3, 150908, Note_off_c, 1, 58, 100
3, 150908, Note_off_c, 1, 61, 100
3, 151680, Note_on_c, 1, 32, 80
3, 151680, Note_on_c, 1, 44, 80
3, 152060, Note_off_c, 1, 32, 100
3, 152060, Note_off_c, 1, 44, 100
3, 152064, Note_on_c, 1, 34, 80
3, 152064, Note_on_c, 1, 46, 80
3, 152444, Note_off_c, 1, 34, 100
3, 152444, Note_off_c, 1, 46, 100
3, 152448, Note_on_c, 1, 36, 80
3, 152448, Note_on_c, 1, 48, 80
3, 152828, Note_off_c, 1, 36, 100
3, 152828, Note_off_c, 1, 48, 100
3, 152832, Note_on_c, 1, 37, 80
3, 152832, Note_on_c, 1, 49, 80
3, 153212, Note_off_c, 1, 37, 100
3, 153212, Note_off_c, 1, 49, 100
3, 153216, Note_on_c, 1, 50, 80
3, 153216, Note_on_c, 1, 38, 80
3, 153596, Note_off_c, 1, 50, 100
3, 153596, Note_off_c, 1, 38, 100
3, 153600, Note_on_c, 1, 39, 80
3, 153600, Note_on_c, 1, 51, 80
3, 153980, Note_off_c, 1, 39, 100
3, 153980, Note_off_c, 1, 51, 100
3, 153984, Note_on_c, 1, 40, 80
3, 153984, Note_on_c, 1, 52, 80
3, 154364, Note_off_c, 1, 40, 100
3, 154364, Note_off_c, 1, 52, 100
3, 154752, Note_on_c, 1, 53, 80
3, 154752, Note_on_c, 1, 56, 80
3, 155132, Note_off_c, 1, 53, 100
3, 155132, Note_off_c, 1, 56, 100
3, 155136, Note_on_c, 1, 55, 80
3, 155136, Note_on_c, 1, 58, 80
3, 155516, Note_off_c, 1, 55, 100
3, 155516, Note_off_c, 1, 58, 100
3, 156288, Note_on_c, 1, 53, 80
3, 156288, Note_on_c, 1, 56, 80
3, 156668, Note_off_c, 1, 53, 100
3, 156668, Note_off_c, 1, 56, 100
3, 156672, Note_on_c, 1, 55, 80
3, 156672, Note_on_c, 1, 58, 80
3, 157052, Note_off_c, 1, 55, 100
3, 157052, Note_off_c, 1, 58, 100
3, 157824, Note_on_c, 1, 41, 80
3, 157824, Note_on_c, 1, 53, 80
3, 158204, Note_off_c, 1, 41, 100
3, 158204, Note_off_c, 1, 53, 100
3, 158208, Note_on_c, 1, 43, 80
3, 158208, Note_on_c, 1, 55, 80
3, 158588, Note_off_c, 1, 43, 100
3, 158588, Note_off_c, 1, 55, 100
3, 158592, Note_on_c, 1, 44, 80
3, 158592, Note_on_c, 1, 56, 80
3, 158972, Note_off_c, 1, 44, 100
3, 158972, Note_off_c, 1, 56, 100
3, 158976, Note_on_c, 1, 46, 80
3, 158976, Note_on_c, 1, 58, 80
3, 159356, Note_off_c, 1, 46, 100
3, 159356, Note_off_c, 1, 58, 100
3, 159360, Note_on_c, 1, 47, 80
3, 159360, Note_on_c, 1, 59, 80
3, 159740, Note_off_c, 1, 47, 100
3, 159740, Note_off_c, 1, 59, 100
3, 159744, Note_on_c, 1, 48, 80
3, 159744, Note_on_c, 1, 60, 80
3, 160508, Note_off_c, 1, 48, 100
3, 160508, Note_off_c, 1, 60, 100
3, 160512, Note_on_c, 1, 44, 80
3, 160512, Note_on_c, 1, 56, 80
3, 161276, Note_off_c, 1, 44, 100
3, 161276, Note_off_c, 1, 56, 100
3, 161280, Note_on_c, 1, 46, 80
3, 161280, Note_on_c, 1, 43, 80
3, 161660, Note_off_c, 1, 46, 100
3, 161664, Note_on_c, 1, 58, 80
3, 162044, Note_off_c, 1, 43, 100
3, 162044, Note_off_c, 1, 58, 100
3, 162048, Note_on_c, 1, 56, 80
3, 162048, Note_on_c, 1, 48, 80
3, 162428, Note_off_c, 1, 56, 100
3, 162432, Note_on_c, 1, 55, 80
3, 162812, Note_off_c, 1, 48, 100
3, 162812, Note_off_c, 1, 55, 100
3, 162816, Note_on_c, 1, 49, 120
3, 162816, Note_on_c, 1, 53, 120
3, 163196, Note_off_c, 1, 49, 100
3, 163196, Note_off_c, 1, 53, 100
3, 163200, Note_on_c, 1, 46, 120
3, 163200, Note_on_c, 1, 53, 120
3, 163580, Note_off_c, 1, 46, 100
3, 163580, Note_off_c, 1, 53, 100
3, 165120, Note_on_c, 1, 48, 120
3, 165120, Note_on_c, 1, 53, 120
3, 165500, Note_off_c, 1, 48, 100
3, 165500, Note_off_c, 1, 53, 100
3, 165504, Note_on_c, 1, 48, 120
3, 165504, Note_on_c, 1, 52, 120
3, 165884, Note_off_c, 1, 48, 100
3, 165884, Note_off_c, 1, 52, 100
3, 165888, Note_on_c, 1, 41, 120
3, 165888, Note_on_c, 1, 53, 120
3, 166268, Note_off_c, 1, 41, 100
3, 166268, Note_off_c, 1, 53, 100
3, 166656, Note_on_c, 1, 41, 120
3, 166656, Note_on_c, 1, 48, 120
3, 166656, Note_on_c, 1, 53, 120
3, 167420, Note_off_c, 1, 41, 100
3, 167420, Note_off_c, 1, 48, 100
3, 167420, Note_off_c, 1, 53, 100
3, 168192, Note_on_c, 1, 40, 120
3, 168192, Note_on_c, 1, 48, 120
3, 168192, Note_on_c, 1, 52, 120
3, 168956, Note_off_c, 1, 40, 100
3, 168956, Note_off_c, 1, 48, 100
3, 168956, Note_off_c, 1, 52, 100
3, 169728, Note_on_c, 1, 41, 120
3, 169728, Note_on_c, 1, 48, 120
3, 169728, Note_on_c, 1, 53, 120
3, 170492, Note_off_c, 1, 41, 100
3, 170492, Note_off_c, 1, 48, 100
3, 170492, Note_off_c, 1, 53, 100
3, 171264, Note_on_c, 1, 34, 120
3, 171264, Note_on_c, 1, 46, 120
3, 172028, Note_off_c, 1, 34, 100
3, 172028, Note_off_c, 1, 46, 100
3, 172800, Note_on_c, 1, 36, 110
3, 172800, Note_on_c, 1, 48, 110
3, 173564, Note_off_c, 1, 36, 100
3, 173564, Note_off_c, 1, 48, 100
3, 174336, Note_on_c, 1, 36, 90
3, 174336, Note_on_c, 1, 48, 90
3, 175100, Note_off_c, 1, 36, 100
3, 175100, Note_off_c, 1, 48, 100
3, 175104, Control_c, 1, 64, 127
3, 175104, Note_on_c, 1, 29, 80
3, 175296, Note_on_c, 1, 36, 80
3, 175488, Note_on_c, 1, 33, 80
3, 175640, Note_off_c, 1, 29, 100
3, 175680, Note_on_c, 1, 41, 80
3, 175832, Note_off_c, 1, 36, 100
3, 175872, Note_on_c, 1, 36, 80
3, 176024, Note_off_c, 1, 33, 64
3, 176064, Note_on_c, 1, 45, 80
3, 176216, Note_off_c, 1, 41, 64
3, 176256, Note_on_c, 1, 41, 80
3, 176408, Note_off_c, 1, 36, 100
3, 176448, Note_on_c, 1, 48, 80
3, 176600, Note_off_c, 1, 45, 100
3, 176640, Note_on_c, 1, 45, 80
3, 176792, Note_off_c, 1, 41, 64
3, 176832, Note_on_c, 1, 53, 80
3, 177020, Note_off_c, 1, 48, 64
3, 177024, Note_on_c, 1, 48, 80
3, 177212, Note_off_c, 1, 45, 100
3, 177216, Note_on_c, 1, 57, 80
3, 177404, Note_off_c, 1, 53, 100
3, 177408, Note_on_c, 1, 53, 80
3, 177596, Note_off_c, 1, 48, 64
3, 177600, Note_on_c, 1, 60, 80
3, 177788, Note_off_c, 1, 57, 64
3, 177792, Note_on_c, 1, 57, 80
3, 177980, Note_off_c, 1, 53, 100
3, 177984, Note_on_c, 1, 65, 80
3, 178172, Note_off_c, 1, 60, 100
3, 178364, Note_off_c, 1, 57, 64
3, 180856, Control_c, 1, 64, 0
3, 180860, Note_off_c, 1, 65, 64
3, 180860, End_track
0, 0, End_of_file
