0, 0, Header, 1, 3, 384
1, 0, Start_track
1, 0, Title_t, "L.v.Beethoven 1mov - Piano Sonata No.32 in c minor Op.111\000"
1, 0, Copyright_t, "Copyright(C) 1995-2009, Suzuki Software\000"
1, 0, Sequencer_specific, 9, 67, 123, 0, 88, 70, 48, 50, 0, 1
1, 0, Text_t, "XFhd:2000/11/03:JP:Classical::::L.v.Beethoven:::Kaoru Suzuki\000"
1, 0, Text_t, "XFln:JP:\203s\203A\203m\203\\\203i\203^\221æ32\224Ô\203n\222Z\222²\215ì\225i111\201`\221æ1\212y\217Í:L.v.\203x\201[\203g\201[\203\224\203F\203\223:::\227é\202¿\202á\202ñ:\227é\202¿\202á\202ñ\000"
1, 0, Time_signature, 1, 2, 96, 8
1, 0, Sequencer_specific, 3, 0, 0, 65
1, 0, Sequencer_specific, 5, 0, 0, 119, 14, 0
1, 0, Tempo, 1200000
1, 384, Time_signature, 4, 2, 96, 8
1, 14976, Tempo, 1250000
1, 15168, Tempo, 1333333
1, 15360, Tempo, 1395348
1, 15552, Tempo, 1500000
1, 15744, Tempo, 1276595
1, 18048, Tempo, 1333333
1, 18432, Tempo, 1395348
1, 19008, Tempo, 1276595
1, 19776, Tempo, 1333333
1, 19968, Tempo, 1395348
1, 20160, Tempo, 1333333
1, 20544, Tempo, 1276595
1, 21504, Tempo, 1333333
1, 21696, Tempo, 1395348
1, 23424, Tempo, 750000
1, 24960, Tempo, 400000
1, 28032, Tempo, 500000
1, 29952, Tempo, 545454
1, 31872, Tempo, 500000
1, 33024, Tempo, 545454
1, 34176, Tempo, 500000
1, 36864, Tempo, 444444
1, 44160, Tempo, 461538
1, 44544, Tempo, 480000
1, 44736, Tempo, 500000
1, 44928, Tempo, 487804
1, 45120, Tempo, 472440
1, 46464, Tempo, 487804
1, 47232, Tempo, 500000
1, 47616, Tempo, 521739
1, 47808, Tempo, 555555
1, 48384, Tempo, 588235
1, 48768, Tempo, 645161
1, 48960, Tempo, 714285
1, 49056, Tempo, 833333
1, 49152, Tempo, 1000000
1, 49344, Tempo, 545454
1, 49536, Tempo, 500000
1, 52992, Tempo, 545454
1, 53376, Tempo, 600000
1, 53760, Tempo, 666666
1, 54912, Tempo, 521739
1, 55104, Tempo, 480000
1, 76416, Tempo, 500000
1, 76608, Tempo, 521739
1, 76800, Tempo, 545454
1, 76992, Tempo, 600000
1, 77088, Tempo, 750000
1, 77952, Tempo, 600000
1, 80160, Tempo, 750000
1, 81024, Tempo, 1000000
1, 81408, Tempo, 600000
1, 81792, Tempo, 545454
1, 83232, Tempo, 666666
1, 84480, Tempo, 1000000
1, 86016, Tempo, 480000
1, 126336, Tempo, 500000
1, 126912, Tempo, 521739
1, 127104, Tempo, 545454
1, 128256, Tempo, 571428
1, 128640, Tempo, 600000
1, 128832, Tempo, 666666
1, 128928, Tempo, 857142
1, 129024, Tempo, 1000000
1, 129216, Tempo, 600000
1, 129408, Tempo, 500000
1, 132864, Tempo, 571428
1, 133248, Tempo, 666666
1, 134784, Tempo, 480000
1, 155904, Tempo, 500000
1, 156288, Tempo, 521739
1, 156672, Tempo, 545454
1, 156864, Tempo, 600000
1, 156960, Tempo, 750000
1, 157056, Tempo, 600000
1, 159360, Tempo, 666666
1, 160032, Tempo, 750000
1, 160896, Tempo, 1500000
1, 160992, Tempo, 1200000
1, 161088, Tempo, 1000000
1, 161280, Tempo, 600000
1, 163200, Tempo, 666666
1, 164352, Tempo, 857142
1, 165888, Tempo, 480000
1, 211968, Tempo, 500000
1, 212160, Tempo, 545454
1, 212352, Tempo, 521739
1, 212544, Tempo, 480000
1, 224640, Tempo, 500000
1, 225024, Tempo, 545454
1, 225408, Tempo, 600000
1, 225792, Tempo, 666666
1, 227136, Tempo, 750000
1, 227232, Tempo, 857142
1, 227328, Tempo, 1000000
1, 227520, Tempo, 600000
1, 227712, Tempo, 545454
1, 232320, Tempo, 600000
1, 233856, Tempo, 480000
1, 257280, Tempo, 500000
1, 257664, Tempo, 521739
1, 258048, Tempo, 545454
1, 258240, Tempo, 600000
1, 258432, Tempo, 545454
1, 259968, Tempo, 600000
1, 260736, Tempo, 666666
1, 261408, Tempo, 750000
1, 262272, Tempo, 1500000
1, 262368, Tempo, 1200000
1, 262464, Tempo, 1000000
1, 262560, Tempo, 857142
1, 263040, Tempo, 600000
1, 265728, Tempo, 857142
1, 267264, Tempo, 545454
1, 270144, Tempo, 571428
1, 270336, Tempo, 600000
1, 270528, Tempo, 857142
1, 270720, Tempo, 545454
1, 275328, Tempo, 600000
1, 275712, Tempo, 666666
1, 276096, Tempo, 750000
1, 276288, Tempo, 857142
1, 276480, Tempo, 1000000
1, 276768, Tempo, 666666
1, 276864, Tempo, 600000
1, 277056, Tempo, 571428
1, 277824, Tempo, 545454
1, 278400, Tempo, 521739
1, 279936, Tempo, 500000
1, 281472, Tempo, 480000
1, 282432, Tempo, 500000
1, 282624, Tempo, 521739
1, 282816, Tempo, 545454
1, 283008, Tempo, 521739
1, 283200, Tempo, 500000
1, 283392, Tempo, 480000
1, 307584, Tempo, 500000
1, 308352, Tempo, 521739
1, 309120, Tempo, 545454
1, 309888, Tempo, 600000
1, 310656, Tempo, 545454
1, 311040, Tempo, 521739
1, 311232, Tempo, 500000
1, 311424, Tempo, 480000
1, 313728, Tempo, 500000
1, 314112, Tempo, 521739
1, 314304, Tempo, 571428
1, 314496, Tempo, 521739
1, 314688, Tempo, 480000
1, 316800, Tempo, 500000
1, 317184, Tempo, 521739
1, 317376, Tempo, 571428
1, 317472, Tempo, 631578
1, 317568, Tempo, 521739
1, 317760, Tempo, 480000
1, 319680, Tempo, 545454
1, 321408, Tempo, 571428
1, 321792, Tempo, 600000
1, 322176, Tempo, 666666
1, 322560, Tempo, 857142
1, 322752, Tempo, 1000000
1, 322848, Tempo, 1500000
1, 322848, End_track
2, 0, Start_track
2, 0, Title_t, "Right"
2, 0, Control_c, 0, 0, 0
2, 0, Program_c, 0, 0
2, 0, Control_c, 0, 7, 100
2, 0, Control_c, 0, 10, 73
2, 0, Control_c, 0, 91, 127
2, 0, Key_signature, -3, "minor"
2, 720, Note_on_c, 0, 75, 110
2, 720, Note_on_c, 0, 72, 110
2, 720, Note_on_c, 0, 63, 110
2, 720, Note_on_c, 0, 69, 110
2, 764, Note_off_c, 0, 75, 100
2, 764, Note_off_c, 0, 72, 100
2, 764, Note_off_c, 0, 63, 100
2, 764, Note_off_c, 0, 69, 100
2, 768, Note_on_c, 0, 75, 110
2, 768, Note_on_c, 0, 72, 110
2, 768, Note_on_c, 0, 63, 110
2, 768, Note_on_c, 0, 69, 110
2, 1484, Note_off_c, 0, 75, 100
2, 1484, Note_off_c, 0, 72, 100
2, 1484, Note_off_c, 0, 63, 100
2, 1484, Note_off_c, 0, 69, 100
2, 1488, Note_on_c, 0, 72, 110
2, 1488, Note_on_c, 0, 69, 110
2, 1532, Note_off_c, 0, 72, 100
2, 1532, Note_off_c, 0, 69, 100
2, 1536, Note_on_c, 0, 72, 107
2, 1536, Note_on_c, 0, 69, 107
2, 1560, Note_on_c, 0, 74, 105
2, 1580, Note_off_c, 0, 72, 100
2, 1584, Note_on_c, 0, 72, 103
2, 1604, Note_off_c, 0, 74, 100
2, 1608, Note_on_c, 0, 74, 101
2, 1628, Note_off_c, 0, 72, 100
2, 1632, Note_on_c, 0, 72, 99
2, 1652, Note_off_c, 0, 74, 100
2, 1656, Note_on_c, 0, 74, 98
2, 1676, Note_off_c, 0, 72, 100
2, 1680, Note_on_c, 0, 72, 96
2, 1700, Note_off_c, 0, 74, 100
2, 1704, Note_on_c, 0, 74, 94
2, 1724, Note_off_c, 0, 72, 100
2, 1728, Note_on_c, 0, 72, 92
2, 1748, Note_off_c, 0, 74, 100
2, 1752, Note_on_c, 0, 74, 90
2, 1772, Note_off_c, 0, 72, 100
2, 1776, Note_on_c, 0, 72, 88
2, 1796, Note_off_c, 0, 74, 100
2, 1800, Note_on_c, 0, 74, 86
2, 1820, Note_off_c, 0, 72, 100
2, 1824, Note_on_c, 0, 71, 85
2, 1844, Note_off_c, 0, 74, 100
2, 1868, Note_off_c, 0, 71, 100
2, 1872, Note_on_c, 0, 72, 81
2, 1916, Note_off_c, 0, 69, 100
2, 1916, Note_off_c, 0, 72, 100
2, 1920, Note_on_c, 0, 71, 80
2, 1920, Note_on_c, 0, 67, 80
2, 2108, Note_off_c, 0, 71, 100
2, 2108, Note_off_c, 0, 67, 100
2, 2304, Note_on_c, 0, 72, 80
2, 2304, Note_on_c, 0, 67, 80
2, 2304, Note_on_c, 0, 63, 80
2, 2492, Note_off_c, 0, 72, 100
2, 2492, Note_off_c, 0, 67, 100
2, 2492, Note_off_c, 0, 63, 100
2, 2496, Control_c, 0, 64, 127
2, 2736, Note_on_c, 0, 74, 110
2, 2736, Note_on_c, 0, 67, 110
2, 2736, Note_on_c, 0, 62, 110
2, 2872, Control_c, 0, 64, 0
2, 2876, Note_off_c, 0, 74, 100
2, 2876, Note_off_c, 0, 67, 100
2, 2876, Note_off_c, 0, 62, 100
2, 3792, Note_on_c, 0, 80, 110
2, 3792, Note_on_c, 0, 77, 110
2, 3792, Note_on_c, 0, 74, 110
2, 3792, Note_on_c, 0, 68, 110
2, 3836, Note_off_c, 0, 80, 100
2, 3836, Note_off_c, 0, 77, 100
2, 3836, Note_off_c, 0, 74, 100
2, 3836, Note_off_c, 0, 68, 100
2, 3840, Note_on_c, 0, 80, 110
2, 3840, Note_on_c, 0, 77, 110
2, 3840, Note_on_c, 0, 68, 110
2, 3840, Note_on_c, 0, 74, 110
2, 4556, Note_off_c, 0, 80, 100
2, 4556, Note_off_c, 0, 77, 100
2, 4556, Note_off_c, 0, 68, 100
2, 4556, Note_off_c, 0, 74, 100
2, 4560, Note_on_c, 0, 77, 110
2, 4560, Note_on_c, 0, 74, 110
2, 4604, Note_off_c, 0, 77, 100
2, 4604, Note_off_c, 0, 74, 100
2, 4608, Note_on_c, 0, 77, 107
2, 4608, Note_on_c, 0, 74, 107
2, 4632, Note_on_c, 0, 79, 105
2, 4652, Note_off_c, 0, 77, 100
2, 4656, Note_on_c, 0, 77, 103
2, 4676, Note_off_c, 0, 79, 100
2, 4680, Note_on_c, 0, 79, 101
2, 4700, Note_off_c, 0, 77, 100
2, 4704, Note_on_c, 0, 77, 99
2, 4724, Note_off_c, 0, 79, 100
2, 4728, Note_on_c, 0, 79, 98
2, 4748, Note_off_c, 0, 77, 100
2, 4752, Note_on_c, 0, 77, 96
2, 4772, Note_off_c, 0, 79, 100
2, 4776, Note_on_c, 0, 79, 94
2, 4796, Note_off_c, 0, 77, 100
2, 4800, Note_on_c, 0, 77, 92
2, 4820, Note_off_c, 0, 79, 100
2, 4824, Note_on_c, 0, 79, 90
2, 4844, Note_off_c, 0, 77, 100
2, 4848, Note_on_c, 0, 77, 88
2, 4868, Note_off_c, 0, 79, 100
2, 4872, Note_on_c, 0, 79, 86
2, 4892, Note_off_c, 0, 77, 100
2, 4896, Note_on_c, 0, 76, 85
2, 4916, Note_off_c, 0, 79, 100
2, 4940, Note_off_c, 0, 76, 100
2, 4944, Note_on_c, 0, 77, 81
2, 4988, Note_off_c, 0, 74, 100
2, 4988, Note_off_c, 0, 77, 100
2, 4992, Note_on_c, 0, 76, 80
2, 4992, Note_on_c, 0, 67, 80
2, 5180, Note_off_c, 0, 76, 100
2, 5180, Note_off_c, 0, 67, 100
2, 5376, Note_on_c, 0, 77, 80
2, 5376, Note_on_c, 0, 72, 80
2, 5376, Note_on_c, 0, 65, 80
2, 5564, Note_off_c, 0, 77, 100
2, 5564, Note_off_c, 0, 72, 100
2, 5564, Note_off_c, 0, 65, 100
2, 5568, Control_c, 0, 64, 127
2, 5736, Note_on_c, 0, 67, 110
2, 5756, Note_off_c, 0, 67, 100
2, 5760, Note_on_c, 0, 72, 110
2, 5780, Note_off_c, 0, 72, 100
2, 5784, Note_on_c, 0, 76, 110
2, 5804, Note_off_c, 0, 76, 100
2, 5832, Note_on_c, 0, 79, 110
2, 5832, Note_on_c, 0, 72, 110
2, 5832, Note_on_c, 0, 67, 110
2, 5944, Control_c, 0, 64, 0
2, 6020, Note_off_c, 0, 79, 100
2, 6020, Note_off_c, 0, 72, 100
2, 6020, Note_off_c, 0, 67, 100
2, 6864, Note_on_c, 0, 85, 110
2, 6864, Note_on_c, 0, 82, 110
2, 6864, Note_on_c, 0, 77, 110
2, 6864, Note_on_c, 0, 73, 110
2, 6908, Note_off_c, 0, 85, 100
2, 6908, Note_off_c, 0, 82, 100
2, 6908, Note_off_c, 0, 77, 100
2, 6908, Note_off_c, 0, 73, 100
2, 6912, Note_on_c, 0, 85, 110
2, 6912, Note_on_c, 0, 82, 110
2, 6912, Note_on_c, 0, 77, 110
2, 6912, Note_on_c, 0, 73, 110
2, 7628, Note_off_c, 0, 85, 100
2, 7628, Note_off_c, 0, 82, 100
2, 7628, Note_off_c, 0, 77, 100
2, 7628, Note_off_c, 0, 73, 100
2, 7632, Note_on_c, 0, 73, 110
2, 7632, Note_on_c, 0, 82, 110
2, 7676, Note_off_c, 0, 73, 100
2, 7676, Note_off_c, 0, 82, 100
2, 7680, Note_on_c, 0, 73, 107
2, 7680, Note_on_c, 0, 82, 107
2, 7704, Note_on_c, 0, 84, 105
2, 7724, Note_off_c, 0, 82, 100
2, 7728, Note_on_c, 0, 82, 104
2, 7748, Note_off_c, 0, 84, 100
2, 7752, Note_on_c, 0, 84, 102
2, 7772, Note_off_c, 0, 82, 100
2, 7776, Note_on_c, 0, 82, 100
2, 7796, Note_off_c, 0, 84, 100
2, 7800, Note_on_c, 0, 84, 98
2, 7820, Note_off_c, 0, 82, 100
2, 7824, Note_on_c, 0, 82, 97
2, 7844, Note_off_c, 0, 84, 100
2, 7848, Note_on_c, 0, 84, 95
2, 7868, Note_off_c, 0, 82, 100
2, 7872, Note_on_c, 0, 82, 93
2, 7892, Note_off_c, 0, 84, 100
2, 7896, Note_on_c, 0, 84, 91
2, 7916, Note_off_c, 0, 82, 100
2, 7920, Note_on_c, 0, 82, 90
2, 7940, Note_off_c, 0, 84, 100
2, 7944, Note_on_c, 0, 84, 88
2, 7964, Note_off_c, 0, 82, 100
2, 7968, Note_on_c, 0, 82, 86
2, 7988, Note_off_c, 0, 84, 100
2, 7992, Note_on_c, 0, 84, 84
2, 8012, Note_off_c, 0, 82, 100
2, 8016, Note_on_c, 0, 81, 83
2, 8036, Note_off_c, 0, 84, 100
2, 8040, Note_on_c, 0, 82, 81
2, 8060, Note_off_c, 0, 73, 100
2, 8060, Note_off_c, 0, 81, 100
2, 8060, Note_off_c, 0, 82, 64
2, 8064, Note_on_c, 0, 82, 80
2, 8064, Note_on_c, 0, 75, 80
2, 8064, Note_on_c, 0, 73, 80
2, 8396, Note_off_c, 0, 82, 100
2, 8396, Note_off_c, 0, 75, 100
2, 8396, Note_off_c, 0, 73, 100
2, 8400, Note_on_c, 0, 82, 78
2, 8400, Note_on_c, 0, 75, 78
2, 8400, Note_on_c, 0, 73, 78
2, 8444, Note_off_c, 0, 82, 100
2, 8444, Note_off_c, 0, 75, 100
2, 8444, Note_off_c, 0, 73, 100
2, 8448, Note_on_c, 0, 82, 78
2, 8448, Note_on_c, 0, 75, 78
2, 8448, Note_on_c, 0, 73, 78
2, 9164, Note_off_c, 0, 82, 100
2, 9164, Note_off_c, 0, 75, 100
2, 9164, Note_off_c, 0, 73, 100
2, 9168, Note_on_c, 0, 75, 73
2, 9168, Note_on_c, 0, 72, 73
2, 9168, Note_on_c, 0, 80, 73
2, 9212, Note_off_c, 0, 75, 100
2, 9212, Note_off_c, 0, 72, 100
2, 9212, Note_off_c, 0, 80, 100
2, 9216, Note_on_c, 0, 80, 73
2, 9216, Note_on_c, 0, 72, 73
2, 9216, Note_on_c, 0, 75, 73
2, 9404, Note_off_c, 0, 80, 100
2, 9404, Note_off_c, 0, 72, 100
2, 9500, Note_off_c, 0, 75, 100
2, 9552, Note_on_c, 0, 78, 71
2, 9552, Note_on_c, 0, 75, 71
2, 9552, Note_on_c, 0, 72, 71
2, 9596, Note_off_c, 0, 78, 100
2, 9596, Note_off_c, 0, 75, 100
2, 9596, Note_off_c, 0, 72, 100
2, 9600, Note_on_c, 0, 78, 70
2, 9600, Note_on_c, 0, 75, 70
2, 9600, Note_on_c, 0, 72, 70
2, 9932, Note_off_c, 0, 78, 100
2, 9932, Note_off_c, 0, 75, 100
2, 9932, Note_off_c, 0, 72, 100
2, 9936, Note_on_c, 0, 78, 70
2, 9936, Note_on_c, 0, 75, 70
2, 9936, Note_on_c, 0, 70, 70
2, 9980, Note_off_c, 0, 78, 100
2, 9980, Note_off_c, 0, 75, 100
2, 9980, Note_off_c, 0, 70, 100
2, 9984, Note_on_c, 0, 78, 70
2, 9984, Note_on_c, 0, 75, 70
2, 9984, Note_on_c, 0, 70, 70
2, 10700, Note_off_c, 0, 78, 100
2, 10700, Note_off_c, 0, 75, 100
2, 10700, Note_off_c, 0, 70, 100
2, 10704, Note_on_c, 0, 78, 70
2, 10704, Note_on_c, 0, 75, 70
2, 10704, Note_on_c, 0, 69, 70
2, 10748, Note_off_c, 0, 78, 100
2, 10748, Note_off_c, 0, 75, 100
2, 10748, Note_off_c, 0, 69, 100
2, 10752, Note_on_c, 0, 78, 70
2, 10752, Note_on_c, 0, 75, 70
2, 10752, Note_on_c, 0, 69, 70
2, 11084, Note_off_c, 0, 78, 100
2, 11084, Note_off_c, 0, 75, 100
2, 11084, Note_off_c, 0, 69, 100
2, 11088, Note_on_c, 0, 78, 70
2, 11088, Note_on_c, 0, 75, 70
2, 11088, Note_on_c, 0, 69, 70
2, 11132, Note_off_c, 0, 78, 100
2, 11132, Note_off_c, 0, 75, 100
2, 11132, Note_off_c, 0, 69, 100
2, 11136, Note_on_c, 0, 78, 70
2, 11136, Note_on_c, 0, 75, 70
2, 11136, Note_on_c, 0, 69, 70
2, 11468, Note_off_c, 0, 78, 100
2, 11468, Note_off_c, 0, 75, 100
2, 11468, Note_off_c, 0, 69, 100
2, 11472, Note_on_c, 0, 77, 70
2, 11472, Note_on_c, 0, 73, 70
2, 11472, Note_on_c, 0, 68, 70
2, 11516, Note_off_c, 0, 77, 100
2, 11516, Note_off_c, 0, 73, 100
2, 11516, Note_off_c, 0, 68, 100
2, 11520, Note_on_c, 0, 77, 70
2, 11520, Note_on_c, 0, 73, 70
2, 11520, Note_on_c, 0, 68, 70
2, 12236, Note_off_c, 0, 77, 100
2, 12236, Note_off_c, 0, 73, 100
2, 12236, Note_off_c, 0, 68, 100
2, 12240, Note_on_c, 0, 77, 70
2, 12240, Note_on_c, 0, 71, 70
2, 12240, Note_on_c, 0, 68, 70
2, 12284, Note_off_c, 0, 77, 100
2, 12284, Note_off_c, 0, 71, 100
2, 12284, Note_off_c, 0, 68, 100
2, 12288, Note_on_c, 0, 77, 70
2, 12288, Note_on_c, 0, 71, 70
2, 12288, Note_on_c, 0, 68, 70
2, 12620, Note_off_c, 0, 77, 100
2, 12620, Note_off_c, 0, 71, 100
2, 12620, Note_off_c, 0, 68, 100
2, 12624, Note_on_c, 0, 77, 70
2, 12624, Note_on_c, 0, 71, 70
2, 12624, Note_on_c, 0, 68, 70
2, 12668, Note_off_c, 0, 77, 100
2, 12668, Note_off_c, 0, 71, 100
2, 12668, Note_off_c, 0, 68, 100
2, 12672, Note_on_c, 0, 77, 70
2, 12672, Note_on_c, 0, 71, 70
2, 12672, Note_on_c, 0, 68, 70
2, 13004, Note_off_c, 0, 77, 100
2, 13004, Note_off_c, 0, 71, 100
2, 13004, Note_off_c, 0, 68, 100
2, 13008, Note_on_c, 0, 75, 70
2, 13008, Note_on_c, 0, 72, 70
2, 13008, Note_on_c, 0, 68, 70
2, 13052, Note_off_c, 0, 75, 100
2, 13052, Note_off_c, 0, 72, 100
2, 13052, Note_off_c, 0, 68, 100
2, 13056, Note_on_c, 0, 75, 70
2, 13056, Note_on_c, 0, 72, 70
2, 13056, Note_on_c, 0, 68, 70
2, 13772, Note_off_c, 0, 75, 100
2, 13772, Note_off_c, 0, 72, 100
2, 13772, Note_off_c, 0, 68, 100
2, 13776, Note_on_c, 0, 75, 70
2, 13776, Note_on_c, 0, 72, 70
2, 13776, Note_on_c, 0, 68, 70
2, 13820, Note_off_c, 0, 75, 100
2, 13820, Note_off_c, 0, 72, 100
2, 13820, Note_off_c, 0, 68, 100
2, 13824, Note_on_c, 0, 75, 70
2, 13824, Note_on_c, 0, 72, 70
2, 13824, Note_on_c, 0, 68, 70
2, 14156, Note_off_c, 0, 75, 100
2, 14156, Note_off_c, 0, 72, 100
2, 14156, Note_off_c, 0, 68, 100
2, 14160, Note_on_c, 0, 73, 70
2, 14160, Note_on_c, 0, 70, 70
2, 14160, Note_on_c, 0, 67, 70
2, 14204, Note_off_c, 0, 73, 100
2, 14204, Note_off_c, 0, 70, 100
2, 14204, Note_off_c, 0, 67, 100
2, 14208, Note_on_c, 0, 73, 70
2, 14208, Note_on_c, 0, 70, 70
2, 14208, Note_on_c, 0, 67, 70
2, 14540, Note_off_c, 0, 73, 100
2, 14540, Note_off_c, 0, 70, 100
2, 14540, Note_off_c, 0, 67, 100
2, 14544, Note_on_c, 0, 73, 85
2, 14544, Note_on_c, 0, 70, 85
2, 14544, Note_on_c, 0, 65, 85
2, 14588, Note_off_c, 0, 73, 100
2, 14588, Note_off_c, 0, 70, 100
2, 14588, Note_off_c, 0, 65, 100
2, 14592, Note_on_c, 0, 73, 88
2, 14592, Note_on_c, 0, 70, 88
2, 14592, Note_on_c, 0, 65, 88
2, 14924, Note_off_c, 0, 73, 100
2, 14924, Note_off_c, 0, 70, 100
2, 14924, Note_off_c, 0, 65, 100
2, 14928, Note_on_c, 0, 73, 104
2, 14928, Note_on_c, 0, 70, 104
2, 14928, Note_on_c, 0, 64, 104
2, 14972, Note_off_c, 0, 73, 100
2, 14972, Note_off_c, 0, 70, 100
2, 14972, Note_off_c, 0, 64, 100
2, 14976, Note_on_c, 0, 73, 106
2, 14976, Note_on_c, 0, 70, 106
2, 14976, Note_on_c, 0, 64, 106
2, 15164, Note_off_c, 0, 73, 100
2, 15164, Note_off_c, 0, 70, 100
2, 15164, Note_off_c, 0, 64, 100
2, 15168, Note_on_c, 0, 72, 110
2, 15168, Note_on_c, 0, 65, 110
2, 15168, Note_on_c, 0, 60, 110
2, 15356, Note_off_c, 0, 72, 100
2, 15356, Note_off_c, 0, 65, 100
2, 15356, Note_off_c, 0, 60, 100
2, 15360, Note_on_c, 0, 72, 110
2, 15360, Note_on_c, 0, 65, 110
2, 15360, Note_on_c, 0, 60, 110
2, 15548, Note_off_c, 0, 72, 100
2, 15548, Note_off_c, 0, 65, 100
2, 15548, Note_off_c, 0, 60, 100
2, 15552, Note_on_c, 0, 72, 110
2, 15552, Note_on_c, 0, 66, 110
2, 15552, Note_on_c, 0, 60, 110
2, 15740, Note_off_c, 0, 72, 100
2, 15740, Note_off_c, 0, 66, 100
2, 15740, Note_off_c, 0, 60, 100
2, 15744, Note_on_c, 0, 71, 110
2, 15744, Note_on_c, 0, 67, 110
2, 15744, Note_on_c, 0, 62, 110
2, 15932, Note_off_c, 0, 71, 100
2, 15932, Note_off_c, 0, 67, 100
2, 15932, Note_off_c, 0, 62, 100
2, 16896, Note_on_c, 0, 67, 80
2, 17088, Note_on_c, 0, 60, 80
2, 17276, Note_off_c, 0, 67, 100
2, 17276, Note_off_c, 0, 60, 100
2, 17280, Note_on_c, 0, 69, 80
2, 17280, Note_on_c, 0, 66, 80
2, 17280, Note_on_c, 0, 60, 80
2, 17660, Note_off_c, 0, 69, 100
2, 17660, Note_off_c, 0, 66, 100
2, 17660, Note_off_c, 0, 60, 100
2, 17664, Note_on_c, 0, 71, 80
2, 17664, Note_on_c, 0, 65, 80
2, 17664, Note_on_c, 0, 62, 80
2, 18044, Note_off_c, 0, 71, 100
2, 18044, Note_off_c, 0, 65, 100
2, 18044, Note_off_c, 0, 62, 100
2, 18048, Note_on_c, 0, 72, 80
2, 18048, Note_on_c, 0, 67, 80
2, 18048, Note_on_c, 0, 63, 80
2, 18428, Note_off_c, 0, 72, 100
2, 18428, Note_off_c, 0, 67, 100
2, 18428, Note_off_c, 0, 63, 100
2, 18432, Note_on_c, 0, 72, 80
2, 18432, Note_on_c, 0, 69, 80
2, 18432, Note_on_c, 0, 63, 80
2, 18764, Note_off_c, 0, 72, 100
2, 18764, Note_off_c, 0, 69, 100
2, 18764, Note_off_c, 0, 63, 100
2, 18768, Note_on_c, 0, 71, 80
2, 18768, Note_on_c, 0, 67, 80
2, 18768, Note_on_c, 0, 62, 80
2, 18812, Note_off_c, 0, 71, 100
2, 18812, Note_off_c, 0, 67, 100
2, 18812, Note_off_c, 0, 62, 100
2, 18816, Note_on_c, 0, 71, 80
2, 18816, Note_on_c, 0, 67, 80
2, 18816, Note_on_c, 0, 62, 80
2, 19196, Note_off_c, 0, 71, 100
2, 19196, Note_off_c, 0, 67, 100
2, 19196, Note_off_c, 0, 62, 100
2, 19968, Note_on_c, 0, 55, 80
2, 20160, Note_on_c, 0, 48, 80
2, 20348, Note_off_c, 0, 55, 100
2, 20348, Note_off_c, 0, 48, 100
2, 20352, Note_on_c, 0, 57, 80
2, 20352, Note_on_c, 0, 54, 80
2, 20352, Note_on_c, 0, 48, 80
2, 20732, Note_off_c, 0, 57, 100
2, 20732, Note_off_c, 0, 54, 100
2, 20732, Note_off_c, 0, 48, 100
2, 20736, Note_on_c, 0, 59, 80
2, 20736, Note_on_c, 0, 53, 80
2, 20736, Note_on_c, 0, 50, 80
2, 21116, Note_off_c, 0, 59, 100
2, 21116, Note_off_c, 0, 53, 100
2, 21116, Note_off_c, 0, 50, 100
2, 21120, Note_on_c, 0, 60, 80
2, 21120, Note_on_c, 0, 55, 80
2, 21120, Note_on_c, 0, 51, 80
2, 21500, Note_off_c, 0, 60, 100
2, 21500, Note_off_c, 0, 55, 100
2, 21500, Note_off_c, 0, 51, 100
2, 21504, Note_on_c, 0, 60, 80
2, 21504, Note_on_c, 0, 57, 80
2, 21504, Note_on_c, 0, 51, 80
2, 21836, Note_off_c, 0, 60, 100
2, 21836, Note_off_c, 0, 57, 100
2, 21836, Note_off_c, 0, 51, 100
2, 21840, Note_on_c, 0, 59, 80
2, 21840, Note_on_c, 0, 55, 80
2, 21840, Note_on_c, 0, 50, 80
2, 21884, Note_off_c, 0, 59, 100
2, 21884, Note_off_c, 0, 55, 100
2, 21884, Note_off_c, 0, 50, 100
2, 21888, Control_c, 0, 64, 127
2, 21888, Note_on_c, 0, 55, 80
2, 21888, Note_on_c, 0, 50, 80
2, 21888, Note_on_c, 0, 59, 80
2, 22652, Note_off_c, 0, 55, 100
2, 22652, Note_off_c, 0, 50, 100
2, 22652, Note_off_c, 0, 59, 100
2, 22656, Note_on_c, 0, 59, 80
2, 22656, Note_on_c, 0, 55, 80
2, 22656, Note_on_c, 0, 50, 80
2, 23328, Note_on_c, 0, 59, 80
2, 23328, Note_on_c, 0, 55, 80
2, 23328, Note_on_c, 0, 50, 80
2, 23416, Control_c, 0, 64, 0
2, 23420, Note_off_c, 0, 59, 100
2, 23420, Note_off_c, 0, 55, 100
2, 23420, Note_off_c, 0, 50, 100
2, 23420, Note_off_c, 0, 59, 100
2, 23420, Note_off_c, 0, 55, 100
2, 23420, Note_off_c, 0, 50, 100
2, 23424, Note_on_c, 0, 59, 70
2, 23424, Note_on_c, 0, 55, 70
2, 23424, Note_on_c, 0, 50, 70
2, 24956, Note_off_c, 0, 59, 100
2, 24956, Note_off_c, 0, 55, 100
2, 24956, Note_off_c, 0, 50, 100
2, 24960, Note_on_c, 0, 62, 70
2, 24960, Note_on_c, 0, 59, 70
2, 24960, Note_on_c, 0, 55, 70
2, 24960, Note_on_c, 0, 50, 70
2, 26492, Note_off_c, 0, 62, 100
2, 26492, Note_off_c, 0, 59, 100
2, 26492, Note_off_c, 0, 55, 100
2, 26492, Note_off_c, 0, 50, 100
2, 26496, Note_on_c, 0, 67, 90
2, 26496, Note_on_c, 0, 62, 90
2, 26496, Note_on_c, 0, 59, 90
2, 26496, Note_on_c, 0, 55, 90
2, 26588, Note_off_c, 0, 59, 100
2, 26588, Note_off_c, 0, 55, 100
2, 26592, Note_on_c, 0, 44, 92
2, 26688, Note_on_c, 0, 43, 93
2, 26780, Note_off_c, 0, 44, 100
2, 26784, Note_on_c, 0, 44, 94
2, 26876, Note_off_c, 0, 43, 100
2, 26880, Note_on_c, 0, 43, 95
2, 26972, Note_off_c, 0, 44, 100
2, 26976, Note_on_c, 0, 44, 97
2, 27068, Note_off_c, 0, 43, 100
2, 27072, Note_on_c, 0, 43, 98
2, 27164, Note_off_c, 0, 44, 100
2, 27168, Note_on_c, 0, 44, 99
2, 27260, Note_off_c, 0, 43, 100
2, 27264, Note_on_c, 0, 43, 100
2, 27356, Note_off_c, 0, 44, 100
2, 27360, Note_on_c, 0, 44, 102
2, 27452, Note_off_c, 0, 43, 100
2, 27456, Note_on_c, 0, 43, 103
2, 27548, Note_off_c, 0, 44, 100
2, 27552, Note_on_c, 0, 44, 104
2, 27644, Note_off_c, 0, 43, 100
2, 27648, Note_on_c, 0, 43, 105
2, 27740, Note_off_c, 0, 44, 100
2, 27744, Note_on_c, 0, 44, 107
2, 27836, Note_off_c, 0, 67, 100
2, 27836, Note_off_c, 0, 62, 100
2, 27836, Note_off_c, 0, 43, 100
2, 27836, Note_off_c, 0, 44, 100
2, 27840, Note_on_c, 0, 43, 108
2, 27932, Note_off_c, 0, 43, 100
2, 27936, Note_on_c, 0, 45, 110
2, 27980, Note_off_c, 0, 45, 100
2, 27984, Note_on_c, 0, 47, 110
2, 28028, Note_off_c, 0, 47, 100
2, 28032, Note_on_c, 0, 48, 110
2, 28412, Note_off_c, 0, 48, 100
2, 29376, Note_on_c, 0, 43, 110
2, 29436, Note_off_c, 0, 43, 100
2, 29440, Note_on_c, 0, 45, 110
2, 29500, Note_off_c, 0, 45, 100
2, 29504, Note_on_c, 0, 47, 110
2, 29564, Note_off_c, 0, 47, 100
2, 29568, Note_on_c, 0, 48, 110
2, 29948, Note_off_c, 0, 48, 100
2, 29952, Note_on_c, 0, 51, 110
2, 30320, Note_on_c, 0, 47, 120
2, 30332, Note_off_c, 0, 51, 100
2, 32236, Note_off_c, 0, 47, 100
2, 32448, Note_on_c, 0, 43, 110
2, 32508, Note_off_c, 0, 43, 100
2, 32512, Note_on_c, 0, 45, 110
2, 32572, Note_off_c, 0, 45, 100
2, 32576, Note_on_c, 0, 47, 110
2, 32636, Note_off_c, 0, 47, 100
2, 32640, Note_on_c, 0, 48, 110
2, 33020, Note_off_c, 0, 48, 100
2, 33024, Note_on_c, 0, 51, 110
2, 33404, Note_off_c, 0, 51, 100
2, 33408, Note_on_c, 0, 47, 120
2, 33980, Note_off_c, 0, 47, 100
2, 33984, Note_on_c, 0, 56, 110
2, 34172, Note_off_c, 0, 56, 100
2, 34176, Note_on_c, 0, 55, 110
2, 34364, Note_off_c, 0, 55, 100
2, 34368, Note_on_c, 0, 53, 110
2, 34556, Note_off_c, 0, 53, 100
2, 34560, Note_on_c, 0, 51, 110
2, 34748, Note_off_c, 0, 51, 100
2, 34752, Note_on_c, 0, 50, 110
2, 34940, Note_off_c, 0, 50, 100
2, 34944, Note_on_c, 0, 51, 110
2, 35036, Note_off_c, 0, 51, 100
2, 35040, Note_on_c, 0, 53, 110
2, 35132, Note_off_c, 0, 53, 100
2, 35136, Note_on_c, 0, 51, 110
2, 35228, Note_off_c, 0, 51, 100
2, 35232, Note_on_c, 0, 50, 110
2, 35324, Note_off_c, 0, 50, 100
2, 35328, Note_on_c, 0, 48, 110
2, 35516, Note_off_c, 0, 48, 100
2, 35520, Note_on_c, 0, 56, 110
2, 35708, Note_off_c, 0, 56, 100
2, 35712, Note_on_c, 0, 55, 110
2, 35900, Note_off_c, 0, 55, 100
2, 35904, Note_on_c, 0, 53, 101
2, 36092, Note_off_c, 0, 53, 100
2, 36096, Note_on_c, 0, 51, 91
2, 36284, Note_off_c, 0, 51, 100
2, 36288, Note_on_c, 0, 50, 81
2, 36476, Note_off_c, 0, 50, 100
2, 36480, Note_on_c, 0, 51, 80
2, 36572, Note_off_c, 0, 51, 100
2, 36576, Note_on_c, 0, 53, 80
2, 36668, Note_off_c, 0, 53, 100
2, 36672, Note_on_c, 0, 51, 80
2, 36764, Note_off_c, 0, 51, 100
2, 36768, Note_on_c, 0, 50, 80
2, 36860, Note_off_c, 0, 50, 100
2, 36864, Note_on_c, 0, 48, 80
2, 36956, Note_off_c, 0, 48, 100
2, 36960, Note_on_c, 0, 56, 80
2, 37052, Note_off_c, 0, 56, 100
2, 37056, Note_on_c, 0, 58, 81
2, 37148, Note_off_c, 0, 58, 100
2, 37152, Note_on_c, 0, 56, 82
2, 37244, Note_off_c, 0, 56, 100
2, 37248, Note_on_c, 0, 55, 82
2, 37340, Note_off_c, 0, 55, 100
2, 37344, Note_on_c, 0, 56, 83
2, 37436, Note_off_c, 0, 56, 100
2, 37440, Note_on_c, 0, 55, 84
2, 37532, Note_off_c, 0, 55, 100
2, 37536, Note_on_c, 0, 53, 85
2, 37628, Note_off_c, 0, 53, 100
2, 37632, Note_on_c, 0, 51, 85
2, 37724, Note_off_c, 0, 51, 100
2, 37728, Note_on_c, 0, 53, 86
2, 37820, Note_off_c, 0, 53, 100
2, 37824, Note_on_c, 0, 51, 87
2, 37916, Note_off_c, 0, 51, 100
2, 37920, Note_on_c, 0, 50, 87
2, 38012, Note_off_c, 0, 50, 100
2, 38016, Note_on_c, 0, 51, 88
2, 38108, Note_off_c, 0, 51, 100
2, 38112, Note_on_c, 0, 53, 89
2, 38204, Note_off_c, 0, 53, 100
2, 38208, Note_on_c, 0, 51, 90
2, 38300, Note_off_c, 0, 51, 100
2, 38304, Note_on_c, 0, 50, 90
2, 38396, Note_off_c, 0, 50, 100
2, 38400, Note_on_c, 0, 48, 91
2, 38492, Note_off_c, 0, 48, 100
2, 38496, Note_on_c, 0, 55, 92
2, 38588, Note_off_c, 0, 55, 100
2, 38592, Note_on_c, 0, 53, 92
2, 38684, Note_off_c, 0, 53, 100
2, 38688, Note_on_c, 0, 51, 93
2, 38780, Note_off_c, 0, 51, 100
2, 38784, Note_on_c, 0, 53, 94
2, 38876, Note_off_c, 0, 53, 100
2, 38880, Note_on_c, 0, 55, 95
2, 38972, Note_off_c, 0, 55, 100
2, 38976, Note_on_c, 0, 53, 95
2, 39068, Note_off_c, 0, 53, 100
2, 39072, Note_on_c, 0, 51, 96
2, 39164, Note_off_c, 0, 51, 100
2, 39168, Note_on_c, 0, 50, 97
2, 39260, Note_off_c, 0, 50, 100
2, 39264, Note_on_c, 0, 56, 98
2, 39356, Note_off_c, 0, 56, 100
2, 39360, Note_on_c, 0, 55, 98
2, 39452, Note_off_c, 0, 55, 100
2, 39456, Note_on_c, 0, 53, 99
2, 39548, Note_off_c, 0, 53, 100
2, 39552, Note_on_c, 0, 55, 100
2, 39644, Note_off_c, 0, 55, 100
2, 39648, Note_on_c, 0, 56, 100
2, 39740, Note_off_c, 0, 56, 100
2, 39744, Note_on_c, 0, 55, 101
2, 39836, Note_off_c, 0, 55, 100
2, 39840, Note_on_c, 0, 53, 102
2, 39932, Note_off_c, 0, 53, 100
2, 39936, Note_on_c, 0, 52, 103
2, 40028, Note_off_c, 0, 52, 100
2, 40032, Note_on_c, 0, 58, 103
2, 40124, Note_off_c, 0, 58, 100
2, 40128, Note_on_c, 0, 56, 104
2, 40220, Note_off_c, 0, 56, 100
2, 40224, Note_on_c, 0, 55, 105
2, 40316, Note_off_c, 0, 55, 100
2, 40320, Note_on_c, 0, 56, 105
2, 40412, Note_off_c, 0, 56, 100
2, 40416, Note_on_c, 0, 60, 106
2, 40508, Note_off_c, 0, 60, 100
2, 40512, Note_on_c, 0, 55, 107
2, 40604, Note_off_c, 0, 55, 100
2, 40608, Note_on_c, 0, 60, 108
2, 40700, Note_off_c, 0, 60, 100
2, 40704, Note_on_c, 0, 53, 108
2, 40796, Note_off_c, 0, 53, 100
2, 40800, Note_on_c, 0, 60, 109
2, 40892, Note_off_c, 0, 60, 100
2, 40896, Note_on_c, 0, 54, 110
2, 40988, Note_off_c, 0, 54, 100
2, 40992, Note_on_c, 0, 60, 110
2, 41084, Note_off_c, 0, 60, 100
2, 41088, Note_on_c, 0, 59, 120
2, 41180, Note_off_c, 0, 59, 100
2, 41184, Note_on_c, 0, 57, 110
2, 41276, Note_off_c, 0, 57, 100
2, 41280, Note_on_c, 0, 55, 110
2, 41372, Note_off_c, 0, 55, 100
2, 41376, Note_on_c, 0, 62, 110
2, 41468, Note_off_c, 0, 62, 100
2, 41472, Note_on_c, 0, 60, 120
2, 41564, Note_off_c, 0, 60, 100
2, 41568, Note_on_c, 0, 59, 110
2, 41660, Note_off_c, 0, 59, 100
2, 41664, Note_on_c, 0, 65, 110
2, 41756, Note_off_c, 0, 65, 100
2, 41760, Note_on_c, 0, 63, 110
2, 41852, Note_off_c, 0, 63, 100
2, 41856, Note_on_c, 0, 62, 120
2, 41948, Note_off_c, 0, 62, 100
2, 41952, Note_on_c, 0, 68, 110
2, 42044, Note_off_c, 0, 68, 100
2, 42048, Note_on_c, 0, 67, 110
2, 42140, Note_off_c, 0, 67, 100
2, 42144, Note_on_c, 0, 65, 110
2, 42236, Note_off_c, 0, 65, 100
2, 42240, Note_on_c, 0, 74, 120
2, 42332, Note_off_c, 0, 74, 100
2, 42336, Note_on_c, 0, 72, 110
2, 42428, Note_off_c, 0, 72, 100
2, 42432, Note_on_c, 0, 71, 110
2, 42524, Note_off_c, 0, 71, 100
2, 42528, Note_on_c, 0, 77, 110
2, 42620, Note_off_c, 0, 77, 100
2, 42624, Note_on_c, 0, 75, 120
2, 42716, Note_off_c, 0, 75, 100
2, 42720, Note_on_c, 0, 74, 110
2, 42812, Note_off_c, 0, 74, 100
2, 42816, Note_on_c, 0, 80, 110
2, 42908, Note_off_c, 0, 80, 100
2, 42912, Note_on_c, 0, 79, 110
2, 43004, Note_off_c, 0, 79, 100
2, 43008, Note_on_c, 0, 77, 120
2, 43100, Note_off_c, 0, 77, 100
2, 43104, Note_on_c, 0, 86, 110
2, 43196, Note_off_c, 0, 86, 100
2, 43200, Note_on_c, 0, 84, 110
2, 43292, Note_off_c, 0, 84, 100
2, 43296, Note_on_c, 0, 83, 110
2, 43388, Note_off_c, 0, 83, 100
2, 43392, Note_on_c, 0, 89, 120
2, 43484, Note_off_c, 0, 89, 100
2, 43488, Note_on_c, 0, 87, 109
2, 43580, Note_off_c, 0, 87, 100
2, 43584, Note_on_c, 0, 86, 107
2, 43664, Note_on_c, 0, 92, 105
2, 43676, Note_off_c, 0, 86, 100
2, 43756, Note_off_c, 0, 92, 100
2, 43776, Note_on_c, 0, 91, 103
2, 43868, Note_off_c, 0, 91, 100
2, 43872, Note_on_c, 0, 89, 101
2, 43964, Note_off_c, 0, 89, 100
2, 43968, Note_on_c, 0, 87, 99
2, 44060, Note_off_c, 0, 87, 100
2, 44064, Note_on_c, 0, 86, 97
2, 44156, Note_off_c, 0, 86, 100
2, 44160, Note_on_c, 0, 84, 95
2, 44252, Note_off_c, 0, 84, 100
2, 44256, Note_on_c, 0, 83, 93
2, 44348, Note_off_c, 0, 83, 100
2, 44352, Note_on_c, 0, 80, 91
2, 44444, Note_off_c, 0, 80, 100
2, 44448, Note_on_c, 0, 79, 89
2, 44540, Note_off_c, 0, 79, 100
2, 44544, Note_on_c, 0, 77, 87
2, 44636, Note_off_c, 0, 77, 100
2, 44640, Note_on_c, 0, 75, 85
2, 44732, Note_off_c, 0, 75, 100
2, 44736, Note_on_c, 0, 74, 83
2, 44828, Note_off_c, 0, 74, 100
2, 44832, Note_on_c, 0, 79, 81
2, 44924, Note_off_c, 0, 79, 100
2, 44928, Note_on_c, 0, 72, 80
2, 44928, Note_on_c, 0, 67, 80
2, 44928, Note_on_c, 0, 63, 80
2, 45116, Note_off_c, 0, 67, 100
2, 45116, Note_off_c, 0, 63, 100
2, 45120, Note_on_c, 0, 67, 80
2, 45120, Note_on_c, 0, 63, 80
2, 45308, Note_off_c, 0, 72, 100
2, 45308, Note_off_c, 0, 67, 100
2, 45308, Note_off_c, 0, 63, 100
2, 45312, Note_on_c, 0, 67, 80
2, 45312, Note_on_c, 0, 63, 80
2, 45312, Note_on_c, 0, 75, 80
2, 45500, Note_off_c, 0, 67, 100
2, 45500, Note_off_c, 0, 63, 100
2, 45504, Note_on_c, 0, 67, 80
2, 45504, Note_on_c, 0, 63, 80
2, 45692, Note_off_c, 0, 75, 100
2, 45692, Note_off_c, 0, 67, 100
2, 45692, Note_off_c, 0, 63, 100
2, 45696, Note_on_c, 0, 67, 80
2, 45696, Note_on_c, 0, 65, 80
2, 45696, Note_on_c, 0, 71, 80
2, 45884, Note_off_c, 0, 67, 100
2, 45884, Note_off_c, 0, 65, 100
2, 45888, Note_on_c, 0, 67, 80
2, 45888, Note_on_c, 0, 65, 80
2, 46076, Note_off_c, 0, 67, 100
2, 46076, Note_off_c, 0, 65, 100
2, 46080, Note_on_c, 0, 67, 80
2, 46080, Note_on_c, 0, 65, 80
2, 46268, Note_off_c, 0, 71, 100
2, 46268, Note_off_c, 0, 67, 100
2, 46268, Note_off_c, 0, 65, 100
2, 46272, Note_on_c, 0, 67, 80
2, 46272, Note_on_c, 0, 65, 80
2, 46272, Note_on_c, 0, 80, 80
2, 46460, Note_off_c, 0, 67, 100
2, 46460, Note_off_c, 0, 65, 100
2, 46460, Note_off_c, 0, 80, 100
2, 46464, Note_on_c, 0, 79, 80
2, 46464, Note_on_c, 0, 67, 80
2, 46464, Note_on_c, 0, 65, 80
2, 46652, Note_off_c, 0, 79, 100
2, 46652, Note_off_c, 0, 67, 100
2, 46652, Note_off_c, 0, 65, 100
2, 46656, Note_on_c, 0, 77, 80
2, 46656, Note_on_c, 0, 67, 80
2, 46656, Note_on_c, 0, 65, 80
2, 46844, Note_off_c, 0, 77, 100
2, 46844, Note_off_c, 0, 67, 100
2, 46844, Note_off_c, 0, 65, 100
2, 46848, Note_on_c, 0, 75, 80
2, 46848, Note_on_c, 0, 67, 80
2, 46848, Note_on_c, 0, 65, 80
2, 47036, Note_off_c, 0, 75, 100
2, 47036, Note_off_c, 0, 67, 100
2, 47036, Note_off_c, 0, 65, 100
2, 47040, Note_on_c, 0, 74, 80
2, 47040, Note_on_c, 0, 67, 80
2, 47040, Note_on_c, 0, 65, 80
2, 47228, Note_off_c, 0, 74, 100
2, 47228, Note_off_c, 0, 67, 100
2, 47228, Note_off_c, 0, 65, 100
2, 47232, Note_on_c, 0, 75, 80
2, 47324, Note_off_c, 0, 75, 100
2, 47328, Note_on_c, 0, 77, 80
2, 47420, Note_off_c, 0, 77, 100
2, 47424, Note_on_c, 0, 75, 80
2, 47516, Note_off_c, 0, 75, 100
2, 47520, Note_on_c, 0, 74, 80
2, 47612, Note_off_c, 0, 74, 100
2, 47616, Note_on_c, 0, 72, 80
2, 47616, Note_on_c, 0, 67, 80
2, 47804, Note_off_c, 0, 72, 100
2, 47804, Note_off_c, 0, 67, 100
2, 47808, Note_on_c, 0, 80, 80
2, 47808, Note_on_c, 0, 67, 80
2, 47996, Note_off_c, 0, 80, 100
2, 47996, Note_off_c, 0, 67, 100
2, 48000, Note_on_c, 0, 79, 80
2, 48000, Note_on_c, 0, 67, 80
2, 48188, Note_off_c, 0, 79, 100
2, 48188, Note_off_c, 0, 67, 100
2, 48192, Note_on_c, 0, 77, 80
2, 48192, Note_on_c, 0, 67, 80
2, 48192, Note_on_c, 0, 71, 80
2, 48380, Note_off_c, 0, 77, 100
2, 48380, Note_off_c, 0, 67, 100
2, 48380, Note_off_c, 0, 71, 100
2, 48384, Note_on_c, 0, 75, 80
2, 48384, Note_on_c, 0, 67, 80
2, 48384, Note_on_c, 0, 72, 80
2, 48572, Note_off_c, 0, 75, 100
2, 48572, Note_off_c, 0, 67, 100
2, 48572, Note_off_c, 0, 72, 100
2, 48576, Note_on_c, 0, 74, 80
2, 48576, Note_on_c, 0, 67, 80
2, 48764, Note_off_c, 0, 74, 100
2, 48764, Note_off_c, 0, 67, 100
2, 48768, Note_on_c, 0, 75, 80
2, 48860, Note_off_c, 0, 75, 100
2, 48864, Note_on_c, 0, 77, 80
2, 48956, Note_off_c, 0, 77, 100
2, 48960, Note_on_c, 0, 75, 80
2, 48960, Note_on_c, 0, 67, 80
2, 49052, Note_off_c, 0, 75, 100
2, 49056, Note_on_c, 0, 74, 80
2, 49148, Note_off_c, 0, 74, 100
2, 49152, Note_on_c, 0, 72, 80
2, 49340, Note_off_c, 0, 67, 100
2, 49340, Note_off_c, 0, 72, 100
2, 49344, Note_on_c, 0, 92, 80
2, 49344, Note_on_c, 0, 89, 80
2, 49436, Note_off_c, 0, 89, 100
2, 49440, Note_on_c, 0, 79, 81
2, 49532, Note_off_c, 0, 92, 100
2, 49532, Note_off_c, 0, 79, 100
2, 49536, Note_on_c, 0, 91, 82
2, 49536, Note_on_c, 0, 87, 82
2, 49628, Note_off_c, 0, 87, 100
2, 49632, Note_on_c, 0, 79, 83
2, 49724, Note_off_c, 0, 91, 100
2, 49724, Note_off_c, 0, 79, 100
2, 49728, Note_on_c, 0, 89, 84
2, 49728, Note_on_c, 0, 86, 84
2, 49820, Note_off_c, 0, 86, 100
2, 49824, Note_on_c, 0, 79, 86
2, 49916, Note_off_c, 0, 89, 100
2, 49916, Note_off_c, 0, 79, 100
2, 49920, Note_on_c, 0, 87, 87
2, 49920, Note_on_c, 0, 84, 87
2, 50012, Note_off_c, 0, 84, 100
2, 50016, Note_on_c, 0, 79, 88
2, 50108, Note_off_c, 0, 87, 100
2, 50108, Note_off_c, 0, 79, 100
2, 50112, Note_on_c, 0, 86, 89
2, 50208, Note_on_c, 0, 79, 91
2, 50208, Note_on_c, 0, 80, 91
2, 50300, Note_off_c, 0, 86, 100
2, 50300, Note_off_c, 0, 79, 100
2, 50300, Note_off_c, 0, 80, 100
2, 50304, Note_on_c, 0, 87, 92
2, 50400, Note_on_c, 0, 79, 93
2, 50492, Note_off_c, 0, 87, 100
2, 50492, Note_off_c, 0, 79, 100
2, 50496, Note_on_c, 0, 86, 94
2, 50592, Note_on_c, 0, 79, 96
2, 50684, Note_off_c, 0, 86, 100
2, 50684, Note_off_c, 0, 79, 100
2, 50688, Note_on_c, 0, 84, 97
2, 50784, Note_on_c, 0, 79, 98
2, 50876, Note_off_c, 0, 84, 100
2, 50876, Note_off_c, 0, 79, 100
2, 50880, Note_on_c, 0, 83, 99
2, 50976, Note_on_c, 0, 79, 101
2, 51068, Note_off_c, 0, 83, 100
2, 51068, Note_off_c, 0, 79, 100
2, 51072, Note_on_c, 0, 84, 102
2, 51072, Note_on_c, 0, 79, 102
2, 51164, Note_off_c, 0, 79, 100
2, 51168, Note_on_c, 0, 72, 103
2, 51260, Note_off_c, 0, 84, 100
2, 51260, Note_off_c, 0, 72, 100
2, 51264, Note_on_c, 0, 82, 104
2, 51264, Note_on_c, 0, 79, 104
2, 51356, Note_off_c, 0, 79, 100
2, 51360, Note_on_c, 0, 72, 105
2, 51452, Note_off_c, 0, 82, 100
2, 51452, Note_off_c, 0, 72, 100
2, 51456, Note_on_c, 0, 80, 107
2, 51552, Note_on_c, 0, 72, 108
2, 51644, Note_off_c, 0, 80, 100
2, 51644, Note_off_c, 0, 72, 100
2, 51648, Note_on_c, 0, 79, 109
2, 51744, Note_on_c, 0, 72, 110
2, 51836, Note_off_c, 0, 79, 100
2, 51836, Note_off_c, 0, 72, 100
2, 51840, Note_on_c, 0, 80, 110
2, 51936, Note_on_c, 0, 72, 110
2, 52028, Note_off_c, 0, 80, 100
2, 52028, Note_off_c, 0, 72, 100
2, 52032, Note_on_c, 0, 77, 110
2, 52128, Note_on_c, 0, 72, 110
2, 52220, Note_off_c, 0, 77, 100
2, 52220, Note_off_c, 0, 72, 100
2, 52224, Note_on_c, 0, 75, 110
2, 52320, Note_on_c, 0, 72, 110
2, 52412, Note_off_c, 0, 75, 100
2, 52412, Note_off_c, 0, 72, 100
2, 52416, Note_on_c, 0, 74, 110
2, 52512, Note_on_c, 0, 72, 110
2, 52604, Note_off_c, 0, 74, 100
2, 52604, Note_off_c, 0, 72, 100
2, 52608, Note_on_c, 0, 74, 110
2, 52608, Note_on_c, 0, 65, 110
2, 52796, Note_off_c, 0, 74, 100
2, 52800, Note_on_c, 0, 72, 95
2, 52988, Note_off_c, 0, 65, 100
2, 52988, Note_off_c, 0, 72, 100
2, 52992, Note_on_c, 0, 72, 80
2, 52992, Note_on_c, 0, 66, 80
2, 53372, Note_off_c, 0, 66, 100
2, 53376, Note_on_c, 0, 67, 80
2, 53756, Note_off_c, 0, 72, 100
2, 53756, Note_off_c, 0, 67, 100
2, 53760, Note_on_c, 0, 69, 80
2, 53760, Note_on_c, 0, 72, 80
2, 54140, Note_off_c, 0, 69, 100
2, 54140, Note_off_c, 0, 72, 100
2, 54144, Note_on_c, 0, 67, 80
2, 54144, Note_on_c, 0, 72, 80
2, 54192, Note_on_c, 0, 74, 80
2, 54236, Note_off_c, 0, 72, 100
2, 54240, Note_on_c, 0, 72, 80
2, 54284, Note_off_c, 0, 74, 100
2, 54288, Note_on_c, 0, 74, 80
2, 54332, Note_off_c, 0, 72, 100
2, 54336, Note_on_c, 0, 72, 80
2, 54380, Note_off_c, 0, 74, 100
2, 54384, Note_on_c, 0, 74, 80
2, 54428, Note_off_c, 0, 72, 100
2, 54432, Note_on_c, 0, 72, 80
2, 54476, Note_off_c, 0, 74, 100
2, 54480, Note_on_c, 0, 74, 80
2, 54524, Note_off_c, 0, 67, 100
2, 54524, Note_off_c, 0, 72, 100
2, 54528, Note_on_c, 0, 75, 80
2, 54572, Note_off_c, 0, 74, 100
2, 54716, Note_off_c, 0, 75, 100
2, 54720, Note_on_c, 0, 74, 80
2, 54908, Note_off_c, 0, 74, 100
2, 54912, Note_on_c, 0, 72, 110
2, 54912, Note_on_c, 0, 60, 110
2, 55292, Note_off_c, 0, 72, 100
2, 55292, Note_off_c, 0, 60, 100
2, 55296, Note_on_c, 0, 63, 110
2, 55676, Note_off_c, 0, 63, 100
2, 55680, Note_on_c, 0, 59, 110
2, 56156, Note_off_c, 0, 59, 100
2, 56160, Note_on_c, 0, 62, 110
2, 56252, Note_off_c, 0, 62, 100
2, 56256, Note_on_c, 0, 65, 110
2, 56348, Note_off_c, 0, 65, 100
2, 56352, Note_on_c, 0, 68, 110
2, 56444, Note_off_c, 0, 68, 100
2, 56448, Note_on_c, 0, 67, 110
2, 56540, Note_off_c, 0, 67, 100
2, 56544, Note_on_c, 0, 68, 110
2, 56636, Note_off_c, 0, 68, 100
2, 56640, Note_on_c, 0, 67, 110
2, 56732, Note_off_c, 0, 67, 100
2, 56736, Note_on_c, 0, 65, 110
2, 56828, Note_off_c, 0, 65, 100
2, 56832, Note_on_c, 0, 63, 110
2, 56924, Note_off_c, 0, 63, 100
2, 56928, Note_on_c, 0, 65, 110
2, 57008, Note_on_c, 0, 63, 110
2, 57020, Note_off_c, 0, 65, 100
2, 57100, Note_off_c, 0, 63, 100
2, 57120, Note_on_c, 0, 62, 110
2, 57212, Note_off_c, 0, 62, 100
2, 57216, Note_on_c, 0, 63, 110
2, 57308, Note_off_c, 0, 63, 100
2, 57312, Note_on_c, 0, 65, 110
2, 57404, Note_off_c, 0, 65, 100
2, 57408, Note_on_c, 0, 63, 110
2, 57500, Note_off_c, 0, 63, 100
2, 57504, Note_on_c, 0, 62, 110
2, 57596, Note_off_c, 0, 62, 100
2, 57600, Note_on_c, 0, 60, 110
2, 57692, Note_off_c, 0, 60, 100
2, 57696, Note_on_c, 0, 63, 110
2, 57788, Note_off_c, 0, 63, 100
2, 57792, Note_on_c, 0, 67, 110
2, 57884, Note_off_c, 0, 67, 100
2, 57888, Note_on_c, 0, 70, 110
2, 57980, Note_off_c, 0, 70, 100
2, 57984, Note_on_c, 0, 68, 110
2, 58076, Note_off_c, 0, 68, 100
2, 58080, Note_on_c, 0, 70, 110
2, 58172, Note_off_c, 0, 70, 100
2, 58176, Note_on_c, 0, 68, 110
2, 58268, Note_off_c, 0, 68, 100
2, 58272, Note_on_c, 0, 67, 110
2, 58364, Note_off_c, 0, 67, 100
2, 58368, Note_on_c, 0, 65, 110
2, 58460, Note_off_c, 0, 65, 100
2, 58464, Note_on_c, 0, 67, 110
2, 58556, Note_off_c, 0, 67, 100
2, 58560, Note_on_c, 0, 65, 110
2, 58652, Note_off_c, 0, 65, 100
2, 58656, Note_on_c, 0, 63, 110
2, 58748, Note_off_c, 0, 63, 100
2, 58752, Note_on_c, 0, 65, 110
2, 58844, Note_off_c, 0, 65, 100
2, 58848, Note_on_c, 0, 67, 110
2, 58940, Note_off_c, 0, 67, 100
2, 58944, Note_on_c, 0, 65, 110
2, 59036, Note_off_c, 0, 65, 100
2, 59040, Note_on_c, 0, 63, 110
2, 59132, Note_off_c, 0, 63, 100
2, 59136, Note_on_c, 0, 62, 110
2, 59228, Note_off_c, 0, 62, 100
2, 59232, Note_on_c, 0, 65, 110
2, 59324, Note_off_c, 0, 65, 100
2, 59328, Note_on_c, 0, 68, 110
2, 59420, Note_off_c, 0, 68, 100
2, 59424, Note_on_c, 0, 72, 110
2, 59516, Note_off_c, 0, 72, 100
2, 59520, Note_on_c, 0, 70, 110
2, 59612, Note_off_c, 0, 70, 100
2, 59616, Note_on_c, 0, 72, 110
2, 59708, Note_off_c, 0, 72, 100
2, 59712, Note_on_c, 0, 70, 110
2, 59804, Note_off_c, 0, 70, 100
2, 59808, Note_on_c, 0, 68, 110
2, 59900, Note_off_c, 0, 68, 100
2, 59904, Note_on_c, 0, 67, 110
2, 59996, Note_off_c, 0, 67, 100
2, 60000, Note_on_c, 0, 68, 110
2, 60092, Note_off_c, 0, 68, 100
2, 60096, Note_on_c, 0, 67, 110
2, 60188, Note_off_c, 0, 67, 100
2, 60192, Note_on_c, 0, 65, 110
2, 60284, Note_off_c, 0, 65, 100
2, 60288, Note_on_c, 0, 67, 110
2, 60380, Note_off_c, 0, 67, 100
2, 60384, Note_on_c, 0, 70, 110
2, 60476, Note_off_c, 0, 70, 100
2, 60480, Note_on_c, 0, 68, 110
2, 60572, Note_off_c, 0, 68, 100
2, 60576, Note_on_c, 0, 67, 110
2, 60668, Note_off_c, 0, 67, 100
2, 60672, Note_on_c, 0, 65, 110
2, 60764, Note_off_c, 0, 65, 100
2, 60768, Note_on_c, 0, 63, 110
2, 60860, Note_off_c, 0, 63, 100
2, 60864, Note_on_c, 0, 62, 110
2, 60956, Note_off_c, 0, 62, 100
2, 60960, Note_on_c, 0, 63, 110
2, 61052, Note_off_c, 0, 63, 100
2, 61056, Note_on_c, 0, 65, 110
2, 61148, Note_off_c, 0, 65, 100
2, 61152, Note_on_c, 0, 59, 110
2, 61244, Note_off_c, 0, 59, 100
2, 61248, Note_on_c, 0, 58, 110
2, 61340, Note_off_c, 0, 58, 100
2, 61344, Note_on_c, 0, 59, 110
2, 61436, Note_off_c, 0, 59, 100
2, 61440, Note_on_c, 0, 58, 110
2, 61532, Note_off_c, 0, 58, 100
2, 61536, Note_on_c, 0, 62, 110
2, 61628, Note_off_c, 0, 62, 100
2, 61632, Note_on_c, 0, 65, 110
2, 61724, Note_off_c, 0, 65, 100
2, 61728, Note_on_c, 0, 68, 110
2, 61820, Note_off_c, 0, 68, 100
2, 61824, Note_on_c, 0, 67, 110
2, 62012, Note_off_c, 0, 67, 100
2, 62016, Note_on_c, 0, 65, 110
2, 62016, Note_on_c, 0, 53, 110
2, 62204, Note_off_c, 0, 65, 100
2, 62204, Note_off_c, 0, 53, 100
2, 62208, Note_on_c, 0, 70, 110
2, 62208, Note_on_c, 0, 58, 110
2, 62396, Note_off_c, 0, 70, 100
2, 62396, Note_off_c, 0, 58, 100
2, 62400, Note_on_c, 0, 68, 110
2, 62400, Note_on_c, 0, 56, 110
2, 62588, Note_off_c, 0, 68, 100
2, 62588, Note_off_c, 0, 56, 100
2, 62592, Note_on_c, 0, 70, 110
2, 62592, Note_on_c, 0, 58, 110
2, 62780, Note_off_c, 0, 70, 100
2, 62780, Note_off_c, 0, 58, 100
2, 62784, Note_on_c, 0, 73, 110
2, 62784, Note_on_c, 0, 61, 110
2, 62972, Note_off_c, 0, 73, 100
2, 62972, Note_off_c, 0, 61, 100
2, 62976, Note_on_c, 0, 72, 110
2, 62976, Note_on_c, 0, 60, 110
2, 63164, Note_off_c, 0, 72, 100
2, 63164, Note_off_c, 0, 60, 100
2, 63168, Note_on_c, 0, 67, 110
2, 63168, Note_on_c, 0, 55, 110
2, 63356, Note_off_c, 0, 67, 100
2, 63356, Note_off_c, 0, 55, 100
2, 63552, Note_on_c, 0, 67, 110
2, 63552, Note_on_c, 0, 55, 110
2, 63740, Note_off_c, 0, 67, 100
2, 63740, Note_off_c, 0, 55, 100
2, 63744, Note_on_c, 0, 72, 110
2, 63744, Note_on_c, 0, 60, 110
2, 63932, Note_off_c, 0, 72, 100
2, 63932, Note_off_c, 0, 60, 100
2, 63936, Note_on_c, 0, 70, 110
2, 63936, Note_on_c, 0, 58, 110
2, 64124, Note_off_c, 0, 70, 100
2, 64124, Note_off_c, 0, 58, 100
2, 64128, Note_on_c, 0, 72, 110
2, 64128, Note_on_c, 0, 60, 110
2, 64316, Note_off_c, 0, 72, 100
2, 64316, Note_off_c, 0, 60, 100
2, 64320, Note_on_c, 0, 75, 110
2, 64320, Note_on_c, 0, 63, 110
2, 64508, Note_off_c, 0, 75, 100
2, 64508, Note_off_c, 0, 63, 100
2, 64512, Note_on_c, 0, 75, 110
2, 64512, Note_on_c, 0, 63, 110
2, 64700, Note_off_c, 0, 75, 100
2, 64700, Note_off_c, 0, 63, 100
2, 64704, Note_on_c, 0, 69, 110
2, 64704, Note_on_c, 0, 57, 110
2, 64892, Note_off_c, 0, 69, 100
2, 64892, Note_off_c, 0, 57, 100
2, 65088, Note_on_c, 0, 70, 110
2, 65088, Note_on_c, 0, 58, 110
2, 65276, Note_off_c, 0, 70, 100
2, 65276, Note_off_c, 0, 58, 100
2, 65280, Note_on_c, 0, 73, 110
2, 65280, Note_on_c, 0, 61, 110
2, 65468, Note_off_c, 0, 73, 100
2, 65468, Note_off_c, 0, 61, 100
2, 65472, Note_on_c, 0, 72, 110
2, 65472, Note_on_c, 0, 60, 110
2, 65660, Note_off_c, 0, 72, 100
2, 65660, Note_off_c, 0, 60, 100
2, 65664, Note_on_c, 0, 73, 110
2, 65664, Note_on_c, 0, 61, 110
2, 65852, Note_off_c, 0, 73, 100
2, 65852, Note_off_c, 0, 61, 100
2, 65856, Note_on_c, 0, 77, 110
2, 65856, Note_on_c, 0, 65, 110
2, 66044, Note_off_c, 0, 77, 100
2, 66044, Note_off_c, 0, 65, 100
2, 66048, Note_on_c, 0, 75, 110
2, 66048, Note_on_c, 0, 63, 110
2, 66236, Note_off_c, 0, 75, 100
2, 66236, Note_off_c, 0, 63, 100
2, 66240, Note_on_c, 0, 70, 110
2, 66332, Note_off_c, 0, 70, 100
2, 66336, Note_on_c, 0, 68, 110
2, 66428, Note_off_c, 0, 68, 100
2, 66432, Note_on_c, 0, 67, 110
2, 66524, Note_off_c, 0, 67, 100
2, 66528, Note_on_c, 0, 63, 110
2, 66620, Note_off_c, 0, 63, 100
2, 66624, Note_on_c, 0, 65, 110
2, 66716, Note_off_c, 0, 65, 100
2, 66720, Note_on_c, 0, 67, 110
2, 66812, Note_off_c, 0, 67, 100
2, 66816, Note_on_c, 0, 68, 110
2, 66908, Note_off_c, 0, 68, 100
2, 66912, Note_on_c, 0, 67, 110
2, 67004, Note_off_c, 0, 67, 100
2, 67008, Note_on_c, 0, 68, 110
2, 67100, Note_off_c, 0, 68, 100
2, 67104, Note_on_c, 0, 70, 110
2, 67196, Note_off_c, 0, 70, 100
2, 67200, Note_on_c, 0, 72, 110
2, 67200, Note_on_c, 0, 80, 110
2, 67292, Note_off_c, 0, 72, 100
2, 67296, Note_on_c, 0, 73, 110
2, 67388, Note_off_c, 0, 73, 100
2, 67392, Note_on_c, 0, 72, 110
2, 67484, Note_off_c, 0, 72, 100
2, 67488, Note_on_c, 0, 70, 110
2, 67580, Note_off_c, 0, 80, 100
2, 67580, Note_off_c, 0, 70, 100
2, 67584, Note_on_c, 0, 84, 110
2, 67964, Note_off_c, 0, 84, 100
2, 67968, Key_signature, -4, "minor"
2, 67968, Note_on_c, 0, 79, 110
2, 68444, Note_off_c, 0, 79, 100
2, 68448, Note_on_c, 0, 82, 110
2, 68540, Note_off_c, 0, 82, 100
2, 68544, Note_on_c, 0, 85, 110
2, 68636, Note_off_c, 0, 85, 100
2, 68640, Note_on_c, 0, 89, 110
2, 68732, Note_off_c, 0, 89, 100
2, 68736, Note_on_c, 0, 87, 110
2, 68828, Note_off_c, 0, 87, 100
2, 68832, Note_on_c, 0, 89, 110
2, 68924, Note_off_c, 0, 89, 100
2, 68928, Note_on_c, 0, 87, 110
2, 69020, Note_off_c, 0, 87, 100
2, 69024, Note_on_c, 0, 85, 110
2, 69116, Note_off_c, 0, 85, 100
2, 69120, Note_on_c, 0, 84, 110
2, 69212, Note_off_c, 0, 84, 100
2, 69216, Note_on_c, 0, 85, 110
2, 69308, Note_off_c, 0, 85, 100
2, 69312, Note_on_c, 0, 84, 110
2, 69404, Note_off_c, 0, 84, 100
2, 69408, Note_on_c, 0, 82, 110
2, 69500, Note_off_c, 0, 82, 100
2, 69504, Note_on_c, 0, 84, 110
2, 69596, Note_off_c, 0, 84, 100
2, 69600, Note_on_c, 0, 85, 110
2, 69692, Note_off_c, 0, 85, 100
2, 69696, Note_on_c, 0, 84, 110
2, 69788, Note_off_c, 0, 84, 100
2, 69792, Note_on_c, 0, 82, 110
2, 69884, Note_off_c, 0, 82, 100
2, 69888, Note_on_c, 0, 81, 110
2, 69980, Note_off_c, 0, 81, 100
2, 69984, Note_on_c, 0, 84, 110
2, 70076, Note_off_c, 0, 84, 100
2, 70080, Note_on_c, 0, 87, 110
2, 70172, Note_off_c, 0, 87, 100
2, 70176, Note_on_c, 0, 90, 110
2, 70268, Note_off_c, 0, 90, 100
2, 70272, Note_on_c, 0, 89, 110
2, 70364, Note_off_c, 0, 89, 100
2, 70368, Note_on_c, 0, 90, 110
2, 70460, Note_off_c, 0, 90, 100
2, 70464, Note_on_c, 0, 89, 110
2, 70556, Note_off_c, 0, 89, 100
2, 70560, Note_on_c, 0, 87, 110
2, 70652, Note_off_c, 0, 87, 100
2, 70656, Note_on_c, 0, 85, 110
2, 70748, Note_off_c, 0, 85, 100
2, 70752, Note_on_c, 0, 87, 110
2, 70844, Note_off_c, 0, 87, 100
2, 70848, Note_on_c, 0, 85, 110
2, 70940, Note_off_c, 0, 85, 100
2, 70944, Note_on_c, 0, 84, 110
2, 71036, Note_off_c, 0, 84, 100
2, 71040, Note_on_c, 0, 85, 110
2, 71132, Note_off_c, 0, 85, 100
2, 71136, Note_on_c, 0, 87, 110
2, 71228, Note_off_c, 0, 87, 100
2, 71232, Note_on_c, 0, 85, 110
2, 71324, Note_off_c, 0, 85, 100
2, 71328, Note_on_c, 0, 84, 110
2, 71420, Note_off_c, 0, 84, 100
2, 71424, Note_on_c, 0, 82, 110
2, 71516, Note_off_c, 0, 82, 100
2, 71520, Note_on_c, 0, 85, 110
2, 71612, Note_off_c, 0, 85, 100
2, 71616, Note_on_c, 0, 89, 110
2, 71708, Note_off_c, 0, 89, 100
2, 71712, Note_on_c, 0, 92, 110
2, 71804, Note_off_c, 0, 92, 100
2, 71808, Note_on_c, 0, 90, 110
2, 71900, Note_off_c, 0, 90, 100
2, 71904, Note_on_c, 0, 92, 110
2, 71996, Note_off_c, 0, 92, 100
2, 72000, Note_on_c, 0, 90, 110
2, 72092, Note_off_c, 0, 90, 100
2, 72096, Note_on_c, 0, 89, 110
2, 72188, Note_off_c, 0, 89, 100
2, 72192, Note_on_c, 0, 87, 110
2, 72284, Note_off_c, 0, 87, 100
2, 72288, Note_on_c, 0, 89, 110
2, 72380, Note_off_c, 0, 89, 100
2, 72384, Note_on_c, 0, 87, 110
2, 72476, Note_off_c, 0, 87, 100
2, 72480, Note_on_c, 0, 85, 110
2, 72572, Note_off_c, 0, 85, 100
2, 72576, Note_on_c, 0, 87, 110
2, 72668, Note_off_c, 0, 87, 100
2, 72672, Note_on_c, 0, 89, 110
2, 72764, Note_off_c, 0, 89, 100
2, 72768, Note_on_c, 0, 87, 110
2, 72860, Note_off_c, 0, 87, 100
2, 72864, Note_on_c, 0, 85, 110
2, 72956, Note_off_c, 0, 85, 100
2, 72960, Note_on_c, 0, 84, 110
2, 73052, Note_off_c, 0, 84, 100
2, 73056, Note_on_c, 0, 87, 110
2, 73148, Note_off_c, 0, 87, 100
2, 73152, Note_on_c, 0, 90, 110
2, 73244, Note_off_c, 0, 90, 100
2, 73248, Note_on_c, 0, 94, 110
2, 73340, Note_off_c, 0, 94, 100
2, 73344, Note_on_c, 0, 92, 110
2, 73436, Note_off_c, 0, 92, 100
2, 73440, Note_on_c, 0, 94, 110
2, 73532, Note_off_c, 0, 94, 100
2, 73536, Note_on_c, 0, 92, 110
2, 73628, Note_off_c, 0, 92, 100
2, 73632, Note_on_c, 0, 90, 110
2, 73724, Note_off_c, 0, 90, 100
2, 73728, Note_on_c, 0, 89, 110
2, 73820, Note_off_c, 0, 89, 100
2, 73824, Note_on_c, 0, 90, 110
2, 73916, Note_off_c, 0, 90, 100
2, 73920, Note_on_c, 0, 89, 110
2, 74012, Note_off_c, 0, 89, 100
2, 74016, Note_on_c, 0, 87, 110
2, 74108, Note_off_c, 0, 87, 100
2, 74112, Control_c, 0, 64, 127
2, 74112, Note_on_c, 0, 89, 120
2, 74880, Note_on_c, 0, 37, 120
2, 75640, Control_c, 0, 64, 0
2, 75644, Note_off_c, 0, 89, 100
2, 75644, Note_off_c, 0, 37, 100
2, 75648, Control_c, 0, 64, 127
2, 75648, Note_on_c, 0, 38, 120
2, 76416, Note_on_c, 0, 95, 120
2, 77176, Control_c, 0, 64, 0
2, 77180, Note_off_c, 0, 38, 100
2, 77180, Note_off_c, 0, 95, 100
2, 77184, Control_c, 0, 64, 127
2, 77568, Note_on_c, 0, 87, 120
2, 78336, Note_on_c, 0, 84, 80
2, 78624, Note_on_c, 0, 80, 80
2, 78712, Control_c, 0, 64, 0
2, 78716, Note_off_c, 0, 87, 100
2, 78716, Note_off_c, 0, 84, 100
2, 78720, Note_on_c, 0, 80, 80
2, 78724, Note_off_c, 0, 80, 100
2, 79100, Note_off_c, 0, 80, 100
2, 79104, Note_on_c, 0, 79, 80
2, 79292, Note_off_c, 0, 79, 100
2, 79392, Note_on_c, 0, 77, 80
2, 79484, Note_off_c, 0, 77, 100
2, 79488, Note_on_c, 0, 77, 80
2, 79868, Note_off_c, 0, 77, 100
2, 79872, Note_on_c, 0, 75, 80
2, 80060, Note_off_c, 0, 75, 100
2, 80160, Note_on_c, 0, 85, 80
2, 80160, Note_on_c, 0, 79, 80
2, 80160, Note_on_c, 0, 73, 80
2, 80252, Note_off_c, 0, 85, 100
2, 80252, Note_off_c, 0, 79, 100
2, 80252, Note_off_c, 0, 73, 100
2, 80256, Note_on_c, 0, 85, 80
2, 80256, Note_on_c, 0, 79, 80
2, 80256, Note_on_c, 0, 73, 80
2, 80636, Note_off_c, 0, 85, 100
2, 80636, Note_off_c, 0, 79, 100
2, 80636, Note_off_c, 0, 73, 100
2, 80640, Note_on_c, 0, 84, 80
2, 80640, Note_on_c, 0, 80, 80
2, 80640, Note_on_c, 0, 72, 80
2, 81020, Note_off_c, 0, 84, 100
2, 81020, Note_off_c, 0, 80, 100
2, 81020, Note_off_c, 0, 72, 100
2, 81056, Note_on_c, 0, 87, 80
2, 81084, Note_off_c, 0, 87, 100
2, 81088, Note_on_c, 0, 86, 80
2, 81116, Note_off_c, 0, 86, 100
2, 81120, Note_on_c, 0, 87, 80
2, 81148, Note_off_c, 0, 87, 100
2, 81152, Note_on_c, 0, 89, 80
2, 81180, Note_off_c, 0, 89, 100
2, 81184, Note_on_c, 0, 87, 80
2, 81212, Note_off_c, 0, 87, 100
2, 81216, Note_on_c, 0, 83, 80
2, 81244, Note_off_c, 0, 83, 100
2, 81248, Note_on_c, 0, 84, 80
2, 81276, Note_off_c, 0, 84, 100
2, 81280, Note_on_c, 0, 83, 80
2, 81308, Note_off_c, 0, 83, 100
2, 81312, Note_on_c, 0, 84, 80
2, 81340, Note_off_c, 0, 84, 100
2, 81344, Note_on_c, 0, 85, 80
2, 81372, Note_off_c, 0, 85, 100
2, 81376, Note_on_c, 0, 84, 80
2, 81404, Note_off_c, 0, 84, 100
2, 81408, Note_on_c, 0, 79, 80
2, 81468, Note_off_c, 0, 79, 100
2, 81472, Note_on_c, 0, 80, 80
2, 81532, Note_off_c, 0, 80, 100
2, 81536, Note_on_c, 0, 82, 80
2, 81596, Note_off_c, 0, 82, 100
2, 81600, Note_on_c, 0, 80, 80
2, 81660, Note_off_c, 0, 80, 100
2, 81664, Note_on_c, 0, 79, 80
2, 81724, Note_off_c, 0, 79, 100
2, 81728, Note_on_c, 0, 80, 80
2, 81788, Note_off_c, 0, 80, 100
2, 81792, Note_on_c, 0, 80, 80
2, 81864, Note_off_c, 0, 80, 100
2, 81868, Note_on_c, 0, 79, 80
2, 81940, Note_off_c, 0, 79, 100
2, 81944, Note_on_c, 0, 80, 80
2, 82016, Note_off_c, 0, 80, 100
2, 82020, Note_on_c, 0, 82, 80
2, 82092, Note_off_c, 0, 82, 100
2, 82096, Note_on_c, 0, 80, 80
2, 82168, Note_off_c, 0, 80, 100
2, 82176, Note_on_c, 0, 79, 80
2, 82364, Note_off_c, 0, 79, 100
2, 82464, Note_on_c, 0, 77, 80
2, 82556, Note_off_c, 0, 77, 100
2, 82560, Note_on_c, 0, 77, 80
2, 82632, Note_off_c, 0, 77, 100
2, 82636, Note_on_c, 0, 75, 80
2, 82708, Note_off_c, 0, 75, 100
2, 82712, Note_on_c, 0, 77, 80
2, 82784, Note_off_c, 0, 77, 100
2, 82788, Note_on_c, 0, 79, 80
2, 82860, Note_off_c, 0, 79, 100
2, 82864, Note_on_c, 0, 77, 80
2, 82936, Note_off_c, 0, 77, 100
2, 82944, Note_on_c, 0, 75, 80
2, 83132, Note_off_c, 0, 75, 100
2, 83232, Note_on_c, 0, 85, 80
2, 83232, Note_on_c, 0, 79, 80
2, 83232, Note_on_c, 0, 73, 80
2, 83324, Note_off_c, 0, 85, 100
2, 83324, Note_off_c, 0, 79, 100
2, 83324, Note_off_c, 0, 73, 100
2, 83328, Note_on_c, 0, 85, 80
2, 83328, Note_on_c, 0, 79, 80
2, 83328, Note_on_c, 0, 73, 80
2, 83708, Note_off_c, 0, 85, 100
2, 83708, Note_off_c, 0, 79, 100
2, 83708, Note_off_c, 0, 73, 100
2, 83712, Note_on_c, 0, 84, 80
2, 83712, Note_on_c, 0, 80, 80
2, 83712, Note_on_c, 0, 72, 80
2, 84092, Note_off_c, 0, 84, 100
2, 84092, Note_off_c, 0, 80, 100
2, 84092, Note_off_c, 0, 72, 100
2, 84768, Note_on_c, 0, 89, 80
2, 84768, Note_on_c, 0, 82, 80
2, 84768, Note_on_c, 0, 79, 80
2, 84860, Note_off_c, 0, 89, 100
2, 84860, Note_off_c, 0, 82, 100
2, 84860, Note_off_c, 0, 79, 100
2, 84864, Note_on_c, 0, 89, 80
2, 84864, Note_on_c, 0, 82, 80
2, 84864, Note_on_c, 0, 79, 80
2, 85244, Note_off_c, 0, 89, 100
2, 85244, Note_off_c, 0, 82, 100
2, 85244, Note_off_c, 0, 79, 100
2, 85248, Note_on_c, 0, 87, 80
2, 85248, Note_on_c, 0, 80, 80
2, 85248, Note_on_c, 0, 75, 80
2, 85628, Note_off_c, 0, 87, 100
2, 85628, Note_off_c, 0, 80, 100
2, 85628, Note_off_c, 0, 75, 100
2, 86208, Note_on_c, 0, 92, 120
2, 86300, Note_off_c, 0, 92, 100
2, 86304, Note_on_c, 0, 95, 120
2, 86396, Note_off_c, 0, 95, 100
2, 86400, Note_on_c, 0, 92, 120
2, 86492, Note_off_c, 0, 92, 100
2, 86496, Note_on_c, 0, 95, 120
2, 86588, Note_off_c, 0, 95, 100
2, 86592, Note_on_c, 0, 89, 120
2, 86684, Note_off_c, 0, 89, 100
2, 86688, Note_on_c, 0, 92, 120
2, 86780, Note_off_c, 0, 92, 100
2, 86784, Note_on_c, 0, 86, 120
2, 86876, Note_off_c, 0, 86, 100
2, 86880, Note_on_c, 0, 89, 120
2, 86972, Note_off_c, 0, 89, 100
2, 86976, Note_on_c, 0, 83, 120
2, 87068, Note_off_c, 0, 83, 100
2, 87072, Note_on_c, 0, 86, 120
2, 87164, Note_off_c, 0, 86, 100
2, 87168, Note_on_c, 0, 80, 120
2, 87260, Note_off_c, 0, 80, 100
2, 87264, Note_on_c, 0, 83, 120
2, 87356, Note_off_c, 0, 83, 100
2, 87360, Note_on_c, 0, 77, 120
2, 87452, Note_off_c, 0, 77, 100
2, 87456, Note_on_c, 0, 80, 120
2, 87548, Note_off_c, 0, 80, 100
2, 87552, Note_on_c, 0, 74, 120
2, 87644, Note_off_c, 0, 74, 100
2, 87648, Note_on_c, 0, 77, 120
2, 87740, Note_off_c, 0, 77, 100
2, 87744, Note_on_c, 0, 71, 120
2, 87836, Note_off_c, 0, 71, 100
2, 87840, Note_on_c, 0, 74, 120
2, 87936, Note_on_c, 0, 68, 120
2, 87940, Note_off_c, 0, 74, 100
2, 88028, Note_off_c, 0, 68, 100
2, 88032, Note_on_c, 0, 71, 120
2, 88124, Note_off_c, 0, 71, 100
2, 88128, Note_on_c, 0, 65, 120
2, 88220, Note_off_c, 0, 65, 100
2, 88224, Note_on_c, 0, 68, 120
2, 88316, Note_off_c, 0, 68, 100
2, 88320, Note_on_c, 0, 62, 80
2, 88412, Note_off_c, 0, 62, 100
2, 88416, Note_on_c, 0, 63, 82
2, 88508, Note_off_c, 0, 63, 100
2, 88512, Note_on_c, 0, 65, 85
2, 88604, Note_off_c, 0, 65, 100
2, 88608, Note_on_c, 0, 67, 88
2, 88700, Note_off_c, 0, 67, 100
2, 88704, Note_on_c, 0, 68, 91
2, 88796, Note_off_c, 0, 68, 100
2, 88800, Note_on_c, 0, 70, 94
2, 88892, Note_off_c, 0, 70, 100
2, 88896, Note_on_c, 0, 72, 96
2, 88988, Note_off_c, 0, 72, 100
2, 88992, Note_on_c, 0, 73, 99
2, 89084, Note_off_c, 0, 73, 100
2, 89088, Note_on_c, 0, 75, 102
2, 89180, Note_off_c, 0, 75, 100
2, 89184, Note_on_c, 0, 76, 105
2, 89276, Note_off_c, 0, 76, 100
2, 89280, Note_on_c, 0, 77, 108
2, 89372, Note_off_c, 0, 77, 100
2, 89376, Note_on_c, 0, 75, 110
2, 89468, Note_off_c, 0, 75, 100
2, 89472, Note_on_c, 0, 77, 120
2, 89552, Note_on_c, 0, 75, 120
2, 89564, Note_off_c, 0, 77, 100
2, 89644, Note_off_c, 0, 75, 100
2, 89664, Note_on_c, 0, 72, 120
2, 89756, Note_off_c, 0, 72, 100
2, 89760, Note_on_c, 0, 68, 120
2, 89852, Note_off_c, 0, 68, 100
2, 89856, Note_on_c, 0, 77, 120
2, 89948, Note_off_c, 0, 77, 100
2, 89952, Note_on_c, 0, 75, 120
2, 90044, Note_off_c, 0, 75, 100
2, 90048, Note_on_c, 0, 72, 120
2, 90140, Note_off_c, 0, 72, 100
2, 90144, Note_on_c, 0, 68, 120
2, 90236, Note_off_c, 0, 68, 100
2, 90240, Note_on_c, 0, 77, 120
2, 90332, Note_off_c, 0, 77, 100
2, 90336, Note_on_c, 0, 75, 120
2, 90428, Note_off_c, 0, 75, 100
2, 90432, Note_on_c, 0, 73, 120
2, 90524, Note_off_c, 0, 73, 100
2, 90528, Note_on_c, 0, 70, 120
2, 90620, Note_off_c, 0, 70, 100
2, 90624, Note_on_c, 0, 77, 120
2, 90716, Note_off_c, 0, 77, 100
2, 90720, Note_on_c, 0, 75, 120
2, 90812, Note_off_c, 0, 75, 100
2, 90816, Note_on_c, 0, 73, 120
2, 90908, Note_off_c, 0, 73, 100
2, 90912, Note_on_c, 0, 70, 120
2, 91004, Note_off_c, 0, 70, 100
2, 91008, Note_on_c, 0, 82, 120
2, 91100, Note_off_c, 0, 82, 100
2, 91104, Note_on_c, 0, 80, 120
2, 91196, Note_off_c, 0, 80, 100
2, 91200, Note_on_c, 0, 75, 120
2, 91292, Note_off_c, 0, 75, 100
2, 91296, Note_on_c, 0, 72, 120
2, 91388, Note_off_c, 0, 72, 100
2, 91392, Note_on_c, 0, 82, 120
2, 91484, Note_off_c, 0, 82, 100
2, 91488, Note_on_c, 0, 80, 120
2, 91580, Note_off_c, 0, 80, 100
2, 91584, Note_on_c, 0, 75, 120
2, 91676, Note_off_c, 0, 75, 100
2, 91680, Note_on_c, 0, 72, 120
2, 91772, Note_off_c, 0, 72, 100
2, 91776, Note_on_c, 0, 82, 120
2, 91868, Note_off_c, 0, 82, 100
2, 91872, Note_on_c, 0, 80, 120
2, 91964, Note_off_c, 0, 80, 100
2, 91968, Note_on_c, 0, 77, 120
2, 92060, Note_off_c, 0, 77, 100
2, 92064, Note_on_c, 0, 73, 120
2, 92156, Note_off_c, 0, 73, 100
2, 92160, Note_on_c, 0, 87, 120
2, 92252, Note_off_c, 0, 87, 100
2, 92256, Note_on_c, 0, 85, 120
2, 92348, Note_off_c, 0, 85, 100
2, 92352, Note_on_c, 0, 80, 120
2, 92444, Note_off_c, 0, 80, 100
2, 92448, Note_on_c, 0, 73, 120
2, 92540, Note_off_c, 0, 73, 100
2, 92544, Note_on_c, 0, 87, 120
2, 92636, Note_off_c, 0, 87, 100
2, 92640, Note_on_c, 0, 85, 120
2, 92732, Note_off_c, 0, 85, 100
2, 92736, Note_on_c, 0, 80, 120
2, 92828, Note_off_c, 0, 80, 100
2, 92832, Note_on_c, 0, 73, 120
2, 92924, Note_off_c, 0, 73, 100
2, 92928, Note_on_c, 0, 87, 120
2, 93020, Note_off_c, 0, 87, 100
2, 93024, Note_on_c, 0, 85, 120
2, 93116, Note_off_c, 0, 85, 100
2, 93120, Note_on_c, 0, 80, 120
2, 93212, Note_off_c, 0, 80, 100
2, 93216, Note_on_c, 0, 73, 120
2, 93308, Note_off_c, 0, 73, 100
2, 93312, Note_on_c, 0, 85, 120
2, 93404, Note_off_c, 0, 85, 100
2, 93408, Note_on_c, 0, 84, 120
2, 93500, Note_off_c, 0, 84, 100
2, 93504, Note_on_c, 0, 80, 120
2, 93596, Note_off_c, 0, 80, 100
2, 93600, Note_on_c, 0, 75, 120
2, 93692, Note_off_c, 0, 75, 100
2, 93696, Note_on_c, 0, 85, 120
2, 93788, Note_off_c, 0, 85, 100
2, 93792, Note_on_c, 0, 84, 120
2, 93884, Note_off_c, 0, 84, 100
2, 93888, Note_on_c, 0, 80, 120
2, 93980, Note_off_c, 0, 80, 100
2, 93984, Note_on_c, 0, 75, 120
2, 94076, Note_off_c, 0, 75, 100
2, 94080, Note_on_c, 0, 85, 120
2, 94172, Note_off_c, 0, 85, 100
2, 94176, Note_on_c, 0, 84, 120
2, 94268, Note_off_c, 0, 84, 100
2, 94272, Note_on_c, 0, 80, 120
2, 94364, Note_off_c, 0, 80, 100
2, 94368, Note_on_c, 0, 75, 120
2, 94460, Note_off_c, 0, 75, 100
2, 94464, Note_on_c, 0, 84, 120
2, 94556, Note_off_c, 0, 84, 100
2, 94560, Note_on_c, 0, 82, 120
2, 94652, Note_off_c, 0, 82, 100
2, 94656, Note_on_c, 0, 79, 120
2, 94748, Note_off_c, 0, 79, 100
2, 94752, Note_on_c, 0, 73, 120
2, 94844, Note_off_c, 0, 73, 100
2, 94848, Note_on_c, 0, 80, 120
2, 94848, Note_on_c, 0, 75, 120
2, 94848, Note_on_c, 0, 72, 120
2, 95036, Note_off_c, 0, 75, 100
2, 95036, Note_off_c, 0, 72, 100
2, 95040, Note_on_c, 0, 75, 120
2, 95040, Note_on_c, 0, 72, 120
2, 95228, Note_off_c, 0, 80, 100
2, 95228, Note_off_c, 0, 75, 100
2, 95228, Note_off_c, 0, 72, 100
2, 95232, Note_on_c, 0, 84, 120
2, 95232, Note_on_c, 0, 75, 120
2, 95232, Note_on_c, 0, 72, 120
2, 95420, Note_off_c, 0, 75, 100
2, 95420, Note_off_c, 0, 72, 100
2, 95424, Note_on_c, 0, 75, 120
2, 95424, Note_on_c, 0, 72, 120
2, 95612, Note_off_c, 0, 84, 100
2, 95612, Note_off_c, 0, 75, 100
2, 95612, Note_off_c, 0, 72, 100
2, 95616, Note_on_c, 0, 79, 120
2, 95616, Note_on_c, 0, 75, 120
2, 95616, Note_on_c, 0, 70, 120
2, 95804, Note_off_c, 0, 75, 100
2, 95804, Note_off_c, 0, 70, 100
2, 95808, Note_on_c, 0, 75, 120
2, 95808, Note_on_c, 0, 70, 120
2, 95996, Note_off_c, 0, 75, 100
2, 95996, Note_off_c, 0, 70, 100
2, 96000, Note_on_c, 0, 75, 120
2, 96000, Note_on_c, 0, 70, 120
2, 96188, Note_off_c, 0, 75, 100
2, 96188, Note_off_c, 0, 70, 100
2, 96192, Note_on_c, 0, 75, 120
2, 96192, Note_on_c, 0, 70, 120
2, 96380, Note_off_c, 0, 79, 100
2, 96380, Note_off_c, 0, 75, 100
2, 96380, Note_off_c, 0, 70, 100
2, 96384, Note_on_c, 0, 75, 120
2, 96384, Note_on_c, 0, 68, 120
2, 96384, Note_on_c, 0, 78, 120
2, 96572, Note_off_c, 0, 75, 100
2, 96572, Note_off_c, 0, 68, 100
2, 96576, Note_on_c, 0, 75, 120
2, 96576, Note_on_c, 0, 68, 120
2, 96764, Note_off_c, 0, 78, 100
2, 96764, Note_off_c, 0, 75, 100
2, 96764, Note_off_c, 0, 68, 100
2, 96768, Note_on_c, 0, 75, 120
2, 96768, Note_on_c, 0, 68, 120
2, 96768, Note_on_c, 0, 80, 120
2, 96956, Note_off_c, 0, 75, 100
2, 96956, Note_off_c, 0, 68, 100
2, 96960, Note_on_c, 0, 75, 120
2, 96960, Note_on_c, 0, 68, 120
2, 97148, Note_off_c, 0, 80, 100
2, 97148, Note_off_c, 0, 75, 100
2, 97148, Note_off_c, 0, 68, 100
2, 97152, Note_on_c, 0, 77, 120
2, 97152, Note_on_c, 0, 73, 120
2, 97152, Note_on_c, 0, 68, 120
2, 97340, Note_off_c, 0, 73, 100
2, 97340, Note_off_c, 0, 68, 100
2, 97344, Note_on_c, 0, 73, 120
2, 97344, Note_on_c, 0, 68, 120
2, 97532, Note_off_c, 0, 73, 100
2, 97532, Note_off_c, 0, 68, 100
2, 97536, Note_on_c, 0, 73, 120
2, 97536, Note_on_c, 0, 68, 120
2, 97724, Note_off_c, 0, 73, 100
2, 97724, Note_off_c, 0, 68, 100
2, 97728, Note_on_c, 0, 73, 120
2, 97728, Note_on_c, 0, 68, 120
2, 97916, Note_off_c, 0, 77, 100
2, 97916, Note_off_c, 0, 73, 100
2, 97916, Note_off_c, 0, 68, 100
2, 97920, Note_on_c, 0, 76, 120
2, 97920, Note_on_c, 0, 73, 120
2, 97920, Note_on_c, 0, 68, 120
2, 98108, Note_off_c, 0, 73, 100
2, 98108, Note_off_c, 0, 68, 100
2, 98112, Note_on_c, 0, 73, 120
2, 98112, Note_on_c, 0, 68, 120
2, 98300, Note_off_c, 0, 76, 100
2, 98300, Note_off_c, 0, 73, 100
2, 98300, Note_off_c, 0, 68, 100
2, 98304, Note_on_c, 0, 80, 120
2, 98304, Note_on_c, 0, 73, 120
2, 98304, Note_on_c, 0, 68, 120
2, 98492, Note_off_c, 0, 73, 100
2, 98492, Note_off_c, 0, 68, 100
2, 98496, Note_on_c, 0, 73, 120
2, 98496, Note_on_c, 0, 68, 120
2, 98684, Note_off_c, 0, 80, 100
2, 98684, Note_off_c, 0, 73, 100
2, 98684, Note_off_c, 0, 68, 100
2, 98688, Note_on_c, 0, 75, 120
2, 98688, Note_on_c, 0, 72, 120
2, 98688, Note_on_c, 0, 68, 120
2, 99068, Note_off_c, 0, 75, 100
2, 99068, Note_off_c, 0, 72, 100
2, 99068, Note_off_c, 0, 68, 100
2, 99072, Note_on_c, 0, 80, 120
2, 99072, Note_on_c, 0, 68, 120
2, 99356, Note_off_c, 0, 80, 100
2, 99356, Note_off_c, 0, 68, 100
2, 99360, Note_on_c, 0, 84, 120
2, 99360, Note_on_c, 0, 72, 120
2, 99452, Note_off_c, 0, 84, 100
2, 99452, Note_off_c, 0, 72, 100
2, 99456, Note_on_c, 0, 75, 120
2, 99456, Note_on_c, 0, 87, 120
2, 99644, Note_off_c, 0, 75, 100
2, 99644, Note_off_c, 0, 87, 100
2, 99648, Note_on_c, 0, 87, 120
2, 99836, Note_off_c, 0, 87, 100
2, 99840, Note_on_c, 0, 87, 120
2, 99888, Note_on_c, 0, 89, 120
2, 99932, Note_off_c, 0, 87, 100
2, 99936, Note_on_c, 0, 87, 120
2, 99980, Note_off_c, 0, 89, 100
2, 99984, Note_on_c, 0, 89, 120
2, 100028, Note_off_c, 0, 87, 100
2, 100032, Note_on_c, 0, 87, 120
2, 100076, Note_off_c, 0, 89, 100
2, 100080, Note_on_c, 0, 89, 120
2, 100124, Note_off_c, 0, 87, 100
2, 100128, Note_on_c, 0, 86, 120
2, 100172, Note_off_c, 0, 89, 100
2, 100176, Note_on_c, 0, 87, 120
2, 100220, Note_off_c, 0, 86, 100
2, 100224, Note_on_c, 0, 87, 120
2, 100268, Note_off_c, 0, 87, 100
2, 100412, Note_off_c, 0, 87, 100
2, 100416, Note_on_c, 0, 89, 120
2, 100508, Note_off_c, 0, 89, 100
2, 100512, Note_on_c, 0, 91, 120
2, 100604, Note_off_c, 0, 91, 100
2, 100608, Note_on_c, 0, 91, 120
2, 100796, Note_off_c, 0, 91, 100
2, 100800, Note_on_c, 0, 92, 120
2, 100988, Note_off_c, 0, 92, 100
2, 101184, Note_on_c, 0, 75, 120
2, 101372, Note_off_c, 0, 75, 100
2, 101376, Note_on_c, 0, 75, 120
2, 101424, Note_on_c, 0, 77, 120
2, 101468, Note_off_c, 0, 75, 100
2, 101472, Note_on_c, 0, 75, 120
2, 101516, Note_off_c, 0, 77, 100
2, 101520, Note_on_c, 0, 77, 120
2, 101564, Note_off_c, 0, 75, 100
2, 101568, Note_on_c, 0, 75, 120
2, 101612, Note_off_c, 0, 77, 100
2, 101616, Note_on_c, 0, 77, 120
2, 101660, Note_off_c, 0, 75, 100
2, 101664, Note_on_c, 0, 74, 120
2, 101708, Note_off_c, 0, 77, 100
2, 101712, Note_on_c, 0, 75, 120
2, 101756, Note_off_c, 0, 74, 100
2, 101760, Note_on_c, 0, 75, 120
2, 101804, Note_off_c, 0, 75, 100
2, 101948, Note_off_c, 0, 75, 100
2, 101952, Note_on_c, 0, 77, 120
2, 102044, Note_off_c, 0, 77, 100
2, 102048, Note_on_c, 0, 79, 120
2, 102140, Note_off_c, 0, 79, 100
2, 102144, Note_on_c, 0, 79, 120
2, 102332, Note_off_c, 0, 79, 100
2, 102336, Note_on_c, 0, 80, 120
2, 102524, Note_off_c, 0, 80, 100
2, 102720, Note_on_c, 0, 63, 120
2, 102908, Note_off_c, 0, 63, 100
2, 102912, Note_on_c, 0, 65, 120
2, 102960, Note_on_c, 0, 63, 120
2, 103004, Note_off_c, 0, 65, 100
2, 103008, Note_on_c, 0, 65, 120
2, 103052, Note_off_c, 0, 63, 100
2, 103056, Note_on_c, 0, 63, 120
2, 103100, Note_off_c, 0, 65, 100
2, 103104, Note_on_c, 0, 65, 120
2, 103148, Note_off_c, 0, 63, 100
2, 103196, Note_off_c, 0, 65, 100
2, 103200, Note_on_c, 0, 67, 120
2, 103292, Note_off_c, 0, 67, 100
2, 103296, Note_on_c, 0, 68, 120
2, 103388, Note_off_c, 0, 68, 100
2, 103392, Note_on_c, 0, 70, 120
2, 103484, Note_off_c, 0, 70, 100
2, 103488, Note_on_c, 0, 72, 120
2, 103580, Note_off_c, 0, 72, 100
2, 103584, Note_on_c, 0, 71, 120
2, 103676, Note_off_c, 0, 71, 100
2, 103680, Note_on_c, 0, 72, 120
2, 103772, Note_off_c, 0, 72, 100
2, 103776, Note_on_c, 0, 73, 120
2, 103868, Note_off_c, 0, 73, 100
2, 103872, Note_on_c, 0, 74, 120
2, 103964, Note_off_c, 0, 74, 100
2, 103968, Note_on_c, 0, 73, 120
2, 104060, Note_off_c, 0, 73, 100
2, 104064, Note_on_c, 0, 74, 120
2, 104156, Note_off_c, 0, 74, 100
2, 104160, Note_on_c, 0, 75, 120
2, 104252, Note_off_c, 0, 75, 100
2, 104256, Note_on_c, 0, 76, 120
2, 104348, Note_off_c, 0, 76, 100
2, 104352, Note_on_c, 0, 75, 120
2, 104444, Note_off_c, 0, 75, 100
2, 104448, Note_on_c, 0, 76, 120
2, 104540, Note_off_c, 0, 76, 100
2, 104544, Note_on_c, 0, 77, 120
2, 104636, Note_off_c, 0, 77, 100
2, 104640, Note_on_c, 0, 78, 120
2, 104732, Note_off_c, 0, 78, 100
2, 104736, Note_on_c, 0, 79, 120
2, 104828, Note_off_c, 0, 79, 100
2, 104832, Note_on_c, 0, 80, 120
2, 104924, Note_off_c, 0, 80, 100
2, 104928, Note_on_c, 0, 82, 120
2, 105020, Note_off_c, 0, 82, 100
2, 105024, Note_on_c, 0, 84, 120
2, 105116, Note_off_c, 0, 84, 100
2, 105120, Note_on_c, 0, 83, 120
2, 105212, Note_off_c, 0, 83, 100
2, 105216, Note_on_c, 0, 84, 120
2, 105308, Note_off_c, 0, 84, 100
2, 105312, Note_on_c, 0, 85, 120
2, 105404, Note_off_c, 0, 85, 100
2, 105408, Note_on_c, 0, 86, 120
2, 105500, Note_off_c, 0, 86, 100
2, 105504, Note_on_c, 0, 85, 120
2, 105596, Note_off_c, 0, 85, 100
2, 105600, Note_on_c, 0, 86, 120
2, 105692, Note_off_c, 0, 86, 100
2, 105696, Note_on_c, 0, 87, 120
2, 105788, Note_off_c, 0, 87, 100
2, 105792, Note_on_c, 0, 88, 120
2, 105884, Note_off_c, 0, 88, 100
2, 105888, Note_on_c, 0, 87, 120
2, 105980, Note_off_c, 0, 87, 100
2, 105984, Note_on_c, 0, 88, 120
2, 106076, Note_off_c, 0, 88, 100
2, 106080, Note_on_c, 0, 89, 120
2, 106172, Note_off_c, 0, 89, 100
2, 106176, Note_on_c, 0, 90, 120
2, 106268, Note_off_c, 0, 90, 100
2, 106272, Note_on_c, 0, 91, 120
2, 106364, Note_off_c, 0, 91, 100
2, 106368, Note_on_c, 0, 92, 120
2, 106368, Note_on_c, 0, 80, 120
2, 106748, Note_off_c, 0, 92, 100
2, 106748, Note_off_c, 0, 80, 100
2, 106752, Note_on_c, 0, 68, 120
2, 106752, Note_on_c, 0, 56, 120
2, 107132, Note_off_c, 0, 68, 100
2, 107132, Note_off_c, 0, 56, 100
2, 107712, Note_on_c, 0, 43, 120
2, 107772, Note_off_c, 0, 43, 100
2, 107776, Note_on_c, 0, 45, 120
2, 107836, Note_off_c, 0, 45, 100
2, 107840, Note_on_c, 0, 47, 120
2, 107900, Note_off_c, 0, 47, 100
2, 107904, Note_on_c, 0, 48, 120
2, 108284, Note_off_c, 0, 48, 100
2, 109248, Note_on_c, 0, 43, 120
2, 109308, Note_off_c, 0, 43, 100
2, 109312, Note_on_c, 0, 45, 120
2, 109372, Note_off_c, 0, 45, 100
2, 109376, Note_on_c, 0, 47, 120
2, 109436, Note_off_c, 0, 47, 100
2, 109440, Note_on_c, 0, 48, 120
2, 109820, Note_off_c, 0, 48, 100
2, 109824, Note_on_c, 0, 51, 120
2, 110192, Note_on_c, 0, 47, 120
2, 110204, Note_off_c, 0, 51, 100
2, 112108, Note_off_c, 0, 47, 100
2, 112320, Note_on_c, 0, 43, 120
2, 112380, Note_off_c, 0, 43, 100
2, 112384, Note_on_c, 0, 45, 120
2, 112444, Note_off_c, 0, 45, 100
2, 112448, Note_on_c, 0, 47, 120
2, 112508, Note_off_c, 0, 47, 100
2, 112512, Note_on_c, 0, 48, 120
2, 112892, Note_off_c, 0, 48, 100
2, 112896, Note_on_c, 0, 51, 120
2, 113276, Note_off_c, 0, 51, 100
2, 113280, Note_on_c, 0, 47, 120
2, 113852, Note_off_c, 0, 47, 100
2, 113856, Note_on_c, 0, 56, 120
2, 114044, Note_off_c, 0, 56, 100
2, 114048, Note_on_c, 0, 55, 120
2, 114236, Note_off_c, 0, 55, 100
2, 114240, Note_on_c, 0, 53, 120
2, 114428, Note_off_c, 0, 53, 100
2, 114432, Note_on_c, 0, 51, 120
2, 114620, Note_off_c, 0, 51, 100
2, 114624, Note_on_c, 0, 50, 120
2, 114812, Note_off_c, 0, 50, 100
2, 114816, Note_on_c, 0, 51, 120
2, 114908, Note_off_c, 0, 51, 100
2, 114912, Note_on_c, 0, 53, 120
2, 115004, Note_off_c, 0, 53, 100
2, 115008, Note_on_c, 0, 51, 120
2, 115100, Note_off_c, 0, 51, 100
2, 115104, Note_on_c, 0, 50, 120
2, 115196, Note_off_c, 0, 50, 100
2, 115200, Note_on_c, 0, 48, 120
2, 115388, Note_off_c, 0, 48, 100
2, 115392, Note_on_c, 0, 56, 120
2, 115580, Note_off_c, 0, 56, 100
2, 115584, Note_on_c, 0, 55, 110
2, 115772, Note_off_c, 0, 55, 100
2, 115776, Note_on_c, 0, 53, 100
2, 115964, Note_off_c, 0, 53, 100
2, 115968, Note_on_c, 0, 51, 90
2, 116156, Note_off_c, 0, 51, 100
2, 116160, Note_on_c, 0, 50, 80
2, 116348, Note_off_c, 0, 50, 100
2, 116352, Note_on_c, 0, 51, 80
2, 116444, Note_off_c, 0, 51, 100
2, 116448, Note_on_c, 0, 53, 80
2, 116540, Note_off_c, 0, 53, 100
2, 116544, Note_on_c, 0, 51, 80
2, 116636, Note_off_c, 0, 51, 100
2, 116640, Note_on_c, 0, 50, 80
2, 116732, Note_off_c, 0, 50, 100
2, 116736, Note_on_c, 0, 48, 80
2, 116828, Note_off_c, 0, 48, 100
2, 116832, Note_on_c, 0, 56, 80
2, 116924, Note_off_c, 0, 56, 100
2, 116928, Note_on_c, 0, 58, 81
2, 117020, Note_off_c, 0, 58, 100
2, 117024, Note_on_c, 0, 56, 82
2, 117116, Note_off_c, 0, 56, 100
2, 117120, Note_on_c, 0, 55, 82
2, 117212, Note_off_c, 0, 55, 100
2, 117216, Note_on_c, 0, 56, 83
2, 117308, Note_off_c, 0, 56, 100
2, 117312, Note_on_c, 0, 55, 84
2, 117404, Note_off_c, 0, 55, 100
2, 117408, Note_on_c, 0, 53, 85
2, 117500, Note_off_c, 0, 53, 100
2, 117504, Note_on_c, 0, 51, 85
2, 117596, Note_off_c, 0, 51, 100
2, 117600, Note_on_c, 0, 53, 86
2, 117692, Note_off_c, 0, 53, 100
2, 117696, Note_on_c, 0, 51, 87
2, 117788, Note_off_c, 0, 51, 100
2, 117792, Note_on_c, 0, 50, 87
2, 117884, Note_off_c, 0, 50, 100
2, 117888, Note_on_c, 0, 51, 88
2, 117980, Note_off_c, 0, 51, 100
2, 117984, Note_on_c, 0, 53, 89
2, 118076, Note_off_c, 0, 53, 100
2, 118080, Note_on_c, 0, 51, 90
2, 118172, Note_off_c, 0, 51, 100
2, 118176, Note_on_c, 0, 50, 90
2, 118268, Note_off_c, 0, 50, 100
2, 118272, Note_on_c, 0, 48, 91
2, 118364, Note_off_c, 0, 48, 100
2, 118368, Note_on_c, 0, 55, 92
2, 118460, Note_off_c, 0, 55, 100
2, 118464, Note_on_c, 0, 53, 92
2, 118556, Note_off_c, 0, 53, 100
2, 118560, Note_on_c, 0, 51, 93
2, 118652, Note_off_c, 0, 51, 100
2, 118656, Note_on_c, 0, 53, 94
2, 118748, Note_off_c, 0, 53, 100
2, 118752, Note_on_c, 0, 55, 95
2, 118844, Note_off_c, 0, 55, 100
2, 118848, Note_on_c, 0, 53, 95
2, 118940, Note_off_c, 0, 53, 100
2, 118944, Note_on_c, 0, 51, 96
2, 119036, Note_off_c, 0, 51, 100
2, 119040, Note_on_c, 0, 50, 97
2, 119132, Note_off_c, 0, 50, 100
2, 119136, Note_on_c, 0, 56, 98
2, 119228, Note_off_c, 0, 56, 100
2, 119232, Note_on_c, 0, 55, 98
2, 119324, Note_off_c, 0, 55, 100
2, 119328, Note_on_c, 0, 53, 99
2, 119420, Note_off_c, 0, 53, 100
2, 119424, Note_on_c, 0, 55, 100
2, 119516, Note_off_c, 0, 55, 100
2, 119520, Note_on_c, 0, 56, 100
2, 119612, Note_off_c, 0, 56, 100
2, 119616, Note_on_c, 0, 55, 101
2, 119708, Note_off_c, 0, 55, 100
2, 119712, Note_on_c, 0, 53, 102
2, 119804, Note_off_c, 0, 53, 100
2, 119808, Note_on_c, 0, 52, 103
2, 119900, Note_off_c, 0, 52, 100
2, 119904, Note_on_c, 0, 58, 103
2, 119996, Note_off_c, 0, 58, 100
2, 120000, Note_on_c, 0, 56, 104
2, 120092, Note_off_c, 0, 56, 100
2, 120096, Note_on_c, 0, 55, 105
2, 120188, Note_off_c, 0, 55, 100
2, 120192, Note_on_c, 0, 56, 105
2, 120284, Note_off_c, 0, 56, 100
2, 120288, Note_on_c, 0, 60, 106
2, 120380, Note_off_c, 0, 60, 100
2, 120384, Note_on_c, 0, 55, 107
2, 120476, Note_off_c, 0, 55, 100
2, 120480, Note_on_c, 0, 60, 108
2, 120572, Note_off_c, 0, 60, 100
2, 120576, Note_on_c, 0, 53, 108
2, 120668, Note_off_c, 0, 53, 100
2, 120672, Note_on_c, 0, 60, 109
2, 120764, Note_off_c, 0, 60, 100
2, 120768, Note_on_c, 0, 54, 110
2, 120860, Note_off_c, 0, 54, 100
2, 120864, Note_on_c, 0, 60, 110
2, 120956, Note_off_c, 0, 60, 100
2, 120960, Note_on_c, 0, 59, 120
2, 121052, Note_off_c, 0, 59, 100
2, 121056, Note_on_c, 0, 57, 110
2, 121148, Note_off_c, 0, 57, 100
2, 121152, Note_on_c, 0, 55, 110
2, 121244, Note_off_c, 0, 55, 100
2, 121248, Note_on_c, 0, 62, 110
2, 121340, Note_off_c, 0, 62, 100
2, 121344, Note_on_c, 0, 60, 120
2, 121436, Note_off_c, 0, 60, 100
2, 121440, Note_on_c, 0, 59, 110
2, 121532, Note_off_c, 0, 59, 100
2, 121536, Note_on_c, 0, 65, 110
2, 121628, Note_off_c, 0, 65, 100
2, 121632, Note_on_c, 0, 63, 110
2, 121724, Note_off_c, 0, 63, 100
2, 121728, Note_on_c, 0, 62, 120
2, 121820, Note_off_c, 0, 62, 100
2, 121824, Note_on_c, 0, 68, 110
2, 121916, Note_off_c, 0, 68, 100
2, 121920, Note_on_c, 0, 67, 110
2, 122012, Note_off_c, 0, 67, 100
2, 122016, Note_on_c, 0, 65, 110
2, 122108, Note_off_c, 0, 65, 100
2, 122112, Note_on_c, 0, 74, 120
2, 122204, Note_off_c, 0, 74, 100
2, 122208, Note_on_c, 0, 72, 110
2, 122300, Note_off_c, 0, 72, 100
2, 122304, Note_on_c, 0, 71, 110
2, 122396, Note_off_c, 0, 71, 100
2, 122400, Note_on_c, 0, 77, 110
2, 122492, Note_off_c, 0, 77, 100
2, 122496, Note_on_c, 0, 75, 120
2, 122588, Note_off_c, 0, 75, 100
2, 122592, Note_on_c, 0, 74, 110
2, 122684, Note_off_c, 0, 74, 100
2, 122688, Note_on_c, 0, 80, 110
2, 122780, Note_off_c, 0, 80, 100
2, 122784, Note_on_c, 0, 79, 110
2, 122876, Note_off_c, 0, 79, 100
2, 122880, Note_on_c, 0, 77, 120
2, 122972, Note_off_c, 0, 77, 100
2, 122976, Note_on_c, 0, 86, 110
2, 123068, Note_off_c, 0, 86, 100
2, 123072, Note_on_c, 0, 84, 110
2, 123164, Note_off_c, 0, 84, 100
2, 123168, Note_on_c, 0, 83, 110
2, 123260, Note_off_c, 0, 83, 100
2, 123264, Note_on_c, 0, 89, 120
2, 123356, Note_off_c, 0, 89, 100
2, 123360, Note_on_c, 0, 87, 108
2, 123452, Note_off_c, 0, 87, 100
2, 123456, Note_on_c, 0, 86, 106
2, 123536, Note_on_c, 0, 92, 105
2, 123548, Note_off_c, 0, 86, 100
2, 123628, Note_off_c, 0, 92, 100
2, 123648, Note_on_c, 0, 91, 102
2, 123740, Note_off_c, 0, 91, 100
2, 123744, Note_on_c, 0, 89, 100
2, 123836, Note_off_c, 0, 89, 100
2, 123840, Note_on_c, 0, 87, 98
2, 123932, Note_off_c, 0, 87, 100
2, 123936, Note_on_c, 0, 86, 96
2, 124028, Note_off_c, 0, 86, 100
2, 124032, Note_on_c, 0, 84, 94
2, 124124, Note_off_c, 0, 84, 100
2, 124128, Note_on_c, 0, 83, 92
2, 124220, Note_off_c, 0, 83, 100
2, 124224, Note_on_c, 0, 80, 90
2, 124316, Note_off_c, 0, 80, 100
2, 124320, Note_on_c, 0, 79, 88
2, 124412, Note_off_c, 0, 79, 100
2, 124416, Note_on_c, 0, 77, 86
2, 124508, Note_off_c, 0, 77, 100
2, 124512, Note_on_c, 0, 75, 84
2, 124604, Note_off_c, 0, 75, 100
2, 124608, Note_on_c, 0, 74, 82
2, 124700, Note_off_c, 0, 74, 100
2, 124704, Note_on_c, 0, 79, 80
2, 124796, Note_off_c, 0, 79, 100
2, 124800, Note_on_c, 0, 72, 80
2, 124800, Note_on_c, 0, 67, 80
2, 124800, Note_on_c, 0, 63, 80
2, 124988, Note_off_c, 0, 67, 100
2, 124988, Note_off_c, 0, 63, 100
2, 124992, Note_on_c, 0, 67, 80
2, 124992, Note_on_c, 0, 63, 80
2, 125180, Note_off_c, 0, 72, 100
2, 125180, Note_off_c, 0, 67, 100
2, 125180, Note_off_c, 0, 63, 100
2, 125184, Note_on_c, 0, 67, 80
2, 125184, Note_on_c, 0, 63, 80
2, 125184, Note_on_c, 0, 75, 80
2, 125372, Note_off_c, 0, 67, 100
2, 125372, Note_off_c, 0, 63, 100
2, 125376, Note_on_c, 0, 67, 80
2, 125376, Note_on_c, 0, 63, 80
2, 125564, Note_off_c, 0, 75, 100
2, 125564, Note_off_c, 0, 67, 100
2, 125564, Note_off_c, 0, 63, 100
2, 125568, Note_on_c, 0, 67, 80
2, 125568, Note_on_c, 0, 65, 80
2, 125568, Note_on_c, 0, 71, 80
2, 125756, Note_off_c, 0, 67, 100
2, 125756, Note_off_c, 0, 65, 100
2, 125760, Note_on_c, 0, 67, 80
2, 125760, Note_on_c, 0, 65, 80
2, 125948, Note_off_c, 0, 67, 100
2, 125948, Note_off_c, 0, 65, 100
2, 125952, Note_on_c, 0, 67, 80
2, 125952, Note_on_c, 0, 65, 80
2, 126140, Note_off_c, 0, 71, 100
2, 126140, Note_off_c, 0, 67, 100
2, 126140, Note_off_c, 0, 65, 100
2, 126144, Note_on_c, 0, 67, 80
2, 126144, Note_on_c, 0, 65, 80
2, 126144, Note_on_c, 0, 80, 80
2, 126332, Note_off_c, 0, 67, 100
2, 126332, Note_off_c, 0, 65, 100
2, 126332, Note_off_c, 0, 80, 100
2, 126336, Note_on_c, 0, 79, 80
2, 126336, Note_on_c, 0, 67, 80
2, 126336, Note_on_c, 0, 65, 80
2, 126524, Note_off_c, 0, 79, 100
2, 126524, Note_off_c, 0, 67, 100
2, 126524, Note_off_c, 0, 65, 100
2, 126528, Note_on_c, 0, 77, 80
2, 126528, Note_on_c, 0, 67, 80
2, 126528, Note_on_c, 0, 65, 80
2, 126716, Note_off_c, 0, 77, 100
2, 126716, Note_off_c, 0, 67, 100
2, 126716, Note_off_c, 0, 65, 100
2, 126720, Note_on_c, 0, 75, 80
2, 126720, Note_on_c, 0, 67, 80
2, 126720, Note_on_c, 0, 65, 80
2, 126908, Note_off_c, 0, 75, 100
2, 126908, Note_off_c, 0, 67, 100
2, 126908, Note_off_c, 0, 65, 100
2, 126912, Note_on_c, 0, 74, 80
2, 126912, Note_on_c, 0, 67, 80
2, 126912, Note_on_c, 0, 65, 80
2, 127100, Note_off_c, 0, 74, 100
2, 127100, Note_off_c, 0, 67, 100
2, 127100, Note_off_c, 0, 65, 100
2, 127104, Note_on_c, 0, 75, 80
2, 127196, Note_off_c, 0, 75, 100
2, 127200, Note_on_c, 0, 77, 80
2, 127292, Note_off_c, 0, 77, 100
2, 127296, Note_on_c, 0, 75, 80
2, 127388, Note_off_c, 0, 75, 100
2, 127392, Note_on_c, 0, 74, 80
2, 127484, Note_off_c, 0, 74, 100
2, 127488, Note_on_c, 0, 72, 80
2, 127488, Note_on_c, 0, 67, 80
2, 127676, Note_off_c, 0, 72, 100
2, 127676, Note_off_c, 0, 67, 100
2, 127680, Note_on_c, 0, 80, 80
2, 127680, Note_on_c, 0, 67, 80
2, 127868, Note_off_c, 0, 80, 100
2, 127868, Note_off_c, 0, 67, 100
2, 127872, Note_on_c, 0, 79, 80
2, 127872, Note_on_c, 0, 67, 80
2, 128060, Note_off_c, 0, 79, 100
2, 128060, Note_off_c, 0, 67, 100
2, 128064, Note_on_c, 0, 77, 80
2, 128064, Note_on_c, 0, 67, 80
2, 128064, Note_on_c, 0, 71, 80
2, 128252, Note_off_c, 0, 77, 100
2, 128252, Note_off_c, 0, 67, 100
2, 128252, Note_off_c, 0, 71, 100
2, 128256, Note_on_c, 0, 75, 80
2, 128256, Note_on_c, 0, 67, 80
2, 128256, Note_on_c, 0, 72, 80
2, 128444, Note_off_c, 0, 75, 100
2, 128444, Note_off_c, 0, 67, 100
2, 128444, Note_off_c, 0, 72, 100
2, 128448, Note_on_c, 0, 74, 80
2, 128448, Note_on_c, 0, 67, 80
2, 128636, Note_off_c, 0, 74, 100
2, 128636, Note_off_c, 0, 67, 100
2, 128640, Note_on_c, 0, 75, 80
2, 128732, Note_off_c, 0, 75, 100
2, 128736, Note_on_c, 0, 77, 80
2, 128828, Note_off_c, 0, 77, 100
2, 128832, Note_on_c, 0, 75, 80
2, 128832, Note_on_c, 0, 67, 80
2, 128924, Note_off_c, 0, 75, 100
2, 128928, Note_on_c, 0, 74, 80
2, 129020, Note_off_c, 0, 74, 100
2, 129024, Note_on_c, 0, 72, 80
2, 129212, Note_off_c, 0, 67, 100
2, 129212, Note_off_c, 0, 72, 100
2, 129216, Note_on_c, 0, 92, 80
2, 129216, Note_on_c, 0, 89, 80
2, 129308, Note_off_c, 0, 89, 100
2, 129312, Note_on_c, 0, 79, 80
2, 129404, Note_off_c, 0, 92, 100
2, 129404, Note_off_c, 0, 79, 100
2, 129408, Note_on_c, 0, 91, 80
2, 129408, Note_on_c, 0, 87, 80
2, 129500, Note_off_c, 0, 87, 100
2, 129504, Note_on_c, 0, 79, 81
2, 129596, Note_off_c, 0, 91, 100
2, 129596, Note_off_c, 0, 79, 100
2, 129600, Note_on_c, 0, 89, 82
2, 129600, Note_on_c, 0, 86, 82
2, 129692, Note_off_c, 0, 86, 100
2, 129696, Note_on_c, 0, 79, 83
2, 129788, Note_off_c, 0, 89, 100
2, 129788, Note_off_c, 0, 79, 100
2, 129792, Note_on_c, 0, 87, 85
2, 129792, Note_on_c, 0, 84, 85
2, 129884, Note_off_c, 0, 84, 100
2, 129888, Note_on_c, 0, 79, 86
2, 129980, Note_off_c, 0, 87, 100
2, 129980, Note_off_c, 0, 79, 100
2, 129984, Note_on_c, 0, 86, 87
2, 130080, Note_on_c, 0, 79, 89
2, 130080, Note_on_c, 0, 80, 89
2, 130172, Note_off_c, 0, 86, 100
2, 130172, Note_off_c, 0, 79, 100
2, 130172, Note_off_c, 0, 80, 100
2, 130176, Note_on_c, 0, 87, 90
2, 130272, Note_on_c, 0, 79, 91
2, 130364, Note_off_c, 0, 87, 100
2, 130364, Note_off_c, 0, 79, 100
2, 130368, Note_on_c, 0, 86, 93
2, 130464, Note_on_c, 0, 79, 94
2, 130556, Note_off_c, 0, 86, 100
2, 130556, Note_off_c, 0, 79, 100
2, 130560, Note_on_c, 0, 84, 95
2, 130656, Note_on_c, 0, 79, 96
2, 130748, Note_off_c, 0, 84, 100
2, 130748, Note_off_c, 0, 79, 100
2, 130752, Note_on_c, 0, 83, 98
2, 130848, Note_on_c, 0, 79, 99
2, 130940, Note_off_c, 0, 83, 100
2, 130940, Note_off_c, 0, 79, 100
2, 130944, Note_on_c, 0, 84, 100
2, 130944, Note_on_c, 0, 79, 100
2, 131036, Note_off_c, 0, 79, 100
2, 131040, Note_on_c, 0, 72, 102
2, 131132, Note_off_c, 0, 84, 100
2, 131132, Note_off_c, 0, 72, 100
2, 131136, Note_on_c, 0, 82, 103
2, 131136, Note_on_c, 0, 79, 103
2, 131228, Note_off_c, 0, 79, 100
2, 131232, Note_on_c, 0, 72, 104
2, 131324, Note_off_c, 0, 82, 100
2, 131324, Note_off_c, 0, 72, 100
2, 131328, Note_on_c, 0, 80, 106
2, 131424, Note_on_c, 0, 72, 107
2, 131516, Note_off_c, 0, 80, 100
2, 131516, Note_off_c, 0, 72, 100
2, 131520, Note_on_c, 0, 79, 108
2, 131616, Note_on_c, 0, 72, 109
2, 131708, Note_off_c, 0, 79, 100
2, 131708, Note_off_c, 0, 72, 100
2, 131712, Note_on_c, 0, 80, 110
2, 131808, Note_on_c, 0, 72, 110
2, 131900, Note_off_c, 0, 80, 100
2, 131900, Note_off_c, 0, 72, 100
2, 131904, Note_on_c, 0, 77, 110
2, 132000, Note_on_c, 0, 72, 110
2, 132092, Note_off_c, 0, 77, 100
2, 132092, Note_off_c, 0, 72, 100
2, 132096, Note_on_c, 0, 75, 110
2, 132192, Note_on_c, 0, 72, 110
2, 132284, Note_off_c, 0, 75, 100
2, 132284, Note_off_c, 0, 72, 100
2, 132288, Note_on_c, 0, 74, 110
2, 132384, Note_on_c, 0, 72, 110
2, 132476, Note_off_c, 0, 74, 100
2, 132476, Note_off_c, 0, 72, 100
2, 132480, Note_on_c, 0, 74, 110
2, 132480, Note_on_c, 0, 65, 110
2, 132668, Note_off_c, 0, 74, 100
2, 132672, Note_on_c, 0, 72, 95
2, 132860, Note_off_c, 0, 65, 100
2, 132860, Note_off_c, 0, 72, 100
2, 132864, Note_on_c, 0, 72, 80
2, 132864, Note_on_c, 0, 66, 80
2, 133244, Note_off_c, 0, 66, 100
2, 133248, Note_on_c, 0, 67, 80
2, 133628, Note_off_c, 0, 72, 100
2, 133628, Note_off_c, 0, 67, 100
2, 133632, Note_on_c, 0, 69, 80
2, 133632, Note_on_c, 0, 72, 80
2, 134012, Note_off_c, 0, 69, 100
2, 134012, Note_off_c, 0, 72, 100
2, 134016, Note_on_c, 0, 67, 80
2, 134016, Note_on_c, 0, 72, 80
2, 134064, Note_on_c, 0, 74, 80
2, 134108, Note_off_c, 0, 72, 100
2, 134112, Note_on_c, 0, 72, 80
2, 134156, Note_off_c, 0, 74, 100
2, 134160, Note_on_c, 0, 74, 80
2, 134204, Note_off_c, 0, 72, 100
2, 134208, Note_on_c, 0, 72, 80
2, 134252, Note_off_c, 0, 74, 100
2, 134256, Note_on_c, 0, 74, 80
2, 134300, Note_off_c, 0, 72, 100
2, 134304, Note_on_c, 0, 72, 80
2, 134348, Note_off_c, 0, 74, 100
2, 134352, Note_on_c, 0, 74, 80
2, 134396, Note_off_c, 0, 67, 100
2, 134396, Note_off_c, 0, 72, 100
2, 134400, Note_on_c, 0, 75, 80
2, 134444, Note_off_c, 0, 74, 100
2, 134588, Note_off_c, 0, 75, 100
2, 134592, Note_on_c, 0, 74, 80
2, 134780, Note_off_c, 0, 74, 100
2, 134784, Note_on_c, 0, 72, 110
2, 134784, Note_on_c, 0, 60, 110
2, 135164, Note_off_c, 0, 72, 100
2, 135164, Note_off_c, 0, 60, 100
2, 135168, Note_on_c, 0, 63, 110
2, 135548, Note_off_c, 0, 63, 100
2, 135552, Note_on_c, 0, 59, 110
2, 136028, Note_off_c, 0, 59, 100
2, 136032, Note_on_c, 0, 62, 110
2, 136124, Note_off_c, 0, 62, 100
2, 136128, Note_on_c, 0, 65, 110
2, 136220, Note_off_c, 0, 65, 100
2, 136224, Note_on_c, 0, 68, 110
2, 136316, Note_off_c, 0, 68, 100
2, 136320, Note_on_c, 0, 67, 110
2, 136412, Note_off_c, 0, 67, 100
2, 136416, Note_on_c, 0, 68, 110
2, 136508, Note_off_c, 0, 68, 100
2, 136512, Note_on_c, 0, 67, 110
2, 136604, Note_off_c, 0, 67, 100
2, 136608, Note_on_c, 0, 65, 110
2, 136700, Note_off_c, 0, 65, 100
2, 136704, Note_on_c, 0, 63, 110
2, 136796, Note_off_c, 0, 63, 100
2, 136800, Note_on_c, 0, 65, 110
2, 136880, Note_on_c, 0, 63, 110
2, 136892, Note_off_c, 0, 65, 100
2, 136972, Note_off_c, 0, 63, 100
2, 136992, Note_on_c, 0, 62, 110
2, 137084, Note_off_c, 0, 62, 100
2, 137088, Note_on_c, 0, 63, 110
2, 137180, Note_off_c, 0, 63, 100
2, 137184, Note_on_c, 0, 65, 110
2, 137276, Note_off_c, 0, 65, 100
2, 137280, Note_on_c, 0, 63, 110
2, 137372, Note_off_c, 0, 63, 100
2, 137376, Note_on_c, 0, 62, 110
2, 137468, Note_off_c, 0, 62, 100
2, 137472, Note_on_c, 0, 60, 110
2, 137564, Note_off_c, 0, 60, 100
2, 137568, Note_on_c, 0, 63, 110
2, 137660, Note_off_c, 0, 63, 100
2, 137664, Note_on_c, 0, 67, 110
2, 137756, Note_off_c, 0, 67, 100
2, 137760, Note_on_c, 0, 70, 110
2, 137852, Note_off_c, 0, 70, 100
2, 137856, Note_on_c, 0, 68, 110
2, 137948, Note_off_c, 0, 68, 100
2, 137952, Note_on_c, 0, 70, 110
2, 138044, Note_off_c, 0, 70, 100
2, 138048, Note_on_c, 0, 68, 110
2, 138140, Note_off_c, 0, 68, 100
2, 138144, Note_on_c, 0, 67, 110
2, 138236, Note_off_c, 0, 67, 100
2, 138240, Note_on_c, 0, 65, 110
2, 138332, Note_off_c, 0, 65, 100
2, 138336, Note_on_c, 0, 67, 110
2, 138428, Note_off_c, 0, 67, 100
2, 138432, Note_on_c, 0, 65, 110
2, 138524, Note_off_c, 0, 65, 100
2, 138528, Note_on_c, 0, 63, 110
2, 138620, Note_off_c, 0, 63, 100
2, 138624, Note_on_c, 0, 65, 110
2, 138716, Note_off_c, 0, 65, 100
2, 138720, Note_on_c, 0, 67, 110
2, 138812, Note_off_c, 0, 67, 100
2, 138816, Note_on_c, 0, 65, 110
2, 138908, Note_off_c, 0, 65, 100
2, 138912, Note_on_c, 0, 63, 110
2, 139004, Note_off_c, 0, 63, 100
2, 139008, Note_on_c, 0, 62, 110
2, 139100, Note_off_c, 0, 62, 100
2, 139104, Note_on_c, 0, 65, 110
2, 139196, Note_off_c, 0, 65, 100
2, 139200, Note_on_c, 0, 68, 110
2, 139292, Note_off_c, 0, 68, 100
2, 139296, Note_on_c, 0, 72, 110
2, 139388, Note_off_c, 0, 72, 100
2, 139392, Note_on_c, 0, 70, 110
2, 139484, Note_off_c, 0, 70, 100
2, 139488, Note_on_c, 0, 72, 110
2, 139580, Note_off_c, 0, 72, 100
2, 139584, Note_on_c, 0, 70, 110
2, 139676, Note_off_c, 0, 70, 100
2, 139680, Note_on_c, 0, 68, 110
2, 139772, Note_off_c, 0, 68, 100
2, 139776, Note_on_c, 0, 67, 110
2, 139868, Note_off_c, 0, 67, 100
2, 139872, Note_on_c, 0, 68, 110
2, 139964, Note_off_c, 0, 68, 100
2, 139968, Note_on_c, 0, 67, 110
2, 140060, Note_off_c, 0, 67, 100
2, 140064, Note_on_c, 0, 65, 110
2, 140156, Note_off_c, 0, 65, 100
2, 140160, Note_on_c, 0, 67, 110
2, 140252, Note_off_c, 0, 67, 100
2, 140256, Note_on_c, 0, 70, 110
2, 140348, Note_off_c, 0, 70, 100
2, 140352, Note_on_c, 0, 68, 110
2, 140444, Note_off_c, 0, 68, 100
2, 140448, Note_on_c, 0, 67, 110
2, 140540, Note_off_c, 0, 67, 100
2, 140544, Note_on_c, 0, 65, 110
2, 140636, Note_off_c, 0, 65, 100
2, 140640, Note_on_c, 0, 63, 110
2, 140732, Note_off_c, 0, 63, 100
2, 140736, Note_on_c, 0, 62, 110
2, 140828, Note_off_c, 0, 62, 100
2, 140832, Note_on_c, 0, 63, 110
2, 140924, Note_off_c, 0, 63, 100
2, 140928, Note_on_c, 0, 65, 110
2, 141020, Note_off_c, 0, 65, 100
2, 141024, Note_on_c, 0, 59, 110
2, 141116, Note_off_c, 0, 59, 100
2, 141120, Note_on_c, 0, 58, 110
2, 141212, Note_off_c, 0, 58, 100
2, 141216, Note_on_c, 0, 59, 110
2, 141308, Note_off_c, 0, 59, 100
2, 141312, Note_on_c, 0, 58, 110
2, 141404, Note_off_c, 0, 58, 100
2, 141408, Note_on_c, 0, 62, 110
2, 141500, Note_off_c, 0, 62, 100
2, 141504, Note_on_c, 0, 65, 110
2, 141596, Note_off_c, 0, 65, 100
2, 141600, Note_on_c, 0, 68, 110
2, 141692, Note_off_c, 0, 68, 100
2, 141696, Note_on_c, 0, 67, 110
2, 141884, Note_off_c, 0, 67, 100
2, 141888, Note_on_c, 0, 65, 110
2, 141888, Note_on_c, 0, 53, 110
2, 142076, Note_off_c, 0, 65, 100
2, 142076, Note_off_c, 0, 53, 100
2, 142080, Note_on_c, 0, 70, 110
2, 142080, Note_on_c, 0, 58, 110
2, 142268, Note_off_c, 0, 70, 100
2, 142268, Note_off_c, 0, 58, 100
2, 142272, Note_on_c, 0, 68, 110
2, 142272, Note_on_c, 0, 56, 110
2, 142460, Note_off_c, 0, 68, 100
2, 142460, Note_off_c, 0, 56, 100
2, 142464, Note_on_c, 0, 70, 110
2, 142464, Note_on_c, 0, 58, 110
2, 142652, Note_off_c, 0, 70, 100
2, 142652, Note_off_c, 0, 58, 100
2, 142656, Note_on_c, 0, 73, 110
2, 142656, Note_on_c, 0, 61, 110
2, 142844, Note_off_c, 0, 73, 100
2, 142844, Note_off_c, 0, 61, 100
2, 142848, Note_on_c, 0, 72, 110
2, 142848, Note_on_c, 0, 60, 110
2, 143036, Note_off_c, 0, 72, 100
2, 143036, Note_off_c, 0, 60, 100
2, 143040, Note_on_c, 0, 67, 110
2, 143040, Note_on_c, 0, 55, 110
2, 143228, Note_off_c, 0, 67, 100
2, 143228, Note_off_c, 0, 55, 100
2, 143424, Note_on_c, 0, 67, 110
2, 143424, Note_on_c, 0, 55, 110
2, 143612, Note_off_c, 0, 67, 100
2, 143612, Note_off_c, 0, 55, 100
2, 143616, Note_on_c, 0, 72, 110
2, 143616, Note_on_c, 0, 60, 110
2, 143804, Note_off_c, 0, 72, 100
2, 143804, Note_off_c, 0, 60, 100
2, 143808, Note_on_c, 0, 70, 110
2, 143808, Note_on_c, 0, 58, 110
2, 143996, Note_off_c, 0, 70, 100
2, 143996, Note_off_c, 0, 58, 100
2, 144000, Note_on_c, 0, 72, 110
2, 144000, Note_on_c, 0, 60, 110
2, 144188, Note_off_c, 0, 72, 100
2, 144188, Note_off_c, 0, 60, 100
2, 144192, Note_on_c, 0, 75, 110
2, 144192, Note_on_c, 0, 63, 110
2, 144380, Note_off_c, 0, 75, 100
2, 144380, Note_off_c, 0, 63, 100
2, 144384, Note_on_c, 0, 75, 110
2, 144384, Note_on_c, 0, 63, 110
2, 144572, Note_off_c, 0, 75, 100
2, 144572, Note_off_c, 0, 63, 100
2, 144576, Note_on_c, 0, 69, 110
2, 144576, Note_on_c, 0, 57, 110
2, 144764, Note_off_c, 0, 69, 100
2, 144764, Note_off_c, 0, 57, 100
2, 144960, Note_on_c, 0, 70, 110
2, 144960, Note_on_c, 0, 58, 110
2, 145148, Note_off_c, 0, 70, 100
2, 145148, Note_off_c, 0, 58, 100
2, 145152, Note_on_c, 0, 73, 110
2, 145152, Note_on_c, 0, 61, 110
2, 145340, Note_off_c, 0, 73, 100
2, 145340, Note_off_c, 0, 61, 100
2, 145344, Note_on_c, 0, 72, 110
2, 145344, Note_on_c, 0, 60, 110
2, 145532, Note_off_c, 0, 72, 100
2, 145532, Note_off_c, 0, 60, 100
2, 145536, Note_on_c, 0, 73, 110
2, 145536, Note_on_c, 0, 61, 110
2, 145724, Note_off_c, 0, 73, 100
2, 145724, Note_off_c, 0, 61, 100
2, 145728, Note_on_c, 0, 77, 110
2, 145728, Note_on_c, 0, 65, 110
2, 145916, Note_off_c, 0, 77, 100
2, 145916, Note_off_c, 0, 65, 100
2, 145920, Note_on_c, 0, 75, 110
2, 145920, Note_on_c, 0, 63, 110
2, 146108, Note_off_c, 0, 75, 100
2, 146108, Note_off_c, 0, 63, 100
2, 146112, Note_on_c, 0, 70, 110
2, 146204, Note_off_c, 0, 70, 100
2, 146208, Note_on_c, 0, 68, 110
2, 146300, Note_off_c, 0, 68, 100
2, 146304, Note_on_c, 0, 67, 110
2, 146396, Note_off_c, 0, 67, 100
2, 146400, Note_on_c, 0, 63, 110
2, 146492, Note_off_c, 0, 63, 100
2, 146496, Note_on_c, 0, 65, 110
2, 146588, Note_off_c, 0, 65, 100
2, 146592, Note_on_c, 0, 67, 110
2, 146684, Note_off_c, 0, 67, 100
2, 146688, Note_on_c, 0, 68, 110
2, 146780, Note_off_c, 0, 68, 100
2, 146784, Note_on_c, 0, 67, 110
2, 146876, Note_off_c, 0, 67, 100
2, 146880, Note_on_c, 0, 68, 110
2, 146972, Note_off_c, 0, 68, 100
2, 146976, Note_on_c, 0, 70, 110
2, 147068, Note_off_c, 0, 70, 100
2, 147072, Note_on_c, 0, 72, 110
2, 147072, Note_on_c, 0, 80, 110
2, 147164, Note_off_c, 0, 72, 100
2, 147168, Note_on_c, 0, 73, 110
2, 147260, Note_off_c, 0, 73, 100
2, 147264, Note_on_c, 0, 72, 110
2, 147356, Note_off_c, 0, 72, 100
2, 147360, Note_on_c, 0, 70, 110
2, 147452, Note_off_c, 0, 80, 100
2, 147452, Note_off_c, 0, 70, 100
2, 147456, Note_on_c, 0, 84, 110
2, 147836, Note_off_c, 0, 84, 100
2, 147840, Note_on_c, 0, 79, 110
2, 148316, Note_off_c, 0, 79, 100
2, 148320, Note_on_c, 0, 82, 110
2, 148412, Note_off_c, 0, 82, 100
2, 148416, Note_on_c, 0, 85, 110
2, 148508, Note_off_c, 0, 85, 100
2, 148512, Note_on_c, 0, 89, 110
2, 148604, Note_off_c, 0, 89, 100
2, 148608, Note_on_c, 0, 87, 110
2, 148700, Note_off_c, 0, 87, 100
2, 148704, Note_on_c, 0, 89, 110
2, 148796, Note_off_c, 0, 89, 100
2, 148800, Note_on_c, 0, 87, 110
2, 148892, Note_off_c, 0, 87, 100
2, 148896, Note_on_c, 0, 85, 110
2, 148988, Note_off_c, 0, 85, 100
2, 148992, Note_on_c, 0, 84, 110
2, 149084, Note_off_c, 0, 84, 100
2, 149088, Note_on_c, 0, 85, 110
2, 149180, Note_off_c, 0, 85, 100
2, 149184, Note_on_c, 0, 84, 110
2, 149276, Note_off_c, 0, 84, 100
2, 149280, Note_on_c, 0, 82, 110
2, 149372, Note_off_c, 0, 82, 100
2, 149376, Note_on_c, 0, 84, 110
2, 149468, Note_off_c, 0, 84, 100
2, 149472, Note_on_c, 0, 85, 110
2, 149564, Note_off_c, 0, 85, 100
2, 149568, Note_on_c, 0, 84, 110
2, 149660, Note_off_c, 0, 84, 100
2, 149664, Note_on_c, 0, 82, 110
2, 149756, Note_off_c, 0, 82, 100
2, 149760, Note_on_c, 0, 81, 110
2, 149852, Note_off_c, 0, 81, 100
2, 149856, Note_on_c, 0, 84, 110
2, 149948, Note_off_c, 0, 84, 100
2, 149952, Note_on_c, 0, 87, 110
2, 150044, Note_off_c, 0, 87, 100
2, 150048, Note_on_c, 0, 90, 110
2, 150140, Note_off_c, 0, 90, 100
2, 150144, Note_on_c, 0, 89, 110
2, 150236, Note_off_c, 0, 89, 100
2, 150240, Note_on_c, 0, 90, 110
2, 150332, Note_off_c, 0, 90, 100
2, 150336, Note_on_c, 0, 89, 110
2, 150428, Note_off_c, 0, 89, 100
2, 150432, Note_on_c, 0, 87, 110
2, 150524, Note_off_c, 0, 87, 100
2, 150528, Note_on_c, 0, 85, 110
2, 150620, Note_off_c, 0, 85, 100
2, 150624, Note_on_c, 0, 87, 110
2, 150716, Note_off_c, 0, 87, 100
2, 150720, Note_on_c, 0, 85, 110
2, 150812, Note_off_c, 0, 85, 100
2, 150816, Note_on_c, 0, 84, 110
2, 150908, Note_off_c, 0, 84, 100
2, 150912, Note_on_c, 0, 85, 110
2, 151004, Note_off_c, 0, 85, 100
2, 151008, Note_on_c, 0, 87, 110
2, 151100, Note_off_c, 0, 87, 100
2, 151104, Note_on_c, 0, 85, 110
2, 151196, Note_off_c, 0, 85, 100
2, 151200, Note_on_c, 0, 84, 110
2, 151292, Note_off_c, 0, 84, 100
2, 151296, Note_on_c, 0, 82, 110
2, 151388, Note_off_c, 0, 82, 100
2, 151392, Note_on_c, 0, 85, 110
2, 151484, Note_off_c, 0, 85, 100
2, 151488, Note_on_c, 0, 89, 110
2, 151580, Note_off_c, 0, 89, 100
2, 151584, Note_on_c, 0, 92, 110
2, 151676, Note_off_c, 0, 92, 100
2, 151680, Note_on_c, 0, 90, 110
2, 151772, Note_off_c, 0, 90, 100
2, 151776, Note_on_c, 0, 92, 110
2, 151868, Note_off_c, 0, 92, 100
2, 151872, Note_on_c, 0, 90, 110
2, 151964, Note_off_c, 0, 90, 100
2, 151968, Note_on_c, 0, 89, 110
2, 152060, Note_off_c, 0, 89, 100
2, 152064, Note_on_c, 0, 87, 110
2, 152156, Note_off_c, 0, 87, 100
2, 152160, Note_on_c, 0, 89, 110
2, 152252, Note_off_c, 0, 89, 100
2, 152256, Note_on_c, 0, 87, 110
2, 152348, Note_off_c, 0, 87, 100
2, 152352, Note_on_c, 0, 85, 110
2, 152444, Note_off_c, 0, 85, 100
2, 152448, Note_on_c, 0, 87, 110
2, 152540, Note_off_c, 0, 87, 100
2, 152544, Note_on_c, 0, 89, 110
2, 152636, Note_off_c, 0, 89, 100
2, 152640, Note_on_c, 0, 87, 110
2, 152732, Note_off_c, 0, 87, 100
2, 152736, Note_on_c, 0, 85, 110
2, 152828, Note_off_c, 0, 85, 100
2, 152832, Note_on_c, 0, 84, 110
2, 152924, Note_off_c, 0, 84, 100
2, 152928, Note_on_c, 0, 87, 110
2, 153020, Note_off_c, 0, 87, 100
2, 153024, Note_on_c, 0, 90, 110
2, 153116, Note_off_c, 0, 90, 100
2, 153120, Note_on_c, 0, 94, 110
2, 153212, Note_off_c, 0, 94, 100
2, 153216, Note_on_c, 0, 92, 110
2, 153308, Note_off_c, 0, 92, 100
2, 153312, Note_on_c, 0, 94, 110
2, 153404, Note_off_c, 0, 94, 100
2, 153408, Note_on_c, 0, 92, 110
2, 153500, Note_off_c, 0, 92, 100
2, 153504, Note_on_c, 0, 90, 110
2, 153596, Note_off_c, 0, 90, 100
2, 153600, Note_on_c, 0, 89, 110
2, 153692, Note_off_c, 0, 89, 100
2, 153696, Note_on_c, 0, 90, 110
2, 153788, Note_off_c, 0, 90, 100
2, 153792, Note_on_c, 0, 89, 110
2, 153884, Note_off_c, 0, 89, 100
2, 153888, Note_on_c, 0, 87, 110
2, 153980, Note_off_c, 0, 87, 100
2, 153984, Control_c, 0, 64, 127
2, 153984, Note_on_c, 0, 89, 120
2, 154752, Note_on_c, 0, 37, 120
2, 155512, Control_c, 0, 64, 0
2, 155516, Note_off_c, 0, 89, 100
2, 155516, Note_off_c, 0, 37, 100
2, 155520, Control_c, 0, 64, 127
2, 155520, Note_on_c, 0, 38, 120
2, 156288, Note_on_c, 0, 95, 120
2, 157048, Control_c, 0, 64, 0
2, 157052, Note_off_c, 0, 38, 100
2, 157052, Note_off_c, 0, 95, 100
2, 157056, Control_c, 0, 64, 127
2, 157440, Note_on_c, 0, 87, 120
2, 158208, Note_on_c, 0, 84, 80
2, 158496, Note_on_c, 0, 80, 80
2, 158584, Control_c, 0, 64, 0
2, 158588, Note_off_c, 0, 87, 100
2, 158588, Note_off_c, 0, 84, 100
2, 158588, Note_off_c, 0, 80, 100
2, 158592, Note_on_c, 0, 80, 80
2, 158972, Note_off_c, 0, 80, 100
2, 158976, Note_on_c, 0, 79, 80
2, 159164, Note_off_c, 0, 79, 100
2, 159264, Note_on_c, 0, 77, 80
2, 159356, Note_off_c, 0, 77, 100
2, 159360, Note_on_c, 0, 77, 80
2, 159740, Note_off_c, 0, 77, 100
2, 159744, Note_on_c, 0, 75, 80
2, 159932, Note_off_c, 0, 75, 100
2, 160032, Note_on_c, 0, 85, 80
2, 160032, Note_on_c, 0, 79, 80
2, 160032, Note_on_c, 0, 73, 80
2, 160124, Note_off_c, 0, 85, 100
2, 160124, Note_off_c, 0, 79, 100
2, 160124, Note_off_c, 0, 73, 100
2, 160128, Note_on_c, 0, 85, 80
2, 160128, Note_on_c, 0, 79, 80
2, 160128, Note_on_c, 0, 73, 80
2, 160508, Note_off_c, 0, 85, 100
2, 160508, Note_off_c, 0, 79, 100
2, 160508, Note_off_c, 0, 73, 100
2, 160512, Note_on_c, 0, 84, 80
2, 160512, Note_on_c, 0, 80, 80
2, 160512, Note_on_c, 0, 72, 80
2, 160892, Note_off_c, 0, 84, 100
2, 160892, Note_off_c, 0, 80, 100
2, 160892, Note_off_c, 0, 72, 100
2, 160928, Note_on_c, 0, 87, 80
2, 160956, Note_off_c, 0, 87, 100
2, 160960, Note_on_c, 0, 86, 80
2, 160988, Note_off_c, 0, 86, 100
2, 160992, Note_on_c, 0, 87, 80
2, 161020, Note_off_c, 0, 87, 100
2, 161024, Note_on_c, 0, 89, 80
2, 161052, Note_off_c, 0, 89, 100
2, 161056, Note_on_c, 0, 87, 80
2, 161084, Note_off_c, 0, 87, 100
2, 161088, Note_on_c, 0, 83, 80
2, 161116, Note_off_c, 0, 83, 100
2, 161120, Note_on_c, 0, 84, 80
2, 161148, Note_off_c, 0, 84, 100
2, 161152, Note_on_c, 0, 83, 80
2, 161180, Note_off_c, 0, 83, 100
2, 161184, Note_on_c, 0, 84, 80
2, 161212, Note_off_c, 0, 84, 100
2, 161216, Note_on_c, 0, 85, 80
2, 161244, Note_off_c, 0, 85, 100
2, 161248, Note_on_c, 0, 84, 80
2, 161276, Note_off_c, 0, 84, 100
2, 161280, Note_on_c, 0, 79, 80
2, 161340, Note_off_c, 0, 79, 100
2, 161344, Note_on_c, 0, 80, 80
2, 161404, Note_off_c, 0, 80, 100
2, 161408, Note_on_c, 0, 82, 80
2, 161468, Note_off_c, 0, 82, 100
2, 161472, Note_on_c, 0, 80, 80
2, 161532, Note_off_c, 0, 80, 100
2, 161536, Note_on_c, 0, 79, 80
2, 161596, Note_off_c, 0, 79, 100
2, 161600, Note_on_c, 0, 80, 80
2, 161660, Note_off_c, 0, 80, 100
2, 161664, Note_on_c, 0, 80, 80
2, 161736, Note_off_c, 0, 80, 100
2, 161740, Note_on_c, 0, 79, 80
2, 161812, Note_off_c, 0, 79, 100
2, 161816, Note_on_c, 0, 80, 80
2, 161888, Note_off_c, 0, 80, 100
2, 161892, Note_on_c, 0, 82, 80
2, 161964, Note_off_c, 0, 82, 100
2, 161968, Note_on_c, 0, 80, 80
2, 162040, Note_off_c, 0, 80, 100
2, 162048, Note_on_c, 0, 79, 80
2, 162236, Note_off_c, 0, 79, 100
2, 162336, Note_on_c, 0, 77, 80
2, 162428, Note_off_c, 0, 77, 100
2, 162432, Note_on_c, 0, 77, 80
2, 162504, Note_off_c, 0, 77, 100
2, 162508, Note_on_c, 0, 75, 80
2, 162580, Note_off_c, 0, 75, 100
2, 162584, Note_on_c, 0, 77, 80
2, 162656, Note_off_c, 0, 77, 100
2, 162660, Note_on_c, 0, 79, 80
2, 162732, Note_off_c, 0, 79, 100
2, 162736, Note_on_c, 0, 77, 80
2, 162808, Note_off_c, 0, 77, 100
2, 162816, Note_on_c, 0, 75, 80
2, 163004, Note_off_c, 0, 75, 100
2, 163104, Note_on_c, 0, 85, 80
2, 163104, Note_on_c, 0, 79, 80
2, 163104, Note_on_c, 0, 73, 80
2, 163196, Note_off_c, 0, 85, 100
2, 163196, Note_off_c, 0, 79, 100
2, 163196, Note_off_c, 0, 73, 100
2, 163200, Note_on_c, 0, 85, 80
2, 163200, Note_on_c, 0, 79, 80
2, 163200, Note_on_c, 0, 73, 80
2, 163580, Note_off_c, 0, 85, 100
2, 163580, Note_off_c, 0, 79, 100
2, 163580, Note_off_c, 0, 73, 100
2, 163584, Note_on_c, 0, 84, 80
2, 163584, Note_on_c, 0, 80, 80
2, 163584, Note_on_c, 0, 72, 80
2, 163964, Note_off_c, 0, 84, 100
2, 163964, Note_off_c, 0, 80, 100
2, 163964, Note_off_c, 0, 72, 100
2, 164640, Note_on_c, 0, 89, 80
2, 164640, Note_on_c, 0, 82, 80
2, 164640, Note_on_c, 0, 79, 80
2, 164732, Note_off_c, 0, 89, 100
2, 164732, Note_off_c, 0, 82, 100
2, 164732, Note_off_c, 0, 79, 100
2, 164736, Note_on_c, 0, 89, 80
2, 164736, Note_on_c, 0, 82, 80
2, 164736, Note_on_c, 0, 79, 80
2, 165116, Note_off_c, 0, 89, 100
2, 165116, Note_off_c, 0, 82, 100
2, 165116, Note_off_c, 0, 79, 100
2, 165120, Note_on_c, 0, 87, 80
2, 165120, Note_on_c, 0, 80, 80
2, 165120, Note_on_c, 0, 75, 80
2, 165500, Note_off_c, 0, 87, 100
2, 165500, Note_off_c, 0, 80, 100
2, 165500, Note_off_c, 0, 75, 100
2, 166080, Note_on_c, 0, 92, 120
2, 166172, Note_off_c, 0, 92, 100
2, 166176, Note_on_c, 0, 95, 120
2, 166268, Note_off_c, 0, 95, 100
2, 166272, Note_on_c, 0, 92, 120
2, 166364, Note_off_c, 0, 92, 100
2, 166368, Note_on_c, 0, 95, 120
2, 166460, Note_off_c, 0, 95, 100
2, 166464, Note_on_c, 0, 89, 120
2, 166556, Note_off_c, 0, 89, 100
2, 166560, Note_on_c, 0, 92, 120
2, 166652, Note_off_c, 0, 92, 100
2, 166656, Note_on_c, 0, 86, 120
2, 166748, Note_off_c, 0, 86, 100
2, 166752, Note_on_c, 0, 89, 120
2, 166844, Note_off_c, 0, 89, 100
2, 166848, Note_on_c, 0, 83, 120
2, 166940, Note_off_c, 0, 83, 100
2, 166944, Note_on_c, 0, 86, 120
2, 167036, Note_off_c, 0, 86, 100
2, 167040, Note_on_c, 0, 80, 120
2, 167132, Note_off_c, 0, 80, 100
2, 167136, Note_on_c, 0, 83, 120
2, 167228, Note_off_c, 0, 83, 100
2, 167232, Note_on_c, 0, 77, 120
2, 167324, Note_off_c, 0, 77, 100
2, 167328, Note_on_c, 0, 80, 120
2, 167420, Note_off_c, 0, 80, 100
2, 167424, Note_on_c, 0, 74, 120
2, 167516, Note_off_c, 0, 74, 100
2, 167520, Note_on_c, 0, 77, 120
2, 167612, Note_off_c, 0, 77, 100
2, 167616, Note_on_c, 0, 71, 120
2, 167708, Note_off_c, 0, 71, 100
2, 167712, Note_on_c, 0, 74, 120
2, 167804, Note_off_c, 0, 74, 100
2, 167808, Note_on_c, 0, 68, 120
2, 167900, Note_off_c, 0, 68, 100
2, 167904, Note_on_c, 0, 71, 120
2, 167996, Note_off_c, 0, 71, 100
2, 168000, Note_on_c, 0, 65, 120
2, 168092, Note_off_c, 0, 65, 100
2, 168096, Note_on_c, 0, 68, 120
2, 168188, Note_off_c, 0, 68, 100
2, 168192, Note_on_c, 0, 62, 80
2, 168284, Note_off_c, 0, 62, 100
2, 168288, Note_on_c, 0, 63, 83
2, 168380, Note_off_c, 0, 63, 100
2, 168384, Note_on_c, 0, 65, 87
2, 168476, Note_off_c, 0, 65, 100
2, 168480, Note_on_c, 0, 67, 90
2, 168572, Note_off_c, 0, 67, 100
2, 168576, Note_on_c, 0, 68, 94
2, 168668, Note_off_c, 0, 68, 100
2, 168672, Note_on_c, 0, 70, 98
2, 168764, Note_off_c, 0, 70, 100
2, 168768, Note_on_c, 0, 72, 101
2, 168860, Note_off_c, 0, 72, 100
2, 168864, Note_on_c, 0, 73, 105
2, 168956, Note_off_c, 0, 73, 100
2, 168960, Note_on_c, 0, 75, 108
2, 169052, Note_off_c, 0, 75, 100
2, 169056, Note_on_c, 0, 76, 112
2, 169148, Note_off_c, 0, 76, 100
2, 169152, Note_on_c, 0, 77, 116
2, 169244, Note_off_c, 0, 77, 100
2, 169248, Note_on_c, 0, 75, 119
2, 169340, Note_off_c, 0, 75, 100
2, 169344, Note_on_c, 0, 77, 120
2, 169424, Note_on_c, 0, 75, 120
2, 169436, Note_off_c, 0, 77, 100
2, 169516, Note_off_c, 0, 75, 100
2, 169536, Note_on_c, 0, 72, 120
2, 169628, Note_off_c, 0, 72, 100
2, 169632, Note_on_c, 0, 68, 120
2, 169724, Note_off_c, 0, 68, 100
2, 169728, Note_on_c, 0, 77, 120
2, 169820, Note_off_c, 0, 77, 100
2, 169824, Note_on_c, 0, 75, 120
2, 169916, Note_off_c, 0, 75, 100
2, 169920, Note_on_c, 0, 72, 120
2, 170012, Note_off_c, 0, 72, 100
2, 170016, Note_on_c, 0, 68, 120
2, 170108, Note_off_c, 0, 68, 100
2, 170112, Note_on_c, 0, 77, 120
2, 170204, Note_off_c, 0, 77, 100
2, 170208, Note_on_c, 0, 75, 120
2, 170300, Note_off_c, 0, 75, 100
2, 170304, Note_on_c, 0, 73, 120
2, 170396, Note_off_c, 0, 73, 100
2, 170400, Note_on_c, 0, 70, 120
2, 170492, Note_off_c, 0, 70, 100
2, 170496, Note_on_c, 0, 77, 120
2, 170588, Note_off_c, 0, 77, 100
2, 170592, Note_on_c, 0, 75, 120
2, 170684, Note_off_c, 0, 75, 100
2, 170688, Note_on_c, 0, 73, 120
2, 170780, Note_off_c, 0, 73, 100
2, 170784, Note_on_c, 0, 70, 120
2, 170876, Note_off_c, 0, 70, 100
2, 170880, Note_on_c, 0, 82, 120
2, 170972, Note_off_c, 0, 82, 100
2, 170976, Note_on_c, 0, 80, 120
2, 171068, Note_off_c, 0, 80, 100
2, 171072, Note_on_c, 0, 75, 120
2, 171164, Note_off_c, 0, 75, 100
2, 171168, Note_on_c, 0, 72, 120
2, 171260, Note_off_c, 0, 72, 100
2, 171264, Note_on_c, 0, 82, 120
2, 171356, Note_off_c, 0, 82, 100
2, 171360, Note_on_c, 0, 80, 120
2, 171452, Note_off_c, 0, 80, 100
2, 171456, Note_on_c, 0, 75, 120
2, 171548, Note_off_c, 0, 75, 100
2, 171552, Note_on_c, 0, 72, 120
2, 171644, Note_off_c, 0, 72, 100
2, 171648, Note_on_c, 0, 82, 120
2, 171740, Note_off_c, 0, 82, 100
2, 171744, Note_on_c, 0, 80, 120
2, 171836, Note_off_c, 0, 80, 100
2, 171840, Note_on_c, 0, 77, 120
2, 171932, Note_off_c, 0, 77, 100
2, 171936, Note_on_c, 0, 73, 120
2, 172028, Note_off_c, 0, 73, 100
2, 172032, Note_on_c, 0, 87, 120
2, 172124, Note_off_c, 0, 87, 100
2, 172128, Note_on_c, 0, 85, 120
2, 172220, Note_off_c, 0, 85, 100
2, 172224, Note_on_c, 0, 80, 120
2, 172316, Note_off_c, 0, 80, 100
2, 172320, Note_on_c, 0, 73, 120
2, 172412, Note_off_c, 0, 73, 100
2, 172416, Note_on_c, 0, 87, 120
2, 172508, Note_off_c, 0, 87, 100
2, 172512, Note_on_c, 0, 85, 120
2, 172604, Note_off_c, 0, 85, 100
2, 172608, Note_on_c, 0, 80, 120
2, 172700, Note_off_c, 0, 80, 100
2, 172704, Note_on_c, 0, 73, 120
2, 172796, Note_off_c, 0, 73, 100
2, 172800, Note_on_c, 0, 87, 120
2, 172892, Note_off_c, 0, 87, 100
2, 172896, Note_on_c, 0, 85, 120
2, 172988, Note_off_c, 0, 85, 100
2, 172992, Note_on_c, 0, 80, 120
2, 173084, Note_off_c, 0, 80, 100
2, 173088, Note_on_c, 0, 73, 120
2, 173180, Note_off_c, 0, 73, 100
2, 173184, Note_on_c, 0, 85, 120
2, 173276, Note_off_c, 0, 85, 100
2, 173280, Note_on_c, 0, 84, 120
2, 173372, Note_off_c, 0, 84, 100
2, 173376, Note_on_c, 0, 80, 120
2, 173468, Note_off_c, 0, 80, 100
2, 173472, Note_on_c, 0, 75, 120
2, 173564, Note_off_c, 0, 75, 100
2, 173568, Note_on_c, 0, 85, 120
2, 173660, Note_off_c, 0, 85, 100
2, 173664, Note_on_c, 0, 84, 120
2, 173756, Note_off_c, 0, 84, 100
2, 173760, Note_on_c, 0, 80, 120
2, 173852, Note_off_c, 0, 80, 100
2, 173856, Note_on_c, 0, 75, 120
2, 173948, Note_off_c, 0, 75, 100
2, 173952, Note_on_c, 0, 85, 120
2, 174044, Note_off_c, 0, 85, 100
2, 174048, Note_on_c, 0, 84, 120
2, 174140, Note_off_c, 0, 84, 100
2, 174144, Note_on_c, 0, 80, 120
2, 174236, Note_off_c, 0, 80, 100
2, 174240, Note_on_c, 0, 75, 120
2, 174332, Note_off_c, 0, 75, 100
2, 174336, Note_on_c, 0, 84, 120
2, 174428, Note_off_c, 0, 84, 100
2, 174432, Note_on_c, 0, 82, 120
2, 174524, Note_off_c, 0, 82, 100
2, 174528, Note_on_c, 0, 79, 120
2, 174620, Note_off_c, 0, 79, 100
2, 174624, Note_on_c, 0, 73, 120
2, 174716, Note_off_c, 0, 73, 100
2, 174720, Note_on_c, 0, 80, 120
2, 174720, Note_on_c, 0, 75, 120
2, 174720, Note_on_c, 0, 72, 120
2, 174908, Note_off_c, 0, 75, 100
2, 174908, Note_off_c, 0, 72, 100
2, 174912, Note_on_c, 0, 75, 120
2, 174912, Note_on_c, 0, 72, 120
2, 175100, Note_off_c, 0, 80, 100
2, 175100, Note_off_c, 0, 75, 100
2, 175100, Note_off_c, 0, 72, 100
2, 175104, Note_on_c, 0, 84, 120
2, 175104, Note_on_c, 0, 75, 120
2, 175104, Note_on_c, 0, 72, 120
2, 175292, Note_off_c, 0, 75, 100
2, 175292, Note_off_c, 0, 72, 100
2, 175296, Note_on_c, 0, 75, 120
2, 175296, Note_on_c, 0, 72, 120
2, 175484, Note_off_c, 0, 84, 100
2, 175484, Note_off_c, 0, 75, 100
2, 175484, Note_off_c, 0, 72, 100
2, 175488, Note_on_c, 0, 79, 120
2, 175488, Note_on_c, 0, 75, 120
2, 175488, Note_on_c, 0, 70, 120
2, 175676, Note_off_c, 0, 75, 100
2, 175676, Note_off_c, 0, 70, 100
2, 175680, Note_on_c, 0, 75, 120
2, 175680, Note_on_c, 0, 70, 120
2, 175868, Note_off_c, 0, 75, 100
2, 175868, Note_off_c, 0, 70, 100
2, 175872, Note_on_c, 0, 75, 120
2, 175872, Note_on_c, 0, 70, 120
2, 176060, Note_off_c, 0, 75, 100
2, 176060, Note_off_c, 0, 70, 100
2, 176064, Note_on_c, 0, 75, 120
2, 176064, Note_on_c, 0, 70, 120
2, 176252, Note_off_c, 0, 79, 100
2, 176252, Note_off_c, 0, 75, 100
2, 176252, Note_off_c, 0, 70, 100
2, 176256, Note_on_c, 0, 75, 120
2, 176256, Note_on_c, 0, 68, 120
2, 176256, Note_on_c, 0, 78, 120
2, 176444, Note_off_c, 0, 75, 100
2, 176444, Note_off_c, 0, 68, 100
2, 176448, Note_on_c, 0, 75, 120
2, 176448, Note_on_c, 0, 68, 120
2, 176636, Note_off_c, 0, 78, 100
2, 176636, Note_off_c, 0, 75, 100
2, 176636, Note_off_c, 0, 68, 100
2, 176640, Note_on_c, 0, 75, 120
2, 176640, Note_on_c, 0, 68, 120
2, 176640, Note_on_c, 0, 80, 120
2, 176828, Note_off_c, 0, 75, 100
2, 176828, Note_off_c, 0, 68, 100
2, 176832, Note_on_c, 0, 75, 120
2, 176832, Note_on_c, 0, 68, 120
2, 177020, Note_off_c, 0, 80, 100
2, 177020, Note_off_c, 0, 75, 100
2, 177020, Note_off_c, 0, 68, 100
2, 177024, Note_on_c, 0, 77, 120
2, 177024, Note_on_c, 0, 73, 120
2, 177024, Note_on_c, 0, 68, 120
2, 177212, Note_off_c, 0, 73, 100
2, 177212, Note_off_c, 0, 68, 100
2, 177216, Note_on_c, 0, 73, 120
2, 177216, Note_on_c, 0, 68, 120
2, 177404, Note_off_c, 0, 73, 100
2, 177404, Note_off_c, 0, 68, 100
2, 177408, Note_on_c, 0, 73, 120
2, 177408, Note_on_c, 0, 68, 120
2, 177596, Note_off_c, 0, 73, 100
2, 177596, Note_off_c, 0, 68, 100
2, 177600, Note_on_c, 0, 73, 120
2, 177600, Note_on_c, 0, 68, 120
2, 177788, Note_off_c, 0, 77, 100
2, 177788, Note_off_c, 0, 73, 100
2, 177788, Note_off_c, 0, 68, 100
2, 177792, Note_on_c, 0, 76, 120
2, 177792, Note_on_c, 0, 73, 120
2, 177792, Note_on_c, 0, 68, 120
2, 177980, Note_off_c, 0, 73, 100
2, 177980, Note_off_c, 0, 68, 100
2, 177984, Note_on_c, 0, 73, 120
2, 177984, Note_on_c, 0, 68, 120
2, 178172, Note_off_c, 0, 76, 100
2, 178172, Note_off_c, 0, 73, 100
2, 178172, Note_off_c, 0, 68, 100
2, 178176, Note_on_c, 0, 80, 120
2, 178176, Note_on_c, 0, 73, 120
2, 178176, Note_on_c, 0, 68, 120
2, 178364, Note_off_c, 0, 73, 100
2, 178364, Note_off_c, 0, 68, 100
2, 178368, Note_on_c, 0, 73, 120
2, 178368, Note_on_c, 0, 68, 120
2, 178556, Note_off_c, 0, 80, 100
2, 178556, Note_off_c, 0, 73, 100
2, 178556, Note_off_c, 0, 68, 100
2, 178560, Note_on_c, 0, 75, 120
2, 178560, Note_on_c, 0, 72, 120
2, 178560, Note_on_c, 0, 68, 120
2, 178940, Note_off_c, 0, 75, 100
2, 178940, Note_off_c, 0, 72, 100
2, 178940, Note_off_c, 0, 68, 100
2, 178944, Note_on_c, 0, 80, 120
2, 178944, Note_on_c, 0, 68, 120
2, 179228, Note_off_c, 0, 80, 100
2, 179228, Note_off_c, 0, 68, 100
2, 179232, Note_on_c, 0, 84, 120
2, 179232, Note_on_c, 0, 72, 120
2, 179324, Note_off_c, 0, 84, 100
2, 179324, Note_off_c, 0, 72, 100
2, 179328, Note_on_c, 0, 75, 120
2, 179328, Note_on_c, 0, 87, 120
2, 179516, Note_off_c, 0, 75, 100
2, 179516, Note_off_c, 0, 87, 100
2, 179520, Note_on_c, 0, 87, 120
2, 179708, Note_off_c, 0, 87, 100
2, 179712, Note_on_c, 0, 87, 120
2, 179760, Note_on_c, 0, 89, 120
2, 179804, Note_off_c, 0, 87, 100
2, 179808, Note_on_c, 0, 87, 120
2, 179852, Note_off_c, 0, 89, 100
2, 179856, Note_on_c, 0, 89, 120
2, 179900, Note_off_c, 0, 87, 100
2, 179904, Note_on_c, 0, 87, 120
2, 179948, Note_off_c, 0, 89, 100
2, 179952, Note_on_c, 0, 89, 120
2, 179996, Note_off_c, 0, 87, 100
2, 180000, Note_on_c, 0, 86, 120
2, 180044, Note_off_c, 0, 89, 100
2, 180048, Note_on_c, 0, 87, 120
2, 180092, Note_off_c, 0, 86, 100
2, 180096, Note_on_c, 0, 87, 120
2, 180140, Note_off_c, 0, 87, 100
2, 180284, Note_off_c, 0, 87, 100
2, 180288, Note_on_c, 0, 89, 120
2, 180380, Note_off_c, 0, 89, 100
2, 180384, Note_on_c, 0, 91, 120
2, 180476, Note_off_c, 0, 91, 100
2, 180480, Note_on_c, 0, 91, 120
2, 180668, Note_off_c, 0, 91, 100
2, 180672, Note_on_c, 0, 92, 120
2, 180860, Note_off_c, 0, 92, 100
2, 181056, Note_on_c, 0, 75, 120
2, 181244, Note_off_c, 0, 75, 100
2, 181248, Note_on_c, 0, 75, 120
2, 181296, Note_on_c, 0, 77, 120
2, 181340, Note_off_c, 0, 75, 100
2, 181344, Note_on_c, 0, 75, 120
2, 181388, Note_off_c, 0, 77, 100
2, 181392, Note_on_c, 0, 77, 120
2, 181436, Note_off_c, 0, 75, 100
2, 181440, Note_on_c, 0, 75, 120
2, 181484, Note_off_c, 0, 77, 100
2, 181488, Note_on_c, 0, 77, 120
2, 181532, Note_off_c, 0, 75, 100
2, 181536, Note_on_c, 0, 74, 120
2, 181580, Note_off_c, 0, 77, 100
2, 181584, Note_on_c, 0, 75, 120
2, 181628, Note_off_c, 0, 74, 100
2, 181632, Note_on_c, 0, 75, 120
2, 181676, Note_off_c, 0, 75, 100
2, 181820, Note_off_c, 0, 75, 100
2, 181824, Note_on_c, 0, 77, 120
2, 181916, Note_off_c, 0, 77, 100
2, 181920, Note_on_c, 0, 79, 120
2, 182012, Note_off_c, 0, 79, 100
2, 182016, Note_on_c, 0, 79, 120
2, 182204, Note_off_c, 0, 79, 100
2, 182208, Note_on_c, 0, 80, 120
2, 182396, Note_off_c, 0, 80, 100
2, 182592, Note_on_c, 0, 63, 120
2, 182780, Note_off_c, 0, 63, 100
2, 182784, Note_on_c, 0, 65, 120
2, 182832, Note_on_c, 0, 63, 120
2, 182876, Note_off_c, 0, 65, 100
2, 182880, Note_on_c, 0, 65, 120
2, 182924, Note_off_c, 0, 63, 100
2, 182928, Note_on_c, 0, 63, 120
2, 182972, Note_off_c, 0, 65, 100
2, 182976, Note_on_c, 0, 65, 120
2, 183020, Note_off_c, 0, 63, 100
2, 183068, Note_off_c, 0, 65, 100
2, 183072, Note_on_c, 0, 67, 120
2, 183164, Note_off_c, 0, 67, 100
2, 183168, Note_on_c, 0, 68, 120
2, 183260, Note_off_c, 0, 68, 100
2, 183264, Note_on_c, 0, 70, 120
2, 183356, Note_off_c, 0, 70, 100
2, 183360, Note_on_c, 0, 72, 120
2, 183452, Note_off_c, 0, 72, 100
2, 183456, Note_on_c, 0, 71, 120
2, 183548, Note_off_c, 0, 71, 100
2, 183552, Note_on_c, 0, 72, 120
2, 183644, Note_off_c, 0, 72, 100
2, 183648, Note_on_c, 0, 73, 120
2, 183740, Note_off_c, 0, 73, 100
2, 183744, Note_on_c, 0, 74, 120
2, 183836, Note_off_c, 0, 74, 100
2, 183840, Note_on_c, 0, 73, 120
2, 183932, Note_off_c, 0, 73, 100
2, 183936, Note_on_c, 0, 74, 120
2, 184028, Note_off_c, 0, 74, 100
2, 184032, Note_on_c, 0, 75, 120
2, 184124, Note_off_c, 0, 75, 100
2, 184128, Note_on_c, 0, 76, 120
2, 184220, Note_off_c, 0, 76, 100
2, 184224, Note_on_c, 0, 75, 120
2, 184316, Note_off_c, 0, 75, 100
2, 184320, Note_on_c, 0, 76, 120
2, 184412, Note_off_c, 0, 76, 100
2, 184416, Note_on_c, 0, 77, 120
2, 184508, Note_off_c, 0, 77, 100
2, 184512, Note_on_c, 0, 78, 120
2, 184604, Note_off_c, 0, 78, 100
2, 184608, Note_on_c, 0, 79, 120
2, 184700, Note_off_c, 0, 79, 100
2, 184704, Note_on_c, 0, 80, 120
2, 184796, Note_off_c, 0, 80, 100
2, 184800, Note_on_c, 0, 82, 120
2, 184892, Note_off_c, 0, 82, 100
2, 184896, Note_on_c, 0, 84, 120
2, 184988, Note_off_c, 0, 84, 100
2, 184992, Note_on_c, 0, 83, 120
2, 185084, Note_off_c, 0, 83, 100
2, 185088, Note_on_c, 0, 84, 120
2, 185180, Note_off_c, 0, 84, 100
2, 185184, Note_on_c, 0, 85, 120
2, 185276, Note_off_c, 0, 85, 100
2, 185280, Note_on_c, 0, 86, 120
2, 185372, Note_off_c, 0, 86, 100
2, 185376, Note_on_c, 0, 85, 120
2, 185468, Note_off_c, 0, 85, 100
2, 185472, Note_on_c, 0, 86, 120
2, 185564, Note_off_c, 0, 86, 100
2, 185568, Note_on_c, 0, 87, 120
2, 185660, Note_off_c, 0, 87, 100
2, 185664, Note_on_c, 0, 88, 120
2, 185756, Note_off_c, 0, 88, 100
2, 185760, Note_on_c, 0, 87, 120
2, 185852, Note_off_c, 0, 87, 100
2, 185856, Note_on_c, 0, 88, 120
2, 185948, Note_off_c, 0, 88, 100
2, 185952, Note_on_c, 0, 89, 120
2, 186044, Note_off_c, 0, 89, 100
2, 186048, Note_on_c, 0, 90, 120
2, 186140, Note_off_c, 0, 90, 100
2, 186144, Note_on_c, 0, 91, 120
2, 186236, Note_off_c, 0, 91, 100
2, 186240, Note_on_c, 0, 92, 120
2, 186240, Note_on_c, 0, 80, 120
2, 186620, Note_off_c, 0, 92, 100
2, 186620, Note_off_c, 0, 80, 100
2, 186624, Note_on_c, 0, 68, 120
2, 186624, Note_on_c, 0, 56, 120
2, 187004, Note_off_c, 0, 68, 100
2, 187004, Note_off_c, 0, 56, 100
2, 188160, Note_on_c, 0, 67, 80
2, 188160, Note_on_c, 0, 55, 80
2, 188540, Note_off_c, 0, 67, 100
2, 188540, Note_off_c, 0, 55, 100
2, 189504, Note_on_c, 0, 69, 120
2, 189564, Note_off_c, 0, 69, 100
2, 189568, Note_on_c, 0, 71, 120
2, 189628, Note_off_c, 0, 71, 100
2, 189632, Note_on_c, 0, 72, 120
2, 189692, Note_off_c, 0, 72, 100
2, 189696, Note_on_c, 0, 74, 120
2, 189696, Note_on_c, 0, 69, 120
2, 189696, Note_on_c, 0, 62, 120
2, 190076, Note_off_c, 0, 74, 100
2, 190076, Note_off_c, 0, 69, 100
2, 190076, Note_off_c, 0, 62, 100
2, 190848, Key_signature, -2, "minor"
2, 191424, Note_on_c, 0, 62, 80
2, 191484, Note_off_c, 0, 62, 100
2, 191488, Note_on_c, 0, 64, 80
2, 191548, Note_off_c, 0, 64, 100
2, 191552, Note_on_c, 0, 66, 80
2, 191612, Note_off_c, 0, 66, 100
2, 191616, Note_on_c, 0, 67, 80
2, 191616, Note_on_c, 0, 55, 80
2, 191996, Note_off_c, 0, 67, 100
2, 191996, Note_off_c, 0, 55, 100
2, 192000, Note_on_c, 0, 70, 80
2, 192000, Note_on_c, 0, 58, 80
2, 192380, Note_off_c, 0, 70, 100
2, 192380, Note_off_c, 0, 58, 100
2, 192384, Note_on_c, 0, 66, 80
2, 192384, Note_on_c, 0, 54, 80
2, 193148, Note_off_c, 0, 66, 100
2, 193148, Note_off_c, 0, 54, 100
2, 193152, Note_on_c, 0, 65, 80
2, 193152, Note_on_c, 0, 53, 80
2, 193532, Note_off_c, 0, 65, 100
2, 193532, Note_off_c, 0, 53, 100
2, 193536, Note_on_c, 0, 68, 80
2, 193536, Note_on_c, 0, 56, 80
2, 193916, Note_off_c, 0, 68, 100
2, 193916, Note_off_c, 0, 56, 100
2, 193920, Note_on_c, 0, 64, 80
2, 193920, Note_on_c, 0, 52, 80
2, 194684, Note_off_c, 0, 64, 100
2, 194684, Note_off_c, 0, 52, 100
2, 194688, Note_on_c, 0, 63, 80
2, 194688, Note_on_c, 0, 51, 80
2, 195068, Note_off_c, 0, 63, 100
2, 195068, Note_off_c, 0, 51, 100
2, 195072, Note_on_c, 0, 67, 80
2, 195072, Note_on_c, 0, 55, 80
2, 195452, Note_off_c, 0, 67, 100
2, 195452, Note_off_c, 0, 55, 100
2, 195456, Note_on_c, 0, 62, 80
2, 195456, Note_on_c, 0, 50, 80
2, 195836, Note_off_c, 0, 62, 100
2, 195836, Note_off_c, 0, 50, 100
2, 195840, Note_on_c, 0, 55, 80
2, 195840, Note_on_c, 0, 67, 80
2, 196124, Note_off_c, 0, 55, 100
2, 196124, Note_off_c, 0, 67, 100
2, 196128, Note_on_c, 0, 70, 80
2, 196128, Note_on_c, 0, 58, 80
2, 196220, Note_off_c, 0, 70, 100
2, 196220, Note_off_c, 0, 58, 100
2, 196224, Note_on_c, 0, 74, 80
2, 196224, Note_on_c, 0, 62, 80
2, 196604, Note_off_c, 0, 74, 100
2, 196604, Note_off_c, 0, 62, 100
2, 196608, Note_on_c, 0, 57, 80
2, 196608, Note_on_c, 0, 54, 80
2, 196608, Note_on_c, 0, 62, 80
2, 196988, Note_off_c, 0, 57, 100
2, 196988, Note_off_c, 0, 54, 100
2, 196988, Note_off_c, 0, 62, 100
2, 196992, Note_on_c, 0, 62, 80
2, 197756, Note_off_c, 0, 62, 100
2, 197760, Note_on_c, 0, 63, 80
2, 198524, Note_off_c, 0, 63, 100
2, 198528, Note_on_c, 0, 57, 80
2, 199292, Note_off_c, 0, 57, 100
2, 199296, Note_on_c, 0, 66, 80
2, 199344, Note_on_c, 0, 67, 80
2, 199388, Note_off_c, 0, 66, 100
2, 199392, Note_on_c, 0, 66, 80
2, 199436, Note_off_c, 0, 67, 100
2, 199440, Note_on_c, 0, 67, 80
2, 199484, Note_off_c, 0, 66, 100
2, 199488, Note_on_c, 0, 66, 80
2, 199532, Note_off_c, 0, 67, 100
2, 199536, Note_on_c, 0, 67, 80
2, 199580, Note_off_c, 0, 66, 100
2, 199584, Note_on_c, 0, 66, 80
2, 199628, Note_off_c, 0, 67, 100
2, 199632, Note_on_c, 0, 67, 80
2, 199676, Note_off_c, 0, 66, 100
2, 199680, Note_on_c, 0, 66, 80
2, 199724, Note_off_c, 0, 67, 100
2, 199728, Note_on_c, 0, 67, 80
2, 199772, Note_off_c, 0, 66, 100
2, 199776, Note_on_c, 0, 66, 80
2, 199820, Note_off_c, 0, 67, 100
2, 199824, Note_on_c, 0, 67, 80
2, 199868, Note_off_c, 0, 66, 100
2, 199872, Note_on_c, 0, 66, 80
2, 199916, Note_off_c, 0, 67, 100
2, 199920, Note_on_c, 0, 67, 80
2, 199964, Note_off_c, 0, 66, 100
2, 199968, Note_on_c, 0, 64, 80
2, 200012, Note_off_c, 0, 67, 100
2, 200016, Note_on_c, 0, 66, 80
2, 200060, Note_off_c, 0, 64, 100
2, 200064, Note_on_c, 0, 67, 80
2, 200108, Note_off_c, 0, 66, 100
2, 200156, Note_off_c, 0, 67, 100
2, 200160, Note_on_c, 0, 62, 80
2, 200252, Note_off_c, 0, 62, 100
2, 200256, Note_on_c, 0, 63, 80
2, 200348, Note_off_c, 0, 63, 100
2, 200352, Note_on_c, 0, 65, 80
2, 200444, Note_off_c, 0, 65, 100
2, 200448, Note_on_c, 0, 67, 80
2, 200540, Note_off_c, 0, 67, 100
2, 200544, Note_on_c, 0, 65, 80
2, 200636, Note_off_c, 0, 65, 100
2, 200640, Note_on_c, 0, 63, 80
2, 200732, Note_off_c, 0, 63, 100
2, 200736, Note_on_c, 0, 62, 80
2, 200828, Note_off_c, 0, 62, 100
2, 200832, Note_on_c, 0, 60, 80
2, 201212, Note_off_c, 0, 60, 100
2, 201216, Note_on_c, 0, 63, 80
2, 201596, Note_off_c, 0, 63, 100
2, 201600, Note_on_c, 0, 59, 80
2, 202172, Note_off_c, 0, 59, 100
2, 202176, Note_on_c, 0, 68, 80
2, 202364, Note_off_c, 0, 68, 100
2, 202368, Note_on_c, 0, 67, 80
2, 202556, Note_off_c, 0, 67, 100
2, 202560, Note_on_c, 0, 65, 80
2, 202748, Note_off_c, 0, 65, 100
2, 202752, Note_on_c, 0, 63, 80
2, 202940, Note_off_c, 0, 63, 100
2, 202944, Note_on_c, 0, 62, 80
2, 203132, Note_off_c, 0, 62, 100
2, 203136, Note_on_c, 0, 72, 80
2, 203136, Note_on_c, 0, 64, 80
2, 203228, Note_off_c, 0, 64, 100
2, 203232, Note_on_c, 0, 65, 80
2, 203324, Note_off_c, 0, 65, 100
2, 203328, Note_on_c, 0, 63, 80
2, 203420, Note_off_c, 0, 63, 100
2, 203424, Note_on_c, 0, 62, 80
2, 203516, Note_off_c, 0, 62, 100
2, 203520, Note_on_c, 0, 60, 80
2, 203612, Note_off_c, 0, 60, 100
2, 203616, Note_on_c, 0, 67, 80
2, 203708, Note_off_c, 0, 67, 100
2, 203712, Note_on_c, 0, 65, 80
2, 203804, Note_off_c, 0, 65, 100
2, 203808, Note_on_c, 0, 63, 80
2, 203900, Note_off_c, 0, 72, 100
2, 203900, Note_off_c, 0, 63, 100
2, 203904, Note_on_c, 0, 73, 80
2, 203904, Note_on_c, 0, 65, 80
2, 204284, Note_off_c, 0, 65, 100
2, 204288, Note_on_c, 0, 68, 80
2, 204668, Note_off_c, 0, 73, 100
2, 204668, Note_off_c, 0, 68, 100
2, 204672, Note_on_c, 0, 67, 80
2, 204672, Note_on_c, 0, 64, 80
2, 205244, Note_off_c, 0, 64, 100
2, 205248, Note_on_c, 0, 73, 80
2, 205436, Note_off_c, 0, 67, 100
2, 205436, Note_off_c, 0, 73, 100
2, 205440, Note_on_c, 0, 76, 80
2, 205440, Note_on_c, 0, 72, 80
2, 205488, Note_on_c, 0, 77, 80
2, 205532, Note_off_c, 0, 76, 100
2, 205536, Note_on_c, 0, 76, 80
2, 205580, Note_off_c, 0, 77, 100
2, 205584, Note_on_c, 0, 77, 80
2, 205628, Note_off_c, 0, 72, 100
2, 205628, Note_off_c, 0, 76, 100
2, 205632, Note_on_c, 0, 76, 80
2, 205632, Note_on_c, 0, 70, 80
2, 205676, Note_off_c, 0, 77, 100
2, 205680, Note_on_c, 0, 77, 80
2, 205724, Note_off_c, 0, 76, 100
2, 205728, Note_on_c, 0, 76, 80
2, 205772, Note_off_c, 0, 77, 100
2, 205776, Note_on_c, 0, 77, 80
2, 205820, Note_off_c, 0, 70, 100
2, 205820, Note_off_c, 0, 76, 100
2, 205824, Note_on_c, 0, 76, 80
2, 205824, Note_on_c, 0, 68, 80
2, 205868, Note_off_c, 0, 77, 100
2, 205872, Note_on_c, 0, 77, 80
2, 205916, Note_off_c, 0, 76, 100
2, 205920, Note_on_c, 0, 76, 80
2, 205964, Note_off_c, 0, 77, 100
2, 205968, Note_on_c, 0, 77, 80
2, 206012, Note_off_c, 0, 68, 100
2, 206012, Note_off_c, 0, 76, 100
2, 206016, Note_on_c, 0, 76, 80
2, 206016, Note_on_c, 0, 67, 80
2, 206060, Note_off_c, 0, 77, 100
2, 206064, Note_on_c, 0, 77, 80
2, 206108, Note_off_c, 0, 76, 100
2, 206112, Note_on_c, 0, 74, 80
2, 206156, Note_off_c, 0, 77, 100
2, 206160, Note_on_c, 0, 76, 80
2, 206204, Note_off_c, 0, 67, 100
2, 206204, Note_off_c, 0, 74, 100
2, 206208, Note_on_c, 0, 68, 80
2, 206208, Note_on_c, 0, 77, 80
2, 206252, Note_off_c, 0, 76, 100
2, 206300, Note_off_c, 0, 68, 100
2, 206304, Note_on_c, 0, 70, 80
2, 206396, Note_off_c, 0, 70, 100
2, 206400, Note_on_c, 0, 68, 80
2, 206492, Note_off_c, 0, 68, 100
2, 206496, Note_on_c, 0, 67, 80
2, 206588, Note_off_c, 0, 77, 100
2, 206588, Note_off_c, 0, 67, 100
2, 206592, Note_on_c, 0, 65, 80
2, 206684, Note_off_c, 0, 65, 100
2, 206688, Note_on_c, 0, 68, 80
2, 206780, Note_off_c, 0, 68, 100
2, 206784, Note_on_c, 0, 73, 80
2, 206876, Note_off_c, 0, 73, 100
2, 206880, Note_on_c, 0, 71, 80
2, 206972, Note_off_c, 0, 71, 100
2, 206976, Note_on_c, 0, 72, 80
2, 207068, Note_off_c, 0, 72, 100
2, 207072, Note_on_c, 0, 71, 80
2, 207164, Note_off_c, 0, 71, 100
2, 207168, Note_on_c, 0, 72, 80
2, 207260, Note_off_c, 0, 72, 100
2, 207264, Note_on_c, 0, 70, 80
2, 207356, Note_off_c, 0, 70, 100
2, 207360, Note_on_c, 0, 72, 80
2, 207452, Note_off_c, 0, 72, 100
2, 207456, Note_on_c, 0, 68, 80
2, 207548, Note_off_c, 0, 68, 100
2, 207552, Note_on_c, 0, 72, 80
2, 207644, Note_off_c, 0, 72, 100
2, 207648, Note_on_c, 0, 67, 80
2, 207740, Note_off_c, 0, 67, 100
2, 207744, Note_on_c, 0, 56, 80
2, 207744, Note_on_c, 0, 68, 80
2, 207836, Note_off_c, 0, 56, 100
2, 207836, Note_off_c, 0, 68, 100
2, 207840, Note_on_c, 0, 58, 80
2, 207932, Note_off_c, 0, 58, 100
2, 207936, Note_on_c, 0, 56, 80
2, 208028, Note_off_c, 0, 56, 100
2, 208032, Note_on_c, 0, 55, 80
2, 208124, Note_off_c, 0, 55, 100
2, 208128, Note_on_c, 0, 53, 80
2, 208220, Note_off_c, 0, 53, 100
2, 208224, Note_on_c, 0, 56, 80
2, 208316, Note_off_c, 0, 56, 100
2, 208320, Note_on_c, 0, 61, 80
2, 208412, Note_off_c, 0, 61, 100
2, 208416, Note_on_c, 0, 59, 80
2, 208508, Note_off_c, 0, 59, 100
2, 208512, Note_on_c, 0, 60, 80
2, 208604, Note_off_c, 0, 60, 100
2, 208608, Note_on_c, 0, 59, 80
2, 208700, Note_off_c, 0, 59, 100
2, 208704, Note_on_c, 0, 60, 80
2, 208796, Note_off_c, 0, 60, 100
2, 208800, Note_on_c, 0, 58, 80
2, 208892, Note_off_c, 0, 58, 100
2, 208896, Note_on_c, 0, 60, 80
2, 208988, Note_off_c, 0, 60, 100
2, 208992, Note_on_c, 0, 56, 80
2, 209084, Note_off_c, 0, 56, 100
2, 209088, Note_on_c, 0, 60, 80
2, 209180, Note_off_c, 0, 60, 100
2, 209184, Note_on_c, 0, 55, 80
2, 209276, Note_off_c, 0, 55, 100
2, 209280, Note_on_c, 0, 60, 80
2, 209372, Note_off_c, 0, 60, 100
2, 209376, Note_on_c, 0, 56, 81
2, 209468, Note_off_c, 0, 56, 100
2, 209472, Note_on_c, 0, 60, 82
2, 209564, Note_off_c, 0, 60, 100
2, 209568, Note_on_c, 0, 55, 83
2, 209660, Note_off_c, 0, 55, 100
2, 209664, Note_on_c, 0, 59, 85
2, 209756, Note_off_c, 0, 59, 100
2, 209760, Note_on_c, 0, 53, 86
2, 209852, Note_off_c, 0, 53, 100
2, 209856, Note_on_c, 0, 60, 87
2, 209948, Note_off_c, 0, 60, 100
2, 209952, Note_on_c, 0, 51, 89
2, 210044, Note_off_c, 0, 51, 100
2, 210048, Note_on_c, 0, 62, 90
2, 210140, Note_off_c, 0, 62, 100
2, 210144, Note_on_c, 0, 55, 91
2, 210236, Note_off_c, 0, 55, 100
2, 210240, Note_on_c, 0, 64, 92
2, 210332, Note_off_c, 0, 64, 100
2, 210336, Note_on_c, 0, 60, 94
2, 210428, Note_off_c, 0, 60, 100
2, 210432, Note_on_c, 0, 65, 95
2, 210524, Note_off_c, 0, 65, 100
2, 210528, Note_on_c, 0, 60, 96
2, 210620, Note_off_c, 0, 60, 100
2, 210624, Note_on_c, 0, 72, 98
2, 210624, Note_on_c, 0, 66, 98
2, 210716, Note_off_c, 0, 72, 100
2, 210716, Note_off_c, 0, 66, 100
2, 210720, Note_on_c, 0, 63, 99
2, 210812, Note_off_c, 0, 63, 100
2, 210816, Note_on_c, 0, 72, 100
2, 210816, Note_on_c, 0, 67, 100
2, 210908, Note_off_c, 0, 72, 100
2, 210908, Note_off_c, 0, 67, 100
2, 210912, Note_on_c, 0, 63, 101
2, 211004, Note_off_c, 0, 63, 100
2, 211008, Note_on_c, 0, 75, 103
2, 211008, Note_on_c, 0, 72, 103
2, 211008, Note_on_c, 0, 69, 103
2, 211100, Note_off_c, 0, 75, 100
2, 211100, Note_off_c, 0, 72, 100
2, 211100, Note_off_c, 0, 69, 100
2, 211104, Note_on_c, 0, 63, 104
2, 211196, Note_off_c, 0, 63, 100
2, 211200, Note_on_c, 0, 75, 105
2, 211200, Note_on_c, 0, 72, 105
2, 211200, Note_on_c, 0, 69, 105
2, 211292, Note_off_c, 0, 75, 100
2, 211292, Note_off_c, 0, 72, 100
2, 211292, Note_off_c, 0, 69, 100
2, 211296, Note_on_c, 0, 63, 107
2, 211388, Note_off_c, 0, 63, 100
2, 211392, Note_on_c, 0, 75, 108
2, 211392, Note_on_c, 0, 72, 108
2, 211392, Note_on_c, 0, 69, 108
2, 211484, Note_off_c, 0, 75, 100
2, 211484, Note_off_c, 0, 72, 100
2, 211484, Note_off_c, 0, 69, 100
2, 211488, Note_on_c, 0, 63, 109
2, 211580, Note_off_c, 0, 63, 100
2, 211584, Note_on_c, 0, 75, 110
2, 211584, Note_on_c, 0, 72, 110
2, 211584, Note_on_c, 0, 69, 110
2, 211676, Note_off_c, 0, 75, 100
2, 211676, Note_off_c, 0, 72, 100
2, 211676, Note_off_c, 0, 69, 100
2, 211680, Note_on_c, 0, 63, 112
2, 211772, Note_off_c, 0, 63, 100
2, 211776, Note_on_c, 0, 75, 113
2, 211776, Note_on_c, 0, 72, 113
2, 211776, Note_on_c, 0, 69, 113
2, 211868, Note_off_c, 0, 75, 100
2, 211868, Note_off_c, 0, 72, 100
2, 211868, Note_off_c, 0, 69, 100
2, 211872, Note_on_c, 0, 63, 114
2, 211964, Note_off_c, 0, 63, 100
2, 211968, Note_on_c, 0, 75, 116
2, 211968, Note_on_c, 0, 72, 116
2, 211968, Note_on_c, 0, 69, 116
2, 212060, Note_off_c, 0, 75, 100
2, 212060, Note_off_c, 0, 72, 100
2, 212060, Note_off_c, 0, 69, 100
2, 212064, Note_on_c, 0, 63, 117
2, 212156, Note_off_c, 0, 63, 100
2, 212160, Note_on_c, 0, 72, 118
2, 212160, Note_on_c, 0, 69, 118
2, 212160, Note_on_c, 0, 63, 118
2, 212252, Note_off_c, 0, 72, 100
2, 212252, Note_off_c, 0, 69, 100
2, 212252, Note_off_c, 0, 63, 100
2, 212256, Note_on_c, 0, 60, 119
2, 212348, Note_off_c, 0, 60, 100
2, 212352, Note_on_c, 0, 67, 110
2, 212352, Note_on_c, 0, 62, 110
2, 212352, Note_on_c, 0, 59, 110
2, 212732, Note_off_c, 0, 67, 100
2, 212732, Note_off_c, 0, 62, 100
2, 212732, Note_off_c, 0, 59, 100
2, 212736, Note_on_c, 0, 71, 110
2, 212736, Note_on_c, 0, 67, 110
2, 212736, Note_on_c, 0, 62, 110
2, 212736, Note_on_c, 0, 59, 110
2, 213116, Note_off_c, 0, 71, 100
2, 213116, Note_off_c, 0, 67, 100
2, 213116, Note_off_c, 0, 62, 100
2, 213116, Note_off_c, 0, 59, 100
2, 213120, Note_on_c, 0, 66, 110
2, 213120, Note_on_c, 0, 63, 110
2, 213120, Note_on_c, 0, 60, 110
2, 213120, Note_on_c, 0, 57, 110
2, 213884, Note_off_c, 0, 66, 100
2, 213884, Note_off_c, 0, 63, 100
2, 213884, Note_off_c, 0, 60, 100
2, 213884, Note_off_c, 0, 57, 100
2, 213888, Key_signature, -3, "minor"
2, 213888, Note_on_c, 0, 72, 110
2, 213888, Note_on_c, 0, 69, 110
2, 213888, Note_on_c, 0, 66, 110
2, 213888, Note_on_c, 0, 63, 110
2, 214268, Note_off_c, 0, 72, 100
2, 214268, Note_off_c, 0, 69, 100
2, 214268, Note_off_c, 0, 66, 100
2, 214268, Note_off_c, 0, 63, 100
2, 214272, Note_on_c, 0, 75, 110
2, 214272, Note_on_c, 0, 69, 110
2, 214272, Note_on_c, 0, 66, 110
2, 214272, Note_on_c, 0, 63, 110
2, 214652, Note_off_c, 0, 75, 100
2, 214652, Note_off_c, 0, 69, 100
2, 214652, Note_off_c, 0, 66, 100
2, 214652, Note_off_c, 0, 63, 100
2, 214656, Note_on_c, 0, 71, 110
2, 214656, Note_on_c, 0, 68, 110
2, 214656, Note_on_c, 0, 65, 110
2, 214656, Note_on_c, 0, 62, 110
2, 215420, Note_off_c, 0, 71, 100
2, 215420, Note_off_c, 0, 68, 100
2, 215420, Note_off_c, 0, 65, 100
2, 215420, Note_off_c, 0, 62, 100
2, 215424, Note_on_c, 0, 77, 110
2, 215424, Note_on_c, 0, 74, 110
2, 215424, Note_on_c, 0, 71, 110
2, 215424, Note_on_c, 0, 68, 110
2, 215804, Note_off_c, 0, 77, 100
2, 215804, Note_off_c, 0, 74, 100
2, 215804, Note_off_c, 0, 71, 100
2, 215804, Note_off_c, 0, 68, 100
2, 215808, Note_on_c, 0, 80, 110
2, 215808, Note_on_c, 0, 74, 110
2, 215808, Note_on_c, 0, 71, 110
2, 215808, Note_on_c, 0, 68, 110
2, 216188, Note_off_c, 0, 80, 100
2, 216188, Note_off_c, 0, 74, 100
2, 216188, Note_off_c, 0, 71, 100
2, 216188, Note_off_c, 0, 68, 100
2, 216192, Note_on_c, 0, 76, 110
2, 216192, Note_on_c, 0, 73, 110
2, 216192, Note_on_c, 0, 70, 110
2, 216192, Note_on_c, 0, 67, 110
2, 216956, Note_off_c, 0, 76, 100
2, 216956, Note_off_c, 0, 73, 100
2, 216956, Note_off_c, 0, 70, 100
2, 216956, Note_off_c, 0, 67, 100
2, 216960, Note_on_c, 0, 79, 110
2, 216960, Note_on_c, 0, 76, 110
2, 216960, Note_on_c, 0, 73, 110
2, 216960, Note_on_c, 0, 70, 110
2, 217340, Note_off_c, 0, 79, 100
2, 217340, Note_off_c, 0, 76, 100
2, 217340, Note_off_c, 0, 73, 100
2, 217340, Note_off_c, 0, 70, 100
2, 217344, Note_on_c, 0, 82, 110
2, 217344, Note_on_c, 0, 76, 110
2, 217344, Note_on_c, 0, 73, 110
2, 217344, Note_on_c, 0, 70, 110
2, 217724, Note_off_c, 0, 82, 100
2, 217724, Note_off_c, 0, 76, 100
2, 217724, Note_off_c, 0, 73, 100
2, 217724, Note_off_c, 0, 70, 100
2, 217728, Note_on_c, 0, 78, 110
2, 217728, Note_on_c, 0, 75, 110
2, 217728, Note_on_c, 0, 72, 110
2, 217728, Note_on_c, 0, 69, 110
2, 218492, Note_off_c, 0, 78, 100
2, 218492, Note_off_c, 0, 75, 100
2, 218492, Note_off_c, 0, 72, 100
2, 218492, Note_off_c, 0, 69, 100
2, 218496, Note_on_c, 0, 84, 110
2, 218496, Note_on_c, 0, 81, 110
2, 218496, Note_on_c, 0, 78, 110
2, 218496, Note_on_c, 0, 75, 110
2, 218876, Note_off_c, 0, 84, 100
2, 218876, Note_off_c, 0, 81, 100
2, 218876, Note_off_c, 0, 78, 100
2, 218876, Note_off_c, 0, 75, 100
2, 218880, Note_on_c, 0, 87, 110
2, 218880, Note_on_c, 0, 81, 110
2, 218880, Note_on_c, 0, 78, 110
2, 218880, Note_on_c, 0, 75, 110
2, 219260, Note_off_c, 0, 87, 100
2, 219260, Note_off_c, 0, 81, 100
2, 219260, Note_off_c, 0, 78, 100
2, 219260, Note_off_c, 0, 75, 100
2, 219264, Note_on_c, 0, 83, 110
2, 219264, Note_on_c, 0, 80, 110
2, 219264, Note_on_c, 0, 77, 110
2, 219264, Note_on_c, 0, 74, 110
2, 219840, Note_on_c, 0, 92, 110
2, 219840, Note_on_c, 0, 80, 110
2, 219844, Note_off_c, 0, 83, 100
2, 219844, Note_off_c, 0, 80, 100
2, 219844, Note_off_c, 0, 77, 100
2, 219844, Note_off_c, 0, 74, 100
2, 220028, Note_off_c, 0, 92, 100
2, 220028, Note_off_c, 0, 80, 100
2, 220032, Note_on_c, 0, 91, 110
2, 220124, Note_off_c, 0, 91, 100
2, 220128, Note_on_c, 0, 92, 110
2, 220220, Note_off_c, 0, 92, 100
2, 220224, Note_on_c, 0, 91, 110
2, 220316, Note_off_c, 0, 91, 100
2, 220320, Note_on_c, 0, 89, 110
2, 220412, Note_off_c, 0, 89, 100
2, 220416, Note_on_c, 0, 87, 110
2, 220508, Note_off_c, 0, 87, 100
2, 220512, Note_on_c, 0, 89, 110
2, 220604, Note_off_c, 0, 89, 100
2, 220608, Note_on_c, 0, 87, 110
2, 220700, Note_off_c, 0, 87, 100
2, 220704, Note_on_c, 0, 86, 110
2, 220796, Note_off_c, 0, 86, 100
2, 220800, Note_on_c, 0, 87, 110
2, 220892, Note_off_c, 0, 87, 100
2, 220896, Note_on_c, 0, 89, 110
2, 220988, Note_off_c, 0, 89, 100
2, 220992, Note_on_c, 0, 87, 110
2, 221084, Note_off_c, 0, 87, 100
2, 221088, Note_on_c, 0, 86, 110
2, 221180, Note_off_c, 0, 86, 100
2, 221184, Note_on_c, 0, 84, 110
2, 221276, Note_off_c, 0, 84, 100
2, 221280, Note_on_c, 0, 79, 110
2, 221372, Note_off_c, 0, 79, 100
2, 221376, Note_on_c, 0, 81, 110
2, 221468, Note_off_c, 0, 81, 100
2, 221472, Note_on_c, 0, 83, 110
2, 221564, Note_off_c, 0, 83, 100
2, 221568, Note_on_c, 0, 84, 120
2, 221568, Note_on_c, 0, 72, 120
2, 221948, Note_off_c, 0, 84, 100
2, 221948, Note_off_c, 0, 72, 100
2, 221952, Note_on_c, 0, 87, 120
2, 221952, Note_on_c, 0, 75, 120
2, 222332, Note_off_c, 0, 87, 100
2, 222332, Note_off_c, 0, 75, 100
2, 222336, Note_on_c, 0, 83, 120
2, 222336, Note_on_c, 0, 71, 120
2, 222908, Note_off_c, 0, 83, 100
2, 222908, Note_off_c, 0, 71, 100
2, 222912, Note_on_c, 0, 92, 120
2, 222912, Note_on_c, 0, 80, 120
2, 223100, Note_off_c, 0, 92, 100
2, 223100, Note_off_c, 0, 80, 100
2, 223104, Note_on_c, 0, 91, 120
2, 223104, Note_on_c, 0, 79, 120
2, 223292, Note_off_c, 0, 91, 100
2, 223292, Note_off_c, 0, 79, 100
2, 223296, Note_on_c, 0, 89, 120
2, 223296, Note_on_c, 0, 77, 120
2, 223484, Note_off_c, 0, 89, 100
2, 223484, Note_off_c, 0, 77, 100
2, 223488, Note_on_c, 0, 87, 120
2, 223488, Note_on_c, 0, 75, 120
2, 223676, Note_off_c, 0, 87, 100
2, 223676, Note_off_c, 0, 75, 100
2, 223680, Note_on_c, 0, 86, 120
2, 223680, Note_on_c, 0, 74, 120
2, 223868, Note_off_c, 0, 86, 100
2, 223868, Note_off_c, 0, 74, 100
2, 223872, Note_on_c, 0, 87, 120
2, 223872, Note_on_c, 0, 75, 120
2, 223964, Note_off_c, 0, 87, 100
2, 223964, Note_off_c, 0, 75, 100
2, 223968, Note_on_c, 0, 89, 120
2, 224060, Note_off_c, 0, 89, 100
2, 224064, Note_on_c, 0, 87, 120
2, 224156, Note_off_c, 0, 87, 100
2, 224160, Note_on_c, 0, 86, 120
2, 224252, Note_off_c, 0, 86, 100
2, 224256, Note_on_c, 0, 84, 120
2, 224256, Note_on_c, 0, 72, 120
2, 224444, Note_off_c, 0, 84, 100
2, 224444, Note_off_c, 0, 72, 100
2, 224448, Note_on_c, 0, 92, 80
2, 224448, Note_on_c, 0, 79, 80
2, 224448, Note_on_c, 0, 77, 80
2, 224636, Note_off_c, 0, 92, 100
2, 224636, Note_off_c, 0, 79, 100
2, 224636, Note_off_c, 0, 77, 100
2, 224640, Note_on_c, 0, 91, 80
2, 224640, Note_on_c, 0, 79, 80
2, 224640, Note_on_c, 0, 77, 80
2, 224828, Note_off_c, 0, 91, 100
2, 224828, Note_off_c, 0, 79, 100
2, 224828, Note_off_c, 0, 77, 100
2, 224832, Note_on_c, 0, 89, 80
2, 224832, Note_on_c, 0, 79, 80
2, 224832, Note_on_c, 0, 77, 80
2, 225020, Note_off_c, 0, 89, 100
2, 225020, Note_off_c, 0, 79, 100
2, 225020, Note_off_c, 0, 77, 100
2, 225024, Note_on_c, 0, 87, 80
2, 225024, Note_on_c, 0, 79, 80
2, 225024, Note_on_c, 0, 77, 80
2, 225212, Note_off_c, 0, 87, 100
2, 225212, Note_off_c, 0, 79, 100
2, 225212, Note_off_c, 0, 77, 100
2, 225216, Note_on_c, 0, 86, 80
2, 225216, Note_on_c, 0, 79, 80
2, 225216, Note_on_c, 0, 77, 80
2, 225404, Note_off_c, 0, 86, 100
2, 225404, Note_off_c, 0, 79, 100
2, 225404, Note_off_c, 0, 77, 100
2, 225408, Note_on_c, 0, 87, 80
2, 225500, Note_off_c, 0, 87, 100
2, 225504, Note_on_c, 0, 89, 80
2, 225596, Note_off_c, 0, 89, 100
2, 225600, Note_on_c, 0, 87, 80
2, 225600, Note_on_c, 0, 79, 80
2, 225600, Note_on_c, 0, 75, 80
2, 225692, Note_off_c, 0, 87, 100
2, 225696, Note_on_c, 0, 86, 80
2, 225788, Note_off_c, 0, 86, 100
2, 225792, Note_on_c, 0, 84, 80
2, 225980, Note_off_c, 0, 79, 100
2, 225980, Note_off_c, 0, 75, 100
2, 225980, Note_off_c, 0, 84, 100
2, 225984, Note_on_c, 0, 80, 80
2, 225984, Note_on_c, 0, 67, 80
2, 225984, Note_on_c, 0, 65, 80
2, 226172, Note_off_c, 0, 80, 100
2, 226172, Note_off_c, 0, 67, 100
2, 226172, Note_off_c, 0, 65, 100
2, 226176, Note_on_c, 0, 79, 80
2, 226176, Note_on_c, 0, 67, 80
2, 226176, Note_on_c, 0, 65, 80
2, 226364, Note_off_c, 0, 79, 100
2, 226364, Note_off_c, 0, 67, 100
2, 226364, Note_off_c, 0, 65, 100
2, 226368, Note_on_c, 0, 77, 80
2, 226368, Note_on_c, 0, 67, 80
2, 226368, Note_on_c, 0, 65, 80
2, 226556, Note_off_c, 0, 77, 100
2, 226556, Note_off_c, 0, 67, 100
2, 226556, Note_off_c, 0, 65, 100
2, 226560, Note_on_c, 0, 75, 80
2, 226560, Note_on_c, 0, 67, 80
2, 226560, Note_on_c, 0, 65, 80
2, 226748, Note_off_c, 0, 75, 100
2, 226748, Note_off_c, 0, 67, 100
2, 226748, Note_off_c, 0, 65, 100
2, 226752, Note_on_c, 0, 74, 80
2, 226752, Note_on_c, 0, 67, 80
2, 226752, Note_on_c, 0, 65, 80
2, 226940, Note_off_c, 0, 74, 100
2, 226940, Note_off_c, 0, 67, 100
2, 226940, Note_off_c, 0, 65, 100
2, 226944, Note_on_c, 0, 75, 80
2, 227036, Note_off_c, 0, 75, 100
2, 227040, Note_on_c, 0, 77, 80
2, 227132, Note_off_c, 0, 77, 100
2, 227136, Note_on_c, 0, 75, 80
2, 227136, Note_on_c, 0, 67, 80
2, 227136, Note_on_c, 0, 63, 80
2, 227228, Note_off_c, 0, 75, 100
2, 227232, Note_on_c, 0, 74, 80
2, 227324, Note_off_c, 0, 74, 100
2, 227328, Note_on_c, 0, 72, 80
2, 227516, Note_off_c, 0, 67, 100
2, 227516, Note_off_c, 0, 63, 100
2, 227516, Note_off_c, 0, 72, 100
2, 227520, Note_on_c, 0, 92, 80
2, 227520, Note_on_c, 0, 80, 80
2, 227612, Note_off_c, 0, 92, 100
2, 227612, Note_off_c, 0, 80, 100
2, 227712, Note_on_c, 0, 91, 81
2, 227712, Note_on_c, 0, 79, 81
2, 227804, Note_off_c, 0, 91, 100
2, 227804, Note_off_c, 0, 79, 100
2, 227904, Note_on_c, 0, 89, 82
2, 227904, Note_on_c, 0, 77, 82
2, 227996, Note_off_c, 0, 89, 100
2, 227996, Note_off_c, 0, 77, 100
2, 228096, Note_on_c, 0, 87, 83
2, 228096, Note_on_c, 0, 75, 83
2, 228188, Note_off_c, 0, 87, 100
2, 228188, Note_off_c, 0, 75, 100
2, 228288, Note_on_c, 0, 86, 84
2, 228288, Note_on_c, 0, 74, 84
2, 228380, Note_off_c, 0, 86, 100
2, 228380, Note_off_c, 0, 74, 100
2, 228480, Note_on_c, 0, 87, 86
2, 228480, Note_on_c, 0, 75, 86
2, 228572, Note_off_c, 0, 87, 100
2, 228572, Note_off_c, 0, 75, 100
2, 228672, Note_on_c, 0, 86, 87
2, 228672, Note_on_c, 0, 74, 87
2, 228764, Note_off_c, 0, 86, 100
2, 228764, Note_off_c, 0, 74, 100
2, 228864, Note_on_c, 0, 72, 88
2, 228864, Note_on_c, 0, 84, 88
2, 228956, Note_off_c, 0, 72, 100
2, 228956, Note_off_c, 0, 84, 100
2, 229056, Note_on_c, 0, 83, 89
2, 229056, Note_on_c, 0, 71, 89
2, 229148, Note_off_c, 0, 83, 100
2, 229148, Note_off_c, 0, 71, 100
2, 229248, Note_on_c, 0, 84, 91
2, 229248, Note_on_c, 0, 72, 91
2, 229340, Note_off_c, 0, 84, 100
2, 229340, Note_off_c, 0, 72, 100
2, 229440, Note_on_c, 0, 82, 92
2, 229440, Note_on_c, 0, 70, 92
2, 229532, Note_off_c, 0, 82, 100
2, 229532, Note_off_c, 0, 70, 100
2, 229632, Note_on_c, 0, 80, 93
2, 229632, Note_on_c, 0, 68, 93
2, 229724, Note_off_c, 0, 80, 100
2, 229724, Note_off_c, 0, 68, 100
2, 229824, Note_on_c, 0, 79, 94
2, 229824, Note_on_c, 0, 67, 94
2, 229916, Note_off_c, 0, 79, 100
2, 229916, Note_off_c, 0, 67, 100
2, 230016, Note_on_c, 0, 80, 96
2, 230016, Note_on_c, 0, 68, 96
2, 230108, Note_off_c, 0, 80, 100
2, 230108, Note_off_c, 0, 68, 100
2, 230208, Note_on_c, 0, 79, 97
2, 230224, Note_on_c, 0, 67, 97
2, 230300, Note_off_c, 0, 79, 100
2, 230316, Note_off_c, 0, 67, 100
2, 230400, Note_on_c, 0, 77, 98
2, 230400, Note_on_c, 0, 65, 98
2, 230492, Note_off_c, 0, 77, 100
2, 230492, Note_off_c, 0, 65, 100
2, 230592, Note_on_c, 0, 75, 99
2, 230592, Note_on_c, 0, 63, 99
2, 230684, Note_off_c, 0, 75, 100
2, 230684, Note_off_c, 0, 63, 100
2, 230784, Control_c, 0, 64, 127
2, 230784, Note_on_c, 0, 73, 101
2, 230784, Note_on_c, 0, 61, 101
2, 230972, Note_off_c, 0, 73, 100
2, 230972, Note_off_c, 0, 61, 100
2, 230976, Note_on_c, 0, 80, 102
2, 230976, Note_on_c, 0, 68, 102
2, 231164, Note_off_c, 0, 80, 100
2, 231164, Note_off_c, 0, 68, 100
2, 231168, Note_on_c, 0, 85, 103
2, 231168, Note_on_c, 0, 73, 103
2, 231356, Note_off_c, 0, 85, 100
2, 231356, Note_off_c, 0, 73, 100
2, 231360, Note_on_c, 0, 89, 104
2, 231360, Note_on_c, 0, 77, 104
2, 231548, Note_off_c, 0, 89, 100
2, 231548, Note_off_c, 0, 77, 100
2, 231552, Note_on_c, 0, 92, 106
2, 231552, Note_on_c, 0, 80, 106
2, 231740, Note_off_c, 0, 92, 100
2, 231740, Note_off_c, 0, 80, 100
2, 231744, Note_on_c, 0, 80, 107
2, 231744, Note_on_c, 0, 68, 107
2, 231932, Note_off_c, 0, 80, 100
2, 231932, Note_off_c, 0, 68, 100
2, 231936, Note_on_c, 0, 77, 108
2, 231936, Note_on_c, 0, 65, 108
2, 232124, Note_off_c, 0, 77, 100
2, 232124, Note_off_c, 0, 65, 100
2, 232128, Note_on_c, 0, 73, 109
2, 232128, Note_on_c, 0, 61, 109
2, 232312, Control_c, 0, 64, 0
2, 232316, Note_off_c, 0, 73, 100
2, 232316, Note_off_c, 0, 61, 100
2, 232320, Note_on_c, 0, 73, 110
2, 232320, Note_on_c, 0, 61, 110
2, 232508, Note_off_c, 0, 73, 100
2, 232508, Note_off_c, 0, 61, 100
2, 232512, Note_on_c, 0, 72, 106
2, 232512, Note_on_c, 0, 60, 106
2, 232700, Note_off_c, 0, 72, 100
2, 232700, Note_off_c, 0, 60, 100
2, 232704, Note_on_c, 0, 72, 102
2, 232704, Note_on_c, 0, 60, 102
2, 232892, Note_off_c, 0, 72, 100
2, 232892, Note_off_c, 0, 60, 100
2, 232896, Note_on_c, 0, 72, 98
2, 232896, Note_on_c, 0, 60, 98
2, 233084, Note_off_c, 0, 72, 100
2, 233084, Note_off_c, 0, 60, 100
2, 233088, Note_on_c, 0, 72, 94
2, 233088, Note_on_c, 0, 67, 94
2, 233088, Note_on_c, 0, 60, 94
2, 233276, Note_off_c, 0, 72, 100
2, 233276, Note_off_c, 0, 67, 100
2, 233276, Note_off_c, 0, 60, 100
2, 233280, Note_on_c, 0, 73, 90
2, 233280, Note_on_c, 0, 67, 90
2, 233280, Note_on_c, 0, 60, 90
2, 233660, Note_off_c, 0, 73, 100
2, 233660, Note_off_c, 0, 67, 100
2, 233660, Note_off_c, 0, 60, 100
2, 233664, Note_on_c, 0, 70, 82
2, 233664, Note_on_c, 0, 67, 82
2, 233664, Note_on_c, 0, 60, 82
2, 233852, Note_off_c, 0, 70, 100
2, 233852, Note_off_c, 0, 67, 100
2, 233852, Note_off_c, 0, 60, 100
2, 233856, Note_on_c, 0, 68, 110
2, 233948, Note_off_c, 0, 68, 100
2, 233952, Note_on_c, 0, 72, 110
2, 234044, Note_off_c, 0, 72, 100
2, 234048, Note_on_c, 0, 70, 110
2, 234140, Note_off_c, 0, 70, 100
2, 234144, Note_on_c, 0, 68, 110
2, 234236, Note_off_c, 0, 68, 100
2, 234240, Note_on_c, 0, 67, 110
2, 234332, Note_off_c, 0, 67, 100
2, 234336, Note_on_c, 0, 65, 110
2, 234428, Note_off_c, 0, 65, 100
2, 234432, Note_on_c, 0, 64, 110
2, 234524, Note_off_c, 0, 64, 100
2, 234528, Note_on_c, 0, 65, 110
2, 234620, Note_off_c, 0, 65, 100
2, 234624, Note_on_c, 0, 67, 110
2, 234716, Note_off_c, 0, 67, 100
2, 234720, Note_on_c, 0, 68, 110
2, 234812, Note_off_c, 0, 68, 100
2, 234816, Note_on_c, 0, 70, 110
2, 234908, Note_off_c, 0, 70, 100
2, 234912, Note_on_c, 0, 67, 110
2, 235004, Note_off_c, 0, 67, 100
2, 235008, Note_on_c, 0, 61, 110
2, 235100, Note_off_c, 0, 61, 100
2, 235104, Note_on_c, 0, 64, 110
2, 235196, Note_off_c, 0, 64, 100
2, 235200, Note_on_c, 0, 67, 110
2, 235292, Note_off_c, 0, 67, 100
2, 235296, Note_on_c, 0, 70, 110
2, 235580, Note_off_c, 0, 70, 100
2, 235584, Note_on_c, 0, 64, 110
2, 235584, Note_on_c, 0, 52, 110
2, 235772, Note_off_c, 0, 64, 100
2, 235772, Note_off_c, 0, 52, 100
2, 235776, Note_on_c, 0, 65, 110
2, 235776, Note_on_c, 0, 53, 110
2, 235964, Note_off_c, 0, 65, 100
2, 235964, Note_off_c, 0, 53, 100
2, 235968, Note_on_c, 0, 64, 110
2, 235968, Note_on_c, 0, 52, 110
2, 236156, Note_off_c, 0, 64, 100
2, 236156, Note_off_c, 0, 52, 100
2, 236160, Note_on_c, 0, 65, 110
2, 236160, Note_on_c, 0, 53, 110
2, 236348, Note_off_c, 0, 65, 100
2, 236348, Note_off_c, 0, 53, 100
2, 236352, Note_on_c, 0, 70, 110
2, 236352, Note_on_c, 0, 58, 110
2, 236540, Note_off_c, 0, 70, 100
2, 236540, Note_off_c, 0, 58, 100
2, 236544, Note_on_c, 0, 68, 110
2, 236544, Note_on_c, 0, 56, 110
2, 236732, Note_off_c, 0, 68, 100
2, 236732, Note_off_c, 0, 56, 100
2, 236736, Note_on_c, 0, 65, 110
2, 236736, Note_on_c, 0, 53, 110
2, 236924, Note_off_c, 0, 65, 100
2, 236924, Note_off_c, 0, 53, 100
2, 237120, Note_on_c, 0, 65, 110
2, 237120, Note_on_c, 0, 53, 110
2, 237308, Note_off_c, 0, 65, 100
2, 237308, Note_off_c, 0, 53, 100
2, 237312, Note_on_c, 0, 67, 110
2, 237312, Note_on_c, 0, 55, 110
2, 237500, Note_off_c, 0, 67, 100
2, 237500, Note_off_c, 0, 55, 100
2, 237504, Note_on_c, 0, 67, 110
2, 237504, Note_on_c, 0, 55, 110
2, 237884, Note_off_c, 0, 67, 100
2, 237884, Note_off_c, 0, 55, 100
2, 237888, Note_on_c, 0, 72, 110
2, 237888, Note_on_c, 0, 60, 110
2, 238076, Note_off_c, 0, 72, 100
2, 238076, Note_off_c, 0, 60, 100
2, 238080, Note_on_c, 0, 70, 110
2, 238080, Note_on_c, 0, 58, 110
2, 238268, Note_off_c, 0, 70, 100
2, 238268, Note_off_c, 0, 58, 100
2, 238272, Note_on_c, 0, 67, 110
2, 238272, Note_on_c, 0, 55, 110
2, 238460, Note_off_c, 0, 67, 100
2, 238460, Note_off_c, 0, 55, 100
2, 238656, Note_on_c, 0, 67, 110
2, 238656, Note_on_c, 0, 55, 110
2, 238844, Note_off_c, 0, 67, 100
2, 238844, Note_off_c, 0, 55, 100
2, 238848, Note_on_c, 0, 68, 110
2, 238848, Note_on_c, 0, 56, 110
2, 239036, Note_off_c, 0, 68, 100
2, 239036, Note_off_c, 0, 56, 100
2, 239040, Note_on_c, 0, 68, 110
2, 239040, Note_on_c, 0, 56, 110
2, 239420, Note_off_c, 0, 68, 100
2, 239420, Note_off_c, 0, 56, 100
2, 239424, Note_on_c, 0, 73, 110
2, 239424, Note_on_c, 0, 61, 110
2, 239612, Note_off_c, 0, 73, 100
2, 239612, Note_off_c, 0, 61, 100
2, 239616, Note_on_c, 0, 72, 110
2, 239616, Note_on_c, 0, 60, 110
2, 239804, Note_off_c, 0, 72, 100
2, 239804, Note_off_c, 0, 60, 100
2, 239808, Note_on_c, 0, 72, 110
2, 239808, Note_on_c, 0, 60, 110
2, 239900, Note_off_c, 0, 72, 100
2, 239900, Note_off_c, 0, 60, 100
2, 239904, Note_on_c, 0, 70, 110
2, 239996, Note_off_c, 0, 70, 100
2, 240000, Note_on_c, 0, 69, 110
2, 240188, Note_off_c, 0, 69, 100
2, 240192, Note_on_c, 0, 70, 110
2, 240284, Note_off_c, 0, 70, 100
2, 240288, Note_on_c, 0, 72, 110
2, 240380, Note_off_c, 0, 72, 100
2, 240384, Note_on_c, 0, 65, 110
2, 240476, Note_off_c, 0, 65, 100
2, 240480, Note_on_c, 0, 66, 110
2, 240572, Note_off_c, 0, 66, 100
2, 240576, Note_on_c, 0, 65, 110
2, 240668, Note_off_c, 0, 65, 100
2, 240672, Note_on_c, 0, 63, 110
2, 240764, Note_off_c, 0, 63, 100
2, 240768, Note_on_c, 0, 65, 110
2, 240768, Note_on_c, 0, 70, 110
2, 240860, Note_off_c, 0, 65, 100
2, 240864, Note_on_c, 0, 66, 110
2, 240956, Note_off_c, 0, 66, 100
2, 240960, Note_on_c, 0, 65, 110
2, 241052, Note_off_c, 0, 65, 100
2, 241056, Note_on_c, 0, 63, 110
2, 241148, Note_off_c, 0, 70, 100
2, 241148, Note_off_c, 0, 63, 100
2, 241152, Note_on_c, 0, 61, 110
2, 241152, Note_on_c, 0, 73, 110
2, 241244, Note_off_c, 0, 61, 100
2, 241248, Note_on_c, 0, 65, 110
2, 241340, Note_off_c, 0, 65, 100
2, 241344, Note_on_c, 0, 61, 110
2, 241436, Note_off_c, 0, 61, 100
2, 241440, Note_on_c, 0, 65, 110
2, 241532, Note_off_c, 0, 73, 100
2, 241532, Note_off_c, 0, 65, 100
2, 241536, Note_on_c, 0, 63, 110
2, 241536, Note_on_c, 0, 69, 110
2, 241628, Note_off_c, 0, 63, 100
2, 241632, Note_on_c, 0, 65, 110
2, 241724, Note_off_c, 0, 65, 100
2, 241728, Note_on_c, 0, 66, 110
2, 241820, Note_off_c, 0, 66, 100
2, 241824, Note_on_c, 0, 65, 110
2, 241916, Note_off_c, 0, 65, 100
2, 241920, Note_on_c, 0, 63, 110
2, 242108, Note_off_c, 0, 69, 100
2, 242108, Note_off_c, 0, 63, 100
2, 242112, Note_on_c, 0, 78, 110
2, 242112, Note_on_c, 0, 75, 110
2, 242204, Note_off_c, 0, 75, 100
2, 242208, Note_on_c, 0, 73, 110
2, 242300, Note_off_c, 0, 78, 100
2, 242300, Note_off_c, 0, 73, 100
2, 242304, Note_on_c, 0, 72, 110
2, 242304, Note_on_c, 0, 77, 110
2, 242396, Note_off_c, 0, 77, 100
2, 242400, Note_on_c, 0, 78, 110
2, 242492, Note_off_c, 0, 78, 100
2, 242496, Note_on_c, 0, 77, 110
2, 242588, Note_off_c, 0, 77, 100
2, 242592, Note_on_c, 0, 75, 110
2, 242684, Note_off_c, 0, 72, 100
2, 242684, Note_off_c, 0, 75, 100
2, 242688, Note_on_c, 0, 73, 110
2, 242780, Note_off_c, 0, 73, 100
2, 242784, Note_on_c, 0, 75, 110
2, 242876, Note_off_c, 0, 75, 100
2, 242880, Note_on_c, 0, 73, 110
2, 242972, Note_off_c, 0, 73, 100
2, 242976, Note_on_c, 0, 72, 110
2, 243068, Note_off_c, 0, 72, 100
2, 243072, Note_on_c, 0, 73, 110
2, 243164, Note_off_c, 0, 73, 100
2, 243168, Note_on_c, 0, 75, 110
2, 243260, Note_off_c, 0, 75, 100
2, 243264, Note_on_c, 0, 73, 110
2, 243356, Note_off_c, 0, 73, 100
2, 243360, Note_on_c, 0, 72, 110
2, 243452, Note_off_c, 0, 72, 100
2, 243456, Note_on_c, 0, 70, 110
2, 243548, Note_off_c, 0, 70, 100
2, 243552, Note_on_c, 0, 73, 110
2, 243644, Note_off_c, 0, 73, 100
2, 243648, Note_on_c, 0, 77, 110
2, 243740, Note_off_c, 0, 77, 100
2, 243744, Note_on_c, 0, 80, 110
2, 243836, Note_off_c, 0, 80, 100
2, 243840, Note_on_c, 0, 78, 110
2, 243932, Note_off_c, 0, 78, 100
2, 243936, Note_on_c, 0, 80, 110
2, 244028, Note_off_c, 0, 80, 100
2, 244032, Note_on_c, 0, 78, 110
2, 244124, Note_off_c, 0, 78, 100
2, 244128, Note_on_c, 0, 77, 110
2, 244220, Note_off_c, 0, 77, 100
2, 244224, Note_on_c, 0, 75, 110
2, 244316, Note_off_c, 0, 75, 100
2, 244320, Note_on_c, 0, 77, 110
2, 244412, Note_off_c, 0, 77, 100
2, 244416, Note_on_c, 0, 75, 110
2, 244508, Note_off_c, 0, 75, 100
2, 244512, Note_on_c, 0, 73, 110
2, 244604, Note_off_c, 0, 73, 100
2, 244608, Note_on_c, 0, 75, 110
2, 244700, Note_off_c, 0, 75, 100
2, 244704, Note_on_c, 0, 77, 110
2, 244796, Note_off_c, 0, 77, 100
2, 244800, Note_on_c, 0, 75, 110
2, 244892, Note_off_c, 0, 75, 100
2, 244896, Note_on_c, 0, 73, 110
2, 244988, Note_off_c, 0, 73, 100
2, 244992, Note_on_c, 0, 72, 110
2, 245084, Note_off_c, 0, 72, 100
2, 245088, Note_on_c, 0, 75, 110
2, 245180, Note_off_c, 0, 75, 100
2, 245184, Note_on_c, 0, 78, 110
2, 245276, Note_off_c, 0, 78, 100
2, 245280, Note_on_c, 0, 82, 110
2, 245372, Note_off_c, 0, 82, 100
2, 245376, Note_on_c, 0, 80, 110
2, 245468, Note_off_c, 0, 80, 100
2, 245472, Note_on_c, 0, 82, 110
2, 245564, Note_off_c, 0, 82, 100
2, 245568, Note_on_c, 0, 80, 110
2, 245660, Note_off_c, 0, 80, 100
2, 245664, Note_on_c, 0, 78, 110
2, 245756, Note_off_c, 0, 78, 100
2, 245760, Note_on_c, 0, 77, 110
2, 245852, Note_off_c, 0, 77, 100
2, 245856, Note_on_c, 0, 78, 110
2, 245948, Note_off_c, 0, 78, 100
2, 245952, Note_on_c, 0, 77, 110
2, 246044, Note_off_c, 0, 77, 100
2, 246048, Note_on_c, 0, 75, 110
2, 246140, Note_off_c, 0, 75, 100
2, 246144, Note_on_c, 0, 80, 110
2, 246144, Note_on_c, 0, 85, 110
2, 246236, Note_off_c, 0, 80, 100
2, 246240, Note_on_c, 0, 82, 110
2, 246332, Note_off_c, 0, 82, 100
2, 246336, Note_on_c, 0, 80, 110
2, 246428, Note_off_c, 0, 80, 100
2, 246432, Note_on_c, 0, 78, 110
2, 246524, Note_off_c, 0, 85, 100
2, 246524, Note_off_c, 0, 78, 100
2, 246528, Note_on_c, 0, 89, 110
2, 246528, Note_on_c, 0, 77, 110
2, 246620, Note_off_c, 0, 77, 100
2, 246624, Note_on_c, 0, 78, 110
2, 246716, Note_off_c, 0, 78, 100
2, 246720, Note_on_c, 0, 80, 110
2, 246812, Note_off_c, 0, 80, 100
2, 246816, Note_on_c, 0, 77, 110
2, 246908, Note_off_c, 0, 89, 100
2, 246908, Note_off_c, 0, 77, 100
2, 246912, Note_on_c, 0, 84, 110
2, 246912, Note_on_c, 0, 75, 110
2, 247100, Note_off_c, 0, 75, 100
2, 247392, Note_on_c, 0, 87, 110
2, 247484, Note_off_c, 0, 84, 100
2, 247484, Note_off_c, 0, 87, 100
2, 247488, Note_on_c, 0, 90, 110
2, 247580, Note_off_c, 0, 90, 100
2, 247584, Note_on_c, 0, 94, 110
2, 247676, Note_off_c, 0, 94, 100
2, 247680, Note_on_c, 0, 92, 110
2, 247772, Note_off_c, 0, 92, 100
2, 247776, Note_on_c, 0, 94, 110
2, 247868, Note_off_c, 0, 94, 100
2, 247872, Note_on_c, 0, 92, 110
2, 247964, Note_off_c, 0, 92, 100
2, 247968, Note_on_c, 0, 90, 110
2, 248060, Note_off_c, 0, 90, 100
2, 248064, Note_on_c, 0, 89, 110
2, 248156, Note_off_c, 0, 89, 100
2, 248160, Note_on_c, 0, 90, 110
2, 248252, Note_off_c, 0, 90, 100
2, 248256, Note_on_c, 0, 89, 110
2, 248348, Note_off_c, 0, 89, 100
2, 248352, Note_on_c, 0, 87, 110
2, 248444, Note_off_c, 0, 87, 100
2, 248448, Note_on_c, 0, 89, 110
2, 248540, Note_off_c, 0, 89, 100
2, 248544, Note_on_c, 0, 90, 110
2, 248636, Note_off_c, 0, 90, 100
2, 248640, Note_on_c, 0, 89, 110
2, 248732, Note_off_c, 0, 89, 100
2, 248736, Note_on_c, 0, 87, 110
2, 248828, Note_off_c, 0, 87, 100
2, 248832, Note_on_c, 0, 86, 110
2, 248924, Note_off_c, 0, 86, 100
2, 248928, Note_on_c, 0, 89, 110
2, 249020, Note_off_c, 0, 89, 100
2, 249024, Note_on_c, 0, 92, 110
2, 249116, Note_off_c, 0, 92, 100
2, 249120, Note_on_c, 0, 95, 110
2, 249212, Note_off_c, 0, 95, 100
2, 249216, Note_on_c, 0, 94, 110
2, 249308, Note_off_c, 0, 94, 100
2, 249312, Note_on_c, 0, 95, 110
2, 249404, Note_off_c, 0, 95, 100
2, 249408, Note_on_c, 0, 94, 110
2, 249500, Note_off_c, 0, 94, 100
2, 249504, Note_on_c, 0, 92, 110
2, 249596, Note_off_c, 0, 92, 100
2, 249600, Note_on_c, 0, 90, 110
2, 249692, Note_off_c, 0, 90, 100
2, 249696, Note_on_c, 0, 92, 110
2, 249788, Note_off_c, 0, 92, 100
2, 249792, Note_on_c, 0, 90, 110
2, 249884, Note_off_c, 0, 90, 100
2, 249888, Note_on_c, 0, 89, 110
2, 249980, Note_off_c, 0, 89, 100
2, 249984, Note_on_c, 0, 90, 110
2, 250076, Note_off_c, 0, 90, 100
2, 250080, Note_on_c, 0, 92, 110
2, 250172, Note_off_c, 0, 92, 100
2, 250176, Note_on_c, 0, 90, 110
2, 250268, Note_off_c, 0, 90, 100
2, 250272, Note_on_c, 0, 89, 110
2, 250364, Note_off_c, 0, 89, 100
2, 250368, Note_on_c, 0, 88, 110
2, 250460, Note_off_c, 0, 88, 100
2, 250464, Note_on_c, 0, 91, 110
2, 250556, Note_off_c, 0, 91, 100
2, 250560, Note_on_c, 0, 94, 110
2, 250652, Note_off_c, 0, 94, 100
2, 250656, Note_on_c, 0, 85, 110
2, 250748, Note_off_c, 0, 85, 100
2, 250752, Note_on_c, 0, 84, 110
2, 250844, Note_off_c, 0, 84, 100
2, 250848, Note_on_c, 0, 85, 110
2, 250940, Note_off_c, 0, 85, 100
2, 250944, Note_on_c, 0, 84, 110
2, 251036, Note_off_c, 0, 84, 100
2, 251040, Note_on_c, 0, 82, 110
2, 251132, Note_off_c, 0, 82, 100
2, 251136, Note_on_c, 0, 80, 110
2, 251228, Note_off_c, 0, 80, 100
2, 251232, Note_on_c, 0, 82, 110
2, 251324, Note_off_c, 0, 82, 100
2, 251328, Note_on_c, 0, 80, 110
2, 251420, Note_off_c, 0, 80, 100
2, 251424, Note_on_c, 0, 79, 110
2, 251516, Note_off_c, 0, 79, 100
2, 251520, Note_on_c, 0, 80, 110
2, 251612, Note_off_c, 0, 80, 100
2, 251616, Note_on_c, 0, 82, 110
2, 251708, Note_off_c, 0, 82, 100
2, 251712, Note_on_c, 0, 80, 110
2, 251804, Note_off_c, 0, 80, 100
2, 251808, Note_on_c, 0, 79, 110
2, 251900, Note_off_c, 0, 79, 100
2, 251904, Note_on_c, 0, 78, 110
2, 251996, Note_off_c, 0, 78, 100
2, 252000, Note_on_c, 0, 81, 110
2, 252092, Note_off_c, 0, 81, 100
2, 252096, Note_on_c, 0, 84, 110
2, 252188, Note_off_c, 0, 84, 100
2, 252192, Note_on_c, 0, 87, 110
2, 252284, Note_off_c, 0, 87, 100
2, 252288, Note_on_c, 0, 86, 110
2, 252380, Note_off_c, 0, 86, 100
2, 252384, Note_on_c, 0, 87, 110
2, 252476, Note_off_c, 0, 87, 100
2, 252480, Note_on_c, 0, 86, 110
2, 252572, Note_off_c, 0, 86, 100
2, 252576, Note_on_c, 0, 84, 110
2, 252668, Note_off_c, 0, 84, 100
2, 252672, Note_on_c, 0, 82, 110
2, 252764, Note_off_c, 0, 82, 100
2, 252768, Note_on_c, 0, 84, 110
2, 252860, Note_off_c, 0, 84, 100
2, 252864, Note_on_c, 0, 82, 110
2, 252956, Note_off_c, 0, 82, 100
2, 252960, Note_on_c, 0, 81, 110
2, 253052, Note_off_c, 0, 81, 100
2, 253056, Note_on_c, 0, 83, 110
2, 253148, Note_off_c, 0, 83, 100
2, 253152, Note_on_c, 0, 84, 110
2, 253244, Note_off_c, 0, 84, 100
2, 253248, Note_on_c, 0, 83, 110
2, 253340, Note_off_c, 0, 83, 100
2, 253344, Note_on_c, 0, 81, 110
2, 253436, Note_off_c, 0, 81, 100
2, 253440, Note_on_c, 0, 83, 110
2, 253532, Note_off_c, 0, 83, 100
2, 253536, Note_on_c, 0, 86, 110
2, 253628, Note_off_c, 0, 86, 100
2, 253632, Note_on_c, 0, 89, 110
2, 253724, Note_off_c, 0, 89, 100
2, 253728, Note_on_c, 0, 92, 110
2, 253820, Note_off_c, 0, 92, 100
2, 253824, Note_on_c, 0, 91, 110
2, 253916, Note_off_c, 0, 91, 100
2, 253920, Note_on_c, 0, 92, 110
2, 254012, Note_off_c, 0, 92, 100
2, 254016, Note_on_c, 0, 91, 110
2, 254108, Note_off_c, 0, 91, 100
2, 254112, Note_on_c, 0, 89, 110
2, 254204, Note_off_c, 0, 89, 100
2, 254208, Note_on_c, 0, 87, 110
2, 254300, Note_off_c, 0, 87, 100
2, 254304, Note_on_c, 0, 89, 110
2, 254396, Note_off_c, 0, 89, 100
2, 254400, Note_on_c, 0, 87, 110
2, 254492, Note_off_c, 0, 87, 100
2, 254496, Note_on_c, 0, 86, 110
2, 254588, Note_off_c, 0, 86, 100
2, 254592, Note_on_c, 0, 87, 110
2, 254684, Note_off_c, 0, 87, 100
2, 254688, Note_on_c, 0, 89, 110
2, 254780, Note_off_c, 0, 89, 100
2, 254784, Note_on_c, 0, 87, 110
2, 254876, Note_off_c, 0, 87, 100
2, 254880, Note_on_c, 0, 86, 110
2, 254972, Note_off_c, 0, 86, 100
2, 254976, Note_on_c, 0, 87, 110
2, 255068, Note_off_c, 0, 87, 100
2, 255072, Note_on_c, 0, 91, 110
2, 255164, Note_off_c, 0, 91, 100
2, 255168, Note_on_c, 0, 93, 110
2, 255260, Note_off_c, 0, 93, 100
2, 255264, Note_on_c, 0, 95, 110
2, 255356, Note_off_c, 0, 95, 100
2, 255360, Control_c, 0, 64, 127
2, 255360, Note_on_c, 0, 96, 110
2, 256120, Control_c, 0, 64, 0
2, 256124, Note_off_c, 0, 96, 100
2, 256128, Control_c, 0, 64, 127
2, 256128, Note_on_c, 0, 36, 110
2, 256888, Control_c, 0, 64, 0
2, 256892, Note_off_c, 0, 36, 100
2, 256896, Control_c, 0, 64, 127
2, 256896, Note_on_c, 0, 29, 110
2, 257656, Control_c, 0, 64, 0
2, 257660, Note_off_c, 0, 29, 100
2, 257664, Control_c, 0, 64, 127
2, 257664, Note_on_c, 0, 99, 110
2, 258424, Control_c, 0, 64, 0
2, 258428, Note_off_c, 0, 99, 100
2, 258432, Control_c, 0, 64, 127
2, 258816, Note_on_c, 0, 91, 110
2, 259584, Note_on_c, 0, 88, 80
2, 259872, Note_on_c, 0, 84, 80
2, 259960, Control_c, 0, 64, 0
2, 259964, Note_off_c, 0, 91, 100
2, 259964, Note_off_c, 0, 88, 100
2, 259964, Note_off_c, 0, 84, 100
2, 259968, Note_on_c, 0, 84, 80
2, 260348, Note_off_c, 0, 84, 100
2, 260352, Note_on_c, 0, 83, 80
2, 260540, Note_off_c, 0, 83, 100
2, 260640, Note_on_c, 0, 81, 80
2, 260732, Note_off_c, 0, 81, 100
2, 260736, Note_on_c, 0, 81, 80
2, 261116, Note_off_c, 0, 81, 100
2, 261120, Note_on_c, 0, 79, 80
2, 261308, Note_off_c, 0, 79, 100
2, 261408, Note_on_c, 0, 89, 80
2, 261408, Note_on_c, 0, 86, 80
2, 261408, Note_on_c, 0, 77, 80
2, 261500, Note_off_c, 0, 89, 100
2, 261500, Note_off_c, 0, 86, 100
2, 261500, Note_off_c, 0, 77, 100
2, 261504, Note_on_c, 0, 89, 80
2, 261504, Note_on_c, 0, 86, 80
2, 261504, Note_on_c, 0, 77, 80
2, 261884, Note_off_c, 0, 89, 100
2, 261884, Note_off_c, 0, 86, 100
2, 261884, Note_off_c, 0, 77, 100
2, 261888, Note_on_c, 0, 88, 80
2, 261888, Note_on_c, 0, 84, 80
2, 261888, Note_on_c, 0, 76, 80
2, 262268, Note_off_c, 0, 88, 100
2, 262268, Note_off_c, 0, 84, 100
2, 262268, Note_off_c, 0, 76, 100
2, 262304, Note_on_c, 0, 91, 80
2, 262332, Note_off_c, 0, 91, 100
2, 262336, Note_on_c, 0, 90, 80
2, 262364, Note_off_c, 0, 90, 100
2, 262368, Note_on_c, 0, 91, 80
2, 262396, Note_off_c, 0, 91, 100
2, 262400, Note_on_c, 0, 93, 80
2, 262428, Note_off_c, 0, 93, 100
2, 262432, Note_on_c, 0, 91, 80
2, 262460, Note_off_c, 0, 91, 100
2, 262464, Note_on_c, 0, 87, 80
2, 262492, Note_off_c, 0, 87, 100
2, 262496, Note_on_c, 0, 87, 80
2, 262524, Note_off_c, 0, 87, 100
2, 262528, Note_on_c, 0, 89, 80
2, 262556, Note_off_c, 0, 89, 100
2, 262560, Note_on_c, 0, 87, 80
2, 262588, Note_off_c, 0, 87, 100
2, 262592, Note_on_c, 0, 83, 80
2, 262620, Note_off_c, 0, 83, 100
2, 262624, Note_on_c, 0, 84, 80
2, 262652, Note_off_c, 0, 84, 100
2, 262656, Note_on_c, 0, 86, 80
2, 262692, Note_off_c, 0, 86, 100
2, 262696, Note_on_c, 0, 84, 80
2, 262736, Note_off_c, 0, 84, 100
2, 262740, Note_on_c, 0, 78, 80
2, 262776, Note_off_c, 0, 78, 100
2, 262780, Note_on_c, 0, 79, 80
2, 262820, Note_off_c, 0, 79, 100
2, 262824, Note_on_c, 0, 80, 80
2, 262860, Note_off_c, 0, 80, 100
2, 262864, Note_on_c, 0, 81, 80
2, 262904, Note_off_c, 0, 81, 100
2, 262908, Note_on_c, 0, 79, 80
2, 262944, Note_off_c, 0, 79, 100
2, 262948, Note_on_c, 0, 76, 80
2, 262988, Note_off_c, 0, 76, 100
2, 262992, Note_on_c, 0, 72, 80
2, 263028, Note_off_c, 0, 72, 100
2, 263040, Note_on_c, 0, 72, 80
2, 263108, Note_off_c, 0, 72, 100
2, 263112, Note_on_c, 0, 71, 80
2, 263180, Note_off_c, 0, 71, 100
2, 263184, Note_on_c, 0, 72, 80
2, 263256, Note_off_c, 0, 72, 100
2, 263260, Note_on_c, 0, 74, 80
2, 263332, Note_off_c, 0, 74, 100
2, 263336, Note_on_c, 0, 72, 80
2, 263412, Note_off_c, 0, 72, 100
2, 263424, Note_on_c, 0, 71, 80
2, 263612, Note_off_c, 0, 71, 100
2, 263712, Note_on_c, 0, 69, 80
2, 263712, Note_on_c, 0, 65, 80
2, 263712, Note_on_c, 0, 60, 80
2, 263804, Note_off_c, 0, 69, 100
2, 263804, Note_off_c, 0, 65, 100
2, 263804, Note_off_c, 0, 60, 100
2, 263808, Note_on_c, 0, 69, 80
2, 263876, Note_off_c, 0, 69, 100
2, 263880, Note_on_c, 0, 67, 80
2, 263948, Note_off_c, 0, 67, 100
2, 263952, Note_on_c, 0, 69, 80
2, 264024, Note_off_c, 0, 69, 100
2, 264028, Note_on_c, 0, 71, 80
2, 264100, Note_off_c, 0, 71, 100
2, 264104, Note_on_c, 0, 69, 80
2, 264180, Note_off_c, 0, 69, 100
2, 264192, Note_on_c, 0, 67, 80
2, 264380, Note_off_c, 0, 67, 100
2, 264480, Note_on_c, 0, 77, 80
2, 264480, Note_on_c, 0, 71, 80
2, 264572, Note_off_c, 0, 77, 100
2, 264572, Note_off_c, 0, 71, 100
2, 264576, Note_on_c, 0, 77, 80
2, 264576, Note_on_c, 0, 71, 80
2, 264956, Note_off_c, 0, 77, 100
2, 264956, Note_off_c, 0, 71, 100
2, 264960, Note_on_c, 0, 76, 80
2, 264960, Note_on_c, 0, 72, 80
2, 265340, Note_off_c, 0, 76, 100
2, 265340, Note_off_c, 0, 72, 100
2, 266016, Note_on_c, 0, 81, 80
2, 266016, Note_on_c, 0, 74, 80
2, 266016, Note_on_c, 0, 67, 80
2, 266108, Note_off_c, 0, 81, 100
2, 266108, Note_off_c, 0, 74, 100
2, 266108, Note_off_c, 0, 67, 100
2, 266112, Note_on_c, 0, 81, 80
2, 266112, Note_on_c, 0, 74, 80
2, 266112, Note_on_c, 0, 67, 80
2, 266492, Note_off_c, 0, 81, 100
2, 266492, Note_off_c, 0, 74, 100
2, 266492, Note_off_c, 0, 67, 100
2, 266496, Note_on_c, 0, 79, 80
2, 266496, Note_on_c, 0, 67, 80
2, 266876, Note_off_c, 0, 79, 100
2, 266876, Note_off_c, 0, 67, 100
2, 267552, Note_on_c, 0, 80, 80
2, 267552, Note_on_c, 0, 74, 80
2, 267644, Note_off_c, 0, 80, 100
2, 267644, Note_off_c, 0, 74, 100
2, 267648, Note_on_c, 0, 80, 80
2, 267648, Note_on_c, 0, 74, 80
2, 268028, Note_off_c, 0, 80, 100
2, 268028, Note_off_c, 0, 74, 100
2, 268032, Note_on_c, 0, 79, 80
2, 268032, Note_on_c, 0, 73, 80
2, 268796, Note_off_c, 0, 79, 100
2, 268796, Note_off_c, 0, 73, 100
2, 268800, Note_on_c, 0, 82, 80
2, 268800, Note_on_c, 0, 77, 80
2, 268800, Note_on_c, 0, 79, 80
2, 269564, Note_off_c, 0, 77, 100
2, 269564, Note_off_c, 0, 79, 100
2, 269564, Note_off_c, 0, 82, 100
2, 269568, Note_on_c, 0, 82, 110
2, 269568, Note_on_c, 0, 79, 110
2, 269568, Note_on_c, 0, 76, 110
2, 270140, Note_off_c, 0, 82, 100
2, 270144, Note_on_c, 0, 81, 104
2, 270332, Note_off_c, 0, 81, 100
2, 270336, Note_on_c, 0, 82, 112
2, 270524, Note_off_c, 0, 79, 100
2, 270524, Note_off_c, 0, 76, 100
2, 270524, Note_off_c, 0, 82, 100
2, 270528, Note_on_c, 0, 83, 120
2, 270528, Note_on_c, 0, 80, 120
2, 270528, Note_on_c, 0, 77, 120
2, 270716, Note_off_c, 0, 83, 100
2, 270716, Note_off_c, 0, 80, 100
2, 270716, Note_off_c, 0, 77, 100
2, 270832, Note_on_c, 0, 72, 80
2, 270912, Note_on_c, 0, 77, 80
2, 270924, Note_off_c, 0, 72, 100
2, 271004, Note_off_c, 0, 77, 100
2, 271008, Note_on_c, 0, 80, 80
2, 271100, Note_off_c, 0, 80, 100
2, 271104, Note_on_c, 0, 84, 80
2, 271484, Note_off_c, 0, 84, 100
2, 271600, Note_on_c, 0, 72, 80
2, 271680, Note_on_c, 0, 77, 80
2, 271692, Note_off_c, 0, 72, 100
2, 271772, Note_off_c, 0, 77, 100
2, 271776, Note_on_c, 0, 80, 80
2, 271868, Note_off_c, 0, 80, 100
2, 271872, Note_on_c, 0, 84, 80
2, 272252, Note_off_c, 0, 84, 100
2, 272352, Note_on_c, 0, 72, 80
2, 272444, Note_off_c, 0, 72, 100
2, 272448, Note_on_c, 0, 79, 80
2, 272540, Note_off_c, 0, 79, 100
2, 272544, Note_on_c, 0, 82, 80
2, 272636, Note_off_c, 0, 82, 100
2, 272640, Note_on_c, 0, 84, 80
2, 273020, Note_off_c, 0, 84, 100
2, 273120, Note_on_c, 0, 72, 80
2, 273212, Note_off_c, 0, 72, 100
2, 273216, Note_on_c, 0, 76, 80
2, 273308, Note_off_c, 0, 76, 100
2, 273312, Note_on_c, 0, 79, 80
2, 273404, Note_off_c, 0, 79, 100
2, 273408, Note_on_c, 0, 84, 80
2, 273788, Note_off_c, 0, 84, 100
2, 273888, Note_on_c, 0, 72, 80
2, 273980, Note_off_c, 0, 72, 100
2, 273984, Note_on_c, 0, 77, 80
2, 274076, Note_off_c, 0, 77, 100
2, 274080, Note_on_c, 0, 80, 80
2, 274172, Note_off_c, 0, 80, 100
2, 274176, Note_on_c, 0, 84, 80
2, 274268, Note_off_c, 0, 84, 100
2, 274272, Note_on_c, 0, 88, 80
2, 274364, Note_off_c, 0, 88, 100
2, 274368, Note_on_c, 0, 89, 80
2, 274460, Note_off_c, 0, 89, 100
2, 274464, Note_on_c, 0, 84, 80
2, 274556, Note_off_c, 0, 84, 100
2, 274560, Note_on_c, 0, 87, 80
2, 274620, Note_off_c, 0, 87, 100
2, 274624, Note_on_c, 0, 85, 80
2, 274684, Note_off_c, 0, 85, 100
2, 274688, Note_on_c, 0, 82, 80
2, 274748, Note_off_c, 0, 82, 100
2, 274752, Note_on_c, 0, 85, 80
2, 274812, Note_off_c, 0, 85, 100
2, 274816, Note_on_c, 0, 84, 80
2, 274876, Note_off_c, 0, 84, 100
2, 274880, Note_on_c, 0, 80, 80
2, 274940, Note_off_c, 0, 80, 100
2, 274944, Note_on_c, 0, 84, 80
2, 275004, Note_off_c, 0, 84, 100
2, 275008, Note_on_c, 0, 82, 80
2, 275068, Note_off_c, 0, 82, 100
2, 275072, Note_on_c, 0, 79, 80
2, 275132, Note_off_c, 0, 79, 100
2, 275136, Note_on_c, 0, 82, 80
2, 275196, Note_off_c, 0, 82, 100
2, 275200, Note_on_c, 0, 80, 80
2, 275260, Note_off_c, 0, 80, 100
2, 275264, Note_on_c, 0, 77, 80
2, 275324, Note_off_c, 0, 77, 100
2, 275328, Note_on_c, 0, 77, 80
2, 275328, Note_on_c, 0, 70, 80
2, 275396, Note_off_c, 0, 77, 100
2, 275400, Note_on_c, 0, 76, 80
2, 275468, Note_off_c, 0, 76, 100
2, 275472, Note_on_c, 0, 77, 80
2, 275544, Note_off_c, 0, 77, 100
2, 275548, Note_on_c, 0, 79, 80
2, 275620, Note_off_c, 0, 79, 100
2, 275624, Note_on_c, 0, 77, 80
2, 275700, Note_off_c, 0, 77, 100
2, 275712, Note_on_c, 0, 76, 80
2, 275900, Note_off_c, 0, 70, 100
2, 275900, Note_off_c, 0, 76, 100
2, 276000, Note_on_c, 0, 73, 80
2, 276000, Note_on_c, 0, 68, 80
2, 276092, Note_off_c, 0, 73, 100
2, 276092, Note_off_c, 0, 68, 100
2, 276096, Note_on_c, 0, 67, 80
2, 276096, Note_on_c, 0, 73, 80
2, 276164, Note_off_c, 0, 73, 100
2, 276168, Note_on_c, 0, 72, 80
2, 276236, Note_off_c, 0, 72, 100
2, 276240, Note_on_c, 0, 73, 80
2, 276312, Note_off_c, 0, 73, 100
2, 276316, Note_on_c, 0, 75, 80
2, 276388, Note_off_c, 0, 75, 100
2, 276392, Note_on_c, 0, 73, 80
2, 276468, Note_off_c, 0, 73, 100
2, 276480, Note_on_c, 0, 72, 80
2, 276668, Note_off_c, 0, 67, 100
2, 276668, Note_off_c, 0, 72, 100
2, 276768, Note_on_c, 0, 82, 80
2, 276860, Note_off_c, 0, 82, 100
2, 276864, Note_on_c, 0, 82, 80
2, 276932, Note_off_c, 0, 82, 100
2, 276936, Note_on_c, 0, 80, 80
2, 277004, Note_off_c, 0, 80, 100
2, 277008, Note_on_c, 0, 82, 80
2, 277080, Note_off_c, 0, 82, 100
2, 277084, Note_on_c, 0, 84, 81
2, 277156, Note_off_c, 0, 84, 100
2, 277160, Note_on_c, 0, 82, 82
2, 277236, Note_off_c, 0, 82, 100
2, 277248, Note_on_c, 0, 80, 82
2, 277436, Note_off_c, 0, 80, 100
2, 277440, Note_on_c, 0, 84, 83
2, 277628, Note_off_c, 0, 84, 100
2, 277632, Note_on_c, 0, 84, 85
2, 277700, Note_off_c, 0, 84, 100
2, 277704, Note_on_c, 0, 83, 85
2, 277772, Note_off_c, 0, 83, 100
2, 277776, Note_on_c, 0, 84, 86
2, 277848, Note_off_c, 0, 84, 100
2, 277852, Note_on_c, 0, 86, 86
2, 277924, Note_off_c, 0, 86, 100
2, 277928, Note_on_c, 0, 84, 87
2, 278004, Note_off_c, 0, 84, 100
2, 278016, Note_on_c, 0, 83, 87
2, 278204, Note_off_c, 0, 83, 100
2, 278208, Note_on_c, 0, 86, 89
2, 278396, Note_off_c, 0, 86, 100
2, 278400, Note_on_c, 0, 86, 90
2, 278468, Note_off_c, 0, 86, 100
2, 278472, Note_on_c, 0, 84, 91
2, 278540, Note_off_c, 0, 84, 100
2, 278544, Note_on_c, 0, 86, 91
2, 278616, Note_off_c, 0, 86, 100
2, 278620, Note_on_c, 0, 87, 92
2, 278692, Note_off_c, 0, 87, 100
2, 278696, Note_on_c, 0, 86, 92
2, 278772, Note_off_c, 0, 86, 100
2, 278784, Note_on_c, 0, 84, 93
2, 278972, Note_off_c, 0, 84, 100
2, 278976, Note_on_c, 0, 87, 94
2, 279164, Note_off_c, 0, 87, 100
2, 279168, Note_on_c, 0, 87, 95
2, 279236, Note_off_c, 0, 87, 100
2, 279240, Note_on_c, 0, 86, 96
2, 279308, Note_off_c, 0, 86, 100
2, 279312, Note_on_c, 0, 87, 96
2, 279384, Note_off_c, 0, 87, 100
2, 279388, Note_on_c, 0, 89, 97
2, 279460, Note_off_c, 0, 89, 100
2, 279464, Note_on_c, 0, 87, 97
2, 279540, Note_off_c, 0, 87, 100
2, 279552, Note_on_c, 0, 86, 98
2, 279740, Note_off_c, 0, 86, 100
2, 279744, Note_on_c, 0, 89, 99
2, 279932, Note_off_c, 0, 89, 100
2, 279936, Note_on_c, 0, 89, 101
2, 280004, Note_off_c, 0, 89, 100
2, 280008, Note_on_c, 0, 87, 101
2, 280076, Note_off_c, 0, 87, 100
2, 280080, Note_on_c, 0, 89, 102
2, 280152, Note_off_c, 0, 89, 100
2, 280156, Note_on_c, 0, 91, 102
2, 280228, Note_off_c, 0, 91, 100
2, 280232, Note_on_c, 0, 89, 103
2, 280308, Note_off_c, 0, 89, 100
2, 280320, Note_on_c, 0, 87, 103
2, 280508, Note_off_c, 0, 87, 100
2, 280512, Note_on_c, 0, 91, 105
2, 280700, Note_off_c, 0, 91, 100
2, 280704, Note_on_c, 0, 91, 106
2, 280772, Note_off_c, 0, 91, 100
2, 280776, Note_on_c, 0, 89, 106
2, 280844, Note_off_c, 0, 89, 100
2, 280848, Note_on_c, 0, 91, 107
2, 280920, Note_off_c, 0, 91, 100
2, 280924, Note_on_c, 0, 92, 107
2, 280996, Note_off_c, 0, 92, 100
2, 281000, Note_on_c, 0, 91, 108
2, 281076, Note_off_c, 0, 91, 100
2, 281088, Note_on_c, 0, 89, 109
2, 281276, Note_off_c, 0, 89, 100
2, 281280, Note_on_c, 0, 92, 110
2, 281468, Note_off_c, 0, 92, 100
2, 281472, Note_on_c, 0, 92, 111
2, 281540, Note_off_c, 0, 92, 100
2, 281544, Note_on_c, 0, 91, 112
2, 281612, Note_off_c, 0, 91, 100
2, 281616, Note_on_c, 0, 92, 112
2, 281688, Note_off_c, 0, 92, 100
2, 281692, Note_on_c, 0, 94, 113
2, 281764, Note_off_c, 0, 94, 100
2, 281768, Note_on_c, 0, 92, 113
2, 281844, Note_off_c, 0, 92, 100
2, 281856, Note_on_c, 0, 91, 114
2, 282044, Note_off_c, 0, 91, 100
2, 282048, Note_on_c, 0, 94, 115
2, 282236, Note_off_c, 0, 94, 100
2, 282240, Note_on_c, 0, 94, 117
2, 282308, Note_off_c, 0, 94, 100
2, 282312, Note_on_c, 0, 92, 117
2, 282380, Note_off_c, 0, 92, 100
2, 282384, Note_on_c, 0, 94, 117
2, 282456, Note_off_c, 0, 94, 100
2, 282460, Note_on_c, 0, 96, 118
2, 282532, Note_off_c, 0, 96, 100
2, 282536, Note_on_c, 0, 94, 119
2, 282612, Note_off_c, 0, 94, 100
2, 282624, Note_on_c, 0, 92, 119
2, 282812, Note_off_c, 0, 92, 100
2, 282816, Note_on_c, 0, 95, 120
2, 283004, Note_off_c, 0, 95, 100
2, 283008, Note_on_c, 0, 96, 120
2, 283100, Note_off_c, 0, 96, 100
2, 283104, Note_on_c, 0, 99, 120
2, 283196, Note_off_c, 0, 99, 100
2, 283200, Note_on_c, 0, 93, 120
2, 283292, Note_off_c, 0, 93, 100
2, 283296, Note_on_c, 0, 96, 120
2, 283388, Note_off_c, 0, 96, 100
2, 283392, Note_on_c, 0, 90, 120
2, 283484, Note_off_c, 0, 90, 100
2, 283488, Note_on_c, 0, 93, 120
2, 283580, Note_off_c, 0, 93, 100
2, 283584, Note_on_c, 0, 87, 120
2, 283676, Note_off_c, 0, 87, 100
2, 283680, Note_on_c, 0, 90, 120
2, 283772, Note_off_c, 0, 90, 100
2, 283776, Note_on_c, 0, 84, 120
2, 283868, Note_off_c, 0, 84, 100
2, 283872, Note_on_c, 0, 87, 120
2, 283964, Note_off_c, 0, 87, 100
2, 283968, Note_on_c, 0, 81, 120
2, 284060, Note_off_c, 0, 81, 100
2, 284064, Note_on_c, 0, 84, 120
2, 284156, Note_off_c, 0, 84, 100
2, 284160, Note_on_c, 0, 78, 120
2, 284252, Note_off_c, 0, 78, 100
2, 284256, Note_on_c, 0, 81, 120
2, 284348, Note_off_c, 0, 81, 100
2, 284352, Note_on_c, 0, 75, 120
2, 284444, Note_off_c, 0, 75, 100
2, 284448, Note_on_c, 0, 78, 120
2, 284540, Note_off_c, 0, 78, 100
2, 284544, Note_on_c, 0, 74, 120
2, 284636, Note_off_c, 0, 74, 100
2, 284640, Note_on_c, 0, 77, 120
2, 284732, Note_off_c, 0, 77, 100
2, 284736, Note_on_c, 0, 71, 120
2, 284828, Note_off_c, 0, 71, 100
2, 284832, Note_on_c, 0, 74, 120
2, 284924, Note_off_c, 0, 74, 100
2, 284928, Note_on_c, 0, 68, 120
2, 285020, Note_off_c, 0, 68, 100
2, 285024, Note_on_c, 0, 71, 120
2, 285116, Note_off_c, 0, 71, 100
2, 285120, Note_on_c, 0, 65, 120
2, 285212, Note_off_c, 0, 65, 100
2, 285216, Note_on_c, 0, 68, 120
2, 285308, Note_off_c, 0, 68, 100
2, 285312, Note_on_c, 0, 62, 120
2, 285404, Note_off_c, 0, 62, 100
2, 285408, Note_on_c, 0, 65, 120
2, 285500, Note_off_c, 0, 65, 100
2, 285504, Note_on_c, 0, 59, 120
2, 285596, Note_off_c, 0, 59, 100
2, 285600, Note_on_c, 0, 62, 120
2, 285692, Note_off_c, 0, 62, 100
2, 285696, Note_on_c, 0, 56, 120
2, 285788, Note_off_c, 0, 56, 100
2, 285792, Note_on_c, 0, 59, 120
2, 285884, Note_off_c, 0, 59, 100
2, 285888, Note_on_c, 0, 53, 120
2, 285980, Note_off_c, 0, 53, 100
2, 285984, Note_on_c, 0, 56, 120
2, 286076, Note_off_c, 0, 56, 100
2, 286080, Note_on_c, 0, 55, 80
2, 286172, Note_off_c, 0, 55, 100
2, 286176, Note_on_c, 0, 59, 82
2, 286268, Note_off_c, 0, 59, 100
2, 286272, Note_on_c, 0, 60, 85
2, 286364, Note_off_c, 0, 60, 100
2, 286368, Note_on_c, 0, 62, 88
2, 286460, Note_off_c, 0, 62, 100
2, 286464, Note_on_c, 0, 63, 90
2, 286556, Note_off_c, 0, 63, 100
2, 286560, Note_on_c, 0, 65, 93
2, 286652, Note_off_c, 0, 65, 100
2, 286656, Note_on_c, 0, 67, 96
2, 286748, Note_off_c, 0, 67, 100
2, 286752, Note_on_c, 0, 68, 99
2, 286844, Note_off_c, 0, 68, 100
2, 286848, Note_on_c, 0, 71, 101
2, 286940, Note_off_c, 0, 71, 100
2, 286944, Note_on_c, 0, 72, 104
2, 287036, Note_off_c, 0, 72, 100
2, 287040, Note_on_c, 0, 74, 107
2, 287132, Note_off_c, 0, 74, 100
2, 287136, Note_on_c, 0, 75, 109
2, 287228, Note_off_c, 0, 75, 100
2, 287232, Note_on_c, 0, 77, 112
2, 287324, Note_off_c, 0, 77, 100
2, 287328, Note_on_c, 0, 78, 115
2, 287420, Note_off_c, 0, 78, 100
2, 287424, Note_on_c, 0, 79, 118
2, 287516, Note_off_c, 0, 79, 100
2, 287520, Note_on_c, 0, 78, 120
2, 287612, Note_off_c, 0, 78, 100
2, 287616, Note_on_c, 0, 80, 120
2, 287708, Note_off_c, 0, 80, 100
2, 287712, Note_on_c, 0, 79, 120
2, 287804, Note_off_c, 0, 79, 100
2, 287808, Note_on_c, 0, 75, 120
2, 287900, Note_off_c, 0, 75, 100
2, 287904, Note_on_c, 0, 72, 120
2, 287996, Note_off_c, 0, 72, 100
2, 288000, Note_on_c, 0, 80, 120
2, 288092, Note_off_c, 0, 80, 100
2, 288096, Note_on_c, 0, 79, 120
2, 288188, Note_off_c, 0, 79, 100
2, 288192, Note_on_c, 0, 75, 120
2, 288284, Note_off_c, 0, 75, 100
2, 288288, Note_on_c, 0, 72, 120
2, 288380, Note_off_c, 0, 72, 100
2, 288384, Note_on_c, 0, 80, 120
2, 288476, Note_off_c, 0, 80, 100
2, 288480, Note_on_c, 0, 79, 120
2, 288572, Note_off_c, 0, 79, 100
2, 288576, Note_on_c, 0, 77, 120
2, 288668, Note_off_c, 0, 77, 100
2, 288672, Note_on_c, 0, 74, 120
2, 288764, Note_off_c, 0, 74, 100
2, 288768, Note_on_c, 0, 80, 120
2, 288860, Note_off_c, 0, 80, 100
2, 288864, Note_on_c, 0, 79, 120
2, 288956, Note_off_c, 0, 79, 100
2, 288960, Note_on_c, 0, 77, 120
2, 289052, Note_off_c, 0, 77, 100
2, 289056, Note_on_c, 0, 74, 120
2, 289148, Note_off_c, 0, 74, 100
2, 289152, Note_on_c, 0, 85, 120
2, 289244, Note_off_c, 0, 85, 100
2, 289248, Note_on_c, 0, 84, 120
2, 289340, Note_off_c, 0, 84, 100
2, 289344, Note_on_c, 0, 79, 120
2, 289436, Note_off_c, 0, 79, 100
2, 289440, Note_on_c, 0, 76, 120
2, 289532, Note_off_c, 0, 76, 100
2, 289536, Note_on_c, 0, 85, 120
2, 289628, Note_off_c, 0, 85, 100
2, 289632, Note_on_c, 0, 84, 120
2, 289724, Note_off_c, 0, 84, 100
2, 289728, Note_on_c, 0, 79, 120
2, 289820, Note_off_c, 0, 79, 100
2, 289824, Note_on_c, 0, 76, 120
2, 289916, Note_off_c, 0, 76, 100
2, 289920, Note_on_c, 0, 91, 120
2, 290012, Note_off_c, 0, 91, 100
2, 290016, Note_on_c, 0, 89, 120
2, 290108, Note_off_c, 0, 89, 100
2, 290112, Note_on_c, 0, 84, 120
2, 290204, Note_off_c, 0, 84, 100
2, 290208, Note_on_c, 0, 77, 120
2, 290300, Note_off_c, 0, 77, 100
2, 290304, Note_on_c, 0, 91, 120
2, 290396, Note_off_c, 0, 91, 100
2, 290400, Note_on_c, 0, 89, 120
2, 290492, Note_off_c, 0, 89, 100
2, 290496, Note_on_c, 0, 84, 120
2, 290588, Note_off_c, 0, 84, 100
2, 290592, Note_on_c, 0, 77, 120
2, 290684, Note_off_c, 0, 77, 100
2, 290688, Note_on_c, 0, 91, 120
2, 290780, Note_off_c, 0, 91, 100
2, 290784, Note_on_c, 0, 90, 120
2, 290876, Note_off_c, 0, 90, 100
2, 290880, Note_on_c, 0, 87, 120
2, 290972, Note_off_c, 0, 87, 100
2, 290976, Note_on_c, 0, 84, 120
2, 291068, Note_off_c, 0, 84, 100
2, 291072, Note_on_c, 0, 91, 120
2, 291164, Note_off_c, 0, 91, 100
2, 291168, Note_on_c, 0, 90, 120
2, 291260, Note_off_c, 0, 90, 100
2, 291264, Note_on_c, 0, 87, 120
2, 291356, Note_off_c, 0, 87, 100
2, 291360, Note_on_c, 0, 84, 120
2, 291452, Note_off_c, 0, 84, 100
2, 291456, Note_on_c, 0, 92, 120
2, 291548, Note_off_c, 0, 92, 100
2, 291552, Note_on_c, 0, 91, 120
2, 291644, Note_off_c, 0, 91, 100
2, 291648, Note_on_c, 0, 87, 120
2, 291740, Note_off_c, 0, 87, 100
2, 291744, Note_on_c, 0, 84, 120
2, 291836, Note_off_c, 0, 84, 100
2, 291840, Note_on_c, 0, 89, 120
2, 291932, Note_off_c, 0, 89, 100
2, 291936, Note_on_c, 0, 87, 120
2, 292028, Note_off_c, 0, 87, 100
2, 292032, Note_on_c, 0, 84, 120
2, 292124, Note_off_c, 0, 84, 100
2, 292128, Note_on_c, 0, 79, 120
2, 292220, Note_off_c, 0, 79, 100
2, 292224, Note_on_c, 0, 89, 120
2, 292316, Note_off_c, 0, 89, 100
2, 292320, Note_on_c, 0, 87, 120
2, 292412, Note_off_c, 0, 87, 100
2, 292416, Note_on_c, 0, 84, 120
2, 292508, Note_off_c, 0, 84, 100
2, 292512, Note_on_c, 0, 79, 120
2, 292604, Note_off_c, 0, 79, 100
2, 292608, Note_on_c, 0, 87, 120
2, 292700, Note_off_c, 0, 87, 100
2, 292704, Note_on_c, 0, 86, 120
2, 292796, Note_off_c, 0, 86, 100
2, 292800, Note_on_c, 0, 83, 120
2, 292892, Note_off_c, 0, 83, 100
2, 292896, Note_on_c, 0, 77, 120
2, 292988, Note_off_c, 0, 77, 100
2, 292992, Note_on_c, 0, 84, 120
2, 292992, Note_on_c, 0, 79, 120
2, 292992, Note_on_c, 0, 75, 120
2, 293180, Note_off_c, 0, 79, 100
2, 293180, Note_off_c, 0, 75, 100
2, 293184, Note_on_c, 0, 79, 120
2, 293184, Note_on_c, 0, 75, 120
2, 293372, Note_off_c, 0, 84, 100
2, 293372, Note_off_c, 0, 79, 100
2, 293372, Note_off_c, 0, 75, 100
2, 293376, Note_on_c, 0, 79, 120
2, 293376, Note_on_c, 0, 75, 120
2, 293376, Note_on_c, 0, 87, 120
2, 293564, Note_off_c, 0, 79, 100
2, 293564, Note_off_c, 0, 75, 100
2, 293568, Note_on_c, 0, 79, 120
2, 293568, Note_on_c, 0, 75, 120
2, 293756, Note_off_c, 0, 87, 100
2, 293756, Note_off_c, 0, 79, 100
2, 293756, Note_off_c, 0, 75, 100
2, 293760, Note_on_c, 0, 83, 120
2, 293760, Note_on_c, 0, 79, 120
2, 293760, Note_on_c, 0, 74, 120
2, 293948, Note_off_c, 0, 79, 100
2, 293948, Note_off_c, 0, 74, 100
2, 293952, Note_on_c, 0, 79, 120
2, 293952, Note_on_c, 0, 74, 120
2, 294140, Note_off_c, 0, 79, 100
2, 294140, Note_off_c, 0, 74, 100
2, 294144, Note_on_c, 0, 79, 120
2, 294144, Note_on_c, 0, 74, 120
2, 294332, Note_off_c, 0, 79, 100
2, 294332, Note_off_c, 0, 74, 100
2, 294336, Note_on_c, 0, 79, 120
2, 294336, Note_on_c, 0, 74, 120
2, 294524, Note_off_c, 0, 83, 100
2, 294524, Note_off_c, 0, 79, 100
2, 294524, Note_off_c, 0, 74, 100
2, 294528, Note_on_c, 0, 82, 120
2, 294528, Note_on_c, 0, 79, 120
2, 294528, Note_on_c, 0, 72, 120
2, 294716, Note_off_c, 0, 79, 100
2, 294716, Note_off_c, 0, 72, 100
2, 294720, Note_on_c, 0, 79, 120
2, 294720, Note_on_c, 0, 72, 120
2, 294908, Note_off_c, 0, 82, 100
2, 294908, Note_off_c, 0, 79, 100
2, 294908, Note_off_c, 0, 72, 100
2, 294912, Note_on_c, 0, 84, 120
2, 294912, Note_on_c, 0, 79, 120
2, 294912, Note_on_c, 0, 72, 120
2, 295100, Note_off_c, 0, 79, 100
2, 295100, Note_off_c, 0, 72, 100
2, 295104, Note_on_c, 0, 79, 120
2, 295104, Note_on_c, 0, 72, 120
2, 295292, Note_off_c, 0, 84, 100
2, 295292, Note_off_c, 0, 79, 100
2, 295292, Note_off_c, 0, 72, 100
2, 295296, Note_on_c, 0, 81, 120
2, 295296, Note_on_c, 0, 72, 120
2, 295312, Note_on_c, 0, 77, 120
2, 295484, Note_off_c, 0, 72, 100
2, 295488, Note_on_c, 0, 77, 120
2, 295488, Note_on_c, 0, 72, 120
2, 295500, Note_off_c, 0, 77, 100
2, 295676, Note_off_c, 0, 77, 100
2, 295676, Note_off_c, 0, 72, 100
2, 295680, Note_on_c, 0, 77, 120
2, 295680, Note_on_c, 0, 72, 120
2, 295868, Note_off_c, 0, 77, 100
2, 295868, Note_off_c, 0, 72, 100
2, 295872, Note_on_c, 0, 77, 120
2, 295872, Note_on_c, 0, 72, 120
2, 296060, Note_off_c, 0, 81, 100
2, 296060, Note_off_c, 0, 77, 100
2, 296060, Note_off_c, 0, 72, 100
2, 296064, Note_on_c, 0, 80, 120
2, 296064, Note_on_c, 0, 77, 120
2, 296064, Note_on_c, 0, 72, 120
2, 296252, Note_off_c, 0, 77, 100
2, 296252, Note_off_c, 0, 72, 100
2, 296256, Note_on_c, 0, 77, 120
2, 296256, Note_on_c, 0, 72, 120
2, 296444, Note_off_c, 0, 80, 100
2, 296444, Note_off_c, 0, 77, 100
2, 296444, Note_off_c, 0, 72, 100
2, 296448, Note_on_c, 0, 84, 120
2, 296448, Note_on_c, 0, 77, 120
2, 296448, Note_on_c, 0, 72, 120
2, 296636, Note_off_c, 0, 77, 100
2, 296636, Note_off_c, 0, 72, 100
2, 296640, Note_on_c, 0, 75, 120
2, 296640, Note_on_c, 0, 72, 120
2, 296828, Note_off_c, 0, 84, 100
2, 296828, Note_off_c, 0, 75, 100
2, 296828, Note_off_c, 0, 72, 100
2, 296832, Note_on_c, 0, 79, 120
2, 296832, Note_on_c, 0, 75, 120
2, 296832, Note_on_c, 0, 72, 120
2, 297212, Note_off_c, 0, 79, 100
2, 297212, Note_off_c, 0, 75, 100
2, 297212, Note_off_c, 0, 72, 100
2, 297216, Note_on_c, 0, 84, 120
2, 297216, Note_on_c, 0, 72, 120
2, 297500, Note_off_c, 0, 84, 100
2, 297500, Note_off_c, 0, 72, 100
2, 297504, Note_on_c, 0, 87, 120
2, 297504, Note_on_c, 0, 75, 120
2, 297596, Note_off_c, 0, 87, 100
2, 297596, Note_off_c, 0, 75, 100
2, 297600, Note_on_c, 0, 91, 120
2, 297600, Note_on_c, 0, 79, 120
2, 297788, Note_off_c, 0, 91, 100
2, 297788, Note_off_c, 0, 79, 100
2, 297792, Note_on_c, 0, 91, 120
2, 297980, Note_off_c, 0, 91, 100
2, 297984, Note_on_c, 0, 91, 120
2, 298032, Note_on_c, 0, 92, 120
2, 298076, Note_off_c, 0, 91, 100
2, 298080, Note_on_c, 0, 91, 120
2, 298124, Note_off_c, 0, 92, 100
2, 298128, Note_on_c, 0, 92, 120
2, 298172, Note_off_c, 0, 91, 100
2, 298176, Note_on_c, 0, 91, 120
2, 298220, Note_off_c, 0, 92, 100
2, 298224, Note_on_c, 0, 92, 120
2, 298268, Note_off_c, 0, 91, 100
2, 298272, Note_on_c, 0, 90, 120
2, 298316, Note_off_c, 0, 92, 100
2, 298320, Note_on_c, 0, 91, 120
2, 298364, Note_off_c, 0, 90, 100
2, 298364, Note_off_c, 0, 91, 100
2, 298368, Note_on_c, 0, 91, 120
2, 298556, Note_off_c, 0, 91, 100
2, 298560, Note_on_c, 0, 95, 120
2, 298748, Note_off_c, 0, 95, 100
2, 298752, Note_on_c, 0, 95, 110
2, 298940, Note_off_c, 0, 95, 100
2, 298944, Note_on_c, 0, 96, 100
2, 299132, Note_off_c, 0, 96, 100
2, 299328, Note_on_c, 0, 79, 120
2, 299516, Note_off_c, 0, 79, 100
2, 299520, Note_on_c, 0, 79, 120
2, 299568, Note_on_c, 0, 80, 120
2, 299612, Note_off_c, 0, 79, 100
2, 299616, Note_on_c, 0, 79, 120
2, 299660, Note_off_c, 0, 80, 100
2, 299664, Note_on_c, 0, 80, 120
2, 299708, Note_off_c, 0, 79, 100
2, 299712, Note_on_c, 0, 79, 120
2, 299756, Note_off_c, 0, 80, 100
2, 299760, Note_on_c, 0, 80, 120
2, 299804, Note_off_c, 0, 79, 100
2, 299808, Note_on_c, 0, 78, 120
2, 299852, Note_off_c, 0, 80, 100
2, 299856, Note_on_c, 0, 79, 120
2, 299900, Note_off_c, 0, 78, 100
2, 299900, Note_off_c, 0, 79, 100
2, 299904, Note_on_c, 0, 79, 120
2, 300092, Note_off_c, 0, 79, 100
2, 300096, Note_on_c, 0, 83, 120
2, 300284, Note_off_c, 0, 83, 100
2, 300288, Note_on_c, 0, 83, 110
2, 300476, Note_off_c, 0, 83, 100
2, 300480, Note_on_c, 0, 84, 100
2, 300668, Note_off_c, 0, 84, 100
2, 300864, Note_on_c, 0, 67, 120
2, 301052, Note_off_c, 0, 67, 100
2, 301056, Note_on_c, 0, 68, 120
2, 301148, Note_off_c, 0, 68, 100
2, 301152, Note_on_c, 0, 67, 120
2, 301244, Note_off_c, 0, 67, 100
2, 301248, Note_on_c, 0, 69, 120
2, 301340, Note_off_c, 0, 69, 100
2, 301344, Note_on_c, 0, 71, 120
2, 301436, Note_off_c, 0, 71, 100
2, 301440, Note_on_c, 0, 72, 120
2, 301532, Note_off_c, 0, 72, 100
2, 301536, Note_on_c, 0, 74, 120
2, 301628, Note_off_c, 0, 74, 100
2, 301632, Note_on_c, 0, 75, 120
2, 301724, Note_off_c, 0, 75, 100
2, 301728, Note_on_c, 0, 74, 120
2, 301820, Note_off_c, 0, 74, 100
2, 301824, Note_on_c, 0, 75, 120
2, 301916, Note_off_c, 0, 75, 100
2, 301920, Note_on_c, 0, 76, 120
2, 302012, Note_off_c, 0, 76, 100
2, 302016, Note_on_c, 0, 77, 120
2, 302108, Note_off_c, 0, 77, 100
2, 302112, Note_on_c, 0, 76, 120
2, 302204, Note_off_c, 0, 76, 100
2, 302208, Note_on_c, 0, 77, 120
2, 302300, Note_off_c, 0, 77, 100
2, 302304, Note_on_c, 0, 78, 120
2, 302396, Note_off_c, 0, 78, 100
2, 302400, Note_on_c, 0, 79, 120
2, 302492, Note_off_c, 0, 79, 100
2, 302496, Note_on_c, 0, 78, 120
2, 302588, Note_off_c, 0, 78, 100
2, 302592, Note_on_c, 0, 79, 120
2, 302684, Note_off_c, 0, 79, 100
2, 302688, Note_on_c, 0, 81, 120
2, 302780, Note_off_c, 0, 81, 100
2, 302784, Note_on_c, 0, 82, 120
2, 302876, Note_off_c, 0, 82, 100
2, 302880, Note_on_c, 0, 83, 120
2, 302972, Note_off_c, 0, 83, 100
2, 302976, Note_on_c, 0, 84, 120
2, 303068, Note_off_c, 0, 84, 100
2, 303072, Note_on_c, 0, 86, 120
2, 303164, Note_off_c, 0, 86, 100
2, 303168, Note_on_c, 0, 87, 120
2, 303260, Note_off_c, 0, 87, 100
2, 303264, Note_on_c, 0, 86, 120
2, 303356, Note_off_c, 0, 86, 100
2, 303360, Note_on_c, 0, 87, 120
2, 303452, Note_off_c, 0, 87, 100
2, 303456, Note_on_c, 0, 88, 120
2, 303548, Note_off_c, 0, 88, 100
2, 303552, Note_on_c, 0, 89, 120
2, 303644, Note_off_c, 0, 89, 100
2, 303648, Note_on_c, 0, 88, 120
2, 303740, Note_off_c, 0, 88, 100
2, 303744, Note_on_c, 0, 89, 120
2, 303836, Note_off_c, 0, 89, 100
2, 303840, Note_on_c, 0, 90, 120
2, 303932, Note_off_c, 0, 90, 100
2, 303936, Note_on_c, 0, 91, 120
2, 304028, Note_off_c, 0, 91, 100
2, 304032, Note_on_c, 0, 90, 120
2, 304124, Note_off_c, 0, 90, 100
2, 304128, Note_on_c, 0, 91, 120
2, 304220, Note_off_c, 0, 91, 100
2, 304224, Note_on_c, 0, 93, 120
2, 304316, Note_off_c, 0, 93, 100
2, 304320, Note_on_c, 0, 94, 120
2, 304412, Note_off_c, 0, 94, 100
2, 304416, Note_on_c, 0, 95, 120
2, 304508, Note_off_c, 0, 95, 100
2, 304512, Note_on_c, 0, 96, 120
2, 304892, Note_off_c, 0, 96, 100
2, 304896, Note_on_c, 0, 72, 120
2, 304896, Note_on_c, 0, 60, 120
2, 305276, Note_off_c, 0, 72, 100
2, 305276, Note_off_c, 0, 60, 100
2, 305664, Note_on_c, 0, 75, 120
2, 305664, Note_on_c, 0, 69, 120
2, 305664, Note_on_c, 0, 66, 120
2, 305664, Note_on_c, 0, 63, 120
2, 306044, Note_off_c, 0, 75, 100
2, 306044, Note_off_c, 0, 69, 100
2, 306044, Note_off_c, 0, 66, 100
2, 306044, Note_off_c, 0, 63, 100
2, 306432, Note_on_c, 0, 71, 120
2, 306432, Note_on_c, 0, 68, 120
2, 306432, Note_on_c, 0, 65, 120
2, 306432, Note_on_c, 0, 62, 120
2, 306812, Note_off_c, 0, 71, 100
2, 306812, Note_off_c, 0, 68, 100
2, 306812, Note_off_c, 0, 65, 100
2, 306812, Note_off_c, 0, 62, 100
2, 307200, Note_on_c, 0, 74, 120
2, 307200, Note_on_c, 0, 71, 120
2, 307200, Note_on_c, 0, 68, 120
2, 307200, Note_on_c, 0, 65, 120
2, 307580, Note_off_c, 0, 74, 100
2, 307580, Note_off_c, 0, 71, 100
2, 307580, Note_off_c, 0, 68, 100
2, 307580, Note_off_c, 0, 65, 100
2, 307968, Note_on_c, 0, 70, 110
2, 307968, Note_on_c, 0, 67, 110
2, 307968, Note_on_c, 0, 64, 110
2, 307968, Note_on_c, 0, 61, 110
2, 308348, Note_off_c, 0, 70, 100
2, 308348, Note_off_c, 0, 67, 100
2, 308348, Note_off_c, 0, 64, 100
2, 308348, Note_off_c, 0, 61, 100
2, 308736, Note_on_c, 0, 73, 100
2, 308736, Note_on_c, 0, 70, 100
2, 308736, Note_on_c, 0, 67, 100
2, 308736, Note_on_c, 0, 64, 100
2, 309116, Note_off_c, 0, 73, 100
2, 309116, Note_off_c, 0, 70, 100
2, 309116, Note_off_c, 0, 67, 100
2, 309116, Note_off_c, 0, 64, 100
2, 309504, Note_on_c, 0, 69, 90
2, 309504, Note_on_c, 0, 65, 90
2, 309504, Note_on_c, 0, 60, 90
2, 309884, Note_off_c, 0, 69, 100
2, 309884, Note_off_c, 0, 65, 100
2, 309884, Note_off_c, 0, 60, 100
2, 310272, Note_on_c, 0, 72, 80
2, 310272, Note_on_c, 0, 69, 80
2, 310272, Note_on_c, 0, 65, 80
2, 310652, Note_off_c, 0, 72, 100
2, 310652, Note_off_c, 0, 69, 100
2, 310652, Note_off_c, 0, 65, 100
2, 311424, Note_on_c, 0, 72, 80
2, 311424, Note_on_c, 0, 68, 80
2, 311424, Note_on_c, 0, 65, 80
2, 312188, Note_off_c, 0, 72, 100
2, 312188, Note_off_c, 0, 68, 100
2, 312188, Note_off_c, 0, 65, 100
2, 312192, Note_on_c, 0, 72, 80
2, 312192, Note_on_c, 0, 70, 80
2, 312192, Note_on_c, 0, 67, 80
2, 312956, Note_off_c, 0, 72, 100
2, 312956, Note_off_c, 0, 70, 100
2, 312956, Note_off_c, 0, 67, 100
2, 312960, Note_on_c, 0, 72, 80
2, 312960, Note_on_c, 0, 68, 80
2, 312960, Note_on_c, 0, 65, 80
2, 313532, Note_off_c, 0, 72, 100
2, 313536, Note_on_c, 0, 74, 80
2, 313536, Note_on_c, 0, 71, 80
2, 313724, Note_off_c, 0, 68, 100
2, 313724, Note_off_c, 0, 65, 100
2, 313724, Note_off_c, 0, 74, 100
2, 313724, Note_off_c, 0, 71, 100
2, 313728, Note_on_c, 0, 76, 80
2, 313728, Note_on_c, 0, 72, 80
2, 313728, Note_on_c, 0, 67, 80
2, 313728, Note_on_c, 0, 64, 80
2, 314108, Note_off_c, 0, 76, 100
2, 314108, Note_off_c, 0, 72, 100
2, 314108, Note_off_c, 0, 67, 100
2, 314108, Note_off_c, 0, 64, 100
2, 314112, Note_on_c, 0, 72, 80
2, 314112, Note_on_c, 0, 64, 80
2, 314300, Note_off_c, 0, 64, 100
2, 314304, Note_on_c, 0, 65, 80
2, 314396, Note_off_c, 0, 65, 100
2, 314400, Note_on_c, 0, 67, 80
2, 314492, Note_off_c, 0, 72, 100
2, 314492, Note_off_c, 0, 67, 100
2, 314496, Note_on_c, 0, 72, 80
2, 314496, Note_on_c, 0, 68, 80
2, 314496, Note_on_c, 0, 65, 80
2, 315260, Note_off_c, 0, 72, 100
2, 315260, Note_off_c, 0, 68, 100
2, 315260, Note_off_c, 0, 65, 100
2, 315264, Note_on_c, 0, 72, 80
2, 315264, Note_on_c, 0, 70, 80
2, 315264, Note_on_c, 0, 67, 80
2, 316028, Note_off_c, 0, 72, 100
2, 316028, Note_off_c, 0, 70, 100
2, 316028, Note_off_c, 0, 67, 100
2, 316032, Note_on_c, 0, 65, 80
2, 316032, Note_on_c, 0, 68, 80
2, 316032, Note_on_c, 0, 72, 80
2, 316604, Note_off_c, 0, 72, 100
2, 316608, Note_on_c, 0, 77, 80
2, 316796, Note_off_c, 0, 65, 100
2, 316796, Note_off_c, 0, 68, 100
2, 316796, Note_off_c, 0, 77, 100
2, 316800, Note_on_c, 0, 79, 80
2, 316800, Note_on_c, 0, 76, 80
2, 316800, Note_on_c, 0, 72, 80
2, 316800, Note_on_c, 0, 67, 80
2, 317180, Note_off_c, 0, 79, 100
2, 317180, Note_off_c, 0, 76, 100
2, 317180, Note_off_c, 0, 72, 100
2, 317180, Note_off_c, 0, 67, 100
2, 317184, Note_on_c, 0, 72, 80
2, 317184, Note_on_c, 0, 64, 80
2, 317372, Note_off_c, 0, 64, 100
2, 317376, Note_on_c, 0, 65, 80
2, 317468, Note_off_c, 0, 65, 100
2, 317472, Note_on_c, 0, 67, 80
2, 317564, Note_off_c, 0, 72, 100
2, 317564, Note_off_c, 0, 67, 100
2, 317568, Note_on_c, 0, 72, 80
2, 317568, Note_on_c, 0, 68, 80
2, 317568, Note_on_c, 0, 65, 80
2, 317568, Note_on_c, 0, 60, 80
2, 318332, Note_off_c, 0, 72, 100
2, 318332, Note_off_c, 0, 68, 100
2, 318332, Note_off_c, 0, 65, 100
2, 318332, Note_off_c, 0, 60, 100
2, 318336, Note_on_c, 0, 72, 80
2, 318336, Note_on_c, 0, 70, 80
2, 318336, Note_on_c, 0, 67, 80
2, 318336, Note_on_c, 0, 60, 80
2, 319100, Note_off_c, 0, 72, 100
2, 319100, Note_off_c, 0, 70, 100
2, 319100, Note_off_c, 0, 67, 100
2, 319100, Note_off_c, 0, 60, 100
2, 319104, Note_on_c, 0, 72, 80
2, 319104, Note_on_c, 0, 68, 80
2, 319104, Note_on_c, 0, 65, 80
2, 319104, Note_on_c, 0, 60, 80
2, 319676, Note_off_c, 0, 72, 100
2, 319676, Note_off_c, 0, 68, 100
2, 319676, Note_off_c, 0, 65, 100
2, 319676, Note_off_c, 0, 60, 100
2, 319680, Note_on_c, 0, 83, 100
2, 319680, Note_on_c, 0, 80, 100
2, 319680, Note_on_c, 0, 77, 100
2, 319680, Note_on_c, 0, 74, 100
2, 319868, Note_off_c, 0, 83, 100
2, 319868, Note_off_c, 0, 80, 100
2, 319868, Note_off_c, 0, 77, 100
2, 319868, Note_off_c, 0, 74, 100
2, 319872, Note_on_c, 0, 83, 100
2, 319872, Note_on_c, 0, 80, 100
2, 319872, Note_on_c, 0, 77, 100
2, 319872, Note_on_c, 0, 74, 100
2, 321404, Note_off_c, 0, 83, 100
2, 321404, Note_off_c, 0, 80, 100
2, 321404, Note_off_c, 0, 77, 100
2, 321404, Note_off_c, 0, 74, 100
2, 321408, Control_c, 0, 64, 127
2, 321408, Note_on_c, 0, 84, 80
2, 321408, Note_on_c, 0, 79, 80
2, 321408, Note_on_c, 0, 76, 80
2, 322172, Note_off_c, 0, 84, 100
2, 322172, Note_off_c, 0, 79, 100
2, 322172, Note_off_c, 0, 76, 100
2, 322176, Note_on_c, 0, 84, 75
2, 322176, Note_on_c, 0, 79, 75
2, 322176, Note_on_c, 0, 76, 75
2, 322940, Note_off_c, 0, 84, 100
2, 322940, Note_off_c, 0, 79, 100
2, 322940, Note_off_c, 0, 76, 100
2, 322944, Note_on_c, 0, 84, 70
2, 322944, Note_on_c, 0, 79, 70
2, 322944, Note_on_c, 0, 76, 70
2, 324472, Control_c, 0, 64, 0
2, 324476, Note_off_c, 0, 84, 100
2, 324476, Note_off_c, 0, 79, 100
2, 324476, Note_off_c, 0, 76, 100
2, 324672, Control_c, 0, 7, 0
2, 325056, Note_on_c, 0, 60, 1
2, 325244, Note_off_c, 0, 60, 100
2, 325244, End_track
3, 0, Start_track
3, 0, Title_t, "Left"
3, 0, Control_c, 1, 0, 0
3, 0, Program_c, 1, 0
3, 0, Control_c, 1, 7, 100
3, 0, Control_c, 1, 10, 55
3, 0, Control_c, 1, 91, 127
3, 0, Key_signature, -3, "minor"
3, 336, Note_on_c, 1, 63, 110
3, 336, Note_on_c, 1, 51, 110
3, 380, Note_off_c, 1, 63, 100
3, 380, Note_off_c, 1, 51, 100
3, 384, Note_on_c, 1, 54, 110
3, 384, Note_on_c, 1, 42, 110
3, 716, Note_off_c, 1, 54, 100
3, 716, Note_off_c, 1, 42, 100
3, 720, Note_on_c, 1, 42, 110
3, 720, Note_on_c, 1, 30, 110
3, 764, Note_off_c, 1, 42, 100
3, 764, Note_off_c, 1, 30, 100
3, 768, Note_on_c, 1, 54, 110
3, 768, Note_on_c, 1, 42, 110
3, 1484, Note_off_c, 1, 54, 100
3, 1484, Note_off_c, 1, 42, 100
3, 1488, Note_on_c, 1, 63, 110
3, 1488, Note_on_c, 1, 54, 110
3, 1532, Note_off_c, 1, 63, 100
3, 1532, Note_off_c, 1, 54, 100
3, 1536, Note_on_c, 1, 63, 107
3, 1536, Note_on_c, 1, 54, 107
3, 1916, Note_off_c, 1, 63, 100
3, 1916, Note_off_c, 1, 54, 100
3, 1920, Note_on_c, 1, 62, 80
3, 1920, Note_on_c, 1, 55, 80
3, 2108, Note_off_c, 1, 62, 100
3, 2108, Note_off_c, 1, 55, 100
3, 2304, Note_on_c, 1, 60, 80
3, 2304, Note_on_c, 1, 55, 80
3, 2304, Note_on_c, 1, 48, 80
3, 2492, Note_off_c, 1, 60, 100
3, 2492, Note_off_c, 1, 55, 100
3, 2492, Note_off_c, 1, 48, 100
3, 2496, Control_c, 1, 64, 127
3, 2496, Note_on_c, 1, 35, 110
3, 2520, Note_on_c, 1, 38, 110
3, 2544, Note_on_c, 1, 43, 110
3, 2568, Note_on_c, 1, 47, 110
3, 2576, Note_off_c, 1, 35, 100
3, 2592, Note_on_c, 1, 50, 110
3, 2600, Note_off_c, 1, 38, 100
3, 2616, Note_on_c, 1, 55, 110
3, 2624, Note_off_c, 1, 43, 100
3, 2640, Note_on_c, 1, 59, 110
3, 2648, Note_off_c, 1, 47, 100
3, 2664, Note_on_c, 1, 62, 110
3, 2672, Note_off_c, 1, 50, 100
3, 2688, Note_on_c, 1, 67, 110
3, 2696, Note_off_c, 1, 55, 100
3, 2712, Note_on_c, 1, 71, 110
3, 2720, Note_off_c, 1, 59, 100
3, 2724, Note_off_c, 1, 62, 100
3, 2728, Note_off_c, 1, 67, 100
3, 2732, Note_off_c, 1, 71, 100
3, 2736, Note_on_c, 1, 47, 110
3, 2736, Note_on_c, 1, 35, 110
3, 2872, Control_c, 1, 64, 0
3, 2876, Note_off_c, 1, 47, 100
3, 2876, Note_off_c, 1, 35, 100
3, 3408, Note_on_c, 1, 68, 110
3, 3408, Note_on_c, 1, 56, 110
3, 3452, Note_off_c, 1, 68, 100
3, 3452, Note_off_c, 1, 56, 100
3, 3456, Note_on_c, 1, 59, 110
3, 3456, Note_on_c, 1, 47, 110
3, 3788, Note_off_c, 1, 59, 100
3, 3788, Note_off_c, 1, 47, 100
3, 3792, Note_on_c, 1, 47, 110
3, 3792, Note_on_c, 1, 35, 110
3, 3836, Note_off_c, 1, 47, 100
3, 3836, Note_off_c, 1, 35, 100
3, 3840, Note_on_c, 1, 59, 110
3, 3840, Note_on_c, 1, 47, 110
3, 4556, Note_off_c, 1, 59, 100
3, 4556, Note_off_c, 1, 47, 100
3, 4560, Note_on_c, 1, 68, 110
3, 4560, Note_on_c, 1, 59, 110
3, 4604, Note_off_c, 1, 68, 100
3, 4604, Note_off_c, 1, 59, 100
3, 4608, Note_on_c, 1, 68, 107
3, 4608, Note_on_c, 1, 59, 107
3, 4988, Note_off_c, 1, 68, 100
3, 4988, Note_off_c, 1, 59, 100
3, 4992, Note_on_c, 1, 61, 80
3, 4992, Note_on_c, 1, 58, 80
3, 5180, Note_off_c, 1, 61, 100
3, 5180, Note_off_c, 1, 58, 100
3, 5376, Note_on_c, 1, 60, 80
3, 5376, Note_on_c, 1, 56, 80
3, 5564, Note_off_c, 1, 60, 100
3, 5564, Note_off_c, 1, 56, 100
3, 5568, Control_c, 1, 64, 127
3, 5568, Note_on_c, 1, 40, 110
3, 5592, Note_on_c, 1, 43, 110
3, 5616, Note_on_c, 1, 48, 110
3, 5640, Note_on_c, 1, 52, 110
3, 5648, Note_off_c, 1, 40, 100
3, 5664, Note_on_c, 1, 55, 110
3, 5672, Note_off_c, 1, 43, 100
3, 5688, Note_on_c, 1, 60, 110
3, 5696, Note_off_c, 1, 48, 100
3, 5712, Note_on_c, 1, 64, 110
3, 5720, Note_off_c, 1, 52, 100
3, 5744, Note_off_c, 1, 55, 100
3, 5768, Note_off_c, 1, 60, 100
3, 5792, Note_off_c, 1, 64, 100
3, 5832, Note_on_c, 1, 52, 110
3, 5832, Note_on_c, 1, 40, 110
3, 5944, Control_c, 1, 64, 0
3, 6020, Note_off_c, 1, 52, 100
3, 6020, Note_off_c, 1, 40, 100
3, 6480, Note_on_c, 1, 61, 110
3, 6480, Note_on_c, 1, 49, 110
3, 6524, Note_off_c, 1, 61, 100
3, 6524, Note_off_c, 1, 49, 100
3, 6528, Note_on_c, 1, 52, 110
3, 6528, Note_on_c, 1, 40, 110
3, 6860, Note_off_c, 1, 52, 100
3, 6860, Note_off_c, 1, 40, 100
3, 6864, Note_on_c, 1, 53, 110
3, 6864, Note_on_c, 1, 41, 110
3, 6908, Note_off_c, 1, 53, 100
3, 6908, Note_off_c, 1, 41, 100
3, 6912, Note_on_c, 1, 53, 110
3, 6912, Note_on_c, 1, 41, 110
3, 7628, Note_off_c, 1, 53, 100
3, 7628, Note_off_c, 1, 41, 100
3, 7632, Note_on_c, 1, 61, 110
3, 7632, Note_on_c, 1, 53, 110
3, 7632, Note_on_c, 1, 58, 110
3, 7676, Note_off_c, 1, 61, 100
3, 7676, Note_off_c, 1, 53, 100
3, 7676, Note_off_c, 1, 58, 100
3, 7680, Note_on_c, 1, 61, 107
3, 7680, Note_on_c, 1, 58, 107
3, 7680, Note_on_c, 1, 53, 107
3, 8060, Note_off_c, 1, 61, 100
3, 8060, Note_off_c, 1, 58, 100
3, 8060, Note_off_c, 1, 53, 100
3, 8064, Note_on_c, 1, 61, 80
3, 8064, Note_on_c, 1, 58, 80
3, 8064, Note_on_c, 1, 54, 80
3, 8396, Note_off_c, 1, 61, 100
3, 8396, Note_off_c, 1, 58, 100
3, 8396, Note_off_c, 1, 54, 100
3, 8400, Note_on_c, 1, 61, 78
3, 8400, Note_on_c, 1, 58, 78
3, 8400, Note_on_c, 1, 55, 78
3, 8444, Note_off_c, 1, 61, 100
3, 8444, Note_off_c, 1, 58, 100
3, 8444, Note_off_c, 1, 55, 100
3, 8448, Note_on_c, 1, 61, 78
3, 8448, Note_on_c, 1, 58, 78
3, 8448, Note_on_c, 1, 55, 78
3, 9164, Note_off_c, 1, 61, 100
3, 9164, Note_off_c, 1, 58, 100
3, 9164, Note_off_c, 1, 55, 100
3, 9168, Note_on_c, 1, 60, 73
3, 9168, Note_on_c, 1, 56, 73
3, 9212, Note_off_c, 1, 60, 100
3, 9212, Note_off_c, 1, 56, 100
3, 9216, Note_on_c, 1, 60, 73
3, 9216, Note_on_c, 1, 56, 73
3, 9404, Note_off_c, 1, 60, 100
3, 9404, Note_off_c, 1, 56, 100
3, 9552, Note_on_c, 1, 66, 71
3, 9552, Note_on_c, 1, 63, 71
3, 9552, Note_on_c, 1, 57, 71
3, 9596, Note_off_c, 1, 66, 100
3, 9596, Note_off_c, 1, 63, 100
3, 9596, Note_off_c, 1, 57, 100
3, 9600, Note_on_c, 1, 66, 70
3, 9600, Note_on_c, 1, 63, 70
3, 9600, Note_on_c, 1, 57, 70
3, 9932, Note_off_c, 1, 66, 100
3, 9932, Note_off_c, 1, 63, 100
3, 9932, Note_off_c, 1, 57, 100
3, 9936, Note_on_c, 1, 66, 70
3, 9936, Note_on_c, 1, 63, 70
3, 9936, Note_on_c, 1, 58, 70
3, 9980, Note_off_c, 1, 66, 100
3, 9980, Note_off_c, 1, 63, 100
3, 9980, Note_off_c, 1, 58, 100
3, 9984, Note_on_c, 1, 66, 70
3, 9984, Note_on_c, 1, 63, 70
3, 9984, Note_on_c, 1, 58, 70
3, 10700, Note_off_c, 1, 66, 100
3, 10700, Note_off_c, 1, 63, 100
3, 10700, Note_off_c, 1, 58, 100
3, 10704, Note_on_c, 1, 66, 70
3, 10704, Note_on_c, 1, 63, 70
3, 10704, Note_on_c, 1, 59, 70
3, 10748, Note_off_c, 1, 66, 100
3, 10748, Note_off_c, 1, 63, 100
3, 10748, Note_off_c, 1, 59, 100
3, 10752, Note_on_c, 1, 66, 70
3, 10752, Note_on_c, 1, 63, 70
3, 10752, Note_on_c, 1, 59, 70
3, 11084, Note_off_c, 1, 66, 100
3, 11084, Note_off_c, 1, 63, 100
3, 11084, Note_off_c, 1, 59, 100
3, 11088, Note_on_c, 1, 63, 70
3, 11088, Note_on_c, 1, 60, 70
3, 11088, Note_on_c, 1, 66, 70
3, 11132, Note_off_c, 1, 63, 100
3, 11132, Note_off_c, 1, 60, 100
3, 11132, Note_off_c, 1, 66, 100
3, 11136, Note_on_c, 1, 66, 70
3, 11136, Note_on_c, 1, 63, 70
3, 11136, Note_on_c, 1, 60, 70
3, 11468, Note_off_c, 1, 66, 100
3, 11468, Note_off_c, 1, 63, 100
3, 11468, Note_off_c, 1, 60, 100
3, 11472, Note_on_c, 1, 65, 70
3, 11472, Note_on_c, 1, 61, 70
3, 11516, Note_off_c, 1, 65, 100
3, 11516, Note_off_c, 1, 61, 100
3, 11520, Note_on_c, 1, 65, 70
3, 11520, Note_on_c, 1, 61, 70
3, 12236, Note_off_c, 1, 65, 100
3, 12236, Note_off_c, 1, 61, 100
3, 12240, Note_on_c, 1, 65, 70
3, 12240, Note_on_c, 1, 62, 70
3, 12284, Note_off_c, 1, 65, 100
3, 12284, Note_off_c, 1, 62, 100
3, 12288, Note_on_c, 1, 65, 70
3, 12288, Note_on_c, 1, 62, 70
3, 12620, Note_off_c, 1, 65, 100
3, 12620, Note_off_c, 1, 62, 100
3, 12624, Note_on_c, 1, 50, 70
3, 12624, Note_on_c, 1, 38, 70
3, 12668, Note_off_c, 1, 50, 100
3, 12668, Note_off_c, 1, 38, 100
3, 12672, Note_on_c, 1, 50, 70
3, 12672, Note_on_c, 1, 38, 70
3, 13004, Note_off_c, 1, 50, 100
3, 13004, Note_off_c, 1, 38, 100
3, 13008, Note_on_c, 1, 51, 70
3, 13008, Note_on_c, 1, 39, 70
3, 13052, Note_off_c, 1, 51, 100
3, 13052, Note_off_c, 1, 39, 100
3, 13056, Note_on_c, 1, 51, 70
3, 13056, Note_on_c, 1, 39, 70
3, 13772, Note_off_c, 1, 51, 100
3, 13772, Note_off_c, 1, 39, 100
3, 13776, Note_on_c, 1, 51, 70
3, 13776, Note_on_c, 1, 39, 70
3, 13820, Note_off_c, 1, 51, 100
3, 13820, Note_off_c, 1, 39, 100
3, 13824, Note_on_c, 1, 51, 70
3, 13824, Note_on_c, 1, 39, 70
3, 14156, Note_off_c, 1, 51, 100
3, 14156, Note_off_c, 1, 39, 100
3, 14160, Note_on_c, 1, 52, 70
3, 14160, Note_on_c, 1, 40, 70
3, 14204, Note_off_c, 1, 52, 100
3, 14204, Note_off_c, 1, 40, 100
3, 14208, Note_on_c, 1, 52, 70
3, 14208, Note_on_c, 1, 40, 70
3, 14540, Note_off_c, 1, 52, 100
3, 14540, Note_off_c, 1, 40, 100
3, 14544, Note_on_c, 1, 53, 85
3, 14544, Note_on_c, 1, 41, 85
3, 14588, Note_off_c, 1, 53, 100
3, 14588, Note_off_c, 1, 41, 100
3, 14592, Note_on_c, 1, 53, 88
3, 14592, Note_on_c, 1, 41, 88
3, 14924, Note_off_c, 1, 53, 100
3, 14924, Note_off_c, 1, 41, 100
3, 14928, Note_on_c, 1, 55, 104
3, 14928, Note_on_c, 1, 43, 104
3, 14972, Note_off_c, 1, 55, 100
3, 14972, Note_off_c, 1, 43, 100
3, 14976, Note_on_c, 1, 55, 106
3, 14976, Note_on_c, 1, 43, 106
3, 15164, Note_off_c, 1, 55, 100
3, 15164, Note_off_c, 1, 43, 100
3, 15168, Note_on_c, 1, 56, 110
3, 15168, Note_on_c, 1, 44, 110
3, 15356, Note_off_c, 1, 56, 100
3, 15356, Note_off_c, 1, 44, 100
3, 15360, Note_on_c, 1, 56, 110
3, 15360, Note_on_c, 1, 44, 110
3, 15548, Note_off_c, 1, 56, 100
3, 15548, Note_off_c, 1, 44, 100
3, 15552, Note_on_c, 1, 44, 110
3, 15552, Note_on_c, 1, 32, 110
3, 15740, Note_off_c, 1, 44, 100
3, 15740, Note_off_c, 1, 32, 100
3, 15744, Note_on_c, 1, 43, 110
3, 15744, Note_on_c, 1, 31, 110
3, 15932, Note_off_c, 1, 43, 100
3, 15932, Note_off_c, 1, 31, 100
3, 15936, Note_on_c, 1, 55, 110
3, 16124, Note_off_c, 1, 55, 100
3, 16128, Note_on_c, 1, 55, 80
3, 16316, Note_off_c, 1, 55, 100
3, 16320, Note_on_c, 1, 55, 110
3, 16320, Note_on_c, 1, 56, 110
3, 16508, Note_off_c, 1, 55, 100
3, 16508, Note_off_c, 1, 56, 100
3, 16512, Note_on_c, 1, 56, 80
3, 16512, Note_on_c, 1, 53, 80
3, 16700, Note_off_c, 1, 56, 100
3, 16700, Note_off_c, 1, 53, 100
3, 16704, Note_on_c, 1, 55, 110
3, 16704, Note_on_c, 1, 53, 110
3, 16892, Note_off_c, 1, 55, 100
3, 16892, Note_off_c, 1, 53, 100
3, 16896, Note_on_c, 1, 55, 80
3, 16896, Note_on_c, 1, 53, 80
3, 17084, Note_off_c, 1, 55, 100
3, 17084, Note_off_c, 1, 53, 100
3, 17088, Note_on_c, 1, 55, 80
3, 17088, Note_on_c, 1, 51, 80
3, 17276, Note_off_c, 1, 55, 100
3, 17276, Note_off_c, 1, 51, 100
3, 17280, Note_on_c, 1, 51, 80
3, 17280, Note_on_c, 1, 55, 80
3, 17468, Note_off_c, 1, 55, 100
3, 17472, Note_on_c, 1, 55, 80
3, 17660, Note_off_c, 1, 51, 100
3, 17660, Note_off_c, 1, 55, 100
3, 17664, Note_on_c, 1, 50, 80
3, 17664, Note_on_c, 1, 55, 80
3, 17852, Note_off_c, 1, 55, 100
3, 17856, Note_on_c, 1, 55, 80
3, 18044, Note_off_c, 1, 50, 100
3, 18044, Note_off_c, 1, 55, 100
3, 18048, Note_on_c, 1, 48, 80
3, 18048, Note_on_c, 1, 55, 80
3, 18236, Note_off_c, 1, 55, 100
3, 18240, Note_on_c, 1, 55, 80
3, 18428, Note_off_c, 1, 48, 100
3, 18428, Note_off_c, 1, 55, 100
3, 18432, Note_on_c, 1, 55, 80
3, 18432, Note_on_c, 1, 42, 80
3, 18620, Note_off_c, 1, 55, 100
3, 18624, Note_on_c, 1, 55, 80
3, 18764, Note_off_c, 1, 42, 100
3, 18768, Note_on_c, 1, 43, 80
3, 18812, Note_off_c, 1, 43, 100
3, 18816, Note_on_c, 1, 43, 80
3, 19004, Note_off_c, 1, 55, 100
3, 19004, Note_off_c, 1, 43, 100
3, 19008, Note_on_c, 1, 43, 110
3, 19196, Note_off_c, 1, 43, 100
3, 19200, Note_on_c, 1, 43, 80
3, 19388, Note_off_c, 1, 43, 100
3, 19392, Note_on_c, 1, 43, 110
3, 19392, Note_on_c, 1, 44, 110
3, 19580, Note_off_c, 1, 43, 100
3, 19580, Note_off_c, 1, 44, 100
3, 19584, Note_on_c, 1, 44, 80
3, 19584, Note_on_c, 1, 41, 80
3, 19772, Note_off_c, 1, 44, 100
3, 19772, Note_off_c, 1, 41, 100
3, 19776, Note_on_c, 1, 43, 110
3, 19776, Note_on_c, 1, 41, 110
3, 19964, Note_off_c, 1, 43, 100
3, 19964, Note_off_c, 1, 41, 100
3, 19968, Note_on_c, 1, 43, 80
3, 19968, Note_on_c, 1, 41, 80
3, 20156, Note_off_c, 1, 43, 100
3, 20156, Note_off_c, 1, 41, 100
3, 20160, Note_on_c, 1, 43, 80
3, 20160, Note_on_c, 1, 39, 80
3, 20348, Note_off_c, 1, 43, 100
3, 20348, Note_off_c, 1, 39, 100
3, 20352, Note_on_c, 1, 39, 80
3, 20352, Note_on_c, 1, 43, 80
3, 20540, Note_off_c, 1, 43, 100
3, 20544, Note_on_c, 1, 43, 80
3, 20732, Note_off_c, 1, 39, 100
3, 20732, Note_off_c, 1, 43, 100
3, 20736, Note_on_c, 1, 38, 80
3, 20736, Note_on_c, 1, 43, 80
3, 20924, Note_off_c, 1, 43, 100
3, 20928, Note_on_c, 1, 43, 80
3, 21116, Note_off_c, 1, 38, 100
3, 21116, Note_off_c, 1, 43, 100
3, 21120, Note_on_c, 1, 36, 80
3, 21120, Note_on_c, 1, 43, 80
3, 21308, Note_off_c, 1, 43, 100
3, 21312, Note_on_c, 1, 43, 80
3, 21500, Note_off_c, 1, 36, 100
3, 21500, Note_off_c, 1, 43, 100
3, 21504, Note_on_c, 1, 43, 80
3, 21504, Note_on_c, 1, 30, 80
3, 21692, Note_off_c, 1, 43, 100
3, 21696, Note_on_c, 1, 43, 80
3, 21836, Note_off_c, 1, 30, 100
3, 21840, Note_on_c, 1, 31, 80
3, 21884, Note_off_c, 1, 31, 100
3, 21888, Control_c, 1, 64, 127
3, 21888, Note_on_c, 1, 31, 80
3, 22076, Note_off_c, 1, 43, 100
3, 22080, Note_on_c, 1, 43, 80
3, 22268, Note_off_c, 1, 43, 100
3, 22272, Note_on_c, 1, 43, 80
3, 22460, Note_off_c, 1, 43, 100
3, 22464, Note_on_c, 1, 43, 80
3, 22652, Note_off_c, 1, 31, 100
3, 22652, Note_off_c, 1, 43, 100
3, 22656, Note_on_c, 1, 31, 80
3, 22656, Note_on_c, 1, 43, 80
3, 22844, Note_off_c, 1, 43, 100
3, 22848, Note_on_c, 1, 43, 80
3, 23036, Note_off_c, 1, 43, 100
3, 23040, Note_on_c, 1, 43, 80
3, 23228, Note_off_c, 1, 43, 100
3, 23232, Note_on_c, 1, 43, 80
3, 23416, Control_c, 1, 64, 0
3, 23420, Note_off_c, 1, 31, 100
3, 23420, Note_off_c, 1, 43, 100
3, 23424, Note_on_c, 1, 31, 70
3, 23472, Note_on_c, 1, 32, 70
3, 23516, Note_off_c, 1, 31, 100
3, 23520, Note_on_c, 1, 31, 70
3, 23564, Note_off_c, 1, 32, 100
3, 23568, Note_on_c, 1, 32, 70
3, 23612, Note_off_c, 1, 31, 100
3, 23616, Note_on_c, 1, 31, 70
3, 23660, Note_off_c, 1, 32, 100
3, 23664, Note_on_c, 1, 32, 70
3, 23708, Note_off_c, 1, 31, 100
3, 23712, Note_on_c, 1, 31, 70
3, 23756, Note_off_c, 1, 32, 100
3, 23760, Note_on_c, 1, 32, 70
3, 23804, Note_off_c, 1, 31, 100
3, 23808, Note_on_c, 1, 31, 70
3, 23852, Note_off_c, 1, 32, 100
3, 23856, Note_on_c, 1, 32, 70
3, 23900, Note_off_c, 1, 31, 100
3, 23904, Note_on_c, 1, 31, 70
3, 23948, Note_off_c, 1, 32, 100
3, 23952, Note_on_c, 1, 32, 70
3, 23996, Note_off_c, 1, 31, 100
3, 24000, Note_on_c, 1, 31, 70
3, 24044, Note_off_c, 1, 32, 100
3, 24048, Note_on_c, 1, 32, 70
3, 24092, Note_off_c, 1, 31, 100
3, 24096, Note_on_c, 1, 31, 70
3, 24140, Note_off_c, 1, 32, 100
3, 24144, Note_on_c, 1, 32, 70
3, 24188, Note_off_c, 1, 31, 100
3, 24192, Note_on_c, 1, 31, 70
3, 24236, Note_off_c, 1, 32, 100
3, 24240, Note_on_c, 1, 32, 70
3, 24284, Note_off_c, 1, 31, 100
3, 24288, Note_on_c, 1, 31, 70
3, 24332, Note_off_c, 1, 32, 100
3, 24336, Note_on_c, 1, 32, 70
3, 24380, Note_off_c, 1, 31, 100
3, 24384, Note_on_c, 1, 31, 70
3, 24428, Note_off_c, 1, 32, 100
3, 24432, Note_on_c, 1, 32, 70
3, 24476, Note_off_c, 1, 31, 100
3, 24480, Note_on_c, 1, 31, 70
3, 24524, Note_off_c, 1, 32, 100
3, 24528, Note_on_c, 1, 32, 70
3, 24572, Note_off_c, 1, 31, 100
3, 24576, Note_on_c, 1, 31, 70
3, 24620, Note_off_c, 1, 32, 100
3, 24624, Note_on_c, 1, 32, 70
3, 24668, Note_off_c, 1, 31, 100
3, 24672, Note_on_c, 1, 31, 70
3, 24716, Note_off_c, 1, 32, 100
3, 24720, Note_on_c, 1, 32, 70
3, 24764, Note_off_c, 1, 31, 100
3, 24768, Note_on_c, 1, 31, 70
3, 24812, Note_off_c, 1, 32, 100
3, 24816, Note_on_c, 1, 32, 70
3, 24860, Note_off_c, 1, 31, 100
3, 24864, Note_on_c, 1, 31, 70
3, 24908, Note_off_c, 1, 32, 100
3, 24912, Note_on_c, 1, 32, 70
3, 24956, Note_off_c, 1, 31, 100
3, 24960, Note_on_c, 1, 31, 70
3, 25004, Note_off_c, 1, 32, 100
3, 25056, Note_on_c, 1, 32, 71
3, 25148, Note_off_c, 1, 31, 100
3, 25152, Note_on_c, 1, 31, 73
3, 25244, Note_off_c, 1, 32, 100
3, 25248, Note_on_c, 1, 32, 74
3, 25340, Note_off_c, 1, 31, 100
3, 25344, Note_on_c, 1, 31, 75
3, 25436, Note_off_c, 1, 32, 100
3, 25440, Note_on_c, 1, 32, 76
3, 25532, Note_off_c, 1, 31, 100
3, 25536, Note_on_c, 1, 31, 78
3, 25628, Note_off_c, 1, 32, 100
3, 25632, Note_on_c, 1, 32, 79
3, 25724, Note_off_c, 1, 31, 100
3, 25728, Note_on_c, 1, 31, 80
3, 25820, Note_off_c, 1, 32, 100
3, 25824, Note_on_c, 1, 32, 81
3, 25916, Note_off_c, 1, 31, 100
3, 25920, Note_on_c, 1, 31, 83
3, 26012, Note_off_c, 1, 32, 100
3, 26016, Note_on_c, 1, 32, 84
3, 26108, Note_off_c, 1, 31, 100
3, 26112, Note_on_c, 1, 31, 85
3, 26204, Note_off_c, 1, 32, 100
3, 26208, Note_on_c, 1, 32, 87
3, 26300, Note_off_c, 1, 31, 100
3, 26304, Note_on_c, 1, 31, 88
3, 26396, Note_off_c, 1, 32, 100
3, 26400, Note_on_c, 1, 32, 89
3, 26492, Note_off_c, 1, 31, 100
3, 26496, Note_on_c, 1, 31, 90
3, 26588, Note_off_c, 1, 32, 100
3, 26592, Note_on_c, 1, 32, 92
3, 26684, Note_off_c, 1, 31, 100
3, 26688, Note_on_c, 1, 31, 93
3, 26780, Note_off_c, 1, 32, 100
3, 26784, Note_on_c, 1, 32, 94
3, 26876, Note_off_c, 1, 31, 100
3, 26880, Note_on_c, 1, 31, 95
3, 26972, Note_off_c, 1, 32, 100
3, 26976, Note_on_c, 1, 32, 97
3, 27068, Note_off_c, 1, 31, 100
3, 27072, Note_on_c, 1, 31, 98
3, 27164, Note_off_c, 1, 32, 100
3, 27168, Note_on_c, 1, 32, 99
3, 27260, Note_off_c, 1, 31, 100
3, 27264, Note_on_c, 1, 31, 100
3, 27356, Note_off_c, 1, 32, 100
3, 27360, Note_on_c, 1, 32, 102
3, 27452, Note_off_c, 1, 31, 100
3, 27456, Note_on_c, 1, 31, 103
3, 27548, Note_off_c, 1, 32, 100
3, 27552, Note_on_c, 1, 32, 104
3, 27644, Note_off_c, 1, 31, 100
3, 27648, Note_on_c, 1, 31, 105
3, 27740, Note_off_c, 1, 32, 100
3, 27744, Note_on_c, 1, 32, 107
3, 27836, Note_off_c, 1, 31, 100
3, 27840, Note_on_c, 1, 31, 108
3, 27932, Note_off_c, 1, 32, 100
3, 27936, Note_on_c, 1, 33, 110
3, 27980, Note_off_c, 1, 33, 100
3, 27984, Note_on_c, 1, 35, 110
3, 28028, Note_off_c, 1, 31, 100
3, 28028, Note_off_c, 1, 35, 100
3, 28032, Note_on_c, 1, 36, 110
3, 28412, Note_off_c, 1, 36, 100
3, 29376, Note_on_c, 1, 31, 110
3, 29436, Note_off_c, 1, 31, 100
3, 29440, Note_on_c, 1, 33, 110
3, 29500, Note_off_c, 1, 33, 100
3, 29504, Note_on_c, 1, 35, 110
3, 29564, Note_off_c, 1, 35, 100
3, 29568, Note_on_c, 1, 36, 110
3, 29948, Note_off_c, 1, 36, 100
3, 29952, Note_on_c, 1, 39, 110
3, 30320, Note_on_c, 1, 35, 110
3, 30332, Note_off_c, 1, 39, 100
3, 32236, Note_off_c, 1, 35, 100
3, 32448, Note_on_c, 1, 31, 110
3, 32508, Note_off_c, 1, 31, 100
3, 32512, Note_on_c, 1, 33, 110
3, 32572, Note_off_c, 1, 33, 100
3, 32576, Note_on_c, 1, 35, 110
3, 32636, Note_off_c, 1, 35, 100
3, 32640, Note_on_c, 1, 36, 110
3, 33020, Note_off_c, 1, 36, 100
3, 33024, Note_on_c, 1, 39, 110
3, 33404, Note_off_c, 1, 39, 100
3, 33408, Note_on_c, 1, 35, 110
3, 33980, Note_off_c, 1, 35, 100
3, 33984, Note_on_c, 1, 44, 110
3, 34172, Note_off_c, 1, 44, 100
3, 34176, Note_on_c, 1, 43, 110
3, 34364, Note_off_c, 1, 43, 100
3, 34368, Note_on_c, 1, 41, 110
3, 34556, Note_off_c, 1, 41, 100
3, 34560, Note_on_c, 1, 39, 110
3, 34748, Note_off_c, 1, 39, 100
3, 34752, Note_on_c, 1, 38, 110
3, 34940, Note_off_c, 1, 38, 100
3, 34944, Note_on_c, 1, 39, 110
3, 35036, Note_off_c, 1, 39, 100
3, 35040, Note_on_c, 1, 41, 110
3, 35132, Note_off_c, 1, 41, 100
3, 35136, Note_on_c, 1, 39, 110
3, 35228, Note_off_c, 1, 39, 100
3, 35232, Note_on_c, 1, 38, 110
3, 35324, Note_off_c, 1, 38, 100
3, 35328, Note_on_c, 1, 36, 110
3, 35516, Note_off_c, 1, 36, 100
3, 35520, Note_on_c, 1, 44, 110
3, 35708, Note_off_c, 1, 44, 100
3, 35712, Note_on_c, 1, 43, 110
3, 35900, Note_off_c, 1, 43, 100
3, 35904, Note_on_c, 1, 41, 101
3, 36092, Note_off_c, 1, 41, 100
3, 36096, Note_on_c, 1, 39, 91
3, 36284, Note_off_c, 1, 39, 100
3, 36288, Note_on_c, 1, 38, 81
3, 36476, Note_off_c, 1, 38, 100
3, 36480, Note_on_c, 1, 39, 80
3, 36572, Note_off_c, 1, 39, 100
3, 36576, Note_on_c, 1, 41, 80
3, 36668, Note_off_c, 1, 41, 100
3, 36672, Note_on_c, 1, 39, 80
3, 36764, Note_off_c, 1, 39, 100
3, 36768, Note_on_c, 1, 38, 80
3, 36860, Note_off_c, 1, 38, 100
3, 36864, Note_on_c, 1, 36, 80
3, 36956, Note_off_c, 1, 36, 100
3, 36960, Note_on_c, 1, 44, 80
3, 37052, Note_off_c, 1, 44, 100
3, 37056, Note_on_c, 1, 46, 81
3, 37148, Note_off_c, 1, 46, 100
3, 37152, Note_on_c, 1, 44, 82
3, 37244, Note_off_c, 1, 44, 100
3, 37248, Note_on_c, 1, 43, 82
3, 37340, Note_off_c, 1, 43, 100
3, 37344, Note_on_c, 1, 44, 83
3, 37436, Note_off_c, 1, 44, 100
3, 37440, Note_on_c, 1, 43, 84
3, 37532, Note_off_c, 1, 43, 100
3, 37536, Note_on_c, 1, 41, 85
3, 37628, Note_off_c, 1, 41, 100
3, 37632, Note_on_c, 1, 39, 85
3, 37724, Note_off_c, 1, 39, 100
3, 37728, Note_on_c, 1, 41, 86
3, 37820, Note_off_c, 1, 41, 100
3, 37824, Note_on_c, 1, 39, 87
3, 37916, Note_off_c, 1, 39, 100
3, 37920, Note_on_c, 1, 38, 87
3, 38012, Note_off_c, 1, 38, 100
3, 38016, Note_on_c, 1, 39, 88
3, 38108, Note_off_c, 1, 39, 100
3, 38112, Note_on_c, 1, 41, 89
3, 38204, Note_off_c, 1, 41, 100
3, 38208, Note_on_c, 1, 39, 90
3, 38300, Note_off_c, 1, 39, 100
3, 38304, Note_on_c, 1, 38, 90
3, 38396, Note_off_c, 1, 38, 100
3, 38400, Note_on_c, 1, 36, 91
3, 38492, Note_off_c, 1, 36, 100
3, 38496, Note_on_c, 1, 43, 92
3, 38588, Note_off_c, 1, 43, 100
3, 38592, Note_on_c, 1, 41, 92
3, 38684, Note_off_c, 1, 41, 100
3, 38688, Note_on_c, 1, 39, 93
3, 38780, Note_off_c, 1, 39, 100
3, 38784, Note_on_c, 1, 41, 94
3, 38876, Note_off_c, 1, 41, 100
3, 38880, Note_on_c, 1, 43, 95
3, 38972, Note_off_c, 1, 43, 100
3, 38976, Note_on_c, 1, 41, 95
3, 39068, Note_off_c, 1, 41, 100
3, 39072, Note_on_c, 1, 39, 96
3, 39164, Note_off_c, 1, 39, 100
3, 39168, Note_on_c, 1, 38, 97
3, 39260, Note_off_c, 1, 38, 100
3, 39264, Note_on_c, 1, 44, 98
3, 39356, Note_off_c, 1, 44, 100
3, 39360, Note_on_c, 1, 43, 98
3, 39452, Note_off_c, 1, 43, 100
3, 39456, Note_on_c, 1, 41, 99
3, 39548, Note_off_c, 1, 41, 100
3, 39552, Note_on_c, 1, 43, 100
3, 39644, Note_off_c, 1, 43, 100
3, 39648, Note_on_c, 1, 44, 100
3, 39740, Note_off_c, 1, 44, 100
3, 39744, Note_on_c, 1, 43, 101
3, 39836, Note_off_c, 1, 43, 100
3, 39840, Note_on_c, 1, 41, 102
3, 39932, Note_off_c, 1, 41, 100
3, 39936, Note_on_c, 1, 40, 103
3, 40028, Note_off_c, 1, 40, 100
3, 40032, Note_on_c, 1, 46, 103
3, 40124, Note_off_c, 1, 46, 100
3, 40128, Note_on_c, 1, 44, 104
3, 40220, Note_off_c, 1, 44, 100
3, 40224, Note_on_c, 1, 43, 105
3, 40316, Note_off_c, 1, 43, 100
3, 40320, Note_on_c, 1, 44, 105
3, 40412, Note_off_c, 1, 44, 100
3, 40416, Note_on_c, 1, 48, 106
3, 40508, Note_off_c, 1, 48, 100
3, 40512, Note_on_c, 1, 43, 107
3, 40604, Note_off_c, 1, 43, 100
3, 40608, Note_on_c, 1, 48, 108
3, 40700, Note_off_c, 1, 48, 100
3, 40704, Note_on_c, 1, 41, 108
3, 40796, Note_off_c, 1, 41, 100
3, 40800, Note_on_c, 1, 48, 109
3, 40892, Note_off_c, 1, 48, 100
3, 40896, Note_on_c, 1, 42, 110
3, 40988, Note_off_c, 1, 42, 100
3, 40992, Note_on_c, 1, 48, 110
3, 41084, Note_off_c, 1, 48, 100
3, 41088, Note_on_c, 1, 47, 120
3, 41180, Note_off_c, 1, 47, 100
3, 41184, Note_on_c, 1, 45, 110
3, 41276, Note_off_c, 1, 45, 100
3, 41280, Note_on_c, 1, 43, 110
3, 41372, Note_off_c, 1, 43, 100
3, 41376, Note_on_c, 1, 50, 110
3, 41468, Note_off_c, 1, 50, 100
3, 41472, Note_on_c, 1, 48, 120
3, 41564, Note_off_c, 1, 48, 100
3, 41568, Note_on_c, 1, 47, 110
3, 41660, Note_off_c, 1, 47, 100
3, 41664, Note_on_c, 1, 53, 110
3, 41756, Note_off_c, 1, 53, 100
3, 41760, Note_on_c, 1, 51, 110
3, 41852, Note_off_c, 1, 51, 100
3, 41856, Note_on_c, 1, 50, 120
3, 41948, Note_off_c, 1, 50, 100
3, 41952, Note_on_c, 1, 56, 110
3, 42044, Note_off_c, 1, 56, 100
3, 42048, Note_on_c, 1, 55, 110
3, 42140, Note_off_c, 1, 55, 100
3, 42144, Note_on_c, 1, 53, 110
3, 42236, Note_off_c, 1, 53, 100
3, 42240, Note_on_c, 1, 62, 120
3, 42332, Note_off_c, 1, 62, 100
3, 42336, Note_on_c, 1, 60, 110
3, 42428, Note_off_c, 1, 60, 100
3, 42432, Note_on_c, 1, 59, 110
3, 42524, Note_off_c, 1, 59, 100
3, 42528, Note_on_c, 1, 65, 110
3, 42620, Note_off_c, 1, 65, 100
3, 42624, Note_on_c, 1, 63, 120
3, 42716, Note_off_c, 1, 63, 100
3, 42720, Note_on_c, 1, 62, 110
3, 42812, Note_off_c, 1, 62, 100
3, 42816, Note_on_c, 1, 68, 110
3, 42908, Note_off_c, 1, 68, 100
3, 42912, Note_on_c, 1, 67, 110
3, 43004, Note_off_c, 1, 67, 100
3, 43008, Note_on_c, 1, 65, 120
3, 43100, Note_off_c, 1, 65, 100
3, 43104, Note_on_c, 1, 74, 110
3, 43196, Note_off_c, 1, 74, 100
3, 43200, Note_on_c, 1, 72, 110
3, 43292, Note_off_c, 1, 72, 100
3, 43296, Note_on_c, 1, 71, 110
3, 43388, Note_off_c, 1, 71, 100
3, 43392, Note_on_c, 1, 77, 120
3, 43484, Note_off_c, 1, 77, 100
3, 43488, Note_on_c, 1, 75, 109
3, 43580, Note_off_c, 1, 75, 100
3, 43584, Note_on_c, 1, 74, 107
3, 43664, Note_on_c, 1, 80, 105
3, 43676, Note_off_c, 1, 74, 100
3, 43756, Note_off_c, 1, 80, 100
3, 43776, Note_on_c, 1, 79, 103
3, 43868, Note_off_c, 1, 79, 100
3, 43872, Note_on_c, 1, 77, 101
3, 43964, Note_off_c, 1, 77, 100
3, 43968, Note_on_c, 1, 75, 99
3, 44060, Note_off_c, 1, 75, 100
3, 44064, Note_on_c, 1, 74, 97
3, 44156, Note_off_c, 1, 74, 100
3, 44160, Note_on_c, 1, 72, 95
3, 44252, Note_off_c, 1, 72, 100
3, 44256, Note_on_c, 1, 71, 93
3, 44348, Note_off_c, 1, 71, 100
3, 44352, Note_on_c, 1, 68, 91
3, 44444, Note_off_c, 1, 68, 100
3, 44448, Note_on_c, 1, 67, 89
3, 44540, Note_off_c, 1, 67, 100
3, 44544, Note_on_c, 1, 65, 87
3, 44636, Note_off_c, 1, 65, 100
3, 44640, Note_on_c, 1, 63, 85
3, 44732, Note_off_c, 1, 63, 100
3, 44736, Note_on_c, 1, 62, 83
3, 44828, Note_off_c, 1, 62, 100
3, 44832, Note_on_c, 1, 67, 81
3, 44924, Note_off_c, 1, 67, 100
3, 44928, Note_on_c, 1, 60, 80
3, 45308, Note_off_c, 1, 60, 100
3, 45312, Note_on_c, 1, 48, 80
3, 45312, Note_on_c, 1, 36, 80
3, 45692, Note_off_c, 1, 48, 100
3, 45692, Note_off_c, 1, 36, 100
3, 46080, Note_on_c, 1, 43, 80
3, 46080, Note_on_c, 1, 31, 80
3, 46460, Note_off_c, 1, 43, 100
3, 46460, Note_off_c, 1, 31, 100
3, 46656, Note_on_c, 1, 62, 80
3, 46656, Note_on_c, 1, 55, 80
3, 46844, Note_off_c, 1, 62, 100
3, 46844, Note_off_c, 1, 55, 100
3, 46848, Note_on_c, 1, 60, 80
3, 46848, Note_on_c, 1, 55, 80
3, 47036, Note_off_c, 1, 60, 100
3, 47036, Note_off_c, 1, 55, 100
3, 47040, Note_on_c, 1, 59, 80
3, 47040, Note_on_c, 1, 55, 80
3, 47228, Note_off_c, 1, 59, 100
3, 47228, Note_off_c, 1, 55, 100
3, 47616, Note_on_c, 1, 63, 80
3, 47616, Note_on_c, 1, 60, 80
3, 47804, Note_off_c, 1, 63, 100
3, 47804, Note_off_c, 1, 60, 100
3, 47808, Note_on_c, 1, 65, 80
3, 47808, Note_on_c, 1, 55, 80
3, 47996, Note_off_c, 1, 65, 100
3, 47996, Note_off_c, 1, 55, 100
3, 48000, Note_on_c, 1, 63, 80
3, 48000, Note_on_c, 1, 55, 80
3, 48188, Note_off_c, 1, 63, 100
3, 48188, Note_off_c, 1, 55, 100
3, 48192, Note_on_c, 1, 62, 80
3, 48192, Note_on_c, 1, 55, 80
3, 48380, Note_off_c, 1, 62, 100
3, 48380, Note_off_c, 1, 55, 100
3, 48384, Note_on_c, 1, 60, 80
3, 48384, Note_on_c, 1, 55, 80
3, 48572, Note_off_c, 1, 60, 100
3, 48572, Note_off_c, 1, 55, 100
3, 48576, Note_on_c, 1, 59, 80
3, 48576, Note_on_c, 1, 55, 80
3, 48764, Note_off_c, 1, 59, 100
3, 48764, Note_off_c, 1, 55, 100
3, 48960, Note_on_c, 1, 63, 80
3, 48960, Note_on_c, 1, 60, 80
3, 49340, Note_off_c, 1, 63, 100
3, 49340, Note_off_c, 1, 60, 100
3, 49344, Note_on_c, 1, 43, 80
3, 49344, Note_on_c, 1, 31, 80
3, 49724, Note_off_c, 1, 31, 100
3, 49724, Note_off_c, 1, 43, 100
3, 49728, Note_on_c, 1, 31, 84
3, 49728, Note_on_c, 1, 43, 84
3, 49916, Note_off_c, 1, 31, 100
3, 49916, Note_off_c, 1, 43, 100
3, 49920, Note_on_c, 1, 45, 87
3, 49920, Note_on_c, 1, 33, 87
3, 50108, Note_off_c, 1, 45, 100
3, 50108, Note_off_c, 1, 33, 100
3, 50112, Note_on_c, 1, 47, 89
3, 50112, Note_on_c, 1, 35, 89
3, 50300, Note_off_c, 1, 47, 100
3, 50300, Note_off_c, 1, 35, 100
3, 50304, Note_on_c, 1, 48, 92
3, 50304, Note_on_c, 1, 36, 92
3, 50492, Note_off_c, 1, 48, 100
3, 50492, Note_off_c, 1, 36, 100
3, 50496, Note_on_c, 1, 47, 94
3, 50496, Note_on_c, 1, 35, 94
3, 50684, Note_off_c, 1, 47, 100
3, 50684, Note_off_c, 1, 35, 100
3, 50688, Note_on_c, 1, 48, 97
3, 50688, Note_on_c, 1, 36, 97
3, 50876, Note_off_c, 1, 48, 100
3, 50876, Note_off_c, 1, 36, 100
3, 50880, Note_on_c, 1, 50, 99
3, 50880, Note_on_c, 1, 38, 99
3, 51068, Note_off_c, 1, 50, 100
3, 51068, Note_off_c, 1, 38, 100
3, 51072, Note_on_c, 1, 51, 102
3, 51072, Note_on_c, 1, 39, 102
3, 51260, Note_off_c, 1, 51, 100
3, 51260, Note_off_c, 1, 39, 100
3, 51264, Note_on_c, 1, 51, 104
3, 51264, Note_on_c, 1, 39, 104
3, 51452, Note_off_c, 1, 51, 100
3, 51452, Note_off_c, 1, 39, 100
3, 51456, Note_on_c, 1, 53, 107
3, 51456, Note_on_c, 1, 41, 107
3, 51644, Note_off_c, 1, 53, 100
3, 51644, Note_off_c, 1, 41, 100
3, 51648, Note_on_c, 1, 51, 109
3, 51648, Note_on_c, 1, 39, 109
3, 51836, Note_off_c, 1, 51, 100
3, 51836, Note_off_c, 1, 39, 100
3, 51840, Note_on_c, 1, 53, 110
3, 51840, Note_on_c, 1, 41, 110
3, 52028, Note_off_c, 1, 53, 100
3, 52028, Note_off_c, 1, 41, 100
3, 52032, Note_on_c, 1, 65, 110
3, 52032, Note_on_c, 1, 60, 110
3, 52032, Note_on_c, 1, 56, 110
3, 52412, Note_off_c, 1, 65, 100
3, 52412, Note_off_c, 1, 60, 100
3, 52412, Note_off_c, 1, 56, 100
3, 52416, Note_on_c, 1, 65, 110
3, 52416, Note_on_c, 1, 60, 110
3, 52416, Note_on_c, 1, 56, 110
3, 52604, Note_off_c, 1, 65, 100
3, 52604, Note_off_c, 1, 60, 100
3, 52604, Note_off_c, 1, 56, 100
3, 52608, Note_on_c, 1, 60, 110
3, 52608, Note_on_c, 1, 56, 110
3, 52988, Note_off_c, 1, 60, 100
3, 52988, Note_off_c, 1, 56, 100
3, 52992, Note_on_c, 1, 56, 80
3, 52992, Note_on_c, 1, 63, 80
3, 53372, Note_off_c, 1, 56, 100
3, 53376, Note_on_c, 1, 55, 80
3, 53756, Note_off_c, 1, 63, 100
3, 53756, Note_off_c, 1, 55, 100
3, 53760, Note_on_c, 1, 63, 80
3, 53760, Note_on_c, 1, 54, 80
3, 54140, Note_off_c, 1, 63, 64
3, 54140, Note_off_c, 1, 54, 100
3, 54144, Note_on_c, 1, 63, 80
3, 54144, Note_on_c, 1, 55, 80
3, 54524, Note_off_c, 1, 63, 100
3, 54524, Note_off_c, 1, 55, 100
3, 54528, Note_on_c, 1, 65, 80
3, 54528, Note_on_c, 1, 59, 80
3, 54528, Note_on_c, 1, 55, 80
3, 54908, Note_off_c, 1, 65, 100
3, 54908, Note_off_c, 1, 59, 100
3, 55004, Note_off_c, 1, 55, 100
3, 55008, Note_on_c, 1, 53, 110
3, 55100, Note_off_c, 1, 53, 100
3, 55104, Note_on_c, 1, 51, 110
3, 55196, Note_off_c, 1, 51, 100
3, 55200, Note_on_c, 1, 50, 110
3, 55292, Note_off_c, 1, 50, 100
3, 55296, Note_on_c, 1, 48, 110
3, 55388, Note_off_c, 1, 48, 100
3, 55392, Note_on_c, 1, 50, 110
3, 55484, Note_off_c, 1, 50, 100
3, 55488, Note_on_c, 1, 51, 110
3, 55580, Note_off_c, 1, 51, 100
3, 55584, Note_on_c, 1, 48, 110
3, 55676, Note_off_c, 1, 48, 100
3, 55680, Note_on_c, 1, 50, 110
3, 55772, Note_off_c, 1, 50, 100
3, 55776, Note_on_c, 1, 48, 110
3, 55868, Note_off_c, 1, 48, 100
3, 55872, Note_on_c, 1, 47, 110
3, 55964, Note_off_c, 1, 47, 100
3, 55968, Note_on_c, 1, 45, 110
3, 56060, Note_off_c, 1, 45, 100
3, 56064, Note_on_c, 1, 43, 110
3, 56156, Note_off_c, 1, 43, 100
3, 56160, Note_on_c, 1, 47, 110
3, 56252, Note_off_c, 1, 47, 100
3, 56256, Note_on_c, 1, 50, 110
3, 56348, Note_off_c, 1, 50, 100
3, 56352, Note_on_c, 1, 53, 110
3, 56444, Note_off_c, 1, 53, 100
3, 56448, Note_on_c, 1, 51, 110
3, 56636, Note_off_c, 1, 51, 100
3, 56640, Note_on_c, 1, 43, 110
3, 56640, Note_on_c, 1, 31, 110
3, 56828, Note_off_c, 1, 43, 100
3, 56828, Note_off_c, 1, 31, 100
3, 56832, Note_on_c, 1, 48, 110
3, 56832, Note_on_c, 1, 36, 110
3, 57020, Note_off_c, 1, 48, 100
3, 57020, Note_off_c, 1, 36, 100
3, 57024, Note_on_c, 1, 47, 110
3, 57024, Note_on_c, 1, 35, 110
3, 57212, Note_off_c, 1, 47, 100
3, 57212, Note_off_c, 1, 35, 100
3, 57216, Note_on_c, 1, 48, 110
3, 57216, Note_on_c, 1, 36, 110
3, 57404, Note_off_c, 1, 48, 100
3, 57404, Note_off_c, 1, 36, 100
3, 57408, Note_on_c, 1, 53, 110
3, 57408, Note_on_c, 1, 41, 110
3, 57596, Note_off_c, 1, 53, 100
3, 57596, Note_off_c, 1, 41, 100
3, 57600, Note_on_c, 1, 51, 110
3, 57600, Note_on_c, 1, 39, 110
3, 57788, Note_off_c, 1, 51, 100
3, 57788, Note_off_c, 1, 39, 100
3, 57792, Note_on_c, 1, 48, 110
3, 57792, Note_on_c, 1, 36, 110
3, 57980, Note_off_c, 1, 48, 100
3, 57980, Note_off_c, 1, 36, 100
3, 58176, Note_on_c, 1, 48, 110
3, 58176, Note_on_c, 1, 36, 110
3, 58364, Note_off_c, 1, 48, 100
3, 58364, Note_off_c, 1, 36, 100
3, 58368, Note_on_c, 1, 50, 110
3, 58368, Note_on_c, 1, 38, 110
3, 58556, Note_off_c, 1, 50, 100
3, 58556, Note_off_c, 1, 38, 100
3, 58560, Note_on_c, 1, 48, 110
3, 58560, Note_on_c, 1, 36, 110
3, 58748, Note_off_c, 1, 48, 100
3, 58748, Note_off_c, 1, 36, 100
3, 58752, Note_on_c, 1, 50, 110
3, 58752, Note_on_c, 1, 38, 110
3, 58940, Note_off_c, 1, 50, 100
3, 58940, Note_off_c, 1, 38, 100
3, 58944, Note_on_c, 1, 55, 110
3, 58944, Note_on_c, 1, 43, 110
3, 59132, Note_off_c, 1, 55, 100
3, 59132, Note_off_c, 1, 43, 100
3, 59136, Note_on_c, 1, 53, 110
3, 59136, Note_on_c, 1, 41, 110
3, 59324, Note_off_c, 1, 53, 100
3, 59324, Note_off_c, 1, 41, 100
3, 59328, Note_on_c, 1, 51, 110
3, 59328, Note_on_c, 1, 39, 110
3, 59516, Note_off_c, 1, 51, 100
3, 59516, Note_off_c, 1, 39, 100
3, 59520, Note_on_c, 1, 50, 110
3, 59520, Note_on_c, 1, 38, 110
3, 59708, Note_off_c, 1, 50, 100
3, 59708, Note_off_c, 1, 38, 100
3, 59712, Note_on_c, 1, 46, 110
3, 59712, Note_on_c, 1, 34, 110
3, 59900, Note_off_c, 1, 46, 100
3, 59900, Note_off_c, 1, 34, 100
3, 59904, Note_on_c, 1, 48, 110
3, 59904, Note_on_c, 1, 36, 110
3, 60092, Note_off_c, 1, 48, 100
3, 60092, Note_off_c, 1, 36, 100
3, 60096, Note_on_c, 1, 50, 110
3, 60096, Note_on_c, 1, 38, 110
3, 60284, Note_off_c, 1, 50, 100
3, 60284, Note_off_c, 1, 38, 100
3, 60288, Note_on_c, 1, 51, 110
3, 60288, Note_on_c, 1, 39, 110
3, 60668, Note_off_c, 1, 51, 100
3, 60668, Note_off_c, 1, 39, 100
3, 60672, Note_on_c, 1, 55, 110
3, 60672, Note_on_c, 1, 43, 110
3, 61052, Note_off_c, 1, 55, 100
3, 61052, Note_off_c, 1, 43, 100
3, 61056, Note_on_c, 1, 50, 110
3, 61056, Note_on_c, 1, 38, 110
3, 61244, Note_off_c, 1, 50, 100
3, 61244, Note_off_c, 1, 38, 100
3, 61248, Note_on_c, 1, 38, 110
3, 61532, Note_off_c, 1, 38, 100
3, 61536, Note_on_c, 1, 41, 110
3, 61628, Note_off_c, 1, 41, 100
3, 61632, Note_on_c, 1, 44, 110
3, 61724, Note_off_c, 1, 44, 100
3, 61728, Note_on_c, 1, 48, 110
3, 61820, Note_off_c, 1, 48, 100
3, 61824, Note_on_c, 1, 46, 110
3, 61916, Note_off_c, 1, 46, 100
3, 61920, Note_on_c, 1, 48, 110
3, 62012, Note_off_c, 1, 48, 100
3, 62016, Note_on_c, 1, 46, 110
3, 62108, Note_off_c, 1, 46, 100
3, 62112, Note_on_c, 1, 44, 110
3, 62204, Note_off_c, 1, 44, 100
3, 62208, Note_on_c, 1, 43, 110
3, 62300, Note_off_c, 1, 43, 100
3, 62304, Note_on_c, 1, 44, 110
3, 62396, Note_off_c, 1, 44, 100
3, 62400, Note_on_c, 1, 43, 110
3, 62492, Note_off_c, 1, 43, 100
3, 62496, Note_on_c, 1, 41, 110
3, 62588, Note_off_c, 1, 41, 100
3, 62592, Note_on_c, 1, 43, 110
3, 62684, Note_off_c, 1, 43, 100
3, 62688, Note_on_c, 1, 44, 110
3, 62780, Note_off_c, 1, 44, 100
3, 62784, Note_on_c, 1, 43, 110
3, 62876, Note_off_c, 1, 43, 100
3, 62880, Note_on_c, 1, 41, 110
3, 62972, Note_off_c, 1, 41, 100
3, 62976, Note_on_c, 1, 40, 110
3, 63068, Note_off_c, 1, 40, 100
3, 63072, Note_on_c, 1, 43, 110
3, 63164, Note_off_c, 1, 43, 100
3, 63168, Note_on_c, 1, 46, 110
3, 63260, Note_off_c, 1, 46, 100
3, 63264, Note_on_c, 1, 49, 110
3, 63356, Note_off_c, 1, 49, 100
3, 63360, Note_on_c, 1, 48, 110
3, 63452, Note_off_c, 1, 48, 100
3, 63456, Note_on_c, 1, 49, 110
3, 63548, Note_off_c, 1, 49, 100
3, 63552, Note_on_c, 1, 48, 110
3, 63644, Note_off_c, 1, 48, 100
3, 63648, Note_on_c, 1, 46, 110
3, 63740, Note_off_c, 1, 46, 100
3, 63744, Note_on_c, 1, 44, 110
3, 63836, Note_off_c, 1, 44, 100
3, 63840, Note_on_c, 1, 46, 110
3, 63932, Note_off_c, 1, 46, 100
3, 63936, Note_on_c, 1, 44, 110
3, 64028, Note_off_c, 1, 44, 100
3, 64032, Note_on_c, 1, 43, 110
3, 64124, Note_off_c, 1, 43, 100
3, 64128, Note_on_c, 1, 44, 110
3, 64220, Note_off_c, 1, 44, 100
3, 64224, Note_on_c, 1, 46, 110
3, 64316, Note_off_c, 1, 46, 100
3, 64320, Note_on_c, 1, 44, 110
3, 64412, Note_off_c, 1, 44, 100
3, 64416, Note_on_c, 1, 42, 110
3, 64508, Note_off_c, 1, 42, 100
3, 64512, Note_on_c, 1, 41, 110
3, 64604, Note_off_c, 1, 41, 100
3, 64608, Note_on_c, 1, 45, 110
3, 64700, Note_off_c, 1, 45, 100
3, 64704, Note_on_c, 1, 48, 110
3, 64796, Note_off_c, 1, 48, 100
3, 64800, Note_on_c, 1, 51, 110
3, 64892, Note_off_c, 1, 51, 100
3, 64896, Note_on_c, 1, 49, 110
3, 64988, Note_off_c, 1, 49, 100
3, 64992, Note_on_c, 1, 51, 110
3, 65084, Note_off_c, 1, 51, 100
3, 65088, Note_on_c, 1, 50, 110
3, 65180, Note_off_c, 1, 50, 100
3, 65184, Note_on_c, 1, 48, 110
3, 65276, Note_off_c, 1, 48, 100
3, 65280, Note_on_c, 1, 46, 110
3, 65372, Note_off_c, 1, 46, 100
3, 65376, Note_on_c, 1, 48, 110
3, 65468, Note_off_c, 1, 48, 100
3, 65472, Note_on_c, 1, 46, 110
3, 65564, Note_off_c, 1, 46, 100
3, 65568, Note_on_c, 1, 45, 110
3, 65660, Note_off_c, 1, 45, 100
3, 65664, Note_on_c, 1, 46, 110
3, 65756, Note_off_c, 1, 46, 100
3, 65760, Note_on_c, 1, 48, 110
3, 65852, Note_off_c, 1, 48, 100
3, 65856, Note_on_c, 1, 46, 110
3, 65948, Note_off_c, 1, 46, 100
3, 65952, Note_on_c, 1, 44, 110
3, 66044, Note_off_c, 1, 44, 100
3, 66048, Note_on_c, 1, 43, 110
3, 66140, Note_off_c, 1, 43, 100
3, 66144, Note_on_c, 1, 46, 110
3, 66236, Note_off_c, 1, 46, 100
3, 66240, Note_on_c, 1, 50, 110
3, 66332, Note_off_c, 1, 50, 100
3, 66336, Note_on_c, 1, 53, 110
3, 66428, Note_off_c, 1, 53, 100
3, 66432, Note_on_c, 1, 51, 110
3, 66524, Note_off_c, 1, 51, 100
3, 66528, Note_on_c, 1, 53, 110
3, 66620, Note_off_c, 1, 53, 100
3, 66624, Note_on_c, 1, 51, 110
3, 66716, Note_off_c, 1, 51, 100
3, 66720, Note_on_c, 1, 49, 110
3, 66812, Note_off_c, 1, 49, 100
3, 66816, Note_on_c, 1, 48, 110
3, 66908, Note_off_c, 1, 48, 100
3, 66912, Note_on_c, 1, 49, 110
3, 67004, Note_off_c, 1, 49, 100
3, 67008, Note_on_c, 1, 48, 110
3, 67100, Note_off_c, 1, 48, 100
3, 67104, Note_on_c, 1, 46, 110
3, 67196, Note_off_c, 1, 46, 100
3, 67200, Note_on_c, 1, 44, 110
3, 67580, Note_off_c, 1, 44, 100
3, 67584, Note_on_c, 1, 68, 110
3, 67676, Note_off_c, 1, 68, 100
3, 67680, Note_on_c, 1, 72, 110
3, 67772, Note_off_c, 1, 72, 100
3, 67776, Note_on_c, 1, 70, 110
3, 67868, Note_off_c, 1, 70, 100
3, 67872, Note_on_c, 1, 68, 110
3, 67964, Note_off_c, 1, 68, 100
3, 67968, Key_signature, -4, "minor"
3, 67968, Note_on_c, 1, 70, 110
3, 68060, Note_off_c, 1, 70, 100
3, 68064, Note_on_c, 1, 68, 110
3, 68156, Note_off_c, 1, 68, 100
3, 68160, Note_on_c, 1, 67, 110
3, 68252, Note_off_c, 1, 67, 100
3, 68256, Note_on_c, 1, 65, 110
3, 68348, Note_off_c, 1, 65, 100
3, 68352, Note_on_c, 1, 63, 110
3, 68444, Note_off_c, 1, 63, 100
3, 68448, Note_on_c, 1, 67, 110
3, 68540, Note_off_c, 1, 67, 100
3, 68544, Note_on_c, 1, 70, 110
3, 68636, Note_off_c, 1, 70, 100
3, 68640, Note_on_c, 1, 73, 110
3, 68732, Note_off_c, 1, 73, 100
3, 68736, Note_on_c, 1, 72, 110
3, 68924, Note_off_c, 1, 72, 100
3, 68928, Note_on_c, 1, 67, 110
3, 68928, Note_on_c, 1, 55, 110
3, 69116, Note_off_c, 1, 67, 100
3, 69116, Note_off_c, 1, 55, 100
3, 69120, Note_on_c, 1, 68, 110
3, 69120, Note_on_c, 1, 56, 110
3, 69308, Note_off_c, 1, 68, 100
3, 69308, Note_off_c, 1, 56, 100
3, 69312, Note_on_c, 1, 67, 110
3, 69312, Note_on_c, 1, 55, 110
3, 69500, Note_off_c, 1, 67, 100
3, 69500, Note_off_c, 1, 55, 100
3, 69504, Note_on_c, 1, 68, 110
3, 69504, Note_on_c, 1, 56, 110
3, 69692, Note_off_c, 1, 68, 100
3, 69692, Note_off_c, 1, 56, 100
3, 69696, Note_on_c, 1, 73, 110
3, 69696, Note_on_c, 1, 61, 110
3, 69884, Note_off_c, 1, 73, 100
3, 69884, Note_off_c, 1, 61, 100
3, 69888, Note_on_c, 1, 72, 110
3, 69888, Note_on_c, 1, 60, 110
3, 70076, Note_off_c, 1, 72, 100
3, 70076, Note_off_c, 1, 60, 100
3, 70080, Note_on_c, 1, 69, 110
3, 70080, Note_on_c, 1, 57, 110
3, 70268, Note_off_c, 1, 69, 100
3, 70268, Note_off_c, 1, 57, 100
3, 70464, Note_on_c, 1, 57, 110
3, 70464, Note_on_c, 1, 69, 110
3, 70652, Note_off_c, 1, 57, 100
3, 70652, Note_off_c, 1, 69, 100
3, 70656, Note_on_c, 1, 70, 110
3, 70656, Note_on_c, 1, 58, 110
3, 70844, Note_off_c, 1, 70, 100
3, 70844, Note_off_c, 1, 58, 100
3, 70848, Note_on_c, 1, 69, 110
3, 70848, Note_on_c, 1, 57, 110
3, 71036, Note_off_c, 1, 69, 100
3, 71036, Note_off_c, 1, 57, 100
3, 71040, Note_on_c, 1, 70, 110
3, 71040, Note_on_c, 1, 58, 110
3, 71228, Note_off_c, 1, 70, 100
3, 71228, Note_off_c, 1, 58, 100
3, 71232, Note_on_c, 1, 75, 110
3, 71232, Note_on_c, 1, 63, 110
3, 71420, Note_off_c, 1, 75, 100
3, 71420, Note_off_c, 1, 63, 100
3, 71424, Note_on_c, 1, 73, 110
3, 71424, Note_on_c, 1, 61, 110
3, 71612, Note_off_c, 1, 73, 100
3, 71612, Note_off_c, 1, 61, 100
3, 71616, Note_on_c, 1, 70, 110
3, 71616, Note_on_c, 1, 58, 110
3, 71804, Note_off_c, 1, 70, 100
3, 71804, Note_off_c, 1, 58, 100
3, 72000, Note_on_c, 1, 70, 110
3, 72000, Note_on_c, 1, 58, 110
3, 72188, Note_off_c, 1, 70, 100
3, 72188, Note_off_c, 1, 58, 100
3, 72192, Note_on_c, 1, 72, 110
3, 72192, Note_on_c, 1, 60, 110
3, 72380, Note_off_c, 1, 72, 100
3, 72380, Note_off_c, 1, 60, 100
3, 72384, Note_on_c, 1, 70, 110
3, 72384, Note_on_c, 1, 58, 110
3, 72572, Note_off_c, 1, 70, 100
3, 72572, Note_off_c, 1, 58, 100
3, 72576, Note_on_c, 1, 72, 110
3, 72576, Note_on_c, 1, 60, 110
3, 72764, Note_off_c, 1, 72, 100
3, 72764, Note_off_c, 1, 60, 100
3, 72768, Note_on_c, 1, 77, 110
3, 72768, Note_on_c, 1, 65, 110
3, 72956, Note_off_c, 1, 77, 100
3, 72956, Note_off_c, 1, 65, 100
3, 72960, Note_on_c, 1, 75, 110
3, 72960, Note_on_c, 1, 63, 110
3, 73148, Note_off_c, 1, 75, 100
3, 73148, Note_off_c, 1, 63, 100
3, 73152, Note_on_c, 1, 72, 110
3, 73152, Note_on_c, 1, 60, 110
3, 73340, Note_off_c, 1, 72, 100
3, 73340, Note_off_c, 1, 60, 100
3, 73536, Note_on_c, 1, 44, 110
3, 73536, Note_on_c, 1, 32, 110
3, 73724, Note_off_c, 1, 44, 100
3, 73724, Note_off_c, 1, 32, 100
3, 73728, Note_on_c, 1, 46, 110
3, 73728, Note_on_c, 1, 34, 110
3, 73916, Note_off_c, 1, 46, 100
3, 73916, Note_off_c, 1, 34, 100
3, 73920, Note_on_c, 1, 48, 110
3, 73920, Note_on_c, 1, 36, 110
3, 74108, Note_off_c, 1, 48, 100
3, 74108, Note_off_c, 1, 36, 100
3, 74112, Control_c, 1, 64, 127
3, 74112, Note_on_c, 1, 53, 120
3, 74112, Note_on_c, 1, 49, 120
3, 74208, Note_on_c, 1, 56, 120
3, 74300, Note_off_c, 1, 53, 100
3, 74300, Note_off_c, 1, 49, 100
3, 74304, Note_on_c, 1, 53, 120
3, 74304, Note_on_c, 1, 49, 120
3, 74396, Note_off_c, 1, 56, 100
3, 74400, Note_on_c, 1, 56, 120
3, 74492, Note_off_c, 1, 53, 100
3, 74492, Note_off_c, 1, 49, 100
3, 74496, Note_on_c, 1, 53, 120
3, 74496, Note_on_c, 1, 49, 120
3, 74588, Note_off_c, 1, 56, 100
3, 74592, Note_on_c, 1, 56, 120
3, 74684, Note_off_c, 1, 53, 100
3, 74684, Note_off_c, 1, 49, 100
3, 74688, Note_on_c, 1, 53, 120
3, 74688, Note_on_c, 1, 49, 120
3, 74780, Note_off_c, 1, 56, 100
3, 74784, Note_on_c, 1, 56, 120
3, 74876, Note_off_c, 1, 53, 100
3, 74876, Note_off_c, 1, 49, 100
3, 74880, Note_on_c, 1, 53, 120
3, 74880, Note_on_c, 1, 49, 120
3, 74972, Note_off_c, 1, 56, 100
3, 74976, Note_on_c, 1, 56, 120
3, 75068, Note_off_c, 1, 53, 100
3, 75068, Note_off_c, 1, 49, 100
3, 75072, Note_on_c, 1, 53, 120
3, 75072, Note_on_c, 1, 49, 120
3, 75164, Note_off_c, 1, 56, 100
3, 75168, Note_on_c, 1, 56, 120
3, 75260, Note_off_c, 1, 53, 100
3, 75260, Note_off_c, 1, 49, 100
3, 75264, Note_on_c, 1, 53, 120
3, 75264, Note_on_c, 1, 49, 120
3, 75356, Note_off_c, 1, 56, 100
3, 75360, Note_on_c, 1, 56, 120
3, 75452, Note_off_c, 1, 53, 100
3, 75452, Note_off_c, 1, 49, 100
3, 75456, Note_on_c, 1, 53, 120
3, 75456, Note_on_c, 1, 49, 120
3, 75548, Note_off_c, 1, 56, 100
3, 75552, Note_on_c, 1, 56, 120
3, 75640, Control_c, 1, 64, 0
3, 75644, Note_off_c, 1, 53, 100
3, 75644, Note_off_c, 1, 49, 100
3, 75644, Note_off_c, 1, 56, 100
3, 75648, Control_c, 1, 64, 127
3, 75648, Note_on_c, 1, 56, 120
3, 75648, Note_on_c, 1, 53, 120
3, 75648, Note_on_c, 1, 50, 120
3, 75744, Note_on_c, 1, 59, 120
3, 75836, Note_off_c, 1, 56, 100
3, 75836, Note_off_c, 1, 53, 100
3, 75836, Note_off_c, 1, 50, 100
3, 75840, Note_on_c, 1, 56, 120
3, 75840, Note_on_c, 1, 53, 120
3, 75840, Note_on_c, 1, 50, 120
3, 75932, Note_off_c, 1, 59, 100
3, 75936, Note_on_c, 1, 59, 120
3, 76028, Note_off_c, 1, 56, 100
3, 76028, Note_off_c, 1, 53, 100
3, 76028, Note_off_c, 1, 50, 100
3, 76032, Note_on_c, 1, 56, 120
3, 76032, Note_on_c, 1, 53, 120
3, 76032, Note_on_c, 1, 50, 120
3, 76124, Note_off_c, 1, 59, 100
3, 76128, Note_on_c, 1, 59, 120
3, 76220, Note_off_c, 1, 56, 100
3, 76220, Note_off_c, 1, 53, 100
3, 76220, Note_off_c, 1, 50, 100
3, 76224, Note_on_c, 1, 56, 120
3, 76224, Note_on_c, 1, 53, 120
3, 76224, Note_on_c, 1, 50, 120
3, 76316, Note_off_c, 1, 59, 100
3, 76320, Note_on_c, 1, 59, 120
3, 76412, Note_off_c, 1, 56, 100
3, 76412, Note_off_c, 1, 53, 100
3, 76412, Note_off_c, 1, 50, 100
3, 76416, Note_on_c, 1, 56, 120
3, 76416, Note_on_c, 1, 53, 120
3, 76416, Note_on_c, 1, 50, 120
3, 76508, Note_off_c, 1, 59, 100
3, 76512, Note_on_c, 1, 59, 120
3, 76604, Note_off_c, 1, 56, 100
3, 76604, Note_off_c, 1, 53, 100
3, 76604, Note_off_c, 1, 50, 100
3, 76608, Note_on_c, 1, 56, 120
3, 76608, Note_on_c, 1, 53, 120
3, 76608, Note_on_c, 1, 50, 120
3, 76700, Note_off_c, 1, 59, 100
3, 76704, Note_on_c, 1, 59, 120
3, 76796, Note_off_c, 1, 56, 100
3, 76796, Note_off_c, 1, 53, 100
3, 76796, Note_off_c, 1, 50, 100
3, 76800, Note_on_c, 1, 56, 120
3, 76800, Note_on_c, 1, 53, 120
3, 76800, Note_on_c, 1, 50, 120
3, 76892, Note_off_c, 1, 59, 100
3, 76896, Note_on_c, 1, 59, 120
3, 76988, Note_off_c, 1, 56, 100
3, 76988, Note_off_c, 1, 53, 100
3, 76988, Note_off_c, 1, 50, 100
3, 76992, Note_on_c, 1, 56, 120
3, 76992, Note_on_c, 1, 53, 120
3, 76992, Note_on_c, 1, 50, 120
3, 77084, Note_off_c, 1, 59, 100
3, 77088, Note_on_c, 1, 59, 120
3, 77176, Control_c, 1, 64, 0
3, 77180, Note_off_c, 1, 56, 100
3, 77180, Note_off_c, 1, 53, 100
3, 77180, Note_off_c, 1, 50, 100
3, 77180, Note_off_c, 1, 59, 100
3, 77184, Control_c, 1, 64, 127
3, 77184, Note_on_c, 1, 51, 120
3, 77184, Note_on_c, 1, 39, 120
3, 78624, Note_on_c, 1, 60, 80
3, 78624, Note_on_c, 1, 63, 80
3, 78624, Note_on_c, 1, 51, 80
3, 78712, Control_c, 1, 64, 0
3, 78716, Note_off_c, 1, 51, 100
3, 78716, Note_off_c, 1, 39, 100
3, 78716, Note_off_c, 1, 60, 100
3, 78716, Note_off_c, 1, 63, 100
3, 78716, Note_off_c, 1, 51, 100
3, 78720, Note_on_c, 1, 61, 80
3, 78720, Note_on_c, 1, 58, 80
3, 78720, Note_on_c, 1, 51, 80
3, 79292, Note_off_c, 1, 61, 100
3, 79292, Note_off_c, 1, 58, 100
3, 79292, Note_off_c, 1, 51, 100
3, 79392, Note_on_c, 1, 60, 80
3, 79392, Note_on_c, 1, 56, 80
3, 79392, Note_on_c, 1, 51, 80
3, 79484, Note_off_c, 1, 60, 100
3, 79484, Note_off_c, 1, 56, 100
3, 79484, Note_off_c, 1, 51, 100
3, 79488, Note_on_c, 1, 60, 80
3, 79488, Note_on_c, 1, 56, 80
3, 79488, Note_on_c, 1, 51, 80
3, 79868, Note_off_c, 1, 60, 100
3, 79868, Note_off_c, 1, 56, 100
3, 79868, Note_off_c, 1, 51, 100
3, 79872, Note_on_c, 1, 58, 80
3, 79872, Note_on_c, 1, 55, 80
3, 79872, Note_on_c, 1, 51, 80
3, 80060, Note_off_c, 1, 58, 100
3, 80060, Note_off_c, 1, 55, 100
3, 80060, Note_off_c, 1, 51, 100
3, 80160, Note_on_c, 1, 58, 80
3, 80160, Note_on_c, 1, 55, 80
3, 80176, Note_on_c, 1, 51, 80
3, 80252, Note_off_c, 1, 58, 100
3, 80252, Note_off_c, 1, 55, 100
3, 80256, Note_on_c, 1, 58, 80
3, 80256, Note_on_c, 1, 55, 80
3, 80256, Note_on_c, 1, 51, 80
3, 80268, Note_off_c, 1, 51, 100
3, 80636, Note_off_c, 1, 58, 100
3, 80636, Note_off_c, 1, 55, 100
3, 80636, Note_off_c, 1, 51, 100
3, 80640, Note_on_c, 1, 60, 80
3, 80640, Note_on_c, 1, 56, 80
3, 80640, Note_on_c, 1, 51, 80
3, 81020, Note_off_c, 1, 60, 100
3, 81020, Note_off_c, 1, 56, 100
3, 81020, Note_off_c, 1, 51, 100
3, 81792, Note_on_c, 1, 61, 80
3, 81792, Note_on_c, 1, 58, 80
3, 81792, Note_on_c, 1, 51, 80
3, 82364, Note_off_c, 1, 61, 100
3, 82364, Note_off_c, 1, 58, 100
3, 82364, Note_off_c, 1, 51, 100
3, 82464, Note_on_c, 1, 60, 80
3, 82464, Note_on_c, 1, 56, 80
3, 82464, Note_on_c, 1, 51, 80
3, 82556, Note_off_c, 1, 60, 100
3, 82556, Note_off_c, 1, 56, 100
3, 82556, Note_off_c, 1, 51, 100
3, 82560, Note_on_c, 1, 58, 80
3, 82560, Note_on_c, 1, 51, 80
3, 82560, Note_on_c, 1, 55, 80
3, 83132, Note_off_c, 1, 58, 100
3, 83132, Note_off_c, 1, 51, 100
3, 83132, Note_off_c, 1, 55, 100
3, 83232, Note_on_c, 1, 58, 80
3, 83232, Note_on_c, 1, 55, 80
3, 83232, Note_on_c, 1, 52, 80
3, 83324, Note_off_c, 1, 58, 100
3, 83324, Note_off_c, 1, 55, 100
3, 83324, Note_off_c, 1, 52, 100
3, 83328, Note_on_c, 1, 58, 80
3, 83328, Note_on_c, 1, 55, 80
3, 83328, Note_on_c, 1, 52, 80
3, 83708, Note_off_c, 1, 58, 100
3, 83708, Note_off_c, 1, 55, 100
3, 83708, Note_off_c, 1, 52, 100
3, 83712, Note_on_c, 1, 56, 80
3, 83712, Note_on_c, 1, 53, 80
3, 84092, Note_off_c, 1, 56, 100
3, 84092, Note_off_c, 1, 53, 100
3, 84768, Note_on_c, 1, 70, 80
3, 84768, Note_on_c, 1, 67, 80
3, 84768, Note_on_c, 1, 61, 80
3, 84860, Note_off_c, 1, 70, 100
3, 84860, Note_off_c, 1, 67, 100
3, 84860, Note_off_c, 1, 61, 100
3, 84864, Note_on_c, 1, 70, 80
3, 84864, Note_on_c, 1, 67, 80
3, 84864, Note_on_c, 1, 61, 80
3, 85244, Note_off_c, 1, 70, 100
3, 85244, Note_off_c, 1, 67, 100
3, 85244, Note_off_c, 1, 61, 100
3, 85248, Note_on_c, 1, 72, 80
3, 85248, Note_on_c, 1, 68, 80
3, 85248, Note_on_c, 1, 60, 80
3, 85628, Note_off_c, 1, 72, 100
3, 85628, Note_off_c, 1, 68, 100
3, 85628, Note_off_c, 1, 60, 100
3, 86208, Note_on_c, 1, 71, 120
3, 86208, Note_on_c, 1, 68, 120
3, 86208, Note_on_c, 1, 65, 120
3, 86208, Note_on_c, 1, 62, 120
3, 86396, Note_off_c, 1, 71, 100
3, 86396, Note_off_c, 1, 68, 100
3, 86396, Note_off_c, 1, 65, 100
3, 86396, Note_off_c, 1, 62, 100
3, 86400, Note_on_c, 1, 71, 120
3, 86400, Note_on_c, 1, 68, 120
3, 86400, Note_on_c, 1, 65, 120
3, 86400, Note_on_c, 1, 62, 120
3, 86588, Note_off_c, 1, 71, 100
3, 86588, Note_off_c, 1, 68, 100
3, 86588, Note_off_c, 1, 65, 100
3, 86588, Note_off_c, 1, 62, 100
3, 86592, Note_on_c, 1, 77, 120
3, 86684, Note_off_c, 1, 77, 100
3, 86688, Note_on_c, 1, 80, 120
3, 86780, Note_off_c, 1, 80, 100
3, 86784, Note_on_c, 1, 74, 120
3, 86876, Note_off_c, 1, 74, 100
3, 86880, Note_on_c, 1, 77, 120
3, 86972, Note_off_c, 1, 77, 100
3, 86976, Note_on_c, 1, 71, 120
3, 87068, Note_off_c, 1, 71, 100
3, 87072, Note_on_c, 1, 74, 120
3, 87164, Note_off_c, 1, 74, 100
3, 87168, Note_on_c, 1, 68, 120
3, 87260, Note_off_c, 1, 68, 100
3, 87264, Note_on_c, 1, 71, 120
3, 87356, Note_off_c, 1, 71, 100
3, 87360, Note_on_c, 1, 65, 120
3, 87452, Note_off_c, 1, 65, 100
3, 87456, Note_on_c, 1, 68, 120
3, 87548, Note_off_c, 1, 68, 100
3, 87552, Note_on_c, 1, 62, 120
3, 87644, Note_off_c, 1, 62, 100
3, 87648, Note_on_c, 1, 65, 120
3, 87740, Note_off_c, 1, 65, 100
3, 87744, Note_on_c, 1, 59, 120
3, 87836, Note_off_c, 1, 59, 100
3, 87840, Note_on_c, 1, 62, 120
3, 87932, Note_off_c, 1, 62, 100
3, 87936, Note_on_c, 1, 56, 120
3, 88028, Note_off_c, 1, 56, 100
3, 88032, Note_on_c, 1, 59, 120
3, 88124, Note_off_c, 1, 59, 100
3, 88128, Note_on_c, 1, 53, 120
3, 88220, Note_off_c, 1, 53, 100
3, 88224, Note_on_c, 1, 56, 120
3, 88316, Note_off_c, 1, 56, 100
3, 88320, Note_on_c, 1, 50, 80
3, 88412, Note_off_c, 1, 50, 100
3, 88416, Note_on_c, 1, 51, 82
3, 88508, Note_off_c, 1, 51, 100
3, 88512, Note_on_c, 1, 53, 85
3, 88604, Note_off_c, 1, 53, 100
3, 88608, Note_on_c, 1, 55, 88
3, 88700, Note_off_c, 1, 55, 100
3, 88704, Note_on_c, 1, 56, 91
3, 88796, Note_off_c, 1, 56, 100
3, 88800, Note_on_c, 1, 58, 94
3, 88892, Note_off_c, 1, 58, 100
3, 88896, Note_on_c, 1, 60, 96
3, 88988, Note_off_c, 1, 60, 100
3, 88992, Note_on_c, 1, 61, 99
3, 89084, Note_off_c, 1, 61, 100
3, 89088, Note_on_c, 1, 63, 102
3, 89180, Note_off_c, 1, 63, 100
3, 89184, Note_on_c, 1, 64, 105
3, 89276, Note_off_c, 1, 64, 100
3, 89280, Note_on_c, 1, 65, 108
3, 89372, Note_off_c, 1, 65, 100
3, 89376, Note_on_c, 1, 63, 110
3, 89468, Note_off_c, 1, 63, 100
3, 89472, Note_on_c, 1, 44, 120
3, 89472, Note_on_c, 1, 32, 120
3, 89852, Note_off_c, 1, 44, 100
3, 89852, Note_off_c, 1, 32, 100
3, 89856, Note_on_c, 1, 48, 120
3, 89856, Note_on_c, 1, 36, 120
3, 90236, Note_off_c, 1, 48, 100
3, 90236, Note_off_c, 1, 36, 100
3, 90240, Note_on_c, 1, 43, 120
3, 90240, Note_on_c, 1, 31, 120
3, 91004, Note_off_c, 1, 43, 100
3, 91004, Note_off_c, 1, 31, 100
3, 91008, Note_on_c, 1, 42, 120
3, 91008, Note_on_c, 1, 30, 120
3, 91388, Note_off_c, 1, 42, 100
3, 91388, Note_off_c, 1, 30, 100
3, 91392, Note_on_c, 1, 44, 120
3, 91392, Note_on_c, 1, 32, 120
3, 91772, Note_off_c, 1, 44, 100
3, 91772, Note_off_c, 1, 32, 100
3, 91776, Note_on_c, 1, 41, 120
3, 91776, Note_on_c, 1, 29, 120
3, 92540, Note_off_c, 1, 41, 100
3, 92540, Note_off_c, 1, 29, 100
3, 92544, Note_on_c, 1, 40, 120
3, 92544, Note_on_c, 1, 28, 120
3, 92924, Note_off_c, 1, 40, 100
3, 92924, Note_off_c, 1, 28, 100
3, 92928, Note_on_c, 1, 43, 120
3, 92928, Note_on_c, 1, 31, 120
3, 93308, Note_off_c, 1, 43, 100
3, 93308, Note_off_c, 1, 31, 100
3, 93312, Note_on_c, 1, 39, 120
3, 93312, Note_on_c, 1, 27, 120
3, 93692, Note_off_c, 1, 39, 100
3, 93692, Note_off_c, 1, 27, 100
3, 93696, Note_on_c, 1, 44, 120
3, 93696, Note_on_c, 1, 32, 120
3, 93980, Note_off_c, 1, 44, 100
3, 93980, Note_off_c, 1, 32, 100
3, 93984, Note_on_c, 1, 48, 120
3, 93984, Note_on_c, 1, 36, 120
3, 94076, Note_off_c, 1, 48, 100
3, 94076, Note_off_c, 1, 36, 100
3, 94080, Note_on_c, 1, 51, 120
3, 94080, Note_on_c, 1, 39, 120
3, 94460, Note_off_c, 1, 51, 100
3, 94460, Note_off_c, 1, 39, 100
3, 94464, Note_on_c, 1, 39, 120
3, 94464, Note_on_c, 1, 27, 120
3, 94844, Note_off_c, 1, 39, 100
3, 94844, Note_off_c, 1, 27, 100
3, 94944, Note_on_c, 1, 60, 120
3, 95036, Note_off_c, 1, 60, 100
3, 95040, Note_on_c, 1, 58, 120
3, 95132, Note_off_c, 1, 58, 100
3, 95136, Note_on_c, 1, 56, 120
3, 95228, Note_off_c, 1, 56, 100
3, 95232, Note_on_c, 1, 55, 120
3, 95324, Note_off_c, 1, 55, 100
3, 95328, Note_on_c, 1, 56, 120
3, 95420, Note_off_c, 1, 56, 100
3, 95424, Note_on_c, 1, 58, 120
3, 95516, Note_off_c, 1, 58, 100
3, 95520, Note_on_c, 1, 56, 120
3, 95612, Note_off_c, 1, 56, 100
3, 95712, Note_on_c, 1, 67, 120
3, 95804, Note_off_c, 1, 67, 100
3, 95808, Note_on_c, 1, 65, 120
3, 95900, Note_off_c, 1, 65, 100
3, 95904, Note_on_c, 1, 63, 120
3, 95996, Note_off_c, 1, 63, 100
3, 96000, Note_on_c, 1, 62, 120
3, 96092, Note_off_c, 1, 62, 100
3, 96096, Note_on_c, 1, 63, 120
3, 96188, Note_off_c, 1, 63, 100
3, 96192, Note_on_c, 1, 65, 120
3, 96284, Note_off_c, 1, 65, 100
3, 96288, Note_on_c, 1, 63, 120
3, 96380, Note_off_c, 1, 63, 100
3, 96480, Note_on_c, 1, 51, 120
3, 96572, Note_off_c, 1, 51, 100
3, 96576, Note_on_c, 1, 49, 120
3, 96668, Note_off_c, 1, 49, 100
3, 96672, Note_on_c, 1, 48, 120
3, 96764, Note_off_c, 1, 48, 100
3, 96768, Note_on_c, 1, 47, 120
3, 96860, Note_off_c, 1, 47, 100
3, 96864, Note_on_c, 1, 48, 120
3, 96956, Note_off_c, 1, 48, 100
3, 96960, Note_on_c, 1, 49, 120
3, 97052, Note_off_c, 1, 49, 100
3, 97056, Note_on_c, 1, 48, 120
3, 97148, Note_off_c, 1, 48, 100
3, 97248, Note_on_c, 1, 65, 120
3, 97340, Note_off_c, 1, 65, 100
3, 97344, Note_on_c, 1, 63, 120
3, 97436, Note_off_c, 1, 63, 100
3, 97440, Note_on_c, 1, 61, 120
3, 97532, Note_off_c, 1, 61, 100
3, 97536, Note_on_c, 1, 60, 120
3, 97628, Note_off_c, 1, 60, 100
3, 97632, Note_on_c, 1, 61, 120
3, 97724, Note_off_c, 1, 61, 100
3, 97728, Note_on_c, 1, 63, 120
3, 97820, Note_off_c, 1, 63, 100
3, 97824, Note_on_c, 1, 61, 120
3, 97916, Note_off_c, 1, 61, 100
3, 98016, Note_on_c, 1, 37, 120
3, 98108, Note_off_c, 1, 37, 100
3, 98112, Note_on_c, 1, 39, 120
3, 98204, Note_off_c, 1, 39, 100
3, 98208, Note_on_c, 1, 40, 120
3, 98300, Note_off_c, 1, 40, 100
3, 98304, Note_on_c, 1, 39, 120
3, 98396, Note_off_c, 1, 39, 100
3, 98400, Note_on_c, 1, 37, 120
3, 98492, Note_off_c, 1, 37, 100
3, 98496, Note_on_c, 1, 36, 120
3, 98588, Note_off_c, 1, 36, 100
3, 98592, Note_on_c, 1, 37, 120
3, 98684, Note_off_c, 1, 37, 100
3, 98688, Note_on_c, 1, 38, 120
3, 98780, Note_off_c, 1, 38, 100
3, 98784, Note_on_c, 1, 39, 120
3, 98876, Note_off_c, 1, 39, 100
3, 98880, Note_on_c, 1, 41, 120
3, 98972, Note_off_c, 1, 41, 100
3, 98976, Note_on_c, 1, 39, 120
3, 99068, Note_off_c, 1, 39, 100
3, 99072, Note_on_c, 1, 37, 120
3, 99164, Note_off_c, 1, 37, 100
3, 99168, Note_on_c, 1, 36, 120
3, 99260, Note_off_c, 1, 36, 100
3, 99264, Note_on_c, 1, 34, 120
3, 99356, Note_off_c, 1, 34, 100
3, 99360, Note_on_c, 1, 32, 120
3, 99452, Note_off_c, 1, 32, 100
3, 99456, Note_on_c, 1, 31, 120
3, 99548, Note_off_c, 1, 31, 100
3, 99552, Note_on_c, 1, 32, 120
3, 99644, Note_off_c, 1, 32, 100
3, 99648, Note_on_c, 1, 34, 120
3, 99740, Note_off_c, 1, 34, 100
3, 99744, Note_on_c, 1, 36, 120
3, 99836, Note_off_c, 1, 36, 100
3, 99840, Note_on_c, 1, 37, 120
3, 99932, Note_off_c, 1, 37, 100
3, 99936, Note_on_c, 1, 36, 120
3, 100028, Note_off_c, 1, 36, 100
3, 100032, Note_on_c, 1, 37, 120
3, 100124, Note_off_c, 1, 37, 100
3, 100128, Note_on_c, 1, 35, 120
3, 100220, Note_off_c, 1, 35, 100
3, 100224, Note_on_c, 1, 36, 120
3, 100316, Note_off_c, 1, 36, 100
3, 100320, Note_on_c, 1, 37, 120
3, 100412, Note_off_c, 1, 37, 100
3, 100416, Note_on_c, 1, 39, 120
3, 100508, Note_off_c, 1, 39, 100
3, 100512, Note_on_c, 1, 37, 120
3, 100604, Note_off_c, 1, 37, 100
3, 100608, Note_on_c, 1, 36, 120
3, 100700, Note_off_c, 1, 36, 100
3, 100704, Note_on_c, 1, 35, 120
3, 100796, Note_off_c, 1, 35, 100
3, 100800, Note_on_c, 1, 36, 120
3, 100892, Note_off_c, 1, 36, 100
3, 100896, Note_on_c, 1, 32, 120
3, 100988, Note_off_c, 1, 32, 100
3, 100992, Note_on_c, 1, 31, 120
3, 101084, Note_off_c, 1, 31, 100
3, 101088, Note_on_c, 1, 32, 120
3, 101180, Note_off_c, 1, 32, 100
3, 101184, Note_on_c, 1, 34, 120
3, 101276, Note_off_c, 1, 34, 100
3, 101280, Note_on_c, 1, 36, 120
3, 101372, Note_off_c, 1, 36, 100
3, 101376, Note_on_c, 1, 37, 120
3, 101468, Note_off_c, 1, 37, 100
3, 101472, Note_on_c, 1, 36, 120
3, 101564, Note_off_c, 1, 36, 100
3, 101568, Note_on_c, 1, 37, 120
3, 101660, Note_off_c, 1, 37, 100
3, 101664, Note_on_c, 1, 35, 120
3, 101756, Note_off_c, 1, 35, 100
3, 101760, Note_on_c, 1, 36, 120
3, 101852, Note_off_c, 1, 36, 100
3, 101856, Note_on_c, 1, 37, 120
3, 101948, Note_off_c, 1, 37, 100
3, 101952, Note_on_c, 1, 39, 120
3, 102044, Note_off_c, 1, 39, 100
3, 102048, Note_on_c, 1, 37, 120
3, 102140, Note_off_c, 1, 37, 100
3, 102144, Note_on_c, 1, 36, 120
3, 102236, Note_off_c, 1, 36, 100
3, 102240, Note_on_c, 1, 35, 120
3, 102332, Note_off_c, 1, 35, 100
3, 102336, Note_on_c, 1, 36, 120
3, 102428, Note_off_c, 1, 36, 100
3, 102432, Note_on_c, 1, 32, 120
3, 102524, Note_off_c, 1, 32, 100
3, 102528, Note_on_c, 1, 31, 120
3, 102620, Note_off_c, 1, 31, 100
3, 102624, Note_on_c, 1, 32, 120
3, 102716, Note_off_c, 1, 32, 100
3, 102720, Note_on_c, 1, 34, 120
3, 102812, Note_off_c, 1, 34, 100
3, 102816, Note_on_c, 1, 36, 120
3, 102908, Note_off_c, 1, 36, 100
3, 102912, Note_on_c, 1, 37, 120
3, 103004, Note_off_c, 1, 37, 100
3, 103008, Note_on_c, 1, 39, 120
3, 103100, Note_off_c, 1, 39, 100
3, 103104, Note_on_c, 1, 41, 120
3, 103196, Note_off_c, 1, 41, 100
3, 103200, Note_on_c, 1, 43, 120
3, 103292, Note_off_c, 1, 43, 100
3, 103296, Note_on_c, 1, 44, 120
3, 103388, Note_off_c, 1, 44, 100
3, 103392, Note_on_c, 1, 46, 120
3, 103484, Note_off_c, 1, 46, 100
3, 103488, Note_on_c, 1, 48, 120
3, 103580, Note_off_c, 1, 48, 100
3, 103584, Note_on_c, 1, 47, 120
3, 103676, Note_off_c, 1, 47, 100
3, 103680, Note_on_c, 1, 48, 120
3, 103772, Note_off_c, 1, 48, 100
3, 103776, Note_on_c, 1, 49, 120
3, 103868, Note_off_c, 1, 49, 100
3, 103872, Note_on_c, 1, 50, 120
3, 103964, Note_off_c, 1, 50, 100
3, 103968, Note_on_c, 1, 49, 120
3, 104060, Note_off_c, 1, 49, 100
3, 104064, Note_on_c, 1, 50, 120
3, 104156, Note_off_c, 1, 50, 100
3, 104160, Note_on_c, 1, 51, 120
3, 104252, Note_off_c, 1, 51, 100
3, 104256, Note_on_c, 1, 52, 120
3, 104348, Note_off_c, 1, 52, 100
3, 104352, Note_on_c, 1, 51, 120
3, 104444, Note_off_c, 1, 51, 100
3, 104448, Note_on_c, 1, 52, 120
3, 104540, Note_off_c, 1, 52, 100
3, 104544, Note_on_c, 1, 53, 120
3, 104636, Note_off_c, 1, 53, 100
3, 104640, Note_on_c, 1, 54, 120
3, 104732, Note_off_c, 1, 54, 100
3, 104736, Note_on_c, 1, 55, 120
3, 104828, Note_off_c, 1, 55, 100
3, 104832, Note_on_c, 1, 56, 120
3, 104924, Note_off_c, 1, 56, 100
3, 104928, Note_on_c, 1, 58, 120
3, 105020, Note_off_c, 1, 58, 100
3, 105024, Note_on_c, 1, 60, 120
3, 105116, Note_off_c, 1, 60, 100
3, 105120, Note_on_c, 1, 59, 120
3, 105212, Note_off_c, 1, 59, 100
3, 105216, Note_on_c, 1, 60, 120
3, 105308, Note_off_c, 1, 60, 100
3, 105312, Note_on_c, 1, 61, 120
3, 105404, Note_off_c, 1, 61, 100
3, 105408, Note_on_c, 1, 62, 120
3, 105500, Note_off_c, 1, 62, 100
3, 105504, Note_on_c, 1, 61, 120
3, 105596, Note_off_c, 1, 61, 100
3, 105600, Note_on_c, 1, 62, 120
3, 105692, Note_off_c, 1, 62, 100
3, 105696, Note_on_c, 1, 63, 120
3, 105788, Note_off_c, 1, 63, 100
3, 105792, Note_on_c, 1, 64, 120
3, 105884, Note_off_c, 1, 64, 100
3, 105888, Note_on_c, 1, 63, 120
3, 105980, Note_off_c, 1, 63, 100
3, 105984, Note_on_c, 1, 64, 120
3, 106076, Note_off_c, 1, 64, 100
3, 106080, Note_on_c, 1, 65, 120
3, 106172, Note_off_c, 1, 65, 100
3, 106176, Note_on_c, 1, 66, 120
3, 106268, Note_off_c, 1, 66, 100
3, 106272, Note_on_c, 1, 67, 120
3, 106364, Note_off_c, 1, 67, 100
3, 106368, Note_on_c, 1, 68, 120
3, 106748, Note_off_c, 1, 68, 100
3, 106752, Note_on_c, 1, 32, 120
3, 106752, Note_on_c, 1, 44, 120
3, 107132, Note_off_c, 1, 32, 100
3, 107132, Note_off_c, 1, 44, 100
3, 107712, Note_on_c, 1, 31, 120
3, 107772, Note_off_c, 1, 31, 100
3, 107776, Note_on_c, 1, 33, 120
3, 107836, Note_off_c, 1, 33, 100
3, 107840, Note_on_c, 1, 35, 120
3, 107900, Note_off_c, 1, 35, 100
3, 107904, Note_on_c, 1, 36, 120
3, 108284, Note_off_c, 1, 36, 100
3, 109248, Note_on_c, 1, 31, 120
3, 109308, Note_off_c, 1, 31, 100
3, 109312, Note_on_c, 1, 33, 120
3, 109372, Note_off_c, 1, 33, 100
3, 109376, Note_on_c, 1, 35, 120
3, 109436, Note_off_c, 1, 35, 100
3, 109440, Note_on_c, 1, 36, 120
3, 109820, Note_off_c, 1, 36, 100
3, 109824, Note_on_c, 1, 39, 120
3, 110192, Note_on_c, 1, 35, 120
3, 110204, Note_off_c, 1, 39, 100
3, 112108, Note_off_c, 1, 35, 100
3, 112320, Note_on_c, 1, 31, 120
3, 112380, Note_off_c, 1, 31, 100
3, 112384, Note_on_c, 1, 33, 120
3, 112444, Note_off_c, 1, 33, 100
3, 112448, Note_on_c, 1, 35, 120
3, 112508, Note_off_c, 1, 35, 100
3, 112512, Note_on_c, 1, 36, 120
3, 112892, Note_off_c, 1, 36, 100
3, 112896, Note_on_c, 1, 39, 120
3, 113276, Note_off_c, 1, 39, 100
3, 113280, Note_on_c, 1, 35, 120
3, 113852, Note_off_c, 1, 35, 100
3, 113856, Note_on_c, 1, 44, 120
3, 114044, Note_off_c, 1, 44, 100
3, 114048, Note_on_c, 1, 43, 120
3, 114236, Note_off_c, 1, 43, 100
3, 114240, Note_on_c, 1, 41, 120
3, 114428, Note_off_c, 1, 41, 100
3, 114432, Note_on_c, 1, 39, 120
3, 114620, Note_off_c, 1, 39, 100
3, 114624, Note_on_c, 1, 38, 120
3, 114812, Note_off_c, 1, 38, 100
3, 114816, Note_on_c, 1, 39, 120
3, 114908, Note_off_c, 1, 39, 100
3, 114912, Note_on_c, 1, 41, 120
3, 115004, Note_off_c, 1, 41, 100
3, 115008, Note_on_c, 1, 39, 120
3, 115100, Note_off_c, 1, 39, 100
3, 115104, Note_on_c, 1, 38, 120
3, 115196, Note_off_c, 1, 38, 100
3, 115200, Note_on_c, 1, 36, 120
3, 115388, Note_off_c, 1, 36, 100
3, 115392, Note_on_c, 1, 44, 120
3, 115580, Note_off_c, 1, 44, 100
3, 115584, Note_on_c, 1, 43, 110
3, 115772, Note_off_c, 1, 43, 100
3, 115776, Note_on_c, 1, 41, 100
3, 115964, Note_off_c, 1, 41, 100
3, 115968, Note_on_c, 1, 39, 90
3, 116156, Note_off_c, 1, 39, 100
3, 116160, Note_on_c, 1, 38, 80
3, 116348, Note_off_c, 1, 38, 100
3, 116352, Note_on_c, 1, 39, 80
3, 116444, Note_off_c, 1, 39, 100
3, 116448, Note_on_c, 1, 41, 80
3, 116540, Note_off_c, 1, 41, 100
3, 116544, Note_on_c, 1, 39, 80
3, 116636, Note_off_c, 1, 39, 100
3, 116640, Note_on_c, 1, 38, 80
3, 116732, Note_off_c, 1, 38, 100
3, 116736, Note_on_c, 1, 36, 80
3, 116828, Note_off_c, 1, 36, 100
3, 116832, Note_on_c, 1, 44, 80
3, 116924, Note_off_c, 1, 44, 100
3, 116928, Note_on_c, 1, 46, 81
3, 117020, Note_off_c, 1, 46, 100
3, 117024, Note_on_c, 1, 44, 82
3, 117116, Note_off_c, 1, 44, 100
3, 117120, Note_on_c, 1, 43, 82
3, 117212, Note_off_c, 1, 43, 100
3, 117216, Note_on_c, 1, 44, 83
3, 117308, Note_off_c, 1, 44, 100
3, 117312, Note_on_c, 1, 43, 84
3, 117404, Note_off_c, 1, 43, 100
3, 117408, Note_on_c, 1, 41, 85
3, 117500, Note_off_c, 1, 41, 100
3, 117504, Note_on_c, 1, 39, 85
3, 117596, Note_off_c, 1, 39, 100
3, 117600, Note_on_c, 1, 41, 86
3, 117692, Note_off_c, 1, 41, 100
3, 117696, Note_on_c, 1, 39, 87
3, 117788, Note_off_c, 1, 39, 100
3, 117792, Note_on_c, 1, 38, 87
3, 117884, Note_off_c, 1, 38, 100
3, 117888, Note_on_c, 1, 39, 88
3, 117980, Note_off_c, 1, 39, 100
3, 117984, Note_on_c, 1, 41, 89
3, 118076, Note_off_c, 1, 41, 100
3, 118080, Note_on_c, 1, 39, 90
3, 118172, Note_off_c, 1, 39, 100
3, 118176, Note_on_c, 1, 38, 90
3, 118268, Note_off_c, 1, 38, 100
3, 118272, Note_on_c, 1, 36, 91
3, 118364, Note_off_c, 1, 36, 100
3, 118368, Note_on_c, 1, 43, 92
3, 118460, Note_off_c, 1, 43, 100
3, 118464, Note_on_c, 1, 41, 92
3, 118556, Note_off_c, 1, 41, 100
3, 118560, Note_on_c, 1, 39, 93
3, 118652, Note_off_c, 1, 39, 100
3, 118656, Note_on_c, 1, 41, 94
3, 118748, Note_off_c, 1, 41, 100
3, 118752, Note_on_c, 1, 43, 95
3, 118844, Note_off_c, 1, 43, 100
3, 118848, Note_on_c, 1, 41, 95
3, 118940, Note_off_c, 1, 41, 100
3, 118944, Note_on_c, 1, 39, 96
3, 119036, Note_off_c, 1, 39, 100
3, 119040, Note_on_c, 1, 38, 97
3, 119132, Note_off_c, 1, 38, 100
3, 119136, Note_on_c, 1, 44, 98
3, 119228, Note_off_c, 1, 44, 100
3, 119232, Note_on_c, 1, 43, 98
3, 119324, Note_off_c, 1, 43, 100
3, 119328, Note_on_c, 1, 41, 99
3, 119420, Note_off_c, 1, 41, 100
3, 119424, Note_on_c, 1, 43, 100
3, 119516, Note_off_c, 1, 43, 100
3, 119520, Note_on_c, 1, 44, 100
3, 119612, Note_off_c, 1, 44, 100
3, 119616, Note_on_c, 1, 43, 101
3, 119708, Note_off_c, 1, 43, 100
3, 119712, Note_on_c, 1, 41, 102
3, 119804, Note_off_c, 1, 41, 100
3, 119808, Note_on_c, 1, 40, 103
3, 119900, Note_off_c, 1, 40, 100
3, 119904, Note_on_c, 1, 46, 103
3, 119996, Note_off_c, 1, 46, 100
3, 120000, Note_on_c, 1, 44, 104
3, 120092, Note_off_c, 1, 44, 100
3, 120096, Note_on_c, 1, 43, 105
3, 120188, Note_off_c, 1, 43, 100
3, 120192, Note_on_c, 1, 44, 105
3, 120284, Note_off_c, 1, 44, 100
3, 120288, Note_on_c, 1, 48, 106
3, 120380, Note_off_c, 1, 48, 100
3, 120384, Note_on_c, 1, 43, 107
3, 120476, Note_off_c, 1, 43, 100
3, 120480, Note_on_c, 1, 48, 108
3, 120572, Note_off_c, 1, 48, 100
3, 120576, Note_on_c, 1, 41, 108
3, 120668, Note_off_c, 1, 41, 100
3, 120672, Note_on_c, 1, 48, 109
3, 120764, Note_off_c, 1, 48, 100
3, 120768, Note_on_c, 1, 42, 110
3, 120860, Note_off_c, 1, 42, 100
3, 120864, Note_on_c, 1, 48, 110
3, 120956, Note_off_c, 1, 48, 100
3, 120960, Note_on_c, 1, 47, 120
3, 121052, Note_off_c, 1, 47, 100
3, 121056, Note_on_c, 1, 45, 110
3, 121148, Note_off_c, 1, 45, 100
3, 121152, Note_on_c, 1, 43, 110
3, 121244, Note_off_c, 1, 43, 100
3, 121248, Note_on_c, 1, 50, 110
3, 121340, Note_off_c, 1, 50, 100
3, 121344, Note_on_c, 1, 48, 120
3, 121436, Note_off_c, 1, 48, 100
3, 121440, Note_on_c, 1, 47, 110
3, 121532, Note_off_c, 1, 47, 100
3, 121536, Note_on_c, 1, 53, 110
3, 121628, Note_off_c, 1, 53, 100
3, 121632, Note_on_c, 1, 51, 110
3, 121724, Note_off_c, 1, 51, 100
3, 121728, Note_on_c, 1, 50, 120
3, 121820, Note_off_c, 1, 50, 100
3, 121824, Note_on_c, 1, 56, 110
3, 121916, Note_off_c, 1, 56, 100
3, 121920, Note_on_c, 1, 55, 110
3, 122012, Note_off_c, 1, 55, 100
3, 122016, Note_on_c, 1, 53, 110
3, 122108, Note_off_c, 1, 53, 100
3, 122112, Note_on_c, 1, 62, 120
3, 122204, Note_off_c, 1, 62, 100
3, 122208, Note_on_c, 1, 60, 110
3, 122300, Note_off_c, 1, 60, 100
3, 122304, Note_on_c, 1, 59, 110
3, 122396, Note_off_c, 1, 59, 100
3, 122400, Note_on_c, 1, 65, 110
3, 122492, Note_off_c, 1, 65, 100
3, 122496, Note_on_c, 1, 63, 120
3, 122588, Note_off_c, 1, 63, 100
3, 122592, Note_on_c, 1, 62, 110
3, 122684, Note_off_c, 1, 62, 100
3, 122688, Note_on_c, 1, 68, 110
3, 122780, Note_off_c, 1, 68, 100
3, 122784, Note_on_c, 1, 67, 110
3, 122876, Note_off_c, 1, 67, 100
3, 122880, Note_on_c, 1, 65, 120
3, 122972, Note_off_c, 1, 65, 100
3, 122976, Note_on_c, 1, 74, 110
3, 123068, Note_off_c, 1, 74, 100
3, 123072, Note_on_c, 1, 72, 110
3, 123164, Note_off_c, 1, 72, 100
3, 123168, Note_on_c, 1, 71, 110
3, 123260, Note_off_c, 1, 71, 100
3, 123264, Note_on_c, 1, 77, 120
3, 123356, Note_off_c, 1, 77, 100
3, 123360, Note_on_c, 1, 75, 108
3, 123452, Note_off_c, 1, 75, 100
3, 123456, Note_on_c, 1, 74, 106
3, 123536, Note_on_c, 1, 80, 105
3, 123548, Note_off_c, 1, 74, 100
3, 123628, Note_off_c, 1, 80, 100
3, 123648, Note_on_c, 1, 79, 102
3, 123740, Note_off_c, 1, 79, 100
3, 123744, Note_on_c, 1, 77, 100
3, 123836, Note_off_c, 1, 77, 100
3, 123840, Note_on_c, 1, 75, 98
3, 123932, Note_off_c, 1, 75, 100
3, 123936, Note_on_c, 1, 74, 96
3, 124028, Note_off_c, 1, 74, 100
3, 124032, Note_on_c, 1, 72, 94
3, 124124, Note_off_c, 1, 72, 100
3, 124128, Note_on_c, 1, 71, 92
3, 124220, Note_off_c, 1, 71, 100
3, 124224, Note_on_c, 1, 68, 90
3, 124316, Note_off_c, 1, 68, 100
3, 124320, Note_on_c, 1, 67, 88
3, 124412, Note_off_c, 1, 67, 100
3, 124416, Note_on_c, 1, 65, 86
3, 124508, Note_off_c, 1, 65, 100
3, 124512, Note_on_c, 1, 63, 84
3, 124604, Note_off_c, 1, 63, 100
3, 124608, Note_on_c, 1, 62, 82
3, 124700, Note_off_c, 1, 62, 100
3, 124704, Note_on_c, 1, 67, 80
3, 124796, Note_off_c, 1, 67, 100
3, 124800, Note_on_c, 1, 60, 80
3, 125180, Note_off_c, 1, 60, 100
3, 125184, Note_on_c, 1, 48, 80
3, 125184, Note_on_c, 1, 36, 80
3, 125564, Note_off_c, 1, 48, 100
3, 125564, Note_off_c, 1, 36, 100
3, 125952, Note_on_c, 1, 43, 80
3, 125952, Note_on_c, 1, 31, 80
3, 126332, Note_off_c, 1, 43, 100
3, 126332, Note_off_c, 1, 31, 100
3, 126528, Note_on_c, 1, 62, 80
3, 126528, Note_on_c, 1, 55, 80
3, 126716, Note_off_c, 1, 62, 100
3, 126716, Note_off_c, 1, 55, 100
3, 126720, Note_on_c, 1, 60, 80
3, 126720, Note_on_c, 1, 55, 80
3, 126908, Note_off_c, 1, 60, 100
3, 126908, Note_off_c, 1, 55, 100
3, 126912, Note_on_c, 1, 59, 80
3, 126912, Note_on_c, 1, 55, 80
3, 127100, Note_off_c, 1, 59, 100
3, 127100, Note_off_c, 1, 55, 100
3, 127488, Note_on_c, 1, 63, 80
3, 127488, Note_on_c, 1, 60, 80
3, 127676, Note_off_c, 1, 63, 100
3, 127676, Note_off_c, 1, 60, 100
3, 127680, Note_on_c, 1, 65, 80
3, 127680, Note_on_c, 1, 55, 80
3, 127868, Note_off_c, 1, 65, 100
3, 127868, Note_off_c, 1, 55, 100
3, 127872, Note_on_c, 1, 63, 80
3, 127872, Note_on_c, 1, 55, 80
3, 128060, Note_off_c, 1, 63, 100
3, 128060, Note_off_c, 1, 55, 100
3, 128064, Note_on_c, 1, 62, 80
3, 128064, Note_on_c, 1, 55, 80
3, 128252, Note_off_c, 1, 62, 100
3, 128252, Note_off_c, 1, 55, 100
3, 128256, Note_on_c, 1, 60, 80
3, 128256, Note_on_c, 1, 55, 80
3, 128444, Note_off_c, 1, 60, 100
3, 128444, Note_off_c, 1, 55, 100
3, 128448, Note_on_c, 1, 59, 80
3, 128448, Note_on_c, 1, 55, 80
3, 128636, Note_off_c, 1, 59, 100
3, 128636, Note_off_c, 1, 55, 100
3, 128832, Note_on_c, 1, 63, 80
3, 128832, Note_on_c, 1, 60, 80
3, 129212, Note_off_c, 1, 63, 100
3, 129212, Note_off_c, 1, 60, 100
3, 129216, Note_on_c, 1, 43, 80
3, 129216, Note_on_c, 1, 31, 80
3, 129596, Note_off_c, 1, 31, 100
3, 129596, Note_off_c, 1, 43, 100
3, 129600, Note_on_c, 1, 31, 82
3, 129600, Note_on_c, 1, 43, 82
3, 129788, Note_off_c, 1, 31, 100
3, 129788, Note_off_c, 1, 43, 100
3, 129792, Note_on_c, 1, 45, 85
3, 129792, Note_on_c, 1, 33, 85
3, 129980, Note_off_c, 1, 45, 100
3, 129980, Note_off_c, 1, 33, 100
3, 129984, Note_on_c, 1, 47, 87
3, 129984, Note_on_c, 1, 35, 87
3, 130172, Note_off_c, 1, 47, 100
3, 130172, Note_off_c, 1, 35, 100
3, 130176, Note_on_c, 1, 48, 90
3, 130176, Note_on_c, 1, 36, 90
3, 130364, Note_off_c, 1, 48, 100
3, 130364, Note_off_c, 1, 36, 100
3, 130368, Note_on_c, 1, 47, 93
3, 130368, Note_on_c, 1, 35, 93
3, 130556, Note_off_c, 1, 47, 100
3, 130556, Note_off_c, 1, 35, 100
3, 130560, Note_on_c, 1, 48, 95
3, 130560, Note_on_c, 1, 36, 95
3, 130748, Note_off_c, 1, 48, 100
3, 130748, Note_off_c, 1, 36, 100
3, 130752, Note_on_c, 1, 50, 98
3, 130752, Note_on_c, 1, 38, 98
3, 130940, Note_off_c, 1, 50, 100
3, 130940, Note_off_c, 1, 38, 100
3, 130944, Note_on_c, 1, 51, 100
3, 130944, Note_on_c, 1, 39, 100
3, 131132, Note_off_c, 1, 51, 100
3, 131132, Note_off_c, 1, 39, 100
3, 131136, Note_on_c, 1, 51, 103
3, 131136, Note_on_c, 1, 39, 103
3, 131324, Note_off_c, 1, 51, 100
3, 131324, Note_off_c, 1, 39, 100
3, 131328, Note_on_c, 1, 53, 106
3, 131328, Note_on_c, 1, 41, 106
3, 131516, Note_off_c, 1, 53, 100
3, 131516, Note_off_c, 1, 41, 100
3, 131520, Note_on_c, 1, 51, 108
3, 131520, Note_on_c, 1, 39, 108
3, 131708, Note_off_c, 1, 51, 100
3, 131708, Note_off_c, 1, 39, 100
3, 131712, Note_on_c, 1, 53, 110
3, 131712, Note_on_c, 1, 41, 110
3, 131900, Note_off_c, 1, 53, 100
3, 131900, Note_off_c, 1, 41, 100
3, 131904, Note_on_c, 1, 65, 110
3, 131904, Note_on_c, 1, 60, 110
3, 131904, Note_on_c, 1, 56, 110
3, 132284, Note_off_c, 1, 65, 100
3, 132284, Note_off_c, 1, 60, 100
3, 132284, Note_off_c, 1, 56, 100
3, 132288, Note_on_c, 1, 65, 110
3, 132288, Note_on_c, 1, 60, 110
3, 132288, Note_on_c, 1, 56, 110
3, 132476, Note_off_c, 1, 65, 100
3, 132476, Note_off_c, 1, 60, 100
3, 132476, Note_off_c, 1, 56, 100
3, 132480, Note_on_c, 1, 60, 110
3, 132480, Note_on_c, 1, 56, 110
3, 132860, Note_off_c, 1, 60, 100
3, 132860, Note_off_c, 1, 56, 100
3, 132864, Note_on_c, 1, 56, 80
3, 132864, Note_on_c, 1, 63, 80
3, 133244, Note_off_c, 1, 56, 100
3, 133248, Note_on_c, 1, 55, 80
3, 133628, Note_off_c, 1, 63, 100
3, 133628, Note_off_c, 1, 55, 100
3, 133632, Note_on_c, 1, 63, 80
3, 133632, Note_on_c, 1, 54, 80
3, 134012, Note_off_c, 1, 63, 64
3, 134012, Note_off_c, 1, 54, 100
3, 134016, Note_on_c, 1, 63, 80
3, 134016, Note_on_c, 1, 55, 80
3, 134396, Note_off_c, 1, 63, 100
3, 134396, Note_off_c, 1, 55, 100
3, 134400, Note_on_c, 1, 65, 80
3, 134400, Note_on_c, 1, 59, 80
3, 134400, Note_on_c, 1, 55, 80
3, 134780, Note_off_c, 1, 65, 100
3, 134780, Note_off_c, 1, 59, 100
3, 134876, Note_off_c, 1, 55, 100
3, 134880, Note_on_c, 1, 53, 110
3, 134972, Note_off_c, 1, 53, 100
3, 134976, Note_on_c, 1, 51, 110
3, 135068, Note_off_c, 1, 51, 100
3, 135072, Note_on_c, 1, 50, 110
3, 135164, Note_off_c, 1, 50, 100
3, 135168, Note_on_c, 1, 48, 110
3, 135260, Note_off_c, 1, 48, 100
3, 135264, Note_on_c, 1, 50, 110
3, 135356, Note_off_c, 1, 50, 100
3, 135360, Note_on_c, 1, 51, 110
3, 135452, Note_off_c, 1, 51, 100
3, 135456, Note_on_c, 1, 48, 110
3, 135548, Note_off_c, 1, 48, 100
3, 135552, Note_on_c, 1, 50, 110
3, 135644, Note_off_c, 1, 50, 100
3, 135648, Note_on_c, 1, 48, 110
3, 135740, Note_off_c, 1, 48, 100
3, 135744, Note_on_c, 1, 47, 110
3, 135836, Note_off_c, 1, 47, 100
3, 135840, Note_on_c, 1, 45, 110
3, 135932, Note_off_c, 1, 45, 100
3, 135936, Note_on_c, 1, 43, 110
3, 136028, Note_off_c, 1, 43, 100
3, 136032, Note_on_c, 1, 47, 110
3, 136124, Note_off_c, 1, 47, 100
3, 136128, Note_on_c, 1, 50, 110
3, 136220, Note_off_c, 1, 50, 100
3, 136224, Note_on_c, 1, 53, 110
3, 136316, Note_off_c, 1, 53, 100
3, 136320, Note_on_c, 1, 51, 110
3, 136508, Note_off_c, 1, 51, 100
3, 136512, Note_on_c, 1, 43, 110
3, 136512, Note_on_c, 1, 31, 110
3, 136700, Note_off_c, 1, 43, 100
3, 136700, Note_off_c, 1, 31, 100
3, 136704, Note_on_c, 1, 48, 110
3, 136704, Note_on_c, 1, 36, 110
3, 136892, Note_off_c, 1, 48, 100
3, 136892, Note_off_c, 1, 36, 100
3, 136896, Note_on_c, 1, 47, 110
3, 136896, Note_on_c, 1, 35, 110
3, 137084, Note_off_c, 1, 47, 100
3, 137084, Note_off_c, 1, 35, 100
3, 137088, Note_on_c, 1, 48, 110
3, 137088, Note_on_c, 1, 36, 110
3, 137276, Note_off_c, 1, 48, 100
3, 137276, Note_off_c, 1, 36, 100
3, 137280, Note_on_c, 1, 53, 110
3, 137280, Note_on_c, 1, 41, 110
3, 137468, Note_off_c, 1, 53, 100
3, 137468, Note_off_c, 1, 41, 100
3, 137472, Note_on_c, 1, 51, 110
3, 137472, Note_on_c, 1, 39, 110
3, 137660, Note_off_c, 1, 51, 100
3, 137660, Note_off_c, 1, 39, 100
3, 137664, Note_on_c, 1, 48, 110
3, 137664, Note_on_c, 1, 36, 110
3, 137852, Note_off_c, 1, 48, 100
3, 137852, Note_off_c, 1, 36, 100
3, 138048, Note_on_c, 1, 48, 110
3, 138048, Note_on_c, 1, 36, 110
3, 138236, Note_off_c, 1, 48, 100
3, 138236, Note_off_c, 1, 36, 100
3, 138240, Note_on_c, 1, 50, 110
3, 138240, Note_on_c, 1, 38, 110
3, 138428, Note_off_c, 1, 50, 100
3, 138428, Note_off_c, 1, 38, 100
3, 138432, Note_on_c, 1, 48, 110
3, 138432, Note_on_c, 1, 36, 110
3, 138620, Note_off_c, 1, 48, 100
3, 138620, Note_off_c, 1, 36, 100
3, 138624, Note_on_c, 1, 50, 110
3, 138624, Note_on_c, 1, 38, 110
3, 138812, Note_off_c, 1, 50, 100
3, 138812, Note_off_c, 1, 38, 100
3, 138816, Note_on_c, 1, 55, 110
3, 138816, Note_on_c, 1, 43, 110
3, 139004, Note_off_c, 1, 55, 100
3, 139004, Note_off_c, 1, 43, 100
3, 139008, Note_on_c, 1, 53, 110
3, 139008, Note_on_c, 1, 41, 110
3, 139196, Note_off_c, 1, 53, 100
3, 139196, Note_off_c, 1, 41, 100
3, 139200, Note_on_c, 1, 51, 110
3, 139200, Note_on_c, 1, 39, 110
3, 139388, Note_off_c, 1, 51, 100
3, 139388, Note_off_c, 1, 39, 100
3, 139392, Note_on_c, 1, 50, 110
3, 139392, Note_on_c, 1, 38, 110
3, 139580, Note_off_c, 1, 50, 100
3, 139580, Note_off_c, 1, 38, 100
3, 139584, Note_on_c, 1, 46, 110
3, 139584, Note_on_c, 1, 34, 110
3, 139772, Note_off_c, 1, 46, 100
3, 139772, Note_off_c, 1, 34, 100
3, 139776, Note_on_c, 1, 48, 110
3, 139776, Note_on_c, 1, 36, 110
3, 139964, Note_off_c, 1, 48, 100
3, 139964, Note_off_c, 1, 36, 100
3, 139968, Note_on_c, 1, 50, 110
3, 139968, Note_on_c, 1, 38, 110
3, 140156, Note_off_c, 1, 50, 100
3, 140156, Note_off_c, 1, 38, 100
3, 140160, Note_on_c, 1, 51, 110
3, 140160, Note_on_c, 1, 39, 110
3, 140540, Note_off_c, 1, 51, 100
3, 140540, Note_off_c, 1, 39, 100
3, 140544, Note_on_c, 1, 55, 110
3, 140544, Note_on_c, 1, 43, 110
3, 140924, Note_off_c, 1, 55, 100
3, 140924, Note_off_c, 1, 43, 100
3, 140928, Note_on_c, 1, 50, 110
3, 140928, Note_on_c, 1, 38, 110
3, 141116, Note_off_c, 1, 50, 100
3, 141116, Note_off_c, 1, 38, 100
3, 141120, Note_on_c, 1, 38, 110
3, 141404, Note_off_c, 1, 38, 100
3, 141408, Note_on_c, 1, 41, 110
3, 141500, Note_off_c, 1, 41, 100
3, 141504, Note_on_c, 1, 44, 110
3, 141596, Note_off_c, 1, 44, 100
3, 141600, Note_on_c, 1, 48, 110
3, 141692, Note_off_c, 1, 48, 100
3, 141696, Note_on_c, 1, 46, 110
3, 141788, Note_off_c, 1, 46, 100
3, 141792, Note_on_c, 1, 48, 110
3, 141884, Note_off_c, 1, 48, 100
3, 141888, Note_on_c, 1, 46, 110
3, 141980, Note_off_c, 1, 46, 100
3, 141984, Note_on_c, 1, 44, 110
3, 142076, Note_off_c, 1, 44, 100
3, 142080, Note_on_c, 1, 43, 110
3, 142172, Note_off_c, 1, 43, 100
3, 142176, Note_on_c, 1, 44, 110
3, 142268, Note_off_c, 1, 44, 100
3, 142272, Note_on_c, 1, 43, 110
3, 142364, Note_off_c, 1, 43, 100
3, 142368, Note_on_c, 1, 41, 110
3, 142460, Note_off_c, 1, 41, 100
3, 142464, Note_on_c, 1, 43, 110
3, 142556, Note_off_c, 1, 43, 100
3, 142560, Note_on_c, 1, 44, 110
3, 142652, Note_off_c, 1, 44, 100
3, 142656, Note_on_c, 1, 43, 110
3, 142748, Note_off_c, 1, 43, 100
3, 142752, Note_on_c, 1, 41, 110
3, 142844, Note_off_c, 1, 41, 100
3, 142848, Note_on_c, 1, 40, 110
3, 142940, Note_off_c, 1, 40, 100
3, 142944, Note_on_c, 1, 43, 110
3, 143036, Note_off_c, 1, 43, 100
3, 143040, Note_on_c, 1, 46, 110
3, 143132, Note_off_c, 1, 46, 100
3, 143136, Note_on_c, 1, 49, 110
3, 143228, Note_off_c, 1, 49, 100
3, 143232, Note_on_c, 1, 48, 110
3, 143324, Note_off_c, 1, 48, 100
3, 143328, Note_on_c, 1, 49, 110
3, 143420, Note_off_c, 1, 49, 100
3, 143424, Note_on_c, 1, 48, 110
3, 143516, Note_off_c, 1, 48, 100
3, 143520, Note_on_c, 1, 46, 110
3, 143612, Note_off_c, 1, 46, 100
3, 143616, Note_on_c, 1, 44, 110
3, 143708, Note_off_c, 1, 44, 100
3, 143712, Note_on_c, 1, 46, 110
3, 143804, Note_off_c, 1, 46, 100
3, 143808, Note_on_c, 1, 44, 110
3, 143900, Note_off_c, 1, 44, 100
3, 143904, Note_on_c, 1, 43, 110
3, 143996, Note_off_c, 1, 43, 100
3, 144000, Note_on_c, 1, 44, 110
3, 144092, Note_off_c, 1, 44, 100
3, 144096, Note_on_c, 1, 46, 110
3, 144188, Note_off_c, 1, 46, 100
3, 144192, Note_on_c, 1, 44, 110
3, 144284, Note_off_c, 1, 44, 100
3, 144288, Note_on_c, 1, 42, 110
3, 144380, Note_off_c, 1, 42, 100
3, 144384, Note_on_c, 1, 41, 110
3, 144476, Note_off_c, 1, 41, 100
3, 144480, Note_on_c, 1, 45, 110
3, 144572, Note_off_c, 1, 45, 100
3, 144576, Note_on_c, 1, 48, 110
3, 144668, Note_off_c, 1, 48, 100
3, 144672, Note_on_c, 1, 51, 110
3, 144764, Note_off_c, 1, 51, 100
3, 144768, Note_on_c, 1, 49, 110
3, 144860, Note_off_c, 1, 49, 100
3, 144864, Note_on_c, 1, 51, 110
3, 144956, Note_off_c, 1, 51, 100
3, 144960, Note_on_c, 1, 50, 110
3, 145052, Note_off_c, 1, 50, 100
3, 145056, Note_on_c, 1, 48, 110
3, 145148, Note_off_c, 1, 48, 100
3, 145152, Note_on_c, 1, 46, 110
3, 145244, Note_off_c, 1, 46, 100
3, 145248, Note_on_c, 1, 48, 110
3, 145340, Note_off_c, 1, 48, 100
3, 145344, Note_on_c, 1, 46, 110
3, 145436, Note_off_c, 1, 46, 100
3, 145440, Note_on_c, 1, 45, 110
3, 145532, Note_off_c, 1, 45, 100
3, 145536, Note_on_c, 1, 46, 110
3, 145628, Note_off_c, 1, 46, 100
3, 145632, Note_on_c, 1, 48, 110
3, 145724, Note_off_c, 1, 48, 100
3, 145728, Note_on_c, 1, 46, 110
3, 145820, Note_off_c, 1, 46, 100
3, 145824, Note_on_c, 1, 44, 110
3, 145916, Note_off_c, 1, 44, 100
3, 145920, Note_on_c, 1, 43, 110
3, 146012, Note_off_c, 1, 43, 100
3, 146016, Note_on_c, 1, 46, 110
3, 146108, Note_off_c, 1, 46, 100
3, 146112, Note_on_c, 1, 50, 110
3, 146204, Note_off_c, 1, 50, 100
3, 146208, Note_on_c, 1, 53, 110
3, 146300, Note_off_c, 1, 53, 100
3, 146304, Note_on_c, 1, 51, 110
3, 146396, Note_off_c, 1, 51, 100
3, 146400, Note_on_c, 1, 53, 110
3, 146492, Note_off_c, 1, 53, 100
3, 146496, Note_on_c, 1, 51, 110
3, 146588, Note_off_c, 1, 51, 100
3, 146592, Note_on_c, 1, 49, 110
3, 146684, Note_off_c, 1, 49, 100
3, 146688, Note_on_c, 1, 48, 110
3, 146780, Note_off_c, 1, 48, 100
3, 146784, Note_on_c, 1, 49, 110
3, 146876, Note_off_c, 1, 49, 100
3, 146880, Note_on_c, 1, 48, 110
3, 146972, Note_off_c, 1, 48, 100
3, 146976, Note_on_c, 1, 46, 110
3, 147068, Note_off_c, 1, 46, 100
3, 147072, Note_on_c, 1, 44, 110
3, 147452, Note_off_c, 1, 44, 100
3, 147456, Note_on_c, 1, 68, 110
3, 147548, Note_off_c, 1, 68, 100
3, 147552, Note_on_c, 1, 72, 110
3, 147644, Note_off_c, 1, 72, 100
3, 147648, Note_on_c, 1, 70, 110
3, 147740, Note_off_c, 1, 70, 100
3, 147744, Note_on_c, 1, 68, 110
3, 147836, Note_off_c, 1, 68, 100
3, 147840, Note_on_c, 1, 70, 110
3, 147932, Note_off_c, 1, 70, 100
3, 147936, Note_on_c, 1, 68, 110
3, 148028, Note_off_c, 1, 68, 100
3, 148032, Note_on_c, 1, 67, 110
3, 148124, Note_off_c, 1, 67, 100
3, 148128, Note_on_c, 1, 65, 110
3, 148220, Note_off_c, 1, 65, 100
3, 148224, Note_on_c, 1, 63, 110
3, 148316, Note_off_c, 1, 63, 100
3, 148320, Note_on_c, 1, 67, 110
3, 148412, Note_off_c, 1, 67, 100
3, 148416, Note_on_c, 1, 70, 110
3, 148508, Note_off_c, 1, 70, 100
3, 148512, Note_on_c, 1, 73, 110
3, 148604, Note_off_c, 1, 73, 100
3, 148608, Note_on_c, 1, 72, 110
3, 148796, Note_off_c, 1, 72, 100
3, 148800, Note_on_c, 1, 67, 110
3, 148800, Note_on_c, 1, 55, 110
3, 148988, Note_off_c, 1, 67, 100
3, 148988, Note_off_c, 1, 55, 100
3, 148992, Note_on_c, 1, 68, 110
3, 148992, Note_on_c, 1, 56, 110
3, 149180, Note_off_c, 1, 68, 100
3, 149180, Note_off_c, 1, 56, 100
3, 149184, Note_on_c, 1, 67, 110
3, 149184, Note_on_c, 1, 55, 110
3, 149372, Note_off_c, 1, 67, 100
3, 149372, Note_off_c, 1, 55, 100
3, 149376, Note_on_c, 1, 68, 110
3, 149376, Note_on_c, 1, 56, 110
3, 149564, Note_off_c, 1, 68, 100
3, 149564, Note_off_c, 1, 56, 100
3, 149568, Note_on_c, 1, 73, 110
3, 149568, Note_on_c, 1, 61, 110
3, 149756, Note_off_c, 1, 73, 100
3, 149756, Note_off_c, 1, 61, 100
3, 149760, Note_on_c, 1, 72, 110
3, 149760, Note_on_c, 1, 60, 110
3, 149948, Note_off_c, 1, 72, 100
3, 149948, Note_off_c, 1, 60, 100
3, 149952, Note_on_c, 1, 69, 110
3, 149952, Note_on_c, 1, 57, 110
3, 150140, Note_off_c, 1, 69, 100
3, 150140, Note_off_c, 1, 57, 100
3, 150336, Note_on_c, 1, 69, 110
3, 150352, Note_on_c, 1, 57, 110
3, 150524, Note_off_c, 1, 69, 100
3, 150528, Note_on_c, 1, 70, 110
3, 150528, Note_on_c, 1, 58, 110
3, 150540, Note_off_c, 1, 57, 100
3, 150716, Note_off_c, 1, 70, 100
3, 150716, Note_off_c, 1, 58, 100
3, 150720, Note_on_c, 1, 69, 110
3, 150720, Note_on_c, 1, 57, 110
3, 150908, Note_off_c, 1, 69, 100
3, 150908, Note_off_c, 1, 57, 100
3, 150912, Note_on_c, 1, 70, 110
3, 150912, Note_on_c, 1, 58, 110
3, 151100, Note_off_c, 1, 70, 100
3, 151100, Note_off_c, 1, 58, 100
3, 151104, Note_on_c, 1, 75, 110
3, 151104, Note_on_c, 1, 63, 110
3, 151292, Note_off_c, 1, 75, 100
3, 151292, Note_off_c, 1, 63, 100
3, 151296, Note_on_c, 1, 73, 110
3, 151296, Note_on_c, 1, 61, 110
3, 151484, Note_off_c, 1, 73, 100
3, 151484, Note_off_c, 1, 61, 100
3, 151488, Note_on_c, 1, 70, 110
3, 151488, Note_on_c, 1, 58, 110
3, 151676, Note_off_c, 1, 70, 100
3, 151676, Note_off_c, 1, 58, 100
3, 151872, Note_on_c, 1, 70, 110
3, 151872, Note_on_c, 1, 58, 110
3, 152060, Note_off_c, 1, 70, 100
3, 152060, Note_off_c, 1, 58, 100
3, 152064, Note_on_c, 1, 72, 110
3, 152064, Note_on_c, 1, 60, 110
3, 152252, Note_off_c, 1, 72, 100
3, 152252, Note_off_c, 1, 60, 100
3, 152256, Note_on_c, 1, 70, 110
3, 152256, Note_on_c, 1, 58, 110
3, 152444, Note_off_c, 1, 70, 100
3, 152444, Note_off_c, 1, 58, 100
3, 152448, Note_on_c, 1, 72, 110
3, 152448, Note_on_c, 1, 60, 110
3, 152636, Note_off_c, 1, 72, 100
3, 152636, Note_off_c, 1, 60, 100
3, 152640, Note_on_c, 1, 77, 110
3, 152640, Note_on_c, 1, 65, 110
3, 152828, Note_off_c, 1, 77, 100
3, 152828, Note_off_c, 1, 65, 100
3, 152832, Note_on_c, 1, 75, 110
3, 152832, Note_on_c, 1, 63, 110
3, 153020, Note_off_c, 1, 75, 100
3, 153020, Note_off_c, 1, 63, 100
3, 153024, Note_on_c, 1, 72, 110
3, 153024, Note_on_c, 1, 60, 110
3, 153212, Note_off_c, 1, 72, 100
3, 153212, Note_off_c, 1, 60, 100
3, 153408, Note_on_c, 1, 44, 110
3, 153408, Note_on_c, 1, 32, 110
3, 153596, Note_off_c, 1, 44, 100
3, 153596, Note_off_c, 1, 32, 100
3, 153600, Note_on_c, 1, 46, 110
3, 153600, Note_on_c, 1, 34, 110
3, 153788, Note_off_c, 1, 46, 100
3, 153788, Note_off_c, 1, 34, 100
3, 153792, Note_on_c, 1, 48, 110
3, 153792, Note_on_c, 1, 36, 110
3, 153980, Note_off_c, 1, 48, 100
3, 153980, Note_off_c, 1, 36, 100
3, 153984, Control_c, 1, 64, 127
3, 153984, Note_on_c, 1, 53, 120
3, 153984, Note_on_c, 1, 49, 120
3, 154080, Note_on_c, 1, 56, 120
3, 154172, Note_off_c, 1, 53, 100
3, 154172, Note_off_c, 1, 49, 100
3, 154176, Note_on_c, 1, 53, 120
3, 154176, Note_on_c, 1, 49, 120
3, 154268, Note_off_c, 1, 56, 100
3, 154272, Note_on_c, 1, 56, 120
3, 154364, Note_off_c, 1, 53, 100
3, 154364, Note_off_c, 1, 49, 100
3, 154368, Note_on_c, 1, 53, 120
3, 154368, Note_on_c, 1, 49, 120
3, 154460, Note_off_c, 1, 56, 100
3, 154464, Note_on_c, 1, 56, 120
3, 154556, Note_off_c, 1, 53, 100
3, 154556, Note_off_c, 1, 49, 100
3, 154560, Note_on_c, 1, 53, 120
3, 154560, Note_on_c, 1, 49, 120
3, 154652, Note_off_c, 1, 56, 100
3, 154656, Note_on_c, 1, 56, 120
3, 154748, Note_off_c, 1, 53, 100
3, 154748, Note_off_c, 1, 49, 100
3, 154752, Note_on_c, 1, 53, 120
3, 154752, Note_on_c, 1, 49, 120
3, 154844, Note_off_c, 1, 56, 100
3, 154848, Note_on_c, 1, 56, 120
3, 154940, Note_off_c, 1, 53, 100
3, 154940, Note_off_c, 1, 49, 100
3, 154944, Note_on_c, 1, 53, 120
3, 154944, Note_on_c, 1, 49, 120
3, 155036, Note_off_c, 1, 56, 100
3, 155040, Note_on_c, 1, 56, 120
3, 155132, Note_off_c, 1, 53, 100
3, 155132, Note_off_c, 1, 49, 100
3, 155136, Note_on_c, 1, 53, 120
3, 155136, Note_on_c, 1, 49, 120
3, 155228, Note_off_c, 1, 56, 100
3, 155232, Note_on_c, 1, 56, 120
3, 155324, Note_off_c, 1, 53, 100
3, 155324, Note_off_c, 1, 49, 100
3, 155328, Note_on_c, 1, 53, 120
3, 155328, Note_on_c, 1, 49, 120
3, 155420, Note_off_c, 1, 56, 100
3, 155424, Note_on_c, 1, 56, 120
3, 155512, Control_c, 1, 64, 0
3, 155516, Note_off_c, 1, 53, 100
3, 155516, Note_off_c, 1, 49, 100
3, 155516, Note_off_c, 1, 56, 100
3, 155520, Control_c, 1, 64, 127
3, 155520, Note_on_c, 1, 56, 120
3, 155520, Note_on_c, 1, 53, 120
3, 155520, Note_on_c, 1, 50, 120
3, 155616, Note_on_c, 1, 59, 120
3, 155708, Note_off_c, 1, 56, 100
3, 155708, Note_off_c, 1, 53, 100
3, 155708, Note_off_c, 1, 50, 100
3, 155712, Note_on_c, 1, 56, 120
3, 155712, Note_on_c, 1, 53, 120
3, 155712, Note_on_c, 1, 50, 120
3, 155804, Note_off_c, 1, 59, 100
3, 155808, Note_on_c, 1, 59, 120
3, 155900, Note_off_c, 1, 56, 100
3, 155900, Note_off_c, 1, 53, 100
3, 155900, Note_off_c, 1, 50, 100
3, 155904, Note_on_c, 1, 56, 120
3, 155904, Note_on_c, 1, 53, 120
3, 155904, Note_on_c, 1, 50, 120
3, 155996, Note_off_c, 1, 59, 100
3, 156000, Note_on_c, 1, 59, 120
3, 156092, Note_off_c, 1, 56, 100
3, 156092, Note_off_c, 1, 53, 100
3, 156092, Note_off_c, 1, 50, 100
3, 156096, Note_on_c, 1, 56, 120
3, 156096, Note_on_c, 1, 53, 120
3, 156096, Note_on_c, 1, 50, 120
3, 156188, Note_off_c, 1, 59, 100
3, 156192, Note_on_c, 1, 59, 120
3, 156284, Note_off_c, 1, 56, 100
3, 156284, Note_off_c, 1, 53, 100
3, 156284, Note_off_c, 1, 50, 100
3, 156288, Note_on_c, 1, 56, 120
3, 156288, Note_on_c, 1, 53, 120
3, 156288, Note_on_c, 1, 50, 120
3, 156380, Note_off_c, 1, 59, 100
3, 156384, Note_on_c, 1, 59, 120
3, 156476, Note_off_c, 1, 56, 100
3, 156476, Note_off_c, 1, 53, 100
3, 156476, Note_off_c, 1, 50, 100
3, 156480, Note_on_c, 1, 56, 120
3, 156480, Note_on_c, 1, 53, 120
3, 156480, Note_on_c, 1, 50, 120
3, 156572, Note_off_c, 1, 59, 100
3, 156576, Note_on_c, 1, 59, 120
3, 156668, Note_off_c, 1, 56, 100
3, 156668, Note_off_c, 1, 53, 100
3, 156668, Note_off_c, 1, 50, 100
3, 156672, Note_on_c, 1, 56, 120
3, 156672, Note_on_c, 1, 53, 120
3, 156672, Note_on_c, 1, 50, 120
3, 156764, Note_off_c, 1, 59, 100
3, 156768, Note_on_c, 1, 59, 120
3, 156860, Note_off_c, 1, 56, 100
3, 156860, Note_off_c, 1, 53, 100
3, 156860, Note_off_c, 1, 50, 100
3, 156864, Note_on_c, 1, 56, 120
3, 156864, Note_on_c, 1, 53, 120
3, 156864, Note_on_c, 1, 50, 120
3, 156956, Note_off_c, 1, 59, 100
3, 156960, Note_on_c, 1, 59, 120
3, 157048, Control_c, 1, 64, 0
3, 157052, Note_off_c, 1, 56, 100
3, 157052, Note_off_c, 1, 53, 100
3, 157052, Note_off_c, 1, 50, 100
3, 157052, Note_off_c, 1, 59, 100
3, 157056, Control_c, 1, 64, 127
3, 157056, Note_on_c, 1, 51, 120
3, 157056, Note_on_c, 1, 39, 120
3, 158496, Note_on_c, 1, 60, 80
3, 158496, Note_on_c, 1, 63, 80
3, 158496, Note_on_c, 1, 51, 80
3, 158584, Control_c, 1, 64, 0
3, 158588, Note_off_c, 1, 51, 100
3, 158588, Note_off_c, 1, 39, 100
3, 158588, Note_off_c, 1, 60, 100
3, 158588, Note_off_c, 1, 63, 100
3, 158588, Note_off_c, 1, 51, 100
3, 158592, Note_on_c, 1, 61, 80
3, 158592, Note_on_c, 1, 58, 80
3, 158592, Note_on_c, 1, 51, 80
3, 159164, Note_off_c, 1, 61, 100
3, 159164, Note_off_c, 1, 58, 100
3, 159164, Note_off_c, 1, 51, 100
3, 159264, Note_on_c, 1, 60, 80
3, 159264, Note_on_c, 1, 56, 80
3, 159264, Note_on_c, 1, 51, 80
3, 159356, Note_off_c, 1, 60, 100
3, 159356, Note_off_c, 1, 56, 100
3, 159356, Note_off_c, 1, 51, 100
3, 159360, Note_on_c, 1, 60, 80
3, 159360, Note_on_c, 1, 56, 80
3, 159360, Note_on_c, 1, 51, 80
3, 159740, Note_off_c, 1, 60, 100
3, 159740, Note_off_c, 1, 56, 100
3, 159740, Note_off_c, 1, 51, 100
3, 159744, Note_on_c, 1, 58, 80
3, 159744, Note_on_c, 1, 55, 80
3, 159744, Note_on_c, 1, 51, 80
3, 159932, Note_off_c, 1, 58, 100
3, 159932, Note_off_c, 1, 55, 100
3, 159932, Note_off_c, 1, 51, 100
3, 160032, Note_on_c, 1, 58, 80
3, 160032, Note_on_c, 1, 55, 80
3, 160048, Note_on_c, 1, 51, 80
3, 160124, Note_off_c, 1, 58, 100
3, 160124, Note_off_c, 1, 55, 100
3, 160128, Note_on_c, 1, 58, 80
3, 160128, Note_on_c, 1, 55, 80
3, 160128, Note_on_c, 1, 51, 80
3, 160140, Note_off_c, 1, 51, 100
3, 160508, Note_off_c, 1, 58, 100
3, 160508, Note_off_c, 1, 55, 100
3, 160508, Note_off_c, 1, 51, 100
3, 160512, Note_on_c, 1, 60, 80
3, 160512, Note_on_c, 1, 56, 80
3, 160512, Note_on_c, 1, 51, 80
3, 160892, Note_off_c, 1, 60, 100
3, 160892, Note_off_c, 1, 56, 100
3, 160892, Note_off_c, 1, 51, 100
3, 161664, Note_on_c, 1, 61, 80
3, 161664, Note_on_c, 1, 58, 80
3, 161664, Note_on_c, 1, 51, 80
3, 162236, Note_off_c, 1, 61, 100
3, 162236, Note_off_c, 1, 58, 100
3, 162236, Note_off_c, 1, 51, 100
3, 162336, Note_on_c, 1, 60, 80
3, 162336, Note_on_c, 1, 56, 80
3, 162336, Note_on_c, 1, 51, 80
3, 162428, Note_off_c, 1, 60, 100
3, 162428, Note_off_c, 1, 56, 100
3, 162428, Note_off_c, 1, 51, 100
3, 162432, Note_on_c, 1, 58, 80
3, 162432, Note_on_c, 1, 51, 80
3, 162432, Note_on_c, 1, 55, 80
3, 163004, Note_off_c, 1, 58, 100
3, 163004, Note_off_c, 1, 51, 100
3, 163004, Note_off_c, 1, 55, 100
3, 163104, Note_on_c, 1, 58, 80
3, 163104, Note_on_c, 1, 55, 80
3, 163104, Note_on_c, 1, 52, 80
3, 163196, Note_off_c, 1, 58, 100
3, 163196, Note_off_c, 1, 55, 100
3, 163196, Note_off_c, 1, 52, 100
3, 163200, Note_on_c, 1, 58, 80
3, 163200, Note_on_c, 1, 55, 80
3, 163200, Note_on_c, 1, 52, 80
3, 163580, Note_off_c, 1, 58, 100
3, 163580, Note_off_c, 1, 55, 100
3, 163580, Note_off_c, 1, 52, 100
3, 163584, Note_on_c, 1, 56, 80
3, 163584, Note_on_c, 1, 53, 80
3, 163964, Note_off_c, 1, 56, 100
3, 163964, Note_off_c, 1, 53, 100
3, 164640, Note_on_c, 1, 70, 80
3, 164640, Note_on_c, 1, 67, 80
3, 164640, Note_on_c, 1, 61, 80
3, 164732, Note_off_c, 1, 70, 100
3, 164732, Note_off_c, 1, 67, 100
3, 164732, Note_off_c, 1, 61, 100
3, 164736, Note_on_c, 1, 70, 80
3, 164736, Note_on_c, 1, 67, 80
3, 164736, Note_on_c, 1, 61, 80
3, 165116, Note_off_c, 1, 70, 100
3, 165116, Note_off_c, 1, 67, 100
3, 165116, Note_off_c, 1, 61, 100
3, 165120, Note_on_c, 1, 72, 80
3, 165120, Note_on_c, 1, 68, 80
3, 165120, Note_on_c, 1, 60, 80
3, 165500, Note_off_c, 1, 72, 100
3, 165500, Note_off_c, 1, 68, 100
3, 165500, Note_off_c, 1, 60, 100
3, 166080, Note_on_c, 1, 71, 120
3, 166080, Note_on_c, 1, 68, 120
3, 166080, Note_on_c, 1, 65, 120
3, 166080, Note_on_c, 1, 62, 120
3, 166268, Note_off_c, 1, 71, 100
3, 166268, Note_off_c, 1, 68, 100
3, 166268, Note_off_c, 1, 65, 100
3, 166268, Note_off_c, 1, 62, 100
3, 166272, Note_on_c, 1, 71, 120
3, 166272, Note_on_c, 1, 68, 120
3, 166272, Note_on_c, 1, 65, 120
3, 166272, Note_on_c, 1, 62, 120
3, 166460, Note_off_c, 1, 71, 100
3, 166460, Note_off_c, 1, 68, 100
3, 166460, Note_off_c, 1, 65, 100
3, 166460, Note_off_c, 1, 62, 100
3, 166464, Note_on_c, 1, 77, 120
3, 166556, Note_off_c, 1, 77, 100
3, 166560, Note_on_c, 1, 80, 120
3, 166652, Note_off_c, 1, 80, 100
3, 166656, Note_on_c, 1, 74, 120
3, 166748, Note_off_c, 1, 74, 100
3, 166752, Note_on_c, 1, 77, 120
3, 166844, Note_off_c, 1, 77, 100
3, 166848, Note_on_c, 1, 71, 120
3, 166940, Note_off_c, 1, 71, 100
3, 166944, Note_on_c, 1, 74, 120
3, 167036, Note_off_c, 1, 74, 100
3, 167040, Note_on_c, 1, 68, 120
3, 167132, Note_off_c, 1, 68, 100
3, 167136, Note_on_c, 1, 71, 120
3, 167228, Note_off_c, 1, 71, 100
3, 167232, Note_on_c, 1, 65, 120
3, 167324, Note_off_c, 1, 65, 100
3, 167328, Note_on_c, 1, 68, 120
3, 167420, Note_off_c, 1, 68, 100
3, 167424, Note_on_c, 1, 62, 120
3, 167516, Note_off_c, 1, 62, 100
3, 167520, Note_on_c, 1, 65, 120
3, 167612, Note_off_c, 1, 65, 100
3, 167616, Note_on_c, 1, 59, 120
3, 167708, Note_off_c, 1, 59, 100
3, 167712, Note_on_c, 1, 62, 120
3, 167804, Note_off_c, 1, 62, 100
3, 167808, Note_on_c, 1, 56, 120
3, 167900, Note_off_c, 1, 56, 100
3, 167904, Note_on_c, 1, 59, 120
3, 167996, Note_off_c, 1, 59, 100
3, 168000, Note_on_c, 1, 53, 120
3, 168092, Note_off_c, 1, 53, 100
3, 168096, Note_on_c, 1, 56, 120
3, 168188, Note_off_c, 1, 56, 100
3, 168192, Note_on_c, 1, 50, 80
3, 168284, Note_off_c, 1, 50, 100
3, 168288, Note_on_c, 1, 51, 83
3, 168380, Note_off_c, 1, 51, 100
3, 168384, Note_on_c, 1, 53, 87
3, 168476, Note_off_c, 1, 53, 100
3, 168480, Note_on_c, 1, 55, 90
3, 168572, Note_off_c, 1, 55, 100
3, 168576, Note_on_c, 1, 56, 94
3, 168668, Note_off_c, 1, 56, 100
3, 168672, Note_on_c, 1, 58, 98
3, 168764, Note_off_c, 1, 58, 100
3, 168768, Note_on_c, 1, 60, 101
3, 168860, Note_off_c, 1, 60, 100
3, 168864, Note_on_c, 1, 61, 105
3, 168956, Note_off_c, 1, 61, 100
3, 168960, Note_on_c, 1, 63, 108
3, 169052, Note_off_c, 1, 63, 100
3, 169056, Note_on_c, 1, 64, 112
3, 169148, Note_off_c, 1, 64, 100
3, 169152, Note_on_c, 1, 65, 116
3, 169244, Note_off_c, 1, 65, 100
3, 169248, Note_on_c, 1, 63, 119
3, 169340, Note_off_c, 1, 63, 100
3, 169344, Note_on_c, 1, 44, 120
3, 169344, Note_on_c, 1, 32, 120
3, 169724, Note_off_c, 1, 44, 100
3, 169724, Note_off_c, 1, 32, 100
3, 169728, Note_on_c, 1, 48, 120
3, 169728, Note_on_c, 1, 36, 120
3, 170108, Note_off_c, 1, 48, 100
3, 170108, Note_off_c, 1, 36, 100
3, 170112, Note_on_c, 1, 43, 120
3, 170112, Note_on_c, 1, 31, 120
3, 170876, Note_off_c, 1, 43, 100
3, 170876, Note_off_c, 1, 31, 100
3, 170880, Note_on_c, 1, 42, 120
3, 170880, Note_on_c, 1, 30, 120
3, 171260, Note_off_c, 1, 42, 100
3, 171260, Note_off_c, 1, 30, 100
3, 171264, Note_on_c, 1, 44, 120
3, 171264, Note_on_c, 1, 32, 120
3, 171644, Note_off_c, 1, 44, 100
3, 171644, Note_off_c, 1, 32, 100
3, 171648, Note_on_c, 1, 41, 120
3, 171648, Note_on_c, 1, 29, 120
3, 172412, Note_off_c, 1, 41, 100
3, 172412, Note_off_c, 1, 29, 100
3, 172416, Note_on_c, 1, 40, 120
3, 172416, Note_on_c, 1, 28, 120
3, 172796, Note_off_c, 1, 40, 100
3, 172796, Note_off_c, 1, 28, 100
3, 172800, Note_on_c, 1, 43, 120
3, 172800, Note_on_c, 1, 31, 120
3, 173180, Note_off_c, 1, 43, 100
3, 173180, Note_off_c, 1, 31, 100
3, 173184, Note_on_c, 1, 39, 120
3, 173184, Note_on_c, 1, 27, 120
3, 173564, Note_off_c, 1, 39, 100
3, 173564, Note_off_c, 1, 27, 100
3, 173568, Note_on_c, 1, 44, 120
3, 173568, Note_on_c, 1, 32, 120
3, 173852, Note_off_c, 1, 44, 100
3, 173852, Note_off_c, 1, 32, 100
3, 173856, Note_on_c, 1, 48, 120
3, 173856, Note_on_c, 1, 36, 120
3, 173948, Note_off_c, 1, 48, 100
3, 173948, Note_off_c, 1, 36, 100
3, 173952, Note_on_c, 1, 51, 120
3, 173952, Note_on_c, 1, 39, 120
3, 174332, Note_off_c, 1, 51, 100
3, 174332, Note_off_c, 1, 39, 100
3, 174336, Note_on_c, 1, 39, 120
3, 174336, Note_on_c, 1, 27, 120
3, 174716, Note_off_c, 1, 39, 100
3, 174716, Note_off_c, 1, 27, 100
3, 174816, Note_on_c, 1, 60, 120
3, 174908, Note_off_c, 1, 60, 100
3, 174912, Note_on_c, 1, 58, 120
3, 175004, Note_off_c, 1, 58, 100
3, 175008, Note_on_c, 1, 56, 120
3, 175100, Note_off_c, 1, 56, 100
3, 175104, Note_on_c, 1, 55, 120
3, 175196, Note_off_c, 1, 55, 100
3, 175200, Note_on_c, 1, 56, 120
3, 175292, Note_off_c, 1, 56, 100
3, 175296, Note_on_c, 1, 58, 120
3, 175388, Note_off_c, 1, 58, 100
3, 175392, Note_on_c, 1, 56, 120
3, 175484, Note_off_c, 1, 56, 100
3, 175584, Note_on_c, 1, 67, 120
3, 175676, Note_off_c, 1, 67, 100
3, 175680, Note_on_c, 1, 65, 120
3, 175772, Note_off_c, 1, 65, 100
3, 175776, Note_on_c, 1, 63, 120
3, 175868, Note_off_c, 1, 63, 100
3, 175872, Note_on_c, 1, 62, 120
3, 175964, Note_off_c, 1, 62, 100
3, 175968, Note_on_c, 1, 63, 120
3, 176060, Note_off_c, 1, 63, 100
3, 176064, Note_on_c, 1, 65, 120
3, 176156, Note_off_c, 1, 65, 100
3, 176160, Note_on_c, 1, 63, 120
3, 176252, Note_off_c, 1, 63, 100
3, 176352, Note_on_c, 1, 51, 120
3, 176444, Note_off_c, 1, 51, 100
3, 176448, Note_on_c, 1, 49, 120
3, 176540, Note_off_c, 1, 49, 100
3, 176544, Note_on_c, 1, 48, 120
3, 176636, Note_off_c, 1, 48, 100
3, 176640, Note_on_c, 1, 47, 120
3, 176732, Note_off_c, 1, 47, 100
3, 176736, Note_on_c, 1, 48, 120
3, 176828, Note_off_c, 1, 48, 100
3, 176832, Note_on_c, 1, 49, 120
3, 176924, Note_off_c, 1, 49, 100
3, 176928, Note_on_c, 1, 48, 120
3, 177020, Note_off_c, 1, 48, 100
3, 177120, Note_on_c, 1, 65, 120
3, 177212, Note_off_c, 1, 65, 100
3, 177216, Note_on_c, 1, 63, 120
3, 177308, Note_off_c, 1, 63, 100
3, 177312, Note_on_c, 1, 61, 120
3, 177404, Note_off_c, 1, 61, 100
3, 177408, Note_on_c, 1, 60, 120
3, 177500, Note_off_c, 1, 60, 100
3, 177504, Note_on_c, 1, 61, 120
3, 177596, Note_off_c, 1, 61, 100
3, 177600, Note_on_c, 1, 63, 120
3, 177692, Note_off_c, 1, 63, 100
3, 177696, Note_on_c, 1, 61, 120
3, 177788, Note_off_c, 1, 61, 100
3, 177888, Note_on_c, 1, 37, 120
3, 177980, Note_off_c, 1, 37, 100
3, 177984, Note_on_c, 1, 39, 120
3, 178076, Note_off_c, 1, 39, 100
3, 178080, Note_on_c, 1, 40, 120
3, 178172, Note_off_c, 1, 40, 100
3, 178176, Note_on_c, 1, 39, 120
3, 178268, Note_off_c, 1, 39, 100
3, 178272, Note_on_c, 1, 37, 120
3, 178364, Note_off_c, 1, 37, 100
3, 178368, Note_on_c, 1, 36, 120
3, 178460, Note_off_c, 1, 36, 100
3, 178464, Note_on_c, 1, 37, 120
3, 178556, Note_off_c, 1, 37, 100
3, 178560, Note_on_c, 1, 38, 120
3, 178652, Note_off_c, 1, 38, 100
3, 178656, Note_on_c, 1, 39, 120
3, 178748, Note_off_c, 1, 39, 100
3, 178752, Note_on_c, 1, 41, 120
3, 178844, Note_off_c, 1, 41, 100
3, 178848, Note_on_c, 1, 39, 120
3, 178940, Note_off_c, 1, 39, 100
3, 178944, Note_on_c, 1, 37, 120
3, 179036, Note_off_c, 1, 37, 100
3, 179040, Note_on_c, 1, 36, 120
3, 179132, Note_off_c, 1, 36, 100
3, 179136, Note_on_c, 1, 34, 120
3, 179228, Note_off_c, 1, 34, 100
3, 179232, Note_on_c, 1, 32, 120
3, 179324, Note_off_c, 1, 32, 100
3, 179328, Note_on_c, 1, 31, 120
3, 179420, Note_off_c, 1, 31, 100
3, 179424, Note_on_c, 1, 32, 120
3, 179516, Note_off_c, 1, 32, 100
3, 179520, Note_on_c, 1, 34, 120
3, 179612, Note_off_c, 1, 34, 100
3, 179616, Note_on_c, 1, 36, 120
3, 179708, Note_off_c, 1, 36, 100
3, 179712, Note_on_c, 1, 37, 120
3, 179804, Note_off_c, 1, 37, 100
3, 179808, Note_on_c, 1, 36, 120
3, 179900, Note_off_c, 1, 36, 100
3, 179904, Note_on_c, 1, 37, 120
3, 179996, Note_off_c, 1, 37, 100
3, 180000, Note_on_c, 1, 35, 120
3, 180092, Note_off_c, 1, 35, 100
3, 180096, Note_on_c, 1, 36, 120
3, 180188, Note_off_c, 1, 36, 100
3, 180192, Note_on_c, 1, 37, 120
3, 180284, Note_off_c, 1, 37, 100
3, 180288, Note_on_c, 1, 39, 120
3, 180380, Note_off_c, 1, 39, 100
3, 180384, Note_on_c, 1, 37, 120
3, 180476, Note_off_c, 1, 37, 100
3, 180480, Note_on_c, 1, 36, 120
3, 180572, Note_off_c, 1, 36, 100
3, 180576, Note_on_c, 1, 35, 120
3, 180668, Note_off_c, 1, 35, 100
3, 180672, Note_on_c, 1, 36, 120
3, 180764, Note_off_c, 1, 36, 100
3, 180768, Note_on_c, 1, 32, 120
3, 180860, Note_off_c, 1, 32, 100
3, 180864, Note_on_c, 1, 31, 120
3, 180956, Note_off_c, 1, 31, 100
3, 180960, Note_on_c, 1, 32, 120
3, 181052, Note_off_c, 1, 32, 100
3, 181056, Note_on_c, 1, 34, 120
3, 181148, Note_off_c, 1, 34, 100
3, 181152, Note_on_c, 1, 36, 120
3, 181244, Note_off_c, 1, 36, 100
3, 181248, Note_on_c, 1, 37, 120
3, 181340, Note_off_c, 1, 37, 100
3, 181344, Note_on_c, 1, 36, 120
3, 181436, Note_off_c, 1, 36, 100
3, 181440, Note_on_c, 1, 37, 120
3, 181532, Note_off_c, 1, 37, 100
3, 181536, Note_on_c, 1, 35, 120
3, 181628, Note_off_c, 1, 35, 100
3, 181632, Note_on_c, 1, 36, 120
3, 181724, Note_off_c, 1, 36, 100
3, 181728, Note_on_c, 1, 37, 120
3, 181820, Note_off_c, 1, 37, 100
3, 181824, Note_on_c, 1, 39, 120
3, 181916, Note_off_c, 1, 39, 100
3, 181920, Note_on_c, 1, 37, 120
3, 182012, Note_off_c, 1, 37, 100
3, 182016, Note_on_c, 1, 36, 120
3, 182108, Note_off_c, 1, 36, 100
3, 182112, Note_on_c, 1, 35, 120
3, 182204, Note_off_c, 1, 35, 100
3, 182208, Note_on_c, 1, 36, 120
3, 182300, Note_off_c, 1, 36, 100
3, 182304, Note_on_c, 1, 32, 120
3, 182396, Note_off_c, 1, 32, 100
3, 182400, Note_on_c, 1, 31, 120
3, 182492, Note_off_c, 1, 31, 100
3, 182496, Note_on_c, 1, 32, 120
3, 182588, Note_off_c, 1, 32, 100
3, 182592, Note_on_c, 1, 34, 120
3, 182684, Note_off_c, 1, 34, 100
3, 182688, Note_on_c, 1, 36, 120
3, 182780, Note_off_c, 1, 36, 100
3, 182784, Note_on_c, 1, 37, 120
3, 182876, Note_off_c, 1, 37, 100
3, 182880, Note_on_c, 1, 39, 120
3, 182972, Note_off_c, 1, 39, 100
3, 182976, Note_on_c, 1, 41, 120
3, 183068, Note_off_c, 1, 41, 100
3, 183072, Note_on_c, 1, 43, 120
3, 183164, Note_off_c, 1, 43, 100
3, 183168, Note_on_c, 1, 44, 120
3, 183260, Note_off_c, 1, 44, 100
3, 183264, Note_on_c, 1, 46, 120
3, 183356, Note_off_c, 1, 46, 100
3, 183360, Note_on_c, 1, 48, 120
3, 183452, Note_off_c, 1, 48, 100
3, 183456, Note_on_c, 1, 47, 120
3, 183548, Note_off_c, 1, 47, 100
3, 183552, Note_on_c, 1, 48, 120
3, 183644, Note_off_c, 1, 48, 100
3, 183648, Note_on_c, 1, 49, 120
3, 183740, Note_off_c, 1, 49, 100
3, 183744, Note_on_c, 1, 50, 120
3, 183836, Note_off_c, 1, 50, 100
3, 183840, Note_on_c, 1, 49, 120
3, 183932, Note_off_c, 1, 49, 100
3, 183936, Note_on_c, 1, 50, 120
3, 184028, Note_off_c, 1, 50, 100
3, 184032, Note_on_c, 1, 51, 120
3, 184124, Note_off_c, 1, 51, 100
3, 184128, Note_on_c, 1, 52, 120
3, 184220, Note_off_c, 1, 52, 100
3, 184224, Note_on_c, 1, 51, 120
3, 184316, Note_off_c, 1, 51, 100
3, 184320, Note_on_c, 1, 52, 120
3, 184412, Note_off_c, 1, 52, 100
3, 184416, Note_on_c, 1, 53, 120
3, 184508, Note_off_c, 1, 53, 100
3, 184512, Note_on_c, 1, 54, 120
3, 184604, Note_off_c, 1, 54, 100
3, 184608, Note_on_c, 1, 55, 120
3, 184700, Note_off_c, 1, 55, 100
3, 184704, Note_on_c, 1, 56, 120
3, 184796, Note_off_c, 1, 56, 100
3, 184800, Note_on_c, 1, 58, 120
3, 184892, Note_off_c, 1, 58, 100
3, 184896, Note_on_c, 1, 60, 120
3, 184988, Note_off_c, 1, 60, 100
3, 184992, Note_on_c, 1, 59, 120
3, 185084, Note_off_c, 1, 59, 100
3, 185088, Note_on_c, 1, 60, 120
3, 185180, Note_off_c, 1, 60, 100
3, 185184, Note_on_c, 1, 61, 120
3, 185276, Note_off_c, 1, 61, 100
3, 185280, Note_on_c, 1, 62, 120
3, 185372, Note_off_c, 1, 62, 100
3, 185376, Note_on_c, 1, 61, 120
3, 185468, Note_off_c, 1, 61, 100
3, 185472, Note_on_c, 1, 62, 120
3, 185564, Note_off_c, 1, 62, 100
3, 185568, Note_on_c, 1, 63, 120
3, 185660, Note_off_c, 1, 63, 100
3, 185664, Note_on_c, 1, 64, 120
3, 185756, Note_off_c, 1, 64, 100
3, 185760, Note_on_c, 1, 63, 120
3, 185852, Note_off_c, 1, 63, 100
3, 185856, Note_on_c, 1, 64, 120
3, 185948, Note_off_c, 1, 64, 100
3, 185952, Note_on_c, 1, 65, 120
3, 186044, Note_off_c, 1, 65, 100
3, 186048, Note_on_c, 1, 66, 120
3, 186140, Note_off_c, 1, 66, 100
3, 186144, Note_on_c, 1, 67, 120
3, 186236, Note_off_c, 1, 67, 100
3, 186240, Note_on_c, 1, 68, 120
3, 186620, Note_off_c, 1, 68, 100
3, 186624, Note_on_c, 1, 32, 120
3, 186624, Note_on_c, 1, 44, 120
3, 187004, Note_off_c, 1, 32, 100
3, 187004, Note_off_c, 1, 44, 100
3, 188160, Note_on_c, 1, 43, 80
3, 188160, Note_on_c, 1, 31, 80
3, 188540, Note_off_c, 1, 43, 100
3, 188540, Note_off_c, 1, 31, 100
3, 189696, Note_on_c, 1, 42, 120
3, 189696, Note_on_c, 1, 30, 120
3, 190076, Note_off_c, 1, 42, 100
3, 190076, Note_off_c, 1, 30, 100
3, 190848, Key_signature, -2, "minor"
3, 191424, Note_on_c, 1, 38, 80
3, 191484, Note_off_c, 1, 38, 100
3, 191488, Note_on_c, 1, 40, 80
3, 191548, Note_off_c, 1, 40, 100
3, 191552, Note_on_c, 1, 42, 80
3, 191612, Note_off_c, 1, 42, 100
3, 191616, Note_on_c, 1, 43, 80
3, 191616, Note_on_c, 1, 31, 80
3, 191996, Note_off_c, 1, 43, 100
3, 191996, Note_off_c, 1, 31, 100
3, 192000, Note_on_c, 1, 46, 80
3, 192000, Note_on_c, 1, 34, 80
3, 192380, Note_off_c, 1, 46, 100
3, 192380, Note_off_c, 1, 34, 100
3, 192384, Note_on_c, 1, 42, 80
3, 192384, Note_on_c, 1, 30, 80
3, 193148, Note_off_c, 1, 42, 100
3, 193148, Note_off_c, 1, 30, 100
3, 193152, Note_on_c, 1, 41, 80
3, 193152, Note_on_c, 1, 29, 80
3, 193532, Note_off_c, 1, 41, 100
3, 193532, Note_off_c, 1, 29, 100
3, 193536, Note_on_c, 1, 44, 80
3, 193536, Note_on_c, 1, 32, 80
3, 193916, Note_off_c, 1, 44, 100
3, 193916, Note_off_c, 1, 32, 100
3, 193920, Note_on_c, 1, 40, 80
3, 193920, Note_on_c, 1, 28, 80
3, 194684, Note_off_c, 1, 40, 100
3, 194684, Note_off_c, 1, 28, 100
3, 194688, Note_on_c, 1, 39, 80
3, 194688, Note_on_c, 1, 27, 80
3, 195068, Note_off_c, 1, 39, 100
3, 195068, Note_off_c, 1, 27, 100
3, 195072, Note_on_c, 1, 43, 80
3, 195072, Note_on_c, 1, 31, 80
3, 195452, Note_off_c, 1, 43, 100
3, 195452, Note_off_c, 1, 31, 100
3, 195456, Note_on_c, 1, 38, 80
3, 195456, Note_on_c, 1, 26, 80
3, 195836, Note_off_c, 1, 38, 100
3, 195836, Note_off_c, 1, 26, 100
3, 195840, Note_on_c, 1, 31, 80
3, 195840, Note_on_c, 1, 43, 80
3, 196124, Note_off_c, 1, 31, 100
3, 196124, Note_off_c, 1, 43, 100
3, 196128, Note_on_c, 1, 46, 80
3, 196128, Note_on_c, 1, 34, 80
3, 196220, Note_off_c, 1, 46, 100
3, 196220, Note_off_c, 1, 34, 100
3, 196224, Note_on_c, 1, 50, 80
3, 196224, Note_on_c, 1, 38, 80
3, 196604, Note_off_c, 1, 50, 100
3, 196604, Note_off_c, 1, 38, 100
3, 196608, Note_on_c, 1, 48, 80
3, 196608, Note_on_c, 1, 36, 80
3, 196988, Note_off_c, 1, 48, 100
3, 196988, Note_off_c, 1, 36, 100
3, 196992, Note_on_c, 1, 47, 80
3, 196992, Note_on_c, 1, 35, 80
3, 197372, Note_off_c, 1, 47, 100
3, 197372, Note_off_c, 1, 35, 100
3, 197376, Note_on_c, 1, 43, 80
3, 197376, Note_on_c, 1, 31, 80
3, 197756, Note_off_c, 1, 43, 100
3, 197756, Note_off_c, 1, 31, 100
3, 197760, Note_on_c, 1, 55, 80
3, 198140, Note_off_c, 1, 55, 100
3, 198144, Note_on_c, 1, 60, 80
3, 198524, Note_off_c, 1, 60, 100
3, 198528, Note_on_c, 1, 54, 80
3, 199088, Note_on_c, 1, 63, 80
3, 199100, Note_off_c, 1, 54, 100
3, 199276, Note_off_c, 1, 63, 100
3, 199296, Note_on_c, 1, 62, 80
3, 199484, Note_off_c, 1, 62, 100
3, 199488, Note_on_c, 1, 60, 80
3, 199676, Note_off_c, 1, 60, 100
3, 199680, Note_on_c, 1, 57, 80
3, 199680, Note_on_c, 1, 50, 80
3, 199868, Note_off_c, 1, 57, 100
3, 199872, Note_on_c, 1, 57, 80
3, 200060, Note_off_c, 1, 50, 100
3, 200060, Note_off_c, 1, 57, 100
3, 200064, Note_on_c, 1, 55, 80
3, 200064, Note_on_c, 1, 59, 80
3, 200444, Note_off_c, 1, 59, 100
3, 200828, Note_off_c, 1, 55, 100
3, 200832, Note_on_c, 1, 56, 80
3, 201596, Note_off_c, 1, 56, 100
3, 201600, Note_on_c, 1, 50, 80
3, 202364, Note_off_c, 1, 50, 100
3, 202368, Note_on_c, 1, 59, 80
3, 202416, Note_on_c, 1, 60, 80
3, 202460, Note_off_c, 1, 59, 100
3, 202464, Note_on_c, 1, 59, 80
3, 202508, Note_off_c, 1, 60, 100
3, 202512, Note_on_c, 1, 60, 80
3, 202556, Note_off_c, 1, 59, 100
3, 202560, Note_on_c, 1, 59, 80
3, 202604, Note_off_c, 1, 60, 100
3, 202608, Note_on_c, 1, 60, 80
3, 202652, Note_off_c, 1, 59, 100
3, 202656, Note_on_c, 1, 59, 80
3, 202700, Note_off_c, 1, 60, 100
3, 202704, Note_on_c, 1, 60, 80
3, 202748, Note_off_c, 1, 59, 100
3, 202752, Note_on_c, 1, 59, 80
3, 202796, Note_off_c, 1, 60, 100
3, 202800, Note_on_c, 1, 60, 80
3, 202844, Note_off_c, 1, 59, 100
3, 202848, Note_on_c, 1, 59, 80
3, 202892, Note_off_c, 1, 60, 100
3, 202896, Note_on_c, 1, 60, 80
3, 202940, Note_off_c, 1, 59, 100
3, 202944, Note_on_c, 1, 59, 80
3, 202988, Note_off_c, 1, 60, 100
3, 202992, Note_on_c, 1, 60, 80
3, 203036, Note_off_c, 1, 59, 100
3, 203040, Note_on_c, 1, 57, 80
3, 203084, Note_off_c, 1, 60, 100
3, 203088, Note_on_c, 1, 59, 80
3, 203132, Note_off_c, 1, 57, 100
3, 203136, Note_on_c, 1, 60, 80
3, 203180, Note_off_c, 1, 59, 100
3, 203516, Note_off_c, 1, 60, 100
3, 203616, Note_on_c, 1, 58, 80
3, 203708, Note_off_c, 1, 58, 100
3, 203712, Note_on_c, 1, 56, 80
3, 203804, Note_off_c, 1, 56, 100
3, 203808, Note_on_c, 1, 55, 80
3, 203900, Note_off_c, 1, 55, 100
3, 203904, Note_on_c, 1, 56, 80
3, 204284, Note_off_c, 1, 56, 100
3, 204288, Note_on_c, 1, 53, 80
3, 204668, Note_off_c, 1, 53, 100
3, 204672, Note_on_c, 1, 58, 80
3, 205052, Note_off_c, 1, 58, 100
3, 205056, Note_on_c, 1, 55, 80
3, 205436, Note_off_c, 1, 55, 100
3, 205440, Note_on_c, 1, 60, 80
3, 205820, Note_off_c, 1, 60, 100
3, 205824, Note_on_c, 1, 48, 80
3, 206204, Note_off_c, 1, 48, 100
3, 206208, Note_on_c, 1, 53, 80
3, 206972, Note_off_c, 1, 53, 100
3, 206976, Note_on_c, 1, 52, 80
3, 207024, Note_on_c, 1, 53, 80
3, 207068, Note_off_c, 1, 52, 100
3, 207072, Note_on_c, 1, 52, 80
3, 207116, Note_off_c, 1, 53, 100
3, 207120, Note_on_c, 1, 53, 80
3, 207164, Note_off_c, 1, 52, 100
3, 207168, Note_on_c, 1, 52, 80
3, 207212, Note_off_c, 1, 53, 100
3, 207216, Note_on_c, 1, 53, 80
3, 207260, Note_off_c, 1, 52, 100
3, 207264, Note_on_c, 1, 52, 80
3, 207308, Note_off_c, 1, 53, 100
3, 207312, Note_on_c, 1, 53, 80
3, 207356, Note_off_c, 1, 52, 100
3, 207360, Note_on_c, 1, 52, 80
3, 207404, Note_off_c, 1, 53, 100
3, 207408, Note_on_c, 1, 53, 80
3, 207452, Note_off_c, 1, 52, 100
3, 207456, Note_on_c, 1, 52, 80
3, 207500, Note_off_c, 1, 53, 100
3, 207504, Note_on_c, 1, 53, 80
3, 207548, Note_off_c, 1, 52, 100
3, 207552, Note_on_c, 1, 52, 80
3, 207596, Note_off_c, 1, 53, 100
3, 207600, Note_on_c, 1, 53, 80
3, 207644, Note_off_c, 1, 52, 100
3, 207648, Note_on_c, 1, 50, 80
3, 207692, Note_off_c, 1, 53, 100
3, 207696, Note_on_c, 1, 52, 80
3, 207740, Note_off_c, 1, 50, 100
3, 207744, Note_on_c, 1, 53, 80
3, 207744, Note_on_c, 1, 41, 80
3, 207788, Note_off_c, 1, 52, 100
3, 208508, Note_off_c, 1, 53, 100
3, 208508, Note_off_c, 1, 41, 100
3, 208512, Note_on_c, 1, 40, 80
3, 208560, Note_on_c, 1, 41, 80
3, 208604, Note_off_c, 1, 40, 100
3, 208608, Note_on_c, 1, 40, 80
3, 208652, Note_off_c, 1, 41, 100
3, 208656, Note_on_c, 1, 41, 80
3, 208700, Note_off_c, 1, 40, 100
3, 208704, Note_on_c, 1, 40, 80
3, 208748, Note_off_c, 1, 41, 100
3, 208752, Note_on_c, 1, 41, 80
3, 208796, Note_off_c, 1, 40, 100
3, 208800, Note_on_c, 1, 40, 80
3, 208844, Note_off_c, 1, 41, 100
3, 208848, Note_on_c, 1, 41, 80
3, 208892, Note_off_c, 1, 40, 100
3, 208896, Note_on_c, 1, 40, 80
3, 208940, Note_off_c, 1, 41, 100
3, 208944, Note_on_c, 1, 41, 80
3, 208988, Note_off_c, 1, 40, 100
3, 208992, Note_on_c, 1, 40, 80
3, 209036, Note_off_c, 1, 41, 100
3, 209040, Note_on_c, 1, 41, 80
3, 209084, Note_off_c, 1, 40, 100
3, 209088, Note_on_c, 1, 40, 80
3, 209132, Note_off_c, 1, 41, 100
3, 209136, Note_on_c, 1, 41, 80
3, 209180, Note_off_c, 1, 40, 100
3, 209184, Note_on_c, 1, 38, 80
3, 209228, Note_off_c, 1, 41, 100
3, 209232, Note_on_c, 1, 40, 80
3, 209276, Note_off_c, 1, 38, 100
3, 209280, Note_on_c, 1, 41, 80
3, 209324, Note_off_c, 1, 40, 100
3, 209468, Note_off_c, 1, 41, 100
3, 209472, Note_on_c, 1, 39, 82
3, 209660, Note_off_c, 1, 39, 100
3, 209664, Note_on_c, 1, 38, 85
3, 209852, Note_off_c, 1, 38, 100
3, 209856, Note_on_c, 1, 36, 87
3, 210044, Note_off_c, 1, 36, 100
3, 210048, Note_on_c, 1, 35, 90
3, 210236, Note_off_c, 1, 35, 100
3, 210240, Note_on_c, 1, 34, 92
3, 210428, Note_off_c, 1, 34, 100
3, 210432, Note_on_c, 1, 33, 95
3, 210620, Note_off_c, 1, 33, 100
3, 210624, Note_on_c, 1, 32, 98
3, 210812, Note_off_c, 1, 32, 100
3, 210816, Note_on_c, 1, 31, 100
3, 211004, Note_off_c, 1, 31, 100
3, 211008, Note_on_c, 1, 30, 103
3, 211388, Note_off_c, 1, 30, 100
3, 211392, Note_on_c, 1, 42, 108
3, 211392, Note_on_c, 1, 30, 108
3, 211772, Note_off_c, 1, 42, 100
3, 211772, Note_off_c, 1, 30, 100
3, 211776, Note_on_c, 1, 42, 113
3, 211776, Note_on_c, 1, 30, 113
3, 212156, Note_off_c, 1, 42, 100
3, 212156, Note_off_c, 1, 30, 100
3, 212160, Note_on_c, 1, 42, 118
3, 212160, Note_on_c, 1, 30, 118
3, 212348, Note_off_c, 1, 42, 100
3, 212348, Note_off_c, 1, 30, 100
3, 212448, Note_on_c, 1, 31, 110
3, 212544, Note_on_c, 1, 33, 110
3, 212636, Note_off_c, 1, 31, 100
3, 212640, Note_on_c, 1, 35, 110
3, 212732, Note_off_c, 1, 33, 100
3, 212828, Note_off_c, 1, 35, 100
3, 212832, Note_on_c, 1, 43, 110
3, 212928, Note_on_c, 1, 45, 110
3, 213020, Note_off_c, 1, 43, 100
3, 213024, Note_on_c, 1, 47, 110
3, 213116, Note_off_c, 1, 45, 100
3, 213212, Note_off_c, 1, 47, 100
3, 213216, Note_on_c, 1, 31, 110
3, 213312, Note_on_c, 1, 36, 110
3, 213404, Note_off_c, 1, 31, 100
3, 213408, Note_on_c, 1, 39, 110
3, 213500, Note_off_c, 1, 36, 100
3, 213504, Note_on_c, 1, 42, 110
3, 213596, Note_off_c, 1, 39, 100
3, 213600, Note_on_c, 1, 45, 110
3, 213692, Note_off_c, 1, 42, 100
3, 213696, Note_on_c, 1, 48, 110
3, 213788, Note_off_c, 1, 45, 100
3, 213808, Note_on_c, 1, 51, 110
3, 213884, Note_off_c, 1, 48, 100
3, 213888, Key_signature, -3, "minor"
3, 213984, Note_on_c, 1, 31, 110
3, 213996, Note_off_c, 1, 51, 100
3, 214076, Note_off_c, 1, 31, 100
3, 214080, Note_on_c, 1, 36, 110
3, 214172, Note_off_c, 1, 36, 100
3, 214176, Note_on_c, 1, 39, 110
3, 214268, Note_off_c, 1, 39, 100
3, 214368, Note_on_c, 1, 43, 110
3, 214460, Note_off_c, 1, 43, 100
3, 214464, Note_on_c, 1, 48, 110
3, 214556, Note_off_c, 1, 48, 100
3, 214560, Note_on_c, 1, 51, 110
3, 214652, Note_off_c, 1, 51, 100
3, 214752, Note_on_c, 1, 31, 110
3, 214844, Note_off_c, 1, 31, 100
3, 214848, Note_on_c, 1, 38, 110
3, 214940, Note_off_c, 1, 38, 100
3, 214944, Note_on_c, 1, 41, 110
3, 215036, Note_off_c, 1, 41, 100
3, 215040, Note_on_c, 1, 43, 110
3, 215132, Note_off_c, 1, 43, 100
3, 215136, Note_on_c, 1, 47, 110
3, 215228, Note_off_c, 1, 47, 100
3, 215232, Note_on_c, 1, 50, 110
3, 215324, Note_off_c, 1, 50, 100
3, 215328, Note_on_c, 1, 53, 110
3, 215420, Note_off_c, 1, 53, 100
3, 215520, Note_on_c, 1, 31, 110
3, 215612, Note_off_c, 1, 31, 100
3, 215616, Note_on_c, 1, 38, 110
3, 215708, Note_off_c, 1, 38, 100
3, 215712, Note_on_c, 1, 41, 110
3, 215804, Note_off_c, 1, 41, 100
3, 215904, Note_on_c, 1, 43, 110
3, 215996, Note_off_c, 1, 43, 100
3, 216000, Note_on_c, 1, 50, 110
3, 216092, Note_off_c, 1, 50, 100
3, 216096, Note_on_c, 1, 53, 110
3, 216188, Note_off_c, 1, 53, 100
3, 216288, Note_on_c, 1, 31, 110
3, 216380, Note_off_c, 1, 31, 100
3, 216384, Note_on_c, 1, 43, 110
3, 216476, Note_off_c, 1, 43, 100
3, 216480, Note_on_c, 1, 46, 110
3, 216572, Note_off_c, 1, 46, 100
3, 216576, Note_on_c, 1, 49, 110
3, 216668, Note_off_c, 1, 49, 100
3, 216672, Note_on_c, 1, 52, 110
3, 216764, Note_off_c, 1, 52, 100
3, 216768, Note_on_c, 1, 55, 110
3, 216860, Note_off_c, 1, 55, 100
3, 216864, Note_on_c, 1, 58, 110
3, 216956, Note_off_c, 1, 58, 100
3, 217056, Note_on_c, 1, 31, 110
3, 217148, Note_off_c, 1, 31, 100
3, 217152, Note_on_c, 1, 43, 110
3, 217244, Note_off_c, 1, 43, 100
3, 217248, Note_on_c, 1, 46, 110
3, 217340, Note_off_c, 1, 46, 100
3, 217440, Note_on_c, 1, 43, 110
3, 217532, Note_off_c, 1, 43, 100
3, 217536, Note_on_c, 1, 55, 110
3, 217628, Note_off_c, 1, 55, 100
3, 217632, Note_on_c, 1, 58, 110
3, 217724, Note_off_c, 1, 58, 100
3, 217824, Note_on_c, 1, 31, 110
3, 217916, Note_off_c, 1, 31, 100
3, 217920, Note_on_c, 1, 45, 110
3, 218012, Note_off_c, 1, 45, 100
3, 218016, Note_on_c, 1, 48, 110
3, 218108, Note_off_c, 1, 48, 100
3, 218112, Note_on_c, 1, 51, 110
3, 218204, Note_off_c, 1, 51, 100
3, 218208, Note_on_c, 1, 54, 110
3, 218300, Note_off_c, 1, 54, 100
3, 218304, Note_on_c, 1, 57, 110
3, 218396, Note_off_c, 1, 57, 100
3, 218400, Note_on_c, 1, 60, 110
3, 218492, Note_off_c, 1, 60, 100
3, 218592, Note_on_c, 1, 31, 110
3, 218684, Note_off_c, 1, 31, 100
3, 218688, Note_on_c, 1, 45, 110
3, 218780, Note_off_c, 1, 45, 100
3, 218784, Note_on_c, 1, 48, 110
3, 218876, Note_off_c, 1, 48, 100
3, 218976, Note_on_c, 1, 54, 110
3, 219068, Note_off_c, 1, 54, 100
3, 219072, Note_on_c, 1, 57, 110
3, 219164, Note_off_c, 1, 57, 100
3, 219168, Note_on_c, 1, 60, 110
3, 219260, Note_off_c, 1, 60, 100
3, 219360, Note_on_c, 1, 31, 110
3, 219452, Note_off_c, 1, 31, 100
3, 219456, Note_on_c, 1, 47, 110
3, 219548, Note_off_c, 1, 47, 100
3, 219552, Note_on_c, 1, 50, 110
3, 219644, Note_off_c, 1, 50, 100
3, 219648, Note_on_c, 1, 53, 110
3, 219740, Note_off_c, 1, 53, 100
3, 219744, Note_on_c, 1, 56, 110
3, 219836, Note_off_c, 1, 56, 100
3, 219840, Note_on_c, 1, 53, 110
3, 219932, Note_off_c, 1, 53, 100
3, 219936, Note_on_c, 1, 56, 110
3, 220028, Note_off_c, 1, 56, 100
3, 220032, Note_on_c, 1, 55, 110
3, 220124, Note_off_c, 1, 55, 100
3, 220128, Note_on_c, 1, 56, 110
3, 220220, Note_off_c, 1, 56, 100
3, 220224, Note_on_c, 1, 55, 110
3, 220316, Note_off_c, 1, 55, 100
3, 220320, Note_on_c, 1, 53, 110
3, 220412, Note_off_c, 1, 53, 100
3, 220416, Note_on_c, 1, 51, 110
3, 220508, Note_off_c, 1, 51, 100
3, 220512, Note_on_c, 1, 53, 110
3, 220604, Note_off_c, 1, 53, 100
3, 220608, Note_on_c, 1, 51, 110
3, 220700, Note_off_c, 1, 51, 100
3, 220704, Note_on_c, 1, 50, 110
3, 220796, Note_off_c, 1, 50, 100
3, 220800, Note_on_c, 1, 51, 110
3, 220892, Note_off_c, 1, 51, 100
3, 220896, Note_on_c, 1, 53, 110
3, 220988, Note_off_c, 1, 53, 100
3, 220992, Note_on_c, 1, 51, 110
3, 221084, Note_off_c, 1, 51, 100
3, 221088, Note_on_c, 1, 50, 110
3, 221180, Note_off_c, 1, 50, 100
3, 221184, Note_on_c, 1, 48, 110
3, 221276, Note_off_c, 1, 48, 100
3, 221280, Note_on_c, 1, 43, 110
3, 221372, Note_off_c, 1, 43, 100
3, 221376, Note_on_c, 1, 45, 110
3, 221468, Note_off_c, 1, 45, 100
3, 221472, Note_on_c, 1, 47, 110
3, 221564, Note_off_c, 1, 47, 100
3, 221568, Note_on_c, 1, 48, 120
3, 221568, Note_on_c, 1, 36, 120
3, 221948, Note_off_c, 1, 48, 100
3, 221948, Note_off_c, 1, 36, 100
3, 221952, Note_on_c, 1, 51, 120
3, 221952, Note_on_c, 1, 39, 120
3, 222332, Note_off_c, 1, 51, 100
3, 222332, Note_off_c, 1, 39, 100
3, 222336, Note_on_c, 1, 47, 120
3, 222336, Note_on_c, 1, 35, 120
3, 222908, Note_off_c, 1, 47, 100
3, 222908, Note_off_c, 1, 35, 100
3, 222912, Note_on_c, 1, 56, 120
3, 222912, Note_on_c, 1, 44, 120
3, 223100, Note_off_c, 1, 56, 100
3, 223100, Note_off_c, 1, 44, 100
3, 223104, Note_on_c, 1, 55, 120
3, 223104, Note_on_c, 1, 43, 120
3, 223292, Note_off_c, 1, 55, 100
3, 223292, Note_off_c, 1, 43, 100
3, 223296, Note_on_c, 1, 53, 120
3, 223296, Note_on_c, 1, 41, 120
3, 223484, Note_off_c, 1, 53, 100
3, 223484, Note_off_c, 1, 41, 100
3, 223488, Note_on_c, 1, 51, 120
3, 223488, Note_on_c, 1, 39, 120
3, 223676, Note_off_c, 1, 51, 100
3, 223676, Note_off_c, 1, 39, 100
3, 223680, Note_on_c, 1, 50, 120
3, 223680, Note_on_c, 1, 38, 120
3, 223868, Note_off_c, 1, 50, 100
3, 223868, Note_off_c, 1, 38, 100
3, 223872, Note_on_c, 1, 39, 120
3, 223964, Note_off_c, 1, 39, 100
3, 223968, Note_on_c, 1, 41, 120
3, 224060, Note_off_c, 1, 41, 100
3, 224064, Note_on_c, 1, 39, 120
3, 224156, Note_off_c, 1, 39, 100
3, 224160, Note_on_c, 1, 38, 120
3, 224252, Note_off_c, 1, 38, 100
3, 224256, Note_on_c, 1, 48, 120
3, 224256, Note_on_c, 1, 36, 120
3, 224444, Note_off_c, 1, 48, 100
3, 224444, Note_off_c, 1, 36, 100
3, 224640, Note_on_c, 1, 59, 80
3, 224640, Note_on_c, 1, 55, 80
3, 224828, Note_off_c, 1, 59, 100
3, 224828, Note_off_c, 1, 55, 100
3, 224832, Note_on_c, 1, 59, 80
3, 224832, Note_on_c, 1, 55, 80
3, 225020, Note_off_c, 1, 59, 100
3, 225020, Note_off_c, 1, 55, 100
3, 225024, Note_on_c, 1, 60, 80
3, 225024, Note_on_c, 1, 55, 80
3, 225212, Note_off_c, 1, 60, 100
3, 225212, Note_off_c, 1, 55, 100
3, 225216, Note_on_c, 1, 59, 80
3, 225216, Note_on_c, 1, 55, 80
3, 225404, Note_off_c, 1, 59, 100
3, 225404, Note_off_c, 1, 55, 100
3, 225600, Note_on_c, 1, 60, 80
3, 225600, Note_on_c, 1, 48, 80
3, 225980, Note_off_c, 1, 60, 100
3, 225980, Note_off_c, 1, 48, 100
3, 226176, Note_on_c, 1, 43, 80
3, 226176, Note_on_c, 1, 31, 80
3, 226364, Note_off_c, 1, 43, 100
3, 226364, Note_off_c, 1, 31, 100
3, 226368, Note_on_c, 1, 43, 80
3, 226368, Note_on_c, 1, 31, 80
3, 226556, Note_off_c, 1, 43, 100
3, 226556, Note_off_c, 1, 31, 100
3, 226560, Note_on_c, 1, 45, 80
3, 226560, Note_on_c, 1, 31, 80
3, 226748, Note_off_c, 1, 45, 100
3, 226748, Note_off_c, 1, 31, 100
3, 226752, Note_on_c, 1, 47, 80
3, 226752, Note_on_c, 1, 31, 80
3, 226940, Note_off_c, 1, 47, 100
3, 226940, Note_off_c, 1, 31, 100
3, 227136, Note_on_c, 1, 48, 80
3, 227136, Note_on_c, 1, 36, 80
3, 227516, Note_off_c, 1, 48, 100
3, 227516, Note_off_c, 1, 36, 100
3, 227616, Note_on_c, 1, 47, 80
3, 227616, Note_on_c, 1, 35, 80
3, 227708, Note_off_c, 1, 47, 100
3, 227708, Note_off_c, 1, 35, 100
3, 227808, Note_on_c, 1, 47, 81
3, 227808, Note_on_c, 1, 35, 81
3, 227900, Note_off_c, 1, 47, 100
3, 227900, Note_off_c, 1, 35, 100
3, 228000, Note_on_c, 1, 47, 83
3, 228000, Note_on_c, 1, 35, 83
3, 228092, Note_off_c, 1, 47, 100
3, 228092, Note_off_c, 1, 35, 100
3, 228192, Note_on_c, 1, 47, 84
3, 228192, Note_on_c, 1, 35, 84
3, 228284, Note_off_c, 1, 47, 100
3, 228284, Note_off_c, 1, 35, 100
3, 228384, Note_on_c, 1, 47, 85
3, 228384, Note_on_c, 1, 35, 85
3, 228476, Note_off_c, 1, 47, 100
3, 228476, Note_off_c, 1, 35, 100
3, 228576, Note_on_c, 1, 48, 86
3, 228576, Note_on_c, 1, 36, 86
3, 228668, Note_off_c, 1, 48, 100
3, 228668, Note_off_c, 1, 36, 100
3, 228768, Note_on_c, 1, 50, 88
3, 228768, Note_on_c, 1, 38, 88
3, 228860, Note_off_c, 1, 50, 100
3, 228860, Note_off_c, 1, 38, 100
3, 228960, Note_on_c, 1, 51, 89
3, 228960, Note_on_c, 1, 39, 89
3, 229052, Note_off_c, 1, 51, 100
3, 229052, Note_off_c, 1, 39, 100
3, 229152, Note_on_c, 1, 50, 90
3, 229152, Note_on_c, 1, 38, 90
3, 229244, Note_off_c, 1, 50, 100
3, 229244, Note_off_c, 1, 38, 100
3, 229344, Note_on_c, 1, 39, 91
3, 229344, Note_on_c, 1, 51, 91
3, 229436, Note_off_c, 1, 39, 100
3, 229436, Note_off_c, 1, 51, 100
3, 229536, Note_on_c, 1, 52, 93
3, 229536, Note_on_c, 1, 40, 93
3, 229628, Note_off_c, 1, 52, 100
3, 229628, Note_off_c, 1, 40, 100
3, 229728, Note_on_c, 1, 53, 94
3, 229728, Note_on_c, 1, 41, 94
3, 229820, Note_off_c, 1, 53, 100
3, 229820, Note_off_c, 1, 41, 100
3, 229920, Note_on_c, 1, 52, 95
3, 229920, Note_on_c, 1, 40, 95
3, 230012, Note_off_c, 1, 52, 100
3, 230012, Note_off_c, 1, 40, 100
3, 230112, Note_on_c, 1, 53, 96
3, 230112, Note_on_c, 1, 41, 96
3, 230204, Note_off_c, 1, 53, 100
3, 230204, Note_off_c, 1, 41, 100
3, 230304, Note_on_c, 1, 55, 97
3, 230304, Note_on_c, 1, 43, 97
3, 230396, Note_off_c, 1, 55, 100
3, 230396, Note_off_c, 1, 43, 100
3, 230496, Note_on_c, 1, 56, 99
3, 230496, Note_on_c, 1, 44, 99
3, 230588, Note_off_c, 1, 56, 100
3, 230588, Note_off_c, 1, 44, 100
3, 230688, Note_on_c, 1, 56, 100
3, 230688, Note_on_c, 1, 53, 100
3, 230780, Note_off_c, 1, 56, 100
3, 230780, Note_off_c, 1, 53, 100
3, 230784, Control_c, 1, 64, 127
3, 230880, Note_on_c, 1, 56, 101
3, 230880, Note_on_c, 1, 53, 101
3, 231068, Note_off_c, 1, 56, 100
3, 231068, Note_off_c, 1, 53, 100
3, 231072, Note_on_c, 1, 61, 102
3, 231072, Note_on_c, 1, 56, 102
3, 231072, Note_on_c, 1, 53, 102
3, 231260, Note_off_c, 1, 61, 100
3, 231260, Note_off_c, 1, 56, 100
3, 231260, Note_off_c, 1, 53, 100
3, 231280, Note_on_c, 1, 61, 104
3, 231280, Note_on_c, 1, 56, 104
3, 231280, Note_on_c, 1, 53, 104
3, 231456, Note_on_c, 1, 61, 105
3, 231456, Note_on_c, 1, 56, 105
3, 231456, Note_on_c, 1, 53, 105
3, 231468, Note_off_c, 1, 61, 100
3, 231468, Note_off_c, 1, 56, 100
3, 231468, Note_off_c, 1, 53, 100
3, 231644, Note_off_c, 1, 61, 100
3, 231644, Note_off_c, 1, 56, 100
3, 231644, Note_off_c, 1, 53, 100
3, 231648, Note_on_c, 1, 61, 106
3, 231648, Note_on_c, 1, 56, 106
3, 231648, Note_on_c, 1, 53, 106
3, 231836, Note_off_c, 1, 61, 100
3, 231836, Note_off_c, 1, 56, 100
3, 231836, Note_off_c, 1, 53, 100
3, 231840, Note_on_c, 1, 61, 107
3, 231840, Note_on_c, 1, 56, 107
3, 231840, Note_on_c, 1, 53, 107
3, 232028, Note_off_c, 1, 61, 100
3, 232028, Note_off_c, 1, 56, 100
3, 232028, Note_off_c, 1, 53, 100
3, 232032, Note_on_c, 1, 61, 109
3, 232032, Note_on_c, 1, 56, 109
3, 232032, Note_on_c, 1, 53, 109
3, 232220, Note_off_c, 1, 61, 100
3, 232220, Note_off_c, 1, 56, 100
3, 232220, Note_off_c, 1, 53, 100
3, 232224, Note_on_c, 1, 56, 110
3, 232224, Note_on_c, 1, 53, 110
3, 232312, Control_c, 1, 64, 0
3, 232316, Note_off_c, 1, 56, 100
3, 232316, Note_off_c, 1, 53, 100
3, 232416, Note_on_c, 1, 56, 108
3, 232416, Note_on_c, 1, 53, 108
3, 232508, Note_off_c, 1, 56, 100
3, 232508, Note_off_c, 1, 53, 100
3, 232608, Note_on_c, 1, 55, 104
3, 232608, Note_on_c, 1, 52, 104
3, 232700, Note_off_c, 1, 55, 100
3, 232700, Note_off_c, 1, 52, 100
3, 232800, Note_on_c, 1, 55, 100
3, 232800, Note_on_c, 1, 52, 100
3, 232892, Note_off_c, 1, 55, 100
3, 232892, Note_off_c, 1, 52, 100
3, 232992, Note_on_c, 1, 55, 96
3, 232992, Note_on_c, 1, 52, 96
3, 233084, Note_off_c, 1, 55, 100
3, 233084, Note_off_c, 1, 52, 100
3, 233088, Note_on_c, 1, 55, 94
3, 233088, Note_on_c, 1, 52, 94
3, 233276, Note_off_c, 1, 55, 100
3, 233276, Note_off_c, 1, 52, 100
3, 233280, Note_on_c, 1, 40, 90
3, 233660, Note_off_c, 1, 40, 100
3, 233664, Note_on_c, 1, 36, 110
3, 233724, Note_off_c, 1, 36, 100
3, 233728, Note_on_c, 1, 38, 110
3, 233788, Note_off_c, 1, 38, 100
3, 233792, Note_on_c, 1, 40, 110
3, 233852, Note_off_c, 1, 40, 100
3, 233856, Note_on_c, 1, 41, 110
3, 233856, Note_on_c, 1, 29, 110
3, 234236, Note_off_c, 1, 41, 100
3, 234236, Note_off_c, 1, 29, 100
3, 234240, Note_on_c, 1, 44, 110
3, 234240, Note_on_c, 1, 32, 110
3, 234620, Note_off_c, 1, 44, 100
3, 234620, Note_off_c, 1, 32, 100
3, 234624, Note_on_c, 1, 40, 110
3, 234624, Note_on_c, 1, 28, 110
3, 235100, Note_off_c, 1, 40, 100
3, 235100, Note_off_c, 1, 28, 100
3, 235104, Note_on_c, 1, 43, 110
3, 235196, Note_off_c, 1, 43, 100
3, 235200, Note_on_c, 1, 46, 110
3, 235292, Note_off_c, 1, 46, 100
3, 235296, Note_on_c, 1, 49, 110
3, 235388, Note_off_c, 1, 49, 100
3, 235392, Note_on_c, 1, 48, 110
3, 235484, Note_off_c, 1, 48, 100
3, 235488, Note_on_c, 1, 49, 110
3, 235580, Note_off_c, 1, 49, 100
3, 235584, Note_on_c, 1, 48, 110
3, 235676, Note_off_c, 1, 48, 100
3, 235680, Note_on_c, 1, 46, 110
3, 235772, Note_off_c, 1, 46, 100
3, 235776, Note_on_c, 1, 44, 110
3, 235868, Note_off_c, 1, 44, 100
3, 235872, Note_on_c, 1, 46, 110
3, 235964, Note_off_c, 1, 46, 100
3, 235968, Note_on_c, 1, 44, 110
3, 236060, Note_off_c, 1, 44, 100
3, 236064, Note_on_c, 1, 43, 110
3, 236156, Note_off_c, 1, 43, 100
3, 236160, Note_on_c, 1, 44, 110
3, 236252, Note_off_c, 1, 44, 100
3, 236256, Note_on_c, 1, 46, 110
3, 236348, Note_off_c, 1, 46, 100
3, 236352, Note_on_c, 1, 44, 110
3, 236444, Note_off_c, 1, 44, 100
3, 236448, Note_on_c, 1, 43, 110
3, 236540, Note_off_c, 1, 43, 100
3, 236544, Note_on_c, 1, 41, 110
3, 236636, Note_off_c, 1, 41, 100
3, 236640, Note_on_c, 1, 44, 110
3, 236732, Note_off_c, 1, 44, 100
3, 236736, Note_on_c, 1, 46, 110
3, 236828, Note_off_c, 1, 46, 100
3, 236832, Note_on_c, 1, 48, 110
3, 236924, Note_off_c, 1, 48, 100
3, 236928, Note_on_c, 1, 49, 110
3, 237020, Note_off_c, 1, 49, 100
3, 237024, Note_on_c, 1, 51, 110
3, 237116, Note_off_c, 1, 51, 100
3, 237120, Note_on_c, 1, 49, 110
3, 237212, Note_off_c, 1, 49, 100
3, 237216, Note_on_c, 1, 48, 110
3, 237308, Note_off_c, 1, 48, 100
3, 237312, Note_on_c, 1, 46, 110
3, 237404, Note_off_c, 1, 46, 100
3, 237408, Note_on_c, 1, 48, 110
3, 237500, Note_off_c, 1, 48, 100
3, 237504, Note_on_c, 1, 46, 110
3, 237596, Note_off_c, 1, 46, 100
3, 237600, Note_on_c, 1, 45, 110
3, 237692, Note_off_c, 1, 45, 100
3, 237696, Note_on_c, 1, 46, 110
3, 237788, Note_off_c, 1, 46, 100
3, 237792, Note_on_c, 1, 48, 110
3, 237884, Note_off_c, 1, 48, 100
3, 237888, Note_on_c, 1, 46, 110
3, 237980, Note_off_c, 1, 46, 100
3, 237984, Note_on_c, 1, 44, 110
3, 238076, Note_off_c, 1, 44, 100
3, 238080, Note_on_c, 1, 43, 110
3, 238172, Note_off_c, 1, 43, 100
3, 238176, Note_on_c, 1, 46, 110
3, 238268, Note_off_c, 1, 46, 100
3, 238272, Note_on_c, 1, 49, 110
3, 238364, Note_off_c, 1, 49, 100
3, 238368, Note_on_c, 1, 53, 110
3, 238460, Note_off_c, 1, 53, 100
3, 238464, Note_on_c, 1, 51, 110
3, 238556, Note_off_c, 1, 51, 100
3, 238560, Note_on_c, 1, 53, 110
3, 238652, Note_off_c, 1, 53, 100
3, 238656, Note_on_c, 1, 51, 110
3, 238748, Note_off_c, 1, 51, 100
3, 238752, Note_on_c, 1, 49, 110
3, 238844, Note_off_c, 1, 49, 100
3, 238848, Note_on_c, 1, 48, 110
3, 238940, Note_off_c, 1, 48, 100
3, 238944, Note_on_c, 1, 49, 110
3, 239036, Note_off_c, 1, 49, 100
3, 239040, Note_on_c, 1, 48, 110
3, 239132, Note_off_c, 1, 48, 100
3, 239136, Note_on_c, 1, 46, 110
3, 239228, Note_off_c, 1, 46, 100
3, 239232, Note_on_c, 1, 48, 110
3, 239324, Note_off_c, 1, 48, 100
3, 239328, Note_on_c, 1, 49, 110
3, 239420, Note_off_c, 1, 49, 100
3, 239424, Note_on_c, 1, 48, 110
3, 239516, Note_off_c, 1, 48, 100
3, 239520, Note_on_c, 1, 46, 110
3, 239612, Note_off_c, 1, 46, 100
3, 239616, Note_on_c, 1, 45, 110
3, 239708, Note_off_c, 1, 45, 100
3, 239712, Note_on_c, 1, 48, 110
3, 239804, Note_off_c, 1, 48, 100
3, 239808, Note_on_c, 1, 51, 110
3, 239900, Note_off_c, 1, 51, 100
3, 239904, Note_on_c, 1, 54, 110
3, 239996, Note_off_c, 1, 54, 100
3, 240000, Note_on_c, 1, 53, 110
3, 240092, Note_off_c, 1, 53, 100
3, 240096, Note_on_c, 1, 54, 110
3, 240188, Note_off_c, 1, 54, 100
3, 240192, Note_on_c, 1, 53, 110
3, 240284, Note_off_c, 1, 53, 100
3, 240288, Note_on_c, 1, 51, 110
3, 240380, Note_off_c, 1, 51, 100
3, 240384, Note_on_c, 1, 49, 110
3, 240476, Note_off_c, 1, 49, 100
3, 240480, Note_on_c, 1, 51, 110
3, 240572, Note_off_c, 1, 51, 100
3, 240576, Note_on_c, 1, 49, 110
3, 240668, Note_off_c, 1, 49, 100
3, 240672, Note_on_c, 1, 48, 110
3, 240764, Note_off_c, 1, 48, 100
3, 240768, Note_on_c, 1, 49, 110
3, 240860, Note_off_c, 1, 49, 100
3, 240864, Note_on_c, 1, 51, 110
3, 240956, Note_off_c, 1, 51, 100
3, 240960, Note_on_c, 1, 49, 110
3, 241052, Note_off_c, 1, 49, 100
3, 241056, Note_on_c, 1, 48, 110
3, 241148, Note_off_c, 1, 48, 100
3, 241152, Note_on_c, 1, 46, 110
3, 241244, Note_off_c, 1, 46, 100
3, 241248, Note_on_c, 1, 49, 110
3, 241340, Note_off_c, 1, 49, 100
3, 241344, Note_on_c, 1, 46, 110
3, 241436, Note_off_c, 1, 46, 100
3, 241440, Note_on_c, 1, 49, 110
3, 241532, Note_off_c, 1, 49, 100
3, 241536, Note_on_c, 1, 48, 110
3, 241628, Note_off_c, 1, 48, 100
3, 241632, Note_on_c, 1, 49, 110
3, 241724, Note_off_c, 1, 49, 100
3, 241728, Note_on_c, 1, 51, 110
3, 241820, Note_off_c, 1, 51, 100
3, 241824, Note_on_c, 1, 49, 110
3, 241916, Note_off_c, 1, 49, 100
3, 241920, Note_on_c, 1, 48, 110
3, 242012, Note_off_c, 1, 48, 100
3, 242016, Note_on_c, 1, 49, 110
3, 242108, Note_off_c, 1, 49, 100
3, 242112, Note_on_c, 1, 48, 110
3, 242204, Note_off_c, 1, 48, 100
3, 242208, Note_on_c, 1, 46, 110
3, 242300, Note_off_c, 1, 46, 100
3, 242304, Note_on_c, 1, 45, 110
3, 242492, Note_off_c, 1, 45, 100
3, 242496, Note_on_c, 1, 53, 110
3, 242496, Note_on_c, 1, 41, 110
3, 242684, Note_off_c, 1, 53, 100
3, 242684, Note_off_c, 1, 41, 100
3, 242688, Note_on_c, 1, 58, 110
3, 242688, Note_on_c, 1, 46, 110
3, 242876, Note_off_c, 1, 58, 100
3, 242876, Note_off_c, 1, 46, 100
3, 242880, Note_on_c, 1, 57, 110
3, 242880, Note_on_c, 1, 45, 110
3, 243068, Note_off_c, 1, 57, 100
3, 243068, Note_off_c, 1, 45, 100
3, 243072, Note_on_c, 1, 58, 110
3, 243072, Note_on_c, 1, 46, 110
3, 243260, Note_off_c, 1, 58, 100
3, 243260, Note_off_c, 1, 46, 100
3, 243264, Note_on_c, 1, 63, 110
3, 243264, Note_on_c, 1, 51, 110
3, 243452, Note_off_c, 1, 63, 100
3, 243452, Note_off_c, 1, 51, 100
3, 243456, Note_on_c, 1, 61, 110
3, 243456, Note_on_c, 1, 49, 110
3, 243644, Note_off_c, 1, 61, 100
3, 243644, Note_off_c, 1, 49, 100
3, 243648, Note_on_c, 1, 58, 110
3, 243648, Note_on_c, 1, 46, 110
3, 243836, Note_off_c, 1, 58, 100
3, 243836, Note_off_c, 1, 46, 100
3, 244032, Note_on_c, 1, 58, 110
3, 244032, Note_on_c, 1, 46, 110
3, 244220, Note_off_c, 1, 58, 100
3, 244220, Note_off_c, 1, 46, 100
3, 244224, Note_on_c, 1, 60, 110
3, 244224, Note_on_c, 1, 48, 110
3, 244412, Note_off_c, 1, 60, 100
3, 244412, Note_off_c, 1, 48, 100
3, 244416, Note_on_c, 1, 58, 110
3, 244416, Note_on_c, 1, 46, 110
3, 244604, Note_off_c, 1, 58, 100
3, 244604, Note_off_c, 1, 46, 100
3, 244608, Note_on_c, 1, 60, 110
3, 244608, Note_on_c, 1, 48, 110
3, 244796, Note_off_c, 1, 60, 100
3, 244796, Note_off_c, 1, 48, 100
3, 244800, Note_on_c, 1, 65, 110
3, 244800, Note_on_c, 1, 53, 110
3, 244988, Note_off_c, 1, 65, 100
3, 244988, Note_off_c, 1, 53, 100
3, 244992, Note_on_c, 1, 63, 110
3, 244992, Note_on_c, 1, 51, 110
3, 245180, Note_off_c, 1, 63, 100
3, 245180, Note_off_c, 1, 51, 100
3, 245184, Note_on_c, 1, 60, 110
3, 245184, Note_on_c, 1, 48, 110
3, 245372, Note_off_c, 1, 60, 100
3, 245372, Note_off_c, 1, 48, 100
3, 245568, Note_on_c, 1, 60, 110
3, 245568, Note_on_c, 1, 48, 110
3, 245756, Note_off_c, 1, 60, 100
3, 245756, Note_off_c, 1, 48, 100
3, 245760, Note_on_c, 1, 61, 110
3, 245760, Note_on_c, 1, 49, 110
3, 245948, Note_off_c, 1, 61, 100
3, 245948, Note_off_c, 1, 49, 100
3, 245952, Note_on_c, 1, 60, 110
3, 245952, Note_on_c, 1, 48, 110
3, 246140, Note_off_c, 1, 60, 100
3, 246140, Note_off_c, 1, 48, 100
3, 246144, Note_on_c, 1, 65, 110
3, 246236, Note_off_c, 1, 65, 100
3, 246240, Note_on_c, 1, 66, 110
3, 246332, Note_off_c, 1, 66, 100
3, 246336, Note_on_c, 1, 65, 110
3, 246428, Note_off_c, 1, 65, 100
3, 246432, Note_on_c, 1, 63, 110
3, 246524, Note_off_c, 1, 63, 100
3, 246528, Note_on_c, 1, 61, 110
3, 246620, Note_off_c, 1, 61, 100
3, 246624, Note_on_c, 1, 63, 110
3, 246716, Note_off_c, 1, 63, 100
3, 246720, Note_on_c, 1, 65, 110
3, 246812, Note_off_c, 1, 65, 100
3, 246816, Note_on_c, 1, 61, 110
3, 246908, Note_off_c, 1, 61, 100
3, 246912, Note_on_c, 1, 68, 110
3, 247004, Note_off_c, 1, 68, 100
3, 247008, Note_on_c, 1, 70, 110
3, 247100, Note_off_c, 1, 70, 100
3, 247104, Note_on_c, 1, 68, 110
3, 247196, Note_off_c, 1, 68, 100
3, 247200, Note_on_c, 1, 67, 110
3, 247292, Note_off_c, 1, 67, 100
3, 247296, Note_on_c, 1, 68, 110
3, 247388, Note_off_c, 1, 68, 100
3, 247392, Note_on_c, 1, 72, 110
3, 247484, Note_off_c, 1, 72, 100
3, 247488, Note_on_c, 1, 75, 110
3, 247580, Note_off_c, 1, 75, 100
3, 247584, Note_on_c, 1, 78, 110
3, 247676, Note_off_c, 1, 78, 100
3, 247680, Note_on_c, 1, 77, 110
3, 247772, Note_off_c, 1, 77, 100
3, 247776, Note_on_c, 1, 78, 110
3, 247868, Note_off_c, 1, 78, 100
3, 247872, Note_on_c, 1, 77, 110
3, 247964, Note_off_c, 1, 77, 100
3, 247968, Note_on_c, 1, 75, 110
3, 248060, Note_off_c, 1, 75, 100
3, 248064, Note_on_c, 1, 73, 110
3, 248156, Note_off_c, 1, 73, 100
3, 248160, Note_on_c, 1, 75, 110
3, 248252, Note_off_c, 1, 75, 100
3, 248256, Note_on_c, 1, 73, 110
3, 248348, Note_off_c, 1, 73, 100
3, 248352, Note_on_c, 1, 72, 110
3, 248444, Note_off_c, 1, 72, 100
3, 248448, Note_on_c, 1, 73, 110
3, 248540, Note_off_c, 1, 73, 100
3, 248544, Note_on_c, 1, 75, 110
3, 248636, Note_off_c, 1, 75, 100
3, 248640, Note_on_c, 1, 73, 110
3, 248732, Note_off_c, 1, 73, 100
3, 248736, Note_on_c, 1, 71, 110
3, 248828, Note_off_c, 1, 71, 100
3, 248832, Note_on_c, 1, 70, 110
3, 248924, Note_off_c, 1, 70, 100
3, 248928, Note_on_c, 1, 74, 110
3, 249020, Note_off_c, 1, 74, 100
3, 249024, Note_on_c, 1, 77, 110
3, 249116, Note_off_c, 1, 77, 100
3, 249120, Note_on_c, 1, 80, 110
3, 249212, Note_off_c, 1, 80, 100
3, 249216, Note_on_c, 1, 78, 110
3, 249308, Note_off_c, 1, 78, 100
3, 249312, Note_on_c, 1, 80, 110
3, 249404, Note_off_c, 1, 80, 100
3, 249408, Note_on_c, 1, 78, 110
3, 249500, Note_off_c, 1, 78, 100
3, 249504, Note_on_c, 1, 77, 110
3, 249596, Note_off_c, 1, 77, 100
3, 249600, Note_on_c, 1, 75, 110
3, 249692, Note_off_c, 1, 75, 100
3, 249696, Note_on_c, 1, 77, 110
3, 249788, Note_off_c, 1, 77, 100
3, 249792, Note_on_c, 1, 75, 110
3, 249884, Note_off_c, 1, 75, 100
3, 249888, Note_on_c, 1, 74, 110
3, 249980, Note_off_c, 1, 74, 100
3, 249984, Note_on_c, 1, 75, 110
3, 250076, Note_off_c, 1, 75, 100
3, 250080, Note_on_c, 1, 77, 110
3, 250172, Note_off_c, 1, 77, 100
3, 250176, Note_on_c, 1, 75, 110
3, 250268, Note_off_c, 1, 75, 100
3, 250272, Note_on_c, 1, 73, 110
3, 250364, Note_off_c, 1, 73, 100
3, 250368, Note_on_c, 1, 72, 110
3, 250460, Note_off_c, 1, 72, 100
3, 250464, Note_on_c, 1, 76, 110
3, 250556, Note_off_c, 1, 76, 100
3, 250560, Note_on_c, 1, 79, 110
3, 250652, Note_off_c, 1, 79, 100
3, 250656, Note_on_c, 1, 77, 110
3, 250748, Note_off_c, 1, 77, 100
3, 250752, Note_on_c, 1, 76, 110
3, 250844, Note_off_c, 1, 76, 100
3, 250848, Note_on_c, 1, 77, 110
3, 250940, Note_off_c, 1, 77, 100
3, 250944, Note_on_c, 1, 76, 110
3, 251036, Note_off_c, 1, 76, 100
3, 251040, Note_on_c, 1, 79, 110
3, 251132, Note_off_c, 1, 79, 100
3, 251136, Note_on_c, 1, 77, 110
3, 251228, Note_off_c, 1, 77, 100
3, 251232, Note_on_c, 1, 79, 110
3, 251324, Note_off_c, 1, 79, 100
3, 251328, Note_on_c, 1, 77, 110
3, 251420, Note_off_c, 1, 77, 100
3, 251424, Note_on_c, 1, 76, 110
3, 251516, Note_off_c, 1, 76, 100
3, 251520, Note_on_c, 1, 77, 110
3, 251612, Note_off_c, 1, 77, 100
3, 251616, Note_on_c, 1, 79, 110
3, 251708, Note_off_c, 1, 79, 100
3, 251712, Note_on_c, 1, 77, 110
3, 251804, Note_off_c, 1, 77, 100
3, 251808, Note_on_c, 1, 75, 110
3, 251900, Note_off_c, 1, 75, 100
3, 251904, Note_on_c, 1, 74, 110
3, 251996, Note_off_c, 1, 74, 100
3, 252000, Note_on_c, 1, 78, 110
3, 252092, Note_off_c, 1, 78, 100
3, 252096, Note_on_c, 1, 81, 110
3, 252188, Note_off_c, 1, 81, 100
3, 252192, Note_on_c, 1, 84, 110
3, 252284, Note_off_c, 1, 84, 100
3, 252288, Note_on_c, 1, 82, 110
3, 252380, Note_off_c, 1, 82, 100
3, 252384, Note_on_c, 1, 84, 110
3, 252476, Note_off_c, 1, 84, 100
3, 252480, Note_on_c, 1, 82, 110
3, 252572, Note_off_c, 1, 82, 100
3, 252576, Note_on_c, 1, 81, 110
3, 252668, Note_off_c, 1, 81, 100
3, 252672, Note_on_c, 1, 79, 110
3, 252764, Note_off_c, 1, 79, 100
3, 252768, Note_on_c, 1, 81, 110
3, 252860, Note_off_c, 1, 81, 100
3, 252864, Note_on_c, 1, 79, 110
3, 252956, Note_off_c, 1, 79, 100
3, 252960, Note_on_c, 1, 78, 110
3, 253052, Note_off_c, 1, 78, 100
3, 253056, Note_on_c, 1, 79, 110
3, 253148, Note_off_c, 1, 79, 100
3, 253152, Note_on_c, 1, 81, 110
3, 253244, Note_off_c, 1, 81, 100
3, 253248, Note_on_c, 1, 79, 110
3, 253340, Note_off_c, 1, 79, 100
3, 253344, Note_on_c, 1, 78, 110
3, 253436, Note_off_c, 1, 78, 100
3, 253440, Note_on_c, 1, 79, 110
3, 253532, Note_off_c, 1, 79, 100
3, 253536, Note_on_c, 1, 83, 110
3, 253628, Note_off_c, 1, 83, 100
3, 253632, Note_on_c, 1, 86, 110
3, 253724, Note_off_c, 1, 86, 100
3, 253728, Note_on_c, 1, 89, 110
3, 253820, Note_off_c, 1, 89, 100
3, 253824, Note_on_c, 1, 87, 110
3, 253916, Note_off_c, 1, 87, 100
3, 253920, Note_on_c, 1, 89, 110
3, 254012, Note_off_c, 1, 89, 100
3, 254016, Note_on_c, 1, 87, 110
3, 254108, Note_off_c, 1, 87, 100
3, 254112, Note_on_c, 1, 86, 110
3, 254204, Note_off_c, 1, 86, 100
3, 254208, Note_on_c, 1, 84, 110
3, 254300, Note_off_c, 1, 84, 100
3, 254304, Note_on_c, 1, 86, 110
3, 254396, Note_off_c, 1, 86, 100
3, 254400, Note_on_c, 1, 84, 110
3, 254492, Note_off_c, 1, 84, 100
3, 254496, Note_on_c, 1, 83, 110
3, 254588, Note_off_c, 1, 83, 100
3, 254592, Note_on_c, 1, 84, 110
3, 254684, Note_off_c, 1, 84, 100
3, 254688, Note_on_c, 1, 86, 110
3, 254780, Note_off_c, 1, 86, 100
3, 254784, Note_on_c, 1, 84, 110
3, 254876, Note_off_c, 1, 84, 100
3, 254880, Note_on_c, 1, 83, 110
3, 254972, Note_off_c, 1, 83, 100
3, 254976, Note_on_c, 1, 84, 110
3, 255164, Note_off_c, 1, 84, 100
3, 255168, Note_on_c, 1, 43, 110
3, 255260, Note_off_c, 1, 43, 100
3, 255264, Note_on_c, 1, 41, 110
3, 255356, Note_off_c, 1, 41, 100
3, 255360, Control_c, 1, 64, 127
3, 255360, Note_on_c, 1, 43, 110
3, 255360, Note_on_c, 1, 39, 110
3, 255456, Note_on_c, 1, 48, 110
3, 255548, Note_off_c, 1, 43, 100
3, 255548, Note_off_c, 1, 39, 100
3, 255552, Note_on_c, 1, 43, 110
3, 255552, Note_on_c, 1, 39, 110
3, 255644, Note_off_c, 1, 48, 100
3, 255648, Note_on_c, 1, 48, 110
3, 255740, Note_off_c, 1, 43, 100
3, 255740, Note_off_c, 1, 39, 100
3, 255744, Note_on_c, 1, 43, 110
3, 255744, Note_on_c, 1, 39, 110
3, 255836, Note_off_c, 1, 48, 100
3, 255840, Note_on_c, 1, 48, 110
3, 255932, Note_off_c, 1, 43, 100
3, 255932, Note_off_c, 1, 39, 100
3, 255936, Note_on_c, 1, 43, 110
3, 255936, Note_on_c, 1, 39, 110
3, 256028, Note_off_c, 1, 48, 100
3, 256032, Note_on_c, 1, 48, 110
3, 256120, Control_c, 1, 64, 0
3, 256124, Note_off_c, 1, 43, 100
3, 256124, Note_off_c, 1, 39, 100
3, 256124, Note_off_c, 1, 48, 100
3, 256128, Control_c, 1, 64, 127
3, 256128, Note_on_c, 1, 46, 110
3, 256128, Note_on_c, 1, 43, 110
3, 256128, Note_on_c, 1, 40, 110
3, 256224, Note_on_c, 1, 48, 110
3, 256316, Note_off_c, 1, 46, 100
3, 256316, Note_off_c, 1, 43, 100
3, 256316, Note_off_c, 1, 40, 100
3, 256320, Note_on_c, 1, 46, 110
3, 256320, Note_on_c, 1, 43, 110
3, 256320, Note_on_c, 1, 40, 110
3, 256412, Note_off_c, 1, 48, 100
3, 256416, Note_on_c, 1, 48, 110
3, 256508, Note_off_c, 1, 46, 100
3, 256508, Note_off_c, 1, 43, 100
3, 256508, Note_off_c, 1, 40, 100
3, 256512, Note_on_c, 1, 46, 110
3, 256512, Note_on_c, 1, 43, 110
3, 256512, Note_on_c, 1, 40, 110
3, 256604, Note_off_c, 1, 48, 100
3, 256608, Note_on_c, 1, 48, 110
3, 256700, Note_off_c, 1, 46, 100
3, 256700, Note_off_c, 1, 43, 100
3, 256700, Note_off_c, 1, 40, 100
3, 256704, Note_on_c, 1, 46, 110
3, 256704, Note_on_c, 1, 43, 110
3, 256704, Note_on_c, 1, 40, 110
3, 256796, Note_off_c, 1, 48, 100
3, 256800, Note_on_c, 1, 48, 110
3, 256888, Control_c, 1, 64, 0
3, 256892, Note_off_c, 1, 46, 100
3, 256892, Note_off_c, 1, 43, 100
3, 256892, Note_off_c, 1, 40, 100
3, 256892, Note_off_c, 1, 48, 100
3, 256896, Control_c, 1, 64, 127
3, 256896, Note_on_c, 1, 44, 110
3, 256896, Note_on_c, 1, 41, 110
3, 256992, Note_on_c, 1, 48, 110
3, 257084, Note_off_c, 1, 44, 100
3, 257084, Note_off_c, 1, 41, 100
3, 257088, Note_on_c, 1, 44, 110
3, 257088, Note_on_c, 1, 41, 110
3, 257180, Note_off_c, 1, 48, 100
3, 257184, Note_on_c, 1, 48, 110
3, 257276, Note_off_c, 1, 44, 100
3, 257276, Note_off_c, 1, 41, 100
3, 257280, Note_on_c, 1, 44, 110
3, 257280, Note_on_c, 1, 41, 110
3, 257372, Note_off_c, 1, 48, 100
3, 257376, Note_on_c, 1, 48, 110
3, 257468, Note_off_c, 1, 44, 100
3, 257468, Note_off_c, 1, 41, 100
3, 257472, Note_on_c, 1, 44, 110
3, 257472, Note_on_c, 1, 41, 110
3, 257564, Note_off_c, 1, 48, 100
3, 257568, Note_on_c, 1, 48, 110
3, 257656, Control_c, 1, 64, 0
3, 257660, Note_off_c, 1, 44, 100
3, 257660, Note_off_c, 1, 41, 100
3, 257660, Note_off_c, 1, 48, 100
3, 257664, Control_c, 1, 64, 127
3, 257664, Note_on_c, 1, 48, 110
3, 257664, Note_on_c, 1, 45, 110
3, 257664, Note_on_c, 1, 42, 110
3, 257760, Note_on_c, 1, 51, 110
3, 257852, Note_off_c, 1, 48, 100
3, 257852, Note_off_c, 1, 45, 100
3, 257852, Note_off_c, 1, 42, 100
3, 257856, Note_on_c, 1, 48, 110
3, 257856, Note_on_c, 1, 45, 110
3, 257856, Note_on_c, 1, 42, 110
3, 257948, Note_off_c, 1, 51, 100
3, 257952, Note_on_c, 1, 51, 110
3, 258044, Note_off_c, 1, 48, 100
3, 258044, Note_off_c, 1, 45, 100
3, 258044, Note_off_c, 1, 42, 100
3, 258048, Note_on_c, 1, 48, 110
3, 258048, Note_on_c, 1, 45, 110
3, 258048, Note_on_c, 1, 42, 110
3, 258140, Note_off_c, 1, 51, 100
3, 258144, Note_on_c, 1, 51, 110
3, 258236, Note_off_c, 1, 48, 100
3, 258236, Note_off_c, 1, 45, 100
3, 258236, Note_off_c, 1, 42, 100
3, 258240, Note_on_c, 1, 48, 110
3, 258240, Note_on_c, 1, 45, 110
3, 258240, Note_on_c, 1, 42, 110
3, 258332, Note_off_c, 1, 51, 100
3, 258336, Note_on_c, 1, 51, 110
3, 258424, Control_c, 1, 64, 0
3, 258428, Note_off_c, 1, 48, 100
3, 258428, Note_off_c, 1, 45, 100
3, 258428, Note_off_c, 1, 42, 100
3, 258428, Note_off_c, 1, 51, 100
3, 258432, Control_c, 1, 64, 127
3, 258432, Note_on_c, 1, 43, 110
3, 258432, Note_on_c, 1, 31, 110
3, 259868, Note_off_c, 1, 43, 100
3, 259868, Note_off_c, 1, 31, 100
3, 259872, Note_on_c, 1, 67, 80
3, 259872, Note_on_c, 1, 64, 80
3, 259872, Note_on_c, 1, 55, 80
3, 259960, Control_c, 1, 64, 0
3, 259964, Note_off_c, 1, 67, 100
3, 259964, Note_off_c, 1, 64, 100
3, 259964, Note_off_c, 1, 55, 100
3, 259968, Note_on_c, 1, 65, 80
3, 259968, Note_on_c, 1, 62, 80
3, 259968, Note_on_c, 1, 55, 80
3, 260540, Note_off_c, 1, 65, 100
3, 260540, Note_off_c, 1, 62, 100
3, 260540, Note_off_c, 1, 55, 100
3, 260640, Note_on_c, 1, 64, 80
3, 260640, Note_on_c, 1, 60, 80
3, 260640, Note_on_c, 1, 55, 80
3, 260732, Note_off_c, 1, 64, 100
3, 260732, Note_off_c, 1, 60, 100
3, 260732, Note_off_c, 1, 55, 100
3, 260736, Note_on_c, 1, 64, 80
3, 260736, Note_on_c, 1, 60, 80
3, 260736, Note_on_c, 1, 55, 80
3, 261116, Note_off_c, 1, 64, 100
3, 261116, Note_off_c, 1, 60, 100
3, 261116, Note_off_c, 1, 55, 100
3, 261120, Note_on_c, 1, 62, 80
3, 261120, Note_on_c, 1, 59, 80
3, 261120, Note_on_c, 1, 55, 80
3, 261308, Note_off_c, 1, 62, 100
3, 261308, Note_off_c, 1, 59, 100
3, 261308, Note_off_c, 1, 55, 100
3, 261408, Note_on_c, 1, 62, 80
3, 261408, Note_on_c, 1, 59, 80
3, 261408, Note_on_c, 1, 55, 80
3, 261500, Note_off_c, 1, 62, 100
3, 261500, Note_off_c, 1, 59, 100
3, 261500, Note_off_c, 1, 55, 100
3, 261504, Note_on_c, 1, 62, 80
3, 261504, Note_on_c, 1, 59, 80
3, 261504, Note_on_c, 1, 55, 80
3, 261884, Note_off_c, 1, 62, 100
3, 261884, Note_off_c, 1, 59, 100
3, 261884, Note_off_c, 1, 55, 100
3, 261888, Note_on_c, 1, 64, 80
3, 261888, Note_on_c, 1, 60, 80
3, 261888, Note_on_c, 1, 55, 80
3, 262268, Note_off_c, 1, 64, 100
3, 262268, Note_off_c, 1, 60, 100
3, 262268, Note_off_c, 1, 55, 100
3, 263040, Note_on_c, 1, 53, 80
3, 263040, Note_on_c, 1, 50, 80
3, 263040, Note_on_c, 1, 43, 80
3, 263612, Note_off_c, 1, 53, 100
3, 263612, Note_off_c, 1, 50, 100
3, 263612, Note_off_c, 1, 43, 100
3, 263712, Note_on_c, 1, 53, 80
3, 263712, Note_on_c, 1, 48, 80
3, 263712, Note_on_c, 1, 43, 80
3, 263804, Note_off_c, 1, 53, 100
3, 263804, Note_off_c, 1, 48, 100
3, 263804, Note_off_c, 1, 43, 100
3, 263808, Note_on_c, 1, 53, 80
3, 263808, Note_on_c, 1, 47, 80
3, 263808, Note_on_c, 1, 43, 80
3, 264380, Note_off_c, 1, 53, 100
3, 264380, Note_off_c, 1, 47, 100
3, 264380, Note_off_c, 1, 43, 100
3, 264480, Note_on_c, 1, 62, 80
3, 264480, Note_on_c, 1, 55, 80
3, 264572, Note_off_c, 1, 62, 100
3, 264572, Note_off_c, 1, 55, 100
3, 264576, Note_on_c, 1, 62, 80
3, 264576, Note_on_c, 1, 56, 80
3, 264956, Note_off_c, 1, 62, 100
3, 264956, Note_off_c, 1, 56, 100
3, 264960, Note_on_c, 1, 60, 80
3, 264960, Note_on_c, 1, 57, 80
3, 265340, Note_off_c, 1, 60, 100
3, 265340, Note_off_c, 1, 57, 100
3, 266016, Note_on_c, 1, 59, 80
3, 266016, Note_on_c, 1, 55, 80
3, 266016, Note_on_c, 1, 53, 80
3, 266108, Note_off_c, 1, 59, 100
3, 266108, Note_off_c, 1, 55, 100
3, 266108, Note_off_c, 1, 53, 100
3, 266112, Note_on_c, 1, 59, 80
3, 266112, Note_on_c, 1, 55, 80
3, 266112, Note_on_c, 1, 53, 80
3, 266492, Note_off_c, 1, 59, 100
3, 266492, Note_off_c, 1, 55, 100
3, 266492, Note_off_c, 1, 53, 100
3, 266496, Note_on_c, 1, 60, 80
3, 266496, Note_on_c, 1, 55, 80
3, 266496, Note_on_c, 1, 52, 80
3, 266876, Note_off_c, 1, 60, 100
3, 266876, Note_off_c, 1, 55, 100
3, 266876, Note_off_c, 1, 52, 100
3, 267552, Note_on_c, 1, 71, 80
3, 267552, Note_on_c, 1, 65, 80
3, 267644, Note_off_c, 1, 71, 100
3, 267644, Note_off_c, 1, 65, 100
3, 267648, Note_on_c, 1, 71, 80
3, 267648, Note_on_c, 1, 65, 80
3, 268028, Note_off_c, 1, 71, 100
3, 268028, Note_off_c, 1, 65, 100
3, 268032, Note_on_c, 1, 70, 80
3, 268032, Note_on_c, 1, 64, 80
3, 268796, Note_off_c, 1, 70, 100
3, 268796, Note_off_c, 1, 64, 100
3, 268800, Note_on_c, 1, 70, 80
3, 268800, Note_on_c, 1, 67, 80
3, 268800, Note_on_c, 1, 61, 80
3, 269564, Note_off_c, 1, 61, 100
3, 269564, Note_off_c, 1, 67, 100
3, 269564, Note_off_c, 1, 70, 100
3, 269568, Note_on_c, 1, 70, 80
3, 269568, Note_on_c, 1, 67, 80
3, 269568, Note_on_c, 1, 61, 80
3, 270524, Note_off_c, 1, 70, 100
3, 270524, Note_off_c, 1, 67, 100
3, 270524, Note_off_c, 1, 61, 100
3, 270528, Note_on_c, 1, 68, 120
3, 270528, Note_on_c, 1, 65, 120
3, 270528, Note_on_c, 1, 61, 120
3, 270716, Note_off_c, 1, 68, 100
3, 270716, Note_off_c, 1, 65, 100
3, 270716, Note_off_c, 1, 61, 100
3, 270720, Note_on_c, 1, 60, 80
3, 270720, Note_on_c, 1, 48, 80
3, 271868, Note_off_c, 1, 60, 100
3, 271868, Note_off_c, 1, 48, 100
3, 271872, Note_on_c, 1, 56, 80
3, 271872, Note_on_c, 1, 44, 80
3, 272156, Note_off_c, 1, 56, 100
3, 272156, Note_off_c, 1, 44, 100
3, 272160, Note_on_c, 1, 53, 80
3, 272160, Note_on_c, 1, 41, 80
3, 272252, Note_off_c, 1, 53, 100
3, 272252, Note_off_c, 1, 41, 100
3, 272256, Note_on_c, 1, 53, 80
3, 272256, Note_on_c, 1, 41, 80
3, 272636, Note_off_c, 1, 53, 100
3, 272636, Note_off_c, 1, 41, 100
3, 272640, Note_on_c, 1, 52, 80
3, 272640, Note_on_c, 1, 40, 80
3, 272828, Note_off_c, 1, 52, 100
3, 272828, Note_off_c, 1, 40, 100
3, 272928, Note_on_c, 1, 49, 80
3, 272928, Note_on_c, 1, 37, 80
3, 273020, Note_off_c, 1, 49, 100
3, 273020, Note_off_c, 1, 37, 100
3, 273024, Note_on_c, 1, 49, 80
3, 273024, Note_on_c, 1, 37, 80
3, 273404, Note_off_c, 1, 49, 100
3, 273404, Note_off_c, 1, 37, 100
3, 273408, Note_on_c, 1, 48, 80
3, 273408, Note_on_c, 1, 36, 80
3, 273596, Note_off_c, 1, 48, 100
3, 273596, Note_off_c, 1, 36, 100
3, 273696, Note_on_c, 1, 58, 80
3, 273696, Note_on_c, 1, 46, 80
3, 273788, Note_off_c, 1, 58, 100
3, 273788, Note_off_c, 1, 46, 100
3, 273792, Note_on_c, 1, 58, 80
3, 273792, Note_on_c, 1, 46, 80
3, 274172, Note_off_c, 1, 58, 100
3, 274172, Note_off_c, 1, 46, 100
3, 274176, Note_on_c, 1, 56, 80
3, 274176, Note_on_c, 1, 44, 80
3, 274556, Note_off_c, 1, 56, 100
3, 274556, Note_off_c, 1, 44, 100
3, 275328, Note_on_c, 1, 60, 80
3, 275328, Note_on_c, 1, 55, 80
3, 275328, Note_on_c, 1, 48, 80
3, 275900, Note_off_c, 1, 60, 100
3, 275900, Note_off_c, 1, 55, 100
3, 275900, Note_off_c, 1, 48, 100
3, 276000, Note_on_c, 1, 60, 80
3, 276000, Note_on_c, 1, 53, 80
3, 276000, Note_on_c, 1, 48, 80
3, 276092, Note_off_c, 1, 60, 100
3, 276092, Note_off_c, 1, 53, 100
3, 276092, Note_off_c, 1, 48, 100
3, 276096, Note_on_c, 1, 51, 80
3, 276096, Note_on_c, 1, 60, 80
3, 276096, Note_on_c, 1, 48, 80
3, 276668, Note_off_c, 1, 51, 100
3, 276668, Note_off_c, 1, 60, 100
3, 276768, Note_on_c, 1, 60, 80
3, 276768, Note_on_c, 1, 55, 80
3, 276768, Note_on_c, 1, 51, 80
3, 276860, Note_off_c, 1, 60, 100
3, 276860, Note_off_c, 1, 55, 100
3, 276860, Note_off_c, 1, 51, 100
3, 276864, Note_off_c, 1, 48, 100
3, 276864, Note_on_c, 1, 60, 80
3, 276864, Note_on_c, 1, 56, 80
3, 276864, Note_on_c, 1, 53, 80
3, 277052, Note_off_c, 1, 60, 100
3, 277052, Note_off_c, 1, 56, 100
3, 277052, Note_off_c, 1, 53, 100
3, 277056, Note_on_c, 1, 60, 81
3, 277056, Note_on_c, 1, 56, 81
3, 277056, Note_on_c, 1, 53, 81
3, 277244, Note_off_c, 1, 60, 100
3, 277244, Note_off_c, 1, 56, 100
3, 277244, Note_off_c, 1, 53, 100
3, 277440, Note_on_c, 1, 63, 83
3, 277440, Note_on_c, 1, 57, 83
3, 277440, Note_on_c, 1, 54, 83
3, 277628, Note_off_c, 1, 63, 100
3, 277628, Note_off_c, 1, 57, 100
3, 277628, Note_off_c, 1, 54, 100
3, 277632, Note_on_c, 1, 62, 85
3, 277632, Note_on_c, 1, 59, 85
3, 277632, Note_on_c, 1, 55, 85
3, 277820, Note_off_c, 1, 62, 100
3, 277820, Note_off_c, 1, 59, 100
3, 277820, Note_off_c, 1, 55, 100
3, 277824, Note_on_c, 1, 62, 86
3, 277824, Note_on_c, 1, 59, 86
3, 277824, Note_on_c, 1, 55, 86
3, 278012, Note_off_c, 1, 62, 100
3, 278012, Note_off_c, 1, 59, 100
3, 278012, Note_off_c, 1, 55, 100
3, 278208, Note_on_c, 1, 65, 89
3, 278208, Note_on_c, 1, 59, 89
3, 278208, Note_on_c, 1, 55, 89
3, 278396, Note_off_c, 1, 65, 100
3, 278396, Note_off_c, 1, 59, 100
3, 278396, Note_off_c, 1, 55, 100
3, 278400, Note_on_c, 1, 63, 90
3, 278400, Note_on_c, 1, 60, 90
3, 278400, Note_on_c, 1, 56, 90
3, 278588, Note_off_c, 1, 63, 100
3, 278588, Note_off_c, 1, 60, 100
3, 278588, Note_off_c, 1, 56, 100
3, 278592, Note_on_c, 1, 63, 91
3, 278592, Note_on_c, 1, 60, 91
3, 278592, Note_on_c, 1, 56, 91
3, 278780, Note_off_c, 1, 63, 100
3, 278780, Note_off_c, 1, 60, 100
3, 278780, Note_off_c, 1, 56, 100
3, 278976, Note_on_c, 1, 65, 94
3, 278976, Note_on_c, 1, 60, 94
3, 278976, Note_on_c, 1, 57, 94
3, 279164, Note_off_c, 1, 65, 100
3, 279164, Note_off_c, 1, 60, 100
3, 279164, Note_off_c, 1, 57, 100
3, 279168, Note_on_c, 1, 65, 95
3, 279168, Note_on_c, 1, 62, 95
3, 279168, Note_on_c, 1, 58, 95
3, 279356, Note_off_c, 1, 65, 100
3, 279356, Note_off_c, 1, 62, 100
3, 279356, Note_off_c, 1, 58, 100
3, 279360, Note_on_c, 1, 65, 97
3, 279360, Note_on_c, 1, 62, 97
3, 279360, Note_on_c, 1, 58, 97
3, 279548, Note_off_c, 1, 65, 100
3, 279548, Note_off_c, 1, 62, 100
3, 279548, Note_off_c, 1, 58, 100
3, 279744, Note_on_c, 1, 67, 99
3, 279744, Note_on_c, 1, 62, 99
3, 279744, Note_on_c, 1, 59, 99
3, 279932, Note_off_c, 1, 67, 100
3, 279932, Note_off_c, 1, 62, 100
3, 279932, Note_off_c, 1, 59, 100
3, 279936, Note_on_c, 1, 67, 101
3, 279936, Note_on_c, 1, 63, 101
3, 279936, Note_on_c, 1, 60, 101
3, 280124, Note_off_c, 1, 67, 100
3, 280124, Note_off_c, 1, 63, 100
3, 280124, Note_off_c, 1, 60, 100
3, 280128, Note_on_c, 1, 67, 102
3, 280128, Note_on_c, 1, 63, 102
3, 280128, Note_on_c, 1, 60, 102
3, 280316, Note_off_c, 1, 67, 100
3, 280316, Note_off_c, 1, 63, 100
3, 280316, Note_off_c, 1, 60, 100
3, 280512, Note_on_c, 1, 67, 105
3, 280512, Note_on_c, 1, 63, 105
3, 280512, Note_on_c, 1, 60, 105
3, 280700, Note_off_c, 1, 67, 100
3, 280700, Note_off_c, 1, 63, 100
3, 280700, Note_off_c, 1, 60, 100
3, 280704, Note_on_c, 1, 71, 106
3, 280704, Note_on_c, 1, 68, 106
3, 280704, Note_on_c, 1, 65, 106
3, 280704, Note_on_c, 1, 62, 106
3, 280892, Note_off_c, 1, 71, 100
3, 280892, Note_off_c, 1, 68, 100
3, 280892, Note_off_c, 1, 65, 100
3, 280892, Note_off_c, 1, 62, 100
3, 280896, Note_on_c, 1, 71, 107
3, 280896, Note_on_c, 1, 68, 107
3, 280896, Note_on_c, 1, 65, 107
3, 280896, Note_on_c, 1, 62, 107
3, 281084, Note_off_c, 1, 71, 100
3, 281084, Note_off_c, 1, 68, 100
3, 281084, Note_off_c, 1, 65, 100
3, 281084, Note_off_c, 1, 62, 100
3, 281280, Note_on_c, 1, 71, 110
3, 281280, Note_on_c, 1, 68, 110
3, 281280, Note_on_c, 1, 65, 110
3, 281280, Note_on_c, 1, 62, 110
3, 281468, Note_off_c, 1, 71, 100
3, 281468, Note_off_c, 1, 68, 100
3, 281468, Note_off_c, 1, 65, 100
3, 281468, Note_off_c, 1, 62, 100
3, 281472, Note_on_c, 1, 72, 111
3, 281472, Note_on_c, 1, 67, 111
3, 281472, Note_on_c, 1, 63, 111
3, 281660, Note_off_c, 1, 72, 100
3, 281660, Note_off_c, 1, 67, 100
3, 281660, Note_off_c, 1, 63, 100
3, 281664, Note_on_c, 1, 72, 113
3, 281664, Note_on_c, 1, 67, 113
3, 281664, Note_on_c, 1, 63, 113
3, 281852, Note_off_c, 1, 72, 100
3, 281852, Note_off_c, 1, 67, 100
3, 281852, Note_off_c, 1, 63, 100
3, 282048, Note_on_c, 1, 72, 115
3, 282048, Note_on_c, 1, 67, 115
3, 282048, Note_on_c, 1, 64, 115
3, 282236, Note_off_c, 1, 72, 100
3, 282236, Note_off_c, 1, 67, 100
3, 282236, Note_off_c, 1, 64, 100
3, 282240, Note_on_c, 1, 72, 117
3, 282240, Note_on_c, 1, 68, 117
3, 282240, Note_on_c, 1, 65, 117
3, 282428, Note_off_c, 1, 72, 100
3, 282428, Note_off_c, 1, 68, 100
3, 282428, Note_off_c, 1, 65, 100
3, 282432, Note_on_c, 1, 72, 118
3, 282432, Note_on_c, 1, 68, 118
3, 282432, Note_on_c, 1, 65, 118
3, 282620, Note_off_c, 1, 72, 100
3, 282620, Note_off_c, 1, 68, 100
3, 282620, Note_off_c, 1, 65, 100
3, 282816, Note_on_c, 1, 74, 120
3, 282816, Note_on_c, 1, 68, 120
3, 282816, Note_on_c, 1, 65, 120
3, 283004, Note_off_c, 1, 74, 100
3, 283004, Note_off_c, 1, 68, 100
3, 283004, Note_off_c, 1, 65, 100
3, 283008, Note_on_c, 1, 75, 120
3, 283008, Note_on_c, 1, 69, 120
3, 283008, Note_on_c, 1, 66, 120
3, 283196, Note_off_c, 1, 75, 100
3, 283196, Note_off_c, 1, 69, 100
3, 283196, Note_off_c, 1, 66, 100
3, 283200, Note_on_c, 1, 81, 120
3, 283292, Note_off_c, 1, 81, 100
3, 283300, Note_on_c, 1, 84, 120
3, 283392, Note_off_c, 1, 84, 100
3, 283392, Note_on_c, 1, 78, 120
3, 283484, Note_off_c, 1, 78, 100
3, 283488, Note_on_c, 1, 81, 120
3, 283580, Note_off_c, 1, 81, 100
3, 283584, Note_on_c, 1, 75, 120
3, 283676, Note_off_c, 1, 75, 100
3, 283680, Note_on_c, 1, 78, 120
3, 283772, Note_off_c, 1, 78, 100
3, 283776, Note_on_c, 1, 72, 120
3, 283868, Note_off_c, 1, 72, 100
3, 283872, Note_on_c, 1, 75, 120
3, 283964, Note_off_c, 1, 75, 100
3, 283968, Note_on_c, 1, 69, 120
3, 284060, Note_off_c, 1, 69, 100
3, 284064, Note_on_c, 1, 72, 120
3, 284156, Note_off_c, 1, 72, 100
3, 284160, Note_on_c, 1, 66, 120
3, 284252, Note_off_c, 1, 66, 100
3, 284256, Note_on_c, 1, 69, 120
3, 284348, Note_off_c, 1, 69, 100
3, 284352, Note_on_c, 1, 63, 120
3, 284444, Note_off_c, 1, 63, 100
3, 284448, Note_on_c, 1, 66, 120
3, 284540, Note_off_c, 1, 66, 100
3, 284544, Note_on_c, 1, 62, 120
3, 284636, Note_off_c, 1, 62, 100
3, 284640, Note_on_c, 1, 65, 120
3, 284732, Note_off_c, 1, 65, 100
3, 284736, Note_on_c, 1, 59, 120
3, 284828, Note_off_c, 1, 59, 100
3, 284832, Note_on_c, 1, 62, 120
3, 284924, Note_off_c, 1, 62, 100
3, 284928, Note_on_c, 1, 56, 120
3, 285020, Note_off_c, 1, 56, 100
3, 285024, Note_on_c, 1, 59, 120
3, 285116, Note_off_c, 1, 59, 100
3, 285120, Note_on_c, 1, 53, 120
3, 285212, Note_off_c, 1, 53, 100
3, 285216, Note_on_c, 1, 56, 120
3, 285308, Note_off_c, 1, 56, 100
3, 285312, Note_on_c, 1, 50, 120
3, 285404, Note_off_c, 1, 50, 100
3, 285408, Note_on_c, 1, 53, 120
3, 285500, Note_off_c, 1, 53, 100
3, 285504, Note_on_c, 1, 47, 120
3, 285596, Note_off_c, 1, 47, 100
3, 285600, Note_on_c, 1, 50, 120
3, 285692, Note_off_c, 1, 50, 100
3, 285696, Note_on_c, 1, 44, 120
3, 285788, Note_off_c, 1, 44, 100
3, 285792, Note_on_c, 1, 47, 120
3, 285884, Note_off_c, 1, 47, 100
3, 285888, Note_on_c, 1, 41, 120
3, 285980, Note_off_c, 1, 41, 100
3, 285984, Note_on_c, 1, 44, 120
3, 286076, Note_off_c, 1, 44, 100
3, 286080, Note_on_c, 1, 43, 80
3, 286172, Note_off_c, 1, 43, 100
3, 286176, Note_on_c, 1, 47, 82
3, 286268, Note_off_c, 1, 47, 100
3, 286272, Note_on_c, 1, 48, 85
3, 286364, Note_off_c, 1, 48, 100
3, 286368, Note_on_c, 1, 50, 88
3, 286460, Note_off_c, 1, 50, 100
3, 286464, Note_on_c, 1, 51, 90
3, 286556, Note_off_c, 1, 51, 100
3, 286560, Note_on_c, 1, 53, 93
3, 286652, Note_off_c, 1, 53, 100
3, 286656, Note_on_c, 1, 55, 96
3, 286748, Note_off_c, 1, 55, 100
3, 286752, Note_on_c, 1, 56, 99
3, 286844, Note_off_c, 1, 56, 100
3, 286848, Note_on_c, 1, 59, 101
3, 286940, Note_off_c, 1, 59, 100
3, 286944, Note_on_c, 1, 60, 104
3, 287036, Note_off_c, 1, 60, 100
3, 287040, Note_on_c, 1, 62, 107
3, 287132, Note_off_c, 1, 62, 100
3, 287136, Note_on_c, 1, 63, 109
3, 287228, Note_off_c, 1, 63, 100
3, 287232, Note_on_c, 1, 65, 112
3, 287324, Note_off_c, 1, 65, 100
3, 287328, Note_on_c, 1, 66, 115
3, 287420, Note_off_c, 1, 66, 100
3, 287424, Note_on_c, 1, 67, 118
3, 287612, Note_off_c, 1, 67, 100
3, 287616, Note_on_c, 1, 48, 120
3, 287616, Note_on_c, 1, 36, 120
3, 287996, Note_off_c, 1, 48, 100
3, 287996, Note_off_c, 1, 36, 100
3, 288000, Note_on_c, 1, 51, 120
3, 288000, Note_on_c, 1, 39, 120
3, 288380, Note_off_c, 1, 51, 100
3, 288380, Note_off_c, 1, 39, 100
3, 288384, Note_on_c, 1, 47, 120
3, 288384, Note_on_c, 1, 35, 120
3, 289148, Note_off_c, 1, 47, 100
3, 289148, Note_off_c, 1, 35, 100
3, 289152, Note_on_c, 1, 46, 120
3, 289152, Note_on_c, 1, 34, 120
3, 289532, Note_off_c, 1, 46, 100
3, 289532, Note_off_c, 1, 34, 100
3, 289536, Note_on_c, 1, 48, 120
3, 289536, Note_on_c, 1, 36, 120
3, 289916, Note_off_c, 1, 48, 100
3, 289916, Note_off_c, 1, 36, 100
3, 289920, Note_on_c, 1, 45, 120
3, 289920, Note_on_c, 1, 33, 120
3, 290684, Note_off_c, 1, 45, 100
3, 290684, Note_off_c, 1, 33, 100
3, 290688, Note_on_c, 1, 44, 120
3, 290688, Note_on_c, 1, 32, 120
3, 291068, Note_off_c, 1, 44, 100
3, 291068, Note_off_c, 1, 32, 100
3, 291072, Note_on_c, 1, 48, 120
3, 291072, Note_on_c, 1, 36, 120
3, 291452, Note_off_c, 1, 48, 100
3, 291452, Note_off_c, 1, 36, 100
3, 291456, Note_on_c, 1, 43, 120
3, 291456, Note_on_c, 1, 31, 120
3, 291836, Note_off_c, 1, 43, 100
3, 291836, Note_off_c, 1, 31, 100
3, 291840, Note_on_c, 1, 48, 120
3, 291840, Note_on_c, 1, 36, 120
3, 292124, Note_off_c, 1, 48, 100
3, 292124, Note_off_c, 1, 36, 100
3, 292128, Note_on_c, 1, 51, 120
3, 292128, Note_on_c, 1, 39, 120
3, 292220, Note_off_c, 1, 51, 100
3, 292220, Note_off_c, 1, 39, 100
3, 292224, Note_on_c, 1, 55, 120
3, 292224, Note_on_c, 1, 43, 120
3, 292604, Note_off_c, 1, 55, 100
3, 292604, Note_off_c, 1, 43, 100
3, 292608, Note_on_c, 1, 43, 120
3, 292608, Note_on_c, 1, 31, 120
3, 292988, Note_off_c, 1, 43, 100
3, 292988, Note_off_c, 1, 31, 100
3, 293088, Note_on_c, 1, 62, 120
3, 293180, Note_off_c, 1, 62, 100
3, 293184, Note_on_c, 1, 60, 120
3, 293276, Note_off_c, 1, 60, 100
3, 293280, Note_on_c, 1, 59, 120
3, 293372, Note_off_c, 1, 59, 100
3, 293376, Note_on_c, 1, 60, 120
3, 293468, Note_off_c, 1, 60, 100
3, 293472, Note_on_c, 1, 62, 120
3, 293564, Note_off_c, 1, 62, 100
3, 293568, Note_on_c, 1, 63, 120
3, 293660, Note_off_c, 1, 63, 100
3, 293664, Note_on_c, 1, 60, 120
3, 293756, Note_off_c, 1, 60, 100
3, 293856, Note_on_c, 1, 45, 120
3, 293948, Note_off_c, 1, 45, 100
3, 293952, Note_on_c, 1, 43, 120
3, 294044, Note_off_c, 1, 43, 100
3, 294048, Note_on_c, 1, 42, 120
3, 294140, Note_off_c, 1, 42, 100
3, 294144, Note_on_c, 1, 43, 120
3, 294236, Note_off_c, 1, 43, 100
3, 294240, Note_on_c, 1, 45, 120
3, 294332, Note_off_c, 1, 45, 100
3, 294336, Note_on_c, 1, 47, 120
3, 294428, Note_off_c, 1, 47, 100
3, 294432, Note_on_c, 1, 43, 120
3, 294524, Note_off_c, 1, 43, 100
3, 294624, Note_on_c, 1, 65, 120
3, 294716, Note_off_c, 1, 65, 100
3, 294720, Note_on_c, 1, 64, 120
3, 294812, Note_off_c, 1, 64, 100
3, 294816, Note_on_c, 1, 62, 120
3, 294908, Note_off_c, 1, 62, 100
3, 294912, Note_on_c, 1, 64, 120
3, 295004, Note_off_c, 1, 64, 100
3, 295008, Note_on_c, 1, 65, 120
3, 295100, Note_off_c, 1, 65, 100
3, 295104, Note_on_c, 1, 67, 120
3, 295196, Note_off_c, 1, 67, 100
3, 295200, Note_on_c, 1, 64, 120
3, 295292, Note_off_c, 1, 64, 100
3, 295392, Note_on_c, 1, 43, 120
3, 295484, Note_off_c, 1, 43, 100
3, 295488, Note_on_c, 1, 41, 120
3, 295580, Note_off_c, 1, 41, 100
3, 295584, Note_on_c, 1, 40, 120
3, 295676, Note_off_c, 1, 40, 100
3, 295680, Note_on_c, 1, 41, 120
3, 295772, Note_off_c, 1, 41, 100
3, 295776, Note_on_c, 1, 43, 120
3, 295868, Note_off_c, 1, 43, 100
3, 295872, Note_on_c, 1, 45, 120
3, 295964, Note_off_c, 1, 45, 100
3, 295968, Note_on_c, 1, 41, 120
3, 296060, Note_off_c, 1, 41, 100
3, 296160, Note_on_c, 1, 55, 120
3, 296252, Note_off_c, 1, 55, 100
3, 296256, Note_on_c, 1, 53, 120
3, 296348, Note_off_c, 1, 53, 100
3, 296352, Note_on_c, 1, 52, 120
3, 296444, Note_off_c, 1, 52, 100
3, 296448, Note_on_c, 1, 53, 120
3, 296540, Note_off_c, 1, 53, 100
3, 296544, Note_on_c, 1, 55, 120
3, 296636, Note_off_c, 1, 55, 100
3, 296640, Note_on_c, 1, 56, 120
3, 296732, Note_off_c, 1, 56, 100
3, 296736, Note_on_c, 1, 54, 120
3, 296828, Note_off_c, 1, 54, 100
3, 296832, Note_on_c, 1, 55, 120
3, 296924, Note_off_c, 1, 55, 100
3, 296928, Note_on_c, 1, 51, 120
3, 297020, Note_off_c, 1, 51, 100
3, 297024, Note_on_c, 1, 48, 120
3, 297116, Note_off_c, 1, 48, 100
3, 297120, Note_on_c, 1, 43, 120
3, 297212, Note_off_c, 1, 43, 100
3, 297216, Note_on_c, 1, 39, 120
3, 297308, Note_off_c, 1, 39, 100
3, 297312, Note_on_c, 1, 43, 120
3, 297404, Note_off_c, 1, 43, 100
3, 297408, Note_on_c, 1, 39, 120
3, 297500, Note_off_c, 1, 39, 100
3, 297504, Note_on_c, 1, 36, 120
3, 297596, Note_off_c, 1, 36, 100
3, 297600, Note_on_c, 1, 35, 120
3, 297692, Note_off_c, 1, 35, 100
3, 297696, Note_on_c, 1, 43, 120
3, 297788, Note_off_c, 1, 43, 100
3, 297792, Note_on_c, 1, 38, 120
3, 297884, Note_off_c, 1, 38, 100
3, 297888, Note_on_c, 1, 43, 120
3, 297980, Note_off_c, 1, 43, 100
3, 297984, Note_on_c, 1, 39, 120
3, 298076, Note_off_c, 1, 39, 100
3, 298080, Note_on_c, 1, 43, 120
3, 298172, Note_off_c, 1, 43, 100
3, 298176, Note_on_c, 1, 41, 120
3, 298268, Note_off_c, 1, 41, 100
3, 298272, Note_on_c, 1, 43, 120
3, 298364, Note_off_c, 1, 43, 100
3, 298368, Note_on_c, 1, 39, 120
3, 298460, Note_off_c, 1, 39, 100
3, 298464, Note_on_c, 1, 43, 120
3, 298556, Note_off_c, 1, 43, 100
3, 298560, Note_on_c, 1, 38, 120
3, 298652, Note_off_c, 1, 38, 100
3, 298656, Note_on_c, 1, 43, 120
3, 298748, Note_off_c, 1, 43, 100
3, 298752, Note_on_c, 1, 39, 120
3, 298844, Note_off_c, 1, 39, 100
3, 298848, Note_on_c, 1, 43, 120
3, 298940, Note_off_c, 1, 43, 100
3, 298944, Note_on_c, 1, 36, 120
3, 299036, Note_off_c, 1, 36, 100
3, 299040, Note_on_c, 1, 43, 120
3, 299132, Note_off_c, 1, 43, 100
3, 299136, Note_on_c, 1, 35, 120
3, 299228, Note_off_c, 1, 35, 100
3, 299232, Note_on_c, 1, 43, 120
3, 299324, Note_off_c, 1, 43, 100
3, 299328, Note_on_c, 1, 38, 120
3, 299420, Note_off_c, 1, 38, 100
3, 299424, Note_on_c, 1, 43, 120
3, 299516, Note_off_c, 1, 43, 100
3, 299520, Note_on_c, 1, 39, 120
3, 299612, Note_off_c, 1, 39, 100
3, 299616, Note_on_c, 1, 43, 120
3, 299708, Note_off_c, 1, 43, 100
3, 299712, Note_on_c, 1, 41, 120
3, 299804, Note_off_c, 1, 41, 100
3, 299808, Note_on_c, 1, 43, 120
3, 299900, Note_off_c, 1, 43, 100
3, 299904, Note_on_c, 1, 39, 120
3, 299996, Note_off_c, 1, 39, 100
3, 300000, Note_on_c, 1, 43, 120
3, 300092, Note_off_c, 1, 43, 100
3, 300096, Note_on_c, 1, 38, 120
3, 300188, Note_off_c, 1, 38, 100
3, 300192, Note_on_c, 1, 43, 120
3, 300284, Note_off_c, 1, 43, 100
3, 300288, Note_on_c, 1, 39, 120
3, 300380, Note_off_c, 1, 39, 100
3, 300384, Note_on_c, 1, 43, 120
3, 300476, Note_off_c, 1, 43, 100
3, 300480, Note_on_c, 1, 36, 120
3, 300572, Note_off_c, 1, 36, 100
3, 300576, Note_on_c, 1, 43, 120
3, 300668, Note_off_c, 1, 43, 100
3, 300672, Note_on_c, 1, 35, 120
3, 300764, Note_off_c, 1, 35, 100
3, 300768, Note_on_c, 1, 43, 120
3, 300860, Note_off_c, 1, 43, 100
3, 300864, Note_on_c, 1, 38, 120
3, 300956, Note_off_c, 1, 38, 100
3, 300960, Note_on_c, 1, 43, 120
3, 301052, Note_off_c, 1, 43, 100
3, 301056, Note_on_c, 1, 44, 120
3, 301148, Note_off_c, 1, 44, 100
3, 301152, Note_on_c, 1, 43, 120
3, 301244, Note_off_c, 1, 43, 100
3, 301248, Note_on_c, 1, 45, 120
3, 301340, Note_off_c, 1, 45, 100
3, 301344, Note_on_c, 1, 47, 120
3, 301436, Note_off_c, 1, 47, 100
3, 301440, Note_on_c, 1, 48, 120
3, 301532, Note_off_c, 1, 48, 100
3, 301536, Note_on_c, 1, 50, 120
3, 301628, Note_off_c, 1, 50, 100
3, 301632, Note_on_c, 1, 51, 120
3, 301724, Note_off_c, 1, 51, 100
3, 301728, Note_on_c, 1, 50, 120
3, 301820, Note_off_c, 1, 50, 100
3, 301824, Note_on_c, 1, 51, 120
3, 301916, Note_off_c, 1, 51, 100
3, 301920, Note_on_c, 1, 52, 120
3, 302012, Note_off_c, 1, 52, 100
3, 302016, Note_on_c, 1, 53, 120
3, 302108, Note_off_c, 1, 53, 100
3, 302112, Note_on_c, 1, 52, 120
3, 302204, Note_off_c, 1, 52, 100
3, 302208, Note_on_c, 1, 53, 120
3, 302300, Note_off_c, 1, 53, 100
3, 302304, Note_on_c, 1, 54, 120
3, 302396, Note_off_c, 1, 54, 100
3, 302400, Note_on_c, 1, 55, 120
3, 302492, Note_off_c, 1, 55, 100
3, 302496, Note_on_c, 1, 54, 120
3, 302588, Note_off_c, 1, 54, 100
3, 302592, Note_on_c, 1, 55, 120
3, 302684, Note_off_c, 1, 55, 100
3, 302688, Note_on_c, 1, 57, 120
3, 302780, Note_off_c, 1, 57, 100
3, 302784, Note_on_c, 1, 58, 120
3, 302876, Note_off_c, 1, 58, 100
3, 302880, Note_on_c, 1, 59, 120
3, 302972, Note_off_c, 1, 59, 100
3, 302976, Note_on_c, 1, 60, 120
3, 303068, Note_off_c, 1, 60, 100
3, 303072, Note_on_c, 1, 62, 120
3, 303164, Note_off_c, 1, 62, 100
3, 303168, Note_on_c, 1, 63, 120
3, 303260, Note_off_c, 1, 63, 100
3, 303264, Note_on_c, 1, 62, 120
3, 303356, Note_off_c, 1, 62, 100
3, 303360, Note_on_c, 1, 63, 120
3, 303452, Note_off_c, 1, 63, 100
3, 303456, Note_on_c, 1, 64, 120
3, 303548, Note_off_c, 1, 64, 100
3, 303552, Note_on_c, 1, 65, 120
3, 303644, Note_off_c, 1, 65, 100
3, 303648, Note_on_c, 1, 64, 120
3, 303740, Note_off_c, 1, 64, 100
3, 303744, Note_on_c, 1, 65, 120
3, 303836, Note_off_c, 1, 65, 100
3, 303840, Note_on_c, 1, 66, 120
3, 303932, Note_off_c, 1, 66, 100
3, 303936, Note_on_c, 1, 67, 120
3, 304028, Note_off_c, 1, 67, 100
3, 304032, Note_on_c, 1, 66, 120
3, 304124, Note_off_c, 1, 66, 100
3, 304128, Note_on_c, 1, 67, 120
3, 304220, Note_off_c, 1, 67, 100
3, 304224, Note_on_c, 1, 69, 120
3, 304316, Note_off_c, 1, 69, 100
3, 304320, Note_on_c, 1, 70, 120
3, 304412, Note_off_c, 1, 70, 100
3, 304416, Note_on_c, 1, 71, 120
3, 304508, Note_off_c, 1, 71, 100
3, 304512, Note_on_c, 1, 72, 120
3, 304892, Note_off_c, 1, 72, 100
3, 304896, Note_on_c, 1, 48, 120
3, 304896, Note_on_c, 1, 36, 120
3, 305276, Note_off_c, 1, 48, 100
3, 305276, Note_off_c, 1, 36, 100
3, 305664, Note_on_c, 1, 48, 120
3, 305664, Note_on_c, 1, 36, 120
3, 306044, Note_off_c, 1, 48, 100
3, 306044, Note_off_c, 1, 36, 100
3, 306432, Note_on_c, 1, 48, 120
3, 306432, Note_on_c, 1, 36, 120
3, 306812, Note_off_c, 1, 48, 100
3, 306812, Note_off_c, 1, 36, 100
3, 307200, Note_on_c, 1, 48, 120
3, 307200, Note_on_c, 1, 36, 120
3, 307580, Note_off_c, 1, 48, 100
3, 307580, Note_off_c, 1, 36, 100
3, 307968, Note_on_c, 1, 48, 110
3, 307968, Note_on_c, 1, 36, 110
3, 308348, Note_off_c, 1, 48, 100
3, 308348, Note_off_c, 1, 36, 100
3, 308736, Note_on_c, 1, 48, 100
3, 308736, Note_on_c, 1, 36, 100
3, 309116, Note_off_c, 1, 48, 100
3, 309116, Note_off_c, 1, 36, 100
3, 309504, Note_on_c, 1, 48, 90
3, 309504, Note_on_c, 1, 36, 90
3, 309884, Note_off_c, 1, 48, 100
3, 309884, Note_off_c, 1, 36, 100
3, 310272, Note_on_c, 1, 48, 80
3, 310272, Note_on_c, 1, 36, 80
3, 310652, Note_off_c, 1, 48, 100
3, 310652, Note_off_c, 1, 36, 100
3, 310848, Note_on_c, 1, 48, 80
3, 310940, Note_off_c, 1, 48, 100
3, 310944, Note_on_c, 1, 49, 80
3, 311036, Note_off_c, 1, 49, 100
3, 311040, Note_on_c, 1, 48, 80
3, 311132, Note_off_c, 1, 48, 100
3, 311136, Note_on_c, 1, 46, 80
3, 311228, Note_off_c, 1, 46, 100
3, 311232, Note_on_c, 1, 44, 80
3, 311324, Note_off_c, 1, 44, 100
3, 311328, Note_on_c, 1, 43, 80
3, 311420, Note_off_c, 1, 43, 100
3, 311424, Note_on_c, 1, 41, 80
3, 311516, Note_off_c, 1, 41, 100
3, 311520, Note_on_c, 1, 48, 80
3, 311612, Note_off_c, 1, 48, 100
3, 311616, Note_on_c, 1, 49, 80
3, 311708, Note_off_c, 1, 49, 100
3, 311712, Note_on_c, 1, 48, 80
3, 311804, Note_off_c, 1, 48, 100
3, 311808, Note_on_c, 1, 46, 80
3, 311900, Note_off_c, 1, 46, 100
3, 311904, Note_on_c, 1, 44, 80
3, 311996, Note_off_c, 1, 44, 100
3, 312000, Note_on_c, 1, 43, 80
3, 312092, Note_off_c, 1, 43, 100
3, 312096, Note_on_c, 1, 41, 80
3, 312188, Note_off_c, 1, 41, 100
3, 312192, Note_on_c, 1, 40, 80
3, 312284, Note_off_c, 1, 40, 100
3, 312288, Note_on_c, 1, 48, 80
3, 312380, Note_off_c, 1, 48, 100
3, 312384, Note_on_c, 1, 49, 80
3, 312476, Note_off_c, 1, 49, 100
3, 312480, Note_on_c, 1, 48, 80
3, 312572, Note_off_c, 1, 48, 100
3, 312576, Note_on_c, 1, 46, 80
3, 312668, Note_off_c, 1, 46, 100
3, 312672, Note_on_c, 1, 43, 80
3, 312764, Note_off_c, 1, 43, 100
3, 312768, Note_on_c, 1, 40, 80
3, 312860, Note_off_c, 1, 40, 100
3, 312864, Note_on_c, 1, 48, 80
3, 312956, Note_off_c, 1, 48, 100
3, 312960, Note_on_c, 1, 41, 80
3, 313052, Note_off_c, 1, 41, 100
3, 313056, Note_on_c, 1, 48, 80
3, 313148, Note_off_c, 1, 48, 100
3, 313152, Note_on_c, 1, 49, 80
3, 313244, Note_off_c, 1, 49, 100
3, 313248, Note_on_c, 1, 48, 80
3, 313340, Note_off_c, 1, 48, 100
3, 313344, Note_on_c, 1, 46, 80
3, 313436, Note_off_c, 1, 46, 100
3, 313440, Note_on_c, 1, 44, 80
3, 313532, Note_off_c, 1, 44, 100
3, 313536, Note_on_c, 1, 43, 80
3, 313628, Note_off_c, 1, 43, 100
3, 313632, Note_on_c, 1, 41, 80
3, 313724, Note_off_c, 1, 41, 100
3, 313728, Note_on_c, 1, 36, 80
3, 313820, Note_off_c, 1, 36, 100
3, 313824, Note_on_c, 1, 38, 80
3, 313916, Note_off_c, 1, 38, 100
3, 313920, Note_on_c, 1, 39, 80
3, 314012, Note_off_c, 1, 39, 100
3, 314016, Note_on_c, 1, 41, 80
3, 314108, Note_off_c, 1, 41, 100
3, 314112, Note_on_c, 1, 43, 80
3, 314204, Note_off_c, 1, 43, 100
3, 314208, Note_on_c, 1, 36, 80
3, 314300, Note_off_c, 1, 36, 100
3, 314304, Note_on_c, 1, 38, 80
3, 314396, Note_off_c, 1, 38, 100
3, 314400, Note_on_c, 1, 40, 80
3, 314492, Note_off_c, 1, 40, 100
3, 314496, Note_on_c, 1, 41, 80
3, 314588, Note_off_c, 1, 41, 100
3, 314592, Note_on_c, 1, 48, 80
3, 314684, Note_off_c, 1, 48, 100
3, 314688, Note_on_c, 1, 49, 80
3, 314780, Note_off_c, 1, 49, 100
3, 314784, Note_on_c, 1, 48, 80
3, 314876, Note_off_c, 1, 48, 100
3, 314880, Note_on_c, 1, 46, 80
3, 314972, Note_off_c, 1, 46, 100
3, 314976, Note_on_c, 1, 44, 80
3, 315068, Note_off_c, 1, 44, 100
3, 315072, Note_on_c, 1, 43, 80
3, 315164, Note_off_c, 1, 43, 100
3, 315168, Note_on_c, 1, 41, 80
3, 315260, Note_off_c, 1, 41, 100
3, 315264, Note_on_c, 1, 40, 80
3, 315356, Note_off_c, 1, 40, 100
3, 315360, Note_on_c, 1, 48, 80
3, 315452, Note_off_c, 1, 48, 100
3, 315456, Note_on_c, 1, 49, 80
3, 315548, Note_off_c, 1, 49, 100
3, 315552, Note_on_c, 1, 48, 80
3, 315644, Note_off_c, 1, 48, 100
3, 315648, Note_on_c, 1, 46, 80
3, 315740, Note_off_c, 1, 46, 100
3, 315744, Note_on_c, 1, 43, 80
3, 315836, Note_off_c, 1, 43, 100
3, 315840, Note_on_c, 1, 40, 80
3, 315932, Note_off_c, 1, 40, 100
3, 315936, Note_on_c, 1, 48, 80
3, 316028, Note_off_c, 1, 48, 100
3, 316032, Note_on_c, 1, 41, 80
3, 316124, Note_off_c, 1, 41, 100
3, 316128, Note_on_c, 1, 48, 80
3, 316220, Note_off_c, 1, 48, 100
3, 316224, Note_on_c, 1, 49, 80
3, 316316, Note_off_c, 1, 49, 100
3, 316320, Note_on_c, 1, 48, 80
3, 316412, Note_off_c, 1, 48, 100
3, 316416, Note_on_c, 1, 46, 80
3, 316508, Note_off_c, 1, 46, 100
3, 316512, Note_on_c, 1, 44, 80
3, 316604, Note_off_c, 1, 44, 100
3, 316608, Note_on_c, 1, 43, 80
3, 316700, Note_off_c, 1, 43, 100
3, 316704, Note_on_c, 1, 41, 80
3, 316796, Note_off_c, 1, 41, 100
3, 316800, Note_on_c, 1, 36, 80
3, 316892, Note_off_c, 1, 36, 100
3, 316896, Note_on_c, 1, 38, 80
3, 316988, Note_off_c, 1, 38, 100
3, 316992, Note_on_c, 1, 39, 80
3, 317084, Note_off_c, 1, 39, 100
3, 317088, Note_on_c, 1, 41, 80
3, 317180, Note_off_c, 1, 41, 100
3, 317184, Note_on_c, 1, 43, 80
3, 317276, Note_off_c, 1, 43, 100
3, 317280, Note_on_c, 1, 36, 80
3, 317372, Note_off_c, 1, 36, 100
3, 317376, Note_on_c, 1, 38, 80
3, 317468, Note_off_c, 1, 38, 100
3, 317472, Note_on_c, 1, 40, 80
3, 317564, Note_off_c, 1, 40, 100
3, 317568, Note_on_c, 1, 41, 80
3, 317660, Note_off_c, 1, 41, 100
3, 317664, Note_on_c, 1, 48, 80
3, 317756, Note_off_c, 1, 48, 100
3, 317760, Note_on_c, 1, 49, 80
3, 317852, Note_off_c, 1, 49, 100
3, 317856, Note_on_c, 1, 48, 80
3, 317948, Note_off_c, 1, 48, 100
3, 317952, Note_on_c, 1, 46, 80
3, 318044, Note_off_c, 1, 46, 100
3, 318048, Note_on_c, 1, 44, 80
3, 318140, Note_off_c, 1, 44, 100
3, 318144, Note_on_c, 1, 43, 80
3, 318236, Note_off_c, 1, 43, 100
3, 318240, Note_on_c, 1, 41, 80
3, 318332, Note_off_c, 1, 41, 100
3, 318336, Note_on_c, 1, 40, 80
3, 318428, Note_off_c, 1, 40, 100
3, 318432, Note_on_c, 1, 48, 80
3, 318524, Note_off_c, 1, 48, 100
3, 318528, Note_on_c, 1, 49, 80
3, 318620, Note_off_c, 1, 49, 100
3, 318624, Note_on_c, 1, 48, 80
3, 318716, Note_off_c, 1, 48, 100
3, 318720, Note_on_c, 1, 46, 80
3, 318812, Note_off_c, 1, 46, 100
3, 318816, Note_on_c, 1, 43, 80
3, 318908, Note_off_c, 1, 43, 100
3, 318912, Note_on_c, 1, 40, 80
3, 319004, Note_off_c, 1, 40, 100
3, 319008, Note_on_c, 1, 48, 80
3, 319100, Note_off_c, 1, 48, 100
3, 319104, Note_on_c, 1, 41, 80
3, 319196, Note_off_c, 1, 41, 100
3, 319200, Note_on_c, 1, 44, 80
3, 319292, Note_off_c, 1, 44, 100
3, 319296, Note_on_c, 1, 41, 80
3, 319388, Note_off_c, 1, 41, 100
3, 319392, Note_on_c, 1, 36, 80
3, 319484, Note_off_c, 1, 36, 100
3, 319488, Note_on_c, 1, 41, 80
3, 319580, Note_off_c, 1, 41, 100
3, 319584, Note_on_c, 1, 44, 80
3, 319676, Note_off_c, 1, 44, 100
3, 319680, Note_on_c, 1, 41, 80
3, 319772, Note_off_c, 1, 41, 100
3, 319776, Note_on_c, 1, 36, 80
3, 319868, Note_off_c, 1, 36, 100
3, 319872, Note_on_c, 1, 41, 80
3, 319964, Note_off_c, 1, 41, 100
3, 319968, Note_on_c, 1, 44, 80
3, 320060, Note_off_c, 1, 44, 100
3, 320064, Note_on_c, 1, 41, 80
3, 320156, Note_off_c, 1, 41, 100
3, 320160, Note_on_c, 1, 36, 80
3, 320252, Note_off_c, 1, 36, 100
3, 320256, Note_on_c, 1, 41, 80
3, 320348, Note_off_c, 1, 41, 100
3, 320352, Note_on_c, 1, 44, 80
3, 320444, Note_off_c, 1, 44, 100
3, 320448, Note_on_c, 1, 41, 80
3, 320540, Note_off_c, 1, 41, 100
3, 320544, Note_on_c, 1, 36, 80
3, 320636, Note_off_c, 1, 36, 100
3, 320640, Note_on_c, 1, 41, 80
3, 320732, Note_off_c, 1, 41, 100
3, 320736, Note_on_c, 1, 44, 80
3, 320828, Note_off_c, 1, 44, 100
3, 320832, Note_on_c, 1, 41, 80
3, 320924, Note_off_c, 1, 41, 100
3, 320928, Note_on_c, 1, 36, 80
3, 321008, Note_on_c, 1, 41, 80
3, 321020, Note_off_c, 1, 36, 100
3, 321100, Note_off_c, 1, 41, 100
3, 321104, Note_on_c, 1, 44, 80
3, 321196, Note_off_c, 1, 44, 100
3, 321200, Note_on_c, 1, 41, 80
3, 321292, Note_off_c, 1, 41, 100
3, 321296, Note_on_c, 1, 36, 80
3, 321388, Note_off_c, 1, 36, 100
3, 321408, Control_c, 1, 64, 127
3, 321408, Note_on_c, 1, 43, 80
3, 321504, Note_on_c, 1, 48, 80
3, 321600, Note_on_c, 1, 43, 79
3, 321688, Note_off_c, 1, 43, 100
3, 321696, Note_on_c, 1, 36, 78
3, 321784, Note_off_c, 1, 48, 100
3, 321792, Note_on_c, 1, 43, 78
3, 321880, Note_off_c, 1, 43, 100
3, 321888, Note_on_c, 1, 48, 77
3, 321976, Note_off_c, 1, 36, 100
3, 321984, Note_on_c, 1, 43, 76
3, 322072, Note_off_c, 1, 43, 100
3, 322080, Note_on_c, 1, 36, 76
3, 322168, Note_off_c, 1, 48, 100
3, 322176, Note_on_c, 1, 43, 75
3, 322264, Note_off_c, 1, 43, 100
3, 322272, Note_on_c, 1, 52, 74
3, 322360, Note_off_c, 1, 36, 100
3, 322368, Note_on_c, 1, 43, 74
3, 322456, Note_off_c, 1, 43, 100
3, 322464, Note_on_c, 1, 36, 73
3, 322552, Note_off_c, 1, 52, 100
3, 322560, Note_on_c, 1, 43, 72
3, 322648, Note_off_c, 1, 43, 100
3, 322656, Note_on_c, 1, 52, 72
3, 322744, Note_off_c, 1, 36, 100
3, 322752, Note_on_c, 1, 43, 71
3, 322840, Note_off_c, 1, 43, 100
3, 322848, Note_on_c, 1, 36, 70
3, 322936, Note_off_c, 1, 52, 100
3, 322940, Note_off_c, 1, 43, 100
3, 322940, Note_off_c, 1, 36, 100
3, 322944, Note_on_c, 1, 36, 70
3, 322944, Note_on_c, 1, 24, 70
3, 324472, Control_c, 1, 64, 0
3, 324476, Note_off_c, 1, 36, 100
3, 324476, Note_off_c, 1, 24, 100
3, 324476, End_track
0, 0, End_of_file
