0, 0, Header, 1, 3, 384
1, 0, Start_track
1, 0, Title_t, "L.v.Beethoven 2mov - Piano Sonata No.32 in c minor Op.111\000"
1, 0, Copyright_t, "Copyright(C) 1995-2009, Suzuki Software\000"
1, 0, Sequencer_specific, 9, 67, 123, 0, 88, 70, 48, 50, 0, 1
1, 0, Text_t, "XFhd:2000/11/03:JP:Classical::::L.v.Beethoven:::Kaoru Suzuki\000"
1, 0, Text_t, "XFln:JP:\203s\203A\203m\203\\\203i\203^\221æ32\224Ô\203n\222Z\222²\215ì\225i111\201`\221æ2\212y\217Í:L.v.\203x\201[\203g\201[\203\224\203F\203\223:::\227é\202¿\202á\202ñ:\227é\202¿\202á\202ñ\000"
1, 0, Time_signature, 3, 4, 96, 8
1, 0, Sequencer_specific, 3, 0, 0, 65
1, 0, Sequencer_specific, 5, 0, 0, 119, 14, 0
1, 0, Tempo, 2000000
1, 288, Time_signature, 9, 4, 96, 8
1, 576, Tempo, 2222222
1, 864, Tempo, 2000000
1, 7488, Tempo, 2222222
1, 7776, Tempo, 2000000
1, 44544, Tempo, 2222222
1, 45216, Tempo, 2000000
1, 48384, Tempo, 2142857
1, 48480, Tempo, 2222222
1, 48576, Tempo, 2400000
1, 48672, Tempo, 2222222
1, 48768, Tempo, 2142857
1, 48864, Tempo, 2000000
1, 51456, Tempo, 2142857
1, 51648, Tempo, 2222222
1, 51936, Tempo, 2400000
1, 52128, Tempo, 2222222
1, 52224, Tempo, 2142857
1, 52320, Tempo, 2000000
1, 54720, Time_signature, 6, 4, 96, 8
1, 55296, Time_signature, 3, 4, 96, 8
1, 55296, Tempo, 1621621
1, 55584, Time_signature, 9, 4, 96, 8
1, 69120, Tempo, 1714285
1, 69216, Tempo, 1875000
1, 69312, Tempo, 2000000
1, 69408, Tempo, 1818181
1, 69504, Tempo, 1714285
1, 69600, Tempo, 1621621
1, 75840, Tempo, 1714285
1, 76032, Tempo, 1818181
1, 76224, Tempo, 1875000
1, 76320, Tempo, 1714285
1, 76416, Tempo, 1621621
1, 79392, Tempo, 1714285
1, 79584, Tempo, 1875000
1, 79728, Tempo, 1714285
1, 79872, Tempo, 1621621
1, 82368, Time_signature, 6, 4, 96, 8
1, 82944, Tempo, 779220
1, 112704, Tempo, 800000
1, 112800, Tempo, 833333
1, 112896, Tempo, 779220
1, 118080, Tempo, 833333
1, 118368, Tempo, 857142
1, 118560, Tempo, 923076
1, 118656, Tempo, 857142
1, 118752, Tempo, 779220
1, 125184, Tempo, 833333
1, 125376, Tempo, 895522
1, 125472, Tempo, 967741
1, 125568, Tempo, 857142
1, 125664, Tempo, 800000
1, 125760, Tempo, 779220
1, 130752, Tempo, 833333
1, 131904, Tempo, 857142
1, 132288, Tempo, 923076
1, 132480, Tempo, 857142
1, 132576, Tempo, 821917
1, 132672, Tempo, 779220
1, 137664, Tempo, 895522
1, 137856, Tempo, 967741
1, 138048, Tempo, 1052631
1, 138144, Tempo, 1200000
1, 138240, Time_signature, 9, 4, 96, 8
1, 138240, Tempo, 750000
1, 157248, Time_signature, 3, 4, 96, 8
1, 157248, Tempo, 2000000
1, 157344, Tempo, 1875000
1, 157440, Tempo, 1714285
1, 157536, Tempo, 1621621
1, 157824, Tempo, 1333333
1, 160224, Tempo, 1428571
1, 160320, Tempo, 1500000
1, 160416, Tempo, 1333333
1, 164736, Tempo, 1428571
1, 164784, Tempo, 1500000
1, 164832, Tempo, 1621621
1, 164880, Tempo, 1714285
1, 164928, Tempo, 1818181
1, 171936, Tempo, 1333333
1, 176928, Tempo, 1428571
1, 177024, Tempo, 1500000
1, 177120, Tempo, 1428571
1, 177168, Tempo, 1333333
1, 179520, Tempo, 1428571
1, 179616, Tempo, 1500000
1, 179712, Tempo, 1463414
1, 179760, Tempo, 1395348
1, 179904, Tempo, 1428571
1, 179952, Tempo, 1621621
1, 180048, Tempo, 1500000
1, 180096, Tempo, 1428571
1, 181152, Tempo, 1463414
1, 181248, Tempo, 1500000
1, 181344, Tempo, 1578947
1, 181392, Tempo, 1621621
1, 181536, Tempo, 1500000
1, 181824, Tempo, 1428571
1, 182112, Tempo, 1333333
1, 183744, Tempo, 1428571
1, 183840, Tempo, 1621621
1, 183888, Tempo, 2000000
1, 184032, Tempo, 1621621
1, 184128, Tempo, 1428571
1, 184224, Tempo, 1333333
1, 184608, Tempo, 1428571
1, 184704, Tempo, 1500000
1, 184800, Tempo, 1714285
1, 184992, Tempo, 1621621
1, 185088, Tempo, 1428571
1, 185184, Tempo, 1333333
1, 185376, Tempo, 1428571
1, 185472, Tempo, 1500000
1, 185568, Tempo, 1621621
1, 185664, Tempo, 1875000
1, 185760, Tempo, 1621621
1, 185856, Tempo, 1500000
1, 186432, Tempo, 1621621
1, 186528, Tempo, 1714285
1, 186576, Tempo, 2000000
1, 186624, Tempo, 1714285
1, 186672, Tempo, 1621621
1, 186720, Tempo, 1578947
1, 186768, Tempo, 1500000
1, 189792, Tempo, 1578947
1, 190080, Tempo, 1621621
1, 190944, Tempo, 1500000
1, 193248, Tempo, 1578947
1, 193536, Tempo, 1621621
1, 193824, Tempo, 1500000
1, 194304, Tempo, 1621621
1, 194352, Tempo, 1714285
1, 196992, Tempo, 1500000
1, 198528, Tempo, 1621621
1, 198624, Tempo, 1714285
1, 198720, Tempo, 1621621
1, 198816, Tempo, 1500000
1, 199392, Tempo, 1621621
1, 199584, Tempo, 1500000
1, 200256, Tempo, 1621621
1, 200448, Tempo, 1578947
1, 200544, Tempo, 1500000
1, 201120, Tempo, 1621621
1, 201312, Tempo, 1578947
1, 201408, Tempo, 1500000
1, 201984, Tempo, 1621621
1, 202176, Tempo, 1578947
1, 202272, Tempo, 1500000
1, 205440, Tempo, 1578947
1, 205536, Tempo, 1621621
1, 205728, Tempo, 1578947
1, 205824, Tempo, 1500000
1, 206208, Tempo, 1538461
1, 206496, Tempo, 1578947
1, 206784, Tempo, 1621621
1, 206880, Tempo, 1666666
1, 206976, Tempo, 1714285
1, 207072, Tempo, 2000000
1, 207120, Tempo, 1714285
1, 207168, Tempo, 1621621
1, 207216, Tempo, 1578947
1, 207264, Tempo, 1500000
1, 214944, Tempo, 1621621
1, 215040, Tempo, 1714285
1, 215136, Tempo, 1621621
1, 215232, Tempo, 1500000
1, 225792, Tempo, 1578947
1, 225888, Tempo, 1621621
1, 225984, Tempo, 1714285
1, 226032, Tempo, 1875000
1, 226080, Tempo, 1714285
1, 226128, Tempo, 1621621
1, 226176, Tempo, 1500000
1, 227520, Tempo, 1578947
1, 227616, Tempo, 1621621
1, 227712, Tempo, 1714285
1, 227760, Tempo, 1875000
1, 227808, Tempo, 1714285
1, 227856, Tempo, 1621621
1, 227904, Tempo, 1500000
1, 232992, Tempo, 1578947
1, 233088, Tempo, 1621621
1, 233184, Tempo, 1714285
1, 233232, Tempo, 1875000
1, 233304, Tempo, 1714285
1, 233328, Tempo, 1621621
1, 233376, Tempo, 1500000
1, 233568, Tempo, 2000000
1, 233592, Tempo, 1875000
1, 233616, Tempo, 1714285
1, 233640, Tempo, 1621621
1, 233664, Tempo, 1578947
1, 238176, Tempo, 1428571
1, 240864, Tempo, 1463414
1, 240960, Tempo, 1500000
1, 241008, Tempo, 1621621
1, 241056, Tempo, 1500000
1, 243264, Tempo, 1578947
1, 243360, Tempo, 1621621
1, 243456, Tempo, 1666666
1, 243504, Tempo, 1714285
1, 243552, Tempo, 1875000
1, 243600, Tempo, 2000000
1, 243696, Tempo, 1875000
1, 243744, Tempo, 1714285
1, 243792, Tempo, 1666666
1, 243840, Tempo, 1621621
1, 245184, Tempo, 1578947
1, 245280, Tempo, 1621621
1, 245328, Tempo, 1875000
1, 245376, Tempo, 1538461
1, 245616, Tempo, 1578947
1, 245760, Tempo, 1621621
1, 245904, Tempo, 1666666
1, 246096, Tempo, 1714285
1, 246144, Tempo, 1875000
1, 246192, Tempo, 2400000
1, 246216, Tempo, 3000000
1, 246240, Tempo, 1875000
1, 246528, Tempo, 2222222
1, 246912, Tempo, 2608695
1, 247680, Tempo, 2857142
1, 247776, Tempo, 3000000
1, 247872, Tempo, 3333333
1, 247968, Tempo, 3529411
1, 248064, Tempo, 3750000
1, 248160, Tempo, 6000000
1, 248160, End_track
2, 0, Start_track
2, 0, Title_t, "Right"
2, 0, Control_c, 0, 0, 0
2, 0, Program_c, 0, 0
2, 0, Control_c, 0, 7, 100
2, 0, Control_c, 0, 10, 79
2, 0, Control_c, 0, 91, 127
2, 0, Key_signature, 0, "major"
2, 0, Note_on_c, 0, 72, 80
2, 0, Note_on_c, 0, 64, 80
2, 188, Note_off_c, 0, 72, 100
2, 192, Note_on_c, 0, 67, 80
2, 284, Note_off_c, 0, 64, 100
2, 284, Note_off_c, 0, 67, 100
2, 288, Note_on_c, 0, 67, 80
2, 288, Note_on_c, 0, 64, 80
2, 570, Note_off_c, 0, 64, 100
2, 576, Note_on_c, 0, 65, 80
2, 858, Note_off_c, 0, 67, 100
2, 858, Note_off_c, 0, 65, 100
2, 864, Note_on_c, 0, 62, 80
2, 864, Note_on_c, 0, 74, 80
2, 1050, Note_off_c, 0, 74, 100
2, 1056, Note_on_c, 0, 67, 80
2, 1146, Note_off_c, 0, 62, 100
2, 1146, Note_off_c, 0, 67, 100
2, 1152, Note_on_c, 0, 67, 80
2, 1152, Note_on_c, 0, 62, 80
2, 1436, Note_off_c, 0, 62, 100
2, 1440, Note_on_c, 0, 64, 80
2, 1724, Note_off_c, 0, 67, 100
2, 1724, Note_off_c, 0, 64, 100
2, 1728, Note_on_c, 0, 65, 80
2, 1728, Note_on_c, 0, 67, 80
2, 2012, Note_off_c, 0, 65, 100
2, 2012, Note_off_c, 0, 67, 100
2, 2016, Note_on_c, 0, 67, 80
2, 2298, Note_off_c, 0, 67, 100
2, 2304, Note_on_c, 0, 76, 80
2, 2304, Note_on_c, 0, 64, 80
2, 2588, Note_off_c, 0, 76, 100
2, 2588, Note_off_c, 0, 64, 100
2, 2592, Note_on_c, 0, 72, 80
2, 2592, Note_on_c, 0, 67, 80
2, 2876, Note_off_c, 0, 72, 100
2, 2876, Note_off_c, 0, 67, 100
2, 2880, Note_on_c, 0, 72, 80
2, 2880, Note_on_c, 0, 64, 80
2, 3164, Note_off_c, 0, 72, 100
2, 3164, Note_off_c, 0, 64, 100
2, 3168, Note_on_c, 0, 71, 80
2, 3168, Note_on_c, 0, 62, 80
2, 3452, Note_off_c, 0, 71, 100
2, 3452, Note_off_c, 0, 62, 100
2, 3456, Note_on_c, 0, 71, 80
2, 3456, Note_on_c, 0, 67, 80
2, 3456, Note_on_c, 0, 62, 80
2, 3740, Note_off_c, 0, 71, 100
2, 3740, Note_off_c, 0, 67, 100
2, 3740, Note_off_c, 0, 62, 100
2, 3744, Note_on_c, 0, 67, 80
2, 3744, Note_on_c, 0, 72, 80
2, 4028, Note_off_c, 0, 72, 100
2, 4032, Note_on_c, 0, 76, 90
2, 4316, Note_off_c, 0, 67, 100
2, 4316, Note_off_c, 0, 76, 100
2, 4320, Note_on_c, 0, 79, 100
2, 4320, Note_on_c, 0, 67, 100
2, 4604, Note_off_c, 0, 79, 100
2, 4604, Note_off_c, 0, 67, 100
2, 4608, Note_on_c, 0, 69, 100
2, 4608, Note_on_c, 0, 79, 100
2, 4892, Note_off_c, 0, 79, 100
2, 4896, Note_on_c, 0, 77, 93
2, 5180, Note_off_c, 0, 69, 100
2, 5180, Note_off_c, 0, 77, 100
2, 5184, Note_on_c, 0, 74, 85
2, 5184, Note_on_c, 0, 69, 85
2, 5372, Note_off_c, 0, 74, 100
2, 5372, Note_off_c, 0, 69, 100
2, 5376, Note_on_c, 0, 72, 80
2, 5376, Note_on_c, 0, 69, 80
2, 5376, Note_on_c, 0, 62, 80
2, 5468, Note_off_c, 0, 72, 100
2, 5468, Note_off_c, 0, 69, 100
2, 5468, Note_off_c, 0, 62, 100
2, 5472, Note_on_c, 0, 71, 80
2, 5472, Note_on_c, 0, 67, 80
2, 5472, Note_on_c, 0, 62, 80
2, 5756, Note_off_c, 0, 71, 100
2, 5756, Note_off_c, 0, 67, 100
2, 5756, Note_off_c, 0, 62, 100
2, 5760, Note_on_c, 0, 72, 80
2, 5760, Note_on_c, 0, 67, 80
2, 5760, Note_on_c, 0, 60, 80
2, 6044, Note_off_c, 0, 72, 100
2, 6044, Note_off_c, 0, 67, 100
2, 6044, Note_off_c, 0, 60, 100
2, 6048, Note_on_c, 0, 74, 80
2, 6048, Note_on_c, 0, 67, 80
2, 6048, Note_on_c, 0, 62, 80
2, 6236, Note_off_c, 0, 74, 100
2, 6236, Note_off_c, 0, 67, 100
2, 6236, Note_off_c, 0, 62, 100
2, 6240, Note_on_c, 0, 67, 80
2, 6240, Note_on_c, 0, 62, 80
2, 6332, Note_off_c, 0, 67, 100
2, 6336, Note_on_c, 0, 67, 80
2, 6524, Note_off_c, 0, 62, 100
2, 6528, Note_on_c, 0, 62, 90
2, 6620, Note_off_c, 0, 62, 100
2, 6624, Note_on_c, 0, 60, 90
2, 6624, Note_on_c, 0, 64, 90
2, 6812, Note_off_c, 0, 60, 100
2, 6812, Note_off_c, 0, 64, 100
2, 6816, Note_on_c, 0, 65, 80
2, 6816, Note_on_c, 0, 59, 80
2, 6908, Note_off_c, 0, 67, 100
2, 6908, Note_off_c, 0, 65, 100
2, 6908, Note_off_c, 0, 59, 100
2, 6912, Note_on_c, 0, 72, 80
2, 6912, Note_on_c, 0, 64, 80
2, 7100, Note_off_c, 0, 72, 100
2, 7104, Note_on_c, 0, 67, 80
2, 7196, Note_off_c, 0, 64, 100
2, 7196, Note_off_c, 0, 67, 100
2, 7200, Note_on_c, 0, 67, 80
2, 7200, Note_on_c, 0, 64, 80
2, 7482, Note_off_c, 0, 64, 100
2, 7488, Note_on_c, 0, 65, 80
2, 7770, Note_off_c, 0, 67, 100
2, 7770, Note_off_c, 0, 65, 100
2, 7776, Note_on_c, 0, 62, 80
2, 7776, Note_on_c, 0, 74, 80
2, 7962, Note_off_c, 0, 74, 100
2, 7968, Note_on_c, 0, 67, 80
2, 8058, Note_off_c, 0, 62, 100
2, 8058, Note_off_c, 0, 67, 100
2, 8064, Note_on_c, 0, 67, 80
2, 8064, Note_on_c, 0, 62, 80
2, 8348, Note_off_c, 0, 62, 100
2, 8352, Note_on_c, 0, 64, 80
2, 8636, Note_off_c, 0, 67, 100
2, 8636, Note_off_c, 0, 64, 100
2, 8640, Note_on_c, 0, 65, 80
2, 8640, Note_on_c, 0, 67, 80
2, 8924, Note_off_c, 0, 65, 100
2, 8924, Note_off_c, 0, 67, 100
2, 8928, Note_on_c, 0, 67, 80
2, 9210, Note_off_c, 0, 67, 100
2, 9216, Note_on_c, 0, 76, 80
2, 9216, Note_on_c, 0, 64, 80
2, 9500, Note_off_c, 0, 76, 100
2, 9500, Note_off_c, 0, 64, 100
2, 9504, Note_on_c, 0, 72, 80
2, 9504, Note_on_c, 0, 67, 80
2, 9788, Note_off_c, 0, 72, 100
2, 9788, Note_off_c, 0, 67, 100
2, 9792, Note_on_c, 0, 72, 80
2, 9792, Note_on_c, 0, 64, 80
2, 10076, Note_off_c, 0, 72, 100
2, 10076, Note_off_c, 0, 64, 100
2, 10080, Note_on_c, 0, 71, 80
2, 10080, Note_on_c, 0, 62, 80
2, 10364, Note_off_c, 0, 71, 100
2, 10364, Note_off_c, 0, 62, 100
2, 10368, Note_on_c, 0, 71, 80
2, 10368, Note_on_c, 0, 67, 80
2, 10368, Note_on_c, 0, 62, 80
2, 10652, Note_off_c, 0, 71, 100
2, 10652, Note_off_c, 0, 67, 100
2, 10652, Note_off_c, 0, 62, 100
2, 10656, Note_on_c, 0, 67, 80
2, 10656, Note_on_c, 0, 72, 80
2, 10940, Note_off_c, 0, 72, 100
2, 10944, Note_on_c, 0, 76, 90
2, 11228, Note_off_c, 0, 67, 100
2, 11228, Note_off_c, 0, 76, 100
2, 11232, Note_on_c, 0, 79, 100
2, 11232, Note_on_c, 0, 67, 100
2, 11516, Note_off_c, 0, 79, 100
2, 11516, Note_off_c, 0, 67, 100
2, 11520, Note_on_c, 0, 69, 100
2, 11520, Note_on_c, 0, 79, 100
2, 11804, Note_off_c, 0, 79, 100
2, 11808, Note_on_c, 0, 77, 93
2, 12092, Note_off_c, 0, 69, 100
2, 12092, Note_off_c, 0, 77, 100
2, 12096, Note_on_c, 0, 74, 85
2, 12096, Note_on_c, 0, 69, 85
2, 12284, Note_off_c, 0, 74, 100
2, 12284, Note_off_c, 0, 69, 100
2, 12288, Note_on_c, 0, 72, 80
2, 12288, Note_on_c, 0, 69, 80
2, 12288, Note_on_c, 0, 62, 80
2, 12380, Note_off_c, 0, 72, 100
2, 12380, Note_off_c, 0, 69, 100
2, 12380, Note_off_c, 0, 62, 100
2, 12384, Note_on_c, 0, 71, 80
2, 12384, Note_on_c, 0, 67, 80
2, 12384, Note_on_c, 0, 62, 80
2, 12668, Note_off_c, 0, 71, 100
2, 12668, Note_off_c, 0, 67, 100
2, 12668, Note_off_c, 0, 62, 100
2, 12672, Note_on_c, 0, 72, 80
2, 12672, Note_on_c, 0, 67, 80
2, 12672, Note_on_c, 0, 60, 80
2, 12956, Note_off_c, 0, 72, 100
2, 12956, Note_off_c, 0, 67, 100
2, 12956, Note_off_c, 0, 60, 100
2, 12960, Note_on_c, 0, 74, 80
2, 12960, Note_on_c, 0, 67, 80
2, 12960, Note_on_c, 0, 62, 80
2, 13148, Note_off_c, 0, 74, 100
2, 13148, Note_off_c, 0, 67, 100
2, 13148, Note_off_c, 0, 62, 100
2, 13152, Note_on_c, 0, 67, 80
2, 13152, Note_on_c, 0, 62, 80
2, 13244, Note_off_c, 0, 67, 100
2, 13248, Note_on_c, 0, 67, 80
2, 13436, Note_off_c, 0, 62, 100
2, 13440, Note_on_c, 0, 64, 90
2, 13440, Note_on_c, 0, 60, 90
2, 13532, Note_off_c, 0, 64, 100
2, 13532, Note_off_c, 0, 60, 100
2, 13536, Note_on_c, 0, 65, 90
2, 13536, Note_on_c, 0, 59, 90
2, 13724, Note_off_c, 0, 65, 100
2, 13724, Note_off_c, 0, 59, 100
2, 13728, Note_on_c, 0, 60, 80
2, 13728, Note_on_c, 0, 64, 80
2, 13820, Note_off_c, 0, 67, 100
2, 13820, Note_off_c, 0, 60, 100
2, 13820, Note_off_c, 0, 64, 100
2, 13824, Note_on_c, 0, 64, 80
2, 14108, Note_off_c, 0, 64, 100
2, 14112, Note_on_c, 0, 72, 80
2, 14112, Note_on_c, 0, 64, 80
2, 14684, Note_off_c, 0, 72, 100
2, 14684, Note_off_c, 0, 64, 100
2, 14688, Note_on_c, 0, 64, 80
2, 14688, Note_on_c, 0, 72, 80
2, 14876, Note_off_c, 0, 72, 100
2, 14880, Note_on_c, 0, 71, 80
2, 14972, Note_off_c, 0, 64, 100
2, 14972, Note_off_c, 0, 71, 100
2, 14976, Note_on_c, 0, 71, 80
2, 14976, Note_on_c, 0, 64, 80
2, 15548, Note_off_c, 0, 71, 100
2, 15548, Note_off_c, 0, 64, 100
2, 15552, Note_on_c, 0, 71, 80
2, 15744, Note_on_c, 0, 76, 80
2, 15836, Note_off_c, 0, 71, 100
2, 15836, Note_off_c, 0, 76, 100
2, 15840, Note_on_c, 0, 76, 80
2, 15840, Note_on_c, 0, 71, 80
2, 16124, Note_off_c, 0, 76, 100
2, 16124, Note_off_c, 0, 71, 100
2, 16128, Note_on_c, 0, 76, 80
2, 16128, Note_on_c, 0, 72, 80
2, 16412, Note_off_c, 0, 76, 100
2, 16412, Note_off_c, 0, 72, 100
2, 16416, Note_on_c, 0, 74, 80
2, 16416, Note_on_c, 0, 71, 80
2, 16604, Note_off_c, 0, 74, 100
2, 16604, Note_off_c, 0, 71, 100
2, 16608, Note_on_c, 0, 72, 80
2, 16608, Note_on_c, 0, 69, 80
2, 16700, Note_off_c, 0, 72, 100
2, 16700, Note_off_c, 0, 69, 100
2, 16704, Note_on_c, 0, 72, 80
2, 16704, Note_on_c, 0, 69, 80
2, 16988, Note_off_c, 0, 72, 100
2, 16988, Note_off_c, 0, 69, 100
2, 16992, Note_on_c, 0, 71, 80
2, 16992, Note_on_c, 0, 68, 80
2, 17276, Note_off_c, 0, 71, 100
2, 17276, Note_off_c, 0, 68, 100
2, 17280, Note_on_c, 0, 72, 80
2, 17280, Note_on_c, 0, 69, 80
2, 17280, Note_on_c, 0, 64, 80
2, 17564, Note_off_c, 0, 72, 100
2, 17564, Note_off_c, 0, 69, 100
2, 17564, Note_off_c, 0, 64, 100
2, 17568, Note_on_c, 0, 74, 80
2, 17568, Note_on_c, 0, 71, 80
2, 17568, Note_on_c, 0, 67, 80
2, 18140, Note_off_c, 0, 74, 100
2, 18140, Note_off_c, 0, 71, 100
2, 18140, Note_off_c, 0, 67, 100
2, 18144, Note_on_c, 0, 74, 87
2, 18144, Note_on_c, 0, 71, 87
2, 18144, Note_on_c, 0, 67, 87
2, 18428, Note_off_c, 0, 74, 100
2, 18428, Note_off_c, 0, 71, 100
2, 18428, Note_off_c, 0, 67, 100
2, 18432, Note_on_c, 0, 76, 90
2, 18432, Note_on_c, 0, 72, 90
2, 18432, Note_on_c, 0, 67, 90
2, 19004, Note_off_c, 0, 76, 100
2, 19004, Note_off_c, 0, 72, 100
2, 19004, Note_off_c, 0, 67, 100
2, 19008, Note_on_c, 0, 77, 97
2, 19008, Note_on_c, 0, 72, 97
2, 19008, Note_on_c, 0, 69, 97
2, 19292, Note_off_c, 0, 77, 100
2, 19292, Note_off_c, 0, 72, 100
2, 19292, Note_off_c, 0, 69, 100
2, 19296, Note_on_c, 0, 74, 101
2, 19296, Note_on_c, 0, 71, 101
2, 19296, Note_on_c, 0, 67, 101
2, 19580, Note_off_c, 0, 74, 100
2, 19580, Note_off_c, 0, 71, 100
2, 19580, Note_off_c, 0, 67, 100
2, 19584, Note_on_c, 0, 74, 105
2, 19584, Note_on_c, 0, 71, 105
2, 19584, Note_on_c, 0, 67, 105
2, 19868, Note_off_c, 0, 74, 100
2, 19868, Note_off_c, 0, 71, 100
2, 19868, Note_off_c, 0, 67, 100
2, 19872, Note_on_c, 0, 74, 108
2, 19872, Note_on_c, 0, 71, 108
2, 19872, Note_on_c, 0, 67, 108
2, 20060, Note_off_c, 0, 74, 100
2, 20060, Note_off_c, 0, 71, 100
2, 20060, Note_off_c, 0, 67, 100
2, 20064, Note_on_c, 0, 79, 110
2, 20064, Note_on_c, 0, 74, 110
2, 20064, Note_on_c, 0, 71, 110
2, 20156, Note_off_c, 0, 79, 100
2, 20156, Note_off_c, 0, 74, 100
2, 20156, Note_off_c, 0, 71, 100
2, 20160, Note_on_c, 0, 79, 110
2, 20160, Note_on_c, 0, 74, 110
2, 20160, Note_on_c, 0, 71, 110
2, 20348, Note_off_c, 0, 79, 100
2, 20348, Note_off_c, 0, 74, 100
2, 20348, Note_off_c, 0, 71, 100
2, 20352, Note_on_c, 0, 76, 90
2, 20352, Note_on_c, 0, 72, 90
2, 20352, Note_on_c, 0, 67, 90
2, 20444, Note_off_c, 0, 76, 100
2, 20444, Note_off_c, 0, 72, 100
2, 20444, Note_off_c, 0, 67, 100
2, 20448, Note_on_c, 0, 76, 80
2, 20448, Note_on_c, 0, 72, 80
2, 20448, Note_on_c, 0, 67, 80
2, 20732, Note_off_c, 0, 76, 100
2, 20732, Note_off_c, 0, 72, 100
2, 20732, Note_off_c, 0, 67, 100
2, 20736, Note_on_c, 0, 64, 80
2, 21020, Note_off_c, 0, 64, 100
2, 21024, Note_on_c, 0, 72, 80
2, 21024, Note_on_c, 0, 64, 80
2, 21596, Note_off_c, 0, 72, 100
2, 21596, Note_off_c, 0, 64, 100
2, 21600, Note_on_c, 0, 64, 80
2, 21600, Note_on_c, 0, 72, 80
2, 21788, Note_off_c, 0, 72, 100
2, 21792, Note_on_c, 0, 71, 80
2, 21884, Note_off_c, 0, 64, 100
2, 21884, Note_off_c, 0, 71, 100
2, 21888, Note_on_c, 0, 71, 80
2, 21888, Note_on_c, 0, 64, 80
2, 22460, Note_off_c, 0, 71, 100
2, 22460, Note_off_c, 0, 64, 100
2, 22464, Note_on_c, 0, 71, 80
2, 22656, Note_on_c, 0, 76, 80
2, 22748, Note_off_c, 0, 71, 100
2, 22748, Note_off_c, 0, 76, 100
2, 22752, Note_on_c, 0, 76, 80
2, 22752, Note_on_c, 0, 71, 80
2, 23036, Note_off_c, 0, 76, 100
2, 23036, Note_off_c, 0, 71, 100
2, 23040, Note_on_c, 0, 76, 80
2, 23040, Note_on_c, 0, 72, 80
2, 23324, Note_off_c, 0, 76, 100
2, 23324, Note_off_c, 0, 72, 100
2, 23328, Note_on_c, 0, 74, 80
2, 23328, Note_on_c, 0, 71, 80
2, 23516, Note_off_c, 0, 74, 100
2, 23516, Note_off_c, 0, 71, 100
2, 23520, Note_on_c, 0, 72, 80
2, 23520, Note_on_c, 0, 69, 80
2, 23612, Note_off_c, 0, 72, 100
2, 23612, Note_off_c, 0, 69, 100
2, 23616, Note_on_c, 0, 72, 80
2, 23616, Note_on_c, 0, 69, 80
2, 23900, Note_off_c, 0, 72, 100
2, 23900, Note_off_c, 0, 69, 100
2, 23904, Note_on_c, 0, 71, 80
2, 23904, Note_on_c, 0, 68, 80
2, 24188, Note_off_c, 0, 71, 100
2, 24188, Note_off_c, 0, 68, 100
2, 24192, Note_on_c, 0, 72, 80
2, 24192, Note_on_c, 0, 69, 80
2, 24192, Note_on_c, 0, 64, 80
2, 24476, Note_off_c, 0, 72, 100
2, 24476, Note_off_c, 0, 69, 100
2, 24476, Note_off_c, 0, 64, 100
2, 24480, Note_on_c, 0, 74, 80
2, 24480, Note_on_c, 0, 71, 80
2, 24480, Note_on_c, 0, 67, 80
2, 25052, Note_off_c, 0, 74, 100
2, 25052, Note_off_c, 0, 71, 100
2, 25052, Note_off_c, 0, 67, 100
2, 25056, Note_on_c, 0, 74, 87
2, 25056, Note_on_c, 0, 71, 87
2, 25056, Note_on_c, 0, 67, 87
2, 25340, Note_off_c, 0, 74, 100
2, 25340, Note_off_c, 0, 71, 100
2, 25340, Note_off_c, 0, 67, 100
2, 25344, Note_on_c, 0, 76, 90
2, 25344, Note_on_c, 0, 72, 90
2, 25344, Note_on_c, 0, 67, 90
2, 25916, Note_off_c, 0, 76, 100
2, 25916, Note_off_c, 0, 72, 100
2, 25916, Note_off_c, 0, 67, 100
2, 25920, Note_on_c, 0, 77, 97
2, 25920, Note_on_c, 0, 72, 97
2, 25920, Note_on_c, 0, 69, 97
2, 26204, Note_off_c, 0, 77, 100
2, 26204, Note_off_c, 0, 72, 100
2, 26204, Note_off_c, 0, 69, 100
2, 26208, Note_on_c, 0, 74, 101
2, 26208, Note_on_c, 0, 71, 101
2, 26208, Note_on_c, 0, 67, 101
2, 26492, Note_off_c, 0, 74, 100
2, 26492, Note_off_c, 0, 71, 100
2, 26492, Note_off_c, 0, 67, 100
2, 26496, Note_on_c, 0, 74, 105
2, 26496, Note_on_c, 0, 71, 105
2, 26496, Note_on_c, 0, 67, 105
2, 26780, Note_off_c, 0, 74, 100
2, 26780, Note_off_c, 0, 71, 100
2, 26780, Note_off_c, 0, 67, 100
2, 26784, Note_on_c, 0, 74, 108
2, 26784, Note_on_c, 0, 71, 108
2, 26784, Note_on_c, 0, 67, 108
2, 26972, Note_off_c, 0, 74, 100
2, 26972, Note_off_c, 0, 71, 100
2, 26972, Note_off_c, 0, 67, 100
2, 26976, Note_on_c, 0, 79, 110
2, 26976, Note_on_c, 0, 74, 110
2, 26976, Note_on_c, 0, 71, 110
2, 27068, Note_off_c, 0, 79, 100
2, 27068, Note_off_c, 0, 74, 100
2, 27068, Note_off_c, 0, 71, 100
2, 27072, Note_on_c, 0, 79, 110
2, 27072, Note_on_c, 0, 74, 110
2, 27072, Note_on_c, 0, 71, 110
2, 27260, Note_off_c, 0, 79, 100
2, 27260, Note_off_c, 0, 74, 100
2, 27260, Note_off_c, 0, 71, 100
2, 27264, Note_on_c, 0, 76, 90
2, 27264, Note_on_c, 0, 72, 90
2, 27264, Note_on_c, 0, 67, 90
2, 27356, Note_off_c, 0, 76, 100
2, 27356, Note_off_c, 0, 72, 100
2, 27356, Note_off_c, 0, 67, 100
2, 27360, Note_on_c, 0, 76, 80
2, 27360, Note_on_c, 0, 72, 80
2, 27360, Note_on_c, 0, 67, 80
2, 27644, Note_off_c, 0, 76, 100
2, 27644, Note_off_c, 0, 72, 100
2, 27644, Note_off_c, 0, 67, 100
2, 27648, Note_on_c, 0, 72, 80
2, 27836, Note_off_c, 0, 72, 100
2, 27840, Note_on_c, 0, 64, 80
2, 27932, Note_off_c, 0, 64, 100
2, 27936, Note_on_c, 0, 69, 80
2, 28124, Note_off_c, 0, 69, 100
2, 28128, Note_on_c, 0, 64, 80
2, 28220, Note_off_c, 0, 64, 100
2, 28224, Note_on_c, 0, 67, 80
2, 28412, Note_off_c, 0, 67, 100
2, 28416, Note_on_c, 0, 65, 80
2, 28508, Note_off_c, 0, 65, 100
2, 28512, Note_on_c, 0, 74, 80
2, 28700, Note_off_c, 0, 74, 100
2, 28704, Note_on_c, 0, 62, 80
2, 28796, Note_off_c, 0, 62, 100
2, 28800, Note_on_c, 0, 67, 80
2, 28988, Note_off_c, 0, 67, 100
2, 28992, Note_on_c, 0, 62, 80
2, 29084, Note_off_c, 0, 62, 100
2, 29088, Note_on_c, 0, 65, 80
2, 29276, Note_off_c, 0, 65, 100
2, 29280, Note_on_c, 0, 64, 80
2, 29372, Note_off_c, 0, 64, 100
2, 29376, Note_on_c, 0, 67, 80
2, 29564, Note_off_c, 0, 67, 100
2, 29568, Note_on_c, 0, 65, 80
2, 29660, Note_off_c, 0, 65, 100
2, 29664, Note_on_c, 0, 69, 80
2, 29852, Note_off_c, 0, 69, 100
2, 29856, Note_on_c, 0, 67, 80
2, 29948, Note_off_c, 0, 67, 100
2, 29952, Note_on_c, 0, 76, 80
2, 30140, Note_off_c, 0, 76, 100
2, 30144, Note_on_c, 0, 64, 80
2, 30236, Note_off_c, 0, 64, 100
2, 30240, Note_on_c, 0, 72, 80
2, 30428, Note_off_c, 0, 72, 100
2, 30432, Note_on_c, 0, 64, 80
2, 30524, Note_off_c, 0, 64, 100
2, 30528, Note_on_c, 0, 72, 80
2, 30528, Note_on_c, 0, 63, 80
2, 30716, Note_off_c, 0, 72, 100
2, 30716, Note_off_c, 0, 63, 100
2, 30720, Note_on_c, 0, 71, 80
2, 30720, Note_on_c, 0, 62, 80
2, 30812, Note_off_c, 0, 71, 100
2, 30812, Note_off_c, 0, 62, 100
2, 30816, Note_on_c, 0, 60, 80
2, 30816, Note_on_c, 0, 69, 80
2, 31004, Note_off_c, 0, 60, 100
2, 31004, Note_off_c, 0, 69, 100
2, 31008, Note_on_c, 0, 67, 80
2, 31008, Note_on_c, 0, 59, 80
2, 31100, Note_off_c, 0, 67, 100
2, 31100, Note_off_c, 0, 59, 100
2, 31104, Note_on_c, 0, 69, 80
2, 31104, Note_on_c, 0, 60, 80
2, 31292, Note_off_c, 0, 69, 100
2, 31292, Note_off_c, 0, 60, 100
2, 31296, Note_on_c, 0, 71, 80
2, 31296, Note_on_c, 0, 62, 80
2, 31388, Note_off_c, 0, 71, 100
2, 31388, Note_off_c, 0, 62, 100
2, 31392, Note_on_c, 0, 72, 80
2, 31580, Note_off_c, 0, 72, 100
2, 31584, Note_on_c, 0, 64, 85
2, 31676, Note_off_c, 0, 64, 100
2, 31680, Note_on_c, 0, 76, 87
2, 31868, Note_off_c, 0, 76, 100
2, 31872, Note_on_c, 0, 67, 93
2, 31964, Note_off_c, 0, 67, 100
2, 31968, Note_on_c, 0, 79, 95
2, 31968, Note_on_c, 0, 70, 95
2, 32156, Note_off_c, 0, 79, 100
2, 32156, Note_off_c, 0, 70, 100
2, 32160, Note_on_c, 0, 70, 100
2, 32160, Note_on_c, 0, 67, 100
2, 32252, Note_off_c, 0, 70, 100
2, 32252, Note_off_c, 0, 67, 100
2, 32256, Note_on_c, 0, 79, 100
2, 32256, Note_on_c, 0, 69, 100
2, 32444, Note_off_c, 0, 79, 100
2, 32444, Note_off_c, 0, 69, 100
2, 32448, Note_on_c, 0, 69, 95
2, 32448, Note_on_c, 0, 67, 95
2, 32540, Note_off_c, 0, 69, 100
2, 32540, Note_off_c, 0, 67, 100
2, 32544, Note_on_c, 0, 77, 93
2, 32544, Note_on_c, 0, 69, 93
2, 32732, Note_off_c, 0, 77, 100
2, 32732, Note_off_c, 0, 69, 100
2, 32736, Note_on_c, 0, 69, 87
2, 32828, Note_off_c, 0, 69, 100
2, 32832, Note_on_c, 0, 74, 85
2, 32832, Note_on_c, 0, 69, 85
2, 33020, Note_off_c, 0, 74, 100
2, 33020, Note_off_c, 0, 69, 100
2, 33024, Note_on_c, 0, 72, 80
2, 33024, Note_on_c, 0, 66, 80
2, 33116, Note_off_c, 0, 72, 100
2, 33116, Note_off_c, 0, 66, 100
2, 33120, Note_on_c, 0, 65, 80
2, 33120, Note_on_c, 0, 62, 80
2, 33120, Note_on_c, 0, 72, 80
2, 33308, Note_off_c, 0, 72, 100
2, 33312, Note_on_c, 0, 71, 80
2, 33404, Note_off_c, 0, 65, 100
2, 33404, Note_off_c, 0, 62, 100
2, 33404, Note_off_c, 0, 71, 100
2, 33408, Note_on_c, 0, 72, 80
2, 33408, Note_on_c, 0, 65, 80
2, 33408, Note_on_c, 0, 62, 80
2, 33596, Note_off_c, 0, 72, 100
2, 33600, Note_on_c, 0, 73, 80
2, 33692, Note_off_c, 0, 73, 100
2, 33696, Note_on_c, 0, 73, 80
2, 33788, Note_off_c, 0, 65, 100
2, 33788, Note_off_c, 0, 62, 100
2, 33788, Note_off_c, 0, 73, 100
2, 33792, Note_on_c, 0, 65, 80
2, 33792, Note_on_c, 0, 62, 80
2, 33792, Note_on_c, 0, 74, 80
2, 33792, Note_on_c, 0, 67, 80
2, 33884, Note_off_c, 0, 65, 100
2, 33884, Note_off_c, 0, 62, 100
2, 33884, Note_off_c, 0, 74, 100
2, 33884, Note_off_c, 0, 67, 100
2, 33888, Note_on_c, 0, 65, 80
2, 33888, Note_on_c, 0, 62, 80
2, 33888, Note_on_c, 0, 67, 80
2, 33980, Note_off_c, 0, 65, 100
2, 33980, Note_off_c, 0, 62, 100
2, 33980, Note_off_c, 0, 67, 100
2, 33984, Note_on_c, 0, 65, 80
2, 33984, Note_on_c, 0, 62, 80
2, 33984, Note_on_c, 0, 67, 80
2, 34076, Note_off_c, 0, 65, 100
2, 34076, Note_off_c, 0, 62, 100
2, 34080, Note_on_c, 0, 64, 80
2, 34172, Note_off_c, 0, 64, 100
2, 34176, Note_on_c, 0, 62, 80
2, 34268, Note_off_c, 0, 62, 100
2, 34272, Note_on_c, 0, 60, 80
2, 34364, Note_off_c, 0, 60, 100
2, 34368, Note_on_c, 0, 62, 80
2, 34460, Note_off_c, 0, 62, 100
2, 34464, Note_on_c, 0, 59, 80
2, 34556, Note_off_c, 0, 67, 100
2, 34556, Note_off_c, 0, 59, 100
2, 34560, Note_on_c, 0, 72, 80
2, 34748, Note_off_c, 0, 72, 100
2, 34752, Note_on_c, 0, 64, 80
2, 34844, Note_off_c, 0, 64, 100
2, 34848, Note_on_c, 0, 69, 80
2, 35036, Note_off_c, 0, 69, 100
2, 35040, Note_on_c, 0, 64, 80
2, 35132, Note_off_c, 0, 64, 100
2, 35136, Note_on_c, 0, 67, 80
2, 35324, Note_off_c, 0, 67, 100
2, 35328, Note_on_c, 0, 65, 80
2, 35420, Note_off_c, 0, 65, 100
2, 35424, Note_on_c, 0, 74, 80
2, 35612, Note_off_c, 0, 74, 100
2, 35616, Note_on_c, 0, 62, 80
2, 35708, Note_off_c, 0, 62, 100
2, 35712, Note_on_c, 0, 67, 80
2, 35900, Note_off_c, 0, 67, 100
2, 35904, Note_on_c, 0, 62, 80
2, 35996, Note_off_c, 0, 62, 100
2, 36000, Note_on_c, 0, 65, 80
2, 36188, Note_off_c, 0, 65, 100
2, 36192, Note_on_c, 0, 64, 80
2, 36284, Note_off_c, 0, 64, 100
2, 36288, Note_on_c, 0, 67, 80
2, 36476, Note_off_c, 0, 67, 100
2, 36480, Note_on_c, 0, 65, 80
2, 36572, Note_off_c, 0, 65, 100
2, 36576, Note_on_c, 0, 69, 80
2, 36764, Note_off_c, 0, 69, 100
2, 36768, Note_on_c, 0, 67, 80
2, 36860, Note_off_c, 0, 67, 100
2, 36864, Note_on_c, 0, 76, 80
2, 37052, Note_off_c, 0, 76, 100
2, 37056, Note_on_c, 0, 64, 80
2, 37148, Note_off_c, 0, 64, 100
2, 37152, Note_on_c, 0, 72, 80
2, 37340, Note_off_c, 0, 72, 100
2, 37344, Note_on_c, 0, 64, 80
2, 37436, Note_off_c, 0, 64, 100
2, 37440, Note_on_c, 0, 72, 80
2, 37440, Note_on_c, 0, 63, 80
2, 37628, Note_off_c, 0, 72, 100
2, 37628, Note_off_c, 0, 63, 100
2, 37632, Note_on_c, 0, 71, 80
2, 37632, Note_on_c, 0, 62, 80
2, 37724, Note_off_c, 0, 71, 100
2, 37724, Note_off_c, 0, 62, 100
2, 37728, Note_on_c, 0, 60, 80
2, 37728, Note_on_c, 0, 69, 80
2, 37916, Note_off_c, 0, 60, 100
2, 37916, Note_off_c, 0, 69, 100
2, 37920, Note_on_c, 0, 67, 80
2, 37920, Note_on_c, 0, 59, 80
2, 38012, Note_off_c, 0, 67, 100
2, 38012, Note_off_c, 0, 59, 100
2, 38016, Note_on_c, 0, 69, 80
2, 38016, Note_on_c, 0, 60, 80
2, 38204, Note_off_c, 0, 69, 100
2, 38204, Note_off_c, 0, 60, 100
2, 38208, Note_on_c, 0, 71, 80
2, 38208, Note_on_c, 0, 62, 80
2, 38300, Note_off_c, 0, 71, 100
2, 38300, Note_off_c, 0, 62, 100
2, 38304, Note_on_c, 0, 72, 80
2, 38492, Note_off_c, 0, 72, 100
2, 38496, Note_on_c, 0, 64, 85
2, 38588, Note_off_c, 0, 64, 100
2, 38592, Note_on_c, 0, 76, 87
2, 38780, Note_off_c, 0, 76, 100
2, 38784, Note_on_c, 0, 67, 93
2, 38876, Note_off_c, 0, 67, 100
2, 38880, Note_on_c, 0, 79, 95
2, 38880, Note_on_c, 0, 70, 95
2, 39068, Note_off_c, 0, 79, 100
2, 39068, Note_off_c, 0, 70, 100
2, 39072, Note_on_c, 0, 70, 100
2, 39072, Note_on_c, 0, 67, 100
2, 39164, Note_off_c, 0, 70, 100
2, 39164, Note_off_c, 0, 67, 100
2, 39168, Note_on_c, 0, 79, 100
2, 39168, Note_on_c, 0, 69, 100
2, 39356, Note_off_c, 0, 79, 100
2, 39356, Note_off_c, 0, 69, 100
2, 39360, Note_on_c, 0, 69, 95
2, 39360, Note_on_c, 0, 67, 95
2, 39452, Note_off_c, 0, 69, 100
2, 39452, Note_off_c, 0, 67, 100
2, 39456, Note_on_c, 0, 77, 93
2, 39456, Note_on_c, 0, 69, 93
2, 39644, Note_off_c, 0, 77, 100
2, 39644, Note_off_c, 0, 69, 100
2, 39648, Note_on_c, 0, 69, 87
2, 39740, Note_off_c, 0, 69, 100
2, 39744, Note_on_c, 0, 74, 85
2, 39744, Note_on_c, 0, 69, 85
2, 39932, Note_off_c, 0, 74, 100
2, 39932, Note_off_c, 0, 69, 100
2, 39936, Note_on_c, 0, 72, 80
2, 39936, Note_on_c, 0, 66, 80
2, 40028, Note_off_c, 0, 72, 100
2, 40028, Note_off_c, 0, 66, 100
2, 40032, Note_on_c, 0, 65, 80
2, 40032, Note_on_c, 0, 62, 80
2, 40032, Note_on_c, 0, 72, 80
2, 40220, Note_off_c, 0, 72, 100
2, 40224, Note_on_c, 0, 71, 80
2, 40316, Note_off_c, 0, 65, 100
2, 40316, Note_off_c, 0, 62, 100
2, 40316, Note_off_c, 0, 71, 100
2, 40320, Note_on_c, 0, 72, 80
2, 40320, Note_on_c, 0, 65, 80
2, 40320, Note_on_c, 0, 62, 80
2, 40508, Note_off_c, 0, 72, 100
2, 40512, Note_on_c, 0, 73, 80
2, 40604, Note_off_c, 0, 73, 100
2, 40608, Note_on_c, 0, 73, 80
2, 40700, Note_off_c, 0, 65, 100
2, 40700, Note_off_c, 0, 62, 100
2, 40700, Note_off_c, 0, 73, 100
2, 40704, Note_on_c, 0, 65, 80
2, 40704, Note_on_c, 0, 62, 80
2, 40704, Note_on_c, 0, 74, 80
2, 40704, Note_on_c, 0, 67, 80
2, 40796, Note_off_c, 0, 65, 100
2, 40796, Note_off_c, 0, 62, 100
2, 40796, Note_off_c, 0, 74, 100
2, 40796, Note_off_c, 0, 67, 100
2, 40800, Note_on_c, 0, 65, 80
2, 40800, Note_on_c, 0, 62, 80
2, 40800, Note_on_c, 0, 67, 80
2, 40892, Note_off_c, 0, 65, 100
2, 40892, Note_off_c, 0, 62, 100
2, 40892, Note_off_c, 0, 67, 100
2, 40896, Note_on_c, 0, 67, 80
2, 40896, Note_on_c, 0, 65, 80
2, 40896, Note_on_c, 0, 62, 80
2, 40988, Note_off_c, 0, 65, 100
2, 40988, Note_off_c, 0, 62, 100
2, 40992, Note_on_c, 0, 64, 80
2, 41084, Note_off_c, 0, 64, 100
2, 41088, Note_on_c, 0, 65, 80
2, 41180, Note_off_c, 0, 67, 100
2, 41180, Note_off_c, 0, 65, 100
2, 41184, Note_on_c, 0, 67, 80
2, 41184, Note_on_c, 0, 64, 80
2, 41276, Note_off_c, 0, 67, 100
2, 41276, Note_off_c, 0, 64, 100
2, 41280, Note_on_c, 0, 68, 80
2, 41280, Note_on_c, 0, 64, 80
2, 41280, Note_on_c, 0, 62, 80
2, 41372, Note_off_c, 0, 68, 100
2, 41372, Note_off_c, 0, 64, 100
2, 41372, Note_off_c, 0, 62, 100
2, 41376, Note_on_c, 0, 69, 80
2, 41376, Note_on_c, 0, 64, 80
2, 41376, Note_on_c, 0, 60, 80
2, 41468, Note_off_c, 0, 69, 100
2, 41468, Note_off_c, 0, 64, 100
2, 41468, Note_off_c, 0, 60, 100
2, 41472, Note_on_c, 0, 71, 80
2, 41472, Note_on_c, 0, 64, 80
2, 41472, Note_on_c, 0, 59, 80
2, 41564, Note_off_c, 0, 71, 100
2, 41564, Note_off_c, 0, 64, 100
2, 41564, Note_off_c, 0, 59, 100
2, 41568, Note_on_c, 0, 64, 80
2, 41568, Note_on_c, 0, 60, 80
2, 41660, Note_off_c, 0, 64, 100
2, 41660, Note_off_c, 0, 60, 100
2, 41664, Note_on_c, 0, 64, 80
2, 41664, Note_on_c, 0, 62, 80
2, 41756, Note_off_c, 0, 64, 100
2, 41756, Note_off_c, 0, 62, 100
2, 41760, Note_on_c, 0, 72, 80
2, 41948, Note_off_c, 0, 72, 100
2, 41952, Note_on_c, 0, 64, 80
2, 41952, Note_on_c, 0, 60, 80
2, 42044, Note_off_c, 0, 64, 100
2, 42044, Note_off_c, 0, 60, 100
2, 42048, Note_on_c, 0, 65, 80
2, 42048, Note_on_c, 0, 62, 80
2, 42048, Note_on_c, 0, 59, 80
2, 42236, Note_off_c, 0, 65, 100
2, 42236, Note_off_c, 0, 62, 100
2, 42236, Note_off_c, 0, 59, 100
2, 42240, Note_on_c, 0, 64, 80
2, 42332, Note_off_c, 0, 64, 100
2, 42336, Note_on_c, 0, 72, 80
2, 42524, Note_off_c, 0, 72, 100
2, 42528, Note_on_c, 0, 64, 80
2, 42528, Note_on_c, 0, 60, 80
2, 42620, Note_off_c, 0, 64, 100
2, 42620, Note_off_c, 0, 60, 100
2, 42624, Note_on_c, 0, 71, 80
2, 42812, Note_off_c, 0, 71, 100
2, 42816, Note_on_c, 0, 64, 80
2, 42816, Note_on_c, 0, 59, 80
2, 42908, Note_off_c, 0, 59, 100
2, 42912, Note_on_c, 0, 60, 80
2, 43004, Note_off_c, 0, 64, 100
2, 43004, Note_off_c, 0, 60, 100
2, 43008, Note_on_c, 0, 72, 80
2, 43100, Note_off_c, 0, 72, 100
2, 43104, Note_on_c, 0, 71, 80
2, 43196, Note_off_c, 0, 71, 100
2, 43200, Note_on_c, 0, 72, 80
2, 43292, Note_off_c, 0, 72, 100
2, 43296, Note_on_c, 0, 71, 80
2, 43296, Note_on_c, 0, 64, 80
2, 43388, Note_off_c, 0, 71, 100
2, 43388, Note_off_c, 0, 64, 100
2, 43392, Note_on_c, 0, 76, 80
2, 43392, Note_on_c, 0, 71, 80
2, 43484, Note_off_c, 0, 76, 100
2, 43488, Note_on_c, 0, 77, 80
2, 43580, Note_off_c, 0, 71, 100
2, 43584, Note_on_c, 0, 71, 80
2, 43676, Note_off_c, 0, 77, 100
2, 43676, Note_off_c, 0, 71, 100
2, 43680, Note_on_c, 0, 76, 80
2, 43680, Note_on_c, 0, 72, 80
2, 43772, Note_off_c, 0, 76, 100
2, 43772, Note_off_c, 0, 72, 100
2, 43776, Note_on_c, 0, 76, 80
2, 43776, Note_on_c, 0, 72, 80
2, 43964, Note_off_c, 0, 76, 100
2, 43964, Note_off_c, 0, 72, 100
2, 43968, Note_on_c, 0, 74, 80
2, 43968, Note_on_c, 0, 68, 80
2, 44060, Note_off_c, 0, 74, 100
2, 44060, Note_off_c, 0, 68, 100
2, 44064, Note_on_c, 0, 74, 80
2, 44064, Note_on_c, 0, 68, 80
2, 44156, Note_off_c, 0, 74, 100
2, 44156, Note_off_c, 0, 68, 100
2, 44160, Note_on_c, 0, 72, 80
2, 44160, Note_on_c, 0, 69, 80
2, 44252, Note_off_c, 0, 72, 100
2, 44252, Note_off_c, 0, 69, 100
2, 44256, Note_on_c, 0, 72, 80
2, 44256, Note_on_c, 0, 69, 80
2, 44444, Note_off_c, 0, 69, 100
2, 44444, Note_off_c, 0, 72, 100
2, 44448, Note_on_c, 0, 71, 80
2, 44448, Note_on_c, 0, 68, 80
2, 44540, Note_off_c, 0, 71, 100
2, 44540, Note_off_c, 0, 68, 100
2, 44544, Note_on_c, 0, 71, 80
2, 44544, Note_on_c, 0, 68, 80
2, 44732, Note_off_c, 0, 71, 100
2, 44732, Note_off_c, 0, 68, 100
2, 44736, Note_on_c, 0, 72, 80
2, 44736, Note_on_c, 0, 64, 80
2, 44828, Note_off_c, 0, 72, 100
2, 44828, Note_off_c, 0, 64, 100
2, 44832, Note_on_c, 0, 72, 80
2, 44832, Note_on_c, 0, 64, 80
2, 45020, Note_off_c, 0, 72, 100
2, 45020, Note_off_c, 0, 64, 100
2, 45024, Note_on_c, 0, 74, 80
2, 45024, Note_on_c, 0, 71, 80
2, 45116, Note_off_c, 0, 74, 100
2, 45116, Note_off_c, 0, 71, 100
2, 45120, Note_on_c, 0, 74, 80
2, 45120, Note_on_c, 0, 71, 80
2, 45212, Note_off_c, 0, 74, 100
2, 45212, Note_off_c, 0, 71, 100
2, 45216, Note_on_c, 0, 74, 80
2, 45216, Note_on_c, 0, 71, 80
2, 45404, Note_off_c, 0, 71, 100
2, 45408, Note_on_c, 0, 65, 82
2, 45500, Note_off_c, 0, 65, 100
2, 45504, Note_on_c, 0, 64, 83
2, 45692, Note_off_c, 0, 64, 100
2, 45696, Note_on_c, 0, 65, 85
2, 45788, Note_off_c, 0, 74, 100
2, 45788, Note_off_c, 0, 65, 100
2, 45792, Note_on_c, 0, 75, 87
2, 45792, Note_on_c, 0, 71, 87
2, 45984, Note_on_c, 0, 65, 89
2, 46076, Note_off_c, 0, 75, 100
2, 46076, Note_off_c, 0, 71, 100
2, 46076, Note_off_c, 0, 65, 100
2, 46080, Note_on_c, 0, 76, 90
2, 46080, Note_on_c, 0, 70, 90
2, 46272, Note_on_c, 0, 64, 93
2, 46364, Note_off_c, 0, 76, 100
2, 46364, Note_off_c, 0, 70, 100
2, 46364, Note_off_c, 0, 64, 100
2, 46368, Note_on_c, 0, 76, 94
2, 46368, Note_on_c, 0, 70, 94
2, 46368, Note_on_c, 0, 67, 94
2, 46556, Note_off_c, 0, 76, 100
2, 46556, Note_off_c, 0, 70, 100
2, 46556, Note_off_c, 0, 67, 100
2, 46560, Note_on_c, 0, 79, 96
2, 46560, Note_on_c, 0, 76, 96
2, 46560, Note_on_c, 0, 70, 96
2, 46652, Note_off_c, 0, 79, 100
2, 46652, Note_off_c, 0, 76, 100
2, 46652, Note_off_c, 0, 70, 100
2, 46656, Note_on_c, 0, 79, 97
2, 46656, Note_on_c, 0, 69, 97
2, 46844, Note_off_c, 0, 79, 100
2, 46848, Note_on_c, 0, 77, 100
2, 46940, Note_off_c, 0, 69, 100
2, 46940, Note_off_c, 0, 77, 100
2, 46944, Note_on_c, 0, 76, 101
2, 46944, Note_on_c, 0, 71, 101
2, 46944, Note_on_c, 0, 65, 101
2, 47132, Note_off_c, 0, 76, 100
2, 47136, Note_on_c, 0, 74, 103
2, 47228, Note_off_c, 0, 71, 100
2, 47228, Note_off_c, 0, 65, 100
2, 47228, Note_off_c, 0, 74, 100
2, 47232, Note_on_c, 0, 73, 105
2, 47232, Note_on_c, 0, 71, 105
2, 47232, Note_on_c, 0, 65, 105
2, 47424, Note_on_c, 0, 74, 107
2, 47516, Note_off_c, 0, 74, 100
2, 47520, Note_on_c, 0, 74, 108
2, 47520, Note_on_c, 0, 71, 108
2, 47612, Note_off_c, 0, 73, 100
2, 47612, Note_off_c, 0, 74, 100
2, 47616, Note_on_c, 0, 81, 109
2, 47708, Note_off_c, 0, 71, 100
2, 47708, Note_off_c, 0, 81, 100
2, 47712, Note_on_c, 0, 79, 110
2, 47712, Note_on_c, 0, 74, 110
2, 47804, Note_off_c, 0, 65, 100
2, 47804, Note_off_c, 0, 71, 100
2, 47804, Note_off_c, 0, 79, 100
2, 47804, Note_off_c, 0, 74, 100
2, 47808, Note_on_c, 0, 79, 110
2, 47808, Note_on_c, 0, 74, 110
2, 47900, Note_off_c, 0, 79, 100
2, 47900, Note_off_c, 0, 74, 100
2, 47904, Note_on_c, 0, 77, 103
2, 47904, Note_on_c, 0, 71, 103
2, 47996, Note_off_c, 0, 77, 100
2, 47996, Note_off_c, 0, 71, 100
2, 48000, Note_on_c, 0, 76, 95
2, 48000, Note_on_c, 0, 72, 95
2, 48092, Note_off_c, 0, 76, 100
2, 48096, Note_on_c, 0, 77, 87
2, 48188, Note_off_c, 0, 77, 100
2, 48192, Note_on_c, 0, 76, 80
2, 48284, Note_off_c, 0, 72, 100
2, 48284, Note_off_c, 0, 76, 100
2, 48288, Note_on_c, 0, 64, 80
2, 48380, Note_off_c, 0, 64, 100
2, 48384, Note_on_c, 0, 65, 80
2, 48476, Note_off_c, 0, 65, 100
2, 48480, Note_on_c, 0, 64, 80
2, 48572, Note_off_c, 0, 64, 100
2, 48576, Note_on_c, 0, 64, 80
2, 48668, Note_off_c, 0, 64, 100
2, 48672, Note_on_c, 0, 72, 80
2, 48860, Note_off_c, 0, 72, 100
2, 48864, Note_on_c, 0, 64, 80
2, 48864, Note_on_c, 0, 60, 80
2, 48956, Note_off_c, 0, 64, 100
2, 48956, Note_off_c, 0, 60, 100
2, 48960, Note_on_c, 0, 65, 80
2, 48960, Note_on_c, 0, 62, 80
2, 48960, Note_on_c, 0, 59, 80
2, 49148, Note_off_c, 0, 65, 100
2, 49148, Note_off_c, 0, 62, 100
2, 49148, Note_off_c, 0, 59, 100
2, 49152, Note_on_c, 0, 64, 80
2, 49244, Note_off_c, 0, 64, 100
2, 49248, Note_on_c, 0, 72, 80
2, 49436, Note_off_c, 0, 72, 100
2, 49440, Note_on_c, 0, 64, 80
2, 49440, Note_on_c, 0, 60, 80
2, 49532, Note_off_c, 0, 64, 100
2, 49532, Note_off_c, 0, 60, 100
2, 49536, Note_on_c, 0, 71, 80
2, 49724, Note_off_c, 0, 71, 100
2, 49728, Note_on_c, 0, 64, 80
2, 49728, Note_on_c, 0, 59, 80
2, 49820, Note_off_c, 0, 59, 100
2, 49824, Note_on_c, 0, 60, 80
2, 49916, Note_off_c, 0, 64, 100
2, 49916, Note_off_c, 0, 60, 100
2, 49920, Note_on_c, 0, 72, 80
2, 50012, Note_off_c, 0, 72, 100
2, 50016, Note_on_c, 0, 71, 80
2, 50108, Note_off_c, 0, 71, 100
2, 50112, Note_on_c, 0, 72, 80
2, 50204, Note_off_c, 0, 72, 100
2, 50208, Note_on_c, 0, 71, 80
2, 50208, Note_on_c, 0, 64, 80
2, 50300, Note_off_c, 0, 71, 100
2, 50300, Note_off_c, 0, 64, 100
2, 50304, Note_on_c, 0, 76, 80
2, 50304, Note_on_c, 0, 71, 80
2, 50396, Note_off_c, 0, 76, 100
2, 50400, Note_on_c, 0, 77, 80
2, 50492, Note_off_c, 0, 71, 100
2, 50496, Note_on_c, 0, 71, 80
2, 50588, Note_off_c, 0, 77, 100
2, 50588, Note_off_c, 0, 71, 100
2, 50592, Note_on_c, 0, 76, 80
2, 50592, Note_on_c, 0, 72, 80
2, 50684, Note_off_c, 0, 76, 100
2, 50684, Note_off_c, 0, 72, 100
2, 50688, Note_on_c, 0, 76, 80
2, 50688, Note_on_c, 0, 72, 80
2, 50876, Note_off_c, 0, 76, 100
2, 50876, Note_off_c, 0, 72, 100
2, 50880, Note_on_c, 0, 74, 80
2, 50880, Note_on_c, 0, 68, 80
2, 50972, Note_off_c, 0, 74, 100
2, 50972, Note_off_c, 0, 68, 100
2, 50976, Note_on_c, 0, 74, 80
2, 50976, Note_on_c, 0, 68, 80
2, 51068, Note_off_c, 0, 74, 100
2, 51068, Note_off_c, 0, 68, 100
2, 51072, Note_on_c, 0, 72, 80
2, 51072, Note_on_c, 0, 69, 80
2, 51164, Note_off_c, 0, 72, 100
2, 51164, Note_off_c, 0, 69, 100
2, 51168, Note_on_c, 0, 72, 80
2, 51168, Note_on_c, 0, 69, 80
2, 51356, Note_off_c, 0, 69, 100
2, 51356, Note_off_c, 0, 72, 100
2, 51360, Note_on_c, 0, 71, 80
2, 51360, Note_on_c, 0, 68, 80
2, 51452, Note_off_c, 0, 71, 100
2, 51452, Note_off_c, 0, 68, 100
2, 51456, Note_on_c, 0, 71, 80
2, 51456, Note_on_c, 0, 68, 80
2, 51644, Note_off_c, 0, 71, 100
2, 51644, Note_off_c, 0, 68, 100
2, 51648, Note_on_c, 0, 72, 80
2, 51648, Note_on_c, 0, 64, 80
2, 51740, Note_off_c, 0, 72, 100
2, 51740, Note_off_c, 0, 64, 100
2, 51744, Note_on_c, 0, 72, 80
2, 51744, Note_on_c, 0, 64, 80
2, 51932, Note_off_c, 0, 72, 100
2, 51932, Note_off_c, 0, 64, 100
2, 51936, Note_on_c, 0, 74, 80
2, 51936, Note_on_c, 0, 71, 80
2, 52028, Note_off_c, 0, 74, 100
2, 52028, Note_off_c, 0, 71, 100
2, 52032, Note_on_c, 0, 74, 80
2, 52032, Note_on_c, 0, 71, 80
2, 52124, Note_off_c, 0, 74, 100
2, 52124, Note_off_c, 0, 71, 100
2, 52128, Note_on_c, 0, 74, 80
2, 52128, Note_on_c, 0, 71, 80
2, 52316, Note_off_c, 0, 71, 100
2, 52320, Note_on_c, 0, 65, 82
2, 52412, Note_off_c, 0, 65, 100
2, 52416, Note_on_c, 0, 64, 83
2, 52604, Note_off_c, 0, 64, 100
2, 52608, Note_on_c, 0, 65, 85
2, 52700, Note_off_c, 0, 74, 100
2, 52700, Note_off_c, 0, 65, 100
2, 52704, Note_on_c, 0, 75, 87
2, 52704, Note_on_c, 0, 71, 87
2, 52896, Note_on_c, 0, 65, 89
2, 52988, Note_off_c, 0, 75, 100
2, 52988, Note_off_c, 0, 71, 100
2, 52988, Note_off_c, 0, 65, 100
2, 52992, Note_on_c, 0, 76, 90
2, 52992, Note_on_c, 0, 70, 90
2, 53184, Note_on_c, 0, 64, 93
2, 53276, Note_off_c, 0, 76, 100
2, 53276, Note_off_c, 0, 70, 100
2, 53276, Note_off_c, 0, 64, 100
2, 53280, Note_on_c, 0, 76, 94
2, 53280, Note_on_c, 0, 70, 94
2, 53280, Note_on_c, 0, 67, 94
2, 53468, Note_off_c, 0, 76, 100
2, 53468, Note_off_c, 0, 70, 100
2, 53468, Note_off_c, 0, 67, 100
2, 53472, Note_on_c, 0, 79, 96
2, 53472, Note_on_c, 0, 76, 96
2, 53472, Note_on_c, 0, 70, 96
2, 53564, Note_off_c, 0, 79, 100
2, 53564, Note_off_c, 0, 76, 100
2, 53564, Note_off_c, 0, 70, 100
2, 53568, Note_on_c, 0, 79, 97
2, 53568, Note_on_c, 0, 69, 97
2, 53756, Note_off_c, 0, 79, 100
2, 53760, Note_on_c, 0, 77, 100
2, 53852, Note_off_c, 0, 69, 100
2, 53852, Note_off_c, 0, 77, 100
2, 53856, Note_on_c, 0, 76, 101
2, 53856, Note_on_c, 0, 71, 101
2, 53856, Note_on_c, 0, 65, 101
2, 54044, Note_off_c, 0, 76, 100
2, 54048, Note_on_c, 0, 74, 103
2, 54140, Note_off_c, 0, 71, 100
2, 54140, Note_off_c, 0, 65, 100
2, 54140, Note_off_c, 0, 74, 100
2, 54144, Note_on_c, 0, 73, 105
2, 54144, Note_on_c, 0, 71, 105
2, 54144, Note_on_c, 0, 65, 105
2, 54336, Note_on_c, 0, 74, 107
2, 54428, Note_off_c, 0, 74, 100
2, 54432, Note_on_c, 0, 74, 108
2, 54432, Note_on_c, 0, 71, 108
2, 54524, Note_off_c, 0, 73, 100
2, 54524, Note_off_c, 0, 74, 100
2, 54528, Note_on_c, 0, 81, 109
2, 54620, Note_off_c, 0, 81, 100
2, 54624, Note_on_c, 0, 79, 110
2, 54624, Note_on_c, 0, 74, 110
2, 54716, Note_off_c, 0, 71, 100
2, 54716, Note_off_c, 0, 65, 100
2, 54716, Note_off_c, 0, 71, 100
2, 54716, Note_off_c, 0, 79, 100
2, 54716, Note_off_c, 0, 74, 100
2, 54720, Note_on_c, 0, 79, 110
2, 54720, Note_on_c, 0, 74, 110
2, 54812, Note_off_c, 0, 79, 100
2, 54812, Note_off_c, 0, 74, 100
2, 54816, Note_on_c, 0, 77, 104
2, 54816, Note_on_c, 0, 71, 104
2, 54908, Note_off_c, 0, 77, 100
2, 54908, Note_off_c, 0, 71, 100
2, 54912, Note_on_c, 0, 76, 98
2, 54912, Note_on_c, 0, 72, 98
2, 55004, Note_off_c, 0, 76, 100
2, 55008, Note_on_c, 0, 77, 92
2, 55100, Note_off_c, 0, 77, 100
2, 55104, Note_on_c, 0, 76, 86
2, 55196, Note_off_c, 0, 72, 100
2, 55196, Note_off_c, 0, 76, 100
2, 55200, Note_on_c, 0, 76, 80
2, 55200, Note_on_c, 0, 72, 80
2, 55292, Note_off_c, 0, 76, 100
2, 55292, Note_off_c, 0, 72, 100
2, 55584, Note_on_c, 0, 76, 80
2, 55584, Note_on_c, 0, 67, 80
2, 55676, Note_off_c, 0, 76, 100
2, 55676, Note_off_c, 0, 67, 100
2, 55680, Note_on_c, 0, 72, 80
2, 55680, Note_on_c, 0, 64, 80
2, 55724, Note_off_c, 0, 72, 100
2, 55724, Note_off_c, 0, 64, 100
2, 55728, Note_on_c, 0, 71, 80
2, 55728, Note_on_c, 0, 62, 80
2, 55820, Note_off_c, 0, 71, 100
2, 55820, Note_off_c, 0, 62, 100
2, 55824, Note_on_c, 0, 72, 80
2, 55824, Note_on_c, 0, 64, 80
2, 55868, Note_off_c, 0, 72, 100
2, 55868, Note_off_c, 0, 64, 100
2, 55872, Note_on_c, 0, 74, 80
2, 55872, Note_on_c, 0, 65, 80
2, 55964, Note_off_c, 0, 74, 100
2, 55964, Note_off_c, 0, 65, 100
2, 55968, Note_on_c, 0, 71, 80
2, 55968, Note_on_c, 0, 62, 80
2, 56012, Note_off_c, 0, 71, 100
2, 56012, Note_off_c, 0, 62, 100
2, 56016, Note_on_c, 0, 70, 80
2, 56016, Note_on_c, 0, 61, 80
2, 56108, Note_off_c, 0, 70, 100
2, 56108, Note_off_c, 0, 61, 100
2, 56112, Note_on_c, 0, 71, 80
2, 56112, Note_on_c, 0, 62, 80
2, 56156, Note_off_c, 0, 71, 100
2, 56156, Note_off_c, 0, 62, 100
2, 56448, Note_on_c, 0, 53, 80
2, 56540, Note_off_c, 0, 53, 100
2, 56544, Note_on_c, 0, 50, 80
2, 56588, Note_off_c, 0, 50, 100
2, 56592, Note_on_c, 0, 49, 80
2, 56684, Note_off_c, 0, 49, 100
2, 56688, Note_on_c, 0, 50, 80
2, 56732, Note_off_c, 0, 50, 100
2, 56736, Note_on_c, 0, 67, 80
2, 56828, Note_off_c, 0, 67, 100
2, 56832, Note_on_c, 0, 64, 80
2, 56876, Note_off_c, 0, 64, 100
2, 56880, Note_on_c, 0, 63, 80
2, 56972, Note_off_c, 0, 63, 100
2, 56976, Note_on_c, 0, 64, 80
2, 57020, Note_off_c, 0, 64, 100
2, 57024, Note_on_c, 0, 67, 80
2, 57116, Note_off_c, 0, 67, 100
2, 57120, Note_on_c, 0, 64, 80
2, 57164, Note_off_c, 0, 64, 100
2, 57168, Note_on_c, 0, 67, 80
2, 57260, Note_off_c, 0, 67, 100
2, 57264, Note_on_c, 0, 65, 80
2, 57308, Note_off_c, 0, 65, 100
2, 57312, Note_on_c, 0, 69, 80
2, 57404, Note_off_c, 0, 69, 100
2, 57408, Note_on_c, 0, 66, 80
2, 57452, Note_off_c, 0, 66, 100
2, 57456, Note_on_c, 0, 69, 80
2, 57548, Note_off_c, 0, 69, 100
2, 57552, Note_on_c, 0, 67, 80
2, 57596, Note_off_c, 0, 67, 100
2, 57600, Note_on_c, 0, 76, 80
2, 57600, Note_on_c, 0, 67, 80
2, 57884, Note_off_c, 0, 76, 100
2, 57884, Note_off_c, 0, 67, 100
2, 57888, Note_on_c, 0, 72, 80
2, 57888, Note_on_c, 0, 67, 80
2, 58172, Note_off_c, 0, 72, 100
2, 58172, Note_off_c, 0, 67, 100
2, 58176, Note_on_c, 0, 72, 80
2, 58176, Note_on_c, 0, 64, 80
2, 58268, Note_off_c, 0, 72, 100
2, 58268, Note_off_c, 0, 64, 100
2, 58272, Note_on_c, 0, 71, 80
2, 58272, Note_on_c, 0, 62, 80
2, 58316, Note_off_c, 0, 71, 100
2, 58316, Note_off_c, 0, 62, 100
2, 58320, Note_on_c, 0, 74, 80
2, 58320, Note_on_c, 0, 65, 80
2, 58412, Note_off_c, 0, 74, 100
2, 58412, Note_off_c, 0, 65, 100
2, 58416, Note_on_c, 0, 72, 80
2, 58416, Note_on_c, 0, 64, 80
2, 58460, Note_off_c, 0, 72, 100
2, 58460, Note_off_c, 0, 64, 100
2, 58464, Note_on_c, 0, 72, 80
2, 58464, Note_on_c, 0, 64, 80
2, 58556, Note_off_c, 0, 72, 100
2, 58556, Note_off_c, 0, 64, 100
2, 58560, Note_on_c, 0, 70, 80
2, 58560, Note_on_c, 0, 61, 80
2, 58604, Note_off_c, 0, 70, 100
2, 58604, Note_off_c, 0, 61, 100
2, 58608, Note_on_c, 0, 72, 80
2, 58608, Note_on_c, 0, 64, 80
2, 58700, Note_off_c, 0, 72, 100
2, 58700, Note_off_c, 0, 64, 100
2, 58704, Note_on_c, 0, 71, 80
2, 58704, Note_on_c, 0, 62, 80
2, 58748, Note_off_c, 0, 71, 100
2, 58748, Note_off_c, 0, 62, 100
2, 58752, Note_on_c, 0, 71, 80
2, 58752, Note_on_c, 0, 67, 80
2, 58752, Note_on_c, 0, 62, 80
2, 59036, Note_off_c, 0, 71, 100
2, 59036, Note_off_c, 0, 67, 100
2, 59036, Note_off_c, 0, 62, 100
2, 59040, Note_on_c, 0, 72, 80
2, 59040, Note_on_c, 0, 67, 80
2, 59324, Note_off_c, 0, 72, 100
2, 59324, Note_off_c, 0, 67, 100
2, 59328, Note_on_c, 0, 76, 87
2, 59328, Note_on_c, 0, 64, 87
2, 59420, Note_off_c, 0, 76, 100
2, 59424, Note_on_c, 0, 74, 89
2, 59468, Note_off_c, 0, 64, 100
2, 59468, Note_off_c, 0, 74, 100
2, 59472, Note_on_c, 0, 77, 91
2, 59472, Note_on_c, 0, 67, 91
2, 59564, Note_off_c, 0, 77, 100
2, 59568, Note_on_c, 0, 76, 93
2, 59612, Note_off_c, 0, 67, 100
2, 59612, Note_off_c, 0, 76, 100
2, 59616, Note_on_c, 0, 79, 94
2, 59616, Note_on_c, 0, 74, 94
2, 59708, Note_off_c, 0, 74, 100
2, 59712, Note_on_c, 0, 73, 97
2, 59756, Note_off_c, 0, 73, 100
2, 59760, Note_on_c, 0, 76, 98
2, 59852, Note_off_c, 0, 76, 100
2, 59856, Note_on_c, 0, 74, 100
2, 59900, Note_off_c, 0, 74, 100
2, 59904, Note_on_c, 0, 73, 100
2, 59996, Note_off_c, 0, 73, 100
2, 60000, Note_on_c, 0, 71, 97
2, 60044, Note_off_c, 0, 79, 100
2, 60044, Note_off_c, 0, 71, 100
2, 60048, Note_on_c, 0, 79, 95
2, 60048, Note_on_c, 0, 74, 95
2, 60140, Note_off_c, 0, 74, 100
2, 60144, Note_on_c, 0, 73, 92
2, 60188, Note_off_c, 0, 73, 100
2, 60192, Note_on_c, 0, 69, 90
2, 60284, Note_off_c, 0, 79, 100
2, 60288, Note_on_c, 0, 76, 87
2, 60332, Note_off_c, 0, 69, 100
2, 60332, Note_off_c, 0, 76, 100
2, 60336, Note_on_c, 0, 79, 85
2, 60336, Note_on_c, 0, 69, 85
2, 60428, Note_off_c, 0, 79, 100
2, 60432, Note_on_c, 0, 77, 81
2, 60476, Note_off_c, 0, 77, 100
2, 60480, Note_on_c, 0, 76, 80
2, 60572, Note_off_c, 0, 76, 100
2, 60576, Note_on_c, 0, 73, 80
2, 60620, Note_off_c, 0, 69, 100
2, 60620, Note_off_c, 0, 73, 100
2, 60624, Note_on_c, 0, 69, 80
2, 60624, Note_on_c, 0, 76, 80
2, 60716, Note_off_c, 0, 76, 100
2, 60720, Note_on_c, 0, 74, 80
2, 60764, Note_off_c, 0, 69, 100
2, 60764, Note_off_c, 0, 74, 100
2, 60768, Note_on_c, 0, 72, 80
2, 60768, Note_on_c, 0, 69, 80
2, 60908, Note_off_c, 0, 72, 100
2, 60908, Note_off_c, 0, 69, 100
2, 60912, Note_on_c, 0, 71, 80
2, 60912, Note_on_c, 0, 62, 80
2, 61052, Note_off_c, 0, 71, 100
2, 61052, Note_off_c, 0, 62, 100
2, 61056, Note_on_c, 0, 72, 80
2, 61056, Note_on_c, 0, 67, 80
2, 61148, Note_off_c, 0, 67, 100
2, 61152, Note_on_c, 0, 64, 80
2, 61196, Note_off_c, 0, 72, 100
2, 61196, Note_off_c, 0, 64, 100
2, 61200, Note_on_c, 0, 73, 80
2, 61200, Note_on_c, 0, 67, 80
2, 61292, Note_off_c, 0, 67, 100
2, 61296, Note_on_c, 0, 65, 80
2, 61340, Note_off_c, 0, 73, 100
2, 61344, Note_on_c, 0, 74, 80
2, 61436, Note_off_c, 0, 65, 100
2, 61440, Note_on_c, 0, 62, 80
2, 61484, Note_off_c, 0, 74, 100
2, 61484, Note_off_c, 0, 62, 100
2, 61488, Note_on_c, 0, 74, 80
2, 61488, Note_on_c, 0, 68, 80
2, 61488, Note_on_c, 0, 65, 80
2, 61580, Note_off_c, 0, 74, 100
2, 61580, Note_off_c, 0, 68, 100
2, 61580, Note_off_c, 0, 65, 100
2, 61584, Note_on_c, 0, 67, 80
2, 61584, Note_on_c, 0, 65, 80
2, 61584, Note_on_c, 0, 62, 80
2, 61628, Note_off_c, 0, 67, 100
2, 61628, Note_off_c, 0, 65, 100
2, 61628, Note_off_c, 0, 62, 100
2, 61632, Note_on_c, 0, 67, 80
2, 61632, Note_on_c, 0, 65, 80
2, 61632, Note_on_c, 0, 62, 80
2, 61724, Note_off_c, 0, 65, 100
2, 61724, Note_off_c, 0, 62, 100
2, 61728, Note_on_c, 0, 62, 80
2, 61772, Note_off_c, 0, 67, 100
2, 61772, Note_off_c, 0, 62, 100
2, 61776, Note_on_c, 0, 67, 80
2, 61776, Note_on_c, 0, 59, 80
2, 61868, Note_off_c, 0, 59, 100
2, 61872, Note_on_c, 0, 60, 80
2, 61916, Note_off_c, 0, 60, 100
2, 61920, Note_on_c, 0, 62, 80
2, 62012, Note_off_c, 0, 62, 100
2, 62016, Note_on_c, 0, 60, 80
2, 62060, Note_off_c, 0, 67, 100
2, 62060, Note_off_c, 0, 60, 100
2, 62064, Note_on_c, 0, 67, 80
2, 62064, Note_on_c, 0, 65, 80
2, 62156, Note_off_c, 0, 65, 100
2, 62160, Note_on_c, 0, 64, 80
2, 62204, Note_off_c, 0, 67, 100
2, 62204, Note_off_c, 0, 64, 100
2, 62496, Note_on_c, 0, 76, 80
2, 62496, Note_on_c, 0, 67, 80
2, 62588, Note_off_c, 0, 76, 100
2, 62588, Note_off_c, 0, 67, 100
2, 62592, Note_on_c, 0, 72, 80
2, 62592, Note_on_c, 0, 64, 80
2, 62636, Note_off_c, 0, 72, 100
2, 62636, Note_off_c, 0, 64, 100
2, 62640, Note_on_c, 0, 71, 80
2, 62640, Note_on_c, 0, 62, 80
2, 62732, Note_off_c, 0, 71, 100
2, 62732, Note_off_c, 0, 62, 100
2, 62736, Note_on_c, 0, 72, 80
2, 62736, Note_on_c, 0, 64, 80
2, 62780, Note_off_c, 0, 72, 100
2, 62780, Note_off_c, 0, 64, 100
2, 62784, Note_on_c, 0, 74, 80
2, 62784, Note_on_c, 0, 65, 80
2, 62876, Note_off_c, 0, 74, 100
2, 62876, Note_off_c, 0, 65, 100
2, 62880, Note_on_c, 0, 71, 80
2, 62880, Note_on_c, 0, 62, 80
2, 62924, Note_off_c, 0, 71, 100
2, 62924, Note_off_c, 0, 62, 100
2, 62928, Note_on_c, 0, 70, 80
2, 62928, Note_on_c, 0, 61, 80
2, 63020, Note_off_c, 0, 70, 100
2, 63020, Note_off_c, 0, 61, 100
2, 63024, Note_on_c, 0, 71, 80
2, 63024, Note_on_c, 0, 62, 80
2, 63068, Note_off_c, 0, 71, 100
2, 63068, Note_off_c, 0, 62, 100
2, 63360, Note_on_c, 0, 53, 80
2, 63452, Note_off_c, 0, 53, 100
2, 63456, Note_on_c, 0, 50, 80
2, 63500, Note_off_c, 0, 50, 100
2, 63504, Note_on_c, 0, 49, 80
2, 63596, Note_off_c, 0, 49, 100
2, 63600, Note_on_c, 0, 50, 80
2, 63644, Note_off_c, 0, 50, 100
2, 63648, Note_on_c, 0, 67, 80
2, 63740, Note_off_c, 0, 67, 100
2, 63744, Note_on_c, 0, 64, 80
2, 63788, Note_off_c, 0, 64, 100
2, 63792, Note_on_c, 0, 63, 80
2, 63884, Note_off_c, 0, 63, 100
2, 63888, Note_on_c, 0, 64, 80
2, 63932, Note_off_c, 0, 64, 100
2, 63936, Note_on_c, 0, 67, 80
2, 64028, Note_off_c, 0, 67, 100
2, 64032, Note_on_c, 0, 64, 80
2, 64076, Note_off_c, 0, 64, 100
2, 64080, Note_on_c, 0, 67, 80
2, 64172, Note_off_c, 0, 67, 100
2, 64176, Note_on_c, 0, 65, 80
2, 64220, Note_off_c, 0, 65, 100
2, 64224, Note_on_c, 0, 69, 80
2, 64316, Note_off_c, 0, 69, 100
2, 64320, Note_on_c, 0, 66, 80
2, 64364, Note_off_c, 0, 66, 100
2, 64368, Note_on_c, 0, 69, 80
2, 64460, Note_off_c, 0, 69, 100
2, 64464, Note_on_c, 0, 67, 80
2, 64508, Note_off_c, 0, 67, 100
2, 64512, Note_on_c, 0, 76, 80
2, 64512, Note_on_c, 0, 67, 80
2, 64796, Note_off_c, 0, 76, 100
2, 64796, Note_off_c, 0, 67, 100
2, 64800, Note_on_c, 0, 72, 80
2, 64800, Note_on_c, 0, 67, 80
2, 65084, Note_off_c, 0, 72, 100
2, 65084, Note_off_c, 0, 67, 100
2, 65088, Note_on_c, 0, 72, 80
2, 65088, Note_on_c, 0, 64, 80
2, 65180, Note_off_c, 0, 72, 100
2, 65180, Note_off_c, 0, 64, 100
2, 65184, Note_on_c, 0, 71, 80
2, 65184, Note_on_c, 0, 62, 80
2, 65228, Note_off_c, 0, 71, 100
2, 65228, Note_off_c, 0, 62, 100
2, 65232, Note_on_c, 0, 74, 80
2, 65232, Note_on_c, 0, 65, 80
2, 65324, Note_off_c, 0, 74, 100
2, 65324, Note_off_c, 0, 65, 100
2, 65328, Note_on_c, 0, 72, 80
2, 65328, Note_on_c, 0, 64, 80
2, 65372, Note_off_c, 0, 72, 100
2, 65372, Note_off_c, 0, 64, 100
2, 65376, Note_on_c, 0, 72, 80
2, 65376, Note_on_c, 0, 64, 80
2, 65468, Note_off_c, 0, 72, 100
2, 65468, Note_off_c, 0, 64, 100
2, 65472, Note_on_c, 0, 70, 80
2, 65472, Note_on_c, 0, 61, 80
2, 65516, Note_off_c, 0, 70, 100
2, 65516, Note_off_c, 0, 61, 100
2, 65520, Note_on_c, 0, 72, 80
2, 65520, Note_on_c, 0, 64, 80
2, 65612, Note_off_c, 0, 72, 100
2, 65612, Note_off_c, 0, 64, 100
2, 65616, Note_on_c, 0, 71, 80
2, 65616, Note_on_c, 0, 62, 80
2, 65660, Note_off_c, 0, 71, 100
2, 65660, Note_off_c, 0, 62, 100
2, 65664, Note_on_c, 0, 71, 80
2, 65664, Note_on_c, 0, 67, 80
2, 65664, Note_on_c, 0, 62, 80
2, 65948, Note_off_c, 0, 71, 100
2, 65948, Note_off_c, 0, 67, 100
2, 65948, Note_off_c, 0, 62, 100
2, 65952, Note_on_c, 0, 72, 80
2, 65952, Note_on_c, 0, 67, 80
2, 66236, Note_off_c, 0, 72, 100
2, 66236, Note_off_c, 0, 67, 100
2, 66240, Note_on_c, 0, 76, 87
2, 66240, Note_on_c, 0, 64, 87
2, 66332, Note_off_c, 0, 76, 100
2, 66336, Note_on_c, 0, 74, 89
2, 66380, Note_off_c, 0, 64, 100
2, 66380, Note_off_c, 0, 74, 100
2, 66384, Note_on_c, 0, 77, 91
2, 66384, Note_on_c, 0, 67, 91
2, 66476, Note_off_c, 0, 77, 100
2, 66480, Note_on_c, 0, 76, 93
2, 66524, Note_off_c, 0, 67, 100
2, 66524, Note_off_c, 0, 76, 100
2, 66528, Note_on_c, 0, 79, 94
2, 66528, Note_on_c, 0, 74, 94
2, 66620, Note_off_c, 0, 74, 100
2, 66624, Note_on_c, 0, 73, 97
2, 66668, Note_off_c, 0, 73, 100
2, 66672, Note_on_c, 0, 76, 98
2, 66764, Note_off_c, 0, 76, 100
2, 66768, Note_on_c, 0, 74, 100
2, 66812, Note_off_c, 0, 74, 100
2, 66816, Note_on_c, 0, 73, 100
2, 66908, Note_off_c, 0, 73, 100
2, 66912, Note_on_c, 0, 71, 97
2, 66956, Note_off_c, 0, 79, 100
2, 66956, Note_off_c, 0, 71, 100
2, 66960, Note_on_c, 0, 79, 95
2, 66960, Note_on_c, 0, 74, 95
2, 67052, Note_off_c, 0, 74, 100
2, 67056, Note_on_c, 0, 73, 92
2, 67100, Note_off_c, 0, 73, 100
2, 67104, Note_on_c, 0, 69, 90
2, 67196, Note_off_c, 0, 79, 100
2, 67200, Note_on_c, 0, 76, 87
2, 67244, Note_off_c, 0, 69, 100
2, 67244, Note_off_c, 0, 76, 100
2, 67248, Note_on_c, 0, 79, 85
2, 67248, Note_on_c, 0, 69, 85
2, 67340, Note_off_c, 0, 79, 100
2, 67344, Note_on_c, 0, 77, 81
2, 67388, Note_off_c, 0, 77, 100
2, 67392, Note_on_c, 0, 76, 80
2, 67484, Note_off_c, 0, 76, 100
2, 67488, Note_on_c, 0, 73, 80
2, 67532, Note_off_c, 0, 69, 100
2, 67532, Note_off_c, 0, 73, 100
2, 67536, Note_on_c, 0, 69, 80
2, 67536, Note_on_c, 0, 76, 80
2, 67628, Note_off_c, 0, 76, 100
2, 67632, Note_on_c, 0, 74, 80
2, 67676, Note_off_c, 0, 69, 100
2, 67676, Note_off_c, 0, 74, 100
2, 67680, Note_on_c, 0, 72, 80
2, 67680, Note_on_c, 0, 69, 80
2, 67820, Note_off_c, 0, 72, 100
2, 67820, Note_off_c, 0, 69, 100
2, 67824, Note_on_c, 0, 71, 80
2, 67824, Note_on_c, 0, 62, 80
2, 67964, Note_off_c, 0, 71, 100
2, 67964, Note_off_c, 0, 62, 100
2, 67968, Note_on_c, 0, 72, 80
2, 67968, Note_on_c, 0, 67, 80
2, 68060, Note_off_c, 0, 67, 100
2, 68064, Note_on_c, 0, 64, 80
2, 68108, Note_off_c, 0, 72, 100
2, 68108, Note_off_c, 0, 64, 100
2, 68112, Note_on_c, 0, 73, 80
2, 68112, Note_on_c, 0, 67, 80
2, 68204, Note_off_c, 0, 67, 100
2, 68208, Note_on_c, 0, 65, 80
2, 68252, Note_off_c, 0, 73, 100
2, 68256, Note_on_c, 0, 74, 80
2, 68348, Note_off_c, 0, 65, 100
2, 68352, Note_on_c, 0, 62, 80
2, 68396, Note_off_c, 0, 74, 100
2, 68396, Note_off_c, 0, 62, 100
2, 68400, Note_on_c, 0, 74, 80
2, 68400, Note_on_c, 0, 68, 80
2, 68400, Note_on_c, 0, 65, 80
2, 68492, Note_off_c, 0, 74, 100
2, 68492, Note_off_c, 0, 68, 100
2, 68492, Note_off_c, 0, 65, 100
2, 68496, Note_on_c, 0, 67, 80
2, 68496, Note_on_c, 0, 65, 80
2, 68496, Note_on_c, 0, 62, 80
2, 68540, Note_off_c, 0, 67, 100
2, 68540, Note_off_c, 0, 65, 100
2, 68540, Note_off_c, 0, 62, 100
2, 68544, Note_on_c, 0, 67, 80
2, 68544, Note_on_c, 0, 65, 80
2, 68544, Note_on_c, 0, 62, 80
2, 68636, Note_off_c, 0, 65, 100
2, 68636, Note_off_c, 0, 62, 100
2, 68640, Note_on_c, 0, 62, 80
2, 68684, Note_off_c, 0, 67, 100
2, 68684, Note_off_c, 0, 62, 100
2, 68688, Note_on_c, 0, 65, 80
2, 68688, Note_on_c, 0, 59, 80
2, 68688, Note_on_c, 0, 67, 80
2, 68780, Note_off_c, 0, 65, 100
2, 68780, Note_off_c, 0, 59, 100
2, 68784, Note_on_c, 0, 64, 80
2, 68784, Note_on_c, 0, 60, 80
2, 68828, Note_off_c, 0, 64, 100
2, 68828, Note_off_c, 0, 60, 100
2, 68832, Note_on_c, 0, 64, 80
2, 68924, Note_off_c, 0, 64, 100
2, 68928, Note_on_c, 0, 64, 80
2, 68928, Note_on_c, 0, 62, 80
2, 68928, Note_on_c, 0, 68, 80
2, 68972, Note_off_c, 0, 67, 100
2, 68972, Note_off_c, 0, 64, 100
2, 68972, Note_off_c, 0, 62, 100
2, 68972, Note_off_c, 0, 68, 100
2, 68976, Note_on_c, 0, 69, 80
2, 68976, Note_on_c, 0, 64, 80
2, 68976, Note_on_c, 0, 60, 80
2, 69068, Note_off_c, 0, 69, 100
2, 69068, Note_off_c, 0, 64, 100
2, 69068, Note_off_c, 0, 60, 100
2, 69072, Note_on_c, 0, 71, 80
2, 69072, Note_on_c, 0, 64, 80
2, 69072, Note_on_c, 0, 59, 80
2, 69116, Note_off_c, 0, 71, 100
2, 69116, Note_off_c, 0, 64, 100
2, 69120, Note_on_c, 0, 64, 80
2, 69212, Note_off_c, 0, 59, 100
2, 69212, Note_off_c, 0, 64, 100
2, 69216, Note_on_c, 0, 64, 80
2, 69216, Note_on_c, 0, 62, 80
2, 69216, Note_on_c, 0, 59, 80
2, 69260, Note_off_c, 0, 62, 100
2, 69260, Note_off_c, 0, 59, 100
2, 69264, Note_on_c, 0, 60, 80
2, 69264, Note_on_c, 0, 57, 80
2, 69356, Note_off_c, 0, 64, 100
2, 69356, Note_off_c, 0, 60, 100
2, 69356, Note_off_c, 0, 57, 100
2, 69360, Note_on_c, 0, 64, 80
2, 69360, Note_on_c, 0, 62, 80
2, 69360, Note_on_c, 0, 56, 80
2, 69404, Note_off_c, 0, 64, 100
2, 69404, Note_off_c, 0, 62, 100
2, 69404, Note_off_c, 0, 56, 100
2, 69408, Note_on_c, 0, 72, 80
2, 69408, Note_on_c, 0, 60, 80
2, 69500, Note_off_c, 0, 60, 100
2, 69504, Note_on_c, 0, 63, 80
2, 69548, Note_off_c, 0, 63, 100
2, 69552, Note_on_c, 0, 64, 80
2, 69644, Note_off_c, 0, 72, 100
2, 69648, Note_on_c, 0, 71, 80
2, 69692, Note_off_c, 0, 71, 100
2, 69696, Note_on_c, 0, 72, 80
2, 69788, Note_off_c, 0, 64, 100
2, 69792, Note_on_c, 0, 63, 80
2, 69836, Note_off_c, 0, 63, 100
2, 69840, Note_on_c, 0, 64, 80
2, 69932, Note_off_c, 0, 72, 100
2, 69936, Note_on_c, 0, 71, 80
2, 69980, Note_off_c, 0, 71, 100
2, 69984, Note_on_c, 0, 72, 80
2, 70076, Note_off_c, 0, 64, 100
2, 70080, Note_on_c, 0, 63, 80
2, 70124, Note_off_c, 0, 63, 100
2, 70128, Note_on_c, 0, 64, 80
2, 70220, Note_off_c, 0, 72, 100
2, 70224, Note_on_c, 0, 71, 80
2, 70268, Note_off_c, 0, 71, 100
2, 70272, Note_on_c, 0, 71, 80
2, 70364, Note_off_c, 0, 64, 100
2, 70368, Note_on_c, 0, 65, 80
2, 70412, Note_off_c, 0, 65, 100
2, 70416, Note_on_c, 0, 64, 80
2, 70508, Note_off_c, 0, 71, 100
2, 70512, Note_on_c, 0, 72, 80
2, 70556, Note_off_c, 0, 72, 100
2, 70560, Note_on_c, 0, 71, 80
2, 70652, Note_off_c, 0, 64, 100
2, 70656, Note_on_c, 0, 65, 80
2, 70700, Note_off_c, 0, 65, 100
2, 70704, Note_on_c, 0, 64, 80
2, 70796, Note_off_c, 0, 71, 100
2, 70800, Note_on_c, 0, 72, 80
2, 70844, Note_off_c, 0, 72, 100
2, 70848, Note_on_c, 0, 71, 80
2, 70940, Note_off_c, 0, 64, 100
2, 70944, Note_on_c, 0, 65, 80
2, 70988, Note_off_c, 0, 65, 100
2, 70992, Note_on_c, 0, 64, 80
2, 71084, Note_off_c, 0, 71, 100
2, 71088, Note_on_c, 0, 76, 80
2, 71132, Note_off_c, 0, 76, 100
2, 71136, Note_on_c, 0, 76, 80
2, 71136, Note_on_c, 0, 71, 80
2, 71228, Note_off_c, 0, 64, 100
2, 71372, Note_off_c, 0, 76, 100
2, 71372, Note_off_c, 0, 71, 100
2, 71376, Note_on_c, 0, 76, 80
2, 71376, Note_on_c, 0, 72, 80
2, 71420, Note_off_c, 0, 76, 100
2, 71420, Note_off_c, 0, 72, 100
2, 71424, Note_on_c, 0, 76, 80
2, 71424, Note_on_c, 0, 72, 80
2, 71660, Note_off_c, 0, 76, 100
2, 71660, Note_off_c, 0, 72, 100
2, 71664, Note_on_c, 0, 74, 80
2, 71664, Note_on_c, 0, 71, 80
2, 71664, Note_on_c, 0, 68, 80
2, 71708, Note_off_c, 0, 74, 100
2, 71708, Note_off_c, 0, 71, 100
2, 71708, Note_off_c, 0, 68, 100
2, 71712, Note_on_c, 0, 74, 80
2, 71712, Note_on_c, 0, 71, 80
2, 71712, Note_on_c, 0, 64, 80
2, 71804, Note_off_c, 0, 74, 100
2, 71804, Note_off_c, 0, 71, 100
2, 71804, Note_off_c, 0, 64, 100
2, 71808, Note_on_c, 0, 72, 80
2, 71808, Note_on_c, 0, 69, 80
2, 71808, Note_on_c, 0, 65, 80
2, 71852, Note_off_c, 0, 72, 100
2, 71852, Note_off_c, 0, 69, 100
2, 71852, Note_off_c, 0, 65, 100
2, 71856, Note_on_c, 0, 69, 80
2, 71856, Note_on_c, 0, 66, 80
2, 71856, Note_on_c, 0, 72, 80
2, 71948, Note_off_c, 0, 69, 100
2, 71948, Note_off_c, 0, 66, 100
2, 71948, Note_off_c, 0, 72, 100
2, 71952, Note_on_c, 0, 71, 80
2, 71952, Note_on_c, 0, 68, 80
2, 71952, Note_on_c, 0, 59, 80
2, 71996, Note_off_c, 0, 71, 100
2, 71996, Note_off_c, 0, 68, 100
2, 71996, Note_off_c, 0, 59, 100
2, 72000, Note_on_c, 0, 71, 80
2, 72000, Note_on_c, 0, 68, 80
2, 72000, Note_on_c, 0, 59, 80
2, 72092, Note_off_c, 0, 71, 100
2, 72092, Note_off_c, 0, 68, 100
2, 72092, Note_off_c, 0, 59, 100
2, 72096, Note_on_c, 0, 71, 82
2, 72096, Note_on_c, 0, 68, 82
2, 72096, Note_on_c, 0, 59, 82
2, 72236, Note_off_c, 0, 71, 100
2, 72236, Note_off_c, 0, 68, 100
2, 72236, Note_off_c, 0, 59, 100
2, 72240, Note_on_c, 0, 71, 87
2, 72240, Note_on_c, 0, 68, 87
2, 72240, Note_on_c, 0, 59, 87
2, 72380, Note_off_c, 0, 71, 100
2, 72380, Note_off_c, 0, 68, 100
2, 72380, Note_off_c, 0, 59, 100
2, 72384, Note_on_c, 0, 72, 91
2, 72384, Note_on_c, 0, 69, 91
2, 72384, Note_on_c, 0, 60, 91
2, 72524, Note_off_c, 0, 72, 100
2, 72524, Note_off_c, 0, 69, 100
2, 72524, Note_off_c, 0, 60, 100
2, 72528, Note_on_c, 0, 72, 96
2, 72528, Note_on_c, 0, 69, 96
2, 72528, Note_on_c, 0, 60, 96
2, 72668, Note_off_c, 0, 72, 100
2, 72668, Note_off_c, 0, 69, 100
2, 72668, Note_off_c, 0, 60, 100
2, 72672, Note_on_c, 0, 74, 100
2, 72672, Note_on_c, 0, 71, 100
2, 72672, Note_on_c, 0, 62, 100
2, 72812, Note_off_c, 0, 74, 100
2, 72812, Note_off_c, 0, 71, 100
2, 72812, Note_off_c, 0, 62, 100
2, 72816, Note_on_c, 0, 86, 80
2, 72816, Note_on_c, 0, 83, 80
2, 72816, Note_on_c, 0, 74, 80
2, 72860, Note_off_c, 0, 86, 100
2, 72860, Note_off_c, 0, 83, 100
2, 72860, Note_off_c, 0, 74, 100
2, 72864, Note_on_c, 0, 86, 80
2, 72864, Note_on_c, 0, 83, 80
2, 72864, Note_on_c, 0, 74, 80
2, 72956, Note_off_c, 0, 86, 100
2, 72956, Note_off_c, 0, 83, 100
2, 72956, Note_off_c, 0, 74, 100
2, 72960, Note_on_c, 0, 74, 80
2, 73004, Note_off_c, 0, 74, 100
2, 73008, Note_on_c, 0, 73, 80
2, 73100, Note_off_c, 0, 73, 100
2, 73104, Note_on_c, 0, 74, 81
2, 73148, Note_off_c, 0, 74, 100
2, 73152, Note_on_c, 0, 74, 82
2, 73248, Note_on_c, 0, 71, 83
2, 73292, Note_off_c, 0, 71, 100
2, 73296, Note_on_c, 0, 70, 84
2, 73388, Note_off_c, 0, 70, 100
2, 73392, Note_on_c, 0, 71, 85
2, 73436, Note_off_c, 0, 71, 100
2, 73440, Note_on_c, 0, 67, 86
2, 73532, Note_off_c, 0, 74, 100
2, 73536, Note_on_c, 0, 75, 87
2, 73580, Note_off_c, 0, 67, 100
2, 73580, Note_off_c, 0, 75, 100
2, 73584, Note_on_c, 0, 77, 87
2, 73584, Note_on_c, 0, 67, 87
2, 73676, Note_off_c, 0, 77, 100
2, 73680, Note_on_c, 0, 76, 89
2, 73724, Note_off_c, 0, 76, 100
2, 73728, Note_on_c, 0, 76, 89
2, 73820, Note_off_c, 0, 67, 100
2, 73824, Note_on_c, 0, 72, 90
2, 73868, Note_off_c, 0, 72, 100
2, 73872, Note_on_c, 0, 71, 91
2, 73964, Note_off_c, 0, 71, 100
2, 73968, Note_on_c, 0, 72, 92
2, 74012, Note_off_c, 0, 72, 100
2, 74016, Note_on_c, 0, 72, 93
2, 74108, Note_off_c, 0, 72, 100
2, 74112, Note_on_c, 0, 70, 94
2, 74156, Note_off_c, 0, 76, 100
2, 74156, Note_off_c, 0, 70, 100
2, 74160, Note_on_c, 0, 69, 95
2, 74160, Note_on_c, 0, 76, 95
2, 74252, Note_off_c, 0, 69, 100
2, 74256, Note_on_c, 0, 70, 96
2, 74300, Note_off_c, 0, 70, 100
2, 74304, Note_on_c, 0, 70, 97
2, 74396, Note_off_c, 0, 76, 100
2, 74400, Note_on_c, 0, 76, 98
2, 74444, Note_off_c, 0, 70, 100
2, 74444, Note_off_c, 0, 76, 100
2, 74448, Note_on_c, 0, 70, 98
2, 74448, Note_on_c, 0, 79, 98
2, 74540, Note_off_c, 0, 70, 100
2, 74540, Note_off_c, 0, 79, 100
2, 74544, Note_on_c, 0, 69, 100
2, 74544, Note_on_c, 0, 77, 100
2, 74588, Note_off_c, 0, 69, 100
2, 74588, Note_off_c, 0, 77, 100
2, 74592, Note_on_c, 0, 74, 100
2, 74592, Note_on_c, 0, 69, 100
2, 74684, Note_off_c, 0, 74, 100
2, 74684, Note_off_c, 0, 69, 100
2, 74688, Note_on_c, 0, 72, 101
2, 74688, Note_on_c, 0, 78, 101
2, 74732, Note_off_c, 0, 72, 100
2, 74732, Note_off_c, 0, 78, 100
2, 74736, Note_on_c, 0, 81, 102
2, 74736, Note_on_c, 0, 74, 102
2, 74828, Note_off_c, 0, 81, 100
2, 74832, Note_on_c, 0, 79, 103
2, 74976, Note_on_c, 0, 75, 105
2, 75020, Note_off_c, 0, 74, 100
2, 75020, Note_off_c, 0, 79, 100
2, 75020, Note_off_c, 0, 75, 100
2, 75024, Note_on_c, 0, 81, 106
2, 75024, Note_on_c, 0, 76, 106
2, 75068, Note_off_c, 0, 76, 100
2, 75116, Note_off_c, 0, 81, 100
2, 75120, Note_on_c, 0, 79, 107
2, 75264, Note_on_c, 0, 77, 109
2, 75308, Note_off_c, 0, 79, 100
2, 75308, Note_off_c, 0, 77, 100
2, 75312, Note_on_c, 0, 81, 109
2, 75312, Note_on_c, 0, 71, 109
2, 75312, Note_on_c, 0, 77, 109
2, 75404, Note_off_c, 0, 81, 100
2, 75404, Note_off_c, 0, 71, 100
2, 75404, Note_off_c, 0, 77, 100
2, 75408, Note_on_c, 0, 79, 110
2, 75408, Note_on_c, 0, 74, 110
2, 75408, Note_on_c, 0, 71, 110
2, 75452, Note_off_c, 0, 79, 100
2, 75452, Note_off_c, 0, 74, 100
2, 75452, Note_off_c, 0, 71, 100
2, 75456, Note_on_c, 0, 79, 110
2, 75456, Note_on_c, 0, 74, 110
2, 75456, Note_on_c, 0, 71, 110
2, 75548, Note_off_c, 0, 74, 100
2, 75548, Note_off_c, 0, 71, 100
2, 75552, Note_on_c, 0, 71, 100
2, 75596, Note_off_c, 0, 71, 100
2, 75600, Note_on_c, 0, 72, 95
2, 75692, Note_off_c, 0, 79, 100
2, 75692, Note_off_c, 0, 72, 100
2, 75696, Note_on_c, 0, 74, 85
2, 75696, Note_on_c, 0, 77, 85
2, 75740, Note_off_c, 0, 74, 100
2, 75740, Note_off_c, 0, 77, 100
2, 75744, Note_on_c, 0, 76, 80
2, 75744, Note_on_c, 0, 67, 80
2, 75836, Note_off_c, 0, 67, 100
2, 75840, Note_on_c, 0, 59, 80
2, 75884, Note_off_c, 0, 76, 100
2, 75884, Note_off_c, 0, 59, 100
2, 75888, Note_on_c, 0, 60, 80
2, 75980, Note_off_c, 0, 60, 100
2, 75984, Note_on_c, 0, 62, 80
2, 76028, Note_off_c, 0, 62, 100
2, 76032, Note_on_c, 0, 60, 80
2, 76124, Note_off_c, 0, 60, 100
2, 76128, Note_on_c, 0, 64, 80
2, 76128, Note_on_c, 0, 59, 80
2, 76172, Note_off_c, 0, 59, 100
2, 76176, Note_on_c, 0, 57, 80
2, 76268, Note_off_c, 0, 64, 100
2, 76268, Note_off_c, 0, 57, 100
2, 76272, Note_on_c, 0, 64, 80
2, 76272, Note_on_c, 0, 62, 80
2, 76272, Note_on_c, 0, 56, 80
2, 76316, Note_off_c, 0, 64, 100
2, 76316, Note_off_c, 0, 62, 100
2, 76316, Note_off_c, 0, 56, 100
2, 76320, Note_on_c, 0, 72, 80
2, 76320, Note_on_c, 0, 60, 80
2, 76412, Note_off_c, 0, 60, 100
2, 76416, Note_on_c, 0, 63, 80
2, 76460, Note_off_c, 0, 63, 100
2, 76464, Note_on_c, 0, 64, 80
2, 76556, Note_off_c, 0, 72, 100
2, 76560, Note_on_c, 0, 71, 80
2, 76604, Note_off_c, 0, 71, 100
2, 76608, Note_on_c, 0, 72, 80
2, 76700, Note_off_c, 0, 64, 100
2, 76704, Note_on_c, 0, 63, 80
2, 76748, Note_off_c, 0, 63, 100
2, 76752, Note_on_c, 0, 64, 80
2, 76844, Note_off_c, 0, 72, 100
2, 76848, Note_on_c, 0, 71, 80
2, 76892, Note_off_c, 0, 71, 100
2, 76896, Note_on_c, 0, 72, 80
2, 76988, Note_off_c, 0, 64, 100
2, 76992, Note_on_c, 0, 63, 80
2, 77036, Note_off_c, 0, 63, 100
2, 77040, Note_on_c, 0, 64, 80
2, 77132, Note_off_c, 0, 72, 100
2, 77136, Note_on_c, 0, 71, 80
2, 77180, Note_off_c, 0, 71, 100
2, 77184, Note_on_c, 0, 71, 80
2, 77276, Note_off_c, 0, 64, 100
2, 77280, Note_on_c, 0, 65, 80
2, 77324, Note_off_c, 0, 65, 100
2, 77328, Note_on_c, 0, 64, 80
2, 77420, Note_off_c, 0, 71, 100
2, 77424, Note_on_c, 0, 72, 80
2, 77468, Note_off_c, 0, 72, 100
2, 77472, Note_on_c, 0, 71, 80
2, 77564, Note_off_c, 0, 64, 100
2, 77568, Note_on_c, 0, 65, 80
2, 77612, Note_off_c, 0, 65, 100
2, 77616, Note_on_c, 0, 64, 80
2, 77708, Note_off_c, 0, 71, 100
2, 77712, Note_on_c, 0, 72, 80
2, 77756, Note_off_c, 0, 72, 100
2, 77760, Note_on_c, 0, 71, 80
2, 77852, Note_off_c, 0, 64, 100
2, 77856, Note_on_c, 0, 65, 80
2, 77900, Note_off_c, 0, 65, 100
2, 77904, Note_on_c, 0, 64, 80
2, 77996, Note_off_c, 0, 71, 100
2, 78000, Note_on_c, 0, 76, 80
2, 78044, Note_off_c, 0, 76, 100
2, 78048, Note_on_c, 0, 76, 80
2, 78048, Note_on_c, 0, 71, 80
2, 78140, Note_off_c, 0, 64, 100
2, 78284, Note_off_c, 0, 76, 100
2, 78284, Note_off_c, 0, 71, 100
2, 78288, Note_on_c, 0, 76, 80
2, 78288, Note_on_c, 0, 72, 80
2, 78332, Note_off_c, 0, 76, 100
2, 78332, Note_off_c, 0, 72, 100
2, 78336, Note_on_c, 0, 76, 80
2, 78336, Note_on_c, 0, 72, 80
2, 78572, Note_off_c, 0, 76, 100
2, 78572, Note_off_c, 0, 72, 100
2, 78576, Note_on_c, 0, 74, 80
2, 78576, Note_on_c, 0, 71, 80
2, 78576, Note_on_c, 0, 68, 80
2, 78620, Note_off_c, 0, 74, 100
2, 78620, Note_off_c, 0, 71, 100
2, 78620, Note_off_c, 0, 68, 100
2, 78624, Note_on_c, 0, 74, 80
2, 78624, Note_on_c, 0, 71, 80
2, 78624, Note_on_c, 0, 64, 80
2, 78716, Note_off_c, 0, 74, 100
2, 78716, Note_off_c, 0, 71, 100
2, 78716, Note_off_c, 0, 64, 100
2, 78720, Note_on_c, 0, 72, 80
2, 78720, Note_on_c, 0, 69, 80
2, 78720, Note_on_c, 0, 65, 80
2, 78764, Note_off_c, 0, 72, 100
2, 78764, Note_off_c, 0, 69, 100
2, 78764, Note_off_c, 0, 65, 100
2, 78768, Note_on_c, 0, 69, 80
2, 78768, Note_on_c, 0, 66, 80
2, 78768, Note_on_c, 0, 72, 80
2, 78860, Note_off_c, 0, 69, 100
2, 78860, Note_off_c, 0, 66, 100
2, 78860, Note_off_c, 0, 72, 100
2, 78864, Note_on_c, 0, 71, 80
2, 78864, Note_on_c, 0, 68, 80
2, 78864, Note_on_c, 0, 59, 80
2, 78908, Note_off_c, 0, 71, 100
2, 78908, Note_off_c, 0, 68, 100
2, 78908, Note_off_c, 0, 59, 100
2, 78912, Note_on_c, 0, 71, 80
2, 78912, Note_on_c, 0, 68, 80
2, 78912, Note_on_c, 0, 59, 80
2, 79004, Note_off_c, 0, 71, 100
2, 79004, Note_off_c, 0, 68, 100
2, 79004, Note_off_c, 0, 59, 100
2, 79008, Note_on_c, 0, 71, 82
2, 79008, Note_on_c, 0, 68, 82
2, 79008, Note_on_c, 0, 59, 82
2, 79148, Note_off_c, 0, 71, 100
2, 79148, Note_off_c, 0, 68, 100
2, 79148, Note_off_c, 0, 59, 100
2, 79152, Note_on_c, 0, 71, 87
2, 79152, Note_on_c, 0, 68, 87
2, 79152, Note_on_c, 0, 59, 87
2, 79292, Note_off_c, 0, 71, 100
2, 79292, Note_off_c, 0, 68, 100
2, 79292, Note_off_c, 0, 59, 100
2, 79296, Note_on_c, 0, 72, 91
2, 79296, Note_on_c, 0, 69, 91
2, 79296, Note_on_c, 0, 60, 91
2, 79436, Note_off_c, 0, 72, 100
2, 79436, Note_off_c, 0, 69, 100
2, 79436, Note_off_c, 0, 60, 100
2, 79440, Note_on_c, 0, 72, 96
2, 79440, Note_on_c, 0, 69, 96
2, 79440, Note_on_c, 0, 60, 96
2, 79580, Note_off_c, 0, 72, 100
2, 79580, Note_off_c, 0, 69, 100
2, 79580, Note_off_c, 0, 60, 100
2, 79584, Note_on_c, 0, 74, 100
2, 79584, Note_on_c, 0, 71, 100
2, 79584, Note_on_c, 0, 62, 100
2, 79724, Note_off_c, 0, 74, 100
2, 79724, Note_off_c, 0, 71, 100
2, 79724, Note_off_c, 0, 62, 100
2, 79728, Note_on_c, 0, 86, 80
2, 79728, Note_on_c, 0, 83, 80
2, 79728, Note_on_c, 0, 74, 80
2, 79772, Note_off_c, 0, 86, 100
2, 79772, Note_off_c, 0, 83, 100
2, 79772, Note_off_c, 0, 74, 100
2, 79776, Note_on_c, 0, 86, 80
2, 79776, Note_on_c, 0, 83, 80
2, 79776, Note_on_c, 0, 74, 80
2, 79868, Note_off_c, 0, 86, 100
2, 79868, Note_off_c, 0, 83, 100
2, 79868, Note_off_c, 0, 74, 100
2, 79872, Note_on_c, 0, 74, 80
2, 79916, Note_off_c, 0, 74, 100
2, 79920, Note_on_c, 0, 73, 80
2, 80012, Note_off_c, 0, 73, 100
2, 80016, Note_on_c, 0, 74, 81
2, 80060, Note_off_c, 0, 74, 100
2, 80064, Note_on_c, 0, 74, 82
2, 80160, Note_on_c, 0, 71, 83
2, 80204, Note_off_c, 0, 71, 100
2, 80208, Note_on_c, 0, 70, 84
2, 80300, Note_off_c, 0, 70, 100
2, 80304, Note_on_c, 0, 71, 85
2, 80348, Note_off_c, 0, 71, 100
2, 80352, Note_on_c, 0, 67, 86
2, 80444, Note_off_c, 0, 74, 100
2, 80448, Note_on_c, 0, 75, 87
2, 80492, Note_off_c, 0, 67, 100
2, 80492, Note_off_c, 0, 75, 100
2, 80496, Note_on_c, 0, 77, 87
2, 80496, Note_on_c, 0, 67, 87
2, 80588, Note_off_c, 0, 77, 100
2, 80592, Note_on_c, 0, 76, 89
2, 80636, Note_off_c, 0, 76, 100
2, 80640, Note_on_c, 0, 76, 89
2, 80732, Note_off_c, 0, 67, 100
2, 80736, Note_on_c, 0, 72, 90
2, 80780, Note_off_c, 0, 72, 100
2, 80784, Note_on_c, 0, 71, 91
2, 80876, Note_off_c, 0, 71, 100
2, 80880, Note_on_c, 0, 72, 92
2, 80924, Note_off_c, 0, 72, 100
2, 80928, Note_on_c, 0, 72, 93
2, 81020, Note_off_c, 0, 72, 100
2, 81024, Note_on_c, 0, 70, 94
2, 81068, Note_off_c, 0, 76, 100
2, 81068, Note_off_c, 0, 70, 100
2, 81072, Note_on_c, 0, 69, 95
2, 81072, Note_on_c, 0, 76, 95
2, 81164, Note_off_c, 0, 69, 100
2, 81168, Note_on_c, 0, 70, 96
2, 81212, Note_off_c, 0, 70, 100
2, 81216, Note_on_c, 0, 70, 97
2, 81308, Note_off_c, 0, 76, 100
2, 81312, Note_on_c, 0, 76, 98
2, 81356, Note_off_c, 0, 70, 100
2, 81356, Note_off_c, 0, 76, 100
2, 81360, Note_on_c, 0, 70, 98
2, 81360, Note_on_c, 0, 79, 98
2, 81452, Note_off_c, 0, 70, 100
2, 81452, Note_off_c, 0, 79, 100
2, 81456, Note_on_c, 0, 69, 100
2, 81456, Note_on_c, 0, 77, 100
2, 81500, Note_off_c, 0, 69, 100
2, 81500, Note_off_c, 0, 77, 100
2, 81504, Note_on_c, 0, 74, 100
2, 81504, Note_on_c, 0, 69, 100
2, 81596, Note_off_c, 0, 74, 100
2, 81596, Note_off_c, 0, 69, 100
2, 81600, Note_on_c, 0, 72, 101
2, 81600, Note_on_c, 0, 78, 101
2, 81644, Note_off_c, 0, 72, 100
2, 81644, Note_off_c, 0, 78, 100
2, 81648, Note_on_c, 0, 81, 102
2, 81648, Note_on_c, 0, 74, 102
2, 81740, Note_off_c, 0, 81, 100
2, 81744, Note_on_c, 0, 79, 103
2, 81888, Note_on_c, 0, 75, 105
2, 81932, Note_off_c, 0, 74, 100
2, 81932, Note_off_c, 0, 79, 100
2, 81932, Note_off_c, 0, 75, 100
2, 81936, Note_on_c, 0, 81, 106
2, 81936, Note_on_c, 0, 76, 106
2, 81980, Note_off_c, 0, 76, 100
2, 82028, Note_off_c, 0, 81, 100
2, 82032, Note_on_c, 0, 79, 107
2, 82176, Note_on_c, 0, 77, 109
2, 82220, Note_off_c, 0, 79, 100
2, 82220, Note_off_c, 0, 77, 100
2, 82224, Note_on_c, 0, 81, 109
2, 82224, Note_on_c, 0, 71, 109
2, 82224, Note_on_c, 0, 77, 109
2, 82316, Note_off_c, 0, 81, 100
2, 82316, Note_off_c, 0, 71, 100
2, 82316, Note_off_c, 0, 77, 100
2, 82320, Note_on_c, 0, 79, 110
2, 82320, Note_on_c, 0, 74, 110
2, 82320, Note_on_c, 0, 71, 110
2, 82364, Note_off_c, 0, 79, 100
2, 82364, Note_off_c, 0, 74, 100
2, 82364, Note_off_c, 0, 71, 100
2, 82368, Note_on_c, 0, 79, 110
2, 82368, Note_on_c, 0, 74, 110
2, 82368, Note_on_c, 0, 71, 110
2, 82460, Note_off_c, 0, 74, 100
2, 82460, Note_off_c, 0, 71, 100
2, 82464, Note_on_c, 0, 71, 98
2, 82508, Note_off_c, 0, 71, 100
2, 82512, Note_on_c, 0, 72, 92
2, 82604, Note_off_c, 0, 79, 100
2, 82604, Note_off_c, 0, 72, 100
2, 82608, Note_on_c, 0, 74, 80
2, 82608, Note_on_c, 0, 77, 80
2, 82652, Note_off_c, 0, 74, 100
2, 82652, Note_off_c, 0, 77, 100
2, 82656, Note_on_c, 0, 76, 80
2, 82656, Note_on_c, 0, 67, 80
2, 82748, Note_off_c, 0, 67, 100
2, 82752, Note_on_c, 0, 79, 80
2, 82796, Note_off_c, 0, 76, 100
2, 82892, Note_off_c, 0, 79, 100
2, 82896, Note_on_c, 0, 79, 80
2, 82896, Note_on_c, 0, 77, 80
2, 82940, Note_off_c, 0, 79, 100
2, 82940, Note_off_c, 0, 77, 100
2, 82944, Note_on_c, 0, 84, 110
2, 83036, Note_off_c, 0, 84, 100
2, 83040, Note_on_c, 0, 79, 110
2, 83084, Note_off_c, 0, 79, 100
2, 83088, Note_on_c, 0, 76, 110
2, 83180, Note_off_c, 0, 76, 100
2, 83184, Note_on_c, 0, 72, 110
2, 83228, Note_off_c, 0, 72, 100
2, 83232, Note_on_c, 0, 67, 110
2, 83324, Note_off_c, 0, 67, 100
2, 83328, Note_on_c, 0, 64, 110
2, 83372, Note_off_c, 0, 64, 100
2, 83376, Note_on_c, 0, 60, 110
2, 83468, Note_off_c, 0, 60, 100
2, 83472, Note_on_c, 0, 55, 110
2, 83516, Note_off_c, 0, 55, 100
2, 83520, Note_on_c, 0, 67, 110
2, 83520, Note_on_c, 0, 64, 110
2, 83756, Note_off_c, 0, 67, 100
2, 83756, Note_off_c, 0, 64, 100
2, 83760, Note_on_c, 0, 67, 110
2, 83760, Note_on_c, 0, 64, 110
2, 84044, Note_off_c, 0, 67, 100
2, 84044, Note_off_c, 0, 64, 100
2, 84048, Note_on_c, 0, 67, 110
2, 84048, Note_on_c, 0, 64, 110
2, 84092, Note_off_c, 0, 67, 100
2, 84092, Note_off_c, 0, 64, 100
2, 84096, Note_on_c, 0, 67, 110
2, 84096, Note_on_c, 0, 65, 110
2, 84332, Note_off_c, 0, 67, 100
2, 84332, Note_off_c, 0, 65, 100
2, 84336, Note_on_c, 0, 67, 110
2, 84336, Note_on_c, 0, 65, 110
2, 84620, Note_off_c, 0, 67, 100
2, 84620, Note_off_c, 0, 65, 100
2, 84624, Note_on_c, 0, 67, 110
2, 84624, Note_on_c, 0, 65, 110
2, 84668, Note_off_c, 0, 67, 100
2, 84668, Note_off_c, 0, 65, 100
2, 84672, Note_on_c, 0, 89, 110
2, 84764, Note_off_c, 0, 89, 100
2, 84768, Note_on_c, 0, 86, 110
2, 84812, Note_off_c, 0, 86, 100
2, 84816, Note_on_c, 0, 83, 110
2, 84908, Note_off_c, 0, 83, 100
2, 84912, Note_on_c, 0, 79, 110
2, 84956, Note_off_c, 0, 79, 100
2, 84960, Note_on_c, 0, 77, 110
2, 85052, Note_off_c, 0, 77, 100
2, 85056, Note_on_c, 0, 74, 110
2, 85100, Note_off_c, 0, 74, 100
2, 85104, Note_on_c, 0, 71, 110
2, 85196, Note_off_c, 0, 71, 100
2, 85200, Note_on_c, 0, 67, 110
2, 85244, Note_off_c, 0, 67, 100
2, 85248, Note_on_c, 0, 67, 110
2, 85248, Note_on_c, 0, 65, 110
2, 85484, Note_off_c, 0, 67, 100
2, 85484, Note_off_c, 0, 65, 100
2, 85488, Note_on_c, 0, 67, 110
2, 85488, Note_on_c, 0, 65, 110
2, 85772, Note_off_c, 0, 67, 100
2, 85772, Note_off_c, 0, 65, 100
2, 85776, Note_on_c, 0, 67, 110
2, 85776, Note_on_c, 0, 65, 110
2, 85820, Note_off_c, 0, 67, 100
2, 85820, Note_off_c, 0, 65, 100
2, 85824, Note_on_c, 0, 67, 110
2, 86060, Note_off_c, 0, 67, 100
2, 86064, Note_on_c, 0, 67, 110
2, 86348, Note_off_c, 0, 67, 100
2, 86352, Note_on_c, 0, 67, 110
2, 86396, Note_off_c, 0, 67, 100
2, 86400, Note_on_c, 0, 91, 110
2, 86492, Note_off_c, 0, 91, 100
2, 86496, Note_on_c, 0, 88, 110
2, 86540, Note_off_c, 0, 88, 100
2, 86544, Note_on_c, 0, 84, 110
2, 86636, Note_off_c, 0, 84, 100
2, 86640, Note_on_c, 0, 79, 110
2, 86684, Note_off_c, 0, 79, 100
2, 86688, Note_on_c, 0, 76, 110
2, 86780, Note_off_c, 0, 76, 100
2, 86784, Note_on_c, 0, 72, 110
2, 86828, Note_off_c, 0, 72, 100
2, 86832, Note_on_c, 0, 67, 110
2, 86924, Note_off_c, 0, 67, 100
2, 86928, Note_on_c, 0, 79, 110
2, 86972, Note_off_c, 0, 79, 100
2, 86976, Note_on_c, 0, 73, 110
2, 86976, Note_on_c, 0, 70, 110
2, 86976, Note_on_c, 0, 67, 110
2, 86976, Note_on_c, 0, 79, 110
2, 87212, Note_off_c, 0, 73, 100
2, 87212, Note_off_c, 0, 70, 100
2, 87212, Note_off_c, 0, 67, 100
2, 87212, Note_off_c, 0, 79, 100
2, 87216, Note_on_c, 0, 79, 110
2, 87216, Note_on_c, 0, 74, 110
2, 87216, Note_on_c, 0, 71, 110
2, 87216, Note_on_c, 0, 67, 110
2, 87500, Note_off_c, 0, 79, 100
2, 87500, Note_off_c, 0, 74, 100
2, 87500, Note_off_c, 0, 71, 100
2, 87500, Note_off_c, 0, 67, 100
2, 87504, Note_on_c, 0, 79, 110
2, 87504, Note_on_c, 0, 74, 110
2, 87504, Note_on_c, 0, 71, 110
2, 87504, Note_on_c, 0, 67, 110
2, 87548, Note_off_c, 0, 79, 100
2, 87548, Note_off_c, 0, 74, 100
2, 87548, Note_off_c, 0, 71, 100
2, 87548, Note_off_c, 0, 67, 100
2, 87552, Note_on_c, 0, 71, 110
2, 87552, Note_on_c, 0, 67, 110
2, 87552, Note_on_c, 0, 79, 110
2, 87788, Note_off_c, 0, 71, 100
2, 87788, Note_off_c, 0, 67, 100
2, 87788, Note_off_c, 0, 79, 100
2, 87792, Note_on_c, 0, 79, 110
2, 87792, Note_on_c, 0, 67, 110
2, 87792, Note_on_c, 0, 72, 110
2, 88076, Note_off_c, 0, 79, 100
2, 88076, Note_off_c, 0, 67, 100
2, 88076, Note_off_c, 0, 72, 100
2, 88080, Note_on_c, 0, 79, 110
2, 88080, Note_on_c, 0, 67, 110
2, 88080, Note_on_c, 0, 72, 110
2, 88124, Note_off_c, 0, 79, 100
2, 88124, Note_off_c, 0, 67, 100
2, 88124, Note_off_c, 0, 72, 100
2, 88128, Note_on_c, 0, 88, 110
2, 88128, Note_on_c, 0, 79, 110
2, 88128, Note_on_c, 0, 76, 110
2, 88364, Note_off_c, 0, 88, 100
2, 88364, Note_off_c, 0, 79, 100
2, 88364, Note_off_c, 0, 76, 100
2, 88368, Note_on_c, 0, 88, 110
2, 88368, Note_on_c, 0, 79, 110
2, 88368, Note_on_c, 0, 76, 110
2, 88652, Note_off_c, 0, 88, 100
2, 88652, Note_off_c, 0, 79, 100
2, 88652, Note_off_c, 0, 76, 100
2, 88656, Note_on_c, 0, 84, 110
2, 88656, Note_on_c, 0, 76, 110
2, 88656, Note_on_c, 0, 72, 110
2, 88700, Note_off_c, 0, 84, 100
2, 88700, Note_off_c, 0, 76, 100
2, 88700, Note_off_c, 0, 72, 100
2, 88704, Note_on_c, 0, 84, 110
2, 88796, Note_off_c, 0, 84, 100
2, 88800, Note_on_c, 0, 81, 110
2, 88844, Note_off_c, 0, 81, 100
2, 88848, Note_on_c, 0, 78, 110
2, 88940, Note_off_c, 0, 78, 100
2, 88944, Note_on_c, 0, 75, 110
2, 88988, Note_off_c, 0, 75, 100
2, 88992, Note_on_c, 0, 72, 110
2, 89084, Note_off_c, 0, 72, 100
2, 89088, Note_on_c, 0, 69, 110
2, 89132, Note_off_c, 0, 69, 100
2, 89136, Note_on_c, 0, 66, 110
2, 89228, Note_off_c, 0, 66, 100
2, 89232, Note_on_c, 0, 63, 110
2, 89232, Note_on_c, 0, 72, 110
2, 89276, Note_off_c, 0, 63, 100
2, 89276, Note_off_c, 0, 72, 100
2, 89280, Note_on_c, 0, 83, 110
2, 89372, Note_off_c, 0, 83, 100
2, 89376, Note_on_c, 0, 79, 110
2, 89420, Note_off_c, 0, 79, 100
2, 89424, Note_on_c, 0, 74, 110
2, 89516, Note_off_c, 0, 74, 100
2, 89520, Note_on_c, 0, 71, 110
2, 89564, Note_off_c, 0, 71, 100
2, 89568, Note_on_c, 0, 67, 110
2, 89660, Note_off_c, 0, 67, 100
2, 89664, Note_on_c, 0, 62, 110
2, 89708, Note_off_c, 0, 62, 100
2, 89712, Note_on_c, 0, 59, 110
2, 89804, Note_off_c, 0, 59, 100
2, 89808, Note_on_c, 0, 83, 110
2, 89808, Note_on_c, 0, 80, 110
2, 89808, Note_on_c, 0, 74, 110
2, 89808, Note_on_c, 0, 71, 110
2, 90092, Note_off_c, 0, 71, 100
2, 90092, Note_off_c, 0, 74, 100
2, 90092, Note_off_c, 0, 80, 100
2, 90092, Note_off_c, 0, 83, 100
2, 90096, Note_on_c, 0, 83, 110
2, 90096, Note_on_c, 0, 74, 110
2, 90096, Note_on_c, 0, 71, 110
2, 90096, Note_on_c, 0, 80, 110
2, 90140, Note_off_c, 0, 80, 100
2, 90144, Note_on_c, 0, 79, 110
2, 90380, Note_off_c, 0, 83, 100
2, 90380, Note_off_c, 0, 74, 100
2, 90380, Note_off_c, 0, 71, 100
2, 90380, Note_off_c, 0, 79, 100
2, 90384, Note_on_c, 0, 83, 110
2, 90384, Note_on_c, 0, 79, 110
2, 90384, Note_on_c, 0, 74, 110
2, 90384, Note_on_c, 0, 71, 110
2, 90428, Note_off_c, 0, 83, 100
2, 90428, Note_off_c, 0, 79, 100
2, 90428, Note_off_c, 0, 74, 100
2, 90428, Note_off_c, 0, 71, 100
2, 90432, Note_on_c, 0, 84, 110
2, 90524, Note_off_c, 0, 84, 100
2, 90528, Note_on_c, 0, 79, 110
2, 90572, Note_off_c, 0, 79, 100
2, 90576, Note_on_c, 0, 76, 123
2, 90668, Note_off_c, 0, 76, 100
2, 90672, Note_on_c, 0, 72, 110
2, 90716, Note_off_c, 0, 72, 100
2, 90720, Note_on_c, 0, 67, 110
2, 90812, Note_off_c, 0, 67, 100
2, 90816, Note_on_c, 0, 64, 110
2, 90860, Note_off_c, 0, 64, 100
2, 90864, Note_on_c, 0, 76, 110
2, 90956, Note_off_c, 0, 76, 100
2, 90960, Note_on_c, 0, 72, 110
2, 91004, Note_off_c, 0, 72, 100
2, 91008, Note_on_c, 0, 76, 110
2, 91100, Note_off_c, 0, 76, 100
2, 91104, Note_on_c, 0, 72, 110
2, 91148, Note_off_c, 0, 72, 100
2, 91152, Note_on_c, 0, 79, 122
2, 91244, Note_off_c, 0, 79, 100
2, 91248, Note_on_c, 0, 76, 110
2, 91292, Note_off_c, 0, 76, 100
2, 91296, Note_on_c, 0, 72, 110
2, 91388, Note_off_c, 0, 72, 100
2, 91392, Note_on_c, 0, 67, 110
2, 91436, Note_off_c, 0, 67, 100
2, 91440, Note_on_c, 0, 76, 124
2, 91532, Note_off_c, 0, 76, 100
2, 91536, Note_on_c, 0, 72, 110
2, 91580, Note_off_c, 0, 72, 100
2, 91584, Note_on_c, 0, 79, 110
2, 91676, Note_off_c, 0, 79, 100
2, 91680, Note_on_c, 0, 76, 110
2, 91724, Note_off_c, 0, 76, 100
2, 91728, Note_on_c, 0, 84, 122
2, 91820, Note_off_c, 0, 84, 100
2, 91824, Note_on_c, 0, 79, 110
2, 91868, Note_off_c, 0, 79, 100
2, 91872, Note_on_c, 0, 76, 110
2, 91964, Note_off_c, 0, 76, 100
2, 91968, Note_on_c, 0, 72, 110
2, 92012, Note_off_c, 0, 72, 100
2, 92016, Note_on_c, 0, 79, 124
2, 92108, Note_off_c, 0, 79, 100
2, 92112, Note_on_c, 0, 76, 110
2, 92156, Note_off_c, 0, 76, 100
2, 92304, Note_on_c, 0, 79, 124
2, 92396, Note_off_c, 0, 79, 100
2, 92400, Note_on_c, 0, 76, 110
2, 92444, Note_off_c, 0, 76, 100
2, 92448, Note_on_c, 0, 73, 110
2, 92540, Note_off_c, 0, 73, 100
2, 92544, Note_on_c, 0, 76, 110
2, 92588, Note_off_c, 0, 76, 100
2, 92592, Note_on_c, 0, 79, 123
2, 92684, Note_off_c, 0, 79, 100
2, 92688, Note_on_c, 0, 76, 110
2, 92732, Note_off_c, 0, 76, 100
2, 92736, Note_on_c, 0, 77, 110
2, 92828, Note_off_c, 0, 77, 100
2, 92832, Note_on_c, 0, 74, 110
2, 92876, Note_off_c, 0, 74, 100
2, 92880, Note_on_c, 0, 77, 126
2, 92972, Note_off_c, 0, 77, 100
2, 92976, Note_on_c, 0, 69, 110
2, 93020, Note_off_c, 0, 69, 100
2, 93024, Note_on_c, 0, 77, 110
2, 93116, Note_off_c, 0, 77, 100
2, 93120, Note_on_c, 0, 65, 110
2, 93164, Note_off_c, 0, 65, 100
2, 93168, Note_on_c, 0, 69, 123
2, 93260, Note_off_c, 0, 69, 100
2, 93264, Note_on_c, 0, 65, 110
2, 93308, Note_off_c, 0, 65, 100
2, 93312, Note_on_c, 0, 69, 110
2, 93404, Note_off_c, 0, 69, 100
2, 93408, Note_on_c, 0, 65, 110
2, 93452, Note_off_c, 0, 65, 100
2, 93456, Note_on_c, 0, 77, 124
2, 93548, Note_off_c, 0, 77, 100
2, 93552, Note_on_c, 0, 74, 110
2, 93596, Note_off_c, 0, 74, 100
2, 93600, Note_on_c, 0, 69, 110
2, 93692, Note_off_c, 0, 69, 100
2, 93696, Note_on_c, 0, 81, 110
2, 93740, Note_off_c, 0, 81, 100
2, 93744, Note_on_c, 0, 77, 126
2, 93836, Note_off_c, 0, 77, 100
2, 93840, Note_on_c, 0, 74, 110
2, 93884, Note_off_c, 0, 74, 100
2, 93888, Note_on_c, 0, 72, 110
2, 93980, Note_off_c, 0, 72, 100
2, 93984, Note_on_c, 0, 71, 110
2, 94028, Note_off_c, 0, 71, 100
2, 94032, Note_on_c, 0, 77, 122
2, 94124, Note_off_c, 0, 77, 100
2, 94128, Note_on_c, 0, 74, 110
2, 94172, Note_off_c, 0, 74, 100
2, 94176, Note_on_c, 0, 83, 110
2, 94268, Note_off_c, 0, 83, 100
2, 94272, Note_on_c, 0, 77, 110
2, 94316, Note_off_c, 0, 77, 100
2, 94320, Note_on_c, 0, 74, 125
2, 94412, Note_off_c, 0, 74, 100
2, 94416, Note_on_c, 0, 71, 110
2, 94460, Note_off_c, 0, 71, 100
2, 94464, Note_on_c, 0, 74, 110
2, 94556, Note_off_c, 0, 74, 100
2, 94560, Note_on_c, 0, 72, 110
2, 94604, Note_off_c, 0, 72, 100
2, 94608, Note_on_c, 0, 80, 124
2, 94700, Note_off_c, 0, 80, 100
2, 94704, Note_on_c, 0, 77, 110
2, 94748, Note_off_c, 0, 77, 100
2, 94752, Note_on_c, 0, 84, 110
2, 94844, Note_off_c, 0, 84, 100
2, 94848, Note_on_c, 0, 81, 110
2, 94892, Note_off_c, 0, 81, 100
2, 94896, Note_on_c, 0, 77, 125
2, 94988, Note_off_c, 0, 77, 100
2, 94992, Note_on_c, 0, 72, 110
2, 95036, Note_off_c, 0, 72, 100
2, 95040, Note_on_c, 0, 75, 110
2, 95132, Note_off_c, 0, 75, 100
2, 95136, Note_on_c, 0, 74, 110
2, 95180, Note_off_c, 0, 74, 100
2, 95184, Note_on_c, 0, 86, 123
2, 95276, Note_off_c, 0, 86, 100
2, 95280, Note_on_c, 0, 74, 110
2, 95324, Note_off_c, 0, 74, 100
2, 95328, Note_on_c, 0, 86, 110
2, 95420, Note_off_c, 0, 86, 100
2, 95424, Note_on_c, 0, 74, 110
2, 95468, Note_off_c, 0, 74, 100
2, 95472, Note_on_c, 0, 86, 123
2, 95564, Note_off_c, 0, 86, 100
2, 95568, Note_on_c, 0, 74, 110
2, 95568, Note_on_c, 0, 79, 110
2, 95612, Note_off_c, 0, 74, 100
2, 95612, Note_off_c, 0, 79, 100
2, 95616, Note_on_c, 0, 79, 110
2, 95616, Note_on_c, 0, 72, 110
2, 95708, Note_off_c, 0, 72, 100
2, 95712, Note_on_c, 0, 76, 110
2, 95756, Note_off_c, 0, 76, 100
2, 95760, Note_on_c, 0, 77, 110
2, 95852, Note_off_c, 0, 79, 100
2, 95852, Note_off_c, 0, 77, 100
2, 95856, Note_on_c, 0, 74, 110
2, 95856, Note_on_c, 0, 77, 110
2, 95856, Note_on_c, 0, 79, 110
2, 95900, Note_off_c, 0, 74, 100
2, 95900, Note_off_c, 0, 77, 100
2, 95904, Note_on_c, 0, 71, 110
2, 95996, Note_off_c, 0, 71, 100
2, 96000, Note_on_c, 0, 72, 110
2, 96044, Note_off_c, 0, 72, 100
2, 96048, Note_on_c, 0, 74, 110
2, 96140, Note_off_c, 0, 79, 100
2, 96140, Note_off_c, 0, 74, 100
2, 96144, Note_on_c, 0, 72, 110
2, 96144, Note_on_c, 0, 79, 110
2, 96188, Note_off_c, 0, 72, 100
2, 96192, Note_on_c, 0, 74, 110
2, 96284, Note_off_c, 0, 74, 100
2, 96288, Note_on_c, 0, 76, 110
2, 96332, Note_off_c, 0, 76, 100
2, 96336, Note_on_c, 0, 77, 110
2, 96428, Note_off_c, 0, 79, 100
2, 96428, Note_off_c, 0, 77, 100
2, 96432, Note_on_c, 0, 76, 110
2, 96432, Note_on_c, 0, 79, 110
2, 96476, Note_off_c, 0, 76, 100
2, 96476, Note_off_c, 0, 79, 100
2, 96480, Note_on_c, 0, 77, 110
2, 96572, Note_off_c, 0, 77, 100
2, 96576, Note_on_c, 0, 79, 110
2, 96620, Note_off_c, 0, 79, 100
2, 96624, Note_on_c, 0, 81, 110
2, 96716, Note_off_c, 0, 81, 100
2, 96720, Note_on_c, 0, 83, 110
2, 96764, Note_off_c, 0, 83, 100
2, 96768, Note_on_c, 0, 84, 110
2, 96860, Note_off_c, 0, 84, 100
2, 96864, Note_on_c, 0, 79, 110
2, 96908, Note_off_c, 0, 79, 100
2, 96912, Note_on_c, 0, 76, 110
2, 97004, Note_off_c, 0, 76, 100
2, 97008, Note_on_c, 0, 72, 110
2, 97052, Note_off_c, 0, 72, 100
2, 97056, Note_on_c, 0, 67, 110
2, 97148, Note_off_c, 0, 67, 100
2, 97152, Note_on_c, 0, 64, 110
2, 97196, Note_off_c, 0, 64, 100
2, 97200, Note_on_c, 0, 60, 110
2, 97292, Note_off_c, 0, 60, 100
2, 97296, Note_on_c, 0, 55, 110
2, 97340, Note_off_c, 0, 55, 100
2, 97344, Note_on_c, 0, 67, 110
2, 97344, Note_on_c, 0, 64, 110
2, 97580, Note_off_c, 0, 67, 100
2, 97580, Note_off_c, 0, 64, 100
2, 97584, Note_on_c, 0, 67, 110
2, 97584, Note_on_c, 0, 64, 110
2, 97868, Note_off_c, 0, 67, 100
2, 97868, Note_off_c, 0, 64, 100
2, 97872, Note_on_c, 0, 67, 110
2, 97872, Note_on_c, 0, 64, 110
2, 97916, Note_off_c, 0, 67, 100
2, 97916, Note_off_c, 0, 64, 100
2, 97920, Note_on_c, 0, 67, 110
2, 97920, Note_on_c, 0, 65, 110
2, 98156, Note_off_c, 0, 67, 100
2, 98156, Note_off_c, 0, 65, 100
2, 98160, Note_on_c, 0, 67, 110
2, 98160, Note_on_c, 0, 65, 110
2, 98444, Note_off_c, 0, 67, 100
2, 98444, Note_off_c, 0, 65, 100
2, 98448, Note_on_c, 0, 67, 110
2, 98448, Note_on_c, 0, 65, 110
2, 98492, Note_off_c, 0, 67, 100
2, 98492, Note_off_c, 0, 65, 100
2, 98496, Note_on_c, 0, 89, 110
2, 98588, Note_off_c, 0, 89, 100
2, 98592, Note_on_c, 0, 86, 110
2, 98636, Note_off_c, 0, 86, 100
2, 98640, Note_on_c, 0, 83, 110
2, 98732, Note_off_c, 0, 83, 100
2, 98736, Note_on_c, 0, 79, 110
2, 98780, Note_off_c, 0, 79, 100
2, 98784, Note_on_c, 0, 77, 110
2, 98876, Note_off_c, 0, 77, 100
2, 98880, Note_on_c, 0, 74, 110
2, 98924, Note_off_c, 0, 74, 100
2, 98928, Note_on_c, 0, 71, 110
2, 99020, Note_off_c, 0, 71, 100
2, 99024, Note_on_c, 0, 67, 110
2, 99068, Note_off_c, 0, 67, 100
2, 99072, Note_on_c, 0, 67, 110
2, 99072, Note_on_c, 0, 65, 110
2, 99308, Note_off_c, 0, 67, 100
2, 99308, Note_off_c, 0, 65, 100
2, 99312, Note_on_c, 0, 67, 110
2, 99312, Note_on_c, 0, 65, 110
2, 99596, Note_off_c, 0, 67, 100
2, 99596, Note_off_c, 0, 65, 100
2, 99600, Note_on_c, 0, 67, 110
2, 99600, Note_on_c, 0, 65, 110
2, 99644, Note_off_c, 0, 67, 100
2, 99644, Note_off_c, 0, 65, 100
2, 99648, Note_on_c, 0, 67, 110
2, 99884, Note_off_c, 0, 67, 100
2, 99888, Note_on_c, 0, 67, 110
2, 100172, Note_off_c, 0, 67, 100
2, 100176, Note_on_c, 0, 67, 110
2, 100220, Note_off_c, 0, 67, 100
2, 100224, Note_on_c, 0, 91, 110
2, 100316, Note_off_c, 0, 91, 100
2, 100320, Note_on_c, 0, 88, 110
2, 100364, Note_off_c, 0, 88, 100
2, 100368, Note_on_c, 0, 84, 110
2, 100460, Note_off_c, 0, 84, 100
2, 100464, Note_on_c, 0, 79, 110
2, 100508, Note_off_c, 0, 79, 100
2, 100512, Note_on_c, 0, 76, 110
2, 100604, Note_off_c, 0, 76, 100
2, 100608, Note_on_c, 0, 72, 110
2, 100652, Note_off_c, 0, 72, 100
2, 100656, Note_on_c, 0, 67, 110
2, 100748, Note_off_c, 0, 67, 100
2, 100752, Note_on_c, 0, 79, 110
2, 100796, Note_off_c, 0, 79, 100
2, 100800, Note_on_c, 0, 73, 110
2, 100800, Note_on_c, 0, 70, 110
2, 100800, Note_on_c, 0, 67, 110
2, 100800, Note_on_c, 0, 79, 110
2, 101036, Note_off_c, 0, 73, 100
2, 101036, Note_off_c, 0, 70, 100
2, 101036, Note_off_c, 0, 67, 100
2, 101036, Note_off_c, 0, 79, 100
2, 101040, Note_on_c, 0, 79, 110
2, 101040, Note_on_c, 0, 74, 110
2, 101040, Note_on_c, 0, 71, 110
2, 101040, Note_on_c, 0, 67, 110
2, 101324, Note_off_c, 0, 79, 100
2, 101324, Note_off_c, 0, 74, 100
2, 101324, Note_off_c, 0, 71, 100
2, 101324, Note_off_c, 0, 67, 100
2, 101328, Note_on_c, 0, 79, 110
2, 101328, Note_on_c, 0, 74, 110
2, 101328, Note_on_c, 0, 71, 110
2, 101328, Note_on_c, 0, 67, 110
2, 101372, Note_off_c, 0, 79, 100
2, 101372, Note_off_c, 0, 74, 100
2, 101372, Note_off_c, 0, 71, 100
2, 101372, Note_off_c, 0, 67, 100
2, 101376, Note_on_c, 0, 71, 110
2, 101376, Note_on_c, 0, 67, 110
2, 101376, Note_on_c, 0, 79, 110
2, 101612, Note_off_c, 0, 71, 100
2, 101612, Note_off_c, 0, 67, 100
2, 101612, Note_off_c, 0, 79, 100
2, 101616, Note_on_c, 0, 79, 110
2, 101616, Note_on_c, 0, 67, 110
2, 101616, Note_on_c, 0, 72, 110
2, 101900, Note_off_c, 0, 79, 100
2, 101900, Note_off_c, 0, 67, 100
2, 101900, Note_off_c, 0, 72, 100
2, 101904, Note_on_c, 0, 79, 110
2, 101904, Note_on_c, 0, 67, 110
2, 101904, Note_on_c, 0, 72, 110
2, 101948, Note_off_c, 0, 79, 100
2, 101948, Note_off_c, 0, 67, 100
2, 101948, Note_off_c, 0, 72, 100
2, 101952, Note_on_c, 0, 88, 110
2, 101952, Note_on_c, 0, 79, 110
2, 101952, Note_on_c, 0, 76, 110
2, 102188, Note_off_c, 0, 88, 100
2, 102188, Note_off_c, 0, 79, 100
2, 102188, Note_off_c, 0, 76, 100
2, 102192, Note_on_c, 0, 88, 110
2, 102192, Note_on_c, 0, 79, 110
2, 102192, Note_on_c, 0, 76, 110
2, 102476, Note_off_c, 0, 88, 100
2, 102476, Note_off_c, 0, 79, 100
2, 102476, Note_off_c, 0, 76, 100
2, 102480, Note_on_c, 0, 84, 110
2, 102480, Note_on_c, 0, 76, 110
2, 102480, Note_on_c, 0, 72, 110
2, 102524, Note_off_c, 0, 84, 100
2, 102524, Note_off_c, 0, 76, 100
2, 102524, Note_off_c, 0, 72, 100
2, 102528, Note_on_c, 0, 84, 110
2, 102620, Note_off_c, 0, 84, 100
2, 102624, Note_on_c, 0, 81, 110
2, 102668, Note_off_c, 0, 81, 100
2, 102672, Note_on_c, 0, 78, 110
2, 102764, Note_off_c, 0, 78, 100
2, 102768, Note_on_c, 0, 75, 110
2, 102812, Note_off_c, 0, 75, 100
2, 102816, Note_on_c, 0, 72, 110
2, 102908, Note_off_c, 0, 72, 100
2, 102912, Note_on_c, 0, 69, 110
2, 102956, Note_off_c, 0, 69, 100
2, 102960, Note_on_c, 0, 66, 110
2, 103052, Note_off_c, 0, 66, 100
2, 103056, Note_on_c, 0, 63, 110
2, 103056, Note_on_c, 0, 72, 110
2, 103100, Note_off_c, 0, 63, 100
2, 103100, Note_off_c, 0, 72, 100
2, 103104, Note_on_c, 0, 83, 110
2, 103196, Note_off_c, 0, 83, 100
2, 103200, Note_on_c, 0, 79, 110
2, 103244, Note_off_c, 0, 79, 100
2, 103248, Note_on_c, 0, 74, 110
2, 103340, Note_off_c, 0, 74, 100
2, 103344, Note_on_c, 0, 71, 110
2, 103388, Note_off_c, 0, 71, 100
2, 103392, Note_on_c, 0, 67, 110
2, 103484, Note_off_c, 0, 67, 100
2, 103488, Note_on_c, 0, 62, 110
2, 103532, Note_off_c, 0, 62, 100
2, 103536, Note_on_c, 0, 59, 110
2, 103628, Note_off_c, 0, 59, 100
2, 103632, Note_on_c, 0, 83, 110
2, 103632, Note_on_c, 0, 80, 110
2, 103632, Note_on_c, 0, 74, 110
2, 103632, Note_on_c, 0, 71, 110
2, 103916, Note_off_c, 0, 71, 100
2, 103916, Note_off_c, 0, 74, 100
2, 103916, Note_off_c, 0, 80, 100
2, 103916, Note_off_c, 0, 83, 100
2, 103920, Note_on_c, 0, 83, 110
2, 103920, Note_on_c, 0, 74, 110
2, 103920, Note_on_c, 0, 71, 110
2, 103920, Note_on_c, 0, 80, 110
2, 103964, Note_off_c, 0, 80, 100
2, 103968, Note_on_c, 0, 79, 110
2, 104204, Note_off_c, 0, 83, 100
2, 104204, Note_off_c, 0, 74, 100
2, 104204, Note_off_c, 0, 71, 100
2, 104204, Note_off_c, 0, 79, 100
2, 104208, Note_on_c, 0, 83, 110
2, 104208, Note_on_c, 0, 79, 110
2, 104208, Note_on_c, 0, 74, 110
2, 104208, Note_on_c, 0, 71, 110
2, 104252, Note_off_c, 0, 83, 100
2, 104252, Note_off_c, 0, 79, 100
2, 104252, Note_off_c, 0, 74, 100
2, 104252, Note_off_c, 0, 71, 100
2, 104256, Note_on_c, 0, 84, 110
2, 104348, Note_off_c, 0, 84, 100
2, 104352, Note_on_c, 0, 79, 110
2, 104396, Note_off_c, 0, 79, 100
2, 104400, Note_on_c, 0, 76, 123
2, 104492, Note_off_c, 0, 76, 100
2, 104496, Note_on_c, 0, 72, 110
2, 104540, Note_off_c, 0, 72, 100
2, 104544, Note_on_c, 0, 67, 110
2, 104636, Note_off_c, 0, 67, 100
2, 104640, Note_on_c, 0, 64, 110
2, 104684, Note_off_c, 0, 64, 100
2, 104688, Note_on_c, 0, 76, 110
2, 104780, Note_off_c, 0, 76, 100
2, 104784, Note_on_c, 0, 72, 110
2, 104828, Note_off_c, 0, 72, 100
2, 104832, Note_on_c, 0, 76, 110
2, 104924, Note_off_c, 0, 76, 100
2, 104928, Note_on_c, 0, 72, 110
2, 104972, Note_off_c, 0, 72, 100
2, 104976, Note_on_c, 0, 79, 122
2, 105068, Note_off_c, 0, 79, 100
2, 105072, Note_on_c, 0, 76, 110
2, 105116, Note_off_c, 0, 76, 100
2, 105120, Note_on_c, 0, 72, 110
2, 105212, Note_off_c, 0, 72, 100
2, 105216, Note_on_c, 0, 67, 110
2, 105260, Note_off_c, 0, 67, 100
2, 105264, Note_on_c, 0, 76, 124
2, 105356, Note_off_c, 0, 76, 100
2, 105360, Note_on_c, 0, 72, 110
2, 105404, Note_off_c, 0, 72, 100
2, 105408, Note_on_c, 0, 79, 110
2, 105500, Note_off_c, 0, 79, 100
2, 105504, Note_on_c, 0, 76, 110
2, 105548, Note_off_c, 0, 76, 100
2, 105552, Note_on_c, 0, 84, 122
2, 105644, Note_off_c, 0, 84, 100
2, 105648, Note_on_c, 0, 79, 110
2, 105692, Note_off_c, 0, 79, 100
2, 105696, Note_on_c, 0, 76, 110
2, 105788, Note_off_c, 0, 76, 100
2, 105792, Note_on_c, 0, 72, 110
2, 105836, Note_off_c, 0, 72, 100
2, 105840, Note_on_c, 0, 79, 124
2, 105932, Note_off_c, 0, 79, 100
2, 105936, Note_on_c, 0, 76, 110
2, 105980, Note_off_c, 0, 76, 100
2, 106128, Note_on_c, 0, 79, 124
2, 106220, Note_off_c, 0, 79, 100
2, 106224, Note_on_c, 0, 76, 110
2, 106268, Note_off_c, 0, 76, 100
2, 106272, Note_on_c, 0, 73, 110
2, 106364, Note_off_c, 0, 73, 100
2, 106368, Note_on_c, 0, 76, 110
2, 106412, Note_off_c, 0, 76, 100
2, 106416, Note_on_c, 0, 79, 123
2, 106508, Note_off_c, 0, 79, 100
2, 106512, Note_on_c, 0, 76, 110
2, 106556, Note_off_c, 0, 76, 100
2, 106560, Note_on_c, 0, 77, 110
2, 106652, Note_off_c, 0, 77, 100
2, 106656, Note_on_c, 0, 74, 110
2, 106700, Note_off_c, 0, 74, 100
2, 106704, Note_on_c, 0, 77, 126
2, 106796, Note_off_c, 0, 77, 100
2, 106800, Note_on_c, 0, 69, 110
2, 106844, Note_off_c, 0, 69, 100
2, 106848, Note_on_c, 0, 77, 110
2, 106940, Note_off_c, 0, 77, 100
2, 106944, Note_on_c, 0, 65, 110
2, 106988, Note_off_c, 0, 65, 100
2, 106992, Note_on_c, 0, 69, 123
2, 107084, Note_off_c, 0, 69, 100
2, 107088, Note_on_c, 0, 65, 110
2, 107132, Note_off_c, 0, 65, 100
2, 107136, Note_on_c, 0, 69, 110
2, 107228, Note_off_c, 0, 69, 100
2, 107232, Note_on_c, 0, 65, 110
2, 107276, Note_off_c, 0, 65, 100
2, 107280, Note_on_c, 0, 77, 124
2, 107372, Note_off_c, 0, 77, 100
2, 107376, Note_on_c, 0, 74, 110
2, 107420, Note_off_c, 0, 74, 100
2, 107424, Note_on_c, 0, 69, 110
2, 107516, Note_off_c, 0, 69, 100
2, 107520, Note_on_c, 0, 81, 110
2, 107564, Note_off_c, 0, 81, 100
2, 107568, Note_on_c, 0, 77, 126
2, 107660, Note_off_c, 0, 77, 100
2, 107664, Note_on_c, 0, 74, 110
2, 107708, Note_off_c, 0, 74, 100
2, 107712, Note_on_c, 0, 72, 110
2, 107804, Note_off_c, 0, 72, 100
2, 107808, Note_on_c, 0, 71, 110
2, 107852, Note_off_c, 0, 71, 100
2, 107856, Note_on_c, 0, 77, 122
2, 107948, Note_off_c, 0, 77, 100
2, 107952, Note_on_c, 0, 74, 110
2, 107996, Note_off_c, 0, 74, 100
2, 108000, Note_on_c, 0, 83, 110
2, 108092, Note_off_c, 0, 83, 100
2, 108096, Note_on_c, 0, 77, 110
2, 108140, Note_off_c, 0, 77, 100
2, 108144, Note_on_c, 0, 74, 125
2, 108236, Note_off_c, 0, 74, 100
2, 108240, Note_on_c, 0, 71, 110
2, 108284, Note_off_c, 0, 71, 100
2, 108288, Note_on_c, 0, 74, 110
2, 108380, Note_off_c, 0, 74, 100
2, 108384, Note_on_c, 0, 72, 110
2, 108428, Note_off_c, 0, 72, 100
2, 108432, Note_on_c, 0, 80, 124
2, 108524, Note_off_c, 0, 80, 100
2, 108528, Note_on_c, 0, 77, 110
2, 108572, Note_off_c, 0, 77, 100
2, 108576, Note_on_c, 0, 84, 110
2, 108668, Note_off_c, 0, 84, 100
2, 108672, Note_on_c, 0, 81, 110
2, 108716, Note_off_c, 0, 81, 100
2, 108720, Note_on_c, 0, 77, 125
2, 108812, Note_off_c, 0, 77, 100
2, 108816, Note_on_c, 0, 72, 110
2, 108860, Note_off_c, 0, 72, 100
2, 108864, Note_on_c, 0, 75, 110
2, 108956, Note_off_c, 0, 75, 100
2, 108960, Note_on_c, 0, 74, 110
2, 109004, Note_off_c, 0, 74, 100
2, 109008, Note_on_c, 0, 86, 123
2, 109100, Note_off_c, 0, 86, 100
2, 109104, Note_on_c, 0, 74, 110
2, 109148, Note_off_c, 0, 74, 100
2, 109152, Note_on_c, 0, 86, 110
2, 109244, Note_off_c, 0, 86, 100
2, 109248, Note_on_c, 0, 74, 110
2, 109292, Note_off_c, 0, 74, 100
2, 109296, Note_on_c, 0, 86, 123
2, 109388, Note_off_c, 0, 86, 100
2, 109392, Note_on_c, 0, 74, 110
2, 109392, Note_on_c, 0, 79, 110
2, 109436, Note_off_c, 0, 74, 100
2, 109436, Note_off_c, 0, 79, 100
2, 109440, Note_on_c, 0, 79, 110
2, 109440, Note_on_c, 0, 72, 110
2, 109532, Note_off_c, 0, 72, 100
2, 109536, Note_on_c, 0, 76, 110
2, 109580, Note_off_c, 0, 76, 100
2, 109584, Note_on_c, 0, 77, 110
2, 109676, Note_off_c, 0, 79, 100
2, 109676, Note_off_c, 0, 77, 100
2, 109680, Note_on_c, 0, 74, 110
2, 109680, Note_on_c, 0, 77, 110
2, 109680, Note_on_c, 0, 79, 110
2, 109724, Note_off_c, 0, 74, 100
2, 109724, Note_off_c, 0, 77, 100
2, 109728, Note_on_c, 0, 71, 110
2, 109820, Note_off_c, 0, 71, 100
2, 109824, Note_on_c, 0, 72, 110
2, 109868, Note_off_c, 0, 72, 100
2, 109872, Note_on_c, 0, 74, 110
2, 109964, Note_off_c, 0, 79, 100
2, 109964, Note_off_c, 0, 74, 100
2, 109968, Note_on_c, 0, 72, 110
2, 109968, Note_on_c, 0, 79, 110
2, 110012, Note_off_c, 0, 72, 100
2, 110016, Note_on_c, 0, 74, 110
2, 110108, Note_off_c, 0, 74, 100
2, 110112, Note_on_c, 0, 76, 110
2, 110156, Note_off_c, 0, 76, 100
2, 110160, Note_on_c, 0, 77, 110
2, 110252, Note_off_c, 0, 79, 100
2, 110252, Note_off_c, 0, 77, 100
2, 110256, Note_on_c, 0, 76, 110
2, 110256, Note_on_c, 0, 79, 110
2, 110300, Note_off_c, 0, 76, 100
2, 110304, Note_on_c, 0, 77, 110
2, 110396, Note_off_c, 0, 77, 100
2, 110400, Note_on_c, 0, 74, 110
2, 110444, Note_off_c, 0, 74, 100
2, 110448, Note_on_c, 0, 77, 110
2, 110540, Note_off_c, 0, 79, 100
2, 110540, Note_off_c, 0, 77, 100
2, 110544, Note_on_c, 0, 76, 110
2, 110544, Note_on_c, 0, 79, 110
2, 110588, Note_off_c, 0, 76, 100
2, 110588, Note_off_c, 0, 79, 100
2, 110592, Note_on_c, 0, 74, 110
2, 110592, Note_on_c, 0, 80, 110
2, 110684, Note_off_c, 0, 74, 100
2, 110684, Note_off_c, 0, 80, 100
2, 110688, Note_on_c, 0, 81, 110
2, 110688, Note_on_c, 0, 72, 110
2, 110732, Note_off_c, 0, 81, 100
2, 110732, Note_off_c, 0, 72, 100
2, 110736, Note_on_c, 0, 71, 110
2, 110736, Note_on_c, 0, 83, 110
2, 110828, Note_off_c, 0, 71, 100
2, 110828, Note_off_c, 0, 83, 100
2, 110832, Note_on_c, 0, 64, 110
2, 110880, Note_on_c, 0, 59, 110
2, 110972, Note_off_c, 0, 59, 100
2, 110976, Note_on_c, 0, 60, 110
2, 111020, Note_off_c, 0, 60, 100
2, 111024, Note_on_c, 0, 62, 110
2, 111116, Note_off_c, 0, 64, 100
2, 111116, Note_off_c, 0, 62, 100
2, 111120, Note_on_c, 0, 64, 110
2, 111120, Note_on_c, 0, 60, 110
2, 111164, Note_off_c, 0, 64, 100
2, 111164, Note_off_c, 0, 60, 100
2, 111168, Note_on_c, 0, 72, 110
2, 111168, Note_on_c, 0, 64, 110
2, 111404, Note_off_c, 0, 72, 100
2, 111404, Note_off_c, 0, 64, 100
2, 111408, Note_on_c, 0, 72, 110
2, 111408, Note_on_c, 0, 64, 110
2, 111692, Note_off_c, 0, 72, 100
2, 111692, Note_off_c, 0, 64, 100
2, 111696, Note_on_c, 0, 72, 110
2, 111696, Note_on_c, 0, 64, 110
2, 111740, Note_off_c, 0, 72, 100
2, 111740, Note_off_c, 0, 64, 100
2, 111744, Note_on_c, 0, 84, 80
2, 111836, Note_off_c, 0, 84, 100
2, 111840, Note_on_c, 0, 80, 80
2, 111884, Note_off_c, 0, 80, 100
2, 111888, Note_on_c, 0, 81, 80
2, 111980, Note_off_c, 0, 81, 100
2, 111984, Note_on_c, 0, 76, 80
2, 112028, Note_off_c, 0, 76, 100
2, 112032, Note_on_c, 0, 74, 80
2, 112124, Note_off_c, 0, 74, 100
2, 112128, Note_on_c, 0, 72, 80
2, 112172, Note_off_c, 0, 72, 100
2, 112176, Note_on_c, 0, 76, 80
2, 112268, Note_off_c, 0, 76, 100
2, 112272, Note_on_c, 0, 72, 80
2, 112316, Note_off_c, 0, 72, 100
2, 112320, Note_on_c, 0, 71, 80
2, 112412, Note_off_c, 0, 71, 100
2, 112416, Note_on_c, 0, 69, 80
2, 112460, Note_off_c, 0, 69, 100
2, 112464, Note_on_c, 0, 72, 80
2, 112556, Note_off_c, 0, 72, 100
2, 112560, Note_on_c, 0, 69, 80
2, 112604, Note_off_c, 0, 69, 100
2, 112608, Note_on_c, 0, 71, 80
2, 112700, Note_off_c, 0, 71, 100
2, 112704, Note_on_c, 0, 69, 80
2, 112748, Note_off_c, 0, 69, 100
2, 112752, Note_on_c, 0, 72, 80
2, 112844, Note_off_c, 0, 72, 100
2, 112848, Note_on_c, 0, 71, 120
2, 112848, Note_on_c, 0, 65, 120
2, 112848, Note_on_c, 0, 62, 120
2, 112892, Note_off_c, 0, 71, 100
2, 112892, Note_off_c, 0, 65, 100
2, 112892, Note_off_c, 0, 62, 100
2, 112896, Note_on_c, 0, 71, 120
2, 112896, Note_on_c, 0, 64, 120
2, 112896, Note_on_c, 0, 62, 120
2, 113132, Note_off_c, 0, 71, 100
2, 113132, Note_off_c, 0, 64, 100
2, 113132, Note_off_c, 0, 62, 100
2, 113136, Note_on_c, 0, 71, 120
2, 113136, Note_on_c, 0, 64, 120
2, 113136, Note_on_c, 0, 62, 120
2, 113420, Note_off_c, 0, 71, 100
2, 113420, Note_off_c, 0, 64, 100
2, 113420, Note_off_c, 0, 62, 100
2, 113424, Note_on_c, 0, 71, 120
2, 113424, Note_on_c, 0, 64, 120
2, 113424, Note_on_c, 0, 62, 120
2, 113468, Note_off_c, 0, 71, 100
2, 113468, Note_off_c, 0, 64, 100
2, 113468, Note_off_c, 0, 62, 100
2, 113472, Note_on_c, 0, 84, 80
2, 113564, Note_off_c, 0, 84, 100
2, 113568, Note_on_c, 0, 83, 80
2, 113612, Note_off_c, 0, 83, 100
2, 113616, Note_on_c, 0, 88, 80
2, 113708, Note_off_c, 0, 88, 100
2, 113712, Note_on_c, 0, 83, 80
2, 113756, Note_off_c, 0, 83, 100
2, 113760, Note_on_c, 0, 81, 80
2, 113852, Note_off_c, 0, 81, 100
2, 113856, Note_on_c, 0, 80, 80
2, 113900, Note_off_c, 0, 80, 100
2, 113904, Note_on_c, 0, 83, 80
2, 113996, Note_off_c, 0, 83, 100
2, 114000, Note_on_c, 0, 76, 80
2, 114044, Note_off_c, 0, 76, 100
2, 114048, Note_on_c, 0, 83, 80
2, 114140, Note_off_c, 0, 83, 100
2, 114144, Note_on_c, 0, 76, 80
2, 114188, Note_off_c, 0, 76, 100
2, 114192, Note_on_c, 0, 77, 80
2, 114284, Note_off_c, 0, 77, 100
2, 114288, Note_on_c, 0, 74, 80
2, 114332, Note_off_c, 0, 74, 100
2, 114336, Note_on_c, 0, 72, 80
2, 114428, Note_off_c, 0, 72, 100
2, 114432, Note_on_c, 0, 71, 80
2, 114476, Note_off_c, 0, 71, 100
2, 114480, Note_on_c, 0, 76, 80
2, 114572, Note_off_c, 0, 76, 100
2, 114576, Note_on_c, 0, 71, 80
2, 114620, Note_off_c, 0, 71, 100
2, 114624, Note_on_c, 0, 72, 80
2, 114716, Note_off_c, 0, 72, 100
2, 114720, Note_on_c, 0, 71, 81
2, 114764, Note_off_c, 0, 71, 100
2, 114768, Note_on_c, 0, 76, 82
2, 114860, Note_off_c, 0, 76, 100
2, 114864, Note_on_c, 0, 71, 84
2, 114908, Note_off_c, 0, 71, 100
2, 114912, Note_on_c, 0, 74, 85
2, 115004, Note_off_c, 0, 74, 100
2, 115008, Note_on_c, 0, 72, 86
2, 115052, Note_off_c, 0, 72, 100
2, 115056, Note_on_c, 0, 76, 87
2, 115148, Note_off_c, 0, 76, 100
2, 115152, Note_on_c, 0, 72, 89
2, 115196, Note_off_c, 0, 72, 100
2, 115200, Note_on_c, 0, 76, 90
2, 115292, Note_off_c, 0, 76, 100
2, 115296, Note_on_c, 0, 74, 92
2, 115340, Note_off_c, 0, 74, 100
2, 115344, Note_on_c, 0, 80, 92
2, 115436, Note_off_c, 0, 80, 100
2, 115440, Note_on_c, 0, 74, 94
2, 115484, Note_off_c, 0, 74, 100
2, 115488, Note_on_c, 0, 77, 95
2, 115580, Note_off_c, 0, 77, 100
2, 115584, Note_on_c, 0, 76, 97
2, 115628, Note_off_c, 0, 76, 100
2, 115632, Note_on_c, 0, 81, 98
2, 115724, Note_off_c, 0, 81, 100
2, 115728, Note_on_c, 0, 76, 99
2, 115772, Note_off_c, 0, 76, 100
2, 115776, Note_on_c, 0, 81, 100
2, 115868, Note_off_c, 0, 81, 100
2, 115872, Note_on_c, 0, 77, 102
2, 115916, Note_off_c, 0, 77, 100
2, 115920, Note_on_c, 0, 81, 103
2, 116012, Note_off_c, 0, 81, 100
2, 116016, Note_on_c, 0, 71, 104
2, 116060, Note_off_c, 0, 71, 100
2, 116064, Note_on_c, 0, 81, 105
2, 116156, Note_off_c, 0, 81, 100
2, 116160, Note_on_c, 0, 78, 107
2, 116204, Note_off_c, 0, 78, 100
2, 116208, Note_on_c, 0, 81, 108
2, 116300, Note_off_c, 0, 81, 100
2, 116304, Note_on_c, 0, 72, 110
2, 116352, Note_on_c, 0, 81, 110
2, 116444, Note_off_c, 0, 72, 100
2, 116444, Note_off_c, 0, 81, 100
2, 116448, Note_on_c, 0, 71, 110
2, 116492, Note_off_c, 0, 71, 100
2, 116496, Note_on_c, 0, 81, 110
2, 116588, Note_off_c, 0, 81, 100
2, 116592, Note_on_c, 0, 80, 110
2, 116636, Note_off_c, 0, 80, 100
2, 116640, Note_on_c, 0, 83, 121
2, 116640, Note_on_c, 0, 74, 123
2, 117020, Note_off_c, 0, 74, 100
2, 117020, Note_off_c, 0, 83, 100
2, 117024, Note_on_c, 0, 72, 110
2, 117068, Note_off_c, 0, 72, 100
2, 117072, Note_on_c, 0, 83, 110
2, 117164, Note_off_c, 0, 83, 100
2, 117168, Note_on_c, 0, 81, 110
2, 117212, Note_off_c, 0, 81, 100
2, 117216, Note_on_c, 0, 84, 122
2, 117216, Note_on_c, 0, 76, 123
2, 117596, Note_off_c, 0, 76, 100
2, 117596, Note_off_c, 0, 84, 100
2, 117600, Note_on_c, 0, 74, 110
2, 117644, Note_off_c, 0, 74, 100
2, 117648, Note_on_c, 0, 84, 110
2, 117740, Note_off_c, 0, 84, 100
2, 117744, Note_on_c, 0, 83, 110
2, 117788, Note_off_c, 0, 83, 100
2, 117792, Note_on_c, 0, 86, 125
2, 117792, Note_on_c, 0, 77, 121
2, 118028, Note_off_c, 0, 86, 100
2, 118028, Note_off_c, 0, 77, 100
2, 118032, Note_on_c, 0, 86, 110
2, 118032, Note_on_c, 0, 77, 110
2, 118076, Note_off_c, 0, 86, 100
2, 118076, Note_off_c, 0, 77, 100
2, 118080, Note_on_c, 0, 86, 110
2, 118080, Note_on_c, 0, 83, 110
2, 118080, Note_on_c, 0, 79, 110
2, 118080, Note_on_c, 0, 77, 110
2, 118316, Note_off_c, 0, 86, 100
2, 118316, Note_off_c, 0, 83, 100
2, 118316, Note_off_c, 0, 79, 100
2, 118316, Note_off_c, 0, 77, 100
2, 118320, Note_on_c, 0, 86, 110
2, 118320, Note_on_c, 0, 83, 110
2, 118320, Note_on_c, 0, 79, 110
2, 118320, Note_on_c, 0, 77, 110
2, 118604, Note_off_c, 0, 86, 100
2, 118604, Note_off_c, 0, 83, 100
2, 118604, Note_off_c, 0, 79, 100
2, 118604, Note_off_c, 0, 77, 100
2, 118608, Note_on_c, 0, 86, 110
2, 118608, Note_on_c, 0, 83, 110
2, 118608, Note_on_c, 0, 79, 110
2, 118608, Note_on_c, 0, 77, 110
2, 118748, Note_off_c, 0, 77, 100
2, 118748, Note_off_c, 0, 79, 100
2, 118748, Note_off_c, 0, 83, 100
2, 118748, Note_off_c, 0, 86, 100
2, 118752, Note_on_c, 0, 83, 110
2, 118796, Note_off_c, 0, 83, 100
2, 118800, Note_on_c, 0, 89, 110
2, 118892, Note_off_c, 0, 89, 100
2, 118896, Note_on_c, 0, 86, 110
2, 118940, Note_off_c, 0, 86, 100
2, 118944, Note_on_c, 0, 84, 110
2, 119036, Note_off_c, 0, 84, 100
2, 119040, Note_on_c, 0, 83, 110
2, 119084, Note_off_c, 0, 83, 100
2, 119088, Note_on_c, 0, 86, 110
2, 119180, Note_off_c, 0, 86, 100
2, 119184, Note_on_c, 0, 83, 110
2, 119228, Note_off_c, 0, 83, 100
2, 119232, Note_on_c, 0, 79, 110
2, 119324, Note_off_c, 0, 79, 100
2, 119328, Note_on_c, 0, 77, 110
2, 119372, Note_off_c, 0, 77, 100
2, 119376, Note_on_c, 0, 81, 110
2, 119468, Note_off_c, 0, 81, 100
2, 119472, Note_on_c, 0, 77, 110
2, 119516, Note_off_c, 0, 77, 100
2, 119520, Note_on_c, 0, 76, 110
2, 119612, Note_off_c, 0, 76, 100
2, 119616, Note_on_c, 0, 74, 110
2, 119660, Note_off_c, 0, 74, 100
2, 119664, Note_on_c, 0, 77, 110
2, 119756, Note_off_c, 0, 77, 100
2, 119760, Note_on_c, 0, 74, 110
2, 119804, Note_off_c, 0, 74, 100
2, 119808, Note_on_c, 0, 76, 110
2, 119808, Note_on_c, 0, 72, 110
2, 119808, Note_on_c, 0, 67, 110
2, 120044, Note_off_c, 0, 76, 100
2, 120044, Note_off_c, 0, 72, 100
2, 120044, Note_off_c, 0, 67, 100
2, 120048, Note_on_c, 0, 76, 110
2, 120048, Note_on_c, 0, 72, 110
2, 120048, Note_on_c, 0, 67, 110
2, 120332, Note_off_c, 0, 76, 100
2, 120332, Note_off_c, 0, 72, 100
2, 120332, Note_off_c, 0, 67, 100
2, 120336, Note_on_c, 0, 76, 110
2, 120336, Note_on_c, 0, 72, 110
2, 120336, Note_on_c, 0, 67, 110
2, 120476, Note_off_c, 0, 67, 100
2, 120476, Note_off_c, 0, 72, 100
2, 120476, Note_off_c, 0, 76, 100
2, 120480, Note_on_c, 0, 71, 110
2, 120480, Note_on_c, 0, 67, 110
2, 120524, Note_off_c, 0, 71, 100
2, 120524, Note_off_c, 0, 67, 100
2, 120528, Note_on_c, 0, 72, 110
2, 120528, Note_on_c, 0, 69, 110
2, 120620, Note_off_c, 0, 72, 100
2, 120620, Note_off_c, 0, 69, 100
2, 120624, Note_on_c, 0, 74, 110
2, 120624, Note_on_c, 0, 71, 110
2, 120668, Note_off_c, 0, 74, 100
2, 120668, Note_off_c, 0, 71, 100
2, 120672, Note_on_c, 0, 67, 124
2, 120672, Note_on_c, 0, 76, 122
2, 120764, Note_off_c, 0, 67, 100
2, 120768, Note_on_c, 0, 64, 110
2, 120812, Note_off_c, 0, 64, 100
2, 120816, Note_on_c, 0, 65, 110
2, 120908, Note_off_c, 0, 65, 100
2, 120912, Note_on_c, 0, 67, 110
2, 120956, Note_off_c, 0, 67, 100
2, 120960, Note_on_c, 0, 69, 123
2, 121052, Note_off_c, 0, 76, 100
2, 121056, Note_on_c, 0, 73, 110
2, 121100, Note_off_c, 0, 73, 100
2, 121104, Note_on_c, 0, 74, 110
2, 121196, Note_off_c, 0, 74, 100
2, 121200, Note_on_c, 0, 76, 110
2, 121244, Note_off_c, 0, 76, 100
2, 121248, Note_on_c, 0, 77, 127
2, 121340, Note_off_c, 0, 69, 100
2, 121344, Note_on_c, 0, 65, 110
2, 121388, Note_off_c, 0, 65, 100
2, 121392, Note_on_c, 0, 67, 110
2, 121484, Note_off_c, 0, 67, 100
2, 121488, Note_on_c, 0, 69, 110
2, 121532, Note_off_c, 0, 69, 100
2, 121536, Note_on_c, 0, 71, 122
2, 121628, Note_off_c, 0, 77, 100
2, 121628, Note_off_c, 0, 71, 100
2, 121632, Note_on_c, 0, 73, 110
2, 121632, Note_on_c, 0, 70, 110
2, 121676, Note_off_c, 0, 73, 100
2, 121676, Note_off_c, 0, 70, 100
2, 121680, Note_on_c, 0, 74, 110
2, 121680, Note_on_c, 0, 71, 110
2, 121772, Note_off_c, 0, 74, 100
2, 121772, Note_off_c, 0, 71, 100
2, 121776, Note_on_c, 0, 76, 110
2, 121776, Note_on_c, 0, 72, 110
2, 121820, Note_off_c, 0, 76, 100
2, 121820, Note_off_c, 0, 72, 100
2, 121824, Note_on_c, 0, 71, 123
2, 121824, Note_on_c, 0, 74, 123
2, 122108, Note_off_c, 0, 71, 100
2, 122112, Note_on_c, 0, 67, 110
2, 122204, Note_off_c, 0, 74, 100
2, 122208, Note_on_c, 0, 73, 110
2, 122252, Note_off_c, 0, 73, 100
2, 122256, Note_on_c, 0, 74, 110
2, 122348, Note_off_c, 0, 74, 100
2, 122352, Note_on_c, 0, 76, 110
2, 122396, Note_off_c, 0, 76, 100
2, 122400, Note_on_c, 0, 74, 123
2, 122492, Note_off_c, 0, 67, 100
2, 122496, Note_on_c, 0, 69, 110
2, 122540, Note_off_c, 0, 69, 100
2, 122544, Note_on_c, 0, 71, 110
2, 122636, Note_off_c, 0, 71, 100
2, 122640, Note_on_c, 0, 72, 110
2, 122684, Note_off_c, 0, 72, 100
2, 122688, Note_on_c, 0, 71, 110
2, 122780, Note_off_c, 0, 74, 100
2, 122784, Note_on_c, 0, 76, 110
2, 122828, Note_off_c, 0, 76, 100
2, 122832, Note_on_c, 0, 77, 110
2, 122924, Note_off_c, 0, 77, 100
2, 122928, Note_on_c, 0, 78, 110
2, 122972, Note_off_c, 0, 71, 100
2, 122972, Note_off_c, 0, 78, 100
2, 122976, Note_on_c, 0, 79, 124
2, 123072, Note_on_c, 0, 76, 110
2, 123116, Note_off_c, 0, 76, 100
2, 123120, Note_on_c, 0, 74, 110
2, 123212, Note_off_c, 0, 74, 100
2, 123216, Note_on_c, 0, 72, 110
2, 123260, Note_off_c, 0, 72, 100
2, 123264, Note_on_c, 0, 74, 110
2, 123356, Note_off_c, 0, 79, 100
2, 123356, Note_off_c, 0, 74, 100
2, 123360, Note_on_c, 0, 81, 110
2, 123360, Note_on_c, 0, 74, 110
2, 123404, Note_off_c, 0, 81, 100
2, 123408, Note_on_c, 0, 79, 110
2, 123500, Note_off_c, 0, 74, 100
2, 123500, Note_off_c, 0, 79, 100
2, 123504, Note_on_c, 0, 74, 110
2, 123504, Note_on_c, 0, 81, 110
2, 123548, Note_off_c, 0, 81, 100
2, 123552, Note_on_c, 0, 79, 110
2, 123644, Note_off_c, 0, 74, 100
2, 123644, Note_off_c, 0, 79, 100
2, 123648, Note_on_c, 0, 67, 110
2, 123648, Note_on_c, 0, 77, 110
2, 123648, Note_on_c, 0, 74, 110
2, 123692, Note_off_c, 0, 77, 100
2, 123692, Note_off_c, 0, 74, 100
2, 123696, Note_on_c, 0, 76, 110
2, 123788, Note_off_c, 0, 67, 100
2, 123788, Note_off_c, 0, 76, 100
2, 123792, Note_on_c, 0, 67, 110
2, 123792, Note_on_c, 0, 77, 110
2, 123792, Note_on_c, 0, 74, 110
2, 123836, Note_off_c, 0, 77, 100
2, 123836, Note_off_c, 0, 74, 100
2, 123840, Note_on_c, 0, 76, 110
2, 123932, Note_off_c, 0, 67, 100
2, 123932, Note_off_c, 0, 76, 100
2, 123936, Note_on_c, 0, 67, 110
2, 123936, Note_on_c, 0, 77, 110
2, 123936, Note_on_c, 0, 74, 110
2, 123980, Note_off_c, 0, 77, 100
2, 123980, Note_off_c, 0, 74, 100
2, 123984, Note_on_c, 0, 76, 110
2, 124076, Note_off_c, 0, 67, 100
2, 124076, Note_off_c, 0, 76, 100
2, 124080, Note_on_c, 0, 74, 110
2, 124124, Note_off_c, 0, 74, 100
2, 124128, Note_on_c, 0, 72, 110
2, 124220, Note_off_c, 0, 72, 100
2, 124224, Note_on_c, 0, 71, 110
2, 124268, Note_off_c, 0, 71, 100
2, 124272, Note_on_c, 0, 72, 110
2, 124364, Note_off_c, 0, 72, 100
2, 124368, Note_on_c, 0, 76, 110
2, 124412, Note_off_c, 0, 76, 100
2, 124416, Note_on_c, 0, 64, 110
2, 124508, Note_off_c, 0, 64, 100
2, 124512, Note_on_c, 0, 76, 110
2, 124512, Note_on_c, 0, 72, 110
2, 124556, Note_off_c, 0, 76, 100
2, 124556, Note_off_c, 0, 72, 100
2, 124560, Note_on_c, 0, 64, 110
2, 124652, Note_off_c, 0, 64, 100
2, 124656, Note_on_c, 0, 74, 110
2, 124656, Note_on_c, 0, 71, 110
2, 124700, Note_off_c, 0, 74, 100
2, 124700, Note_off_c, 0, 71, 100
2, 124704, Note_on_c, 0, 64, 110
2, 124796, Note_off_c, 0, 64, 100
2, 124800, Note_on_c, 0, 72, 110
2, 124800, Note_on_c, 0, 69, 110
2, 124844, Note_off_c, 0, 72, 100
2, 124844, Note_off_c, 0, 69, 100
2, 124848, Note_on_c, 0, 64, 110
2, 124940, Note_off_c, 0, 64, 100
2, 124944, Note_on_c, 0, 71, 110
2, 124944, Note_on_c, 0, 68, 110
2, 124988, Note_off_c, 0, 71, 100
2, 124988, Note_off_c, 0, 68, 100
2, 124992, Note_on_c, 0, 72, 110
2, 124992, Note_on_c, 0, 64, 110
2, 125228, Note_off_c, 0, 72, 100
2, 125228, Note_off_c, 0, 64, 100
2, 125232, Note_on_c, 0, 72, 110
2, 125232, Note_on_c, 0, 64, 110
2, 125516, Note_off_c, 0, 72, 100
2, 125516, Note_off_c, 0, 64, 100
2, 125520, Note_on_c, 0, 72, 110
2, 125520, Note_on_c, 0, 64, 110
2, 125564, Note_off_c, 0, 72, 100
2, 125564, Note_off_c, 0, 64, 100
2, 125568, Note_on_c, 0, 84, 80
2, 125660, Note_off_c, 0, 84, 100
2, 125664, Note_on_c, 0, 80, 80
2, 125708, Note_off_c, 0, 80, 100
2, 125712, Note_on_c, 0, 81, 80
2, 125804, Note_off_c, 0, 81, 100
2, 125808, Note_on_c, 0, 76, 80
2, 125852, Note_off_c, 0, 76, 100
2, 125856, Note_on_c, 0, 74, 80
2, 125948, Note_off_c, 0, 74, 100
2, 125952, Note_on_c, 0, 72, 80
2, 125996, Note_off_c, 0, 72, 100
2, 126000, Note_on_c, 0, 76, 80
2, 126092, Note_off_c, 0, 76, 100
2, 126096, Note_on_c, 0, 72, 80
2, 126140, Note_off_c, 0, 72, 100
2, 126144, Note_on_c, 0, 71, 80
2, 126236, Note_off_c, 0, 71, 100
2, 126240, Note_on_c, 0, 69, 80
2, 126284, Note_off_c, 0, 69, 100
2, 126288, Note_on_c, 0, 72, 80
2, 126380, Note_off_c, 0, 72, 100
2, 126384, Note_on_c, 0, 69, 80
2, 126428, Note_off_c, 0, 69, 100
2, 126432, Note_on_c, 0, 71, 80
2, 126524, Note_off_c, 0, 71, 100
2, 126528, Note_on_c, 0, 69, 80
2, 126572, Note_off_c, 0, 69, 100
2, 126576, Note_on_c, 0, 72, 80
2, 126668, Note_off_c, 0, 72, 100
2, 126672, Note_on_c, 0, 71, 120
2, 126672, Note_on_c, 0, 65, 120
2, 126672, Note_on_c, 0, 62, 120
2, 126716, Note_off_c, 0, 71, 100
2, 126716, Note_off_c, 0, 65, 100
2, 126716, Note_off_c, 0, 62, 100
2, 126720, Note_on_c, 0, 71, 120
2, 126720, Note_on_c, 0, 64, 120
2, 126720, Note_on_c, 0, 62, 120
2, 126956, Note_off_c, 0, 71, 100
2, 126956, Note_off_c, 0, 64, 100
2, 126956, Note_off_c, 0, 62, 100
2, 126960, Note_on_c, 0, 71, 120
2, 126960, Note_on_c, 0, 64, 120
2, 126960, Note_on_c, 0, 62, 120
2, 127244, Note_off_c, 0, 71, 100
2, 127244, Note_off_c, 0, 64, 100
2, 127244, Note_off_c, 0, 62, 100
2, 127248, Note_on_c, 0, 71, 120
2, 127248, Note_on_c, 0, 64, 120
2, 127248, Note_on_c, 0, 62, 120
2, 127292, Note_off_c, 0, 71, 100
2, 127292, Note_off_c, 0, 64, 100
2, 127292, Note_off_c, 0, 62, 100
2, 127296, Note_on_c, 0, 84, 80
2, 127388, Note_off_c, 0, 84, 100
2, 127392, Note_on_c, 0, 83, 80
2, 127436, Note_off_c, 0, 83, 100
2, 127440, Note_on_c, 0, 88, 80
2, 127532, Note_off_c, 0, 88, 100
2, 127536, Note_on_c, 0, 83, 80
2, 127580, Note_off_c, 0, 83, 100
2, 127584, Note_on_c, 0, 81, 80
2, 127676, Note_off_c, 0, 81, 100
2, 127680, Note_on_c, 0, 80, 80
2, 127724, Note_off_c, 0, 80, 100
2, 127728, Note_on_c, 0, 83, 80
2, 127820, Note_off_c, 0, 83, 100
2, 127824, Note_on_c, 0, 76, 80
2, 127868, Note_off_c, 0, 76, 100
2, 127872, Note_on_c, 0, 83, 80
2, 127964, Note_off_c, 0, 83, 100
2, 127968, Note_on_c, 0, 76, 80
2, 128012, Note_off_c, 0, 76, 100
2, 128016, Note_on_c, 0, 77, 80
2, 128108, Note_off_c, 0, 77, 100
2, 128112, Note_on_c, 0, 74, 80
2, 128156, Note_off_c, 0, 74, 100
2, 128160, Note_on_c, 0, 72, 80
2, 128252, Note_off_c, 0, 72, 100
2, 128256, Note_on_c, 0, 71, 80
2, 128300, Note_off_c, 0, 71, 100
2, 128304, Note_on_c, 0, 76, 80
2, 128396, Note_off_c, 0, 76, 100
2, 128400, Note_on_c, 0, 71, 80
2, 128444, Note_off_c, 0, 71, 100
2, 128448, Note_on_c, 0, 72, 80
2, 128540, Note_off_c, 0, 72, 100
2, 128544, Note_on_c, 0, 71, 81
2, 128588, Note_off_c, 0, 71, 100
2, 128592, Note_on_c, 0, 76, 82
2, 128684, Note_off_c, 0, 76, 100
2, 128688, Note_on_c, 0, 71, 84
2, 128732, Note_off_c, 0, 71, 100
2, 128736, Note_on_c, 0, 74, 85
2, 128828, Note_off_c, 0, 74, 100
2, 128832, Note_on_c, 0, 72, 86
2, 128876, Note_off_c, 0, 72, 100
2, 128880, Note_on_c, 0, 76, 87
2, 128972, Note_off_c, 0, 76, 100
2, 128976, Note_on_c, 0, 72, 89
2, 129020, Note_off_c, 0, 72, 100
2, 129024, Note_on_c, 0, 76, 90
2, 129116, Note_off_c, 0, 76, 100
2, 129120, Note_on_c, 0, 74, 92
2, 129164, Note_off_c, 0, 74, 100
2, 129168, Note_on_c, 0, 80, 92
2, 129260, Note_off_c, 0, 80, 100
2, 129264, Note_on_c, 0, 74, 94
2, 129308, Note_off_c, 0, 74, 100
2, 129312, Note_on_c, 0, 77, 95
2, 129404, Note_off_c, 0, 77, 100
2, 129408, Note_on_c, 0, 76, 97
2, 129452, Note_off_c, 0, 76, 100
2, 129456, Note_on_c, 0, 81, 98
2, 129548, Note_off_c, 0, 81, 100
2, 129552, Note_on_c, 0, 76, 99
2, 129596, Note_off_c, 0, 76, 100
2, 129600, Note_on_c, 0, 81, 100
2, 129692, Note_off_c, 0, 81, 100
2, 129696, Note_on_c, 0, 77, 102
2, 129740, Note_off_c, 0, 77, 100
2, 129744, Note_on_c, 0, 81, 103
2, 129836, Note_off_c, 0, 81, 100
2, 129840, Note_on_c, 0, 71, 104
2, 129884, Note_off_c, 0, 71, 100
2, 129888, Note_on_c, 0, 81, 105
2, 129980, Note_off_c, 0, 81, 100
2, 129984, Note_on_c, 0, 78, 107
2, 130028, Note_off_c, 0, 78, 100
2, 130032, Note_on_c, 0, 81, 108
2, 130124, Note_off_c, 0, 81, 100
2, 130128, Note_on_c, 0, 72, 110
2, 130176, Note_on_c, 0, 81, 110
2, 130268, Note_off_c, 0, 72, 64
2, 130268, Note_off_c, 0, 81, 100
2, 130272, Note_on_c, 0, 71, 110
2, 130316, Note_off_c, 0, 71, 100
2, 130320, Note_on_c, 0, 81, 110
2, 130412, Note_off_c, 0, 81, 100
2, 130416, Note_on_c, 0, 80, 110
2, 130460, Note_off_c, 0, 80, 100
2, 130464, Note_on_c, 0, 83, 121
2, 130464, Note_on_c, 0, 74, 123
2, 130844, Note_off_c, 0, 74, 64
2, 130844, Note_off_c, 0, 83, 64
2, 130848, Note_on_c, 0, 72, 110
2, 130892, Note_off_c, 0, 72, 100
2, 130896, Note_on_c, 0, 83, 110
2, 130988, Note_off_c, 0, 83, 100
2, 130992, Note_on_c, 0, 81, 110
2, 131036, Note_off_c, 0, 81, 100
2, 131040, Note_on_c, 0, 84, 122
2, 131040, Note_on_c, 0, 76, 123
2, 131420, Note_off_c, 0, 76, 64
2, 131420, Note_off_c, 0, 84, 64
2, 131424, Note_on_c, 0, 74, 110
2, 131468, Note_off_c, 0, 74, 100
2, 131472, Note_on_c, 0, 84, 110
2, 131564, Note_off_c, 0, 84, 100
2, 131568, Note_on_c, 0, 83, 110
2, 131612, Note_off_c, 0, 83, 100
2, 131616, Note_on_c, 0, 86, 125
2, 131616, Note_on_c, 0, 77, 121
2, 131852, Note_off_c, 0, 86, 100
2, 131852, Note_off_c, 0, 77, 100
2, 131856, Note_on_c, 0, 86, 110
2, 131856, Note_on_c, 0, 77, 110
2, 131900, Note_off_c, 0, 86, 100
2, 131900, Note_off_c, 0, 77, 100
2, 131904, Note_on_c, 0, 86, 110
2, 131904, Note_on_c, 0, 83, 110
2, 131904, Note_on_c, 0, 79, 110
2, 131904, Note_on_c, 0, 77, 110
2, 132140, Note_off_c, 0, 86, 100
2, 132140, Note_off_c, 0, 83, 100
2, 132140, Note_off_c, 0, 79, 100
2, 132140, Note_off_c, 0, 77, 100
2, 132144, Note_on_c, 0, 86, 110
2, 132144, Note_on_c, 0, 83, 110
2, 132144, Note_on_c, 0, 79, 110
2, 132144, Note_on_c, 0, 77, 110
2, 132428, Note_off_c, 0, 86, 100
2, 132428, Note_off_c, 0, 83, 100
2, 132428, Note_off_c, 0, 79, 100
2, 132428, Note_off_c, 0, 77, 100
2, 132432, Note_on_c, 0, 86, 110
2, 132432, Note_on_c, 0, 83, 110
2, 132432, Note_on_c, 0, 79, 110
2, 132432, Note_on_c, 0, 77, 110
2, 132572, Note_off_c, 0, 77, 64
2, 132572, Note_off_c, 0, 79, 64
2, 132572, Note_off_c, 0, 83, 64
2, 132572, Note_off_c, 0, 86, 64
2, 132576, Note_on_c, 0, 83, 110
2, 132620, Note_off_c, 0, 83, 100
2, 132624, Note_on_c, 0, 89, 110
2, 132716, Note_off_c, 0, 89, 100
2, 132720, Note_on_c, 0, 86, 110
2, 132764, Note_off_c, 0, 86, 100
2, 132768, Note_on_c, 0, 84, 110
2, 132860, Note_off_c, 0, 84, 100
2, 132864, Note_on_c, 0, 83, 110
2, 132908, Note_off_c, 0, 83, 100
2, 132912, Note_on_c, 0, 86, 110
2, 133004, Note_off_c, 0, 86, 100
2, 133008, Note_on_c, 0, 83, 110
2, 133052, Note_off_c, 0, 83, 100
2, 133056, Note_on_c, 0, 79, 110
2, 133148, Note_off_c, 0, 79, 100
2, 133152, Note_on_c, 0, 77, 110
2, 133196, Note_off_c, 0, 77, 100
2, 133200, Note_on_c, 0, 81, 110
2, 133292, Note_off_c, 0, 81, 100
2, 133296, Note_on_c, 0, 77, 110
2, 133340, Note_off_c, 0, 77, 100
2, 133344, Note_on_c, 0, 76, 110
2, 133436, Note_off_c, 0, 76, 100
2, 133440, Note_on_c, 0, 74, 110
2, 133484, Note_off_c, 0, 74, 100
2, 133488, Note_on_c, 0, 77, 110
2, 133580, Note_off_c, 0, 77, 100
2, 133584, Note_on_c, 0, 74, 110
2, 133628, Note_off_c, 0, 74, 100
2, 133632, Note_on_c, 0, 76, 110
2, 133632, Note_on_c, 0, 72, 110
2, 133632, Note_on_c, 0, 67, 110
2, 133868, Note_off_c, 0, 76, 100
2, 133868, Note_off_c, 0, 72, 100
2, 133868, Note_off_c, 0, 67, 100
2, 133872, Note_on_c, 0, 76, 110
2, 133872, Note_on_c, 0, 72, 110
2, 133872, Note_on_c, 0, 67, 110
2, 134156, Note_off_c, 0, 76, 100
2, 134156, Note_off_c, 0, 72, 100
2, 134156, Note_off_c, 0, 67, 100
2, 134160, Note_on_c, 0, 76, 110
2, 134160, Note_on_c, 0, 72, 110
2, 134160, Note_on_c, 0, 67, 110
2, 134300, Note_off_c, 0, 67, 64
2, 134300, Note_off_c, 0, 72, 64
2, 134300, Note_off_c, 0, 76, 64
2, 134304, Note_on_c, 0, 71, 110
2, 134304, Note_on_c, 0, 67, 110
2, 134348, Note_off_c, 0, 71, 100
2, 134348, Note_off_c, 0, 67, 100
2, 134352, Note_on_c, 0, 72, 110
2, 134352, Note_on_c, 0, 69, 110
2, 134444, Note_off_c, 0, 72, 100
2, 134444, Note_off_c, 0, 69, 100
2, 134448, Note_on_c, 0, 74, 110
2, 134448, Note_on_c, 0, 71, 110
2, 134492, Note_off_c, 0, 74, 100
2, 134492, Note_off_c, 0, 71, 100
2, 134496, Note_on_c, 0, 67, 124
2, 134496, Note_on_c, 0, 76, 122
2, 134588, Note_off_c, 0, 67, 100
2, 134592, Note_on_c, 0, 64, 110
2, 134636, Note_off_c, 0, 64, 100
2, 134640, Note_on_c, 0, 65, 110
2, 134732, Note_off_c, 0, 65, 100
2, 134736, Note_on_c, 0, 67, 110
2, 134780, Note_off_c, 0, 67, 100
2, 134784, Note_on_c, 0, 69, 123
2, 134876, Note_off_c, 0, 76, 64
2, 134880, Note_on_c, 0, 73, 110
2, 134924, Note_off_c, 0, 73, 100
2, 134928, Note_on_c, 0, 74, 110
2, 135020, Note_off_c, 0, 74, 100
2, 135024, Note_on_c, 0, 76, 110
2, 135068, Note_off_c, 0, 76, 100
2, 135072, Note_on_c, 0, 77, 127
2, 135164, Note_off_c, 0, 69, 100
2, 135168, Note_on_c, 0, 65, 110
2, 135212, Note_off_c, 0, 65, 100
2, 135216, Note_on_c, 0, 67, 110
2, 135308, Note_off_c, 0, 67, 100
2, 135312, Note_on_c, 0, 69, 110
2, 135356, Note_off_c, 0, 69, 100
2, 135360, Note_on_c, 0, 71, 122
2, 135452, Note_off_c, 0, 77, 64
2, 135452, Note_off_c, 0, 71, 100
2, 135456, Note_on_c, 0, 73, 110
2, 135456, Note_on_c, 0, 70, 110
2, 135500, Note_off_c, 0, 73, 100
2, 135500, Note_off_c, 0, 70, 100
2, 135504, Note_on_c, 0, 74, 110
2, 135504, Note_on_c, 0, 71, 110
2, 135596, Note_off_c, 0, 74, 100
2, 135596, Note_off_c, 0, 71, 100
2, 135600, Note_on_c, 0, 76, 110
2, 135600, Note_on_c, 0, 72, 110
2, 135644, Note_off_c, 0, 76, 100
2, 135644, Note_off_c, 0, 72, 100
2, 135648, Note_on_c, 0, 71, 123
2, 135648, Note_on_c, 0, 74, 123
2, 135932, Note_off_c, 0, 71, 100
2, 135936, Note_on_c, 0, 67, 110
2, 136028, Note_off_c, 0, 74, 64
2, 136032, Note_on_c, 0, 73, 110
2, 136076, Note_off_c, 0, 73, 100
2, 136080, Note_on_c, 0, 74, 110
2, 136172, Note_off_c, 0, 74, 100
2, 136176, Note_on_c, 0, 76, 110
2, 136220, Note_off_c, 0, 76, 100
2, 136224, Note_on_c, 0, 74, 123
2, 136316, Note_off_c, 0, 67, 100
2, 136320, Note_on_c, 0, 69, 110
2, 136364, Note_off_c, 0, 69, 100
2, 136368, Note_on_c, 0, 71, 110
2, 136460, Note_off_c, 0, 71, 100
2, 136464, Note_on_c, 0, 72, 110
2, 136508, Note_off_c, 0, 72, 100
2, 136512, Note_on_c, 0, 71, 110
2, 136604, Note_off_c, 0, 74, 64
2, 136608, Note_on_c, 0, 76, 110
2, 136652, Note_off_c, 0, 76, 100
2, 136656, Note_on_c, 0, 77, 110
2, 136748, Note_off_c, 0, 77, 100
2, 136752, Note_on_c, 0, 78, 110
2, 136796, Note_off_c, 0, 71, 100
2, 136796, Note_off_c, 0, 78, 100
2, 136800, Note_on_c, 0, 79, 124
2, 136896, Note_on_c, 0, 76, 110
2, 136940, Note_off_c, 0, 76, 100
2, 136944, Note_on_c, 0, 74, 110
2, 137036, Note_off_c, 0, 74, 100
2, 137040, Note_on_c, 0, 72, 110
2, 137084, Note_off_c, 0, 72, 100
2, 137088, Note_on_c, 0, 74, 110
2, 137180, Note_off_c, 0, 79, 64
2, 137180, Note_off_c, 0, 74, 100
2, 137184, Note_on_c, 0, 81, 110
2, 137184, Note_on_c, 0, 74, 110
2, 137228, Note_off_c, 0, 81, 100
2, 137232, Note_on_c, 0, 79, 110
2, 137324, Note_off_c, 0, 74, 100
2, 137324, Note_off_c, 0, 79, 100
2, 137328, Note_on_c, 0, 74, 110
2, 137328, Note_on_c, 0, 81, 110
2, 137372, Note_off_c, 0, 81, 100
2, 137376, Note_on_c, 0, 79, 110
2, 137468, Note_off_c, 0, 74, 100
2, 137468, Note_off_c, 0, 79, 100
2, 137472, Note_on_c, 0, 67, 110
2, 137472, Note_on_c, 0, 77, 110
2, 137472, Note_on_c, 0, 74, 110
2, 137516, Note_off_c, 0, 77, 100
2, 137516, Note_off_c, 0, 74, 100
2, 137520, Note_on_c, 0, 76, 110
2, 137612, Note_off_c, 0, 67, 100
2, 137612, Note_off_c, 0, 76, 100
2, 137616, Note_on_c, 0, 67, 110
2, 137616, Note_on_c, 0, 77, 110
2, 137616, Note_on_c, 0, 74, 110
2, 137660, Note_off_c, 0, 77, 100
2, 137660, Note_off_c, 0, 74, 100
2, 137664, Note_on_c, 0, 76, 80
2, 137756, Note_off_c, 0, 67, 64
2, 137756, Note_off_c, 0, 76, 100
2, 137808, Note_on_c, 0, 64, 80
2, 137808, Note_on_c, 0, 59, 80
2, 137900, Note_off_c, 0, 64, 100
2, 137900, Note_off_c, 0, 59, 100
2, 137952, Note_on_c, 0, 60, 80
2, 137952, Note_on_c, 0, 55, 80
2, 138044, Note_off_c, 0, 55, 100
2, 138048, Note_on_c, 0, 57, 80
2, 138092, Note_off_c, 0, 57, 100
2, 138096, Note_on_c, 0, 55, 80
2, 138188, Note_off_c, 0, 55, 100
2, 138192, Note_on_c, 0, 53, 80
2, 138236, Note_off_c, 0, 60, 100
2, 138236, Note_off_c, 0, 53, 100
2, 138240, Note_on_c, 0, 60, 70
2, 138240, Note_on_c, 0, 52, 70
2, 138524, Note_off_c, 0, 60, 100
2, 138524, Note_off_c, 0, 52, 100
2, 138528, Note_on_c, 0, 60, 70
2, 138528, Note_on_c, 0, 52, 70
2, 138528, Note_on_c, 0, 55, 70
2, 139100, Note_off_c, 0, 60, 100
2, 139100, Note_off_c, 0, 52, 100
2, 139100, Note_off_c, 0, 55, 100
2, 139392, Note_on_c, 0, 55, 70
2, 139392, Note_on_c, 0, 53, 70
2, 139392, Note_on_c, 0, 50, 70
2, 139392, Note_on_c, 0, 47, 70
2, 139964, Note_off_c, 0, 55, 100
2, 139964, Note_off_c, 0, 53, 100
2, 139964, Note_off_c, 0, 50, 100
2, 139964, Note_off_c, 0, 47, 100
2, 140256, Note_on_c, 0, 55, 70
2, 140256, Note_on_c, 0, 53, 70
2, 140256, Note_on_c, 0, 50, 70
2, 140256, Note_on_c, 0, 47, 70
2, 140828, Note_off_c, 0, 55, 100
2, 140828, Note_off_c, 0, 53, 100
2, 140828, Note_off_c, 0, 50, 100
2, 140828, Note_off_c, 0, 47, 100
2, 141120, Note_on_c, 0, 62, 70
2, 141120, Note_on_c, 0, 59, 70
2, 141120, Note_on_c, 0, 55, 70
2, 141120, Note_on_c, 0, 53, 70
2, 141692, Note_off_c, 0, 62, 100
2, 141692, Note_off_c, 0, 59, 100
2, 141692, Note_off_c, 0, 55, 100
2, 141692, Note_off_c, 0, 53, 100
2, 141984, Note_on_c, 0, 55, 73
2, 141984, Note_on_c, 0, 53, 73
2, 141984, Note_on_c, 0, 50, 73
2, 142268, Note_off_c, 0, 53, 100
2, 142268, Note_off_c, 0, 50, 100
2, 142272, Note_on_c, 0, 52, 66
2, 142272, Note_on_c, 0, 48, 66
2, 142556, Note_off_c, 0, 55, 100
2, 142556, Note_off_c, 0, 52, 100
2, 142556, Note_off_c, 0, 48, 100
2, 142848, Note_on_c, 0, 55, 80
2, 142848, Note_on_c, 0, 52, 80
2, 142848, Note_on_c, 0, 48, 80
2, 143420, Note_off_c, 0, 55, 100
2, 143420, Note_off_c, 0, 52, 100
2, 143420, Note_off_c, 0, 48, 100
2, 143712, Note_on_c, 0, 53, 80
2, 143712, Note_on_c, 0, 50, 80
2, 143712, Note_on_c, 0, 55, 80
2, 144284, Note_off_c, 0, 53, 100
2, 144284, Note_off_c, 0, 50, 100
2, 144284, Note_off_c, 0, 55, 100
2, 144576, Note_on_c, 0, 55, 80
2, 144576, Note_on_c, 0, 54, 80
2, 144576, Note_on_c, 0, 51, 80
2, 144860, Note_off_c, 0, 54, 100
2, 144860, Note_off_c, 0, 51, 100
2, 144864, Note_on_c, 0, 52, 70
2, 145148, Note_off_c, 0, 55, 100
2, 145148, Note_off_c, 0, 52, 100
2, 145440, Note_on_c, 0, 64, 80
2, 145440, Note_on_c, 0, 55, 80
2, 145440, Note_on_c, 0, 52, 80
2, 146012, Note_off_c, 0, 64, 100
2, 146012, Note_off_c, 0, 55, 100
2, 146012, Note_off_c, 0, 52, 100
2, 146304, Note_on_c, 0, 60, 80
2, 146304, Note_on_c, 0, 57, 80
2, 146304, Note_on_c, 0, 54, 80
2, 146304, Note_on_c, 0, 51, 80
2, 146876, Note_off_c, 0, 60, 100
2, 146876, Note_off_c, 0, 57, 100
2, 146876, Note_off_c, 0, 54, 100
2, 146876, Note_off_c, 0, 51, 100
2, 147168, Note_on_c, 0, 60, 80
2, 147168, Note_on_c, 0, 56, 80
2, 147168, Note_on_c, 0, 53, 80
2, 147168, Note_on_c, 0, 50, 80
2, 147740, Note_off_c, 0, 60, 100
2, 147740, Note_off_c, 0, 56, 100
2, 147740, Note_off_c, 0, 53, 100
2, 147740, Note_off_c, 0, 50, 100
2, 148032, Note_on_c, 0, 59, 80
2, 148032, Note_on_c, 0, 57, 80
2, 148032, Note_on_c, 0, 53, 80
2, 148032, Note_on_c, 0, 50, 80
2, 148604, Note_off_c, 0, 59, 100
2, 148604, Note_off_c, 0, 57, 100
2, 148604, Note_off_c, 0, 53, 100
2, 148604, Note_off_c, 0, 50, 100
2, 148896, Note_on_c, 0, 59, 80
2, 148896, Note_on_c, 0, 55, 80
2, 148896, Note_on_c, 0, 53, 80
2, 148896, Note_on_c, 0, 50, 80
2, 149468, Note_off_c, 0, 59, 100
2, 149468, Note_off_c, 0, 55, 100
2, 149468, Note_off_c, 0, 53, 100
2, 149468, Note_off_c, 0, 50, 100
2, 149760, Note_on_c, 0, 60, 80
2, 149760, Note_on_c, 0, 54, 80
2, 149760, Note_on_c, 0, 51, 80
2, 150044, Note_off_c, 0, 54, 100
2, 150044, Note_off_c, 0, 51, 100
2, 150048, Note_on_c, 0, 55, 70
2, 150048, Note_on_c, 0, 52, 70
2, 150332, Note_off_c, 0, 60, 100
2, 150332, Note_off_c, 0, 55, 100
2, 150332, Note_off_c, 0, 52, 100
2, 150624, Note_on_c, 0, 55, 80
2, 150624, Note_on_c, 0, 59, 80
2, 150624, Note_on_c, 0, 64, 80
2, 150908, Note_off_c, 0, 59, 100
2, 150912, Note_on_c, 0, 60, 70
2, 151196, Note_off_c, 0, 55, 100
2, 151196, Note_off_c, 0, 64, 100
2, 151196, Note_off_c, 0, 60, 100
2, 151488, Note_on_c, 0, 67, 80
2, 151488, Note_on_c, 0, 64, 80
2, 151488, Note_on_c, 0, 61, 80
2, 151488, Note_on_c, 0, 58, 80
2, 152060, Note_off_c, 0, 67, 100
2, 152060, Note_off_c, 0, 64, 100
2, 152060, Note_off_c, 0, 61, 100
2, 152060, Note_off_c, 0, 58, 100
2, 152352, Note_on_c, 0, 67, 80
2, 152352, Note_on_c, 0, 64, 80
2, 152352, Note_on_c, 0, 61, 80
2, 152352, Note_on_c, 0, 58, 80
2, 152924, Note_off_c, 0, 67, 100
2, 152924, Note_off_c, 0, 64, 100
2, 152924, Note_off_c, 0, 61, 100
2, 152924, Note_off_c, 0, 58, 100
2, 153216, Note_on_c, 0, 65, 80
2, 153216, Note_on_c, 0, 60, 80
2, 153216, Note_on_c, 0, 53, 80
2, 153788, Note_off_c, 0, 65, 100
2, 153788, Note_off_c, 0, 60, 100
2, 153788, Note_off_c, 0, 53, 100
2, 154080, Note_on_c, 0, 62, 80
2, 154080, Note_on_c, 0, 56, 80
2, 154080, Note_on_c, 0, 53, 80
2, 154652, Note_off_c, 0, 62, 100
2, 154652, Note_off_c, 0, 56, 100
2, 154652, Note_off_c, 0, 53, 100
2, 154944, Note_on_c, 0, 59, 80
2, 154944, Note_on_c, 0, 53, 80
2, 154944, Note_on_c, 0, 56, 80
2, 155228, Note_off_c, 0, 56, 100
2, 155232, Note_on_c, 0, 55, 70
2, 155516, Note_off_c, 0, 59, 100
2, 155516, Note_off_c, 0, 53, 100
2, 155516, Note_off_c, 0, 55, 100
2, 155808, Note_on_c, 0, 60, 80
2, 155808, Note_on_c, 0, 55, 80
2, 155808, Note_on_c, 0, 53, 80
2, 156092, Note_off_c, 0, 53, 100
2, 156096, Note_on_c, 0, 52, 70
2, 156380, Note_off_c, 0, 60, 100
2, 156380, Note_off_c, 0, 55, 100
2, 156380, Note_off_c, 0, 52, 100
2, 156672, Note_on_c, 0, 53, 80
2, 156672, Note_on_c, 0, 62, 80
2, 156672, Note_on_c, 0, 55, 80
2, 156956, Note_off_c, 0, 62, 100
2, 156956, Note_off_c, 0, 55, 100
2, 156960, Note_on_c, 0, 55, 70
2, 156960, Note_on_c, 0, 50, 70
2, 157244, Note_off_c, 0, 53, 100
2, 157244, Note_off_c, 0, 55, 100
2, 157244, Note_off_c, 0, 50, 100
2, 157248, Note_on_c, 0, 55, 80
2, 157276, Note_off_c, 0, 55, 100
2, 157280, Note_on_c, 0, 57, 80
2, 157308, Note_off_c, 0, 57, 100
2, 157312, Note_on_c, 0, 59, 80
2, 157340, Note_off_c, 0, 59, 100
2, 157344, Note_on_c, 0, 60, 80
2, 157372, Note_off_c, 0, 60, 100
2, 157376, Note_on_c, 0, 62, 80
2, 157404, Note_off_c, 0, 62, 100
2, 157408, Note_on_c, 0, 64, 80
2, 157436, Note_off_c, 0, 64, 100
2, 157440, Note_on_c, 0, 65, 80
2, 157468, Note_off_c, 0, 65, 100
2, 157472, Note_on_c, 0, 67, 80
2, 157500, Note_off_c, 0, 67, 100
2, 157504, Note_on_c, 0, 69, 80
2, 157532, Note_off_c, 0, 69, 100
2, 157536, Note_on_c, 0, 71, 80
2, 157564, Note_off_c, 0, 71, 100
2, 157568, Note_on_c, 0, 72, 80
2, 157596, Note_off_c, 0, 72, 100
2, 157600, Note_on_c, 0, 74, 80
2, 157628, Note_off_c, 0, 74, 100
2, 157632, Note_on_c, 0, 76, 80
2, 157660, Note_off_c, 0, 76, 100
2, 157664, Note_on_c, 0, 77, 80
2, 157692, Note_off_c, 0, 77, 100
2, 157696, Note_on_c, 0, 79, 80
2, 157724, Note_off_c, 0, 79, 100
2, 157728, Note_on_c, 0, 81, 80
2, 157756, Note_off_c, 0, 81, 100
2, 157760, Note_on_c, 0, 79, 80
2, 157788, Note_off_c, 0, 79, 100
2, 157792, Note_on_c, 0, 83, 80
2, 157820, Note_off_c, 0, 83, 100
2, 157824, Note_on_c, 0, 84, 70
2, 157852, Note_off_c, 0, 84, 100
2, 157856, Note_on_c, 0, 86, 70
2, 157884, Note_off_c, 0, 86, 100
2, 157888, Note_on_c, 0, 84, 70
2, 157916, Note_off_c, 0, 84, 100
2, 157920, Note_on_c, 0, 83, 70
2, 157948, Note_off_c, 0, 83, 100
2, 157952, Note_on_c, 0, 84, 70
2, 157980, Note_off_c, 0, 84, 100
2, 157984, Note_on_c, 0, 83, 70
2, 158012, Note_off_c, 0, 83, 100
2, 158016, Note_on_c, 0, 84, 70
2, 158044, Note_off_c, 0, 84, 100
2, 158048, Note_on_c, 0, 86, 70
2, 158076, Note_off_c, 0, 86, 100
2, 158080, Note_on_c, 0, 84, 70
2, 158108, Note_off_c, 0, 84, 100
2, 158112, Note_on_c, 0, 79, 70
2, 158140, Note_off_c, 0, 79, 100
2, 158144, Note_on_c, 0, 81, 70
2, 158172, Note_off_c, 0, 81, 100
2, 158176, Note_on_c, 0, 79, 70
2, 158204, Note_off_c, 0, 79, 100
2, 158208, Note_on_c, 0, 78, 70
2, 158236, Note_off_c, 0, 78, 100
2, 158240, Note_on_c, 0, 79, 70
2, 158268, Note_off_c, 0, 79, 100
2, 158272, Note_on_c, 0, 78, 70
2, 158300, Note_off_c, 0, 78, 100
2, 158304, Note_on_c, 0, 79, 70
2, 158332, Note_off_c, 0, 79, 100
2, 158336, Note_on_c, 0, 81, 70
2, 158364, Note_off_c, 0, 81, 100
2, 158368, Note_on_c, 0, 79, 70
2, 158396, Note_off_c, 0, 79, 100
2, 158400, Note_on_c, 0, 78, 70
2, 158428, Note_off_c, 0, 78, 100
2, 158432, Note_on_c, 0, 79, 70
2, 158460, Note_off_c, 0, 79, 100
2, 158464, Note_on_c, 0, 78, 70
2, 158492, Note_off_c, 0, 78, 100
2, 158496, Note_on_c, 0, 79, 70
2, 158524, Note_off_c, 0, 79, 100
2, 158528, Note_on_c, 0, 81, 70
2, 158556, Note_off_c, 0, 81, 100
2, 158560, Note_on_c, 0, 79, 70
2, 158588, Note_off_c, 0, 79, 100
2, 158592, Note_on_c, 0, 85, 70
2, 158620, Note_off_c, 0, 85, 100
2, 158624, Note_on_c, 0, 86, 70
2, 158652, Note_off_c, 0, 86, 100
2, 158656, Note_on_c, 0, 85, 70
2, 158684, Note_off_c, 0, 85, 100
2, 158688, Note_on_c, 0, 86, 70
2, 158716, Note_off_c, 0, 86, 100
2, 158720, Note_on_c, 0, 88, 70
2, 158748, Note_off_c, 0, 88, 100
2, 158752, Note_on_c, 0, 86, 70
2, 158780, Note_off_c, 0, 86, 100
2, 158784, Note_on_c, 0, 85, 70
2, 158812, Note_off_c, 0, 85, 100
2, 158816, Note_on_c, 0, 86, 70
2, 158844, Note_off_c, 0, 86, 100
2, 158848, Note_on_c, 0, 85, 70
2, 158876, Note_off_c, 0, 85, 100
2, 158880, Note_on_c, 0, 86, 70
2, 158908, Note_off_c, 0, 86, 100
2, 158912, Note_on_c, 0, 88, 70
2, 158940, Note_off_c, 0, 88, 100
2, 158944, Note_on_c, 0, 86, 70
2, 158972, Note_off_c, 0, 86, 100
2, 158976, Note_on_c, 0, 85, 70
2, 159004, Note_off_c, 0, 85, 100
2, 159008, Note_on_c, 0, 86, 70
2, 159036, Note_off_c, 0, 86, 100
2, 159040, Note_on_c, 0, 85, 70
2, 159068, Note_off_c, 0, 85, 100
2, 159072, Note_on_c, 0, 86, 70
2, 159100, Note_off_c, 0, 86, 100
2, 159104, Note_on_c, 0, 88, 70
2, 159132, Note_off_c, 0, 88, 100
2, 159136, Note_on_c, 0, 86, 70
2, 159164, Note_off_c, 0, 86, 100
2, 159168, Note_on_c, 0, 79, 70
2, 159196, Note_off_c, 0, 79, 100
2, 159200, Note_on_c, 0, 81, 70
2, 159228, Note_off_c, 0, 81, 100
2, 159232, Note_on_c, 0, 79, 70
2, 159260, Note_off_c, 0, 79, 100
2, 159264, Note_on_c, 0, 81, 70
2, 159292, Note_off_c, 0, 81, 100
2, 159296, Note_on_c, 0, 83, 70
2, 159324, Note_off_c, 0, 83, 100
2, 159328, Note_on_c, 0, 81, 70
2, 159356, Note_off_c, 0, 81, 100
2, 159360, Note_on_c, 0, 79, 70
2, 159388, Note_off_c, 0, 79, 100
2, 159392, Note_on_c, 0, 81, 70
2, 159420, Note_off_c, 0, 81, 100
2, 159424, Note_on_c, 0, 79, 70
2, 159452, Note_off_c, 0, 79, 100
2, 159456, Note_on_c, 0, 83, 70
2, 159484, Note_off_c, 0, 83, 100
2, 159488, Note_on_c, 0, 84, 70
2, 159516, Note_off_c, 0, 84, 100
2, 159520, Note_on_c, 0, 83, 70
2, 159548, Note_off_c, 0, 83, 100
2, 159552, Note_on_c, 0, 84, 70
2, 159580, Note_off_c, 0, 84, 100
2, 159584, Note_on_c, 0, 86, 70
2, 159612, Note_off_c, 0, 86, 100
2, 159616, Note_on_c, 0, 84, 70
2, 159644, Note_off_c, 0, 84, 100
2, 159648, Note_on_c, 0, 86, 70
2, 159676, Note_off_c, 0, 86, 100
2, 159680, Note_on_c, 0, 88, 70
2, 159708, Note_off_c, 0, 88, 100
2, 159712, Note_on_c, 0, 86, 70
2, 159740, Note_off_c, 0, 86, 100
2, 159744, Note_on_c, 0, 87, 70
2, 159772, Note_off_c, 0, 87, 100
2, 159776, Note_on_c, 0, 88, 70
2, 159804, Note_off_c, 0, 88, 100
2, 159808, Note_on_c, 0, 87, 70
2, 159836, Note_off_c, 0, 87, 100
2, 159840, Note_on_c, 0, 88, 70
2, 159868, Note_off_c, 0, 88, 100
2, 159872, Note_on_c, 0, 81, 70
2, 159900, Note_off_c, 0, 81, 100
2, 159904, Note_on_c, 0, 79, 70
2, 159932, Note_off_c, 0, 79, 100
2, 159936, Note_on_c, 0, 78, 70
2, 159964, Note_off_c, 0, 78, 100
2, 159968, Note_on_c, 0, 81, 70
2, 159996, Note_off_c, 0, 81, 100
2, 160000, Note_on_c, 0, 79, 70
2, 160028, Note_off_c, 0, 79, 100
2, 160032, Note_on_c, 0, 78, 70
2, 160060, Note_off_c, 0, 78, 100
2, 160064, Note_on_c, 0, 81, 70
2, 160092, Note_off_c, 0, 81, 100
2, 160096, Note_on_c, 0, 79, 70
2, 160124, Note_off_c, 0, 79, 100
2, 160128, Note_on_c, 0, 77, 70
2, 160156, Note_off_c, 0, 77, 100
2, 160160, Note_on_c, 0, 79, 70
2, 160188, Note_off_c, 0, 79, 100
2, 160192, Note_on_c, 0, 80, 70
2, 160220, Note_off_c, 0, 80, 100
2, 160224, Note_on_c, 0, 81, 70
2, 160252, Note_off_c, 0, 81, 100
2, 160256, Note_on_c, 0, 82, 70
2, 160284, Note_off_c, 0, 82, 100
2, 160288, Note_on_c, 0, 83, 70
2, 160316, Note_off_c, 0, 83, 100
2, 160320, Note_on_c, 0, 84, 70
2, 160348, Note_off_c, 0, 84, 100
2, 160352, Note_on_c, 0, 85, 70
2, 160380, Note_off_c, 0, 85, 100
2, 160384, Note_on_c, 0, 86, 70
2, 160412, Note_off_c, 0, 86, 100
2, 160416, Note_on_c, 0, 88, 70
2, 160444, Note_off_c, 0, 88, 100
2, 160448, Note_on_c, 0, 89, 70
2, 160476, Note_off_c, 0, 89, 100
2, 160480, Note_on_c, 0, 88, 70
2, 160508, Note_off_c, 0, 88, 100
2, 160512, Note_on_c, 0, 86, 70
2, 160540, Note_off_c, 0, 86, 100
2, 160544, Note_on_c, 0, 88, 70
2, 160572, Note_off_c, 0, 88, 100
2, 160576, Note_on_c, 0, 86, 70
2, 160604, Note_off_c, 0, 86, 100
2, 160608, Note_on_c, 0, 84, 70
2, 160636, Note_off_c, 0, 84, 100
2, 160640, Note_on_c, 0, 86, 70
2, 160668, Note_off_c, 0, 86, 100
2, 160672, Note_on_c, 0, 84, 70
2, 160700, Note_off_c, 0, 84, 100
2, 160704, Note_on_c, 0, 83, 70
2, 160732, Note_off_c, 0, 83, 100
2, 160736, Note_on_c, 0, 86, 70
2, 160764, Note_off_c, 0, 86, 100
2, 160768, Note_on_c, 0, 84, 70
2, 160796, Note_off_c, 0, 84, 100
2, 160800, Note_on_c, 0, 82, 70
2, 160828, Note_off_c, 0, 82, 100
2, 160832, Note_on_c, 0, 84, 70
2, 160860, Note_off_c, 0, 84, 100
2, 160864, Note_on_c, 0, 83, 70
2, 160892, Note_off_c, 0, 83, 100
2, 160896, Note_on_c, 0, 84, 70
2, 160924, Note_off_c, 0, 84, 100
2, 160928, Note_on_c, 0, 86, 70
2, 160956, Note_off_c, 0, 86, 100
2, 160960, Note_on_c, 0, 84, 70
2, 160988, Note_off_c, 0, 84, 100
2, 160992, Note_on_c, 0, 83, 70
2, 161020, Note_off_c, 0, 83, 100
2, 161024, Note_on_c, 0, 84, 70
2, 161052, Note_off_c, 0, 84, 100
2, 161056, Note_on_c, 0, 83, 70
2, 161084, Note_off_c, 0, 83, 100
2, 161088, Note_on_c, 0, 82, 70
2, 161116, Note_off_c, 0, 82, 100
2, 161120, Note_on_c, 0, 83, 70
2, 161148, Note_off_c, 0, 83, 100
2, 161152, Note_on_c, 0, 82, 70
2, 161180, Note_off_c, 0, 82, 100
2, 161184, Note_on_c, 0, 83, 70
2, 161212, Note_off_c, 0, 83, 100
2, 161216, Note_on_c, 0, 84, 70
2, 161244, Note_off_c, 0, 84, 100
2, 161248, Note_on_c, 0, 83, 70
2, 161276, Note_off_c, 0, 83, 100
2, 161280, Note_on_c, 0, 85, 70
2, 161308, Note_off_c, 0, 85, 100
2, 161312, Note_on_c, 0, 88, 70
2, 161340, Note_off_c, 0, 88, 100
2, 161344, Note_on_c, 0, 86, 70
2, 161372, Note_off_c, 0, 86, 100
2, 161376, Note_on_c, 0, 88, 70
2, 161404, Note_off_c, 0, 88, 100
2, 161408, Note_on_c, 0, 89, 70
2, 161436, Note_off_c, 0, 89, 100
2, 161440, Note_on_c, 0, 88, 70
2, 161468, Note_off_c, 0, 88, 100
2, 161472, Note_on_c, 0, 89, 70
2, 161500, Note_off_c, 0, 89, 100
2, 161504, Note_on_c, 0, 91, 70
2, 161532, Note_off_c, 0, 91, 100
2, 161536, Note_on_c, 0, 89, 70
2, 161564, Note_off_c, 0, 89, 100
2, 161568, Note_on_c, 0, 79, 70
2, 161596, Note_off_c, 0, 79, 100
2, 161600, Note_on_c, 0, 91, 70
2, 161628, Note_off_c, 0, 91, 100
2, 161632, Note_on_c, 0, 79, 70
2, 161660, Note_off_c, 0, 79, 100
2, 161664, Note_on_c, 0, 84, 70
2, 161692, Note_off_c, 0, 84, 100
2, 161696, Note_on_c, 0, 91, 70
2, 161724, Note_off_c, 0, 91, 100
2, 161729, Note_on_c, 0, 84, 70
2, 161757, Note_off_c, 0, 84, 100
2, 161760, Note_on_c, 0, 83, 70
2, 161788, Note_off_c, 0, 83, 100
2, 161792, Note_on_c, 0, 91, 70
2, 161820, Note_off_c, 0, 91, 100
2, 161824, Note_on_c, 0, 83, 70
2, 161852, Note_off_c, 0, 83, 100
2, 161856, Note_on_c, 0, 84, 70
2, 161884, Note_off_c, 0, 84, 100
2, 161888, Note_on_c, 0, 91, 70
2, 161916, Note_off_c, 0, 91, 100
2, 161920, Note_on_c, 0, 86, 70
2, 161948, Note_off_c, 0, 86, 100
2, 161952, Note_on_c, 0, 87, 70
2, 161980, Note_off_c, 0, 87, 100
2, 161984, Note_on_c, 0, 91, 70
2, 162012, Note_off_c, 0, 91, 100
2, 162016, Note_on_c, 0, 88, 70
2, 162044, Note_off_c, 0, 88, 100
2, 162048, Note_on_c, 0, 89, 70
2, 162076, Note_off_c, 0, 89, 100
2, 162080, Note_on_c, 0, 91, 70
2, 162108, Note_off_c, 0, 91, 100
2, 162112, Note_on_c, 0, 90, 70
2, 162140, Note_off_c, 0, 90, 100
2, 162144, Note_on_c, 0, 91, 70
2, 162172, Note_off_c, 0, 91, 100
2, 162176, Note_on_c, 0, 93, 70
2, 162204, Note_off_c, 0, 93, 100
2, 162208, Note_on_c, 0, 90, 70
2, 162236, Note_off_c, 0, 90, 100
2, 162240, Note_on_c, 0, 91, 70
2, 162268, Note_off_c, 0, 91, 100
2, 162272, Note_on_c, 0, 90, 70
2, 162300, Note_off_c, 0, 90, 100
2, 162304, Note_on_c, 0, 91, 70
2, 162332, Note_off_c, 0, 91, 100
2, 162336, Note_on_c, 0, 85, 70
2, 162364, Note_off_c, 0, 85, 100
2, 162368, Note_on_c, 0, 93, 70
2, 162396, Note_off_c, 0, 93, 100
2, 162400, Note_on_c, 0, 91, 70
2, 162428, Note_off_c, 0, 91, 100
2, 162432, Note_on_c, 0, 85, 70
2, 162460, Note_off_c, 0, 85, 100
2, 162464, Note_on_c, 0, 93, 70
2, 162492, Note_off_c, 0, 93, 100
2, 162496, Note_on_c, 0, 91, 70
2, 162524, Note_off_c, 0, 91, 100
2, 162528, Note_on_c, 0, 85, 70
2, 162556, Note_off_c, 0, 85, 100
2, 162560, Note_on_c, 0, 89, 70
2, 162588, Note_off_c, 0, 89, 100
2, 162592, Note_on_c, 0, 88, 70
2, 162620, Note_off_c, 0, 88, 100
2, 162624, Note_on_c, 0, 85, 70
2, 162652, Note_off_c, 0, 85, 100
2, 162656, Note_on_c, 0, 93, 70
2, 162684, Note_off_c, 0, 93, 100
2, 162688, Note_on_c, 0, 91, 70
2, 162716, Note_off_c, 0, 91, 100
2, 162720, Note_on_c, 0, 85, 70
2, 162748, Note_off_c, 0, 85, 100
2, 162752, Note_on_c, 0, 93, 70
2, 162780, Note_off_c, 0, 93, 100
2, 162784, Note_on_c, 0, 91, 70
2, 162812, Note_off_c, 0, 91, 100
2, 162816, Note_on_c, 0, 86, 70
2, 162844, Note_off_c, 0, 86, 100
2, 162848, Note_on_c, 0, 91, 70
2, 162876, Note_off_c, 0, 91, 100
2, 162880, Note_on_c, 0, 89, 70
2, 162908, Note_off_c, 0, 89, 100
2, 162912, Note_on_c, 0, 81, 70
2, 162940, Note_off_c, 0, 81, 100
2, 162944, Note_on_c, 0, 88, 70
2, 162972, Note_off_c, 0, 88, 100
2, 162976, Note_on_c, 0, 86, 70
2, 163004, Note_off_c, 0, 86, 100
2, 163008, Note_on_c, 0, 80, 70
2, 163036, Note_off_c, 0, 80, 100
2, 163040, Note_on_c, 0, 88, 70
2, 163068, Note_off_c, 0, 88, 100
2, 163072, Note_on_c, 0, 86, 70
2, 163100, Note_off_c, 0, 86, 100
2, 163104, Note_on_c, 0, 79, 70
2, 163132, Note_off_c, 0, 79, 100
2, 163136, Note_on_c, 0, 88, 70
2, 163164, Note_off_c, 0, 88, 100
2, 163168, Note_on_c, 0, 86, 70
2, 163196, Note_off_c, 0, 86, 100
2, 163200, Note_on_c, 0, 79, 70
2, 163228, Note_off_c, 0, 79, 100
2, 163232, Note_on_c, 0, 86, 70
2, 163260, Note_off_c, 0, 86, 100
2, 163264, Note_on_c, 0, 84, 70
2, 163292, Note_off_c, 0, 84, 100
2, 163296, Note_on_c, 0, 79, 70
2, 163324, Note_off_c, 0, 79, 100
2, 163328, Note_on_c, 0, 86, 70
2, 163356, Note_off_c, 0, 86, 100
2, 163360, Note_on_c, 0, 84, 70
2, 163388, Note_off_c, 0, 84, 100
2, 163392, Note_on_c, 0, 77, 70
2, 163420, Note_off_c, 0, 77, 100
2, 163424, Note_on_c, 0, 84, 70
2, 163452, Note_off_c, 0, 84, 100
2, 163456, Note_on_c, 0, 83, 70
2, 163484, Note_off_c, 0, 83, 100
2, 163488, Note_on_c, 0, 79, 70
2, 163516, Note_off_c, 0, 79, 100
2, 163520, Note_on_c, 0, 86, 70
2, 163548, Note_off_c, 0, 86, 100
2, 163552, Note_on_c, 0, 84, 70
2, 163580, Note_off_c, 0, 84, 100
2, 163584, Note_on_c, 0, 79, 70
2, 163612, Note_off_c, 0, 79, 100
2, 163616, Note_on_c, 0, 86, 70
2, 163644, Note_off_c, 0, 86, 100
2, 163648, Note_on_c, 0, 84, 70
2, 163676, Note_off_c, 0, 84, 100
2, 163680, Note_on_c, 0, 79, 70
2, 163708, Note_off_c, 0, 79, 100
2, 163712, Note_on_c, 0, 86, 70
2, 163740, Note_off_c, 0, 86, 100
2, 163744, Note_on_c, 0, 85, 70
2, 163772, Note_off_c, 0, 85, 100
2, 163776, Note_on_c, 0, 81, 70
2, 163804, Note_off_c, 0, 81, 100
2, 163808, Note_on_c, 0, 88, 70
2, 163836, Note_off_c, 0, 88, 100
2, 163840, Note_on_c, 0, 86, 70
2, 163868, Note_off_c, 0, 86, 100
2, 163872, Note_on_c, 0, 81, 70
2, 163900, Note_off_c, 0, 81, 100
2, 163904, Note_on_c, 0, 88, 70
2, 163932, Note_off_c, 0, 88, 100
2, 163936, Note_on_c, 0, 86, 70
2, 163964, Note_off_c, 0, 86, 100
2, 163968, Note_on_c, 0, 83, 70
2, 163996, Note_off_c, 0, 83, 100
2, 164000, Note_on_c, 0, 88, 70
2, 164028, Note_off_c, 0, 88, 100
2, 164032, Note_on_c, 0, 86, 70
2, 164060, Note_off_c, 0, 86, 100
2, 164064, Note_on_c, 0, 85, 70
2, 164092, Note_off_c, 0, 85, 100
2, 164096, Note_on_c, 0, 86, 70
2, 164124, Note_off_c, 0, 86, 100
2, 164128, Note_on_c, 0, 79, 70
2, 164156, Note_off_c, 0, 79, 100
2, 164160, Note_on_c, 0, 81, 70
2, 164188, Note_off_c, 0, 81, 100
2, 164192, Note_on_c, 0, 78, 70
2, 164220, Note_off_c, 0, 78, 100
2, 164224, Note_on_c, 0, 79, 70
2, 164252, Note_off_c, 0, 79, 100
2, 164256, Note_on_c, 0, 81, 70
2, 164284, Note_off_c, 0, 81, 100
2, 164288, Note_on_c, 0, 78, 70
2, 164316, Note_off_c, 0, 78, 100
2, 164320, Note_on_c, 0, 79, 70
2, 164348, Note_off_c, 0, 79, 100
2, 164352, Note_on_c, 0, 81, 70
2, 164380, Note_off_c, 0, 81, 100
2, 164384, Note_on_c, 0, 78, 70
2, 164412, Note_off_c, 0, 78, 100
2, 164416, Note_on_c, 0, 79, 70
2, 164444, Note_off_c, 0, 79, 100
2, 164448, Note_on_c, 0, 81, 70
2, 164476, Note_off_c, 0, 81, 100
2, 164480, Note_on_c, 0, 78, 70
2, 164508, Note_off_c, 0, 78, 100
2, 164512, Note_on_c, 0, 79, 70
2, 164540, Note_off_c, 0, 79, 100
2, 164544, Note_on_c, 0, 81, 70
2, 164572, Note_off_c, 0, 81, 100
2, 164576, Note_on_c, 0, 78, 70
2, 164604, Note_off_c, 0, 78, 100
2, 164608, Note_on_c, 0, 79, 70
2, 164636, Note_off_c, 0, 79, 100
2, 164640, Note_on_c, 0, 81, 70
2, 164668, Note_off_c, 0, 81, 100
2, 164672, Note_on_c, 0, 80, 70
2, 164700, Note_off_c, 0, 80, 100
2, 164704, Note_on_c, 0, 88, 70
2, 164732, Note_off_c, 0, 88, 100
2, 164736, Note_on_c, 0, 83, 70
2, 164764, Note_off_c, 0, 83, 100
2, 164768, Note_on_c, 0, 81, 70
2, 164796, Note_off_c, 0, 81, 100
2, 164800, Note_on_c, 0, 88, 70
2, 164828, Note_off_c, 0, 88, 100
2, 164832, Note_on_c, 0, 84, 70
2, 164860, Note_off_c, 0, 84, 100
2, 164864, Note_on_c, 0, 83, 70
2, 164892, Note_off_c, 0, 83, 100
2, 164896, Note_on_c, 0, 88, 70
2, 164924, Note_off_c, 0, 88, 100
2, 165120, Note_on_c, 0, 60, 70
2, 165120, Note_on_c, 0, 59, 70
2, 165212, Note_off_c, 0, 59, 100
2, 165216, Note_on_c, 0, 57, 60
2, 165308, Note_off_c, 0, 60, 100
2, 165308, Note_off_c, 0, 57, 100
2, 165408, Note_on_c, 0, 60, 70
2, 165408, Note_on_c, 0, 59, 70
2, 165500, Note_off_c, 0, 59, 100
2, 165504, Note_on_c, 0, 57, 60
2, 165596, Note_off_c, 0, 60, 100
2, 165596, Note_off_c, 0, 57, 100
2, 165696, Note_on_c, 0, 60, 70
2, 165696, Note_on_c, 0, 59, 70
2, 165788, Note_off_c, 0, 59, 100
2, 165792, Note_on_c, 0, 57, 60
2, 165884, Note_off_c, 0, 60, 100
2, 165884, Note_off_c, 0, 57, 100
2, 165984, Note_on_c, 0, 59, 70
2, 165984, Note_on_c, 0, 57, 70
2, 166076, Note_off_c, 0, 57, 100
2, 166080, Note_on_c, 0, 56, 60
2, 166172, Note_off_c, 0, 59, 100
2, 166172, Note_off_c, 0, 56, 100
2, 166272, Note_on_c, 0, 59, 70
2, 166272, Note_on_c, 0, 57, 70
2, 166364, Note_off_c, 0, 57, 100
2, 166368, Note_on_c, 0, 56, 60
2, 166460, Note_off_c, 0, 59, 100
2, 166460, Note_off_c, 0, 56, 100
2, 166560, Note_on_c, 0, 64, 70
2, 166560, Note_on_c, 0, 59, 70
2, 166560, Note_on_c, 0, 57, 70
2, 166652, Note_off_c, 0, 57, 100
2, 166656, Note_on_c, 0, 56, 60
2, 166748, Note_off_c, 0, 64, 100
2, 166748, Note_off_c, 0, 59, 100
2, 166748, Note_off_c, 0, 56, 100
2, 166848, Note_on_c, 0, 64, 70
2, 166848, Note_on_c, 0, 60, 70
2, 166848, Note_on_c, 0, 56, 70
2, 166940, Note_off_c, 0, 56, 100
2, 166944, Note_on_c, 0, 57, 60
2, 167036, Note_off_c, 0, 64, 100
2, 167036, Note_off_c, 0, 60, 100
2, 167036, Note_off_c, 0, 57, 100
2, 167136, Note_on_c, 0, 64, 70
2, 167136, Note_on_c, 0, 60, 70
2, 167136, Note_on_c, 0, 55, 70
2, 167228, Note_off_c, 0, 55, 100
2, 167232, Note_on_c, 0, 57, 60
2, 167324, Note_off_c, 0, 64, 100
2, 167324, Note_off_c, 0, 60, 100
2, 167324, Note_off_c, 0, 57, 100
2, 167424, Note_on_c, 0, 62, 70
2, 167424, Note_on_c, 0, 59, 70
2, 167516, Note_off_c, 0, 62, 100
2, 167516, Note_off_c, 0, 59, 100
2, 167520, Note_on_c, 0, 60, 60
2, 167520, Note_on_c, 0, 57, 60
2, 167612, Note_off_c, 0, 60, 100
2, 167612, Note_off_c, 0, 57, 100
2, 167712, Note_on_c, 0, 60, 70
2, 167712, Note_on_c, 0, 57, 70
2, 167712, Note_on_c, 0, 54, 70
2, 167712, Note_on_c, 0, 51, 70
2, 167900, Note_off_c, 0, 60, 100
2, 167900, Note_off_c, 0, 57, 100
2, 167900, Note_off_c, 0, 54, 100
2, 167900, Note_off_c, 0, 51, 100
2, 168000, Note_on_c, 0, 59, 70
2, 168000, Note_on_c, 0, 56, 70
2, 168000, Note_on_c, 0, 53, 70
2, 168000, Note_on_c, 0, 50, 70
2, 168188, Note_off_c, 0, 59, 100
2, 168188, Note_off_c, 0, 56, 100
2, 168188, Note_off_c, 0, 53, 100
2, 168188, Note_off_c, 0, 50, 100
2, 168288, Note_on_c, 0, 60, 70
2, 168288, Note_on_c, 0, 57, 70
2, 168288, Note_on_c, 0, 52, 70
2, 168476, Note_off_c, 0, 60, 100
2, 168476, Note_off_c, 0, 57, 100
2, 168476, Note_off_c, 0, 52, 100
2, 168576, Note_on_c, 0, 62, 70
2, 168576, Note_on_c, 0, 53, 70
2, 168576, Note_on_c, 0, 60, 70
2, 168668, Note_off_c, 0, 60, 100
2, 168672, Note_on_c, 0, 59, 60
2, 168764, Note_off_c, 0, 62, 100
2, 168764, Note_off_c, 0, 53, 100
2, 168764, Note_off_c, 0, 59, 100
2, 168864, Note_on_c, 0, 50, 70
2, 168864, Note_on_c, 0, 48, 70
2, 168956, Note_off_c, 0, 48, 100
2, 168960, Note_on_c, 0, 47, 60
2, 169052, Note_off_c, 0, 50, 100
2, 169052, Note_off_c, 0, 47, 100
2, 169152, Note_on_c, 0, 62, 70
2, 169152, Note_on_c, 0, 53, 70
2, 169152, Note_on_c, 0, 60, 70
2, 169244, Note_off_c, 0, 60, 100
2, 169248, Note_on_c, 0, 59, 60
2, 169340, Note_off_c, 0, 62, 100
2, 169340, Note_off_c, 0, 53, 100
2, 169340, Note_off_c, 0, 59, 100
2, 169440, Note_on_c, 0, 64, 70
2, 169440, Note_on_c, 0, 55, 70
2, 169440, Note_on_c, 0, 62, 70
2, 169532, Note_off_c, 0, 62, 100
2, 169536, Note_on_c, 0, 60, 60
2, 169628, Note_off_c, 0, 64, 100
2, 169628, Note_off_c, 0, 55, 100
2, 169628, Note_off_c, 0, 60, 100
2, 169728, Note_on_c, 0, 52, 70
2, 169728, Note_on_c, 0, 50, 70
2, 169820, Note_off_c, 0, 50, 100
2, 169824, Note_on_c, 0, 48, 60
2, 169916, Note_off_c, 0, 52, 100
2, 169916, Note_off_c, 0, 48, 100
2, 170016, Note_on_c, 0, 65, 70
2, 170016, Note_on_c, 0, 62, 70
2, 170016, Note_on_c, 0, 59, 70
2, 170016, Note_on_c, 0, 56, 70
2, 170108, Note_off_c, 0, 56, 100
2, 170112, Note_on_c, 0, 55, 60
2, 170204, Note_off_c, 0, 65, 100
2, 170204, Note_off_c, 0, 62, 100
2, 170204, Note_off_c, 0, 59, 100
2, 170204, Note_off_c, 0, 55, 100
2, 170304, Note_on_c, 0, 50, 70
2, 170304, Note_on_c, 0, 48, 70
2, 170396, Note_off_c, 0, 48, 100
2, 170400, Note_on_c, 0, 47, 60
2, 170492, Note_off_c, 0, 50, 100
2, 170492, Note_off_c, 0, 47, 100
2, 170592, Note_on_c, 0, 55, 70
2, 170592, Note_on_c, 0, 50, 70
2, 170592, Note_on_c, 0, 48, 70
2, 170684, Note_off_c, 0, 48, 100
2, 170688, Note_on_c, 0, 47, 60
2, 170780, Note_off_c, 0, 55, 100
2, 170780, Note_off_c, 0, 50, 100
2, 170780, Note_off_c, 0, 47, 100
2, 170880, Note_on_c, 0, 67, 70
2, 170880, Note_on_c, 0, 62, 70
2, 170880, Note_on_c, 0, 60, 70
2, 170972, Note_off_c, 0, 60, 100
2, 170976, Note_on_c, 0, 59, 60
2, 171068, Note_off_c, 0, 67, 100
2, 171068, Note_off_c, 0, 62, 100
2, 171068, Note_off_c, 0, 59, 100
2, 171168, Note_on_c, 0, 55, 70
2, 171168, Note_on_c, 0, 50, 70
2, 171168, Note_on_c, 0, 47, 70
2, 171260, Note_off_c, 0, 55, 100
2, 171260, Note_off_c, 0, 50, 100
2, 171260, Note_off_c, 0, 47, 100
2, 171264, Note_on_c, 0, 52, 60
2, 171264, Note_on_c, 0, 48, 60
2, 171356, Note_off_c, 0, 52, 100
2, 171356, Note_off_c, 0, 48, 100
2, 171456, Note_on_c, 0, 64, 70
2, 171456, Note_on_c, 0, 60, 70
2, 171548, Note_off_c, 0, 64, 100
2, 171548, Note_off_c, 0, 60, 100
2, 171552, Note_on_c, 0, 52, 70
2, 171644, Note_off_c, 0, 52, 100
2, 171744, Note_on_c, 0, 76, 70
2, 171744, Note_on_c, 0, 74, 70
2, 171836, Note_off_c, 0, 76, 100
2, 171836, Note_off_c, 0, 74, 100
2, 171840, Note_on_c, 0, 64, 70
2, 171840, Note_on_c, 0, 62, 70
2, 171932, Note_off_c, 0, 64, 100
2, 171932, Note_off_c, 0, 62, 100
2, 171936, Note_on_c, 0, 76, 70
2, 171936, Note_on_c, 0, 72, 70
2, 171936, Note_on_c, 0, 64, 70
2, 172028, Note_off_c, 0, 76, 100
2, 172028, Note_off_c, 0, 72, 100
2, 172028, Note_off_c, 0, 64, 100
2, 172032, Note_on_c, 0, 84, 70
2, 172060, Note_off_c, 0, 84, 100
2, 172064, Note_on_c, 0, 86, 70
2, 172092, Note_off_c, 0, 86, 100
2, 172096, Note_on_c, 0, 83, 70
2, 172124, Note_off_c, 0, 83, 100
2, 172128, Note_on_c, 0, 84, 70
2, 172156, Note_off_c, 0, 84, 100
2, 172160, Note_on_c, 0, 83, 70
2, 172188, Note_off_c, 0, 83, 100
2, 172192, Note_on_c, 0, 81, 70
2, 172220, Note_off_c, 0, 81, 100
2, 172224, Note_on_c, 0, 80, 70
2, 172252, Note_off_c, 0, 80, 100
2, 172256, Note_on_c, 0, 81, 70
2, 172284, Note_off_c, 0, 81, 100
2, 172288, Note_on_c, 0, 83, 70
2, 172316, Note_off_c, 0, 83, 100
2, 172320, Note_on_c, 0, 81, 70
2, 172348, Note_off_c, 0, 81, 100
2, 172352, Note_on_c, 0, 83, 70
2, 172380, Note_off_c, 0, 83, 100
2, 172384, Note_on_c, 0, 84, 70
2, 172412, Note_off_c, 0, 84, 100
2, 172416, Note_on_c, 0, 83, 70
2, 172444, Note_off_c, 0, 83, 100
2, 172448, Note_on_c, 0, 84, 70
2, 172476, Note_off_c, 0, 84, 100
2, 172480, Note_on_c, 0, 86, 70
2, 172508, Note_off_c, 0, 86, 100
2, 172512, Note_on_c, 0, 84, 70
2, 172540, Note_off_c, 0, 84, 100
2, 172544, Note_on_c, 0, 86, 70
2, 172572, Note_off_c, 0, 86, 100
2, 172576, Note_on_c, 0, 84, 70
2, 172604, Note_off_c, 0, 84, 100
2, 172608, Note_on_c, 0, 83, 70
2, 172636, Note_off_c, 0, 83, 100
2, 172640, Note_on_c, 0, 84, 70
2, 172668, Note_off_c, 0, 84, 100
2, 172672, Note_on_c, 0, 86, 70
2, 172700, Note_off_c, 0, 86, 100
2, 172704, Note_on_c, 0, 84, 70
2, 172732, Note_off_c, 0, 84, 100
2, 172736, Note_on_c, 0, 83, 70
2, 172764, Note_off_c, 0, 83, 100
2, 172768, Note_on_c, 0, 81, 70
2, 172796, Note_off_c, 0, 81, 100
2, 172800, Note_on_c, 0, 83, 70
2, 172828, Note_off_c, 0, 83, 100
2, 172832, Note_on_c, 0, 84, 70
2, 172860, Note_off_c, 0, 84, 100
2, 172864, Note_on_c, 0, 86, 70
2, 172892, Note_off_c, 0, 86, 100
2, 172896, Note_on_c, 0, 84, 70
2, 172924, Note_off_c, 0, 84, 100
2, 172928, Note_on_c, 0, 83, 70
2, 172956, Note_off_c, 0, 83, 100
2, 172960, Note_on_c, 0, 81, 70
2, 172988, Note_off_c, 0, 81, 100
2, 172992, Note_on_c, 0, 80, 70
2, 173020, Note_off_c, 0, 80, 100
2, 173024, Note_on_c, 0, 81, 70
2, 173052, Note_off_c, 0, 81, 100
2, 173056, Note_on_c, 0, 83, 70
2, 173084, Note_off_c, 0, 83, 100
2, 173088, Note_on_c, 0, 80, 70
2, 173116, Note_off_c, 0, 80, 100
2, 173120, Note_on_c, 0, 81, 70
2, 173148, Note_off_c, 0, 81, 100
2, 173152, Note_on_c, 0, 83, 70
2, 173180, Note_off_c, 0, 83, 100
2, 173184, Note_on_c, 0, 81, 70
2, 173212, Note_off_c, 0, 81, 100
2, 173216, Note_on_c, 0, 83, 70
2, 173244, Note_off_c, 0, 83, 100
2, 173248, Note_on_c, 0, 84, 70
2, 173276, Note_off_c, 0, 84, 100
2, 173280, Note_on_c, 0, 83, 70
2, 173308, Note_off_c, 0, 83, 100
2, 173312, Note_on_c, 0, 84, 70
2, 173340, Note_off_c, 0, 84, 100
2, 173344, Note_on_c, 0, 86, 70
2, 173372, Note_off_c, 0, 86, 100
2, 173376, Note_on_c, 0, 83, 70
2, 173404, Note_off_c, 0, 83, 100
2, 173408, Note_on_c, 0, 84, 70
2, 173436, Note_off_c, 0, 84, 100
2, 173440, Note_on_c, 0, 86, 70
2, 173468, Note_off_c, 0, 86, 100
2, 173472, Note_on_c, 0, 89, 70
2, 173500, Note_off_c, 0, 89, 100
2, 173504, Note_on_c, 0, 88, 70
2, 173532, Note_off_c, 0, 88, 100
2, 173536, Note_on_c, 0, 86, 70
2, 173564, Note_off_c, 0, 86, 100
2, 173568, Note_on_c, 0, 84, 70
2, 173596, Note_off_c, 0, 84, 100
2, 173600, Note_on_c, 0, 83, 70
2, 173628, Note_off_c, 0, 83, 100
2, 173632, Note_on_c, 0, 88, 70
2, 173660, Note_off_c, 0, 88, 100
2, 173664, Note_on_c, 0, 81, 70
2, 173692, Note_off_c, 0, 81, 100
2, 173696, Note_on_c, 0, 80, 70
2, 173724, Note_off_c, 0, 80, 100
2, 173728, Note_on_c, 0, 88, 70
2, 173756, Note_off_c, 0, 88, 100
2, 173760, Note_on_c, 0, 83, 70
2, 173788, Note_off_c, 0, 83, 100
2, 173792, Note_on_c, 0, 81, 70
2, 173820, Note_off_c, 0, 81, 100
2, 173824, Note_on_c, 0, 88, 70
2, 173852, Note_off_c, 0, 88, 100
2, 173856, Note_on_c, 0, 84, 70
2, 173884, Note_off_c, 0, 84, 100
2, 173888, Note_on_c, 0, 83, 70
2, 173916, Note_off_c, 0, 83, 100
2, 173920, Note_on_c, 0, 88, 70
2, 173948, Note_off_c, 0, 88, 100
2, 173952, Note_on_c, 0, 86, 70
2, 173980, Note_off_c, 0, 86, 100
2, 173984, Note_on_c, 0, 84, 70
2, 174012, Note_off_c, 0, 84, 100
2, 174016, Note_on_c, 0, 88, 70
2, 174044, Note_off_c, 0, 88, 100
2, 174048, Note_on_c, 0, 84, 70
2, 174076, Note_off_c, 0, 84, 100
2, 174080, Note_on_c, 0, 83, 70
2, 174108, Note_off_c, 0, 83, 100
2, 174112, Note_on_c, 0, 88, 70
2, 174140, Note_off_c, 0, 88, 100
2, 174144, Note_on_c, 0, 86, 70
2, 174172, Note_off_c, 0, 86, 100
2, 174176, Note_on_c, 0, 84, 70
2, 174204, Note_off_c, 0, 84, 100
2, 174208, Note_on_c, 0, 88, 70
2, 174236, Note_off_c, 0, 88, 100
2, 174240, Note_on_c, 0, 86, 70
2, 174268, Note_off_c, 0, 86, 100
2, 174272, Note_on_c, 0, 84, 70
2, 174300, Note_off_c, 0, 84, 100
2, 174304, Note_on_c, 0, 88, 70
2, 174332, Note_off_c, 0, 88, 100
2, 174336, Note_on_c, 0, 84, 70
2, 174364, Note_off_c, 0, 84, 100
2, 174368, Note_on_c, 0, 83, 70
2, 174396, Note_off_c, 0, 83, 100
2, 174400, Note_on_c, 0, 86, 70
2, 174428, Note_off_c, 0, 86, 100
2, 174432, Note_on_c, 0, 83, 70
2, 174460, Note_off_c, 0, 83, 100
2, 174464, Note_on_c, 0, 81, 70
2, 174492, Note_off_c, 0, 81, 100
2, 174496, Note_on_c, 0, 84, 70
2, 174524, Note_off_c, 0, 84, 100
2, 174528, Note_on_c, 0, 83, 70
2, 174556, Note_off_c, 0, 83, 100
2, 174560, Note_on_c, 0, 81, 70
2, 174588, Note_off_c, 0, 81, 100
2, 174592, Note_on_c, 0, 84, 70
2, 174620, Note_off_c, 0, 84, 100
2, 174624, Note_on_c, 0, 83, 70
2, 174652, Note_off_c, 0, 83, 100
2, 174656, Note_on_c, 0, 86, 70
2, 174684, Note_off_c, 0, 86, 100
2, 174688, Note_on_c, 0, 84, 70
2, 174716, Note_off_c, 0, 84, 100
2, 174720, Note_on_c, 0, 83, 70
2, 174748, Note_off_c, 0, 83, 100
2, 174752, Note_on_c, 0, 81, 70
2, 174780, Note_off_c, 0, 81, 100
2, 174784, Note_on_c, 0, 86, 70
2, 174812, Note_off_c, 0, 86, 100
2, 174816, Note_on_c, 0, 81, 70
2, 174844, Note_off_c, 0, 81, 100
2, 174848, Note_on_c, 0, 80, 70
2, 174876, Note_off_c, 0, 80, 100
2, 174880, Note_on_c, 0, 83, 70
2, 174908, Note_off_c, 0, 83, 100
2, 174912, Note_on_c, 0, 81, 70
2, 174940, Note_off_c, 0, 81, 100
2, 174944, Note_on_c, 0, 84, 70
2, 174972, Note_off_c, 0, 84, 100
2, 174976, Note_on_c, 0, 83, 70
2, 175004, Note_off_c, 0, 83, 100
2, 175008, Note_on_c, 0, 81, 70
2, 175036, Note_off_c, 0, 81, 100
2, 175040, Note_on_c, 0, 80, 70
2, 175068, Note_off_c, 0, 80, 100
2, 175072, Note_on_c, 0, 83, 70
2, 175100, Note_off_c, 0, 83, 100
2, 175104, Note_on_c, 0, 84, 70
2, 175132, Note_off_c, 0, 84, 100
2, 175136, Note_on_c, 0, 86, 70
2, 175164, Note_off_c, 0, 86, 100
2, 175168, Note_on_c, 0, 84, 70
2, 175196, Note_off_c, 0, 84, 100
2, 175200, Note_on_c, 0, 83, 70
2, 175228, Note_off_c, 0, 83, 100
2, 175232, Note_on_c, 0, 84, 70
2, 175260, Note_off_c, 0, 84, 100
2, 175264, Note_on_c, 0, 83, 70
2, 175292, Note_off_c, 0, 83, 100
2, 175296, Note_on_c, 0, 84, 70
2, 175324, Note_off_c, 0, 84, 100
2, 175328, Note_on_c, 0, 86, 70
2, 175356, Note_off_c, 0, 86, 100
2, 175360, Note_on_c, 0, 84, 70
2, 175388, Note_off_c, 0, 84, 100
2, 175392, Note_on_c, 0, 86, 70
2, 175420, Note_off_c, 0, 86, 100
2, 175424, Note_on_c, 0, 88, 70
2, 175452, Note_off_c, 0, 88, 100
2, 175456, Note_on_c, 0, 85, 70
2, 175484, Note_off_c, 0, 85, 100
2, 175488, Note_on_c, 0, 86, 70
2, 175516, Note_off_c, 0, 86, 100
2, 175520, Note_on_c, 0, 83, 70
2, 175548, Note_off_c, 0, 83, 100
2, 175552, Note_on_c, 0, 84, 70
2, 175580, Note_off_c, 0, 84, 100
2, 175584, Note_on_c, 0, 82, 70
2, 175612, Note_off_c, 0, 82, 100
2, 175616, Note_on_c, 0, 83, 70
2, 175644, Note_off_c, 0, 83, 100
2, 175648, Note_on_c, 0, 81, 70
2, 175676, Note_off_c, 0, 81, 100
2, 175680, Note_on_c, 0, 83, 70
2, 175708, Note_off_c, 0, 83, 100
2, 175712, Note_on_c, 0, 81, 70
2, 175740, Note_off_c, 0, 81, 100
2, 175744, Note_on_c, 0, 84, 70
2, 175772, Note_off_c, 0, 84, 100
2, 175776, Note_on_c, 0, 83, 70
2, 175804, Note_off_c, 0, 83, 100
2, 175808, Note_on_c, 0, 86, 70
2, 175836, Note_off_c, 0, 86, 100
2, 175840, Note_on_c, 0, 84, 70
2, 175868, Note_off_c, 0, 84, 100
2, 175872, Note_on_c, 0, 86, 70
2, 175900, Note_off_c, 0, 86, 100
2, 175904, Note_on_c, 0, 85, 70
2, 175932, Note_off_c, 0, 85, 100
2, 175936, Note_on_c, 0, 87, 70
2, 175964, Note_off_c, 0, 87, 100
2, 175968, Note_on_c, 0, 86, 70
2, 175996, Note_off_c, 0, 86, 100
2, 176000, Note_on_c, 0, 88, 70
2, 176028, Note_off_c, 0, 88, 100
2, 176032, Note_on_c, 0, 86, 70
2, 176060, Note_off_c, 0, 86, 100
2, 176064, Note_on_c, 0, 89, 70
2, 176092, Note_off_c, 0, 89, 100
2, 176096, Note_on_c, 0, 86, 70
2, 176124, Note_off_c, 0, 86, 100
2, 176128, Note_on_c, 0, 88, 70
2, 176156, Note_off_c, 0, 88, 100
2, 176160, Note_on_c, 0, 87, 70
2, 176188, Note_off_c, 0, 87, 100
2, 176192, Note_on_c, 0, 89, 70
2, 176220, Note_off_c, 0, 89, 100
2, 176224, Note_on_c, 0, 87, 70
2, 176252, Note_off_c, 0, 87, 100
2, 176256, Note_on_c, 0, 88, 70
2, 176284, Note_off_c, 0, 88, 100
2, 176288, Note_on_c, 0, 89, 70
2, 176316, Note_off_c, 0, 89, 100
2, 176320, Note_on_c, 0, 87, 70
2, 176348, Note_off_c, 0, 87, 100
2, 176352, Note_on_c, 0, 88, 70
2, 176380, Note_off_c, 0, 88, 100
2, 176384, Note_on_c, 0, 85, 70
2, 176412, Note_off_c, 0, 85, 100
2, 176416, Note_on_c, 0, 86, 70
2, 176444, Note_off_c, 0, 86, 100
2, 176448, Note_on_c, 0, 83, 70
2, 176476, Note_off_c, 0, 83, 100
2, 176480, Note_on_c, 0, 86, 70
2, 176508, Note_off_c, 0, 86, 100
2, 176512, Note_on_c, 0, 84, 70
2, 176540, Note_off_c, 0, 84, 100
2, 176544, Note_on_c, 0, 86, 70
2, 176572, Note_off_c, 0, 86, 100
2, 176576, Note_on_c, 0, 88, 70
2, 176604, Note_off_c, 0, 88, 100
2, 176608, Note_on_c, 0, 86, 70
2, 176636, Note_off_c, 0, 86, 100
2, 176640, Note_on_c, 0, 88, 70
2, 176668, Note_off_c, 0, 88, 100
2, 176672, Note_on_c, 0, 89, 70
2, 176700, Note_off_c, 0, 89, 100
2, 176704, Note_on_c, 0, 88, 70
2, 176732, Note_off_c, 0, 88, 100
2, 176736, Note_on_c, 0, 89, 70
2, 176764, Note_off_c, 0, 89, 100
2, 176768, Note_on_c, 0, 87, 70
2, 176796, Note_off_c, 0, 87, 100
2, 176800, Note_on_c, 0, 88, 70
2, 176828, Note_off_c, 0, 88, 100
2, 176832, Note_on_c, 0, 89, 70
2, 176860, Note_off_c, 0, 89, 100
2, 176864, Note_on_c, 0, 91, 70
2, 176892, Note_off_c, 0, 91, 100
2, 176896, Note_on_c, 0, 88, 70
2, 176924, Note_off_c, 0, 88, 100
2, 176928, Note_on_c, 0, 89, 70
2, 176956, Note_off_c, 0, 89, 100
2, 176960, Note_on_c, 0, 88, 70
2, 176988, Note_off_c, 0, 88, 100
2, 176992, Note_on_c, 0, 89, 70
2, 177020, Note_off_c, 0, 89, 100
2, 177024, Note_on_c, 0, 88, 70
2, 177052, Note_off_c, 0, 88, 100
2, 177056, Note_on_c, 0, 91, 70
2, 177084, Note_off_c, 0, 91, 100
2, 177088, Note_on_c, 0, 89, 70
2, 177116, Note_off_c, 0, 89, 100
2, 177120, Note_on_c, 0, 86, 70
2, 177148, Note_off_c, 0, 86, 100
2, 177152, Note_on_c, 0, 89, 70
2, 177180, Note_off_c, 0, 89, 100
2, 177184, Note_on_c, 0, 86, 70
2, 177212, Note_off_c, 0, 86, 100
2, 177216, Note_on_c, 0, 89, 70
2, 177244, Note_off_c, 0, 89, 100
2, 177248, Note_on_c, 0, 86, 70
2, 177276, Note_off_c, 0, 86, 100
2, 177280, Note_on_c, 0, 89, 70
2, 177308, Note_off_c, 0, 89, 100
2, 177312, Note_on_c, 0, 86, 70
2, 177340, Note_off_c, 0, 86, 100
2, 177344, Note_on_c, 0, 89, 70
2, 177372, Note_off_c, 0, 89, 100
2, 177376, Note_on_c, 0, 86, 70
2, 177404, Note_off_c, 0, 86, 100
2, 177408, Note_on_c, 0, 89, 70
2, 177436, Note_off_c, 0, 89, 100
2, 177440, Note_on_c, 0, 86, 70
2, 177468, Note_off_c, 0, 86, 100
2, 177472, Note_on_c, 0, 89, 70
2, 177500, Note_off_c, 0, 89, 100
2, 177504, Note_on_c, 0, 86, 70
2, 177532, Note_off_c, 0, 86, 100
2, 177536, Note_on_c, 0, 90, 70
2, 177564, Note_off_c, 0, 90, 100
2, 177568, Note_on_c, 0, 86, 70
2, 177596, Note_off_c, 0, 86, 100
2, 177600, Note_on_c, 0, 90, 70
2, 177628, Note_off_c, 0, 90, 100
2, 177632, Note_on_c, 0, 86, 70
2, 177660, Note_off_c, 0, 86, 100
2, 177664, Note_on_c, 0, 90, 70
2, 177692, Note_off_c, 0, 90, 100
2, 177696, Note_on_c, 0, 86, 70
2, 177724, Note_off_c, 0, 86, 100
2, 177728, Note_on_c, 0, 90, 70
2, 177756, Note_off_c, 0, 90, 100
2, 177760, Note_on_c, 0, 86, 70
2, 177788, Note_off_c, 0, 86, 100
2, 177792, Note_on_c, 0, 91, 70
2, 177820, Note_off_c, 0, 91, 100
2, 177824, Note_on_c, 0, 86, 70
2, 177852, Note_off_c, 0, 86, 100
2, 177856, Note_on_c, 0, 91, 70
2, 177884, Note_off_c, 0, 91, 100
2, 177888, Note_on_c, 0, 86, 70
2, 177916, Note_off_c, 0, 86, 100
2, 177920, Note_on_c, 0, 91, 70
2, 177948, Note_off_c, 0, 91, 100
2, 177952, Note_on_c, 0, 86, 70
2, 177980, Note_off_c, 0, 86, 100
2, 177984, Note_on_c, 0, 91, 70
2, 178012, Note_off_c, 0, 91, 100
2, 178016, Note_on_c, 0, 86, 70
2, 178044, Note_off_c, 0, 86, 100
2, 178048, Note_on_c, 0, 91, 70
2, 178076, Note_off_c, 0, 91, 100
2, 178080, Note_on_c, 0, 89, 70
2, 178108, Note_off_c, 0, 89, 100
2, 178112, Note_on_c, 0, 91, 70
2, 178140, Note_off_c, 0, 91, 100
2, 178144, Note_on_c, 0, 86, 70
2, 178172, Note_off_c, 0, 86, 100
2, 178176, Note_on_c, 0, 89, 70
2, 178204, Note_off_c, 0, 89, 100
2, 178208, Note_on_c, 0, 86, 70
2, 178236, Note_off_c, 0, 86, 100
2, 178240, Note_on_c, 0, 88, 70
2, 178268, Note_off_c, 0, 88, 100
2, 178272, Note_on_c, 0, 91, 70
2, 178300, Note_off_c, 0, 91, 100
2, 178304, Note_on_c, 0, 89, 70
2, 178332, Note_off_c, 0, 89, 100
2, 178336, Note_on_c, 0, 88, 70
2, 178364, Note_off_c, 0, 88, 100
2, 178368, Note_on_c, 0, 89, 70
2, 178396, Note_off_c, 0, 89, 100
2, 178400, Note_on_c, 0, 88, 70
2, 178428, Note_off_c, 0, 88, 100
2, 178432, Note_on_c, 0, 86, 70
2, 178460, Note_off_c, 0, 86, 100
2, 178464, Note_on_c, 0, 89, 70
2, 178492, Note_off_c, 0, 89, 100
2, 178496, Note_on_c, 0, 88, 70
2, 178524, Note_off_c, 0, 88, 100
2, 178528, Note_on_c, 0, 84, 70
2, 178556, Note_off_c, 0, 84, 100
2, 178560, Note_on_c, 0, 91, 70
2, 178588, Note_off_c, 0, 91, 100
2, 178592, Note_on_c, 0, 89, 70
2, 178620, Note_off_c, 0, 89, 100
2, 178624, Note_on_c, 0, 88, 70
2, 178652, Note_off_c, 0, 88, 100
2, 178656, Note_on_c, 0, 89, 70
2, 178684, Note_off_c, 0, 89, 100
2, 178688, Note_on_c, 0, 88, 70
2, 178716, Note_off_c, 0, 88, 100
2, 178720, Note_on_c, 0, 86, 70
2, 178748, Note_off_c, 0, 86, 100
2, 178752, Note_on_c, 0, 89, 70
2, 178780, Note_off_c, 0, 89, 100
2, 178784, Note_on_c, 0, 88, 70
2, 178812, Note_off_c, 0, 88, 100
2, 178816, Note_on_c, 0, 84, 70
2, 178844, Note_off_c, 0, 84, 100
2, 178848, Note_on_c, 0, 89, 70
2, 178876, Note_off_c, 0, 89, 100
2, 178880, Note_on_c, 0, 88, 70
2, 178908, Note_off_c, 0, 88, 100
2, 178912, Note_on_c, 0, 86, 70
2, 178940, Note_off_c, 0, 86, 100
2, 178944, Note_on_c, 0, 88, 70
2, 178972, Note_off_c, 0, 88, 100
2, 178976, Note_on_c, 0, 86, 70
2, 179004, Note_off_c, 0, 86, 100
2, 179008, Note_on_c, 0, 83, 70
2, 179036, Note_off_c, 0, 83, 100
2, 179040, Note_on_c, 0, 86, 70
2, 179068, Note_off_c, 0, 86, 100
2, 179072, Note_on_c, 0, 84, 70
2, 179100, Note_off_c, 0, 84, 100
2, 179104, Note_on_c, 0, 83, 70
2, 179132, Note_off_c, 0, 83, 100
2, 179136, Note_on_c, 0, 89, 70
2, 179164, Note_off_c, 0, 89, 100
2, 179168, Note_on_c, 0, 88, 70
2, 179196, Note_off_c, 0, 88, 100
2, 179200, Note_on_c, 0, 86, 70
2, 179228, Note_off_c, 0, 86, 100
2, 179232, Note_on_c, 0, 88, 70
2, 179260, Note_off_c, 0, 88, 100
2, 179264, Note_on_c, 0, 86, 70
2, 179292, Note_off_c, 0, 86, 100
2, 179296, Note_on_c, 0, 83, 70
2, 179324, Note_off_c, 0, 83, 100
2, 179328, Note_on_c, 0, 86, 70
2, 179356, Note_off_c, 0, 86, 100
2, 179360, Note_on_c, 0, 84, 70
2, 179388, Note_off_c, 0, 84, 100
2, 179392, Note_on_c, 0, 83, 70
2, 179420, Note_off_c, 0, 83, 100
2, 179424, Note_on_c, 0, 89, 70
2, 179452, Note_off_c, 0, 89, 100
2, 179456, Note_on_c, 0, 88, 70
2, 179484, Note_off_c, 0, 88, 100
2, 179488, Note_on_c, 0, 86, 70
2, 179516, Note_off_c, 0, 86, 100
2, 179520, Note_on_c, 0, 88, 70
2, 179548, Note_off_c, 0, 88, 100
2, 179552, Note_on_c, 0, 86, 70
2, 179580, Note_off_c, 0, 86, 100
2, 179584, Note_on_c, 0, 83, 70
2, 179612, Note_off_c, 0, 83, 100
2, 179616, Note_on_c, 0, 86, 70
2, 179644, Note_off_c, 0, 86, 100
2, 179648, Note_on_c, 0, 84, 70
2, 179676, Note_off_c, 0, 84, 100
2, 179680, Note_on_c, 0, 83, 70
2, 179708, Note_off_c, 0, 83, 100
2, 179712, Note_on_c, 0, 91, 70
2, 179740, Note_off_c, 0, 91, 100
2, 179744, Note_on_c, 0, 89, 70
2, 179772, Note_off_c, 0, 89, 100
2, 179776, Note_on_c, 0, 88, 70
2, 179804, Note_off_c, 0, 88, 100
2, 179808, Note_on_c, 0, 89, 70
2, 179836, Note_off_c, 0, 89, 100
2, 179840, Note_on_c, 0, 88, 70
2, 179868, Note_off_c, 0, 88, 100
2, 179872, Note_on_c, 0, 86, 70
2, 179900, Note_off_c, 0, 86, 100
2, 179904, Note_on_c, 0, 89, 70
2, 179932, Note_off_c, 0, 89, 100
2, 179936, Note_on_c, 0, 88, 70
2, 179964, Note_off_c, 0, 88, 100
2, 179968, Note_on_c, 0, 84, 70
2, 179996, Note_off_c, 0, 84, 100
2, 180288, Note_on_c, 0, 79, 70
2, 180316, Note_off_c, 0, 79, 100
2, 180320, Note_on_c, 0, 77, 70
2, 180348, Note_off_c, 0, 77, 100
2, 180352, Note_on_c, 0, 76, 70
2, 180380, Note_off_c, 0, 76, 100
2, 180384, Note_on_c, 0, 77, 70
2, 180412, Note_off_c, 0, 77, 100
2, 180416, Note_on_c, 0, 76, 70
2, 180444, Note_off_c, 0, 76, 100
2, 180448, Note_on_c, 0, 74, 70
2, 180476, Note_off_c, 0, 74, 100
2, 180480, Note_on_c, 0, 77, 70
2, 180508, Note_off_c, 0, 77, 100
2, 180512, Note_on_c, 0, 76, 70
2, 180540, Note_off_c, 0, 76, 100
2, 180544, Note_on_c, 0, 72, 70
2, 180572, Note_off_c, 0, 72, 100
2, 180576, Note_on_c, 0, 77, 70
2, 180604, Note_off_c, 0, 77, 100
2, 180608, Note_on_c, 0, 76, 70
2, 180636, Note_off_c, 0, 76, 100
2, 180640, Note_on_c, 0, 74, 70
2, 180668, Note_off_c, 0, 74, 100
2, 180672, Note_on_c, 0, 76, 70
2, 180700, Note_off_c, 0, 76, 100
2, 180704, Note_on_c, 0, 74, 70
2, 180732, Note_off_c, 0, 74, 100
2, 180736, Note_on_c, 0, 71, 70
2, 180764, Note_off_c, 0, 71, 100
2, 180768, Note_on_c, 0, 74, 70
2, 180796, Note_off_c, 0, 74, 100
2, 180800, Note_on_c, 0, 72, 70
2, 180828, Note_off_c, 0, 72, 100
2, 180832, Note_on_c, 0, 71, 70
2, 180860, Note_off_c, 0, 71, 100
2, 180864, Note_on_c, 0, 77, 70
2, 180892, Note_off_c, 0, 77, 100
2, 180896, Note_on_c, 0, 76, 70
2, 180924, Note_off_c, 0, 76, 100
2, 180928, Note_on_c, 0, 74, 70
2, 180956, Note_off_c, 0, 74, 100
2, 180960, Note_on_c, 0, 76, 70
2, 180988, Note_off_c, 0, 76, 100
2, 180992, Note_on_c, 0, 74, 70
2, 181020, Note_off_c, 0, 74, 100
2, 181024, Note_on_c, 0, 71, 70
2, 181052, Note_off_c, 0, 71, 100
2, 181056, Note_on_c, 0, 74, 70
2, 181084, Note_off_c, 0, 74, 100
2, 181088, Note_on_c, 0, 72, 70
2, 181116, Note_off_c, 0, 72, 100
2, 181120, Note_on_c, 0, 71, 70
2, 181148, Note_off_c, 0, 71, 100
2, 181152, Note_on_c, 0, 77, 70
2, 181180, Note_off_c, 0, 77, 100
2, 181184, Note_on_c, 0, 76, 70
2, 181212, Note_off_c, 0, 76, 100
2, 181216, Note_on_c, 0, 74, 70
2, 181244, Note_off_c, 0, 74, 100
2, 181248, Note_on_c, 0, 76, 70
2, 181276, Note_off_c, 0, 76, 100
2, 181280, Note_on_c, 0, 74, 70
2, 181308, Note_off_c, 0, 74, 100
2, 181312, Note_on_c, 0, 71, 70
2, 181340, Note_off_c, 0, 71, 100
2, 181344, Note_on_c, 0, 74, 70
2, 181372, Note_off_c, 0, 74, 100
2, 181376, Note_on_c, 0, 72, 70
2, 181404, Note_off_c, 0, 72, 100
2, 181408, Note_on_c, 0, 71, 70
2, 181436, Note_off_c, 0, 71, 100
2, 181728, Note_on_c, 0, 76, 70
2, 181728, Note_on_c, 0, 72, 70
2, 182012, Note_off_c, 0, 76, 100
2, 182012, Note_off_c, 0, 72, 100
2, 182016, Note_on_c, 0, 76, 75
2, 182016, Note_on_c, 0, 72, 75
2, 182588, Note_off_c, 0, 72, 100
2, 182588, Note_off_c, 0, 76, 100
2, 182592, Note_on_c, 0, 88, 85
2, 182592, Note_on_c, 0, 84, 85
2, 182592, Note_on_c, 0, 76, 85
2, 182876, Note_off_c, 0, 88, 100
2, 182876, Note_off_c, 0, 84, 100
2, 182876, Note_off_c, 0, 76, 100
2, 182880, Note_on_c, 0, 88, 91
2, 182880, Note_on_c, 0, 84, 91
2, 182880, Note_on_c, 0, 76, 91
2, 183164, Note_off_c, 0, 88, 100
2, 183164, Note_off_c, 0, 84, 100
2, 183164, Note_off_c, 0, 76, 100
2, 183168, Note_on_c, 0, 88, 96
2, 183168, Note_on_c, 0, 84, 96
2, 183168, Note_on_c, 0, 76, 96
2, 183452, Note_off_c, 0, 88, 100
2, 183452, Note_off_c, 0, 84, 100
2, 183452, Note_off_c, 0, 76, 100
2, 183456, Note_on_c, 0, 89, 101
2, 183456, Note_on_c, 0, 86, 101
2, 183456, Note_on_c, 0, 77, 101
2, 183740, Note_off_c, 0, 89, 100
2, 183740, Note_off_c, 0, 86, 100
2, 183740, Note_off_c, 0, 77, 100
2, 183744, Note_on_c, 0, 86, 107
2, 183744, Note_on_c, 0, 83, 107
2, 183744, Note_on_c, 0, 74, 107
2, 183932, Note_off_c, 0, 86, 100
2, 183932, Note_off_c, 0, 83, 100
2, 183932, Note_off_c, 0, 74, 100
2, 183936, Note_on_c, 0, 31, 110
2, 183968, Note_on_c, 0, 33, 110
2, 183996, Note_off_c, 0, 33, 64
2, 184000, Note_on_c, 0, 35, 110
2, 184028, Note_off_c, 0, 35, 64
2, 184032, Control_c, 0, 64, 127
2, 184032, Note_on_c, 0, 36, 110
2, 184060, Note_off_c, 0, 31, 64
2, 184064, Note_on_c, 0, 40, 110
2, 184096, Note_on_c, 0, 43, 110
2, 184156, Note_off_c, 0, 36, 100
2, 184188, Note_off_c, 0, 40, 100
2, 184220, Note_off_c, 0, 43, 100
2, 184224, Note_on_c, 0, 60, 110
2, 184256, Note_on_c, 0, 64, 110
2, 184288, Note_on_c, 0, 67, 110
2, 184320, Note_on_c, 0, 72, 110
2, 184348, Note_off_c, 0, 60, 100
2, 184352, Note_on_c, 0, 76, 110
2, 184380, Note_off_c, 0, 64, 100
2, 184384, Note_on_c, 0, 79, 110
2, 184412, Note_off_c, 0, 67, 100
2, 184416, Note_on_c, 0, 76, 110
2, 184444, Note_off_c, 0, 72, 100
2, 184448, Note_on_c, 0, 79, 110
2, 184476, Note_off_c, 0, 76, 100
2, 184481, Note_on_c, 0, 84, 110
2, 184508, Note_off_c, 0, 79, 100
2, 184512, Note_on_c, 0, 88, 110
2, 184540, Note_off_c, 0, 76, 100
2, 184572, Note_off_c, 0, 79, 100
2, 184605, Note_off_c, 0, 84, 100
2, 184606, Control_c, 0, 64, 0
2, 184636, Note_off_c, 0, 88, 100
2, 184640, Note_on_c, 0, 83, 110
2, 184668, Note_off_c, 0, 83, 100
2, 184672, Note_on_c, 0, 84, 110
2, 184700, Note_off_c, 0, 84, 100
2, 184704, Note_on_c, 0, 86, 110
2, 184732, Note_off_c, 0, 86, 100
2, 184736, Note_on_c, 0, 83, 110
2, 184764, Note_off_c, 0, 83, 100
2, 184768, Note_on_c, 0, 84, 110
2, 184796, Note_off_c, 0, 84, 100
2, 184800, Note_on_c, 0, 88, 110
2, 184828, Note_off_c, 0, 88, 100
2, 184832, Note_on_c, 0, 83, 110
2, 184860, Note_off_c, 0, 83, 100
2, 184864, Note_on_c, 0, 84, 110
2, 184892, Note_off_c, 0, 84, 100
2, 184896, Control_c, 0, 64, 127
2, 185184, Note_on_c, 0, 69, 110
2, 185216, Note_on_c, 0, 72, 110
2, 185248, Note_on_c, 0, 76, 110
2, 185280, Note_on_c, 0, 72, 110
2, 185308, Note_off_c, 0, 69, 100
2, 185312, Note_on_c, 0, 76, 110
2, 185340, Note_off_c, 0, 72, 100
2, 185344, Note_on_c, 0, 81, 110
2, 185372, Note_off_c, 0, 76, 100
2, 185376, Note_on_c, 0, 76, 110
2, 185400, Note_on_c, 0, 81, 110
2, 185404, Note_off_c, 0, 72, 100
2, 185424, Note_on_c, 0, 84, 110
2, 185436, Note_off_c, 0, 76, 100
2, 185448, Note_on_c, 0, 88, 110
2, 185464, Note_off_c, 0, 81, 100
2, 185468, Note_off_c, 0, 81, 100
2, 185469, Note_off_c, 0, 84, 100
2, 185470, Control_c, 0, 64, 0
2, 185471, Note_off_c, 0, 76, 100
2, 185491, Note_off_c, 0, 88, 100
2, 185504, Note_on_c, 0, 83, 110
2, 185532, Note_off_c, 0, 83, 100
2, 185536, Note_on_c, 0, 84, 110
2, 185564, Note_off_c, 0, 84, 100
2, 185568, Note_on_c, 0, 76, 110
2, 185596, Note_off_c, 0, 76, 100
2, 185600, Note_on_c, 0, 83, 110
2, 185628, Note_off_c, 0, 83, 100
2, 185633, Note_on_c, 0, 84, 110
2, 185661, Note_off_c, 0, 84, 100
2, 185664, Note_on_c, 0, 88, 110
2, 185692, Note_off_c, 0, 88, 100
2, 185696, Note_on_c, 0, 83, 110
2, 185724, Note_off_c, 0, 83, 100
2, 185728, Note_on_c, 0, 84, 110
2, 185756, Note_off_c, 0, 84, 100
2, 185760, Control_c, 0, 64, 127
2, 185856, Note_on_c, 0, 88, 110
2, 185888, Note_on_c, 0, 84, 110
2, 185920, Note_on_c, 0, 76, 110
2, 185952, Note_on_c, 0, 88, 110
2, 185980, Note_off_c, 0, 88, 100
2, 185984, Note_on_c, 0, 84, 110
2, 186006, Note_off_c, 0, 88, 100
2, 186012, Note_off_c, 0, 84, 100
2, 186016, Note_on_c, 0, 76, 110
2, 186024, Note_off_c, 0, 84, 100
2, 186044, Note_off_c, 0, 76, 100
2, 186044, Note_off_c, 0, 76, 100
2, 186046, Control_c, 0, 64, 0
2, 186048, Control_c, 0, 64, 127
2, 186144, Note_on_c, 0, 89, 110
2, 186176, Note_on_c, 0, 86, 110
2, 186209, Note_on_c, 0, 77, 110
2, 186240, Note_on_c, 0, 89, 110
2, 186268, Note_off_c, 0, 89, 100
2, 186272, Note_on_c, 0, 86, 110
2, 186294, Note_off_c, 0, 89, 100
2, 186300, Note_off_c, 0, 86, 100
2, 186305, Note_on_c, 0, 77, 110
2, 186312, Note_off_c, 0, 86, 100
2, 186333, Note_off_c, 0, 77, 100
2, 186333, Note_off_c, 0, 77, 100
2, 186334, Control_c, 0, 64, 0
2, 186336, Note_on_c, 0, 88, 110
2, 186364, Note_off_c, 0, 88, 100
2, 186368, Note_on_c, 0, 84, 110
2, 186396, Note_off_c, 0, 84, 100
2, 186400, Note_on_c, 0, 76, 110
2, 186428, Note_off_c, 0, 76, 100
2, 186432, Note_on_c, 0, 89, 110
2, 186460, Note_off_c, 0, 89, 100
2, 186464, Note_on_c, 0, 86, 110
2, 186492, Note_off_c, 0, 86, 100
2, 186496, Note_on_c, 0, 77, 110
2, 186524, Note_off_c, 0, 77, 100
2, 186528, Note_on_c, 0, 86, 110
2, 186556, Note_off_c, 0, 86, 100
2, 186560, Note_on_c, 0, 83, 110
2, 186588, Note_off_c, 0, 83, 100
2, 186592, Note_on_c, 0, 74, 110
2, 186620, Note_off_c, 0, 74, 100
2, 186624, Note_on_c, 0, 73, 110
2, 186648, Note_on_c, 0, 74, 110
2, 186664, Note_off_c, 0, 73, 100
2, 186672, Note_on_c, 0, 76, 110
2, 186688, Note_off_c, 0, 74, 100
2, 186696, Note_on_c, 0, 74, 110
2, 186712, Note_off_c, 0, 76, 100
2, 186720, Note_on_c, 0, 76, 110
2, 186736, Note_off_c, 0, 74, 100
2, 186744, Note_on_c, 0, 74, 110
2, 186760, Note_off_c, 0, 76, 100
2, 186768, Note_on_c, 0, 76, 110
2, 186784, Note_off_c, 0, 74, 100
2, 186792, Note_on_c, 0, 74, 110
2, 186808, Note_off_c, 0, 76, 100
2, 186816, Note_on_c, 0, 76, 110
2, 186832, Note_off_c, 0, 74, 100
2, 186840, Note_on_c, 0, 74, 110
2, 186856, Note_off_c, 0, 76, 100
2, 186864, Note_on_c, 0, 76, 110
2, 186880, Note_off_c, 0, 74, 100
2, 186888, Note_on_c, 0, 74, 110
2, 186904, Note_off_c, 0, 76, 100
2, 186912, Note_on_c, 0, 76, 110
2, 186928, Note_off_c, 0, 74, 100
2, 186936, Note_on_c, 0, 74, 110
2, 186952, Note_off_c, 0, 76, 100
2, 186960, Note_on_c, 0, 76, 110
2, 186976, Note_off_c, 0, 74, 100
2, 186984, Note_on_c, 0, 74, 110
2, 187000, Note_off_c, 0, 76, 100
2, 187008, Note_on_c, 0, 76, 110
2, 187024, Note_off_c, 0, 74, 100
2, 187032, Note_on_c, 0, 74, 110
2, 187048, Note_off_c, 0, 76, 100
2, 187056, Note_on_c, 0, 76, 110
2, 187072, Note_off_c, 0, 74, 100
2, 187080, Note_on_c, 0, 74, 110
2, 187096, Note_off_c, 0, 76, 100
2, 187104, Note_on_c, 0, 76, 110
2, 187120, Note_off_c, 0, 74, 100
2, 187128, Note_on_c, 0, 74, 110
2, 187144, Note_off_c, 0, 76, 100
2, 187152, Note_on_c, 0, 76, 110
2, 187168, Note_off_c, 0, 74, 100
2, 187176, Note_on_c, 0, 74, 110
2, 187192, Note_off_c, 0, 76, 100
2, 187200, Note_on_c, 0, 76, 110
2, 187216, Note_off_c, 0, 74, 100
2, 187224, Note_on_c, 0, 74, 110
2, 187240, Note_off_c, 0, 76, 100
2, 187248, Note_on_c, 0, 76, 110
2, 187264, Note_off_c, 0, 74, 100
2, 187272, Note_on_c, 0, 74, 110
2, 187288, Note_off_c, 0, 76, 100
2, 187296, Note_on_c, 0, 76, 110
2, 187312, Note_off_c, 0, 74, 100
2, 187320, Note_on_c, 0, 74, 110
2, 187336, Note_off_c, 0, 76, 100
2, 187344, Note_on_c, 0, 76, 110
2, 187360, Note_off_c, 0, 74, 100
2, 187368, Note_on_c, 0, 74, 110
2, 187384, Note_off_c, 0, 76, 100
2, 187392, Note_on_c, 0, 76, 110
2, 187408, Note_off_c, 0, 74, 100
2, 187416, Note_on_c, 0, 74, 110
2, 187432, Note_off_c, 0, 76, 100
2, 187440, Note_on_c, 0, 76, 110
2, 187456, Note_off_c, 0, 74, 100
2, 187464, Note_on_c, 0, 74, 110
2, 187480, Note_off_c, 0, 76, 100
2, 187488, Note_on_c, 0, 76, 110
2, 187504, Note_off_c, 0, 74, 100
2, 187512, Note_on_c, 0, 74, 110
2, 187528, Note_off_c, 0, 76, 100
2, 187536, Note_on_c, 0, 76, 110
2, 187552, Note_off_c, 0, 74, 100
2, 187560, Note_on_c, 0, 74, 110
2, 187576, Note_off_c, 0, 76, 100
2, 187584, Note_on_c, 0, 76, 110
2, 187600, Note_off_c, 0, 74, 100
2, 187608, Note_on_c, 0, 74, 110
2, 187624, Note_off_c, 0, 76, 100
2, 187632, Note_on_c, 0, 76, 110
2, 187648, Note_off_c, 0, 74, 100
2, 187656, Note_on_c, 0, 74, 110
2, 187672, Note_off_c, 0, 76, 100
2, 187680, Note_on_c, 0, 76, 110
2, 187696, Note_off_c, 0, 74, 100
2, 187704, Note_on_c, 0, 74, 110
2, 187720, Note_off_c, 0, 76, 100
2, 187728, Note_on_c, 0, 76, 110
2, 187744, Note_off_c, 0, 74, 100
2, 187752, Note_on_c, 0, 74, 110
2, 187768, Note_off_c, 0, 76, 100
2, 187776, Note_on_c, 0, 76, 110
2, 187792, Note_off_c, 0, 74, 100
2, 187800, Note_on_c, 0, 74, 110
2, 187816, Note_off_c, 0, 76, 100
2, 187824, Note_on_c, 0, 76, 110
2, 187840, Note_off_c, 0, 74, 100
2, 187848, Note_on_c, 0, 74, 110
2, 187864, Note_off_c, 0, 76, 100
2, 187872, Note_on_c, 0, 76, 110
2, 187888, Note_off_c, 0, 74, 100
2, 187896, Note_on_c, 0, 74, 110
2, 187912, Note_off_c, 0, 76, 100
2, 187920, Note_on_c, 0, 76, 104
2, 187936, Note_off_c, 0, 74, 100
2, 187944, Note_on_c, 0, 74, 98
2, 187960, Note_off_c, 0, 76, 100
2, 187968, Note_on_c, 0, 76, 92
2, 187984, Note_off_c, 0, 74, 100
2, 187992, Note_on_c, 0, 74, 86
2, 188008, Note_off_c, 0, 76, 100
2, 188016, Note_on_c, 0, 76, 80
2, 188032, Note_off_c, 0, 74, 100
2, 188040, Note_on_c, 0, 74, 80
2, 188056, Note_off_c, 0, 76, 100
2, 188064, Note_on_c, 0, 76, 80
2, 188064, Note_on_c, 0, 81, 80
2, 188080, Note_off_c, 0, 74, 100
2, 188088, Note_on_c, 0, 74, 80
2, 188104, Note_off_c, 0, 76, 100
2, 188112, Note_on_c, 0, 76, 80
2, 188128, Note_off_c, 0, 74, 100
2, 188136, Note_on_c, 0, 74, 80
2, 188152, Note_off_c, 0, 76, 100
2, 188160, Note_on_c, 0, 76, 80
2, 188176, Note_off_c, 0, 74, 100
2, 188184, Note_on_c, 0, 74, 80
2, 188200, Note_off_c, 0, 76, 100
2, 188208, Note_on_c, 0, 76, 80
2, 188224, Note_off_c, 0, 74, 100
2, 188232, Note_on_c, 0, 74, 80
2, 188248, Note_off_c, 0, 76, 100
2, 188252, Note_off_c, 0, 81, 100
2, 188256, Note_on_c, 0, 76, 80
2, 188256, Note_on_c, 0, 79, 80
2, 188272, Note_off_c, 0, 74, 100
2, 188280, Note_on_c, 0, 74, 80
2, 188296, Note_off_c, 0, 76, 100
2, 188304, Note_on_c, 0, 76, 80
2, 188320, Note_off_c, 0, 74, 100
2, 188328, Note_on_c, 0, 74, 80
2, 188344, Note_off_c, 0, 76, 100
2, 188348, Note_off_c, 0, 79, 100
2, 188352, Note_on_c, 0, 76, 80
2, 188352, Note_on_c, 0, 79, 80
2, 188368, Note_off_c, 0, 74, 100
2, 188376, Note_on_c, 0, 74, 80
2, 188392, Note_off_c, 0, 76, 100
2, 188400, Note_on_c, 0, 76, 80
2, 188416, Note_off_c, 0, 74, 100
2, 188424, Note_on_c, 0, 74, 80
2, 188440, Note_off_c, 0, 76, 100
2, 188448, Note_on_c, 0, 76, 80
2, 188464, Note_off_c, 0, 74, 100
2, 188472, Note_on_c, 0, 74, 80
2, 188488, Note_off_c, 0, 76, 100
2, 188496, Note_on_c, 0, 76, 80
2, 188512, Note_off_c, 0, 74, 100
2, 188520, Note_on_c, 0, 74, 80
2, 188536, Note_off_c, 0, 76, 100
2, 188544, Note_on_c, 0, 76, 80
2, 188560, Note_off_c, 0, 74, 100
2, 188568, Note_on_c, 0, 74, 80
2, 188584, Note_off_c, 0, 76, 100
2, 188592, Note_on_c, 0, 76, 80
2, 188608, Note_off_c, 0, 74, 100
2, 188616, Note_on_c, 0, 74, 80
2, 188632, Note_off_c, 0, 76, 100
2, 188640, Note_on_c, 0, 75, 80
2, 188656, Note_off_c, 0, 74, 100
2, 188664, Note_on_c, 0, 74, 80
2, 188680, Note_off_c, 0, 75, 100
2, 188688, Note_on_c, 0, 75, 80
2, 188704, Note_off_c, 0, 74, 100
2, 188712, Note_on_c, 0, 74, 80
2, 188728, Note_off_c, 0, 75, 100
2, 188736, Note_on_c, 0, 75, 80
2, 188752, Note_off_c, 0, 74, 100
2, 188760, Note_on_c, 0, 74, 80
2, 188776, Note_off_c, 0, 75, 100
2, 188784, Note_on_c, 0, 75, 80
2, 188800, Note_off_c, 0, 74, 100
2, 188808, Note_on_c, 0, 74, 80
2, 188824, Note_off_c, 0, 75, 100
2, 188832, Note_on_c, 0, 75, 80
2, 188848, Note_off_c, 0, 74, 100
2, 188856, Note_on_c, 0, 74, 80
2, 188872, Note_off_c, 0, 75, 100
2, 188880, Note_on_c, 0, 75, 80
2, 188896, Note_off_c, 0, 74, 100
2, 188904, Note_on_c, 0, 74, 80
2, 188920, Note_off_c, 0, 75, 100
2, 188924, Note_off_c, 0, 79, 100
2, 188928, Note_on_c, 0, 75, 80
2, 188928, Note_on_c, 0, 80, 80
2, 188944, Note_off_c, 0, 74, 100
2, 188952, Note_on_c, 0, 74, 80
2, 188968, Note_off_c, 0, 75, 100
2, 188976, Note_on_c, 0, 75, 80
2, 188992, Note_off_c, 0, 74, 100
2, 189000, Note_on_c, 0, 74, 80
2, 189016, Note_off_c, 0, 75, 100
2, 189024, Note_on_c, 0, 75, 80
2, 189040, Note_off_c, 0, 74, 100
2, 189048, Note_on_c, 0, 74, 80
2, 189064, Note_off_c, 0, 75, 100
2, 189072, Note_on_c, 0, 75, 80
2, 189088, Note_off_c, 0, 74, 100
2, 189096, Note_on_c, 0, 74, 80
2, 189112, Note_off_c, 0, 75, 100
2, 189116, Note_off_c, 0, 80, 100
2, 189120, Note_on_c, 0, 75, 80
2, 189120, Note_on_c, 0, 79, 80
2, 189136, Note_off_c, 0, 74, 100
2, 189144, Note_on_c, 0, 74, 80
2, 189160, Note_off_c, 0, 75, 100
2, 189168, Note_on_c, 0, 75, 80
2, 189184, Note_off_c, 0, 74, 100
2, 189192, Note_on_c, 0, 74, 80
2, 189208, Note_off_c, 0, 75, 100
2, 189212, Note_off_c, 0, 79, 100
2, 189216, Note_on_c, 0, 75, 80
2, 189216, Note_on_c, 0, 79, 80
2, 189232, Note_off_c, 0, 74, 100
2, 189240, Note_on_c, 0, 74, 80
2, 189256, Note_off_c, 0, 75, 100
2, 189264, Note_on_c, 0, 75, 80
2, 189280, Note_off_c, 0, 74, 100
2, 189288, Note_on_c, 0, 74, 80
2, 189304, Note_off_c, 0, 75, 100
2, 189312, Note_on_c, 0, 75, 80
2, 189328, Note_off_c, 0, 74, 100
2, 189336, Note_on_c, 0, 74, 80
2, 189352, Note_off_c, 0, 75, 100
2, 189360, Note_on_c, 0, 75, 80
2, 189376, Note_off_c, 0, 74, 100
2, 189384, Note_on_c, 0, 74, 80
2, 189400, Note_off_c, 0, 75, 100
2, 189404, Note_off_c, 0, 79, 100
2, 189408, Note_on_c, 0, 75, 80
2, 189424, Note_off_c, 0, 74, 100
2, 189432, Note_on_c, 0, 74, 80
2, 189448, Note_off_c, 0, 75, 100
2, 189456, Note_on_c, 0, 75, 80
2, 189472, Note_off_c, 0, 74, 100
2, 189480, Note_on_c, 0, 74, 80
2, 189496, Note_off_c, 0, 75, 100
2, 189504, Note_on_c, 0, 75, 80
2, 189504, Note_on_c, 0, 79, 80
2, 189520, Note_off_c, 0, 74, 100
2, 189528, Note_on_c, 0, 74, 80
2, 189544, Note_off_c, 0, 75, 100
2, 189552, Note_on_c, 0, 75, 80
2, 189568, Note_off_c, 0, 74, 100
2, 189576, Note_on_c, 0, 74, 80
2, 189592, Note_off_c, 0, 75, 100
2, 189600, Note_on_c, 0, 75, 80
2, 189616, Note_off_c, 0, 74, 100
2, 189624, Note_on_c, 0, 74, 80
2, 189640, Note_off_c, 0, 75, 100
2, 189648, Note_on_c, 0, 75, 80
2, 189664, Note_off_c, 0, 74, 100
2, 189672, Note_on_c, 0, 74, 80
2, 189688, Note_off_c, 0, 75, 100
2, 189692, Note_off_c, 0, 79, 100
2, 189696, Note_on_c, 0, 75, 80
2, 189712, Note_off_c, 0, 74, 100
2, 189720, Note_on_c, 0, 74, 80
2, 189736, Note_off_c, 0, 75, 100
2, 189744, Note_on_c, 0, 75, 80
2, 189760, Note_off_c, 0, 74, 100
2, 189768, Note_on_c, 0, 74, 80
2, 189784, Note_off_c, 0, 75, 100
2, 189792, Note_on_c, 0, 75, 80
2, 189792, Note_on_c, 0, 79, 80
2, 189808, Note_off_c, 0, 74, 100
2, 189816, Note_on_c, 0, 74, 80
2, 189832, Note_off_c, 0, 75, 100
2, 189840, Note_on_c, 0, 75, 80
2, 189856, Note_off_c, 0, 74, 100
2, 189864, Note_on_c, 0, 74, 80
2, 189880, Note_off_c, 0, 75, 100
2, 189888, Note_on_c, 0, 75, 80
2, 189904, Note_off_c, 0, 74, 100
2, 189912, Note_on_c, 0, 74, 80
2, 189928, Note_off_c, 0, 75, 100
2, 189936, Note_on_c, 0, 75, 80
2, 189952, Note_off_c, 0, 74, 100
2, 189960, Note_on_c, 0, 74, 80
2, 189976, Note_off_c, 0, 75, 100
2, 189980, Note_off_c, 0, 79, 100
2, 189984, Note_on_c, 0, 75, 80
2, 190000, Note_off_c, 0, 74, 100
2, 190008, Note_on_c, 0, 74, 80
2, 190024, Note_off_c, 0, 75, 100
2, 190032, Note_on_c, 0, 75, 80
2, 190048, Note_off_c, 0, 74, 100
2, 190056, Note_on_c, 0, 74, 80
2, 190072, Note_off_c, 0, 75, 100
2, 190080, Note_on_c, 0, 75, 80
2, 190080, Note_on_c, 0, 79, 80
2, 190096, Note_off_c, 0, 74, 100
2, 190104, Note_on_c, 0, 74, 80
2, 190120, Note_off_c, 0, 75, 100
2, 190128, Note_on_c, 0, 75, 80
2, 190144, Note_off_c, 0, 74, 100
2, 190152, Note_on_c, 0, 74, 80
2, 190168, Note_off_c, 0, 75, 100
2, 190176, Note_on_c, 0, 75, 80
2, 190192, Note_off_c, 0, 74, 100
2, 190200, Note_on_c, 0, 74, 80
2, 190216, Note_off_c, 0, 75, 100
2, 190224, Note_on_c, 0, 75, 80
2, 190240, Note_off_c, 0, 74, 100
2, 190248, Note_on_c, 0, 74, 80
2, 190264, Note_off_c, 0, 75, 100
2, 190272, Note_on_c, 0, 75, 80
2, 190288, Note_off_c, 0, 74, 100
2, 190296, Note_on_c, 0, 74, 80
2, 190312, Note_off_c, 0, 75, 100
2, 190320, Note_on_c, 0, 75, 80
2, 190336, Note_off_c, 0, 74, 100
2, 190344, Note_on_c, 0, 74, 80
2, 190360, Note_off_c, 0, 75, 100
2, 190364, Note_off_c, 0, 79, 100
2, 190368, Note_on_c, 0, 75, 80
2, 190368, Note_on_c, 0, 80, 80
2, 190384, Note_off_c, 0, 74, 100
2, 190392, Note_on_c, 0, 74, 80
2, 190408, Note_off_c, 0, 75, 100
2, 190416, Note_on_c, 0, 75, 80
2, 190432, Note_off_c, 0, 74, 100
2, 190440, Note_on_c, 0, 74, 80
2, 190456, Note_off_c, 0, 75, 100
2, 190464, Note_on_c, 0, 75, 80
2, 190480, Note_off_c, 0, 74, 100
2, 190488, Note_on_c, 0, 74, 80
2, 190504, Note_off_c, 0, 75, 100
2, 190512, Note_on_c, 0, 75, 80
2, 190528, Note_off_c, 0, 74, 100
2, 190536, Note_on_c, 0, 74, 80
2, 190552, Note_off_c, 0, 75, 100
2, 190560, Note_on_c, 0, 75, 80
2, 190576, Note_off_c, 0, 74, 100
2, 190584, Note_on_c, 0, 74, 80
2, 190600, Note_off_c, 0, 75, 100
2, 190608, Note_on_c, 0, 75, 80
2, 190624, Note_off_c, 0, 74, 100
2, 190632, Note_on_c, 0, 74, 80
2, 190648, Note_off_c, 0, 75, 100
2, 190652, Note_off_c, 0, 80, 100
2, 190656, Note_on_c, 0, 75, 80
2, 190656, Note_on_c, 0, 80, 80
2, 190672, Note_off_c, 0, 74, 100
2, 190680, Note_on_c, 0, 74, 80
2, 190696, Note_off_c, 0, 75, 100
2, 190704, Note_on_c, 0, 75, 80
2, 190720, Note_off_c, 0, 74, 100
2, 190728, Note_on_c, 0, 74, 80
2, 190744, Note_off_c, 0, 75, 100
2, 190752, Note_on_c, 0, 75, 80
2, 190768, Note_off_c, 0, 74, 100
2, 190776, Note_on_c, 0, 74, 80
2, 190792, Note_off_c, 0, 75, 100
2, 190800, Note_on_c, 0, 75, 80
2, 190816, Note_off_c, 0, 74, 100
2, 190824, Note_on_c, 0, 74, 80
2, 190840, Note_off_c, 0, 75, 100
2, 190848, Note_on_c, 0, 75, 80
2, 190864, Note_off_c, 0, 74, 100
2, 190872, Note_on_c, 0, 74, 80
2, 190888, Note_off_c, 0, 75, 100
2, 190896, Note_on_c, 0, 75, 80
2, 190912, Note_off_c, 0, 74, 100
2, 190920, Note_on_c, 0, 74, 80
2, 190936, Note_off_c, 0, 75, 100
2, 190940, Note_off_c, 0, 80, 100
2, 190944, Note_on_c, 0, 75, 80
2, 190944, Note_on_c, 0, 80, 80
2, 190960, Note_off_c, 0, 74, 100
2, 190968, Note_on_c, 0, 74, 80
2, 190984, Note_off_c, 0, 75, 100
2, 190992, Note_on_c, 0, 75, 80
2, 191008, Note_off_c, 0, 74, 100
2, 191016, Note_on_c, 0, 74, 80
2, 191032, Note_off_c, 0, 75, 100
2, 191040, Note_on_c, 0, 75, 80
2, 191056, Note_off_c, 0, 74, 100
2, 191064, Note_on_c, 0, 74, 80
2, 191080, Note_off_c, 0, 75, 100
2, 191088, Note_on_c, 0, 75, 80
2, 191104, Note_off_c, 0, 74, 100
2, 191112, Note_on_c, 0, 74, 80
2, 191128, Note_off_c, 0, 75, 100
2, 191136, Note_on_c, 0, 75, 80
2, 191152, Note_off_c, 0, 74, 100
2, 191160, Note_on_c, 0, 74, 80
2, 191176, Note_off_c, 0, 75, 100
2, 191184, Note_on_c, 0, 75, 80
2, 191200, Note_off_c, 0, 74, 100
2, 191208, Note_on_c, 0, 74, 80
2, 191224, Note_off_c, 0, 75, 100
2, 191228, Note_off_c, 0, 80, 100
2, 191232, Note_on_c, 0, 75, 80
2, 191232, Note_on_c, 0, 80, 80
2, 191248, Note_off_c, 0, 74, 100
2, 191256, Note_on_c, 0, 74, 80
2, 191272, Note_off_c, 0, 75, 100
2, 191280, Note_on_c, 0, 75, 80
2, 191296, Note_off_c, 0, 74, 100
2, 191304, Note_on_c, 0, 74, 80
2, 191320, Note_off_c, 0, 75, 100
2, 191328, Note_on_c, 0, 75, 80
2, 191344, Note_off_c, 0, 74, 100
2, 191352, Note_on_c, 0, 74, 80
2, 191368, Note_off_c, 0, 75, 100
2, 191376, Note_on_c, 0, 75, 80
2, 191392, Note_off_c, 0, 74, 100
2, 191400, Note_on_c, 0, 74, 80
2, 191416, Note_off_c, 0, 75, 100
2, 191424, Note_on_c, 0, 75, 80
2, 191440, Note_off_c, 0, 74, 100
2, 191448, Note_on_c, 0, 74, 80
2, 191464, Note_off_c, 0, 75, 100
2, 191472, Note_on_c, 0, 75, 80
2, 191488, Note_off_c, 0, 74, 100
2, 191496, Note_on_c, 0, 74, 80
2, 191512, Note_off_c, 0, 75, 100
2, 191516, Note_off_c, 0, 80, 100
2, 191520, Note_on_c, 0, 75, 80
2, 191520, Note_on_c, 0, 80, 80
2, 191536, Note_off_c, 0, 74, 100
2, 191544, Note_on_c, 0, 74, 80
2, 191560, Note_off_c, 0, 75, 100
2, 191568, Note_on_c, 0, 75, 80
2, 191584, Note_off_c, 0, 74, 100
2, 191592, Note_on_c, 0, 74, 80
2, 191608, Note_off_c, 0, 75, 100
2, 191616, Note_on_c, 0, 75, 80
2, 191632, Note_off_c, 0, 74, 100
2, 191640, Note_on_c, 0, 74, 80
2, 191656, Note_off_c, 0, 75, 100
2, 191664, Note_on_c, 0, 75, 80
2, 191680, Note_off_c, 0, 74, 100
2, 191688, Note_on_c, 0, 74, 80
2, 191704, Note_off_c, 0, 75, 100
2, 191712, Note_on_c, 0, 75, 80
2, 191728, Note_off_c, 0, 74, 100
2, 191736, Note_on_c, 0, 74, 80
2, 191752, Note_off_c, 0, 75, 100
2, 191760, Note_on_c, 0, 75, 80
2, 191776, Note_off_c, 0, 74, 100
2, 191784, Note_on_c, 0, 74, 80
2, 191800, Note_off_c, 0, 75, 100
2, 191804, Note_off_c, 0, 80, 100
2, 191808, Note_on_c, 0, 75, 80
2, 191808, Note_on_c, 0, 82, 80
2, 191824, Note_off_c, 0, 74, 100
2, 191832, Note_on_c, 0, 74, 80
2, 191832, Note_on_c, 0, 80, 80
2, 191848, Note_off_c, 0, 75, 100
2, 191848, Note_off_c, 0, 82, 100
2, 191856, Note_on_c, 0, 75, 80
2, 191856, Note_on_c, 0, 82, 80
2, 191872, Note_off_c, 0, 74, 100
2, 191872, Note_off_c, 0, 80, 100
2, 191880, Note_on_c, 0, 74, 81
2, 191880, Note_on_c, 0, 80, 81
2, 191896, Note_off_c, 0, 75, 100
2, 191896, Note_off_c, 0, 82, 100
2, 191904, Note_on_c, 0, 75, 81
2, 191904, Note_on_c, 0, 82, 81
2, 191920, Note_off_c, 0, 74, 100
2, 191920, Note_off_c, 0, 80, 100
2, 191928, Note_on_c, 0, 74, 81
2, 191928, Note_on_c, 0, 80, 81
2, 191944, Note_off_c, 0, 75, 100
2, 191944, Note_off_c, 0, 82, 100
2, 191952, Note_on_c, 0, 75, 82
2, 191952, Note_on_c, 0, 82, 82
2, 191968, Note_off_c, 0, 74, 100
2, 191968, Note_off_c, 0, 80, 100
2, 191976, Note_on_c, 0, 74, 82
2, 191976, Note_on_c, 0, 80, 82
2, 191992, Note_off_c, 0, 75, 100
2, 191992, Note_off_c, 0, 82, 100
2, 192000, Note_on_c, 0, 75, 82
2, 192000, Note_on_c, 0, 82, 82
2, 192016, Note_off_c, 0, 74, 100
2, 192016, Note_off_c, 0, 80, 100
2, 192024, Note_on_c, 0, 74, 83
2, 192024, Note_on_c, 0, 80, 83
2, 192040, Note_off_c, 0, 75, 100
2, 192040, Note_off_c, 0, 82, 100
2, 192048, Note_on_c, 0, 75, 83
2, 192048, Note_on_c, 0, 82, 83
2, 192064, Note_off_c, 0, 74, 100
2, 192064, Note_off_c, 0, 80, 100
2, 192072, Note_on_c, 0, 74, 83
2, 192072, Note_on_c, 0, 80, 83
2, 192088, Note_off_c, 0, 75, 100
2, 192088, Note_off_c, 0, 82, 100
2, 192096, Note_on_c, 0, 75, 84
2, 192096, Note_on_c, 0, 82, 84
2, 192112, Note_off_c, 0, 74, 100
2, 192112, Note_off_c, 0, 80, 100
2, 192120, Note_on_c, 0, 74, 84
2, 192120, Note_on_c, 0, 80, 84
2, 192136, Note_off_c, 0, 75, 100
2, 192136, Note_off_c, 0, 82, 100
2, 192144, Note_on_c, 0, 75, 84
2, 192144, Note_on_c, 0, 82, 84
2, 192160, Note_off_c, 0, 74, 100
2, 192160, Note_off_c, 0, 80, 100
2, 192168, Note_on_c, 0, 74, 85
2, 192168, Note_on_c, 0, 80, 85
2, 192184, Note_off_c, 0, 75, 100
2, 192184, Note_off_c, 0, 82, 100
2, 192192, Note_on_c, 0, 75, 85
2, 192192, Note_on_c, 0, 82, 85
2, 192208, Note_off_c, 0, 74, 100
2, 192208, Note_off_c, 0, 80, 100
2, 192216, Note_on_c, 0, 74, 85
2, 192216, Note_on_c, 0, 80, 85
2, 192232, Note_off_c, 0, 75, 100
2, 192232, Note_off_c, 0, 82, 100
2, 192240, Note_on_c, 0, 75, 85
2, 192240, Note_on_c, 0, 82, 85
2, 192256, Note_off_c, 0, 74, 100
2, 192256, Note_off_c, 0, 80, 100
2, 192264, Note_on_c, 0, 74, 86
2, 192264, Note_on_c, 0, 80, 86
2, 192280, Note_off_c, 0, 75, 100
2, 192280, Note_off_c, 0, 82, 100
2, 192288, Note_on_c, 0, 75, 86
2, 192288, Note_on_c, 0, 82, 86
2, 192304, Note_off_c, 0, 74, 100
2, 192304, Note_off_c, 0, 80, 100
2, 192312, Note_on_c, 0, 74, 86
2, 192312, Note_on_c, 0, 80, 86
2, 192328, Note_off_c, 0, 75, 100
2, 192328, Note_off_c, 0, 82, 100
2, 192336, Note_on_c, 0, 75, 87
2, 192336, Note_on_c, 0, 82, 87
2, 192352, Note_off_c, 0, 74, 100
2, 192352, Note_off_c, 0, 80, 100
2, 192360, Note_on_c, 0, 74, 87
2, 192360, Note_on_c, 0, 80, 87
2, 192376, Note_off_c, 0, 75, 100
2, 192376, Note_off_c, 0, 82, 100
2, 192384, Note_on_c, 0, 75, 87
2, 192384, Note_on_c, 0, 82, 87
2, 192400, Note_off_c, 0, 74, 100
2, 192400, Note_off_c, 0, 80, 100
2, 192408, Note_on_c, 0, 74, 88
2, 192408, Note_on_c, 0, 80, 88
2, 192424, Note_off_c, 0, 75, 100
2, 192424, Note_off_c, 0, 82, 100
2, 192432, Note_on_c, 0, 75, 88
2, 192432, Note_on_c, 0, 82, 88
2, 192448, Note_off_c, 0, 74, 100
2, 192448, Note_off_c, 0, 80, 100
2, 192456, Note_on_c, 0, 74, 88
2, 192456, Note_on_c, 0, 80, 88
2, 192472, Note_off_c, 0, 75, 100
2, 192472, Note_off_c, 0, 82, 100
2, 192480, Note_on_c, 0, 75, 89
2, 192480, Note_on_c, 0, 82, 89
2, 192496, Note_off_c, 0, 74, 100
2, 192496, Note_off_c, 0, 80, 100
2, 192504, Note_on_c, 0, 74, 89
2, 192504, Note_on_c, 0, 80, 89
2, 192520, Note_off_c, 0, 75, 100
2, 192520, Note_off_c, 0, 82, 100
2, 192528, Note_on_c, 0, 75, 89
2, 192528, Note_on_c, 0, 82, 89
2, 192544, Note_off_c, 0, 74, 100
2, 192544, Note_off_c, 0, 80, 100
2, 192552, Note_on_c, 0, 74, 90
2, 192552, Note_on_c, 0, 80, 90
2, 192568, Note_off_c, 0, 75, 100
2, 192568, Note_off_c, 0, 82, 100
2, 192576, Note_on_c, 0, 75, 90
2, 192576, Note_on_c, 0, 82, 90
2, 192592, Note_off_c, 0, 74, 100
2, 192592, Note_off_c, 0, 80, 100
2, 192600, Note_on_c, 0, 74, 90
2, 192600, Note_on_c, 0, 80, 90
2, 192616, Note_off_c, 0, 75, 100
2, 192616, Note_off_c, 0, 82, 100
2, 192624, Note_on_c, 0, 82, 90
2, 192624, Note_on_c, 0, 75, 90
2, 192640, Note_off_c, 0, 74, 100
2, 192640, Note_off_c, 0, 80, 100
2, 192648, Note_on_c, 0, 74, 90
2, 192648, Note_on_c, 0, 80, 90
2, 192664, Note_off_c, 0, 82, 100
2, 192664, Note_off_c, 0, 75, 100
2, 192672, Note_on_c, 0, 75, 90
2, 192672, Note_on_c, 0, 82, 90
2, 192688, Note_off_c, 0, 74, 100
2, 192688, Note_off_c, 0, 80, 100
2, 192696, Note_on_c, 0, 74, 90
2, 192696, Note_on_c, 0, 80, 90
2, 192712, Note_off_c, 0, 75, 100
2, 192712, Note_off_c, 0, 82, 100
2, 192720, Note_on_c, 0, 75, 90
2, 192720, Note_on_c, 0, 82, 90
2, 192736, Note_off_c, 0, 74, 100
2, 192736, Note_off_c, 0, 80, 100
2, 192744, Note_on_c, 0, 74, 89
2, 192744, Note_on_c, 0, 80, 89
2, 192760, Note_off_c, 0, 75, 100
2, 192760, Note_off_c, 0, 82, 100
2, 192768, Note_on_c, 0, 75, 89
2, 192768, Note_on_c, 0, 82, 89
2, 192784, Note_off_c, 0, 74, 100
2, 192784, Note_off_c, 0, 80, 100
2, 192792, Note_on_c, 0, 74, 89
2, 192792, Note_on_c, 0, 80, 89
2, 192808, Note_off_c, 0, 75, 100
2, 192808, Note_off_c, 0, 82, 100
2, 192816, Note_on_c, 0, 75, 88
2, 192816, Note_on_c, 0, 82, 88
2, 192832, Note_off_c, 0, 74, 100
2, 192832, Note_off_c, 0, 80, 100
2, 192840, Note_on_c, 0, 74, 88
2, 192840, Note_on_c, 0, 80, 88
2, 192856, Note_off_c, 0, 75, 100
2, 192856, Note_off_c, 0, 82, 100
2, 192864, Note_on_c, 0, 75, 88
2, 192864, Note_on_c, 0, 82, 88
2, 192880, Note_off_c, 0, 74, 100
2, 192880, Note_off_c, 0, 80, 100
2, 192888, Note_on_c, 0, 74, 87
2, 192888, Note_on_c, 0, 80, 87
2, 192904, Note_off_c, 0, 75, 100
2, 192904, Note_off_c, 0, 82, 100
2, 192912, Note_on_c, 0, 82, 87
2, 192912, Note_on_c, 0, 75, 87
2, 192928, Note_off_c, 0, 74, 100
2, 192928, Note_off_c, 0, 80, 100
2, 192936, Note_on_c, 0, 74, 87
2, 192936, Note_on_c, 0, 80, 87
2, 192952, Note_off_c, 0, 82, 100
2, 192952, Note_off_c, 0, 75, 100
2, 192960, Note_on_c, 0, 75, 86
2, 192960, Note_on_c, 0, 82, 86
2, 192976, Note_off_c, 0, 74, 100
2, 192976, Note_off_c, 0, 80, 100
2, 192984, Note_on_c, 0, 74, 86
2, 192984, Note_on_c, 0, 80, 86
2, 193000, Note_off_c, 0, 75, 100
2, 193000, Note_off_c, 0, 82, 100
2, 193008, Note_on_c, 0, 75, 86
2, 193008, Note_on_c, 0, 82, 86
2, 193024, Note_off_c, 0, 74, 100
2, 193024, Note_off_c, 0, 80, 100
2, 193032, Note_on_c, 0, 74, 85
2, 193032, Note_on_c, 0, 80, 85
2, 193048, Note_off_c, 0, 75, 100
2, 193048, Note_off_c, 0, 82, 100
2, 193056, Note_on_c, 0, 75, 85
2, 193056, Note_on_c, 0, 82, 85
2, 193072, Note_off_c, 0, 74, 100
2, 193072, Note_off_c, 0, 80, 100
2, 193080, Note_on_c, 0, 74, 85
2, 193080, Note_on_c, 0, 80, 85
2, 193096, Note_off_c, 0, 75, 100
2, 193096, Note_off_c, 0, 82, 100
2, 193104, Note_on_c, 0, 75, 85
2, 193104, Note_on_c, 0, 82, 85
2, 193120, Note_off_c, 0, 74, 100
2, 193120, Note_off_c, 0, 80, 100
2, 193128, Note_on_c, 0, 74, 84
2, 193128, Note_on_c, 0, 80, 84
2, 193144, Note_off_c, 0, 75, 100
2, 193144, Note_off_c, 0, 82, 100
2, 193152, Note_on_c, 0, 75, 84
2, 193152, Note_on_c, 0, 82, 84
2, 193168, Note_off_c, 0, 74, 100
2, 193168, Note_off_c, 0, 80, 100
2, 193176, Note_on_c, 0, 74, 84
2, 193176, Note_on_c, 0, 80, 84
2, 193192, Note_off_c, 0, 75, 100
2, 193192, Note_off_c, 0, 82, 100
2, 193200, Note_on_c, 0, 82, 83
2, 193200, Note_on_c, 0, 75, 83
2, 193216, Note_off_c, 0, 74, 100
2, 193216, Note_off_c, 0, 80, 100
2, 193224, Note_on_c, 0, 74, 83
2, 193224, Note_on_c, 0, 80, 83
2, 193240, Note_off_c, 0, 82, 100
2, 193240, Note_off_c, 0, 75, 100
2, 193248, Note_on_c, 0, 75, 83
2, 193248, Note_on_c, 0, 82, 83
2, 193264, Note_off_c, 0, 74, 100
2, 193264, Note_off_c, 0, 80, 100
2, 193272, Note_on_c, 0, 74, 82
2, 193272, Note_on_c, 0, 80, 82
2, 193288, Note_off_c, 0, 75, 100
2, 193288, Note_off_c, 0, 82, 100
2, 193296, Note_on_c, 0, 75, 82
2, 193296, Note_on_c, 0, 82, 82
2, 193312, Note_off_c, 0, 74, 100
2, 193312, Note_off_c, 0, 80, 100
2, 193320, Note_on_c, 0, 74, 82
2, 193320, Note_on_c, 0, 80, 82
2, 193336, Note_off_c, 0, 75, 100
2, 193336, Note_off_c, 0, 82, 100
2, 193344, Note_on_c, 0, 75, 81
2, 193344, Note_on_c, 0, 82, 81
2, 193360, Note_off_c, 0, 74, 100
2, 193360, Note_off_c, 0, 80, 100
2, 193368, Note_on_c, 0, 74, 81
2, 193368, Note_on_c, 0, 80, 81
2, 193384, Note_off_c, 0, 75, 100
2, 193384, Note_off_c, 0, 82, 100
2, 193392, Note_on_c, 0, 75, 81
2, 193392, Note_on_c, 0, 82, 81
2, 193408, Note_off_c, 0, 74, 100
2, 193408, Note_off_c, 0, 80, 100
2, 193416, Note_on_c, 0, 74, 80
2, 193416, Note_on_c, 0, 80, 80
2, 193432, Note_off_c, 0, 75, 100
2, 193432, Note_off_c, 0, 82, 100
2, 193440, Note_on_c, 0, 75, 80
2, 193440, Note_on_c, 0, 82, 80
2, 193456, Note_off_c, 0, 74, 100
2, 193456, Note_off_c, 0, 80, 100
2, 193464, Note_on_c, 0, 74, 80
2, 193464, Note_on_c, 0, 80, 80
2, 193480, Note_off_c, 0, 75, 100
2, 193480, Note_off_c, 0, 82, 100
2, 193488, Note_on_c, 0, 82, 80
2, 193488, Note_on_c, 0, 75, 80
2, 193504, Note_off_c, 0, 74, 100
2, 193504, Note_off_c, 0, 80, 100
2, 193512, Note_on_c, 0, 74, 80
2, 193512, Note_on_c, 0, 80, 80
2, 193528, Note_off_c, 0, 82, 100
2, 193528, Note_off_c, 0, 75, 100
2, 193536, Note_on_c, 0, 75, 80
2, 193536, Note_on_c, 0, 82, 80
2, 193552, Note_off_c, 0, 74, 100
2, 193552, Note_off_c, 0, 80, 100
2, 193560, Note_on_c, 0, 74, 80
2, 193560, Note_on_c, 0, 80, 80
2, 193576, Note_off_c, 0, 75, 100
2, 193576, Note_off_c, 0, 82, 100
2, 193584, Note_on_c, 0, 75, 80
2, 193584, Note_on_c, 0, 82, 80
2, 193600, Note_off_c, 0, 74, 100
2, 193600, Note_off_c, 0, 80, 100
2, 193608, Note_on_c, 0, 74, 80
2, 193608, Note_on_c, 0, 80, 80
2, 193624, Note_off_c, 0, 75, 100
2, 193624, Note_off_c, 0, 82, 100
2, 193632, Note_on_c, 0, 75, 80
2, 193632, Note_on_c, 0, 82, 80
2, 193648, Note_off_c, 0, 74, 100
2, 193648, Note_off_c, 0, 80, 100
2, 193656, Note_on_c, 0, 74, 80
2, 193656, Note_on_c, 0, 80, 80
2, 193672, Note_off_c, 0, 75, 100
2, 193672, Note_off_c, 0, 82, 100
2, 193680, Note_on_c, 0, 75, 80
2, 193680, Note_on_c, 0, 82, 80
2, 193696, Note_off_c, 0, 74, 100
2, 193696, Note_off_c, 0, 80, 100
2, 193704, Note_on_c, 0, 74, 80
2, 193704, Note_on_c, 0, 80, 80
2, 193720, Note_off_c, 0, 75, 100
2, 193720, Note_off_c, 0, 82, 100
2, 193728, Note_on_c, 0, 75, 80
2, 193728, Note_on_c, 0, 82, 80
2, 193744, Note_off_c, 0, 74, 100
2, 193744, Note_off_c, 0, 80, 100
2, 193752, Note_on_c, 0, 74, 80
2, 193752, Note_on_c, 0, 80, 80
2, 193768, Note_off_c, 0, 75, 100
2, 193768, Note_off_c, 0, 82, 100
2, 193776, Note_on_c, 0, 82, 80
2, 193776, Note_on_c, 0, 75, 80
2, 193792, Note_off_c, 0, 74, 100
2, 193792, Note_off_c, 0, 80, 100
2, 193800, Note_on_c, 0, 74, 80
2, 193800, Note_on_c, 0, 80, 80
2, 193816, Note_off_c, 0, 82, 100
2, 193816, Note_off_c, 0, 75, 100
2, 193824, Note_on_c, 0, 81, 80
2, 193840, Note_off_c, 0, 74, 100
2, 193840, Note_off_c, 0, 80, 100
2, 193848, Note_on_c, 0, 82, 80
2, 193864, Note_off_c, 0, 81, 100
2, 193872, Note_on_c, 0, 81, 80
2, 193888, Note_off_c, 0, 82, 100
2, 193896, Note_on_c, 0, 82, 80
2, 193912, Note_off_c, 0, 81, 100
2, 193920, Note_on_c, 0, 81, 80
2, 193936, Note_off_c, 0, 82, 100
2, 193944, Note_on_c, 0, 82, 80
2, 193960, Note_off_c, 0, 81, 100
2, 193968, Note_on_c, 0, 81, 80
2, 193984, Note_off_c, 0, 82, 100
2, 193992, Note_on_c, 0, 82, 80
2, 194008, Note_off_c, 0, 81, 100
2, 194016, Note_on_c, 0, 81, 80
2, 194032, Note_off_c, 0, 82, 100
2, 194040, Note_on_c, 0, 82, 80
2, 194056, Note_off_c, 0, 81, 100
2, 194064, Note_on_c, 0, 81, 80
2, 194080, Note_off_c, 0, 82, 100
2, 194088, Note_on_c, 0, 82, 80
2, 194104, Note_off_c, 0, 81, 100
2, 194112, Note_on_c, 0, 82, 80
2, 194128, Note_off_c, 0, 82, 100
2, 194136, Note_on_c, 0, 84, 80
2, 194152, Note_off_c, 0, 82, 100
2, 194160, Note_on_c, 0, 82, 81
2, 194176, Note_off_c, 0, 84, 100
2, 194184, Note_on_c, 0, 84, 81
2, 194200, Note_off_c, 0, 82, 100
2, 194208, Note_on_c, 0, 82, 82
2, 194224, Note_off_c, 0, 84, 100
2, 194232, Note_on_c, 0, 84, 82
2, 194248, Note_off_c, 0, 82, 100
2, 194256, Note_on_c, 0, 82, 83
2, 194272, Note_off_c, 0, 84, 100
2, 194280, Note_on_c, 0, 84, 83
2, 194296, Note_off_c, 0, 82, 100
2, 194304, Note_on_c, 0, 82, 83
2, 194320, Note_off_c, 0, 84, 100
2, 194328, Note_on_c, 0, 84, 84
2, 194344, Note_off_c, 0, 82, 100
2, 194352, Note_on_c, 0, 82, 84
2, 194368, Note_off_c, 0, 84, 100
2, 194376, Note_on_c, 0, 84, 85
2, 194392, Note_off_c, 0, 82, 100
2, 194400, Note_on_c, 0, 82, 85
2, 194416, Note_off_c, 0, 84, 100
2, 194424, Note_on_c, 0, 84, 86
2, 194440, Note_off_c, 0, 82, 100
2, 194448, Note_on_c, 0, 82, 86
2, 194464, Note_off_c, 0, 84, 100
2, 194472, Note_on_c, 0, 84, 86
2, 194488, Note_off_c, 0, 82, 100
2, 194496, Note_on_c, 0, 82, 87
2, 194512, Note_off_c, 0, 84, 100
2, 194520, Note_on_c, 0, 84, 87
2, 194536, Note_off_c, 0, 82, 100
2, 194544, Note_on_c, 0, 82, 88
2, 194560, Note_off_c, 0, 84, 100
2, 194568, Note_on_c, 0, 84, 88
2, 194584, Note_off_c, 0, 82, 100
2, 194592, Note_on_c, 0, 82, 89
2, 194608, Note_off_c, 0, 84, 100
2, 194616, Note_on_c, 0, 84, 89
2, 194632, Note_off_c, 0, 82, 100
2, 194640, Note_on_c, 0, 82, 90
2, 194656, Note_off_c, 0, 84, 100
2, 194664, Note_on_c, 0, 84, 90
2, 194680, Note_off_c, 0, 82, 100
2, 194688, Note_on_c, 0, 83, 90
2, 194704, Note_off_c, 0, 84, 100
2, 194712, Note_on_c, 0, 84, 91
2, 194728, Note_off_c, 0, 83, 100
2, 194736, Note_on_c, 0, 83, 91
2, 194752, Note_off_c, 0, 84, 100
2, 194760, Note_on_c, 0, 84, 92
2, 194776, Note_off_c, 0, 83, 100
2, 194784, Note_on_c, 0, 83, 92
2, 194800, Note_off_c, 0, 84, 100
2, 194808, Note_on_c, 0, 84, 93
2, 194824, Note_off_c, 0, 83, 100
2, 194832, Note_on_c, 0, 83, 93
2, 194848, Note_off_c, 0, 84, 100
2, 194856, Note_on_c, 0, 84, 93
2, 194872, Note_off_c, 0, 83, 100
2, 194880, Note_on_c, 0, 83, 94
2, 194896, Note_off_c, 0, 84, 100
2, 194904, Note_on_c, 0, 84, 94
2, 194920, Note_off_c, 0, 83, 100
2, 194928, Note_on_c, 0, 83, 95
2, 194944, Note_off_c, 0, 84, 100
2, 194952, Note_on_c, 0, 84, 95
2, 194968, Note_off_c, 0, 83, 100
2, 194976, Note_on_c, 0, 84, 96
2, 194992, Note_off_c, 0, 84, 100
2, 195000, Note_on_c, 0, 86, 96
2, 195016, Note_off_c, 0, 84, 100
2, 195024, Note_on_c, 0, 84, 97
2, 195040, Note_off_c, 0, 86, 100
2, 195048, Note_on_c, 0, 86, 97
2, 195064, Note_off_c, 0, 84, 100
2, 195072, Note_on_c, 0, 84, 97
2, 195088, Note_off_c, 0, 86, 100
2, 195096, Note_on_c, 0, 86, 98
2, 195112, Note_off_c, 0, 84, 100
2, 195120, Note_on_c, 0, 84, 98
2, 195136, Note_off_c, 0, 86, 100
2, 195144, Note_on_c, 0, 86, 99
2, 195160, Note_off_c, 0, 84, 100
2, 195168, Note_on_c, 0, 84, 99
2, 195184, Note_off_c, 0, 86, 100
2, 195192, Note_on_c, 0, 86, 100
2, 195208, Note_off_c, 0, 84, 100
2, 195216, Note_on_c, 0, 84, 100
2, 195232, Note_off_c, 0, 86, 100
2, 195240, Note_on_c, 0, 86, 100
2, 195256, Note_off_c, 0, 84, 100
2, 195264, Note_on_c, 0, 84, 101
2, 195280, Note_off_c, 0, 86, 100
2, 195288, Note_on_c, 0, 86, 101
2, 195304, Note_off_c, 0, 84, 100
2, 195312, Note_on_c, 0, 84, 102
2, 195328, Note_off_c, 0, 86, 100
2, 195336, Note_on_c, 0, 86, 102
2, 195352, Note_off_c, 0, 84, 100
2, 195360, Note_on_c, 0, 84, 103
2, 195376, Note_off_c, 0, 86, 100
2, 195384, Note_on_c, 0, 86, 103
2, 195400, Note_off_c, 0, 84, 100
2, 195408, Note_on_c, 0, 84, 104
2, 195424, Note_off_c, 0, 86, 100
2, 195432, Note_on_c, 0, 86, 104
2, 195448, Note_off_c, 0, 84, 100
2, 195456, Note_on_c, 0, 84, 104
2, 195472, Note_off_c, 0, 86, 100
2, 195480, Note_on_c, 0, 86, 105
2, 195496, Note_off_c, 0, 84, 100
2, 195504, Note_on_c, 0, 84, 105
2, 195520, Note_off_c, 0, 86, 100
2, 195528, Note_on_c, 0, 86, 106
2, 195544, Note_off_c, 0, 84, 100
2, 195552, Note_on_c, 0, 85, 106
2, 195568, Note_off_c, 0, 86, 100
2, 195576, Note_on_c, 0, 86, 107
2, 195592, Note_off_c, 0, 85, 100
2, 195600, Note_on_c, 0, 85, 107
2, 195616, Note_off_c, 0, 86, 100
2, 195624, Note_on_c, 0, 86, 107
2, 195640, Note_off_c, 0, 85, 100
2, 195648, Note_on_c, 0, 85, 108
2, 195664, Note_off_c, 0, 86, 100
2, 195672, Note_on_c, 0, 86, 108
2, 195688, Note_off_c, 0, 85, 100
2, 195696, Note_on_c, 0, 85, 109
2, 195712, Note_off_c, 0, 86, 100
2, 195720, Note_on_c, 0, 86, 109
2, 195736, Note_off_c, 0, 85, 100
2, 195744, Note_on_c, 0, 85, 110
2, 195760, Note_off_c, 0, 86, 100
2, 195768, Note_on_c, 0, 86, 110
2, 195784, Note_off_c, 0, 85, 100
2, 195792, Note_on_c, 0, 85, 110
2, 195808, Note_off_c, 0, 86, 100
2, 195816, Note_on_c, 0, 86, 110
2, 195832, Note_off_c, 0, 85, 100
2, 195840, Key_signature, -3, "major"
2, 195840, Note_on_c, 0, 86, 110
2, 195856, Note_off_c, 0, 86, 100
2, 195864, Note_on_c, 0, 87, 109
2, 195880, Note_off_c, 0, 86, 100
2, 195888, Note_on_c, 0, 86, 109
2, 195904, Note_off_c, 0, 87, 100
2, 195912, Note_on_c, 0, 87, 108
2, 195928, Note_off_c, 0, 86, 100
2, 195936, Note_on_c, 0, 86, 107
2, 195952, Note_off_c, 0, 87, 100
2, 195960, Note_on_c, 0, 87, 107
2, 195976, Note_off_c, 0, 86, 100
2, 195984, Note_on_c, 0, 86, 106
2, 196000, Note_off_c, 0, 87, 100
2, 196008, Note_on_c, 0, 87, 105
2, 196024, Note_off_c, 0, 86, 100
2, 196032, Note_on_c, 0, 86, 105
2, 196048, Note_off_c, 0, 87, 100
2, 196056, Note_on_c, 0, 87, 104
2, 196072, Note_off_c, 0, 86, 100
2, 196080, Note_on_c, 0, 86, 103
2, 196096, Note_off_c, 0, 87, 100
2, 196104, Note_on_c, 0, 87, 103
2, 196120, Note_off_c, 0, 86, 100
2, 196128, Note_on_c, 0, 86, 102
2, 196144, Note_off_c, 0, 87, 100
2, 196152, Note_on_c, 0, 87, 102
2, 196168, Note_off_c, 0, 86, 100
2, 196176, Note_on_c, 0, 86, 101
2, 196192, Note_off_c, 0, 87, 100
2, 196200, Note_on_c, 0, 87, 100
2, 196216, Note_off_c, 0, 86, 100
2, 196224, Note_on_c, 0, 86, 100
2, 196240, Note_off_c, 0, 87, 100
2, 196248, Note_on_c, 0, 87, 99
2, 196264, Note_off_c, 0, 86, 100
2, 196272, Note_on_c, 0, 86, 98
2, 196288, Note_off_c, 0, 87, 100
2, 196296, Note_on_c, 0, 87, 98
2, 196312, Note_off_c, 0, 86, 100
2, 196320, Note_on_c, 0, 86, 97
2, 196336, Note_off_c, 0, 87, 100
2, 196344, Note_on_c, 0, 87, 96
2, 196360, Note_off_c, 0, 86, 100
2, 196368, Note_on_c, 0, 86, 96
2, 196384, Note_off_c, 0, 87, 100
2, 196392, Note_on_c, 0, 87, 95
2, 196408, Note_off_c, 0, 86, 100
2, 196416, Note_on_c, 0, 86, 95
2, 196432, Note_off_c, 0, 87, 100
2, 196440, Note_on_c, 0, 87, 94
2, 196456, Note_off_c, 0, 86, 100
2, 196464, Note_on_c, 0, 86, 93
2, 196480, Note_off_c, 0, 87, 100
2, 196488, Note_on_c, 0, 87, 93
2, 196504, Note_off_c, 0, 86, 100
2, 196512, Note_on_c, 0, 86, 92
2, 196528, Note_off_c, 0, 87, 100
2, 196536, Note_on_c, 0, 87, 91
2, 196552, Note_off_c, 0, 86, 100
2, 196560, Note_on_c, 0, 86, 91
2, 196576, Note_off_c, 0, 87, 100
2, 196584, Note_on_c, 0, 87, 90
2, 196600, Note_off_c, 0, 86, 100
2, 196608, Note_on_c, 0, 86, 89
2, 196624, Note_off_c, 0, 87, 100
2, 196632, Note_on_c, 0, 87, 89
2, 196648, Note_off_c, 0, 86, 100
2, 196656, Note_on_c, 0, 86, 88
2, 196672, Note_off_c, 0, 87, 100
2, 196680, Note_on_c, 0, 87, 88
2, 196696, Note_off_c, 0, 86, 100
2, 196704, Note_on_c, 0, 86, 87
2, 196720, Note_off_c, 0, 87, 100
2, 196728, Note_on_c, 0, 87, 86
2, 196744, Note_off_c, 0, 86, 100
2, 196752, Note_on_c, 0, 86, 86
2, 196768, Note_off_c, 0, 87, 100
2, 196776, Note_on_c, 0, 87, 85
2, 196792, Note_off_c, 0, 86, 100
2, 196800, Note_on_c, 0, 86, 84
2, 196816, Note_off_c, 0, 87, 100
2, 196824, Note_on_c, 0, 87, 84
2, 196840, Note_off_c, 0, 86, 100
2, 196848, Note_on_c, 0, 86, 83
2, 196864, Note_off_c, 0, 87, 100
2, 196872, Note_on_c, 0, 87, 82
2, 196888, Note_off_c, 0, 86, 100
2, 196896, Note_on_c, 0, 86, 82
2, 196912, Note_off_c, 0, 87, 100
2, 196920, Note_on_c, 0, 87, 81
2, 196936, Note_off_c, 0, 86, 100
2, 196944, Note_on_c, 0, 84, 81
2, 196960, Note_off_c, 0, 87, 100
2, 196968, Note_on_c, 0, 86, 80
2, 196984, Note_off_c, 0, 84, 100
2, 196992, Note_on_c, 0, 87, 80
2, 197008, Note_off_c, 0, 86, 100
2, 197279, Note_off_c, 0, 87, 100
2, 197280, Note_on_c, 0, 91, 80
2, 197567, Note_off_c, 0, 91, 100
2, 197568, Note_on_c, 0, 94, 80
2, 198047, Note_off_c, 0, 94, 64
2, 198048, Note_on_c, 0, 93, 80
2, 198143, Note_off_c, 0, 93, 100
2, 198144, Note_on_c, 0, 92, 80
2, 198239, Note_off_c, 0, 92, 100
2, 198240, Note_on_c, 0, 80, 80
2, 198335, Note_off_c, 0, 80, 100
2, 198336, Note_on_c, 0, 79, 80
2, 198336, Note_on_c, 0, 70, 80
2, 198431, Note_off_c, 0, 79, 100
2, 198431, Note_off_c, 0, 70, 100
2, 198432, Note_on_c, 0, 79, 80
2, 198432, Note_on_c, 0, 72, 80
2, 198527, Note_off_c, 0, 79, 100
2, 198528, Note_on_c, 0, 77, 80
2, 198623, Note_off_c, 0, 72, 100
2, 198623, Note_off_c, 0, 77, 100
2, 198624, Note_on_c, 0, 75, 80
2, 198624, Note_on_c, 0, 72, 80
2, 198719, Note_off_c, 0, 75, 100
2, 198719, Note_off_c, 0, 72, 100
2, 198720, Note_on_c, 0, 75, 80
2, 198720, Note_on_c, 0, 68, 80
2, 198720, Note_on_c, 0, 65, 80
2, 198815, Note_off_c, 0, 75, 100
2, 198815, Note_off_c, 0, 68, 100
2, 198815, Note_off_c, 0, 65, 100
2, 198816, Note_on_c, 0, 74, 80
2, 198816, Note_on_c, 0, 68, 80
2, 198816, Note_on_c, 0, 65, 80
2, 198911, Note_off_c, 0, 68, 100
2, 198911, Note_off_c, 0, 65, 100
2, 198912, Note_on_c, 0, 68, 80
2, 198912, Note_on_c, 0, 65, 80
2, 199007, Note_off_c, 0, 74, 100
2, 199007, Note_off_c, 0, 68, 100
2, 199007, Note_off_c, 0, 65, 100
2, 199008, Note_on_c, 0, 68, 80
2, 199008, Note_on_c, 0, 65, 80
2, 199103, Note_off_c, 0, 68, 100
2, 199103, Note_off_c, 0, 65, 100
2, 199104, Note_on_c, 0, 68, 80
2, 199104, Note_on_c, 0, 65, 80
2, 199104, Note_on_c, 0, 75, 80
2, 199199, Note_off_c, 0, 68, 100
2, 199199, Note_off_c, 0, 65, 100
2, 199200, Note_on_c, 0, 68, 80
2, 199200, Note_on_c, 0, 65, 80
2, 199292, Note_off_c, 0, 75, 100
2, 199292, Note_off_c, 0, 68, 100
2, 199292, Note_off_c, 0, 65, 100
2, 199296, Note_on_c, 0, 68, 80
2, 199296, Note_on_c, 0, 65, 80
2, 199388, Note_off_c, 0, 68, 100
2, 199388, Note_off_c, 0, 65, 100
2, 199392, Note_on_c, 0, 68, 80
2, 199392, Note_on_c, 0, 65, 80
2, 199392, Note_on_c, 0, 77, 80
2, 199484, Note_off_c, 0, 68, 100
2, 199484, Note_off_c, 0, 65, 100
2, 199484, Note_off_c, 0, 77, 100
2, 199488, Note_on_c, 0, 68, 80
2, 199488, Note_on_c, 0, 65, 80
2, 199488, Note_on_c, 0, 70, 80
2, 199580, Note_off_c, 0, 68, 100
2, 199580, Note_off_c, 0, 65, 100
2, 199580, Note_off_c, 0, 70, 100
2, 199584, Note_on_c, 0, 67, 80
2, 199584, Note_on_c, 0, 70, 80
2, 199676, Note_off_c, 0, 67, 100
2, 199680, Note_on_c, 0, 67, 80
2, 199772, Note_off_c, 0, 70, 100
2, 199772, Note_off_c, 0, 67, 100
2, 199776, Note_on_c, 0, 67, 80
2, 199868, Note_off_c, 0, 67, 100
2, 199872, Note_on_c, 0, 67, 80
2, 199964, Note_off_c, 0, 67, 100
2, 199968, Note_on_c, 0, 67, 80
2, 200060, Note_off_c, 0, 67, 100
2, 200064, Note_on_c, 0, 67, 80
2, 200156, Note_off_c, 0, 67, 100
2, 200160, Note_on_c, 0, 67, 80
2, 200160, Note_on_c, 0, 63, 80
2, 200252, Note_off_c, 0, 67, 100
2, 200252, Note_off_c, 0, 63, 100
2, 200256, Note_on_c, 0, 67, 80
2, 200256, Note_on_c, 0, 63, 80
2, 200348, Note_off_c, 0, 67, 100
2, 200348, Note_off_c, 0, 63, 100
2, 200352, Note_on_c, 0, 67, 80
2, 200352, Note_on_c, 0, 63, 80
2, 200444, Note_off_c, 0, 67, 100
2, 200444, Note_off_c, 0, 63, 100
2, 200448, Note_on_c, 0, 67, 80
2, 200448, Note_on_c, 0, 65, 80
2, 200540, Note_off_c, 0, 67, 100
2, 200540, Note_off_c, 0, 65, 100
2, 200544, Note_on_c, 0, 67, 80
2, 200544, Note_on_c, 0, 65, 80
2, 200544, Note_on_c, 0, 71, 80
2, 200636, Note_off_c, 0, 67, 100
2, 200636, Note_off_c, 0, 65, 100
2, 200640, Note_on_c, 0, 67, 80
2, 200640, Note_on_c, 0, 65, 80
2, 200732, Note_off_c, 0, 71, 100
2, 200732, Note_off_c, 0, 67, 100
2, 200732, Note_off_c, 0, 65, 100
2, 200736, Note_on_c, 0, 67, 80
2, 200736, Note_on_c, 0, 65, 80
2, 200828, Note_off_c, 0, 67, 100
2, 200828, Note_off_c, 0, 65, 100
2, 200832, Note_on_c, 0, 67, 80
2, 200832, Note_on_c, 0, 65, 80
2, 200832, Note_on_c, 0, 72, 80
2, 200924, Note_off_c, 0, 67, 100
2, 200924, Note_off_c, 0, 65, 100
2, 200928, Note_on_c, 0, 67, 80
2, 200928, Note_on_c, 0, 65, 80
2, 201020, Note_off_c, 0, 72, 100
2, 201020, Note_off_c, 0, 67, 100
2, 201020, Note_off_c, 0, 65, 100
2, 201024, Note_on_c, 0, 67, 80
2, 201024, Note_on_c, 0, 65, 80
2, 201116, Note_off_c, 0, 67, 100
2, 201116, Note_off_c, 0, 65, 100
2, 201120, Note_on_c, 0, 67, 80
2, 201120, Note_on_c, 0, 65, 80
2, 201120, Note_on_c, 0, 74, 80
2, 201212, Note_off_c, 0, 67, 100
2, 201212, Note_off_c, 0, 65, 100
2, 201212, Note_off_c, 0, 74, 100
2, 201216, Note_on_c, 0, 67, 80
2, 201216, Note_on_c, 0, 65, 80
2, 201308, Note_off_c, 0, 67, 100
2, 201308, Note_off_c, 0, 65, 100
2, 201312, Note_on_c, 0, 67, 80
2, 201312, Note_on_c, 0, 63, 80
2, 201404, Note_off_c, 0, 63, 100
2, 201408, Note_on_c, 0, 63, 80
2, 201500, Note_off_c, 0, 67, 100
2, 201500, Note_off_c, 0, 63, 100
2, 201504, Note_on_c, 0, 63, 80
2, 201596, Note_off_c, 0, 63, 100
2, 201600, Note_on_c, 0, 63, 80
2, 201692, Note_off_c, 0, 63, 100
2, 201696, Note_on_c, 0, 63, 80
2, 201788, Note_off_c, 0, 63, 100
2, 201792, Note_on_c, 0, 63, 80
2, 201884, Note_off_c, 0, 63, 100
2, 201888, Note_on_c, 0, 63, 80
2, 201888, Note_on_c, 0, 60, 80
2, 201980, Note_off_c, 0, 63, 100
2, 201980, Note_off_c, 0, 60, 100
2, 201984, Note_on_c, 0, 63, 80
2, 201984, Note_on_c, 0, 60, 80
2, 202076, Note_off_c, 0, 63, 100
2, 202076, Note_off_c, 0, 60, 100
2, 202080, Note_on_c, 0, 63, 80
2, 202080, Note_on_c, 0, 60, 80
2, 202172, Note_off_c, 0, 63, 100
2, 202172, Note_off_c, 0, 60, 100
2, 202176, Note_on_c, 0, 61, 80
2, 202176, Note_on_c, 0, 63, 80
2, 202268, Note_off_c, 0, 61, 100
2, 202268, Note_off_c, 0, 63, 100
2, 202272, Note_on_c, 0, 61, 80
2, 202272, Note_on_c, 0, 63, 80
2, 202272, Note_on_c, 0, 67, 80
2, 202364, Note_off_c, 0, 61, 100
2, 202364, Note_off_c, 0, 63, 100
2, 202368, Note_on_c, 0, 61, 80
2, 202368, Note_on_c, 0, 63, 80
2, 202460, Note_off_c, 0, 67, 100
2, 202460, Note_off_c, 0, 61, 100
2, 202460, Note_off_c, 0, 63, 100
2, 202464, Note_on_c, 0, 61, 80
2, 202464, Note_on_c, 0, 63, 80
2, 202556, Note_off_c, 0, 61, 100
2, 202556, Note_off_c, 0, 63, 100
2, 202560, Note_on_c, 0, 61, 80
2, 202560, Note_on_c, 0, 63, 80
2, 202560, Note_on_c, 0, 68, 80
2, 202652, Note_off_c, 0, 61, 100
2, 202652, Note_off_c, 0, 63, 100
2, 202656, Note_on_c, 0, 61, 80
2, 202656, Note_on_c, 0, 63, 80
2, 202748, Note_off_c, 0, 68, 100
2, 202748, Note_off_c, 0, 61, 100
2, 202748, Note_off_c, 0, 63, 100
2, 202752, Note_on_c, 0, 61, 80
2, 202752, Note_on_c, 0, 63, 80
2, 202844, Note_off_c, 0, 61, 100
2, 202844, Note_off_c, 0, 63, 100
2, 202848, Note_on_c, 0, 61, 80
2, 202848, Note_on_c, 0, 63, 80
2, 202848, Note_on_c, 0, 70, 80
2, 202940, Note_off_c, 0, 61, 100
2, 202940, Note_off_c, 0, 63, 100
2, 202940, Note_off_c, 0, 70, 100
2, 202944, Note_on_c, 0, 61, 80
2, 202944, Note_on_c, 0, 63, 80
2, 203036, Note_off_c, 0, 61, 100
2, 203036, Note_off_c, 0, 63, 100
2, 203040, Note_on_c, 0, 61, 80
2, 203040, Note_on_c, 0, 63, 80
2, 203132, Note_off_c, 0, 61, 100
2, 203136, Note_on_c, 0, 60, 80
2, 203228, Note_off_c, 0, 63, 100
2, 203228, Note_off_c, 0, 60, 100
2, 203232, Note_on_c, 0, 60, 80
2, 203232, Note_on_c, 0, 63, 80
2, 203324, Note_off_c, 0, 60, 100
2, 203324, Note_off_c, 0, 63, 100
2, 203328, Note_on_c, 0, 60, 80
2, 203328, Note_on_c, 0, 63, 80
2, 203420, Note_off_c, 0, 60, 100
2, 203420, Note_off_c, 0, 63, 100
2, 203424, Note_on_c, 0, 60, 80
2, 203424, Note_on_c, 0, 62, 80
2, 203424, Note_on_c, 0, 69, 80
2, 203516, Note_off_c, 0, 60, 100
2, 203516, Note_off_c, 0, 62, 100
2, 203516, Note_off_c, 0, 69, 100
2, 203520, Note_on_c, 0, 60, 80
2, 203520, Note_on_c, 0, 62, 80
2, 203612, Note_off_c, 0, 60, 100
2, 203612, Note_off_c, 0, 62, 100
2, 203616, Note_on_c, 0, 60, 80
2, 203616, Note_on_c, 0, 62, 80
2, 203708, Note_off_c, 0, 60, 100
2, 203712, Note_on_c, 0, 59, 80
2, 203804, Note_off_c, 0, 62, 100
2, 203804, Note_off_c, 0, 59, 100
2, 203808, Note_on_c, 0, 59, 80
2, 203808, Note_on_c, 0, 62, 80
2, 203900, Note_off_c, 0, 59, 100
2, 203900, Note_off_c, 0, 62, 100
2, 203904, Note_on_c, 0, 61, 80
2, 203904, Note_on_c, 0, 58, 80
2, 203996, Note_off_c, 0, 61, 100
2, 203996, Note_off_c, 0, 58, 100
2, 204000, Note_on_c, 0, 67, 80
2, 204000, Note_on_c, 0, 61, 80
2, 204000, Note_on_c, 0, 58, 80
2, 204092, Note_off_c, 0, 67, 100
2, 204092, Note_off_c, 0, 61, 100
2, 204092, Note_off_c, 0, 58, 100
2, 204096, Note_on_c, 0, 60, 80
2, 204096, Note_on_c, 0, 58, 80
2, 204188, Note_off_c, 0, 60, 100
2, 204188, Note_off_c, 0, 58, 100
2, 204192, Note_on_c, 0, 58, 80
2, 204192, Note_on_c, 0, 60, 80
2, 204284, Note_off_c, 0, 58, 100
2, 204288, Note_on_c, 0, 57, 80
2, 204380, Note_off_c, 0, 60, 100
2, 204380, Note_off_c, 0, 57, 100
2, 204384, Note_on_c, 0, 57, 80
2, 204384, Note_on_c, 0, 60, 80
2, 204476, Note_off_c, 0, 57, 100
2, 204476, Note_off_c, 0, 60, 100
2, 204480, Note_on_c, 0, 59, 80
2, 204480, Note_on_c, 0, 56, 80
2, 204572, Note_off_c, 0, 59, 100
2, 204572, Note_off_c, 0, 56, 100
2, 204576, Note_on_c, 0, 65, 80
2, 204576, Note_on_c, 0, 56, 80
2, 204576, Note_on_c, 0, 58, 80
2, 204668, Note_off_c, 0, 65, 100
2, 204668, Note_off_c, 0, 56, 100
2, 204668, Note_off_c, 0, 58, 100
2, 204672, Note_on_c, 0, 58, 80
2, 204672, Note_on_c, 0, 56, 80
2, 204764, Note_off_c, 0, 58, 100
2, 204764, Note_off_c, 0, 56, 100
2, 204768, Note_on_c, 0, 58, 80
2, 204768, Note_on_c, 0, 56, 80
2, 204860, Note_off_c, 0, 56, 100
2, 204864, Note_on_c, 0, 55, 80
2, 204956, Note_off_c, 0, 58, 100
2, 204956, Note_off_c, 0, 55, 100
2, 204960, Note_on_c, 0, 58, 80
2, 204960, Note_on_c, 0, 55, 80
2, 205052, Note_off_c, 0, 58, 100
2, 205052, Note_off_c, 0, 55, 100
2, 205056, Note_on_c, 0, 58, 80
2, 205056, Note_on_c, 0, 55, 80
2, 205148, Note_off_c, 0, 58, 100
2, 205148, Note_off_c, 0, 55, 100
2, 205152, Note_on_c, 0, 63, 80
2, 205152, Note_on_c, 0, 55, 80
2, 205244, Note_off_c, 0, 63, 100
2, 205244, Note_off_c, 0, 55, 100
2, 205248, Note_on_c, 0, 57, 80
2, 205248, Note_on_c, 0, 55, 80
2, 205340, Note_off_c, 0, 57, 100
2, 205340, Note_off_c, 0, 55, 100
2, 205344, Note_on_c, 0, 57, 80
2, 205344, Note_on_c, 0, 55, 80
2, 205436, Note_off_c, 0, 55, 100
2, 205440, Note_on_c, 0, 54, 80
2, 205532, Note_off_c, 0, 57, 100
2, 205532, Note_off_c, 0, 54, 100
2, 205536, Note_on_c, 0, 62, 80
2, 205536, Note_on_c, 0, 56, 80
2, 205536, Note_on_c, 0, 54, 80
2, 205628, Note_off_c, 0, 62, 100
2, 205628, Note_off_c, 0, 56, 100
2, 205628, Note_off_c, 0, 54, 100
2, 205632, Note_on_c, 0, 62, 80
2, 205632, Note_on_c, 0, 56, 80
2, 205632, Note_on_c, 0, 53, 80
2, 205724, Note_off_c, 0, 62, 100
2, 205724, Note_off_c, 0, 56, 100
2, 205724, Note_off_c, 0, 53, 100
2, 205728, Note_on_c, 0, 62, 80
2, 205728, Note_on_c, 0, 55, 80
2, 205728, Note_on_c, 0, 53, 80
2, 205820, Note_off_c, 0, 62, 100
2, 205820, Note_off_c, 0, 55, 100
2, 205820, Note_off_c, 0, 53, 100
2, 205824, Note_on_c, 0, 55, 80
2, 205824, Note_on_c, 0, 53, 80
2, 205916, Note_off_c, 0, 55, 100
2, 205916, Note_off_c, 0, 53, 100
2, 205920, Note_on_c, 0, 55, 80
2, 205920, Note_on_c, 0, 53, 80
2, 206012, Note_off_c, 0, 55, 100
2, 206012, Note_off_c, 0, 53, 100
2, 206016, Note_on_c, 0, 55, 80
2, 206016, Note_on_c, 0, 51, 80
2, 206108, Note_off_c, 0, 55, 100
2, 206108, Note_off_c, 0, 51, 100
2, 206112, Note_on_c, 0, 60, 80
2, 206112, Note_on_c, 0, 55, 80
2, 206112, Note_on_c, 0, 51, 80
2, 206204, Note_off_c, 0, 60, 100
2, 206204, Note_off_c, 0, 55, 100
2, 206204, Note_off_c, 0, 51, 100
2, 206208, Note_on_c, 0, 60, 80
2, 206208, Note_on_c, 0, 54, 80
2, 206208, Note_on_c, 0, 51, 80
2, 206300, Note_off_c, 0, 60, 100
2, 206300, Note_off_c, 0, 54, 100
2, 206300, Note_off_c, 0, 51, 100
2, 206304, Note_on_c, 0, 60, 80
2, 206304, Note_on_c, 0, 53, 80
2, 206304, Note_on_c, 0, 51, 80
2, 206396, Note_off_c, 0, 60, 100
2, 206396, Note_off_c, 0, 53, 100
2, 206396, Note_off_c, 0, 51, 100
2, 206400, Note_on_c, 0, 53, 80
2, 206400, Note_on_c, 0, 51, 80
2, 206492, Note_off_c, 0, 53, 100
2, 206492, Note_off_c, 0, 51, 100
2, 206496, Note_on_c, 0, 53, 80
2, 206496, Note_on_c, 0, 51, 80
2, 206588, Note_off_c, 0, 53, 100
2, 206588, Note_off_c, 0, 51, 100
2, 206592, Note_on_c, 0, 53, 80
2, 206592, Note_on_c, 0, 49, 80
2, 206684, Note_off_c, 0, 53, 100
2, 206684, Note_off_c, 0, 49, 100
2, 206688, Note_on_c, 0, 58, 80
2, 206688, Note_on_c, 0, 49, 80
2, 206688, Note_on_c, 0, 53, 80
2, 206780, Note_off_c, 0, 58, 100
2, 206780, Note_off_c, 0, 49, 100
2, 206780, Note_off_c, 0, 53, 100
2, 206784, Note_on_c, 0, 58, 80
2, 206784, Note_on_c, 0, 51, 80
2, 206784, Note_on_c, 0, 49, 80
2, 206876, Note_off_c, 0, 58, 100
2, 206876, Note_off_c, 0, 51, 100
2, 206876, Note_off_c, 0, 49, 100
2, 206880, Note_on_c, 0, 58, 80
2, 206880, Note_on_c, 0, 51, 80
2, 206880, Note_on_c, 0, 49, 80
2, 206972, Note_off_c, 0, 58, 100
2, 206972, Note_off_c, 0, 51, 100
2, 206972, Note_off_c, 0, 49, 100
2, 206976, Note_on_c, 0, 51, 80
2, 206976, Note_on_c, 0, 49, 80
2, 207068, Note_off_c, 0, 51, 100
2, 207068, Note_off_c, 0, 49, 100
2, 207072, Note_on_c, 0, 51, 80
2, 207072, Note_on_c, 0, 48, 80
2, 207164, Note_off_c, 0, 51, 100
2, 207164, Note_off_c, 0, 48, 100
2, 207168, Note_on_c, 0, 51, 80
2, 207168, Note_on_c, 0, 48, 80
2, 207260, Note_off_c, 0, 51, 100
2, 207260, Note_off_c, 0, 48, 100
2, 207264, Note_on_c, 0, 60, 81
2, 207264, Note_on_c, 0, 51, 81
2, 207356, Note_off_c, 0, 60, 100
2, 207356, Note_off_c, 0, 51, 100
2, 207360, Note_on_c, 0, 63, 81
2, 207360, Note_on_c, 0, 60, 81
2, 207452, Note_off_c, 0, 63, 100
2, 207452, Note_off_c, 0, 60, 100
2, 207456, Note_on_c, 0, 63, 82
2, 207456, Note_on_c, 0, 60, 82
2, 207548, Note_off_c, 0, 63, 100
2, 207548, Note_off_c, 0, 60, 100
2, 207552, Note_on_c, 0, 72, 83
2, 207552, Note_on_c, 0, 63, 83
2, 207644, Note_off_c, 0, 72, 100
2, 207644, Note_off_c, 0, 63, 100
2, 207648, Note_on_c, 0, 72, 83
2, 207648, Note_on_c, 0, 62, 83
2, 207740, Note_off_c, 0, 72, 100
2, 207740, Note_off_c, 0, 62, 100
2, 207744, Note_on_c, 0, 72, 84
2, 207744, Note_on_c, 0, 62, 84
2, 207836, Note_off_c, 0, 72, 100
2, 207836, Note_off_c, 0, 62, 100
2, 207840, Note_on_c, 0, 71, 85
2, 207840, Note_on_c, 0, 62, 85
2, 207932, Note_off_c, 0, 71, 100
2, 207932, Note_off_c, 0, 62, 100
2, 207936, Key_signature, 0, "major"
2, 207936, Note_on_c, 0, 72, 85
2, 207936, Note_on_c, 0, 64, 85
2, 207936, Note_on_c, 0, 60, 85
2, 208028, Note_off_c, 0, 64, 100
2, 208028, Note_off_c, 0, 60, 100
2, 208032, Note_on_c, 0, 64, 86
2, 208032, Note_on_c, 0, 60, 86
2, 208124, Note_off_c, 0, 72, 100
2, 208124, Note_off_c, 0, 64, 100
2, 208124, Note_off_c, 0, 60, 100
2, 208128, Note_on_c, 0, 67, 86
2, 208128, Note_on_c, 0, 64, 86
2, 208128, Note_on_c, 0, 60, 86
2, 208220, Note_off_c, 0, 67, 100
2, 208220, Note_off_c, 0, 64, 100
2, 208220, Note_off_c, 0, 60, 100
2, 208224, Note_on_c, 0, 67, 87
2, 208224, Note_on_c, 0, 64, 87
2, 208316, Note_off_c, 0, 64, 100
2, 208320, Note_on_c, 0, 62, 88
2, 208412, Note_off_c, 0, 62, 100
2, 208416, Note_on_c, 0, 64, 88
2, 208508, Note_off_c, 0, 64, 100
2, 208512, Note_on_c, 0, 65, 89
2, 208604, Note_off_c, 0, 65, 100
2, 208608, Note_on_c, 0, 64, 90
2, 208700, Note_off_c, 0, 64, 100
2, 208704, Note_on_c, 0, 65, 90
2, 208796, Note_off_c, 0, 67, 100
2, 208796, Note_off_c, 0, 65, 100
2, 208800, Note_on_c, 0, 62, 91
2, 208800, Note_on_c, 0, 74, 91
2, 208892, Note_off_c, 0, 62, 100
2, 208896, Note_on_c, 0, 60, 91
2, 208988, Note_off_c, 0, 74, 100
2, 208988, Note_off_c, 0, 60, 100
2, 208992, Note_on_c, 0, 62, 92
2, 208992, Note_on_c, 0, 65, 92
2, 208992, Note_on_c, 0, 67, 92
2, 209084, Note_off_c, 0, 62, 100
2, 209084, Note_off_c, 0, 65, 100
2, 209084, Note_off_c, 0, 67, 100
2, 209088, Note_on_c, 0, 67, 93
2, 209088, Note_on_c, 0, 62, 93
2, 209180, Note_off_c, 0, 62, 100
2, 209184, Note_on_c, 0, 64, 93
2, 209276, Note_off_c, 0, 64, 100
2, 209280, Note_on_c, 0, 62, 94
2, 209372, Note_off_c, 0, 62, 100
2, 209376, Note_on_c, 0, 64, 95
2, 209468, Note_off_c, 0, 64, 100
2, 209472, Note_on_c, 0, 65, 95
2, 209564, Note_off_c, 0, 65, 100
2, 209568, Note_on_c, 0, 64, 96
2, 209660, Note_off_c, 0, 67, 100
2, 209660, Note_off_c, 0, 64, 100
2, 209664, Note_on_c, 0, 65, 96
2, 209664, Note_on_c, 0, 67, 96
2, 209756, Note_off_c, 0, 65, 100
2, 209760, Note_on_c, 0, 64, 97
2, 209852, Note_off_c, 0, 64, 100
2, 209856, Note_on_c, 0, 65, 98
2, 209948, Note_off_c, 0, 67, 100
2, 209948, Note_off_c, 0, 65, 100
2, 209952, Note_on_c, 0, 60, 98
2, 209952, Note_on_c, 0, 67, 98
2, 210044, Note_off_c, 0, 60, 100
2, 210048, Note_on_c, 0, 59, 99
2, 210140, Note_off_c, 0, 59, 100
2, 210144, Note_on_c, 0, 60, 100
2, 210236, Note_off_c, 0, 67, 100
2, 210236, Note_off_c, 0, 60, 100
2, 210240, Note_on_c, 0, 76, 100
2, 210240, Note_on_c, 0, 64, 100
2, 210332, Note_off_c, 0, 64, 100
2, 210336, Note_on_c, 0, 62, 101
2, 210428, Note_off_c, 0, 62, 100
2, 210432, Note_on_c, 0, 64, 102
2, 210524, Note_off_c, 0, 76, 100
2, 210524, Note_off_c, 0, 64, 100
2, 210528, Note_on_c, 0, 72, 102
2, 210528, Note_on_c, 0, 67, 102
2, 210620, Note_off_c, 0, 67, 100
2, 210624, Note_on_c, 0, 65, 103
2, 210716, Note_off_c, 0, 65, 100
2, 210720, Note_on_c, 0, 64, 103
2, 210812, Note_off_c, 0, 72, 100
2, 210812, Note_off_c, 0, 64, 100
2, 210816, Note_on_c, 0, 64, 104
2, 210816, Note_on_c, 0, 72, 104
2, 210908, Note_off_c, 0, 64, 100
2, 210912, Note_on_c, 0, 63, 105
2, 211004, Note_off_c, 0, 63, 100
2, 211008, Note_on_c, 0, 64, 105
2, 211100, Note_off_c, 0, 72, 100
2, 211100, Note_off_c, 0, 64, 100
2, 211104, Note_on_c, 0, 71, 106
2, 211104, Note_on_c, 0, 62, 106
2, 211196, Note_off_c, 0, 62, 100
2, 211200, Note_on_c, 0, 62, 107
2, 211292, Note_off_c, 0, 62, 100
2, 211296, Note_on_c, 0, 62, 107
2, 211388, Note_off_c, 0, 71, 100
2, 211388, Note_off_c, 0, 62, 100
2, 211392, Note_on_c, 0, 71, 108
2, 211392, Note_on_c, 0, 67, 108
2, 211392, Note_on_c, 0, 62, 108
2, 211484, Note_off_c, 0, 67, 100
2, 211484, Note_off_c, 0, 62, 100
2, 211488, Note_on_c, 0, 67, 108
2, 211488, Note_on_c, 0, 62, 108
2, 211580, Note_off_c, 0, 67, 100
2, 211580, Note_off_c, 0, 62, 100
2, 211584, Note_on_c, 0, 67, 109
2, 211584, Note_on_c, 0, 62, 109
2, 211676, Note_off_c, 0, 71, 100
2, 211676, Note_off_c, 0, 67, 100
2, 211676, Note_off_c, 0, 62, 100
2, 211680, Note_on_c, 0, 67, 110
2, 211680, Note_on_c, 0, 72, 110
2, 211772, Note_off_c, 0, 67, 100
2, 211776, Note_on_c, 0, 66, 110
2, 211868, Note_off_c, 0, 66, 100
2, 211872, Note_on_c, 0, 67, 110
2, 211964, Note_off_c, 0, 72, 100
2, 211964, Note_off_c, 0, 67, 100
2, 211968, Note_on_c, 0, 64, 110
2, 211968, Note_on_c, 0, 76, 110
2, 212060, Note_off_c, 0, 64, 100
2, 212064, Note_on_c, 0, 67, 110
2, 212156, Note_off_c, 0, 67, 100
2, 212160, Note_on_c, 0, 67, 110
2, 212252, Note_off_c, 0, 76, 100
2, 212252, Note_off_c, 0, 67, 100
2, 212256, Note_on_c, 0, 74, 110
2, 212256, Note_on_c, 0, 79, 110
2, 212348, Note_off_c, 0, 74, 100
2, 212352, Note_on_c, 0, 73, 110
2, 212444, Note_off_c, 0, 73, 100
2, 212448, Note_on_c, 0, 74, 110
2, 212540, Note_off_c, 0, 79, 100
2, 212540, Note_off_c, 0, 74, 100
2, 212544, Note_on_c, 0, 79, 110
2, 212544, Note_on_c, 0, 73, 110
2, 212636, Note_off_c, 0, 73, 100
2, 212640, Note_on_c, 0, 71, 107
2, 212732, Note_off_c, 0, 71, 100
2, 212736, Note_on_c, 0, 73, 104
2, 212828, Note_off_c, 0, 79, 100
2, 212828, Note_off_c, 0, 73, 100
2, 212832, Note_on_c, 0, 77, 100
2, 212832, Note_on_c, 0, 74, 100
2, 212924, Note_off_c, 0, 74, 100
2, 212928, Note_on_c, 0, 73, 97
2, 213020, Note_off_c, 0, 73, 100
2, 213024, Note_on_c, 0, 74, 93
2, 213116, Note_off_c, 0, 77, 100
2, 213116, Note_off_c, 0, 74, 100
2, 213120, Note_on_c, 0, 74, 90
2, 213120, Note_on_c, 0, 65, 90
2, 213212, Note_off_c, 0, 65, 100
2, 213216, Note_on_c, 0, 65, 86
2, 213308, Note_off_c, 0, 74, 100
2, 213308, Note_off_c, 0, 65, 100
2, 213312, Note_on_c, 0, 72, 83
2, 213312, Note_on_c, 0, 66, 83
2, 213404, Note_off_c, 0, 72, 100
2, 213404, Note_off_c, 0, 66, 100
2, 213408, Note_on_c, 0, 67, 80
2, 213408, Note_on_c, 0, 71, 80
2, 213500, Note_off_c, 0, 67, 100
2, 213504, Note_on_c, 0, 69, 81
2, 213596, Note_off_c, 0, 69, 100
2, 213600, Note_on_c, 0, 67, 89
2, 213692, Note_off_c, 0, 71, 100
2, 213692, Note_off_c, 0, 67, 100
2, 213696, Note_on_c, 0, 72, 91
2, 213696, Note_on_c, 0, 66, 91
2, 213788, Note_off_c, 0, 66, 100
2, 213792, Note_on_c, 0, 67, 94
2, 213884, Note_off_c, 0, 67, 100
2, 213888, Note_on_c, 0, 66, 97
2, 213980, Note_off_c, 0, 72, 100
2, 213980, Note_off_c, 0, 66, 100
2, 213984, Note_on_c, 0, 74, 87
2, 213984, Note_on_c, 0, 65, 80
2, 214076, Note_off_c, 0, 65, 100
2, 214080, Note_on_c, 0, 65, 80
2, 214172, Note_off_c, 0, 74, 100
2, 214172, Note_off_c, 0, 65, 100
2, 214176, Note_on_c, 0, 67, 80
2, 214176, Note_on_c, 0, 65, 80
2, 214268, Note_off_c, 0, 67, 100
2, 214268, Note_off_c, 0, 65, 100
2, 214272, Note_on_c, 0, 65, 80
2, 214272, Note_on_c, 0, 62, 80
2, 214272, Note_on_c, 0, 67, 80
2, 214364, Note_off_c, 0, 65, 100
2, 214364, Note_off_c, 0, 62, 100
2, 214368, Note_on_c, 0, 64, 80
2, 214368, Note_on_c, 0, 60, 80
2, 214460, Note_off_c, 0, 64, 100
2, 214460, Note_off_c, 0, 60, 100
2, 214464, Note_on_c, 0, 65, 80
2, 214464, Note_on_c, 0, 59, 80
2, 214556, Note_off_c, 0, 65, 100
2, 214556, Note_off_c, 0, 59, 100
2, 214560, Note_on_c, 0, 65, 80
2, 214560, Note_on_c, 0, 59, 80
2, 214652, Note_off_c, 0, 65, 100
2, 214652, Note_off_c, 0, 59, 100
2, 214656, Note_on_c, 0, 64, 80
2, 214656, Note_on_c, 0, 60, 80
2, 214748, Note_off_c, 0, 67, 100
2, 214748, Note_off_c, 0, 64, 100
2, 214748, Note_off_c, 0, 60, 100
2, 214752, Note_on_c, 0, 64, 80
2, 214752, Note_on_c, 0, 62, 80
2, 214844, Note_off_c, 0, 64, 100
2, 214844, Note_off_c, 0, 62, 100
2, 214848, Note_on_c, 0, 64, 80
2, 214848, Note_on_c, 0, 62, 80
2, 214940, Note_off_c, 0, 62, 100
2, 214944, Note_on_c, 0, 60, 80
2, 215036, Note_off_c, 0, 64, 100
2, 215036, Note_off_c, 0, 60, 100
2, 215040, Note_on_c, 0, 64, 80
2, 215040, Note_on_c, 0, 59, 80
2, 215132, Note_off_c, 0, 64, 100
2, 215132, Note_off_c, 0, 59, 100
2, 215136, Note_on_c, 0, 64, 80
2, 215136, Note_on_c, 0, 60, 80
2, 215136, Note_on_c, 0, 72, 80
2, 215228, Note_off_c, 0, 64, 100
2, 215228, Note_off_c, 0, 60, 100
2, 215232, Note_on_c, 0, 64, 81
2, 215324, Note_off_c, 0, 64, 100
2, 215328, Note_on_c, 0, 64, 82
2, 215420, Note_off_c, 0, 64, 100
2, 215424, Note_on_c, 0, 64, 83
2, 215516, Note_off_c, 0, 64, 100
2, 215520, Note_on_c, 0, 64, 84
2, 215612, Note_off_c, 0, 64, 100
2, 215616, Note_on_c, 0, 64, 85
2, 215708, Note_off_c, 0, 72, 100
2, 215708, Note_off_c, 0, 64, 100
2, 215712, Note_on_c, 0, 64, 86
2, 215712, Note_on_c, 0, 72, 86
2, 215804, Note_off_c, 0, 64, 100
2, 215808, Note_on_c, 0, 64, 87
2, 215900, Note_off_c, 0, 72, 100
2, 215900, Note_off_c, 0, 64, 100
2, 215904, Note_on_c, 0, 64, 88
2, 215904, Note_on_c, 0, 71, 88
2, 215996, Note_off_c, 0, 64, 100
2, 215996, Note_off_c, 0, 71, 100
2, 216000, Note_on_c, 0, 71, 90
2, 216000, Note_on_c, 0, 64, 90
2, 216092, Note_off_c, 0, 64, 100
2, 216096, Note_on_c, 0, 64, 91
2, 216188, Note_off_c, 0, 64, 100
2, 216192, Note_on_c, 0, 64, 92
2, 216284, Note_off_c, 0, 64, 100
2, 216288, Note_on_c, 0, 64, 93
2, 216380, Note_off_c, 0, 64, 100
2, 216384, Note_on_c, 0, 64, 94
2, 216476, Note_off_c, 0, 64, 100
2, 216480, Note_on_c, 0, 64, 95
2, 216572, Note_off_c, 0, 71, 100
2, 216572, Note_off_c, 0, 64, 100
2, 216576, Note_on_c, 0, 71, 96
2, 216576, Note_on_c, 0, 64, 96
2, 216668, Note_off_c, 0, 64, 100
2, 216672, Note_on_c, 0, 64, 97
2, 216764, Note_off_c, 0, 71, 100
2, 216764, Note_off_c, 0, 64, 100
2, 216768, Note_on_c, 0, 76, 99
2, 216768, Note_on_c, 0, 64, 99
2, 216860, Note_off_c, 0, 76, 100
2, 216860, Note_off_c, 0, 64, 100
2, 216864, Note_on_c, 0, 76, 100
2, 216864, Note_on_c, 0, 71, 100
2, 216864, Note_on_c, 0, 64, 100
2, 216956, Note_off_c, 0, 71, 100
2, 216956, Note_off_c, 0, 64, 100
2, 216960, Note_on_c, 0, 71, 101
2, 216960, Note_on_c, 0, 64, 101
2, 217052, Note_off_c, 0, 71, 100
2, 217052, Note_off_c, 0, 64, 100
2, 217056, Note_on_c, 0, 71, 102
2, 217056, Note_on_c, 0, 64, 102
2, 217148, Note_off_c, 0, 76, 100
2, 217148, Note_off_c, 0, 71, 100
2, 217148, Note_off_c, 0, 64, 100
2, 217152, Note_on_c, 0, 76, 103
2, 217152, Note_on_c, 0, 72, 103
2, 217152, Note_on_c, 0, 64, 103
2, 217244, Note_off_c, 0, 72, 100
2, 217244, Note_off_c, 0, 64, 100
2, 217248, Note_on_c, 0, 72, 104
2, 217248, Note_on_c, 0, 64, 104
2, 217340, Note_off_c, 0, 72, 100
2, 217340, Note_off_c, 0, 64, 100
2, 217344, Note_on_c, 0, 72, 105
2, 217344, Note_on_c, 0, 64, 105
2, 217436, Note_off_c, 0, 76, 100
2, 217436, Note_off_c, 0, 72, 100
2, 217436, Note_off_c, 0, 64, 100
2, 217440, Note_on_c, 0, 74, 106
2, 217440, Note_on_c, 0, 71, 106
2, 217532, Note_off_c, 0, 71, 100
2, 217536, Note_on_c, 0, 68, 108
2, 217628, Note_off_c, 0, 74, 100
2, 217628, Note_off_c, 0, 68, 100
2, 217632, Note_on_c, 0, 72, 109
2, 217632, Note_on_c, 0, 69, 109
2, 217724, Note_off_c, 0, 72, 100
2, 217724, Note_off_c, 0, 69, 100
2, 217728, Note_on_c, 0, 72, 110
2, 217728, Note_on_c, 0, 69, 110
2, 217728, Note_on_c, 0, 64, 110
2, 217820, Note_off_c, 0, 69, 100
2, 217820, Note_off_c, 0, 64, 100
2, 217824, Note_on_c, 0, 69, 105
2, 217824, Note_on_c, 0, 64, 105
2, 217916, Note_off_c, 0, 69, 100
2, 217916, Note_off_c, 0, 64, 100
2, 217920, Note_on_c, 0, 69, 100
2, 217920, Note_on_c, 0, 64, 100
2, 218012, Note_off_c, 0, 72, 100
2, 218012, Note_off_c, 0, 69, 100
2, 218012, Note_off_c, 0, 64, 100
2, 218016, Note_on_c, 0, 71, 95
2, 218016, Note_on_c, 0, 68, 95
2, 218016, Note_on_c, 0, 64, 95
2, 218108, Note_off_c, 0, 68, 100
2, 218108, Note_off_c, 0, 64, 100
2, 218112, Note_on_c, 0, 68, 89
2, 218112, Note_on_c, 0, 64, 89
2, 218204, Note_off_c, 0, 68, 100
2, 218204, Note_off_c, 0, 64, 100
2, 218208, Note_on_c, 0, 64, 84
2, 218208, Note_on_c, 0, 68, 84
2, 218300, Note_off_c, 0, 71, 100
2, 218300, Note_off_c, 0, 64, 100
2, 218300, Note_off_c, 0, 68, 100
2, 218304, Note_on_c, 0, 72, 80
2, 218304, Note_on_c, 0, 69, 80
2, 218304, Note_on_c, 0, 64, 80
2, 218396, Note_off_c, 0, 69, 100
2, 218396, Note_off_c, 0, 64, 100
2, 218400, Note_on_c, 0, 69, 81
2, 218400, Note_on_c, 0, 64, 81
2, 218492, Note_off_c, 0, 69, 100
2, 218492, Note_off_c, 0, 64, 100
2, 218496, Note_on_c, 0, 69, 82
2, 218496, Note_on_c, 0, 64, 82
2, 218588, Note_off_c, 0, 72, 100
2, 218588, Note_off_c, 0, 69, 100
2, 218588, Note_off_c, 0, 64, 100
2, 218592, Note_on_c, 0, 74, 83
2, 218592, Note_on_c, 0, 71, 83
2, 218592, Note_on_c, 0, 67, 83
2, 218684, Note_off_c, 0, 71, 100
2, 218684, Note_off_c, 0, 67, 100
2, 218688, Note_on_c, 0, 71, 84
2, 218688, Note_on_c, 0, 67, 84
2, 218780, Note_off_c, 0, 71, 100
2, 218780, Note_off_c, 0, 67, 100
2, 218784, Note_on_c, 0, 71, 85
2, 218784, Note_on_c, 0, 67, 85
2, 218876, Note_off_c, 0, 71, 100
2, 218876, Note_off_c, 0, 67, 100
2, 218880, Note_on_c, 0, 71, 86
2, 218880, Note_on_c, 0, 67, 86
2, 218972, Note_off_c, 0, 71, 100
2, 218972, Note_off_c, 0, 67, 100
2, 218976, Note_on_c, 0, 71, 87
2, 218976, Note_on_c, 0, 67, 87
2, 219068, Note_off_c, 0, 71, 100
2, 219068, Note_off_c, 0, 67, 100
2, 219072, Note_on_c, 0, 71, 88
2, 219072, Note_on_c, 0, 67, 88
2, 219164, Note_off_c, 0, 74, 100
2, 219164, Note_off_c, 0, 71, 100
2, 219164, Note_off_c, 0, 67, 100
2, 219168, Note_on_c, 0, 74, 89
2, 219168, Note_on_c, 0, 71, 89
2, 219168, Note_on_c, 0, 65, 89
2, 219260, Note_off_c, 0, 71, 100
2, 219260, Note_off_c, 0, 65, 100
2, 219264, Note_on_c, 0, 71, 90
2, 219264, Note_on_c, 0, 65, 90
2, 219356, Note_off_c, 0, 71, 100
2, 219356, Note_off_c, 0, 65, 100
2, 219360, Note_on_c, 0, 71, 91
2, 219360, Note_on_c, 0, 65, 91
2, 219452, Note_off_c, 0, 74, 100
2, 219452, Note_off_c, 0, 71, 100
2, 219452, Note_off_c, 0, 65, 100
2, 219456, Note_on_c, 0, 76, 92
2, 219456, Note_on_c, 0, 70, 92
2, 219456, Note_on_c, 0, 64, 92
2, 219548, Note_off_c, 0, 70, 100
2, 219548, Note_off_c, 0, 64, 100
2, 219552, Note_on_c, 0, 70, 93
2, 219552, Note_on_c, 0, 64, 93
2, 219644, Note_off_c, 0, 70, 100
2, 219644, Note_off_c, 0, 64, 100
2, 219648, Note_on_c, 0, 70, 94
2, 219648, Note_on_c, 0, 64, 94
2, 219740, Note_off_c, 0, 70, 100
2, 219740, Note_off_c, 0, 64, 100
2, 219744, Note_on_c, 0, 70, 95
2, 219744, Note_on_c, 0, 64, 95
2, 219836, Note_off_c, 0, 70, 100
2, 219836, Note_off_c, 0, 64, 100
2, 219840, Note_on_c, 0, 70, 96
2, 219840, Note_on_c, 0, 64, 96
2, 219932, Note_off_c, 0, 70, 100
2, 219932, Note_off_c, 0, 64, 100
2, 219936, Note_on_c, 0, 70, 97
2, 219936, Note_on_c, 0, 64, 97
2, 220028, Note_off_c, 0, 76, 100
2, 220028, Note_off_c, 0, 70, 100
2, 220028, Note_off_c, 0, 64, 100
2, 220032, Note_on_c, 0, 69, 98
2, 220032, Note_on_c, 0, 65, 98
2, 220032, Note_on_c, 0, 77, 98
2, 220124, Note_off_c, 0, 69, 100
2, 220124, Note_off_c, 0, 65, 100
2, 220128, Note_on_c, 0, 69, 99
2, 220128, Note_on_c, 0, 72, 99
2, 220220, Note_off_c, 0, 69, 100
2, 220220, Note_off_c, 0, 72, 100
2, 220224, Note_on_c, 0, 72, 100
2, 220224, Note_on_c, 0, 68, 100
2, 220316, Note_off_c, 0, 77, 100
2, 220316, Note_off_c, 0, 72, 100
2, 220316, Note_off_c, 0, 68, 100
2, 220320, Note_on_c, 0, 74, 101
2, 220320, Note_on_c, 0, 72, 101
2, 220320, Note_on_c, 0, 67, 101
2, 220412, Note_off_c, 0, 72, 100
2, 220412, Note_off_c, 0, 67, 100
2, 220416, Note_on_c, 0, 72, 102
2, 220416, Note_on_c, 0, 67, 102
2, 220508, Note_off_c, 0, 72, 100
2, 220508, Note_off_c, 0, 67, 100
2, 220512, Note_on_c, 0, 72, 103
2, 220512, Note_on_c, 0, 67, 103
2, 220604, Note_off_c, 0, 74, 100
2, 220604, Note_off_c, 0, 72, 100
2, 220604, Note_off_c, 0, 67, 100
2, 220608, Note_on_c, 0, 74, 104
2, 220608, Note_on_c, 0, 72, 104
2, 220608, Note_on_c, 0, 67, 104
2, 220700, Note_off_c, 0, 72, 100
2, 220700, Note_off_c, 0, 67, 100
2, 220704, Note_on_c, 0, 72, 105
2, 220704, Note_on_c, 0, 67, 105
2, 220796, Note_off_c, 0, 72, 100
2, 220796, Note_off_c, 0, 67, 100
2, 220800, Note_on_c, 0, 67, 106
2, 220800, Note_on_c, 0, 72, 106
2, 220892, Note_off_c, 0, 74, 100
2, 220892, Note_off_c, 0, 67, 100
2, 220892, Note_off_c, 0, 72, 100
2, 220896, Note_on_c, 0, 74, 107
2, 220896, Note_on_c, 0, 71, 107
2, 220896, Note_on_c, 0, 67, 107
2, 220988, Note_off_c, 0, 71, 100
2, 220988, Note_off_c, 0, 67, 100
2, 220992, Note_on_c, 0, 72, 108
2, 220992, Note_on_c, 0, 67, 108
2, 221084, Note_off_c, 0, 74, 100
2, 221084, Note_off_c, 0, 72, 100
2, 221084, Note_off_c, 0, 67, 100
2, 221088, Note_on_c, 0, 79, 109
2, 221088, Note_on_c, 0, 72, 109
2, 221088, Note_on_c, 0, 67, 109
2, 221180, Note_off_c, 0, 79, 100
2, 221180, Note_off_c, 0, 72, 100
2, 221180, Note_off_c, 0, 67, 100
2, 221184, Note_on_c, 0, 79, 110
2, 221184, Note_on_c, 0, 74, 110
2, 221276, Note_off_c, 0, 74, 100
2, 221280, Note_on_c, 0, 71, 99
2, 221372, Note_off_c, 0, 79, 100
2, 221372, Note_off_c, 0, 71, 100
2, 221376, Note_on_c, 0, 76, 88
2, 221376, Note_on_c, 0, 67, 88
2, 221468, Note_off_c, 0, 76, 100
2, 221468, Note_off_c, 0, 67, 100
2, 221472, Note_on_c, 0, 76, 80
2, 221472, Note_on_c, 0, 64, 80
2, 221564, Note_off_c, 0, 64, 100
2, 221568, Note_on_c, 0, 63, 80
2, 221660, Note_off_c, 0, 63, 100
2, 221664, Note_on_c, 0, 64, 80
2, 221756, Note_off_c, 0, 76, 100
2, 221756, Note_off_c, 0, 64, 100
2, 221760, Note_on_c, 0, 76, 110
2, 221760, Note_on_c, 0, 71, 110
2, 221852, Note_off_c, 0, 71, 100
2, 221856, Note_on_c, 0, 68, 99
2, 221948, Note_off_c, 0, 76, 100
2, 221948, Note_off_c, 0, 68, 100
2, 221952, Note_on_c, 0, 72, 88
2, 221952, Note_on_c, 0, 64, 88
2, 222044, Note_off_c, 0, 72, 100
2, 222044, Note_off_c, 0, 64, 100
2, 222048, Note_on_c, 0, 72, 80
2, 222048, Note_on_c, 0, 64, 80
2, 222140, Note_off_c, 0, 64, 100
2, 222144, Note_on_c, 0, 64, 80
2, 222236, Note_off_c, 0, 64, 100
2, 222240, Note_on_c, 0, 64, 80
2, 222332, Note_off_c, 0, 72, 100
2, 222332, Note_off_c, 0, 64, 100
2, 222336, Note_on_c, 0, 84, 110
2, 222336, Note_on_c, 0, 79, 110
2, 222428, Note_off_c, 0, 79, 100
2, 222432, Note_on_c, 0, 76, 103
2, 222524, Note_off_c, 0, 84, 100
2, 222524, Note_off_c, 0, 76, 100
2, 222528, Note_on_c, 0, 81, 96
2, 222528, Note_on_c, 0, 72, 96
2, 222620, Note_off_c, 0, 81, 100
2, 222620, Note_off_c, 0, 72, 100
2, 222624, Note_on_c, 0, 81, 80
2, 222624, Note_on_c, 0, 72, 80
2, 222716, Note_off_c, 0, 72, 100
2, 222720, Note_on_c, 0, 73, 80
2, 222720, Note_on_c, 0, 79, 80
2, 222812, Note_off_c, 0, 73, 100
2, 222812, Note_off_c, 0, 79, 100
2, 222816, Note_on_c, 0, 74, 80
2, 222816, Note_on_c, 0, 77, 80
2, 222908, Note_off_c, 0, 81, 100
2, 222908, Note_off_c, 0, 74, 100
2, 222908, Note_off_c, 0, 77, 100
2, 222912, Note_on_c, 0, 81, 110
2, 222912, Note_on_c, 0, 76, 110
2, 223004, Note_off_c, 0, 76, 100
2, 223008, Note_on_c, 0, 73, 103
2, 223100, Note_off_c, 0, 81, 100
2, 223100, Note_off_c, 0, 73, 100
2, 223104, Note_on_c, 0, 77, 96
2, 223104, Note_on_c, 0, 69, 96
2, 223196, Note_off_c, 0, 77, 100
2, 223196, Note_off_c, 0, 69, 100
2, 223200, Note_on_c, 0, 77, 80
2, 223200, Note_on_c, 0, 69, 80
2, 223200, Note_on_c, 0, 74, 80
2, 223292, Note_off_c, 0, 69, 100
2, 223296, Note_on_c, 0, 69, 80
2, 223388, Note_off_c, 0, 69, 100
2, 223392, Note_on_c, 0, 69, 80
2, 223484, Note_off_c, 0, 77, 100
2, 223484, Note_off_c, 0, 74, 100
2, 223484, Note_off_c, 0, 69, 100
2, 223488, Note_on_c, 0, 77, 80
2, 223488, Note_on_c, 0, 68, 80
2, 223488, Note_on_c, 0, 74, 80
2, 223580, Note_off_c, 0, 68, 100
2, 223584, Note_on_c, 0, 68, 81
2, 223676, Note_off_c, 0, 68, 100
2, 223680, Note_on_c, 0, 68, 82
2, 223772, Note_off_c, 0, 77, 100
2, 223772, Note_off_c, 0, 74, 100
2, 223772, Note_off_c, 0, 68, 100
2, 223776, Note_on_c, 0, 77, 83
2, 223776, Note_on_c, 0, 74, 83
2, 223776, Note_on_c, 0, 67, 83
2, 223868, Note_off_c, 0, 67, 100
2, 223872, Note_on_c, 0, 67, 84
2, 223964, Note_off_c, 0, 67, 100
2, 223968, Note_on_c, 0, 67, 85
2, 224060, Note_off_c, 0, 67, 100
2, 224064, Note_on_c, 0, 67, 86
2, 224156, Note_off_c, 0, 67, 100
2, 224160, Note_on_c, 0, 67, 87
2, 224252, Note_off_c, 0, 67, 100
2, 224256, Note_on_c, 0, 67, 88
2, 224348, Note_off_c, 0, 74, 100
2, 224348, Note_off_c, 0, 77, 100
2, 224348, Note_off_c, 0, 67, 100
2, 224352, Note_on_c, 0, 67, 90
2, 224352, Note_on_c, 0, 71, 90
2, 224352, Note_on_c, 0, 77, 90
2, 224444, Note_off_c, 0, 67, 100
2, 224444, Note_off_c, 0, 71, 100
2, 224448, Note_on_c, 0, 67, 91
2, 224448, Note_on_c, 0, 72, 91
2, 224540, Note_off_c, 0, 67, 100
2, 224540, Note_off_c, 0, 72, 100
2, 224544, Note_on_c, 0, 67, 92
2, 224544, Note_on_c, 0, 74, 92
2, 224636, Note_off_c, 0, 77, 100
2, 224636, Note_off_c, 0, 67, 100
2, 224636, Note_off_c, 0, 74, 100
2, 224640, Note_on_c, 0, 76, 93
2, 224640, Note_on_c, 0, 67, 93
2, 224732, Note_off_c, 0, 67, 100
2, 224736, Note_on_c, 0, 67, 94
2, 224828, Note_off_c, 0, 67, 100
2, 224832, Note_on_c, 0, 67, 95
2, 224924, Note_off_c, 0, 76, 100
2, 224924, Note_off_c, 0, 67, 100
2, 224928, Note_on_c, 0, 79, 96
2, 224928, Note_on_c, 0, 71, 96
2, 224928, Note_on_c, 0, 67, 96
2, 225020, Note_off_c, 0, 71, 100
2, 225020, Note_off_c, 0, 67, 100
2, 225024, Note_on_c, 0, 71, 97
2, 225024, Note_on_c, 0, 67, 97
2, 225116, Note_off_c, 0, 71, 100
2, 225116, Note_off_c, 0, 67, 100
2, 225120, Note_on_c, 0, 71, 99
2, 225120, Note_on_c, 0, 67, 99
2, 225212, Note_off_c, 0, 79, 100
2, 225212, Note_off_c, 0, 71, 100
2, 225212, Note_off_c, 0, 67, 100
2, 225216, Note_on_c, 0, 69, 100
2, 225216, Note_on_c, 0, 79, 100
2, 225308, Note_off_c, 0, 69, 100
2, 225308, Note_off_c, 0, 79, 100
2, 225312, Note_on_c, 0, 69, 101
2, 225312, Note_on_c, 0, 77, 101
2, 225404, Note_off_c, 0, 69, 100
2, 225404, Note_off_c, 0, 77, 100
2, 225408, Note_on_c, 0, 72, 102
2, 225408, Note_on_c, 0, 69, 102
2, 225408, Note_on_c, 0, 74, 102
2, 225500, Note_off_c, 0, 72, 100
2, 225500, Note_off_c, 0, 69, 100
2, 225500, Note_off_c, 0, 74, 100
2, 225504, Note_on_c, 0, 72, 103
2, 225504, Note_on_c, 0, 67, 103
2, 225504, Note_on_c, 0, 64, 103
2, 225596, Note_off_c, 0, 67, 100
2, 225596, Note_off_c, 0, 64, 100
2, 225600, Note_on_c, 0, 67, 104
2, 225600, Note_on_c, 0, 64, 104
2, 225692, Note_off_c, 0, 67, 100
2, 225692, Note_off_c, 0, 64, 100
2, 225696, Note_on_c, 0, 67, 105
2, 225696, Note_on_c, 0, 64, 105
2, 225788, Note_off_c, 0, 72, 100
2, 225788, Note_off_c, 0, 67, 100
2, 225788, Note_off_c, 0, 64, 100
2, 225792, Note_on_c, 0, 76, 106
2, 225792, Note_on_c, 0, 67, 106
2, 225792, Note_on_c, 0, 65, 106
2, 225884, Note_off_c, 0, 67, 100
2, 225884, Note_off_c, 0, 65, 100
2, 225888, Note_on_c, 0, 67, 108
2, 225888, Note_on_c, 0, 65, 108
2, 225980, Note_off_c, 0, 76, 100
2, 225980, Note_off_c, 0, 67, 100
2, 225980, Note_off_c, 0, 65, 100
2, 225984, Note_on_c, 0, 74, 109
2, 225984, Note_on_c, 0, 67, 109
2, 225984, Note_on_c, 0, 65, 109
2, 226076, Note_off_c, 0, 74, 100
2, 226076, Note_off_c, 0, 67, 100
2, 226076, Note_off_c, 0, 65, 100
2, 226080, Note_on_c, 0, 71, 110
2, 226112, Note_on_c, 0, 74, 108
2, 226141, Note_off_c, 0, 71, 100
2, 226144, Note_on_c, 0, 83, 106
2, 226168, Note_off_c, 0, 74, 100
2, 226176, Note_on_c, 0, 71, 103
2, 226201, Note_off_c, 0, 83, 100
2, 226208, Note_on_c, 0, 74, 101
2, 226235, Note_off_c, 0, 71, 100
2, 226240, Note_on_c, 0, 79, 98
2, 226267, Note_off_c, 0, 74, 100
2, 226272, Note_on_c, 0, 72, 96
2, 226297, Note_off_c, 0, 79, 100
2, 226304, Note_on_c, 0, 79, 93
2, 226332, Note_off_c, 0, 72, 100
2, 226336, Note_on_c, 0, 84, 91
2, 226364, Note_off_c, 0, 79, 100
2, 226368, Note_on_c, 0, 72, 80
2, 226396, Note_off_c, 0, 84, 100
2, 226400, Note_on_c, 0, 79, 80
2, 226430, Note_off_c, 0, 72, 100
2, 226432, Note_on_c, 0, 84, 80
2, 226461, Note_off_c, 0, 79, 100
2, 226464, Note_on_c, 0, 71, 80
2, 226495, Note_off_c, 0, 84, 100
2, 226496, Note_on_c, 0, 79, 80
2, 226521, Note_off_c, 0, 71, 100
2, 226528, Note_on_c, 0, 83, 80
2, 226556, Note_off_c, 0, 79, 100
2, 226560, Note_on_c, 0, 72, 80
2, 226590, Note_off_c, 0, 83, 100
2, 226592, Note_on_c, 0, 79, 80
2, 226617, Note_off_c, 0, 72, 100
2, 226624, Note_on_c, 0, 84, 80
2, 226650, Note_off_c, 0, 79, 100
2, 226656, Note_on_c, 0, 80, 110
2, 226678, Note_off_c, 0, 84, 100
2, 226688, Note_on_c, 0, 83, 108
2, 226713, Note_off_c, 0, 80, 100
2, 226720, Note_on_c, 0, 92, 106
2, 226746, Note_off_c, 0, 83, 100
2, 226752, Note_on_c, 0, 80, 103
2, 226774, Note_off_c, 0, 92, 100
2, 226784, Note_on_c, 0, 83, 101
2, 226813, Note_off_c, 0, 80, 100
2, 226816, Note_on_c, 0, 88, 98
2, 226845, Note_off_c, 0, 83, 100
2, 226848, Note_on_c, 0, 81, 96
2, 226874, Note_off_c, 0, 88, 100
2, 226880, Note_on_c, 0, 88, 93
2, 226904, Note_off_c, 0, 81, 100
2, 226912, Note_on_c, 0, 93, 91
2, 226943, Note_off_c, 0, 88, 100
2, 226944, Note_on_c, 0, 81, 80
2, 226971, Note_off_c, 0, 93, 100
2, 226976, Note_on_c, 0, 88, 80
2, 227002, Note_off_c, 0, 81, 100
2, 227008, Note_on_c, 0, 93, 80
2, 227031, Note_off_c, 0, 88, 100
2, 227040, Note_on_c, 0, 80, 80
2, 227065, Note_off_c, 0, 93, 100
2, 227072, Note_on_c, 0, 88, 80
2, 227094, Note_off_c, 0, 80, 100
2, 227104, Note_on_c, 0, 92, 80
2, 227128, Note_off_c, 0, 88, 100
2, 227136, Note_on_c, 0, 81, 80
2, 227160, Note_off_c, 0, 92, 100
2, 227168, Note_on_c, 0, 84, 80
2, 227191, Note_off_c, 0, 81, 100
2, 227200, Note_on_c, 0, 93, 80
2, 227225, Note_off_c, 0, 84, 100
2, 227232, Note_on_c, 0, 76, 110
2, 227258, Note_off_c, 0, 93, 100
2, 227264, Note_on_c, 0, 79, 108
2, 227286, Note_off_c, 0, 76, 100
2, 227296, Note_on_c, 0, 88, 106
2, 227320, Note_off_c, 0, 79, 100
2, 227328, Note_on_c, 0, 76, 103
2, 227351, Note_off_c, 0, 88, 100
2, 227360, Note_on_c, 0, 79, 101
2, 227391, Note_off_c, 0, 76, 100
2, 227392, Note_on_c, 0, 84, 98
2, 227419, Note_off_c, 0, 79, 100
2, 227424, Note_on_c, 0, 77, 96
2, 227450, Note_off_c, 0, 84, 100
2, 227456, Note_on_c, 0, 84, 93
2, 227478, Note_off_c, 0, 77, 100
2, 227488, Note_on_c, 0, 89, 91
2, 227519, Note_off_c, 0, 84, 100
2, 227520, Note_on_c, 0, 77, 80
2, 227547, Note_off_c, 0, 89, 100
2, 227552, Note_on_c, 0, 84, 80
2, 227580, Note_off_c, 0, 77, 100
2, 227584, Note_on_c, 0, 89, 80
2, 227612, Note_off_c, 0, 84, 100
2, 227616, Note_on_c, 0, 76, 80
2, 227646, Note_off_c, 0, 89, 100
2, 227648, Note_on_c, 0, 84, 80
2, 227678, Note_off_c, 0, 76, 100
2, 227680, Note_on_c, 0, 88, 80
2, 227710, Note_off_c, 0, 84, 100
2, 227712, Note_on_c, 0, 77, 80
2, 227740, Note_off_c, 0, 88, 100
2, 227744, Note_on_c, 0, 84, 80
2, 227770, Note_off_c, 0, 77, 100
2, 227776, Note_on_c, 0, 89, 80
2, 227806, Note_off_c, 0, 84, 100
2, 227807, Note_off_c, 0, 89, 100
2, 227808, Note_on_c, 0, 93, 80
2, 227808, Note_on_c, 0, 88, 80
2, 227903, Note_off_c, 0, 88, 100
2, 227904, Note_on_c, 0, 85, 80
2, 227999, Note_off_c, 0, 93, 100
2, 227999, Note_off_c, 0, 85, 100
2, 228000, Note_on_c, 0, 89, 80
2, 228000, Note_on_c, 0, 81, 80
2, 228095, Note_off_c, 0, 89, 100
2, 228095, Note_off_c, 0, 81, 100
2, 228096, Note_on_c, 0, 89, 80
2, 228096, Note_on_c, 0, 81, 80
2, 228191, Note_off_c, 0, 81, 100
2, 228192, Note_on_c, 0, 81, 80
2, 228287, Note_off_c, 0, 81, 100
2, 228288, Note_on_c, 0, 81, 81
2, 228383, Note_off_c, 0, 89, 100
2, 228383, Note_off_c, 0, 81, 100
2, 228384, Note_on_c, 0, 89, 82
2, 228384, Note_on_c, 0, 81, 82
2, 228384, Note_on_c, 0, 86, 82
2, 228479, Note_off_c, 0, 81, 100
2, 228479, Note_off_c, 0, 86, 100
2, 228480, Note_on_c, 0, 86, 83
2, 228480, Note_on_c, 0, 81, 83
2, 228575, Note_off_c, 0, 86, 100
2, 228575, Note_off_c, 0, 81, 100
2, 228576, Note_on_c, 0, 86, 84
2, 228576, Note_on_c, 0, 81, 84
2, 228671, Note_off_c, 0, 89, 100
2, 228671, Note_off_c, 0, 86, 100
2, 228671, Note_off_c, 0, 81, 100
2, 228672, Note_on_c, 0, 89, 85
2, 228672, Note_on_c, 0, 86, 85
2, 228672, Note_on_c, 0, 80, 85
2, 228767, Note_off_c, 0, 86, 100
2, 228767, Note_off_c, 0, 80, 100
2, 228768, Note_on_c, 0, 86, 85
2, 228768, Note_on_c, 0, 80, 85
2, 228863, Note_off_c, 0, 86, 100
2, 228863, Note_off_c, 0, 80, 100
2, 228864, Note_on_c, 0, 86, 86
2, 228864, Note_on_c, 0, 80, 86
2, 228959, Note_off_c, 0, 89, 100
2, 228959, Note_off_c, 0, 86, 100
2, 228959, Note_off_c, 0, 80, 100
2, 228960, Note_on_c, 0, 89, 87
2, 228960, Note_on_c, 0, 86, 87
2, 228960, Note_on_c, 0, 79, 87
2, 229052, Note_off_c, 0, 86, 100
2, 229052, Note_off_c, 0, 79, 100
2, 229056, Note_on_c, 0, 86, 88
2, 229056, Note_on_c, 0, 79, 88
2, 229148, Note_off_c, 0, 86, 100
2, 229148, Note_off_c, 0, 79, 100
2, 229152, Note_on_c, 0, 86, 89
2, 229152, Note_on_c, 0, 79, 89
2, 229244, Note_off_c, 0, 86, 100
2, 229244, Note_off_c, 0, 79, 100
2, 229248, Note_on_c, 0, 86, 90
2, 229248, Note_on_c, 0, 79, 90
2, 229340, Note_off_c, 0, 86, 100
2, 229340, Note_off_c, 0, 79, 100
2, 229344, Note_on_c, 0, 86, 90
2, 229344, Note_on_c, 0, 79, 90
2, 229436, Note_off_c, 0, 86, 100
2, 229436, Note_off_c, 0, 79, 100
2, 229440, Note_on_c, 0, 86, 91
2, 229440, Note_on_c, 0, 79, 91
2, 229532, Note_off_c, 0, 89, 100
2, 229532, Note_off_c, 0, 86, 100
2, 229532, Note_off_c, 0, 79, 100
2, 229536, Note_on_c, 0, 86, 92
2, 229536, Note_on_c, 0, 79, 92
2, 229536, Note_on_c, 0, 89, 92
2, 229628, Note_off_c, 0, 86, 100
2, 229628, Note_off_c, 0, 79, 100
2, 229632, Note_on_c, 0, 86, 93
2, 229632, Note_on_c, 0, 79, 93
2, 229724, Note_off_c, 0, 86, 100
2, 229724, Note_off_c, 0, 79, 100
2, 229728, Note_on_c, 0, 86, 94
2, 229728, Note_on_c, 0, 79, 94
2, 229820, Note_off_c, 0, 89, 100
2, 229820, Note_off_c, 0, 86, 100
2, 229820, Note_off_c, 0, 79, 100
2, 229824, Note_on_c, 0, 90, 95
2, 229824, Note_on_c, 0, 86, 95
2, 229824, Note_on_c, 0, 84, 95
2, 229916, Note_off_c, 0, 86, 100
2, 229916, Note_off_c, 0, 84, 100
2, 229920, Note_on_c, 0, 86, 95
2, 229920, Note_on_c, 0, 84, 95
2, 230012, Note_off_c, 0, 86, 100
2, 230012, Note_off_c, 0, 84, 100
2, 230016, Note_on_c, 0, 86, 96
2, 230016, Note_on_c, 0, 84, 96
2, 230108, Note_off_c, 0, 86, 100
2, 230108, Note_off_c, 0, 84, 100
2, 230112, Note_on_c, 0, 86, 97
2, 230112, Note_on_c, 0, 84, 97
2, 230204, Note_off_c, 0, 86, 100
2, 230204, Note_off_c, 0, 84, 100
2, 230208, Note_on_c, 0, 86, 98
2, 230208, Note_on_c, 0, 84, 98
2, 230300, Note_off_c, 0, 86, 100
2, 230300, Note_off_c, 0, 84, 100
2, 230304, Note_on_c, 0, 84, 99
2, 230304, Note_on_c, 0, 86, 99
2, 230396, Note_off_c, 0, 90, 100
2, 230396, Note_off_c, 0, 84, 100
2, 230396, Note_off_c, 0, 86, 100
2, 230400, Note_on_c, 0, 90, 100
2, 230400, Note_on_c, 0, 86, 100
2, 230400, Note_on_c, 0, 84, 100
2, 230492, Note_off_c, 0, 86, 100
2, 230492, Note_off_c, 0, 84, 100
2, 230496, Note_on_c, 0, 86, 101
2, 230496, Note_on_c, 0, 84, 101
2, 230588, Note_off_c, 0, 86, 100
2, 230588, Note_off_c, 0, 84, 100
2, 230592, Note_on_c, 0, 86, 101
2, 230592, Note_on_c, 0, 84, 101
2, 230684, Note_off_c, 0, 90, 100
2, 230684, Note_off_c, 0, 86, 100
2, 230684, Note_off_c, 0, 84, 100
2, 230688, Note_on_c, 0, 91, 102
2, 230688, Note_on_c, 0, 88, 102
2, 230688, Note_on_c, 0, 84, 102
2, 230780, Note_off_c, 0, 88, 100
2, 230780, Note_off_c, 0, 84, 100
2, 230784, Note_on_c, 0, 88, 103
2, 230784, Note_on_c, 0, 84, 103
2, 230784, Note_on_c, 0, 79, 103
2, 230876, Note_off_c, 0, 88, 100
2, 230876, Note_off_c, 0, 84, 100
2, 230876, Note_off_c, 0, 79, 100
2, 230880, Note_on_c, 0, 88, 104
2, 230880, Note_on_c, 0, 84, 104
2, 230880, Note_on_c, 0, 79, 104
2, 230972, Note_off_c, 0, 91, 100
2, 230972, Note_off_c, 0, 88, 100
2, 230972, Note_off_c, 0, 84, 100
2, 230972, Note_off_c, 0, 79, 100
2, 230976, Note_on_c, 0, 89, 105
2, 230976, Note_on_c, 0, 83, 105
2, 230976, Note_on_c, 0, 79, 105
2, 231068, Note_off_c, 0, 83, 100
2, 231068, Note_off_c, 0, 79, 100
2, 231072, Note_on_c, 0, 83, 106
2, 231072, Note_on_c, 0, 79, 106
2, 231164, Note_off_c, 0, 83, 100
2, 231164, Note_off_c, 0, 79, 100
2, 231168, Note_on_c, 0, 83, 106
2, 231168, Note_on_c, 0, 79, 106
2, 231260, Note_off_c, 0, 89, 100
2, 231260, Note_off_c, 0, 83, 100
2, 231260, Note_off_c, 0, 79, 100
2, 231264, Note_on_c, 0, 91, 107
2, 231264, Note_on_c, 0, 83, 107
2, 231264, Note_on_c, 0, 79, 107
2, 231356, Note_off_c, 0, 83, 100
2, 231356, Note_off_c, 0, 79, 100
2, 231360, Note_on_c, 0, 83, 108
2, 231360, Note_on_c, 0, 79, 108
2, 231452, Note_off_c, 0, 91, 100
2, 231452, Note_off_c, 0, 83, 100
2, 231452, Note_off_c, 0, 79, 100
2, 231456, Note_on_c, 0, 93, 109
2, 231456, Note_on_c, 0, 83, 109
2, 231456, Note_on_c, 0, 79, 109
2, 231548, Note_off_c, 0, 93, 100
2, 231548, Note_off_c, 0, 83, 100
2, 231548, Note_off_c, 0, 79, 100
2, 231552, Note_on_c, 0, 93, 110
2, 231552, Note_on_c, 0, 83, 110
2, 231552, Note_on_c, 0, 79, 110
2, 231644, Note_off_c, 0, 83, 100
2, 231644, Note_off_c, 0, 79, 100
2, 231648, Note_on_c, 0, 83, 110
2, 231648, Note_on_c, 0, 79, 110
2, 231740, Note_off_c, 0, 83, 100
2, 231740, Note_off_c, 0, 79, 100
2, 231744, Note_on_c, 0, 83, 110
2, 231744, Note_on_c, 0, 79, 110
2, 231836, Note_off_c, 0, 83, 100
2, 231836, Note_off_c, 0, 79, 100
2, 231840, Note_on_c, 0, 83, 110
2, 231840, Note_on_c, 0, 79, 110
2, 231932, Note_off_c, 0, 93, 100
2, 231932, Note_off_c, 0, 83, 100
2, 231932, Note_off_c, 0, 79, 100
2, 231936, Note_on_c, 0, 93, 110
2, 231936, Note_on_c, 0, 83, 110
2, 231936, Note_on_c, 0, 79, 110
2, 232028, Note_off_c, 0, 93, 100
2, 232028, Note_off_c, 0, 83, 100
2, 232028, Note_off_c, 0, 79, 100
2, 232032, Note_on_c, 0, 91, 110
2, 232032, Note_on_c, 0, 84, 110
2, 232032, Note_on_c, 0, 79, 110
2, 232124, Note_off_c, 0, 91, 100
2, 232124, Note_off_c, 0, 84, 100
2, 232124, Note_off_c, 0, 79, 100
2, 232128, Note_on_c, 0, 91, 110
2, 232128, Note_on_c, 0, 84, 110
2, 232128, Note_on_c, 0, 79, 110
2, 232220, Note_off_c, 0, 91, 100
2, 232220, Note_off_c, 0, 84, 100
2, 232220, Note_off_c, 0, 79, 100
2, 232224, Note_on_c, 0, 89, 110
2, 232224, Note_on_c, 0, 83, 110
2, 232224, Note_on_c, 0, 79, 110
2, 232316, Note_off_c, 0, 89, 100
2, 232316, Note_off_c, 0, 83, 100
2, 232316, Note_off_c, 0, 79, 100
2, 232320, Note_on_c, 0, 88, 110
2, 232320, Note_on_c, 0, 84, 110
2, 232320, Note_on_c, 0, 79, 110
2, 232412, Note_off_c, 0, 88, 100
2, 232412, Note_off_c, 0, 84, 100
2, 232412, Note_off_c, 0, 79, 100
2, 232416, Note_on_c, 0, 88, 110
2, 232416, Note_on_c, 0, 84, 110
2, 232416, Note_on_c, 0, 79, 110
2, 232508, Note_off_c, 0, 79, 100
2, 232512, Note_on_c, 0, 79, 110
2, 232604, Note_off_c, 0, 88, 100
2, 232604, Note_off_c, 0, 84, 100
2, 232604, Note_off_c, 0, 79, 100
2, 232608, Note_on_c, 0, 91, 110
2, 232608, Note_on_c, 0, 88, 110
2, 232608, Note_on_c, 0, 79, 110
2, 232700, Note_off_c, 0, 91, 100
2, 232700, Note_off_c, 0, 88, 100
2, 232700, Note_off_c, 0, 79, 100
2, 232704, Note_on_c, 0, 90, 110
2, 232704, Note_on_c, 0, 87, 110
2, 232704, Note_on_c, 0, 79, 110
2, 232796, Note_off_c, 0, 79, 100
2, 232800, Note_on_c, 0, 79, 110
2, 232892, Note_off_c, 0, 90, 100
2, 232892, Note_off_c, 0, 87, 100
2, 232892, Note_off_c, 0, 79, 100
2, 232896, Note_on_c, 0, 89, 110
2, 232896, Note_on_c, 0, 86, 110
2, 232896, Note_on_c, 0, 79, 110
2, 232988, Note_off_c, 0, 89, 100
2, 232988, Note_off_c, 0, 86, 100
2, 232988, Note_off_c, 0, 79, 100
2, 232992, Note_on_c, 0, 88, 110
2, 232992, Note_on_c, 0, 82, 110
2, 232992, Note_on_c, 0, 79, 110
2, 233084, Note_off_c, 0, 88, 100
2, 233084, Note_off_c, 0, 82, 100
2, 233084, Note_off_c, 0, 79, 100
2, 233088, Note_on_c, 0, 89, 110
2, 233088, Note_on_c, 0, 83, 110
2, 233088, Note_on_c, 0, 79, 110
2, 233180, Note_off_c, 0, 89, 100
2, 233180, Note_off_c, 0, 83, 100
2, 233180, Note_off_c, 0, 79, 100
2, 233184, Note_on_c, 0, 86, 110
2, 233184, Note_on_c, 0, 83, 110
2, 233184, Note_on_c, 0, 79, 110
2, 233276, Note_off_c, 0, 86, 100
2, 233276, Note_off_c, 0, 83, 100
2, 233276, Note_off_c, 0, 79, 100
2, 233280, Note_on_c, 0, 86, 110
2, 233304, Note_on_c, 0, 88, 110
2, 233320, Note_off_c, 0, 86, 100
2, 233328, Note_on_c, 0, 86, 110
2, 233344, Note_off_c, 0, 88, 100
2, 233352, Note_on_c, 0, 88, 110
2, 233368, Note_off_c, 0, 86, 100
2, 233376, Note_on_c, 0, 86, 110
2, 233392, Note_off_c, 0, 88, 100
2, 233400, Note_on_c, 0, 88, 110
2, 233416, Note_off_c, 0, 86, 100
2, 233424, Note_on_c, 0, 86, 110
2, 233440, Note_off_c, 0, 88, 100
2, 233448, Note_on_c, 0, 88, 110
2, 233464, Note_off_c, 0, 86, 100
2, 233472, Note_on_c, 0, 86, 110
2, 233488, Note_off_c, 0, 88, 100
2, 233496, Note_on_c, 0, 88, 110
2, 233512, Note_off_c, 0, 86, 100
2, 233520, Note_on_c, 0, 85, 110
2, 233536, Note_off_c, 0, 88, 100
2, 233544, Note_on_c, 0, 86, 120
2, 233560, Note_off_c, 0, 85, 100
2, 233568, Note_on_c, 0, 90, 127
2, 233584, Note_off_c, 0, 86, 100
2, 233592, Note_on_c, 0, 91, 127
2, 233608, Note_off_c, 0, 90, 100
2, 233616, Note_on_c, 0, 93, 126
2, 233632, Note_off_c, 0, 91, 100
2, 233640, Note_on_c, 0, 91, 120
2, 233656, Note_off_c, 0, 93, 100
2, 233664, Note_on_c, 0, 93, 118
2, 233680, Note_off_c, 0, 91, 100
2, 233688, Note_on_c, 0, 91, 115
2, 233704, Note_off_c, 0, 93, 100
2, 233712, Note_on_c, 0, 93, 115
2, 233728, Note_off_c, 0, 91, 100
2, 233736, Note_on_c, 0, 91, 114
2, 233752, Note_off_c, 0, 93, 100
2, 233760, Note_on_c, 0, 93, 113
2, 233776, Note_off_c, 0, 91, 100
2, 233784, Note_on_c, 0, 91, 112
2, 233800, Note_off_c, 0, 93, 100
2, 233808, Note_on_c, 0, 93, 111
2, 233824, Note_off_c, 0, 91, 100
2, 233832, Note_on_c, 0, 91, 110
2, 233848, Note_off_c, 0, 93, 100
2, 233856, Note_on_c, 0, 93, 109
2, 233872, Note_off_c, 0, 91, 100
2, 233880, Note_on_c, 0, 91, 109
2, 233896, Note_off_c, 0, 93, 100
2, 233904, Note_on_c, 0, 93, 108
2, 233920, Note_off_c, 0, 91, 100
2, 233928, Note_on_c, 0, 91, 107
2, 233944, Note_off_c, 0, 93, 100
2, 233952, Note_on_c, 0, 93, 106
2, 233968, Note_off_c, 0, 91, 100
2, 233976, Note_on_c, 0, 91, 105
2, 233992, Note_off_c, 0, 93, 100
2, 234000, Note_on_c, 0, 93, 104
2, 234016, Note_off_c, 0, 91, 100
2, 234024, Note_on_c, 0, 91, 103
2, 234040, Note_off_c, 0, 93, 100
2, 234048, Note_on_c, 0, 93, 103
2, 234064, Note_off_c, 0, 91, 100
2, 234072, Note_on_c, 0, 91, 102
2, 234088, Note_off_c, 0, 93, 100
2, 234096, Note_on_c, 0, 93, 101
2, 234112, Note_off_c, 0, 91, 100
2, 234120, Note_on_c, 0, 91, 100
2, 234136, Note_off_c, 0, 93, 100
2, 234144, Note_on_c, 0, 93, 99
2, 234160, Note_off_c, 0, 91, 100
2, 234168, Note_on_c, 0, 91, 98
2, 234184, Note_off_c, 0, 93, 100
2, 234192, Note_on_c, 0, 93, 98
2, 234208, Note_off_c, 0, 91, 100
2, 234216, Note_on_c, 0, 91, 97
2, 234232, Note_off_c, 0, 93, 100
2, 234240, Note_on_c, 0, 93, 96
2, 234256, Note_off_c, 0, 91, 100
2, 234264, Note_on_c, 0, 91, 95
2, 234280, Note_off_c, 0, 93, 100
2, 234288, Note_on_c, 0, 93, 94
2, 234304, Note_off_c, 0, 91, 100
2, 234312, Note_on_c, 0, 91, 93
2, 234328, Note_off_c, 0, 93, 100
2, 234336, Note_on_c, 0, 93, 92
2, 234352, Note_off_c, 0, 91, 100
2, 234360, Note_on_c, 0, 91, 92
2, 234376, Note_off_c, 0, 93, 100
2, 234384, Note_on_c, 0, 93, 91
2, 234400, Note_off_c, 0, 91, 100
2, 234408, Note_on_c, 0, 91, 90
2, 234424, Note_off_c, 0, 93, 100
2, 234432, Note_on_c, 0, 93, 89
2, 234448, Note_off_c, 0, 91, 100
2, 234456, Note_on_c, 0, 91, 88
2, 234472, Note_off_c, 0, 93, 100
2, 234480, Note_on_c, 0, 93, 87
2, 234496, Note_off_c, 0, 91, 100
2, 234504, Note_on_c, 0, 91, 86
2, 234520, Note_off_c, 0, 93, 100
2, 234528, Note_on_c, 0, 93, 86
2, 234544, Note_off_c, 0, 91, 100
2, 234552, Note_on_c, 0, 91, 85
2, 234568, Note_off_c, 0, 93, 100
2, 234576, Note_on_c, 0, 93, 84
2, 234592, Note_off_c, 0, 91, 100
2, 234600, Note_on_c, 0, 91, 83
2, 234616, Note_off_c, 0, 93, 100
2, 234624, Note_on_c, 0, 93, 82
2, 234640, Note_off_c, 0, 91, 100
2, 234648, Note_on_c, 0, 91, 81
2, 234664, Note_off_c, 0, 93, 100
2, 234672, Note_on_c, 0, 93, 81
2, 234688, Note_off_c, 0, 91, 100
2, 234696, Note_on_c, 0, 91, 80
2, 234712, Note_off_c, 0, 93, 100
2, 234720, Note_on_c, 0, 93, 80
2, 234720, Note_on_c, 0, 84, 80
2, 234736, Note_off_c, 0, 91, 100
2, 234744, Note_on_c, 0, 91, 80
2, 234760, Note_off_c, 0, 93, 100
2, 234768, Note_on_c, 0, 93, 80
2, 234784, Note_off_c, 0, 91, 100
2, 234792, Note_on_c, 0, 91, 80
2, 234808, Note_off_c, 0, 93, 100
2, 234816, Note_on_c, 0, 93, 80
2, 234832, Note_off_c, 0, 91, 100
2, 234840, Note_on_c, 0, 91, 80
2, 234856, Note_off_c, 0, 93, 100
2, 234864, Note_on_c, 0, 93, 80
2, 234880, Note_off_c, 0, 91, 100
2, 234888, Note_on_c, 0, 91, 80
2, 234904, Note_off_c, 0, 93, 100
2, 234908, Note_off_c, 0, 84, 100
2, 234912, Note_on_c, 0, 93, 80
2, 234912, Note_on_c, 0, 79, 80
2, 234928, Note_off_c, 0, 91, 100
2, 234936, Note_on_c, 0, 91, 80
2, 234952, Note_off_c, 0, 93, 100
2, 234960, Note_on_c, 0, 93, 80
2, 234976, Note_off_c, 0, 91, 100
2, 234984, Note_on_c, 0, 91, 80
2, 235000, Note_off_c, 0, 93, 100
2, 235004, Note_off_c, 0, 79, 100
2, 235008, Note_on_c, 0, 93, 80
2, 235008, Note_on_c, 0, 79, 80
2, 235024, Note_off_c, 0, 91, 100
2, 235032, Note_on_c, 0, 91, 80
2, 235048, Note_off_c, 0, 93, 100
2, 235056, Note_on_c, 0, 93, 80
2, 235072, Note_off_c, 0, 91, 100
2, 235080, Note_on_c, 0, 91, 80
2, 235096, Note_off_c, 0, 93, 100
2, 235104, Note_on_c, 0, 93, 80
2, 235120, Note_off_c, 0, 91, 100
2, 235128, Note_on_c, 0, 91, 80
2, 235144, Note_off_c, 0, 93, 100
2, 235152, Note_on_c, 0, 93, 80
2, 235168, Note_off_c, 0, 91, 100
2, 235176, Note_on_c, 0, 91, 80
2, 235192, Note_off_c, 0, 93, 100
2, 235200, Note_on_c, 0, 93, 80
2, 235216, Note_off_c, 0, 91, 100
2, 235224, Note_on_c, 0, 91, 80
2, 235240, Note_off_c, 0, 93, 100
2, 235248, Note_on_c, 0, 93, 80
2, 235264, Note_off_c, 0, 91, 100
2, 235272, Note_on_c, 0, 91, 80
2, 235288, Note_off_c, 0, 93, 100
2, 235296, Note_on_c, 0, 93, 80
2, 235312, Note_off_c, 0, 91, 100
2, 235320, Note_on_c, 0, 91, 80
2, 235336, Note_off_c, 0, 93, 100
2, 235344, Note_on_c, 0, 93, 80
2, 235360, Note_off_c, 0, 91, 100
2, 235368, Note_on_c, 0, 91, 80
2, 235384, Note_off_c, 0, 93, 100
2, 235392, Note_on_c, 0, 93, 80
2, 235408, Note_off_c, 0, 91, 100
2, 235416, Note_on_c, 0, 91, 80
2, 235432, Note_off_c, 0, 93, 100
2, 235440, Note_on_c, 0, 93, 80
2, 235456, Note_off_c, 0, 91, 100
2, 235464, Note_on_c, 0, 91, 80
2, 235480, Note_off_c, 0, 93, 100
2, 235488, Note_on_c, 0, 93, 80
2, 235504, Note_off_c, 0, 91, 100
2, 235512, Note_on_c, 0, 91, 80
2, 235528, Note_off_c, 0, 93, 100
2, 235536, Note_on_c, 0, 93, 80
2, 235552, Note_off_c, 0, 91, 100
2, 235560, Note_on_c, 0, 91, 80
2, 235576, Note_off_c, 0, 93, 100
2, 235580, Note_off_c, 0, 79, 100
2, 235584, Note_on_c, 0, 93, 80
2, 235584, Note_on_c, 0, 86, 80
2, 235600, Note_off_c, 0, 91, 100
2, 235608, Note_on_c, 0, 91, 80
2, 235624, Note_off_c, 0, 93, 100
2, 235632, Note_on_c, 0, 93, 80
2, 235648, Note_off_c, 0, 91, 100
2, 235656, Note_on_c, 0, 91, 80
2, 235672, Note_off_c, 0, 93, 100
2, 235680, Note_on_c, 0, 93, 80
2, 235696, Note_off_c, 0, 91, 100
2, 235704, Note_on_c, 0, 91, 80
2, 235720, Note_off_c, 0, 93, 100
2, 235728, Note_on_c, 0, 93, 80
2, 235744, Note_off_c, 0, 91, 100
2, 235752, Note_on_c, 0, 91, 80
2, 235768, Note_off_c, 0, 93, 100
2, 235772, Note_off_c, 0, 86, 100
2, 235776, Note_on_c, 0, 93, 80
2, 235776, Note_on_c, 0, 79, 80
2, 235792, Note_off_c, 0, 91, 100
2, 235800, Note_on_c, 0, 91, 80
2, 235816, Note_off_c, 0, 93, 100
2, 235824, Note_on_c, 0, 93, 80
2, 235840, Note_off_c, 0, 91, 100
2, 235848, Note_on_c, 0, 91, 80
2, 235864, Note_off_c, 0, 93, 100
2, 235868, Note_off_c, 0, 79, 100
2, 235872, Note_on_c, 0, 93, 80
2, 235872, Note_on_c, 0, 79, 80
2, 235888, Note_off_c, 0, 91, 100
2, 235896, Note_on_c, 0, 91, 80
2, 235912, Note_off_c, 0, 93, 100
2, 235920, Note_on_c, 0, 93, 80
2, 235936, Note_off_c, 0, 91, 100
2, 235944, Note_on_c, 0, 91, 80
2, 235960, Note_off_c, 0, 93, 100
2, 235968, Note_on_c, 0, 93, 80
2, 235984, Note_off_c, 0, 91, 100
2, 235992, Note_on_c, 0, 91, 80
2, 236008, Note_off_c, 0, 93, 100
2, 236016, Note_on_c, 0, 93, 80
2, 236032, Note_off_c, 0, 91, 100
2, 236040, Note_on_c, 0, 91, 80
2, 236056, Note_off_c, 0, 93, 100
2, 236064, Note_on_c, 0, 93, 80
2, 236080, Note_off_c, 0, 91, 100
2, 236088, Note_on_c, 0, 91, 80
2, 236104, Note_off_c, 0, 93, 100
2, 236112, Note_on_c, 0, 93, 80
2, 236128, Note_off_c, 0, 91, 100
2, 236136, Note_on_c, 0, 91, 80
2, 236152, Note_off_c, 0, 93, 100
2, 236160, Note_on_c, 0, 93, 80
2, 236176, Note_off_c, 0, 91, 100
2, 236184, Note_on_c, 0, 91, 80
2, 236200, Note_off_c, 0, 93, 100
2, 236208, Note_on_c, 0, 93, 80
2, 236224, Note_off_c, 0, 91, 100
2, 236232, Note_on_c, 0, 91, 80
2, 236248, Note_off_c, 0, 93, 100
2, 236256, Note_on_c, 0, 93, 80
2, 236272, Note_off_c, 0, 91, 100
2, 236280, Note_on_c, 0, 91, 80
2, 236296, Note_off_c, 0, 93, 100
2, 236304, Note_on_c, 0, 93, 80
2, 236320, Note_off_c, 0, 91, 100
2, 236328, Note_on_c, 0, 91, 80
2, 236344, Note_off_c, 0, 93, 100
2, 236352, Note_on_c, 0, 93, 80
2, 236368, Note_off_c, 0, 91, 100
2, 236376, Note_on_c, 0, 91, 80
2, 236392, Note_off_c, 0, 93, 100
2, 236400, Note_on_c, 0, 93, 80
2, 236416, Note_off_c, 0, 91, 100
2, 236424, Note_on_c, 0, 91, 80
2, 236440, Note_off_c, 0, 93, 100
2, 236444, Note_off_c, 0, 79, 100
2, 236448, Note_on_c, 0, 93, 80
2, 236448, Note_on_c, 0, 79, 80
2, 236464, Note_off_c, 0, 91, 100
2, 236472, Note_on_c, 0, 91, 80
2, 236488, Note_off_c, 0, 93, 100
2, 236496, Note_on_c, 0, 93, 80
2, 236512, Note_off_c, 0, 91, 100
2, 236520, Note_on_c, 0, 91, 80
2, 236536, Note_off_c, 0, 93, 100
2, 236544, Note_on_c, 0, 93, 80
2, 236560, Note_off_c, 0, 91, 100
2, 236568, Note_on_c, 0, 91, 80
2, 236584, Note_off_c, 0, 93, 100
2, 236592, Note_on_c, 0, 93, 80
2, 236608, Note_off_c, 0, 91, 100
2, 236616, Note_on_c, 0, 91, 80
2, 236632, Note_off_c, 0, 93, 100
2, 236640, Note_on_c, 0, 93, 80
2, 236656, Note_off_c, 0, 91, 100
2, 236664, Note_on_c, 0, 91, 80
2, 236680, Note_off_c, 0, 93, 100
2, 236688, Note_on_c, 0, 93, 80
2, 236704, Note_off_c, 0, 91, 100
2, 236712, Note_on_c, 0, 91, 80
2, 236728, Note_off_c, 0, 93, 100
2, 236732, Note_off_c, 0, 79, 100
2, 236736, Note_on_c, 0, 93, 80
2, 236736, Note_on_c, 0, 79, 80
2, 236752, Note_off_c, 0, 91, 100
2, 236760, Note_on_c, 0, 91, 80
2, 236776, Note_off_c, 0, 93, 100
2, 236784, Note_on_c, 0, 93, 80
2, 236800, Note_off_c, 0, 91, 100
2, 236808, Note_on_c, 0, 91, 80
2, 236824, Note_off_c, 0, 93, 100
2, 236832, Note_on_c, 0, 93, 80
2, 236848, Note_off_c, 0, 91, 100
2, 236856, Note_on_c, 0, 91, 80
2, 236872, Note_off_c, 0, 93, 100
2, 236880, Note_on_c, 0, 93, 80
2, 236896, Note_off_c, 0, 91, 100
2, 236904, Note_on_c, 0, 91, 80
2, 236920, Note_off_c, 0, 93, 100
2, 236928, Note_on_c, 0, 93, 80
2, 236944, Note_off_c, 0, 91, 100
2, 236952, Note_on_c, 0, 91, 80
2, 236968, Note_off_c, 0, 93, 100
2, 236976, Note_on_c, 0, 93, 80
2, 236992, Note_off_c, 0, 91, 100
2, 237000, Note_on_c, 0, 91, 80
2, 237016, Note_off_c, 0, 93, 100
2, 237020, Note_off_c, 0, 79, 100
2, 237024, Note_on_c, 0, 93, 80
2, 237024, Note_on_c, 0, 88, 80
2, 237040, Note_off_c, 0, 91, 100
2, 237048, Note_on_c, 0, 91, 80
2, 237064, Note_off_c, 0, 93, 100
2, 237072, Note_on_c, 0, 93, 80
2, 237088, Note_off_c, 0, 91, 100
2, 237096, Note_on_c, 0, 91, 80
2, 237112, Note_off_c, 0, 93, 100
2, 237120, Note_on_c, 0, 93, 80
2, 237136, Note_off_c, 0, 91, 100
2, 237144, Note_on_c, 0, 91, 80
2, 237160, Note_off_c, 0, 93, 100
2, 237168, Note_on_c, 0, 93, 80
2, 237184, Note_off_c, 0, 91, 100
2, 237192, Note_on_c, 0, 91, 80
2, 237208, Note_off_c, 0, 93, 100
2, 237216, Note_on_c, 0, 93, 80
2, 237232, Note_off_c, 0, 91, 100
2, 237240, Note_on_c, 0, 91, 80
2, 237256, Note_off_c, 0, 93, 100
2, 237264, Note_on_c, 0, 93, 80
2, 237280, Note_off_c, 0, 91, 100
2, 237288, Note_on_c, 0, 91, 80
2, 237304, Note_off_c, 0, 93, 100
2, 237308, Note_off_c, 0, 88, 100
2, 237312, Note_on_c, 0, 93, 80
2, 237312, Note_on_c, 0, 84, 80
2, 237328, Note_off_c, 0, 91, 100
2, 237336, Note_on_c, 0, 91, 80
2, 237352, Note_off_c, 0, 93, 100
2, 237360, Note_on_c, 0, 93, 80
2, 237376, Note_off_c, 0, 91, 100
2, 237384, Note_on_c, 0, 91, 80
2, 237400, Note_off_c, 0, 93, 100
2, 237408, Note_on_c, 0, 93, 80
2, 237424, Note_off_c, 0, 91, 100
2, 237432, Note_on_c, 0, 91, 80
2, 237448, Note_off_c, 0, 93, 100
2, 237456, Note_on_c, 0, 93, 80
2, 237472, Note_off_c, 0, 91, 100
2, 237480, Note_on_c, 0, 91, 80
2, 237496, Note_off_c, 0, 93, 100
2, 237504, Note_on_c, 0, 93, 80
2, 237520, Note_off_c, 0, 91, 100
2, 237528, Note_on_c, 0, 91, 80
2, 237544, Note_off_c, 0, 93, 100
2, 237552, Note_on_c, 0, 93, 80
2, 237568, Note_off_c, 0, 91, 100
2, 237576, Note_on_c, 0, 91, 80
2, 237592, Note_off_c, 0, 93, 100
2, 237596, Note_off_c, 0, 84, 100
2, 237600, Note_on_c, 0, 93, 80
2, 237600, Note_on_c, 0, 84, 80
2, 237616, Note_off_c, 0, 91, 100
2, 237624, Note_on_c, 0, 91, 80
2, 237640, Note_off_c, 0, 93, 100
2, 237648, Note_on_c, 0, 93, 80
2, 237664, Note_off_c, 0, 91, 100
2, 237672, Note_on_c, 0, 91, 80
2, 237688, Note_off_c, 0, 93, 100
2, 237696, Note_on_c, 0, 93, 80
2, 237712, Note_off_c, 0, 91, 100
2, 237720, Note_on_c, 0, 91, 80
2, 237736, Note_off_c, 0, 93, 100
2, 237744, Note_on_c, 0, 93, 80
2, 237760, Note_off_c, 0, 91, 100
2, 237768, Note_on_c, 0, 91, 80
2, 237784, Note_off_c, 0, 93, 100
2, 237792, Note_on_c, 0, 93, 80
2, 237808, Note_off_c, 0, 91, 100
2, 237816, Note_on_c, 0, 91, 80
2, 237832, Note_off_c, 0, 93, 100
2, 237840, Note_on_c, 0, 93, 80
2, 237856, Note_off_c, 0, 91, 100
2, 237864, Note_on_c, 0, 91, 80
2, 237880, Note_off_c, 0, 93, 100
2, 237884, Note_off_c, 0, 84, 100
2, 237888, Note_on_c, 0, 93, 80
2, 237888, Note_on_c, 0, 83, 80
2, 237904, Note_off_c, 0, 91, 100
2, 237912, Note_on_c, 0, 91, 80
2, 237928, Note_off_c, 0, 93, 100
2, 237936, Note_on_c, 0, 93, 80
2, 237952, Note_off_c, 0, 91, 100
2, 237960, Note_on_c, 0, 91, 80
2, 237976, Note_off_c, 0, 93, 100
2, 237984, Note_on_c, 0, 93, 80
2, 238000, Note_off_c, 0, 91, 100
2, 238008, Note_on_c, 0, 91, 80
2, 238024, Note_off_c, 0, 93, 100
2, 238032, Note_on_c, 0, 93, 80
2, 238048, Note_off_c, 0, 91, 100
2, 238056, Note_on_c, 0, 91, 80
2, 238072, Note_off_c, 0, 93, 100
2, 238080, Note_on_c, 0, 93, 80
2, 238096, Note_off_c, 0, 91, 100
2, 238104, Note_on_c, 0, 91, 80
2, 238120, Note_off_c, 0, 93, 100
2, 238128, Note_on_c, 0, 93, 80
2, 238144, Note_off_c, 0, 91, 100
2, 238152, Note_on_c, 0, 91, 80
2, 238168, Note_off_c, 0, 93, 100
2, 238172, Note_off_c, 0, 83, 100
2, 238172, Note_off_c, 0, 91, 64
2, 238176, Note_on_c, 0, 81, 80
2, 238176, Note_on_c, 0, 83, 80
2, 238200, Note_on_c, 0, 79, 80
2, 238216, Note_off_c, 0, 81, 100
2, 238224, Note_on_c, 0, 81, 80
2, 238240, Note_off_c, 0, 79, 100
2, 238248, Note_on_c, 0, 79, 80
2, 238264, Note_off_c, 0, 81, 100
2, 238272, Note_on_c, 0, 81, 80
2, 238288, Note_off_c, 0, 79, 100
2, 238296, Note_on_c, 0, 79, 80
2, 238312, Note_off_c, 0, 81, 100
2, 238320, Note_on_c, 0, 81, 80
2, 238336, Note_off_c, 0, 79, 100
2, 238344, Note_on_c, 0, 79, 80
2, 238360, Note_off_c, 0, 81, 100
2, 238368, Note_on_c, 0, 81, 80
2, 238384, Note_off_c, 0, 79, 100
2, 238392, Note_on_c, 0, 79, 80
2, 238408, Note_off_c, 0, 81, 100
2, 238416, Note_on_c, 0, 81, 80
2, 238432, Note_off_c, 0, 79, 100
2, 238440, Note_on_c, 0, 79, 80
2, 238456, Note_off_c, 0, 81, 100
2, 238460, Note_off_c, 0, 83, 100
2, 238464, Note_on_c, 0, 81, 80
2, 238464, Note_on_c, 0, 84, 80
2, 238488, Note_on_c, 0, 79, 80
2, 238504, Note_off_c, 0, 81, 100
2, 238512, Note_on_c, 0, 81, 80
2, 238528, Note_off_c, 0, 79, 100
2, 238535, Note_off_c, 0, 79, 100
2, 238536, Note_on_c, 0, 79, 80
2, 238552, Note_off_c, 0, 81, 100
2, 238560, Note_on_c, 0, 81, 80
2, 238581, Note_off_c, 0, 79, 100
2, 238584, Note_on_c, 0, 79, 80
2, 238600, Note_off_c, 0, 81, 100
2, 238608, Note_on_c, 0, 81, 80
2, 238629, Note_off_c, 0, 79, 100
2, 238632, Note_on_c, 0, 79, 80
2, 238648, Note_off_c, 0, 81, 100
2, 238656, Note_on_c, 0, 81, 80
2, 238678, Note_off_c, 0, 79, 100
2, 238680, Note_on_c, 0, 79, 80
2, 238696, Note_off_c, 0, 81, 100
2, 238704, Note_on_c, 0, 81, 80
2, 238726, Note_off_c, 0, 79, 64
2, 238728, Note_on_c, 0, 79, 80
2, 238744, Note_off_c, 0, 81, 100
2, 238748, Note_off_c, 0, 84, 100
2, 238752, Note_on_c, 0, 81, 80
2, 238752, Note_on_c, 0, 88, 80
2, 238772, Note_off_c, 0, 79, 64
2, 238776, Note_on_c, 0, 79, 80
2, 238792, Note_off_c, 0, 81, 100
2, 238800, Note_on_c, 0, 81, 80
2, 238821, Note_off_c, 0, 79, 100
2, 238824, Note_on_c, 0, 79, 80
2, 238840, Note_off_c, 0, 81, 100
2, 238848, Note_on_c, 0, 81, 80
2, 238870, Note_off_c, 0, 79, 100
2, 238872, Note_on_c, 0, 79, 80
2, 238888, Note_off_c, 0, 81, 100
2, 238896, Note_on_c, 0, 81, 80
2, 238917, Note_off_c, 0, 79, 100
2, 238920, Note_on_c, 0, 79, 80
2, 238936, Note_off_c, 0, 81, 100
2, 238944, Note_on_c, 0, 81, 80
2, 238966, Note_off_c, 0, 79, 100
2, 238968, Note_on_c, 0, 79, 80
2, 238984, Note_off_c, 0, 81, 100
2, 238992, Note_on_c, 0, 81, 80
2, 239014, Note_off_c, 0, 79, 64
2, 239016, Note_on_c, 0, 79, 80
2, 239032, Note_off_c, 0, 81, 100
2, 239036, Note_off_c, 0, 88, 100
2, 239040, Note_on_c, 0, 91, 80
2, 239040, Note_on_c, 0, 81, 80
2, 239060, Note_off_c, 0, 79, 64
2, 239064, Note_on_c, 0, 79, 80
2, 239080, Note_off_c, 0, 81, 100
2, 239086, Note_off_c, 0, 91, 64
2, 239088, Note_on_c, 0, 81, 80
2, 239109, Note_off_c, 0, 79, 100
2, 239112, Note_on_c, 0, 79, 80
2, 239128, Note_off_c, 0, 81, 100
2, 239136, Note_on_c, 0, 81, 80
2, 239157, Note_off_c, 0, 79, 100
2, 239160, Note_on_c, 0, 79, 80
2, 239176, Note_off_c, 0, 81, 100
2, 239184, Note_on_c, 0, 81, 80
2, 239207, Note_off_c, 0, 79, 100
2, 239208, Note_on_c, 0, 79, 80
2, 239224, Note_off_c, 0, 81, 100
2, 239232, Note_on_c, 0, 81, 80
2, 239255, Note_off_c, 0, 79, 100
2, 239256, Note_on_c, 0, 79, 80
2, 239272, Note_off_c, 0, 81, 100
2, 239280, Note_on_c, 0, 81, 80
2, 239301, Note_off_c, 0, 79, 64
2, 239304, Note_on_c, 0, 79, 80
2, 239320, Note_off_c, 0, 81, 100
2, 239328, Note_on_c, 0, 91, 80
2, 239328, Note_on_c, 0, 81, 80
2, 239344, Note_off_c, 0, 79, 64
2, 239352, Note_on_c, 0, 79, 80
2, 239368, Note_off_c, 0, 81, 100
2, 239372, Note_off_c, 0, 91, 64
2, 239376, Note_on_c, 0, 81, 80
2, 239399, Note_off_c, 0, 79, 100
2, 239400, Note_on_c, 0, 79, 80
2, 239416, Note_off_c, 0, 81, 100
2, 239424, Note_on_c, 0, 81, 80
2, 239447, Note_off_c, 0, 79, 100
2, 239448, Note_on_c, 0, 79, 80
2, 239464, Note_off_c, 0, 81, 100
2, 239472, Note_on_c, 0, 81, 80
2, 239494, Note_off_c, 0, 79, 100
2, 239496, Note_on_c, 0, 79, 80
2, 239512, Note_off_c, 0, 81, 100
2, 239520, Note_on_c, 0, 81, 80
2, 239540, Note_off_c, 0, 79, 100
2, 239544, Note_on_c, 0, 79, 80
2, 239560, Note_off_c, 0, 81, 100
2, 239568, Note_on_c, 0, 81, 80
2, 239590, Note_off_c, 0, 79, 64
2, 239592, Note_on_c, 0, 79, 80
2, 239608, Note_off_c, 0, 81, 100
2, 239616, Note_on_c, 0, 81, 80
2, 239616, Note_on_c, 0, 89, 80
2, 239633, Note_off_c, 0, 79, 64
2, 239640, Note_on_c, 0, 79, 80
2, 239656, Note_off_c, 0, 81, 100
2, 239664, Note_on_c, 0, 81, 80
2, 239684, Note_off_c, 0, 79, 100
2, 239688, Note_on_c, 0, 79, 80
2, 239704, Note_off_c, 0, 81, 100
2, 239712, Note_on_c, 0, 81, 80
2, 239735, Note_off_c, 0, 79, 100
2, 239736, Note_on_c, 0, 79, 80
2, 239752, Note_off_c, 0, 81, 100
2, 239760, Note_on_c, 0, 81, 80
2, 239782, Note_off_c, 0, 79, 100
2, 239784, Note_on_c, 0, 79, 80
2, 239800, Note_off_c, 0, 81, 100
2, 239808, Note_on_c, 0, 81, 80
2, 239828, Note_off_c, 0, 79, 100
2, 239832, Note_on_c, 0, 79, 80
2, 239848, Note_off_c, 0, 81, 100
2, 239856, Note_on_c, 0, 81, 80
2, 239879, Note_off_c, 0, 79, 64
2, 239880, Note_on_c, 0, 79, 80
2, 239896, Note_off_c, 0, 81, 100
2, 239900, Note_off_c, 0, 89, 100
2, 239904, Note_on_c, 0, 81, 80
2, 239904, Note_on_c, 0, 86, 80
2, 239923, Note_off_c, 0, 79, 64
2, 239928, Note_on_c, 0, 79, 80
2, 239944, Note_off_c, 0, 81, 100
2, 239952, Note_on_c, 0, 81, 80
2, 239972, Note_off_c, 0, 79, 100
2, 239976, Note_on_c, 0, 79, 80
2, 239997, Note_off_c, 0, 81, 100
2, 240000, Note_on_c, 0, 81, 80
2, 240020, Note_off_c, 0, 79, 100
2, 240024, Note_on_c, 0, 79, 80
2, 240040, Note_off_c, 0, 81, 100
2, 240048, Note_on_c, 0, 81, 80
2, 240067, Note_off_c, 0, 79, 100
2, 240072, Note_on_c, 0, 79, 80
2, 240088, Note_off_c, 0, 81, 100
2, 240092, Note_off_c, 0, 86, 100
2, 240096, Note_on_c, 0, 81, 80
2, 240096, Note_on_c, 0, 84, 80
2, 240118, Note_off_c, 0, 79, 100
2, 240120, Note_on_c, 0, 79, 80
2, 240136, Note_off_c, 0, 81, 100
2, 240144, Note_on_c, 0, 81, 80
2, 240165, Note_off_c, 0, 79, 64
2, 240168, Note_on_c, 0, 79, 80
2, 240184, Note_off_c, 0, 81, 100
2, 240188, Note_off_c, 0, 84, 100
2, 240192, Note_on_c, 0, 81, 80
2, 240192, Note_on_c, 0, 83, 80
2, 240211, Note_off_c, 0, 79, 64
2, 240216, Note_on_c, 0, 79, 80
2, 240232, Note_off_c, 0, 81, 100
2, 240240, Note_on_c, 0, 81, 80
2, 240261, Note_off_c, 0, 79, 100
2, 240264, Note_on_c, 0, 79, 80
2, 240280, Note_off_c, 0, 81, 100
2, 240288, Note_on_c, 0, 81, 80
2, 240311, Note_off_c, 0, 79, 100
2, 240312, Note_on_c, 0, 79, 80
2, 240328, Note_off_c, 0, 81, 100
2, 240336, Note_on_c, 0, 81, 80
2, 240357, Note_off_c, 0, 79, 100
2, 240360, Note_on_c, 0, 79, 80
2, 240376, Note_off_c, 0, 81, 100
2, 240384, Note_on_c, 0, 81, 80
2, 240404, Note_off_c, 0, 79, 100
2, 240408, Note_on_c, 0, 79, 80
2, 240424, Note_off_c, 0, 81, 100
2, 240432, Note_on_c, 0, 81, 80
2, 240454, Note_off_c, 0, 79, 64
2, 240456, Note_on_c, 0, 79, 80
2, 240472, Note_off_c, 0, 81, 100
2, 240476, Note_off_c, 0, 83, 100
2, 240480, Note_on_c, 0, 81, 80
2, 240480, Note_on_c, 0, 84, 80
2, 240500, Note_off_c, 0, 79, 64
2, 240504, Note_on_c, 0, 79, 80
2, 240520, Note_off_c, 0, 81, 100
2, 240528, Note_on_c, 0, 81, 80
2, 240549, Note_off_c, 0, 79, 100
2, 240552, Note_on_c, 0, 79, 80
2, 240568, Note_off_c, 0, 81, 100
2, 240576, Note_on_c, 0, 81, 80
2, 240599, Note_off_c, 0, 79, 100
2, 240600, Note_on_c, 0, 79, 80
2, 240616, Note_off_c, 0, 81, 100
2, 240624, Note_on_c, 0, 81, 80
2, 240644, Note_off_c, 0, 79, 100
2, 240648, Note_on_c, 0, 79, 80
2, 240664, Note_off_c, 0, 81, 100
2, 240672, Note_on_c, 0, 81, 80
2, 240692, Note_off_c, 0, 79, 100
2, 240696, Note_on_c, 0, 79, 80
2, 240712, Note_off_c, 0, 81, 100
2, 240720, Note_on_c, 0, 81, 80
2, 240742, Note_off_c, 0, 79, 64
2, 240744, Note_on_c, 0, 79, 80
2, 240760, Note_off_c, 0, 81, 100
2, 240764, Note_off_c, 0, 84, 100
2, 240768, Note_on_c, 0, 81, 80
2, 240768, Note_on_c, 0, 86, 80
2, 240789, Note_off_c, 0, 79, 64
2, 240792, Note_on_c, 0, 79, 80
2, 240808, Note_off_c, 0, 81, 100
2, 240816, Note_on_c, 0, 81, 80
2, 240839, Note_off_c, 0, 79, 100
2, 240840, Note_on_c, 0, 79, 80
2, 240856, Note_off_c, 0, 81, 100
2, 240864, Note_on_c, 0, 81, 80
2, 240887, Note_off_c, 0, 79, 100
2, 240888, Note_on_c, 0, 79, 80
2, 240904, Note_off_c, 0, 81, 100
2, 240912, Note_on_c, 0, 81, 80
2, 240930, Note_off_c, 0, 79, 100
2, 240936, Note_on_c, 0, 79, 80
2, 240952, Note_off_c, 0, 81, 100
2, 240956, Note_off_c, 0, 86, 100
2, 240959, Note_off_c, 0, 79, 100
2, 240960, Note_on_c, 0, 81, 80
2, 240960, Note_on_c, 0, 79, 80
2, 240983, Note_off_c, 0, 79, 100
2, 240984, Note_on_c, 0, 79, 80
2, 241000, Note_off_c, 0, 81, 100
2, 241008, Note_on_c, 0, 81, 80
2, 241029, Note_off_c, 0, 79, 64
2, 241032, Note_on_c, 0, 79, 80
2, 241048, Note_off_c, 0, 81, 100
2, 241056, Note_on_c, 0, 81, 80
2, 241079, Note_off_c, 0, 79, 64
2, 241080, Note_on_c, 0, 79, 80
2, 241096, Note_off_c, 0, 81, 100
2, 241104, Note_on_c, 0, 81, 80
2, 241127, Note_off_c, 0, 79, 100
2, 241128, Note_on_c, 0, 79, 80
2, 241144, Note_off_c, 0, 81, 100
2, 241152, Note_on_c, 0, 81, 80
2, 241175, Note_off_c, 0, 79, 100
2, 241176, Note_on_c, 0, 79, 80
2, 241192, Note_off_c, 0, 81, 100
2, 241200, Note_on_c, 0, 81, 80
2, 241221, Note_off_c, 0, 79, 100
2, 241224, Note_on_c, 0, 79, 80
2, 241240, Note_off_c, 0, 81, 100
2, 241248, Note_on_c, 0, 81, 80
2, 241269, Note_off_c, 0, 79, 100
2, 241272, Note_on_c, 0, 79, 80
2, 241288, Note_off_c, 0, 81, 100
2, 241296, Note_on_c, 0, 81, 80
2, 241316, Note_off_c, 0, 79, 64
2, 241320, Note_on_c, 0, 79, 80
2, 241336, Note_off_c, 0, 81, 100
2, 241344, Note_on_c, 0, 81, 80
2, 241367, Note_off_c, 0, 79, 64
2, 241368, Note_on_c, 0, 79, 80
2, 241384, Note_off_c, 0, 81, 100
2, 241392, Note_on_c, 0, 81, 80
2, 241414, Note_off_c, 0, 79, 100
2, 241416, Note_on_c, 0, 79, 80
2, 241432, Note_off_c, 0, 81, 100
2, 241440, Note_on_c, 0, 81, 80
2, 241461, Note_off_c, 0, 79, 100
2, 241464, Note_on_c, 0, 79, 80
2, 241480, Note_off_c, 0, 81, 100
2, 241488, Note_on_c, 0, 81, 80
2, 241509, Note_off_c, 0, 79, 100
2, 241512, Note_on_c, 0, 79, 80
2, 241528, Note_off_c, 0, 81, 100
2, 241536, Note_on_c, 0, 81, 80
2, 241559, Note_off_c, 0, 79, 100
2, 241560, Note_on_c, 0, 79, 80
2, 241576, Note_off_c, 0, 81, 100
2, 241584, Note_on_c, 0, 81, 80
2, 241605, Note_off_c, 0, 79, 64
2, 241608, Note_on_c, 0, 79, 80
2, 241624, Note_off_c, 0, 81, 100
2, 241632, Note_on_c, 0, 81, 80
2, 241632, Note_on_c, 0, 74, 80
2, 241654, Note_off_c, 0, 79, 64
2, 241656, Note_on_c, 0, 79, 80
2, 241672, Note_off_c, 0, 81, 100
2, 241680, Note_on_c, 0, 81, 80
2, 241698, Note_off_c, 0, 79, 100
2, 241704, Note_on_c, 0, 79, 80
2, 241720, Note_off_c, 0, 81, 100
2, 241728, Note_on_c, 0, 81, 80
2, 241748, Note_off_c, 0, 79, 100
2, 241752, Note_on_c, 0, 79, 80
2, 241768, Note_off_c, 0, 81, 100
2, 241776, Note_on_c, 0, 81, 80
2, 241795, Note_off_c, 0, 79, 100
2, 241800, Note_on_c, 0, 79, 80
2, 241816, Note_off_c, 0, 81, 100
2, 241820, Note_off_c, 0, 74, 100
2, 241824, Note_on_c, 0, 81, 80
2, 241824, Note_on_c, 0, 67, 80
2, 241847, Note_off_c, 0, 79, 100
2, 241848, Note_on_c, 0, 79, 80
2, 241864, Note_off_c, 0, 81, 100
2, 241872, Note_on_c, 0, 81, 80
2, 241895, Note_off_c, 0, 79, 64
2, 241896, Note_on_c, 0, 79, 80
2, 241912, Note_off_c, 0, 81, 100
2, 241916, Note_off_c, 0, 67, 100
2, 241920, Note_on_c, 0, 81, 80
2, 241920, Note_on_c, 0, 67, 80
2, 241941, Note_off_c, 0, 79, 64
2, 241944, Note_on_c, 0, 79, 80
2, 241960, Note_off_c, 0, 81, 100
2, 241968, Note_on_c, 0, 81, 80
2, 241990, Note_off_c, 0, 79, 100
2, 241992, Note_on_c, 0, 79, 80
2, 242008, Note_off_c, 0, 81, 100
2, 242016, Note_on_c, 0, 81, 80
2, 242038, Note_off_c, 0, 79, 100
2, 242040, Note_on_c, 0, 79, 80
2, 242056, Note_off_c, 0, 81, 100
2, 242064, Note_on_c, 0, 81, 80
2, 242081, Note_off_c, 0, 79, 100
2, 242088, Note_on_c, 0, 79, 80
2, 242104, Note_off_c, 0, 81, 100
2, 242112, Note_on_c, 0, 81, 80
2, 242133, Note_off_c, 0, 79, 100
2, 242136, Note_on_c, 0, 79, 80
2, 242152, Note_off_c, 0, 81, 100
2, 242160, Note_on_c, 0, 81, 80
2, 242182, Note_off_c, 0, 79, 64
2, 242184, Note_on_c, 0, 79, 80
2, 242200, Note_off_c, 0, 81, 100
2, 242208, Note_on_c, 0, 81, 80
2, 242229, Note_off_c, 0, 79, 64
2, 242232, Note_on_c, 0, 79, 80
2, 242248, Note_off_c, 0, 81, 100
2, 242256, Note_on_c, 0, 81, 80
2, 242279, Note_off_c, 0, 79, 100
2, 242280, Note_on_c, 0, 79, 80
2, 242296, Note_off_c, 0, 81, 100
2, 242304, Note_on_c, 0, 81, 80
2, 242327, Note_off_c, 0, 79, 100
2, 242328, Note_on_c, 0, 79, 80
2, 242344, Note_off_c, 0, 81, 100
2, 242352, Note_on_c, 0, 81, 80
2, 242373, Note_off_c, 0, 79, 100
2, 242376, Note_on_c, 0, 79, 80
2, 242392, Note_off_c, 0, 81, 100
2, 242396, Note_off_c, 0, 67, 100
2, 242400, Note_on_c, 0, 81, 80
2, 242400, Note_on_c, 0, 84, 80
2, 242420, Note_off_c, 0, 79, 100
2, 242424, Note_on_c, 0, 79, 80
2, 242440, Note_off_c, 0, 81, 100
2, 242448, Note_on_c, 0, 81, 80
2, 242469, Note_off_c, 0, 79, 64
2, 242472, Note_on_c, 0, 79, 80
2, 242488, Note_off_c, 0, 81, 100
2, 242490, Note_off_c, 0, 84, 100
2, 242496, Note_on_c, 0, 81, 80
2, 242496, Note_on_c, 0, 85, 80
2, 242519, Note_off_c, 0, 79, 64
2, 242520, Note_on_c, 0, 79, 80
2, 242536, Note_off_c, 0, 81, 100
2, 242544, Note_on_c, 0, 81, 80
2, 242567, Note_off_c, 0, 79, 100
2, 242568, Note_on_c, 0, 79, 80
2, 242584, Note_off_c, 0, 81, 100
2, 242588, Note_off_c, 0, 85, 100
2, 242592, Note_on_c, 0, 81, 80
2, 242592, Note_on_c, 0, 86, 80
2, 242613, Note_off_c, 0, 79, 100
2, 242616, Note_on_c, 0, 79, 80
2, 242632, Note_off_c, 0, 81, 100
2, 242640, Note_on_c, 0, 81, 80
2, 242661, Note_off_c, 0, 79, 100
2, 242664, Note_on_c, 0, 79, 80
2, 242680, Note_off_c, 0, 81, 100
2, 242684, Note_off_c, 0, 86, 100
2, 242687, Note_off_c, 0, 79, 100
2, 242688, Note_on_c, 0, 81, 80
2, 242688, Note_on_c, 0, 79, 80
2, 242711, Note_off_c, 0, 79, 64
2, 242712, Note_on_c, 0, 79, 80
2, 242728, Note_off_c, 0, 81, 100
2, 242736, Note_on_c, 0, 81, 80
2, 242757, Note_off_c, 0, 79, 100
2, 242760, Note_on_c, 0, 79, 80
2, 242776, Note_off_c, 0, 81, 100
2, 242784, Note_on_c, 0, 81, 80
2, 242806, Note_off_c, 0, 79, 64
2, 242808, Note_on_c, 0, 79, 80
2, 242824, Note_off_c, 0, 81, 100
2, 242832, Note_on_c, 0, 81, 80
2, 242852, Note_off_c, 0, 79, 100
2, 242856, Note_on_c, 0, 79, 80
2, 242872, Note_off_c, 0, 81, 100
2, 242880, Note_on_c, 0, 81, 80
2, 242903, Note_off_c, 0, 79, 100
2, 242904, Note_on_c, 0, 79, 80
2, 242920, Note_off_c, 0, 81, 100
2, 242928, Note_on_c, 0, 81, 80
2, 242950, Note_off_c, 0, 79, 100
2, 242952, Note_on_c, 0, 79, 80
2, 242968, Note_off_c, 0, 81, 100
2, 242976, Note_on_c, 0, 81, 80
2, 242999, Note_off_c, 0, 79, 100
2, 243000, Note_on_c, 0, 79, 80
2, 243016, Note_off_c, 0, 81, 100
2, 243024, Note_on_c, 0, 81, 80
2, 243047, Note_off_c, 0, 79, 64
2, 243048, Note_on_c, 0, 79, 80
2, 243064, Note_off_c, 0, 81, 100
2, 243072, Note_on_c, 0, 81, 80
2, 243095, Note_off_c, 0, 79, 64
2, 243096, Note_on_c, 0, 79, 80
2, 243112, Note_off_c, 0, 81, 100
2, 243120, Note_on_c, 0, 81, 80
2, 243142, Note_off_c, 0, 79, 100
2, 243144, Note_on_c, 0, 79, 80
2, 243160, Note_off_c, 0, 81, 100
2, 243168, Note_on_c, 0, 81, 80
2, 243188, Note_off_c, 0, 79, 100
2, 243192, Note_on_c, 0, 79, 80
2, 243208, Note_off_c, 0, 81, 100
2, 243216, Note_on_c, 0, 81, 80
2, 243239, Note_off_c, 0, 79, 100
2, 243240, Note_on_c, 0, 79, 80
2, 243256, Note_off_c, 0, 81, 100
2, 243264, Note_on_c, 0, 81, 80
2, 243264, Note_on_c, 0, 72, 80
2, 243285, Note_off_c, 0, 79, 100
2, 243288, Note_on_c, 0, 79, 80
2, 243304, Note_off_c, 0, 81, 100
2, 243312, Note_on_c, 0, 81, 80
2, 243335, Note_off_c, 0, 79, 64
2, 243336, Note_on_c, 0, 79, 80
2, 243352, Note_off_c, 0, 81, 100
2, 243356, Note_off_c, 0, 72, 100
2, 243360, Note_on_c, 0, 81, 80
2, 243360, Note_on_c, 0, 73, 80
2, 243383, Note_off_c, 0, 79, 64
2, 243384, Note_on_c, 0, 79, 80
2, 243400, Note_off_c, 0, 81, 100
2, 243408, Note_on_c, 0, 81, 80
2, 243430, Note_off_c, 0, 79, 100
2, 243432, Note_on_c, 0, 79, 80
2, 243448, Note_off_c, 0, 81, 100
2, 243452, Note_off_c, 0, 73, 100
2, 243456, Note_on_c, 0, 81, 80
2, 243456, Note_on_c, 0, 74, 80
2, 243476, Note_off_c, 0, 79, 100
2, 243480, Note_on_c, 0, 79, 80
2, 243496, Note_off_c, 0, 81, 100
2, 243504, Note_on_c, 0, 81, 80
2, 243527, Note_off_c, 0, 79, 100
2, 243528, Note_on_c, 0, 79, 80
2, 243544, Note_off_c, 0, 81, 100
2, 243548, Note_off_c, 0, 74, 100
2, 243552, Note_on_c, 0, 81, 80
2, 243552, Note_on_c, 0, 67, 80
2, 243574, Note_off_c, 0, 79, 100
2, 243576, Note_on_c, 0, 79, 80
2, 243592, Note_off_c, 0, 81, 100
2, 243600, Note_on_c, 0, 81, 80
2, 243616, Note_off_c, 0, 67, 100
2, 243622, Note_off_c, 0, 79, 64
2, 243624, Note_on_c, 0, 79, 80
2, 243640, Note_off_c, 0, 81, 100
2, 243648, Note_on_c, 0, 79, 80
2, 243668, Note_off_c, 0, 79, 64
2, 243680, Note_on_c, 0, 81, 80
2, 243708, Note_off_c, 0, 79, 100
2, 243712, Note_on_c, 0, 79, 80
2, 243733, Note_off_c, 0, 81, 100
2, 243744, Note_on_c, 0, 78, 80
2, 243769, Note_off_c, 0, 79, 100
2, 243776, Note_on_c, 0, 79, 80
2, 243804, Note_off_c, 0, 78, 100
2, 243808, Note_on_c, 0, 81, 80
2, 243835, Note_off_c, 0, 79, 64
2, 243840, Note_on_c, 0, 83, 80
2, 243863, Note_off_c, 0, 81, 100
2, 243872, Note_on_c, 0, 84, 80
2, 243900, Note_off_c, 0, 83, 100
2, 243904, Note_on_c, 0, 81, 80
2, 243930, Note_off_c, 0, 84, 100
2, 243936, Note_on_c, 0, 83, 80
2, 243959, Note_off_c, 0, 81, 100
2, 243968, Note_on_c, 0, 84, 80
2, 243995, Note_off_c, 0, 83, 100
2, 244000, Note_on_c, 0, 83, 80
2, 244028, Note_off_c, 0, 84, 100
2, 244032, Note_on_c, 0, 81, 80
2, 244059, Note_off_c, 0, 83, 100
2, 244064, Note_on_c, 0, 83, 80
2, 244091, Note_off_c, 0, 81, 100
2, 244096, Note_on_c, 0, 84, 80
2, 244121, Note_off_c, 0, 83, 100
2, 244128, Note_on_c, 0, 86, 80
2, 244159, Note_off_c, 0, 84, 100
2, 244160, Note_on_c, 0, 88, 80
2, 244187, Note_off_c, 0, 86, 100
2, 244192, Note_on_c, 0, 84, 80
2, 244220, Note_off_c, 0, 88, 100
2, 244224, Note_on_c, 0, 86, 80
2, 244252, Note_off_c, 0, 84, 64
2, 244256, Note_on_c, 0, 88, 80
2, 244282, Note_off_c, 0, 86, 100
2, 244288, Note_on_c, 0, 86, 80
2, 244312, Note_off_c, 0, 88, 100
2, 244320, Note_on_c, 0, 85, 80
2, 244348, Note_off_c, 0, 86, 100
2, 244352, Note_on_c, 0, 86, 80
2, 244376, Note_off_c, 0, 85, 100
2, 244384, Note_on_c, 0, 88, 80
2, 244409, Note_off_c, 0, 86, 100
2, 244416, Note_on_c, 0, 89, 80
2, 244443, Note_off_c, 0, 88, 100
2, 244448, Note_on_c, 0, 91, 80
2, 244476, Note_off_c, 0, 89, 100
2, 244480, Note_on_c, 0, 88, 80
2, 244507, Note_off_c, 0, 91, 64
2, 244512, Note_on_c, 0, 89, 80
2, 244541, Note_off_c, 0, 88, 64
2, 244544, Note_on_c, 0, 91, 80
2, 244570, Note_off_c, 0, 89, 100
2, 244576, Note_on_c, 0, 89, 80
2, 244605, Note_off_c, 0, 91, 64
2, 244608, Note_on_c, 0, 88, 80
2, 244639, Note_off_c, 0, 89, 100
2, 244640, Note_on_c, 0, 89, 80
2, 244671, Note_off_c, 0, 88, 100
2, 244672, Note_on_c, 0, 88, 80
2, 244700, Note_off_c, 0, 89, 100
2, 244704, Note_on_c, 0, 86, 80
2, 244733, Note_off_c, 0, 88, 100
2, 244736, Note_on_c, 0, 88, 80
2, 244763, Note_off_c, 0, 86, 100
2, 244768, Note_on_c, 0, 86, 80
2, 244799, Note_off_c, 0, 88, 100
2, 244800, Note_on_c, 0, 84, 80
2, 244828, Note_off_c, 0, 86, 64
2, 244832, Note_on_c, 0, 86, 80
2, 244861, Note_off_c, 0, 84, 100
2, 244864, Note_on_c, 0, 84, 80
2, 244895, Note_off_c, 0, 86, 100
2, 244896, Note_on_c, 0, 83, 80
2, 244927, Note_off_c, 0, 84, 100
2, 244928, Note_on_c, 0, 84, 80
2, 244959, Note_off_c, 0, 83, 100
2, 244960, Note_on_c, 0, 83, 80
2, 244991, Note_off_c, 0, 84, 100
2, 244992, Note_on_c, 0, 84, 80
2, 245021, Note_off_c, 0, 83, 100
2, 245024, Note_on_c, 0, 86, 80
2, 245052, Note_off_c, 0, 84, 100
2, 245056, Note_on_c, 0, 84, 80
2, 245087, Note_off_c, 0, 86, 100
2, 245088, Note_on_c, 0, 86, 80
2, 245112, Note_off_c, 0, 84, 64
2, 245120, Note_on_c, 0, 88, 80
2, 245151, Note_off_c, 0, 86, 100
2, 245152, Note_on_c, 0, 86, 80
2, 245182, Note_off_c, 0, 88, 100
2, 245184, Note_on_c, 0, 88, 80
2, 245209, Note_off_c, 0, 86, 100
2, 245216, Note_on_c, 0, 89, 80
2, 245246, Note_off_c, 0, 88, 100
2, 245248, Note_on_c, 0, 91, 80
2, 245275, Note_off_c, 0, 89, 100
2, 245280, Note_on_c, 0, 93, 80
2, 245310, Note_off_c, 0, 91, 64
2, 245312, Note_on_c, 0, 91, 80
2, 245343, Note_off_c, 0, 93, 100
2, 245344, Note_on_c, 0, 95, 80
2, 245375, Note_off_c, 0, 91, 100
2, 245376, Note_on_c, 0, 96, 80
2, 245402, Note_off_c, 0, 95, 64
2, 245408, Note_on_c, 0, 95, 81
2, 245438, Note_off_c, 0, 96, 100
2, 245440, Note_on_c, 0, 93, 82
2, 245468, Note_off_c, 0, 95, 100
2, 245472, Note_on_c, 0, 91, 83
2, 245497, Note_off_c, 0, 93, 100
2, 245504, Note_on_c, 0, 89, 84
2, 245535, Note_off_c, 0, 91, 64
2, 245536, Note_on_c, 0, 88, 85
2, 245559, Note_off_c, 0, 89, 100
2, 245568, Note_on_c, 0, 86, 86
2, 245599, Note_off_c, 0, 88, 100
2, 245600, Note_on_c, 0, 84, 88
2, 245624, Note_off_c, 0, 86, 100
2, 245632, Note_on_c, 0, 83, 89
2, 245657, Note_off_c, 0, 84, 100
2, 245664, Note_on_c, 0, 84, 90
2, 245687, Note_off_c, 0, 83, 64
2, 245696, Note_on_c, 0, 83, 91
2, 245725, Note_off_c, 0, 84, 100
2, 245728, Note_on_c, 0, 81, 92
2, 245757, Note_off_c, 0, 83, 100
2, 245760, Note_on_c, 0, 79, 93
2, 245790, Note_off_c, 0, 81, 100
2, 245792, Note_on_c, 0, 77, 94
2, 245823, Note_off_c, 0, 79, 64
2, 245824, Note_on_c, 0, 76, 96
2, 245855, Note_off_c, 0, 77, 100
2, 245856, Note_on_c, 0, 74, 97
2, 245879, Note_off_c, 0, 76, 100
2, 245888, Note_on_c, 0, 72, 98
2, 245912, Note_off_c, 0, 74, 100
2, 245920, Note_on_c, 0, 71, 99
2, 245948, Note_off_c, 0, 72, 100
2, 245952, Note_on_c, 0, 72, 100
2, 245979, Note_off_c, 0, 71, 64
2, 245984, Note_on_c, 0, 71, 101
2, 246012, Note_off_c, 0, 72, 100
2, 246016, Note_on_c, 0, 69, 102
2, 246040, Note_off_c, 0, 71, 100
2, 246048, Note_on_c, 0, 67, 104
2, 246074, Note_off_c, 0, 69, 100
2, 246080, Note_on_c, 0, 65, 105
2, 246107, Note_off_c, 0, 67, 100
2, 246112, Note_on_c, 0, 64, 106
2, 246143, Note_off_c, 0, 65, 100
2, 246144, Note_on_c, 0, 62, 107
2, 246170, Note_off_c, 0, 64, 100
2, 246176, Note_on_c, 0, 60, 108
2, 246204, Note_off_c, 0, 62, 100
2, 246208, Note_on_c, 0, 59, 109
2, 246228, Note_off_c, 0, 60, 100
2, 246240, Note_on_c, 0, 60, 110
2, 246254, Note_off_c, 0, 59, 100
2, 246428, Note_off_c, 0, 60, 100
2, 246432, Note_on_c, 0, 55, 110
2, 246524, Note_off_c, 0, 55, 100
2, 246528, Note_on_c, 0, 55, 110
2, 246812, Note_off_c, 0, 55, 100
2, 246816, Note_on_c, 0, 77, 120
2, 247004, Note_off_c, 0, 77, 100
2, 247008, Note_on_c, 0, 71, 110
2, 247100, Note_off_c, 0, 71, 100
2, 247104, Note_on_c, 0, 89, 120
2, 247292, Note_off_c, 0, 89, 100
2, 247296, Note_on_c, 0, 83, 100
2, 247388, Note_off_c, 0, 83, 100
2, 247392, Note_on_c, 0, 86, 80
2, 247392, Note_on_c, 0, 77, 80
2, 247392, Note_on_c, 0, 74, 80
2, 247580, Note_off_c, 0, 86, 100
2, 247580, Note_off_c, 0, 77, 100
2, 247580, Note_off_c, 0, 74, 100
2, 247584, Note_on_c, 0, 84, 80
2, 247584, Note_on_c, 0, 76, 80
2, 247584, Note_on_c, 0, 72, 80
2, 247676, Note_off_c, 0, 84, 100
2, 247676, Note_off_c, 0, 76, 100
2, 247676, Note_off_c, 0, 72, 100
2, 247680, Note_on_c, 0, 84, 80
2, 247680, Note_on_c, 0, 76, 80
2, 247680, Note_on_c, 0, 72, 80
2, 247868, Note_off_c, 0, 84, 100
2, 247868, Note_off_c, 0, 76, 100
2, 247868, Note_off_c, 0, 72, 100
2, 247968, Note_on_c, 0, 84, 70
2, 247968, Note_on_c, 0, 76, 70
2, 247968, Note_on_c, 0, 72, 70
2, 248156, Note_off_c, 0, 84, 100
2, 248156, Note_off_c, 0, 76, 100
2, 248156, Note_off_c, 0, 72, 100
2, 248256, Note_on_c, 0, 60, 70
2, 248256, Note_on_c, 0, 55, 70
2, 248256, Note_on_c, 0, 52, 70
2, 248732, Note_off_c, 0, 52, 100
2, 248732, Note_off_c, 0, 55, 100
2, 248732, Note_off_c, 0, 60, 100
2, 249024, Control_c, 0, 7, 0
2, 249120, Note_on_c, 0, 60, 1
2, 249308, Note_off_c, 0, 60, 100
2, 249308, End_track
3, 0, Start_track
3, 0, Title_t, "Left"
3, 0, Control_c, 1, 0, 0
3, 0, Program_c, 1, 0
3, 0, Control_c, 1, 7, 100
3, 0, Control_c, 1, 10, 58
3, 0, Control_c, 1, 91, 127
3, 0, Key_signature, 0, "major"
3, 0, Note_on_c, 1, 43, 80
3, 0, Note_on_c, 1, 36, 80
3, 284, Note_off_c, 1, 43, 100
3, 284, Note_off_c, 1, 36, 100
3, 288, Note_on_c, 1, 43, 80
3, 288, Note_on_c, 1, 36, 80
3, 570, Note_off_c, 1, 43, 100
3, 570, Note_off_c, 1, 36, 100
3, 576, Note_on_c, 1, 43, 80
3, 576, Note_on_c, 1, 38, 80
3, 858, Note_off_c, 1, 43, 100
3, 858, Note_off_c, 1, 38, 100
3, 864, Note_on_c, 1, 43, 80
3, 864, Note_on_c, 1, 36, 80
3, 1146, Note_off_c, 1, 43, 100
3, 1146, Note_off_c, 1, 36, 100
3, 1152, Note_on_c, 1, 43, 80
3, 1152, Note_on_c, 1, 35, 80
3, 1436, Note_off_c, 1, 43, 100
3, 1436, Note_off_c, 1, 35, 100
3, 1440, Note_on_c, 1, 43, 80
3, 1440, Note_on_c, 1, 36, 80
3, 1724, Note_off_c, 1, 43, 100
3, 1724, Note_off_c, 1, 36, 100
3, 1728, Note_on_c, 1, 43, 80
3, 1728, Note_on_c, 1, 38, 80
3, 2012, Note_off_c, 1, 43, 100
3, 2012, Note_off_c, 1, 38, 100
3, 2016, Note_on_c, 1, 43, 80
3, 2016, Note_on_c, 1, 40, 80
3, 2300, Note_off_c, 1, 43, 100
3, 2300, Note_off_c, 1, 40, 100
3, 2304, Note_on_c, 1, 43, 80
3, 2304, Note_on_c, 1, 36, 80
3, 2588, Note_off_c, 1, 43, 100
3, 2588, Note_off_c, 1, 36, 100
3, 2592, Note_on_c, 1, 43, 80
3, 2592, Note_on_c, 1, 40, 80
3, 2876, Note_off_c, 1, 43, 100
3, 2876, Note_off_c, 1, 40, 100
3, 2880, Note_on_c, 1, 31, 80
3, 3168, Note_on_c, 1, 43, 80
3, 3452, Note_off_c, 1, 43, 100
3, 3456, Note_on_c, 1, 43, 80
3, 3644, Note_off_c, 1, 31, 100
3, 3644, Note_off_c, 1, 43, 100
3, 3648, Note_on_c, 1, 41, 80
3, 3648, Note_on_c, 1, 29, 80
3, 3740, Note_off_c, 1, 41, 100
3, 3740, Note_off_c, 1, 29, 100
3, 3744, Note_on_c, 1, 40, 80
3, 3744, Note_on_c, 1, 28, 80
3, 4316, Note_off_c, 1, 40, 100
3, 4316, Note_off_c, 1, 28, 100
3, 4320, Note_on_c, 1, 40, 100
3, 4320, Note_on_c, 1, 28, 100
3, 4604, Note_off_c, 1, 40, 100
3, 4604, Note_off_c, 1, 28, 100
3, 4608, Note_on_c, 1, 38, 100
3, 4608, Note_on_c, 1, 26, 100
3, 5180, Note_off_c, 1, 38, 100
3, 5180, Note_off_c, 1, 26, 100
3, 5184, Note_on_c, 1, 41, 85
3, 5184, Note_on_c, 1, 29, 85
3, 5372, Note_off_c, 1, 41, 100
3, 5372, Note_off_c, 1, 29, 100
3, 5376, Note_on_c, 1, 42, 80
3, 5376, Note_on_c, 1, 30, 80
3, 5468, Note_off_c, 1, 42, 100
3, 5468, Note_off_c, 1, 30, 100
3, 5472, Note_on_c, 1, 43, 80
3, 5472, Note_on_c, 1, 31, 80
3, 5756, Note_off_c, 1, 43, 100
3, 5760, Note_on_c, 1, 45, 80
3, 6044, Note_off_c, 1, 31, 100
3, 6044, Note_off_c, 1, 45, 100
3, 6048, Note_on_c, 1, 47, 80
3, 6236, Note_off_c, 1, 47, 100
3, 6240, Note_on_c, 1, 47, 80
3, 6524, Note_off_c, 1, 47, 100
3, 6528, Note_on_c, 1, 47, 90
3, 6620, Note_off_c, 1, 47, 100
3, 6624, Note_on_c, 1, 48, 90
3, 6812, Note_off_c, 1, 48, 100
3, 6816, Note_on_c, 1, 50, 80
3, 6908, Note_off_c, 1, 50, 100
3, 6912, Note_on_c, 1, 43, 80
3, 6912, Note_on_c, 1, 36, 80
3, 7196, Note_off_c, 1, 43, 100
3, 7196, Note_off_c, 1, 36, 100
3, 7200, Note_on_c, 1, 43, 80
3, 7200, Note_on_c, 1, 36, 80
3, 7482, Note_off_c, 1, 43, 100
3, 7482, Note_off_c, 1, 36, 100
3, 7488, Note_on_c, 1, 43, 80
3, 7488, Note_on_c, 1, 38, 80
3, 7770, Note_off_c, 1, 43, 100
3, 7770, Note_off_c, 1, 38, 100
3, 7776, Note_on_c, 1, 43, 80
3, 7776, Note_on_c, 1, 36, 80
3, 8058, Note_off_c, 1, 43, 100
3, 8058, Note_off_c, 1, 36, 100
3, 8064, Note_on_c, 1, 43, 80
3, 8064, Note_on_c, 1, 35, 80
3, 8348, Note_off_c, 1, 43, 100
3, 8348, Note_off_c, 1, 35, 100
3, 8352, Note_on_c, 1, 43, 80
3, 8352, Note_on_c, 1, 36, 80
3, 8636, Note_off_c, 1, 43, 100
3, 8636, Note_off_c, 1, 36, 100
3, 8640, Note_on_c, 1, 43, 80
3, 8640, Note_on_c, 1, 38, 80
3, 8924, Note_off_c, 1, 43, 100
3, 8924, Note_off_c, 1, 38, 100
3, 8928, Note_on_c, 1, 43, 80
3, 8928, Note_on_c, 1, 40, 80
3, 9212, Note_off_c, 1, 43, 100
3, 9212, Note_off_c, 1, 40, 100
3, 9216, Note_on_c, 1, 43, 80
3, 9216, Note_on_c, 1, 36, 80
3, 9500, Note_off_c, 1, 43, 100
3, 9500, Note_off_c, 1, 36, 100
3, 9504, Note_on_c, 1, 43, 80
3, 9504, Note_on_c, 1, 40, 80
3, 9788, Note_off_c, 1, 43, 100
3, 9788, Note_off_c, 1, 40, 100
3, 9792, Note_on_c, 1, 31, 80
3, 10080, Note_on_c, 1, 43, 80
3, 10364, Note_off_c, 1, 43, 100
3, 10368, Note_on_c, 1, 43, 80
3, 10556, Note_off_c, 1, 31, 100
3, 10556, Note_off_c, 1, 43, 100
3, 10560, Note_on_c, 1, 41, 80
3, 10560, Note_on_c, 1, 29, 80
3, 10652, Note_off_c, 1, 41, 100
3, 10652, Note_off_c, 1, 29, 100
3, 10656, Note_on_c, 1, 40, 80
3, 10656, Note_on_c, 1, 28, 80
3, 11228, Note_off_c, 1, 40, 100
3, 11228, Note_off_c, 1, 28, 100
3, 11232, Note_on_c, 1, 40, 100
3, 11232, Note_on_c, 1, 28, 100
3, 11516, Note_off_c, 1, 40, 100
3, 11516, Note_off_c, 1, 28, 100
3, 11520, Note_on_c, 1, 38, 100
3, 11520, Note_on_c, 1, 26, 100
3, 12092, Note_off_c, 1, 38, 100
3, 12092, Note_off_c, 1, 26, 100
3, 12096, Note_on_c, 1, 41, 85
3, 12096, Note_on_c, 1, 29, 85
3, 12284, Note_off_c, 1, 41, 100
3, 12284, Note_off_c, 1, 29, 100
3, 12288, Note_on_c, 1, 42, 80
3, 12288, Note_on_c, 1, 30, 80
3, 12380, Note_off_c, 1, 42, 100
3, 12380, Note_off_c, 1, 30, 100
3, 12384, Note_on_c, 1, 43, 80
3, 12384, Note_on_c, 1, 31, 80
3, 12668, Note_off_c, 1, 43, 100
3, 12672, Note_on_c, 1, 45, 80
3, 12956, Note_off_c, 1, 31, 100
3, 12956, Note_off_c, 1, 45, 100
3, 12960, Note_on_c, 1, 47, 80
3, 13148, Note_off_c, 1, 47, 100
3, 13152, Note_on_c, 1, 47, 80
3, 13436, Note_off_c, 1, 47, 100
3, 13440, Note_on_c, 1, 48, 90
3, 13532, Note_off_c, 1, 48, 100
3, 13536, Note_on_c, 1, 50, 90
3, 13724, Note_off_c, 1, 50, 100
3, 13728, Note_on_c, 1, 48, 80
3, 13820, Note_off_c, 1, 48, 100
3, 13824, Note_on_c, 1, 52, 80
3, 14108, Note_off_c, 1, 52, 100
3, 14112, Note_on_c, 1, 45, 80
3, 14400, Note_on_c, 1, 52, 80
3, 14684, Note_off_c, 1, 45, 100
3, 14684, Note_off_c, 1, 52, 100
3, 14688, Note_on_c, 1, 52, 80
3, 14688, Note_on_c, 1, 45, 80
3, 14972, Note_off_c, 1, 52, 100
3, 14972, Note_off_c, 1, 45, 100
3, 14976, Note_on_c, 1, 44, 80
3, 15264, Note_on_c, 1, 52, 80
3, 15548, Note_off_c, 1, 44, 100
3, 15548, Note_off_c, 1, 52, 100
3, 15552, Note_on_c, 1, 52, 80
3, 15552, Note_on_c, 1, 44, 80
3, 15836, Note_off_c, 1, 52, 100
3, 15836, Note_off_c, 1, 44, 100
3, 15840, Note_on_c, 1, 52, 80
3, 15840, Note_on_c, 1, 44, 80
3, 16124, Note_off_c, 1, 52, 100
3, 16124, Note_off_c, 1, 44, 100
3, 16128, Note_on_c, 1, 52, 80
3, 16128, Note_on_c, 1, 45, 80
3, 16412, Note_off_c, 1, 52, 100
3, 16412, Note_off_c, 1, 45, 100
3, 16416, Note_on_c, 1, 52, 80
3, 16416, Note_on_c, 1, 45, 80
3, 16700, Note_off_c, 1, 52, 100
3, 16700, Note_off_c, 1, 45, 100
3, 16704, Note_on_c, 1, 40, 80
3, 16992, Note_on_c, 1, 52, 80
3, 17276, Note_off_c, 1, 40, 100
3, 17276, Note_off_c, 1, 52, 100
3, 17280, Note_on_c, 1, 45, 80
3, 17280, Note_on_c, 1, 33, 80
3, 17564, Note_off_c, 1, 45, 100
3, 17564, Note_off_c, 1, 33, 100
3, 17568, Note_on_c, 1, 43, 80
3, 17568, Note_on_c, 1, 31, 80
3, 18140, Note_off_c, 1, 43, 100
3, 18140, Note_off_c, 1, 31, 100
3, 18144, Note_on_c, 1, 43, 87
3, 18144, Note_on_c, 1, 31, 87
3, 18428, Note_off_c, 1, 43, 100
3, 18428, Note_off_c, 1, 31, 100
3, 18432, Note_on_c, 1, 48, 90
3, 18432, Note_on_c, 1, 36, 90
3, 19004, Note_off_c, 1, 48, 100
3, 19004, Note_off_c, 1, 36, 100
3, 19008, Note_on_c, 1, 41, 97
3, 19008, Note_on_c, 1, 29, 97
3, 19292, Note_off_c, 1, 41, 100
3, 19292, Note_off_c, 1, 29, 100
3, 19296, Note_on_c, 1, 43, 101
3, 19296, Note_on_c, 1, 31, 101
3, 19580, Note_off_c, 1, 43, 100
3, 19580, Note_off_c, 1, 31, 100
3, 19584, Note_on_c, 1, 43, 105
3, 19584, Note_on_c, 1, 31, 105
3, 19868, Note_off_c, 1, 43, 100
3, 19868, Note_off_c, 1, 31, 100
3, 19872, Note_on_c, 1, 43, 108
3, 19872, Note_on_c, 1, 31, 108
3, 20060, Note_off_c, 1, 43, 100
3, 20060, Note_off_c, 1, 31, 100
3, 20064, Note_on_c, 1, 43, 110
3, 20064, Note_on_c, 1, 31, 110
3, 20156, Note_off_c, 1, 43, 100
3, 20156, Note_off_c, 1, 31, 100
3, 20160, Note_on_c, 1, 43, 110
3, 20160, Note_on_c, 1, 31, 110
3, 20348, Note_off_c, 1, 43, 100
3, 20348, Note_off_c, 1, 31, 100
3, 20352, Note_on_c, 1, 48, 90
3, 20352, Note_on_c, 1, 36, 90
3, 20444, Note_off_c, 1, 48, 100
3, 20444, Note_off_c, 1, 36, 100
3, 20448, Note_on_c, 1, 48, 80
3, 20448, Note_on_c, 1, 36, 80
3, 20732, Note_off_c, 1, 48, 100
3, 20732, Note_off_c, 1, 36, 100
3, 20736, Note_on_c, 1, 52, 80
3, 21020, Note_off_c, 1, 52, 100
3, 21024, Note_on_c, 1, 45, 80
3, 21312, Note_on_c, 1, 52, 80
3, 21596, Note_off_c, 1, 45, 100
3, 21596, Note_off_c, 1, 52, 100
3, 21600, Note_on_c, 1, 52, 80
3, 21600, Note_on_c, 1, 45, 80
3, 21884, Note_off_c, 1, 52, 100
3, 21884, Note_off_c, 1, 45, 100
3, 21888, Note_on_c, 1, 44, 80
3, 22176, Note_on_c, 1, 52, 80
3, 22460, Note_off_c, 1, 44, 100
3, 22460, Note_off_c, 1, 52, 100
3, 22464, Note_on_c, 1, 52, 80
3, 22464, Note_on_c, 1, 44, 80
3, 22748, Note_off_c, 1, 52, 100
3, 22748, Note_off_c, 1, 44, 100
3, 22752, Note_on_c, 1, 52, 80
3, 22752, Note_on_c, 1, 44, 80
3, 23036, Note_off_c, 1, 52, 100
3, 23036, Note_off_c, 1, 44, 100
3, 23040, Note_on_c, 1, 52, 80
3, 23040, Note_on_c, 1, 45, 80
3, 23324, Note_off_c, 1, 52, 100
3, 23324, Note_off_c, 1, 45, 100
3, 23328, Note_on_c, 1, 52, 80
3, 23328, Note_on_c, 1, 45, 80
3, 23612, Note_off_c, 1, 52, 100
3, 23612, Note_off_c, 1, 45, 100
3, 23616, Note_on_c, 1, 40, 80
3, 23904, Note_on_c, 1, 52, 80
3, 24188, Note_off_c, 1, 40, 100
3, 24188, Note_off_c, 1, 52, 100
3, 24192, Note_on_c, 1, 45, 80
3, 24192, Note_on_c, 1, 33, 80
3, 24476, Note_off_c, 1, 45, 100
3, 24476, Note_off_c, 1, 33, 100
3, 24480, Note_on_c, 1, 43, 80
3, 24480, Note_on_c, 1, 31, 80
3, 25052, Note_off_c, 1, 43, 100
3, 25052, Note_off_c, 1, 31, 100
3, 25056, Note_on_c, 1, 43, 87
3, 25056, Note_on_c, 1, 31, 87
3, 25340, Note_off_c, 1, 43, 100
3, 25340, Note_off_c, 1, 31, 100
3, 25344, Note_on_c, 1, 48, 90
3, 25344, Note_on_c, 1, 36, 90
3, 25916, Note_off_c, 1, 48, 100
3, 25916, Note_off_c, 1, 36, 100
3, 25920, Note_on_c, 1, 41, 97
3, 25920, Note_on_c, 1, 29, 97
3, 26204, Note_off_c, 1, 41, 100
3, 26204, Note_off_c, 1, 29, 100
3, 26208, Note_on_c, 1, 43, 101
3, 26208, Note_on_c, 1, 31, 101
3, 26492, Note_off_c, 1, 43, 100
3, 26492, Note_off_c, 1, 31, 100
3, 26496, Note_on_c, 1, 43, 105
3, 26496, Note_on_c, 1, 31, 105
3, 26780, Note_off_c, 1, 43, 100
3, 26780, Note_off_c, 1, 31, 100
3, 26784, Note_on_c, 1, 43, 108
3, 26784, Note_on_c, 1, 31, 108
3, 26972, Note_off_c, 1, 43, 100
3, 26972, Note_off_c, 1, 31, 100
3, 26976, Note_on_c, 1, 43, 110
3, 26976, Note_on_c, 1, 31, 110
3, 27068, Note_off_c, 1, 43, 100
3, 27068, Note_off_c, 1, 31, 100
3, 27072, Note_on_c, 1, 43, 110
3, 27072, Note_on_c, 1, 31, 110
3, 27260, Note_off_c, 1, 43, 100
3, 27260, Note_off_c, 1, 31, 100
3, 27264, Note_on_c, 1, 48, 90
3, 27264, Note_on_c, 1, 36, 90
3, 27356, Note_off_c, 1, 48, 100
3, 27356, Note_off_c, 1, 36, 100
3, 27360, Note_on_c, 1, 48, 80
3, 27360, Note_on_c, 1, 36, 80
3, 27452, Note_off_c, 1, 48, 100
3, 27452, Note_off_c, 1, 36, 100
3, 27456, Note_on_c, 1, 55, 80
3, 27548, Note_off_c, 1, 55, 100
3, 27552, Note_on_c, 1, 53, 80
3, 27644, Note_off_c, 1, 53, 100
3, 27648, Note_on_c, 1, 52, 80
3, 27740, Note_off_c, 1, 52, 100
3, 27744, Note_on_c, 1, 48, 80
3, 27836, Note_off_c, 1, 48, 100
3, 27840, Note_on_c, 1, 55, 80
3, 28028, Note_off_c, 1, 55, 100
3, 28032, Note_on_c, 1, 49, 80
3, 28124, Note_off_c, 1, 49, 100
3, 28128, Note_on_c, 1, 55, 80
3, 28316, Note_off_c, 1, 55, 100
3, 28320, Note_on_c, 1, 50, 80
3, 28412, Note_off_c, 1, 50, 100
3, 28416, Note_on_c, 1, 55, 80
3, 28604, Note_off_c, 1, 55, 100
3, 28608, Note_on_c, 1, 46, 80
3, 28700, Note_off_c, 1, 46, 100
3, 28704, Note_on_c, 1, 55, 80
3, 28892, Note_off_c, 1, 55, 100
3, 28896, Note_on_c, 1, 47, 80
3, 28988, Note_off_c, 1, 47, 100
3, 28992, Note_on_c, 1, 55, 80
3, 29180, Note_off_c, 1, 55, 100
3, 29184, Note_on_c, 1, 48, 80
3, 29276, Note_off_c, 1, 48, 100
3, 29280, Note_on_c, 1, 55, 80
3, 29372, Note_off_c, 1, 55, 100
3, 29376, Note_on_c, 1, 52, 80
3, 29468, Note_off_c, 1, 52, 100
3, 29472, Note_on_c, 1, 50, 80
3, 29564, Note_off_c, 1, 50, 100
3, 29568, Note_on_c, 1, 55, 80
3, 29756, Note_off_c, 1, 55, 100
3, 29760, Note_on_c, 1, 51, 80
3, 29852, Note_off_c, 1, 51, 100
3, 29856, Note_on_c, 1, 52, 80
3, 29948, Note_off_c, 1, 52, 100
3, 29952, Note_on_c, 1, 55, 80
3, 30044, Note_off_c, 1, 55, 100
3, 30048, Note_on_c, 1, 48, 80
3, 30140, Note_off_c, 1, 48, 100
3, 30144, Note_on_c, 1, 55, 80
3, 30332, Note_off_c, 1, 55, 100
3, 30336, Note_on_c, 1, 52, 80
3, 30428, Note_off_c, 1, 52, 100
3, 30432, Note_on_c, 1, 55, 80
3, 30620, Note_off_c, 1, 55, 100
3, 30624, Note_on_c, 1, 42, 80
3, 30716, Note_off_c, 1, 42, 100
3, 30720, Note_on_c, 1, 55, 80
3, 30908, Note_off_c, 1, 55, 100
3, 30912, Note_on_c, 1, 43, 80
3, 31004, Note_off_c, 1, 43, 100
3, 31008, Note_on_c, 1, 55, 80
3, 31196, Note_off_c, 1, 55, 100
3, 31200, Note_on_c, 1, 41, 80
3, 31292, Note_off_c, 1, 41, 100
3, 31296, Note_on_c, 1, 55, 80
3, 31484, Note_off_c, 1, 55, 100
3, 31488, Note_on_c, 1, 40, 82
3, 31580, Note_off_c, 1, 40, 100
3, 31584, Note_on_c, 1, 55, 85
3, 31772, Note_off_c, 1, 55, 100
3, 31776, Note_on_c, 1, 36, 90
3, 31868, Note_off_c, 1, 36, 100
3, 31872, Note_on_c, 1, 52, 93
3, 32060, Note_off_c, 1, 52, 100
3, 32064, Note_on_c, 1, 36, 98
3, 32156, Note_off_c, 1, 36, 100
3, 32160, Note_on_c, 1, 52, 100
3, 32348, Note_off_c, 1, 52, 100
3, 32352, Note_on_c, 1, 37, 98
3, 32444, Note_off_c, 1, 37, 100
3, 32448, Note_on_c, 1, 52, 95
3, 32636, Note_off_c, 1, 52, 100
3, 32640, Note_on_c, 1, 38, 90
3, 32732, Note_off_c, 1, 38, 100
3, 32736, Note_on_c, 1, 53, 87
3, 32828, Note_off_c, 1, 53, 100
3, 32832, Note_on_c, 1, 54, 85
3, 32924, Note_off_c, 1, 54, 100
3, 32928, Note_on_c, 1, 42, 82
3, 33020, Note_off_c, 1, 42, 100
3, 33024, Note_on_c, 1, 57, 80
3, 33116, Note_off_c, 1, 57, 100
3, 33120, Note_on_c, 1, 56, 80
3, 33212, Note_off_c, 1, 56, 100
3, 33216, Note_on_c, 1, 43, 80
3, 33308, Note_off_c, 1, 43, 100
3, 33312, Note_on_c, 1, 55, 80
3, 33404, Note_off_c, 1, 55, 100
3, 33408, Note_on_c, 1, 57, 80
3, 33500, Note_off_c, 1, 57, 100
3, 33504, Note_on_c, 1, 43, 80
3, 33596, Note_off_c, 1, 43, 100
3, 33600, Note_on_c, 1, 59, 80
3, 33788, Note_off_c, 1, 59, 100
3, 33792, Note_on_c, 1, 59, 80
3, 33884, Note_off_c, 1, 59, 100
3, 33888, Note_on_c, 1, 59, 80
3, 33980, Note_off_c, 1, 59, 100
3, 33984, Note_on_c, 1, 59, 80
3, 34076, Note_off_c, 1, 59, 100
3, 34080, Note_on_c, 1, 60, 80
3, 34172, Note_off_c, 1, 60, 100
3, 34176, Note_on_c, 1, 53, 80
3, 34268, Note_off_c, 1, 53, 100
3, 34272, Note_on_c, 1, 52, 80
3, 34364, Note_off_c, 1, 52, 100
3, 34368, Note_on_c, 1, 53, 80
3, 34460, Note_off_c, 1, 53, 100
3, 34464, Note_on_c, 1, 50, 80
3, 34556, Note_off_c, 1, 50, 100
3, 34560, Note_on_c, 1, 52, 80
3, 34652, Note_off_c, 1, 52, 100
3, 34656, Note_on_c, 1, 48, 80
3, 34748, Note_off_c, 1, 48, 100
3, 34752, Note_on_c, 1, 55, 80
3, 34848, Note_on_c, 1, 55, 80
3, 34940, Note_off_c, 1, 55, 100
3, 34940, Note_off_c, 1, 55, 100
3, 34944, Note_on_c, 1, 49, 80
3, 35036, Note_off_c, 1, 49, 100
3, 35040, Note_on_c, 1, 55, 80
3, 35228, Note_off_c, 1, 55, 100
3, 35232, Note_on_c, 1, 50, 80
3, 35324, Note_off_c, 1, 50, 100
3, 35328, Note_on_c, 1, 55, 80
3, 35516, Note_off_c, 1, 55, 100
3, 35520, Note_on_c, 1, 46, 80
3, 35612, Note_off_c, 1, 46, 100
3, 35616, Note_on_c, 1, 55, 80
3, 35804, Note_off_c, 1, 55, 100
3, 35808, Note_on_c, 1, 47, 80
3, 35900, Note_off_c, 1, 47, 100
3, 35904, Note_on_c, 1, 55, 80
3, 36092, Note_off_c, 1, 55, 100
3, 36096, Note_on_c, 1, 48, 80
3, 36188, Note_off_c, 1, 48, 100
3, 36192, Note_on_c, 1, 55, 80
3, 36284, Note_off_c, 1, 55, 100
3, 36288, Note_on_c, 1, 52, 80
3, 36380, Note_off_c, 1, 52, 100
3, 36384, Note_on_c, 1, 50, 80
3, 36476, Note_off_c, 1, 50, 100
3, 36480, Note_on_c, 1, 55, 80
3, 36668, Note_off_c, 1, 55, 100
3, 36672, Note_on_c, 1, 51, 80
3, 36764, Note_off_c, 1, 51, 100
3, 36768, Note_on_c, 1, 52, 80
3, 36860, Note_off_c, 1, 52, 100
3, 36864, Note_on_c, 1, 55, 80
3, 36956, Note_off_c, 1, 55, 100
3, 36960, Note_on_c, 1, 48, 80
3, 37052, Note_off_c, 1, 48, 100
3, 37056, Note_on_c, 1, 55, 80
3, 37244, Note_off_c, 1, 55, 100
3, 37248, Note_on_c, 1, 52, 80
3, 37340, Note_off_c, 1, 52, 100
3, 37344, Note_on_c, 1, 55, 80
3, 37532, Note_off_c, 1, 55, 100
3, 37536, Note_on_c, 1, 42, 80
3, 37628, Note_off_c, 1, 42, 100
3, 37632, Note_on_c, 1, 55, 80
3, 37820, Note_off_c, 1, 55, 100
3, 37824, Note_on_c, 1, 43, 80
3, 37916, Note_off_c, 1, 43, 100
3, 37920, Note_on_c, 1, 55, 80
3, 38108, Note_off_c, 1, 55, 100
3, 38112, Note_on_c, 1, 41, 80
3, 38204, Note_off_c, 1, 41, 100
3, 38208, Note_on_c, 1, 55, 80
3, 38396, Note_off_c, 1, 55, 100
3, 38400, Note_on_c, 1, 40, 82
3, 38492, Note_off_c, 1, 40, 100
3, 38496, Note_on_c, 1, 55, 85
3, 38684, Note_off_c, 1, 55, 100
3, 38688, Note_on_c, 1, 36, 90
3, 38780, Note_off_c, 1, 36, 100
3, 38784, Note_on_c, 1, 52, 93
3, 38972, Note_off_c, 1, 52, 100
3, 38976, Note_on_c, 1, 36, 98
3, 39068, Note_off_c, 1, 36, 100
3, 39072, Note_on_c, 1, 52, 100
3, 39260, Note_off_c, 1, 52, 100
3, 39264, Note_on_c, 1, 37, 98
3, 39356, Note_off_c, 1, 37, 100
3, 39360, Note_on_c, 1, 52, 95
3, 39548, Note_off_c, 1, 52, 100
3, 39552, Note_on_c, 1, 38, 90
3, 39644, Note_off_c, 1, 38, 100
3, 39648, Note_on_c, 1, 53, 87
3, 39740, Note_off_c, 1, 53, 100
3, 39744, Note_on_c, 1, 54, 85
3, 39836, Note_off_c, 1, 54, 100
3, 39840, Note_on_c, 1, 42, 82
3, 39932, Note_off_c, 1, 42, 100
3, 39936, Note_on_c, 1, 57, 80
3, 40028, Note_off_c, 1, 57, 100
3, 40032, Note_on_c, 1, 56, 80
3, 40124, Note_off_c, 1, 56, 100
3, 40128, Note_on_c, 1, 43, 80
3, 40220, Note_off_c, 1, 43, 100
3, 40224, Note_on_c, 1, 55, 80
3, 40316, Note_off_c, 1, 55, 100
3, 40320, Note_on_c, 1, 57, 80
3, 40412, Note_off_c, 1, 57, 100
3, 40416, Note_on_c, 1, 43, 80
3, 40508, Note_off_c, 1, 43, 100
3, 40512, Note_on_c, 1, 59, 80
3, 40700, Note_off_c, 1, 59, 100
3, 40704, Note_on_c, 1, 59, 80
3, 40796, Note_off_c, 1, 59, 100
3, 40800, Note_on_c, 1, 59, 80
3, 40988, Note_off_c, 1, 59, 100
3, 40992, Note_on_c, 1, 60, 80
3, 41084, Note_off_c, 1, 60, 100
3, 41088, Note_on_c, 1, 62, 80
3, 41180, Note_off_c, 1, 62, 100
3, 41184, Note_on_c, 1, 60, 80
3, 41276, Note_off_c, 1, 60, 100
3, 41280, Note_on_c, 1, 59, 80
3, 41372, Note_off_c, 1, 59, 100
3, 41376, Note_on_c, 1, 57, 80
3, 41468, Note_off_c, 1, 57, 100
3, 41472, Note_on_c, 1, 56, 80
3, 41564, Note_off_c, 1, 56, 100
3, 41568, Note_on_c, 1, 57, 80
3, 41660, Note_off_c, 1, 57, 100
3, 41664, Note_on_c, 1, 59, 80
3, 41756, Note_off_c, 1, 59, 100
3, 41760, Note_on_c, 1, 57, 80
3, 41852, Note_off_c, 1, 57, 100
3, 41856, Note_on_c, 1, 45, 80
3, 41948, Note_off_c, 1, 45, 100
3, 41952, Note_on_c, 1, 52, 80
3, 42140, Note_off_c, 1, 52, 100
3, 42144, Note_on_c, 1, 44, 80
3, 42236, Note_off_c, 1, 44, 100
3, 42240, Note_on_c, 1, 52, 80
3, 42428, Note_off_c, 1, 52, 100
3, 42432, Note_on_c, 1, 45, 80
3, 42524, Note_off_c, 1, 45, 100
3, 42528, Note_on_c, 1, 52, 80
3, 42716, Note_off_c, 1, 52, 100
3, 42720, Note_on_c, 1, 44, 80
3, 42812, Note_off_c, 1, 44, 100
3, 42816, Note_on_c, 1, 52, 80
3, 43004, Note_off_c, 1, 52, 100
3, 43008, Note_on_c, 1, 45, 80
3, 43100, Note_off_c, 1, 45, 100
3, 43104, Note_on_c, 1, 52, 80
3, 43292, Note_off_c, 1, 52, 100
3, 43296, Note_on_c, 1, 44, 80
3, 43388, Note_off_c, 1, 44, 100
3, 43392, Note_on_c, 1, 56, 80
3, 43580, Note_off_c, 1, 56, 100
3, 43584, Note_on_c, 1, 56, 80
3, 43676, Note_off_c, 1, 56, 100
3, 43680, Note_on_c, 1, 57, 80
3, 43868, Note_off_c, 1, 57, 100
3, 43872, Note_on_c, 1, 57, 80
3, 43964, Note_off_c, 1, 57, 100
3, 43968, Note_on_c, 1, 59, 80
3, 44156, Note_off_c, 1, 59, 100
3, 44160, Note_on_c, 1, 60, 80
3, 44252, Note_off_c, 1, 60, 100
3, 44256, Note_on_c, 1, 62, 80
3, 44348, Note_off_c, 1, 62, 100
3, 44352, Note_on_c, 1, 63, 80
3, 44444, Note_off_c, 1, 63, 100
3, 44448, Note_on_c, 1, 64, 80
3, 44540, Note_off_c, 1, 64, 100
3, 44544, Note_on_c, 1, 64, 80
3, 44636, Note_off_c, 1, 64, 100
3, 44640, Note_on_c, 1, 64, 80
3, 44732, Note_off_c, 1, 64, 100
3, 44736, Note_on_c, 1, 57, 80
3, 44828, Note_off_c, 1, 57, 100
3, 44832, Note_on_c, 1, 57, 80
3, 44924, Note_off_c, 1, 57, 100
3, 44928, Note_on_c, 1, 57, 80
3, 45020, Note_off_c, 1, 57, 100
3, 45024, Note_on_c, 1, 55, 80
3, 45116, Note_off_c, 1, 55, 100
3, 45120, Note_on_c, 1, 55, 80
3, 45308, Note_off_c, 1, 55, 100
3, 45312, Note_on_c, 1, 43, 81
3, 45404, Note_off_c, 1, 43, 100
3, 45408, Note_on_c, 1, 55, 82
3, 45596, Note_off_c, 1, 55, 100
3, 45600, Note_on_c, 1, 43, 84
3, 45692, Note_off_c, 1, 43, 100
3, 45696, Note_on_c, 1, 55, 85
3, 45884, Note_off_c, 1, 55, 100
3, 45888, Note_on_c, 1, 43, 88
3, 45980, Note_off_c, 1, 43, 100
3, 45984, Note_on_c, 1, 55, 89
3, 46172, Note_off_c, 1, 55, 100
3, 46176, Note_on_c, 1, 36, 91
3, 46268, Note_off_c, 1, 36, 100
3, 46272, Note_on_c, 1, 48, 93
3, 46460, Note_off_c, 1, 48, 100
3, 46464, Note_on_c, 1, 36, 95
3, 46556, Note_off_c, 1, 36, 100
3, 46560, Note_on_c, 1, 48, 96
3, 46748, Note_off_c, 1, 48, 100
3, 46752, Note_on_c, 1, 29, 99
3, 46844, Note_off_c, 1, 29, 100
3, 46848, Note_on_c, 1, 41, 100
3, 46940, Note_off_c, 1, 41, 100
3, 46944, Note_on_c, 1, 43, 101
3, 47036, Note_off_c, 1, 43, 100
3, 47040, Note_on_c, 1, 31, 102
3, 47132, Note_off_c, 1, 31, 100
3, 47136, Note_on_c, 1, 43, 103
3, 47324, Note_off_c, 1, 43, 100
3, 47328, Note_on_c, 1, 31, 106
3, 47420, Note_off_c, 1, 31, 100
3, 47424, Note_on_c, 1, 43, 107
3, 47612, Note_off_c, 1, 43, 100
3, 47616, Note_on_c, 1, 31, 109
3, 47708, Note_off_c, 1, 31, 100
3, 47712, Note_on_c, 1, 47, 110
3, 47804, Note_off_c, 1, 47, 100
3, 47808, Note_on_c, 1, 47, 110
3, 47900, Note_off_c, 1, 47, 100
3, 47904, Note_on_c, 1, 55, 103
3, 47904, Note_on_c, 1, 43, 103
3, 47996, Note_off_c, 1, 55, 100
3, 47996, Note_off_c, 1, 43, 100
3, 48000, Note_on_c, 1, 55, 95
3, 48000, Note_on_c, 1, 48, 95
3, 48092, Note_off_c, 1, 55, 100
3, 48096, Note_on_c, 1, 57, 87
3, 48188, Note_off_c, 1, 48, 100
3, 48188, Note_off_c, 1, 57, 100
3, 48192, Note_on_c, 1, 55, 80
3, 48192, Note_on_c, 1, 48, 80
3, 48284, Note_off_c, 1, 55, 100
3, 48284, Note_off_c, 1, 48, 100
3, 48288, Note_on_c, 1, 52, 80
3, 48380, Note_off_c, 1, 52, 100
3, 48384, Note_on_c, 1, 53, 80
3, 48476, Note_off_c, 1, 53, 100
3, 48480, Note_on_c, 1, 52, 80
3, 48572, Note_off_c, 1, 52, 100
3, 48576, Note_on_c, 1, 52, 80
3, 48764, Note_off_c, 1, 52, 100
3, 48768, Note_on_c, 1, 45, 80
3, 48860, Note_off_c, 1, 45, 100
3, 48864, Note_on_c, 1, 52, 80
3, 49052, Note_off_c, 1, 52, 100
3, 49056, Note_on_c, 1, 44, 80
3, 49148, Note_off_c, 1, 44, 100
3, 49152, Note_on_c, 1, 52, 80
3, 49340, Note_off_c, 1, 52, 100
3, 49344, Note_on_c, 1, 45, 80
3, 49436, Note_off_c, 1, 45, 100
3, 49440, Note_on_c, 1, 52, 80
3, 49628, Note_off_c, 1, 52, 100
3, 49632, Note_on_c, 1, 44, 80
3, 49724, Note_off_c, 1, 44, 100
3, 49728, Note_on_c, 1, 52, 80
3, 49916, Note_off_c, 1, 52, 100
3, 49920, Note_on_c, 1, 45, 80
3, 50012, Note_off_c, 1, 45, 100
3, 50016, Note_on_c, 1, 52, 80
3, 50204, Note_off_c, 1, 52, 100
3, 50208, Note_on_c, 1, 44, 80
3, 50300, Note_off_c, 1, 44, 100
3, 50304, Note_on_c, 1, 56, 80
3, 50492, Note_off_c, 1, 56, 100
3, 50496, Note_on_c, 1, 56, 80
3, 50588, Note_off_c, 1, 56, 100
3, 50592, Note_on_c, 1, 57, 80
3, 50780, Note_off_c, 1, 57, 100
3, 50784, Note_on_c, 1, 57, 80
3, 50876, Note_off_c, 1, 57, 100
3, 50880, Note_on_c, 1, 59, 80
3, 51068, Note_off_c, 1, 59, 100
3, 51072, Note_on_c, 1, 60, 80
3, 51164, Note_off_c, 1, 60, 100
3, 51168, Note_on_c, 1, 62, 80
3, 51260, Note_off_c, 1, 62, 100
3, 51264, Note_on_c, 1, 63, 80
3, 51356, Note_off_c, 1, 63, 100
3, 51360, Note_on_c, 1, 64, 80
3, 51452, Note_off_c, 1, 64, 100
3, 51456, Note_on_c, 1, 64, 80
3, 51548, Note_off_c, 1, 64, 100
3, 51552, Note_on_c, 1, 64, 80
3, 51644, Note_off_c, 1, 64, 100
3, 51648, Note_on_c, 1, 57, 80
3, 51740, Note_off_c, 1, 57, 100
3, 51744, Note_on_c, 1, 57, 80
3, 51836, Note_off_c, 1, 57, 100
3, 51840, Note_on_c, 1, 57, 80
3, 51932, Note_off_c, 1, 57, 100
3, 51936, Note_on_c, 1, 55, 80
3, 52028, Note_off_c, 1, 55, 100
3, 52032, Note_on_c, 1, 55, 80
3, 52220, Note_off_c, 1, 55, 100
3, 52224, Note_on_c, 1, 43, 81
3, 52316, Note_off_c, 1, 43, 100
3, 52320, Note_on_c, 1, 55, 82
3, 52508, Note_off_c, 1, 55, 100
3, 52512, Note_on_c, 1, 43, 84
3, 52604, Note_off_c, 1, 43, 100
3, 52608, Note_on_c, 1, 55, 85
3, 52796, Note_off_c, 1, 55, 100
3, 52800, Note_on_c, 1, 43, 88
3, 52892, Note_off_c, 1, 43, 100
3, 52896, Note_on_c, 1, 55, 89
3, 53084, Note_off_c, 1, 55, 100
3, 53088, Note_on_c, 1, 36, 91
3, 53180, Note_off_c, 1, 36, 100
3, 53184, Note_on_c, 1, 48, 93
3, 53372, Note_off_c, 1, 48, 100
3, 53376, Note_on_c, 1, 36, 95
3, 53468, Note_off_c, 1, 36, 100
3, 53472, Note_on_c, 1, 48, 96
3, 53660, Note_off_c, 1, 48, 100
3, 53664, Note_on_c, 1, 29, 99
3, 53756, Note_off_c, 1, 29, 100
3, 53760, Note_on_c, 1, 41, 100
3, 53852, Note_off_c, 1, 41, 100
3, 53856, Note_on_c, 1, 43, 101
3, 53948, Note_off_c, 1, 43, 100
3, 53952, Note_on_c, 1, 31, 102
3, 54044, Note_off_c, 1, 31, 100
3, 54048, Note_on_c, 1, 43, 103
3, 54236, Note_off_c, 1, 43, 100
3, 54240, Note_on_c, 1, 31, 106
3, 54332, Note_off_c, 1, 31, 100
3, 54336, Note_on_c, 1, 43, 107
3, 54524, Note_off_c, 1, 43, 100
3, 54528, Note_on_c, 1, 31, 109
3, 54620, Note_off_c, 1, 31, 100
3, 54624, Note_on_c, 1, 47, 110
3, 54716, Note_off_c, 1, 47, 100
3, 54720, Note_on_c, 1, 47, 110
3, 54812, Note_off_c, 1, 47, 100
3, 54816, Note_on_c, 1, 55, 104
3, 54816, Note_on_c, 1, 43, 104
3, 54908, Note_off_c, 1, 55, 100
3, 54908, Note_off_c, 1, 43, 100
3, 54912, Note_on_c, 1, 55, 98
3, 54912, Note_on_c, 1, 48, 98
3, 55004, Note_off_c, 1, 55, 100
3, 55008, Note_on_c, 1, 57, 92
3, 55100, Note_off_c, 1, 48, 100
3, 55100, Note_off_c, 1, 57, 100
3, 55104, Note_on_c, 1, 55, 86
3, 55104, Note_on_c, 1, 48, 86
3, 55196, Note_off_c, 1, 55, 100
3, 55196, Note_off_c, 1, 48, 100
3, 55200, Note_on_c, 1, 55, 80
3, 55200, Note_on_c, 1, 48, 80
3, 55292, Note_off_c, 1, 55, 100
3, 55292, Note_off_c, 1, 48, 100
3, 55296, Note_on_c, 1, 60, 80
3, 55388, Note_off_c, 1, 60, 100
3, 55392, Note_on_c, 1, 55, 80
3, 55436, Note_off_c, 1, 55, 100
3, 55440, Note_on_c, 1, 54, 80
3, 55532, Note_off_c, 1, 54, 100
3, 55536, Note_on_c, 1, 55, 80
3, 55580, Note_off_c, 1, 55, 100
3, 55584, Note_on_c, 1, 55, 80
3, 55724, Note_off_c, 1, 55, 100
3, 55728, Note_on_c, 1, 55, 80
3, 56012, Note_off_c, 1, 55, 100
3, 56016, Note_on_c, 1, 55, 80
3, 56156, Note_off_c, 1, 55, 100
3, 56160, Note_on_c, 1, 50, 80
3, 56252, Note_off_c, 1, 50, 100
3, 56256, Note_on_c, 1, 43, 80
3, 56300, Note_off_c, 1, 43, 100
3, 56304, Note_on_c, 1, 42, 80
3, 56396, Note_off_c, 1, 42, 100
3, 56400, Note_on_c, 1, 43, 80
3, 56444, Note_off_c, 1, 43, 100
3, 56448, Note_on_c, 1, 45, 80
3, 56588, Note_off_c, 1, 45, 100
3, 56592, Note_on_c, 1, 47, 80
3, 56876, Note_off_c, 1, 47, 100
3, 56880, Note_on_c, 1, 48, 80
3, 57020, Note_off_c, 1, 48, 100
3, 57024, Note_on_c, 1, 49, 80
3, 57164, Note_off_c, 1, 49, 100
3, 57168, Note_on_c, 1, 50, 80
3, 57308, Note_off_c, 1, 50, 100
3, 57312, Note_on_c, 1, 51, 80
3, 57452, Note_off_c, 1, 51, 100
3, 57456, Note_on_c, 1, 52, 80
3, 57596, Note_off_c, 1, 52, 100
3, 57600, Note_on_c, 1, 50, 80
3, 57692, Note_off_c, 1, 50, 100
3, 57696, Note_on_c, 1, 47, 80
3, 57740, Note_off_c, 1, 47, 100
3, 57744, Note_on_c, 1, 50, 80
3, 57836, Note_off_c, 1, 50, 100
3, 57840, Note_on_c, 1, 48, 80
3, 57884, Note_off_c, 1, 48, 100
3, 57888, Note_on_c, 1, 53, 80
3, 57980, Note_off_c, 1, 53, 100
3, 57984, Note_on_c, 1, 51, 80
3, 58028, Note_off_c, 1, 51, 100
3, 58032, Note_on_c, 1, 53, 80
3, 58124, Note_off_c, 1, 53, 100
3, 58128, Note_on_c, 1, 52, 80
3, 58172, Note_off_c, 1, 52, 100
3, 58176, Note_on_c, 1, 55, 80
3, 58460, Note_off_c, 1, 55, 100
3, 58464, Note_on_c, 1, 43, 80
3, 58748, Note_off_c, 1, 43, 100
3, 58752, Note_on_c, 1, 41, 80
3, 58844, Note_off_c, 1, 41, 100
3, 58848, Note_on_c, 1, 40, 80
3, 58892, Note_off_c, 1, 40, 100
3, 58896, Note_on_c, 1, 43, 80
3, 58988, Note_off_c, 1, 43, 100
3, 58992, Note_on_c, 1, 41, 80
3, 59036, Note_off_c, 1, 41, 100
3, 59040, Note_on_c, 1, 40, 80
3, 59132, Note_off_c, 1, 40, 100
3, 59136, Note_on_c, 1, 38, 82
3, 59180, Note_off_c, 1, 38, 100
3, 59184, Note_on_c, 1, 41, 83
3, 59276, Note_off_c, 1, 41, 100
3, 59280, Note_on_c, 1, 40, 86
3, 59324, Note_off_c, 1, 40, 100
3, 59328, Note_on_c, 1, 36, 87
3, 59420, Note_off_c, 1, 36, 100
3, 59424, Note_on_c, 1, 35, 89
3, 59468, Note_off_c, 1, 35, 100
3, 59472, Note_on_c, 1, 38, 91
3, 59564, Note_off_c, 1, 38, 100
3, 59568, Note_on_c, 1, 36, 93
3, 59612, Note_off_c, 1, 36, 100
3, 59616, Note_on_c, 1, 34, 94
3, 59708, Note_off_c, 1, 34, 100
3, 59712, Note_on_c, 1, 33, 97
3, 59756, Note_off_c, 1, 33, 100
3, 59760, Note_on_c, 1, 36, 98
3, 59852, Note_off_c, 1, 36, 100
3, 59856, Note_on_c, 1, 34, 100
3, 59900, Note_off_c, 1, 34, 100
3, 59904, Note_on_c, 1, 33, 100
3, 60044, Note_off_c, 1, 33, 100
3, 60048, Note_on_c, 1, 45, 95
3, 60188, Note_off_c, 1, 45, 100
3, 60192, Note_on_c, 1, 38, 90
3, 60332, Note_off_c, 1, 38, 100
3, 60336, Note_on_c, 1, 50, 85
3, 60476, Note_off_c, 1, 50, 100
3, 60480, Note_on_c, 1, 41, 80
3, 60620, Note_off_c, 1, 41, 100
3, 60624, Note_on_c, 1, 41, 80
3, 60860, Note_off_c, 1, 41, 100
3, 60864, Note_on_c, 1, 42, 80
3, 60908, Note_off_c, 1, 42, 100
3, 60912, Note_on_c, 1, 45, 80
3, 61004, Note_off_c, 1, 45, 100
3, 61008, Note_on_c, 1, 43, 80
3, 61052, Note_off_c, 1, 43, 100
3, 61056, Note_on_c, 1, 43, 80
3, 61056, Note_on_c, 1, 45, 80
3, 61196, Note_off_c, 1, 45, 100
3, 61200, Note_on_c, 1, 46, 80
3, 61484, Note_off_c, 1, 43, 100
3, 61484, Note_off_c, 1, 46, 100
3, 61488, Note_on_c, 1, 47, 80
3, 61488, Note_on_c, 1, 43, 80
3, 61724, Note_off_c, 1, 43, 100
3, 61728, Note_on_c, 1, 47, 80
3, 61772, Note_off_c, 1, 47, 100
3, 61772, Note_off_c, 1, 47, 100
3, 61776, Note_on_c, 1, 50, 80
3, 61868, Note_off_c, 1, 50, 100
3, 61872, Note_on_c, 1, 52, 80
3, 61916, Note_off_c, 1, 52, 100
3, 61920, Note_on_c, 1, 53, 80
3, 62012, Note_off_c, 1, 53, 100
3, 62016, Note_on_c, 1, 52, 80
3, 62060, Note_off_c, 1, 52, 100
3, 62064, Note_on_c, 1, 50, 80
3, 62156, Note_off_c, 1, 50, 100
3, 62160, Note_on_c, 1, 48, 80
3, 62204, Note_off_c, 1, 48, 100
3, 62208, Note_on_c, 1, 60, 80
3, 62300, Note_off_c, 1, 60, 100
3, 62304, Note_on_c, 1, 55, 80
3, 62348, Note_off_c, 1, 55, 100
3, 62352, Note_on_c, 1, 54, 80
3, 62444, Note_off_c, 1, 54, 100
3, 62448, Note_on_c, 1, 55, 80
3, 62492, Note_off_c, 1, 55, 100
3, 62496, Note_on_c, 1, 55, 80
3, 62636, Note_off_c, 1, 55, 100
3, 62640, Note_on_c, 1, 55, 80
3, 62924, Note_off_c, 1, 55, 100
3, 62928, Note_on_c, 1, 55, 80
3, 63068, Note_off_c, 1, 55, 100
3, 63072, Note_on_c, 1, 50, 80
3, 63164, Note_off_c, 1, 50, 100
3, 63168, Note_on_c, 1, 43, 80
3, 63212, Note_off_c, 1, 43, 100
3, 63216, Note_on_c, 1, 42, 80
3, 63308, Note_off_c, 1, 42, 100
3, 63312, Note_on_c, 1, 43, 80
3, 63356, Note_off_c, 1, 43, 100
3, 63360, Note_on_c, 1, 45, 80
3, 63500, Note_off_c, 1, 45, 100
3, 63504, Note_on_c, 1, 47, 80
3, 63788, Note_off_c, 1, 47, 100
3, 63792, Note_on_c, 1, 48, 80
3, 63932, Note_off_c, 1, 48, 100
3, 63936, Note_on_c, 1, 49, 80
3, 64076, Note_off_c, 1, 49, 100
3, 64080, Note_on_c, 1, 50, 80
3, 64220, Note_off_c, 1, 50, 100
3, 64224, Note_on_c, 1, 51, 80
3, 64364, Note_off_c, 1, 51, 100
3, 64368, Note_on_c, 1, 52, 80
3, 64508, Note_off_c, 1, 52, 100
3, 64512, Note_on_c, 1, 50, 80
3, 64604, Note_off_c, 1, 50, 100
3, 64608, Note_on_c, 1, 47, 80
3, 64652, Note_off_c, 1, 47, 100
3, 64656, Note_on_c, 1, 50, 80
3, 64748, Note_off_c, 1, 50, 100
3, 64752, Note_on_c, 1, 48, 80
3, 64796, Note_off_c, 1, 48, 100
3, 64800, Note_on_c, 1, 53, 80
3, 64892, Note_off_c, 1, 53, 100
3, 64896, Note_on_c, 1, 51, 80
3, 64940, Note_off_c, 1, 51, 100
3, 64944, Note_on_c, 1, 53, 80
3, 65036, Note_off_c, 1, 53, 100
3, 65040, Note_on_c, 1, 52, 80
3, 65084, Note_off_c, 1, 52, 100
3, 65088, Note_on_c, 1, 55, 80
3, 65372, Note_off_c, 1, 55, 100
3, 65376, Note_on_c, 1, 43, 80
3, 65660, Note_off_c, 1, 43, 100
3, 65664, Note_on_c, 1, 41, 80
3, 65756, Note_off_c, 1, 41, 100
3, 65760, Note_on_c, 1, 40, 80
3, 65804, Note_off_c, 1, 40, 100
3, 65808, Note_on_c, 1, 43, 80
3, 65900, Note_off_c, 1, 43, 100
3, 65904, Note_on_c, 1, 41, 80
3, 65948, Note_off_c, 1, 41, 100
3, 65952, Note_on_c, 1, 40, 80
3, 66044, Note_off_c, 1, 40, 100
3, 66048, Note_on_c, 1, 38, 82
3, 66092, Note_off_c, 1, 38, 100
3, 66096, Note_on_c, 1, 41, 83
3, 66188, Note_off_c, 1, 41, 100
3, 66192, Note_on_c, 1, 40, 86
3, 66236, Note_off_c, 1, 40, 100
3, 66240, Note_on_c, 1, 36, 87
3, 66332, Note_off_c, 1, 36, 100
3, 66336, Note_on_c, 1, 35, 89
3, 66380, Note_off_c, 1, 35, 100
3, 66384, Note_on_c, 1, 38, 91
3, 66476, Note_off_c, 1, 38, 100
3, 66480, Note_on_c, 1, 36, 93
3, 66524, Note_off_c, 1, 36, 100
3, 66528, Note_on_c, 1, 34, 94
3, 66620, Note_off_c, 1, 34, 100
3, 66624, Note_on_c, 1, 33, 97
3, 66668, Note_off_c, 1, 33, 100
3, 66672, Note_on_c, 1, 36, 98
3, 66764, Note_off_c, 1, 36, 100
3, 66768, Note_on_c, 1, 34, 100
3, 66812, Note_off_c, 1, 34, 100
3, 66816, Note_on_c, 1, 33, 100
3, 66956, Note_off_c, 1, 33, 100
3, 66960, Note_on_c, 1, 45, 95
3, 67100, Note_off_c, 1, 45, 100
3, 67104, Note_on_c, 1, 38, 90
3, 67244, Note_off_c, 1, 38, 100
3, 67248, Note_on_c, 1, 50, 85
3, 67388, Note_off_c, 1, 50, 100
3, 67392, Note_on_c, 1, 41, 80
3, 67532, Note_off_c, 1, 41, 100
3, 67536, Note_on_c, 1, 41, 80
3, 67772, Note_off_c, 1, 41, 100
3, 67776, Note_on_c, 1, 42, 80
3, 67820, Note_off_c, 1, 42, 100
3, 67824, Note_on_c, 1, 45, 80
3, 67916, Note_off_c, 1, 45, 100
3, 67920, Note_on_c, 1, 43, 80
3, 67964, Note_off_c, 1, 43, 100
3, 67968, Note_on_c, 1, 43, 80
3, 67968, Note_on_c, 1, 45, 80
3, 68108, Note_off_c, 1, 45, 100
3, 68112, Note_on_c, 1, 46, 80
3, 68396, Note_off_c, 1, 43, 100
3, 68396, Note_off_c, 1, 46, 100
3, 68400, Note_on_c, 1, 47, 80
3, 68400, Note_on_c, 1, 43, 80
3, 68636, Note_off_c, 1, 43, 100
3, 68640, Note_on_c, 1, 47, 80
3, 68684, Note_off_c, 1, 47, 100
3, 68684, Note_off_c, 1, 47, 100
3, 68688, Note_on_c, 1, 50, 80
3, 68780, Note_off_c, 1, 50, 100
3, 68784, Note_on_c, 1, 48, 80
3, 68828, Note_off_c, 1, 48, 100
3, 68832, Note_on_c, 1, 48, 80
3, 68924, Note_off_c, 1, 48, 100
3, 68928, Note_on_c, 1, 47, 80
3, 68972, Note_off_c, 1, 47, 100
3, 68976, Note_on_c, 1, 45, 80
3, 69068, Note_off_c, 1, 45, 100
3, 69072, Note_on_c, 1, 44, 80
3, 69212, Note_off_c, 1, 44, 100
3, 69216, Note_on_c, 1, 44, 80
3, 69260, Note_off_c, 1, 44, 100
3, 69264, Note_on_c, 1, 45, 80
3, 69356, Note_off_c, 1, 45, 100
3, 69360, Note_on_c, 1, 47, 80
3, 69404, Note_off_c, 1, 47, 100
3, 69408, Note_on_c, 1, 45, 80
3, 69504, Note_on_c, 1, 51, 80
3, 69548, Note_off_c, 1, 51, 100
3, 69552, Note_on_c, 1, 52, 80
3, 69644, Note_off_c, 1, 45, 100
3, 69648, Note_on_c, 1, 44, 80
3, 69692, Note_off_c, 1, 44, 100
3, 69696, Note_on_c, 1, 45, 80
3, 69740, Note_off_c, 1, 52, 100
3, 69792, Note_on_c, 1, 51, 80
3, 69836, Note_off_c, 1, 51, 100
3, 69840, Note_on_c, 1, 52, 80
3, 69932, Note_off_c, 1, 45, 100
3, 69936, Note_on_c, 1, 44, 80
3, 69980, Note_off_c, 1, 44, 100
3, 69984, Note_on_c, 1, 45, 80
3, 70076, Note_off_c, 1, 52, 100
3, 70080, Note_on_c, 1, 51, 80
3, 70124, Note_off_c, 1, 51, 100
3, 70128, Note_on_c, 1, 52, 80
3, 70220, Note_off_c, 1, 45, 100
3, 70224, Note_on_c, 1, 44, 80
3, 70268, Note_off_c, 1, 44, 100
3, 70272, Note_on_c, 1, 44, 80
3, 70364, Note_off_c, 1, 52, 100
3, 70368, Note_on_c, 1, 53, 80
3, 70412, Note_off_c, 1, 53, 100
3, 70416, Note_on_c, 1, 52, 80
3, 70508, Note_off_c, 1, 44, 100
3, 70512, Note_on_c, 1, 45, 80
3, 70556, Note_off_c, 1, 45, 100
3, 70560, Note_on_c, 1, 44, 80
3, 70652, Note_off_c, 1, 52, 100
3, 70656, Note_on_c, 1, 53, 80
3, 70700, Note_off_c, 1, 53, 100
3, 70704, Note_on_c, 1, 52, 80
3, 70796, Note_off_c, 1, 44, 100
3, 70800, Note_on_c, 1, 45, 80
3, 70844, Note_off_c, 1, 45, 100
3, 70848, Note_on_c, 1, 44, 80
3, 70940, Note_off_c, 1, 52, 100
3, 70944, Note_on_c, 1, 53, 80
3, 70988, Note_off_c, 1, 53, 100
3, 70992, Note_on_c, 1, 52, 80
3, 71084, Note_off_c, 1, 44, 100
3, 71088, Note_on_c, 1, 45, 80
3, 71132, Note_off_c, 1, 45, 100
3, 71228, Note_off_c, 1, 52, 100
3, 71232, Note_on_c, 1, 44, 80
3, 71232, Note_on_c, 1, 32, 80
3, 71276, Note_off_c, 1, 44, 100
3, 71276, Note_off_c, 1, 32, 100
3, 71280, Note_on_c, 1, 45, 80
3, 71280, Note_on_c, 1, 33, 80
3, 71520, Note_on_c, 1, 45, 80
3, 71520, Note_on_c, 1, 33, 80
3, 71564, Note_off_c, 1, 45, 100
3, 71564, Note_off_c, 1, 33, 100
3, 71564, Note_off_c, 1, 45, 100
3, 71564, Note_off_c, 1, 33, 100
3, 71568, Note_on_c, 1, 47, 80
3, 71568, Note_on_c, 1, 35, 80
3, 71660, Note_off_c, 1, 47, 100
3, 71660, Note_off_c, 1, 35, 100
3, 71712, Note_on_c, 1, 48, 80
3, 71712, Note_on_c, 1, 36, 80
3, 71804, Note_off_c, 1, 48, 100
3, 71804, Note_off_c, 1, 36, 100
3, 71808, Note_on_c, 1, 50, 80
3, 71808, Note_on_c, 1, 38, 80
3, 71852, Note_off_c, 1, 50, 100
3, 71852, Note_off_c, 1, 38, 100
3, 71856, Note_on_c, 1, 51, 80
3, 71856, Note_on_c, 1, 39, 80
3, 71948, Note_off_c, 1, 51, 100
3, 71948, Note_off_c, 1, 39, 100
3, 71952, Note_on_c, 1, 52, 80
3, 71952, Note_on_c, 1, 40, 80
3, 71996, Note_off_c, 1, 52, 100
3, 71996, Note_off_c, 1, 40, 100
3, 72000, Note_on_c, 1, 52, 80
3, 72000, Note_on_c, 1, 40, 80
3, 72092, Note_off_c, 1, 52, 100
3, 72092, Note_off_c, 1, 40, 100
3, 72096, Note_on_c, 1, 52, 82
3, 72096, Note_on_c, 1, 40, 82
3, 72236, Note_off_c, 1, 52, 100
3, 72236, Note_off_c, 1, 40, 100
3, 72240, Note_on_c, 1, 52, 87
3, 72240, Note_on_c, 1, 40, 87
3, 72380, Note_off_c, 1, 52, 100
3, 72380, Note_off_c, 1, 40, 100
3, 72384, Note_on_c, 1, 45, 91
3, 72384, Note_on_c, 1, 33, 91
3, 72524, Note_off_c, 1, 45, 100
3, 72524, Note_off_c, 1, 33, 100
3, 72528, Note_on_c, 1, 45, 96
3, 72528, Note_on_c, 1, 33, 96
3, 72668, Note_off_c, 1, 45, 100
3, 72668, Note_off_c, 1, 33, 100
3, 72672, Note_on_c, 1, 43, 100
3, 72672, Note_on_c, 1, 31, 100
3, 72812, Note_off_c, 1, 43, 100
3, 72812, Note_off_c, 1, 31, 100
3, 72816, Note_on_c, 1, 43, 80
3, 72816, Note_on_c, 1, 31, 80
3, 72860, Note_off_c, 1, 43, 100
3, 72860, Note_off_c, 1, 31, 100
3, 72864, Note_on_c, 1, 43, 80
3, 72864, Note_on_c, 1, 31, 80
3, 72956, Note_off_c, 1, 43, 100
3, 72956, Note_off_c, 1, 31, 100
3, 72960, Note_on_c, 1, 65, 80
3, 73004, Note_off_c, 1, 65, 100
3, 73008, Note_on_c, 1, 64, 80
3, 73008, Note_on_c, 1, 55, 80
3, 73100, Note_off_c, 1, 64, 100
3, 73104, Note_on_c, 1, 65, 81
3, 73148, Note_off_c, 1, 65, 100
3, 73152, Note_on_c, 1, 65, 82
3, 73244, Note_off_c, 1, 65, 100
3, 73248, Note_on_c, 1, 62, 83
3, 73292, Note_off_c, 1, 62, 100
3, 73296, Note_on_c, 1, 61, 84
3, 73388, Note_off_c, 1, 61, 100
3, 73392, Note_on_c, 1, 62, 85
3, 73436, Note_off_c, 1, 62, 100
3, 73440, Note_on_c, 1, 59, 86
3, 73580, Note_off_c, 1, 55, 100
3, 73580, Note_off_c, 1, 59, 100
3, 73584, Note_on_c, 1, 55, 87
3, 73584, Note_on_c, 1, 62, 87
3, 73676, Note_off_c, 1, 62, 100
3, 73680, Note_on_c, 1, 60, 89
3, 73724, Note_off_c, 1, 60, 100
3, 73728, Note_on_c, 1, 60, 89
3, 73820, Note_off_c, 1, 60, 100
3, 73824, Note_on_c, 1, 64, 90
3, 73868, Note_off_c, 1, 55, 100
3, 73868, Note_off_c, 1, 64, 100
3, 73872, Note_on_c, 1, 60, 91
3, 73872, Note_on_c, 1, 62, 91
3, 73964, Note_off_c, 1, 62, 100
3, 73968, Note_on_c, 1, 64, 92
3, 74108, Note_off_c, 1, 64, 100
3, 74112, Note_on_c, 1, 67, 94
3, 74156, Note_off_c, 1, 60, 100
3, 74156, Note_off_c, 1, 67, 100
3, 74160, Note_on_c, 1, 60, 95
3, 74160, Note_on_c, 1, 66, 95
3, 74252, Note_off_c, 1, 66, 100
3, 74256, Note_on_c, 1, 67, 96
3, 74396, Note_off_c, 1, 67, 100
3, 74400, Note_on_c, 1, 67, 98
3, 74444, Note_off_c, 1, 60, 100
3, 74444, Note_off_c, 1, 67, 100
3, 74448, Note_on_c, 1, 64, 98
3, 74448, Note_on_c, 1, 53, 98
3, 74540, Note_off_c, 1, 64, 100
3, 74544, Note_on_c, 1, 65, 100
3, 74588, Note_off_c, 1, 53, 100
3, 74588, Note_off_c, 1, 65, 100
3, 74592, Note_on_c, 1, 60, 100
3, 74592, Note_on_c, 1, 54, 100
3, 74684, Note_off_c, 1, 54, 100
3, 74688, Note_on_c, 1, 57, 101
3, 74732, Note_off_c, 1, 60, 100
3, 74732, Note_off_c, 1, 57, 100
3, 74736, Note_on_c, 1, 60, 102
3, 74736, Note_on_c, 1, 54, 102
3, 74828, Note_off_c, 1, 60, 100
3, 74828, Note_off_c, 1, 54, 100
3, 74832, Note_on_c, 1, 59, 103
3, 74832, Note_on_c, 1, 55, 103
3, 74972, Note_off_c, 1, 59, 100
3, 74976, Note_on_c, 1, 59, 105
3, 75020, Note_off_c, 1, 55, 100
3, 75020, Note_off_c, 1, 59, 100
3, 75024, Note_on_c, 1, 60, 106
3, 75024, Note_on_c, 1, 55, 106
3, 75164, Note_off_c, 1, 60, 100
3, 75168, Note_on_c, 1, 61, 107
3, 75260, Note_off_c, 1, 61, 100
3, 75264, Note_on_c, 1, 62, 109
3, 75308, Note_off_c, 1, 55, 100
3, 75308, Note_off_c, 1, 62, 100
3, 75312, Note_on_c, 1, 65, 109
3, 75312, Note_on_c, 1, 62, 109
3, 75312, Note_on_c, 1, 55, 109
3, 75404, Note_off_c, 1, 65, 100
3, 75404, Note_off_c, 1, 62, 100
3, 75404, Note_off_c, 1, 55, 100
3, 75408, Note_on_c, 1, 65, 110
3, 75408, Note_on_c, 1, 62, 110
3, 75408, Note_on_c, 1, 55, 110
3, 75452, Note_off_c, 1, 65, 100
3, 75452, Note_off_c, 1, 62, 100
3, 75452, Note_off_c, 1, 55, 100
3, 75456, Note_on_c, 1, 65, 110
3, 75456, Note_on_c, 1, 62, 110
3, 75456, Note_on_c, 1, 55, 110
3, 75548, Note_off_c, 1, 65, 100
3, 75548, Note_off_c, 1, 62, 100
3, 75548, Note_off_c, 1, 55, 100
3, 75552, Note_on_c, 1, 55, 100
3, 75552, Note_on_c, 1, 43, 100
3, 75596, Note_off_c, 1, 55, 100
3, 75596, Note_off_c, 1, 43, 100
3, 75600, Note_on_c, 1, 57, 95
3, 75600, Note_on_c, 1, 45, 95
3, 75692, Note_off_c, 1, 57, 100
3, 75692, Note_off_c, 1, 45, 100
3, 75696, Note_on_c, 1, 59, 85
3, 75696, Note_on_c, 1, 47, 85
3, 75740, Note_off_c, 1, 59, 100
3, 75740, Note_off_c, 1, 47, 100
3, 75744, Note_on_c, 1, 60, 80
3, 75744, Note_on_c, 1, 48, 80
3, 75836, Note_off_c, 1, 60, 100
3, 75836, Note_off_c, 1, 48, 100
3, 75840, Note_on_c, 1, 50, 80
3, 75884, Note_off_c, 1, 50, 100
3, 75888, Note_on_c, 1, 52, 80
3, 75980, Note_off_c, 1, 52, 100
3, 75984, Note_on_c, 1, 53, 80
3, 76028, Note_off_c, 1, 53, 100
3, 76032, Note_on_c, 1, 52, 80
3, 76124, Note_off_c, 1, 52, 100
3, 76128, Note_on_c, 1, 50, 80
3, 76172, Note_off_c, 1, 50, 100
3, 76176, Note_on_c, 1, 48, 80
3, 76268, Note_off_c, 1, 48, 100
3, 76272, Note_on_c, 1, 47, 80
3, 76316, Note_off_c, 1, 47, 100
3, 76320, Note_on_c, 1, 45, 80
3, 76416, Note_on_c, 1, 51, 80
3, 76460, Note_off_c, 1, 51, 100
3, 76464, Note_on_c, 1, 52, 80
3, 76556, Note_off_c, 1, 45, 100
3, 76560, Note_on_c, 1, 44, 80
3, 76604, Note_off_c, 1, 44, 100
3, 76608, Note_on_c, 1, 45, 80
3, 76652, Note_off_c, 1, 52, 100
3, 76704, Note_on_c, 1, 51, 80
3, 76748, Note_off_c, 1, 51, 100
3, 76752, Note_on_c, 1, 52, 80
3, 76844, Note_off_c, 1, 45, 100
3, 76848, Note_on_c, 1, 44, 80
3, 76892, Note_off_c, 1, 44, 100
3, 76896, Note_on_c, 1, 45, 80
3, 76988, Note_off_c, 1, 52, 100
3, 76992, Note_on_c, 1, 51, 80
3, 77036, Note_off_c, 1, 51, 100
3, 77040, Note_on_c, 1, 52, 80
3, 77132, Note_off_c, 1, 45, 100
3, 77136, Note_on_c, 1, 44, 80
3, 77180, Note_off_c, 1, 44, 100
3, 77184, Note_on_c, 1, 44, 80
3, 77276, Note_off_c, 1, 52, 100
3, 77280, Note_on_c, 1, 53, 80
3, 77324, Note_off_c, 1, 53, 100
3, 77328, Note_on_c, 1, 52, 80
3, 77420, Note_off_c, 1, 44, 100
3, 77424, Note_on_c, 1, 45, 80
3, 77468, Note_off_c, 1, 45, 100
3, 77472, Note_on_c, 1, 44, 80
3, 77564, Note_off_c, 1, 52, 100
3, 77568, Note_on_c, 1, 53, 80
3, 77612, Note_off_c, 1, 53, 100
3, 77616, Note_on_c, 1, 52, 80
3, 77708, Note_off_c, 1, 44, 100
3, 77712, Note_on_c, 1, 45, 80
3, 77756, Note_off_c, 1, 45, 100
3, 77760, Note_on_c, 1, 44, 80
3, 77852, Note_off_c, 1, 52, 100
3, 77856, Note_on_c, 1, 53, 80
3, 77900, Note_off_c, 1, 53, 100
3, 77904, Note_on_c, 1, 52, 80
3, 77996, Note_off_c, 1, 44, 100
3, 78000, Note_on_c, 1, 45, 80
3, 78044, Note_off_c, 1, 45, 100
3, 78140, Note_off_c, 1, 52, 100
3, 78144, Note_on_c, 1, 44, 80
3, 78144, Note_on_c, 1, 32, 80
3, 78188, Note_off_c, 1, 44, 100
3, 78188, Note_off_c, 1, 32, 100
3, 78192, Note_on_c, 1, 45, 80
3, 78192, Note_on_c, 1, 33, 80
3, 78432, Note_on_c, 1, 45, 80
3, 78432, Note_on_c, 1, 33, 80
3, 78476, Note_off_c, 1, 45, 100
3, 78476, Note_off_c, 1, 33, 100
3, 78476, Note_off_c, 1, 45, 100
3, 78476, Note_off_c, 1, 33, 100
3, 78480, Note_on_c, 1, 47, 80
3, 78480, Note_on_c, 1, 35, 80
3, 78572, Note_off_c, 1, 47, 100
3, 78572, Note_off_c, 1, 35, 100
3, 78624, Note_on_c, 1, 48, 80
3, 78624, Note_on_c, 1, 36, 80
3, 78716, Note_off_c, 1, 48, 100
3, 78716, Note_off_c, 1, 36, 100
3, 78720, Note_on_c, 1, 50, 80
3, 78720, Note_on_c, 1, 38, 80
3, 78764, Note_off_c, 1, 50, 100
3, 78764, Note_off_c, 1, 38, 100
3, 78768, Note_on_c, 1, 51, 80
3, 78768, Note_on_c, 1, 39, 80
3, 78860, Note_off_c, 1, 51, 100
3, 78860, Note_off_c, 1, 39, 100
3, 78864, Note_on_c, 1, 52, 80
3, 78864, Note_on_c, 1, 40, 80
3, 78908, Note_off_c, 1, 52, 100
3, 78908, Note_off_c, 1, 40, 100
3, 78912, Note_on_c, 1, 52, 80
3, 78912, Note_on_c, 1, 40, 80
3, 79004, Note_off_c, 1, 52, 100
3, 79004, Note_off_c, 1, 40, 100
3, 79008, Note_on_c, 1, 52, 82
3, 79008, Note_on_c, 1, 40, 82
3, 79148, Note_off_c, 1, 52, 100
3, 79148, Note_off_c, 1, 40, 100
3, 79152, Note_on_c, 1, 52, 87
3, 79152, Note_on_c, 1, 40, 87
3, 79292, Note_off_c, 1, 52, 100
3, 79292, Note_off_c, 1, 40, 100
3, 79296, Note_on_c, 1, 45, 91
3, 79296, Note_on_c, 1, 33, 91
3, 79436, Note_off_c, 1, 45, 100
3, 79436, Note_off_c, 1, 33, 100
3, 79440, Note_on_c, 1, 45, 96
3, 79440, Note_on_c, 1, 33, 96
3, 79580, Note_off_c, 1, 45, 100
3, 79580, Note_off_c, 1, 33, 100
3, 79584, Note_on_c, 1, 43, 100
3, 79584, Note_on_c, 1, 31, 100
3, 79724, Note_off_c, 1, 43, 100
3, 79724, Note_off_c, 1, 31, 100
3, 79728, Note_on_c, 1, 43, 80
3, 79728, Note_on_c, 1, 31, 80
3, 79772, Note_off_c, 1, 43, 100
3, 79772, Note_off_c, 1, 31, 100
3, 79776, Note_on_c, 1, 43, 80
3, 79776, Note_on_c, 1, 31, 80
3, 79868, Note_off_c, 1, 43, 100
3, 79868, Note_off_c, 1, 31, 100
3, 79872, Note_on_c, 1, 65, 80
3, 79916, Note_off_c, 1, 65, 100
3, 79920, Note_on_c, 1, 64, 80
3, 79920, Note_on_c, 1, 55, 80
3, 80012, Note_off_c, 1, 64, 100
3, 80016, Note_on_c, 1, 65, 81
3, 80060, Note_off_c, 1, 65, 100
3, 80064, Note_on_c, 1, 65, 82
3, 80156, Note_off_c, 1, 65, 100
3, 80160, Note_on_c, 1, 62, 83
3, 80204, Note_off_c, 1, 62, 100
3, 80208, Note_on_c, 1, 61, 84
3, 80300, Note_off_c, 1, 61, 100
3, 80304, Note_on_c, 1, 62, 85
3, 80348, Note_off_c, 1, 62, 100
3, 80352, Note_on_c, 1, 59, 86
3, 80492, Note_off_c, 1, 55, 100
3, 80492, Note_off_c, 1, 59, 100
3, 80496, Note_on_c, 1, 55, 87
3, 80496, Note_on_c, 1, 62, 87
3, 80588, Note_off_c, 1, 62, 100
3, 80592, Note_on_c, 1, 60, 89
3, 80636, Note_off_c, 1, 60, 100
3, 80640, Note_on_c, 1, 60, 89
3, 80732, Note_off_c, 1, 60, 100
3, 80736, Note_on_c, 1, 64, 90
3, 80780, Note_off_c, 1, 55, 100
3, 80780, Note_off_c, 1, 64, 100
3, 80784, Note_on_c, 1, 60, 91
3, 80784, Note_on_c, 1, 62, 91
3, 80876, Note_off_c, 1, 62, 100
3, 80880, Note_on_c, 1, 64, 92
3, 81020, Note_off_c, 1, 64, 100
3, 81024, Note_on_c, 1, 67, 94
3, 81068, Note_off_c, 1, 60, 100
3, 81068, Note_off_c, 1, 67, 100
3, 81072, Note_on_c, 1, 60, 95
3, 81072, Note_on_c, 1, 66, 95
3, 81164, Note_off_c, 1, 66, 100
3, 81168, Note_on_c, 1, 67, 96
3, 81308, Note_off_c, 1, 67, 100
3, 81312, Note_on_c, 1, 67, 98
3, 81356, Note_off_c, 1, 60, 100
3, 81356, Note_off_c, 1, 67, 100
3, 81360, Note_on_c, 1, 64, 98
3, 81360, Note_on_c, 1, 53, 98
3, 81452, Note_off_c, 1, 64, 100
3, 81456, Note_on_c, 1, 65, 100
3, 81500, Note_off_c, 1, 53, 100
3, 81500, Note_off_c, 1, 65, 100
3, 81504, Note_on_c, 1, 60, 100
3, 81504, Note_on_c, 1, 54, 100
3, 81596, Note_off_c, 1, 54, 100
3, 81600, Note_on_c, 1, 57, 101
3, 81644, Note_off_c, 1, 60, 100
3, 81644, Note_off_c, 1, 57, 100
3, 81648, Note_on_c, 1, 60, 102
3, 81648, Note_on_c, 1, 54, 102
3, 81740, Note_off_c, 1, 60, 100
3, 81740, Note_off_c, 1, 54, 100
3, 81744, Note_on_c, 1, 59, 103
3, 81744, Note_on_c, 1, 55, 103
3, 81884, Note_off_c, 1, 59, 100
3, 81888, Note_on_c, 1, 59, 105
3, 81932, Note_off_c, 1, 55, 100
3, 81932, Note_off_c, 1, 59, 100
3, 81936, Note_on_c, 1, 60, 106
3, 81936, Note_on_c, 1, 55, 106
3, 82076, Note_off_c, 1, 60, 100
3, 82080, Note_on_c, 1, 61, 107
3, 82172, Note_off_c, 1, 61, 100
3, 82176, Note_on_c, 1, 62, 109
3, 82220, Note_off_c, 1, 55, 100
3, 82220, Note_off_c, 1, 62, 100
3, 82224, Note_on_c, 1, 65, 109
3, 82224, Note_on_c, 1, 62, 109
3, 82224, Note_on_c, 1, 55, 109
3, 82316, Note_off_c, 1, 65, 100
3, 82316, Note_off_c, 1, 62, 100
3, 82316, Note_off_c, 1, 55, 100
3, 82320, Note_on_c, 1, 65, 110
3, 82320, Note_on_c, 1, 62, 110
3, 82320, Note_on_c, 1, 55, 110
3, 82364, Note_off_c, 1, 65, 100
3, 82364, Note_off_c, 1, 62, 100
3, 82364, Note_off_c, 1, 55, 100
3, 82368, Note_on_c, 1, 65, 110
3, 82368, Note_on_c, 1, 62, 110
3, 82368, Note_on_c, 1, 55, 110
3, 82460, Note_off_c, 1, 65, 100
3, 82460, Note_off_c, 1, 62, 100
3, 82460, Note_off_c, 1, 55, 100
3, 82464, Note_on_c, 1, 55, 98
3, 82464, Note_on_c, 1, 43, 98
3, 82508, Note_off_c, 1, 55, 100
3, 82508, Note_off_c, 1, 43, 100
3, 82512, Note_on_c, 1, 57, 92
3, 82512, Note_on_c, 1, 45, 92
3, 82604, Note_off_c, 1, 57, 100
3, 82604, Note_off_c, 1, 45, 100
3, 82608, Note_on_c, 1, 59, 80
3, 82608, Note_on_c, 1, 47, 80
3, 82652, Note_off_c, 1, 59, 100
3, 82652, Note_off_c, 1, 47, 100
3, 82656, Note_on_c, 1, 60, 80
3, 82656, Note_on_c, 1, 48, 80
3, 82748, Note_off_c, 1, 60, 100
3, 82748, Note_off_c, 1, 48, 100
3, 82752, Note_on_c, 1, 71, 80
3, 82796, Note_off_c, 1, 71, 100
3, 82800, Note_on_c, 1, 72, 80
3, 82892, Note_off_c, 1, 72, 100
3, 82896, Note_on_c, 1, 74, 80
3, 82940, Note_off_c, 1, 74, 100
3, 83520, Note_on_c, 1, 36, 110
3, 83612, Note_off_c, 1, 36, 100
3, 83616, Note_on_c, 1, 40, 110
3, 83660, Note_off_c, 1, 40, 100
3, 83664, Note_on_c, 1, 43, 110
3, 83756, Note_off_c, 1, 43, 100
3, 83760, Note_on_c, 1, 48, 110
3, 83804, Note_off_c, 1, 48, 100
3, 83808, Note_on_c, 1, 52, 110
3, 83900, Note_off_c, 1, 52, 100
3, 83904, Note_on_c, 1, 55, 110
3, 83948, Note_off_c, 1, 55, 100
3, 83952, Note_on_c, 1, 59, 110
3, 84044, Note_off_c, 1, 59, 100
3, 84048, Note_on_c, 1, 64, 110
3, 84092, Note_off_c, 1, 64, 100
3, 84096, Note_on_c, 1, 38, 110
3, 84188, Note_off_c, 1, 38, 100
3, 84192, Note_on_c, 1, 43, 110
3, 84236, Note_off_c, 1, 43, 100
3, 84240, Note_on_c, 1, 47, 110
3, 84332, Note_off_c, 1, 47, 100
3, 84336, Note_on_c, 1, 50, 110
3, 84380, Note_off_c, 1, 50, 100
3, 84384, Note_on_c, 1, 55, 110
3, 84476, Note_off_c, 1, 55, 100
3, 84480, Note_on_c, 1, 59, 110
3, 84524, Note_off_c, 1, 59, 100
3, 84528, Note_on_c, 1, 61, 110
3, 84620, Note_off_c, 1, 61, 100
3, 84624, Note_on_c, 1, 62, 110
3, 84668, Note_off_c, 1, 62, 100
3, 85248, Note_on_c, 1, 38, 110
3, 85340, Note_off_c, 1, 38, 100
3, 85344, Note_on_c, 1, 43, 110
3, 85388, Note_off_c, 1, 43, 100
3, 85392, Note_on_c, 1, 47, 110
3, 85484, Note_off_c, 1, 47, 100
3, 85488, Note_on_c, 1, 50, 110
3, 85532, Note_off_c, 1, 50, 100
3, 85536, Note_on_c, 1, 55, 110
3, 85628, Note_off_c, 1, 55, 100
3, 85632, Note_on_c, 1, 59, 110
3, 85676, Note_off_c, 1, 59, 100
3, 85680, Note_on_c, 1, 61, 110
3, 85772, Note_off_c, 1, 61, 100
3, 85776, Note_on_c, 1, 62, 110
3, 85820, Note_off_c, 1, 62, 100
3, 85824, Note_on_c, 1, 36, 110
3, 85916, Note_off_c, 1, 36, 100
3, 85920, Note_on_c, 1, 43, 110
3, 85964, Note_off_c, 1, 43, 100
3, 85968, Note_on_c, 1, 48, 110
3, 86060, Note_off_c, 1, 48, 100
3, 86064, Note_on_c, 1, 52, 110
3, 86108, Note_off_c, 1, 52, 100
3, 86112, Note_on_c, 1, 55, 110
3, 86204, Note_off_c, 1, 55, 100
3, 86208, Note_on_c, 1, 60, 110
3, 86252, Note_off_c, 1, 60, 100
3, 86256, Note_on_c, 1, 63, 110
3, 86348, Note_off_c, 1, 63, 100
3, 86352, Note_on_c, 1, 64, 110
3, 86396, Note_off_c, 1, 64, 100
3, 86976, Note_on_c, 1, 40, 110
3, 87068, Note_off_c, 1, 40, 100
3, 87072, Note_on_c, 1, 46, 110
3, 87116, Note_off_c, 1, 46, 100
3, 87120, Note_on_c, 1, 49, 110
3, 87212, Note_off_c, 1, 49, 100
3, 87216, Note_on_c, 1, 52, 110
3, 87260, Note_off_c, 1, 52, 100
3, 87264, Note_on_c, 1, 53, 110
3, 87356, Note_off_c, 1, 53, 100
3, 87360, Note_on_c, 1, 59, 110
3, 87404, Note_off_c, 1, 59, 100
3, 87408, Note_on_c, 1, 62, 110
3, 87500, Note_off_c, 1, 62, 100
3, 87504, Note_on_c, 1, 65, 110
3, 87548, Note_off_c, 1, 65, 100
3, 87552, Note_on_c, 1, 51, 110
3, 87644, Note_off_c, 1, 51, 100
3, 87648, Note_on_c, 1, 55, 110
3, 87692, Note_off_c, 1, 55, 100
3, 87696, Note_on_c, 1, 59, 110
3, 87788, Note_off_c, 1, 59, 100
3, 87792, Note_on_c, 1, 63, 110
3, 87836, Note_off_c, 1, 63, 100
3, 87840, Note_on_c, 1, 52, 110
3, 87932, Note_off_c, 1, 52, 100
3, 87936, Note_on_c, 1, 55, 110
3, 87980, Note_off_c, 1, 55, 100
3, 87984, Note_on_c, 1, 60, 110
3, 88076, Note_off_c, 1, 60, 100
3, 88080, Note_on_c, 1, 64, 110
3, 88124, Note_off_c, 1, 64, 100
3, 88128, Note_on_c, 1, 48, 110
3, 88220, Note_off_c, 1, 48, 100
3, 88224, Note_on_c, 1, 52, 110
3, 88268, Note_off_c, 1, 52, 100
3, 88272, Note_on_c, 1, 55, 110
3, 88364, Note_off_c, 1, 55, 100
3, 88368, Note_on_c, 1, 59, 110
3, 88412, Note_off_c, 1, 59, 100
3, 88416, Note_on_c, 1, 36, 110
3, 88508, Note_off_c, 1, 36, 100
3, 88512, Note_on_c, 1, 40, 110
3, 88556, Note_off_c, 1, 40, 100
3, 88560, Note_on_c, 1, 43, 110
3, 88652, Note_off_c, 1, 43, 100
3, 88656, Note_on_c, 1, 48, 110
3, 88700, Note_off_c, 1, 48, 100
3, 88704, Note_on_c, 1, 43, 110
3, 88704, Note_on_c, 1, 31, 110
3, 88940, Note_off_c, 1, 43, 100
3, 88940, Note_off_c, 1, 31, 100
3, 88944, Note_on_c, 1, 43, 110
3, 88944, Note_on_c, 1, 31, 110
3, 89228, Note_off_c, 1, 43, 100
3, 89228, Note_off_c, 1, 31, 100
3, 89232, Note_on_c, 1, 43, 110
3, 89232, Note_on_c, 1, 31, 110
3, 89516, Note_off_c, 1, 31, 100
3, 89516, Note_off_c, 1, 43, 100
3, 89520, Note_on_c, 1, 43, 110
3, 89520, Note_on_c, 1, 31, 110
3, 89804, Note_off_c, 1, 43, 100
3, 89804, Note_off_c, 1, 31, 100
3, 89808, Note_on_c, 1, 41, 110
3, 89808, Note_on_c, 1, 29, 110
3, 89852, Note_off_c, 1, 41, 100
3, 89852, Note_off_c, 1, 29, 100
3, 89856, Note_on_c, 1, 29, 110
3, 89948, Note_off_c, 1, 29, 100
3, 89952, Note_on_c, 1, 35, 110
3, 89996, Note_off_c, 1, 35, 100
3, 90000, Note_on_c, 1, 38, 110
3, 90092, Note_off_c, 1, 38, 100
3, 90096, Note_on_c, 1, 41, 110
3, 90140, Note_off_c, 1, 41, 100
3, 90144, Note_on_c, 1, 47, 110
3, 90236, Note_off_c, 1, 47, 100
3, 90240, Note_on_c, 1, 50, 110
3, 90284, Note_off_c, 1, 50, 100
3, 90288, Note_on_c, 1, 52, 110
3, 90380, Note_off_c, 1, 52, 100
3, 90384, Note_on_c, 1, 53, 110
3, 90428, Note_off_c, 1, 53, 100
3, 90432, Note_on_c, 1, 52, 110
3, 90432, Note_on_c, 1, 40, 110
3, 90572, Note_off_c, 1, 52, 100
3, 90572, Note_off_c, 1, 40, 100
3, 90864, Note_on_c, 1, 67, 110
3, 90956, Note_off_c, 1, 67, 100
3, 90960, Note_on_c, 1, 64, 110
3, 91004, Note_off_c, 1, 64, 100
3, 91008, Note_on_c, 1, 60, 110
3, 91100, Note_off_c, 1, 60, 100
3, 91104, Note_on_c, 1, 55, 110
3, 91148, Note_off_c, 1, 55, 100
3, 91152, Note_on_c, 1, 52, 110
3, 91244, Note_off_c, 1, 52, 100
3, 91248, Note_on_c, 1, 48, 110
3, 91292, Note_off_c, 1, 48, 100
3, 91296, Note_on_c, 1, 64, 110
3, 91388, Note_off_c, 1, 64, 100
3, 91392, Note_on_c, 1, 60, 110
3, 91436, Note_off_c, 1, 60, 100
3, 91440, Note_on_c, 1, 55, 110
3, 91532, Note_off_c, 1, 55, 100
3, 91536, Note_on_c, 1, 52, 110
3, 91580, Note_off_c, 1, 52, 100
3, 91584, Note_on_c, 1, 64, 110
3, 91676, Note_off_c, 1, 64, 100
3, 91680, Note_on_c, 1, 60, 110
3, 91724, Note_off_c, 1, 60, 100
3, 91728, Note_on_c, 1, 55, 110
3, 91820, Note_off_c, 1, 55, 100
3, 91824, Note_on_c, 1, 52, 110
3, 91868, Note_off_c, 1, 52, 100
3, 91872, Note_on_c, 1, 60, 110
3, 91964, Note_off_c, 1, 60, 100
3, 91968, Note_on_c, 1, 55, 110
3, 92012, Note_off_c, 1, 55, 100
3, 92016, Note_on_c, 1, 52, 110
3, 92108, Note_off_c, 1, 52, 100
3, 92112, Note_on_c, 1, 48, 110
3, 92156, Note_off_c, 1, 48, 100
3, 92160, Note_on_c, 1, 57, 110
3, 92252, Note_off_c, 1, 57, 100
3, 92256, Note_on_c, 1, 55, 110
3, 92300, Note_off_c, 1, 55, 100
3, 92304, Note_on_c, 1, 52, 110
3, 92396, Note_off_c, 1, 52, 100
3, 92400, Note_on_c, 1, 49, 110
3, 92444, Note_off_c, 1, 49, 100
3, 92448, Note_on_c, 1, 45, 110
3, 92540, Note_off_c, 1, 45, 100
3, 92544, Note_on_c, 1, 55, 110
3, 92588, Note_off_c, 1, 55, 100
3, 92592, Note_on_c, 1, 52, 110
3, 92684, Note_off_c, 1, 52, 100
3, 92688, Note_on_c, 1, 49, 110
3, 92732, Note_off_c, 1, 49, 100
3, 92736, Note_on_c, 1, 57, 110
3, 92828, Note_off_c, 1, 57, 100
3, 92832, Note_on_c, 1, 53, 110
3, 92876, Note_off_c, 1, 53, 100
3, 92880, Note_on_c, 1, 50, 110
3, 92972, Note_off_c, 1, 50, 100
3, 92976, Note_on_c, 1, 53, 110
3, 93020, Note_off_c, 1, 53, 100
3, 93024, Note_on_c, 1, 50, 110
3, 93116, Note_off_c, 1, 50, 100
3, 93120, Note_on_c, 1, 62, 110
3, 93164, Note_off_c, 1, 62, 100
3, 93168, Note_on_c, 1, 65, 110
3, 93260, Note_off_c, 1, 65, 100
3, 93264, Note_on_c, 1, 62, 110
3, 93308, Note_off_c, 1, 62, 100
3, 93312, Note_on_c, 1, 65, 110
3, 93404, Note_off_c, 1, 65, 100
3, 93408, Note_on_c, 1, 62, 110
3, 93452, Note_off_c, 1, 62, 100
3, 93456, Note_on_c, 1, 57, 110
3, 93548, Note_off_c, 1, 57, 100
3, 93552, Note_on_c, 1, 53, 110
3, 93596, Note_off_c, 1, 53, 100
3, 93600, Note_on_c, 1, 65, 110
3, 93692, Note_off_c, 1, 65, 100
3, 93696, Note_on_c, 1, 62, 110
3, 93740, Note_off_c, 1, 62, 100
3, 93744, Note_on_c, 1, 57, 110
3, 93836, Note_off_c, 1, 57, 100
3, 93840, Note_on_c, 1, 53, 110
3, 93884, Note_off_c, 1, 53, 100
3, 93888, Note_on_c, 1, 55, 110
3, 93980, Note_off_c, 1, 55, 100
3, 93984, Note_on_c, 1, 65, 110
3, 94028, Note_off_c, 1, 65, 100
3, 94032, Note_on_c, 1, 62, 110
3, 94124, Note_off_c, 1, 62, 100
3, 94128, Note_on_c, 1, 59, 110
3, 94172, Note_off_c, 1, 59, 100
3, 94176, Note_on_c, 1, 55, 110
3, 94268, Note_off_c, 1, 55, 100
3, 94272, Note_on_c, 1, 59, 110
3, 94316, Note_off_c, 1, 59, 100
3, 94320, Note_on_c, 1, 62, 110
3, 94412, Note_off_c, 1, 62, 100
3, 94416, Note_on_c, 1, 65, 110
3, 94460, Note_off_c, 1, 65, 100
3, 94464, Note_on_c, 1, 56, 110
3, 94556, Note_off_c, 1, 56, 100
3, 94560, Note_on_c, 1, 68, 110
3, 94604, Note_off_c, 1, 68, 100
3, 94608, Note_on_c, 1, 65, 110
3, 94700, Note_off_c, 1, 65, 100
3, 94704, Note_on_c, 1, 60, 110
3, 94748, Note_off_c, 1, 60, 100
3, 94752, Note_on_c, 1, 57, 110
3, 94844, Note_off_c, 1, 57, 100
3, 94848, Note_on_c, 1, 60, 110
3, 94892, Note_off_c, 1, 60, 100
3, 94896, Note_on_c, 1, 65, 110
3, 94988, Note_off_c, 1, 65, 100
3, 94992, Note_on_c, 1, 69, 110
3, 95036, Note_off_c, 1, 69, 100
3, 95040, Note_on_c, 1, 58, 110
3, 95132, Note_off_c, 1, 58, 100
3, 95136, Note_on_c, 1, 70, 110
3, 95180, Note_off_c, 1, 70, 100
3, 95184, Note_on_c, 1, 58, 110
3, 95276, Note_off_c, 1, 58, 100
3, 95280, Note_on_c, 1, 70, 110
3, 95324, Note_off_c, 1, 70, 100
3, 95328, Note_on_c, 1, 58, 110
3, 95420, Note_off_c, 1, 58, 100
3, 95424, Note_on_c, 1, 70, 110
3, 95468, Note_off_c, 1, 70, 100
3, 95472, Note_on_c, 1, 59, 110
3, 95564, Note_off_c, 1, 59, 100
3, 95568, Note_on_c, 1, 71, 110
3, 95612, Note_off_c, 1, 71, 100
3, 95616, Note_on_c, 1, 59, 110
3, 95708, Note_off_c, 1, 59, 100
3, 95712, Note_on_c, 1, 60, 110
3, 95756, Note_off_c, 1, 60, 100
3, 95760, Note_on_c, 1, 62, 110
3, 95852, Note_off_c, 1, 62, 100
3, 95856, Note_on_c, 1, 59, 110
3, 95900, Note_off_c, 1, 59, 100
3, 95904, Note_on_c, 1, 62, 110
3, 95996, Note_off_c, 1, 62, 100
3, 96000, Note_on_c, 1, 64, 110
3, 96044, Note_off_c, 1, 64, 100
3, 96048, Note_on_c, 1, 65, 110
3, 96140, Note_off_c, 1, 65, 100
3, 96144, Note_on_c, 1, 64, 110
3, 96188, Note_off_c, 1, 64, 100
3, 96192, Note_on_c, 1, 71, 110
3, 96284, Note_off_c, 1, 71, 100
3, 96288, Note_on_c, 1, 72, 110
3, 96332, Note_off_c, 1, 72, 100
3, 96336, Note_on_c, 1, 74, 110
3, 96428, Note_off_c, 1, 74, 100
3, 96432, Note_on_c, 1, 72, 110
3, 96476, Note_off_c, 1, 72, 100
3, 96480, Note_on_c, 1, 74, 110
3, 96572, Note_off_c, 1, 74, 100
3, 96576, Note_on_c, 1, 76, 110
3, 96620, Note_off_c, 1, 76, 100
3, 96624, Note_on_c, 1, 77, 110
3, 96716, Note_off_c, 1, 77, 100
3, 96720, Note_on_c, 1, 74, 110
3, 96764, Note_off_c, 1, 74, 100
3, 97344, Note_on_c, 1, 36, 110
3, 97436, Note_off_c, 1, 36, 100
3, 97440, Note_on_c, 1, 40, 110
3, 97484, Note_off_c, 1, 40, 100
3, 97488, Note_on_c, 1, 43, 110
3, 97580, Note_off_c, 1, 43, 100
3, 97584, Note_on_c, 1, 48, 110
3, 97628, Note_off_c, 1, 48, 100
3, 97632, Note_on_c, 1, 52, 110
3, 97724, Note_off_c, 1, 52, 100
3, 97728, Note_on_c, 1, 55, 110
3, 97772, Note_off_c, 1, 55, 100
3, 97776, Note_on_c, 1, 59, 110
3, 97868, Note_off_c, 1, 59, 100
3, 97872, Note_on_c, 1, 64, 110
3, 97916, Note_off_c, 1, 64, 100
3, 97920, Note_on_c, 1, 38, 110
3, 98012, Note_off_c, 1, 38, 100
3, 98016, Note_on_c, 1, 43, 110
3, 98060, Note_off_c, 1, 43, 100
3, 98064, Note_on_c, 1, 47, 110
3, 98156, Note_off_c, 1, 47, 100
3, 98160, Note_on_c, 1, 50, 110
3, 98204, Note_off_c, 1, 50, 100
3, 98208, Note_on_c, 1, 55, 110
3, 98300, Note_off_c, 1, 55, 100
3, 98304, Note_on_c, 1, 59, 110
3, 98348, Note_off_c, 1, 59, 100
3, 98352, Note_on_c, 1, 61, 110
3, 98444, Note_off_c, 1, 61, 100
3, 98448, Note_on_c, 1, 62, 110
3, 98492, Note_off_c, 1, 62, 100
3, 99072, Note_on_c, 1, 38, 110
3, 99164, Note_off_c, 1, 38, 100
3, 99168, Note_on_c, 1, 43, 110
3, 99212, Note_off_c, 1, 43, 100
3, 99216, Note_on_c, 1, 47, 110
3, 99308, Note_off_c, 1, 47, 100
3, 99312, Note_on_c, 1, 50, 110
3, 99356, Note_off_c, 1, 50, 100
3, 99360, Note_on_c, 1, 55, 110
3, 99452, Note_off_c, 1, 55, 100
3, 99456, Note_on_c, 1, 59, 110
3, 99500, Note_off_c, 1, 59, 100
3, 99504, Note_on_c, 1, 61, 110
3, 99596, Note_off_c, 1, 61, 100
3, 99600, Note_on_c, 1, 62, 110
3, 99644, Note_off_c, 1, 62, 100
3, 99648, Note_on_c, 1, 36, 110
3, 99740, Note_off_c, 1, 36, 100
3, 99744, Note_on_c, 1, 43, 110
3, 99788, Note_off_c, 1, 43, 100
3, 99792, Note_on_c, 1, 48, 110
3, 99884, Note_off_c, 1, 48, 100
3, 99888, Note_on_c, 1, 52, 110
3, 99932, Note_off_c, 1, 52, 100
3, 99936, Note_on_c, 1, 55, 110
3, 100028, Note_off_c, 1, 55, 100
3, 100032, Note_on_c, 1, 60, 110
3, 100076, Note_off_c, 1, 60, 100
3, 100080, Note_on_c, 1, 63, 110
3, 100172, Note_off_c, 1, 63, 100
3, 100176, Note_on_c, 1, 64, 110
3, 100220, Note_off_c, 1, 64, 100
3, 100800, Note_on_c, 1, 40, 110
3, 100892, Note_off_c, 1, 40, 100
3, 100896, Note_on_c, 1, 46, 110
3, 100940, Note_off_c, 1, 46, 100
3, 100944, Note_on_c, 1, 49, 110
3, 101036, Note_off_c, 1, 49, 100
3, 101040, Note_on_c, 1, 52, 110
3, 101084, Note_off_c, 1, 52, 100
3, 101088, Note_on_c, 1, 53, 110
3, 101180, Note_off_c, 1, 53, 100
3, 101184, Note_on_c, 1, 59, 110
3, 101228, Note_off_c, 1, 59, 100
3, 101232, Note_on_c, 1, 62, 110
3, 101324, Note_off_c, 1, 62, 100
3, 101328, Note_on_c, 1, 65, 110
3, 101372, Note_off_c, 1, 65, 100
3, 101376, Note_on_c, 1, 51, 110
3, 101468, Note_off_c, 1, 51, 100
3, 101472, Note_on_c, 1, 55, 110
3, 101516, Note_off_c, 1, 55, 100
3, 101520, Note_on_c, 1, 59, 110
3, 101612, Note_off_c, 1, 59, 100
3, 101616, Note_on_c, 1, 63, 110
3, 101660, Note_off_c, 1, 63, 100
3, 101664, Note_on_c, 1, 52, 110
3, 101756, Note_off_c, 1, 52, 100
3, 101760, Note_on_c, 1, 55, 110
3, 101804, Note_off_c, 1, 55, 100
3, 101808, Note_on_c, 1, 60, 110
3, 101900, Note_off_c, 1, 60, 100
3, 101904, Note_on_c, 1, 64, 110
3, 101948, Note_off_c, 1, 64, 100
3, 101952, Note_on_c, 1, 48, 110
3, 102044, Note_off_c, 1, 48, 100
3, 102048, Note_on_c, 1, 52, 110
3, 102092, Note_off_c, 1, 52, 100
3, 102096, Note_on_c, 1, 55, 110
3, 102188, Note_off_c, 1, 55, 100
3, 102192, Note_on_c, 1, 59, 110
3, 102236, Note_off_c, 1, 59, 100
3, 102240, Note_on_c, 1, 36, 110
3, 102332, Note_off_c, 1, 36, 100
3, 102336, Note_on_c, 1, 40, 110
3, 102380, Note_off_c, 1, 40, 100
3, 102384, Note_on_c, 1, 43, 110
3, 102476, Note_off_c, 1, 43, 100
3, 102480, Note_on_c, 1, 48, 110
3, 102524, Note_off_c, 1, 48, 100
3, 102528, Note_on_c, 1, 43, 110
3, 102528, Note_on_c, 1, 31, 110
3, 102764, Note_off_c, 1, 43, 100
3, 102764, Note_off_c, 1, 31, 100
3, 102768, Note_on_c, 1, 43, 110
3, 102768, Note_on_c, 1, 31, 110
3, 103052, Note_off_c, 1, 43, 100
3, 103052, Note_off_c, 1, 31, 100
3, 103056, Note_on_c, 1, 43, 110
3, 103056, Note_on_c, 1, 31, 110
3, 103340, Note_off_c, 1, 31, 100
3, 103340, Note_off_c, 1, 43, 100
3, 103344, Note_on_c, 1, 43, 110
3, 103344, Note_on_c, 1, 31, 110
3, 103628, Note_off_c, 1, 43, 100
3, 103628, Note_off_c, 1, 31, 100
3, 103632, Note_on_c, 1, 41, 110
3, 103632, Note_on_c, 1, 29, 110
3, 103676, Note_off_c, 1, 41, 100
3, 103676, Note_off_c, 1, 29, 100
3, 103680, Note_on_c, 1, 29, 110
3, 103772, Note_off_c, 1, 29, 100
3, 103776, Note_on_c, 1, 35, 110
3, 103820, Note_off_c, 1, 35, 100
3, 103824, Note_on_c, 1, 38, 110
3, 103916, Note_off_c, 1, 38, 100
3, 103920, Note_on_c, 1, 41, 110
3, 103964, Note_off_c, 1, 41, 100
3, 103968, Note_on_c, 1, 47, 110
3, 104060, Note_off_c, 1, 47, 100
3, 104064, Note_on_c, 1, 50, 110
3, 104108, Note_off_c, 1, 50, 100
3, 104112, Note_on_c, 1, 52, 110
3, 104204, Note_off_c, 1, 52, 100
3, 104208, Note_on_c, 1, 53, 110
3, 104252, Note_off_c, 1, 53, 100
3, 104256, Note_on_c, 1, 52, 110
3, 104256, Note_on_c, 1, 40, 110
3, 104396, Note_off_c, 1, 52, 100
3, 104396, Note_off_c, 1, 40, 100
3, 104688, Note_on_c, 1, 67, 110
3, 104780, Note_off_c, 1, 67, 100
3, 104784, Note_on_c, 1, 64, 110
3, 104828, Note_off_c, 1, 64, 100
3, 104832, Note_on_c, 1, 60, 110
3, 104924, Note_off_c, 1, 60, 100
3, 104928, Note_on_c, 1, 55, 110
3, 104972, Note_off_c, 1, 55, 100
3, 104976, Note_on_c, 1, 52, 110
3, 105068, Note_off_c, 1, 52, 100
3, 105072, Note_on_c, 1, 48, 110
3, 105116, Note_off_c, 1, 48, 100
3, 105120, Note_on_c, 1, 64, 110
3, 105212, Note_off_c, 1, 64, 100
3, 105216, Note_on_c, 1, 60, 110
3, 105260, Note_off_c, 1, 60, 100
3, 105264, Note_on_c, 1, 55, 110
3, 105356, Note_off_c, 1, 55, 100
3, 105360, Note_on_c, 1, 52, 110
3, 105404, Note_off_c, 1, 52, 100
3, 105408, Note_on_c, 1, 64, 110
3, 105500, Note_off_c, 1, 64, 100
3, 105504, Note_on_c, 1, 60, 110
3, 105548, Note_off_c, 1, 60, 100
3, 105552, Note_on_c, 1, 55, 110
3, 105644, Note_off_c, 1, 55, 100
3, 105648, Note_on_c, 1, 52, 110
3, 105692, Note_off_c, 1, 52, 100
3, 105696, Note_on_c, 1, 60, 110
3, 105788, Note_off_c, 1, 60, 100
3, 105792, Note_on_c, 1, 55, 110
3, 105836, Note_off_c, 1, 55, 100
3, 105840, Note_on_c, 1, 52, 110
3, 105932, Note_off_c, 1, 52, 100
3, 105936, Note_on_c, 1, 48, 110
3, 105980, Note_off_c, 1, 48, 100
3, 105984, Note_on_c, 1, 57, 110
3, 106076, Note_off_c, 1, 57, 100
3, 106080, Note_on_c, 1, 55, 110
3, 106124, Note_off_c, 1, 55, 100
3, 106128, Note_on_c, 1, 52, 110
3, 106220, Note_off_c, 1, 52, 100
3, 106224, Note_on_c, 1, 49, 110
3, 106268, Note_off_c, 1, 49, 100
3, 106272, Note_on_c, 1, 45, 110
3, 106364, Note_off_c, 1, 45, 100
3, 106368, Note_on_c, 1, 55, 110
3, 106412, Note_off_c, 1, 55, 100
3, 106416, Note_on_c, 1, 52, 110
3, 106508, Note_off_c, 1, 52, 100
3, 106512, Note_on_c, 1, 49, 110
3, 106556, Note_off_c, 1, 49, 100
3, 106560, Note_on_c, 1, 57, 110
3, 106652, Note_off_c, 1, 57, 100
3, 106656, Note_on_c, 1, 53, 110
3, 106700, Note_off_c, 1, 53, 100
3, 106704, Note_on_c, 1, 50, 110
3, 106796, Note_off_c, 1, 50, 100
3, 106800, Note_on_c, 1, 53, 110
3, 106844, Note_off_c, 1, 53, 100
3, 106848, Note_on_c, 1, 50, 110
3, 106940, Note_off_c, 1, 50, 100
3, 106944, Note_on_c, 1, 62, 110
3, 106988, Note_off_c, 1, 62, 100
3, 106992, Note_on_c, 1, 65, 110
3, 107084, Note_off_c, 1, 65, 100
3, 107088, Note_on_c, 1, 62, 110
3, 107132, Note_off_c, 1, 62, 100
3, 107136, Note_on_c, 1, 65, 110
3, 107228, Note_off_c, 1, 65, 100
3, 107232, Note_on_c, 1, 62, 110
3, 107276, Note_off_c, 1, 62, 100
3, 107280, Note_on_c, 1, 57, 110
3, 107372, Note_off_c, 1, 57, 100
3, 107376, Note_on_c, 1, 53, 110
3, 107420, Note_off_c, 1, 53, 100
3, 107424, Note_on_c, 1, 65, 110
3, 107516, Note_off_c, 1, 65, 100
3, 107520, Note_on_c, 1, 62, 110
3, 107564, Note_off_c, 1, 62, 100
3, 107568, Note_on_c, 1, 57, 110
3, 107660, Note_off_c, 1, 57, 100
3, 107664, Note_on_c, 1, 53, 110
3, 107708, Note_off_c, 1, 53, 100
3, 107712, Note_on_c, 1, 55, 110
3, 107804, Note_off_c, 1, 55, 100
3, 107808, Note_on_c, 1, 65, 110
3, 107852, Note_off_c, 1, 65, 100
3, 107856, Note_on_c, 1, 62, 110
3, 107948, Note_off_c, 1, 62, 100
3, 107952, Note_on_c, 1, 59, 110
3, 107996, Note_off_c, 1, 59, 100
3, 108000, Note_on_c, 1, 55, 110
3, 108092, Note_off_c, 1, 55, 100
3, 108096, Note_on_c, 1, 59, 110
3, 108140, Note_off_c, 1, 59, 100
3, 108144, Note_on_c, 1, 62, 110
3, 108236, Note_off_c, 1, 62, 100
3, 108240, Note_on_c, 1, 65, 110
3, 108284, Note_off_c, 1, 65, 100
3, 108288, Note_on_c, 1, 56, 110
3, 108380, Note_off_c, 1, 56, 100
3, 108384, Note_on_c, 1, 68, 110
3, 108428, Note_off_c, 1, 68, 100
3, 108432, Note_on_c, 1, 65, 110
3, 108524, Note_off_c, 1, 65, 100
3, 108528, Note_on_c, 1, 60, 110
3, 108572, Note_off_c, 1, 60, 100
3, 108576, Note_on_c, 1, 57, 110
3, 108668, Note_off_c, 1, 57, 100
3, 108672, Note_on_c, 1, 60, 110
3, 108716, Note_off_c, 1, 60, 100
3, 108720, Note_on_c, 1, 65, 110
3, 108812, Note_off_c, 1, 65, 100
3, 108816, Note_on_c, 1, 69, 110
3, 108860, Note_off_c, 1, 69, 100
3, 108864, Note_on_c, 1, 58, 110
3, 108956, Note_off_c, 1, 58, 100
3, 108960, Note_on_c, 1, 70, 110
3, 109004, Note_off_c, 1, 70, 100
3, 109008, Note_on_c, 1, 58, 110
3, 109100, Note_off_c, 1, 58, 100
3, 109104, Note_on_c, 1, 70, 110
3, 109148, Note_off_c, 1, 70, 100
3, 109152, Note_on_c, 1, 58, 110
3, 109244, Note_off_c, 1, 58, 100
3, 109248, Note_on_c, 1, 70, 110
3, 109292, Note_off_c, 1, 70, 100
3, 109296, Note_on_c, 1, 59, 110
3, 109388, Note_off_c, 1, 59, 100
3, 109392, Note_on_c, 1, 71, 110
3, 109436, Note_off_c, 1, 71, 100
3, 109440, Note_on_c, 1, 59, 110
3, 109532, Note_off_c, 1, 59, 100
3, 109536, Note_on_c, 1, 60, 110
3, 109580, Note_off_c, 1, 60, 100
3, 109584, Note_on_c, 1, 62, 110
3, 109676, Note_off_c, 1, 62, 100
3, 109680, Note_on_c, 1, 59, 110
3, 109724, Note_off_c, 1, 59, 100
3, 109728, Note_on_c, 1, 62, 110
3, 109820, Note_off_c, 1, 62, 100
3, 109824, Note_on_c, 1, 64, 110
3, 109868, Note_off_c, 1, 64, 100
3, 109872, Note_on_c, 1, 65, 110
3, 109964, Note_off_c, 1, 65, 100
3, 109968, Note_on_c, 1, 64, 110
3, 110012, Note_off_c, 1, 64, 100
3, 110016, Note_on_c, 1, 71, 110
3, 110108, Note_off_c, 1, 71, 100
3, 110112, Note_on_c, 1, 72, 110
3, 110156, Note_off_c, 1, 72, 100
3, 110160, Note_on_c, 1, 74, 110
3, 110252, Note_off_c, 1, 74, 100
3, 110256, Note_on_c, 1, 72, 110
3, 110300, Note_off_c, 1, 72, 100
3, 110304, Note_on_c, 1, 74, 110
3, 110396, Note_off_c, 1, 74, 100
3, 110400, Note_on_c, 1, 71, 110
3, 110444, Note_off_c, 1, 71, 100
3, 110448, Note_on_c, 1, 74, 110
3, 110540, Note_off_c, 1, 74, 100
3, 110544, Note_on_c, 1, 72, 110
3, 110588, Note_off_c, 1, 72, 100
3, 110592, Note_on_c, 1, 71, 110
3, 110684, Note_off_c, 1, 71, 100
3, 110688, Note_on_c, 1, 69, 110
3, 110732, Note_off_c, 1, 69, 100
3, 110736, Note_on_c, 1, 68, 110
3, 110828, Note_off_c, 1, 68, 100
3, 110880, Note_on_c, 1, 32, 110
3, 110972, Note_off_c, 1, 32, 100
3, 110976, Note_on_c, 1, 33, 110
3, 111020, Note_off_c, 1, 33, 100
3, 111024, Note_on_c, 1, 35, 110
3, 111116, Note_off_c, 1, 35, 100
3, 111120, Note_on_c, 1, 33, 110
3, 111260, Note_off_c, 1, 33, 64
3, 111264, Note_on_c, 1, 36, 110
3, 111308, Note_off_c, 1, 36, 100
3, 111312, Note_on_c, 1, 40, 110
3, 111404, Note_off_c, 1, 40, 100
3, 111408, Note_on_c, 1, 44, 110
3, 111452, Note_off_c, 1, 44, 100
3, 111456, Note_on_c, 1, 45, 110
3, 111548, Note_off_c, 1, 45, 100
3, 111552, Note_on_c, 1, 48, 110
3, 111596, Note_off_c, 1, 48, 100
3, 111600, Note_on_c, 1, 52, 110
3, 111692, Note_off_c, 1, 52, 100
3, 111696, Note_on_c, 1, 56, 110
3, 111740, Note_off_c, 1, 56, 100
3, 111744, Note_on_c, 1, 57, 80
3, 111980, Note_off_c, 1, 57, 100
3, 111984, Note_on_c, 1, 57, 80
3, 111984, Note_on_c, 1, 60, 80
3, 111984, Note_on_c, 1, 64, 80
3, 112268, Note_off_c, 1, 57, 100
3, 112268, Note_off_c, 1, 60, 100
3, 112268, Note_off_c, 1, 64, 100
3, 112272, Note_on_c, 1, 57, 80
3, 112272, Note_on_c, 1, 60, 80
3, 112272, Note_on_c, 1, 64, 80
3, 112556, Note_off_c, 1, 57, 100
3, 112556, Note_off_c, 1, 60, 100
3, 112556, Note_off_c, 1, 64, 100
3, 112560, Note_on_c, 1, 57, 80
3, 112560, Note_on_c, 1, 60, 80
3, 112560, Note_on_c, 1, 64, 80
3, 112844, Note_off_c, 1, 57, 100
3, 112844, Note_off_c, 1, 60, 100
3, 112844, Note_off_c, 1, 64, 100
3, 112848, Note_on_c, 1, 45, 120
3, 112848, Note_on_c, 1, 33, 120
3, 112892, Note_off_c, 1, 45, 100
3, 112892, Note_off_c, 1, 33, 100
3, 112896, Note_on_c, 1, 31, 120
3, 112988, Note_off_c, 1, 31, 100
3, 112992, Note_on_c, 1, 35, 120
3, 113036, Note_off_c, 1, 35, 100
3, 113040, Note_on_c, 1, 40, 120
3, 113132, Note_off_c, 1, 40, 100
3, 113136, Note_on_c, 1, 44, 120
3, 113180, Note_off_c, 1, 44, 100
3, 113184, Note_on_c, 1, 47, 120
3, 113276, Note_off_c, 1, 47, 100
3, 113280, Note_on_c, 1, 52, 120
3, 113324, Note_off_c, 1, 52, 100
3, 113328, Note_on_c, 1, 56, 120
3, 113420, Note_off_c, 1, 56, 100
3, 113424, Note_on_c, 1, 57, 120
3, 113468, Note_off_c, 1, 57, 100
3, 113472, Note_on_c, 1, 64, 80
3, 113472, Note_on_c, 1, 59, 80
3, 113472, Note_on_c, 1, 56, 80
3, 113708, Note_off_c, 1, 64, 100
3, 113708, Note_off_c, 1, 59, 100
3, 113708, Note_off_c, 1, 56, 100
3, 113712, Note_on_c, 1, 64, 80
3, 113712, Note_on_c, 1, 59, 80
3, 113712, Note_on_c, 1, 56, 80
3, 113996, Note_off_c, 1, 64, 100
3, 113996, Note_off_c, 1, 59, 100
3, 113996, Note_off_c, 1, 56, 100
3, 114000, Note_on_c, 1, 64, 80
3, 114000, Note_on_c, 1, 59, 80
3, 114000, Note_on_c, 1, 56, 80
3, 114284, Note_off_c, 1, 56, 100
3, 114284, Note_off_c, 1, 59, 100
3, 114284, Note_off_c, 1, 64, 100
3, 114288, Note_on_c, 1, 64, 80
3, 114288, Note_on_c, 1, 59, 80
3, 114288, Note_on_c, 1, 56, 80
3, 114572, Note_off_c, 1, 64, 100
3, 114572, Note_off_c, 1, 59, 100
3, 114572, Note_off_c, 1, 56, 100
3, 114576, Note_on_c, 1, 64, 80
3, 114576, Note_on_c, 1, 59, 80
3, 114576, Note_on_c, 1, 56, 80
3, 114620, Note_off_c, 1, 64, 100
3, 114620, Note_off_c, 1, 59, 100
3, 114620, Note_off_c, 1, 56, 100
3, 114624, Note_on_c, 1, 44, 80
3, 114860, Note_off_c, 1, 44, 100
3, 114864, Note_on_c, 1, 56, 84
3, 114908, Note_off_c, 1, 56, 100
3, 114912, Note_on_c, 1, 45, 85
3, 115148, Note_off_c, 1, 45, 100
3, 115152, Note_on_c, 1, 57, 89
3, 115196, Note_off_c, 1, 57, 100
3, 115200, Note_on_c, 1, 47, 90
3, 115436, Note_off_c, 1, 47, 100
3, 115440, Note_on_c, 1, 59, 94
3, 115484, Note_off_c, 1, 59, 100
3, 115488, Note_on_c, 1, 48, 95
3, 115724, Note_off_c, 1, 48, 100
3, 115728, Note_on_c, 1, 60, 99
3, 115772, Note_off_c, 1, 60, 100
3, 115776, Note_on_c, 1, 50, 100
3, 116012, Note_off_c, 1, 50, 100
3, 116016, Note_on_c, 1, 62, 104
3, 116060, Note_off_c, 1, 62, 100
3, 116064, Note_on_c, 1, 51, 105
3, 116300, Note_off_c, 1, 51, 100
3, 116304, Note_on_c, 1, 63, 110
3, 116348, Note_off_c, 1, 63, 100
3, 116352, Note_on_c, 1, 64, 110
3, 116732, Note_off_c, 1, 64, 100
3, 116736, Note_on_c, 1, 52, 110
3, 116780, Note_off_c, 1, 52, 100
3, 116784, Note_on_c, 1, 53, 110
3, 116876, Note_off_c, 1, 53, 100
3, 116880, Note_on_c, 1, 52, 110
3, 116924, Note_off_c, 1, 52, 100
3, 116928, Note_on_c, 1, 57, 110
3, 117308, Note_off_c, 1, 57, 100
3, 117312, Note_on_c, 1, 45, 110
3, 117356, Note_off_c, 1, 45, 100
3, 117360, Note_on_c, 1, 47, 110
3, 117452, Note_off_c, 1, 47, 100
3, 117456, Note_on_c, 1, 45, 110
3, 117500, Note_off_c, 1, 45, 100
3, 117504, Note_on_c, 1, 43, 124
3, 117884, Note_off_c, 1, 43, 100
3, 117888, Note_on_c, 1, 31, 110
3, 117932, Note_off_c, 1, 31, 100
3, 117936, Note_on_c, 1, 32, 110
3, 118028, Note_off_c, 1, 32, 100
3, 118032, Note_on_c, 1, 31, 110
3, 118172, Note_off_c, 1, 31, 100
3, 118176, Note_on_c, 1, 35, 110
3, 118220, Note_off_c, 1, 35, 100
3, 118224, Note_on_c, 1, 38, 110
3, 118316, Note_off_c, 1, 38, 100
3, 118320, Note_on_c, 1, 43, 110
3, 118364, Note_off_c, 1, 43, 100
3, 118368, Note_on_c, 1, 47, 110
3, 118460, Note_off_c, 1, 47, 100
3, 118464, Note_on_c, 1, 50, 110
3, 118508, Note_off_c, 1, 50, 100
3, 118512, Note_on_c, 1, 54, 110
3, 118604, Note_off_c, 1, 54, 100
3, 118608, Note_on_c, 1, 55, 110
3, 118652, Note_off_c, 1, 55, 100
3, 118656, Note_on_c, 1, 53, 110
3, 118656, Note_on_c, 1, 47, 110
3, 118656, Note_on_c, 1, 43, 110
3, 118656, Note_on_c, 1, 50, 110
3, 118892, Note_off_c, 1, 53, 100
3, 118892, Note_off_c, 1, 47, 100
3, 118892, Note_off_c, 1, 43, 100
3, 118892, Note_off_c, 1, 50, 100
3, 118896, Note_on_c, 1, 53, 110
3, 118896, Note_on_c, 1, 50, 110
3, 118896, Note_on_c, 1, 47, 110
3, 118896, Note_on_c, 1, 43, 110
3, 119180, Note_off_c, 1, 53, 100
3, 119180, Note_off_c, 1, 50, 100
3, 119180, Note_off_c, 1, 47, 100
3, 119180, Note_off_c, 1, 43, 100
3, 119184, Note_on_c, 1, 53, 110
3, 119184, Note_on_c, 1, 50, 110
3, 119184, Note_on_c, 1, 47, 110
3, 119184, Note_on_c, 1, 43, 110
3, 119468, Note_off_c, 1, 43, 100
3, 119468, Note_off_c, 1, 47, 100
3, 119468, Note_off_c, 1, 50, 100
3, 119468, Note_off_c, 1, 53, 100
3, 119472, Note_on_c, 1, 53, 110
3, 119472, Note_on_c, 1, 50, 110
3, 119472, Note_on_c, 1, 47, 110
3, 119472, Note_on_c, 1, 43, 110
3, 119756, Note_off_c, 1, 53, 100
3, 119756, Note_off_c, 1, 50, 100
3, 119756, Note_off_c, 1, 47, 100
3, 119756, Note_off_c, 1, 43, 100
3, 119760, Note_on_c, 1, 53, 110
3, 119760, Note_on_c, 1, 50, 110
3, 119760, Note_on_c, 1, 47, 110
3, 119760, Note_on_c, 1, 43, 110
3, 119804, Note_off_c, 1, 53, 100
3, 119804, Note_off_c, 1, 50, 100
3, 119804, Note_off_c, 1, 47, 100
3, 119804, Note_off_c, 1, 43, 100
3, 119808, Note_on_c, 1, 36, 110
3, 119900, Note_off_c, 1, 36, 100
3, 119904, Note_on_c, 1, 40, 110
3, 119948, Note_off_c, 1, 40, 100
3, 119952, Note_on_c, 1, 43, 110
3, 120044, Note_off_c, 1, 43, 100
3, 120048, Note_on_c, 1, 47, 110
3, 120092, Note_off_c, 1, 47, 100
3, 120096, Note_on_c, 1, 48, 110
3, 120188, Note_off_c, 1, 48, 100
3, 120192, Note_on_c, 1, 52, 110
3, 120236, Note_off_c, 1, 52, 100
3, 120240, Note_on_c, 1, 55, 110
3, 120332, Note_off_c, 1, 55, 100
3, 120336, Note_on_c, 1, 59, 110
3, 120380, Note_off_c, 1, 59, 100
3, 120384, Note_on_c, 1, 60, 110
3, 120476, Note_off_c, 1, 60, 100
3, 120480, Note_on_c, 1, 65, 110
3, 120524, Note_off_c, 1, 65, 100
3, 120528, Note_on_c, 1, 64, 110
3, 120620, Note_off_c, 1, 64, 100
3, 120624, Note_on_c, 1, 62, 110
3, 120668, Note_off_c, 1, 62, 100
3, 120672, Note_on_c, 1, 60, 110
3, 120764, Note_off_c, 1, 60, 100
3, 120768, Note_on_c, 1, 36, 110
3, 120812, Note_off_c, 1, 36, 100
3, 120816, Note_on_c, 1, 38, 110
3, 120908, Note_off_c, 1, 38, 100
3, 120912, Note_on_c, 1, 40, 110
3, 120956, Note_off_c, 1, 40, 100
3, 120960, Note_on_c, 1, 41, 122
3, 121052, Note_off_c, 1, 41, 100
3, 121056, Note_on_c, 1, 55, 110
3, 121100, Note_off_c, 1, 55, 100
3, 121104, Note_on_c, 1, 53, 110
3, 121196, Note_off_c, 1, 53, 100
3, 121200, Note_on_c, 1, 52, 110
3, 121244, Note_off_c, 1, 52, 100
3, 121248, Note_on_c, 1, 50, 123
3, 121340, Note_off_c, 1, 50, 100
3, 121344, Note_on_c, 1, 38, 110
3, 121388, Note_off_c, 1, 38, 100
3, 121392, Note_on_c, 1, 40, 110
3, 121484, Note_off_c, 1, 40, 100
3, 121488, Note_on_c, 1, 41, 110
3, 121532, Note_off_c, 1, 41, 100
3, 121536, Note_on_c, 1, 43, 124
3, 121820, Note_off_c, 1, 43, 100
3, 121824, Note_on_c, 1, 55, 110
3, 121916, Note_off_c, 1, 55, 100
3, 121920, Note_on_c, 1, 54, 110
3, 121964, Note_off_c, 1, 54, 100
3, 121968, Note_on_c, 1, 55, 110
3, 122060, Note_off_c, 1, 55, 100
3, 122064, Note_on_c, 1, 57, 110
3, 122108, Note_off_c, 1, 57, 100
3, 122112, Note_on_c, 1, 59, 122
3, 122492, Note_off_c, 1, 59, 100
3, 122496, Note_on_c, 1, 60, 110
3, 122540, Note_off_c, 1, 60, 100
3, 122544, Note_on_c, 1, 62, 110
3, 122636, Note_off_c, 1, 62, 100
3, 122640, Note_on_c, 1, 64, 110
3, 122684, Note_off_c, 1, 64, 100
3, 122688, Note_on_c, 1, 65, 110
3, 122780, Note_off_c, 1, 65, 100
3, 122784, Note_on_c, 1, 64, 110
3, 122828, Note_off_c, 1, 64, 100
3, 122832, Note_on_c, 1, 62, 110
3, 122924, Note_off_c, 1, 62, 100
3, 122928, Note_on_c, 1, 60, 110
3, 122972, Note_off_c, 1, 60, 100
3, 122976, Note_on_c, 1, 59, 110
3, 123068, Note_off_c, 1, 59, 100
3, 123072, Note_on_c, 1, 60, 110
3, 123116, Note_off_c, 1, 60, 100
3, 123120, Note_on_c, 1, 59, 110
3, 123212, Note_off_c, 1, 59, 100
3, 123216, Note_on_c, 1, 57, 110
3, 123260, Note_off_c, 1, 57, 100
3, 123264, Note_on_c, 1, 59, 110
3, 123356, Note_off_c, 1, 59, 100
3, 123360, Note_on_c, 1, 59, 110
3, 123500, Note_off_c, 1, 59, 100
3, 123504, Note_on_c, 1, 59, 110
3, 123644, Note_off_c, 1, 59, 100
3, 123648, Note_on_c, 1, 59, 110
3, 123692, Note_off_c, 1, 59, 100
3, 123696, Note_on_c, 1, 60, 110
3, 123788, Note_off_c, 1, 60, 100
3, 123792, Note_on_c, 1, 59, 110
3, 123836, Note_off_c, 1, 59, 100
3, 123840, Note_on_c, 1, 60, 110
3, 123932, Note_off_c, 1, 60, 100
3, 123936, Note_on_c, 1, 59, 110
3, 123980, Note_off_c, 1, 59, 100
3, 123984, Note_on_c, 1, 60, 110
3, 124076, Note_off_c, 1, 60, 100
3, 124080, Note_on_c, 1, 62, 110
3, 124124, Note_off_c, 1, 62, 100
3, 124128, Note_on_c, 1, 64, 110
3, 124220, Note_off_c, 1, 64, 100
3, 124224, Note_on_c, 1, 62, 110
3, 124268, Note_off_c, 1, 62, 100
3, 124272, Note_on_c, 1, 64, 110
3, 124364, Note_off_c, 1, 64, 100
3, 124368, Note_on_c, 1, 60, 110
3, 124412, Note_off_c, 1, 60, 100
3, 124656, Note_on_c, 1, 40, 110
3, 124940, Note_off_c, 1, 40, 100
3, 124944, Note_on_c, 1, 40, 110
3, 124988, Note_off_c, 1, 40, 100
3, 124992, Note_on_c, 1, 33, 112
3, 125084, Note_off_c, 1, 33, 100
3, 125088, Note_on_c, 1, 36, 110
3, 125132, Note_off_c, 1, 36, 100
3, 125136, Note_on_c, 1, 40, 110
3, 125228, Note_off_c, 1, 40, 100
3, 125232, Note_on_c, 1, 44, 110
3, 125276, Note_off_c, 1, 44, 100
3, 125280, Note_on_c, 1, 45, 110
3, 125372, Note_off_c, 1, 45, 100
3, 125376, Note_on_c, 1, 48, 110
3, 125420, Note_off_c, 1, 48, 100
3, 125424, Note_on_c, 1, 52, 110
3, 125516, Note_off_c, 1, 52, 100
3, 125520, Note_on_c, 1, 56, 110
3, 125564, Note_off_c, 1, 56, 100
3, 125568, Note_on_c, 1, 57, 80
3, 125804, Note_off_c, 1, 57, 100
3, 125808, Note_on_c, 1, 57, 80
3, 125808, Note_on_c, 1, 60, 80
3, 125808, Note_on_c, 1, 64, 80
3, 126092, Note_off_c, 1, 57, 100
3, 126092, Note_off_c, 1, 60, 100
3, 126092, Note_off_c, 1, 64, 100
3, 126096, Note_on_c, 1, 57, 80
3, 126096, Note_on_c, 1, 60, 80
3, 126096, Note_on_c, 1, 64, 80
3, 126380, Note_off_c, 1, 57, 64
3, 126380, Note_off_c, 1, 60, 64
3, 126380, Note_off_c, 1, 64, 64
3, 126384, Note_on_c, 1, 57, 80
3, 126384, Note_on_c, 1, 60, 80
3, 126384, Note_on_c, 1, 64, 80
3, 126668, Note_off_c, 1, 57, 100
3, 126668, Note_off_c, 1, 60, 100
3, 126668, Note_off_c, 1, 64, 100
3, 126672, Note_on_c, 1, 45, 120
3, 126672, Note_on_c, 1, 33, 120
3, 126716, Note_off_c, 1, 45, 100
3, 126716, Note_off_c, 1, 33, 100
3, 126720, Note_on_c, 1, 31, 120
3, 126812, Note_off_c, 1, 31, 100
3, 126816, Note_on_c, 1, 35, 120
3, 126860, Note_off_c, 1, 35, 100
3, 126864, Note_on_c, 1, 40, 120
3, 126956, Note_off_c, 1, 40, 100
3, 126960, Note_on_c, 1, 44, 120
3, 127004, Note_off_c, 1, 44, 100
3, 127008, Note_on_c, 1, 47, 120
3, 127100, Note_off_c, 1, 47, 100
3, 127104, Note_on_c, 1, 52, 120
3, 127148, Note_off_c, 1, 52, 100
3, 127152, Note_on_c, 1, 56, 120
3, 127244, Note_off_c, 1, 56, 100
3, 127248, Note_on_c, 1, 57, 120
3, 127292, Note_off_c, 1, 57, 100
3, 127296, Note_on_c, 1, 64, 80
3, 127296, Note_on_c, 1, 59, 80
3, 127296, Note_on_c, 1, 56, 80
3, 127532, Note_off_c, 1, 64, 100
3, 127532, Note_off_c, 1, 59, 100
3, 127532, Note_off_c, 1, 56, 100
3, 127536, Note_on_c, 1, 64, 80
3, 127536, Note_on_c, 1, 59, 80
3, 127536, Note_on_c, 1, 56, 80
3, 127820, Note_off_c, 1, 64, 100
3, 127820, Note_off_c, 1, 59, 100
3, 127820, Note_off_c, 1, 56, 100
3, 127824, Note_on_c, 1, 64, 80
3, 127824, Note_on_c, 1, 59, 80
3, 127824, Note_on_c, 1, 56, 80
3, 128108, Note_off_c, 1, 56, 64
3, 128108, Note_off_c, 1, 59, 64
3, 128108, Note_off_c, 1, 64, 64
3, 128112, Note_on_c, 1, 64, 80
3, 128112, Note_on_c, 1, 59, 80
3, 128112, Note_on_c, 1, 56, 80
3, 128396, Note_off_c, 1, 64, 100
3, 128396, Note_off_c, 1, 59, 100
3, 128396, Note_off_c, 1, 56, 100
3, 128400, Note_on_c, 1, 64, 80
3, 128400, Note_on_c, 1, 59, 80
3, 128400, Note_on_c, 1, 56, 80
3, 128444, Note_off_c, 1, 64, 100
3, 128444, Note_off_c, 1, 59, 100
3, 128444, Note_off_c, 1, 56, 100
3, 128448, Note_on_c, 1, 44, 80
3, 128684, Note_off_c, 1, 44, 100
3, 128688, Note_on_c, 1, 56, 84
3, 128732, Note_off_c, 1, 56, 100
3, 128736, Note_on_c, 1, 45, 85
3, 128972, Note_off_c, 1, 45, 100
3, 128976, Note_on_c, 1, 57, 89
3, 129020, Note_off_c, 1, 57, 100
3, 129024, Note_on_c, 1, 47, 90
3, 129260, Note_off_c, 1, 47, 100
3, 129264, Note_on_c, 1, 59, 94
3, 129308, Note_off_c, 1, 59, 100
3, 129312, Note_on_c, 1, 48, 95
3, 129548, Note_off_c, 1, 48, 100
3, 129552, Note_on_c, 1, 60, 99
3, 129596, Note_off_c, 1, 60, 100
3, 129600, Note_on_c, 1, 50, 100
3, 129836, Note_off_c, 1, 50, 100
3, 129840, Note_on_c, 1, 62, 104
3, 129884, Note_off_c, 1, 62, 100
3, 129888, Note_on_c, 1, 51, 105
3, 130124, Note_off_c, 1, 51, 100
3, 130128, Note_on_c, 1, 63, 110
3, 130172, Note_off_c, 1, 63, 100
3, 130176, Note_on_c, 1, 64, 110
3, 130556, Note_off_c, 1, 64, 100
3, 130560, Note_on_c, 1, 52, 110
3, 130604, Note_off_c, 1, 52, 100
3, 130608, Note_on_c, 1, 53, 110
3, 130700, Note_off_c, 1, 53, 100
3, 130704, Note_on_c, 1, 52, 110
3, 130748, Note_off_c, 1, 52, 100
3, 130752, Note_on_c, 1, 57, 110
3, 131132, Note_off_c, 1, 57, 100
3, 131136, Note_on_c, 1, 45, 110
3, 131180, Note_off_c, 1, 45, 100
3, 131184, Note_on_c, 1, 47, 110
3, 131276, Note_off_c, 1, 47, 100
3, 131280, Note_on_c, 1, 45, 110
3, 131324, Note_off_c, 1, 45, 100
3, 131328, Note_on_c, 1, 43, 124
3, 131708, Note_off_c, 1, 43, 100
3, 131712, Note_on_c, 1, 31, 110
3, 131756, Note_off_c, 1, 31, 100
3, 131760, Note_on_c, 1, 32, 110
3, 131852, Note_off_c, 1, 32, 100
3, 131856, Note_on_c, 1, 31, 110
3, 131996, Note_off_c, 1, 31, 64
3, 132000, Note_on_c, 1, 35, 110
3, 132044, Note_off_c, 1, 35, 100
3, 132048, Note_on_c, 1, 38, 110
3, 132140, Note_off_c, 1, 38, 100
3, 132144, Note_on_c, 1, 43, 110
3, 132188, Note_off_c, 1, 43, 100
3, 132192, Note_on_c, 1, 47, 110
3, 132284, Note_off_c, 1, 47, 100
3, 132288, Note_on_c, 1, 50, 110
3, 132332, Note_off_c, 1, 50, 100
3, 132336, Note_on_c, 1, 54, 110
3, 132428, Note_off_c, 1, 54, 100
3, 132432, Note_on_c, 1, 55, 110
3, 132476, Note_off_c, 1, 55, 100
3, 132480, Note_on_c, 1, 53, 110
3, 132480, Note_on_c, 1, 47, 110
3, 132480, Note_on_c, 1, 43, 110
3, 132480, Note_on_c, 1, 50, 110
3, 132716, Note_off_c, 1, 53, 100
3, 132716, Note_off_c, 1, 47, 100
3, 132716, Note_off_c, 1, 43, 100
3, 132716, Note_off_c, 1, 50, 100
3, 132720, Note_on_c, 1, 53, 110
3, 132720, Note_on_c, 1, 50, 110
3, 132720, Note_on_c, 1, 47, 110
3, 132720, Note_on_c, 1, 43, 110
3, 133004, Note_off_c, 1, 53, 100
3, 133004, Note_off_c, 1, 50, 100
3, 133004, Note_off_c, 1, 47, 100
3, 133004, Note_off_c, 1, 43, 100
3, 133008, Note_on_c, 1, 53, 110
3, 133008, Note_on_c, 1, 50, 110
3, 133008, Note_on_c, 1, 47, 110
3, 133008, Note_on_c, 1, 43, 110
3, 133292, Note_off_c, 1, 43, 64
3, 133292, Note_off_c, 1, 47, 64
3, 133292, Note_off_c, 1, 50, 64
3, 133292, Note_off_c, 1, 53, 64
3, 133296, Note_on_c, 1, 53, 110
3, 133296, Note_on_c, 1, 50, 110
3, 133296, Note_on_c, 1, 47, 110
3, 133296, Note_on_c, 1, 43, 110
3, 133580, Note_off_c, 1, 53, 100
3, 133580, Note_off_c, 1, 50, 100
3, 133580, Note_off_c, 1, 47, 100
3, 133580, Note_off_c, 1, 43, 100
3, 133584, Note_on_c, 1, 53, 110
3, 133584, Note_on_c, 1, 50, 110
3, 133584, Note_on_c, 1, 47, 110
3, 133584, Note_on_c, 1, 43, 110
3, 133628, Note_off_c, 1, 53, 100
3, 133628, Note_off_c, 1, 50, 100
3, 133628, Note_off_c, 1, 47, 100
3, 133628, Note_off_c, 1, 43, 100
3, 133632, Note_on_c, 1, 36, 110
3, 133724, Note_off_c, 1, 36, 100
3, 133728, Note_on_c, 1, 40, 110
3, 133772, Note_off_c, 1, 40, 100
3, 133776, Note_on_c, 1, 43, 110
3, 133868, Note_off_c, 1, 43, 100
3, 133872, Note_on_c, 1, 47, 110
3, 133916, Note_off_c, 1, 47, 100
3, 133920, Note_on_c, 1, 48, 110
3, 134012, Note_off_c, 1, 48, 100
3, 134016, Note_on_c, 1, 52, 110
3, 134060, Note_off_c, 1, 52, 100
3, 134064, Note_on_c, 1, 55, 110
3, 134156, Note_off_c, 1, 55, 100
3, 134160, Note_on_c, 1, 59, 110
3, 134204, Note_off_c, 1, 59, 100
3, 134208, Note_on_c, 1, 60, 110
3, 134300, Note_off_c, 1, 60, 100
3, 134304, Note_on_c, 1, 65, 110
3, 134348, Note_off_c, 1, 65, 100
3, 134352, Note_on_c, 1, 64, 110
3, 134444, Note_off_c, 1, 64, 100
3, 134448, Note_on_c, 1, 62, 110
3, 134492, Note_off_c, 1, 62, 100
3, 134496, Note_on_c, 1, 60, 110
3, 134588, Note_off_c, 1, 60, 100
3, 134592, Note_on_c, 1, 36, 110
3, 134636, Note_off_c, 1, 36, 100
3, 134640, Note_on_c, 1, 38, 110
3, 134732, Note_off_c, 1, 38, 100
3, 134736, Note_on_c, 1, 40, 110
3, 134780, Note_off_c, 1, 40, 100
3, 134784, Note_on_c, 1, 41, 122
3, 134876, Note_off_c, 1, 41, 100
3, 134880, Note_on_c, 1, 55, 110
3, 134924, Note_off_c, 1, 55, 100
3, 134928, Note_on_c, 1, 53, 110
3, 135020, Note_off_c, 1, 53, 100
3, 135024, Note_on_c, 1, 52, 110
3, 135068, Note_off_c, 1, 52, 100
3, 135072, Note_on_c, 1, 50, 123
3, 135164, Note_off_c, 1, 50, 100
3, 135168, Note_on_c, 1, 38, 110
3, 135212, Note_off_c, 1, 38, 100
3, 135216, Note_on_c, 1, 40, 110
3, 135308, Note_off_c, 1, 40, 100
3, 135312, Note_on_c, 1, 41, 110
3, 135356, Note_off_c, 1, 41, 100
3, 135360, Note_on_c, 1, 43, 124
3, 135644, Note_off_c, 1, 43, 100
3, 135648, Note_on_c, 1, 55, 110
3, 135740, Note_off_c, 1, 55, 100
3, 135744, Note_on_c, 1, 54, 110
3, 135788, Note_off_c, 1, 54, 100
3, 135792, Note_on_c, 1, 55, 110
3, 135884, Note_off_c, 1, 55, 100
3, 135888, Note_on_c, 1, 57, 110
3, 135932, Note_off_c, 1, 57, 100
3, 135936, Note_on_c, 1, 59, 122
3, 136316, Note_off_c, 1, 59, 100
3, 136320, Note_on_c, 1, 60, 110
3, 136364, Note_off_c, 1, 60, 100
3, 136368, Note_on_c, 1, 62, 110
3, 136460, Note_off_c, 1, 62, 100
3, 136464, Note_on_c, 1, 64, 110
3, 136508, Note_off_c, 1, 64, 100
3, 136512, Note_on_c, 1, 65, 110
3, 136604, Note_off_c, 1, 65, 100
3, 136608, Note_on_c, 1, 64, 110
3, 136652, Note_off_c, 1, 64, 100
3, 136656, Note_on_c, 1, 62, 110
3, 136748, Note_off_c, 1, 62, 100
3, 136752, Note_on_c, 1, 60, 110
3, 136796, Note_off_c, 1, 60, 100
3, 136800, Note_on_c, 1, 59, 110
3, 136892, Note_off_c, 1, 59, 100
3, 136896, Note_on_c, 1, 60, 110
3, 136940, Note_off_c, 1, 60, 100
3, 136944, Note_on_c, 1, 59, 110
3, 137036, Note_off_c, 1, 59, 100
3, 137040, Note_on_c, 1, 57, 110
3, 137084, Note_off_c, 1, 57, 100
3, 137088, Note_on_c, 1, 59, 110
3, 137180, Note_off_c, 1, 59, 100
3, 137184, Note_on_c, 1, 59, 110
3, 137324, Note_off_c, 1, 59, 100
3, 137328, Note_on_c, 1, 59, 110
3, 137468, Note_off_c, 1, 59, 100
3, 137472, Note_on_c, 1, 59, 110
3, 137516, Note_off_c, 1, 59, 100
3, 137520, Note_on_c, 1, 60, 110
3, 137612, Note_off_c, 1, 60, 100
3, 137616, Note_on_c, 1, 59, 110
3, 137660, Note_off_c, 1, 59, 100
3, 137664, Note_on_c, 1, 60, 80
3, 137756, Note_off_c, 1, 60, 100
3, 137760, Note_on_c, 1, 45, 80
3, 137804, Note_off_c, 1, 45, 100
3, 137808, Note_on_c, 1, 43, 80
3, 137900, Note_off_c, 1, 43, 100
3, 137904, Note_on_c, 1, 41, 80
3, 137948, Note_off_c, 1, 41, 100
3, 137952, Note_on_c, 1, 40, 80
3, 138044, Note_off_c, 1, 40, 100
3, 138048, Note_on_c, 1, 41, 80
3, 138092, Note_off_c, 1, 41, 100
3, 138096, Note_on_c, 1, 40, 80
3, 138188, Note_off_c, 1, 40, 100
3, 138192, Note_on_c, 1, 38, 80
3, 138236, Note_off_c, 1, 38, 100
3, 138240, Note_on_c, 1, 36, 70
3, 138332, Note_off_c, 1, 36, 100
3, 138336, Note_on_c, 1, 43, 70
3, 138428, Note_off_c, 1, 43, 100
3, 138432, Note_on_c, 1, 36, 70
3, 138524, Note_off_c, 1, 36, 100
3, 138528, Note_on_c, 1, 43, 70
3, 138620, Note_off_c, 1, 43, 100
3, 138624, Note_on_c, 1, 36, 70
3, 138716, Note_off_c, 1, 36, 100
3, 138720, Note_on_c, 1, 43, 70
3, 138812, Note_off_c, 1, 43, 100
3, 138816, Note_on_c, 1, 36, 70
3, 138908, Note_off_c, 1, 36, 100
3, 138912, Note_on_c, 1, 43, 70
3, 139004, Note_off_c, 1, 43, 100
3, 139008, Note_on_c, 1, 36, 70
3, 139100, Note_off_c, 1, 36, 100
3, 139104, Note_on_c, 1, 43, 70
3, 139196, Note_off_c, 1, 43, 100
3, 139200, Note_on_c, 1, 36, 70
3, 139292, Note_off_c, 1, 36, 100
3, 139296, Note_on_c, 1, 43, 70
3, 139388, Note_off_c, 1, 43, 100
3, 139392, Note_on_c, 1, 36, 70
3, 139484, Note_off_c, 1, 36, 100
3, 139488, Note_on_c, 1, 43, 70
3, 139580, Note_off_c, 1, 43, 100
3, 139584, Note_on_c, 1, 36, 70
3, 139676, Note_off_c, 1, 36, 100
3, 139680, Note_on_c, 1, 43, 70
3, 139772, Note_off_c, 1, 43, 100
3, 139776, Note_on_c, 1, 36, 70
3, 139868, Note_off_c, 1, 36, 100
3, 139872, Note_on_c, 1, 43, 70
3, 139964, Note_off_c, 1, 43, 100
3, 139968, Note_on_c, 1, 36, 70
3, 140060, Note_off_c, 1, 36, 100
3, 140064, Note_on_c, 1, 43, 70
3, 140156, Note_off_c, 1, 43, 100
3, 140160, Note_on_c, 1, 36, 70
3, 140252, Note_off_c, 1, 36, 100
3, 140256, Note_on_c, 1, 43, 70
3, 140348, Note_off_c, 1, 43, 100
3, 140352, Note_on_c, 1, 36, 70
3, 140444, Note_off_c, 1, 36, 100
3, 140448, Note_on_c, 1, 43, 70
3, 140540, Note_off_c, 1, 43, 100
3, 140544, Note_on_c, 1, 36, 70
3, 140636, Note_off_c, 1, 36, 100
3, 140640, Note_on_c, 1, 43, 70
3, 140732, Note_off_c, 1, 43, 100
3, 140736, Note_on_c, 1, 36, 70
3, 140828, Note_off_c, 1, 36, 100
3, 140832, Note_on_c, 1, 43, 70
3, 140924, Note_off_c, 1, 43, 100
3, 140928, Note_on_c, 1, 36, 70
3, 141020, Note_off_c, 1, 36, 100
3, 141024, Note_on_c, 1, 43, 70
3, 141116, Note_off_c, 1, 43, 100
3, 141120, Note_on_c, 1, 36, 70
3, 141212, Note_off_c, 1, 36, 100
3, 141216, Note_on_c, 1, 43, 70
3, 141308, Note_off_c, 1, 43, 100
3, 141312, Note_on_c, 1, 36, 70
3, 141404, Note_off_c, 1, 36, 100
3, 141408, Note_on_c, 1, 43, 70
3, 141500, Note_off_c, 1, 43, 100
3, 141504, Note_on_c, 1, 36, 70
3, 141596, Note_off_c, 1, 36, 100
3, 141600, Note_on_c, 1, 43, 70
3, 141692, Note_off_c, 1, 43, 100
3, 141696, Note_on_c, 1, 36, 70
3, 141788, Note_off_c, 1, 36, 100
3, 141792, Note_on_c, 1, 43, 71
3, 141884, Note_off_c, 1, 43, 100
3, 141888, Note_on_c, 1, 36, 72
3, 141980, Note_off_c, 1, 36, 100
3, 141984, Note_on_c, 1, 43, 73
3, 142076, Note_off_c, 1, 43, 100
3, 142080, Note_on_c, 1, 36, 74
3, 142172, Note_off_c, 1, 36, 100
3, 142176, Note_on_c, 1, 43, 76
3, 142268, Note_off_c, 1, 43, 100
3, 142272, Note_on_c, 1, 36, 77
3, 142364, Note_off_c, 1, 36, 100
3, 142368, Note_on_c, 1, 43, 78
3, 142460, Note_off_c, 1, 43, 100
3, 142464, Note_on_c, 1, 36, 79
3, 142556, Note_off_c, 1, 36, 100
3, 142560, Note_on_c, 1, 43, 80
3, 142652, Note_off_c, 1, 43, 100
3, 142656, Note_on_c, 1, 36, 80
3, 142748, Note_off_c, 1, 36, 100
3, 142752, Note_on_c, 1, 43, 80
3, 142844, Note_off_c, 1, 43, 100
3, 142848, Note_on_c, 1, 36, 80
3, 142940, Note_off_c, 1, 36, 100
3, 142944, Note_on_c, 1, 43, 80
3, 143036, Note_off_c, 1, 43, 100
3, 143040, Note_on_c, 1, 36, 80
3, 143132, Note_off_c, 1, 36, 100
3, 143136, Note_on_c, 1, 43, 80
3, 143228, Note_off_c, 1, 43, 100
3, 143232, Note_on_c, 1, 36, 80
3, 143324, Note_off_c, 1, 36, 100
3, 143328, Note_on_c, 1, 43, 80
3, 143420, Note_off_c, 1, 43, 100
3, 143424, Note_on_c, 1, 36, 80
3, 143516, Note_off_c, 1, 36, 100
3, 143520, Note_on_c, 1, 43, 80
3, 143612, Note_off_c, 1, 43, 100
3, 143616, Note_on_c, 1, 36, 80
3, 143708, Note_off_c, 1, 36, 100
3, 143712, Note_on_c, 1, 43, 80
3, 143804, Note_off_c, 1, 43, 100
3, 143808, Note_on_c, 1, 36, 80
3, 143900, Note_off_c, 1, 36, 100
3, 143904, Note_on_c, 1, 43, 80
3, 143996, Note_off_c, 1, 43, 100
3, 144000, Note_on_c, 1, 36, 80
3, 144092, Note_off_c, 1, 36, 100
3, 144096, Note_on_c, 1, 43, 80
3, 144188, Note_off_c, 1, 43, 100
3, 144192, Note_on_c, 1, 36, 80
3, 144284, Note_off_c, 1, 36, 100
3, 144288, Note_on_c, 1, 43, 80
3, 144380, Note_off_c, 1, 43, 100
3, 144384, Note_on_c, 1, 36, 80
3, 144476, Note_off_c, 1, 36, 100
3, 144480, Note_on_c, 1, 43, 80
3, 144572, Note_off_c, 1, 43, 100
3, 144576, Note_on_c, 1, 36, 80
3, 144668, Note_off_c, 1, 36, 100
3, 144672, Note_on_c, 1, 43, 80
3, 144764, Note_off_c, 1, 43, 100
3, 144768, Note_on_c, 1, 36, 80
3, 144860, Note_off_c, 1, 36, 100
3, 144864, Note_on_c, 1, 43, 80
3, 144956, Note_off_c, 1, 43, 100
3, 144960, Note_on_c, 1, 36, 80
3, 145052, Note_off_c, 1, 36, 100
3, 145056, Note_on_c, 1, 43, 80
3, 145148, Note_off_c, 1, 43, 100
3, 145152, Note_on_c, 1, 36, 80
3, 145244, Note_off_c, 1, 36, 100
3, 145248, Note_on_c, 1, 43, 80
3, 145340, Note_off_c, 1, 43, 100
3, 145344, Note_on_c, 1, 36, 80
3, 145436, Note_off_c, 1, 36, 100
3, 145440, Note_on_c, 1, 43, 80
3, 145532, Note_off_c, 1, 43, 100
3, 145536, Note_on_c, 1, 36, 80
3, 145628, Note_off_c, 1, 36, 100
3, 145632, Note_on_c, 1, 43, 80
3, 145724, Note_off_c, 1, 43, 100
3, 145728, Note_on_c, 1, 36, 80
3, 145820, Note_off_c, 1, 36, 100
3, 145824, Note_on_c, 1, 43, 80
3, 145916, Note_off_c, 1, 43, 100
3, 145920, Note_on_c, 1, 36, 80
3, 146012, Note_off_c, 1, 36, 100
3, 146016, Note_on_c, 1, 43, 80
3, 146108, Note_off_c, 1, 43, 100
3, 146112, Note_on_c, 1, 36, 80
3, 146204, Note_off_c, 1, 36, 100
3, 146208, Note_on_c, 1, 43, 80
3, 146300, Note_off_c, 1, 43, 100
3, 146304, Note_on_c, 1, 36, 80
3, 146396, Note_off_c, 1, 36, 100
3, 146400, Note_on_c, 1, 43, 80
3, 146492, Note_off_c, 1, 43, 100
3, 146496, Note_on_c, 1, 36, 80
3, 146588, Note_off_c, 1, 36, 100
3, 146592, Note_on_c, 1, 43, 80
3, 146684, Note_off_c, 1, 43, 100
3, 146688, Note_on_c, 1, 36, 80
3, 146780, Note_off_c, 1, 36, 100
3, 146784, Note_on_c, 1, 43, 80
3, 146876, Note_off_c, 1, 43, 100
3, 146880, Note_on_c, 1, 36, 80
3, 146972, Note_off_c, 1, 36, 100
3, 146976, Note_on_c, 1, 43, 80
3, 147068, Note_off_c, 1, 43, 100
3, 147072, Note_on_c, 1, 36, 80
3, 147164, Note_off_c, 1, 36, 100
3, 147168, Note_on_c, 1, 43, 80
3, 147260, Note_off_c, 1, 43, 100
3, 147264, Note_on_c, 1, 36, 80
3, 147356, Note_off_c, 1, 36, 100
3, 147360, Note_on_c, 1, 43, 80
3, 147452, Note_off_c, 1, 43, 100
3, 147456, Note_on_c, 1, 36, 80
3, 147548, Note_off_c, 1, 36, 100
3, 147552, Note_on_c, 1, 43, 80
3, 147644, Note_off_c, 1, 43, 100
3, 147648, Note_on_c, 1, 36, 80
3, 147740, Note_off_c, 1, 36, 100
3, 147744, Note_on_c, 1, 43, 80
3, 147836, Note_off_c, 1, 43, 100
3, 147840, Note_on_c, 1, 36, 80
3, 147932, Note_off_c, 1, 36, 100
3, 147936, Note_on_c, 1, 43, 80
3, 148028, Note_off_c, 1, 43, 100
3, 148032, Note_on_c, 1, 36, 80
3, 148124, Note_off_c, 1, 36, 100
3, 148128, Note_on_c, 1, 43, 80
3, 148220, Note_off_c, 1, 43, 100
3, 148224, Note_on_c, 1, 36, 80
3, 148316, Note_off_c, 1, 36, 100
3, 148320, Note_on_c, 1, 43, 80
3, 148412, Note_off_c, 1, 43, 100
3, 148416, Note_on_c, 1, 36, 80
3, 148508, Note_off_c, 1, 36, 100
3, 148512, Note_on_c, 1, 43, 80
3, 148604, Note_off_c, 1, 43, 100
3, 148608, Note_on_c, 1, 36, 80
3, 148700, Note_off_c, 1, 36, 100
3, 148704, Note_on_c, 1, 43, 80
3, 148796, Note_off_c, 1, 43, 100
3, 148800, Note_on_c, 1, 36, 80
3, 148892, Note_off_c, 1, 36, 100
3, 148896, Note_on_c, 1, 43, 80
3, 148988, Note_off_c, 1, 43, 100
3, 148992, Note_on_c, 1, 36, 80
3, 149084, Note_off_c, 1, 36, 100
3, 149088, Note_on_c, 1, 43, 80
3, 149180, Note_off_c, 1, 43, 100
3, 149184, Note_on_c, 1, 36, 80
3, 149276, Note_off_c, 1, 36, 100
3, 149280, Note_on_c, 1, 43, 80
3, 149372, Note_off_c, 1, 43, 100
3, 149376, Note_on_c, 1, 36, 80
3, 149468, Note_off_c, 1, 36, 100
3, 149472, Note_on_c, 1, 43, 80
3, 149564, Note_off_c, 1, 43, 100
3, 149568, Note_on_c, 1, 36, 80
3, 149660, Note_off_c, 1, 36, 100
3, 149664, Note_on_c, 1, 43, 80
3, 149756, Note_off_c, 1, 43, 100
3, 149760, Note_on_c, 1, 36, 80
3, 149852, Note_off_c, 1, 36, 100
3, 149856, Note_on_c, 1, 43, 80
3, 149948, Note_off_c, 1, 43, 100
3, 149952, Note_on_c, 1, 36, 80
3, 150044, Note_off_c, 1, 36, 100
3, 150048, Note_on_c, 1, 43, 80
3, 150140, Note_off_c, 1, 43, 100
3, 150144, Note_on_c, 1, 36, 80
3, 150236, Note_off_c, 1, 36, 100
3, 150240, Note_on_c, 1, 43, 80
3, 150332, Note_off_c, 1, 43, 100
3, 150336, Note_on_c, 1, 36, 80
3, 150428, Note_off_c, 1, 36, 100
3, 150432, Note_on_c, 1, 43, 80
3, 150524, Note_off_c, 1, 43, 100
3, 150528, Note_on_c, 1, 36, 80
3, 150620, Note_off_c, 1, 36, 100
3, 150624, Note_on_c, 1, 43, 80
3, 150716, Note_off_c, 1, 43, 100
3, 150720, Note_on_c, 1, 36, 80
3, 150812, Note_off_c, 1, 36, 100
3, 150816, Note_on_c, 1, 43, 80
3, 150908, Note_off_c, 1, 43, 100
3, 150912, Note_on_c, 1, 36, 80
3, 151004, Note_off_c, 1, 36, 100
3, 151008, Note_on_c, 1, 43, 80
3, 151100, Note_off_c, 1, 43, 100
3, 151104, Note_on_c, 1, 36, 80
3, 151196, Note_off_c, 1, 36, 100
3, 151200, Note_on_c, 1, 43, 80
3, 151292, Note_off_c, 1, 43, 100
3, 151296, Note_on_c, 1, 36, 80
3, 151388, Note_off_c, 1, 36, 100
3, 151392, Note_on_c, 1, 43, 80
3, 151484, Note_off_c, 1, 43, 100
3, 151488, Note_on_c, 1, 36, 80
3, 151580, Note_off_c, 1, 36, 100
3, 151584, Note_on_c, 1, 43, 80
3, 151676, Note_off_c, 1, 43, 100
3, 151680, Note_on_c, 1, 36, 80
3, 151772, Note_off_c, 1, 36, 100
3, 151776, Note_on_c, 1, 43, 80
3, 151868, Note_off_c, 1, 43, 100
3, 151872, Note_on_c, 1, 36, 80
3, 151964, Note_off_c, 1, 36, 100
3, 151968, Note_on_c, 1, 43, 80
3, 152060, Note_off_c, 1, 43, 100
3, 152064, Note_on_c, 1, 36, 80
3, 152156, Note_off_c, 1, 36, 100
3, 152160, Note_on_c, 1, 43, 80
3, 152252, Note_off_c, 1, 43, 100
3, 152256, Note_on_c, 1, 36, 80
3, 152348, Note_off_c, 1, 36, 100
3, 152352, Note_on_c, 1, 43, 80
3, 152444, Note_off_c, 1, 43, 100
3, 152448, Note_on_c, 1, 36, 80
3, 152540, Note_off_c, 1, 36, 100
3, 152544, Note_on_c, 1, 43, 80
3, 152636, Note_off_c, 1, 43, 100
3, 152640, Note_on_c, 1, 36, 80
3, 152732, Note_off_c, 1, 36, 100
3, 152736, Note_on_c, 1, 43, 80
3, 152828, Note_off_c, 1, 43, 100
3, 152832, Note_on_c, 1, 36, 80
3, 152924, Note_off_c, 1, 36, 100
3, 152928, Note_on_c, 1, 45, 80
3, 153020, Note_off_c, 1, 45, 100
3, 153024, Note_on_c, 1, 36, 80
3, 153116, Note_off_c, 1, 36, 100
3, 153120, Note_on_c, 1, 45, 80
3, 153212, Note_off_c, 1, 45, 100
3, 153216, Note_on_c, 1, 36, 80
3, 153308, Note_off_c, 1, 36, 100
3, 153312, Note_on_c, 1, 45, 80
3, 153404, Note_off_c, 1, 45, 100
3, 153408, Note_on_c, 1, 36, 80
3, 153500, Note_off_c, 1, 36, 100
3, 153504, Note_on_c, 1, 45, 80
3, 153596, Note_off_c, 1, 45, 100
3, 153600, Note_on_c, 1, 36, 80
3, 153692, Note_off_c, 1, 36, 100
3, 153696, Note_on_c, 1, 45, 80
3, 153788, Note_off_c, 1, 45, 100
3, 153792, Note_on_c, 1, 36, 80
3, 153884, Note_off_c, 1, 36, 100
3, 153888, Note_on_c, 1, 47, 80
3, 153980, Note_off_c, 1, 47, 100
3, 153984, Note_on_c, 1, 36, 80
3, 154076, Note_off_c, 1, 36, 100
3, 154080, Note_on_c, 1, 47, 80
3, 154172, Note_off_c, 1, 47, 100
3, 154176, Note_on_c, 1, 36, 80
3, 154268, Note_off_c, 1, 36, 100
3, 154272, Note_on_c, 1, 47, 80
3, 154364, Note_off_c, 1, 47, 100
3, 154368, Note_on_c, 1, 36, 80
3, 154460, Note_off_c, 1, 36, 100
3, 154464, Note_on_c, 1, 47, 80
3, 154556, Note_off_c, 1, 47, 100
3, 154560, Note_on_c, 1, 36, 80
3, 154652, Note_off_c, 1, 36, 100
3, 154656, Note_on_c, 1, 50, 80
3, 154748, Note_off_c, 1, 50, 100
3, 154752, Note_on_c, 1, 36, 80
3, 154844, Note_off_c, 1, 36, 100
3, 154848, Note_on_c, 1, 50, 80
3, 154940, Note_off_c, 1, 50, 100
3, 154944, Note_on_c, 1, 36, 80
3, 155036, Note_off_c, 1, 36, 100
3, 155040, Note_on_c, 1, 50, 80
3, 155132, Note_off_c, 1, 50, 100
3, 155136, Note_on_c, 1, 36, 80
3, 155228, Note_off_c, 1, 36, 100
3, 155232, Note_on_c, 1, 50, 80
3, 155324, Note_off_c, 1, 50, 100
3, 155328, Note_on_c, 1, 36, 80
3, 155420, Note_off_c, 1, 36, 100
3, 155424, Note_on_c, 1, 50, 80
3, 155516, Note_off_c, 1, 50, 100
3, 155520, Note_on_c, 1, 36, 80
3, 155612, Note_off_c, 1, 36, 100
3, 155616, Note_on_c, 1, 48, 80
3, 155708, Note_off_c, 1, 48, 100
3, 155712, Note_on_c, 1, 36, 80
3, 155804, Note_off_c, 1, 36, 100
3, 155808, Note_on_c, 1, 48, 80
3, 155900, Note_off_c, 1, 48, 100
3, 155904, Note_on_c, 1, 36, 80
3, 155996, Note_off_c, 1, 36, 100
3, 156000, Note_on_c, 1, 48, 80
3, 156092, Note_off_c, 1, 48, 100
3, 156096, Note_on_c, 1, 36, 80
3, 156188, Note_off_c, 1, 36, 100
3, 156192, Note_on_c, 1, 48, 80
3, 156284, Note_off_c, 1, 48, 100
3, 156288, Note_on_c, 1, 36, 80
3, 156380, Note_off_c, 1, 36, 100
3, 156384, Note_on_c, 1, 47, 80
3, 156476, Note_off_c, 1, 47, 100
3, 156480, Note_on_c, 1, 36, 80
3, 156572, Note_off_c, 1, 36, 100
3, 156576, Note_on_c, 1, 47, 80
3, 156668, Note_off_c, 1, 47, 100
3, 156672, Note_on_c, 1, 36, 80
3, 156764, Note_off_c, 1, 36, 100
3, 156768, Note_on_c, 1, 47, 80
3, 156860, Note_off_c, 1, 47, 100
3, 156864, Note_on_c, 1, 36, 80
3, 156956, Note_off_c, 1, 36, 100
3, 156960, Note_on_c, 1, 47, 80
3, 157052, Note_off_c, 1, 47, 100
3, 157056, Note_on_c, 1, 36, 80
3, 157148, Note_off_c, 1, 36, 100
3, 157152, Note_on_c, 1, 47, 80
3, 157244, Note_off_c, 1, 47, 100
3, 157248, Note_on_c, 1, 47, 80
3, 157276, Note_off_c, 1, 47, 100
3, 157280, Note_on_c, 1, 48, 80
3, 157308, Note_off_c, 1, 48, 100
3, 157312, Note_on_c, 1, 50, 80
3, 157340, Note_off_c, 1, 50, 100
3, 157344, Note_on_c, 1, 52, 80
3, 157372, Note_off_c, 1, 52, 100
3, 157376, Note_on_c, 1, 53, 80
3, 157404, Note_off_c, 1, 53, 100
3, 157408, Note_on_c, 1, 55, 80
3, 157436, Note_off_c, 1, 55, 100
3, 157440, Note_on_c, 1, 57, 80
3, 157468, Note_off_c, 1, 57, 100
3, 157472, Note_on_c, 1, 59, 80
3, 157500, Note_off_c, 1, 59, 100
3, 157504, Note_on_c, 1, 60, 80
3, 157532, Note_off_c, 1, 60, 100
3, 157536, Note_on_c, 1, 62, 80
3, 157564, Note_off_c, 1, 62, 100
3, 157568, Note_on_c, 1, 64, 80
3, 157596, Note_off_c, 1, 64, 100
3, 157600, Note_on_c, 1, 65, 80
3, 157628, Note_off_c, 1, 65, 100
3, 157632, Note_on_c, 1, 67, 80
3, 157660, Note_off_c, 1, 67, 100
3, 157664, Note_on_c, 1, 69, 80
3, 157692, Note_off_c, 1, 69, 100
3, 157696, Note_on_c, 1, 71, 80
3, 157724, Note_off_c, 1, 71, 100
3, 157728, Note_on_c, 1, 72, 80
3, 157756, Note_off_c, 1, 72, 100
3, 157760, Note_on_c, 1, 76, 80
3, 157788, Note_off_c, 1, 76, 100
3, 157792, Note_on_c, 1, 74, 80
3, 157820, Note_off_c, 1, 74, 100
3, 157824, Note_on_c, 1, 76, 70
3, 157916, Note_off_c, 1, 76, 100
3, 157920, Note_on_c, 1, 76, 70
3, 158012, Note_off_c, 1, 76, 100
3, 158016, Note_on_c, 1, 76, 70
3, 158108, Note_off_c, 1, 76, 100
3, 158112, Note_on_c, 1, 76, 70
3, 158204, Note_off_c, 1, 76, 100
3, 158208, Note_on_c, 1, 75, 70
3, 158300, Note_off_c, 1, 75, 100
3, 158304, Note_on_c, 1, 76, 70
3, 158396, Note_off_c, 1, 76, 100
3, 158400, Note_on_c, 1, 74, 70
3, 158492, Note_off_c, 1, 74, 100
3, 158496, Note_on_c, 1, 76, 70
3, 158588, Note_off_c, 1, 76, 100
3, 158592, Note_on_c, 1, 79, 70
3, 158592, Note_on_c, 1, 76, 70
3, 158684, Note_off_c, 1, 79, 100
3, 158684, Note_off_c, 1, 76, 100
3, 158688, Note_on_c, 1, 79, 70
3, 158688, Note_on_c, 1, 77, 70
3, 158780, Note_off_c, 1, 79, 100
3, 158780, Note_off_c, 1, 77, 100
3, 158784, Note_on_c, 1, 79, 70
3, 158784, Note_on_c, 1, 76, 70
3, 158876, Note_off_c, 1, 79, 100
3, 158876, Note_off_c, 1, 76, 100
3, 158880, Note_on_c, 1, 79, 70
3, 158880, Note_on_c, 1, 77, 70
3, 158972, Note_off_c, 1, 79, 100
3, 158972, Note_off_c, 1, 77, 100
3, 158976, Note_on_c, 1, 79, 70
3, 158976, Note_on_c, 1, 76, 70
3, 159068, Note_off_c, 1, 79, 100
3, 159068, Note_off_c, 1, 76, 100
3, 159072, Note_on_c, 1, 79, 70
3, 159072, Note_on_c, 1, 77, 70
3, 159164, Note_off_c, 1, 79, 100
3, 159164, Note_off_c, 1, 77, 100
3, 159168, Note_on_c, 1, 77, 70
3, 159168, Note_on_c, 1, 71, 70
3, 159260, Note_off_c, 1, 77, 100
3, 159260, Note_off_c, 1, 71, 100
3, 159264, Note_on_c, 1, 77, 70
3, 159264, Note_on_c, 1, 72, 70
3, 159356, Note_off_c, 1, 77, 100
3, 159356, Note_off_c, 1, 72, 100
3, 159360, Note_on_c, 1, 77, 70
3, 159360, Note_on_c, 1, 71, 70
3, 159452, Note_off_c, 1, 77, 100
3, 159452, Note_off_c, 1, 71, 100
3, 159456, Note_on_c, 1, 77, 70
3, 159456, Note_on_c, 1, 74, 70
3, 159548, Note_off_c, 1, 77, 100
3, 159548, Note_off_c, 1, 74, 100
3, 159552, Note_on_c, 1, 79, 70
3, 159552, Note_on_c, 1, 76, 70
3, 159644, Note_off_c, 1, 79, 100
3, 159644, Note_off_c, 1, 76, 100
3, 159648, Note_on_c, 1, 79, 70
3, 159648, Note_on_c, 1, 77, 70
3, 159740, Note_off_c, 1, 79, 100
3, 159740, Note_off_c, 1, 77, 100
3, 159744, Note_on_c, 1, 79, 70
3, 159744, Note_on_c, 1, 78, 70
3, 159836, Note_off_c, 1, 79, 100
3, 159836, Note_off_c, 1, 78, 100
3, 159840, Note_on_c, 1, 79, 70
3, 159868, Note_off_c, 1, 79, 100
3, 159872, Note_on_c, 1, 77, 70
3, 159900, Note_off_c, 1, 77, 100
3, 159904, Note_on_c, 1, 76, 70
3, 159932, Note_off_c, 1, 76, 100
3, 159936, Note_on_c, 1, 75, 70
3, 159964, Note_off_c, 1, 75, 100
3, 159968, Note_on_c, 1, 77, 70
3, 159996, Note_off_c, 1, 77, 100
3, 160000, Note_on_c, 1, 76, 70
3, 160028, Note_off_c, 1, 76, 100
3, 160032, Note_on_c, 1, 75, 70
3, 160060, Note_off_c, 1, 75, 100
3, 160064, Note_on_c, 1, 77, 70
3, 160092, Note_off_c, 1, 77, 100
3, 160096, Note_on_c, 1, 76, 70
3, 160124, Note_off_c, 1, 76, 100
3, 160128, Note_on_c, 1, 74, 70
3, 160156, Note_off_c, 1, 74, 100
3, 160160, Note_on_c, 1, 76, 70
3, 160188, Note_off_c, 1, 76, 100
3, 160193, Note_on_c, 1, 77, 70
3, 160221, Note_off_c, 1, 77, 100
3, 160224, Note_on_c, 1, 78, 70
3, 160252, Note_off_c, 1, 78, 100
3, 160256, Note_on_c, 1, 79, 70
3, 160284, Note_off_c, 1, 79, 100
3, 160288, Note_on_c, 1, 80, 70
3, 160316, Note_off_c, 1, 80, 100
3, 160320, Note_on_c, 1, 81, 70
3, 160348, Note_off_c, 1, 81, 100
3, 160352, Note_on_c, 1, 82, 70
3, 160380, Note_off_c, 1, 82, 100
3, 160384, Note_on_c, 1, 83, 70
3, 160412, Note_off_c, 1, 83, 100
3, 160416, Note_on_c, 1, 81, 70
3, 160508, Note_off_c, 1, 81, 100
3, 160512, Note_on_c, 1, 79, 70
3, 160512, Note_on_c, 1, 77, 70
3, 160604, Note_off_c, 1, 79, 100
3, 160604, Note_off_c, 1, 77, 100
3, 160608, Note_on_c, 1, 79, 70
3, 160608, Note_on_c, 1, 76, 70
3, 160700, Note_off_c, 1, 79, 100
3, 160700, Note_off_c, 1, 76, 100
3, 160704, Note_on_c, 1, 79, 70
3, 160704, Note_on_c, 1, 76, 70
3, 160796, Note_off_c, 1, 79, 100
3, 160796, Note_off_c, 1, 76, 100
3, 160800, Note_on_c, 1, 79, 70
3, 160800, Note_on_c, 1, 74, 70
3, 160892, Note_off_c, 1, 79, 100
3, 160892, Note_off_c, 1, 74, 100
3, 160896, Note_on_c, 1, 79, 70
3, 160896, Note_on_c, 1, 76, 70
3, 160988, Note_off_c, 1, 79, 100
3, 160988, Note_off_c, 1, 76, 100
3, 160992, Note_on_c, 1, 79, 70
3, 160992, Note_on_c, 1, 74, 70
3, 161084, Note_off_c, 1, 79, 100
3, 161084, Note_off_c, 1, 74, 100
3, 161088, Note_on_c, 1, 79, 70
3, 161088, Note_on_c, 1, 73, 70
3, 161180, Note_off_c, 1, 79, 100
3, 161180, Note_off_c, 1, 73, 100
3, 161184, Note_on_c, 1, 79, 70
3, 161184, Note_on_c, 1, 74, 70
3, 161276, Note_off_c, 1, 79, 100
3, 161276, Note_off_c, 1, 74, 100
3, 161280, Note_on_c, 1, 79, 70
3, 161280, Note_on_c, 1, 77, 70
3, 161372, Note_off_c, 1, 79, 100
3, 161372, Note_off_c, 1, 77, 100
3, 161376, Note_on_c, 1, 79, 70
3, 161376, Note_on_c, 1, 72, 70
3, 161468, Note_off_c, 1, 79, 100
3, 161468, Note_off_c, 1, 72, 100
3, 161472, Note_on_c, 1, 79, 70
3, 161472, Note_on_c, 1, 74, 70
3, 161564, Note_off_c, 1, 79, 100
3, 161564, Note_off_c, 1, 74, 100
3, 161568, Note_on_c, 1, 76, 70
3, 161660, Note_off_c, 1, 76, 100
3, 161664, Note_on_c, 1, 76, 70
3, 161756, Note_off_c, 1, 76, 100
3, 161760, Note_on_c, 1, 74, 70
3, 161852, Note_off_c, 1, 74, 100
3, 161856, Note_on_c, 1, 76, 70
3, 161948, Note_off_c, 1, 76, 100
3, 161952, Note_on_c, 1, 84, 70
3, 162044, Note_off_c, 1, 84, 100
3, 162048, Note_on_c, 1, 86, 70
3, 162140, Note_off_c, 1, 86, 100
3, 162144, Note_on_c, 1, 88, 70
3, 162236, Note_off_c, 1, 88, 100
3, 162240, Note_on_c, 1, 88, 70
3, 162332, Note_off_c, 1, 88, 100
3, 162336, Note_on_c, 1, 76, 70
3, 162336, Note_on_c, 1, 82, 70
3, 162428, Note_off_c, 1, 76, 100
3, 162428, Note_off_c, 1, 82, 100
3, 162432, Note_on_c, 1, 83, 70
3, 162432, Note_on_c, 1, 76, 70
3, 162524, Note_off_c, 1, 83, 100
3, 162524, Note_off_c, 1, 76, 100
3, 162528, Note_on_c, 1, 79, 70
3, 162528, Note_on_c, 1, 76, 70
3, 162620, Note_off_c, 1, 79, 100
3, 162620, Note_off_c, 1, 76, 100
3, 162624, Note_on_c, 1, 83, 70
3, 162624, Note_on_c, 1, 76, 70
3, 162716, Note_off_c, 1, 83, 100
3, 162716, Note_off_c, 1, 76, 100
3, 162720, Note_on_c, 1, 83, 70
3, 162720, Note_on_c, 1, 76, 70
3, 162812, Note_off_c, 1, 83, 100
3, 162812, Note_off_c, 1, 76, 100
3, 162816, Note_on_c, 1, 81, 70
3, 162816, Note_on_c, 1, 77, 70
3, 162908, Note_off_c, 1, 81, 100
3, 162908, Note_off_c, 1, 77, 100
3, 162912, Note_on_c, 1, 77, 70
3, 163004, Note_off_c, 1, 77, 100
3, 163008, Note_on_c, 1, 77, 70
3, 163100, Note_off_c, 1, 77, 100
3, 163104, Note_on_c, 1, 77, 70
3, 163196, Note_off_c, 1, 77, 100
3, 163200, Note_on_c, 1, 76, 70
3, 163292, Note_off_c, 1, 76, 100
3, 163296, Note_on_c, 1, 76, 70
3, 163388, Note_off_c, 1, 76, 100
3, 163392, Note_on_c, 1, 74, 70
3, 163484, Note_off_c, 1, 74, 100
3, 163488, Note_on_c, 1, 76, 70
3, 163580, Note_off_c, 1, 76, 100
3, 163584, Note_on_c, 1, 76, 70
3, 163676, Note_off_c, 1, 76, 100
3, 163680, Note_on_c, 1, 76, 70
3, 163772, Note_off_c, 1, 76, 100
3, 163776, Note_on_c, 1, 77, 70
3, 163868, Note_off_c, 1, 77, 100
3, 163872, Note_on_c, 1, 78, 70
3, 163964, Note_off_c, 1, 78, 100
3, 163968, Note_on_c, 1, 79, 70
3, 164060, Note_off_c, 1, 79, 100
3, 164064, Note_on_c, 1, 77, 70
3, 164064, Note_on_c, 1, 71, 70
3, 164156, Note_off_c, 1, 77, 100
3, 164156, Note_off_c, 1, 71, 100
3, 164160, Note_on_c, 1, 77, 70
3, 164160, Note_on_c, 1, 71, 70
3, 164252, Note_off_c, 1, 77, 100
3, 164252, Note_off_c, 1, 71, 100
3, 164256, Note_on_c, 1, 76, 70
3, 164256, Note_on_c, 1, 72, 70
3, 164348, Note_off_c, 1, 76, 100
3, 164348, Note_off_c, 1, 72, 100
3, 164352, Note_on_c, 1, 77, 70
3, 164352, Note_on_c, 1, 74, 70
3, 164444, Note_off_c, 1, 77, 100
3, 164444, Note_off_c, 1, 74, 100
3, 164448, Note_on_c, 1, 77, 70
3, 164448, Note_on_c, 1, 74, 70
3, 164540, Note_off_c, 1, 77, 100
3, 164540, Note_off_c, 1, 74, 100
3, 164544, Note_on_c, 1, 76, 70
3, 164544, Note_on_c, 1, 72, 70
3, 164636, Note_off_c, 1, 76, 100
3, 164636, Note_off_c, 1, 72, 100
3, 164640, Note_on_c, 1, 74, 70
3, 164640, Note_on_c, 1, 71, 70
3, 164732, Note_off_c, 1, 74, 100
3, 164732, Note_off_c, 1, 71, 100
3, 164736, Note_on_c, 1, 72, 70
3, 164736, Note_on_c, 1, 69, 70
3, 164828, Note_off_c, 1, 72, 100
3, 164828, Note_off_c, 1, 69, 100
3, 164832, Note_on_c, 1, 71, 70
3, 164832, Note_on_c, 1, 68, 70
3, 164924, Note_off_c, 1, 71, 100
3, 164924, Note_off_c, 1, 68, 100
3, 164928, Note_on_c, 1, 52, 70
3, 164960, Note_on_c, 1, 40, 70
3, 164970, Note_off_c, 1, 52, 100
3, 164992, Note_on_c, 1, 52, 70
3, 165005, Note_off_c, 1, 40, 100
3, 165024, Note_on_c, 1, 40, 70
3, 165038, Note_off_c, 1, 52, 100
3, 165056, Note_on_c, 1, 52, 70
3, 165070, Note_off_c, 1, 40, 100
3, 165088, Note_on_c, 1, 40, 70
3, 165101, Note_off_c, 1, 52, 100
3, 165120, Note_on_c, 1, 52, 70
3, 165133, Note_off_c, 1, 40, 100
3, 165152, Note_on_c, 1, 40, 70
3, 165163, Note_off_c, 1, 52, 100
3, 165184, Note_on_c, 1, 52, 70
3, 165194, Note_off_c, 1, 40, 100
3, 165216, Note_on_c, 1, 40, 70
3, 165225, Note_off_c, 1, 52, 100
3, 165248, Note_on_c, 1, 52, 70
3, 165263, Note_off_c, 1, 40, 100
3, 165280, Note_on_c, 1, 40, 70
3, 165291, Note_off_c, 1, 52, 100
3, 165312, Note_on_c, 1, 52, 70
3, 165328, Note_off_c, 1, 40, 100
3, 165344, Note_on_c, 1, 40, 70
3, 165358, Note_off_c, 1, 52, 100
3, 165376, Note_on_c, 1, 52, 70
3, 165385, Note_off_c, 1, 40, 100
3, 165408, Note_on_c, 1, 40, 70
3, 165423, Note_off_c, 1, 52, 100
3, 165440, Note_on_c, 1, 52, 70
3, 165452, Note_off_c, 1, 40, 100
3, 165472, Note_on_c, 1, 40, 70
3, 165482, Note_off_c, 1, 52, 100
3, 165504, Note_on_c, 1, 52, 70
3, 165514, Note_off_c, 1, 40, 100
3, 165536, Note_on_c, 1, 40, 70
3, 165549, Note_off_c, 1, 52, 100
3, 165568, Note_on_c, 1, 52, 70
3, 165582, Note_off_c, 1, 40, 100
3, 165600, Note_on_c, 1, 40, 70
3, 165613, Note_off_c, 1, 52, 100
3, 165632, Note_on_c, 1, 52, 70
3, 165645, Note_off_c, 1, 40, 100
3, 165664, Note_on_c, 1, 40, 70
3, 165677, Note_off_c, 1, 52, 100
3, 165696, Note_on_c, 1, 52, 70
3, 165709, Note_off_c, 1, 40, 100
3, 165728, Note_on_c, 1, 40, 70
3, 165741, Note_off_c, 1, 52, 100
3, 165760, Note_on_c, 1, 52, 70
3, 165773, Note_off_c, 1, 40, 100
3, 165792, Note_on_c, 1, 40, 70
3, 165804, Note_off_c, 1, 52, 100
3, 165824, Note_on_c, 1, 52, 70
3, 165835, Note_off_c, 1, 40, 100
3, 165856, Note_on_c, 1, 40, 70
3, 165870, Note_off_c, 1, 52, 100
3, 165888, Note_on_c, 1, 52, 70
3, 165899, Note_off_c, 1, 40, 100
3, 165920, Note_on_c, 1, 40, 70
3, 165932, Note_off_c, 1, 52, 100
3, 165952, Note_on_c, 1, 52, 70
3, 165965, Note_off_c, 1, 40, 100
3, 165984, Note_on_c, 1, 40, 70
3, 165998, Note_off_c, 1, 52, 100
3, 166016, Note_on_c, 1, 52, 70
3, 166030, Note_off_c, 1, 40, 100
3, 166048, Note_on_c, 1, 40, 70
3, 166063, Note_off_c, 1, 52, 100
3, 166080, Note_on_c, 1, 52, 70
3, 166094, Note_off_c, 1, 40, 100
3, 166112, Note_on_c, 1, 40, 70
3, 166127, Note_off_c, 1, 52, 100
3, 166144, Note_on_c, 1, 52, 70
3, 166158, Note_off_c, 1, 40, 100
3, 166176, Note_on_c, 1, 40, 70
3, 166188, Note_off_c, 1, 52, 100
3, 166208, Note_on_c, 1, 52, 70
3, 166222, Note_off_c, 1, 40, 100
3, 166240, Note_on_c, 1, 40, 70
3, 166254, Note_off_c, 1, 52, 100
3, 166272, Note_on_c, 1, 52, 70
3, 166285, Note_off_c, 1, 40, 100
3, 166304, Note_on_c, 1, 40, 70
3, 166317, Note_off_c, 1, 52, 100
3, 166336, Note_on_c, 1, 52, 70
3, 166350, Note_off_c, 1, 40, 100
3, 166368, Note_on_c, 1, 40, 70
3, 166390, Note_off_c, 1, 52, 100
3, 166400, Note_on_c, 1, 52, 70
3, 166419, Note_off_c, 1, 40, 100
3, 166432, Note_on_c, 1, 40, 70
3, 166446, Note_off_c, 1, 52, 100
3, 166464, Note_on_c, 1, 52, 70
3, 166475, Note_off_c, 1, 40, 100
3, 166496, Note_on_c, 1, 40, 70
3, 166507, Note_off_c, 1, 52, 100
3, 166528, Note_on_c, 1, 52, 70
3, 166537, Note_off_c, 1, 40, 100
3, 166560, Note_on_c, 1, 40, 70
3, 166572, Note_off_c, 1, 52, 100
3, 166592, Note_on_c, 1, 52, 70
3, 166603, Note_off_c, 1, 40, 100
3, 166624, Note_on_c, 1, 40, 70
3, 166637, Note_off_c, 1, 52, 100
3, 166656, Note_on_c, 1, 52, 70
3, 166669, Note_off_c, 1, 40, 100
3, 166688, Note_on_c, 1, 40, 70
3, 166701, Note_off_c, 1, 52, 100
3, 166720, Note_on_c, 1, 52, 70
3, 166730, Note_off_c, 1, 40, 100
3, 166752, Note_on_c, 1, 40, 70
3, 166763, Note_off_c, 1, 52, 100
3, 166784, Note_on_c, 1, 52, 70
3, 166793, Note_off_c, 1, 40, 100
3, 166816, Note_on_c, 1, 40, 70
3, 166839, Note_off_c, 1, 52, 100
3, 166848, Note_on_c, 1, 52, 70
3, 166866, Note_off_c, 1, 40, 100
3, 166880, Note_on_c, 1, 40, 70
3, 166890, Note_off_c, 1, 52, 100
3, 166912, Note_on_c, 1, 52, 70
3, 166924, Note_off_c, 1, 40, 100
3, 166944, Note_on_c, 1, 40, 70
3, 166955, Note_off_c, 1, 52, 100
3, 166976, Note_on_c, 1, 52, 70
3, 166988, Note_off_c, 1, 40, 100
3, 167008, Note_on_c, 1, 40, 70
3, 167023, Note_off_c, 1, 52, 100
3, 167040, Note_on_c, 1, 52, 70
3, 167054, Note_off_c, 1, 40, 100
3, 167072, Note_on_c, 1, 40, 70
3, 167088, Note_off_c, 1, 52, 100
3, 167104, Note_on_c, 1, 52, 70
3, 167117, Note_off_c, 1, 40, 100
3, 167136, Note_on_c, 1, 40, 70
3, 167151, Note_off_c, 1, 52, 100
3, 167168, Note_on_c, 1, 52, 70
3, 167180, Note_off_c, 1, 40, 100
3, 167200, Note_on_c, 1, 40, 70
3, 167215, Note_off_c, 1, 52, 100
3, 167232, Note_on_c, 1, 52, 70
3, 167245, Note_off_c, 1, 40, 100
3, 167264, Note_on_c, 1, 40, 70
3, 167276, Note_off_c, 1, 52, 100
3, 167296, Note_on_c, 1, 52, 70
3, 167309, Note_off_c, 1, 40, 100
3, 167328, Note_on_c, 1, 40, 70
3, 167339, Note_off_c, 1, 52, 100
3, 167360, Note_on_c, 1, 52, 70
3, 167376, Note_off_c, 1, 40, 100
3, 167392, Note_on_c, 1, 40, 70
3, 167405, Note_off_c, 1, 52, 100
3, 167424, Note_on_c, 1, 52, 70
3, 167435, Note_off_c, 1, 40, 100
3, 167456, Note_on_c, 1, 40, 70
3, 167468, Note_off_c, 1, 52, 100
3, 167488, Note_on_c, 1, 52, 70
3, 167501, Note_off_c, 1, 40, 100
3, 167520, Note_on_c, 1, 40, 70
3, 167530, Note_off_c, 1, 52, 100
3, 167552, Note_on_c, 1, 52, 70
3, 167561, Note_off_c, 1, 40, 100
3, 167584, Note_on_c, 1, 40, 70
3, 167593, Note_off_c, 1, 52, 100
3, 167616, Note_on_c, 1, 52, 70
3, 167627, Note_off_c, 1, 40, 100
3, 167648, Note_on_c, 1, 40, 70
3, 167658, Note_off_c, 1, 52, 100
3, 167680, Note_on_c, 1, 52, 70
3, 167690, Note_off_c, 1, 40, 100
3, 167712, Note_on_c, 1, 40, 70
3, 167722, Note_off_c, 1, 52, 100
3, 167744, Note_on_c, 1, 52, 70
3, 167753, Note_off_c, 1, 40, 100
3, 167776, Note_on_c, 1, 40, 70
3, 167787, Note_off_c, 1, 52, 100
3, 167808, Note_on_c, 1, 52, 70
3, 167819, Note_off_c, 1, 40, 100
3, 167840, Note_on_c, 1, 40, 70
3, 167851, Note_off_c, 1, 52, 100
3, 167872, Note_on_c, 1, 52, 70
3, 167885, Note_off_c, 1, 40, 100
3, 167904, Note_on_c, 1, 40, 70
3, 167915, Note_off_c, 1, 52, 100
3, 167936, Note_on_c, 1, 52, 70
3, 167947, Note_off_c, 1, 40, 100
3, 167968, Note_on_c, 1, 40, 70
3, 167980, Note_off_c, 1, 52, 100
3, 168000, Note_on_c, 1, 52, 70
3, 168013, Note_off_c, 1, 40, 100
3, 168032, Note_on_c, 1, 40, 70
3, 168045, Note_off_c, 1, 52, 100
3, 168064, Note_on_c, 1, 52, 70
3, 168077, Note_off_c, 1, 40, 100
3, 168096, Note_on_c, 1, 40, 70
3, 168108, Note_off_c, 1, 52, 100
3, 168128, Note_on_c, 1, 52, 70
3, 168141, Note_off_c, 1, 40, 100
3, 168160, Note_on_c, 1, 40, 70
3, 168174, Note_off_c, 1, 52, 100
3, 168192, Note_on_c, 1, 45, 70
3, 168204, Note_off_c, 1, 40, 100
3, 168224, Note_on_c, 1, 33, 70
3, 168234, Note_off_c, 1, 45, 100
3, 168256, Note_on_c, 1, 45, 70
3, 168270, Note_off_c, 1, 33, 100
3, 168288, Note_on_c, 1, 33, 70
3, 168301, Note_off_c, 1, 45, 100
3, 168320, Note_on_c, 1, 45, 70
3, 168335, Note_off_c, 1, 33, 100
3, 168352, Note_on_c, 1, 33, 70
3, 168366, Note_off_c, 1, 45, 100
3, 168384, Note_on_c, 1, 45, 70
3, 168404, Note_off_c, 1, 33, 100
3, 168416, Note_on_c, 1, 33, 70
3, 168435, Note_off_c, 1, 45, 100
3, 168448, Note_on_c, 1, 45, 70
3, 168461, Note_off_c, 1, 33, 100
3, 168480, Note_on_c, 1, 31, 70
3, 168494, Note_off_c, 1, 45, 100
3, 168512, Note_on_c, 1, 43, 70
3, 168523, Note_off_c, 1, 31, 100
3, 168544, Note_on_c, 1, 31, 70
3, 168558, Note_off_c, 1, 43, 100
3, 168576, Note_on_c, 1, 43, 70
3, 168592, Note_off_c, 1, 31, 100
3, 168608, Note_on_c, 1, 31, 70
3, 168625, Note_off_c, 1, 43, 100
3, 168640, Note_on_c, 1, 43, 70
3, 168653, Note_off_c, 1, 31, 100
3, 168672, Note_on_c, 1, 31, 70
3, 168685, Note_off_c, 1, 43, 100
3, 168704, Note_on_c, 1, 43, 70
3, 168721, Note_off_c, 1, 31, 100
3, 168736, Note_on_c, 1, 31, 70
3, 168750, Note_off_c, 1, 43, 100
3, 168768, Note_on_c, 1, 43, 70
3, 168778, Note_off_c, 1, 31, 100
3, 168800, Note_on_c, 1, 31, 70
3, 168817, Note_off_c, 1, 43, 100
3, 168832, Note_on_c, 1, 43, 70
3, 168845, Note_off_c, 1, 31, 100
3, 168864, Note_on_c, 1, 31, 70
3, 168879, Note_off_c, 1, 43, 100
3, 168896, Note_on_c, 1, 43, 70
3, 168911, Note_off_c, 1, 31, 100
3, 168928, Note_on_c, 1, 31, 70
3, 168940, Note_off_c, 1, 43, 100
3, 168960, Note_on_c, 1, 43, 70
3, 168974, Note_off_c, 1, 31, 100
3, 168992, Note_on_c, 1, 31, 70
3, 169006, Note_off_c, 1, 43, 100
3, 169024, Note_on_c, 1, 43, 70
3, 169040, Note_off_c, 1, 31, 100
3, 169056, Note_on_c, 1, 31, 70
3, 169068, Note_off_c, 1, 43, 100
3, 169088, Note_on_c, 1, 43, 70
3, 169097, Note_off_c, 1, 31, 100
3, 169120, Note_on_c, 1, 31, 70
3, 169137, Note_off_c, 1, 43, 100
3, 169152, Note_on_c, 1, 43, 70
3, 169168, Note_off_c, 1, 31, 100
3, 169184, Note_on_c, 1, 31, 70
3, 169201, Note_off_c, 1, 43, 100
3, 169216, Note_on_c, 1, 43, 70
3, 169230, Note_off_c, 1, 31, 100
3, 169248, Note_on_c, 1, 31, 70
3, 169262, Note_off_c, 1, 43, 100
3, 169280, Note_on_c, 1, 43, 70
3, 169292, Note_off_c, 1, 31, 100
3, 169312, Note_on_c, 1, 31, 70
3, 169326, Note_off_c, 1, 43, 100
3, 169344, Note_on_c, 1, 43, 70
3, 169356, Note_off_c, 1, 31, 100
3, 169376, Note_on_c, 1, 31, 70
3, 169385, Note_off_c, 1, 43, 100
3, 169408, Note_on_c, 1, 43, 70
3, 169425, Note_off_c, 1, 31, 100
3, 169440, Note_on_c, 1, 31, 70
3, 169457, Note_off_c, 1, 43, 100
3, 169472, Note_on_c, 1, 43, 70
3, 169487, Note_off_c, 1, 31, 100
3, 169504, Note_on_c, 1, 31, 70
3, 169512, Note_off_c, 1, 43, 100
3, 169536, Note_on_c, 1, 43, 70
3, 169549, Note_off_c, 1, 31, 100
3, 169568, Note_on_c, 1, 31, 70
3, 169585, Note_off_c, 1, 43, 100
3, 169600, Note_on_c, 1, 43, 70
3, 169616, Note_off_c, 1, 31, 100
3, 169632, Note_on_c, 1, 31, 70
3, 169644, Note_off_c, 1, 43, 100
3, 169664, Note_on_c, 1, 43, 70
3, 169686, Note_off_c, 1, 31, 100
3, 169696, Note_on_c, 1, 31, 70
3, 169715, Note_off_c, 1, 43, 100
3, 169728, Note_on_c, 1, 43, 70
3, 169746, Note_off_c, 1, 31, 100
3, 169760, Note_on_c, 1, 31, 70
3, 169772, Note_off_c, 1, 43, 100
3, 169792, Note_on_c, 1, 43, 70
3, 169813, Note_off_c, 1, 31, 100
3, 169824, Note_on_c, 1, 31, 70
3, 169837, Note_off_c, 1, 43, 100
3, 169856, Note_on_c, 1, 43, 70
3, 169873, Note_off_c, 1, 31, 100
3, 169888, Note_on_c, 1, 31, 70
3, 169903, Note_off_c, 1, 43, 100
3, 169920, Note_on_c, 1, 43, 70
3, 169932, Note_off_c, 1, 31, 100
3, 169952, Note_on_c, 1, 31, 70
3, 169968, Note_off_c, 1, 43, 100
3, 169984, Note_on_c, 1, 43, 70
3, 169999, Note_off_c, 1, 31, 100
3, 170016, Note_on_c, 1, 31, 70
3, 170032, Note_off_c, 1, 43, 100
3, 170048, Note_on_c, 1, 43, 70
3, 170065, Note_off_c, 1, 31, 100
3, 170080, Note_on_c, 1, 31, 70
3, 170091, Note_off_c, 1, 43, 100
3, 170112, Note_on_c, 1, 43, 70
3, 170124, Note_off_c, 1, 31, 100
3, 170144, Note_on_c, 1, 31, 70
3, 170157, Note_off_c, 1, 43, 100
3, 170176, Note_on_c, 1, 43, 70
3, 170189, Note_off_c, 1, 31, 100
3, 170208, Note_on_c, 1, 31, 70
3, 170222, Note_off_c, 1, 43, 100
3, 170240, Note_on_c, 1, 43, 70
3, 170251, Note_off_c, 1, 31, 100
3, 170272, Note_on_c, 1, 31, 70
3, 170294, Note_off_c, 1, 43, 100
3, 170304, Note_on_c, 1, 43, 70
3, 170319, Note_off_c, 1, 31, 100
3, 170336, Note_on_c, 1, 31, 70
3, 170357, Note_off_c, 1, 43, 100
3, 170368, Note_on_c, 1, 43, 70
3, 170381, Note_off_c, 1, 31, 100
3, 170400, Note_on_c, 1, 31, 70
3, 170418, Note_off_c, 1, 43, 100
3, 170432, Note_on_c, 1, 43, 70
3, 170446, Note_off_c, 1, 31, 100
3, 170464, Note_on_c, 1, 31, 70
3, 170475, Note_off_c, 1, 43, 100
3, 170496, Note_on_c, 1, 43, 70
3, 170510, Note_off_c, 1, 31, 100
3, 170528, Note_on_c, 1, 31, 70
3, 170543, Note_off_c, 1, 43, 100
3, 170560, Note_on_c, 1, 43, 70
3, 170574, Note_off_c, 1, 31, 100
3, 170592, Note_on_c, 1, 31, 70
3, 170608, Note_off_c, 1, 43, 100
3, 170624, Note_on_c, 1, 43, 70
3, 170640, Note_off_c, 1, 31, 100
3, 170656, Note_on_c, 1, 31, 70
3, 170668, Note_off_c, 1, 43, 100
3, 170688, Note_on_c, 1, 43, 70
3, 170701, Note_off_c, 1, 31, 100
3, 170720, Note_on_c, 1, 31, 70
3, 170737, Note_off_c, 1, 43, 100
3, 170752, Note_on_c, 1, 43, 70
3, 170769, Note_off_c, 1, 31, 100
3, 170784, Note_on_c, 1, 31, 70
3, 170794, Note_off_c, 1, 43, 100
3, 170816, Note_on_c, 1, 43, 70
3, 170824, Note_off_c, 1, 31, 100
3, 170848, Note_on_c, 1, 31, 70
3, 170862, Note_off_c, 1, 43, 100
3, 170880, Note_on_c, 1, 43, 70
3, 170892, Note_off_c, 1, 31, 100
3, 170912, Note_on_c, 1, 31, 70
3, 170925, Note_off_c, 1, 43, 100
3, 170944, Note_on_c, 1, 43, 70
3, 170957, Note_off_c, 1, 31, 100
3, 170976, Note_on_c, 1, 31, 70
3, 170990, Note_off_c, 1, 43, 100
3, 171008, Note_on_c, 1, 43, 70
3, 171023, Note_off_c, 1, 31, 100
3, 171040, Note_on_c, 1, 31, 70
3, 171054, Note_off_c, 1, 43, 100
3, 171072, Note_on_c, 1, 43, 70
3, 171085, Note_off_c, 1, 31, 100
3, 171104, Note_on_c, 1, 31, 70
3, 171121, Note_off_c, 1, 43, 100
3, 171136, Note_on_c, 1, 43, 70
3, 171151, Note_off_c, 1, 31, 100
3, 171168, Note_on_c, 1, 31, 70
3, 171182, Note_off_c, 1, 43, 100
3, 171200, Note_on_c, 1, 43, 70
3, 171216, Note_off_c, 1, 31, 100
3, 171232, Note_on_c, 1, 31, 70
3, 171245, Note_off_c, 1, 43, 100
3, 171264, Note_on_c, 1, 43, 70
3, 171278, Note_off_c, 1, 31, 100
3, 171296, Note_on_c, 1, 36, 70
3, 171307, Note_off_c, 1, 43, 100
3, 171328, Note_on_c, 1, 43, 70
3, 171337, Note_off_c, 1, 36, 100
3, 171360, Note_on_c, 1, 36, 70
3, 171370, Note_off_c, 1, 43, 100
3, 171392, Note_on_c, 1, 43, 70
3, 171404, Note_off_c, 1, 36, 100
3, 171424, Note_on_c, 1, 36, 70
3, 171436, Note_off_c, 1, 43, 100
3, 171456, Note_on_c, 1, 43, 70
3, 171469, Note_off_c, 1, 36, 100
3, 171488, Note_on_c, 1, 36, 70
3, 171503, Note_off_c, 1, 43, 100
3, 171520, Note_on_c, 1, 43, 70
3, 171536, Note_off_c, 1, 36, 100
3, 171552, Note_on_c, 1, 36, 70
3, 171567, Note_off_c, 1, 43, 100
3, 171584, Note_on_c, 1, 43, 70
3, 171596, Note_off_c, 1, 36, 100
3, 171616, Note_on_c, 1, 36, 70
3, 171635, Note_off_c, 1, 43, 100
3, 171648, Note_on_c, 1, 44, 70
3, 171663, Note_off_c, 1, 36, 100
3, 171680, Note_on_c, 1, 35, 70
3, 171693, Note_off_c, 1, 44, 100
3, 171712, Note_on_c, 1, 44, 70
3, 171727, Note_off_c, 1, 35, 100
3, 171744, Note_on_c, 1, 35, 70
3, 171757, Note_off_c, 1, 44, 100
3, 171776, Note_on_c, 1, 44, 70
3, 171788, Note_off_c, 1, 35, 100
3, 171808, Note_on_c, 1, 35, 70
3, 171819, Note_off_c, 1, 44, 100
3, 171840, Note_on_c, 1, 44, 70
3, 171853, Note_off_c, 1, 35, 100
3, 171872, Note_on_c, 1, 35, 70
3, 171885, Note_off_c, 1, 44, 100
3, 171904, Note_on_c, 1, 44, 70
3, 171920, Note_off_c, 1, 35, 100
3, 171935, Note_off_c, 1, 44, 100
3, 171936, Note_on_c, 1, 45, 70
3, 171936, Note_on_c, 1, 33, 70
3, 172028, Note_off_c, 1, 45, 100
3, 172028, Note_off_c, 1, 33, 100
3, 172032, Note_on_c, 1, 76, 70
3, 172124, Note_off_c, 1, 76, 100
3, 172128, Note_on_c, 1, 76, 70
3, 172220, Note_off_c, 1, 76, 100
3, 172224, Note_on_c, 1, 76, 70
3, 172316, Note_off_c, 1, 76, 100
3, 172320, Note_on_c, 1, 76, 70
3, 172412, Note_off_c, 1, 76, 100
3, 172416, Note_on_c, 1, 76, 70
3, 172508, Note_off_c, 1, 76, 100
3, 172512, Note_on_c, 1, 76, 70
3, 172604, Note_off_c, 1, 76, 100
3, 172608, Note_on_c, 1, 76, 70
3, 172700, Note_off_c, 1, 76, 100
3, 172704, Note_on_c, 1, 76, 70
3, 172796, Note_off_c, 1, 76, 100
3, 172800, Note_on_c, 1, 76, 70
3, 172892, Note_off_c, 1, 76, 100
3, 172896, Note_on_c, 1, 76, 70
3, 172988, Note_off_c, 1, 76, 100
3, 172992, Note_on_c, 1, 76, 70
3, 173084, Note_off_c, 1, 76, 100
3, 173088, Note_on_c, 1, 76, 70
3, 173180, Note_off_c, 1, 76, 100
3, 173184, Note_on_c, 1, 76, 70
3, 173276, Note_off_c, 1, 76, 100
3, 173280, Note_on_c, 1, 76, 70
3, 173372, Note_off_c, 1, 76, 100
3, 173376, Note_on_c, 1, 76, 70
3, 173468, Note_off_c, 1, 76, 100
3, 173472, Note_on_c, 1, 76, 70
3, 173564, Note_off_c, 1, 76, 100
3, 173568, Note_on_c, 1, 76, 70
3, 173660, Note_off_c, 1, 76, 100
3, 173664, Note_on_c, 1, 76, 70
3, 173756, Note_off_c, 1, 76, 100
3, 173760, Note_on_c, 1, 76, 70
3, 173852, Note_off_c, 1, 76, 100
3, 173856, Note_on_c, 1, 76, 70
3, 173948, Note_off_c, 1, 76, 100
3, 173952, Note_on_c, 1, 76, 70
3, 174044, Note_off_c, 1, 76, 100
3, 174048, Note_on_c, 1, 76, 70
3, 174140, Note_off_c, 1, 76, 100
3, 174144, Note_on_c, 1, 76, 70
3, 174236, Note_off_c, 1, 76, 100
3, 174240, Note_on_c, 1, 76, 70
3, 174332, Note_off_c, 1, 76, 100
3, 174336, Note_on_c, 1, 76, 70
3, 174428, Note_off_c, 1, 76, 100
3, 174432, Note_on_c, 1, 76, 70
3, 174524, Note_off_c, 1, 76, 100
3, 174528, Note_on_c, 1, 76, 70
3, 174620, Note_off_c, 1, 76, 100
3, 174624, Note_on_c, 1, 76, 70
3, 174716, Note_off_c, 1, 76, 100
3, 174720, Note_on_c, 1, 76, 70
3, 174812, Note_off_c, 1, 76, 100
3, 174816, Note_on_c, 1, 76, 70
3, 174908, Note_off_c, 1, 76, 100
3, 174912, Note_on_c, 1, 76, 70
3, 175004, Note_off_c, 1, 76, 100
3, 175008, Note_on_c, 1, 76, 70
3, 175100, Note_off_c, 1, 76, 100
3, 175104, Note_on_c, 1, 69, 70
3, 175196, Note_off_c, 1, 69, 100
3, 175200, Note_on_c, 1, 81, 70
3, 175292, Note_off_c, 1, 81, 100
3, 175296, Note_on_c, 1, 80, 70
3, 175388, Note_off_c, 1, 80, 100
3, 175392, Note_on_c, 1, 79, 70
3, 175484, Note_off_c, 1, 79, 100
3, 175488, Note_on_c, 1, 79, 70
3, 175580, Note_off_c, 1, 79, 100
3, 175584, Note_on_c, 1, 79, 70
3, 175676, Note_off_c, 1, 79, 100
3, 175680, Note_on_c, 1, 79, 70
3, 175772, Note_off_c, 1, 79, 100
3, 175776, Note_on_c, 1, 79, 70
3, 175868, Note_off_c, 1, 79, 100
3, 175872, Note_on_c, 1, 79, 70
3, 175964, Note_off_c, 1, 79, 100
3, 175968, Note_on_c, 1, 79, 70
3, 176060, Note_off_c, 1, 79, 100
3, 176064, Note_on_c, 1, 79, 70
3, 176156, Note_off_c, 1, 79, 100
3, 176160, Note_on_c, 1, 79, 70
3, 176252, Note_off_c, 1, 79, 100
3, 176256, Note_on_c, 1, 79, 70
3, 176348, Note_off_c, 1, 79, 100
3, 176352, Note_on_c, 1, 79, 70
3, 176444, Note_off_c, 1, 79, 100
3, 176448, Note_on_c, 1, 79, 70
3, 176540, Note_off_c, 1, 79, 100
3, 176544, Note_on_c, 1, 79, 70
3, 176636, Note_off_c, 1, 79, 100
3, 176640, Note_on_c, 1, 79, 70
3, 176732, Note_off_c, 1, 79, 100
3, 176736, Note_on_c, 1, 79, 70
3, 176828, Note_off_c, 1, 79, 100
3, 176832, Note_on_c, 1, 81, 70
3, 176924, Note_off_c, 1, 81, 100
3, 176928, Note_on_c, 1, 80, 70
3, 177020, Note_off_c, 1, 80, 100
3, 177024, Note_on_c, 1, 81, 70
3, 177116, Note_off_c, 1, 81, 100
3, 177120, Note_on_c, 1, 82, 70
3, 177212, Note_off_c, 1, 82, 100
3, 177216, Note_on_c, 1, 82, 70
3, 177308, Note_off_c, 1, 82, 100
3, 177312, Note_on_c, 1, 82, 70
3, 177404, Note_off_c, 1, 82, 100
3, 177408, Note_on_c, 1, 83, 70
3, 177500, Note_off_c, 1, 83, 100
3, 177504, Note_on_c, 1, 83, 70
3, 177596, Note_off_c, 1, 83, 100
3, 177600, Note_on_c, 1, 83, 70
3, 177692, Note_off_c, 1, 83, 100
3, 177696, Note_on_c, 1, 83, 70
3, 177788, Note_off_c, 1, 83, 100
3, 177792, Note_on_c, 1, 83, 70
3, 177884, Note_off_c, 1, 83, 100
3, 177888, Note_on_c, 1, 83, 70
3, 177980, Note_off_c, 1, 83, 100
3, 177984, Note_on_c, 1, 83, 70
3, 178076, Note_off_c, 1, 83, 100
3, 178080, Note_on_c, 1, 79, 70
3, 178080, Note_on_c, 1, 83, 70
3, 178172, Note_off_c, 1, 79, 100
3, 178172, Note_off_c, 1, 83, 100
3, 178176, Note_on_c, 1, 84, 70
3, 178268, Note_off_c, 1, 84, 100
3, 178272, Note_on_c, 1, 84, 70
3, 178364, Note_off_c, 1, 84, 100
3, 178368, Note_on_c, 1, 79, 70
3, 178368, Note_on_c, 1, 76, 70
3, 178368, Note_on_c, 1, 72, 70
3, 178460, Note_off_c, 1, 79, 100
3, 178460, Note_off_c, 1, 76, 100
3, 178460, Note_off_c, 1, 72, 100
3, 178464, Note_on_c, 1, 79, 70
3, 178464, Note_on_c, 1, 76, 70
3, 178464, Note_on_c, 1, 72, 70
3, 178556, Note_off_c, 1, 79, 100
3, 178556, Note_off_c, 1, 76, 100
3, 178556, Note_off_c, 1, 72, 100
3, 178560, Note_on_c, 1, 79, 70
3, 178560, Note_on_c, 1, 76, 70
3, 178560, Note_on_c, 1, 72, 70
3, 178652, Note_off_c, 1, 79, 100
3, 178652, Note_off_c, 1, 76, 100
3, 178652, Note_off_c, 1, 72, 100
3, 178656, Note_on_c, 1, 79, 70
3, 178656, Note_on_c, 1, 76, 70
3, 178656, Note_on_c, 1, 72, 70
3, 178748, Note_off_c, 1, 79, 100
3, 178748, Note_off_c, 1, 76, 100
3, 178748, Note_off_c, 1, 72, 100
3, 178752, Note_on_c, 1, 79, 70
3, 178752, Note_on_c, 1, 76, 70
3, 178752, Note_on_c, 1, 72, 70
3, 178844, Note_off_c, 1, 79, 100
3, 178844, Note_off_c, 1, 76, 100
3, 178844, Note_off_c, 1, 72, 100
3, 178848, Note_on_c, 1, 79, 70
3, 178848, Note_on_c, 1, 77, 70
3, 178848, Note_on_c, 1, 74, 70
3, 178848, Note_on_c, 1, 72, 70
3, 178940, Note_off_c, 1, 79, 100
3, 178940, Note_off_c, 1, 77, 100
3, 178940, Note_off_c, 1, 74, 100
3, 178940, Note_off_c, 1, 72, 100
3, 178944, Note_on_c, 1, 79, 70
3, 178944, Note_on_c, 1, 77, 70
3, 178944, Note_on_c, 1, 74, 70
3, 178944, Note_on_c, 1, 72, 70
3, 179036, Note_off_c, 1, 79, 100
3, 179036, Note_off_c, 1, 77, 100
3, 179036, Note_off_c, 1, 74, 100
3, 179036, Note_off_c, 1, 72, 100
3, 179040, Note_on_c, 1, 79, 70
3, 179040, Note_on_c, 1, 77, 70
3, 179040, Note_on_c, 1, 74, 70
3, 179040, Note_on_c, 1, 72, 70
3, 179132, Note_off_c, 1, 79, 100
3, 179132, Note_off_c, 1, 77, 100
3, 179132, Note_off_c, 1, 74, 100
3, 179132, Note_off_c, 1, 72, 100
3, 179136, Note_on_c, 1, 79, 70
3, 179136, Note_on_c, 1, 77, 70
3, 179136, Note_on_c, 1, 74, 70
3, 179136, Note_on_c, 1, 72, 70
3, 179228, Note_off_c, 1, 79, 100
3, 179228, Note_off_c, 1, 77, 100
3, 179228, Note_off_c, 1, 74, 100
3, 179228, Note_off_c, 1, 72, 100
3, 179232, Note_on_c, 1, 79, 70
3, 179232, Note_on_c, 1, 77, 70
3, 179232, Note_on_c, 1, 74, 70
3, 179232, Note_on_c, 1, 72, 70
3, 179324, Note_off_c, 1, 79, 100
3, 179324, Note_off_c, 1, 77, 100
3, 179324, Note_off_c, 1, 74, 100
3, 179324, Note_off_c, 1, 72, 100
3, 179328, Note_on_c, 1, 79, 70
3, 179328, Note_on_c, 1, 77, 70
3, 179328, Note_on_c, 1, 74, 70
3, 179328, Note_on_c, 1, 72, 70
3, 179420, Note_off_c, 1, 79, 100
3, 179420, Note_off_c, 1, 77, 100
3, 179420, Note_off_c, 1, 74, 100
3, 179420, Note_off_c, 1, 72, 100
3, 179424, Note_on_c, 1, 79, 70
3, 179424, Note_on_c, 1, 77, 70
3, 179424, Note_on_c, 1, 74, 70
3, 179424, Note_on_c, 1, 72, 70
3, 179516, Note_off_c, 1, 79, 100
3, 179516, Note_off_c, 1, 77, 100
3, 179516, Note_off_c, 1, 74, 100
3, 179516, Note_off_c, 1, 72, 100
3, 179520, Note_on_c, 1, 79, 70
3, 179520, Note_on_c, 1, 77, 70
3, 179520, Note_on_c, 1, 74, 70
3, 179520, Note_on_c, 1, 72, 70
3, 179612, Note_off_c, 1, 79, 100
3, 179612, Note_off_c, 1, 77, 100
3, 179612, Note_off_c, 1, 74, 100
3, 179612, Note_off_c, 1, 72, 100
3, 179616, Note_on_c, 1, 79, 70
3, 179616, Note_on_c, 1, 77, 70
3, 179616, Note_on_c, 1, 74, 70
3, 179616, Note_on_c, 1, 72, 70
3, 179708, Note_off_c, 1, 79, 100
3, 179708, Note_off_c, 1, 77, 100
3, 179708, Note_off_c, 1, 74, 100
3, 179708, Note_off_c, 1, 72, 100
3, 179712, Note_on_c, 1, 79, 70
3, 179712, Note_on_c, 1, 76, 70
3, 179712, Note_on_c, 1, 72, 70
3, 179804, Note_off_c, 1, 79, 100
3, 179804, Note_off_c, 1, 76, 100
3, 179804, Note_off_c, 1, 72, 100
3, 179808, Note_on_c, 1, 79, 70
3, 179808, Note_on_c, 1, 76, 70
3, 179808, Note_on_c, 1, 72, 70
3, 179900, Note_off_c, 1, 79, 100
3, 179900, Note_off_c, 1, 76, 100
3, 179900, Note_off_c, 1, 72, 100
3, 179904, Note_on_c, 1, 79, 70
3, 179904, Note_on_c, 1, 76, 70
3, 179904, Note_on_c, 1, 72, 70
3, 179996, Note_off_c, 1, 79, 100
3, 179996, Note_off_c, 1, 76, 100
3, 179996, Note_off_c, 1, 72, 100
3, 180000, Note_on_c, 1, 79, 70
3, 180028, Note_off_c, 1, 79, 100
3, 180032, Note_on_c, 1, 77, 70
3, 180060, Note_off_c, 1, 77, 100
3, 180064, Note_on_c, 1, 76, 70
3, 180092, Note_off_c, 1, 76, 100
3, 180096, Note_on_c, 1, 77, 70
3, 180124, Note_off_c, 1, 77, 100
3, 180128, Note_on_c, 1, 76, 70
3, 180156, Note_off_c, 1, 76, 100
3, 180160, Note_on_c, 1, 74, 70
3, 180188, Note_off_c, 1, 74, 100
3, 180192, Note_on_c, 1, 77, 70
3, 180220, Note_off_c, 1, 77, 100
3, 180224, Note_on_c, 1, 76, 70
3, 180252, Note_off_c, 1, 76, 100
3, 180256, Note_on_c, 1, 72, 70
3, 180284, Note_off_c, 1, 72, 100
3, 180288, Note_on_c, 1, 72, 70
3, 180380, Note_off_c, 1, 72, 100
3, 180384, Note_on_c, 1, 67, 70
3, 180384, Note_on_c, 1, 64, 70
3, 180384, Note_on_c, 1, 60, 70
3, 180476, Note_off_c, 1, 67, 100
3, 180476, Note_off_c, 1, 64, 100
3, 180476, Note_off_c, 1, 60, 100
3, 180480, Note_on_c, 1, 67, 70
3, 180480, Note_on_c, 1, 64, 70
3, 180480, Note_on_c, 1, 60, 70
3, 180572, Note_off_c, 1, 67, 100
3, 180572, Note_off_c, 1, 64, 100
3, 180572, Note_off_c, 1, 60, 100
3, 180576, Note_on_c, 1, 67, 70
3, 180576, Note_on_c, 1, 65, 70
3, 180576, Note_on_c, 1, 62, 70
3, 180576, Note_on_c, 1, 60, 70
3, 180668, Note_off_c, 1, 67, 100
3, 180668, Note_off_c, 1, 65, 100
3, 180668, Note_off_c, 1, 62, 100
3, 180668, Note_off_c, 1, 60, 100
3, 180672, Note_on_c, 1, 67, 70
3, 180672, Note_on_c, 1, 65, 70
3, 180672, Note_on_c, 1, 62, 70
3, 180672, Note_on_c, 1, 60, 70
3, 180764, Note_off_c, 1, 67, 100
3, 180764, Note_off_c, 1, 65, 100
3, 180764, Note_off_c, 1, 62, 100
3, 180764, Note_off_c, 1, 60, 100
3, 180768, Note_on_c, 1, 67, 70
3, 180768, Note_on_c, 1, 65, 70
3, 180768, Note_on_c, 1, 62, 70
3, 180768, Note_on_c, 1, 60, 70
3, 180860, Note_off_c, 1, 67, 100
3, 180860, Note_off_c, 1, 65, 100
3, 180860, Note_off_c, 1, 62, 100
3, 180860, Note_off_c, 1, 60, 100
3, 180864, Note_on_c, 1, 67, 70
3, 180864, Note_on_c, 1, 65, 70
3, 180864, Note_on_c, 1, 62, 70
3, 180864, Note_on_c, 1, 60, 70
3, 180956, Note_off_c, 1, 67, 100
3, 180956, Note_off_c, 1, 65, 100
3, 180956, Note_off_c, 1, 62, 100
3, 180956, Note_off_c, 1, 60, 100
3, 180960, Note_on_c, 1, 67, 70
3, 180960, Note_on_c, 1, 65, 70
3, 180960, Note_on_c, 1, 62, 70
3, 180960, Note_on_c, 1, 60, 70
3, 181052, Note_off_c, 1, 67, 100
3, 181052, Note_off_c, 1, 65, 100
3, 181052, Note_off_c, 1, 62, 100
3, 181052, Note_off_c, 1, 60, 100
3, 181056, Note_on_c, 1, 67, 70
3, 181056, Note_on_c, 1, 65, 70
3, 181056, Note_on_c, 1, 62, 70
3, 181056, Note_on_c, 1, 60, 70
3, 181148, Note_off_c, 1, 67, 100
3, 181148, Note_off_c, 1, 65, 100
3, 181148, Note_off_c, 1, 62, 100
3, 181148, Note_off_c, 1, 60, 100
3, 181152, Note_on_c, 1, 67, 70
3, 181152, Note_on_c, 1, 65, 70
3, 181152, Note_on_c, 1, 62, 70
3, 181152, Note_on_c, 1, 60, 70
3, 181244, Note_off_c, 1, 67, 100
3, 181244, Note_off_c, 1, 65, 100
3, 181244, Note_off_c, 1, 62, 100
3, 181244, Note_off_c, 1, 60, 100
3, 181248, Note_on_c, 1, 67, 70
3, 181248, Note_on_c, 1, 65, 70
3, 181248, Note_on_c, 1, 62, 70
3, 181248, Note_on_c, 1, 60, 70
3, 181340, Note_off_c, 1, 67, 100
3, 181340, Note_off_c, 1, 65, 100
3, 181340, Note_off_c, 1, 62, 100
3, 181340, Note_off_c, 1, 60, 100
3, 181344, Note_on_c, 1, 67, 70
3, 181344, Note_on_c, 1, 65, 70
3, 181344, Note_on_c, 1, 62, 70
3, 181344, Note_on_c, 1, 60, 70
3, 181436, Note_off_c, 1, 67, 100
3, 181436, Note_off_c, 1, 65, 100
3, 181436, Note_off_c, 1, 62, 100
3, 181436, Note_off_c, 1, 60, 100
3, 181440, Note_on_c, 1, 48, 70
3, 181472, Note_on_c, 1, 60, 70
3, 181504, Note_on_c, 1, 64, 70
3, 181531, Note_off_c, 1, 60, 100
3, 181532, Note_off_c, 1, 48, 100
3, 181536, Note_on_c, 1, 52, 70
3, 181559, Note_off_c, 1, 64, 100
3, 181568, Note_on_c, 1, 60, 70
3, 181600, Note_on_c, 1, 64, 70
3, 181628, Note_off_c, 1, 52, 100
3, 181628, Note_off_c, 1, 60, 100
3, 181632, Note_on_c, 1, 55, 70
3, 181654, Note_off_c, 1, 64, 100
3, 181664, Note_on_c, 1, 60, 70
3, 181696, Note_on_c, 1, 64, 70
3, 181724, Note_off_c, 1, 55, 100
3, 181725, Note_off_c, 1, 60, 100
3, 181728, Note_on_c, 1, 59, 70
3, 181752, Note_off_c, 1, 64, 100
3, 181760, Note_on_c, 1, 60, 70
3, 181792, Note_on_c, 1, 64, 71
3, 181813, Note_off_c, 1, 60, 100
3, 181823, Note_off_c, 1, 59, 100
3, 181824, Note_on_c, 1, 55, 71
3, 181846, Note_off_c, 1, 64, 100
3, 181856, Note_on_c, 1, 60, 72
3, 181888, Note_on_c, 1, 64, 72
3, 181917, Note_off_c, 1, 60, 100
3, 181918, Note_off_c, 1, 55, 100
3, 181920, Note_on_c, 1, 53, 73
3, 181946, Note_off_c, 1, 64, 100
3, 181952, Note_on_c, 1, 60, 74
3, 181984, Note_on_c, 1, 64, 74
3, 182004, Note_off_c, 1, 60, 100
3, 182015, Note_off_c, 1, 53, 64
3, 182016, Note_on_c, 1, 52, 75
3, 182037, Note_off_c, 1, 64, 100
3, 182048, Note_on_c, 1, 60, 75
3, 182080, Note_on_c, 1, 64, 76
3, 182101, Note_off_c, 1, 60, 100
3, 182111, Note_off_c, 1, 52, 100
3, 182112, Note_on_c, 1, 50, 77
3, 182134, Note_off_c, 1, 64, 100
3, 182144, Note_on_c, 1, 60, 77
3, 182176, Note_on_c, 1, 64, 78
3, 182204, Note_off_c, 1, 60, 100
3, 182207, Note_off_c, 1, 50, 100
3, 182208, Note_on_c, 1, 48, 78
3, 182230, Note_off_c, 1, 64, 100
3, 182240, Note_on_c, 1, 60, 79
3, 182272, Note_on_c, 1, 64, 79
3, 182294, Note_off_c, 1, 60, 100
3, 182303, Note_off_c, 1, 48, 100
3, 182304, Note_on_c, 1, 45, 80
3, 182325, Note_off_c, 1, 64, 100
3, 182336, Note_on_c, 1, 60, 81
3, 182368, Note_on_c, 1, 64, 81
3, 182391, Note_off_c, 1, 60, 100
3, 182398, Note_off_c, 1, 45, 100
3, 182400, Note_on_c, 1, 48, 82
3, 182425, Note_off_c, 1, 64, 100
3, 182432, Note_on_c, 1, 57, 82
3, 182464, Note_on_c, 1, 60, 83
3, 182491, Note_off_c, 1, 57, 100
3, 182495, Note_off_c, 1, 48, 100
3, 182496, Note_on_c, 1, 52, 84
3, 182524, Note_off_c, 1, 60, 100
3, 182528, Note_on_c, 1, 57, 84
3, 182560, Note_on_c, 1, 60, 85
3, 182586, Note_off_c, 1, 57, 100
3, 182591, Note_off_c, 1, 52, 100
3, 182592, Note_on_c, 1, 56, 85
3, 182617, Note_off_c, 1, 60, 100
3, 182624, Note_on_c, 1, 57, 86
3, 182656, Note_on_c, 1, 60, 87
3, 182678, Note_off_c, 1, 57, 100
3, 182687, Note_off_c, 1, 56, 100
3, 182688, Note_on_c, 1, 52, 87
3, 182710, Note_off_c, 1, 60, 100
3, 182720, Note_on_c, 1, 57, 88
3, 182752, Note_on_c, 1, 60, 88
3, 182778, Note_off_c, 1, 57, 100
3, 182783, Note_off_c, 1, 52, 100
3, 182784, Note_on_c, 1, 50, 89
3, 182812, Note_off_c, 1, 60, 100
3, 182816, Note_on_c, 1, 57, 89
3, 182848, Note_on_c, 1, 60, 90
3, 182877, Note_off_c, 1, 57, 100
3, 182879, Note_off_c, 1, 50, 100
3, 182880, Note_on_c, 1, 48, 91
3, 182908, Note_off_c, 1, 60, 100
3, 182912, Note_on_c, 1, 57, 91
3, 182944, Note_on_c, 1, 60, 92
3, 182966, Note_off_c, 1, 57, 100
3, 182975, Note_off_c, 1, 48, 100
3, 182976, Note_on_c, 1, 47, 92
3, 183005, Note_off_c, 1, 60, 100
3, 183008, Note_on_c, 1, 57, 93
3, 183040, Note_on_c, 1, 60, 94
3, 183067, Note_off_c, 1, 57, 100
3, 183071, Note_off_c, 1, 47, 100
3, 183072, Note_on_c, 1, 45, 94
3, 183100, Note_off_c, 1, 60, 100
3, 183104, Note_on_c, 1, 57, 95
3, 183136, Note_on_c, 1, 60, 95
3, 183159, Note_off_c, 1, 57, 100
3, 183167, Note_off_c, 1, 45, 100
3, 183168, Note_on_c, 1, 43, 96
3, 183195, Note_off_c, 1, 60, 100
3, 183200, Note_on_c, 1, 55, 97
3, 183232, Note_on_c, 1, 60, 97
3, 183255, Note_off_c, 1, 55, 100
3, 183263, Note_off_c, 1, 43, 100
3, 183264, Note_on_c, 1, 48, 98
3, 183293, Note_off_c, 1, 60, 100
3, 183296, Note_on_c, 1, 55, 98
3, 183328, Note_on_c, 1, 60, 99
3, 183348, Note_off_c, 1, 55, 100
3, 183359, Note_off_c, 1, 48, 100
3, 183360, Note_on_c, 1, 52, 99
3, 183385, Note_off_c, 1, 60, 100
3, 183392, Note_on_c, 1, 55, 100
3, 183424, Note_on_c, 1, 60, 101
3, 183446, Note_off_c, 1, 55, 100
3, 183455, Note_off_c, 1, 52, 100
3, 183456, Note_on_c, 1, 43, 101
3, 183480, Note_off_c, 1, 60, 100
3, 183488, Note_on_c, 1, 55, 102
3, 183520, Note_on_c, 1, 59, 102
3, 183549, Note_off_c, 1, 55, 100
3, 183551, Note_off_c, 1, 43, 100
3, 183552, Note_on_c, 1, 47, 103
3, 183575, Note_off_c, 1, 59, 100
3, 183584, Note_on_c, 1, 55, 104
3, 183616, Note_on_c, 1, 59, 104
3, 183644, Note_off_c, 1, 55, 100
3, 183647, Note_off_c, 1, 47, 100
3, 183648, Note_on_c, 1, 50, 105
3, 183677, Note_off_c, 1, 59, 100
3, 183680, Note_on_c, 1, 55, 105
3, 183712, Note_on_c, 1, 59, 106
3, 183737, Note_off_c, 1, 55, 100
3, 183743, Note_off_c, 1, 50, 100
3, 183744, Note_on_c, 1, 43, 107
3, 183768, Note_off_c, 1, 59, 100
3, 183776, Note_on_c, 1, 50, 107
3, 183808, Note_on_c, 1, 55, 108
3, 183837, Note_off_c, 1, 50, 100
3, 183839, Note_off_c, 1, 43, 100
3, 183840, Note_on_c, 1, 43, 108
3, 183869, Note_off_c, 1, 55, 100
3, 183872, Note_on_c, 1, 53, 109
3, 183904, Note_on_c, 1, 55, 109
3, 183930, Note_off_c, 1, 53, 100
3, 183935, Note_off_c, 1, 43, 100
3, 183935, Note_off_c, 1, 55, 100
3, 183936, Note_on_c, 1, 52, 110
3, 183968, Note_on_c, 1, 53, 110
3, 183996, Note_off_c, 1, 53, 64
3, 184000, Note_on_c, 1, 55, 110
3, 184028, Note_off_c, 1, 55, 64
3, 184032, Control_c, 1, 64, 127
3, 184060, Note_off_c, 1, 52, 100
3, 184128, Note_on_c, 1, 48, 110
3, 184160, Note_on_c, 1, 52, 110
3, 184192, Note_on_c, 1, 55, 110
3, 184252, Note_off_c, 1, 48, 100
3, 184284, Note_off_c, 1, 52, 100
3, 184316, Note_off_c, 1, 55, 100
3, 184606, Control_c, 1, 64, 0
3, 184896, Control_c, 1, 64, 127
3, 184896, Note_on_c, 1, 33, 110
3, 184928, Note_on_c, 1, 36, 110
3, 184960, Note_on_c, 1, 40, 110
3, 184992, Note_on_c, 1, 45, 110
3, 185020, Note_off_c, 1, 33, 100
3, 185024, Note_on_c, 1, 48, 110
3, 185052, Note_off_c, 1, 36, 100
3, 185056, Note_on_c, 1, 52, 110
3, 185084, Note_off_c, 1, 40, 100
3, 185088, Note_on_c, 1, 57, 110
3, 185116, Note_off_c, 1, 45, 100
3, 185120, Note_on_c, 1, 60, 110
3, 185148, Note_off_c, 1, 48, 100
3, 185152, Note_on_c, 1, 64, 110
3, 185180, Note_off_c, 1, 52, 100
3, 185212, Note_off_c, 1, 57, 100
3, 185244, Note_off_c, 1, 60, 100
3, 185276, Note_off_c, 1, 64, 100
3, 185470, Control_c, 1, 64, 0
3, 185760, Control_c, 1, 64, 127
3, 185760, Note_on_c, 1, 31, 110
3, 185792, Note_on_c, 1, 36, 110
3, 185824, Note_on_c, 1, 40, 110
3, 185856, Note_on_c, 1, 43, 110
3, 185884, Note_off_c, 1, 31, 100
3, 185888, Note_on_c, 1, 48, 110
3, 185916, Note_off_c, 1, 36, 100
3, 185920, Note_on_c, 1, 52, 110
3, 185948, Note_off_c, 1, 40, 100
3, 185952, Note_on_c, 1, 55, 110
3, 185980, Note_off_c, 1, 43, 100
3, 186012, Note_off_c, 1, 48, 100
3, 186044, Note_off_c, 1, 52, 100
3, 186044, Note_off_c, 1, 55, 100
3, 186046, Control_c, 1, 64, 0
3, 186048, Control_c, 1, 64, 127
3, 186048, Note_on_c, 1, 31, 110
3, 186080, Note_on_c, 1, 35, 110
3, 186113, Note_on_c, 1, 38, 110
3, 186144, Note_on_c, 1, 43, 110
3, 186172, Note_off_c, 1, 31, 100
3, 186176, Note_on_c, 1, 47, 110
3, 186204, Note_off_c, 1, 35, 100
3, 186209, Note_on_c, 1, 50, 110
3, 186237, Note_off_c, 1, 38, 100
3, 186240, Note_on_c, 1, 55, 110
3, 186268, Note_off_c, 1, 43, 100
3, 186300, Note_off_c, 1, 47, 100
3, 186332, Note_off_c, 1, 55, 100
3, 186333, Note_off_c, 1, 50, 100
3, 186334, Control_c, 1, 64, 0
3, 187200, Note_on_c, 1, 48, 110
3, 187200, Note_on_c, 1, 36, 110
3, 187388, Note_off_c, 1, 48, 100
3, 187388, Note_off_c, 1, 36, 100
3, 187392, Note_on_c, 1, 43, 110
3, 187392, Note_on_c, 1, 31, 110
3, 187484, Note_off_c, 1, 43, 100
3, 187484, Note_off_c, 1, 31, 100
3, 187488, Note_on_c, 1, 43, 110
3, 187488, Note_on_c, 1, 31, 110
3, 188060, Note_off_c, 1, 31, 100
3, 188060, Note_off_c, 1, 43, 100
3, 188064, Note_on_c, 1, 72, 80
3, 188252, Note_off_c, 1, 72, 100
3, 188256, Note_on_c, 1, 71, 80
3, 188348, Note_off_c, 1, 71, 100
3, 188352, Note_on_c, 1, 71, 80
3, 188924, Note_off_c, 1, 71, 100
3, 188928, Note_on_c, 1, 72, 80
3, 189116, Note_off_c, 1, 72, 100
3, 189120, Note_on_c, 1, 71, 80
3, 189212, Note_off_c, 1, 71, 100
3, 189216, Note_on_c, 1, 71, 80
3, 189404, Note_off_c, 1, 71, 100
3, 189504, Note_on_c, 1, 71, 80
3, 189692, Note_off_c, 1, 71, 100
3, 189792, Note_on_c, 1, 71, 80
3, 189980, Note_off_c, 1, 71, 100
3, 190080, Note_on_c, 1, 71, 80
3, 190364, Note_off_c, 1, 71, 100
3, 190368, Note_on_c, 1, 70, 80
3, 190652, Note_off_c, 1, 70, 100
3, 190656, Note_on_c, 1, 53, 80
3, 190656, Note_on_c, 1, 41, 80
3, 190844, Note_off_c, 1, 53, 100
3, 190844, Note_off_c, 1, 41, 100
3, 190848, Note_on_c, 1, 46, 80
3, 190848, Note_on_c, 1, 34, 80
3, 190940, Note_off_c, 1, 46, 100
3, 190940, Note_off_c, 1, 34, 100
3, 190944, Note_on_c, 1, 46, 80
3, 190944, Note_on_c, 1, 34, 80
3, 191516, Note_off_c, 1, 34, 100
3, 191516, Note_off_c, 1, 46, 100
3, 191520, Note_on_c, 1, 65, 80
3, 191708, Note_off_c, 1, 65, 100
3, 191712, Note_on_c, 1, 58, 80
3, 191804, Note_off_c, 1, 58, 100
3, 191808, Note_on_c, 1, 67, 80
3, 191808, Note_on_c, 1, 58, 80
3, 191832, Note_on_c, 1, 65, 80
3, 191848, Note_off_c, 1, 67, 100
3, 191856, Note_on_c, 1, 67, 80
3, 191872, Note_off_c, 1, 65, 100
3, 191880, Note_on_c, 1, 65, 81
3, 191896, Note_off_c, 1, 67, 100
3, 191904, Note_on_c, 1, 67, 81
3, 191920, Note_off_c, 1, 65, 100
3, 191928, Note_on_c, 1, 65, 81
3, 191944, Note_off_c, 1, 67, 100
3, 191952, Note_on_c, 1, 67, 82
3, 191968, Note_off_c, 1, 65, 100
3, 191976, Note_on_c, 1, 65, 82
3, 191992, Note_off_c, 1, 67, 100
3, 192000, Note_on_c, 1, 67, 82
3, 192016, Note_off_c, 1, 65, 100
3, 192024, Note_on_c, 1, 65, 83
3, 192040, Note_off_c, 1, 67, 100
3, 192048, Note_on_c, 1, 67, 83
3, 192064, Note_off_c, 1, 65, 100
3, 192072, Note_on_c, 1, 65, 83
3, 192088, Note_off_c, 1, 67, 100
3, 192092, Note_off_c, 1, 58, 100
3, 192096, Note_on_c, 1, 67, 84
3, 192096, Note_on_c, 1, 58, 84
3, 192112, Note_off_c, 1, 65, 100
3, 192120, Note_on_c, 1, 65, 84
3, 192136, Note_off_c, 1, 67, 100
3, 192144, Note_on_c, 1, 67, 84
3, 192160, Note_off_c, 1, 65, 100
3, 192168, Note_on_c, 1, 65, 85
3, 192184, Note_off_c, 1, 67, 100
3, 192192, Note_on_c, 1, 67, 85
3, 192208, Note_off_c, 1, 65, 100
3, 192216, Note_on_c, 1, 65, 85
3, 192232, Note_off_c, 1, 67, 100
3, 192240, Note_on_c, 1, 67, 85
3, 192256, Note_off_c, 1, 65, 100
3, 192264, Note_on_c, 1, 65, 86
3, 192280, Note_off_c, 1, 67, 100
3, 192288, Note_on_c, 1, 67, 86
3, 192304, Note_off_c, 1, 65, 100
3, 192312, Note_on_c, 1, 65, 86
3, 192328, Note_off_c, 1, 67, 100
3, 192336, Note_on_c, 1, 67, 87
3, 192352, Note_off_c, 1, 65, 100
3, 192360, Note_on_c, 1, 65, 87
3, 192376, Note_off_c, 1, 67, 100
3, 192380, Note_off_c, 1, 58, 100
3, 192384, Note_on_c, 1, 67, 87
3, 192384, Note_on_c, 1, 58, 87
3, 192400, Note_off_c, 1, 65, 100
3, 192408, Note_on_c, 1, 65, 88
3, 192424, Note_off_c, 1, 67, 100
3, 192432, Note_on_c, 1, 67, 88
3, 192448, Note_off_c, 1, 65, 100
3, 192456, Note_on_c, 1, 65, 88
3, 192472, Note_off_c, 1, 67, 100
3, 192480, Note_on_c, 1, 67, 89
3, 192496, Note_off_c, 1, 65, 100
3, 192504, Note_on_c, 1, 65, 89
3, 192520, Note_off_c, 1, 67, 100
3, 192528, Note_on_c, 1, 67, 89
3, 192544, Note_off_c, 1, 65, 100
3, 192552, Note_on_c, 1, 65, 90
3, 192568, Note_off_c, 1, 67, 100
3, 192576, Note_on_c, 1, 67, 90
3, 192592, Note_off_c, 1, 65, 100
3, 192600, Note_on_c, 1, 65, 90
3, 192616, Note_off_c, 1, 67, 100
3, 192624, Note_on_c, 1, 67, 90
3, 192640, Note_off_c, 1, 65, 100
3, 192648, Note_on_c, 1, 65, 90
3, 192664, Note_off_c, 1, 67, 100
3, 192668, Note_off_c, 1, 58, 100
3, 192672, Note_on_c, 1, 67, 90
3, 192672, Note_on_c, 1, 58, 90
3, 192688, Note_off_c, 1, 65, 100
3, 192696, Note_on_c, 1, 65, 90
3, 192712, Note_off_c, 1, 67, 100
3, 192720, Note_on_c, 1, 67, 90
3, 192736, Note_off_c, 1, 65, 100
3, 192744, Note_on_c, 1, 65, 89
3, 192760, Note_off_c, 1, 67, 100
3, 192768, Note_on_c, 1, 67, 89
3, 192784, Note_off_c, 1, 65, 100
3, 192792, Note_on_c, 1, 65, 89
3, 192808, Note_off_c, 1, 67, 100
3, 192816, Note_on_c, 1, 67, 88
3, 192832, Note_off_c, 1, 65, 100
3, 192840, Note_on_c, 1, 65, 88
3, 192856, Note_off_c, 1, 67, 100
3, 192864, Note_on_c, 1, 67, 88
3, 192880, Note_off_c, 1, 65, 100
3, 192888, Note_on_c, 1, 65, 87
3, 192904, Note_off_c, 1, 67, 100
3, 192912, Note_on_c, 1, 67, 87
3, 192928, Note_off_c, 1, 65, 100
3, 192936, Note_on_c, 1, 65, 87
3, 192952, Note_off_c, 1, 67, 100
3, 192956, Note_off_c, 1, 58, 100
3, 192960, Note_on_c, 1, 67, 86
3, 192960, Note_on_c, 1, 58, 86
3, 192976, Note_off_c, 1, 65, 100
3, 192984, Note_on_c, 1, 65, 86
3, 193000, Note_off_c, 1, 67, 100
3, 193008, Note_on_c, 1, 67, 86
3, 193024, Note_off_c, 1, 65, 100
3, 193032, Note_on_c, 1, 65, 85
3, 193048, Note_off_c, 1, 67, 100
3, 193056, Note_on_c, 1, 67, 85
3, 193072, Note_off_c, 1, 65, 100
3, 193080, Note_on_c, 1, 65, 85
3, 193096, Note_off_c, 1, 67, 100
3, 193104, Note_on_c, 1, 67, 85
3, 193120, Note_off_c, 1, 65, 100
3, 193128, Note_on_c, 1, 65, 84
3, 193144, Note_off_c, 1, 67, 100
3, 193152, Note_on_c, 1, 67, 84
3, 193168, Note_off_c, 1, 65, 100
3, 193176, Note_on_c, 1, 65, 84
3, 193192, Note_off_c, 1, 67, 100
3, 193200, Note_on_c, 1, 67, 83
3, 193216, Note_off_c, 1, 65, 100
3, 193224, Note_on_c, 1, 65, 83
3, 193240, Note_off_c, 1, 67, 100
3, 193244, Note_off_c, 1, 58, 100
3, 193248, Note_on_c, 1, 67, 83
3, 193248, Note_on_c, 1, 58, 83
3, 193264, Note_off_c, 1, 65, 100
3, 193272, Note_on_c, 1, 65, 82
3, 193288, Note_off_c, 1, 67, 100
3, 193296, Note_on_c, 1, 67, 82
3, 193312, Note_off_c, 1, 65, 100
3, 193320, Note_on_c, 1, 65, 82
3, 193336, Note_off_c, 1, 67, 100
3, 193344, Note_on_c, 1, 67, 81
3, 193360, Note_off_c, 1, 65, 100
3, 193368, Note_on_c, 1, 65, 81
3, 193384, Note_off_c, 1, 67, 100
3, 193392, Note_on_c, 1, 67, 81
3, 193408, Note_off_c, 1, 65, 100
3, 193416, Note_on_c, 1, 65, 80
3, 193432, Note_off_c, 1, 67, 100
3, 193440, Note_on_c, 1, 67, 80
3, 193456, Note_off_c, 1, 65, 100
3, 193464, Note_on_c, 1, 65, 80
3, 193480, Note_off_c, 1, 67, 100
3, 193488, Note_on_c, 1, 67, 80
3, 193504, Note_off_c, 1, 65, 100
3, 193512, Note_on_c, 1, 65, 80
3, 193528, Note_off_c, 1, 67, 100
3, 193532, Note_off_c, 1, 58, 100
3, 193536, Note_on_c, 1, 65, 80
3, 193536, Note_on_c, 1, 67, 80
3, 193536, Note_on_c, 1, 58, 80
3, 193552, Note_off_c, 1, 65, 100
3, 193552, Note_off_c, 1, 65, 100
3, 193560, Note_on_c, 1, 65, 80
3, 193576, Note_off_c, 1, 67, 100
3, 193584, Note_on_c, 1, 67, 80
3, 193600, Note_off_c, 1, 65, 100
3, 193608, Note_on_c, 1, 65, 80
3, 193624, Note_off_c, 1, 67, 100
3, 193632, Note_on_c, 1, 67, 80
3, 193648, Note_off_c, 1, 65, 100
3, 193656, Note_on_c, 1, 65, 80
3, 193672, Note_off_c, 1, 67, 100
3, 193680, Note_on_c, 1, 67, 80
3, 193696, Note_off_c, 1, 65, 100
3, 193704, Note_on_c, 1, 65, 80
3, 193720, Note_off_c, 1, 67, 100
3, 193728, Note_on_c, 1, 67, 80
3, 193744, Note_off_c, 1, 65, 100
3, 193752, Note_on_c, 1, 65, 80
3, 193768, Note_off_c, 1, 67, 100
3, 193776, Note_on_c, 1, 67, 80
3, 193792, Note_off_c, 1, 65, 100
3, 193800, Note_on_c, 1, 65, 80
3, 193816, Note_off_c, 1, 67, 100
3, 193820, Note_off_c, 1, 58, 100
3, 193840, Note_off_c, 1, 65, 100
3, 195840, Key_signature, -3, "major"
3, 195840, Note_on_c, 1, 34, 110
3, 196892, Note_off_c, 1, 34, 100
3, 196896, Note_on_c, 1, 32, 82
3, 196988, Note_off_c, 1, 32, 100
3, 196992, Note_on_c, 1, 31, 80
3, 197564, Note_off_c, 1, 31, 100
3, 197568, Note_on_c, 1, 30, 80
3, 197852, Note_off_c, 1, 30, 100
3, 197856, Note_on_c, 1, 29, 80
3, 198332, Note_off_c, 1, 29, 100
3, 198336, Note_on_c, 1, 31, 80
3, 198428, Note_off_c, 1, 31, 100
3, 198432, Note_on_c, 1, 32, 80
3, 198620, Note_off_c, 1, 32, 100
3, 198624, Note_on_c, 1, 33, 80
3, 198716, Note_off_c, 1, 33, 100
3, 198720, Note_on_c, 1, 34, 80
3, 198908, Note_off_c, 1, 34, 100
3, 199680, Note_on_c, 1, 51, 80
3, 199680, Note_on_c, 1, 39, 80
3, 199868, Note_off_c, 1, 51, 100
3, 199868, Note_off_c, 1, 39, 100
3, 199968, Note_on_c, 1, 53, 80
3, 199968, Note_on_c, 1, 41, 80
3, 200156, Note_off_c, 1, 53, 100
3, 200156, Note_off_c, 1, 41, 100
3, 200256, Note_on_c, 1, 55, 80
3, 200256, Note_on_c, 1, 43, 80
3, 200348, Note_off_c, 1, 55, 100
3, 200348, Note_off_c, 1, 43, 100
3, 200352, Note_on_c, 1, 48, 80
3, 200352, Note_on_c, 1, 36, 80
3, 200444, Note_off_c, 1, 48, 100
3, 200444, Note_off_c, 1, 36, 100
3, 200448, Note_on_c, 1, 47, 80
3, 200448, Note_on_c, 1, 35, 80
3, 200636, Note_off_c, 1, 47, 100
3, 200636, Note_off_c, 1, 35, 100
3, 201408, Note_on_c, 1, 48, 80
3, 201408, Note_on_c, 1, 36, 80
3, 201596, Note_off_c, 1, 48, 100
3, 201596, Note_off_c, 1, 36, 100
3, 201696, Note_on_c, 1, 49, 80
3, 201696, Note_on_c, 1, 37, 80
3, 201884, Note_off_c, 1, 49, 100
3, 201884, Note_off_c, 1, 37, 100
3, 201984, Note_on_c, 1, 51, 80
3, 201984, Note_on_c, 1, 39, 80
3, 202076, Note_off_c, 1, 51, 100
3, 202076, Note_off_c, 1, 39, 100
3, 202080, Note_on_c, 1, 32, 80
3, 202080, Note_on_c, 1, 44, 80
3, 202172, Note_off_c, 1, 32, 100
3, 202172, Note_off_c, 1, 44, 100
3, 202176, Note_on_c, 1, 43, 80
3, 202176, Note_on_c, 1, 31, 80
3, 202364, Note_off_c, 1, 43, 100
3, 202364, Note_off_c, 1, 31, 100
3, 203136, Note_on_c, 1, 56, 80
3, 203136, Note_on_c, 1, 44, 80
3, 203324, Note_off_c, 1, 56, 100
3, 203324, Note_off_c, 1, 44, 100
3, 203424, Note_on_c, 1, 54, 80
3, 203424, Note_on_c, 1, 42, 80
3, 203612, Note_off_c, 1, 54, 100
3, 203612, Note_off_c, 1, 42, 100
3, 203712, Note_on_c, 1, 55, 80
3, 203712, Note_on_c, 1, 43, 80
3, 203900, Note_off_c, 1, 55, 100
3, 203900, Note_off_c, 1, 43, 100
3, 204000, Note_on_c, 1, 76, 80
3, 204188, Note_off_c, 1, 76, 100
3, 204288, Note_on_c, 1, 77, 80
3, 204476, Note_off_c, 1, 77, 100
3, 204576, Note_on_c, 1, 74, 80
3, 204764, Note_off_c, 1, 74, 100
3, 204864, Note_on_c, 1, 51, 80
3, 204864, Note_on_c, 1, 39, 80
3, 205052, Note_off_c, 1, 51, 100
3, 205052, Note_off_c, 1, 39, 100
3, 205152, Note_on_c, 1, 48, 80
3, 205152, Note_on_c, 1, 36, 80
3, 205340, Note_off_c, 1, 48, 100
3, 205340, Note_off_c, 1, 36, 100
3, 205440, Note_on_c, 1, 50, 80
3, 205440, Note_on_c, 1, 38, 80
3, 205532, Note_off_c, 1, 50, 100
3, 205532, Note_off_c, 1, 38, 100
3, 205536, Note_on_c, 1, 48, 80
3, 205536, Note_on_c, 1, 36, 80
3, 205628, Note_off_c, 1, 48, 100
3, 205628, Note_off_c, 1, 36, 100
3, 205632, Note_on_c, 1, 47, 80
3, 205632, Note_on_c, 1, 35, 80
3, 205724, Note_off_c, 1, 47, 100
3, 205724, Note_off_c, 1, 35, 100
3, 205728, Note_on_c, 1, 71, 80
3, 205916, Note_off_c, 1, 71, 100
3, 206016, Note_on_c, 1, 72, 80
3, 206204, Note_off_c, 1, 72, 100
3, 206304, Note_on_c, 1, 69, 80
3, 206492, Note_off_c, 1, 69, 100
3, 206592, Note_on_c, 1, 46, 80
3, 206592, Note_on_c, 1, 34, 80
3, 206780, Note_off_c, 1, 46, 100
3, 206780, Note_off_c, 1, 34, 100
3, 206880, Note_on_c, 1, 43, 80
3, 206880, Note_on_c, 1, 31, 80
3, 207068, Note_off_c, 1, 43, 100
3, 207068, Note_off_c, 1, 31, 100
3, 207072, Note_on_c, 1, 32, 80
3, 207104, Note_on_c, 1, 44, 80
3, 207133, Note_off_c, 1, 32, 100
3, 207136, Note_on_c, 1, 32, 80
3, 207164, Note_off_c, 1, 44, 100
3, 207168, Note_on_c, 1, 44, 80
3, 207197, Note_off_c, 1, 32, 100
3, 207200, Note_on_c, 1, 32, 80
3, 207229, Note_off_c, 1, 44, 100
3, 207232, Note_on_c, 1, 44, 81
3, 207257, Note_off_c, 1, 32, 100
3, 207264, Note_on_c, 1, 32, 81
3, 207291, Note_off_c, 1, 44, 100
3, 207296, Note_on_c, 1, 44, 81
3, 207323, Note_off_c, 1, 32, 100
3, 207328, Note_on_c, 1, 32, 81
3, 207353, Note_off_c, 1, 44, 100
3, 207360, Note_on_c, 1, 42, 81
3, 207385, Note_off_c, 1, 32, 100
3, 207392, Note_on_c, 1, 30, 82
3, 207423, Note_off_c, 1, 42, 100
3, 207424, Note_on_c, 1, 42, 82
3, 207453, Note_off_c, 1, 30, 100
3, 207456, Note_on_c, 1, 30, 82
3, 207485, Note_off_c, 1, 42, 100
3, 207488, Note_on_c, 1, 42, 82
3, 207519, Note_off_c, 1, 30, 100
3, 207520, Note_on_c, 1, 30, 82
3, 207547, Note_off_c, 1, 42, 100
3, 207552, Note_on_c, 1, 42, 83
3, 207575, Note_off_c, 1, 30, 100
3, 207584, Note_on_c, 1, 30, 83
3, 207610, Note_off_c, 1, 42, 100
3, 207616, Note_on_c, 1, 42, 83
3, 207642, Note_off_c, 1, 30, 100
3, 207644, Note_off_c, 1, 42, 100
3, 207648, Note_on_c, 1, 31, 83
3, 207680, Note_on_c, 1, 43, 83
3, 207704, Note_off_c, 1, 31, 100
3, 207712, Note_on_c, 1, 31, 84
3, 207735, Note_off_c, 1, 43, 100
3, 207744, Note_on_c, 1, 43, 84
3, 207772, Note_off_c, 1, 31, 100
3, 207776, Note_on_c, 1, 31, 84
3, 207804, Note_off_c, 1, 43, 100
3, 207808, Note_on_c, 1, 43, 84
3, 207837, Note_off_c, 1, 31, 100
3, 207840, Note_on_c, 1, 31, 85
3, 207869, Note_off_c, 1, 43, 100
3, 207872, Note_on_c, 1, 43, 85
3, 207896, Note_off_c, 1, 31, 100
3, 207904, Note_on_c, 1, 31, 90
3, 207932, Note_off_c, 1, 43, 100
3, 207936, Key_signature, 0, "major"
3, 207936, Note_on_c, 1, 43, 80
3, 207962, Note_off_c, 1, 31, 100
3, 207968, Note_on_c, 1, 36, 80
3, 207994, Note_off_c, 1, 43, 100
3, 208000, Note_on_c, 1, 40, 81
3, 208025, Note_off_c, 1, 36, 100
3, 208032, Note_on_c, 1, 43, 81
3, 208060, Note_off_c, 1, 40, 100
3, 208064, Note_on_c, 1, 48, 81
3, 208092, Note_off_c, 1, 43, 100
3, 208096, Note_on_c, 1, 52, 81
3, 208119, Note_off_c, 1, 48, 100
3, 208128, Note_on_c, 1, 48, 81
3, 208150, Note_off_c, 1, 52, 100
3, 208160, Note_on_c, 1, 52, 82
3, 208187, Note_off_c, 1, 48, 100
3, 208192, Note_on_c, 1, 55, 82
3, 208213, Note_off_c, 1, 52, 100
3, 208224, Note_on_c, 1, 48, 82
3, 208254, Note_off_c, 1, 55, 100
3, 208256, Note_on_c, 1, 52, 82
3, 208284, Note_off_c, 1, 48, 100
3, 208288, Note_on_c, 1, 55, 82
3, 208313, Note_off_c, 1, 52, 100
3, 208320, Note_on_c, 1, 47, 83
3, 208350, Note_off_c, 1, 55, 100
3, 208352, Note_on_c, 1, 50, 83
3, 208381, Note_off_c, 1, 47, 100
3, 208384, Note_on_c, 1, 55, 83
3, 208413, Note_off_c, 1, 50, 100
3, 208416, Note_on_c, 1, 48, 83
3, 208446, Note_off_c, 1, 55, 100
3, 208448, Note_on_c, 1, 52, 84
3, 208474, Note_off_c, 1, 48, 100
3, 208480, Note_on_c, 1, 55, 84
3, 208503, Note_off_c, 1, 52, 100
3, 208512, Note_on_c, 1, 50, 84
3, 208540, Note_off_c, 1, 55, 100
3, 208544, Note_on_c, 1, 53, 84
3, 208574, Note_off_c, 1, 50, 100
3, 208576, Note_on_c, 1, 55, 84
3, 208604, Note_off_c, 1, 53, 100
3, 208608, Note_on_c, 1, 48, 85
3, 208638, Note_off_c, 1, 55, 100
3, 208640, Note_on_c, 1, 52, 85
3, 208670, Note_off_c, 1, 48, 100
3, 208672, Note_on_c, 1, 55, 85
3, 208693, Note_off_c, 1, 52, 100
3, 208704, Note_on_c, 1, 50, 85
3, 208732, Note_off_c, 1, 55, 100
3, 208736, Note_on_c, 1, 53, 85
3, 208765, Note_off_c, 1, 50, 100
3, 208768, Note_on_c, 1, 55, 86
3, 208798, Note_off_c, 1, 53, 100
3, 208800, Note_on_c, 1, 47, 86
3, 208824, Note_off_c, 1, 55, 100
3, 208832, Note_on_c, 1, 53, 86
3, 208855, Note_off_c, 1, 47, 100
3, 208864, Note_on_c, 1, 55, 86
3, 208887, Note_off_c, 1, 53, 100
3, 208896, Note_on_c, 1, 45, 86
3, 208926, Note_off_c, 1, 55, 100
3, 208928, Note_on_c, 1, 48, 87
3, 208952, Note_off_c, 1, 45, 100
3, 208960, Note_on_c, 1, 55, 87
3, 208991, Note_off_c, 1, 48, 100
3, 208992, Note_on_c, 1, 47, 87
3, 209015, Note_off_c, 1, 55, 100
3, 209024, Note_on_c, 1, 50, 87
3, 209050, Note_off_c, 1, 47, 100
3, 209056, Note_on_c, 1, 55, 88
3, 209078, Note_off_c, 1, 50, 100
3, 209088, Note_on_c, 1, 47, 88
3, 209113, Note_off_c, 1, 55, 100
3, 209120, Note_on_c, 1, 50, 88
3, 209142, Note_off_c, 1, 47, 100
3, 209152, Note_on_c, 1, 55, 88
3, 209171, Note_off_c, 1, 50, 100
3, 209184, Note_on_c, 1, 48, 88
3, 209207, Note_off_c, 1, 55, 100
3, 209216, Note_on_c, 1, 52, 89
3, 209246, Note_off_c, 1, 48, 100
3, 209248, Note_on_c, 1, 55, 89
3, 209278, Note_off_c, 1, 52, 100
3, 209280, Note_on_c, 1, 47, 89
3, 209308, Note_off_c, 1, 55, 100
3, 209312, Note_on_c, 1, 50, 89
3, 209338, Note_off_c, 1, 47, 100
3, 209344, Note_on_c, 1, 55, 89
3, 209374, Note_off_c, 1, 50, 100
3, 209376, Note_on_c, 1, 48, 90
3, 209403, Note_off_c, 1, 55, 100
3, 209408, Note_on_c, 1, 52, 90
3, 209430, Note_off_c, 1, 48, 100
3, 209440, Note_on_c, 1, 55, 90
3, 209460, Note_off_c, 1, 52, 100
3, 209472, Note_on_c, 1, 52, 90
3, 209494, Note_off_c, 1, 55, 100
3, 209504, Note_on_c, 1, 53, 90
3, 209529, Note_off_c, 1, 52, 100
3, 209536, Note_on_c, 1, 55, 91
3, 209560, Note_off_c, 1, 53, 100
3, 209568, Note_on_c, 1, 48, 91
3, 209589, Note_off_c, 1, 55, 100
3, 209600, Note_on_c, 1, 52, 91
3, 209622, Note_off_c, 1, 48, 100
3, 209632, Note_on_c, 1, 55, 91
3, 209659, Note_off_c, 1, 52, 100
3, 209664, Note_on_c, 1, 50, 91
3, 209686, Note_off_c, 1, 55, 100
3, 209696, Note_on_c, 1, 53, 92
3, 209721, Note_off_c, 1, 50, 100
3, 209728, Note_on_c, 1, 55, 92
3, 209751, Note_off_c, 1, 53, 100
3, 209760, Note_on_c, 1, 49, 92
3, 209790, Note_off_c, 1, 55, 100
3, 209792, Note_on_c, 1, 52, 92
3, 209821, Note_off_c, 1, 49, 100
3, 209824, Note_on_c, 1, 55, 93
3, 209847, Note_off_c, 1, 52, 100
3, 209856, Note_on_c, 1, 50, 93
3, 209884, Note_off_c, 1, 55, 100
3, 209888, Note_on_c, 1, 53, 93
3, 209908, Note_off_c, 1, 50, 100
3, 209920, Note_on_c, 1, 55, 93
3, 209946, Note_off_c, 1, 53, 100
3, 209952, Note_on_c, 1, 52, 93
3, 209976, Note_off_c, 1, 55, 100
3, 209984, Note_on_c, 1, 55, 94
3, 210003, Note_off_c, 1, 52, 100
3, 210017, Note_on_c, 1, 52, 94
3, 210046, Note_off_c, 1, 55, 100
3, 210048, Note_on_c, 1, 55, 94
3, 210076, Note_off_c, 1, 52, 100
3, 210080, Note_on_c, 1, 52, 94
3, 210102, Note_off_c, 1, 55, 100
3, 210112, Note_on_c, 1, 55, 94
3, 210138, Note_off_c, 1, 52, 100
3, 210144, Note_on_c, 1, 52, 95
3, 210169, Note_off_c, 1, 55, 100
3, 210176, Note_on_c, 1, 55, 95
3, 210201, Note_off_c, 1, 52, 100
3, 210208, Note_on_c, 1, 52, 95
3, 210229, Note_off_c, 1, 55, 100
3, 210240, Note_on_c, 1, 48, 95
3, 210272, Note_off_c, 1, 52, 100
3, 210272, Note_on_c, 1, 55, 95
3, 210299, Note_off_c, 1, 48, 100
3, 210304, Note_on_c, 1, 48, 96
3, 210333, Note_off_c, 1, 55, 100
3, 210336, Note_on_c, 1, 55, 96
3, 210358, Note_off_c, 1, 48, 100
3, 210368, Note_on_c, 1, 48, 96
3, 210394, Note_off_c, 1, 55, 100
3, 210400, Note_on_c, 1, 55, 96
3, 210422, Note_off_c, 1, 48, 100
3, 210432, Note_on_c, 1, 48, 97
3, 210463, Note_off_c, 1, 55, 100
3, 210464, Note_on_c, 1, 55, 97
3, 210492, Note_off_c, 1, 48, 100
3, 210496, Note_on_c, 1, 48, 97
3, 210522, Note_off_c, 1, 55, 100
3, 210528, Note_on_c, 1, 52, 100
3, 210556, Note_off_c, 1, 48, 100
3, 210560, Note_on_c, 1, 55, 100
3, 210589, Note_off_c, 1, 52, 100
3, 210592, Note_on_c, 1, 52, 100
3, 210617, Note_off_c, 1, 55, 100
3, 210624, Note_on_c, 1, 55, 101
3, 210653, Note_off_c, 1, 52, 100
3, 210656, Note_on_c, 1, 50, 101
3, 210684, Note_off_c, 1, 55, 100
3, 210688, Note_on_c, 1, 55, 102
3, 210716, Note_off_c, 1, 50, 100
3, 210720, Note_on_c, 1, 48, 102
3, 210747, Note_off_c, 1, 55, 100
3, 210752, Note_on_c, 1, 55, 102
3, 210780, Note_off_c, 1, 48, 100
3, 210784, Note_on_c, 1, 48, 103
3, 210810, Note_off_c, 1, 55, 100
3, 210816, Note_on_c, 1, 43, 103
3, 210844, Note_off_c, 1, 48, 100
3, 210848, Note_on_c, 1, 54, 104
3, 210877, Note_off_c, 1, 43, 100
3, 210880, Note_on_c, 1, 55, 104
3, 210905, Note_off_c, 1, 54, 100
3, 210912, Note_on_c, 1, 42, 104
3, 210934, Note_off_c, 1, 55, 100
3, 210944, Note_on_c, 1, 54, 105
3, 210970, Note_off_c, 1, 42, 100
3, 210976, Note_on_c, 1, 55, 105
3, 211001, Note_off_c, 1, 54, 100
3, 211008, Note_on_c, 1, 43, 106
3, 211030, Note_off_c, 1, 55, 100
3, 211040, Note_on_c, 1, 54, 106
3, 211066, Note_off_c, 1, 43, 100
3, 211072, Note_on_c, 1, 55, 107
3, 211095, Note_off_c, 1, 54, 100
3, 211104, Note_on_c, 1, 43, 107
3, 211133, Note_off_c, 1, 55, 100
3, 211136, Note_on_c, 1, 54, 107
3, 211161, Note_off_c, 1, 43, 100
3, 211168, Note_on_c, 1, 55, 108
3, 211196, Note_off_c, 1, 54, 100
3, 211200, Note_on_c, 1, 42, 108
3, 211226, Note_off_c, 1, 55, 100
3, 211232, Note_on_c, 1, 54, 109
3, 211262, Note_off_c, 1, 42, 100
3, 211264, Note_on_c, 1, 55, 109
3, 211293, Note_off_c, 1, 54, 100
3, 211296, Note_on_c, 1, 43, 109
3, 211325, Note_off_c, 1, 55, 100
3, 211328, Note_on_c, 1, 54, 110
3, 211357, Note_off_c, 1, 43, 100
3, 211360, Note_on_c, 1, 55, 110
3, 211389, Note_off_c, 1, 54, 100
3, 211392, Note_on_c, 1, 42, 111
3, 211419, Note_off_c, 1, 55, 100
3, 211424, Note_on_c, 1, 54, 111
3, 211453, Note_off_c, 1, 42, 100
3, 211456, Note_on_c, 1, 55, 112
3, 211483, Note_off_c, 1, 54, 100
3, 211488, Note_on_c, 1, 42, 112
3, 211516, Note_off_c, 1, 55, 100
3, 211520, Note_on_c, 1, 54, 112
3, 211551, Note_off_c, 1, 42, 100
3, 211553, Note_on_c, 1, 55, 113
3, 211580, Note_off_c, 1, 54, 100
3, 211584, Note_on_c, 1, 41, 113
3, 211609, Note_off_c, 1, 55, 100
3, 211616, Note_on_c, 1, 54, 114
3, 211647, Note_off_c, 1, 41, 100
3, 211649, Note_on_c, 1, 55, 114
3, 211671, Note_off_c, 1, 54, 100
3, 211680, Note_on_c, 1, 40, 114
3, 211705, Note_off_c, 1, 55, 100
3, 211712, Note_on_c, 1, 48, 105
3, 211736, Note_off_c, 1, 40, 100
3, 211744, Note_on_c, 1, 55, 105
3, 211774, Note_off_c, 1, 48, 100
3, 211776, Note_on_c, 1, 39, 105
3, 211802, Note_off_c, 1, 55, 100
3, 211808, Note_on_c, 1, 48, 105
3, 211839, Note_off_c, 1, 39, 100
3, 211840, Note_on_c, 1, 55, 105
3, 211867, Note_off_c, 1, 48, 100
3, 211872, Note_on_c, 1, 40, 105
3, 211897, Note_off_c, 1, 55, 100
3, 211904, Note_on_c, 1, 48, 105
3, 211930, Note_off_c, 1, 40, 100
3, 211936, Note_on_c, 1, 55, 105
3, 211961, Note_off_c, 1, 48, 100
3, 211968, Note_on_c, 1, 48, 105
3, 211991, Note_off_c, 1, 55, 100
3, 212000, Note_on_c, 1, 52, 105
3, 212028, Note_off_c, 1, 48, 100
3, 212032, Note_on_c, 1, 55, 105
3, 212063, Note_off_c, 1, 52, 100
3, 212064, Note_on_c, 1, 47, 105
3, 212088, Note_off_c, 1, 55, 100
3, 212096, Note_on_c, 1, 50, 105
3, 212126, Note_off_c, 1, 47, 100
3, 212128, Note_on_c, 1, 55, 105
3, 212157, Note_off_c, 1, 50, 100
3, 212160, Note_on_c, 1, 48, 105
3, 212191, Note_off_c, 1, 55, 100
3, 212192, Note_on_c, 1, 52, 105
3, 212219, Note_off_c, 1, 48, 100
3, 212224, Note_on_c, 1, 55, 105
3, 212255, Note_off_c, 1, 52, 100
3, 212256, Note_on_c, 1, 46, 105
3, 212286, Note_off_c, 1, 55, 100
3, 212288, Note_on_c, 1, 50, 105
3, 212317, Note_off_c, 1, 46, 100
3, 212320, Note_on_c, 1, 55, 105
3, 212349, Note_off_c, 1, 50, 100
3, 212352, Note_on_c, 1, 45, 105
3, 212382, Note_off_c, 1, 55, 100
3, 212384, Note_on_c, 1, 52, 105
3, 212413, Note_off_c, 1, 45, 100
3, 212416, Note_on_c, 1, 55, 105
3, 212444, Note_off_c, 1, 52, 100
3, 212448, Note_on_c, 1, 46, 105
3, 212474, Note_off_c, 1, 55, 100
3, 212480, Note_on_c, 1, 50, 105
3, 212502, Note_off_c, 1, 46, 100
3, 212512, Note_on_c, 1, 55, 105
3, 212542, Note_off_c, 1, 50, 100
3, 212544, Note_on_c, 1, 45, 105
3, 212566, Note_off_c, 1, 55, 100
3, 212576, Note_on_c, 1, 52, 104
3, 212596, Note_off_c, 1, 45, 100
3, 212608, Note_on_c, 1, 55, 103
3, 212634, Note_off_c, 1, 52, 100
3, 212640, Note_on_c, 1, 57, 102
3, 212669, Note_off_c, 1, 55, 100
3, 212672, Note_on_c, 1, 55, 101
3, 212695, Note_off_c, 1, 57, 100
3, 212704, Note_on_c, 1, 52, 100
3, 212729, Note_off_c, 1, 55, 100
3, 212736, Note_on_c, 1, 45, 99
3, 212764, Note_off_c, 1, 52, 100
3, 212768, Note_on_c, 1, 52, 97
3, 212790, Note_off_c, 1, 45, 100
3, 212800, Note_on_c, 1, 55, 96
3, 212825, Note_off_c, 1, 52, 100
3, 212832, Note_on_c, 1, 45, 95
3, 212857, Note_off_c, 1, 55, 100
3, 212864, Note_on_c, 1, 50, 94
3, 212887, Note_off_c, 1, 45, 100
3, 212896, Note_on_c, 1, 53, 93
3, 212925, Note_off_c, 1, 50, 100
3, 212928, Note_on_c, 1, 57, 92
3, 212953, Note_off_c, 1, 53, 100
3, 212960, Note_on_c, 1, 53, 91
3, 212988, Note_off_c, 1, 57, 100
3, 212992, Note_on_c, 1, 50, 89
3, 213021, Note_off_c, 1, 53, 100
3, 213024, Note_on_c, 1, 45, 88
3, 213050, Note_off_c, 1, 50, 100
3, 213056, Note_on_c, 1, 50, 87
3, 213085, Note_off_c, 1, 45, 100
3, 213088, Note_on_c, 1, 53, 86
3, 213116, Note_off_c, 1, 50, 100
3, 213120, Note_on_c, 1, 45, 85
3, 213148, Note_off_c, 1, 53, 100
3, 213152, Note_on_c, 1, 50, 84
3, 213176, Note_off_c, 1, 45, 100
3, 213184, Note_on_c, 1, 53, 82
3, 213213, Note_off_c, 1, 50, 100
3, 213216, Note_on_c, 1, 45, 81
3, 213245, Note_off_c, 1, 53, 100
3, 213248, Note_on_c, 1, 50, 80
3, 213279, Note_off_c, 1, 45, 100
3, 213280, Note_on_c, 1, 53, 79
3, 213310, Note_off_c, 1, 50, 100
3, 213312, Note_on_c, 1, 44, 78
3, 213340, Note_off_c, 1, 53, 100
3, 213344, Note_on_c, 1, 50, 77
3, 213374, Note_off_c, 1, 44, 100
3, 213376, Note_on_c, 1, 54, 76
3, 213405, Note_off_c, 1, 50, 100
3, 213408, Note_on_c, 1, 43, 75
3, 213437, Note_off_c, 1, 54, 100
3, 213440, Note_on_c, 1, 50, 75
3, 213463, Note_off_c, 1, 43, 100
3, 213472, Note_on_c, 1, 55, 76
3, 213501, Note_off_c, 1, 50, 100
3, 213504, Note_on_c, 1, 43, 76
3, 213534, Note_off_c, 1, 55, 100
3, 213536, Note_on_c, 1, 50, 77
3, 213564, Note_off_c, 1, 43, 100
3, 213568, Note_on_c, 1, 55, 78
3, 213596, Note_off_c, 1, 50, 100
3, 213600, Note_on_c, 1, 43, 78
3, 213630, Note_off_c, 1, 55, 100
3, 213632, Note_on_c, 1, 50, 79
3, 213653, Note_off_c, 1, 43, 100
3, 213664, Note_on_c, 1, 55, 80
3, 213693, Note_off_c, 1, 50, 100
3, 213696, Note_on_c, 1, 43, 80
3, 213726, Note_off_c, 1, 55, 100
3, 213728, Note_on_c, 1, 50, 81
3, 213753, Note_off_c, 1, 43, 100
3, 213760, Note_on_c, 1, 57, 82
3, 213790, Note_off_c, 1, 50, 100
3, 213792, Note_on_c, 1, 43, 82
3, 213820, Note_off_c, 1, 57, 100
3, 213824, Note_on_c, 1, 50, 83
3, 213855, Note_off_c, 1, 43, 100
3, 213856, Note_on_c, 1, 57, 84
3, 213883, Note_off_c, 1, 50, 100
3, 213888, Note_on_c, 1, 43, 84
3, 213916, Note_off_c, 1, 57, 100
3, 213920, Note_on_c, 1, 50, 75
3, 213949, Note_off_c, 1, 43, 100
3, 213952, Note_on_c, 1, 57, 75
3, 213981, Note_off_c, 1, 50, 100
3, 213984, Note_on_c, 1, 43, 75
3, 214013, Note_off_c, 1, 57, 100
3, 214016, Note_on_c, 1, 55, 75
3, 214047, Note_off_c, 1, 43, 100
3, 214048, Note_on_c, 1, 59, 75
3, 214078, Note_off_c, 1, 55, 100
3, 214080, Note_on_c, 1, 45, 75
3, 214108, Note_off_c, 1, 59, 100
3, 214112, Note_on_c, 1, 55, 75
3, 214141, Note_off_c, 1, 45, 100
3, 214145, Note_on_c, 1, 60, 75
3, 214172, Note_off_c, 1, 55, 100
3, 214176, Note_on_c, 1, 47, 75
3, 214204, Note_off_c, 1, 60, 100
3, 214208, Note_on_c, 1, 55, 75
3, 214230, Note_off_c, 1, 47, 100
3, 214240, Note_on_c, 1, 62, 75
3, 214269, Note_off_c, 1, 55, 100
3, 214272, Note_on_c, 1, 47, 75
3, 214292, Note_off_c, 1, 62, 100
3, 214304, Note_on_c, 1, 55, 75
3, 214328, Note_off_c, 1, 47, 100
3, 214336, Note_on_c, 1, 59, 75
3, 214363, Note_off_c, 1, 55, 100
3, 214368, Note_on_c, 1, 48, 75
3, 214392, Note_off_c, 1, 59, 100
3, 214400, Note_on_c, 1, 52, 75
3, 214428, Note_off_c, 1, 48, 100
3, 214432, Note_on_c, 1, 55, 75
3, 214460, Note_off_c, 1, 52, 100
3, 214464, Note_on_c, 1, 50, 75
3, 214492, Note_off_c, 1, 55, 100
3, 214496, Note_on_c, 1, 53, 75
3, 214520, Note_off_c, 1, 50, 100
3, 214528, Note_on_c, 1, 55, 75
3, 214551, Note_off_c, 1, 53, 100
3, 214560, Note_on_c, 1, 50, 75
3, 214589, Note_off_c, 1, 55, 100
3, 214592, Note_on_c, 1, 53, 75
3, 214615, Note_off_c, 1, 50, 100
3, 214624, Note_on_c, 1, 55, 75
3, 214652, Note_off_c, 1, 53, 100
3, 214656, Note_on_c, 1, 48, 75
3, 214684, Note_off_c, 1, 55, 100
3, 214688, Note_on_c, 1, 52, 75
3, 214712, Note_off_c, 1, 48, 100
3, 214720, Note_on_c, 1, 55, 75
3, 214744, Note_off_c, 1, 52, 100
3, 214752, Note_on_c, 1, 47, 75
3, 214775, Note_off_c, 1, 55, 100
3, 214784, Note_on_c, 1, 52, 75
3, 214809, Note_off_c, 1, 47, 100
3, 214816, Note_on_c, 1, 56, 75
3, 214845, Note_off_c, 1, 52, 100
3, 214848, Note_on_c, 1, 47, 75
3, 214876, Note_off_c, 1, 56, 100
3, 214880, Note_on_c, 1, 52, 75
3, 214910, Note_off_c, 1, 47, 100
3, 214912, Note_on_c, 1, 56, 75
3, 214941, Note_off_c, 1, 52, 100
3, 214944, Note_on_c, 1, 45, 75
3, 214974, Note_off_c, 1, 56, 100
3, 214976, Note_on_c, 1, 52, 75
3, 215004, Note_off_c, 1, 45, 100
3, 215008, Note_on_c, 1, 57, 75
3, 215039, Note_off_c, 1, 52, 100
3, 215040, Note_on_c, 1, 44, 75
3, 215067, Note_off_c, 1, 57, 100
3, 215072, Note_on_c, 1, 52, 75
3, 215103, Note_off_c, 1, 44, 100
3, 215104, Note_on_c, 1, 56, 75
3, 215127, Note_off_c, 1, 52, 100
3, 215136, Note_on_c, 1, 45, 75
3, 215159, Note_off_c, 1, 56, 100
3, 215168, Note_on_c, 1, 52, 75
3, 215195, Note_off_c, 1, 45, 100
3, 215200, Note_on_c, 1, 57, 75
3, 215223, Note_off_c, 1, 52, 100
3, 215232, Note_on_c, 1, 44, 76
3, 215255, Note_off_c, 1, 57, 100
3, 215264, Note_on_c, 1, 52, 76
3, 215290, Note_off_c, 1, 44, 100
3, 215296, Note_on_c, 1, 56, 76
3, 215322, Note_off_c, 1, 52, 100
3, 215328, Note_on_c, 1, 45, 77
3, 215351, Note_off_c, 1, 56, 100
3, 215360, Note_on_c, 1, 52, 77
3, 215383, Note_off_c, 1, 45, 100
3, 215393, Note_on_c, 1, 57, 78
3, 215416, Note_off_c, 1, 52, 100
3, 215424, Note_on_c, 1, 45, 78
3, 215450, Note_off_c, 1, 57, 100
3, 215456, Note_on_c, 1, 52, 78
3, 215479, Note_off_c, 1, 45, 100
3, 215488, Note_on_c, 1, 57, 79
3, 215506, Note_off_c, 1, 52, 100
3, 215520, Note_on_c, 1, 44, 79
3, 215548, Note_off_c, 1, 57, 100
3, 215552, Note_on_c, 1, 52, 79
3, 215581, Note_off_c, 1, 44, 100
3, 215584, Note_on_c, 1, 56, 80
3, 215611, Note_off_c, 1, 52, 100
3, 215616, Note_on_c, 1, 45, 80
3, 215647, Note_off_c, 1, 56, 100
3, 215648, Note_on_c, 1, 52, 80
3, 215672, Note_off_c, 1, 45, 100
3, 215680, Note_on_c, 1, 57, 81
3, 215711, Note_off_c, 1, 52, 100
3, 215712, Note_on_c, 1, 45, 81
3, 215742, Note_off_c, 1, 57, 100
3, 215744, Note_on_c, 1, 52, 82
3, 215770, Note_off_c, 1, 45, 100
3, 215776, Note_on_c, 1, 57, 82
3, 215802, Note_off_c, 1, 52, 100
3, 215808, Note_on_c, 1, 45, 82
3, 215831, Note_off_c, 1, 57, 100
3, 215840, Note_on_c, 1, 52, 83
3, 215868, Note_off_c, 1, 45, 100
3, 215873, Note_on_c, 1, 57, 83
3, 215901, Note_off_c, 1, 52, 100
3, 215904, Note_on_c, 1, 44, 83
3, 215936, Note_off_c, 1, 57, 100
3, 215936, Note_on_c, 1, 52, 84
3, 215963, Note_off_c, 1, 44, 100
3, 215969, Note_on_c, 1, 59, 84
3, 215991, Note_off_c, 1, 52, 100
3, 216000, Note_on_c, 1, 44, 85
3, 216032, Note_off_c, 1, 59, 100
3, 216032, Note_on_c, 1, 52, 85
3, 216062, Note_off_c, 1, 44, 100
3, 216064, Note_on_c, 1, 59, 85
3, 216095, Note_off_c, 1, 52, 100
3, 216096, Note_on_c, 1, 45, 86
3, 216124, Note_off_c, 1, 59, 100
3, 216128, Note_on_c, 1, 52, 86
3, 216159, Note_off_c, 1, 45, 100
3, 216160, Note_on_c, 1, 59, 86
3, 216191, Note_off_c, 1, 52, 100
3, 216192, Note_on_c, 1, 44, 87
3, 216223, Note_off_c, 1, 59, 100
3, 216224, Note_on_c, 1, 52, 87
3, 216252, Note_off_c, 1, 44, 100
3, 216256, Note_on_c, 1, 59, 88
3, 216286, Note_off_c, 1, 52, 100
3, 216288, Note_on_c, 1, 44, 88
3, 216315, Note_off_c, 1, 59, 100
3, 216320, Note_on_c, 1, 52, 88
3, 216349, Note_off_c, 1, 44, 100
3, 216352, Note_on_c, 1, 59, 89
3, 216381, Note_off_c, 1, 52, 100
3, 216384, Note_on_c, 1, 45, 89
3, 216409, Note_off_c, 1, 59, 100
3, 216416, Note_on_c, 1, 52, 89
3, 216444, Note_off_c, 1, 45, 100
3, 216448, Note_on_c, 1, 59, 90
3, 216477, Note_off_c, 1, 52, 100
3, 216480, Note_on_c, 1, 44, 90
3, 216509, Note_off_c, 1, 59, 100
3, 216512, Note_on_c, 1, 52, 91
3, 216540, Note_off_c, 1, 44, 100
3, 216544, Note_on_c, 1, 59, 91
3, 216567, Note_off_c, 1, 52, 100
3, 216576, Note_on_c, 1, 44, 91
3, 216604, Note_off_c, 1, 59, 100
3, 216608, Note_on_c, 1, 52, 92
3, 216629, Note_off_c, 1, 44, 100
3, 216640, Note_on_c, 1, 59, 92
3, 216667, Note_off_c, 1, 52, 100
3, 216672, Note_on_c, 1, 45, 92
3, 216699, Note_off_c, 1, 59, 100
3, 216704, Note_on_c, 1, 52, 93
3, 216726, Note_off_c, 1, 45, 100
3, 216736, Note_on_c, 1, 59, 93
3, 216758, Note_off_c, 1, 52, 100
3, 216768, Note_on_c, 1, 44, 94
3, 216795, Note_off_c, 1, 59, 100
3, 216800, Note_on_c, 1, 52, 94
3, 216822, Note_off_c, 1, 44, 100
3, 216832, Note_on_c, 1, 59, 94
3, 216860, Note_off_c, 1, 52, 100
3, 216864, Note_on_c, 1, 44, 95
3, 216886, Note_off_c, 1, 59, 100
3, 216896, Note_on_c, 1, 52, 95
3, 216916, Note_off_c, 1, 44, 100
3, 216928, Note_on_c, 1, 59, 95
3, 216956, Note_off_c, 1, 52, 100
3, 216960, Note_on_c, 1, 45, 96
3, 216991, Note_off_c, 1, 59, 100
3, 216992, Note_on_c, 1, 52, 96
3, 217015, Note_off_c, 1, 45, 100
3, 217024, Note_on_c, 1, 59, 97
3, 217054, Note_off_c, 1, 52, 100
3, 217056, Note_on_c, 1, 44, 97
3, 217085, Note_off_c, 1, 59, 100
3, 217088, Note_on_c, 1, 52, 97
3, 217116, Note_off_c, 1, 44, 100
3, 217120, Note_on_c, 1, 59, 98
3, 217151, Note_off_c, 1, 52, 100
3, 217152, Note_on_c, 1, 45, 98
3, 217180, Note_off_c, 1, 59, 100
3, 217184, Note_on_c, 1, 52, 98
3, 217206, Note_off_c, 1, 45, 100
3, 217216, Note_on_c, 1, 60, 99
3, 217244, Note_off_c, 1, 52, 100
3, 217248, Note_on_c, 1, 47, 99
3, 217273, Note_off_c, 1, 60, 100
3, 217280, Note_on_c, 1, 52, 100
3, 217300, Note_off_c, 1, 47, 100
3, 217312, Note_on_c, 1, 60, 100
3, 217340, Note_off_c, 1, 52, 100
3, 217344, Note_on_c, 1, 45, 100
3, 217366, Note_off_c, 1, 60, 100
3, 217376, Note_on_c, 1, 52, 101
3, 217398, Note_off_c, 1, 45, 100
3, 217408, Note_on_c, 1, 60, 101
3, 217432, Note_off_c, 1, 52, 100
3, 217440, Note_on_c, 1, 41, 101
3, 217461, Note_off_c, 1, 60, 100
3, 217472, Note_on_c, 1, 53, 102
3, 217499, Note_off_c, 1, 41, 100
3, 217504, Note_on_c, 1, 41, 102
3, 217528, Note_off_c, 1, 53, 100
3, 217536, Note_on_c, 1, 53, 103
3, 217563, Note_off_c, 1, 41, 100
3, 217568, Note_on_c, 1, 41, 103
3, 217591, Note_off_c, 1, 53, 100
3, 217600, Note_on_c, 1, 53, 103
3, 217627, Note_off_c, 1, 41, 100
3, 217632, Note_on_c, 1, 39, 104
3, 217661, Note_off_c, 1, 53, 100
3, 217664, Note_on_c, 1, 51, 104
3, 217690, Note_off_c, 1, 39, 100
3, 217696, Note_on_c, 1, 39, 104
3, 217717, Note_off_c, 1, 51, 100
3, 217728, Note_on_c, 1, 40, 105
3, 217756, Note_off_c, 1, 39, 100
3, 217760, Note_on_c, 1, 51, 104
3, 217789, Note_off_c, 1, 40, 100
3, 217792, Note_on_c, 1, 52, 102
3, 217819, Note_off_c, 1, 51, 100
3, 217824, Note_on_c, 1, 39, 100
3, 217855, Note_off_c, 1, 52, 100
3, 217856, Note_on_c, 1, 51, 98
3, 217886, Note_off_c, 1, 39, 100
3, 217888, Note_on_c, 1, 52, 97
3, 217913, Note_off_c, 1, 51, 100
3, 217920, Note_on_c, 1, 40, 95
3, 217945, Note_off_c, 1, 52, 100
3, 217952, Note_on_c, 1, 51, 93
3, 217983, Note_off_c, 1, 40, 100
3, 217984, Note_on_c, 1, 52, 91
3, 218012, Note_off_c, 1, 51, 100
3, 218016, Note_on_c, 1, 40, 90
3, 218041, Note_off_c, 1, 52, 100
3, 218048, Note_on_c, 1, 51, 88
3, 218077, Note_off_c, 1, 40, 100
3, 218080, Note_on_c, 1, 52, 86
3, 218108, Note_off_c, 1, 51, 100
3, 218112, Note_on_c, 1, 39, 84
3, 218141, Note_off_c, 1, 52, 100
3, 218144, Note_on_c, 1, 51, 83
3, 218173, Note_off_c, 1, 39, 100
3, 218176, Note_on_c, 1, 52, 81
3, 218205, Note_off_c, 1, 51, 100
3, 218208, Note_on_c, 1, 40, 79
3, 218238, Note_off_c, 1, 52, 100
3, 218240, Note_on_c, 1, 51, 77
3, 218266, Note_off_c, 1, 40, 100
3, 218272, Note_on_c, 1, 52, 76
3, 218302, Note_off_c, 1, 51, 100
3, 218304, Note_on_c, 1, 33, 75
3, 218333, Note_off_c, 1, 52, 100
3, 218336, Note_on_c, 1, 44, 75
3, 218366, Note_off_c, 1, 33, 100
3, 218368, Note_on_c, 1, 45, 75
3, 218399, Note_off_c, 1, 44, 100
3, 218400, Note_on_c, 1, 32, 76
3, 218427, Note_off_c, 1, 45, 100
3, 218432, Note_on_c, 1, 44, 76
3, 218463, Note_off_c, 1, 32, 100
3, 218464, Note_on_c, 1, 45, 76
3, 218490, Note_off_c, 1, 44, 100
3, 218496, Note_on_c, 1, 33, 77
3, 218522, Note_off_c, 1, 45, 100
3, 218528, Note_on_c, 1, 44, 77
3, 218551, Note_off_c, 1, 33, 100
3, 218560, Note_on_c, 1, 45, 77
3, 218585, Note_off_c, 1, 44, 100
3, 218592, Note_on_c, 1, 31, 78
3, 218623, Note_off_c, 1, 45, 100
3, 218624, Note_on_c, 1, 42, 78
3, 218655, Note_off_c, 1, 31, 100
3, 218656, Note_on_c, 1, 43, 78
3, 218685, Note_off_c, 1, 42, 100
3, 218688, Note_on_c, 1, 30, 79
3, 218710, Note_off_c, 1, 43, 100
3, 218720, Note_on_c, 1, 42, 79
3, 218748, Note_off_c, 1, 30, 100
3, 218752, Note_on_c, 1, 43, 79
3, 218779, Note_off_c, 1, 42, 100
3, 218784, Note_on_c, 1, 31, 80
3, 218808, Note_off_c, 1, 43, 100
3, 218816, Note_on_c, 1, 42, 80
3, 218846, Note_off_c, 1, 31, 100
3, 218848, Note_on_c, 1, 43, 80
3, 218878, Note_off_c, 1, 42, 100
3, 218880, Note_on_c, 1, 31, 81
3, 218907, Note_off_c, 1, 43, 100
3, 218912, Note_on_c, 1, 42, 81
3, 218938, Note_off_c, 1, 31, 100
3, 218944, Note_on_c, 1, 43, 81
3, 218970, Note_off_c, 1, 42, 100
3, 218976, Note_on_c, 1, 30, 82
3, 219005, Note_off_c, 1, 43, 100
3, 219008, Note_on_c, 1, 42, 82
3, 219031, Note_off_c, 1, 30, 100
3, 219040, Note_on_c, 1, 43, 82
3, 219067, Note_off_c, 1, 42, 100
3, 219072, Note_on_c, 1, 31, 83
3, 219098, Note_off_c, 1, 43, 100
3, 219104, Note_on_c, 1, 42, 83
3, 219125, Note_off_c, 1, 31, 100
3, 219136, Note_on_c, 1, 43, 83
3, 219162, Note_off_c, 1, 42, 100
3, 219168, Note_on_c, 1, 31, 84
3, 219196, Note_off_c, 1, 43, 100
3, 219200, Note_on_c, 1, 42, 84
3, 219225, Note_off_c, 1, 31, 100
3, 219232, Note_on_c, 1, 43, 84
3, 219255, Note_off_c, 1, 42, 100
3, 219264, Note_on_c, 1, 30, 85
3, 219292, Note_off_c, 1, 43, 100
3, 219296, Note_on_c, 1, 42, 85
3, 219319, Note_off_c, 1, 30, 100
3, 219328, Note_on_c, 1, 43, 85
3, 219359, Note_off_c, 1, 42, 100
3, 219360, Note_on_c, 1, 31, 86
3, 219382, Note_off_c, 1, 43, 100
3, 219392, Note_on_c, 1, 42, 86
3, 219416, Note_off_c, 1, 31, 100
3, 219424, Note_on_c, 1, 43, 86
3, 219453, Note_off_c, 1, 42, 100
3, 219456, Note_on_c, 1, 31, 87
3, 219484, Note_off_c, 1, 43, 100
3, 219488, Note_on_c, 1, 36, 87
3, 219512, Note_off_c, 1, 31, 100
3, 219520, Note_on_c, 1, 43, 87
3, 219548, Note_off_c, 1, 36, 100
3, 219552, Note_on_c, 1, 30, 88
3, 219583, Note_off_c, 1, 43, 100
3, 219584, Note_on_c, 1, 36, 88
3, 219612, Note_off_c, 1, 30, 100
3, 219616, Note_on_c, 1, 42, 88
3, 219639, Note_off_c, 1, 36, 100
3, 219648, Note_on_c, 1, 31, 89
3, 219678, Note_off_c, 1, 42, 100
3, 219680, Note_on_c, 1, 36, 89
3, 219709, Note_off_c, 1, 31, 100
3, 219712, Note_on_c, 1, 43, 89
3, 219739, Note_off_c, 1, 36, 100
3, 219744, Note_on_c, 1, 31, 90
3, 219773, Note_off_c, 1, 43, 100
3, 219776, Note_on_c, 1, 36, 90
3, 219798, Note_off_c, 1, 31, 100
3, 219808, Note_on_c, 1, 43, 90
3, 219839, Note_off_c, 1, 36, 100
3, 219840, Note_on_c, 1, 30, 91
3, 219870, Note_off_c, 1, 43, 100
3, 219872, Note_on_c, 1, 36, 91
3, 219902, Note_off_c, 1, 30, 100
3, 219904, Note_on_c, 1, 42, 91
3, 219929, Note_off_c, 1, 36, 100
3, 219936, Note_on_c, 1, 31, 92
3, 219963, Note_off_c, 1, 42, 100
3, 219968, Note_on_c, 1, 36, 92
3, 219996, Note_off_c, 1, 31, 100
3, 220000, Note_on_c, 1, 43, 92
3, 220027, Note_off_c, 1, 36, 100
3, 220032, Note_on_c, 1, 29, 93
3, 220061, Note_off_c, 1, 43, 100
3, 220064, Note_on_c, 1, 36, 93
3, 220095, Note_off_c, 1, 29, 100
3, 220096, Note_on_c, 1, 41, 93
3, 220124, Note_off_c, 1, 36, 100
3, 220128, Note_on_c, 1, 29, 94
3, 220156, Note_off_c, 1, 41, 100
3, 220160, Note_on_c, 1, 36, 94
3, 220189, Note_off_c, 1, 29, 100
3, 220192, Note_on_c, 1, 41, 94
3, 220220, Note_off_c, 1, 36, 100
3, 220224, Note_on_c, 1, 29, 95
3, 220255, Note_off_c, 1, 41, 100
3, 220256, Note_on_c, 1, 36, 95
3, 220286, Note_off_c, 1, 29, 100
3, 220288, Note_on_c, 1, 41, 95
3, 220319, Note_off_c, 1, 36, 100
3, 220320, Note_on_c, 1, 31, 96
3, 220343, Note_off_c, 1, 41, 100
3, 220352, Note_on_c, 1, 36, 96
3, 220380, Note_off_c, 1, 31, 100
3, 220384, Note_on_c, 1, 38, 96
3, 220407, Note_off_c, 1, 36, 100
3, 220416, Note_on_c, 1, 43, 97
3, 220445, Note_off_c, 1, 38, 100
3, 220448, Note_on_c, 1, 48, 97
3, 220472, Note_off_c, 1, 43, 100
3, 220480, Note_on_c, 1, 50, 97
3, 220505, Note_off_c, 1, 48, 100
3, 220512, Note_on_c, 1, 55, 98
3, 220542, Note_off_c, 1, 50, 100
3, 220544, Note_on_c, 1, 52, 98
3, 220572, Note_off_c, 1, 55, 100
3, 220576, Note_on_c, 1, 48, 98
3, 220602, Note_off_c, 1, 52, 100
3, 220608, Note_on_c, 1, 43, 99
3, 220638, Note_off_c, 1, 48, 100
3, 220640, Note_on_c, 1, 48, 99
3, 220668, Note_off_c, 1, 43, 100
3, 220672, Note_on_c, 1, 50, 99
3, 220697, Note_off_c, 1, 48, 100
3, 220704, Note_on_c, 1, 55, 100
3, 220731, Note_off_c, 1, 50, 100
3, 220736, Note_on_c, 1, 50, 100
3, 220767, Note_off_c, 1, 55, 100
3, 220768, Note_on_c, 1, 48, 100
3, 220797, Note_off_c, 1, 50, 100
3, 220800, Note_on_c, 1, 43, 101
3, 220824, Note_off_c, 1, 48, 100
3, 220832, Note_on_c, 1, 55, 101
3, 220863, Note_off_c, 1, 43, 100
3, 220864, Note_on_c, 1, 60, 101
3, 220893, Note_off_c, 1, 55, 100
3, 220896, Note_on_c, 1, 43, 102
3, 220924, Note_off_c, 1, 60, 100
3, 220928, Note_on_c, 1, 55, 102
3, 220955, Note_off_c, 1, 43, 100
3, 220960, Note_on_c, 1, 59, 102
3, 220991, Note_off_c, 1, 55, 100
3, 220992, Note_on_c, 1, 45, 103
3, 221023, Note_off_c, 1, 59, 100
3, 221024, Note_on_c, 1, 55, 103
3, 221052, Note_off_c, 1, 45, 100
3, 221056, Note_on_c, 1, 60, 103
3, 221087, Note_off_c, 1, 55, 100
3, 221088, Note_on_c, 1, 47, 104
3, 221115, Note_off_c, 1, 60, 100
3, 221120, Note_on_c, 1, 55, 104
3, 221144, Note_off_c, 1, 47, 100
3, 221152, Note_on_c, 1, 62, 104
3, 221175, Note_off_c, 1, 55, 100
3, 221184, Note_on_c, 1, 47, 105
3, 221208, Note_off_c, 1, 62, 100
3, 221216, Note_on_c, 1, 55, 102
3, 221242, Note_off_c, 1, 47, 100
3, 221248, Note_on_c, 1, 59, 98
3, 221272, Note_off_c, 1, 55, 100
3, 221280, Note_on_c, 1, 43, 94
3, 221308, Note_off_c, 1, 59, 100
3, 221312, Note_on_c, 1, 55, 91
3, 221337, Note_off_c, 1, 43, 100
3, 221344, Note_on_c, 1, 62, 87
3, 221372, Note_off_c, 1, 55, 100
3, 221376, Note_on_c, 1, 48, 83
3, 221401, Note_off_c, 1, 62, 100
3, 221408, Note_on_c, 1, 55, 79
3, 221433, Note_off_c, 1, 48, 100
3, 221440, Note_on_c, 1, 60, 76
3, 221466, Note_off_c, 1, 55, 100
3, 221472, Note_on_c, 1, 48, 75
3, 221500, Note_off_c, 1, 60, 100
3, 221504, Note_on_c, 1, 55, 75
3, 221525, Note_off_c, 1, 48, 100
3, 221536, Note_on_c, 1, 60, 75
3, 221558, Note_off_c, 1, 55, 100
3, 221568, Note_on_c, 1, 47, 75
3, 221596, Note_off_c, 1, 60, 100
3, 221600, Note_on_c, 1, 55, 75
3, 221625, Note_off_c, 1, 47, 100
3, 221632, Note_on_c, 1, 59, 75
3, 221656, Note_off_c, 1, 55, 100
3, 221664, Note_on_c, 1, 48, 75
3, 221688, Note_off_c, 1, 59, 100
3, 221696, Note_on_c, 1, 55, 75
3, 221727, Note_off_c, 1, 48, 100
3, 221728, Note_on_c, 1, 60, 75
3, 221749, Note_off_c, 1, 55, 100
3, 221760, Note_on_c, 1, 44, 75
3, 221788, Note_off_c, 1, 60, 100
3, 221792, Note_on_c, 1, 52, 75
3, 221819, Note_off_c, 1, 44, 100
3, 221824, Note_on_c, 1, 56, 75
3, 221847, Note_off_c, 1, 52, 100
3, 221856, Note_on_c, 1, 40, 75
3, 221881, Note_off_c, 1, 56, 100
3, 221888, Note_on_c, 1, 52, 75
3, 221910, Note_off_c, 1, 40, 100
3, 221920, Note_on_c, 1, 59, 75
3, 221947, Note_off_c, 1, 52, 100
3, 221952, Note_on_c, 1, 45, 75
3, 221975, Note_off_c, 1, 59, 100
3, 221984, Note_on_c, 1, 52, 75
3, 222010, Note_off_c, 1, 45, 100
3, 222016, Note_on_c, 1, 57, 75
3, 222045, Note_off_c, 1, 52, 100
3, 222048, Note_on_c, 1, 45, 75
3, 222071, Note_off_c, 1, 57, 100
3, 222080, Note_on_c, 1, 52, 75
3, 222106, Note_off_c, 1, 45, 100
3, 222112, Note_on_c, 1, 57, 75
3, 222137, Note_off_c, 1, 52, 100
3, 222144, Note_on_c, 1, 44, 75
3, 222170, Note_off_c, 1, 57, 100
3, 222176, Note_on_c, 1, 52, 75
3, 222202, Note_off_c, 1, 44, 100
3, 222208, Note_on_c, 1, 56, 75
3, 222237, Note_off_c, 1, 52, 100
3, 222240, Note_on_c, 1, 45, 75
3, 222266, Note_off_c, 1, 56, 100
3, 222272, Note_on_c, 1, 52, 75
3, 222300, Note_off_c, 1, 45, 100
3, 222304, Note_on_c, 1, 57, 75
3, 222335, Note_off_c, 1, 52, 100
3, 222336, Note_on_c, 1, 40, 75
3, 222365, Note_off_c, 1, 57, 100
3, 222368, Note_on_c, 1, 48, 75
3, 222397, Note_off_c, 1, 40, 100
3, 222400, Note_on_c, 1, 52, 75
3, 222426, Note_off_c, 1, 48, 100
3, 222432, Note_on_c, 1, 36, 75
3, 222460, Note_off_c, 1, 52, 100
3, 222464, Note_on_c, 1, 48, 75
3, 222493, Note_off_c, 1, 36, 100
3, 222496, Note_on_c, 1, 55, 75
3, 222527, Note_off_c, 1, 48, 100
3, 222528, Note_on_c, 1, 41, 75
3, 222556, Note_off_c, 1, 55, 100
3, 222560, Note_on_c, 1, 48, 75
3, 222585, Note_off_c, 1, 41, 100
3, 222592, Note_on_c, 1, 53, 75
3, 222615, Note_off_c, 1, 48, 100
3, 222624, Note_on_c, 1, 41, 75
3, 222655, Note_off_c, 1, 53, 100
3, 222656, Note_on_c, 1, 48, 75
3, 222685, Note_off_c, 1, 41, 100
3, 222688, Note_on_c, 1, 53, 75
3, 222717, Note_off_c, 1, 48, 100
3, 222720, Note_on_c, 1, 40, 75
3, 222750, Note_off_c, 1, 53, 100
3, 222752, Note_on_c, 1, 45, 75
3, 222779, Note_off_c, 1, 40, 100
3, 222784, Note_on_c, 1, 52, 75
3, 222806, Note_off_c, 1, 45, 100
3, 222816, Note_on_c, 1, 38, 75
3, 222840, Note_off_c, 1, 52, 100
3, 222848, Note_on_c, 1, 45, 75
3, 222870, Note_off_c, 1, 38, 100
3, 222880, Note_on_c, 1, 50, 75
3, 222905, Note_off_c, 1, 45, 100
3, 222912, Note_on_c, 1, 37, 75
3, 222939, Note_off_c, 1, 50, 100
3, 222944, Note_on_c, 1, 45, 75
3, 222973, Note_off_c, 1, 37, 100
3, 222976, Note_on_c, 1, 49, 75
3, 223004, Note_off_c, 1, 45, 100
3, 223008, Note_on_c, 1, 33, 75
3, 223034, Note_off_c, 1, 49, 100
3, 223040, Note_on_c, 1, 45, 75
3, 223068, Note_off_c, 1, 33, 100
3, 223073, Note_on_c, 1, 52, 75
3, 223101, Note_off_c, 1, 45, 100
3, 223104, Note_on_c, 1, 38, 75
3, 223134, Note_off_c, 1, 52, 100
3, 223136, Note_on_c, 1, 45, 75
3, 223167, Note_off_c, 1, 38, 100
3, 223168, Note_on_c, 1, 50, 75
3, 223198, Note_off_c, 1, 45, 100
3, 223200, Note_on_c, 1, 38, 75
3, 223228, Note_off_c, 1, 50, 100
3, 223232, Note_on_c, 1, 45, 75
3, 223261, Note_off_c, 1, 38, 100
3, 223264, Note_on_c, 1, 50, 75
3, 223294, Note_off_c, 1, 45, 100
3, 223296, Note_on_c, 1, 37, 75
3, 223326, Note_off_c, 1, 50, 100
3, 223328, Note_on_c, 1, 45, 75
3, 223359, Note_off_c, 1, 37, 100
3, 223360, Note_on_c, 1, 49, 75
3, 223389, Note_off_c, 1, 45, 100
3, 223392, Note_on_c, 1, 38, 75
3, 223421, Note_off_c, 1, 49, 100
3, 223424, Note_on_c, 1, 45, 75
3, 223452, Note_off_c, 1, 38, 100
3, 223456, Note_on_c, 1, 50, 75
3, 223485, Note_off_c, 1, 45, 100
3, 223488, Note_on_c, 1, 36, 75
3, 223518, Note_off_c, 1, 50, 100
3, 223520, Note_on_c, 1, 41, 75
3, 223547, Note_off_c, 1, 36, 100
3, 223552, Note_on_c, 1, 48, 75
3, 223580, Note_off_c, 1, 41, 100
3, 223584, Note_on_c, 1, 35, 76
3, 223615, Note_off_c, 1, 48, 100
3, 223616, Note_on_c, 1, 41, 76
3, 223643, Note_off_c, 1, 35, 100
3, 223648, Note_on_c, 1, 47, 76
3, 223677, Note_off_c, 1, 41, 100
3, 223680, Note_on_c, 1, 36, 77
3, 223710, Note_off_c, 1, 47, 100
3, 223712, Note_on_c, 1, 41, 77
3, 223741, Note_off_c, 1, 36, 100
3, 223744, Note_on_c, 1, 48, 77
3, 223772, Note_off_c, 1, 41, 100
3, 223776, Note_on_c, 1, 35, 78
3, 223802, Note_off_c, 1, 48, 100
3, 223808, Note_on_c, 1, 43, 78
3, 223835, Note_off_c, 1, 35, 100
3, 223840, Note_on_c, 1, 47, 79
3, 223871, Note_off_c, 1, 43, 100
3, 223872, Note_on_c, 1, 34, 79
3, 223897, Note_off_c, 1, 47, 100
3, 223904, Note_on_c, 1, 43, 79
3, 223933, Note_off_c, 1, 34, 100
3, 223936, Note_on_c, 1, 46, 80
3, 223966, Note_off_c, 1, 43, 100
3, 223968, Note_on_c, 1, 35, 80
3, 223997, Note_off_c, 1, 46, 100
3, 224000, Note_on_c, 1, 43, 80
3, 224028, Note_off_c, 1, 35, 100
3, 224032, Note_on_c, 1, 47, 81
3, 224062, Note_off_c, 1, 43, 100
3, 224064, Note_on_c, 1, 35, 81
3, 224090, Note_off_c, 1, 47, 100
3, 224096, Note_on_c, 1, 43, 82
3, 224124, Note_off_c, 1, 35, 100
3, 224128, Note_on_c, 1, 47, 82
3, 224151, Note_off_c, 1, 43, 100
3, 224160, Note_on_c, 1, 34, 82
3, 224185, Note_off_c, 1, 47, 100
3, 224192, Note_on_c, 1, 43, 83
3, 224222, Note_off_c, 1, 34, 100
3, 224224, Note_on_c, 1, 46, 83
3, 224249, Note_off_c, 1, 43, 100
3, 224256, Note_on_c, 1, 35, 83
3, 224284, Note_off_c, 1, 46, 100
3, 224288, Note_on_c, 1, 43, 84
3, 224316, Note_off_c, 1, 35, 100
3, 224320, Note_on_c, 1, 47, 84
3, 224349, Note_off_c, 1, 43, 100
3, 224352, Note_on_c, 1, 31, 85
3, 224375, Note_off_c, 1, 47, 100
3, 224384, Note_on_c, 1, 42, 85
3, 224412, Note_off_c, 1, 31, 100
3, 224416, Note_on_c, 1, 43, 85
3, 224443, Note_off_c, 1, 42, 100
3, 224448, Note_on_c, 1, 33, 86
3, 224476, Note_off_c, 1, 43, 100
3, 224480, Note_on_c, 1, 43, 86
3, 224509, Note_off_c, 1, 33, 100
3, 224512, Note_on_c, 1, 45, 86
3, 224539, Note_off_c, 1, 43, 100
3, 224544, Note_on_c, 1, 35, 87
3, 224574, Note_off_c, 1, 45, 100
3, 224576, Note_on_c, 1, 43, 87
3, 224600, Note_off_c, 1, 35, 100
3, 224608, Note_on_c, 1, 47, 88
3, 224634, Note_off_c, 1, 43, 100
3, 224640, Note_on_c, 1, 36, 88
3, 224669, Note_off_c, 1, 47, 100
3, 224672, Note_on_c, 1, 43, 88
3, 224699, Note_off_c, 1, 36, 100
3, 224704, Note_on_c, 1, 48, 89
3, 224730, Note_off_c, 1, 43, 100
3, 224736, Note_on_c, 1, 35, 89
3, 224762, Note_off_c, 1, 48, 100
3, 224768, Note_on_c, 1, 43, 89
3, 224795, Note_off_c, 1, 35, 100
3, 224800, Note_on_c, 1, 47, 90
3, 224824, Note_off_c, 1, 43, 100
3, 224832, Note_on_c, 1, 36, 90
3, 224858, Note_off_c, 1, 47, 100
3, 224864, Note_on_c, 1, 43, 91
3, 224888, Note_off_c, 1, 36, 100
3, 224896, Note_on_c, 1, 48, 91
3, 224924, Note_off_c, 1, 43, 100
3, 224928, Note_on_c, 1, 36, 91
3, 224950, Note_off_c, 1, 48, 100
3, 224960, Note_on_c, 1, 47, 92
3, 224989, Note_off_c, 1, 36, 100
3, 224992, Note_on_c, 1, 48, 92
3, 225022, Note_off_c, 1, 47, 100
3, 225024, Note_on_c, 1, 38, 92
3, 225054, Note_off_c, 1, 48, 100
3, 225056, Note_on_c, 1, 48, 93
3, 225087, Note_off_c, 1, 38, 100
3, 225088, Note_on_c, 1, 50, 93
3, 225119, Note_off_c, 1, 48, 100
3, 225120, Note_on_c, 1, 40, 94
3, 225150, Note_off_c, 1, 50, 100
3, 225152, Note_on_c, 1, 48, 94
3, 225180, Note_off_c, 1, 40, 100
3, 225184, Note_on_c, 1, 52, 94
3, 225212, Note_off_c, 1, 48, 100
3, 225216, Note_on_c, 1, 41, 95
3, 225243, Note_off_c, 1, 52, 100
3, 225248, Note_on_c, 1, 48, 95
3, 225271, Note_off_c, 1, 41, 100
3, 225280, Note_on_c, 1, 53, 95
3, 225311, Note_off_c, 1, 48, 100
3, 225312, Note_on_c, 1, 41, 96
3, 225341, Note_off_c, 1, 53, 100
3, 225344, Note_on_c, 1, 48, 96
3, 225370, Note_off_c, 1, 41, 100
3, 225376, Note_on_c, 1, 53, 97
3, 225398, Note_off_c, 1, 48, 100
3, 225408, Note_on_c, 1, 42, 97
3, 225429, Note_off_c, 1, 53, 100
3, 225440, Note_on_c, 1, 48, 97
3, 225463, Note_off_c, 1, 42, 100
3, 225472, Note_on_c, 1, 54, 98
3, 225502, Note_off_c, 1, 48, 100
3, 225504, Note_on_c, 1, 43, 98
3, 225534, Note_off_c, 1, 54, 100
3, 225536, Note_on_c, 1, 48, 98
3, 225567, Note_off_c, 1, 43, 100
3, 225568, Note_on_c, 1, 55, 99
3, 225599, Note_off_c, 1, 48, 100
3, 225600, Note_on_c, 1, 43, 99
3, 225629, Note_off_c, 1, 55, 100
3, 225632, Note_on_c, 1, 47, 100
3, 225659, Note_off_c, 1, 43, 100
3, 225664, Note_on_c, 1, 55, 100
3, 225692, Note_off_c, 1, 47, 100
3, 225696, Note_on_c, 1, 43, 100
3, 225724, Note_off_c, 1, 55, 100
3, 225728, Note_on_c, 1, 48, 101
3, 225758, Note_off_c, 1, 43, 100
3, 225760, Note_on_c, 1, 55, 101
3, 225789, Note_off_c, 1, 48, 100
3, 225792, Note_on_c, 1, 43, 101
3, 225819, Note_off_c, 1, 55, 100
3, 225824, Note_on_c, 1, 47, 102
3, 225855, Note_off_c, 1, 43, 100
3, 225856, Note_on_c, 1, 55, 102
3, 225883, Note_off_c, 1, 47, 100
3, 225888, Note_on_c, 1, 43, 103
3, 225914, Note_off_c, 1, 55, 100
3, 225920, Note_on_c, 1, 48, 103
3, 225944, Note_off_c, 1, 43, 100
3, 225952, Note_on_c, 1, 55, 103
3, 225982, Note_off_c, 1, 48, 100
3, 225984, Note_on_c, 1, 43, 104
3, 226011, Note_off_c, 1, 55, 100
3, 226016, Note_on_c, 1, 47, 104
3, 226045, Note_off_c, 1, 43, 100
3, 226048, Note_on_c, 1, 55, 104
3, 226076, Note_off_c, 1, 47, 100
3, 226080, Note_off_c, 1, 55, 100
3, 226080, Note_on_c, 1, 67, 115
3, 226080, Note_on_c, 1, 55, 115
3, 226271, Note_off_c, 1, 67, 100
3, 226271, Note_off_c, 1, 55, 100
3, 226272, Note_on_c, 1, 64, 96
3, 226272, Note_on_c, 1, 52, 96
3, 226367, Note_off_c, 1, 64, 100
3, 226367, Note_off_c, 1, 52, 100
3, 226368, Note_on_c, 1, 64, 80
3, 226368, Note_on_c, 1, 52, 80
3, 226655, Note_off_c, 1, 64, 100
3, 226655, Note_off_c, 1, 52, 100
3, 226656, Note_on_c, 1, 64, 110
3, 226656, Note_on_c, 1, 52, 110
3, 226847, Note_off_c, 1, 64, 100
3, 226847, Note_off_c, 1, 52, 100
3, 226848, Note_on_c, 1, 60, 96
3, 226848, Note_on_c, 1, 48, 96
3, 226943, Note_off_c, 1, 60, 100
3, 226943, Note_off_c, 1, 48, 100
3, 226944, Note_on_c, 1, 60, 80
3, 226944, Note_on_c, 1, 48, 80
3, 227231, Note_off_c, 1, 60, 100
3, 227231, Note_off_c, 1, 48, 100
3, 227232, Note_on_c, 1, 60, 110
3, 227232, Note_on_c, 1, 48, 110
3, 227420, Note_off_c, 1, 48, 100
3, 227423, Note_off_c, 1, 60, 100
3, 227424, Note_on_c, 1, 57, 96
3, 227424, Note_on_c, 1, 45, 96
3, 227516, Note_off_c, 1, 57, 100
3, 227516, Note_off_c, 1, 45, 100
3, 227520, Note_on_c, 1, 57, 80
3, 227520, Note_on_c, 1, 45, 80
3, 227804, Note_off_c, 1, 57, 100
3, 227804, Note_off_c, 1, 45, 100
3, 227808, Note_on_c, 1, 49, 80
3, 227840, Note_on_c, 1, 57, 80
3, 227863, Note_off_c, 1, 49, 100
3, 227872, Note_on_c, 1, 61, 80
3, 227895, Note_off_c, 1, 57, 100
3, 227904, Note_on_c, 1, 45, 80
3, 227932, Note_off_c, 1, 61, 100
3, 227936, Note_on_c, 1, 57, 80
3, 227960, Note_off_c, 1, 45, 100
3, 227968, Note_on_c, 1, 64, 80
3, 227991, Note_off_c, 1, 57, 100
3, 228000, Note_on_c, 1, 50, 80
3, 228023, Note_off_c, 1, 64, 100
3, 228032, Note_on_c, 1, 57, 80
3, 228058, Note_off_c, 1, 50, 100
3, 228064, Note_on_c, 1, 62, 80
3, 228089, Note_off_c, 1, 57, 100
3, 228096, Note_on_c, 1, 50, 80
3, 228118, Note_off_c, 1, 62, 100
3, 228128, Note_on_c, 1, 57, 80
3, 228150, Note_off_c, 1, 50, 100
3, 228160, Note_on_c, 1, 62, 80
3, 228185, Note_off_c, 1, 57, 100
3, 228192, Note_on_c, 1, 49, 80
3, 228220, Note_off_c, 1, 62, 100
3, 228224, Note_on_c, 1, 57, 81
3, 228249, Note_off_c, 1, 49, 100
3, 228256, Note_on_c, 1, 61, 81
3, 228280, Note_off_c, 1, 57, 100
3, 228288, Note_on_c, 1, 50, 81
3, 228315, Note_off_c, 1, 61, 100
3, 228320, Note_on_c, 1, 57, 81
3, 228344, Note_off_c, 1, 50, 100
3, 228352, Note_on_c, 1, 62, 82
3, 228382, Note_off_c, 1, 57, 100
3, 228384, Note_on_c, 1, 50, 82
3, 228413, Note_off_c, 1, 62, 100
3, 228416, Note_on_c, 1, 57, 82
3, 228445, Note_off_c, 1, 50, 100
3, 228448, Note_on_c, 1, 62, 83
3, 228477, Note_off_c, 1, 57, 100
3, 228480, Note_on_c, 1, 48, 83
3, 228502, Note_off_c, 1, 62, 100
3, 228512, Note_on_c, 1, 57, 83
3, 228541, Note_off_c, 1, 48, 100
3, 228544, Note_on_c, 1, 60, 83
3, 228572, Note_off_c, 1, 57, 100
3, 228576, Note_on_c, 1, 50, 84
3, 228604, Note_off_c, 1, 60, 100
3, 228608, Note_on_c, 1, 57, 84
3, 228638, Note_off_c, 1, 50, 100
3, 228640, Note_on_c, 1, 62, 84
3, 228670, Note_off_c, 1, 57, 100
3, 228672, Note_on_c, 1, 48, 85
3, 228701, Note_off_c, 1, 62, 100
3, 228704, Note_on_c, 1, 53, 85
3, 228734, Note_off_c, 1, 48, 100
3, 228736, Note_on_c, 1, 60, 85
3, 228764, Note_off_c, 1, 53, 100
3, 228768, Note_on_c, 1, 47, 85
3, 228798, Note_off_c, 1, 60, 100
3, 228800, Note_on_c, 1, 53, 86
3, 228828, Note_off_c, 1, 47, 100
3, 228832, Note_on_c, 1, 59, 86
3, 228855, Note_off_c, 1, 53, 100
3, 228864, Note_on_c, 1, 48, 86
3, 228894, Note_off_c, 1, 59, 100
3, 228896, Note_on_c, 1, 53, 87
3, 228923, Note_off_c, 1, 48, 100
3, 228928, Note_on_c, 1, 60, 87
3, 228957, Note_off_c, 1, 53, 100
3, 228960, Note_on_c, 1, 47, 87
3, 228990, Note_off_c, 1, 60, 100
3, 228992, Note_on_c, 1, 55, 87
3, 229022, Note_off_c, 1, 47, 100
3, 229024, Note_on_c, 1, 59, 88
3, 229052, Note_off_c, 1, 55, 100
3, 229056, Note_on_c, 1, 46, 88
3, 229085, Note_off_c, 1, 59, 100
3, 229088, Note_on_c, 1, 55, 88
3, 229115, Note_off_c, 1, 46, 100
3, 229120, Note_on_c, 1, 58, 88
3, 229143, Note_off_c, 1, 55, 100
3, 229152, Note_on_c, 1, 47, 89
3, 229183, Note_off_c, 1, 58, 100
3, 229184, Note_on_c, 1, 55, 89
3, 229208, Note_off_c, 1, 47, 100
3, 229216, Note_on_c, 1, 59, 89
3, 229242, Note_off_c, 1, 55, 100
3, 229248, Note_on_c, 1, 47, 90
3, 229273, Note_off_c, 1, 59, 100
3, 229280, Note_on_c, 1, 55, 90
3, 229311, Note_off_c, 1, 47, 100
3, 229312, Note_on_c, 1, 59, 90
3, 229338, Note_off_c, 1, 55, 100
3, 229344, Note_on_c, 1, 46, 90
3, 229368, Note_off_c, 1, 59, 100
3, 229376, Note_on_c, 1, 55, 91
3, 229398, Note_off_c, 1, 46, 100
3, 229408, Note_on_c, 1, 58, 91
3, 229431, Note_off_c, 1, 55, 100
3, 229440, Note_on_c, 1, 47, 91
3, 229463, Note_off_c, 1, 58, 100
3, 229472, Note_on_c, 1, 55, 92
3, 229501, Note_off_c, 1, 47, 100
3, 229504, Note_on_c, 1, 59, 92
3, 229528, Note_off_c, 1, 55, 100
3, 229536, Note_on_c, 1, 47, 92
3, 229565, Note_off_c, 1, 59, 100
3, 229568, Note_on_c, 1, 55, 92
3, 229597, Note_off_c, 1, 47, 100
3, 229600, Note_on_c, 1, 59, 93
3, 229631, Note_off_c, 1, 55, 100
3, 229632, Note_on_c, 1, 46, 93
3, 229663, Note_off_c, 1, 59, 100
3, 229664, Note_on_c, 1, 55, 93
3, 229695, Note_off_c, 1, 46, 100
3, 229696, Note_on_c, 1, 58, 94
3, 229723, Note_off_c, 1, 55, 100
3, 229728, Note_on_c, 1, 47, 94
3, 229757, Note_off_c, 1, 58, 100
3, 229760, Note_on_c, 1, 55, 94
3, 229790, Note_off_c, 1, 47, 100
3, 229792, Note_on_c, 1, 59, 94
3, 229820, Note_off_c, 1, 55, 100
3, 229824, Note_on_c, 1, 45, 95
3, 229847, Note_off_c, 1, 59, 100
3, 229856, Note_on_c, 1, 50, 95
3, 229887, Note_off_c, 1, 45, 100
3, 229888, Note_on_c, 1, 57, 95
3, 229915, Note_off_c, 1, 50, 100
3, 229920, Note_on_c, 1, 44, 95
3, 229948, Note_off_c, 1, 57, 100
3, 229952, Note_on_c, 1, 50, 96
3, 229979, Note_off_c, 1, 44, 100
3, 229984, Note_on_c, 1, 56, 96
3, 230012, Note_off_c, 1, 50, 100
3, 230016, Note_on_c, 1, 45, 96
3, 230046, Note_off_c, 1, 56, 100
3, 230048, Note_on_c, 1, 50, 97
3, 230076, Note_off_c, 1, 45, 100
3, 230080, Note_on_c, 1, 57, 97
3, 230110, Note_off_c, 1, 50, 100
3, 230112, Note_on_c, 1, 45, 97
3, 230143, Note_off_c, 1, 57, 100
3, 230144, Note_on_c, 1, 50, 97
3, 230169, Note_off_c, 1, 45, 100
3, 230176, Note_on_c, 1, 57, 98
3, 230202, Note_off_c, 1, 50, 100
3, 230208, Note_on_c, 1, 44, 98
3, 230229, Note_off_c, 1, 57, 100
3, 230240, Note_on_c, 1, 50, 98
3, 230269, Note_off_c, 1, 44, 100
3, 230272, Note_on_c, 1, 56, 99
3, 230303, Note_off_c, 1, 50, 100
3, 230304, Note_on_c, 1, 45, 99
3, 230330, Note_off_c, 1, 56, 100
3, 230336, Note_on_c, 1, 50, 99
3, 230362, Note_off_c, 1, 45, 100
3, 230368, Note_on_c, 1, 57, 99
3, 230396, Note_off_c, 1, 50, 100
3, 230400, Note_on_c, 1, 45, 100
3, 230430, Note_off_c, 1, 57, 100
3, 230432, Note_on_c, 1, 50, 100
3, 230461, Note_off_c, 1, 45, 100
3, 230464, Note_on_c, 1, 57, 100
3, 230487, Note_off_c, 1, 50, 100
3, 230496, Note_on_c, 1, 44, 101
3, 230526, Note_off_c, 1, 57, 100
3, 230528, Note_on_c, 1, 50, 101
3, 230557, Note_off_c, 1, 44, 100
3, 230560, Note_on_c, 1, 56, 101
3, 230589, Note_off_c, 1, 50, 100
3, 230592, Note_on_c, 1, 45, 101
3, 230621, Note_off_c, 1, 56, 100
3, 230624, Note_on_c, 1, 50, 102
3, 230652, Note_off_c, 1, 45, 100
3, 230656, Note_on_c, 1, 57, 102
3, 230684, Note_off_c, 1, 50, 100
3, 230688, Note_on_c, 1, 43, 102
3, 230709, Note_off_c, 1, 57, 100
3, 230720, Note_on_c, 1, 48, 102
3, 230746, Note_off_c, 1, 43, 100
3, 230752, Note_on_c, 1, 55, 103
3, 230776, Note_off_c, 1, 48, 100
3, 230784, Note_on_c, 1, 43, 103
3, 230806, Note_off_c, 1, 55, 100
3, 230816, Note_on_c, 1, 47, 103
3, 230839, Note_off_c, 1, 43, 100
3, 230848, Note_on_c, 1, 55, 104
3, 230872, Note_off_c, 1, 47, 100
3, 230880, Note_on_c, 1, 43, 104
3, 230907, Note_off_c, 1, 55, 100
3, 230912, Note_on_c, 1, 48, 104
3, 230938, Note_off_c, 1, 43, 100
3, 230944, Note_on_c, 1, 55, 104
3, 230967, Note_off_c, 1, 48, 100
3, 230976, Note_on_c, 1, 43, 105
3, 231006, Note_off_c, 1, 55, 100
3, 231008, Note_on_c, 1, 50, 105
3, 231036, Note_off_c, 1, 43, 100
3, 231040, Note_on_c, 1, 55, 105
3, 231071, Note_off_c, 1, 50, 100
3, 231072, Note_on_c, 1, 43, 106
3, 231099, Note_off_c, 1, 55, 100
3, 231104, Note_on_c, 1, 49, 106
3, 231126, Note_off_c, 1, 43, 100
3, 231136, Note_on_c, 1, 55, 106
3, 231159, Note_off_c, 1, 49, 100
3, 231168, Note_on_c, 1, 43, 106
3, 231190, Note_off_c, 1, 55, 100
3, 231200, Note_on_c, 1, 50, 107
3, 231226, Note_off_c, 1, 43, 100
3, 231232, Note_on_c, 1, 55, 107
3, 231255, Note_off_c, 1, 50, 100
3, 231264, Note_on_c, 1, 43, 107
3, 231287, Note_off_c, 1, 55, 100
3, 231296, Note_on_c, 1, 52, 108
3, 231323, Note_off_c, 1, 43, 100
3, 231328, Note_on_c, 1, 55, 108
3, 231354, Note_off_c, 1, 52, 100
3, 231360, Note_on_c, 1, 43, 108
3, 231383, Note_off_c, 1, 55, 100
3, 231392, Note_on_c, 1, 52, 108
3, 231418, Note_off_c, 1, 43, 100
3, 231424, Note_on_c, 1, 55, 109
3, 231451, Note_off_c, 1, 52, 100
3, 231456, Note_on_c, 1, 43, 109
3, 231487, Note_off_c, 1, 55, 100
3, 231488, Note_on_c, 1, 53, 109
3, 231517, Note_off_c, 1, 43, 100
3, 231520, Note_on_c, 1, 55, 109
3, 231551, Note_off_c, 1, 53, 100
3, 231552, Note_on_c, 1, 43, 110
3, 231580, Note_off_c, 1, 55, 100
3, 231584, Note_on_c, 1, 53, 110
3, 231607, Note_off_c, 1, 43, 100
3, 231616, Note_on_c, 1, 55, 110
3, 231646, Note_off_c, 1, 53, 100
3, 231648, Note_on_c, 1, 43, 110
3, 231679, Note_off_c, 1, 55, 100
3, 231680, Note_on_c, 1, 52, 110
3, 231704, Note_off_c, 1, 43, 100
3, 231712, Note_on_c, 1, 55, 110
3, 231743, Note_off_c, 1, 52, 100
3, 231744, Note_on_c, 1, 43, 110
3, 231771, Note_off_c, 1, 55, 100
3, 231776, Note_on_c, 1, 53, 110
3, 231803, Note_off_c, 1, 43, 100
3, 231808, Note_on_c, 1, 55, 110
3, 231838, Note_off_c, 1, 53, 100
3, 231840, Note_on_c, 1, 43, 110
3, 231869, Note_off_c, 1, 55, 100
3, 231872, Note_on_c, 1, 53, 110
3, 231900, Note_off_c, 1, 43, 100
3, 231904, Note_on_c, 1, 55, 110
3, 231931, Note_off_c, 1, 53, 100
3, 231936, Note_on_c, 1, 43, 110
3, 231958, Note_off_c, 1, 55, 100
3, 231968, Note_on_c, 1, 53, 110
3, 231989, Note_off_c, 1, 43, 100
3, 232000, Note_on_c, 1, 55, 110
3, 232028, Note_off_c, 1, 53, 100
3, 232032, Note_on_c, 1, 43, 110
3, 232057, Note_off_c, 1, 55, 100
3, 232064, Note_on_c, 1, 52, 110
3, 232086, Note_off_c, 1, 43, 100
3, 232096, Note_on_c, 1, 55, 110
3, 232125, Note_off_c, 1, 52, 100
3, 232128, Note_on_c, 1, 43, 110
3, 232155, Note_off_c, 1, 55, 100
3, 232160, Note_on_c, 1, 52, 110
3, 232187, Note_off_c, 1, 43, 100
3, 232192, Note_on_c, 1, 55, 110
3, 232222, Note_off_c, 1, 52, 100
3, 232224, Note_on_c, 1, 43, 110
3, 232250, Note_off_c, 1, 55, 100
3, 232256, Note_on_c, 1, 50, 110
3, 232285, Note_off_c, 1, 43, 100
3, 232288, Note_on_c, 1, 55, 110
3, 232317, Note_off_c, 1, 50, 100
3, 232320, Note_on_c, 1, 43, 110
3, 232344, Note_off_c, 1, 55, 100
3, 232352, Note_on_c, 1, 48, 110
3, 232382, Note_off_c, 1, 43, 100
3, 232384, Note_on_c, 1, 55, 110
3, 232412, Note_off_c, 1, 48, 100
3, 232416, Note_on_c, 1, 43, 110
3, 232445, Note_off_c, 1, 55, 100
3, 232448, Note_on_c, 1, 48, 110
3, 232471, Note_off_c, 1, 43, 100
3, 232480, Note_on_c, 1, 55, 110
3, 232508, Note_off_c, 1, 48, 100
3, 232512, Note_on_c, 1, 43, 110
3, 232542, Note_off_c, 1, 55, 100
3, 232544, Note_on_c, 1, 47, 110
3, 232571, Note_off_c, 1, 43, 100
3, 232576, Note_on_c, 1, 55, 110
3, 232606, Note_off_c, 1, 47, 100
3, 232608, Note_on_c, 1, 43, 110
3, 232639, Note_off_c, 1, 55, 100
3, 232640, Note_on_c, 1, 48, 110
3, 232666, Note_off_c, 1, 43, 100
3, 232672, Note_on_c, 1, 55, 110
3, 232700, Note_off_c, 1, 48, 100
3, 232704, Note_on_c, 1, 43, 110
3, 232729, Note_off_c, 1, 55, 100
3, 232736, Note_on_c, 1, 45, 110
3, 232764, Note_off_c, 1, 43, 100
3, 232768, Note_on_c, 1, 55, 110
3, 232794, Note_off_c, 1, 45, 100
3, 232800, Note_on_c, 1, 43, 110
3, 232828, Note_off_c, 1, 55, 100
3, 232832, Note_on_c, 1, 45, 110
3, 232860, Note_off_c, 1, 43, 100
3, 232864, Note_on_c, 1, 55, 110
3, 232885, Note_off_c, 1, 45, 100
3, 232896, Note_on_c, 1, 43, 110
3, 232923, Note_off_c, 1, 55, 100
3, 232928, Note_on_c, 1, 47, 110
3, 232952, Note_off_c, 1, 43, 100
3, 232960, Note_on_c, 1, 55, 110
3, 232988, Note_off_c, 1, 47, 100
3, 232992, Note_on_c, 1, 43, 110
3, 233015, Note_off_c, 1, 55, 100
3, 233024, Note_on_c, 1, 49, 110
3, 233050, Note_off_c, 1, 43, 100
3, 233056, Note_on_c, 1, 55, 110
3, 233080, Note_off_c, 1, 49, 100
3, 233088, Note_on_c, 1, 43, 110
3, 233114, Note_off_c, 1, 55, 100
3, 233120, Note_on_c, 1, 50, 110
3, 233146, Note_off_c, 1, 43, 100
3, 233152, Note_on_c, 1, 55, 110
3, 233175, Note_off_c, 1, 50, 100
3, 233184, Note_on_c, 1, 43, 110
3, 233208, Note_on_c, 1, 47, 110
3, 233210, Note_off_c, 1, 55, 100
3, 233231, Note_off_c, 1, 43, 100
3, 233232, Note_on_c, 1, 50, 110
3, 233255, Note_off_c, 1, 47, 100
3, 233256, Note_on_c, 1, 53, 110
3, 233279, Note_off_c, 1, 50, 100
3, 233279, Note_off_c, 1, 53, 100
3, 233280, Note_on_c, 1, 55, 110
3, 233304, Note_on_c, 1, 59, 110
3, 233327, Note_off_c, 1, 55, 100
3, 233328, Note_on_c, 1, 62, 110
3, 233351, Note_off_c, 1, 59, 100
3, 233352, Note_on_c, 1, 65, 110
3, 233375, Note_off_c, 1, 62, 100
3, 233399, Note_off_c, 1, 65, 100
3, 234720, Note_on_c, 1, 76, 80
3, 234752, Note_on_c, 1, 72, 80
3, 234782, Note_off_c, 1, 76, 100
3, 234784, Note_on_c, 1, 76, 80
3, 234812, Note_off_c, 1, 72, 100
3, 234816, Note_on_c, 1, 72, 80
3, 234846, Note_off_c, 1, 76, 100
3, 234848, Note_on_c, 1, 76, 80
3, 234870, Note_off_c, 1, 72, 100
3, 234880, Note_on_c, 1, 72, 80
3, 234907, Note_off_c, 1, 76, 100
3, 234912, Note_on_c, 1, 76, 80
3, 234941, Note_off_c, 1, 72, 100
3, 234944, Note_on_c, 1, 72, 80
3, 234972, Note_off_c, 1, 76, 100
3, 234976, Note_on_c, 1, 76, 80
3, 235006, Note_off_c, 1, 72, 100
3, 235008, Note_on_c, 1, 72, 80
3, 235035, Note_off_c, 1, 76, 64
3, 235040, Note_on_c, 1, 76, 80
3, 235068, Note_off_c, 1, 72, 100
3, 235072, Note_on_c, 1, 72, 80
3, 235097, Note_off_c, 1, 76, 100
3, 235104, Note_on_c, 1, 76, 80
3, 235129, Note_off_c, 1, 72, 100
3, 235136, Note_on_c, 1, 72, 80
3, 235163, Note_off_c, 1, 76, 100
3, 235168, Note_on_c, 1, 76, 80
3, 235199, Note_off_c, 1, 72, 100
3, 235200, Note_on_c, 1, 72, 80
3, 235228, Note_off_c, 1, 76, 100
3, 235232, Note_on_c, 1, 76, 80
3, 235262, Note_off_c, 1, 72, 100
3, 235264, Note_on_c, 1, 72, 80
3, 235295, Note_off_c, 1, 76, 100
3, 235296, Note_on_c, 1, 76, 80
3, 235322, Note_off_c, 1, 72, 64
3, 235328, Note_on_c, 1, 73, 80
3, 235354, Note_off_c, 1, 76, 100
3, 235360, Note_on_c, 1, 76, 80
3, 235387, Note_off_c, 1, 73, 100
3, 235392, Note_on_c, 1, 73, 80
3, 235419, Note_off_c, 1, 76, 100
3, 235424, Note_on_c, 1, 76, 80
3, 235453, Note_off_c, 1, 73, 100
3, 235456, Note_on_c, 1, 73, 80
3, 235482, Note_off_c, 1, 76, 100
3, 235488, Note_on_c, 1, 76, 80
3, 235515, Note_off_c, 1, 73, 100
3, 235520, Note_on_c, 1, 73, 80
3, 235548, Note_off_c, 1, 76, 100
3, 235552, Note_on_c, 1, 76, 80
3, 235579, Note_off_c, 1, 73, 100
3, 235584, Note_on_c, 1, 71, 80
3, 235613, Note_off_c, 1, 76, 64
3, 235616, Note_on_c, 1, 77, 80
3, 235647, Note_off_c, 1, 71, 100
3, 235648, Note_on_c, 1, 71, 80
3, 235679, Note_off_c, 1, 77, 100
3, 235680, Note_on_c, 1, 77, 80
3, 235708, Note_off_c, 1, 71, 100
3, 235712, Note_on_c, 1, 71, 80
3, 235739, Note_off_c, 1, 77, 100
3, 235744, Note_on_c, 1, 77, 80
3, 235769, Note_off_c, 1, 71, 100
3, 235776, Note_on_c, 1, 71, 80
3, 235805, Note_off_c, 1, 77, 100
3, 235808, Note_on_c, 1, 77, 80
3, 235838, Note_off_c, 1, 71, 100
3, 235840, Note_on_c, 1, 71, 80
3, 235870, Note_off_c, 1, 77, 100
3, 235872, Note_on_c, 1, 77, 80
3, 235903, Note_off_c, 1, 71, 64
3, 235904, Note_on_c, 1, 71, 80
3, 235929, Note_off_c, 1, 77, 100
3, 235936, Note_on_c, 1, 77, 80
3, 235967, Note_off_c, 1, 71, 100
3, 235968, Note_on_c, 1, 71, 80
3, 235996, Note_off_c, 1, 77, 100
3, 236000, Note_on_c, 1, 77, 80
3, 236028, Note_off_c, 1, 71, 100
3, 236032, Note_on_c, 1, 71, 80
3, 236063, Note_off_c, 1, 77, 100
3, 236064, Note_on_c, 1, 77, 80
3, 236091, Note_off_c, 1, 71, 100
3, 236096, Note_on_c, 1, 71, 80
3, 236124, Note_off_c, 1, 77, 100
3, 236128, Note_on_c, 1, 77, 80
3, 236158, Note_off_c, 1, 71, 100
3, 236160, Note_on_c, 1, 72, 80
3, 236186, Note_off_c, 1, 77, 64
3, 236192, Note_on_c, 1, 76, 80
3, 236218, Note_off_c, 1, 72, 100
3, 236224, Note_on_c, 1, 72, 80
3, 236248, Note_off_c, 1, 76, 100
3, 236256, Note_on_c, 1, 76, 80
3, 236280, Note_off_c, 1, 72, 100
3, 236288, Note_on_c, 1, 72, 80
3, 236310, Note_off_c, 1, 76, 100
3, 236320, Note_on_c, 1, 76, 80
3, 236351, Note_off_c, 1, 72, 100
3, 236352, Note_on_c, 1, 73, 80
3, 236383, Note_off_c, 1, 76, 100
3, 236384, Note_on_c, 1, 76, 80
3, 236411, Note_off_c, 1, 73, 100
3, 236416, Note_on_c, 1, 73, 80
3, 236444, Note_off_c, 1, 76, 100
3, 236448, Note_on_c, 1, 77, 80
3, 236477, Note_off_c, 1, 73, 64
3, 236480, Note_on_c, 1, 74, 80
3, 236510, Note_off_c, 1, 77, 100
3, 236512, Note_on_c, 1, 77, 80
3, 236542, Note_off_c, 1, 74, 100
3, 236544, Note_on_c, 1, 75, 80
3, 236568, Note_off_c, 1, 77, 100
3, 236576, Note_on_c, 1, 78, 80
3, 236603, Note_off_c, 1, 75, 100
3, 236608, Note_on_c, 1, 75, 80
3, 236632, Note_off_c, 1, 78, 100
3, 236640, Note_on_c, 1, 76, 80
3, 236665, Note_off_c, 1, 75, 100
3, 236672, Note_on_c, 1, 75, 80
3, 236700, Note_off_c, 1, 76, 100
3, 236704, Note_on_c, 1, 76, 80
3, 236730, Note_off_c, 1, 75, 100
3, 236736, Note_on_c, 1, 64, 80
3, 236762, Note_off_c, 1, 76, 64
3, 236768, Note_on_c, 1, 76, 80
3, 236793, Note_off_c, 1, 64, 100
3, 236800, Note_on_c, 1, 64, 80
3, 236826, Note_off_c, 1, 76, 100
3, 236832, Note_on_c, 1, 76, 80
3, 236856, Note_off_c, 1, 64, 100
3, 236864, Note_on_c, 1, 64, 80
3, 236891, Note_off_c, 1, 76, 100
3, 236896, Note_on_c, 1, 76, 80
3, 236926, Note_off_c, 1, 64, 100
3, 236928, Note_on_c, 1, 64, 80
3, 236957, Note_off_c, 1, 76, 100
3, 236960, Note_on_c, 1, 76, 80
3, 236985, Note_off_c, 1, 64, 100
3, 236992, Note_on_c, 1, 64, 80
3, 237017, Note_off_c, 1, 76, 100
3, 237024, Note_on_c, 1, 72, 80
3, 237053, Note_off_c, 1, 64, 64
3, 237056, Note_on_c, 1, 60, 80
3, 237085, Note_off_c, 1, 72, 100
3, 237088, Note_on_c, 1, 72, 80
3, 237112, Note_off_c, 1, 60, 100
3, 237120, Note_on_c, 1, 60, 80
3, 237148, Note_off_c, 1, 72, 100
3, 237152, Note_on_c, 1, 72, 80
3, 237182, Note_off_c, 1, 60, 100
3, 237184, Note_on_c, 1, 60, 80
3, 237213, Note_off_c, 1, 72, 100
3, 237216, Note_on_c, 1, 72, 80
3, 237245, Note_off_c, 1, 60, 100
3, 237248, Note_on_c, 1, 60, 80
3, 237275, Note_off_c, 1, 72, 100
3, 237280, Note_on_c, 1, 72, 80
3, 237305, Note_off_c, 1, 60, 100
3, 237312, Note_on_c, 1, 64, 80
3, 237341, Note_off_c, 1, 72, 64
3, 237344, Note_on_c, 1, 76, 80
3, 237372, Note_off_c, 1, 64, 100
3, 237376, Note_on_c, 1, 64, 80
3, 237402, Note_off_c, 1, 76, 100
3, 237408, Note_on_c, 1, 76, 80
3, 237438, Note_off_c, 1, 64, 100
3, 237440, Note_on_c, 1, 64, 80
3, 237469, Note_off_c, 1, 76, 100
3, 237472, Note_on_c, 1, 76, 80
3, 237498, Note_off_c, 1, 64, 100
3, 237504, Note_on_c, 1, 64, 80
3, 237534, Note_off_c, 1, 76, 100
3, 237536, Note_on_c, 1, 76, 80
3, 237560, Note_off_c, 1, 64, 100
3, 237568, Note_on_c, 1, 64, 80
3, 237599, Note_off_c, 1, 76, 100
3, 237600, Note_on_c, 1, 76, 80
3, 237631, Note_off_c, 1, 64, 64
3, 237632, Note_on_c, 1, 67, 80
3, 237663, Note_off_c, 1, 76, 100
3, 237664, Note_on_c, 1, 76, 80
3, 237691, Note_off_c, 1, 67, 100
3, 237696, Note_on_c, 1, 67, 80
3, 237726, Note_off_c, 1, 76, 100
3, 237728, Note_on_c, 1, 76, 80
3, 237759, Note_off_c, 1, 67, 100
3, 237760, Note_on_c, 1, 67, 80
3, 237791, Note_off_c, 1, 76, 100
3, 237792, Note_on_c, 1, 76, 80
3, 237820, Note_off_c, 1, 67, 100
3, 237824, Note_on_c, 1, 67, 80
3, 237855, Note_off_c, 1, 76, 100
3, 237856, Note_on_c, 1, 76, 80
3, 237885, Note_off_c, 1, 67, 100
3, 237888, Note_on_c, 1, 67, 80
3, 237919, Note_off_c, 1, 76, 64
3, 237920, Note_on_c, 1, 74, 80
3, 237951, Note_off_c, 1, 67, 100
3, 237952, Note_on_c, 1, 67, 80
3, 237973, Note_off_c, 1, 74, 100
3, 237984, Note_on_c, 1, 74, 80
3, 238006, Note_off_c, 1, 67, 100
3, 238016, Note_on_c, 1, 67, 80
3, 238040, Note_off_c, 1, 74, 100
3, 238048, Note_on_c, 1, 74, 80
3, 238074, Note_off_c, 1, 67, 100
3, 238080, Note_on_c, 1, 67, 80
3, 238109, Note_off_c, 1, 74, 100
3, 238112, Note_on_c, 1, 74, 80
3, 238137, Note_off_c, 1, 67, 100
3, 238144, Note_on_c, 1, 67, 80
3, 238172, Note_off_c, 1, 74, 100
3, 238176, Note_on_c, 1, 74, 80
3, 238203, Note_off_c, 1, 67, 64
3, 238208, Note_on_c, 1, 65, 80
3, 238232, Note_off_c, 1, 74, 100
3, 238240, Note_on_c, 1, 74, 80
3, 238269, Note_off_c, 1, 65, 100
3, 238272, Note_on_c, 1, 65, 80
3, 238297, Note_off_c, 1, 74, 100
3, 238304, Note_on_c, 1, 74, 80
3, 238329, Note_off_c, 1, 65, 100
3, 238336, Note_on_c, 1, 65, 80
3, 238360, Note_off_c, 1, 74, 100
3, 238368, Note_on_c, 1, 74, 80
3, 238395, Note_off_c, 1, 65, 100
3, 238400, Note_on_c, 1, 65, 80
3, 238426, Note_off_c, 1, 74, 100
3, 238432, Note_on_c, 1, 74, 80
3, 238462, Note_off_c, 1, 65, 100
3, 238464, Note_on_c, 1, 64, 80
3, 238492, Note_off_c, 1, 74, 64
3, 238496, Note_on_c, 1, 67, 80
3, 238524, Note_off_c, 1, 64, 100
3, 238528, Note_on_c, 1, 64, 80
3, 238556, Note_off_c, 1, 67, 100
3, 238560, Note_on_c, 1, 67, 80
3, 238588, Note_off_c, 1, 64, 100
3, 238592, Note_on_c, 1, 64, 80
3, 238623, Note_off_c, 1, 67, 100
3, 238624, Note_on_c, 1, 67, 80
3, 238649, Note_off_c, 1, 64, 100
3, 238656, Note_on_c, 1, 64, 80
3, 238682, Note_off_c, 1, 67, 100
3, 238688, Note_on_c, 1, 67, 80
3, 238715, Note_off_c, 1, 64, 100
3, 238720, Note_on_c, 1, 64, 80
3, 238747, Note_off_c, 1, 67, 100
3, 238752, Note_on_c, 1, 60, 80
3, 238781, Note_off_c, 1, 64, 64
3, 238784, Note_on_c, 1, 64, 80
3, 238815, Note_off_c, 1, 60, 100
3, 238816, Note_on_c, 1, 60, 80
3, 238844, Note_off_c, 1, 64, 100
3, 238848, Note_on_c, 1, 64, 80
3, 238878, Note_off_c, 1, 60, 100
3, 238880, Note_on_c, 1, 60, 80
3, 238911, Note_off_c, 1, 64, 100
3, 238912, Note_on_c, 1, 64, 80
3, 238943, Note_off_c, 1, 60, 100
3, 238944, Note_on_c, 1, 60, 80
3, 238970, Note_off_c, 1, 64, 100
3, 238976, Note_on_c, 1, 64, 80
3, 239007, Note_off_c, 1, 60, 100
3, 239008, Note_on_c, 1, 60, 80
3, 239038, Note_off_c, 1, 64, 100
3, 239040, Note_on_c, 1, 58, 80
3, 239067, Note_off_c, 1, 60, 64
3, 239072, Note_on_c, 1, 60, 80
3, 239101, Note_off_c, 1, 58, 100
3, 239104, Note_on_c, 1, 58, 80
3, 239134, Note_off_c, 1, 60, 100
3, 239136, Note_on_c, 1, 60, 80
3, 239166, Note_off_c, 1, 58, 100
3, 239168, Note_on_c, 1, 58, 80
3, 239198, Note_off_c, 1, 60, 100
3, 239200, Note_on_c, 1, 60, 80
3, 239228, Note_off_c, 1, 58, 100
3, 239232, Note_on_c, 1, 58, 80
3, 239263, Note_off_c, 1, 60, 100
3, 239264, Note_on_c, 1, 60, 80
3, 239291, Note_off_c, 1, 58, 100
3, 239296, Note_on_c, 1, 58, 80
3, 239324, Note_off_c, 1, 60, 100
3, 239328, Note_on_c, 1, 57, 80
3, 239357, Note_off_c, 1, 58, 64
3, 239360, Note_on_c, 1, 60, 80
3, 239389, Note_off_c, 1, 57, 100
3, 239392, Note_on_c, 1, 57, 80
3, 239423, Note_off_c, 1, 60, 100
3, 239424, Note_on_c, 1, 60, 80
3, 239452, Note_off_c, 1, 57, 100
3, 239456, Note_on_c, 1, 57, 80
3, 239482, Note_off_c, 1, 60, 100
3, 239488, Note_on_c, 1, 60, 80
3, 239519, Note_off_c, 1, 57, 100
3, 239520, Note_on_c, 1, 57, 80
3, 239546, Note_off_c, 1, 60, 100
3, 239552, Note_on_c, 1, 60, 80
3, 239580, Note_off_c, 1, 57, 100
3, 239584, Note_on_c, 1, 57, 80
3, 239612, Note_off_c, 1, 60, 100
3, 239616, Note_on_c, 1, 60, 80
3, 239644, Note_off_c, 1, 57, 64
3, 239648, Note_on_c, 1, 57, 80
3, 239675, Note_off_c, 1, 60, 100
3, 239680, Note_on_c, 1, 60, 80
3, 239710, Note_off_c, 1, 57, 100
3, 239712, Note_on_c, 1, 59, 80
3, 239743, Note_off_c, 1, 60, 100
3, 239744, Note_on_c, 1, 62, 80
3, 239774, Note_off_c, 1, 59, 100
3, 239776, Note_on_c, 1, 59, 80
3, 239804, Note_off_c, 1, 62, 100
3, 239808, Note_on_c, 1, 62, 80
3, 239838, Note_off_c, 1, 59, 100
3, 239840, Note_on_c, 1, 59, 80
3, 239869, Note_off_c, 1, 62, 100
3, 239872, Note_on_c, 1, 62, 80
3, 239898, Note_off_c, 1, 59, 100
3, 239904, Note_on_c, 1, 59, 80
3, 239932, Note_off_c, 1, 62, 64
3, 239936, Note_on_c, 1, 65, 80
3, 239962, Note_off_c, 1, 59, 100
3, 239968, Note_on_c, 1, 59, 80
3, 239994, Note_off_c, 1, 65, 100
3, 240000, Note_on_c, 1, 65, 80
3, 240025, Note_off_c, 1, 59, 100
3, 240032, Note_on_c, 1, 59, 80
3, 240059, Note_off_c, 1, 65, 100
3, 240064, Note_on_c, 1, 65, 80
3, 240091, Note_off_c, 1, 59, 100
3, 240096, Note_on_c, 1, 64, 80
3, 240120, Note_off_c, 1, 65, 100
3, 240128, Note_on_c, 1, 60, 80
3, 240157, Note_off_c, 1, 64, 100
3, 240160, Note_on_c, 1, 64, 80
3, 240190, Note_off_c, 1, 60, 100
3, 240192, Note_on_c, 1, 62, 80
3, 240218, Note_off_c, 1, 64, 64
3, 240224, Note_on_c, 1, 65, 80
3, 240252, Note_off_c, 1, 62, 100
3, 240256, Note_on_c, 1, 62, 80
3, 240285, Note_off_c, 1, 65, 100
3, 240288, Note_on_c, 1, 67, 80
3, 240316, Note_off_c, 1, 62, 100
3, 240320, Note_on_c, 1, 64, 80
3, 240348, Note_off_c, 1, 67, 100
3, 240352, Note_on_c, 1, 67, 80
3, 240379, Note_off_c, 1, 64, 100
3, 240384, Note_on_c, 1, 62, 80
3, 240414, Note_off_c, 1, 67, 100
3, 240416, Note_on_c, 1, 65, 80
3, 240443, Note_off_c, 1, 62, 100
3, 240448, Note_on_c, 1, 62, 80
3, 240479, Note_off_c, 1, 65, 100
3, 240480, Note_on_c, 1, 60, 80
3, 240507, Note_off_c, 1, 62, 64
3, 240512, Note_on_c, 1, 64, 80
3, 240541, Note_off_c, 1, 60, 100
3, 240544, Note_on_c, 1, 60, 80
3, 240572, Note_off_c, 1, 64, 100
3, 240576, Note_on_c, 1, 65, 80
3, 240603, Note_off_c, 1, 60, 100
3, 240608, Note_on_c, 1, 62, 80
3, 240639, Note_off_c, 1, 65, 100
3, 240640, Note_on_c, 1, 65, 80
3, 240670, Note_off_c, 1, 62, 100
3, 240672, Note_on_c, 1, 60, 80
3, 240703, Note_off_c, 1, 65, 100
3, 240704, Note_on_c, 1, 64, 80
3, 240734, Note_off_c, 1, 60, 100
3, 240736, Note_on_c, 1, 60, 80
3, 240765, Note_off_c, 1, 64, 100
3, 240768, Note_on_c, 1, 59, 80
3, 240796, Note_off_c, 1, 60, 64
3, 240800, Note_on_c, 1, 62, 80
3, 240827, Note_off_c, 1, 59, 100
3, 240832, Note_on_c, 1, 59, 80
3, 240860, Note_off_c, 1, 62, 100
3, 240864, Note_on_c, 1, 60, 80
3, 240893, Note_off_c, 1, 59, 100
3, 240896, Note_on_c, 1, 57, 80
3, 240925, Note_off_c, 1, 60, 100
3, 240928, Note_on_c, 1, 60, 80
3, 240958, Note_off_c, 1, 57, 100
3, 240960, Note_on_c, 1, 59, 80
3, 240991, Note_off_c, 1, 60, 100
3, 240992, Note_on_c, 1, 62, 80
3, 241023, Note_off_c, 1, 59, 100
3, 241024, Note_on_c, 1, 59, 80
3, 241053, Note_off_c, 1, 62, 100
3, 241056, Note_on_c, 1, 48, 80
3, 241086, Note_off_c, 1, 59, 64
3, 241088, Note_on_c, 1, 64, 80
3, 241119, Note_off_c, 1, 48, 100
3, 241120, Note_on_c, 1, 60, 80
3, 241149, Note_off_c, 1, 64, 100
3, 241152, Note_on_c, 1, 64, 80
3, 241182, Note_off_c, 1, 60, 100
3, 241184, Note_on_c, 1, 60, 80
3, 241213, Note_off_c, 1, 64, 100
3, 241216, Note_on_c, 1, 64, 80
3, 241247, Note_off_c, 1, 60, 100
3, 241248, Note_on_c, 1, 60, 80
3, 241279, Note_off_c, 1, 64, 100
3, 241280, Note_on_c, 1, 64, 80
3, 241311, Note_off_c, 1, 60, 100
3, 241312, Note_on_c, 1, 60, 80
3, 241339, Note_off_c, 1, 64, 100
3, 241344, Note_on_c, 1, 48, 80
3, 241372, Note_off_c, 1, 60, 64
3, 241376, Note_on_c, 1, 64, 80
3, 241407, Note_off_c, 1, 48, 100
3, 241408, Note_on_c, 1, 60, 80
3, 241439, Note_off_c, 1, 64, 100
3, 241440, Note_on_c, 1, 64, 80
3, 241471, Note_off_c, 1, 60, 100
3, 241472, Note_on_c, 1, 60, 80
3, 241503, Note_off_c, 1, 64, 100
3, 241504, Note_on_c, 1, 64, 80
3, 241534, Note_off_c, 1, 60, 100
3, 241536, Note_on_c, 1, 60, 80
3, 241565, Note_off_c, 1, 64, 100
3, 241568, Note_on_c, 1, 64, 80
3, 241599, Note_off_c, 1, 60, 100
3, 241600, Note_on_c, 1, 60, 80
3, 241621, Note_off_c, 1, 64, 100
3, 241632, Note_on_c, 1, 48, 80
3, 241663, Note_off_c, 1, 60, 64
3, 241664, Note_on_c, 1, 65, 80
3, 241692, Note_off_c, 1, 48, 100
3, 241696, Note_on_c, 1, 60, 80
3, 241722, Note_off_c, 1, 65, 100
3, 241728, Note_on_c, 1, 65, 80
3, 241758, Note_off_c, 1, 60, 100
3, 241760, Note_on_c, 1, 60, 80
3, 241787, Note_off_c, 1, 65, 100
3, 241792, Note_on_c, 1, 65, 80
3, 241822, Note_off_c, 1, 60, 100
3, 241824, Note_on_c, 1, 60, 80
3, 241855, Note_off_c, 1, 65, 100
3, 241856, Note_on_c, 1, 65, 80
3, 241883, Note_off_c, 1, 60, 100
3, 241888, Note_on_c, 1, 60, 80
3, 241916, Note_off_c, 1, 65, 100
3, 241920, Note_on_c, 1, 48, 80
3, 241945, Note_off_c, 1, 60, 64
3, 241952, Note_on_c, 1, 64, 80
3, 241982, Note_off_c, 1, 48, 100
3, 241984, Note_on_c, 1, 60, 80
3, 242015, Note_off_c, 1, 64, 100
3, 242016, Note_on_c, 1, 64, 80
3, 242042, Note_off_c, 1, 60, 100
3, 242048, Note_on_c, 1, 60, 80
3, 242075, Note_off_c, 1, 64, 100
3, 242080, Note_on_c, 1, 64, 80
3, 242109, Note_off_c, 1, 60, 100
3, 242112, Note_on_c, 1, 60, 80
3, 242142, Note_off_c, 1, 64, 100
3, 242144, Note_on_c, 1, 64, 80
3, 242173, Note_off_c, 1, 60, 100
3, 242176, Note_on_c, 1, 60, 80
3, 242204, Note_off_c, 1, 64, 100
3, 242208, Note_on_c, 1, 48, 80
3, 242239, Note_off_c, 1, 60, 64
3, 242240, Note_on_c, 1, 52, 80
3, 242264, Note_off_c, 1, 48, 100
3, 242272, Note_on_c, 1, 48, 80
3, 242299, Note_off_c, 1, 52, 100
3, 242304, Note_on_c, 1, 52, 80
3, 242329, Note_off_c, 1, 48, 100
3, 242336, Note_on_c, 1, 48, 80
3, 242364, Note_off_c, 1, 52, 100
3, 242368, Note_on_c, 1, 52, 80
3, 242393, Note_off_c, 1, 48, 100
3, 242400, Note_on_c, 1, 48, 80
3, 242428, Note_off_c, 1, 52, 100
3, 242432, Note_on_c, 1, 52, 80
3, 242460, Note_off_c, 1, 48, 100
3, 242464, Note_on_c, 1, 48, 80
3, 242491, Note_off_c, 1, 52, 100
3, 242496, Note_on_c, 1, 36, 80
3, 242525, Note_off_c, 1, 48, 64
3, 242528, Note_on_c, 1, 53, 80
3, 242559, Note_off_c, 1, 36, 100
3, 242560, Note_on_c, 1, 48, 80
3, 242586, Note_off_c, 1, 53, 100
3, 242592, Note_on_c, 1, 53, 80
3, 242623, Note_off_c, 1, 48, 100
3, 242624, Note_on_c, 1, 48, 80
3, 242652, Note_off_c, 1, 53, 100
3, 242656, Note_on_c, 1, 53, 80
3, 242685, Note_off_c, 1, 48, 100
3, 242688, Note_on_c, 1, 48, 80
3, 242717, Note_off_c, 1, 53, 100
3, 242720, Note_on_c, 1, 53, 80
3, 242745, Note_off_c, 1, 48, 100
3, 242752, Note_on_c, 1, 48, 80
3, 242783, Note_off_c, 1, 53, 100
3, 242784, Note_on_c, 1, 36, 80
3, 242815, Note_off_c, 1, 48, 64
3, 242816, Note_on_c, 1, 52, 80
3, 242846, Note_off_c, 1, 36, 100
3, 242848, Note_on_c, 1, 48, 80
3, 242876, Note_off_c, 1, 52, 100
3, 242880, Note_on_c, 1, 52, 80
3, 242911, Note_off_c, 1, 48, 100
3, 242912, Note_on_c, 1, 48, 80
3, 242943, Note_off_c, 1, 52, 100
3, 242944, Note_on_c, 1, 52, 80
3, 242971, Note_off_c, 1, 48, 100
3, 242976, Note_on_c, 1, 48, 80
3, 243003, Note_off_c, 1, 52, 100
3, 243008, Note_on_c, 1, 52, 80
3, 243039, Note_off_c, 1, 48, 100
3, 243040, Note_on_c, 1, 48, 80
3, 243063, Note_off_c, 1, 52, 100
3, 243072, Note_on_c, 1, 36, 80
3, 243103, Note_off_c, 1, 48, 64
3, 243104, Note_on_c, 1, 52, 80
3, 243131, Note_off_c, 1, 36, 100
3, 243136, Note_on_c, 1, 48, 80
3, 243167, Note_off_c, 1, 52, 100
3, 243168, Note_on_c, 1, 52, 80
3, 243199, Note_off_c, 1, 48, 100
3, 243200, Note_on_c, 1, 48, 80
3, 243225, Note_off_c, 1, 52, 100
3, 243232, Note_on_c, 1, 52, 80
3, 243263, Note_off_c, 1, 48, 100
3, 243264, Note_on_c, 1, 48, 80
3, 243291, Note_off_c, 1, 52, 100
3, 243296, Note_on_c, 1, 52, 80
3, 243323, Note_off_c, 1, 48, 100
3, 243328, Note_on_c, 1, 48, 80
3, 243359, Note_off_c, 1, 52, 100
3, 243360, Note_on_c, 1, 36, 80
3, 243388, Note_off_c, 1, 48, 64
3, 243392, Note_on_c, 1, 53, 80
3, 243423, Note_off_c, 1, 36, 100
3, 243424, Note_on_c, 1, 48, 80
3, 243451, Note_off_c, 1, 53, 100
3, 243456, Note_on_c, 1, 53, 80
3, 243487, Note_off_c, 1, 48, 100
3, 243488, Note_on_c, 1, 48, 80
3, 243519, Note_off_c, 1, 53, 100
3, 243520, Note_on_c, 1, 53, 80
3, 243551, Note_off_c, 1, 48, 100
3, 243552, Note_on_c, 1, 48, 80
3, 243580, Note_off_c, 1, 53, 100
3, 243584, Note_on_c, 1, 53, 80
3, 243611, Note_off_c, 1, 48, 100
3, 243616, Note_on_c, 1, 48, 80
3, 243647, Note_off_c, 1, 53, 100
3, 243679, Note_off_c, 1, 48, 64
3, 243936, Note_on_c, 1, 79, 80
3, 243968, Note_on_c, 1, 81, 80
3, 243995, Note_off_c, 1, 79, 100
3, 244000, Note_on_c, 1, 79, 80
3, 244029, Note_off_c, 1, 81, 100
3, 244032, Note_on_c, 1, 78, 80
3, 244063, Note_off_c, 1, 79, 100
3, 244064, Note_on_c, 1, 79, 80
3, 244095, Note_off_c, 1, 78, 100
3, 244096, Note_on_c, 1, 81, 80
3, 244126, Note_off_c, 1, 79, 100
3, 244128, Note_on_c, 1, 83, 80
3, 244154, Note_off_c, 1, 81, 100
3, 244160, Note_on_c, 1, 84, 80
3, 244191, Note_off_c, 1, 83, 100
3, 244192, Note_on_c, 1, 81, 80
3, 244219, Note_off_c, 1, 84, 100
3, 244224, Note_on_c, 1, 83, 80
3, 244252, Note_off_c, 1, 81, 64
3, 244256, Note_on_c, 1, 84, 80
3, 244285, Note_off_c, 1, 83, 100
3, 244288, Note_on_c, 1, 83, 80
3, 244316, Note_off_c, 1, 84, 100
3, 244320, Note_on_c, 1, 82, 80
3, 244346, Note_off_c, 1, 83, 100
3, 244352, Note_on_c, 1, 83, 80
3, 244381, Note_off_c, 1, 82, 100
3, 244384, Note_on_c, 1, 84, 80
3, 244411, Note_off_c, 1, 83, 100
3, 244416, Note_on_c, 1, 86, 80
3, 244444, Note_off_c, 1, 84, 100
3, 244448, Note_on_c, 1, 88, 80
3, 244476, Note_off_c, 1, 86, 100
3, 244480, Note_on_c, 1, 85, 80
3, 244509, Note_off_c, 1, 88, 100
3, 244512, Note_on_c, 1, 86, 80
3, 244539, Note_off_c, 1, 85, 64
3, 244544, Note_on_c, 1, 88, 80
3, 244570, Note_off_c, 1, 86, 100
3, 244576, Note_on_c, 1, 86, 80
3, 244599, Note_off_c, 1, 88, 100
3, 244608, Note_on_c, 1, 84, 80
3, 244639, Note_off_c, 1, 86, 100
3, 244640, Note_on_c, 1, 86, 80
3, 244669, Note_off_c, 1, 84, 100
3, 244672, Note_on_c, 1, 84, 80
3, 244700, Note_off_c, 1, 86, 100
3, 244704, Note_on_c, 1, 83, 80
3, 244733, Note_off_c, 1, 84, 100
3, 244736, Note_on_c, 1, 84, 80
3, 244767, Note_off_c, 1, 83, 100
3, 244768, Note_on_c, 1, 83, 80
3, 244790, Note_off_c, 1, 84, 100
3, 244800, Note_on_c, 1, 81, 80
3, 244826, Note_off_c, 1, 83, 64
3, 244832, Note_on_c, 1, 83, 80
3, 244855, Note_off_c, 1, 81, 100
3, 244864, Note_on_c, 1, 81, 80
3, 244890, Note_off_c, 1, 83, 100
3, 244896, Note_on_c, 1, 79, 80
3, 244920, Note_off_c, 1, 81, 100
3, 244928, Note_on_c, 1, 81, 80
3, 244953, Note_off_c, 1, 79, 100
3, 244960, Note_on_c, 1, 79, 80
3, 244988, Note_off_c, 1, 81, 100
3, 244992, Note_on_c, 1, 81, 80
3, 245016, Note_off_c, 1, 79, 100
3, 245024, Note_on_c, 1, 83, 80
3, 245052, Note_off_c, 1, 81, 100
3, 245056, Note_on_c, 1, 81, 80
3, 245086, Note_off_c, 1, 83, 100
3, 245088, Note_on_c, 1, 83, 80
3, 245119, Note_off_c, 1, 81, 64
3, 245120, Note_on_c, 1, 84, 80
3, 245151, Note_off_c, 1, 83, 100
3, 245152, Note_on_c, 1, 83, 80
3, 245183, Note_off_c, 1, 84, 100
3, 245184, Note_on_c, 1, 84, 80
3, 245213, Note_off_c, 1, 83, 100
3, 245216, Note_on_c, 1, 86, 80
3, 245247, Note_off_c, 1, 84, 100
3, 245248, Note_on_c, 1, 88, 80
3, 245276, Note_off_c, 1, 86, 100
3, 245280, Note_on_c, 1, 89, 80
3, 245309, Note_off_c, 1, 88, 100
3, 245312, Note_on_c, 1, 88, 80
3, 245340, Note_off_c, 1, 89, 100
3, 245344, Note_on_c, 1, 86, 80
3, 245372, Note_off_c, 1, 88, 100
3, 245376, Note_on_c, 1, 88, 80
3, 245405, Note_off_c, 1, 86, 64
3, 245408, Note_on_c, 1, 86, 81
3, 245439, Note_off_c, 1, 88, 100
3, 245440, Note_on_c, 1, 84, 82
3, 245469, Note_off_c, 1, 86, 100
3, 245472, Note_on_c, 1, 83, 83
3, 245502, Note_off_c, 1, 84, 100
3, 245504, Note_on_c, 1, 81, 84
3, 245535, Note_off_c, 1, 83, 100
3, 245536, Note_on_c, 1, 79, 85
3, 245565, Note_off_c, 1, 81, 100
3, 245568, Note_on_c, 1, 77, 86
3, 245594, Note_off_c, 1, 79, 100
3, 245600, Note_on_c, 1, 76, 88
3, 245628, Note_off_c, 1, 77, 100
3, 245632, Note_on_c, 1, 74, 89
3, 245663, Note_off_c, 1, 76, 100
3, 245664, Note_on_c, 1, 76, 90
3, 245693, Note_off_c, 1, 74, 64
3, 245696, Note_on_c, 1, 74, 91
3, 245720, Note_off_c, 1, 76, 100
3, 245728, Note_on_c, 1, 72, 92
3, 245756, Note_off_c, 1, 74, 100
3, 245760, Note_on_c, 1, 71, 93
3, 245787, Note_off_c, 1, 72, 100
3, 245792, Note_on_c, 1, 69, 94
3, 245823, Note_off_c, 1, 71, 100
3, 245824, Note_on_c, 1, 67, 96
3, 245852, Note_off_c, 1, 69, 100
3, 245856, Note_on_c, 1, 65, 97
3, 245886, Note_off_c, 1, 67, 100
3, 245888, Note_on_c, 1, 64, 98
3, 245917, Note_off_c, 1, 65, 100
3, 245920, Note_on_c, 1, 62, 99
3, 245950, Note_off_c, 1, 64, 100
3, 245952, Note_on_c, 1, 64, 100
3, 245981, Note_off_c, 1, 62, 64
3, 245984, Note_on_c, 1, 62, 101
3, 246012, Note_off_c, 1, 64, 100
3, 246016, Note_on_c, 1, 60, 102
3, 246047, Note_off_c, 1, 62, 100
3, 246048, Note_on_c, 1, 59, 104
3, 246073, Note_off_c, 1, 60, 100
3, 246080, Note_on_c, 1, 57, 105
3, 246102, Note_off_c, 1, 59, 100
3, 246112, Note_on_c, 1, 55, 106
3, 246137, Note_off_c, 1, 57, 100
3, 246144, Note_on_c, 1, 53, 107
3, 246170, Note_off_c, 1, 55, 100
3, 246176, Note_on_c, 1, 52, 108
3, 246203, Note_off_c, 1, 53, 100
3, 246208, Note_on_c, 1, 50, 109
3, 246234, Note_off_c, 1, 52, 100
3, 246258, Note_off_c, 1, 50, 100
3, 246528, Note_on_c, 1, 36, 120
3, 246716, Note_off_c, 1, 36, 100
3, 246720, Note_on_c, 1, 31, 110
3, 246812, Note_off_c, 1, 31, 100
3, 246816, Note_on_c, 1, 31, 110
3, 247484, Note_off_c, 1, 31, 100
3, 247488, Note_on_c, 1, 43, 80
3, 247488, Note_on_c, 1, 31, 80
3, 247580, Note_off_c, 1, 43, 100
3, 247580, Note_off_c, 1, 31, 100
3, 247584, Note_on_c, 1, 48, 80
3, 247584, Note_on_c, 1, 36, 80
3, 247676, Note_off_c, 1, 48, 100
3, 247676, Note_off_c, 1, 36, 100
3, 247776, Note_on_c, 1, 55, 80
3, 247776, Note_on_c, 1, 43, 80
3, 247868, Note_off_c, 1, 55, 100
3, 247868, Note_off_c, 1, 43, 100
3, 247872, Note_on_c, 1, 60, 80
3, 247872, Note_on_c, 1, 48, 80
3, 247964, Note_off_c, 1, 60, 100
3, 247964, Note_off_c, 1, 48, 100
3, 248064, Note_on_c, 1, 43, 70
3, 248064, Note_on_c, 1, 31, 70
3, 248156, Note_off_c, 1, 43, 100
3, 248156, Note_off_c, 1, 31, 100
3, 248160, Note_on_c, 1, 48, 70
3, 248160, Note_on_c, 1, 36, 70
3, 248252, Note_off_c, 1, 48, 100
3, 248252, Note_off_c, 1, 36, 100
3, 248256, Note_on_c, 1, 48, 70
3, 248256, Note_on_c, 1, 36, 70
3, 248732, Note_off_c, 1, 36, 100
3, 248732, Note_off_c, 1, 48, 100
3, 248732, End_track
0, 0, End_of_file
