0, 0, Header, 1, 3, 384
1, 0, Start_track
1, 0, Title_t, "L.v.Beethoven 1mov - Kurfursten-Sonatas No.1 in Eb Major WoO 47-1\000"
1, 0, Copyright_t, "Copyright(C) 1995-2009, Suzuki Software\000"
1, 0, Sequencer_specific, 9, 67, 123, 0, 88, 70, 48, 50, 0, 1
1, 0, Text_t, "XFhd:2009/03/14:JP:Classical::::L.v.Beethoven:::Kaoru Suzuki\000"
1, 0, Text_t, "XFln:JP:\221I\222é\214ò\203\\\203i\203^\221æ1\224Ô\225Ï\203z\222·\222² WoO 47-1\201`\221æ1\212y\217Í:L.v.\203x\201[\203g\201[\203\224\203F\203\223:::\227é\202¿\202á\202ñ:\227é\202¿\202á\202ñ\000"
1, 0, Time_signature, 4, 2, 96, 8
1, 0, Sequencer_specific, 5, 0, 0, 119, 14, 0
1, 0, Tempo, 428571
1, 96, Tempo, 251046
1, 960, Tempo, 428571
1, 6528, Tempo, 441176
1, 6720, Tempo, 461538
1, 7104, Tempo, 428571
1, 15744, Tempo, 441176
1, 15936, Tempo, 461538
1, 16896, Tempo, 428571
1, 29952, Tempo, 441176
1, 30336, Tempo, 461538
1, 30528, Tempo, 500000
1, 30720, Tempo, 428571
1, 45888, Tempo, 441176
1, 46080, Tempo, 461538
1, 46464, Tempo, 500000
1, 47232, Tempo, 461538
1, 47616, Tempo, 428571
1, 52608, Tempo, 441176
1, 52800, Tempo, 461538
1, 53184, Tempo, 428571
1, 79104, Tempo, 441176
1, 79488, Tempo, 461538
1, 79680, Tempo, 500000
1, 79872, Tempo, 428571
1, 91776, Tempo, 441176
1, 91968, Tempo, 461538
1, 92544, Tempo, 500000
1, 93312, Tempo, 428571
1, 104064, Tempo, 441176
1, 104256, Tempo, 461538
1, 104640, Tempo, 428571
1, 107904, Tempo, 461538
1, 109056, Tempo, 428571
1, 114432, Tempo, 441176
1, 114816, Tempo, 461538
1, 115008, Tempo, 500000
1, 115200, Tempo, 428571
1, 115968, Tempo, 441176
1, 116352, Tempo, 461538
1, 116544, Tempo, 500000
1, 116736, Tempo, 428571
1, 119040, Tempo, 441176
1, 119424, Tempo, 461538
1, 119616, Tempo, 500000
1, 120000, Tempo, 428571
1, 130944, Tempo, 441176
1, 131136, Tempo, 461538
1, 132096, Tempo, 428571
1, 148608, Tempo, 441176
1, 148800, Tempo, 461538
1, 148992, Tempo, 428571
1, 160896, Tempo, 441176
1, 161088, Tempo, 461538
1, 161664, Tempo, 500000
1, 162432, Tempo, 447761
1, 162816, Tempo, 428571
1, 167808, Tempo, 441176
1, 168000, Tempo, 461538
1, 168384, Tempo, 428571
1, 173760, Tempo, 416666
1, 175872, Tempo, 428571
1, 176256, Tempo, 441176
1, 177024, Tempo, 461538
1, 178176, Tempo, 428571
1, 183552, Tempo, 441176
1, 183936, Tempo, 461538
1, 184128, Tempo, 500000
1, 184320, Tempo, 428571
1, 185088, Tempo, 441176
1, 185472, Tempo, 461538
1, 185664, Tempo, 500000
1, 185856, Tempo, 428571
1, 188160, Tempo, 441176
1, 188544, Tempo, 461538
1, 188736, Tempo, 500000
1, 189120, Tempo, 428571
1, 200064, Tempo, 441176
1, 200256, Tempo, 461538
1, 201216, Tempo, 428571
1, 217344, Tempo, 441176
1, 217728, Tempo, 461538
1, 217920, Tempo, 483870
1, 218112, Tempo, 428571
1, 228480, Tempo, 441176
1, 230016, Tempo, 461538
1, 230208, Tempo, 500000
1, 230784, Tempo, 600000
1, 230784, End_track
2, 0, Start_track
2, 0, Title_t, "Piano Right"
2, 0, Control_c, 0, 0, 0
2, 0, Program_c, 0, 0
2, 0, Control_c, 0, 7, 100
2, 0, Control_c, 0, 10, 72
2, 0, Control_c, 0, 91, 127
2, 0, Key_signature, -3, "major"
2, 1152, Note_on_c, 0, 58, 70
2, 1436, Note_off_c, 0, 58, 100
2, 1440, Note_on_c, 0, 58, 70
2, 1532, Note_off_c, 0, 58, 100
2, 1536, Note_on_c, 0, 55, 70
2, 1536, Note_on_c, 0, 63, 70
2, 1916, Note_off_c, 0, 55, 100
2, 1916, Note_off_c, 0, 63, 100
2, 1920, Note_on_c, 0, 55, 100
2, 1920, Note_on_c, 0, 63, 100
2, 2492, Note_off_c, 0, 55, 100
2, 2492, Note_off_c, 0, 63, 100
2, 2496, Note_on_c, 0, 58, 100
2, 2684, Note_off_c, 0, 58, 100
2, 2688, Note_on_c, 0, 63, 100
2, 2876, Note_off_c, 0, 63, 100
2, 2880, Note_on_c, 0, 65, 85
2, 3068, Note_off_c, 0, 65, 100
2, 3072, Note_on_c, 0, 63, 70
2, 3072, Note_on_c, 0, 67, 70
2, 3452, Note_off_c, 0, 63, 100
2, 3452, Note_off_c, 0, 67, 100
2, 3456, Note_on_c, 0, 63, 100
2, 3456, Note_on_c, 0, 67, 100
2, 4028, Note_off_c, 0, 63, 100
2, 4028, Note_off_c, 0, 67, 100
2, 4032, Note_on_c, 0, 58, 100
2, 4032, Note_on_c, 0, 63, 100
2, 4220, Note_off_c, 0, 58, 100
2, 4220, Note_off_c, 0, 63, 100
2, 4224, Note_on_c, 0, 63, 100
2, 4224, Note_on_c, 0, 67, 100
2, 4412, Note_off_c, 0, 63, 100
2, 4412, Note_off_c, 0, 67, 100
2, 4416, Note_on_c, 0, 65, 85
2, 4416, Note_on_c, 0, 68, 85
2, 4604, Note_off_c, 0, 65, 100
2, 4604, Note_off_c, 0, 68, 100
2, 4608, Note_on_c, 0, 67, 70
2, 4608, Note_on_c, 0, 70, 70
2, 4988, Note_off_c, 0, 67, 100
2, 4988, Note_off_c, 0, 70, 100
2, 4992, Note_on_c, 0, 67, 100
2, 4992, Note_on_c, 0, 70, 100
2, 5564, Note_off_c, 0, 67, 100
2, 5564, Note_off_c, 0, 70, 100
2, 5568, Note_on_c, 0, 72, 100
2, 5568, Note_on_c, 0, 75, 100
2, 5756, Note_off_c, 0, 72, 100
2, 5756, Note_off_c, 0, 75, 100
2, 5760, Note_on_c, 0, 70, 100
2, 5760, Note_on_c, 0, 74, 100
2, 5948, Note_off_c, 0, 70, 100
2, 5948, Note_off_c, 0, 74, 100
2, 5952, Note_on_c, 0, 68, 100
2, 5952, Note_on_c, 0, 72, 100
2, 6140, Note_off_c, 0, 68, 100
2, 6140, Note_off_c, 0, 72, 100
2, 6144, Note_on_c, 0, 68, 100
2, 6144, Note_on_c, 0, 72, 100
2, 6332, Note_off_c, 0, 68, 100
2, 6332, Note_off_c, 0, 72, 100
2, 6336, Note_on_c, 0, 67, 100
2, 6336, Note_on_c, 0, 70, 100
2, 6524, Note_off_c, 0, 67, 100
2, 6524, Note_off_c, 0, 70, 100
2, 6528, Note_on_c, 0, 67, 100
2, 6528, Note_on_c, 0, 70, 100
2, 7100, Note_off_c, 0, 67, 100
2, 7100, Note_off_c, 0, 70, 100
2, 7104, Note_on_c, 0, 75, 100
2, 7292, Note_off_c, 0, 75, 100
2, 7296, Note_on_c, 0, 75, 100
2, 7484, Note_off_c, 0, 75, 100
2, 7488, Note_on_c, 0, 75, 100
2, 7676, Note_off_c, 0, 75, 100
2, 7680, Note_on_c, 0, 75, 100
2, 7728, Note_on_c, 0, 77, 100
2, 7772, Note_off_c, 0, 75, 100
2, 7776, Note_on_c, 0, 75, 100
2, 7820, Note_off_c, 0, 77, 100
2, 7868, Note_off_c, 0, 75, 100
2, 7872, Note_on_c, 0, 74, 100
2, 8060, Note_off_c, 0, 74, 100
2, 8064, Note_on_c, 0, 74, 100
2, 8444, Note_off_c, 0, 74, 100
2, 8640, Note_on_c, 0, 82, 100
2, 8688, Note_on_c, 0, 80, 100
2, 8732, Note_off_c, 0, 82, 100
2, 8828, Note_off_c, 0, 80, 100
2, 8832, Note_on_c, 0, 79, 100
2, 8880, Note_on_c, 0, 77, 100
2, 8924, Note_off_c, 0, 79, 100
2, 9020, Note_off_c, 0, 77, 100
2, 9024, Note_on_c, 0, 75, 100
2, 9072, Note_on_c, 0, 74, 100
2, 9116, Note_off_c, 0, 75, 100
2, 9212, Note_off_c, 0, 74, 100
2, 9216, Note_on_c, 0, 74, 100
2, 9404, Note_off_c, 0, 74, 100
2, 9408, Note_on_c, 0, 75, 100
2, 9596, Note_off_c, 0, 75, 100
2, 9600, Note_on_c, 0, 75, 100
2, 9980, Note_off_c, 0, 75, 100
2, 10176, Note_on_c, 0, 84, 100
2, 10224, Note_on_c, 0, 82, 100
2, 10268, Note_off_c, 0, 84, 100
2, 10364, Note_off_c, 0, 82, 100
2, 10368, Note_on_c, 0, 80, 100
2, 10416, Note_on_c, 0, 79, 100
2, 10460, Note_off_c, 0, 80, 100
2, 10556, Note_off_c, 0, 79, 100
2, 10560, Note_on_c, 0, 77, 100
2, 10608, Note_on_c, 0, 75, 100
2, 10652, Note_off_c, 0, 77, 100
2, 10748, Note_off_c, 0, 75, 100
2, 10752, Note_on_c, 0, 75, 100
2, 10800, Note_on_c, 0, 77, 100
2, 10844, Note_off_c, 0, 75, 100
2, 10848, Note_on_c, 0, 75, 100
2, 10892, Note_off_c, 0, 77, 100
2, 10896, Note_on_c, 0, 77, 100
2, 10940, Note_off_c, 0, 75, 100
2, 10944, Note_on_c, 0, 74, 100
2, 10988, Note_off_c, 0, 77, 100
2, 11132, Note_off_c, 0, 74, 100
2, 11136, Note_on_c, 0, 74, 100
2, 11708, Note_off_c, 0, 74, 100
2, 11712, Note_on_c, 0, 82, 100
2, 11760, Note_on_c, 0, 80, 100
2, 11804, Note_off_c, 0, 82, 100
2, 11900, Note_off_c, 0, 80, 100
2, 11904, Note_on_c, 0, 79, 100
2, 11952, Note_on_c, 0, 77, 100
2, 11996, Note_off_c, 0, 79, 100
2, 12092, Note_off_c, 0, 77, 100
2, 12096, Note_on_c, 0, 75, 100
2, 12144, Note_on_c, 0, 74, 100
2, 12188, Note_off_c, 0, 75, 100
2, 12284, Note_off_c, 0, 74, 100
2, 12288, Note_on_c, 0, 75, 120
2, 12476, Note_off_c, 0, 75, 100
2, 12480, Note_on_c, 0, 79, 120
2, 12572, Note_off_c, 0, 79, 100
2, 12576, Note_on_c, 0, 77, 120
2, 12668, Note_off_c, 0, 77, 100
2, 12672, Note_on_c, 0, 75, 120
2, 12860, Note_off_c, 0, 75, 100
2, 12864, Note_on_c, 0, 74, 120
2, 13052, Note_off_c, 0, 74, 100
2, 13056, Note_on_c, 0, 72, 120
2, 13244, Note_off_c, 0, 72, 100
2, 13248, Note_on_c, 0, 75, 120
2, 13340, Note_off_c, 0, 75, 100
2, 13344, Note_on_c, 0, 74, 120
2, 13436, Note_off_c, 0, 74, 100
2, 13440, Note_on_c, 0, 72, 120
2, 13628, Note_off_c, 0, 72, 100
2, 13632, Note_on_c, 0, 70, 120
2, 13820, Note_off_c, 0, 70, 100
2, 13824, Note_on_c, 0, 68, 120
2, 14012, Note_off_c, 0, 68, 100
2, 14016, Note_on_c, 0, 72, 120
2, 14108, Note_off_c, 0, 72, 100
2, 14112, Note_on_c, 0, 70, 120
2, 14204, Note_off_c, 0, 70, 100
2, 14208, Note_on_c, 0, 68, 120
2, 14396, Note_off_c, 0, 68, 100
2, 14400, Note_on_c, 0, 67, 120
2, 14588, Note_off_c, 0, 67, 100
2, 14592, Note_on_c, 0, 65, 120
2, 14780, Note_off_c, 0, 65, 100
2, 14784, Note_on_c, 0, 68, 120
2, 14876, Note_off_c, 0, 68, 100
2, 14880, Note_on_c, 0, 67, 120
2, 14972, Note_off_c, 0, 67, 100
2, 14976, Note_on_c, 0, 65, 120
2, 15164, Note_off_c, 0, 65, 100
2, 15168, Note_on_c, 0, 63, 120
2, 15356, Note_off_c, 0, 63, 100
2, 15360, Note_on_c, 0, 62, 120
2, 15408, Note_on_c, 0, 70, 120
2, 15452, Note_off_c, 0, 62, 100
2, 15548, Note_off_c, 0, 70, 100
2, 15552, Note_on_c, 0, 62, 120
2, 15644, Note_off_c, 0, 62, 100
2, 15648, Note_on_c, 0, 63, 120
2, 15740, Note_off_c, 0, 63, 100
2, 15744, Note_on_c, 0, 65, 120
2, 15836, Note_off_c, 0, 65, 100
2, 15840, Note_on_c, 0, 63, 120
2, 15932, Note_off_c, 0, 63, 100
2, 15936, Note_on_c, 0, 62, 120
2, 16028, Note_off_c, 0, 62, 100
2, 16032, Note_on_c, 0, 60, 120
2, 16124, Note_off_c, 0, 60, 100
2, 16128, Note_on_c, 0, 58, 120
2, 16892, Note_off_c, 0, 58, 100
2, 16896, Note_on_c, 0, 77, 70
2, 16944, Note_on_c, 0, 79, 70
2, 16988, Note_off_c, 0, 77, 100
2, 16992, Note_on_c, 0, 77, 70
2, 17036, Note_off_c, 0, 79, 100
2, 17276, Note_off_c, 0, 77, 100
2, 17280, Note_on_c, 0, 77, 70
2, 17852, Note_off_c, 0, 77, 100
2, 17856, Note_on_c, 0, 82, 70
2, 18044, Note_off_c, 0, 82, 100
2, 18048, Note_on_c, 0, 81, 70
2, 18236, Note_off_c, 0, 81, 100
2, 18240, Note_on_c, 0, 79, 70
2, 18428, Note_off_c, 0, 79, 100
2, 18432, Note_on_c, 0, 81, 100
2, 18480, Note_on_c, 0, 79, 100
2, 18524, Note_off_c, 0, 81, 100
2, 18620, Note_off_c, 0, 79, 100
2, 18624, Note_on_c, 0, 77, 100
2, 18812, Note_off_c, 0, 77, 100
2, 18816, Note_on_c, 0, 77, 100
2, 19388, Note_off_c, 0, 77, 100
2, 19392, Note_on_c, 0, 82, 70
2, 19580, Note_off_c, 0, 82, 100
2, 19584, Note_on_c, 0, 81, 70
2, 19772, Note_off_c, 0, 81, 100
2, 19776, Note_on_c, 0, 79, 70
2, 19964, Note_off_c, 0, 79, 100
2, 19968, Note_on_c, 0, 81, 100
2, 20016, Note_on_c, 0, 79, 100
2, 20060, Note_off_c, 0, 81, 100
2, 20156, Note_off_c, 0, 79, 100
2, 20160, Note_on_c, 0, 77, 100
2, 20348, Note_off_c, 0, 77, 100
2, 20352, Note_on_c, 0, 77, 100
2, 20732, Note_off_c, 0, 77, 100
2, 20928, Note_on_c, 0, 77, 70
2, 21116, Note_off_c, 0, 77, 100
2, 21120, Note_on_c, 0, 82, 70
2, 21308, Note_off_c, 0, 82, 100
2, 21312, Note_on_c, 0, 86, 70
2, 21500, Note_off_c, 0, 86, 100
2, 21504, Note_on_c, 0, 84, 100
2, 21596, Note_off_c, 0, 84, 100
2, 21600, Note_on_c, 0, 82, 100
2, 21692, Note_off_c, 0, 82, 100
2, 21696, Note_on_c, 0, 81, 100
2, 21788, Note_off_c, 0, 81, 100
2, 21792, Note_on_c, 0, 82, 100
2, 21884, Note_off_c, 0, 82, 100
2, 21888, Note_on_c, 0, 81, 100
2, 21980, Note_off_c, 0, 81, 100
2, 21984, Note_on_c, 0, 79, 100
2, 22076, Note_off_c, 0, 79, 100
2, 22080, Note_on_c, 0, 77, 100
2, 22172, Note_off_c, 0, 77, 100
2, 22176, Note_on_c, 0, 79, 100
2, 22268, Note_off_c, 0, 79, 100
2, 22272, Note_on_c, 0, 77, 100
2, 22844, Note_off_c, 0, 77, 100
2, 22848, Note_on_c, 0, 75, 100
2, 23036, Note_off_c, 0, 75, 100
2, 23040, Note_on_c, 0, 74, 120
2, 23132, Note_off_c, 0, 74, 100
2, 23136, Note_on_c, 0, 75, 120
2, 23228, Note_off_c, 0, 75, 100
2, 23232, Note_on_c, 0, 77, 120
2, 23324, Note_off_c, 0, 77, 100
2, 23328, Note_on_c, 0, 75, 120
2, 23420, Note_off_c, 0, 75, 100
2, 23424, Note_on_c, 0, 74, 120
2, 23516, Note_off_c, 0, 74, 100
2, 23520, Note_on_c, 0, 72, 120
2, 23612, Note_off_c, 0, 72, 100
2, 23616, Note_on_c, 0, 70, 120
2, 23708, Note_off_c, 0, 70, 100
2, 23712, Note_on_c, 0, 69, 120
2, 23804, Note_off_c, 0, 69, 100
2, 23808, Note_on_c, 0, 70, 120
2, 23900, Note_off_c, 0, 70, 100
2, 23904, Note_on_c, 0, 72, 120
2, 23996, Note_off_c, 0, 72, 100
2, 24000, Note_on_c, 0, 74, 120
2, 24092, Note_off_c, 0, 74, 100
2, 24096, Note_on_c, 0, 72, 120
2, 24188, Note_off_c, 0, 72, 100
2, 24192, Note_on_c, 0, 70, 120
2, 24284, Note_off_c, 0, 70, 100
2, 24288, Note_on_c, 0, 68, 120
2, 24380, Note_off_c, 0, 68, 100
2, 24384, Note_on_c, 0, 67, 120
2, 24476, Note_off_c, 0, 67, 100
2, 24480, Note_on_c, 0, 66, 120
2, 24572, Note_off_c, 0, 66, 100
2, 24576, Note_on_c, 0, 67, 120
2, 24668, Note_off_c, 0, 67, 100
2, 24672, Note_on_c, 0, 66, 120
2, 24764, Note_off_c, 0, 66, 100
2, 24768, Note_on_c, 0, 67, 120
2, 24860, Note_off_c, 0, 67, 100
2, 24864, Note_on_c, 0, 66, 120
2, 24956, Note_off_c, 0, 66, 100
2, 24960, Note_on_c, 0, 67, 120
2, 25052, Note_off_c, 0, 67, 100
2, 25056, Note_on_c, 0, 66, 120
2, 25148, Note_off_c, 0, 66, 100
2, 25152, Note_on_c, 0, 67, 120
2, 25244, Note_off_c, 0, 67, 100
2, 25248, Note_on_c, 0, 66, 120
2, 25340, Note_off_c, 0, 66, 100
2, 25344, Note_on_c, 0, 67, 120
2, 25724, Note_off_c, 0, 67, 100
2, 26112, Note_on_c, 0, 79, 120
2, 26204, Note_off_c, 0, 79, 100
2, 26208, Note_on_c, 0, 71, 120
2, 26300, Note_off_c, 0, 71, 100
2, 26304, Note_on_c, 0, 72, 120
2, 26396, Note_off_c, 0, 72, 100
2, 26400, Note_on_c, 0, 74, 120
2, 26492, Note_off_c, 0, 74, 100
2, 26496, Note_on_c, 0, 75, 120
2, 26588, Note_off_c, 0, 75, 100
2, 26592, Note_on_c, 0, 74, 120
2, 26684, Note_off_c, 0, 74, 100
2, 26688, Note_on_c, 0, 72, 120
2, 26780, Note_off_c, 0, 72, 100
2, 26784, Note_on_c, 0, 71, 120
2, 26876, Note_off_c, 0, 71, 100
2, 26880, Note_on_c, 0, 72, 120
2, 26972, Note_off_c, 0, 72, 100
2, 26976, Note_on_c, 0, 67, 120
2, 27068, Note_off_c, 0, 67, 100
2, 27072, Note_on_c, 0, 69, 120
2, 27164, Note_off_c, 0, 69, 100
2, 27168, Note_on_c, 0, 71, 120
2, 27260, Note_off_c, 0, 71, 100
2, 27264, Note_on_c, 0, 72, 120
2, 27356, Note_off_c, 0, 72, 100
2, 27360, Note_on_c, 0, 70, 120
2, 27452, Note_off_c, 0, 70, 100
2, 27456, Note_on_c, 0, 69, 120
2, 27548, Note_off_c, 0, 69, 100
2, 27552, Note_on_c, 0, 68, 120
2, 27644, Note_off_c, 0, 68, 100
2, 27648, Note_on_c, 0, 69, 120
2, 27740, Note_off_c, 0, 69, 100
2, 27744, Note_on_c, 0, 68, 120
2, 27836, Note_off_c, 0, 68, 100
2, 27840, Note_on_c, 0, 69, 120
2, 27932, Note_off_c, 0, 69, 100
2, 27936, Note_on_c, 0, 68, 120
2, 28028, Note_off_c, 0, 68, 100
2, 28032, Note_on_c, 0, 69, 120
2, 28124, Note_off_c, 0, 69, 100
2, 28128, Note_on_c, 0, 68, 120
2, 28220, Note_off_c, 0, 68, 100
2, 28224, Note_on_c, 0, 69, 120
2, 28316, Note_off_c, 0, 69, 100
2, 28320, Note_on_c, 0, 68, 120
2, 28412, Note_off_c, 0, 68, 100
2, 28416, Note_on_c, 0, 69, 120
2, 28796, Note_off_c, 0, 69, 100
2, 29184, Note_on_c, 0, 72, 120
2, 29276, Note_off_c, 0, 72, 100
2, 29280, Note_on_c, 0, 74, 120
2, 29372, Note_off_c, 0, 74, 100
2, 29376, Note_on_c, 0, 75, 120
2, 29468, Note_off_c, 0, 75, 100
2, 29472, Note_on_c, 0, 74, 120
2, 29564, Note_off_c, 0, 74, 100
2, 29568, Note_on_c, 0, 72, 120
2, 29660, Note_off_c, 0, 72, 100
2, 29664, Note_on_c, 0, 70, 120
2, 29756, Note_off_c, 0, 70, 100
2, 29760, Note_on_c, 0, 69, 120
2, 29852, Note_off_c, 0, 69, 100
2, 29856, Note_on_c, 0, 67, 120
2, 29948, Note_off_c, 0, 67, 100
2, 29952, Note_on_c, 0, 69, 120
2, 30044, Note_off_c, 0, 69, 100
2, 30048, Note_on_c, 0, 70, 120
2, 30140, Note_off_c, 0, 70, 100
2, 30144, Note_on_c, 0, 72, 120
2, 30236, Note_off_c, 0, 72, 100
2, 30240, Note_on_c, 0, 70, 120
2, 30332, Note_off_c, 0, 70, 100
2, 30336, Note_on_c, 0, 69, 120
2, 30428, Note_off_c, 0, 69, 100
2, 30432, Note_on_c, 0, 67, 120
2, 30524, Note_off_c, 0, 67, 100
2, 30528, Note_on_c, 0, 65, 120
2, 30620, Note_off_c, 0, 65, 100
2, 30624, Note_on_c, 0, 63, 120
2, 30716, Note_off_c, 0, 63, 100
2, 30720, Note_on_c, 0, 62, 120
2, 30908, Note_off_c, 0, 62, 100
2, 30912, Note_on_c, 0, 58, 120
2, 31004, Note_off_c, 0, 58, 100
2, 31008, Note_on_c, 0, 62, 120
2, 31100, Note_off_c, 0, 62, 100
2, 31104, Note_on_c, 0, 60, 120
2, 31196, Note_off_c, 0, 60, 100
2, 31200, Note_on_c, 0, 63, 120
2, 31292, Note_off_c, 0, 63, 100
2, 31296, Note_on_c, 0, 62, 120
2, 31388, Note_off_c, 0, 62, 100
2, 31392, Note_on_c, 0, 65, 120
2, 31484, Note_off_c, 0, 65, 100
2, 31488, Note_on_c, 0, 63, 120
2, 31580, Note_off_c, 0, 63, 100
2, 31584, Note_on_c, 0, 67, 120
2, 31676, Note_off_c, 0, 67, 100
2, 31680, Note_on_c, 0, 65, 120
2, 31772, Note_off_c, 0, 65, 100
2, 31776, Note_on_c, 0, 69, 120
2, 31868, Note_off_c, 0, 69, 100
2, 31872, Note_on_c, 0, 67, 120
2, 31964, Note_off_c, 0, 67, 100
2, 31968, Note_on_c, 0, 70, 120
2, 32060, Note_off_c, 0, 70, 100
2, 32064, Note_on_c, 0, 69, 120
2, 32156, Note_off_c, 0, 69, 100
2, 32160, Note_on_c, 0, 72, 120
2, 32252, Note_off_c, 0, 72, 100
2, 32256, Note_on_c, 0, 70, 120
2, 32256, Note_on_c, 0, 82, 120
2, 33788, Note_off_c, 0, 70, 100
2, 33788, Note_off_c, 0, 82, 100
2, 33792, Note_on_c, 0, 70, 90
2, 33840, Note_on_c, 0, 82, 90
2, 33884, Note_off_c, 0, 70, 100
2, 34172, Note_off_c, 0, 82, 100
2, 34176, Note_on_c, 0, 82, 90
2, 34556, Note_off_c, 0, 82, 100
2, 34752, Note_on_c, 0, 80, 90
2, 34940, Note_off_c, 0, 80, 100
2, 34944, Note_on_c, 0, 79, 90
2, 35132, Note_off_c, 0, 79, 100
2, 35136, Note_on_c, 0, 78, 90
2, 35324, Note_off_c, 0, 78, 100
2, 35328, Note_on_c, 0, 79, 90
2, 35420, Note_off_c, 0, 79, 100
2, 35424, Note_on_c, 0, 79, 90
2, 35516, Note_off_c, 0, 79, 100
2, 35520, Note_on_c, 0, 82, 90
2, 35612, Note_off_c, 0, 82, 100
2, 35616, Note_on_c, 0, 79, 90
2, 35708, Note_off_c, 0, 79, 100
2, 35712, Note_on_c, 0, 87, 90
2, 35804, Note_off_c, 0, 87, 100
2, 35808, Note_on_c, 0, 82, 90
2, 35900, Note_off_c, 0, 82, 100
2, 35904, Note_on_c, 0, 79, 90
2, 35996, Note_off_c, 0, 79, 100
2, 36000, Note_on_c, 0, 75, 90
2, 36092, Note_off_c, 0, 75, 100
2, 36096, Note_on_c, 0, 74, 90
2, 36188, Note_off_c, 0, 74, 100
2, 36192, Note_on_c, 0, 75, 90
2, 36284, Note_off_c, 0, 75, 100
2, 36288, Note_on_c, 0, 79, 90
2, 36380, Note_off_c, 0, 79, 100
2, 36384, Note_on_c, 0, 75, 90
2, 36476, Note_off_c, 0, 75, 100
2, 36480, Note_on_c, 0, 79, 90
2, 36572, Note_off_c, 0, 79, 100
2, 36576, Note_on_c, 0, 75, 90
2, 36668, Note_off_c, 0, 75, 100
2, 36672, Note_on_c, 0, 70, 90
2, 36764, Note_off_c, 0, 70, 100
2, 36768, Note_on_c, 0, 67, 90
2, 36860, Note_off_c, 0, 67, 100
2, 36864, Note_on_c, 0, 65, 90
2, 36956, Note_off_c, 0, 65, 100
2, 36960, Note_on_c, 0, 70, 90
2, 37052, Note_off_c, 0, 70, 100
2, 37056, Note_on_c, 0, 74, 90
2, 37148, Note_off_c, 0, 74, 100
2, 37152, Note_on_c, 0, 70, 90
2, 37244, Note_off_c, 0, 70, 100
2, 37248, Note_on_c, 0, 77, 90
2, 37340, Note_off_c, 0, 77, 100
2, 37344, Note_on_c, 0, 70, 90
2, 37436, Note_off_c, 0, 70, 100
2, 37440, Note_on_c, 0, 74, 90
2, 37532, Note_off_c, 0, 74, 100
2, 37536, Note_on_c, 0, 70, 90
2, 37628, Note_off_c, 0, 70, 100
2, 37632, Note_on_c, 0, 72, 90
2, 37696, Note_on_c, 0, 74, 90
2, 37756, Note_off_c, 0, 72, 100
2, 37760, Note_on_c, 0, 72, 90
2, 37820, Note_off_c, 0, 74, 100
2, 37824, Note_on_c, 0, 74, 90
2, 37884, Note_off_c, 0, 72, 100
2, 37888, Note_on_c, 0, 72, 90
2, 37948, Note_off_c, 0, 74, 100
2, 37952, Note_on_c, 0, 74, 90
2, 38012, Note_off_c, 0, 72, 100
2, 38016, Note_on_c, 0, 72, 90
2, 38076, Note_off_c, 0, 74, 100
2, 38080, Note_on_c, 0, 74, 90
2, 38140, Note_off_c, 0, 72, 100
2, 38144, Note_on_c, 0, 72, 90
2, 38204, Note_off_c, 0, 74, 100
2, 38208, Note_on_c, 0, 70, 90
2, 38268, Note_off_c, 0, 72, 100
2, 38300, Note_off_c, 0, 70, 100
2, 38304, Note_on_c, 0, 72, 90
2, 38396, Note_off_c, 0, 72, 100
2, 38400, Note_on_c, 0, 70, 90
2, 38780, Note_off_c, 0, 70, 100
2, 38976, Note_on_c, 0, 86, 100
2, 39068, Note_off_c, 0, 86, 100
2, 39072, Note_on_c, 0, 87, 100
2, 39164, Note_off_c, 0, 87, 100
2, 39168, Note_on_c, 0, 89, 100
2, 39356, Note_off_c, 0, 89, 100
2, 39360, Note_on_c, 0, 86, 100
2, 39452, Note_off_c, 0, 86, 100
2, 39456, Note_on_c, 0, 87, 100
2, 39548, Note_off_c, 0, 87, 100
2, 39552, Note_on_c, 0, 89, 100
2, 39740, Note_off_c, 0, 89, 100
2, 39744, Note_on_c, 0, 86, 100
2, 39836, Note_off_c, 0, 86, 100
2, 39840, Note_on_c, 0, 87, 100
2, 39932, Note_off_c, 0, 87, 100
2, 39936, Note_on_c, 0, 89, 100
2, 40316, Note_off_c, 0, 89, 100
2, 40896, Note_on_c, 0, 75, 70
2, 41084, Note_off_c, 0, 75, 100
2, 41088, Note_on_c, 0, 72, 70
2, 41276, Note_off_c, 0, 72, 100
2, 41280, Note_on_c, 0, 69, 70
2, 41468, Note_off_c, 0, 69, 100
2, 41472, Note_on_c, 0, 70, 70
2, 41852, Note_off_c, 0, 70, 100
2, 42048, Note_on_c, 0, 74, 100
2, 42140, Note_off_c, 0, 74, 100
2, 42144, Note_on_c, 0, 75, 100
2, 42236, Note_off_c, 0, 75, 100
2, 42240, Note_on_c, 0, 77, 100
2, 42428, Note_off_c, 0, 77, 100
2, 42432, Note_on_c, 0, 74, 100
2, 42524, Note_off_c, 0, 74, 100
2, 42528, Note_on_c, 0, 75, 100
2, 42620, Note_off_c, 0, 75, 100
2, 42624, Note_on_c, 0, 77, 100
2, 42812, Note_off_c, 0, 77, 100
2, 42816, Note_on_c, 0, 74, 100
2, 42908, Note_off_c, 0, 74, 100
2, 42912, Note_on_c, 0, 75, 100
2, 43004, Note_off_c, 0, 75, 100
2, 43008, Note_on_c, 0, 77, 100
2, 43388, Note_off_c, 0, 77, 100
2, 43968, Note_on_c, 0, 75, 70
2, 44156, Note_off_c, 0, 75, 100
2, 44160, Note_on_c, 0, 72, 70
2, 44348, Note_off_c, 0, 72, 100
2, 44352, Note_on_c, 0, 69, 70
2, 44540, Note_off_c, 0, 69, 100
2, 44544, Note_on_c, 0, 70, 70
2, 44924, Note_off_c, 0, 70, 100
2, 45504, Note_on_c, 0, 75, 60
2, 45692, Note_off_c, 0, 75, 100
2, 45696, Note_on_c, 0, 72, 60
2, 45884, Note_off_c, 0, 72, 100
2, 45888, Note_on_c, 0, 69, 60
2, 46076, Note_off_c, 0, 69, 100
2, 46080, Note_on_c, 0, 62, 60
2, 46080, Note_on_c, 0, 70, 60
2, 46460, Note_off_c, 0, 62, 100
2, 46460, Note_off_c, 0, 70, 100
2, 46464, Note_on_c, 0, 62, 60
2, 46464, Note_on_c, 0, 70, 60
2, 46844, Note_off_c, 0, 62, 100
2, 46844, Note_off_c, 0, 70, 100
2, 46848, Note_on_c, 0, 62, 60
2, 46848, Note_on_c, 0, 70, 60
2, 47228, Note_off_c, 0, 62, 100
2, 47228, Note_off_c, 0, 70, 100
2, 47232, Note_on_c, 0, 58, 70
2, 47516, Note_off_c, 0, 58, 100
2, 47520, Note_on_c, 0, 58, 70
2, 47612, Note_off_c, 0, 58, 100
2, 47616, Note_on_c, 0, 55, 70
2, 47616, Note_on_c, 0, 63, 70
2, 47996, Note_off_c, 0, 55, 100
2, 47996, Note_off_c, 0, 63, 100
2, 48000, Note_on_c, 0, 55, 100
2, 48000, Note_on_c, 0, 63, 100
2, 48572, Note_off_c, 0, 55, 100
2, 48572, Note_off_c, 0, 63, 100
2, 48576, Note_on_c, 0, 58, 100
2, 48764, Note_off_c, 0, 58, 100
2, 48768, Note_on_c, 0, 63, 100
2, 48956, Note_off_c, 0, 63, 100
2, 48960, Note_on_c, 0, 65, 85
2, 49148, Note_off_c, 0, 65, 100
2, 49152, Note_on_c, 0, 63, 70
2, 49152, Note_on_c, 0, 67, 70
2, 49532, Note_off_c, 0, 63, 100
2, 49532, Note_off_c, 0, 67, 100
2, 49536, Note_on_c, 0, 63, 100
2, 49536, Note_on_c, 0, 67, 100
2, 50108, Note_off_c, 0, 63, 100
2, 50108, Note_off_c, 0, 67, 100
2, 50112, Note_on_c, 0, 58, 100
2, 50112, Note_on_c, 0, 63, 100
2, 50300, Note_off_c, 0, 58, 100
2, 50300, Note_off_c, 0, 63, 100
2, 50304, Note_on_c, 0, 63, 100
2, 50304, Note_on_c, 0, 67, 100
2, 50492, Note_off_c, 0, 63, 100
2, 50492, Note_off_c, 0, 67, 100
2, 50496, Note_on_c, 0, 65, 85
2, 50496, Note_on_c, 0, 68, 85
2, 50684, Note_off_c, 0, 65, 100
2, 50684, Note_off_c, 0, 68, 100
2, 50688, Note_on_c, 0, 67, 70
2, 50688, Note_on_c, 0, 70, 70
2, 51068, Note_off_c, 0, 67, 100
2, 51068, Note_off_c, 0, 70, 100
2, 51072, Note_on_c, 0, 67, 100
2, 51072, Note_on_c, 0, 70, 100
2, 51644, Note_off_c, 0, 67, 100
2, 51644, Note_off_c, 0, 70, 100
2, 51648, Note_on_c, 0, 72, 100
2, 51648, Note_on_c, 0, 75, 100
2, 51836, Note_off_c, 0, 72, 100
2, 51836, Note_off_c, 0, 75, 100
2, 51840, Note_on_c, 0, 70, 100
2, 51840, Note_on_c, 0, 74, 100
2, 52028, Note_off_c, 0, 70, 100
2, 52028, Note_off_c, 0, 74, 100
2, 52032, Note_on_c, 0, 68, 100
2, 52032, Note_on_c, 0, 72, 100
2, 52220, Note_off_c, 0, 68, 100
2, 52220, Note_off_c, 0, 72, 100
2, 52224, Note_on_c, 0, 68, 100
2, 52224, Note_on_c, 0, 72, 100
2, 52412, Note_off_c, 0, 68, 100
2, 52412, Note_off_c, 0, 72, 100
2, 52416, Note_on_c, 0, 67, 100
2, 52416, Note_on_c, 0, 70, 100
2, 52604, Note_off_c, 0, 67, 100
2, 52604, Note_off_c, 0, 70, 100
2, 52608, Note_on_c, 0, 67, 100
2, 52608, Note_on_c, 0, 70, 100
2, 53180, Note_off_c, 0, 67, 100
2, 53180, Note_off_c, 0, 70, 100
2, 53184, Note_on_c, 0, 75, 100
2, 53372, Note_off_c, 0, 75, 100
2, 53376, Note_on_c, 0, 75, 100
2, 53564, Note_off_c, 0, 75, 100
2, 53568, Note_on_c, 0, 75, 100
2, 53756, Note_off_c, 0, 75, 100
2, 53760, Note_on_c, 0, 75, 100
2, 53808, Note_on_c, 0, 77, 100
2, 53852, Note_off_c, 0, 75, 100
2, 53856, Note_on_c, 0, 75, 100
2, 53900, Note_off_c, 0, 77, 100
2, 53948, Note_off_c, 0, 75, 100
2, 53952, Note_on_c, 0, 74, 100
2, 54140, Note_off_c, 0, 74, 100
2, 54144, Note_on_c, 0, 74, 100
2, 54524, Note_off_c, 0, 74, 100
2, 54720, Note_on_c, 0, 82, 100
2, 54768, Note_on_c, 0, 80, 100
2, 54812, Note_off_c, 0, 82, 100
2, 54908, Note_off_c, 0, 80, 100
2, 54912, Note_on_c, 0, 79, 100
2, 54960, Note_on_c, 0, 77, 100
2, 55004, Note_off_c, 0, 79, 100
2, 55100, Note_off_c, 0, 77, 100
2, 55104, Note_on_c, 0, 75, 100
2, 55152, Note_on_c, 0, 74, 100
2, 55196, Note_off_c, 0, 75, 100
2, 55292, Note_off_c, 0, 74, 100
2, 55296, Note_on_c, 0, 74, 100
2, 55484, Note_off_c, 0, 74, 100
2, 55488, Note_on_c, 0, 75, 100
2, 55676, Note_off_c, 0, 75, 100
2, 55680, Note_on_c, 0, 75, 100
2, 56060, Note_off_c, 0, 75, 100
2, 56256, Note_on_c, 0, 84, 100
2, 56304, Note_on_c, 0, 82, 100
2, 56348, Note_off_c, 0, 84, 100
2, 56444, Note_off_c, 0, 82, 100
2, 56448, Note_on_c, 0, 80, 100
2, 56496, Note_on_c, 0, 79, 100
2, 56540, Note_off_c, 0, 80, 100
2, 56636, Note_off_c, 0, 79, 100
2, 56640, Note_on_c, 0, 77, 100
2, 56688, Note_on_c, 0, 75, 100
2, 56732, Note_off_c, 0, 77, 100
2, 56828, Note_off_c, 0, 75, 100
2, 56832, Note_on_c, 0, 75, 100
2, 56880, Note_on_c, 0, 77, 100
2, 56924, Note_off_c, 0, 75, 100
2, 56928, Note_on_c, 0, 75, 100
2, 56972, Note_off_c, 0, 77, 100
2, 56976, Note_on_c, 0, 77, 100
2, 57020, Note_off_c, 0, 75, 100
2, 57024, Note_on_c, 0, 74, 100
2, 57068, Note_off_c, 0, 77, 100
2, 57212, Note_off_c, 0, 74, 100
2, 57216, Note_on_c, 0, 74, 100
2, 57788, Note_off_c, 0, 74, 100
2, 57792, Note_on_c, 0, 82, 100
2, 57840, Note_on_c, 0, 80, 100
2, 57884, Note_off_c, 0, 82, 100
2, 57980, Note_off_c, 0, 80, 100
2, 57984, Note_on_c, 0, 79, 100
2, 58032, Note_on_c, 0, 77, 100
2, 58076, Note_off_c, 0, 79, 100
2, 58172, Note_off_c, 0, 77, 100
2, 58176, Note_on_c, 0, 75, 100
2, 58224, Note_on_c, 0, 74, 100
2, 58268, Note_off_c, 0, 75, 100
2, 58364, Note_off_c, 0, 74, 100
2, 58368, Note_on_c, 0, 75, 120
2, 58556, Note_off_c, 0, 75, 100
2, 58560, Note_on_c, 0, 79, 120
2, 58652, Note_off_c, 0, 79, 100
2, 58656, Note_on_c, 0, 77, 120
2, 58748, Note_off_c, 0, 77, 100
2, 58752, Note_on_c, 0, 75, 120
2, 58940, Note_off_c, 0, 75, 100
2, 58944, Note_on_c, 0, 74, 120
2, 59132, Note_off_c, 0, 74, 100
2, 59136, Note_on_c, 0, 72, 120
2, 59324, Note_off_c, 0, 72, 100
2, 59328, Note_on_c, 0, 75, 120
2, 59420, Note_off_c, 0, 75, 100
2, 59424, Note_on_c, 0, 74, 120
2, 59516, Note_off_c, 0, 74, 100
2, 59520, Note_on_c, 0, 72, 120
2, 59708, Note_off_c, 0, 72, 100
2, 59712, Note_on_c, 0, 70, 120
2, 59900, Note_off_c, 0, 70, 100
2, 59904, Note_on_c, 0, 68, 120
2, 60092, Note_off_c, 0, 68, 100
2, 60096, Note_on_c, 0, 72, 120
2, 60188, Note_off_c, 0, 72, 100
2, 60192, Note_on_c, 0, 70, 120
2, 60284, Note_off_c, 0, 70, 100
2, 60288, Note_on_c, 0, 68, 120
2, 60476, Note_off_c, 0, 68, 100
2, 60480, Note_on_c, 0, 67, 120
2, 60668, Note_off_c, 0, 67, 100
2, 60672, Note_on_c, 0, 65, 120
2, 60860, Note_off_c, 0, 65, 100
2, 60864, Note_on_c, 0, 68, 120
2, 60956, Note_off_c, 0, 68, 100
2, 60960, Note_on_c, 0, 67, 120
2, 61052, Note_off_c, 0, 67, 100
2, 61056, Note_on_c, 0, 65, 120
2, 61244, Note_off_c, 0, 65, 100
2, 61248, Note_on_c, 0, 63, 120
2, 61436, Note_off_c, 0, 63, 100
2, 61440, Note_on_c, 0, 62, 120
2, 61488, Note_on_c, 0, 70, 120
2, 61532, Note_off_c, 0, 62, 100
2, 61628, Note_off_c, 0, 70, 100
2, 61632, Note_on_c, 0, 62, 120
2, 61724, Note_off_c, 0, 62, 100
2, 61728, Note_on_c, 0, 63, 120
2, 61820, Note_off_c, 0, 63, 100
2, 61824, Note_on_c, 0, 65, 120
2, 61916, Note_off_c, 0, 65, 100
2, 61920, Note_on_c, 0, 63, 120
2, 62012, Note_off_c, 0, 63, 100
2, 62016, Note_on_c, 0, 62, 120
2, 62108, Note_off_c, 0, 62, 100
2, 62112, Note_on_c, 0, 60, 120
2, 62204, Note_off_c, 0, 60, 100
2, 62208, Note_on_c, 0, 58, 120
2, 62972, Note_off_c, 0, 58, 100
2, 62976, Note_on_c, 0, 77, 70
2, 63024, Note_on_c, 0, 79, 70
2, 63068, Note_off_c, 0, 77, 100
2, 63072, Note_on_c, 0, 77, 70
2, 63116, Note_off_c, 0, 79, 100
2, 63356, Note_off_c, 0, 77, 100
2, 63360, Note_on_c, 0, 77, 70
2, 63932, Note_off_c, 0, 77, 100
2, 63936, Note_on_c, 0, 82, 70
2, 64124, Note_off_c, 0, 82, 100
2, 64128, Note_on_c, 0, 81, 70
2, 64316, Note_off_c, 0, 81, 100
2, 64320, Note_on_c, 0, 79, 70
2, 64508, Note_off_c, 0, 79, 100
2, 64512, Note_on_c, 0, 81, 100
2, 64560, Note_on_c, 0, 79, 100
2, 64604, Note_off_c, 0, 81, 100
2, 64700, Note_off_c, 0, 79, 100
2, 64704, Note_on_c, 0, 77, 100
2, 64892, Note_off_c, 0, 77, 100
2, 64896, Note_on_c, 0, 77, 100
2, 65468, Note_off_c, 0, 77, 100
2, 65472, Note_on_c, 0, 82, 70
2, 65660, Note_off_c, 0, 82, 100
2, 65664, Note_on_c, 0, 81, 70
2, 65852, Note_off_c, 0, 81, 100
2, 65856, Note_on_c, 0, 79, 70
2, 66044, Note_off_c, 0, 79, 100
2, 66048, Note_on_c, 0, 81, 100
2, 66096, Note_on_c, 0, 79, 100
2, 66140, Note_off_c, 0, 81, 100
2, 66236, Note_off_c, 0, 79, 100
2, 66240, Note_on_c, 0, 77, 100
2, 66428, Note_off_c, 0, 77, 100
2, 66432, Note_on_c, 0, 77, 100
2, 66812, Note_off_c, 0, 77, 100
2, 67008, Note_on_c, 0, 77, 70
2, 67196, Note_off_c, 0, 77, 100
2, 67200, Note_on_c, 0, 82, 70
2, 67388, Note_off_c, 0, 82, 100
2, 67392, Note_on_c, 0, 86, 70
2, 67580, Note_off_c, 0, 86, 100
2, 67584, Note_on_c, 0, 84, 100
2, 67676, Note_off_c, 0, 84, 100
2, 67680, Note_on_c, 0, 82, 100
2, 67772, Note_off_c, 0, 82, 100
2, 67776, Note_on_c, 0, 81, 100
2, 67868, Note_off_c, 0, 81, 100
2, 67872, Note_on_c, 0, 82, 100
2, 67964, Note_off_c, 0, 82, 100
2, 67968, Note_on_c, 0, 81, 100
2, 68060, Note_off_c, 0, 81, 100
2, 68064, Note_on_c, 0, 79, 100
2, 68156, Note_off_c, 0, 79, 100
2, 68160, Note_on_c, 0, 77, 100
2, 68252, Note_off_c, 0, 77, 100
2, 68256, Note_on_c, 0, 79, 100
2, 68348, Note_off_c, 0, 79, 100
2, 68352, Note_on_c, 0, 77, 100
2, 68924, Note_off_c, 0, 77, 100
2, 68928, Note_on_c, 0, 75, 100
2, 69116, Note_off_c, 0, 75, 100
2, 69120, Note_on_c, 0, 74, 120
2, 69212, Note_off_c, 0, 74, 100
2, 69216, Note_on_c, 0, 75, 120
2, 69308, Note_off_c, 0, 75, 100
2, 69312, Note_on_c, 0, 77, 120
2, 69404, Note_off_c, 0, 77, 100
2, 69408, Note_on_c, 0, 75, 120
2, 69500, Note_off_c, 0, 75, 100
2, 69504, Note_on_c, 0, 74, 120
2, 69596, Note_off_c, 0, 74, 100
2, 69600, Note_on_c, 0, 72, 120
2, 69692, Note_off_c, 0, 72, 100
2, 69696, Note_on_c, 0, 70, 120
2, 69788, Note_off_c, 0, 70, 100
2, 69792, Note_on_c, 0, 69, 120
2, 69884, Note_off_c, 0, 69, 100
2, 69888, Note_on_c, 0, 70, 120
2, 69980, Note_off_c, 0, 70, 100
2, 69984, Note_on_c, 0, 72, 120
2, 70076, Note_off_c, 0, 72, 100
2, 70080, Note_on_c, 0, 74, 120
2, 70172, Note_off_c, 0, 74, 100
2, 70176, Note_on_c, 0, 72, 120
2, 70268, Note_off_c, 0, 72, 100
2, 70272, Note_on_c, 0, 70, 120
2, 70364, Note_off_c, 0, 70, 100
2, 70368, Note_on_c, 0, 68, 120
2, 70460, Note_off_c, 0, 68, 100
2, 70464, Note_on_c, 0, 67, 120
2, 70556, Note_off_c, 0, 67, 100
2, 70560, Note_on_c, 0, 66, 120
2, 70652, Note_off_c, 0, 66, 100
2, 70656, Note_on_c, 0, 67, 120
2, 70748, Note_off_c, 0, 67, 100
2, 70752, Note_on_c, 0, 66, 120
2, 70844, Note_off_c, 0, 66, 100
2, 70848, Note_on_c, 0, 67, 120
2, 70940, Note_off_c, 0, 67, 100
2, 70944, Note_on_c, 0, 66, 120
2, 71036, Note_off_c, 0, 66, 100
2, 71040, Note_on_c, 0, 67, 120
2, 71132, Note_off_c, 0, 67, 100
2, 71136, Note_on_c, 0, 66, 120
2, 71228, Note_off_c, 0, 66, 100
2, 71232, Note_on_c, 0, 67, 120
2, 71324, Note_off_c, 0, 67, 100
2, 71328, Note_on_c, 0, 66, 120
2, 71420, Note_off_c, 0, 66, 100
2, 71424, Note_on_c, 0, 67, 120
2, 71804, Note_off_c, 0, 67, 100
2, 72192, Note_on_c, 0, 79, 120
2, 72284, Note_off_c, 0, 79, 100
2, 72288, Note_on_c, 0, 71, 120
2, 72380, Note_off_c, 0, 71, 100
2, 72384, Note_on_c, 0, 72, 120
2, 72476, Note_off_c, 0, 72, 100
2, 72480, Note_on_c, 0, 74, 120
2, 72572, Note_off_c, 0, 74, 100
2, 72576, Note_on_c, 0, 75, 120
2, 72668, Note_off_c, 0, 75, 100
2, 72672, Note_on_c, 0, 74, 120
2, 72764, Note_off_c, 0, 74, 100
2, 72768, Note_on_c, 0, 72, 120
2, 72860, Note_off_c, 0, 72, 100
2, 72864, Note_on_c, 0, 71, 120
2, 72956, Note_off_c, 0, 71, 100
2, 72960, Note_on_c, 0, 72, 120
2, 73052, Note_off_c, 0, 72, 100
2, 73056, Note_on_c, 0, 67, 120
2, 73148, Note_off_c, 0, 67, 100
2, 73152, Note_on_c, 0, 69, 120
2, 73244, Note_off_c, 0, 69, 100
2, 73248, Note_on_c, 0, 71, 120
2, 73340, Note_off_c, 0, 71, 100
2, 73344, Note_on_c, 0, 72, 120
2, 73436, Note_off_c, 0, 72, 100
2, 73440, Note_on_c, 0, 70, 120
2, 73532, Note_off_c, 0, 70, 100
2, 73536, Note_on_c, 0, 69, 120
2, 73628, Note_off_c, 0, 69, 100
2, 73632, Note_on_c, 0, 68, 120
2, 73724, Note_off_c, 0, 68, 100
2, 73728, Note_on_c, 0, 69, 120
2, 73820, Note_off_c, 0, 69, 100
2, 73824, Note_on_c, 0, 68, 120
2, 73916, Note_off_c, 0, 68, 100
2, 73920, Note_on_c, 0, 69, 120
2, 74012, Note_off_c, 0, 69, 100
2, 74016, Note_on_c, 0, 68, 120
2, 74108, Note_off_c, 0, 68, 100
2, 74112, Note_on_c, 0, 69, 120
2, 74204, Note_off_c, 0, 69, 100
2, 74208, Note_on_c, 0, 68, 120
2, 74300, Note_off_c, 0, 68, 100
2, 74304, Note_on_c, 0, 69, 120
2, 74396, Note_off_c, 0, 69, 100
2, 74400, Note_on_c, 0, 68, 120
2, 74492, Note_off_c, 0, 68, 100
2, 74496, Note_on_c, 0, 69, 120
2, 74876, Note_off_c, 0, 69, 100
2, 75264, Note_on_c, 0, 72, 120
2, 75356, Note_off_c, 0, 72, 100
2, 75360, Note_on_c, 0, 74, 120
2, 75452, Note_off_c, 0, 74, 100
2, 75456, Note_on_c, 0, 75, 120
2, 75548, Note_off_c, 0, 75, 100
2, 75552, Note_on_c, 0, 74, 120
2, 75644, Note_off_c, 0, 74, 100
2, 75648, Note_on_c, 0, 72, 120
2, 75740, Note_off_c, 0, 72, 100
2, 75744, Note_on_c, 0, 70, 120
2, 75836, Note_off_c, 0, 70, 100
2, 75840, Note_on_c, 0, 69, 120
2, 75932, Note_off_c, 0, 69, 100
2, 75936, Note_on_c, 0, 67, 120
2, 76028, Note_off_c, 0, 67, 100
2, 76032, Note_on_c, 0, 69, 120
2, 76124, Note_off_c, 0, 69, 100
2, 76128, Note_on_c, 0, 70, 120
2, 76220, Note_off_c, 0, 70, 100
2, 76224, Note_on_c, 0, 72, 120
2, 76316, Note_off_c, 0, 72, 100
2, 76320, Note_on_c, 0, 70, 120
2, 76412, Note_off_c, 0, 70, 100
2, 76416, Note_on_c, 0, 69, 120
2, 76508, Note_off_c, 0, 69, 100
2, 76512, Note_on_c, 0, 67, 120
2, 76604, Note_off_c, 0, 67, 100
2, 76608, Note_on_c, 0, 65, 120
2, 76700, Note_off_c, 0, 65, 100
2, 76704, Note_on_c, 0, 63, 120
2, 76796, Note_off_c, 0, 63, 100
2, 76800, Note_on_c, 0, 62, 120
2, 76988, Note_off_c, 0, 62, 100
2, 76992, Note_on_c, 0, 58, 120
2, 77084, Note_off_c, 0, 58, 100
2, 77088, Note_on_c, 0, 62, 120
2, 77180, Note_off_c, 0, 62, 100
2, 77184, Note_on_c, 0, 60, 120
2, 77276, Note_off_c, 0, 60, 100
2, 77280, Note_on_c, 0, 63, 120
2, 77372, Note_off_c, 0, 63, 100
2, 77376, Note_on_c, 0, 62, 120
2, 77468, Note_off_c, 0, 62, 100
2, 77472, Note_on_c, 0, 65, 120
2, 77564, Note_off_c, 0, 65, 100
2, 77568, Note_on_c, 0, 63, 120
2, 77660, Note_off_c, 0, 63, 100
2, 77664, Note_on_c, 0, 67, 120
2, 77756, Note_off_c, 0, 67, 100
2, 77760, Note_on_c, 0, 65, 120
2, 77852, Note_off_c, 0, 65, 100
2, 77856, Note_on_c, 0, 69, 120
2, 77948, Note_off_c, 0, 69, 100
2, 77952, Note_on_c, 0, 67, 120
2, 78044, Note_off_c, 0, 67, 100
2, 78048, Note_on_c, 0, 70, 120
2, 78140, Note_off_c, 0, 70, 100
2, 78144, Note_on_c, 0, 69, 120
2, 78236, Note_off_c, 0, 69, 100
2, 78240, Note_on_c, 0, 72, 120
2, 78332, Note_off_c, 0, 72, 100
2, 78336, Note_on_c, 0, 70, 120
2, 78336, Note_on_c, 0, 82, 120
2, 79868, Note_off_c, 0, 70, 100
2, 79868, Note_off_c, 0, 82, 100
2, 79872, Note_on_c, 0, 70, 90
2, 79920, Note_on_c, 0, 82, 90
2, 79964, Note_off_c, 0, 70, 100
2, 80252, Note_off_c, 0, 82, 100
2, 80256, Note_on_c, 0, 82, 90
2, 80636, Note_off_c, 0, 82, 100
2, 80832, Note_on_c, 0, 80, 90
2, 81020, Note_off_c, 0, 80, 100
2, 81024, Note_on_c, 0, 79, 90
2, 81212, Note_off_c, 0, 79, 100
2, 81216, Note_on_c, 0, 78, 90
2, 81404, Note_off_c, 0, 78, 100
2, 81408, Note_on_c, 0, 79, 90
2, 81500, Note_off_c, 0, 79, 100
2, 81504, Note_on_c, 0, 79, 90
2, 81596, Note_off_c, 0, 79, 100
2, 81600, Note_on_c, 0, 82, 90
2, 81692, Note_off_c, 0, 82, 100
2, 81696, Note_on_c, 0, 79, 90
2, 81788, Note_off_c, 0, 79, 100
2, 81792, Note_on_c, 0, 87, 90
2, 81884, Note_off_c, 0, 87, 100
2, 81888, Note_on_c, 0, 82, 90
2, 81980, Note_off_c, 0, 82, 100
2, 81984, Note_on_c, 0, 79, 90
2, 82076, Note_off_c, 0, 79, 100
2, 82080, Note_on_c, 0, 75, 90
2, 82172, Note_off_c, 0, 75, 100
2, 82176, Note_on_c, 0, 74, 90
2, 82268, Note_off_c, 0, 74, 100
2, 82272, Note_on_c, 0, 75, 90
2, 82364, Note_off_c, 0, 75, 100
2, 82368, Note_on_c, 0, 79, 90
2, 82460, Note_off_c, 0, 79, 100
2, 82464, Note_on_c, 0, 75, 90
2, 82556, Note_off_c, 0, 75, 100
2, 82560, Note_on_c, 0, 79, 90
2, 82652, Note_off_c, 0, 79, 100
2, 82656, Note_on_c, 0, 75, 90
2, 82748, Note_off_c, 0, 75, 100
2, 82752, Note_on_c, 0, 70, 90
2, 82844, Note_off_c, 0, 70, 100
2, 82848, Note_on_c, 0, 67, 90
2, 82940, Note_off_c, 0, 67, 100
2, 82944, Note_on_c, 0, 65, 90
2, 83036, Note_off_c, 0, 65, 100
2, 83040, Note_on_c, 0, 70, 90
2, 83132, Note_off_c, 0, 70, 100
2, 83136, Note_on_c, 0, 74, 90
2, 83228, Note_off_c, 0, 74, 100
2, 83232, Note_on_c, 0, 70, 90
2, 83324, Note_off_c, 0, 70, 100
2, 83328, Note_on_c, 0, 77, 90
2, 83420, Note_off_c, 0, 77, 100
2, 83424, Note_on_c, 0, 70, 90
2, 83516, Note_off_c, 0, 70, 100
2, 83520, Note_on_c, 0, 74, 90
2, 83612, Note_off_c, 0, 74, 100
2, 83616, Note_on_c, 0, 70, 90
2, 83708, Note_off_c, 0, 70, 100
2, 83712, Note_on_c, 0, 72, 90
2, 83776, Note_on_c, 0, 74, 90
2, 83836, Note_off_c, 0, 72, 100
2, 83840, Note_on_c, 0, 72, 90
2, 83900, Note_off_c, 0, 74, 100
2, 83904, Note_on_c, 0, 74, 90
2, 83964, Note_off_c, 0, 72, 100
2, 83968, Note_on_c, 0, 72, 90
2, 84028, Note_off_c, 0, 74, 100
2, 84032, Note_on_c, 0, 74, 90
2, 84092, Note_off_c, 0, 72, 100
2, 84096, Note_on_c, 0, 72, 90
2, 84156, Note_off_c, 0, 74, 100
2, 84160, Note_on_c, 0, 74, 90
2, 84220, Note_off_c, 0, 72, 100
2, 84224, Note_on_c, 0, 72, 90
2, 84284, Note_off_c, 0, 74, 100
2, 84288, Note_on_c, 0, 70, 90
2, 84348, Note_off_c, 0, 72, 100
2, 84380, Note_off_c, 0, 70, 100
2, 84384, Note_on_c, 0, 72, 90
2, 84476, Note_off_c, 0, 72, 100
2, 84480, Note_on_c, 0, 70, 90
2, 84860, Note_off_c, 0, 70, 100
2, 85056, Note_on_c, 0, 86, 100
2, 85148, Note_off_c, 0, 86, 100
2, 85152, Note_on_c, 0, 87, 100
2, 85244, Note_off_c, 0, 87, 100
2, 85248, Note_on_c, 0, 89, 100
2, 85436, Note_off_c, 0, 89, 100
2, 85440, Note_on_c, 0, 86, 100
2, 85532, Note_off_c, 0, 86, 100
2, 85536, Note_on_c, 0, 87, 100
2, 85628, Note_off_c, 0, 87, 100
2, 85632, Note_on_c, 0, 89, 100
2, 85820, Note_off_c, 0, 89, 100
2, 85824, Note_on_c, 0, 86, 100
2, 85916, Note_off_c, 0, 86, 100
2, 85920, Note_on_c, 0, 87, 100
2, 86012, Note_off_c, 0, 87, 100
2, 86016, Note_on_c, 0, 89, 100
2, 86396, Note_off_c, 0, 89, 100
2, 86976, Note_on_c, 0, 75, 70
2, 87164, Note_off_c, 0, 75, 100
2, 87168, Note_on_c, 0, 72, 70
2, 87356, Note_off_c, 0, 72, 100
2, 87360, Note_on_c, 0, 69, 70
2, 87548, Note_off_c, 0, 69, 100
2, 87552, Note_on_c, 0, 70, 70
2, 87932, Note_off_c, 0, 70, 100
2, 88128, Note_on_c, 0, 74, 100
2, 88220, Note_off_c, 0, 74, 100
2, 88224, Note_on_c, 0, 75, 100
2, 88316, Note_off_c, 0, 75, 100
2, 88320, Note_on_c, 0, 77, 100
2, 88508, Note_off_c, 0, 77, 100
2, 88512, Note_on_c, 0, 74, 100
2, 88604, Note_off_c, 0, 74, 100
2, 88608, Note_on_c, 0, 75, 100
2, 88700, Note_off_c, 0, 75, 100
2, 88704, Note_on_c, 0, 77, 100
2, 88892, Note_off_c, 0, 77, 100
2, 88896, Note_on_c, 0, 74, 100
2, 88988, Note_off_c, 0, 74, 100
2, 88992, Note_on_c, 0, 75, 100
2, 89084, Note_off_c, 0, 75, 100
2, 89088, Note_on_c, 0, 77, 100
2, 89468, Note_off_c, 0, 77, 100
2, 90048, Note_on_c, 0, 75, 70
2, 90236, Note_off_c, 0, 75, 100
2, 90240, Note_on_c, 0, 72, 70
2, 90428, Note_off_c, 0, 72, 100
2, 90432, Note_on_c, 0, 69, 70
2, 90620, Note_off_c, 0, 69, 100
2, 90624, Note_on_c, 0, 70, 70
2, 91004, Note_off_c, 0, 70, 100
2, 91584, Note_on_c, 0, 75, 60
2, 91772, Note_off_c, 0, 75, 100
2, 91776, Note_on_c, 0, 72, 60
2, 91964, Note_off_c, 0, 72, 100
2, 91968, Note_on_c, 0, 69, 60
2, 92156, Note_off_c, 0, 69, 100
2, 92160, Note_on_c, 0, 62, 60
2, 92160, Note_on_c, 0, 70, 60
2, 92540, Note_off_c, 0, 62, 100
2, 92540, Note_off_c, 0, 70, 100
2, 92544, Note_on_c, 0, 62, 60
2, 92544, Note_on_c, 0, 70, 60
2, 92924, Note_off_c, 0, 62, 100
2, 92924, Note_off_c, 0, 70, 100
2, 92928, Note_on_c, 0, 62, 60
2, 92928, Note_on_c, 0, 70, 60
2, 93308, Note_off_c, 0, 62, 100
2, 93308, Note_off_c, 0, 70, 100
2, 93312, Note_on_c, 0, 65, 70
2, 93360, Note_on_c, 0, 67, 70
2, 93404, Note_off_c, 0, 65, 100
2, 93408, Note_on_c, 0, 65, 70
2, 93452, Note_off_c, 0, 67, 100
2, 93596, Note_off_c, 0, 65, 100
2, 93600, Note_on_c, 0, 65, 70
2, 93692, Note_off_c, 0, 65, 100
2, 93696, Note_on_c, 0, 62, 70
2, 93696, Note_on_c, 0, 70, 70
2, 94076, Note_off_c, 0, 62, 100
2, 94076, Note_off_c, 0, 70, 100
2, 94080, Note_on_c, 0, 62, 100
2, 94080, Note_on_c, 0, 70, 100
2, 94460, Note_off_c, 0, 62, 100
2, 94460, Note_off_c, 0, 70, 100
2, 94656, Note_on_c, 0, 65, 100
2, 94844, Note_off_c, 0, 65, 100
2, 94848, Note_on_c, 0, 70, 100
2, 95036, Note_off_c, 0, 70, 100
2, 95040, Note_on_c, 0, 72, 100
2, 95228, Note_off_c, 0, 72, 100
2, 95232, Note_on_c, 0, 70, 70
2, 95232, Note_on_c, 0, 74, 70
2, 95612, Note_off_c, 0, 70, 100
2, 95612, Note_off_c, 0, 74, 100
2, 95616, Note_on_c, 0, 74, 100
2, 95616, Note_on_c, 0, 70, 100
2, 96188, Note_off_c, 0, 74, 100
2, 96188, Note_off_c, 0, 70, 100
2, 96192, Note_on_c, 0, 65, 100
2, 96192, Note_on_c, 0, 70, 100
2, 96380, Note_off_c, 0, 65, 100
2, 96380, Note_off_c, 0, 70, 100
2, 96384, Note_on_c, 0, 70, 100
2, 96384, Note_on_c, 0, 74, 100
2, 96572, Note_off_c, 0, 70, 100
2, 96572, Note_off_c, 0, 74, 100
2, 96576, Note_on_c, 0, 72, 100
2, 96576, Note_on_c, 0, 75, 100
2, 96764, Note_off_c, 0, 72, 100
2, 96764, Note_off_c, 0, 75, 100
2, 96768, Note_on_c, 0, 74, 70
2, 96768, Note_on_c, 0, 77, 70
2, 97148, Note_off_c, 0, 74, 100
2, 97148, Note_off_c, 0, 77, 100
2, 97152, Note_on_c, 0, 74, 100
2, 97152, Note_on_c, 0, 77, 100
2, 97724, Note_off_c, 0, 74, 100
2, 97724, Note_off_c, 0, 77, 100
2, 97728, Note_on_c, 0, 82, 100
2, 97728, Note_on_c, 0, 79, 100
2, 97916, Note_off_c, 0, 82, 100
2, 97916, Note_off_c, 0, 79, 100
2, 97920, Note_on_c, 0, 77, 100
2, 97920, Note_on_c, 0, 81, 100
2, 98108, Note_off_c, 0, 77, 100
2, 98108, Note_off_c, 0, 81, 100
2, 98112, Note_on_c, 0, 75, 100
2, 98112, Note_on_c, 0, 79, 100
2, 98300, Note_off_c, 0, 75, 100
2, 98300, Note_off_c, 0, 79, 100
2, 98304, Note_on_c, 0, 81, 100
2, 98304, Note_on_c, 0, 77, 100
2, 98352, Note_on_c, 0, 79, 100
2, 98352, Note_on_c, 0, 75, 100
2, 98396, Note_off_c, 0, 81, 100
2, 98396, Note_off_c, 0, 77, 100
2, 98492, Note_off_c, 0, 79, 100
2, 98492, Note_off_c, 0, 75, 100
2, 98496, Note_on_c, 0, 77, 100
2, 98496, Note_on_c, 0, 74, 100
2, 98684, Note_off_c, 0, 77, 100
2, 98684, Note_off_c, 0, 74, 100
2, 98688, Note_on_c, 0, 74, 100
2, 98688, Note_on_c, 0, 77, 100
2, 99260, Note_off_c, 0, 74, 100
2, 99260, Note_off_c, 0, 77, 100
2, 99264, Note_on_c, 0, 82, 100
2, 99452, Note_off_c, 0, 82, 100
2, 99456, Note_on_c, 0, 82, 100
2, 99644, Note_off_c, 0, 82, 100
2, 99648, Note_on_c, 0, 82, 100
2, 99836, Note_off_c, 0, 82, 100
2, 99840, Note_on_c, 0, 82, 100
2, 100028, Note_off_c, 0, 82, 100
2, 100032, Note_on_c, 0, 83, 100
2, 100220, Note_off_c, 0, 83, 100
2, 100224, Note_on_c, 0, 83, 100
2, 100604, Note_off_c, 0, 83, 100
2, 100608, Note_on_c, 0, 89, 100
2, 100796, Note_off_c, 0, 89, 100
2, 100800, Note_on_c, 0, 86, 100
2, 100988, Note_off_c, 0, 86, 100
2, 100992, Note_on_c, 0, 84, 100
2, 101180, Note_off_c, 0, 84, 100
2, 101184, Note_on_c, 0, 83, 100
2, 101372, Note_off_c, 0, 83, 100
2, 101376, Note_on_c, 0, 83, 100
2, 101564, Note_off_c, 0, 83, 100
2, 101568, Note_on_c, 0, 84, 100
2, 101756, Note_off_c, 0, 84, 100
2, 101760, Note_on_c, 0, 84, 100
2, 102140, Note_off_c, 0, 84, 100
2, 102144, Note_on_c, 0, 89, 100
2, 102332, Note_off_c, 0, 89, 100
2, 102336, Note_on_c, 0, 87, 100
2, 102524, Note_off_c, 0, 87, 100
2, 102528, Note_on_c, 0, 86, 100
2, 102592, Note_on_c, 0, 87, 96
2, 102652, Note_off_c, 0, 86, 100
2, 102656, Note_on_c, 0, 86, 91
2, 102716, Note_off_c, 0, 87, 100
2, 102720, Note_on_c, 0, 84, 87
2, 102780, Note_off_c, 0, 86, 100
2, 102908, Note_off_c, 0, 84, 100
2, 102912, Note_on_c, 0, 84, 70
2, 102976, Note_on_c, 0, 86, 70
2, 103036, Note_off_c, 0, 84, 100
2, 103040, Note_on_c, 0, 84, 70
2, 103100, Note_off_c, 0, 86, 100
2, 103104, Note_on_c, 0, 83, 70
2, 103164, Note_off_c, 0, 84, 100
2, 103292, Note_off_c, 0, 83, 100
2, 103296, Note_on_c, 0, 83, 70
2, 103676, Note_off_c, 0, 83, 100
2, 103680, Note_on_c, 0, 89, 70
2, 103868, Note_off_c, 0, 89, 100
2, 103872, Note_on_c, 0, 86, 70
2, 104060, Note_off_c, 0, 86, 100
2, 104064, Note_on_c, 0, 84, 70
2, 104252, Note_off_c, 0, 84, 100
2, 104256, Note_on_c, 0, 83, 70
2, 104444, Note_off_c, 0, 83, 100
2, 104448, Note_on_c, 0, 84, 120
2, 104636, Note_off_c, 0, 84, 100
2, 104640, Note_on_c, 0, 87, 120
2, 104732, Note_off_c, 0, 87, 100
2, 104736, Note_on_c, 0, 86, 120
2, 104828, Note_off_c, 0, 86, 100
2, 104832, Note_on_c, 0, 84, 120
2, 105020, Note_off_c, 0, 84, 100
2, 105024, Note_on_c, 0, 82, 120
2, 105212, Note_off_c, 0, 82, 100
2, 105216, Note_on_c, 0, 80, 120
2, 105404, Note_off_c, 0, 80, 100
2, 105408, Note_on_c, 0, 84, 120
2, 105500, Note_off_c, 0, 84, 100
2, 105504, Note_on_c, 0, 82, 120
2, 105596, Note_off_c, 0, 82, 100
2, 105600, Note_on_c, 0, 80, 120
2, 105788, Note_off_c, 0, 80, 100
2, 105792, Note_on_c, 0, 79, 120
2, 105980, Note_off_c, 0, 79, 100
2, 105984, Note_on_c, 0, 77, 120
2, 106172, Note_off_c, 0, 77, 100
2, 106176, Note_on_c, 0, 80, 120
2, 106268, Note_off_c, 0, 80, 100
2, 106272, Note_on_c, 0, 79, 120
2, 106364, Note_off_c, 0, 79, 100
2, 106368, Note_on_c, 0, 77, 120
2, 106556, Note_off_c, 0, 77, 100
2, 106560, Note_on_c, 0, 75, 120
2, 106748, Note_off_c, 0, 75, 100
2, 106752, Note_on_c, 0, 74, 120
2, 106940, Note_off_c, 0, 74, 100
2, 106944, Note_on_c, 0, 77, 120
2, 107036, Note_off_c, 0, 77, 100
2, 107040, Note_on_c, 0, 75, 120
2, 107132, Note_off_c, 0, 75, 100
2, 107136, Note_on_c, 0, 74, 120
2, 107324, Note_off_c, 0, 74, 100
2, 107328, Note_on_c, 0, 72, 120
2, 107516, Note_off_c, 0, 72, 100
2, 107520, Note_on_c, 0, 71, 120
2, 107568, Note_on_c, 0, 79, 120
2, 107612, Note_off_c, 0, 71, 100
2, 107900, Note_off_c, 0, 79, 100
2, 107904, Note_on_c, 0, 67, 120
2, 108188, Note_off_c, 0, 67, 100
2, 108192, Note_on_c, 0, 67, 120
2, 108284, Note_off_c, 0, 67, 100
2, 108288, Note_on_c, 0, 67, 120
2, 109052, Note_off_c, 0, 67, 100
2, 109248, Note_on_c, 0, 67, 70
2, 109436, Note_off_c, 0, 67, 100
2, 109440, Note_on_c, 0, 67, 70
2, 109628, Note_off_c, 0, 67, 100
2, 109632, Note_on_c, 0, 67, 70
2, 109820, Note_off_c, 0, 67, 100
2, 109824, Note_on_c, 0, 67, 70
2, 110012, Note_off_c, 0, 67, 100
2, 110016, Note_on_c, 0, 63, 70
2, 110204, Note_off_c, 0, 63, 100
2, 110208, Note_on_c, 0, 62, 70
2, 110396, Note_off_c, 0, 62, 100
2, 110400, Note_on_c, 0, 60, 70
2, 110588, Note_off_c, 0, 60, 100
2, 110592, Note_on_c, 0, 60, 70
2, 110780, Note_off_c, 0, 60, 100
2, 110784, Note_on_c, 0, 59, 70
2, 110972, Note_off_c, 0, 59, 100
2, 110976, Note_on_c, 0, 59, 70
2, 111356, Note_off_c, 0, 59, 100
2, 112320, Note_on_c, 0, 60, 100
2, 112508, Note_off_c, 0, 60, 100
2, 112512, Note_on_c, 0, 62, 100
2, 112700, Note_off_c, 0, 62, 100
2, 112704, Note_on_c, 0, 63, 100
2, 112892, Note_off_c, 0, 63, 100
2, 112896, Note_on_c, 0, 63, 100
2, 112960, Note_on_c, 0, 65, 100
2, 113020, Note_off_c, 0, 63, 100
2, 113024, Note_on_c, 0, 63, 100
2, 113084, Note_off_c, 0, 65, 100
2, 113088, Note_on_c, 0, 62, 100
2, 113148, Note_off_c, 0, 63, 100
2, 113276, Note_off_c, 0, 62, 100
2, 113280, Note_on_c, 0, 62, 100
2, 113344, Note_on_c, 0, 63, 100
2, 113404, Note_off_c, 0, 62, 100
2, 113408, Note_on_c, 0, 62, 100
2, 113468, Note_off_c, 0, 63, 100
2, 113472, Note_on_c, 0, 60, 100
2, 113532, Note_off_c, 0, 62, 100
2, 113660, Note_off_c, 0, 60, 100
2, 113664, Note_on_c, 0, 60, 100
2, 113852, Note_off_c, 0, 60, 100
2, 113856, Note_on_c, 0, 59, 100
2, 114044, Note_off_c, 0, 59, 100
2, 114048, Note_on_c, 0, 59, 100
2, 114236, Note_off_c, 0, 59, 100
2, 115392, Note_on_c, 0, 67, 70
2, 115580, Note_off_c, 0, 67, 100
2, 115584, Note_on_c, 0, 67, 70
2, 115772, Note_off_c, 0, 67, 100
2, 115776, Note_on_c, 0, 67, 70
2, 115964, Note_off_c, 0, 67, 100
2, 115968, Note_on_c, 0, 67, 70
2, 116156, Note_off_c, 0, 67, 100
2, 116160, Note_on_c, 0, 63, 70
2, 116348, Note_off_c, 0, 63, 100
2, 116352, Note_on_c, 0, 62, 70
2, 116540, Note_off_c, 0, 62, 100
2, 116544, Note_on_c, 0, 60, 70
2, 116732, Note_off_c, 0, 60, 100
2, 116928, Note_on_c, 0, 72, 120
2, 117116, Note_off_c, 0, 72, 100
2, 117120, Note_on_c, 0, 72, 120
2, 117308, Note_off_c, 0, 72, 100
2, 117312, Note_on_c, 0, 72, 120
2, 117500, Note_off_c, 0, 72, 100
2, 117504, Note_on_c, 0, 72, 120
2, 117692, Note_off_c, 0, 72, 100
2, 117696, Note_on_c, 0, 68, 120
2, 117884, Note_off_c, 0, 68, 100
2, 117888, Note_on_c, 0, 67, 120
2, 118076, Note_off_c, 0, 67, 100
2, 118080, Note_on_c, 0, 65, 120
2, 118268, Note_off_c, 0, 65, 100
2, 118272, Note_on_c, 0, 67, 100
2, 118460, Note_off_c, 0, 67, 100
2, 118464, Note_on_c, 0, 63, 100
2, 118652, Note_off_c, 0, 63, 100
2, 118656, Note_on_c, 0, 68, 100
2, 118844, Note_off_c, 0, 68, 100
2, 118848, Note_on_c, 0, 65, 100
2, 119036, Note_off_c, 0, 65, 100
2, 119040, Note_on_c, 0, 63, 100
2, 119228, Note_off_c, 0, 63, 100
2, 119232, Note_on_c, 0, 60, 100
2, 119420, Note_off_c, 0, 60, 100
2, 119424, Note_on_c, 0, 62, 90
2, 119612, Note_off_c, 0, 62, 100
2, 119616, Note_on_c, 0, 59, 80
2, 119804, Note_off_c, 0, 59, 100
2, 119904, Note_on_c, 0, 55, 100
2, 120000, Note_on_c, 0, 60, 100
2, 120092, Note_off_c, 0, 55, 100
2, 120096, Note_on_c, 0, 63, 100
2, 120188, Note_off_c, 0, 60, 100
2, 120192, Note_on_c, 0, 67, 100
2, 120284, Note_off_c, 0, 63, 100
2, 120288, Note_on_c, 0, 60, 100
2, 120380, Note_off_c, 0, 67, 100
2, 120384, Note_on_c, 0, 63, 100
2, 120476, Note_off_c, 0, 60, 100
2, 120480, Note_on_c, 0, 67, 100
2, 120572, Note_off_c, 0, 63, 100
2, 120576, Note_on_c, 0, 72, 100
2, 120668, Note_off_c, 0, 67, 100
2, 120672, Note_on_c, 0, 63, 100
2, 120764, Note_off_c, 0, 72, 100
2, 120768, Note_on_c, 0, 67, 100
2, 120860, Note_off_c, 0, 63, 100
2, 120864, Note_on_c, 0, 72, 100
2, 120956, Note_off_c, 0, 67, 100
2, 120960, Note_on_c, 0, 75, 100
2, 121052, Note_off_c, 0, 72, 100
2, 121056, Note_on_c, 0, 67, 100
2, 121148, Note_off_c, 0, 75, 100
2, 121152, Note_on_c, 0, 72, 100
2, 121244, Note_off_c, 0, 67, 100
2, 121248, Note_on_c, 0, 75, 100
2, 121340, Note_off_c, 0, 72, 100
2, 121340, Note_off_c, 0, 75, 100
2, 121344, Note_on_c, 0, 79, 100
2, 121440, Note_on_c, 0, 75, 100
2, 121532, Note_off_c, 0, 79, 100
2, 121536, Note_on_c, 0, 72, 100
2, 121628, Note_off_c, 0, 75, 100
2, 121632, Note_on_c, 0, 67, 100
2, 121724, Note_off_c, 0, 72, 100
2, 121728, Note_on_c, 0, 75, 100
2, 121820, Note_off_c, 0, 67, 100
2, 121824, Note_on_c, 0, 72, 100
2, 121916, Note_off_c, 0, 75, 100
2, 121920, Note_on_c, 0, 67, 100
2, 122012, Note_off_c, 0, 72, 100
2, 122016, Note_on_c, 0, 63, 100
2, 122108, Note_off_c, 0, 67, 100
2, 122112, Note_on_c, 0, 72, 100
2, 122204, Note_off_c, 0, 63, 100
2, 122208, Note_on_c, 0, 67, 100
2, 122300, Note_off_c, 0, 72, 100
2, 122304, Note_on_c, 0, 63, 100
2, 122396, Note_off_c, 0, 67, 100
2, 122400, Note_on_c, 0, 60, 100
2, 122492, Note_off_c, 0, 63, 100
2, 122496, Note_on_c, 0, 67, 100
2, 122588, Note_off_c, 0, 60, 100
2, 122592, Note_on_c, 0, 63, 100
2, 122684, Note_off_c, 0, 67, 100
2, 122688, Note_on_c, 0, 60, 100
2, 122780, Note_off_c, 0, 63, 100
2, 122784, Note_on_c, 0, 55, 100
2, 122876, Note_off_c, 0, 60, 100
2, 122876, Note_off_c, 0, 55, 100
2, 122976, Note_on_c, 0, 56, 100
2, 123072, Note_on_c, 0, 60, 100
2, 123164, Note_off_c, 0, 56, 100
2, 123168, Note_on_c, 0, 65, 100
2, 123260, Note_off_c, 0, 60, 100
2, 123264, Note_on_c, 0, 68, 100
2, 123356, Note_off_c, 0, 65, 100
2, 123360, Note_on_c, 0, 60, 100
2, 123452, Note_off_c, 0, 68, 100
2, 123456, Note_on_c, 0, 65, 100
2, 123548, Note_off_c, 0, 60, 100
2, 123552, Note_on_c, 0, 68, 100
2, 123644, Note_off_c, 0, 65, 100
2, 123648, Note_on_c, 0, 72, 100
2, 123740, Note_off_c, 0, 68, 100
2, 123744, Note_on_c, 0, 65, 100
2, 123836, Note_off_c, 0, 72, 100
2, 123840, Note_on_c, 0, 68, 100
2, 123932, Note_off_c, 0, 65, 100
2, 123936, Note_on_c, 0, 72, 100
2, 124028, Note_off_c, 0, 68, 100
2, 124032, Note_on_c, 0, 77, 100
2, 124124, Note_off_c, 0, 72, 100
2, 124128, Note_on_c, 0, 68, 100
2, 124220, Note_off_c, 0, 77, 100
2, 124224, Note_on_c, 0, 72, 100
2, 124316, Note_off_c, 0, 68, 100
2, 124320, Note_on_c, 0, 77, 100
2, 124412, Note_off_c, 0, 72, 100
2, 124412, Note_off_c, 0, 77, 100
2, 124416, Note_on_c, 0, 80, 100
2, 124512, Note_on_c, 0, 77, 100
2, 124604, Note_off_c, 0, 80, 100
2, 124608, Note_on_c, 0, 72, 100
2, 124700, Note_off_c, 0, 77, 100
2, 124704, Note_on_c, 0, 68, 100
2, 124796, Note_off_c, 0, 72, 100
2, 124800, Note_on_c, 0, 77, 100
2, 124892, Note_off_c, 0, 68, 100
2, 124896, Note_on_c, 0, 72, 100
2, 124988, Note_off_c, 0, 77, 100
2, 124992, Note_on_c, 0, 68, 100
2, 125084, Note_off_c, 0, 72, 100
2, 125088, Note_on_c, 0, 65, 100
2, 125180, Note_off_c, 0, 68, 100
2, 125184, Note_on_c, 0, 72, 100
2, 125276, Note_off_c, 0, 65, 100
2, 125280, Note_on_c, 0, 68, 100
2, 125372, Note_off_c, 0, 72, 100
2, 125376, Note_on_c, 0, 65, 100
2, 125468, Note_off_c, 0, 68, 100
2, 125472, Note_on_c, 0, 60, 100
2, 125564, Note_off_c, 0, 65, 100
2, 125568, Note_on_c, 0, 68, 100
2, 125660, Note_off_c, 0, 60, 100
2, 125664, Note_on_c, 0, 65, 100
2, 125756, Note_off_c, 0, 68, 100
2, 125760, Note_on_c, 0, 60, 100
2, 125852, Note_off_c, 0, 65, 100
2, 125856, Note_on_c, 0, 56, 100
2, 125948, Note_off_c, 0, 60, 100
2, 125948, Note_off_c, 0, 56, 100
2, 126048, Note_on_c, 0, 56, 100
2, 126144, Note_on_c, 0, 62, 100
2, 126236, Note_off_c, 0, 56, 100
2, 126240, Note_on_c, 0, 65, 100
2, 126332, Note_off_c, 0, 62, 100
2, 126336, Note_on_c, 0, 68, 100
2, 126428, Note_off_c, 0, 65, 100
2, 126432, Note_on_c, 0, 62, 100
2, 126524, Note_off_c, 0, 68, 100
2, 126528, Note_on_c, 0, 65, 100
2, 126620, Note_off_c, 0, 62, 100
2, 126624, Note_on_c, 0, 68, 100
2, 126716, Note_off_c, 0, 65, 100
2, 126720, Note_on_c, 0, 74, 100
2, 126812, Note_off_c, 0, 68, 100
2, 126816, Note_on_c, 0, 65, 100
2, 126908, Note_off_c, 0, 74, 100
2, 126912, Note_on_c, 0, 68, 100
2, 127004, Note_off_c, 0, 65, 100
2, 127008, Note_on_c, 0, 74, 100
2, 127100, Note_off_c, 0, 68, 100
2, 127104, Note_on_c, 0, 77, 100
2, 127196, Note_off_c, 0, 74, 100
2, 127200, Note_on_c, 0, 68, 100
2, 127292, Note_off_c, 0, 77, 100
2, 127296, Note_on_c, 0, 74, 100
2, 127388, Note_off_c, 0, 68, 100
2, 127392, Note_on_c, 0, 77, 100
2, 127484, Note_off_c, 0, 74, 100
2, 127484, Note_off_c, 0, 77, 100
2, 127488, Note_on_c, 0, 80, 100
2, 127552, Note_on_c, 0, 82, 100
2, 127612, Note_off_c, 0, 80, 100
2, 127616, Note_on_c, 0, 80, 100
2, 127676, Note_off_c, 0, 82, 100
2, 127680, Note_on_c, 0, 79, 100
2, 127740, Note_off_c, 0, 80, 100
2, 127868, Note_off_c, 0, 79, 100
2, 127872, Note_on_c, 0, 77, 100
2, 127936, Note_on_c, 0, 79, 100
2, 127996, Note_off_c, 0, 77, 100
2, 128000, Note_on_c, 0, 77, 100
2, 128060, Note_off_c, 0, 79, 100
2, 128064, Note_on_c, 0, 75, 100
2, 128124, Note_off_c, 0, 77, 100
2, 128252, Note_off_c, 0, 75, 100
2, 128256, Note_on_c, 0, 74, 100
2, 128444, Note_off_c, 0, 74, 100
2, 128448, Note_on_c, 0, 72, 100
2, 128636, Note_off_c, 0, 72, 100
2, 128640, Note_on_c, 0, 70, 100
2, 128828, Note_off_c, 0, 70, 100
2, 128832, Note_on_c, 0, 68, 100
2, 129020, Note_off_c, 0, 68, 100
2, 129024, Note_on_c, 0, 67, 100
2, 129116, Note_off_c, 0, 67, 100
2, 129120, Note_on_c, 0, 63, 100
2, 129212, Note_off_c, 0, 63, 100
2, 129216, Note_on_c, 0, 65, 100
2, 129308, Note_off_c, 0, 65, 100
2, 129312, Note_on_c, 0, 67, 100
2, 129404, Note_off_c, 0, 67, 100
2, 129408, Note_on_c, 0, 68, 100
2, 129500, Note_off_c, 0, 68, 100
2, 129504, Note_on_c, 0, 70, 100
2, 129596, Note_off_c, 0, 70, 100
2, 129600, Note_on_c, 0, 72, 100
2, 129692, Note_off_c, 0, 72, 100
2, 129696, Note_on_c, 0, 74, 100
2, 129788, Note_off_c, 0, 74, 100
2, 129792, Note_on_c, 0, 75, 100
2, 129980, Note_off_c, 0, 75, 100
2, 129984, Note_on_c, 0, 70, 100
2, 130172, Note_off_c, 0, 70, 100
2, 130176, Note_on_c, 0, 67, 100
2, 130364, Note_off_c, 0, 67, 100
2, 130368, Note_on_c, 0, 63, 100
2, 130556, Note_off_c, 0, 63, 100
2, 130560, Note_on_c, 0, 69, 100
2, 130608, Note_on_c, 0, 70, 100
2, 130652, Note_off_c, 0, 69, 100
2, 130748, Note_off_c, 0, 70, 100
2, 130752, Note_on_c, 0, 62, 100
2, 130844, Note_off_c, 0, 62, 100
2, 130848, Note_on_c, 0, 63, 100
2, 130940, Note_off_c, 0, 63, 100
2, 130944, Note_on_c, 0, 65, 100
2, 131036, Note_off_c, 0, 65, 100
2, 131040, Note_on_c, 0, 63, 100
2, 131132, Note_off_c, 0, 63, 100
2, 131136, Note_on_c, 0, 62, 100
2, 131228, Note_off_c, 0, 62, 100
2, 131232, Note_on_c, 0, 60, 100
2, 131324, Note_off_c, 0, 60, 100
2, 131328, Note_on_c, 0, 58, 100
2, 132092, Note_off_c, 0, 58, 100
2, 132096, Note_on_c, 0, 70, 70
2, 132144, Note_on_c, 0, 72, 70
2, 132188, Note_off_c, 0, 70, 100
2, 132192, Note_on_c, 0, 70, 70
2, 132236, Note_off_c, 0, 72, 100
2, 132476, Note_off_c, 0, 70, 100
2, 132480, Note_on_c, 0, 70, 70
2, 133052, Note_off_c, 0, 70, 100
2, 133056, Note_on_c, 0, 75, 70
2, 133244, Note_off_c, 0, 75, 100
2, 133248, Note_on_c, 0, 74, 70
2, 133436, Note_off_c, 0, 74, 100
2, 133440, Note_on_c, 0, 72, 70
2, 133628, Note_off_c, 0, 72, 100
2, 133632, Note_on_c, 0, 72, 100
2, 133820, Note_off_c, 0, 72, 100
2, 133824, Note_on_c, 0, 70, 100
2, 134012, Note_off_c, 0, 70, 100
2, 134016, Note_on_c, 0, 70, 100
2, 134588, Note_off_c, 0, 70, 100
2, 134592, Note_on_c, 0, 75, 70
2, 134780, Note_off_c, 0, 75, 100
2, 134784, Note_on_c, 0, 74, 70
2, 134972, Note_off_c, 0, 74, 100
2, 134976, Note_on_c, 0, 72, 70
2, 135164, Note_off_c, 0, 72, 100
2, 135168, Note_on_c, 0, 72, 100
2, 135216, Note_on_c, 0, 74, 100
2, 135260, Note_off_c, 0, 72, 100
2, 135264, Note_on_c, 0, 72, 100
2, 135308, Note_off_c, 0, 74, 100
2, 135356, Note_off_c, 0, 72, 100
2, 135360, Note_on_c, 0, 70, 100
2, 135548, Note_off_c, 0, 70, 100
2, 135552, Note_on_c, 0, 70, 100
2, 135932, Note_off_c, 0, 70, 100
2, 136128, Note_on_c, 0, 70, 70
2, 136316, Note_off_c, 0, 70, 100
2, 136320, Note_on_c, 0, 75, 70
2, 136368, Note_on_c, 0, 77, 70
2, 136412, Note_off_c, 0, 75, 100
2, 136416, Note_on_c, 0, 75, 70
2, 136460, Note_off_c, 0, 77, 100
2, 136508, Note_off_c, 0, 75, 100
2, 136512, Note_on_c, 0, 79, 70
2, 136700, Note_off_c, 0, 79, 100
2, 136704, Note_on_c, 0, 77, 70
2, 136796, Note_off_c, 0, 77, 100
2, 136800, Note_on_c, 0, 75, 70
2, 136892, Note_off_c, 0, 75, 100
2, 136896, Note_on_c, 0, 74, 70
2, 136988, Note_off_c, 0, 74, 100
2, 136992, Note_on_c, 0, 75, 70
2, 137084, Note_off_c, 0, 75, 100
2, 137088, Note_on_c, 0, 74, 70
2, 137180, Note_off_c, 0, 74, 100
2, 137184, Note_on_c, 0, 72, 70
2, 137276, Note_off_c, 0, 72, 100
2, 137280, Note_on_c, 0, 70, 70
2, 137372, Note_off_c, 0, 70, 100
2, 137376, Note_on_c, 0, 72, 70
2, 137468, Note_off_c, 0, 72, 100
2, 137472, Note_on_c, 0, 70, 70
2, 138044, Note_off_c, 0, 70, 100
2, 138048, Note_on_c, 0, 68, 70
2, 138236, Note_off_c, 0, 68, 100
2, 138240, Note_on_c, 0, 67, 100
2, 138332, Note_off_c, 0, 67, 100
2, 138336, Note_on_c, 0, 68, 100
2, 138428, Note_off_c, 0, 68, 100
2, 138432, Note_on_c, 0, 70, 100
2, 138524, Note_off_c, 0, 70, 100
2, 138528, Note_on_c, 0, 68, 100
2, 138620, Note_off_c, 0, 68, 100
2, 138624, Note_on_c, 0, 67, 100
2, 138716, Note_off_c, 0, 67, 100
2, 138720, Note_on_c, 0, 65, 100
2, 138812, Note_off_c, 0, 65, 100
2, 138816, Note_on_c, 0, 63, 100
2, 138908, Note_off_c, 0, 63, 100
2, 138912, Note_on_c, 0, 62, 100
2, 139004, Note_off_c, 0, 62, 100
2, 139008, Note_on_c, 0, 63, 100
2, 139100, Note_off_c, 0, 63, 100
2, 139104, Note_on_c, 0, 65, 100
2, 139196, Note_off_c, 0, 65, 100
2, 139200, Note_on_c, 0, 67, 100
2, 139292, Note_off_c, 0, 67, 100
2, 139296, Note_on_c, 0, 65, 100
2, 139388, Note_off_c, 0, 65, 100
2, 139392, Note_on_c, 0, 63, 100
2, 139484, Note_off_c, 0, 63, 100
2, 139488, Note_on_c, 0, 62, 100
2, 139580, Note_off_c, 0, 62, 100
2, 139584, Note_on_c, 0, 60, 100
2, 139676, Note_off_c, 0, 60, 100
2, 139680, Note_on_c, 0, 59, 100
2, 139772, Note_off_c, 0, 59, 100
2, 139776, Note_on_c, 0, 60, 100
2, 139868, Note_off_c, 0, 60, 100
2, 139872, Note_on_c, 0, 59, 100
2, 139964, Note_off_c, 0, 59, 100
2, 139968, Note_on_c, 0, 60, 100
2, 140060, Note_off_c, 0, 60, 100
2, 140064, Note_on_c, 0, 59, 100
2, 140156, Note_off_c, 0, 59, 100
2, 140160, Note_on_c, 0, 60, 100
2, 140252, Note_off_c, 0, 60, 100
2, 140256, Note_on_c, 0, 59, 100
2, 140348, Note_off_c, 0, 59, 100
2, 140352, Note_on_c, 0, 60, 100
2, 140444, Note_off_c, 0, 60, 100
2, 140448, Note_on_c, 0, 59, 100
2, 140540, Note_off_c, 0, 59, 100
2, 140544, Note_on_c, 0, 60, 100
2, 140924, Note_off_c, 0, 60, 100
2, 141312, Note_on_c, 0, 68, 120
2, 141404, Note_off_c, 0, 68, 100
2, 141408, Note_on_c, 0, 64, 120
2, 141500, Note_off_c, 0, 64, 100
2, 141504, Note_on_c, 0, 65, 120
2, 141596, Note_off_c, 0, 65, 100
2, 141600, Note_on_c, 0, 67, 120
2, 141692, Note_off_c, 0, 67, 100
2, 141696, Note_on_c, 0, 68, 120
2, 141788, Note_off_c, 0, 68, 100
2, 141792, Note_on_c, 0, 67, 120
2, 141884, Note_off_c, 0, 67, 100
2, 141888, Note_on_c, 0, 65, 120
2, 141980, Note_off_c, 0, 65, 100
2, 141984, Note_on_c, 0, 64, 120
2, 142076, Note_off_c, 0, 64, 100
2, 142080, Note_on_c, 0, 65, 120
2, 142172, Note_off_c, 0, 65, 100
2, 142176, Note_on_c, 0, 60, 120
2, 142268, Note_off_c, 0, 60, 100
2, 142272, Note_on_c, 0, 62, 120
2, 142364, Note_off_c, 0, 62, 100
2, 142368, Note_on_c, 0, 64, 120
2, 142460, Note_off_c, 0, 64, 100
2, 142464, Note_on_c, 0, 65, 120
2, 142556, Note_off_c, 0, 65, 100
2, 142560, Note_on_c, 0, 63, 120
2, 142652, Note_off_c, 0, 63, 100
2, 142656, Note_on_c, 0, 62, 120
2, 142748, Note_off_c, 0, 62, 100
2, 142752, Note_on_c, 0, 61, 120
2, 142844, Note_off_c, 0, 61, 100
2, 142848, Note_on_c, 0, 62, 120
2, 142940, Note_off_c, 0, 62, 100
2, 142944, Note_on_c, 0, 61, 120
2, 143036, Note_off_c, 0, 61, 100
2, 143040, Note_on_c, 0, 62, 120
2, 143132, Note_off_c, 0, 62, 100
2, 143136, Note_on_c, 0, 61, 120
2, 143228, Note_off_c, 0, 61, 100
2, 143232, Note_on_c, 0, 62, 120
2, 143324, Note_off_c, 0, 62, 100
2, 143328, Note_on_c, 0, 61, 120
2, 143420, Note_off_c, 0, 61, 100
2, 143424, Note_on_c, 0, 62, 120
2, 143516, Note_off_c, 0, 62, 100
2, 143520, Note_on_c, 0, 61, 120
2, 143612, Note_off_c, 0, 61, 100
2, 143616, Note_on_c, 0, 62, 120
2, 143996, Note_off_c, 0, 62, 100
2, 144384, Note_on_c, 0, 77, 100
2, 144476, Note_off_c, 0, 77, 100
2, 144480, Note_on_c, 0, 72, 100
2, 144572, Note_off_c, 0, 72, 100
2, 144576, Note_on_c, 0, 74, 100
2, 144668, Note_off_c, 0, 74, 100
2, 144672, Note_on_c, 0, 75, 100
2, 144764, Note_off_c, 0, 75, 100
2, 144768, Note_on_c, 0, 74, 100
2, 144860, Note_off_c, 0, 74, 100
2, 144864, Note_on_c, 0, 72, 100
2, 144956, Note_off_c, 0, 72, 100
2, 144960, Note_on_c, 0, 70, 100
2, 145052, Note_off_c, 0, 70, 100
2, 145056, Note_on_c, 0, 69, 100
2, 145148, Note_off_c, 0, 69, 100
2, 145152, Note_on_c, 0, 70, 100
2, 145244, Note_off_c, 0, 70, 100
2, 145248, Note_on_c, 0, 69, 100
2, 145340, Note_off_c, 0, 69, 100
2, 145344, Note_on_c, 0, 70, 100
2, 145436, Note_off_c, 0, 70, 100
2, 145440, Note_on_c, 0, 72, 100
2, 145532, Note_off_c, 0, 72, 100
2, 145536, Note_on_c, 0, 70, 100
2, 145628, Note_off_c, 0, 70, 100
2, 145632, Note_on_c, 0, 68, 100
2, 145724, Note_off_c, 0, 68, 100
2, 145728, Note_on_c, 0, 67, 100
2, 145820, Note_off_c, 0, 67, 100
2, 145824, Note_on_c, 0, 66, 100
2, 145916, Note_off_c, 0, 66, 100
2, 145920, Note_on_c, 0, 67, 100
2, 146108, Note_off_c, 0, 67, 100
2, 146112, Note_on_c, 0, 63, 100
2, 146204, Note_off_c, 0, 63, 100
2, 146208, Note_on_c, 0, 67, 100
2, 146300, Note_off_c, 0, 67, 100
2, 146304, Note_on_c, 0, 65, 100
2, 146396, Note_off_c, 0, 65, 100
2, 146400, Note_on_c, 0, 68, 100
2, 146492, Note_off_c, 0, 68, 100
2, 146496, Note_on_c, 0, 67, 100
2, 146588, Note_off_c, 0, 67, 100
2, 146592, Note_on_c, 0, 70, 100
2, 146684, Note_off_c, 0, 70, 100
2, 146688, Note_on_c, 0, 68, 100
2, 146780, Note_off_c, 0, 68, 100
2, 146784, Note_on_c, 0, 72, 100
2, 146876, Note_off_c, 0, 72, 100
2, 146880, Note_on_c, 0, 70, 100
2, 146972, Note_off_c, 0, 70, 100
2, 146976, Note_on_c, 0, 74, 100
2, 147068, Note_off_c, 0, 74, 100
2, 147072, Note_on_c, 0, 72, 100
2, 147164, Note_off_c, 0, 72, 100
2, 147168, Note_on_c, 0, 75, 100
2, 147260, Note_off_c, 0, 75, 100
2, 147264, Note_on_c, 0, 74, 100
2, 147356, Note_off_c, 0, 74, 100
2, 147360, Note_on_c, 0, 77, 100
2, 147452, Note_off_c, 0, 77, 100
2, 147456, Note_on_c, 0, 75, 100
2, 148988, Note_off_c, 0, 75, 100
2, 148992, Note_on_c, 0, 75, 100
2, 149040, Note_on_c, 0, 87, 100
2, 149180, Note_off_c, 0, 75, 100
2, 149372, Note_off_c, 0, 87, 100
2, 149376, Note_on_c, 0, 87, 100
2, 149756, Note_off_c, 0, 87, 100
2, 149952, Note_on_c, 0, 85, 100
2, 150140, Note_off_c, 0, 85, 100
2, 150144, Note_on_c, 0, 84, 100
2, 150332, Note_off_c, 0, 84, 100
2, 150336, Note_on_c, 0, 83, 100
2, 150524, Note_off_c, 0, 83, 100
2, 150528, Note_on_c, 0, 83, 100
2, 150620, Note_off_c, 0, 83, 100
2, 150624, Note_on_c, 0, 84, 100
2, 150716, Note_off_c, 0, 84, 100
2, 150720, Note_on_c, 0, 86, 100
2, 150812, Note_off_c, 0, 86, 100
2, 150816, Note_on_c, 0, 84, 100
2, 150908, Note_off_c, 0, 84, 100
2, 150912, Note_on_c, 0, 89, 100
2, 151004, Note_off_c, 0, 89, 100
2, 151008, Note_on_c, 0, 84, 100
2, 151100, Note_off_c, 0, 84, 100
2, 151104, Note_on_c, 0, 80, 100
2, 151196, Note_off_c, 0, 80, 100
2, 151200, Note_on_c, 0, 77, 100
2, 151292, Note_off_c, 0, 77, 100
2, 151296, Note_on_c, 0, 76, 100
2, 151388, Note_off_c, 0, 76, 100
2, 151392, Note_on_c, 0, 77, 100
2, 151484, Note_off_c, 0, 77, 100
2, 151488, Note_on_c, 0, 79, 100
2, 151580, Note_off_c, 0, 79, 100
2, 151584, Note_on_c, 0, 77, 100
2, 151676, Note_off_c, 0, 77, 100
2, 151680, Note_on_c, 0, 84, 100
2, 151772, Note_off_c, 0, 84, 100
2, 151776, Note_on_c, 0, 80, 100
2, 151868, Note_off_c, 0, 80, 100
2, 151872, Note_on_c, 0, 77, 100
2, 151964, Note_off_c, 0, 77, 100
2, 151968, Note_on_c, 0, 72, 100
2, 152060, Note_off_c, 0, 72, 100
2, 152064, Note_on_c, 0, 70, 100
2, 152156, Note_off_c, 0, 70, 100
2, 152160, Note_on_c, 0, 75, 100
2, 152252, Note_off_c, 0, 75, 100
2, 152256, Note_on_c, 0, 79, 100
2, 152348, Note_off_c, 0, 79, 100
2, 152352, Note_on_c, 0, 75, 100
2, 152444, Note_off_c, 0, 75, 100
2, 152448, Note_on_c, 0, 82, 100
2, 152540, Note_off_c, 0, 82, 100
2, 152544, Note_on_c, 0, 75, 100
2, 152636, Note_off_c, 0, 75, 100
2, 152640, Note_on_c, 0, 79, 100
2, 152732, Note_off_c, 0, 79, 100
2, 152736, Note_on_c, 0, 75, 100
2, 152828, Note_off_c, 0, 75, 100
2, 152832, Note_on_c, 0, 77, 100
2, 152896, Note_on_c, 0, 79, 100
2, 152956, Note_off_c, 0, 77, 100
2, 152960, Note_on_c, 0, 77, 100
2, 153020, Note_off_c, 0, 79, 100
2, 153024, Note_on_c, 0, 79, 100
2, 153084, Note_off_c, 0, 77, 100
2, 153088, Note_on_c, 0, 77, 100
2, 153148, Note_off_c, 0, 79, 100
2, 153152, Note_on_c, 0, 79, 100
2, 153212, Note_off_c, 0, 77, 100
2, 153216, Note_on_c, 0, 77, 100
2, 153276, Note_off_c, 0, 79, 100
2, 153280, Note_on_c, 0, 79, 100
2, 153340, Note_off_c, 0, 77, 100
2, 153344, Note_on_c, 0, 77, 100
2, 153404, Note_off_c, 0, 79, 100
2, 153408, Note_on_c, 0, 75, 100
2, 153468, Note_off_c, 0, 77, 100
2, 153500, Note_off_c, 0, 75, 100
2, 153504, Note_on_c, 0, 77, 100
2, 153596, Note_off_c, 0, 77, 100
2, 153600, Note_on_c, 0, 75, 100
2, 153980, Note_off_c, 0, 75, 100
2, 154176, Note_on_c, 0, 79, 100
2, 154268, Note_off_c, 0, 79, 100
2, 154272, Note_on_c, 0, 80, 100
2, 154364, Note_off_c, 0, 80, 100
2, 154368, Note_on_c, 0, 82, 100
2, 154556, Note_off_c, 0, 82, 100
2, 154560, Note_on_c, 0, 79, 100
2, 154652, Note_off_c, 0, 79, 100
2, 154656, Note_on_c, 0, 80, 100
2, 154748, Note_off_c, 0, 80, 100
2, 154752, Note_on_c, 0, 82, 100
2, 154940, Note_off_c, 0, 82, 100
2, 154944, Note_on_c, 0, 79, 100
2, 155036, Note_off_c, 0, 79, 100
2, 155040, Note_on_c, 0, 80, 100
2, 155132, Note_off_c, 0, 80, 100
2, 155136, Note_on_c, 0, 82, 100
2, 155516, Note_off_c, 0, 82, 100
2, 156096, Note_on_c, 0, 80, 70
2, 156284, Note_off_c, 0, 80, 100
2, 156288, Note_on_c, 0, 77, 70
2, 156476, Note_off_c, 0, 77, 100
2, 156480, Note_on_c, 0, 74, 70
2, 156668, Note_off_c, 0, 74, 100
2, 156672, Note_on_c, 0, 75, 70
2, 157052, Note_off_c, 0, 75, 100
2, 157248, Note_on_c, 0, 67, 100
2, 157340, Note_off_c, 0, 67, 100
2, 157344, Note_on_c, 0, 68, 100
2, 157436, Note_off_c, 0, 68, 100
2, 157440, Note_on_c, 0, 70, 100
2, 157628, Note_off_c, 0, 70, 100
2, 157632, Note_on_c, 0, 67, 100
2, 157724, Note_off_c, 0, 67, 100
2, 157728, Note_on_c, 0, 68, 100
2, 157820, Note_off_c, 0, 68, 100
2, 157824, Note_on_c, 0, 70, 100
2, 158012, Note_off_c, 0, 70, 100
2, 158016, Note_on_c, 0, 67, 100
2, 158108, Note_off_c, 0, 67, 100
2, 158112, Note_on_c, 0, 68, 100
2, 158204, Note_off_c, 0, 68, 100
2, 158208, Note_on_c, 0, 70, 100
2, 158588, Note_off_c, 0, 70, 100
2, 159168, Note_on_c, 0, 68, 70
2, 159356, Note_off_c, 0, 68, 100
2, 159360, Note_on_c, 0, 65, 70
2, 159548, Note_off_c, 0, 65, 100
2, 159552, Note_on_c, 0, 62, 70
2, 159740, Note_off_c, 0, 62, 100
2, 159744, Note_on_c, 0, 63, 70
2, 160124, Note_off_c, 0, 63, 100
2, 160704, Note_on_c, 0, 68, 60
2, 160892, Note_off_c, 0, 68, 100
2, 160896, Note_on_c, 0, 65, 60
2, 161084, Note_off_c, 0, 65, 100
2, 161088, Note_on_c, 0, 62, 60
2, 161276, Note_off_c, 0, 62, 100
2, 161280, Note_on_c, 0, 63, 60
2, 161660, Note_off_c, 0, 63, 100
2, 161664, Note_on_c, 0, 55, 60
2, 161664, Note_on_c, 0, 63, 60
2, 162044, Note_off_c, 0, 55, 100
2, 162044, Note_off_c, 0, 63, 100
2, 162048, Note_on_c, 0, 55, 60
2, 162048, Note_on_c, 0, 63, 60
2, 162428, Note_off_c, 0, 55, 100
2, 162428, Note_off_c, 0, 63, 100
2, 162432, Note_on_c, 0, 65, 70
2, 162480, Note_on_c, 0, 67, 70
2, 162524, Note_off_c, 0, 65, 100
2, 162528, Note_on_c, 0, 65, 70
2, 162572, Note_off_c, 0, 67, 100
2, 162716, Note_off_c, 0, 65, 100
2, 162720, Note_on_c, 0, 65, 70
2, 162812, Note_off_c, 0, 65, 100
2, 162816, Note_on_c, 0, 62, 70
2, 162816, Note_on_c, 0, 70, 70
2, 163196, Note_off_c, 0, 62, 100
2, 163196, Note_off_c, 0, 70, 100
2, 163200, Note_on_c, 0, 62, 100
2, 163200, Note_on_c, 0, 70, 100
2, 163580, Note_off_c, 0, 62, 100
2, 163580, Note_off_c, 0, 70, 100
2, 163776, Note_on_c, 0, 65, 100
2, 163964, Note_off_c, 0, 65, 100
2, 163968, Note_on_c, 0, 70, 100
2, 164156, Note_off_c, 0, 70, 100
2, 164160, Note_on_c, 0, 72, 100
2, 164348, Note_off_c, 0, 72, 100
2, 164352, Note_on_c, 0, 70, 70
2, 164352, Note_on_c, 0, 74, 70
2, 164732, Note_off_c, 0, 70, 100
2, 164732, Note_off_c, 0, 74, 100
2, 164736, Note_on_c, 0, 74, 100
2, 164736, Note_on_c, 0, 70, 100
2, 165308, Note_off_c, 0, 74, 100
2, 165308, Note_off_c, 0, 70, 100
2, 165312, Note_on_c, 0, 65, 100
2, 165312, Note_on_c, 0, 70, 100
2, 165500, Note_off_c, 0, 65, 100
2, 165500, Note_off_c, 0, 70, 100
2, 165504, Note_on_c, 0, 70, 100
2, 165504, Note_on_c, 0, 74, 100
2, 165692, Note_off_c, 0, 70, 100
2, 165692, Note_off_c, 0, 74, 100
2, 165696, Note_on_c, 0, 72, 100
2, 165696, Note_on_c, 0, 75, 100
2, 165884, Note_off_c, 0, 72, 100
2, 165884, Note_off_c, 0, 75, 100
2, 165888, Note_on_c, 0, 74, 70
2, 165888, Note_on_c, 0, 77, 70
2, 166268, Note_off_c, 0, 74, 100
2, 166268, Note_off_c, 0, 77, 100
2, 166272, Note_on_c, 0, 74, 100
2, 166272, Note_on_c, 0, 77, 100
2, 166844, Note_off_c, 0, 74, 100
2, 166844, Note_off_c, 0, 77, 100
2, 166848, Note_on_c, 0, 82, 100
2, 166848, Note_on_c, 0, 79, 100
2, 167036, Note_off_c, 0, 82, 100
2, 167036, Note_off_c, 0, 79, 100
2, 167040, Note_on_c, 0, 77, 100
2, 167040, Note_on_c, 0, 81, 100
2, 167228, Note_off_c, 0, 77, 100
2, 167228, Note_off_c, 0, 81, 100
2, 167232, Note_on_c, 0, 75, 100
2, 167232, Note_on_c, 0, 79, 100
2, 167420, Note_off_c, 0, 75, 100
2, 167420, Note_off_c, 0, 79, 100
2, 167424, Note_on_c, 0, 81, 100
2, 167424, Note_on_c, 0, 77, 100
2, 167472, Note_on_c, 0, 79, 100
2, 167472, Note_on_c, 0, 75, 100
2, 167516, Note_off_c, 0, 81, 100
2, 167516, Note_off_c, 0, 77, 100
2, 167612, Note_off_c, 0, 79, 100
2, 167612, Note_off_c, 0, 75, 100
2, 167616, Note_on_c, 0, 77, 100
2, 167616, Note_on_c, 0, 74, 100
2, 167804, Note_off_c, 0, 77, 100
2, 167804, Note_off_c, 0, 74, 100
2, 167808, Note_on_c, 0, 74, 100
2, 167808, Note_on_c, 0, 77, 100
2, 168380, Note_off_c, 0, 74, 100
2, 168380, Note_off_c, 0, 77, 100
2, 168384, Note_on_c, 0, 82, 100
2, 168572, Note_off_c, 0, 82, 100
2, 168576, Note_on_c, 0, 82, 100
2, 168764, Note_off_c, 0, 82, 100
2, 168768, Note_on_c, 0, 82, 100
2, 168956, Note_off_c, 0, 82, 100
2, 168960, Note_on_c, 0, 82, 100
2, 169148, Note_off_c, 0, 82, 100
2, 169152, Note_on_c, 0, 83, 100
2, 169340, Note_off_c, 0, 83, 100
2, 169344, Note_on_c, 0, 83, 100
2, 169724, Note_off_c, 0, 83, 100
2, 169728, Note_on_c, 0, 89, 100
2, 169916, Note_off_c, 0, 89, 100
2, 169920, Note_on_c, 0, 86, 100
2, 170108, Note_off_c, 0, 86, 100
2, 170112, Note_on_c, 0, 84, 100
2, 170300, Note_off_c, 0, 84, 100
2, 170304, Note_on_c, 0, 83, 100
2, 170492, Note_off_c, 0, 83, 100
2, 170496, Note_on_c, 0, 83, 100
2, 170684, Note_off_c, 0, 83, 100
2, 170688, Note_on_c, 0, 84, 100
2, 170876, Note_off_c, 0, 84, 100
2, 170880, Note_on_c, 0, 84, 100
2, 171260, Note_off_c, 0, 84, 100
2, 171264, Note_on_c, 0, 89, 100
2, 171452, Note_off_c, 0, 89, 100
2, 171456, Note_on_c, 0, 87, 100
2, 171644, Note_off_c, 0, 87, 100
2, 171648, Note_on_c, 0, 86, 100
2, 171712, Note_on_c, 0, 87, 96
2, 171772, Note_off_c, 0, 86, 100
2, 171776, Note_on_c, 0, 86, 91
2, 171836, Note_off_c, 0, 87, 100
2, 171840, Note_on_c, 0, 84, 87
2, 171900, Note_off_c, 0, 86, 100
2, 172028, Note_off_c, 0, 84, 100
2, 172032, Note_on_c, 0, 84, 70
2, 172096, Note_on_c, 0, 86, 70
2, 172156, Note_off_c, 0, 84, 100
2, 172160, Note_on_c, 0, 84, 70
2, 172220, Note_off_c, 0, 86, 100
2, 172224, Note_on_c, 0, 83, 70
2, 172284, Note_off_c, 0, 84, 100
2, 172412, Note_off_c, 0, 83, 100
2, 172416, Note_on_c, 0, 83, 70
2, 172796, Note_off_c, 0, 83, 100
2, 172800, Note_on_c, 0, 89, 70
2, 172988, Note_off_c, 0, 89, 100
2, 172992, Note_on_c, 0, 86, 70
2, 173180, Note_off_c, 0, 86, 100
2, 173184, Note_on_c, 0, 84, 70
2, 173372, Note_off_c, 0, 84, 100
2, 173376, Note_on_c, 0, 83, 70
2, 173564, Note_off_c, 0, 83, 100
2, 173568, Note_on_c, 0, 84, 120
2, 173756, Note_off_c, 0, 84, 100
2, 173760, Note_on_c, 0, 87, 120
2, 173852, Note_off_c, 0, 87, 100
2, 173856, Note_on_c, 0, 86, 120
2, 173948, Note_off_c, 0, 86, 100
2, 173952, Note_on_c, 0, 84, 120
2, 174140, Note_off_c, 0, 84, 100
2, 174144, Note_on_c, 0, 82, 120
2, 174332, Note_off_c, 0, 82, 100
2, 174336, Note_on_c, 0, 80, 120
2, 174524, Note_off_c, 0, 80, 100
2, 174528, Note_on_c, 0, 84, 120
2, 174620, Note_off_c, 0, 84, 100
2, 174624, Note_on_c, 0, 82, 120
2, 174716, Note_off_c, 0, 82, 100
2, 174720, Note_on_c, 0, 80, 120
2, 174908, Note_off_c, 0, 80, 100
2, 174912, Note_on_c, 0, 79, 120
2, 175100, Note_off_c, 0, 79, 100
2, 175104, Note_on_c, 0, 77, 120
2, 175292, Note_off_c, 0, 77, 100
2, 175296, Note_on_c, 0, 80, 120
2, 175388, Note_off_c, 0, 80, 100
2, 175392, Note_on_c, 0, 79, 120
2, 175484, Note_off_c, 0, 79, 100
2, 175488, Note_on_c, 0, 77, 120
2, 175676, Note_off_c, 0, 77, 100
2, 175680, Note_on_c, 0, 75, 120
2, 175868, Note_off_c, 0, 75, 100
2, 175872, Note_on_c, 0, 74, 120
2, 176060, Note_off_c, 0, 74, 100
2, 176064, Note_on_c, 0, 77, 120
2, 176156, Note_off_c, 0, 77, 100
2, 176160, Note_on_c, 0, 75, 120
2, 176252, Note_off_c, 0, 75, 100
2, 176256, Note_on_c, 0, 74, 120
2, 176444, Note_off_c, 0, 74, 100
2, 176448, Note_on_c, 0, 72, 120
2, 176636, Note_off_c, 0, 72, 100
2, 176640, Note_on_c, 0, 71, 120
2, 176688, Note_on_c, 0, 79, 120
2, 176732, Note_off_c, 0, 71, 100
2, 177020, Note_off_c, 0, 79, 100
2, 177024, Note_on_c, 0, 67, 120
2, 177308, Note_off_c, 0, 67, 100
2, 177312, Note_on_c, 0, 67, 120
2, 177404, Note_off_c, 0, 67, 100
2, 177408, Note_on_c, 0, 67, 120
2, 178172, Note_off_c, 0, 67, 100
2, 178368, Note_on_c, 0, 67, 70
2, 178556, Note_off_c, 0, 67, 100
2, 178560, Note_on_c, 0, 67, 70
2, 178748, Note_off_c, 0, 67, 100
2, 178752, Note_on_c, 0, 67, 70
2, 178940, Note_off_c, 0, 67, 100
2, 178944, Note_on_c, 0, 67, 70
2, 179132, Note_off_c, 0, 67, 100
2, 179136, Note_on_c, 0, 63, 70
2, 179324, Note_off_c, 0, 63, 100
2, 179328, Note_on_c, 0, 62, 70
2, 179516, Note_off_c, 0, 62, 100
2, 179520, Note_on_c, 0, 60, 70
2, 179708, Note_off_c, 0, 60, 100
2, 179712, Note_on_c, 0, 60, 70
2, 179900, Note_off_c, 0, 60, 100
2, 179904, Note_on_c, 0, 59, 70
2, 180092, Note_off_c, 0, 59, 100
2, 180096, Note_on_c, 0, 59, 70
2, 180476, Note_off_c, 0, 59, 100
2, 181440, Note_on_c, 0, 60, 100
2, 181628, Note_off_c, 0, 60, 100
2, 181632, Note_on_c, 0, 62, 100
2, 181820, Note_off_c, 0, 62, 100
2, 181824, Note_on_c, 0, 63, 100
2, 182012, Note_off_c, 0, 63, 100
2, 182016, Note_on_c, 0, 63, 100
2, 182080, Note_on_c, 0, 65, 100
2, 182140, Note_off_c, 0, 63, 100
2, 182144, Note_on_c, 0, 63, 100
2, 182204, Note_off_c, 0, 65, 100
2, 182208, Note_on_c, 0, 62, 100
2, 182268, Note_off_c, 0, 63, 100
2, 182396, Note_off_c, 0, 62, 100
2, 182400, Note_on_c, 0, 62, 100
2, 182464, Note_on_c, 0, 63, 100
2, 182524, Note_off_c, 0, 62, 100
2, 182528, Note_on_c, 0, 62, 100
2, 182588, Note_off_c, 0, 63, 100
2, 182592, Note_on_c, 0, 60, 100
2, 182652, Note_off_c, 0, 62, 100
2, 182780, Note_off_c, 0, 60, 100
2, 182784, Note_on_c, 0, 60, 100
2, 182972, Note_off_c, 0, 60, 100
2, 182976, Note_on_c, 0, 59, 100
2, 183164, Note_off_c, 0, 59, 100
2, 183168, Note_on_c, 0, 59, 100
2, 183356, Note_off_c, 0, 59, 100
2, 184512, Note_on_c, 0, 67, 70
2, 184700, Note_off_c, 0, 67, 100
2, 184704, Note_on_c, 0, 67, 70
2, 184892, Note_off_c, 0, 67, 100
2, 184896, Note_on_c, 0, 67, 70
2, 185084, Note_off_c, 0, 67, 100
2, 185088, Note_on_c, 0, 67, 70
2, 185276, Note_off_c, 0, 67, 100
2, 185280, Note_on_c, 0, 63, 70
2, 185468, Note_off_c, 0, 63, 100
2, 185472, Note_on_c, 0, 62, 70
2, 185660, Note_off_c, 0, 62, 100
2, 185664, Note_on_c, 0, 60, 70
2, 185852, Note_off_c, 0, 60, 100
2, 186048, Note_on_c, 0, 72, 120
2, 186236, Note_off_c, 0, 72, 100
2, 186240, Note_on_c, 0, 72, 120
2, 186428, Note_off_c, 0, 72, 100
2, 186432, Note_on_c, 0, 72, 120
2, 186620, Note_off_c, 0, 72, 100
2, 186624, Note_on_c, 0, 72, 120
2, 186812, Note_off_c, 0, 72, 100
2, 186816, Note_on_c, 0, 68, 120
2, 187004, Note_off_c, 0, 68, 100
2, 187008, Note_on_c, 0, 67, 120
2, 187196, Note_off_c, 0, 67, 100
2, 187200, Note_on_c, 0, 65, 120
2, 187388, Note_off_c, 0, 65, 100
2, 187392, Note_on_c, 0, 67, 100
2, 187580, Note_off_c, 0, 67, 100
2, 187584, Note_on_c, 0, 63, 100
2, 187772, Note_off_c, 0, 63, 100
2, 187776, Note_on_c, 0, 68, 100
2, 187964, Note_off_c, 0, 68, 100
2, 187968, Note_on_c, 0, 65, 100
2, 188156, Note_off_c, 0, 65, 100
2, 188160, Note_on_c, 0, 63, 100
2, 188348, Note_off_c, 0, 63, 100
2, 188352, Note_on_c, 0, 60, 100
2, 188540, Note_off_c, 0, 60, 100
2, 188544, Note_on_c, 0, 62, 90
2, 188732, Note_off_c, 0, 62, 100
2, 188736, Note_on_c, 0, 59, 80
2, 188924, Note_off_c, 0, 59, 100
2, 189024, Note_on_c, 0, 55, 100
2, 189120, Note_on_c, 0, 60, 100
2, 189212, Note_off_c, 0, 55, 100
2, 189216, Note_on_c, 0, 63, 100
2, 189308, Note_off_c, 0, 60, 100
2, 189312, Note_on_c, 0, 67, 100
2, 189404, Note_off_c, 0, 63, 100
2, 189408, Note_on_c, 0, 60, 100
2, 189500, Note_off_c, 0, 67, 100
2, 189504, Note_on_c, 0, 63, 100
2, 189596, Note_off_c, 0, 60, 100
2, 189600, Note_on_c, 0, 67, 100
2, 189692, Note_off_c, 0, 63, 100
2, 189696, Note_on_c, 0, 72, 100
2, 189788, Note_off_c, 0, 67, 100
2, 189792, Note_on_c, 0, 63, 100
2, 189884, Note_off_c, 0, 72, 100
2, 189888, Note_on_c, 0, 67, 100
2, 189980, Note_off_c, 0, 63, 100
2, 189984, Note_on_c, 0, 72, 100
2, 190076, Note_off_c, 0, 67, 100
2, 190080, Note_on_c, 0, 75, 100
2, 190172, Note_off_c, 0, 72, 100
2, 190176, Note_on_c, 0, 67, 100
2, 190268, Note_off_c, 0, 75, 100
2, 190272, Note_on_c, 0, 72, 100
2, 190364, Note_off_c, 0, 67, 100
2, 190368, Note_on_c, 0, 75, 100
2, 190460, Note_off_c, 0, 72, 100
2, 190460, Note_off_c, 0, 75, 100
2, 190464, Note_on_c, 0, 79, 100
2, 190560, Note_on_c, 0, 75, 100
2, 190652, Note_off_c, 0, 79, 100
2, 190656, Note_on_c, 0, 72, 100
2, 190748, Note_off_c, 0, 75, 100
2, 190752, Note_on_c, 0, 67, 100
2, 190844, Note_off_c, 0, 72, 100
2, 190848, Note_on_c, 0, 75, 100
2, 190940, Note_off_c, 0, 67, 100
2, 190944, Note_on_c, 0, 72, 100
2, 191036, Note_off_c, 0, 75, 100
2, 191040, Note_on_c, 0, 67, 100
2, 191132, Note_off_c, 0, 72, 100
2, 191136, Note_on_c, 0, 63, 100
2, 191228, Note_off_c, 0, 67, 100
2, 191232, Note_on_c, 0, 72, 100
2, 191324, Note_off_c, 0, 63, 100
2, 191328, Note_on_c, 0, 67, 100
2, 191420, Note_off_c, 0, 72, 100
2, 191424, Note_on_c, 0, 63, 100
2, 191516, Note_off_c, 0, 67, 100
2, 191520, Note_on_c, 0, 60, 100
2, 191612, Note_off_c, 0, 63, 100
2, 191616, Note_on_c, 0, 67, 100
2, 191708, Note_off_c, 0, 60, 100
2, 191712, Note_on_c, 0, 63, 100
2, 191804, Note_off_c, 0, 67, 100
2, 191808, Note_on_c, 0, 60, 100
2, 191900, Note_off_c, 0, 63, 100
2, 191904, Note_on_c, 0, 55, 100
2, 191996, Note_off_c, 0, 60, 100
2, 191996, Note_off_c, 0, 55, 100
2, 192096, Note_on_c, 0, 56, 100
2, 192192, Note_on_c, 0, 60, 100
2, 192284, Note_off_c, 0, 56, 100
2, 192288, Note_on_c, 0, 65, 100
2, 192380, Note_off_c, 0, 60, 100
2, 192384, Note_on_c, 0, 68, 100
2, 192476, Note_off_c, 0, 65, 100
2, 192480, Note_on_c, 0, 60, 100
2, 192572, Note_off_c, 0, 68, 100
2, 192576, Note_on_c, 0, 65, 100
2, 192668, Note_off_c, 0, 60, 100
2, 192672, Note_on_c, 0, 68, 100
2, 192764, Note_off_c, 0, 65, 100
2, 192768, Note_on_c, 0, 72, 100
2, 192860, Note_off_c, 0, 68, 100
2, 192864, Note_on_c, 0, 65, 100
2, 192956, Note_off_c, 0, 72, 100
2, 192960, Note_on_c, 0, 68, 100
2, 193052, Note_off_c, 0, 65, 100
2, 193056, Note_on_c, 0, 72, 100
2, 193148, Note_off_c, 0, 68, 100
2, 193152, Note_on_c, 0, 77, 100
2, 193244, Note_off_c, 0, 72, 100
2, 193248, Note_on_c, 0, 68, 100
2, 193340, Note_off_c, 0, 77, 100
2, 193344, Note_on_c, 0, 72, 100
2, 193436, Note_off_c, 0, 68, 100
2, 193440, Note_on_c, 0, 77, 100
2, 193532, Note_off_c, 0, 72, 100
2, 193532, Note_off_c, 0, 77, 100
2, 193536, Note_on_c, 0, 80, 100
2, 193632, Note_on_c, 0, 77, 100
2, 193724, Note_off_c, 0, 80, 100
2, 193728, Note_on_c, 0, 72, 100
2, 193820, Note_off_c, 0, 77, 100
2, 193824, Note_on_c, 0, 68, 100
2, 193916, Note_off_c, 0, 72, 100
2, 193920, Note_on_c, 0, 77, 100
2, 194012, Note_off_c, 0, 68, 100
2, 194016, Note_on_c, 0, 72, 100
2, 194108, Note_off_c, 0, 77, 100
2, 194112, Note_on_c, 0, 68, 100
2, 194204, Note_off_c, 0, 72, 100
2, 194208, Note_on_c, 0, 65, 100
2, 194300, Note_off_c, 0, 68, 100
2, 194304, Note_on_c, 0, 72, 100
2, 194396, Note_off_c, 0, 65, 100
2, 194400, Note_on_c, 0, 68, 100
2, 194492, Note_off_c, 0, 72, 100
2, 194496, Note_on_c, 0, 65, 100
2, 194588, Note_off_c, 0, 68, 100
2, 194592, Note_on_c, 0, 60, 100
2, 194684, Note_off_c, 0, 65, 100
2, 194688, Note_on_c, 0, 68, 100
2, 194780, Note_off_c, 0, 60, 100
2, 194784, Note_on_c, 0, 65, 100
2, 194876, Note_off_c, 0, 68, 100
2, 194880, Note_on_c, 0, 60, 100
2, 194972, Note_off_c, 0, 65, 100
2, 194976, Note_on_c, 0, 56, 100
2, 195068, Note_off_c, 0, 60, 100
2, 195068, Note_off_c, 0, 56, 100
2, 195168, Note_on_c, 0, 56, 100
2, 195264, Note_on_c, 0, 62, 100
2, 195356, Note_off_c, 0, 56, 100
2, 195360, Note_on_c, 0, 65, 100
2, 195452, Note_off_c, 0, 62, 100
2, 195456, Note_on_c, 0, 68, 100
2, 195548, Note_off_c, 0, 65, 100
2, 195552, Note_on_c, 0, 62, 100
2, 195644, Note_off_c, 0, 68, 100
2, 195648, Note_on_c, 0, 65, 100
2, 195740, Note_off_c, 0, 62, 100
2, 195744, Note_on_c, 0, 68, 100
2, 195836, Note_off_c, 0, 65, 100
2, 195840, Note_on_c, 0, 74, 100
2, 195932, Note_off_c, 0, 68, 100
2, 195936, Note_on_c, 0, 65, 100
2, 196028, Note_off_c, 0, 74, 100
2, 196032, Note_on_c, 0, 68, 100
2, 196124, Note_off_c, 0, 65, 100
2, 196128, Note_on_c, 0, 74, 100
2, 196220, Note_off_c, 0, 68, 100
2, 196224, Note_on_c, 0, 77, 100
2, 196316, Note_off_c, 0, 74, 100
2, 196320, Note_on_c, 0, 68, 100
2, 196412, Note_off_c, 0, 77, 100
2, 196416, Note_on_c, 0, 74, 100
2, 196508, Note_off_c, 0, 68, 100
2, 196512, Note_on_c, 0, 77, 100
2, 196604, Note_off_c, 0, 74, 100
2, 196604, Note_off_c, 0, 77, 100
2, 196608, Note_on_c, 0, 80, 100
2, 196672, Note_on_c, 0, 82, 100
2, 196732, Note_off_c, 0, 80, 100
2, 196736, Note_on_c, 0, 80, 100
2, 196796, Note_off_c, 0, 82, 100
2, 196800, Note_on_c, 0, 79, 100
2, 196860, Note_off_c, 0, 80, 100
2, 196988, Note_off_c, 0, 79, 100
2, 196992, Note_on_c, 0, 77, 100
2, 197056, Note_on_c, 0, 79, 100
2, 197116, Note_off_c, 0, 77, 100
2, 197120, Note_on_c, 0, 77, 100
2, 197180, Note_off_c, 0, 79, 100
2, 197184, Note_on_c, 0, 75, 100
2, 197244, Note_off_c, 0, 77, 100
2, 197372, Note_off_c, 0, 75, 100
2, 197376, Note_on_c, 0, 74, 100
2, 197564, Note_off_c, 0, 74, 100
2, 197568, Note_on_c, 0, 72, 100
2, 197756, Note_off_c, 0, 72, 100
2, 197760, Note_on_c, 0, 70, 100
2, 197948, Note_off_c, 0, 70, 100
2, 197952, Note_on_c, 0, 68, 100
2, 198140, Note_off_c, 0, 68, 100
2, 198144, Note_on_c, 0, 67, 100
2, 198236, Note_off_c, 0, 67, 100
2, 198240, Note_on_c, 0, 63, 100
2, 198332, Note_off_c, 0, 63, 100
2, 198336, Note_on_c, 0, 65, 100
2, 198428, Note_off_c, 0, 65, 100
2, 198432, Note_on_c, 0, 67, 100
2, 198524, Note_off_c, 0, 67, 100
2, 198528, Note_on_c, 0, 68, 100
2, 198620, Note_off_c, 0, 68, 100
2, 198624, Note_on_c, 0, 70, 100
2, 198716, Note_off_c, 0, 70, 100
2, 198720, Note_on_c, 0, 72, 100
2, 198812, Note_off_c, 0, 72, 100
2, 198816, Note_on_c, 0, 74, 100
2, 198908, Note_off_c, 0, 74, 100
2, 198912, Note_on_c, 0, 75, 100
2, 199100, Note_off_c, 0, 75, 100
2, 199104, Note_on_c, 0, 70, 100
2, 199292, Note_off_c, 0, 70, 100
2, 199296, Note_on_c, 0, 67, 100
2, 199484, Note_off_c, 0, 67, 100
2, 199488, Note_on_c, 0, 63, 100
2, 199676, Note_off_c, 0, 63, 100
2, 199680, Note_on_c, 0, 69, 100
2, 199728, Note_on_c, 0, 70, 100
2, 199772, Note_off_c, 0, 69, 100
2, 199868, Note_off_c, 0, 70, 100
2, 199872, Note_on_c, 0, 62, 100
2, 199964, Note_off_c, 0, 62, 100
2, 199968, Note_on_c, 0, 63, 100
2, 200060, Note_off_c, 0, 63, 100
2, 200064, Note_on_c, 0, 65, 100
2, 200156, Note_off_c, 0, 65, 100
2, 200160, Note_on_c, 0, 63, 100
2, 200252, Note_off_c, 0, 63, 100
2, 200256, Note_on_c, 0, 62, 100
2, 200348, Note_off_c, 0, 62, 100
2, 200352, Note_on_c, 0, 60, 100
2, 200444, Note_off_c, 0, 60, 100
2, 200448, Note_on_c, 0, 58, 100
2, 201212, Note_off_c, 0, 58, 100
2, 201216, Note_on_c, 0, 70, 70
2, 201264, Note_on_c, 0, 72, 70
2, 201308, Note_off_c, 0, 70, 100
2, 201312, Note_on_c, 0, 70, 70
2, 201356, Note_off_c, 0, 72, 100
2, 201596, Note_off_c, 0, 70, 100
2, 201600, Note_on_c, 0, 70, 70
2, 202172, Note_off_c, 0, 70, 100
2, 202176, Note_on_c, 0, 75, 70
2, 202364, Note_off_c, 0, 75, 100
2, 202368, Note_on_c, 0, 74, 70
2, 202556, Note_off_c, 0, 74, 100
2, 202560, Note_on_c, 0, 72, 70
2, 202748, Note_off_c, 0, 72, 100
2, 202752, Note_on_c, 0, 72, 100
2, 202940, Note_off_c, 0, 72, 100
2, 202944, Note_on_c, 0, 70, 100
2, 203132, Note_off_c, 0, 70, 100
2, 203136, Note_on_c, 0, 70, 100
2, 203708, Note_off_c, 0, 70, 100
2, 203712, Note_on_c, 0, 75, 70
2, 203900, Note_off_c, 0, 75, 100
2, 203904, Note_on_c, 0, 74, 70
2, 204092, Note_off_c, 0, 74, 100
2, 204096, Note_on_c, 0, 72, 70
2, 204284, Note_off_c, 0, 72, 100
2, 204288, Note_on_c, 0, 72, 100
2, 204336, Note_on_c, 0, 74, 100
2, 204380, Note_off_c, 0, 72, 100
2, 204384, Note_on_c, 0, 72, 100
2, 204428, Note_off_c, 0, 74, 100
2, 204476, Note_off_c, 0, 72, 100
2, 204480, Note_on_c, 0, 70, 100
2, 204668, Note_off_c, 0, 70, 100
2, 204672, Note_on_c, 0, 70, 100
2, 205052, Note_off_c, 0, 70, 100
2, 205248, Note_on_c, 0, 70, 70
2, 205436, Note_off_c, 0, 70, 100
2, 205440, Note_on_c, 0, 75, 70
2, 205488, Note_on_c, 0, 77, 70
2, 205532, Note_off_c, 0, 75, 100
2, 205536, Note_on_c, 0, 75, 70
2, 205580, Note_off_c, 0, 77, 100
2, 205628, Note_off_c, 0, 75, 100
2, 205632, Note_on_c, 0, 79, 70
2, 205820, Note_off_c, 0, 79, 100
2, 205824, Note_on_c, 0, 77, 70
2, 205916, Note_off_c, 0, 77, 100
2, 205920, Note_on_c, 0, 75, 70
2, 206012, Note_off_c, 0, 75, 100
2, 206016, Note_on_c, 0, 74, 70
2, 206108, Note_off_c, 0, 74, 100
2, 206112, Note_on_c, 0, 75, 70
2, 206204, Note_off_c, 0, 75, 100
2, 206208, Note_on_c, 0, 74, 70
2, 206300, Note_off_c, 0, 74, 100
2, 206304, Note_on_c, 0, 72, 70
2, 206396, Note_off_c, 0, 72, 100
2, 206400, Note_on_c, 0, 70, 70
2, 206492, Note_off_c, 0, 70, 100
2, 206496, Note_on_c, 0, 72, 70
2, 206588, Note_off_c, 0, 72, 100
2, 206592, Note_on_c, 0, 70, 70
2, 207164, Note_off_c, 0, 70, 100
2, 207168, Note_on_c, 0, 68, 70
2, 207356, Note_off_c, 0, 68, 100
2, 207360, Note_on_c, 0, 67, 100
2, 207452, Note_off_c, 0, 67, 100
2, 207456, Note_on_c, 0, 68, 100
2, 207548, Note_off_c, 0, 68, 100
2, 207552, Note_on_c, 0, 70, 100
2, 207644, Note_off_c, 0, 70, 100
2, 207648, Note_on_c, 0, 68, 100
2, 207740, Note_off_c, 0, 68, 100
2, 207744, Note_on_c, 0, 67, 100
2, 207836, Note_off_c, 0, 67, 100
2, 207840, Note_on_c, 0, 65, 100
2, 207932, Note_off_c, 0, 65, 100
2, 207936, Note_on_c, 0, 63, 100
2, 208028, Note_off_c, 0, 63, 100
2, 208032, Note_on_c, 0, 62, 100
2, 208124, Note_off_c, 0, 62, 100
2, 208128, Note_on_c, 0, 63, 100
2, 208220, Note_off_c, 0, 63, 100
2, 208224, Note_on_c, 0, 65, 100
2, 208316, Note_off_c, 0, 65, 100
2, 208320, Note_on_c, 0, 67, 100
2, 208412, Note_off_c, 0, 67, 100
2, 208416, Note_on_c, 0, 65, 100
2, 208508, Note_off_c, 0, 65, 100
2, 208512, Note_on_c, 0, 63, 100
2, 208604, Note_off_c, 0, 63, 100
2, 208608, Note_on_c, 0, 62, 100
2, 208700, Note_off_c, 0, 62, 100
2, 208704, Note_on_c, 0, 60, 100
2, 208796, Note_off_c, 0, 60, 100
2, 208800, Note_on_c, 0, 59, 100
2, 208892, Note_off_c, 0, 59, 100
2, 208896, Note_on_c, 0, 60, 100
2, 208988, Note_off_c, 0, 60, 100
2, 208992, Note_on_c, 0, 59, 100
2, 209084, Note_off_c, 0, 59, 100
2, 209088, Note_on_c, 0, 60, 100
2, 209180, Note_off_c, 0, 60, 100
2, 209184, Note_on_c, 0, 59, 100
2, 209276, Note_off_c, 0, 59, 100
2, 209280, Note_on_c, 0, 60, 100
2, 209372, Note_off_c, 0, 60, 100
2, 209376, Note_on_c, 0, 59, 100
2, 209468, Note_off_c, 0, 59, 100
2, 209472, Note_on_c, 0, 60, 100
2, 209564, Note_off_c, 0, 60, 100
2, 209568, Note_on_c, 0, 59, 100
2, 209660, Note_off_c, 0, 59, 100
2, 209664, Note_on_c, 0, 60, 100
2, 210044, Note_off_c, 0, 60, 100
2, 210432, Note_on_c, 0, 68, 120
2, 210524, Note_off_c, 0, 68, 100
2, 210528, Note_on_c, 0, 64, 120
2, 210620, Note_off_c, 0, 64, 100
2, 210624, Note_on_c, 0, 65, 120
2, 210716, Note_off_c, 0, 65, 100
2, 210720, Note_on_c, 0, 67, 120
2, 210812, Note_off_c, 0, 67, 100
2, 210816, Note_on_c, 0, 68, 120
2, 210908, Note_off_c, 0, 68, 100
2, 210912, Note_on_c, 0, 67, 120
2, 211004, Note_off_c, 0, 67, 100
2, 211008, Note_on_c, 0, 65, 120
2, 211100, Note_off_c, 0, 65, 100
2, 211104, Note_on_c, 0, 64, 120
2, 211196, Note_off_c, 0, 64, 100
2, 211200, Note_on_c, 0, 65, 120
2, 211292, Note_off_c, 0, 65, 100
2, 211296, Note_on_c, 0, 60, 120
2, 211388, Note_off_c, 0, 60, 100
2, 211392, Note_on_c, 0, 62, 120
2, 211484, Note_off_c, 0, 62, 100
2, 211488, Note_on_c, 0, 64, 120
2, 211580, Note_off_c, 0, 64, 100
2, 211584, Note_on_c, 0, 65, 120
2, 211676, Note_off_c, 0, 65, 100
2, 211680, Note_on_c, 0, 63, 120
2, 211772, Note_off_c, 0, 63, 100
2, 211776, Note_on_c, 0, 62, 120
2, 211868, Note_off_c, 0, 62, 100
2, 211872, Note_on_c, 0, 61, 120
2, 211964, Note_off_c, 0, 61, 100
2, 211968, Note_on_c, 0, 62, 120
2, 212060, Note_off_c, 0, 62, 100
2, 212064, Note_on_c, 0, 61, 120
2, 212156, Note_off_c, 0, 61, 100
2, 212160, Note_on_c, 0, 62, 120
2, 212252, Note_off_c, 0, 62, 100
2, 212256, Note_on_c, 0, 61, 120
2, 212348, Note_off_c, 0, 61, 100
2, 212352, Note_on_c, 0, 62, 120
2, 212444, Note_off_c, 0, 62, 100
2, 212448, Note_on_c, 0, 61, 120
2, 212540, Note_off_c, 0, 61, 100
2, 212544, Note_on_c, 0, 62, 120
2, 212636, Note_off_c, 0, 62, 100
2, 212640, Note_on_c, 0, 61, 120
2, 212732, Note_off_c, 0, 61, 100
2, 212736, Note_on_c, 0, 62, 120
2, 213116, Note_off_c, 0, 62, 100
2, 213504, Note_on_c, 0, 77, 100
2, 213596, Note_off_c, 0, 77, 100
2, 213600, Note_on_c, 0, 72, 100
2, 213692, Note_off_c, 0, 72, 100
2, 213696, Note_on_c, 0, 74, 100
2, 213788, Note_off_c, 0, 74, 100
2, 213792, Note_on_c, 0, 75, 100
2, 213884, Note_off_c, 0, 75, 100
2, 213888, Note_on_c, 0, 74, 100
2, 213980, Note_off_c, 0, 74, 100
2, 213984, Note_on_c, 0, 72, 100
2, 214076, Note_off_c, 0, 72, 100
2, 214080, Note_on_c, 0, 70, 100
2, 214172, Note_off_c, 0, 70, 100
2, 214176, Note_on_c, 0, 69, 100
2, 214268, Note_off_c, 0, 69, 100
2, 214272, Note_on_c, 0, 70, 100
2, 214364, Note_off_c, 0, 70, 100
2, 214368, Note_on_c, 0, 69, 100
2, 214460, Note_off_c, 0, 69, 100
2, 214464, Note_on_c, 0, 70, 100
2, 214556, Note_off_c, 0, 70, 100
2, 214560, Note_on_c, 0, 72, 100
2, 214652, Note_off_c, 0, 72, 100
2, 214656, Note_on_c, 0, 70, 100
2, 214748, Note_off_c, 0, 70, 100
2, 214752, Note_on_c, 0, 68, 100
2, 214844, Note_off_c, 0, 68, 100
2, 214848, Note_on_c, 0, 67, 100
2, 214940, Note_off_c, 0, 67, 100
2, 214944, Note_on_c, 0, 66, 100
2, 215036, Note_off_c, 0, 66, 100
2, 215040, Note_on_c, 0, 67, 100
2, 215228, Note_off_c, 0, 67, 100
2, 215232, Note_on_c, 0, 63, 100
2, 215324, Note_off_c, 0, 63, 100
2, 215328, Note_on_c, 0, 67, 100
2, 215420, Note_off_c, 0, 67, 100
2, 215424, Note_on_c, 0, 65, 100
2, 215516, Note_off_c, 0, 65, 100
2, 215520, Note_on_c, 0, 68, 100
2, 215612, Note_off_c, 0, 68, 100
2, 215616, Note_on_c, 0, 67, 100
2, 215708, Note_off_c, 0, 67, 100
2, 215712, Note_on_c, 0, 70, 100
2, 215804, Note_off_c, 0, 70, 100
2, 215808, Note_on_c, 0, 68, 100
2, 215900, Note_off_c, 0, 68, 100
2, 215904, Note_on_c, 0, 72, 100
2, 215996, Note_off_c, 0, 72, 100
2, 216000, Note_on_c, 0, 70, 100
2, 216092, Note_off_c, 0, 70, 100
2, 216096, Note_on_c, 0, 74, 100
2, 216188, Note_off_c, 0, 74, 100
2, 216192, Note_on_c, 0, 72, 100
2, 216284, Note_off_c, 0, 72, 100
2, 216288, Note_on_c, 0, 75, 100
2, 216380, Note_off_c, 0, 75, 100
2, 216384, Note_on_c, 0, 74, 100
2, 216476, Note_off_c, 0, 74, 100
2, 216480, Note_on_c, 0, 77, 100
2, 216572, Note_off_c, 0, 77, 100
2, 216576, Note_on_c, 0, 75, 100
2, 218108, Note_off_c, 0, 75, 100
2, 218112, Note_on_c, 0, 75, 100
2, 218160, Note_on_c, 0, 87, 100
2, 218300, Note_off_c, 0, 75, 100
2, 218492, Note_off_c, 0, 87, 100
2, 218496, Note_on_c, 0, 87, 100
2, 218876, Note_off_c, 0, 87, 100
2, 219072, Note_on_c, 0, 85, 100
2, 219260, Note_off_c, 0, 85, 100
2, 219264, Note_on_c, 0, 84, 100
2, 219452, Note_off_c, 0, 84, 100
2, 219456, Note_on_c, 0, 83, 100
2, 219644, Note_off_c, 0, 83, 100
2, 219648, Note_on_c, 0, 83, 100
2, 219740, Note_off_c, 0, 83, 100
2, 219744, Note_on_c, 0, 84, 100
2, 219836, Note_off_c, 0, 84, 100
2, 219840, Note_on_c, 0, 86, 100
2, 219932, Note_off_c, 0, 86, 100
2, 219936, Note_on_c, 0, 84, 100
2, 220028, Note_off_c, 0, 84, 100
2, 220032, Note_on_c, 0, 89, 100
2, 220124, Note_off_c, 0, 89, 100
2, 220128, Note_on_c, 0, 84, 100
2, 220220, Note_off_c, 0, 84, 100
2, 220224, Note_on_c, 0, 80, 100
2, 220316, Note_off_c, 0, 80, 100
2, 220320, Note_on_c, 0, 77, 100
2, 220412, Note_off_c, 0, 77, 100
2, 220416, Note_on_c, 0, 76, 100
2, 220508, Note_off_c, 0, 76, 100
2, 220512, Note_on_c, 0, 77, 100
2, 220604, Note_off_c, 0, 77, 100
2, 220608, Note_on_c, 0, 79, 100
2, 220700, Note_off_c, 0, 79, 100
2, 220704, Note_on_c, 0, 77, 100
2, 220796, Note_off_c, 0, 77, 100
2, 220800, Note_on_c, 0, 84, 100
2, 220892, Note_off_c, 0, 84, 100
2, 220896, Note_on_c, 0, 80, 100
2, 220988, Note_off_c, 0, 80, 100
2, 220992, Note_on_c, 0, 77, 100
2, 221084, Note_off_c, 0, 77, 100
2, 221088, Note_on_c, 0, 72, 100
2, 221180, Note_off_c, 0, 72, 100
2, 221184, Note_on_c, 0, 70, 100
2, 221276, Note_off_c, 0, 70, 100
2, 221280, Note_on_c, 0, 75, 100
2, 221372, Note_off_c, 0, 75, 100
2, 221376, Note_on_c, 0, 79, 100
2, 221468, Note_off_c, 0, 79, 100
2, 221472, Note_on_c, 0, 75, 100
2, 221564, Note_off_c, 0, 75, 100
2, 221568, Note_on_c, 0, 82, 100
2, 221660, Note_off_c, 0, 82, 100
2, 221664, Note_on_c, 0, 75, 100
2, 221756, Note_off_c, 0, 75, 100
2, 221760, Note_on_c, 0, 79, 100
2, 221852, Note_off_c, 0, 79, 100
2, 221856, Note_on_c, 0, 75, 100
2, 221948, Note_off_c, 0, 75, 100
2, 221952, Note_on_c, 0, 77, 100
2, 222016, Note_on_c, 0, 79, 100
2, 222076, Note_off_c, 0, 77, 100
2, 222080, Note_on_c, 0, 77, 100
2, 222140, Note_off_c, 0, 79, 100
2, 222144, Note_on_c, 0, 79, 100
2, 222204, Note_off_c, 0, 77, 100
2, 222208, Note_on_c, 0, 77, 100
2, 222268, Note_off_c, 0, 79, 100
2, 222272, Note_on_c, 0, 79, 100
2, 222332, Note_off_c, 0, 77, 100
2, 222336, Note_on_c, 0, 77, 100
2, 222396, Note_off_c, 0, 79, 100
2, 222400, Note_on_c, 0, 79, 100
2, 222460, Note_off_c, 0, 77, 100
2, 222464, Note_on_c, 0, 77, 100
2, 222524, Note_off_c, 0, 79, 100
2, 222528, Note_on_c, 0, 75, 100
2, 222588, Note_off_c, 0, 77, 100
2, 222620, Note_off_c, 0, 75, 100
2, 222624, Note_on_c, 0, 77, 100
2, 222716, Note_off_c, 0, 77, 100
2, 222720, Note_on_c, 0, 75, 100
2, 223100, Note_off_c, 0, 75, 100
2, 223296, Note_on_c, 0, 79, 100
2, 223388, Note_off_c, 0, 79, 100
2, 223392, Note_on_c, 0, 80, 100
2, 223484, Note_off_c, 0, 80, 100
2, 223488, Note_on_c, 0, 82, 100
2, 223676, Note_off_c, 0, 82, 100
2, 223680, Note_on_c, 0, 79, 100
2, 223772, Note_off_c, 0, 79, 100
2, 223776, Note_on_c, 0, 80, 100
2, 223868, Note_off_c, 0, 80, 100
2, 223872, Note_on_c, 0, 82, 100
2, 224060, Note_off_c, 0, 82, 100
2, 224064, Note_on_c, 0, 79, 100
2, 224156, Note_off_c, 0, 79, 100
2, 224160, Note_on_c, 0, 80, 100
2, 224252, Note_off_c, 0, 80, 100
2, 224256, Note_on_c, 0, 82, 100
2, 224636, Note_off_c, 0, 82, 100
2, 225216, Note_on_c, 0, 80, 70
2, 225404, Note_off_c, 0, 80, 100
2, 225408, Note_on_c, 0, 77, 70
2, 225596, Note_off_c, 0, 77, 100
2, 225600, Note_on_c, 0, 74, 70
2, 225788, Note_off_c, 0, 74, 100
2, 225792, Note_on_c, 0, 75, 70
2, 226172, Note_off_c, 0, 75, 100
2, 226368, Note_on_c, 0, 67, 100
2, 226460, Note_off_c, 0, 67, 100
2, 226464, Note_on_c, 0, 68, 100
2, 226556, Note_off_c, 0, 68, 100
2, 226560, Note_on_c, 0, 70, 100
2, 226748, Note_off_c, 0, 70, 100
2, 226752, Note_on_c, 0, 67, 100
2, 226844, Note_off_c, 0, 67, 100
2, 226848, Note_on_c, 0, 68, 100
2, 226940, Note_off_c, 0, 68, 100
2, 226944, Note_on_c, 0, 70, 100
2, 227132, Note_off_c, 0, 70, 100
2, 227136, Note_on_c, 0, 67, 100
2, 227228, Note_off_c, 0, 67, 100
2, 227232, Note_on_c, 0, 68, 100
2, 227324, Note_off_c, 0, 68, 100
2, 227328, Note_on_c, 0, 70, 100
2, 227708, Note_off_c, 0, 70, 100
2, 228288, Note_on_c, 0, 68, 70
2, 228476, Note_off_c, 0, 68, 100
2, 228480, Note_on_c, 0, 65, 70
2, 228668, Note_off_c, 0, 65, 100
2, 228672, Note_on_c, 0, 62, 70
2, 228860, Note_off_c, 0, 62, 100
2, 228864, Note_on_c, 0, 63, 70
2, 229244, Note_off_c, 0, 63, 100
2, 229824, Note_on_c, 0, 68, 60
2, 230012, Note_off_c, 0, 68, 100
2, 230016, Note_on_c, 0, 65, 60
2, 230204, Note_off_c, 0, 65, 100
2, 230208, Note_on_c, 0, 62, 60
2, 230396, Note_off_c, 0, 62, 100
2, 230400, Note_on_c, 0, 63, 60
2, 230780, Note_off_c, 0, 63, 100
2, 230784, Note_on_c, 0, 55, 60
2, 230784, Note_on_c, 0, 63, 60
2, 231164, Note_off_c, 0, 55, 100
2, 231164, Note_off_c, 0, 63, 100
2, 231168, Note_on_c, 0, 55, 60
2, 231168, Note_on_c, 0, 63, 60
2, 231932, Note_off_c, 0, 55, 100
2, 231932, Note_off_c, 0, 63, 100
2, 233472, Control_c, 0, 11, 0
2, 233568, Note_on_c, 0, 63, 1
2, 233660, Note_off_c, 0, 63, 100
2, 233660, End_track
3, 0, Start_track
3, 0, Title_t, "Piano Left"
3, 0, Control_c, 1, 0, 0
3, 0, Program_c, 1, 0
3, 0, Control_c, 1, 7, 100
3, 0, Control_c, 1, 10, 54
3, 0, Control_c, 1, 91, 127
3, 0, Key_signature, -3, "major"
3, 1536, Note_on_c, 1, 39, 70
3, 1536, Note_on_c, 1, 51, 70
3, 1724, Note_off_c, 1, 51, 100
3, 1728, Note_on_c, 1, 51, 70
3, 1916, Note_off_c, 1, 51, 100
3, 1920, Note_on_c, 1, 51, 100
3, 2108, Note_off_c, 1, 51, 100
3, 2112, Note_on_c, 1, 51, 100
3, 2300, Note_off_c, 1, 51, 100
3, 2304, Note_on_c, 1, 51, 100
3, 2492, Note_off_c, 1, 51, 100
3, 2496, Note_on_c, 1, 51, 100
3, 2684, Note_off_c, 1, 51, 100
3, 2688, Note_on_c, 1, 51, 100
3, 2876, Note_off_c, 1, 51, 100
3, 2880, Note_on_c, 1, 51, 85
3, 3068, Note_off_c, 1, 39, 100
3, 3068, Note_off_c, 1, 51, 100
3, 3072, Note_on_c, 1, 39, 70
3, 3072, Note_on_c, 1, 51, 70
3, 3260, Note_off_c, 1, 51, 100
3, 3264, Note_on_c, 1, 51, 70
3, 3452, Note_off_c, 1, 51, 100
3, 3456, Note_on_c, 1, 51, 100
3, 3644, Note_off_c, 1, 51, 100
3, 3648, Note_on_c, 1, 51, 100
3, 3836, Note_off_c, 1, 51, 100
3, 3840, Note_on_c, 1, 51, 100
3, 4028, Note_off_c, 1, 51, 100
3, 4032, Note_on_c, 1, 51, 100
3, 4220, Note_off_c, 1, 51, 100
3, 4224, Note_on_c, 1, 51, 100
3, 4412, Note_off_c, 1, 51, 100
3, 4416, Note_on_c, 1, 51, 85
3, 4604, Note_off_c, 1, 39, 100
3, 4604, Note_off_c, 1, 51, 100
3, 4608, Note_on_c, 1, 39, 70
3, 4608, Note_on_c, 1, 51, 70
3, 4796, Note_off_c, 1, 51, 100
3, 4800, Note_on_c, 1, 51, 70
3, 4988, Note_off_c, 1, 51, 100
3, 4992, Note_on_c, 1, 51, 100
3, 5180, Note_off_c, 1, 51, 100
3, 5184, Note_on_c, 1, 51, 100
3, 5372, Note_off_c, 1, 51, 100
3, 5376, Note_on_c, 1, 51, 100
3, 5564, Note_off_c, 1, 51, 100
3, 5568, Note_on_c, 1, 51, 100
3, 5756, Note_off_c, 1, 51, 100
3, 5760, Note_on_c, 1, 51, 100
3, 5948, Note_off_c, 1, 51, 100
3, 5952, Note_on_c, 1, 51, 100
3, 6140, Note_off_c, 1, 39, 100
3, 6140, Note_off_c, 1, 51, 100
3, 6144, Note_on_c, 1, 39, 100
3, 6144, Note_on_c, 1, 51, 100
3, 6332, Note_off_c, 1, 51, 100
3, 6336, Note_on_c, 1, 51, 100
3, 6524, Note_off_c, 1, 51, 100
3, 6528, Note_on_c, 1, 51, 100
3, 6716, Note_off_c, 1, 51, 100
3, 6720, Note_on_c, 1, 51, 100
3, 6908, Note_off_c, 1, 51, 100
3, 6912, Note_on_c, 1, 51, 100
3, 7100, Note_off_c, 1, 51, 100
3, 7104, Note_on_c, 1, 51, 100
3, 7292, Note_off_c, 1, 51, 100
3, 7296, Note_on_c, 1, 51, 100
3, 7484, Note_off_c, 1, 51, 100
3, 7488, Note_on_c, 1, 51, 100
3, 7676, Note_off_c, 1, 39, 100
3, 7676, Note_off_c, 1, 51, 100
3, 7680, Note_on_c, 1, 58, 100
3, 7772, Note_off_c, 1, 58, 100
3, 7776, Note_on_c, 1, 68, 100
3, 7868, Note_off_c, 1, 68, 100
3, 7872, Note_on_c, 1, 65, 100
3, 7964, Note_off_c, 1, 65, 100
3, 7968, Note_on_c, 1, 68, 100
3, 8060, Note_off_c, 1, 68, 100
3, 8064, Note_on_c, 1, 58, 100
3, 8156, Note_off_c, 1, 58, 100
3, 8160, Note_on_c, 1, 68, 100
3, 8252, Note_off_c, 1, 68, 100
3, 8256, Note_on_c, 1, 65, 100
3, 8348, Note_off_c, 1, 65, 100
3, 8352, Note_on_c, 1, 68, 100
3, 8444, Note_off_c, 1, 68, 100
3, 8448, Note_on_c, 1, 58, 100
3, 8540, Note_off_c, 1, 58, 100
3, 8544, Note_on_c, 1, 68, 100
3, 8636, Note_off_c, 1, 68, 100
3, 8640, Note_on_c, 1, 65, 100
3, 8732, Note_off_c, 1, 65, 100
3, 8736, Note_on_c, 1, 68, 100
3, 8828, Note_off_c, 1, 68, 100
3, 8832, Note_on_c, 1, 58, 100
3, 8924, Note_off_c, 1, 58, 100
3, 8928, Note_on_c, 1, 68, 100
3, 9020, Note_off_c, 1, 68, 100
3, 9024, Note_on_c, 1, 65, 100
3, 9116, Note_off_c, 1, 65, 100
3, 9120, Note_on_c, 1, 68, 100
3, 9212, Note_off_c, 1, 68, 100
3, 9216, Note_on_c, 1, 58, 100
3, 9308, Note_off_c, 1, 58, 100
3, 9312, Note_on_c, 1, 67, 100
3, 9404, Note_off_c, 1, 67, 100
3, 9408, Note_on_c, 1, 63, 100
3, 9500, Note_off_c, 1, 63, 100
3, 9504, Note_on_c, 1, 67, 100
3, 9596, Note_off_c, 1, 67, 100
3, 9600, Note_on_c, 1, 58, 100
3, 9692, Note_off_c, 1, 58, 100
3, 9696, Note_on_c, 1, 67, 100
3, 9788, Note_off_c, 1, 67, 100
3, 9792, Note_on_c, 1, 63, 100
3, 9884, Note_off_c, 1, 63, 100
3, 9888, Note_on_c, 1, 67, 100
3, 9980, Note_off_c, 1, 67, 100
3, 9984, Note_on_c, 1, 58, 100
3, 10076, Note_off_c, 1, 58, 100
3, 10080, Note_on_c, 1, 67, 100
3, 10172, Note_off_c, 1, 67, 100
3, 10176, Note_on_c, 1, 63, 100
3, 10268, Note_off_c, 1, 63, 100
3, 10272, Note_on_c, 1, 67, 100
3, 10364, Note_off_c, 1, 67, 100
3, 10368, Note_on_c, 1, 58, 100
3, 10460, Note_off_c, 1, 58, 100
3, 10464, Note_on_c, 1, 67, 100
3, 10556, Note_off_c, 1, 67, 100
3, 10560, Note_on_c, 1, 63, 100
3, 10652, Note_off_c, 1, 63, 100
3, 10656, Note_on_c, 1, 67, 100
3, 10748, Note_off_c, 1, 67, 100
3, 10752, Note_on_c, 1, 58, 100
3, 10844, Note_off_c, 1, 58, 100
3, 10848, Note_on_c, 1, 68, 100
3, 10940, Note_off_c, 1, 68, 100
3, 10944, Note_on_c, 1, 65, 100
3, 11036, Note_off_c, 1, 65, 100
3, 11040, Note_on_c, 1, 68, 100
3, 11132, Note_off_c, 1, 68, 100
3, 11136, Note_on_c, 1, 58, 100
3, 11228, Note_off_c, 1, 58, 100
3, 11232, Note_on_c, 1, 68, 100
3, 11324, Note_off_c, 1, 68, 100
3, 11328, Note_on_c, 1, 65, 100
3, 11420, Note_off_c, 1, 65, 100
3, 11424, Note_on_c, 1, 68, 100
3, 11516, Note_off_c, 1, 68, 100
3, 11520, Note_on_c, 1, 58, 100
3, 11612, Note_off_c, 1, 58, 100
3, 11616, Note_on_c, 1, 68, 100
3, 11708, Note_off_c, 1, 68, 100
3, 11712, Note_on_c, 1, 65, 100
3, 11804, Note_off_c, 1, 65, 100
3, 11808, Note_on_c, 1, 68, 100
3, 11900, Note_off_c, 1, 68, 100
3, 11904, Note_on_c, 1, 58, 100
3, 11996, Note_off_c, 1, 58, 100
3, 12000, Note_on_c, 1, 68, 100
3, 12092, Note_off_c, 1, 68, 100
3, 12096, Note_on_c, 1, 65, 100
3, 12188, Note_off_c, 1, 65, 100
3, 12192, Note_on_c, 1, 68, 100
3, 12284, Note_off_c, 1, 68, 100
3, 12288, Note_on_c, 1, 63, 120
3, 12476, Note_off_c, 1, 63, 100
3, 12480, Note_on_c, 1, 67, 120
3, 12572, Note_off_c, 1, 67, 100
3, 12576, Note_on_c, 1, 65, 120
3, 12668, Note_off_c, 1, 65, 100
3, 12672, Note_on_c, 1, 63, 120
3, 12860, Note_off_c, 1, 63, 100
3, 12864, Note_on_c, 1, 62, 120
3, 13052, Note_off_c, 1, 62, 100
3, 13056, Note_on_c, 1, 60, 120
3, 13244, Note_off_c, 1, 60, 100
3, 13248, Note_on_c, 1, 63, 120
3, 13340, Note_off_c, 1, 63, 100
3, 13344, Note_on_c, 1, 62, 120
3, 13436, Note_off_c, 1, 62, 100
3, 13440, Note_on_c, 1, 60, 120
3, 13628, Note_off_c, 1, 60, 100
3, 13632, Note_on_c, 1, 58, 120
3, 13820, Note_off_c, 1, 58, 100
3, 13824, Note_on_c, 1, 56, 120
3, 14012, Note_off_c, 1, 56, 100
3, 14016, Note_on_c, 1, 60, 120
3, 14108, Note_off_c, 1, 60, 100
3, 14112, Note_on_c, 1, 58, 120
3, 14204, Note_off_c, 1, 58, 100
3, 14208, Note_on_c, 1, 56, 120
3, 14396, Note_off_c, 1, 56, 100
3, 14400, Note_on_c, 1, 55, 120
3, 14588, Note_off_c, 1, 55, 100
3, 14592, Note_on_c, 1, 53, 120
3, 14780, Note_off_c, 1, 53, 100
3, 14784, Note_on_c, 1, 56, 120
3, 14876, Note_off_c, 1, 56, 100
3, 14880, Note_on_c, 1, 55, 120
3, 14972, Note_off_c, 1, 55, 100
3, 14976, Note_on_c, 1, 53, 120
3, 15164, Note_off_c, 1, 53, 100
3, 15168, Note_on_c, 1, 51, 120
3, 15356, Note_off_c, 1, 51, 100
3, 15360, Note_on_c, 1, 50, 120
3, 15408, Note_on_c, 1, 58, 120
3, 15452, Note_off_c, 1, 50, 100
3, 15548, Note_off_c, 1, 58, 100
3, 15552, Note_on_c, 1, 50, 120
3, 15644, Note_off_c, 1, 50, 100
3, 15648, Note_on_c, 1, 51, 120
3, 15740, Note_off_c, 1, 51, 100
3, 15744, Note_on_c, 1, 53, 120
3, 15836, Note_off_c, 1, 53, 100
3, 15840, Note_on_c, 1, 51, 120
3, 15932, Note_off_c, 1, 51, 100
3, 15936, Note_on_c, 1, 50, 120
3, 16028, Note_off_c, 1, 50, 100
3, 16032, Note_on_c, 1, 48, 120
3, 16124, Note_off_c, 1, 48, 100
3, 16128, Note_on_c, 1, 46, 120
3, 16892, Note_off_c, 1, 46, 100
3, 16896, Note_on_c, 1, 58, 70
3, 17084, Note_off_c, 1, 58, 100
3, 17088, Note_on_c, 1, 65, 70
3, 17276, Note_off_c, 1, 65, 100
3, 17280, Note_on_c, 1, 62, 70
3, 17468, Note_off_c, 1, 62, 100
3, 17472, Note_on_c, 1, 65, 70
3, 17660, Note_off_c, 1, 65, 100
3, 17664, Note_on_c, 1, 58, 70
3, 17852, Note_off_c, 1, 58, 100
3, 17856, Note_on_c, 1, 67, 70
3, 18044, Note_off_c, 1, 67, 100
3, 18048, Note_on_c, 1, 65, 70
3, 18236, Note_off_c, 1, 65, 100
3, 18240, Note_on_c, 1, 63, 70
3, 18428, Note_off_c, 1, 63, 100
3, 18432, Note_on_c, 1, 58, 70
3, 18620, Note_off_c, 1, 58, 100
3, 18624, Note_on_c, 1, 65, 70
3, 18812, Note_off_c, 1, 65, 100
3, 18816, Note_on_c, 1, 62, 70
3, 19004, Note_off_c, 1, 62, 100
3, 19008, Note_on_c, 1, 65, 70
3, 19196, Note_off_c, 1, 65, 100
3, 19200, Note_on_c, 1, 58, 70
3, 19388, Note_off_c, 1, 58, 100
3, 19392, Note_on_c, 1, 67, 70
3, 19580, Note_off_c, 1, 67, 100
3, 19584, Note_on_c, 1, 65, 70
3, 19772, Note_off_c, 1, 65, 100
3, 19776, Note_on_c, 1, 63, 70
3, 19964, Note_off_c, 1, 63, 100
3, 19968, Note_on_c, 1, 58, 70
3, 20156, Note_off_c, 1, 58, 100
3, 20160, Note_on_c, 1, 65, 70
3, 20348, Note_off_c, 1, 65, 100
3, 20352, Note_on_c, 1, 62, 70
3, 20540, Note_off_c, 1, 62, 100
3, 20544, Note_on_c, 1, 65, 70
3, 20732, Note_off_c, 1, 65, 100
3, 20736, Note_on_c, 1, 58, 70
3, 20924, Note_off_c, 1, 58, 100
3, 20928, Note_on_c, 1, 65, 70
3, 21116, Note_off_c, 1, 65, 100
3, 21120, Note_on_c, 1, 62, 70
3, 21308, Note_off_c, 1, 62, 100
3, 21312, Note_on_c, 1, 65, 70
3, 21500, Note_off_c, 1, 65, 100
3, 21504, Note_on_c, 1, 57, 100
3, 21692, Note_off_c, 1, 57, 100
3, 21696, Note_on_c, 1, 65, 100
3, 21884, Note_off_c, 1, 65, 100
3, 21888, Note_on_c, 1, 60, 100
3, 22076, Note_off_c, 1, 60, 100
3, 22080, Note_on_c, 1, 65, 100
3, 22268, Note_off_c, 1, 65, 100
3, 22272, Note_on_c, 1, 57, 100
3, 22460, Note_off_c, 1, 57, 100
3, 22464, Note_on_c, 1, 65, 100
3, 22652, Note_off_c, 1, 65, 100
3, 22656, Note_on_c, 1, 60, 100
3, 22844, Note_off_c, 1, 60, 100
3, 22848, Note_on_c, 1, 65, 100
3, 23036, Note_off_c, 1, 65, 100
3, 23040, Note_on_c, 1, 46, 120
3, 23804, Note_off_c, 1, 46, 100
3, 23808, Note_on_c, 1, 58, 120
3, 23808, Note_on_c, 1, 50, 120
3, 24572, Note_off_c, 1, 58, 100
3, 24572, Note_off_c, 1, 50, 100
3, 24576, Note_on_c, 1, 51, 120
3, 24668, Note_off_c, 1, 51, 100
3, 24672, Note_on_c, 1, 50, 120
3, 24764, Note_off_c, 1, 50, 100
3, 24768, Note_on_c, 1, 51, 120
3, 24860, Note_off_c, 1, 51, 100
3, 24864, Note_on_c, 1, 50, 120
3, 24956, Note_off_c, 1, 50, 100
3, 24960, Note_on_c, 1, 51, 120
3, 25052, Note_off_c, 1, 51, 100
3, 25056, Note_on_c, 1, 50, 120
3, 25148, Note_off_c, 1, 50, 100
3, 25152, Note_on_c, 1, 51, 120
3, 25244, Note_off_c, 1, 51, 100
3, 25248, Note_on_c, 1, 50, 120
3, 25340, Note_off_c, 1, 50, 100
3, 25344, Note_on_c, 1, 51, 120
3, 25724, Note_off_c, 1, 51, 100
3, 26112, Note_on_c, 1, 51, 120
3, 26112, Note_on_c, 1, 55, 120
3, 26112, Note_on_c, 1, 60, 120
3, 26876, Note_off_c, 1, 51, 100
3, 26876, Note_off_c, 1, 55, 100
3, 26876, Note_off_c, 1, 60, 100
3, 26880, Note_on_c, 1, 52, 120
3, 26880, Note_on_c, 1, 60, 120
3, 27644, Note_off_c, 1, 52, 100
3, 27644, Note_off_c, 1, 60, 100
3, 27648, Note_on_c, 1, 53, 120
3, 27740, Note_off_c, 1, 53, 100
3, 27744, Note_on_c, 1, 52, 120
3, 27836, Note_off_c, 1, 52, 100
3, 27840, Note_on_c, 1, 53, 120
3, 27932, Note_off_c, 1, 53, 100
3, 27936, Note_on_c, 1, 52, 120
3, 28028, Note_off_c, 1, 52, 100
3, 28032, Note_on_c, 1, 53, 120
3, 28124, Note_off_c, 1, 53, 100
3, 28128, Note_on_c, 1, 52, 120
3, 28220, Note_off_c, 1, 52, 100
3, 28224, Note_on_c, 1, 53, 120
3, 28316, Note_off_c, 1, 53, 100
3, 28320, Note_on_c, 1, 52, 120
3, 28412, Note_off_c, 1, 52, 100
3, 28416, Note_on_c, 1, 53, 120
3, 28796, Note_off_c, 1, 53, 100
3, 29184, Note_on_c, 1, 41, 120
3, 29184, Note_on_c, 1, 45, 120
3, 29184, Note_on_c, 1, 48, 120
3, 29184, Note_on_c, 1, 53, 120
3, 30716, Note_off_c, 1, 41, 100
3, 30716, Note_off_c, 1, 45, 100
3, 30716, Note_off_c, 1, 48, 100
3, 30716, Note_off_c, 1, 53, 100
3, 30720, Note_on_c, 1, 34, 120
3, 30720, Note_on_c, 1, 46, 120
3, 32252, Note_off_c, 1, 34, 100
3, 32252, Note_off_c, 1, 46, 100
3, 32448, Note_on_c, 1, 46, 120
3, 32540, Note_off_c, 1, 46, 100
3, 32544, Note_on_c, 1, 50, 120
3, 32636, Note_off_c, 1, 50, 100
3, 32640, Note_on_c, 1, 48, 120
3, 32732, Note_off_c, 1, 48, 100
3, 32736, Note_on_c, 1, 51, 120
3, 32828, Note_off_c, 1, 51, 100
3, 32832, Note_on_c, 1, 50, 120
3, 32924, Note_off_c, 1, 50, 100
3, 32928, Note_on_c, 1, 53, 120
3, 33020, Note_off_c, 1, 53, 100
3, 33024, Note_on_c, 1, 51, 120
3, 33116, Note_off_c, 1, 51, 100
3, 33120, Note_on_c, 1, 55, 120
3, 33212, Note_off_c, 1, 55, 100
3, 33216, Note_on_c, 1, 53, 120
3, 33308, Note_off_c, 1, 53, 100
3, 33312, Note_on_c, 1, 57, 120
3, 33404, Note_off_c, 1, 57, 100
3, 33408, Note_on_c, 1, 55, 120
3, 33500, Note_off_c, 1, 55, 100
3, 33504, Note_on_c, 1, 58, 120
3, 33596, Note_off_c, 1, 58, 100
3, 33600, Note_on_c, 1, 57, 120
3, 33692, Note_off_c, 1, 57, 100
3, 33696, Note_on_c, 1, 60, 120
3, 33788, Note_off_c, 1, 60, 100
3, 33792, Note_on_c, 1, 50, 90
3, 33792, Note_on_c, 1, 58, 90
3, 33980, Note_off_c, 1, 50, 100
3, 33980, Note_off_c, 1, 58, 100
3, 33984, Note_on_c, 1, 50, 90
3, 33984, Note_on_c, 1, 58, 90
3, 34172, Note_off_c, 1, 50, 100
3, 34172, Note_off_c, 1, 58, 100
3, 34176, Note_on_c, 1, 50, 90
3, 34176, Note_on_c, 1, 58, 90
3, 34364, Note_off_c, 1, 50, 100
3, 34364, Note_off_c, 1, 58, 100
3, 34368, Note_on_c, 1, 50, 90
3, 34368, Note_on_c, 1, 58, 90
3, 34556, Note_off_c, 1, 50, 100
3, 34556, Note_off_c, 1, 58, 100
3, 34560, Note_on_c, 1, 50, 90
3, 34560, Note_on_c, 1, 58, 90
3, 34748, Note_off_c, 1, 50, 100
3, 34748, Note_off_c, 1, 58, 100
3, 34752, Note_on_c, 1, 50, 90
3, 34752, Note_on_c, 1, 58, 90
3, 34940, Note_off_c, 1, 50, 100
3, 34940, Note_off_c, 1, 58, 100
3, 34944, Note_on_c, 1, 50, 90
3, 34944, Note_on_c, 1, 58, 90
3, 35132, Note_off_c, 1, 50, 100
3, 35132, Note_off_c, 1, 58, 100
3, 35136, Note_on_c, 1, 50, 90
3, 35136, Note_on_c, 1, 58, 90
3, 35324, Note_off_c, 1, 50, 100
3, 35324, Note_off_c, 1, 58, 100
3, 35328, Note_on_c, 1, 51, 90
3, 35328, Note_on_c, 1, 58, 90
3, 35516, Note_off_c, 1, 51, 100
3, 35516, Note_off_c, 1, 58, 100
3, 35520, Note_on_c, 1, 51, 90
3, 35520, Note_on_c, 1, 58, 90
3, 35708, Note_off_c, 1, 51, 100
3, 35708, Note_off_c, 1, 58, 100
3, 35712, Note_on_c, 1, 51, 90
3, 35712, Note_on_c, 1, 58, 90
3, 35900, Note_off_c, 1, 51, 100
3, 35900, Note_off_c, 1, 58, 100
3, 35904, Note_on_c, 1, 51, 90
3, 35904, Note_on_c, 1, 58, 90
3, 36092, Note_off_c, 1, 51, 100
3, 36092, Note_off_c, 1, 58, 100
3, 36096, Note_on_c, 1, 51, 90
3, 36096, Note_on_c, 1, 58, 90
3, 36284, Note_off_c, 1, 51, 100
3, 36284, Note_off_c, 1, 58, 100
3, 36288, Note_on_c, 1, 51, 90
3, 36288, Note_on_c, 1, 58, 90
3, 36476, Note_off_c, 1, 51, 100
3, 36476, Note_off_c, 1, 58, 100
3, 36480, Note_on_c, 1, 51, 90
3, 36480, Note_on_c, 1, 58, 90
3, 36668, Note_off_c, 1, 51, 100
3, 36668, Note_off_c, 1, 58, 100
3, 36672, Note_on_c, 1, 51, 90
3, 36672, Note_on_c, 1, 58, 90
3, 36860, Note_off_c, 1, 51, 100
3, 36860, Note_off_c, 1, 58, 100
3, 36864, Note_on_c, 1, 53, 90
3, 36864, Note_on_c, 1, 58, 90
3, 37052, Note_off_c, 1, 53, 100
3, 37052, Note_off_c, 1, 58, 100
3, 37056, Note_on_c, 1, 53, 90
3, 37056, Note_on_c, 1, 58, 90
3, 37244, Note_off_c, 1, 53, 100
3, 37244, Note_off_c, 1, 58, 100
3, 37248, Note_on_c, 1, 53, 90
3, 37248, Note_on_c, 1, 58, 90
3, 37436, Note_off_c, 1, 53, 100
3, 37436, Note_off_c, 1, 58, 100
3, 37440, Note_on_c, 1, 53, 90
3, 37440, Note_on_c, 1, 58, 90
3, 37628, Note_off_c, 1, 53, 100
3, 37628, Note_off_c, 1, 58, 100
3, 37632, Note_on_c, 1, 53, 90
3, 37632, Note_on_c, 1, 57, 90
3, 37820, Note_off_c, 1, 53, 100
3, 37820, Note_off_c, 1, 57, 100
3, 37824, Note_on_c, 1, 53, 90
3, 37824, Note_on_c, 1, 57, 90
3, 38012, Note_off_c, 1, 53, 100
3, 38012, Note_off_c, 1, 57, 100
3, 38016, Note_on_c, 1, 53, 90
3, 38016, Note_on_c, 1, 57, 90
3, 38204, Note_off_c, 1, 53, 100
3, 38204, Note_off_c, 1, 57, 100
3, 38208, Note_on_c, 1, 53, 90
3, 38208, Note_on_c, 1, 57, 90
3, 38396, Note_off_c, 1, 53, 100
3, 38396, Note_off_c, 1, 57, 100
3, 38400, Note_on_c, 1, 46, 90
3, 38400, Note_on_c, 1, 58, 90
3, 38780, Note_off_c, 1, 46, 100
3, 38780, Note_off_c, 1, 58, 100
3, 39168, Note_on_c, 1, 65, 100
3, 39168, Note_on_c, 1, 62, 100
3, 39548, Note_off_c, 1, 65, 100
3, 39548, Note_off_c, 1, 62, 100
3, 39552, Note_on_c, 1, 63, 100
3, 39552, Note_on_c, 1, 60, 100
3, 39932, Note_off_c, 1, 63, 100
3, 39932, Note_off_c, 1, 60, 100
3, 39936, Note_on_c, 1, 62, 100
3, 39936, Note_on_c, 1, 58, 100
3, 40316, Note_off_c, 1, 62, 100
3, 40316, Note_off_c, 1, 58, 100
3, 40704, Note_on_c, 1, 53, 70
3, 40704, Note_on_c, 1, 60, 70
3, 41084, Note_off_c, 1, 60, 100
3, 41088, Note_on_c, 1, 63, 70
3, 41468, Note_off_c, 1, 53, 100
3, 41468, Note_off_c, 1, 63, 100
3, 41472, Note_on_c, 1, 58, 70
3, 41472, Note_on_c, 1, 62, 70
3, 41852, Note_off_c, 1, 58, 100
3, 41852, Note_off_c, 1, 62, 100
3, 42240, Note_on_c, 1, 65, 100
3, 42240, Note_on_c, 1, 62, 100
3, 42620, Note_off_c, 1, 65, 100
3, 42620, Note_off_c, 1, 62, 100
3, 42624, Note_on_c, 1, 63, 100
3, 42624, Note_on_c, 1, 60, 100
3, 43004, Note_off_c, 1, 63, 100
3, 43004, Note_off_c, 1, 60, 100
3, 43008, Note_on_c, 1, 62, 100
3, 43008, Note_on_c, 1, 58, 100
3, 43388, Note_off_c, 1, 62, 100
3, 43388, Note_off_c, 1, 58, 100
3, 43776, Note_on_c, 1, 53, 70
3, 43776, Note_on_c, 1, 60, 70
3, 44156, Note_off_c, 1, 60, 100
3, 44160, Note_on_c, 1, 63, 70
3, 44540, Note_off_c, 1, 53, 100
3, 44540, Note_off_c, 1, 63, 100
3, 44544, Note_on_c, 1, 58, 70
3, 44544, Note_on_c, 1, 62, 70
3, 44924, Note_off_c, 1, 58, 100
3, 44924, Note_off_c, 1, 62, 100
3, 45312, Note_on_c, 1, 53, 60
3, 45312, Note_on_c, 1, 60, 60
3, 45692, Note_off_c, 1, 60, 100
3, 45696, Note_on_c, 1, 63, 60
3, 46076, Note_off_c, 1, 53, 100
3, 46076, Note_off_c, 1, 63, 100
3, 46080, Note_on_c, 1, 46, 60
3, 46080, Note_on_c, 1, 58, 60
3, 46460, Note_off_c, 1, 46, 100
3, 46460, Note_off_c, 1, 58, 100
3, 46464, Note_on_c, 1, 46, 60
3, 46464, Note_on_c, 1, 58, 60
3, 46844, Note_off_c, 1, 46, 100
3, 46844, Note_off_c, 1, 58, 100
3, 46848, Note_on_c, 1, 46, 60
3, 46848, Note_on_c, 1, 58, 60
3, 47228, Note_off_c, 1, 46, 100
3, 47228, Note_off_c, 1, 58, 100
3, 47616, Note_on_c, 1, 39, 70
3, 47616, Note_on_c, 1, 51, 70
3, 47804, Note_off_c, 1, 51, 100
3, 47808, Note_on_c, 1, 51, 70
3, 47996, Note_off_c, 1, 51, 100
3, 48000, Note_on_c, 1, 51, 100
3, 48188, Note_off_c, 1, 51, 100
3, 48192, Note_on_c, 1, 51, 100
3, 48380, Note_off_c, 1, 51, 100
3, 48384, Note_on_c, 1, 51, 100
3, 48572, Note_off_c, 1, 51, 100
3, 48576, Note_on_c, 1, 51, 100
3, 48764, Note_off_c, 1, 51, 100
3, 48768, Note_on_c, 1, 51, 100
3, 48956, Note_off_c, 1, 51, 100
3, 48960, Note_on_c, 1, 51, 85
3, 49148, Note_off_c, 1, 39, 100
3, 49148, Note_off_c, 1, 51, 100
3, 49152, Note_on_c, 1, 39, 70
3, 49152, Note_on_c, 1, 51, 70
3, 49340, Note_off_c, 1, 51, 100
3, 49344, Note_on_c, 1, 51, 70
3, 49532, Note_off_c, 1, 51, 100
3, 49536, Note_on_c, 1, 51, 100
3, 49724, Note_off_c, 1, 51, 100
3, 49728, Note_on_c, 1, 51, 100
3, 49916, Note_off_c, 1, 51, 100
3, 49920, Note_on_c, 1, 51, 100
3, 50108, Note_off_c, 1, 51, 100
3, 50112, Note_on_c, 1, 51, 100
3, 50300, Note_off_c, 1, 51, 100
3, 50304, Note_on_c, 1, 51, 100
3, 50492, Note_off_c, 1, 51, 100
3, 50496, Note_on_c, 1, 51, 85
3, 50684, Note_off_c, 1, 39, 100
3, 50684, Note_off_c, 1, 51, 100
3, 50688, Note_on_c, 1, 39, 70
3, 50688, Note_on_c, 1, 51, 70
3, 50876, Note_off_c, 1, 51, 100
3, 50880, Note_on_c, 1, 51, 70
3, 51068, Note_off_c, 1, 51, 100
3, 51072, Note_on_c, 1, 51, 100
3, 51260, Note_off_c, 1, 51, 100
3, 51264, Note_on_c, 1, 51, 100
3, 51452, Note_off_c, 1, 51, 100
3, 51456, Note_on_c, 1, 51, 100
3, 51644, Note_off_c, 1, 51, 100
3, 51648, Note_on_c, 1, 51, 100
3, 51836, Note_off_c, 1, 51, 100
3, 51840, Note_on_c, 1, 51, 100
3, 52028, Note_off_c, 1, 51, 100
3, 52032, Note_on_c, 1, 51, 100
3, 52220, Note_off_c, 1, 39, 100
3, 52220, Note_off_c, 1, 51, 100
3, 52224, Note_on_c, 1, 39, 100
3, 52224, Note_on_c, 1, 51, 100
3, 52412, Note_off_c, 1, 51, 100
3, 52416, Note_on_c, 1, 51, 100
3, 52604, Note_off_c, 1, 51, 100
3, 52608, Note_on_c, 1, 51, 100
3, 52796, Note_off_c, 1, 51, 100
3, 52800, Note_on_c, 1, 51, 100
3, 52988, Note_off_c, 1, 51, 100
3, 52992, Note_on_c, 1, 51, 100
3, 53180, Note_off_c, 1, 51, 100
3, 53184, Note_on_c, 1, 51, 100
3, 53372, Note_off_c, 1, 51, 100
3, 53376, Note_on_c, 1, 51, 100
3, 53564, Note_off_c, 1, 51, 100
3, 53568, Note_on_c, 1, 51, 100
3, 53756, Note_off_c, 1, 39, 100
3, 53756, Note_off_c, 1, 51, 100
3, 53760, Note_on_c, 1, 58, 100
3, 53852, Note_off_c, 1, 58, 100
3, 53856, Note_on_c, 1, 68, 100
3, 53948, Note_off_c, 1, 68, 100
3, 53952, Note_on_c, 1, 65, 100
3, 54044, Note_off_c, 1, 65, 100
3, 54048, Note_on_c, 1, 68, 100
3, 54140, Note_off_c, 1, 68, 100
3, 54144, Note_on_c, 1, 58, 100
3, 54236, Note_off_c, 1, 58, 100
3, 54240, Note_on_c, 1, 68, 100
3, 54332, Note_off_c, 1, 68, 100
3, 54336, Note_on_c, 1, 65, 100
3, 54428, Note_off_c, 1, 65, 100
3, 54432, Note_on_c, 1, 68, 100
3, 54524, Note_off_c, 1, 68, 100
3, 54528, Note_on_c, 1, 58, 100
3, 54620, Note_off_c, 1, 58, 100
3, 54624, Note_on_c, 1, 68, 100
3, 54716, Note_off_c, 1, 68, 100
3, 54720, Note_on_c, 1, 65, 100
3, 54812, Note_off_c, 1, 65, 100
3, 54816, Note_on_c, 1, 68, 100
3, 54908, Note_off_c, 1, 68, 100
3, 54912, Note_on_c, 1, 58, 100
3, 55004, Note_off_c, 1, 58, 100
3, 55008, Note_on_c, 1, 68, 100
3, 55100, Note_off_c, 1, 68, 100
3, 55104, Note_on_c, 1, 65, 100
3, 55196, Note_off_c, 1, 65, 100
3, 55200, Note_on_c, 1, 68, 100
3, 55292, Note_off_c, 1, 68, 100
3, 55296, Note_on_c, 1, 58, 100
3, 55388, Note_off_c, 1, 58, 100
3, 55392, Note_on_c, 1, 67, 100
3, 55484, Note_off_c, 1, 67, 100
3, 55488, Note_on_c, 1, 63, 100
3, 55580, Note_off_c, 1, 63, 100
3, 55584, Note_on_c, 1, 67, 100
3, 55676, Note_off_c, 1, 67, 100
3, 55680, Note_on_c, 1, 58, 100
3, 55772, Note_off_c, 1, 58, 100
3, 55776, Note_on_c, 1, 67, 100
3, 55868, Note_off_c, 1, 67, 100
3, 55872, Note_on_c, 1, 63, 100
3, 55964, Note_off_c, 1, 63, 100
3, 55968, Note_on_c, 1, 67, 100
3, 56060, Note_off_c, 1, 67, 100
3, 56064, Note_on_c, 1, 58, 100
3, 56156, Note_off_c, 1, 58, 100
3, 56160, Note_on_c, 1, 67, 100
3, 56252, Note_off_c, 1, 67, 100
3, 56256, Note_on_c, 1, 63, 100
3, 56348, Note_off_c, 1, 63, 100
3, 56352, Note_on_c, 1, 67, 100
3, 56444, Note_off_c, 1, 67, 100
3, 56448, Note_on_c, 1, 58, 100
3, 56540, Note_off_c, 1, 58, 100
3, 56544, Note_on_c, 1, 67, 100
3, 56636, Note_off_c, 1, 67, 100
3, 56640, Note_on_c, 1, 63, 100
3, 56732, Note_off_c, 1, 63, 100
3, 56736, Note_on_c, 1, 67, 100
3, 56828, Note_off_c, 1, 67, 100
3, 56832, Note_on_c, 1, 58, 100
3, 56924, Note_off_c, 1, 58, 100
3, 56928, Note_on_c, 1, 68, 100
3, 57020, Note_off_c, 1, 68, 100
3, 57024, Note_on_c, 1, 65, 100
3, 57116, Note_off_c, 1, 65, 100
3, 57120, Note_on_c, 1, 68, 100
3, 57212, Note_off_c, 1, 68, 100
3, 57216, Note_on_c, 1, 58, 100
3, 57308, Note_off_c, 1, 58, 100
3, 57312, Note_on_c, 1, 68, 100
3, 57404, Note_off_c, 1, 68, 100
3, 57408, Note_on_c, 1, 65, 100
3, 57500, Note_off_c, 1, 65, 100
3, 57504, Note_on_c, 1, 68, 100
3, 57596, Note_off_c, 1, 68, 100
3, 57600, Note_on_c, 1, 58, 100
3, 57692, Note_off_c, 1, 58, 100
3, 57696, Note_on_c, 1, 68, 100
3, 57788, Note_off_c, 1, 68, 100
3, 57792, Note_on_c, 1, 65, 100
3, 57884, Note_off_c, 1, 65, 100
3, 57888, Note_on_c, 1, 68, 100
3, 57980, Note_off_c, 1, 68, 100
3, 57984, Note_on_c, 1, 58, 100
3, 58076, Note_off_c, 1, 58, 100
3, 58080, Note_on_c, 1, 68, 100
3, 58172, Note_off_c, 1, 68, 100
3, 58176, Note_on_c, 1, 65, 100
3, 58268, Note_off_c, 1, 65, 100
3, 58272, Note_on_c, 1, 68, 100
3, 58364, Note_off_c, 1, 68, 100
3, 58368, Note_on_c, 1, 63, 120
3, 58556, Note_off_c, 1, 63, 100
3, 58560, Note_on_c, 1, 67, 120
3, 58652, Note_off_c, 1, 67, 100
3, 58656, Note_on_c, 1, 65, 120
3, 58748, Note_off_c, 1, 65, 100
3, 58752, Note_on_c, 1, 63, 120
3, 58940, Note_off_c, 1, 63, 100
3, 58944, Note_on_c, 1, 62, 120
3, 59132, Note_off_c, 1, 62, 100
3, 59136, Note_on_c, 1, 60, 120
3, 59324, Note_off_c, 1, 60, 100
3, 59328, Note_on_c, 1, 63, 120
3, 59420, Note_off_c, 1, 63, 100
3, 59424, Note_on_c, 1, 62, 120
3, 59516, Note_off_c, 1, 62, 100
3, 59520, Note_on_c, 1, 60, 120
3, 59708, Note_off_c, 1, 60, 100
3, 59712, Note_on_c, 1, 58, 120
3, 59900, Note_off_c, 1, 58, 100
3, 59904, Note_on_c, 1, 56, 120
3, 60092, Note_off_c, 1, 56, 100
3, 60096, Note_on_c, 1, 60, 120
3, 60188, Note_off_c, 1, 60, 100
3, 60192, Note_on_c, 1, 58, 120
3, 60284, Note_off_c, 1, 58, 100
3, 60288, Note_on_c, 1, 56, 120
3, 60476, Note_off_c, 1, 56, 100
3, 60480, Note_on_c, 1, 55, 120
3, 60668, Note_off_c, 1, 55, 100
3, 60672, Note_on_c, 1, 53, 120
3, 60860, Note_off_c, 1, 53, 100
3, 60864, Note_on_c, 1, 56, 120
3, 60956, Note_off_c, 1, 56, 100
3, 60960, Note_on_c, 1, 55, 120
3, 61052, Note_off_c, 1, 55, 100
3, 61056, Note_on_c, 1, 53, 120
3, 61244, Note_off_c, 1, 53, 100
3, 61248, Note_on_c, 1, 51, 120
3, 61436, Note_off_c, 1, 51, 100
3, 61440, Note_on_c, 1, 50, 120
3, 61488, Note_on_c, 1, 58, 120
3, 61532, Note_off_c, 1, 50, 100
3, 61628, Note_off_c, 1, 58, 100
3, 61632, Note_on_c, 1, 50, 120
3, 61724, Note_off_c, 1, 50, 100
3, 61728, Note_on_c, 1, 51, 120
3, 61820, Note_off_c, 1, 51, 100
3, 61824, Note_on_c, 1, 53, 120
3, 61916, Note_off_c, 1, 53, 100
3, 61920, Note_on_c, 1, 51, 120
3, 62012, Note_off_c, 1, 51, 100
3, 62016, Note_on_c, 1, 50, 120
3, 62108, Note_off_c, 1, 50, 100
3, 62112, Note_on_c, 1, 48, 120
3, 62204, Note_off_c, 1, 48, 100
3, 62208, Note_on_c, 1, 46, 120
3, 62972, Note_off_c, 1, 46, 100
3, 62976, Note_on_c, 1, 58, 70
3, 63164, Note_off_c, 1, 58, 100
3, 63168, Note_on_c, 1, 65, 70
3, 63356, Note_off_c, 1, 65, 100
3, 63360, Note_on_c, 1, 62, 70
3, 63548, Note_off_c, 1, 62, 100
3, 63552, Note_on_c, 1, 65, 70
3, 63740, Note_off_c, 1, 65, 100
3, 63744, Note_on_c, 1, 58, 70
3, 63932, Note_off_c, 1, 58, 100
3, 63936, Note_on_c, 1, 67, 70
3, 64124, Note_off_c, 1, 67, 100
3, 64128, Note_on_c, 1, 65, 70
3, 64316, Note_off_c, 1, 65, 100
3, 64320, Note_on_c, 1, 63, 70
3, 64508, Note_off_c, 1, 63, 100
3, 64512, Note_on_c, 1, 58, 70
3, 64700, Note_off_c, 1, 58, 100
3, 64704, Note_on_c, 1, 65, 70
3, 64892, Note_off_c, 1, 65, 100
3, 64896, Note_on_c, 1, 62, 70
3, 65084, Note_off_c, 1, 62, 100
3, 65088, Note_on_c, 1, 65, 70
3, 65276, Note_off_c, 1, 65, 100
3, 65280, Note_on_c, 1, 58, 70
3, 65468, Note_off_c, 1, 58, 100
3, 65472, Note_on_c, 1, 67, 70
3, 65660, Note_off_c, 1, 67, 100
3, 65664, Note_on_c, 1, 65, 70
3, 65852, Note_off_c, 1, 65, 100
3, 65856, Note_on_c, 1, 63, 70
3, 66044, Note_off_c, 1, 63, 100
3, 66048, Note_on_c, 1, 58, 70
3, 66236, Note_off_c, 1, 58, 100
3, 66240, Note_on_c, 1, 65, 70
3, 66428, Note_off_c, 1, 65, 100
3, 66432, Note_on_c, 1, 62, 70
3, 66620, Note_off_c, 1, 62, 100
3, 66624, Note_on_c, 1, 65, 70
3, 66812, Note_off_c, 1, 65, 100
3, 66816, Note_on_c, 1, 58, 70
3, 67004, Note_off_c, 1, 58, 100
3, 67008, Note_on_c, 1, 65, 70
3, 67196, Note_off_c, 1, 65, 100
3, 67200, Note_on_c, 1, 62, 70
3, 67388, Note_off_c, 1, 62, 100
3, 67392, Note_on_c, 1, 65, 70
3, 67580, Note_off_c, 1, 65, 100
3, 67584, Note_on_c, 1, 57, 100
3, 67772, Note_off_c, 1, 57, 100
3, 67776, Note_on_c, 1, 65, 100
3, 67964, Note_off_c, 1, 65, 100
3, 67968, Note_on_c, 1, 60, 100
3, 68156, Note_off_c, 1, 60, 100
3, 68160, Note_on_c, 1, 65, 100
3, 68348, Note_off_c, 1, 65, 100
3, 68352, Note_on_c, 1, 57, 100
3, 68540, Note_off_c, 1, 57, 100
3, 68544, Note_on_c, 1, 65, 100
3, 68732, Note_off_c, 1, 65, 100
3, 68736, Note_on_c, 1, 60, 100
3, 68924, Note_off_c, 1, 60, 100
3, 68928, Note_on_c, 1, 65, 100
3, 69116, Note_off_c, 1, 65, 100
3, 69120, Note_on_c, 1, 46, 120
3, 69884, Note_off_c, 1, 46, 100
3, 69888, Note_on_c, 1, 58, 120
3, 69888, Note_on_c, 1, 50, 120
3, 70652, Note_off_c, 1, 58, 100
3, 70652, Note_off_c, 1, 50, 100
3, 70656, Note_on_c, 1, 51, 120
3, 70748, Note_off_c, 1, 51, 100
3, 70752, Note_on_c, 1, 50, 120
3, 70844, Note_off_c, 1, 50, 100
3, 70848, Note_on_c, 1, 51, 120
3, 70940, Note_off_c, 1, 51, 100
3, 70944, Note_on_c, 1, 50, 120
3, 71036, Note_off_c, 1, 50, 100
3, 71040, Note_on_c, 1, 51, 120
3, 71132, Note_off_c, 1, 51, 100
3, 71136, Note_on_c, 1, 50, 120
3, 71228, Note_off_c, 1, 50, 100
3, 71232, Note_on_c, 1, 51, 120
3, 71324, Note_off_c, 1, 51, 100
3, 71328, Note_on_c, 1, 50, 120
3, 71420, Note_off_c, 1, 50, 100
3, 71424, Note_on_c, 1, 51, 120
3, 71804, Note_off_c, 1, 51, 100
3, 72192, Note_on_c, 1, 51, 120
3, 72192, Note_on_c, 1, 55, 120
3, 72192, Note_on_c, 1, 60, 120
3, 72956, Note_off_c, 1, 51, 100
3, 72956, Note_off_c, 1, 55, 100
3, 72956, Note_off_c, 1, 60, 100
3, 72960, Note_on_c, 1, 52, 120
3, 72960, Note_on_c, 1, 60, 120
3, 73724, Note_off_c, 1, 52, 100
3, 73724, Note_off_c, 1, 60, 100
3, 73728, Note_on_c, 1, 53, 120
3, 73820, Note_off_c, 1, 53, 100
3, 73824, Note_on_c, 1, 52, 120
3, 73916, Note_off_c, 1, 52, 100
3, 73920, Note_on_c, 1, 53, 120
3, 74012, Note_off_c, 1, 53, 100
3, 74016, Note_on_c, 1, 52, 120
3, 74108, Note_off_c, 1, 52, 100
3, 74112, Note_on_c, 1, 53, 120
3, 74204, Note_off_c, 1, 53, 100
3, 74208, Note_on_c, 1, 52, 120
3, 74300, Note_off_c, 1, 52, 100
3, 74304, Note_on_c, 1, 53, 120
3, 74396, Note_off_c, 1, 53, 100
3, 74400, Note_on_c, 1, 52, 120
3, 74492, Note_off_c, 1, 52, 100
3, 74496, Note_on_c, 1, 53, 120
3, 74876, Note_off_c, 1, 53, 100
3, 75264, Note_on_c, 1, 41, 120
3, 75264, Note_on_c, 1, 45, 120
3, 75264, Note_on_c, 1, 48, 120
3, 75264, Note_on_c, 1, 53, 120
3, 76796, Note_off_c, 1, 41, 100
3, 76796, Note_off_c, 1, 45, 100
3, 76796, Note_off_c, 1, 48, 100
3, 76796, Note_off_c, 1, 53, 100
3, 76800, Note_on_c, 1, 34, 120
3, 76800, Note_on_c, 1, 46, 120
3, 78332, Note_off_c, 1, 34, 100
3, 78332, Note_off_c, 1, 46, 100
3, 78528, Note_on_c, 1, 46, 120
3, 78620, Note_off_c, 1, 46, 100
3, 78624, Note_on_c, 1, 50, 120
3, 78716, Note_off_c, 1, 50, 100
3, 78720, Note_on_c, 1, 48, 120
3, 78812, Note_off_c, 1, 48, 100
3, 78816, Note_on_c, 1, 51, 120
3, 78908, Note_off_c, 1, 51, 100
3, 78912, Note_on_c, 1, 50, 120
3, 79004, Note_off_c, 1, 50, 100
3, 79008, Note_on_c, 1, 53, 120
3, 79100, Note_off_c, 1, 53, 100
3, 79104, Note_on_c, 1, 51, 120
3, 79196, Note_off_c, 1, 51, 100
3, 79200, Note_on_c, 1, 55, 120
3, 79292, Note_off_c, 1, 55, 100
3, 79296, Note_on_c, 1, 53, 120
3, 79388, Note_off_c, 1, 53, 100
3, 79392, Note_on_c, 1, 57, 120
3, 79484, Note_off_c, 1, 57, 100
3, 79488, Note_on_c, 1, 55, 120
3, 79580, Note_off_c, 1, 55, 100
3, 79584, Note_on_c, 1, 58, 120
3, 79676, Note_off_c, 1, 58, 100
3, 79680, Note_on_c, 1, 57, 120
3, 79772, Note_off_c, 1, 57, 100
3, 79776, Note_on_c, 1, 60, 120
3, 79868, Note_off_c, 1, 60, 100
3, 79872, Note_on_c, 1, 50, 90
3, 79872, Note_on_c, 1, 58, 90
3, 80060, Note_off_c, 1, 50, 100
3, 80060, Note_off_c, 1, 58, 100
3, 80064, Note_on_c, 1, 50, 90
3, 80064, Note_on_c, 1, 58, 90
3, 80252, Note_off_c, 1, 50, 100
3, 80252, Note_off_c, 1, 58, 100
3, 80256, Note_on_c, 1, 50, 90
3, 80256, Note_on_c, 1, 58, 90
3, 80444, Note_off_c, 1, 50, 100
3, 80444, Note_off_c, 1, 58, 100
3, 80448, Note_on_c, 1, 50, 90
3, 80448, Note_on_c, 1, 58, 90
3, 80636, Note_off_c, 1, 50, 100
3, 80636, Note_off_c, 1, 58, 100
3, 80640, Note_on_c, 1, 50, 90
3, 80640, Note_on_c, 1, 58, 90
3, 80828, Note_off_c, 1, 50, 100
3, 80828, Note_off_c, 1, 58, 100
3, 80832, Note_on_c, 1, 50, 90
3, 80832, Note_on_c, 1, 58, 90
3, 81020, Note_off_c, 1, 50, 100
3, 81020, Note_off_c, 1, 58, 100
3, 81024, Note_on_c, 1, 50, 90
3, 81024, Note_on_c, 1, 58, 90
3, 81212, Note_off_c, 1, 50, 100
3, 81212, Note_off_c, 1, 58, 100
3, 81216, Note_on_c, 1, 50, 90
3, 81216, Note_on_c, 1, 58, 90
3, 81404, Note_off_c, 1, 50, 100
3, 81404, Note_off_c, 1, 58, 100
3, 81408, Note_on_c, 1, 51, 90
3, 81408, Note_on_c, 1, 58, 90
3, 81596, Note_off_c, 1, 51, 100
3, 81596, Note_off_c, 1, 58, 100
3, 81600, Note_on_c, 1, 51, 90
3, 81600, Note_on_c, 1, 58, 90
3, 81788, Note_off_c, 1, 51, 100
3, 81788, Note_off_c, 1, 58, 100
3, 81792, Note_on_c, 1, 51, 90
3, 81792, Note_on_c, 1, 58, 90
3, 81980, Note_off_c, 1, 51, 100
3, 81980, Note_off_c, 1, 58, 100
3, 81984, Note_on_c, 1, 51, 90
3, 81984, Note_on_c, 1, 58, 90
3, 82172, Note_off_c, 1, 51, 100
3, 82172, Note_off_c, 1, 58, 100
3, 82176, Note_on_c, 1, 51, 90
3, 82176, Note_on_c, 1, 58, 90
3, 82364, Note_off_c, 1, 51, 100
3, 82364, Note_off_c, 1, 58, 100
3, 82368, Note_on_c, 1, 51, 90
3, 82368, Note_on_c, 1, 58, 90
3, 82556, Note_off_c, 1, 51, 100
3, 82556, Note_off_c, 1, 58, 100
3, 82560, Note_on_c, 1, 51, 90
3, 82560, Note_on_c, 1, 58, 90
3, 82748, Note_off_c, 1, 51, 100
3, 82748, Note_off_c, 1, 58, 100
3, 82752, Note_on_c, 1, 51, 90
3, 82752, Note_on_c, 1, 58, 90
3, 82940, Note_off_c, 1, 51, 100
3, 82940, Note_off_c, 1, 58, 100
3, 82944, Note_on_c, 1, 53, 90
3, 82944, Note_on_c, 1, 58, 90
3, 83132, Note_off_c, 1, 53, 100
3, 83132, Note_off_c, 1, 58, 100
3, 83136, Note_on_c, 1, 53, 90
3, 83136, Note_on_c, 1, 58, 90
3, 83324, Note_off_c, 1, 53, 100
3, 83324, Note_off_c, 1, 58, 100
3, 83328, Note_on_c, 1, 53, 90
3, 83328, Note_on_c, 1, 58, 90
3, 83516, Note_off_c, 1, 53, 100
3, 83516, Note_off_c, 1, 58, 100
3, 83520, Note_on_c, 1, 53, 90
3, 83520, Note_on_c, 1, 58, 90
3, 83708, Note_off_c, 1, 53, 100
3, 83708, Note_off_c, 1, 58, 100
3, 83712, Note_on_c, 1, 53, 90
3, 83712, Note_on_c, 1, 57, 90
3, 83900, Note_off_c, 1, 53, 100
3, 83900, Note_off_c, 1, 57, 100
3, 83904, Note_on_c, 1, 53, 90
3, 83904, Note_on_c, 1, 57, 90
3, 84092, Note_off_c, 1, 53, 100
3, 84092, Note_off_c, 1, 57, 100
3, 84096, Note_on_c, 1, 53, 90
3, 84096, Note_on_c, 1, 57, 90
3, 84284, Note_off_c, 1, 53, 100
3, 84284, Note_off_c, 1, 57, 100
3, 84288, Note_on_c, 1, 53, 90
3, 84288, Note_on_c, 1, 57, 90
3, 84476, Note_off_c, 1, 53, 100
3, 84476, Note_off_c, 1, 57, 100
3, 84480, Note_on_c, 1, 46, 90
3, 84480, Note_on_c, 1, 58, 90
3, 84860, Note_off_c, 1, 46, 100
3, 84860, Note_off_c, 1, 58, 100
3, 85248, Note_on_c, 1, 65, 100
3, 85248, Note_on_c, 1, 62, 100
3, 85628, Note_off_c, 1, 65, 100
3, 85628, Note_off_c, 1, 62, 100
3, 85632, Note_on_c, 1, 63, 100
3, 85632, Note_on_c, 1, 60, 100
3, 86012, Note_off_c, 1, 63, 100
3, 86012, Note_off_c, 1, 60, 100
3, 86016, Note_on_c, 1, 62, 100
3, 86016, Note_on_c, 1, 58, 100
3, 86396, Note_off_c, 1, 62, 100
3, 86396, Note_off_c, 1, 58, 100
3, 86784, Note_on_c, 1, 53, 70
3, 86784, Note_on_c, 1, 60, 70
3, 87164, Note_off_c, 1, 60, 100
3, 87168, Note_on_c, 1, 63, 70
3, 87548, Note_off_c, 1, 53, 100
3, 87548, Note_off_c, 1, 63, 100
3, 87552, Note_on_c, 1, 58, 70
3, 87552, Note_on_c, 1, 62, 70
3, 87932, Note_off_c, 1, 58, 100
3, 87932, Note_off_c, 1, 62, 100
3, 88320, Note_on_c, 1, 65, 100
3, 88320, Note_on_c, 1, 62, 100
3, 88700, Note_off_c, 1, 65, 100
3, 88700, Note_off_c, 1, 62, 100
3, 88704, Note_on_c, 1, 63, 100
3, 88704, Note_on_c, 1, 60, 100
3, 89084, Note_off_c, 1, 63, 100
3, 89084, Note_off_c, 1, 60, 100
3, 89088, Note_on_c, 1, 62, 100
3, 89088, Note_on_c, 1, 58, 100
3, 89468, Note_off_c, 1, 62, 100
3, 89468, Note_off_c, 1, 58, 100
3, 89856, Note_on_c, 1, 53, 70
3, 89856, Note_on_c, 1, 60, 70
3, 90236, Note_off_c, 1, 60, 100
3, 90240, Note_on_c, 1, 63, 70
3, 90620, Note_off_c, 1, 53, 100
3, 90620, Note_off_c, 1, 63, 100
3, 90624, Note_on_c, 1, 58, 70
3, 90624, Note_on_c, 1, 62, 70
3, 91004, Note_off_c, 1, 58, 100
3, 91004, Note_off_c, 1, 62, 100
3, 91392, Note_on_c, 1, 53, 60
3, 91392, Note_on_c, 1, 60, 60
3, 91772, Note_off_c, 1, 60, 100
3, 91776, Note_on_c, 1, 63, 60
3, 92156, Note_off_c, 1, 53, 100
3, 92156, Note_off_c, 1, 63, 100
3, 92160, Note_on_c, 1, 46, 60
3, 92160, Note_on_c, 1, 58, 60
3, 92540, Note_off_c, 1, 46, 100
3, 92540, Note_off_c, 1, 58, 100
3, 92544, Note_on_c, 1, 46, 60
3, 92544, Note_on_c, 1, 58, 60
3, 92924, Note_off_c, 1, 46, 100
3, 92924, Note_off_c, 1, 58, 100
3, 92928, Note_on_c, 1, 46, 60
3, 92928, Note_on_c, 1, 58, 60
3, 93308, Note_off_c, 1, 46, 100
3, 93308, Note_off_c, 1, 58, 100
3, 93696, Note_on_c, 1, 46, 100
3, 93696, Note_on_c, 1, 58, 100
3, 93884, Note_off_c, 1, 58, 100
3, 93888, Note_on_c, 1, 58, 100
3, 94076, Note_off_c, 1, 58, 100
3, 94080, Note_on_c, 1, 58, 100
3, 94268, Note_off_c, 1, 58, 100
3, 94272, Note_on_c, 1, 58, 100
3, 94460, Note_off_c, 1, 58, 100
3, 94464, Note_on_c, 1, 58, 100
3, 94652, Note_off_c, 1, 58, 100
3, 94656, Note_on_c, 1, 58, 100
3, 94844, Note_off_c, 1, 58, 100
3, 94848, Note_on_c, 1, 58, 100
3, 95036, Note_off_c, 1, 58, 100
3, 95040, Note_on_c, 1, 58, 100
3, 95228, Note_off_c, 1, 46, 100
3, 95228, Note_off_c, 1, 58, 100
3, 95232, Note_on_c, 1, 46, 100
3, 95232, Note_on_c, 1, 58, 100
3, 95420, Note_off_c, 1, 58, 100
3, 95424, Note_on_c, 1, 58, 100
3, 95612, Note_off_c, 1, 58, 100
3, 95616, Note_on_c, 1, 58, 100
3, 95804, Note_off_c, 1, 58, 100
3, 95808, Note_on_c, 1, 58, 100
3, 95996, Note_off_c, 1, 58, 100
3, 96000, Note_on_c, 1, 58, 100
3, 96188, Note_off_c, 1, 58, 100
3, 96192, Note_on_c, 1, 58, 100
3, 96380, Note_off_c, 1, 58, 100
3, 96384, Note_on_c, 1, 58, 100
3, 96572, Note_off_c, 1, 58, 100
3, 96576, Note_on_c, 1, 58, 100
3, 96764, Note_off_c, 1, 46, 100
3, 96764, Note_off_c, 1, 58, 100
3, 96768, Note_on_c, 1, 46, 100
3, 96768, Note_on_c, 1, 58, 100
3, 96956, Note_off_c, 1, 58, 100
3, 96960, Note_on_c, 1, 58, 100
3, 97148, Note_off_c, 1, 58, 100
3, 97152, Note_on_c, 1, 58, 100
3, 97340, Note_off_c, 1, 58, 100
3, 97344, Note_on_c, 1, 58, 100
3, 97532, Note_off_c, 1, 58, 100
3, 97536, Note_on_c, 1, 58, 100
3, 97724, Note_off_c, 1, 58, 100
3, 97728, Note_on_c, 1, 58, 100
3, 97916, Note_off_c, 1, 58, 100
3, 97920, Note_on_c, 1, 58, 100
3, 98108, Note_off_c, 1, 58, 100
3, 98112, Note_on_c, 1, 58, 100
3, 98300, Note_off_c, 1, 46, 100
3, 98300, Note_off_c, 1, 58, 100
3, 98304, Note_on_c, 1, 46, 100
3, 98304, Note_on_c, 1, 58, 100
3, 98492, Note_off_c, 1, 58, 100
3, 98496, Note_on_c, 1, 58, 100
3, 98684, Note_off_c, 1, 58, 100
3, 98688, Note_on_c, 1, 58, 100
3, 98876, Note_off_c, 1, 58, 100
3, 98880, Note_on_c, 1, 58, 100
3, 99068, Note_off_c, 1, 58, 100
3, 99072, Note_on_c, 1, 58, 100
3, 99260, Note_off_c, 1, 58, 100
3, 99264, Note_on_c, 1, 58, 100
3, 99452, Note_off_c, 1, 58, 100
3, 99456, Note_on_c, 1, 58, 100
3, 99644, Note_off_c, 1, 58, 100
3, 99648, Note_on_c, 1, 58, 100
3, 99836, Note_off_c, 1, 46, 100
3, 99836, Note_off_c, 1, 58, 100
3, 99840, Note_on_c, 1, 55, 100
3, 99932, Note_off_c, 1, 55, 100
3, 99936, Note_on_c, 1, 65, 100
3, 100028, Note_off_c, 1, 65, 100
3, 100032, Note_on_c, 1, 62, 100
3, 100124, Note_off_c, 1, 62, 100
3, 100128, Note_on_c, 1, 65, 100
3, 100220, Note_off_c, 1, 65, 100
3, 100224, Note_on_c, 1, 55, 100
3, 100316, Note_off_c, 1, 55, 100
3, 100320, Note_on_c, 1, 65, 100
3, 100412, Note_off_c, 1, 65, 100
3, 100416, Note_on_c, 1, 62, 100
3, 100508, Note_off_c, 1, 62, 100
3, 100512, Note_on_c, 1, 65, 100
3, 100604, Note_off_c, 1, 65, 100
3, 100608, Note_on_c, 1, 55, 100
3, 100700, Note_off_c, 1, 55, 100
3, 100704, Note_on_c, 1, 65, 100
3, 100796, Note_off_c, 1, 65, 100
3, 100800, Note_on_c, 1, 62, 100
3, 100892, Note_off_c, 1, 62, 100
3, 100896, Note_on_c, 1, 65, 100
3, 100988, Note_off_c, 1, 65, 100
3, 100992, Note_on_c, 1, 55, 100
3, 101084, Note_off_c, 1, 55, 100
3, 101088, Note_on_c, 1, 65, 100
3, 101180, Note_off_c, 1, 65, 100
3, 101184, Note_on_c, 1, 62, 100
3, 101276, Note_off_c, 1, 62, 100
3, 101280, Note_on_c, 1, 65, 100
3, 101372, Note_off_c, 1, 65, 100
3, 101376, Note_on_c, 1, 55, 100
3, 101468, Note_off_c, 1, 55, 100
3, 101472, Note_on_c, 1, 63, 100
3, 101564, Note_off_c, 1, 63, 100
3, 101568, Note_on_c, 1, 60, 100
3, 101660, Note_off_c, 1, 60, 100
3, 101664, Note_on_c, 1, 63, 100
3, 101756, Note_off_c, 1, 63, 100
3, 101760, Note_on_c, 1, 55, 100
3, 101852, Note_off_c, 1, 55, 100
3, 101856, Note_on_c, 1, 63, 100
3, 101948, Note_off_c, 1, 63, 100
3, 101952, Note_on_c, 1, 60, 100
3, 102044, Note_off_c, 1, 60, 100
3, 102048, Note_on_c, 1, 63, 100
3, 102140, Note_off_c, 1, 63, 100
3, 102144, Note_on_c, 1, 55, 100
3, 102236, Note_off_c, 1, 55, 100
3, 102240, Note_on_c, 1, 63, 100
3, 102332, Note_off_c, 1, 63, 100
3, 102336, Note_on_c, 1, 60, 100
3, 102428, Note_off_c, 1, 60, 100
3, 102432, Note_on_c, 1, 63, 100
3, 102524, Note_off_c, 1, 63, 100
3, 102528, Note_on_c, 1, 55, 100
3, 102620, Note_off_c, 1, 55, 100
3, 102624, Note_on_c, 1, 63, 94
3, 102716, Note_off_c, 1, 63, 100
3, 102720, Note_on_c, 1, 60, 87
3, 102812, Note_off_c, 1, 60, 100
3, 102816, Note_on_c, 1, 63, 80
3, 102908, Note_off_c, 1, 63, 100
3, 102912, Note_on_c, 1, 55, 70
3, 103004, Note_off_c, 1, 55, 100
3, 103008, Note_on_c, 1, 65, 70
3, 103100, Note_off_c, 1, 65, 100
3, 103104, Note_on_c, 1, 62, 70
3, 103196, Note_off_c, 1, 62, 100
3, 103200, Note_on_c, 1, 65, 70
3, 103292, Note_off_c, 1, 65, 100
3, 103296, Note_on_c, 1, 55, 70
3, 103388, Note_off_c, 1, 55, 100
3, 103392, Note_on_c, 1, 65, 70
3, 103484, Note_off_c, 1, 65, 100
3, 103488, Note_on_c, 1, 62, 70
3, 103580, Note_off_c, 1, 62, 100
3, 103584, Note_on_c, 1, 65, 70
3, 103676, Note_off_c, 1, 65, 100
3, 103680, Note_on_c, 1, 55, 70
3, 103772, Note_off_c, 1, 55, 100
3, 103776, Note_on_c, 1, 65, 70
3, 103868, Note_off_c, 1, 65, 100
3, 103872, Note_on_c, 1, 62, 70
3, 103964, Note_off_c, 1, 62, 100
3, 103968, Note_on_c, 1, 65, 70
3, 104060, Note_off_c, 1, 65, 100
3, 104064, Note_on_c, 1, 55, 70
3, 104156, Note_off_c, 1, 55, 100
3, 104160, Note_on_c, 1, 65, 70
3, 104252, Note_off_c, 1, 65, 100
3, 104256, Note_on_c, 1, 62, 70
3, 104348, Note_off_c, 1, 62, 100
3, 104352, Note_on_c, 1, 65, 70
3, 104444, Note_off_c, 1, 65, 100
3, 104448, Note_on_c, 1, 60, 120
3, 104636, Note_off_c, 1, 60, 100
3, 104640, Note_on_c, 1, 63, 120
3, 104732, Note_off_c, 1, 63, 100
3, 104736, Note_on_c, 1, 62, 120
3, 104828, Note_off_c, 1, 62, 100
3, 104832, Note_on_c, 1, 60, 120
3, 105020, Note_off_c, 1, 60, 100
3, 105024, Note_on_c, 1, 58, 120
3, 105212, Note_off_c, 1, 58, 100
3, 105216, Note_on_c, 1, 56, 120
3, 105404, Note_off_c, 1, 56, 100
3, 105408, Note_on_c, 1, 60, 120
3, 105500, Note_off_c, 1, 60, 100
3, 105504, Note_on_c, 1, 58, 120
3, 105596, Note_off_c, 1, 58, 100
3, 105600, Note_on_c, 1, 56, 120
3, 105788, Note_off_c, 1, 56, 100
3, 105792, Note_on_c, 1, 55, 120
3, 105980, Note_off_c, 1, 55, 100
3, 105984, Note_on_c, 1, 53, 120
3, 106172, Note_off_c, 1, 53, 100
3, 106176, Note_on_c, 1, 56, 120
3, 106268, Note_off_c, 1, 56, 100
3, 106272, Note_on_c, 1, 55, 120
3, 106364, Note_off_c, 1, 55, 100
3, 106368, Note_on_c, 1, 53, 120
3, 106556, Note_off_c, 1, 53, 100
3, 106560, Note_on_c, 1, 51, 120
3, 106748, Note_off_c, 1, 51, 100
3, 106752, Note_on_c, 1, 50, 120
3, 106940, Note_off_c, 1, 50, 100
3, 106944, Note_on_c, 1, 53, 120
3, 107036, Note_off_c, 1, 53, 100
3, 107040, Note_on_c, 1, 51, 120
3, 107132, Note_off_c, 1, 51, 100
3, 107136, Note_on_c, 1, 50, 120
3, 107324, Note_off_c, 1, 50, 100
3, 107328, Note_on_c, 1, 48, 120
3, 107516, Note_off_c, 1, 48, 100
3, 107520, Note_on_c, 1, 55, 120
3, 107900, Note_off_c, 1, 55, 100
3, 107904, Note_on_c, 1, 43, 120
3, 108188, Note_off_c, 1, 43, 100
3, 108192, Note_on_c, 1, 43, 120
3, 108284, Note_off_c, 1, 43, 100
3, 108288, Note_on_c, 1, 43, 120
3, 109052, Note_off_c, 1, 43, 100
3, 109056, Note_on_c, 1, 36, 70
3, 109056, Note_on_c, 1, 48, 70
3, 110588, Note_off_c, 1, 36, 100
3, 110588, Note_off_c, 1, 48, 100
3, 110784, Note_on_c, 1, 55, 70
3, 110972, Note_off_c, 1, 55, 100
3, 110976, Note_on_c, 1, 55, 70
3, 111164, Note_off_c, 1, 55, 100
3, 111168, Note_on_c, 1, 55, 70
3, 111356, Note_off_c, 1, 55, 100
3, 111360, Note_on_c, 1, 55, 70
3, 111548, Note_off_c, 1, 55, 100
3, 111552, Note_on_c, 1, 53, 70
3, 111740, Note_off_c, 1, 53, 100
3, 111744, Note_on_c, 1, 51, 70
3, 111932, Note_off_c, 1, 51, 100
3, 111936, Note_on_c, 1, 50, 70
3, 112124, Note_off_c, 1, 50, 100
3, 112128, Note_on_c, 1, 51, 100
3, 112892, Note_off_c, 1, 51, 100
3, 112896, Note_on_c, 1, 53, 100
3, 113276, Note_off_c, 1, 53, 100
3, 113280, Note_on_c, 1, 54, 100
3, 113660, Note_off_c, 1, 54, 100
3, 113856, Note_on_c, 1, 55, 100
3, 114044, Note_off_c, 1, 55, 100
3, 114048, Note_on_c, 1, 55, 100
3, 114236, Note_off_c, 1, 55, 100
3, 114240, Note_on_c, 1, 55, 100
3, 114428, Note_off_c, 1, 55, 100
3, 114432, Note_on_c, 1, 55, 100
3, 114620, Note_off_c, 1, 55, 100
3, 114624, Note_on_c, 1, 53, 100
3, 114812, Note_off_c, 1, 53, 100
3, 114816, Note_on_c, 1, 51, 91
3, 115004, Note_off_c, 1, 51, 100
3, 115008, Note_on_c, 1, 50, 81
3, 115196, Note_off_c, 1, 50, 100
3, 115200, Note_on_c, 1, 51, 70
3, 116732, Note_off_c, 1, 51, 100
3, 116736, Note_on_c, 1, 56, 120
3, 118268, Note_off_c, 1, 56, 100
3, 118272, Note_on_c, 1, 51, 100
3, 118652, Note_off_c, 1, 51, 100
3, 118656, Note_on_c, 1, 53, 100
3, 119036, Note_off_c, 1, 53, 100
3, 119040, Note_on_c, 1, 55, 100
3, 119420, Note_off_c, 1, 55, 100
3, 119424, Note_on_c, 1, 43, 90
3, 119804, Note_off_c, 1, 43, 100
3, 119808, Note_on_c, 1, 36, 100
3, 119832, Note_on_c, 1, 39, 100
3, 119856, Note_on_c, 1, 43, 100
3, 119880, Note_on_c, 1, 48, 100
3, 121340, Note_off_c, 1, 36, 100
3, 121340, Note_off_c, 1, 39, 100
3, 121340, Note_off_c, 1, 43, 100
3, 121340, Note_off_c, 1, 48, 100
3, 121344, Note_on_c, 1, 48, 100
3, 121368, Note_on_c, 1, 51, 100
3, 121392, Note_on_c, 1, 55, 100
3, 121416, Note_on_c, 1, 60, 100
3, 122876, Note_off_c, 1, 48, 100
3, 122876, Note_off_c, 1, 51, 100
3, 122876, Note_off_c, 1, 55, 100
3, 122876, Note_off_c, 1, 60, 100
3, 122880, Note_on_c, 1, 41, 100
3, 122904, Note_on_c, 1, 44, 100
3, 122928, Note_on_c, 1, 48, 100
3, 122952, Note_on_c, 1, 53, 100
3, 124412, Note_off_c, 1, 41, 100
3, 124412, Note_off_c, 1, 44, 100
3, 124412, Note_off_c, 1, 48, 100
3, 124412, Note_off_c, 1, 53, 100
3, 124416, Note_on_c, 1, 41, 100
3, 124440, Note_on_c, 1, 44, 100
3, 124464, Note_on_c, 1, 48, 100
3, 124488, Note_on_c, 1, 53, 100
3, 125948, Note_off_c, 1, 41, 100
3, 125948, Note_off_c, 1, 44, 100
3, 125948, Note_off_c, 1, 48, 100
3, 125948, Note_off_c, 1, 53, 100
3, 125952, Note_on_c, 1, 46, 100
3, 125976, Note_on_c, 1, 50, 100
3, 126000, Note_on_c, 1, 53, 100
3, 126024, Note_on_c, 1, 58, 100
3, 127484, Note_off_c, 1, 46, 100
3, 127484, Note_off_c, 1, 50, 100
3, 127484, Note_off_c, 1, 53, 100
3, 127484, Note_off_c, 1, 58, 100
3, 127488, Note_on_c, 1, 65, 100
3, 127676, Note_off_c, 1, 65, 100
3, 127680, Note_on_c, 1, 63, 100
3, 127868, Note_off_c, 1, 63, 100
3, 127872, Note_on_c, 1, 62, 100
3, 128060, Note_off_c, 1, 62, 100
3, 128064, Note_on_c, 1, 60, 100
3, 128252, Note_off_c, 1, 60, 100
3, 128256, Note_on_c, 1, 58, 100
3, 128444, Note_off_c, 1, 58, 100
3, 128448, Note_on_c, 1, 56, 100
3, 128636, Note_off_c, 1, 56, 100
3, 128640, Note_on_c, 1, 55, 100
3, 128828, Note_off_c, 1, 55, 100
3, 128832, Note_on_c, 1, 53, 100
3, 129020, Note_off_c, 1, 53, 100
3, 129024, Note_on_c, 1, 55, 100
3, 129116, Note_off_c, 1, 55, 100
3, 129120, Note_on_c, 1, 51, 100
3, 129212, Note_off_c, 1, 51, 100
3, 129216, Note_on_c, 1, 53, 100
3, 129308, Note_off_c, 1, 53, 100
3, 129312, Note_on_c, 1, 55, 100
3, 129404, Note_off_c, 1, 55, 100
3, 129408, Note_on_c, 1, 56, 100
3, 129500, Note_off_c, 1, 56, 100
3, 129504, Note_on_c, 1, 58, 100
3, 129596, Note_off_c, 1, 58, 100
3, 129600, Note_on_c, 1, 60, 100
3, 129692, Note_off_c, 1, 60, 100
3, 129696, Note_on_c, 1, 62, 100
3, 129788, Note_off_c, 1, 62, 100
3, 129792, Note_on_c, 1, 63, 100
3, 129980, Note_off_c, 1, 63, 100
3, 129984, Note_on_c, 1, 58, 100
3, 130172, Note_off_c, 1, 58, 100
3, 130176, Note_on_c, 1, 55, 100
3, 130364, Note_off_c, 1, 55, 100
3, 130368, Note_on_c, 1, 51, 100
3, 130556, Note_off_c, 1, 51, 100
3, 130560, Note_on_c, 1, 58, 100
3, 130748, Note_off_c, 1, 58, 100
3, 130752, Note_on_c, 1, 50, 100
3, 130844, Note_off_c, 1, 50, 100
3, 130848, Note_on_c, 1, 51, 100
3, 130940, Note_off_c, 1, 51, 100
3, 130944, Note_on_c, 1, 53, 100
3, 131036, Note_off_c, 1, 53, 100
3, 131040, Note_on_c, 1, 51, 100
3, 131132, Note_off_c, 1, 51, 100
3, 131136, Note_on_c, 1, 50, 100
3, 131228, Note_off_c, 1, 50, 100
3, 131232, Note_on_c, 1, 48, 100
3, 131324, Note_off_c, 1, 48, 100
3, 131328, Note_on_c, 1, 46, 100
3, 132092, Note_off_c, 1, 46, 100
3, 132096, Note_on_c, 1, 51, 70
3, 132284, Note_off_c, 1, 51, 100
3, 132288, Note_on_c, 1, 58, 70
3, 132476, Note_off_c, 1, 58, 100
3, 132480, Note_on_c, 1, 55, 70
3, 132668, Note_off_c, 1, 55, 100
3, 132672, Note_on_c, 1, 58, 70
3, 132860, Note_off_c, 1, 58, 100
3, 132864, Note_on_c, 1, 51, 70
3, 133052, Note_off_c, 1, 51, 100
3, 133056, Note_on_c, 1, 60, 70
3, 133244, Note_off_c, 1, 60, 100
3, 133248, Note_on_c, 1, 58, 70
3, 133436, Note_off_c, 1, 58, 100
3, 133440, Note_on_c, 1, 56, 70
3, 133628, Note_off_c, 1, 56, 100
3, 133632, Note_on_c, 1, 51, 70
3, 133820, Note_off_c, 1, 51, 100
3, 133824, Note_on_c, 1, 58, 70
3, 134012, Note_off_c, 1, 58, 100
3, 134016, Note_on_c, 1, 55, 70
3, 134204, Note_off_c, 1, 55, 100
3, 134208, Note_on_c, 1, 58, 70
3, 134396, Note_off_c, 1, 58, 100
3, 134400, Note_on_c, 1, 51, 70
3, 134588, Note_off_c, 1, 51, 100
3, 134592, Note_on_c, 1, 60, 70
3, 134780, Note_off_c, 1, 60, 100
3, 134784, Note_on_c, 1, 58, 70
3, 134972, Note_off_c, 1, 58, 100
3, 134976, Note_on_c, 1, 56, 70
3, 135164, Note_off_c, 1, 56, 100
3, 135168, Note_on_c, 1, 51, 70
3, 135356, Note_off_c, 1, 51, 100
3, 135360, Note_on_c, 1, 58, 70
3, 135548, Note_off_c, 1, 58, 100
3, 135552, Note_on_c, 1, 55, 70
3, 135740, Note_off_c, 1, 55, 100
3, 135744, Note_on_c, 1, 58, 70
3, 135932, Note_off_c, 1, 58, 100
3, 135936, Note_on_c, 1, 51, 70
3, 136124, Note_off_c, 1, 51, 100
3, 136128, Note_on_c, 1, 58, 70
3, 136316, Note_off_c, 1, 58, 100
3, 136320, Note_on_c, 1, 55, 70
3, 136508, Note_off_c, 1, 55, 100
3, 136512, Note_on_c, 1, 58, 70
3, 136700, Note_off_c, 1, 58, 100
3, 136704, Note_on_c, 1, 50, 70
3, 136892, Note_off_c, 1, 50, 100
3, 136896, Note_on_c, 1, 58, 70
3, 137084, Note_off_c, 1, 58, 100
3, 137088, Note_on_c, 1, 53, 70
3, 137276, Note_off_c, 1, 53, 100
3, 137280, Note_on_c, 1, 58, 70
3, 137468, Note_off_c, 1, 58, 100
3, 137472, Note_on_c, 1, 50, 70
3, 137660, Note_off_c, 1, 50, 100
3, 137664, Note_on_c, 1, 58, 70
3, 137852, Note_off_c, 1, 58, 100
3, 137856, Note_on_c, 1, 53, 70
3, 138044, Note_off_c, 1, 53, 100
3, 138048, Note_on_c, 1, 58, 70
3, 138236, Note_off_c, 1, 58, 100
3, 138240, Note_on_c, 1, 51, 100
3, 139004, Note_off_c, 1, 51, 100
3, 139008, Note_on_c, 1, 55, 100
3, 139772, Note_off_c, 1, 55, 100
3, 139776, Note_on_c, 1, 56, 100
3, 139868, Note_off_c, 1, 56, 100
3, 139872, Note_on_c, 1, 55, 100
3, 139964, Note_off_c, 1, 55, 100
3, 139968, Note_on_c, 1, 56, 100
3, 140060, Note_off_c, 1, 56, 100
3, 140064, Note_on_c, 1, 55, 100
3, 140156, Note_off_c, 1, 55, 100
3, 140160, Note_on_c, 1, 56, 100
3, 140252, Note_off_c, 1, 56, 100
3, 140256, Note_on_c, 1, 55, 100
3, 140348, Note_off_c, 1, 55, 100
3, 140352, Note_on_c, 1, 56, 100
3, 140444, Note_off_c, 1, 56, 100
3, 140448, Note_on_c, 1, 55, 100
3, 140540, Note_off_c, 1, 55, 100
3, 140544, Note_on_c, 1, 56, 100
3, 140924, Note_off_c, 1, 56, 100
3, 141312, Note_on_c, 1, 41, 120
3, 141312, Note_on_c, 1, 53, 120
3, 142076, Note_off_c, 1, 41, 100
3, 142076, Note_off_c, 1, 53, 100
3, 142080, Note_on_c, 1, 45, 120
3, 142080, Note_on_c, 1, 57, 120
3, 142844, Note_off_c, 1, 45, 100
3, 142844, Note_off_c, 1, 57, 100
3, 142848, Note_on_c, 1, 58, 120
3, 142940, Note_off_c, 1, 58, 100
3, 142944, Note_on_c, 1, 57, 120
3, 143036, Note_off_c, 1, 57, 100
3, 143040, Note_on_c, 1, 58, 120
3, 143132, Note_off_c, 1, 58, 100
3, 143136, Note_on_c, 1, 57, 120
3, 143228, Note_off_c, 1, 57, 100
3, 143232, Note_on_c, 1, 58, 120
3, 143324, Note_off_c, 1, 58, 100
3, 143328, Note_on_c, 1, 57, 120
3, 143420, Note_off_c, 1, 57, 100
3, 143424, Note_on_c, 1, 58, 120
3, 143516, Note_off_c, 1, 58, 100
3, 143520, Note_on_c, 1, 57, 120
3, 143612, Note_off_c, 1, 57, 100
3, 143616, Note_on_c, 1, 58, 120
3, 143996, Note_off_c, 1, 58, 100
3, 144384, Note_on_c, 1, 46, 100
3, 144384, Note_on_c, 1, 50, 100
3, 144384, Note_on_c, 1, 53, 100
3, 145148, Note_off_c, 1, 46, 100
3, 145148, Note_off_c, 1, 50, 100
3, 145148, Note_off_c, 1, 53, 100
3, 145152, Note_on_c, 1, 50, 100
3, 145152, Note_on_c, 1, 58, 100
3, 145916, Note_off_c, 1, 50, 100
3, 145916, Note_off_c, 1, 58, 100
3, 145920, Note_on_c, 1, 39, 100
3, 145920, Note_on_c, 1, 51, 100
3, 147452, Note_off_c, 1, 39, 100
3, 147452, Note_off_c, 1, 51, 100
3, 147648, Note_on_c, 1, 51, 100
3, 147740, Note_off_c, 1, 51, 100
3, 147744, Note_on_c, 1, 55, 100
3, 147836, Note_off_c, 1, 55, 100
3, 147840, Note_on_c, 1, 53, 100
3, 147932, Note_off_c, 1, 53, 100
3, 147936, Note_on_c, 1, 56, 100
3, 148028, Note_off_c, 1, 56, 100
3, 148032, Note_on_c, 1, 55, 100
3, 148124, Note_off_c, 1, 55, 100
3, 148128, Note_on_c, 1, 58, 100
3, 148220, Note_off_c, 1, 58, 100
3, 148224, Note_on_c, 1, 56, 100
3, 148316, Note_off_c, 1, 56, 100
3, 148320, Note_on_c, 1, 60, 100
3, 148412, Note_off_c, 1, 60, 100
3, 148416, Note_on_c, 1, 58, 100
3, 148508, Note_off_c, 1, 58, 100
3, 148512, Note_on_c, 1, 62, 100
3, 148604, Note_off_c, 1, 62, 100
3, 148608, Note_on_c, 1, 60, 100
3, 148700, Note_off_c, 1, 60, 100
3, 148704, Note_on_c, 1, 63, 100
3, 148796, Note_off_c, 1, 63, 100
3, 148800, Note_on_c, 1, 62, 100
3, 148892, Note_off_c, 1, 62, 100
3, 148896, Note_on_c, 1, 65, 100
3, 148988, Note_off_c, 1, 65, 100
3, 148992, Note_on_c, 1, 55, 100
3, 148992, Note_on_c, 1, 63, 100
3, 149180, Note_off_c, 1, 55, 100
3, 149180, Note_off_c, 1, 63, 100
3, 149184, Note_on_c, 1, 55, 100
3, 149184, Note_on_c, 1, 63, 100
3, 149372, Note_off_c, 1, 55, 100
3, 149372, Note_off_c, 1, 63, 100
3, 149376, Note_on_c, 1, 55, 100
3, 149376, Note_on_c, 1, 63, 100
3, 149564, Note_off_c, 1, 55, 100
3, 149564, Note_off_c, 1, 63, 100
3, 149568, Note_on_c, 1, 55, 100
3, 149568, Note_on_c, 1, 63, 100
3, 149756, Note_off_c, 1, 55, 100
3, 149756, Note_off_c, 1, 63, 100
3, 149760, Note_on_c, 1, 55, 100
3, 149760, Note_on_c, 1, 63, 100
3, 149948, Note_off_c, 1, 55, 100
3, 149948, Note_off_c, 1, 63, 100
3, 149952, Note_on_c, 1, 55, 100
3, 149952, Note_on_c, 1, 63, 100
3, 150140, Note_off_c, 1, 55, 100
3, 150140, Note_off_c, 1, 63, 100
3, 150144, Note_on_c, 1, 55, 100
3, 150144, Note_on_c, 1, 63, 100
3, 150332, Note_off_c, 1, 55, 100
3, 150332, Note_off_c, 1, 63, 100
3, 150336, Note_on_c, 1, 55, 100
3, 150336, Note_on_c, 1, 63, 100
3, 150524, Note_off_c, 1, 55, 100
3, 150524, Note_off_c, 1, 63, 100
3, 150528, Note_on_c, 1, 56, 100
3, 150528, Note_on_c, 1, 63, 100
3, 150716, Note_off_c, 1, 56, 100
3, 150716, Note_off_c, 1, 63, 100
3, 150720, Note_on_c, 1, 56, 100
3, 150720, Note_on_c, 1, 63, 100
3, 150908, Note_off_c, 1, 56, 100
3, 150908, Note_off_c, 1, 63, 100
3, 150912, Note_on_c, 1, 56, 100
3, 150912, Note_on_c, 1, 63, 100
3, 151100, Note_off_c, 1, 56, 100
3, 151100, Note_off_c, 1, 63, 100
3, 151104, Note_on_c, 1, 56, 100
3, 151104, Note_on_c, 1, 63, 100
3, 151292, Note_off_c, 1, 56, 100
3, 151292, Note_off_c, 1, 63, 100
3, 151296, Note_on_c, 1, 56, 100
3, 151296, Note_on_c, 1, 65, 100
3, 151484, Note_off_c, 1, 56, 100
3, 151484, Note_off_c, 1, 65, 100
3, 151488, Note_on_c, 1, 56, 100
3, 151488, Note_on_c, 1, 65, 100
3, 151676, Note_off_c, 1, 56, 100
3, 151676, Note_off_c, 1, 65, 100
3, 151680, Note_on_c, 1, 56, 100
3, 151680, Note_on_c, 1, 65, 100
3, 151868, Note_off_c, 1, 56, 100
3, 151868, Note_off_c, 1, 65, 100
3, 151872, Note_on_c, 1, 56, 100
3, 151872, Note_on_c, 1, 65, 100
3, 152060, Note_off_c, 1, 56, 100
3, 152060, Note_off_c, 1, 65, 100
3, 152064, Note_on_c, 1, 58, 100
3, 152064, Note_on_c, 1, 63, 100
3, 152252, Note_off_c, 1, 58, 100
3, 152252, Note_off_c, 1, 63, 100
3, 152256, Note_on_c, 1, 58, 100
3, 152256, Note_on_c, 1, 63, 100
3, 152444, Note_off_c, 1, 58, 100
3, 152444, Note_off_c, 1, 63, 100
3, 152448, Note_on_c, 1, 58, 100
3, 152448, Note_on_c, 1, 63, 100
3, 152636, Note_off_c, 1, 58, 100
3, 152636, Note_off_c, 1, 63, 100
3, 152640, Note_on_c, 1, 58, 100
3, 152640, Note_on_c, 1, 63, 100
3, 152828, Note_off_c, 1, 58, 100
3, 152828, Note_off_c, 1, 63, 100
3, 152832, Note_on_c, 1, 58, 100
3, 152832, Note_on_c, 1, 62, 100
3, 153020, Note_off_c, 1, 58, 100
3, 153020, Note_off_c, 1, 62, 100
3, 153024, Note_on_c, 1, 58, 100
3, 153024, Note_on_c, 1, 62, 100
3, 153212, Note_off_c, 1, 58, 100
3, 153212, Note_off_c, 1, 62, 100
3, 153216, Note_on_c, 1, 58, 100
3, 153216, Note_on_c, 1, 62, 100
3, 153404, Note_off_c, 1, 58, 100
3, 153404, Note_off_c, 1, 62, 100
3, 153408, Note_on_c, 1, 58, 100
3, 153408, Note_on_c, 1, 62, 100
3, 153596, Note_off_c, 1, 58, 100
3, 153596, Note_off_c, 1, 62, 100
3, 153600, Note_on_c, 1, 51, 100
3, 153600, Note_on_c, 1, 63, 100
3, 153980, Note_off_c, 1, 51, 100
3, 153980, Note_off_c, 1, 63, 100
3, 154368, Note_on_c, 1, 67, 100
3, 154368, Note_on_c, 1, 70, 100
3, 154748, Note_off_c, 1, 67, 100
3, 154748, Note_off_c, 1, 70, 100
3, 154752, Note_on_c, 1, 65, 100
3, 154752, Note_on_c, 1, 68, 100
3, 155132, Note_off_c, 1, 65, 100
3, 155132, Note_off_c, 1, 68, 100
3, 155136, Note_on_c, 1, 63, 100
3, 155136, Note_on_c, 1, 67, 100
3, 155516, Note_off_c, 1, 63, 100
3, 155516, Note_off_c, 1, 67, 100
3, 155904, Note_on_c, 1, 58, 70
3, 155904, Note_on_c, 1, 65, 70
3, 156284, Note_off_c, 1, 65, 100
3, 156288, Note_on_c, 1, 68, 70
3, 156668, Note_off_c, 1, 58, 100
3, 156668, Note_off_c, 1, 68, 100
3, 156672, Note_on_c, 1, 63, 70
3, 156672, Note_on_c, 1, 67, 70
3, 157052, Note_off_c, 1, 63, 100
3, 157052, Note_off_c, 1, 67, 100
3, 157440, Note_on_c, 1, 55, 100
3, 157440, Note_on_c, 1, 58, 100
3, 157820, Note_off_c, 1, 55, 100
3, 157820, Note_off_c, 1, 58, 100
3, 157824, Note_on_c, 1, 53, 100
3, 157824, Note_on_c, 1, 56, 100
3, 158204, Note_off_c, 1, 53, 100
3, 158204, Note_off_c, 1, 56, 100
3, 158208, Note_on_c, 1, 51, 100
3, 158208, Note_on_c, 1, 55, 100
3, 158588, Note_off_c, 1, 51, 100
3, 158588, Note_off_c, 1, 55, 100
3, 158976, Note_on_c, 1, 46, 70
3, 158976, Note_on_c, 1, 53, 70
3, 159356, Note_off_c, 1, 53, 100
3, 159360, Note_on_c, 1, 56, 70
3, 159740, Note_off_c, 1, 46, 100
3, 159740, Note_off_c, 1, 56, 100
3, 159744, Note_on_c, 1, 51, 70
3, 159744, Note_on_c, 1, 55, 70
3, 160124, Note_off_c, 1, 51, 100
3, 160124, Note_off_c, 1, 55, 100
3, 160512, Note_on_c, 1, 46, 60
3, 160512, Note_on_c, 1, 53, 60
3, 160892, Note_off_c, 1, 53, 100
3, 160896, Note_on_c, 1, 56, 60
3, 161276, Note_off_c, 1, 46, 100
3, 161276, Note_off_c, 1, 56, 100
3, 161280, Note_on_c, 1, 51, 60
3, 161280, Note_on_c, 1, 55, 60
3, 161660, Note_off_c, 1, 51, 100
3, 161660, Note_off_c, 1, 55, 100
3, 161664, Note_on_c, 1, 51, 60
3, 162044, Note_off_c, 1, 51, 100
3, 162048, Note_on_c, 1, 51, 60
3, 162428, Note_off_c, 1, 51, 100
3, 162816, Note_on_c, 1, 46, 100
3, 162816, Note_on_c, 1, 58, 100
3, 163004, Note_off_c, 1, 58, 100
3, 163008, Note_on_c, 1, 58, 100
3, 163196, Note_off_c, 1, 58, 100
3, 163200, Note_on_c, 1, 58, 100
3, 163388, Note_off_c, 1, 58, 100
3, 163392, Note_on_c, 1, 58, 100
3, 163580, Note_off_c, 1, 58, 100
3, 163584, Note_on_c, 1, 58, 100
3, 163772, Note_off_c, 1, 58, 100
3, 163776, Note_on_c, 1, 58, 100
3, 163964, Note_off_c, 1, 58, 100
3, 163968, Note_on_c, 1, 58, 100
3, 164156, Note_off_c, 1, 58, 100
3, 164160, Note_on_c, 1, 58, 100
3, 164348, Note_off_c, 1, 46, 100
3, 164348, Note_off_c, 1, 58, 100
3, 164352, Note_on_c, 1, 46, 100
3, 164352, Note_on_c, 1, 58, 100
3, 164540, Note_off_c, 1, 58, 100
3, 164544, Note_on_c, 1, 58, 100
3, 164732, Note_off_c, 1, 58, 100
3, 164736, Note_on_c, 1, 58, 100
3, 164924, Note_off_c, 1, 58, 100
3, 164928, Note_on_c, 1, 58, 100
3, 165116, Note_off_c, 1, 58, 100
3, 165120, Note_on_c, 1, 58, 100
3, 165308, Note_off_c, 1, 58, 100
3, 165312, Note_on_c, 1, 58, 100
3, 165500, Note_off_c, 1, 58, 100
3, 165504, Note_on_c, 1, 58, 100
3, 165692, Note_off_c, 1, 58, 100
3, 165696, Note_on_c, 1, 58, 100
3, 165884, Note_off_c, 1, 46, 100
3, 165884, Note_off_c, 1, 58, 100
3, 165888, Note_on_c, 1, 46, 100
3, 165888, Note_on_c, 1, 58, 100
3, 166076, Note_off_c, 1, 58, 100
3, 166080, Note_on_c, 1, 58, 100
3, 166268, Note_off_c, 1, 58, 100
3, 166272, Note_on_c, 1, 58, 100
3, 166460, Note_off_c, 1, 58, 100
3, 166464, Note_on_c, 1, 58, 100
3, 166652, Note_off_c, 1, 58, 100
3, 166656, Note_on_c, 1, 58, 100
3, 166844, Note_off_c, 1, 58, 100
3, 166848, Note_on_c, 1, 58, 100
3, 167036, Note_off_c, 1, 58, 100
3, 167040, Note_on_c, 1, 58, 100
3, 167228, Note_off_c, 1, 58, 100
3, 167232, Note_on_c, 1, 58, 100
3, 167420, Note_off_c, 1, 46, 100
3, 167420, Note_off_c, 1, 58, 100
3, 167424, Note_on_c, 1, 46, 100
3, 167424, Note_on_c, 1, 58, 100
3, 167612, Note_off_c, 1, 58, 100
3, 167616, Note_on_c, 1, 58, 100
3, 167804, Note_off_c, 1, 58, 100
3, 167808, Note_on_c, 1, 58, 100
3, 167996, Note_off_c, 1, 58, 100
3, 168000, Note_on_c, 1, 58, 100
3, 168188, Note_off_c, 1, 58, 100
3, 168192, Note_on_c, 1, 58, 100
3, 168380, Note_off_c, 1, 58, 100
3, 168384, Note_on_c, 1, 58, 100
3, 168572, Note_off_c, 1, 58, 100
3, 168576, Note_on_c, 1, 58, 100
3, 168764, Note_off_c, 1, 58, 100
3, 168768, Note_on_c, 1, 58, 100
3, 168956, Note_off_c, 1, 46, 100
3, 168956, Note_off_c, 1, 58, 100
3, 168960, Note_on_c, 1, 55, 100
3, 169052, Note_off_c, 1, 55, 100
3, 169056, Note_on_c, 1, 65, 100
3, 169148, Note_off_c, 1, 65, 100
3, 169152, Note_on_c, 1, 62, 100
3, 169244, Note_off_c, 1, 62, 100
3, 169248, Note_on_c, 1, 65, 100
3, 169340, Note_off_c, 1, 65, 100
3, 169344, Note_on_c, 1, 55, 100
3, 169436, Note_off_c, 1, 55, 100
3, 169440, Note_on_c, 1, 65, 100
3, 169532, Note_off_c, 1, 65, 100
3, 169536, Note_on_c, 1, 62, 100
3, 169628, Note_off_c, 1, 62, 100
3, 169632, Note_on_c, 1, 65, 100
3, 169724, Note_off_c, 1, 65, 100
3, 169728, Note_on_c, 1, 55, 100
3, 169820, Note_off_c, 1, 55, 100
3, 169824, Note_on_c, 1, 65, 100
3, 169916, Note_off_c, 1, 65, 100
3, 169920, Note_on_c, 1, 62, 100
3, 170012, Note_off_c, 1, 62, 100
3, 170016, Note_on_c, 1, 65, 100
3, 170108, Note_off_c, 1, 65, 100
3, 170112, Note_on_c, 1, 55, 100
3, 170204, Note_off_c, 1, 55, 100
3, 170208, Note_on_c, 1, 65, 100
3, 170300, Note_off_c, 1, 65, 100
3, 170304, Note_on_c, 1, 62, 100
3, 170396, Note_off_c, 1, 62, 100
3, 170400, Note_on_c, 1, 65, 100
3, 170492, Note_off_c, 1, 65, 100
3, 170496, Note_on_c, 1, 55, 100
3, 170588, Note_off_c, 1, 55, 100
3, 170592, Note_on_c, 1, 63, 100
3, 170684, Note_off_c, 1, 63, 100
3, 170688, Note_on_c, 1, 60, 100
3, 170780, Note_off_c, 1, 60, 100
3, 170784, Note_on_c, 1, 63, 100
3, 170876, Note_off_c, 1, 63, 100
3, 170880, Note_on_c, 1, 55, 100
3, 170972, Note_off_c, 1, 55, 100
3, 170976, Note_on_c, 1, 63, 100
3, 171068, Note_off_c, 1, 63, 100
3, 171072, Note_on_c, 1, 60, 100
3, 171164, Note_off_c, 1, 60, 100
3, 171168, Note_on_c, 1, 63, 100
3, 171260, Note_off_c, 1, 63, 100
3, 171264, Note_on_c, 1, 55, 100
3, 171356, Note_off_c, 1, 55, 100
3, 171360, Note_on_c, 1, 63, 100
3, 171452, Note_off_c, 1, 63, 100
3, 171456, Note_on_c, 1, 60, 100
3, 171548, Note_off_c, 1, 60, 100
3, 171552, Note_on_c, 1, 63, 100
3, 171644, Note_off_c, 1, 63, 100
3, 171648, Note_on_c, 1, 55, 100
3, 171740, Note_off_c, 1, 55, 100
3, 171744, Note_on_c, 1, 63, 94
3, 171836, Note_off_c, 1, 63, 100
3, 171840, Note_on_c, 1, 60, 87
3, 171932, Note_off_c, 1, 60, 100
3, 171936, Note_on_c, 1, 63, 80
3, 172028, Note_off_c, 1, 63, 100
3, 172032, Note_on_c, 1, 55, 70
3, 172124, Note_off_c, 1, 55, 100
3, 172128, Note_on_c, 1, 65, 70
3, 172220, Note_off_c, 1, 65, 100
3, 172224, Note_on_c, 1, 62, 70
3, 172316, Note_off_c, 1, 62, 100
3, 172320, Note_on_c, 1, 65, 70
3, 172412, Note_off_c, 1, 65, 100
3, 172416, Note_on_c, 1, 55, 70
3, 172508, Note_off_c, 1, 55, 100
3, 172512, Note_on_c, 1, 65, 70
3, 172604, Note_off_c, 1, 65, 100
3, 172608, Note_on_c, 1, 62, 70
3, 172700, Note_off_c, 1, 62, 100
3, 172704, Note_on_c, 1, 65, 70
3, 172796, Note_off_c, 1, 65, 100
3, 172800, Note_on_c, 1, 55, 70
3, 172892, Note_off_c, 1, 55, 100
3, 172896, Note_on_c, 1, 65, 70
3, 172988, Note_off_c, 1, 65, 100
3, 172992, Note_on_c, 1, 62, 70
3, 173084, Note_off_c, 1, 62, 100
3, 173088, Note_on_c, 1, 65, 70
3, 173180, Note_off_c, 1, 65, 100
3, 173184, Note_on_c, 1, 55, 70
3, 173276, Note_off_c, 1, 55, 100
3, 173280, Note_on_c, 1, 65, 70
3, 173372, Note_off_c, 1, 65, 100
3, 173376, Note_on_c, 1, 62, 70
3, 173468, Note_off_c, 1, 62, 100
3, 173472, Note_on_c, 1, 65, 70
3, 173564, Note_off_c, 1, 65, 100
3, 173568, Note_on_c, 1, 60, 120
3, 173756, Note_off_c, 1, 60, 100
3, 173760, Note_on_c, 1, 63, 120
3, 173852, Note_off_c, 1, 63, 100
3, 173856, Note_on_c, 1, 62, 120
3, 173948, Note_off_c, 1, 62, 100
3, 173952, Note_on_c, 1, 60, 120
3, 174140, Note_off_c, 1, 60, 100
3, 174144, Note_on_c, 1, 58, 120
3, 174332, Note_off_c, 1, 58, 100
3, 174336, Note_on_c, 1, 56, 120
3, 174524, Note_off_c, 1, 56, 100
3, 174528, Note_on_c, 1, 60, 120
3, 174620, Note_off_c, 1, 60, 100
3, 174624, Note_on_c, 1, 58, 120
3, 174716, Note_off_c, 1, 58, 100
3, 174720, Note_on_c, 1, 56, 120
3, 174908, Note_off_c, 1, 56, 100
3, 174912, Note_on_c, 1, 55, 120
3, 175100, Note_off_c, 1, 55, 100
3, 175104, Note_on_c, 1, 53, 120
3, 175292, Note_off_c, 1, 53, 100
3, 175296, Note_on_c, 1, 56, 120
3, 175388, Note_off_c, 1, 56, 100
3, 175392, Note_on_c, 1, 55, 120
3, 175484, Note_off_c, 1, 55, 100
3, 175488, Note_on_c, 1, 53, 120
3, 175676, Note_off_c, 1, 53, 100
3, 175680, Note_on_c, 1, 51, 120
3, 175868, Note_off_c, 1, 51, 100
3, 175872, Note_on_c, 1, 50, 120
3, 176060, Note_off_c, 1, 50, 100
3, 176064, Note_on_c, 1, 53, 120
3, 176156, Note_off_c, 1, 53, 100
3, 176160, Note_on_c, 1, 51, 120
3, 176252, Note_off_c, 1, 51, 100
3, 176256, Note_on_c, 1, 50, 120
3, 176444, Note_off_c, 1, 50, 100
3, 176448, Note_on_c, 1, 48, 120
3, 176636, Note_off_c, 1, 48, 100
3, 176640, Note_on_c, 1, 55, 120
3, 177020, Note_off_c, 1, 55, 100
3, 177024, Note_on_c, 1, 43, 120
3, 177308, Note_off_c, 1, 43, 100
3, 177312, Note_on_c, 1, 43, 120
3, 177404, Note_off_c, 1, 43, 100
3, 177408, Note_on_c, 1, 43, 120
3, 178172, Note_off_c, 1, 43, 100
3, 178176, Note_on_c, 1, 36, 70
3, 178176, Note_on_c, 1, 48, 70
3, 179708, Note_off_c, 1, 36, 100
3, 179708, Note_off_c, 1, 48, 100
3, 179904, Note_on_c, 1, 55, 70
3, 180092, Note_off_c, 1, 55, 100
3, 180096, Note_on_c, 1, 55, 70
3, 180284, Note_off_c, 1, 55, 100
3, 180288, Note_on_c, 1, 55, 70
3, 180476, Note_off_c, 1, 55, 100
3, 180480, Note_on_c, 1, 55, 70
3, 180668, Note_off_c, 1, 55, 100
3, 180672, Note_on_c, 1, 53, 70
3, 180860, Note_off_c, 1, 53, 100
3, 180864, Note_on_c, 1, 51, 70
3, 181052, Note_off_c, 1, 51, 100
3, 181056, Note_on_c, 1, 50, 70
3, 181244, Note_off_c, 1, 50, 100
3, 181248, Note_on_c, 1, 51, 100
3, 182012, Note_off_c, 1, 51, 100
3, 182016, Note_on_c, 1, 53, 100
3, 182396, Note_off_c, 1, 53, 100
3, 182400, Note_on_c, 1, 54, 100
3, 182780, Note_off_c, 1, 54, 100
3, 182976, Note_on_c, 1, 55, 100
3, 183164, Note_off_c, 1, 55, 100
3, 183168, Note_on_c, 1, 55, 100
3, 183356, Note_off_c, 1, 55, 100
3, 183360, Note_on_c, 1, 55, 100
3, 183548, Note_off_c, 1, 55, 100
3, 183552, Note_on_c, 1, 55, 100
3, 183740, Note_off_c, 1, 55, 100
3, 183744, Note_on_c, 1, 53, 100
3, 183932, Note_off_c, 1, 53, 100
3, 183936, Note_on_c, 1, 51, 91
3, 184124, Note_off_c, 1, 51, 100
3, 184128, Note_on_c, 1, 50, 81
3, 184316, Note_off_c, 1, 50, 100
3, 184320, Note_on_c, 1, 51, 70
3, 185852, Note_off_c, 1, 51, 100
3, 185856, Note_on_c, 1, 56, 120
3, 187388, Note_off_c, 1, 56, 100
3, 187392, Note_on_c, 1, 51, 100
3, 187772, Note_off_c, 1, 51, 100
3, 187776, Note_on_c, 1, 53, 100
3, 188156, Note_off_c, 1, 53, 100
3, 188160, Note_on_c, 1, 55, 100
3, 188540, Note_off_c, 1, 55, 100
3, 188544, Note_on_c, 1, 43, 90
3, 188924, Note_off_c, 1, 43, 100
3, 188928, Note_on_c, 1, 36, 100
3, 188952, Note_on_c, 1, 39, 100
3, 188976, Note_on_c, 1, 43, 100
3, 189000, Note_on_c, 1, 48, 100
3, 190460, Note_off_c, 1, 36, 100
3, 190460, Note_off_c, 1, 39, 100
3, 190460, Note_off_c, 1, 43, 100
3, 190460, Note_off_c, 1, 48, 100
3, 190464, Note_on_c, 1, 48, 100
3, 190488, Note_on_c, 1, 51, 100
3, 190512, Note_on_c, 1, 55, 100
3, 190536, Note_on_c, 1, 60, 100
3, 191996, Note_off_c, 1, 48, 100
3, 191996, Note_off_c, 1, 51, 100
3, 191996, Note_off_c, 1, 55, 100
3, 191996, Note_off_c, 1, 60, 100
3, 192000, Note_on_c, 1, 41, 100
3, 192024, Note_on_c, 1, 44, 100
3, 192048, Note_on_c, 1, 48, 100
3, 192072, Note_on_c, 1, 53, 100
3, 193532, Note_off_c, 1, 41, 100
3, 193532, Note_off_c, 1, 44, 100
3, 193532, Note_off_c, 1, 48, 100
3, 193532, Note_off_c, 1, 53, 100
3, 193536, Note_on_c, 1, 41, 100
3, 193560, Note_on_c, 1, 44, 100
3, 193584, Note_on_c, 1, 48, 100
3, 193608, Note_on_c, 1, 53, 100
3, 195068, Note_off_c, 1, 41, 100
3, 195068, Note_off_c, 1, 44, 100
3, 195068, Note_off_c, 1, 48, 100
3, 195068, Note_off_c, 1, 53, 100
3, 195072, Note_on_c, 1, 46, 100
3, 195096, Note_on_c, 1, 50, 100
3, 195120, Note_on_c, 1, 53, 100
3, 195144, Note_on_c, 1, 58, 100
3, 196604, Note_off_c, 1, 46, 100
3, 196604, Note_off_c, 1, 50, 100
3, 196604, Note_off_c, 1, 53, 100
3, 196604, Note_off_c, 1, 58, 100
3, 196608, Note_on_c, 1, 65, 100
3, 196796, Note_off_c, 1, 65, 100
3, 196800, Note_on_c, 1, 63, 100
3, 196988, Note_off_c, 1, 63, 100
3, 196992, Note_on_c, 1, 62, 100
3, 197180, Note_off_c, 1, 62, 100
3, 197184, Note_on_c, 1, 60, 100
3, 197372, Note_off_c, 1, 60, 100
3, 197376, Note_on_c, 1, 58, 100
3, 197564, Note_off_c, 1, 58, 100
3, 197568, Note_on_c, 1, 56, 100
3, 197756, Note_off_c, 1, 56, 100
3, 197760, Note_on_c, 1, 55, 100
3, 197948, Note_off_c, 1, 55, 100
3, 197952, Note_on_c, 1, 53, 100
3, 198140, Note_off_c, 1, 53, 100
3, 198144, Note_on_c, 1, 55, 100
3, 198236, Note_off_c, 1, 55, 100
3, 198240, Note_on_c, 1, 51, 100
3, 198332, Note_off_c, 1, 51, 100
3, 198336, Note_on_c, 1, 53, 100
3, 198428, Note_off_c, 1, 53, 100
3, 198432, Note_on_c, 1, 55, 100
3, 198524, Note_off_c, 1, 55, 100
3, 198528, Note_on_c, 1, 56, 100
3, 198620, Note_off_c, 1, 56, 100
3, 198624, Note_on_c, 1, 58, 100
3, 198716, Note_off_c, 1, 58, 100
3, 198720, Note_on_c, 1, 60, 100
3, 198812, Note_off_c, 1, 60, 100
3, 198816, Note_on_c, 1, 62, 100
3, 198908, Note_off_c, 1, 62, 100
3, 198912, Note_on_c, 1, 63, 100
3, 199100, Note_off_c, 1, 63, 100
3, 199104, Note_on_c, 1, 58, 100
3, 199292, Note_off_c, 1, 58, 100
3, 199296, Note_on_c, 1, 55, 100
3, 199484, Note_off_c, 1, 55, 100
3, 199488, Note_on_c, 1, 51, 100
3, 199676, Note_off_c, 1, 51, 100
3, 199680, Note_on_c, 1, 58, 100
3, 199868, Note_off_c, 1, 58, 100
3, 199872, Note_on_c, 1, 50, 100
3, 199964, Note_off_c, 1, 50, 100
3, 199968, Note_on_c, 1, 51, 100
3, 200060, Note_off_c, 1, 51, 100
3, 200064, Note_on_c, 1, 53, 100
3, 200156, Note_off_c, 1, 53, 100
3, 200160, Note_on_c, 1, 51, 100
3, 200252, Note_off_c, 1, 51, 100
3, 200256, Note_on_c, 1, 50, 100
3, 200348, Note_off_c, 1, 50, 100
3, 200352, Note_on_c, 1, 48, 100
3, 200444, Note_off_c, 1, 48, 100
3, 200448, Note_on_c, 1, 46, 100
3, 201212, Note_off_c, 1, 46, 100
3, 201216, Note_on_c, 1, 51, 70
3, 201404, Note_off_c, 1, 51, 100
3, 201408, Note_on_c, 1, 58, 70
3, 201596, Note_off_c, 1, 58, 100
3, 201600, Note_on_c, 1, 55, 70
3, 201788, Note_off_c, 1, 55, 100
3, 201792, Note_on_c, 1, 58, 70
3, 201980, Note_off_c, 1, 58, 100
3, 201984, Note_on_c, 1, 51, 70
3, 202172, Note_off_c, 1, 51, 100
3, 202176, Note_on_c, 1, 60, 70
3, 202364, Note_off_c, 1, 60, 100
3, 202368, Note_on_c, 1, 58, 70
3, 202556, Note_off_c, 1, 58, 100
3, 202560, Note_on_c, 1, 56, 70
3, 202748, Note_off_c, 1, 56, 100
3, 202752, Note_on_c, 1, 51, 70
3, 202940, Note_off_c, 1, 51, 100
3, 202944, Note_on_c, 1, 58, 70
3, 203132, Note_off_c, 1, 58, 100
3, 203136, Note_on_c, 1, 55, 70
3, 203324, Note_off_c, 1, 55, 100
3, 203328, Note_on_c, 1, 58, 70
3, 203516, Note_off_c, 1, 58, 100
3, 203520, Note_on_c, 1, 51, 70
3, 203708, Note_off_c, 1, 51, 100
3, 203712, Note_on_c, 1, 60, 70
3, 203900, Note_off_c, 1, 60, 100
3, 203904, Note_on_c, 1, 58, 70
3, 204092, Note_off_c, 1, 58, 100
3, 204096, Note_on_c, 1, 56, 70
3, 204284, Note_off_c, 1, 56, 100
3, 204288, Note_on_c, 1, 51, 70
3, 204476, Note_off_c, 1, 51, 100
3, 204480, Note_on_c, 1, 58, 70
3, 204668, Note_off_c, 1, 58, 100
3, 204672, Note_on_c, 1, 55, 70
3, 204860, Note_off_c, 1, 55, 100
3, 204864, Note_on_c, 1, 58, 70
3, 205052, Note_off_c, 1, 58, 100
3, 205056, Note_on_c, 1, 51, 70
3, 205244, Note_off_c, 1, 51, 100
3, 205248, Note_on_c, 1, 58, 70
3, 205436, Note_off_c, 1, 58, 100
3, 205440, Note_on_c, 1, 55, 70
3, 205628, Note_off_c, 1, 55, 100
3, 205632, Note_on_c, 1, 58, 70
3, 205820, Note_off_c, 1, 58, 100
3, 205824, Note_on_c, 1, 50, 70
3, 206012, Note_off_c, 1, 50, 100
3, 206016, Note_on_c, 1, 58, 70
3, 206204, Note_off_c, 1, 58, 100
3, 206208, Note_on_c, 1, 53, 70
3, 206396, Note_off_c, 1, 53, 100
3, 206400, Note_on_c, 1, 58, 70
3, 206588, Note_off_c, 1, 58, 100
3, 206592, Note_on_c, 1, 50, 70
3, 206780, Note_off_c, 1, 50, 100
3, 206784, Note_on_c, 1, 58, 70
3, 206972, Note_off_c, 1, 58, 100
3, 206976, Note_on_c, 1, 53, 70
3, 207164, Note_off_c, 1, 53, 100
3, 207168, Note_on_c, 1, 58, 70
3, 207356, Note_off_c, 1, 58, 100
3, 207360, Note_on_c, 1, 51, 100
3, 208124, Note_off_c, 1, 51, 100
3, 208128, Note_on_c, 1, 55, 100
3, 208892, Note_off_c, 1, 55, 100
3, 208896, Note_on_c, 1, 56, 100
3, 208988, Note_off_c, 1, 56, 100
3, 208992, Note_on_c, 1, 55, 100
3, 209084, Note_off_c, 1, 55, 100
3, 209088, Note_on_c, 1, 56, 100
3, 209180, Note_off_c, 1, 56, 100
3, 209184, Note_on_c, 1, 55, 100
3, 209276, Note_off_c, 1, 55, 100
3, 209280, Note_on_c, 1, 56, 100
3, 209372, Note_off_c, 1, 56, 100
3, 209376, Note_on_c, 1, 55, 100
3, 209468, Note_off_c, 1, 55, 100
3, 209472, Note_on_c, 1, 56, 100
3, 209564, Note_off_c, 1, 56, 100
3, 209568, Note_on_c, 1, 55, 100
3, 209660, Note_off_c, 1, 55, 100
3, 209664, Note_on_c, 1, 56, 100
3, 210044, Note_off_c, 1, 56, 100
3, 210432, Note_on_c, 1, 41, 120
3, 210432, Note_on_c, 1, 53, 120
3, 211196, Note_off_c, 1, 41, 100
3, 211196, Note_off_c, 1, 53, 100
3, 211200, Note_on_c, 1, 45, 120
3, 211200, Note_on_c, 1, 57, 120
3, 211964, Note_off_c, 1, 45, 100
3, 211964, Note_off_c, 1, 57, 100
3, 211968, Note_on_c, 1, 58, 120
3, 212060, Note_off_c, 1, 58, 100
3, 212064, Note_on_c, 1, 57, 120
3, 212156, Note_off_c, 1, 57, 100
3, 212160, Note_on_c, 1, 58, 120
3, 212252, Note_off_c, 1, 58, 100
3, 212256, Note_on_c, 1, 57, 120
3, 212348, Note_off_c, 1, 57, 100
3, 212352, Note_on_c, 1, 58, 120
3, 212444, Note_off_c, 1, 58, 100
3, 212448, Note_on_c, 1, 57, 120
3, 212540, Note_off_c, 1, 57, 100
3, 212544, Note_on_c, 1, 58, 120
3, 212636, Note_off_c, 1, 58, 100
3, 212640, Note_on_c, 1, 57, 120
3, 212732, Note_off_c, 1, 57, 100
3, 212736, Note_on_c, 1, 58, 120
3, 213116, Note_off_c, 1, 58, 100
3, 213504, Note_on_c, 1, 46, 100
3, 213504, Note_on_c, 1, 50, 100
3, 213504, Note_on_c, 1, 53, 100
3, 214268, Note_off_c, 1, 46, 100
3, 214268, Note_off_c, 1, 50, 100
3, 214268, Note_off_c, 1, 53, 100
3, 214272, Note_on_c, 1, 50, 100
3, 214272, Note_on_c, 1, 58, 100
3, 215036, Note_off_c, 1, 50, 100
3, 215036, Note_off_c, 1, 58, 100
3, 215040, Note_on_c, 1, 39, 100
3, 215040, Note_on_c, 1, 51, 100
3, 216572, Note_off_c, 1, 39, 100
3, 216572, Note_off_c, 1, 51, 100
3, 216768, Note_on_c, 1, 51, 100
3, 216860, Note_off_c, 1, 51, 100
3, 216864, Note_on_c, 1, 55, 100
3, 216956, Note_off_c, 1, 55, 100
3, 216960, Note_on_c, 1, 53, 100
3, 217052, Note_off_c, 1, 53, 100
3, 217056, Note_on_c, 1, 56, 100
3, 217148, Note_off_c, 1, 56, 100
3, 217152, Note_on_c, 1, 55, 100
3, 217244, Note_off_c, 1, 55, 100
3, 217248, Note_on_c, 1, 58, 100
3, 217340, Note_off_c, 1, 58, 100
3, 217344, Note_on_c, 1, 56, 100
3, 217436, Note_off_c, 1, 56, 100
3, 217440, Note_on_c, 1, 60, 100
3, 217532, Note_off_c, 1, 60, 100
3, 217536, Note_on_c, 1, 58, 100
3, 217628, Note_off_c, 1, 58, 100
3, 217632, Note_on_c, 1, 62, 100
3, 217724, Note_off_c, 1, 62, 100
3, 217728, Note_on_c, 1, 60, 100
3, 217820, Note_off_c, 1, 60, 100
3, 217824, Note_on_c, 1, 63, 100
3, 217916, Note_off_c, 1, 63, 100
3, 217920, Note_on_c, 1, 62, 100
3, 218012, Note_off_c, 1, 62, 100
3, 218016, Note_on_c, 1, 65, 100
3, 218108, Note_off_c, 1, 65, 100
3, 218112, Note_on_c, 1, 55, 100
3, 218112, Note_on_c, 1, 63, 100
3, 218300, Note_off_c, 1, 55, 100
3, 218300, Note_off_c, 1, 63, 100
3, 218304, Note_on_c, 1, 55, 100
3, 218304, Note_on_c, 1, 63, 100
3, 218492, Note_off_c, 1, 55, 100
3, 218492, Note_off_c, 1, 63, 100
3, 218496, Note_on_c, 1, 55, 100
3, 218496, Note_on_c, 1, 63, 100
3, 218684, Note_off_c, 1, 55, 100
3, 218684, Note_off_c, 1, 63, 100
3, 218688, Note_on_c, 1, 55, 100
3, 218688, Note_on_c, 1, 63, 100
3, 218876, Note_off_c, 1, 55, 100
3, 218876, Note_off_c, 1, 63, 100
3, 218880, Note_on_c, 1, 55, 100
3, 218880, Note_on_c, 1, 63, 100
3, 219068, Note_off_c, 1, 55, 100
3, 219068, Note_off_c, 1, 63, 100
3, 219072, Note_on_c, 1, 55, 100
3, 219072, Note_on_c, 1, 63, 100
3, 219260, Note_off_c, 1, 55, 100
3, 219260, Note_off_c, 1, 63, 100
3, 219264, Note_on_c, 1, 55, 100
3, 219264, Note_on_c, 1, 63, 100
3, 219452, Note_off_c, 1, 55, 100
3, 219452, Note_off_c, 1, 63, 100
3, 219456, Note_on_c, 1, 55, 100
3, 219456, Note_on_c, 1, 63, 100
3, 219644, Note_off_c, 1, 55, 100
3, 219644, Note_off_c, 1, 63, 100
3, 219648, Note_on_c, 1, 56, 100
3, 219648, Note_on_c, 1, 63, 100
3, 219836, Note_off_c, 1, 56, 100
3, 219836, Note_off_c, 1, 63, 100
3, 219840, Note_on_c, 1, 56, 100
3, 219840, Note_on_c, 1, 63, 100
3, 220028, Note_off_c, 1, 56, 100
3, 220028, Note_off_c, 1, 63, 100
3, 220032, Note_on_c, 1, 56, 100
3, 220032, Note_on_c, 1, 63, 100
3, 220220, Note_off_c, 1, 56, 100
3, 220220, Note_off_c, 1, 63, 100
3, 220224, Note_on_c, 1, 56, 100
3, 220224, Note_on_c, 1, 63, 100
3, 220412, Note_off_c, 1, 56, 100
3, 220412, Note_off_c, 1, 63, 100
3, 220416, Note_on_c, 1, 56, 100
3, 220416, Note_on_c, 1, 65, 100
3, 220604, Note_off_c, 1, 56, 100
3, 220604, Note_off_c, 1, 65, 100
3, 220608, Note_on_c, 1, 56, 100
3, 220608, Note_on_c, 1, 65, 100
3, 220796, Note_off_c, 1, 56, 100
3, 220796, Note_off_c, 1, 65, 100
3, 220800, Note_on_c, 1, 56, 100
3, 220800, Note_on_c, 1, 65, 100
3, 220988, Note_off_c, 1, 56, 100
3, 220988, Note_off_c, 1, 65, 100
3, 220992, Note_on_c, 1, 56, 100
3, 220992, Note_on_c, 1, 65, 100
3, 221180, Note_off_c, 1, 56, 100
3, 221180, Note_off_c, 1, 65, 100
3, 221184, Note_on_c, 1, 58, 100
3, 221184, Note_on_c, 1, 63, 100
3, 221372, Note_off_c, 1, 58, 100
3, 221372, Note_off_c, 1, 63, 100
3, 221376, Note_on_c, 1, 58, 100
3, 221376, Note_on_c, 1, 63, 100
3, 221564, Note_off_c, 1, 58, 100
3, 221564, Note_off_c, 1, 63, 100
3, 221568, Note_on_c, 1, 58, 100
3, 221568, Note_on_c, 1, 63, 100
3, 221756, Note_off_c, 1, 58, 100
3, 221756, Note_off_c, 1, 63, 100
3, 221760, Note_on_c, 1, 58, 100
3, 221760, Note_on_c, 1, 63, 100
3, 221948, Note_off_c, 1, 58, 100
3, 221948, Note_off_c, 1, 63, 100
3, 221952, Note_on_c, 1, 58, 100
3, 221952, Note_on_c, 1, 62, 100
3, 222140, Note_off_c, 1, 58, 100
3, 222140, Note_off_c, 1, 62, 100
3, 222144, Note_on_c, 1, 58, 100
3, 222144, Note_on_c, 1, 62, 100
3, 222332, Note_off_c, 1, 58, 100
3, 222332, Note_off_c, 1, 62, 100
3, 222336, Note_on_c, 1, 58, 100
3, 222336, Note_on_c, 1, 62, 100
3, 222524, Note_off_c, 1, 58, 100
3, 222524, Note_off_c, 1, 62, 100
3, 222528, Note_on_c, 1, 58, 100
3, 222528, Note_on_c, 1, 62, 100
3, 222716, Note_off_c, 1, 58, 100
3, 222716, Note_off_c, 1, 62, 100
3, 222720, Note_on_c, 1, 51, 100
3, 222720, Note_on_c, 1, 63, 100
3, 223100, Note_off_c, 1, 51, 100
3, 223100, Note_off_c, 1, 63, 100
3, 223488, Note_on_c, 1, 67, 100
3, 223488, Note_on_c, 1, 70, 100
3, 223868, Note_off_c, 1, 67, 100
3, 223868, Note_off_c, 1, 70, 100
3, 223872, Note_on_c, 1, 65, 100
3, 223872, Note_on_c, 1, 68, 100
3, 224252, Note_off_c, 1, 65, 100
3, 224252, Note_off_c, 1, 68, 100
3, 224256, Note_on_c, 1, 63, 100
3, 224256, Note_on_c, 1, 67, 100
3, 224636, Note_off_c, 1, 63, 100
3, 224636, Note_off_c, 1, 67, 100
3, 225024, Note_on_c, 1, 58, 70
3, 225024, Note_on_c, 1, 65, 70
3, 225404, Note_off_c, 1, 65, 100
3, 225408, Note_on_c, 1, 68, 70
3, 225788, Note_off_c, 1, 58, 100
3, 225788, Note_off_c, 1, 68, 100
3, 225792, Note_on_c, 1, 63, 70
3, 225792, Note_on_c, 1, 67, 70
3, 226172, Note_off_c, 1, 63, 100
3, 226172, Note_off_c, 1, 67, 100
3, 226560, Note_on_c, 1, 55, 100
3, 226560, Note_on_c, 1, 58, 100
3, 226940, Note_off_c, 1, 55, 100
3, 226940, Note_off_c, 1, 58, 100
3, 226944, Note_on_c, 1, 53, 100
3, 226944, Note_on_c, 1, 56, 100
3, 227324, Note_off_c, 1, 53, 100
3, 227324, Note_off_c, 1, 56, 100
3, 227328, Note_on_c, 1, 51, 100
3, 227328, Note_on_c, 1, 55, 100
3, 227708, Note_off_c, 1, 51, 100
3, 227708, Note_off_c, 1, 55, 100
3, 228096, Note_on_c, 1, 46, 70
3, 228096, Note_on_c, 1, 53, 70
3, 228476, Note_off_c, 1, 53, 100
3, 228480, Note_on_c, 1, 56, 70
3, 228860, Note_off_c, 1, 46, 100
3, 228860, Note_off_c, 1, 56, 100
3, 228864, Note_on_c, 1, 51, 70
3, 228864, Note_on_c, 1, 55, 70
3, 229244, Note_off_c, 1, 51, 100
3, 229244, Note_off_c, 1, 55, 100
3, 229632, Note_on_c, 1, 46, 60
3, 229632, Note_on_c, 1, 53, 60
3, 230012, Note_off_c, 1, 53, 100
3, 230016, Note_on_c, 1, 56, 60
3, 230396, Note_off_c, 1, 46, 100
3, 230396, Note_off_c, 1, 56, 100
3, 230400, Note_on_c, 1, 51, 60
3, 230400, Note_on_c, 1, 55, 60
3, 230780, Note_off_c, 1, 51, 100
3, 230780, Note_off_c, 1, 55, 100
3, 230784, Note_on_c, 1, 51, 60
3, 231164, Note_off_c, 1, 51, 100
3, 231168, Note_on_c, 1, 51, 60
3, 231932, Note_off_c, 1, 51, 100
3, 231932, End_track
0, 0, End_of_file
