0, 0, Header, 1, 3, 384
1, 0, Start_track
1, 0, Title_t, "L.v.Beethoven 2mov - Kurfursten-Sonatas No.1 in Eb Major WoO 47-1\000"
1, 0, Copyright_t, "Copyright(C) 1995-2009, Suzuki Software\000"
1, 0, Sequencer_specific, 9, 67, 123, 0, 88, 70, 48, 50, 0, 1
1, 0, Text_t, "XFhd:2009/03/14:JP:Classical::::L.v.Beethoven:::Kaoru Suzuki\000"
1, 0, Text_t, "XFln:JP:\221I\222é\214ò\203\\\203i\203^\221æ1\224Ô\225Ï\203z\222·\222² WoO 47-1\201`\221æ2\212y\217Í:L.v.\203x\201[\203g\201[\203\224\203F\203\223:::\227é\202¿\202á\202ñ:\227é\202¿\202á\202ñ\000"
1, 0, Time_signature, 2, 2, 96, 8
1, 0, Sequencer_specific, 5, 0, 0, 119, 14, 0
1, 0, Tempo, 1071428
1, 48, Tempo, 251046
1, 480, Tempo, 1071428
1, 6048, Tempo, 1111111
1, 6336, Tempo, 1200000
1, 6432, Tempo, 1333333
1, 6720, Tempo, 1200000
1, 6912, Tempo, 1071428
1, 8352, Tempo, 1111111
1, 8448, Tempo, 1153846
1, 9408, Tempo, 1200000
1, 9600, Tempo, 1333333
1, 9792, Tempo, 1200000
1, 9984, Tempo, 1071428
1, 10752, Tempo, 1111111
1, 10848, Tempo, 1200000
1, 11328, Tempo, 1111111
1, 12864, Tempo, 1153846
1, 12960, Tempo, 1200000
1, 13008, Tempo, 1304347
1, 13056, Tempo, 1200000
1, 13632, Tempo, 1276595
1, 13728, Tempo, 1333333
1, 14400, Tempo, 1200000
1, 14592, Tempo, 1111111
1, 18240, Tempo, 1153846
1, 18336, Tempo, 1200000
1, 19008, Tempo, 1276595
1, 19104, Tempo, 1363636
1, 19200, Tempo, 1200000
1, 19296, Tempo, 1153846
1, 22656, Tempo, 1200000
1, 22848, Tempo, 1276595
1, 23232, Tempo, 1363636
1, 23616, Tempo, 1200000
1, 23904, Tempo, 1111111
1, 28032, Tempo, 1153846
1, 28224, Tempo, 1200000
1, 28320, Tempo, 1276595
1, 28368, Tempo, 1363636
1, 28416, Tempo, 1200000
1, 28512, Tempo, 1111111
1, 31104, Tempo, 1153846
1, 31296, Tempo, 1200000
1, 31872, Tempo, 1250000
1, 32064, Tempo, 1304347
1, 32160, Tempo, 1363636
1, 32256, Tempo, 1250000
1, 32448, Tempo, 1363636
1, 32832, Tempo, 1200000
1, 33024, Tempo, 1111111
1, 35904, Tempo, 1153846
1, 36000, Tempo, 1200000
1, 36672, Tempo, 1276595
1, 36768, Tempo, 1363636
1, 36864, Tempo, 1250000
1, 37056, Tempo, 1363636
1, 37440, Tempo, 1200000
1, 37632, Tempo, 1111111
1, 42624, Tempo, 1153846
1, 42816, Tempo, 1200000
1, 42912, Tempo, 1304347
1, 43008, Tempo, 1111111
1, 46272, Tempo, 1153846
1, 46464, Tempo, 1200000
1, 46656, Tempo, 1304347
1, 47040, Tempo, 1500000
1, 47040, End_track
2, 0, Start_track
2, 0, Title_t, "Piano Right"
2, 0, Control_c, 0, 0, 0
2, 0, Program_c, 0, 0
2, 0, Control_c, 0, 7, 100
2, 0, Control_c, 0, 10, 71
2, 0, Control_c, 0, 91, 127
2, 0, Key_signature, -2, "major"
2, 576, Note_on_c, 0, 65, 70
2, 600, Note_on_c, 0, 67, 70
2, 620, Note_off_c, 0, 65, 100
2, 624, Note_on_c, 0, 65, 70
2, 644, Note_off_c, 0, 67, 100
2, 716, Note_off_c, 0, 65, 100
2, 720, Note_on_c, 0, 65, 70
2, 764, Note_off_c, 0, 65, 100
2, 768, Note_on_c, 0, 70, 70
2, 956, Note_off_c, 0, 70, 100
2, 960, Note_on_c, 0, 70, 70
2, 1244, Note_off_c, 0, 70, 100
2, 1248, Note_on_c, 0, 74, 70
2, 1340, Note_off_c, 0, 74, 100
2, 1344, Note_on_c, 0, 72, 70
2, 1436, Note_off_c, 0, 72, 100
2, 1440, Note_on_c, 0, 70, 70
2, 1532, Note_off_c, 0, 70, 100
2, 1536, Note_on_c, 0, 70, 70
2, 1560, Note_on_c, 0, 69, 70
2, 1628, Note_off_c, 0, 70, 100
2, 1724, Note_off_c, 0, 69, 100
2, 1728, Note_on_c, 0, 69, 70
2, 1916, Note_off_c, 0, 69, 100
2, 2112, Note_on_c, 0, 65, 70
2, 2252, Note_off_c, 0, 65, 100
2, 2256, Note_on_c, 0, 65, 70
2, 2300, Note_off_c, 0, 65, 100
2, 2304, Note_on_c, 0, 72, 70
2, 2492, Note_off_c, 0, 72, 100
2, 2496, Note_on_c, 0, 72, 70
2, 2780, Note_off_c, 0, 72, 100
2, 2784, Note_on_c, 0, 75, 70
2, 2876, Note_off_c, 0, 75, 100
2, 2880, Note_on_c, 0, 74, 70
2, 2972, Note_off_c, 0, 74, 100
2, 2976, Note_on_c, 0, 72, 70
2, 3068, Note_off_c, 0, 72, 100
2, 3072, Note_on_c, 0, 72, 70
2, 3096, Note_on_c, 0, 70, 70
2, 3116, Note_off_c, 0, 72, 100
2, 3260, Note_off_c, 0, 70, 100
2, 3264, Note_on_c, 0, 70, 70
2, 3452, Note_off_c, 0, 70, 100
2, 3648, Note_on_c, 0, 70, 70
2, 3672, Note_on_c, 0, 72, 75
2, 3692, Note_off_c, 0, 70, 100
2, 3696, Note_on_c, 0, 70, 80
2, 3716, Note_off_c, 0, 72, 100
2, 3788, Note_off_c, 0, 70, 100
2, 3792, Note_on_c, 0, 70, 100
2, 3836, Note_off_c, 0, 70, 100
2, 3840, Note_on_c, 0, 77, 110
2, 4008, Note_on_c, 0, 76, 110
2, 4028, Note_off_c, 0, 77, 100
2, 4032, Note_on_c, 0, 77, 110
2, 4052, Note_off_c, 0, 76, 100
2, 4316, Note_off_c, 0, 77, 100
2, 4320, Note_on_c, 0, 74, 110
2, 4412, Note_off_c, 0, 74, 100
2, 4416, Note_on_c, 0, 72, 110
2, 4508, Note_off_c, 0, 72, 100
2, 4512, Note_on_c, 0, 70, 110
2, 4604, Note_off_c, 0, 70, 100
2, 4608, Note_on_c, 0, 71, 110
2, 4700, Note_off_c, 0, 71, 100
2, 4704, Note_on_c, 0, 72, 110
2, 4796, Note_off_c, 0, 72, 100
2, 4800, Note_on_c, 0, 74, 110
2, 4892, Note_off_c, 0, 74, 100
2, 4896, Note_on_c, 0, 75, 110
2, 4988, Note_off_c, 0, 75, 100
2, 5088, Note_on_c, 0, 75, 110
2, 5112, Note_on_c, 0, 77, 110
2, 5132, Note_off_c, 0, 75, 100
2, 5136, Note_on_c, 0, 75, 110
2, 5156, Note_off_c, 0, 77, 100
2, 5180, Note_off_c, 0, 75, 100
2, 5184, Note_on_c, 0, 79, 110
2, 5276, Note_off_c, 0, 79, 100
2, 5280, Note_on_c, 0, 75, 110
2, 5372, Note_off_c, 0, 75, 100
2, 5376, Note_on_c, 0, 74, 110
2, 5756, Note_off_c, 0, 74, 100
2, 5760, Note_on_c, 0, 72, 110
2, 5784, Note_on_c, 0, 74, 110
2, 5804, Note_off_c, 0, 72, 100
2, 5808, Note_on_c, 0, 72, 110
2, 5828, Note_off_c, 0, 74, 100
2, 5832, Note_on_c, 0, 74, 110
2, 5852, Note_off_c, 0, 72, 100
2, 5856, Note_on_c, 0, 72, 110
2, 5876, Note_off_c, 0, 74, 100
2, 5880, Note_on_c, 0, 74, 110
2, 5900, Note_off_c, 0, 72, 100
2, 5904, Note_on_c, 0, 72, 110
2, 5924, Note_off_c, 0, 74, 100
2, 5928, Note_on_c, 0, 74, 110
2, 5948, Note_off_c, 0, 72, 100
2, 5952, Note_on_c, 0, 72, 110
2, 5972, Note_off_c, 0, 74, 100
2, 5976, Note_on_c, 0, 74, 110
2, 5996, Note_off_c, 0, 72, 100
2, 6000, Note_on_c, 0, 72, 110
2, 6020, Note_off_c, 0, 74, 100
2, 6024, Note_on_c, 0, 74, 110
2, 6044, Note_off_c, 0, 72, 100
2, 6048, Note_on_c, 0, 72, 110
2, 6068, Note_off_c, 0, 74, 100
2, 6080, Note_on_c, 0, 70, 110
2, 6092, Note_off_c, 0, 72, 100
2, 6112, Note_on_c, 0, 72, 110
2, 6124, Note_off_c, 0, 70, 100
2, 6140, Note_off_c, 0, 72, 100
2, 6144, Note_on_c, 0, 70, 110
2, 6524, Note_off_c, 0, 70, 100
2, 6720, Note_on_c, 0, 70, 70
2, 6744, Note_on_c, 0, 72, 70
2, 6764, Note_off_c, 0, 70, 100
2, 6768, Note_on_c, 0, 70, 70
2, 6788, Note_off_c, 0, 72, 100
2, 6860, Note_off_c, 0, 70, 100
2, 6864, Note_on_c, 0, 70, 70
2, 6908, Note_off_c, 0, 70, 100
2, 6912, Note_on_c, 0, 77, 70
2, 7100, Note_off_c, 0, 77, 100
2, 7104, Note_on_c, 0, 77, 70
2, 7388, Note_off_c, 0, 77, 100
2, 7392, Note_on_c, 0, 79, 70
2, 7484, Note_off_c, 0, 79, 100
2, 7488, Note_on_c, 0, 81, 70
2, 7580, Note_off_c, 0, 81, 100
2, 7584, Note_on_c, 0, 82, 70
2, 7676, Note_off_c, 0, 82, 100
2, 7680, Note_on_c, 0, 84, 70
2, 7724, Note_off_c, 0, 84, 100
2, 7728, Note_on_c, 0, 81, 70
2, 7772, Note_off_c, 0, 81, 100
2, 7776, Note_on_c, 0, 84, 70
2, 7820, Note_off_c, 0, 84, 100
2, 7824, Note_on_c, 0, 81, 70
2, 7868, Note_off_c, 0, 81, 100
2, 7872, Note_on_c, 0, 77, 70
2, 8060, Note_off_c, 0, 77, 100
2, 8160, Note_on_c, 0, 77, 70
2, 8184, Note_on_c, 0, 79, 70
2, 8204, Note_off_c, 0, 77, 100
2, 8208, Note_on_c, 0, 77, 70
2, 8228, Note_off_c, 0, 79, 100
2, 8252, Note_off_c, 0, 77, 100
2, 8256, Note_on_c, 0, 81, 70
2, 8256, Note_on_c, 0, 77, 70
2, 8348, Note_off_c, 0, 81, 100
2, 8348, Note_off_c, 0, 77, 100
2, 8352, Note_on_c, 0, 84, 70
2, 8352, Note_on_c, 0, 75, 70
2, 8444, Note_off_c, 0, 84, 100
2, 8444, Note_off_c, 0, 75, 100
2, 8448, Note_on_c, 0, 84, 70
2, 8448, Note_on_c, 0, 75, 70
2, 8540, Note_off_c, 0, 84, 100
2, 8540, Note_off_c, 0, 75, 100
2, 8544, Note_on_c, 0, 82, 70
2, 8544, Note_on_c, 0, 74, 70
2, 8636, Note_off_c, 0, 82, 100
2, 8636, Note_off_c, 0, 74, 100
2, 8640, Note_on_c, 0, 82, 70
2, 8640, Note_on_c, 0, 74, 70
2, 8924, Note_off_c, 0, 82, 100
2, 8924, Note_off_c, 0, 74, 100
2, 8928, Note_on_c, 0, 81, 70
2, 8928, Note_on_c, 0, 72, 70
2, 9020, Note_off_c, 0, 81, 100
2, 9020, Note_off_c, 0, 72, 100
2, 9024, Note_on_c, 0, 79, 70
2, 9024, Note_on_c, 0, 70, 70
2, 9116, Note_off_c, 0, 79, 100
2, 9116, Note_off_c, 0, 70, 100
2, 9120, Note_on_c, 0, 77, 70
2, 9120, Note_on_c, 0, 69, 70
2, 9212, Note_off_c, 0, 77, 100
2, 9212, Note_off_c, 0, 69, 100
2, 9216, Note_on_c, 0, 77, 70
2, 9216, Note_on_c, 0, 69, 70
2, 9596, Note_off_c, 0, 77, 100
2, 9596, Note_off_c, 0, 69, 100
2, 9600, Note_on_c, 0, 67, 70
2, 9600, Note_on_c, 0, 76, 70
2, 9788, Note_off_c, 0, 67, 100
2, 9788, Note_off_c, 0, 76, 100
2, 9792, Note_on_c, 0, 53, 100
2, 9932, Note_off_c, 0, 53, 100
2, 9936, Note_on_c, 0, 57, 100
2, 9980, Note_off_c, 0, 57, 100
2, 9984, Note_on_c, 0, 60, 100
2, 10172, Note_off_c, 0, 60, 100
2, 10176, Note_on_c, 0, 60, 100
2, 10364, Note_off_c, 0, 60, 100
2, 10416, Note_on_c, 0, 60, 100
2, 10460, Note_off_c, 0, 60, 100
2, 10464, Note_on_c, 0, 59, 100
2, 10508, Note_off_c, 0, 59, 100
2, 10512, Note_on_c, 0, 60, 100
2, 10556, Note_off_c, 0, 60, 100
2, 10560, Note_on_c, 0, 62, 100
2, 10604, Note_off_c, 0, 62, 100
2, 10608, Note_on_c, 0, 60, 100
2, 10652, Note_off_c, 0, 60, 100
2, 10656, Note_on_c, 0, 58, 100
2, 10700, Note_off_c, 0, 58, 100
2, 10704, Note_on_c, 0, 57, 100
2, 10748, Note_off_c, 0, 57, 100
2, 10752, Note_on_c, 0, 60, 100
2, 10844, Note_off_c, 0, 60, 100
2, 10848, Note_on_c, 0, 58, 100
2, 10940, Note_off_c, 0, 58, 100
2, 10944, Note_on_c, 0, 58, 100
2, 11132, Note_off_c, 0, 58, 100
2, 11328, Note_on_c, 0, 52, 100
2, 11468, Note_off_c, 0, 52, 100
2, 11472, Note_on_c, 0, 55, 100
2, 11516, Note_off_c, 0, 55, 100
2, 11520, Note_on_c, 0, 58, 100
2, 11708, Note_off_c, 0, 58, 100
2, 11712, Note_on_c, 0, 58, 100
2, 11900, Note_off_c, 0, 58, 100
2, 11952, Note_on_c, 0, 58, 100
2, 11976, Note_on_c, 0, 60, 100
2, 11996, Note_off_c, 0, 58, 100
2, 12000, Note_on_c, 0, 58, 100
2, 12020, Note_off_c, 0, 60, 100
2, 12024, Note_on_c, 0, 57, 100
2, 12044, Note_off_c, 0, 58, 100
2, 12048, Note_on_c, 0, 58, 100
2, 12068, Note_off_c, 0, 57, 100
2, 12092, Note_off_c, 0, 58, 100
2, 12096, Note_on_c, 0, 60, 100
2, 12140, Note_off_c, 0, 60, 100
2, 12144, Note_on_c, 0, 58, 100
2, 12188, Note_off_c, 0, 58, 100
2, 12192, Note_on_c, 0, 57, 100
2, 12236, Note_off_c, 0, 57, 100
2, 12240, Note_on_c, 0, 55, 100
2, 12284, Note_off_c, 0, 55, 100
2, 12288, Note_on_c, 0, 53, 100
2, 12332, Note_off_c, 0, 53, 100
2, 12336, Note_on_c, 0, 57, 100
2, 12380, Note_off_c, 0, 57, 100
2, 12384, Note_on_c, 0, 60, 100
2, 12428, Note_off_c, 0, 60, 100
2, 12432, Note_on_c, 0, 65, 100
2, 12476, Note_off_c, 0, 65, 100
2, 12480, Note_on_c, 0, 57, 100
2, 12524, Note_off_c, 0, 57, 100
2, 12528, Note_on_c, 0, 60, 100
2, 12572, Note_off_c, 0, 60, 100
2, 12576, Note_on_c, 0, 65, 100
2, 12620, Note_off_c, 0, 65, 100
2, 12624, Note_on_c, 0, 69, 100
2, 12668, Note_off_c, 0, 69, 100
2, 12672, Note_on_c, 0, 60, 100
2, 12716, Note_off_c, 0, 60, 100
2, 12720, Note_on_c, 0, 65, 100
2, 12764, Note_off_c, 0, 65, 100
2, 12768, Note_on_c, 0, 69, 100
2, 12812, Note_off_c, 0, 69, 100
2, 12816, Note_on_c, 0, 72, 100
2, 12860, Note_off_c, 0, 72, 100
2, 12864, Note_on_c, 0, 65, 100
2, 12908, Note_off_c, 0, 65, 100
2, 12912, Note_on_c, 0, 69, 100
2, 12956, Note_off_c, 0, 69, 100
2, 12960, Note_on_c, 0, 72, 100
2, 13004, Note_off_c, 0, 72, 100
2, 13008, Note_on_c, 0, 77, 100
2, 13052, Note_off_c, 0, 77, 100
2, 13056, Note_on_c, 0, 77, 100
2, 13148, Note_off_c, 0, 77, 100
2, 13152, Note_on_c, 0, 67, 100
2, 13244, Note_off_c, 0, 67, 100
2, 13248, Note_on_c, 0, 67, 100
2, 13340, Note_off_c, 0, 67, 100
2, 13344, Note_on_c, 0, 74, 100
2, 13344, Note_on_c, 0, 70, 100
2, 13436, Note_off_c, 0, 74, 100
2, 13436, Note_off_c, 0, 70, 100
2, 13440, Note_on_c, 0, 70, 100
2, 13440, Note_on_c, 0, 74, 100
2, 13532, Note_off_c, 0, 70, 100
2, 13532, Note_off_c, 0, 74, 100
2, 13536, Note_on_c, 0, 69, 100
2, 13536, Note_on_c, 0, 72, 100
2, 13628, Note_off_c, 0, 69, 100
2, 13628, Note_off_c, 0, 72, 100
2, 13632, Note_on_c, 0, 67, 100
2, 13632, Note_on_c, 0, 70, 100
2, 13724, Note_off_c, 0, 67, 100
2, 13724, Note_off_c, 0, 70, 100
2, 13728, Note_on_c, 0, 65, 100
2, 13728, Note_on_c, 0, 69, 100
2, 13820, Note_off_c, 0, 65, 100
2, 13820, Note_off_c, 0, 69, 100
2, 13824, Note_on_c, 0, 65, 100
2, 13824, Note_on_c, 0, 69, 100
2, 13848, Note_on_c, 0, 70, 100
2, 13868, Note_off_c, 0, 69, 100
2, 13872, Note_on_c, 0, 69, 100
2, 13892, Note_off_c, 0, 70, 100
2, 14204, Note_off_c, 0, 65, 100
2, 14204, Note_off_c, 0, 69, 100
2, 14208, Note_on_c, 0, 64, 100
2, 14208, Note_on_c, 0, 67, 100
2, 14396, Note_off_c, 0, 64, 100
2, 14396, Note_off_c, 0, 67, 100
2, 14400, Note_on_c, 0, 60, 100
2, 14424, Note_on_c, 0, 62, 100
2, 14444, Note_off_c, 0, 60, 100
2, 14448, Note_on_c, 0, 60, 100
2, 14468, Note_off_c, 0, 62, 100
2, 14540, Note_off_c, 0, 60, 100
2, 14544, Note_on_c, 0, 60, 100
2, 14588, Note_off_c, 0, 60, 100
2, 14592, Note_on_c, 0, 70, 100
2, 14824, Note_off_c, 0, 70, 100
2, 14832, Note_on_c, 0, 72, 100
2, 14876, Note_off_c, 0, 72, 100
2, 14880, Note_on_c, 0, 70, 100
2, 14924, Note_off_c, 0, 70, 100
2, 14928, Note_on_c, 0, 69, 100
2, 14972, Note_off_c, 0, 69, 100
2, 14976, Note_on_c, 0, 67, 100
2, 15068, Note_off_c, 0, 67, 100
2, 15072, Note_on_c, 0, 76, 100
2, 15096, Note_on_c, 0, 77, 100
2, 15116, Note_off_c, 0, 76, 100
2, 15120, Note_on_c, 0, 76, 100
2, 15140, Note_off_c, 0, 77, 100
2, 15164, Note_off_c, 0, 76, 100
2, 15168, Note_on_c, 0, 79, 100
2, 15260, Note_off_c, 0, 79, 100
2, 15264, Note_on_c, 0, 70, 100
2, 15356, Note_off_c, 0, 70, 100
2, 15360, Note_on_c, 0, 69, 100
2, 15404, Note_off_c, 0, 69, 100
2, 15408, Note_on_c, 0, 70, 100
2, 15452, Note_off_c, 0, 70, 100
2, 15456, Note_on_c, 0, 72, 100
2, 15500, Note_off_c, 0, 72, 100
2, 15504, Note_on_c, 0, 74, 100
2, 15548, Note_off_c, 0, 74, 100
2, 15552, Note_on_c, 0, 72, 100
2, 15740, Note_off_c, 0, 72, 100
2, 15936, Note_on_c, 0, 60, 100
2, 16076, Note_off_c, 0, 60, 100
2, 16080, Note_on_c, 0, 60, 100
2, 16124, Note_off_c, 0, 60, 100
2, 16128, Note_on_c, 0, 70, 100
2, 16360, Note_off_c, 0, 70, 100
2, 16368, Note_on_c, 0, 72, 100
2, 16412, Note_off_c, 0, 72, 100
2, 16416, Note_on_c, 0, 70, 100
2, 16460, Note_off_c, 0, 70, 100
2, 16464, Note_on_c, 0, 69, 100
2, 16508, Note_off_c, 0, 69, 100
2, 16512, Note_on_c, 0, 67, 100
2, 16604, Note_off_c, 0, 67, 100
2, 16608, Note_on_c, 0, 72, 100
2, 16796, Note_off_c, 0, 72, 100
2, 16800, Note_on_c, 0, 70, 100
2, 16892, Note_off_c, 0, 70, 100
2, 16896, Note_on_c, 0, 69, 100
2, 16940, Note_off_c, 0, 69, 100
2, 16944, Note_on_c, 0, 65, 100
2, 16988, Note_off_c, 0, 65, 100
2, 16992, Note_on_c, 0, 67, 100
2, 17036, Note_off_c, 0, 67, 100
2, 17040, Note_on_c, 0, 69, 100
2, 17084, Note_off_c, 0, 69, 100
2, 17088, Note_on_c, 0, 70, 100
2, 17132, Note_off_c, 0, 70, 100
2, 17136, Note_on_c, 0, 72, 100
2, 17180, Note_off_c, 0, 72, 100
2, 17184, Note_on_c, 0, 74, 100
2, 17228, Note_off_c, 0, 74, 100
2, 17232, Note_on_c, 0, 76, 100
2, 17276, Note_off_c, 0, 76, 100
2, 17280, Note_on_c, 0, 77, 100
2, 17324, Note_off_c, 0, 77, 100
2, 17328, Note_on_c, 0, 81, 100
2, 17372, Note_off_c, 0, 81, 100
2, 17376, Note_on_c, 0, 79, 100
2, 17420, Note_off_c, 0, 79, 100
2, 17424, Note_on_c, 0, 82, 100
2, 17468, Note_off_c, 0, 82, 100
2, 17472, Note_on_c, 0, 81, 100
2, 17516, Note_off_c, 0, 81, 100
2, 17520, Note_on_c, 0, 84, 100
2, 17564, Note_off_c, 0, 84, 100
2, 17568, Note_on_c, 0, 76, 100
2, 17612, Note_off_c, 0, 76, 100
2, 17616, Note_on_c, 0, 79, 100
2, 17660, Note_off_c, 0, 79, 100
2, 17664, Note_on_c, 0, 77, 100
2, 17852, Note_off_c, 0, 77, 100
2, 17856, Note_on_c, 0, 87, 100
2, 18044, Note_off_c, 0, 87, 100
2, 18048, Note_on_c, 0, 86, 100
2, 18092, Note_off_c, 0, 86, 100
2, 18096, Note_on_c, 0, 81, 100
2, 18140, Note_off_c, 0, 81, 100
2, 18144, Note_on_c, 0, 82, 100
2, 18188, Note_off_c, 0, 82, 100
2, 18192, Note_on_c, 0, 78, 100
2, 18236, Note_off_c, 0, 78, 100
2, 18240, Note_on_c, 0, 79, 100
2, 18264, Note_on_c, 0, 81, 100
2, 18284, Note_off_c, 0, 79, 100
2, 18288, Note_on_c, 0, 79, 100
2, 18308, Note_off_c, 0, 81, 100
2, 18312, Note_on_c, 0, 78, 100
2, 18332, Note_off_c, 0, 79, 100
2, 18336, Note_on_c, 0, 79, 100
2, 18356, Note_off_c, 0, 78, 100
2, 18380, Note_off_c, 0, 79, 100
2, 18384, Note_on_c, 0, 86, 100
2, 18428, Note_off_c, 0, 86, 100
2, 18432, Note_on_c, 0, 84, 100
2, 18432, Note_on_c, 0, 81, 100
2, 18524, Note_off_c, 0, 84, 100
2, 18524, Note_off_c, 0, 81, 100
2, 18528, Note_on_c, 0, 81, 100
2, 18528, Note_on_c, 0, 77, 100
2, 18716, Note_off_c, 0, 81, 100
2, 18716, Note_off_c, 0, 77, 100
2, 18720, Note_on_c, 0, 84, 100
2, 18720, Note_on_c, 0, 81, 100
2, 18812, Note_off_c, 0, 84, 100
2, 18812, Note_off_c, 0, 81, 100
2, 18816, Note_on_c, 0, 84, 100
2, 18816, Note_on_c, 0, 81, 100
2, 18908, Note_off_c, 0, 84, 100
2, 18908, Note_off_c, 0, 81, 100
2, 18912, Note_on_c, 0, 82, 100
2, 18912, Note_on_c, 0, 79, 100
2, 19004, Note_off_c, 0, 82, 100
2, 19004, Note_off_c, 0, 79, 100
2, 19008, Note_on_c, 0, 81, 100
2, 19008, Note_on_c, 0, 77, 100
2, 19100, Note_off_c, 0, 81, 100
2, 19100, Note_off_c, 0, 77, 100
2, 19104, Note_on_c, 0, 79, 85
2, 19104, Note_on_c, 0, 76, 85
2, 19196, Note_off_c, 0, 79, 100
2, 19196, Note_off_c, 0, 76, 100
2, 19200, Note_on_c, 0, 76, 70
2, 19224, Note_on_c, 0, 77, 70
2, 19244, Note_off_c, 0, 76, 100
2, 19248, Note_on_c, 0, 79, 70
2, 19268, Note_off_c, 0, 77, 100
2, 19272, Note_on_c, 0, 77, 70
2, 19292, Note_off_c, 0, 79, 100
2, 19388, Note_off_c, 0, 77, 100
2, 19392, Note_on_c, 0, 77, 70
2, 19580, Note_off_c, 0, 77, 100
2, 19752, Note_on_c, 0, 80, 70
2, 19776, Note_on_c, 0, 81, 70
2, 19796, Note_off_c, 0, 80, 100
2, 19916, Note_off_c, 0, 81, 100
2, 19920, Note_on_c, 0, 77, 70
2, 19964, Note_off_c, 0, 77, 100
2, 19968, Note_on_c, 0, 77, 70
2, 19992, Note_on_c, 0, 76, 70
2, 20012, Note_off_c, 0, 77, 100
2, 20156, Note_off_c, 0, 76, 100
2, 20160, Note_on_c, 0, 76, 70
2, 20348, Note_off_c, 0, 76, 100
2, 20544, Note_on_c, 0, 84, 70
2, 20588, Note_off_c, 0, 84, 100
2, 20592, Note_on_c, 0, 82, 70
2, 20636, Note_off_c, 0, 82, 100
2, 20640, Note_on_c, 0, 81, 70
2, 20684, Note_off_c, 0, 81, 100
2, 20688, Note_on_c, 0, 79, 70
2, 20732, Note_off_c, 0, 79, 100
2, 20736, Note_on_c, 0, 76, 70
2, 20760, Note_on_c, 0, 77, 70
2, 20780, Note_off_c, 0, 76, 100
2, 20784, Note_on_c, 0, 79, 70
2, 20804, Note_off_c, 0, 77, 100
2, 20808, Note_on_c, 0, 77, 70
2, 20828, Note_off_c, 0, 79, 100
2, 20924, Note_off_c, 0, 77, 100
2, 20928, Note_on_c, 0, 77, 70
2, 21116, Note_off_c, 0, 77, 100
2, 21288, Note_on_c, 0, 80, 70
2, 21312, Note_on_c, 0, 81, 70
2, 21332, Note_off_c, 0, 80, 100
2, 21452, Note_off_c, 0, 81, 100
2, 21456, Note_on_c, 0, 77, 70
2, 21500, Note_off_c, 0, 77, 100
2, 21504, Note_on_c, 0, 77, 70
2, 21528, Note_on_c, 0, 76, 70
2, 21548, Note_off_c, 0, 77, 100
2, 21692, Note_off_c, 0, 76, 100
2, 21696, Note_on_c, 0, 76, 70
2, 21884, Note_off_c, 0, 76, 100
2, 22080, Note_on_c, 0, 84, 70
2, 22124, Note_off_c, 0, 84, 100
2, 22128, Note_on_c, 0, 82, 70
2, 22172, Note_off_c, 0, 82, 100
2, 22176, Note_on_c, 0, 81, 70
2, 22220, Note_off_c, 0, 81, 100
2, 22224, Note_on_c, 0, 79, 70
2, 22268, Note_off_c, 0, 79, 100
2, 22272, Note_on_c, 0, 77, 70
2, 22412, Note_off_c, 0, 77, 100
2, 22416, Note_on_c, 0, 81, 70
2, 22460, Note_off_c, 0, 81, 100
2, 22464, Note_on_c, 0, 79, 70
2, 22604, Note_off_c, 0, 79, 100
2, 22608, Note_on_c, 0, 76, 70
2, 22652, Note_off_c, 0, 76, 100
2, 22656, Note_on_c, 0, 77, 70
2, 22796, Note_off_c, 0, 77, 100
2, 22800, Note_on_c, 0, 81, 70
2, 22844, Note_off_c, 0, 81, 100
2, 22848, Note_on_c, 0, 79, 70
2, 22988, Note_off_c, 0, 79, 100
2, 22992, Note_on_c, 0, 76, 70
2, 23036, Note_off_c, 0, 76, 100
2, 23040, Note_on_c, 0, 76, 70
2, 23040, Note_on_c, 0, 70, 70
2, 23420, Note_off_c, 0, 76, 100
2, 23420, Note_off_c, 0, 70, 100
2, 23424, Note_on_c, 0, 77, 70
2, 23424, Note_on_c, 0, 69, 70
2, 23612, Note_off_c, 0, 77, 100
2, 23612, Note_off_c, 0, 69, 100
2, 23616, Note_on_c, 0, 84, 120
2, 23660, Note_off_c, 0, 84, 100
2, 23664, Note_on_c, 0, 83, 120
2, 23708, Note_off_c, 0, 83, 100
2, 23712, Note_on_c, 0, 84, 120
2, 23756, Note_off_c, 0, 84, 100
2, 23760, Note_on_c, 0, 81, 120
2, 23804, Note_off_c, 0, 81, 100
2, 23808, Note_on_c, 0, 77, 120
2, 23832, Note_on_c, 0, 79, 120
2, 23852, Note_off_c, 0, 77, 100
2, 23856, Note_on_c, 0, 77, 120
2, 23876, Note_off_c, 0, 79, 100
2, 23996, Note_off_c, 0, 77, 100
2, 24000, Note_on_c, 0, 77, 120
2, 24232, Note_off_c, 0, 77, 100
2, 24240, Note_on_c, 0, 79, 120
2, 24284, Note_off_c, 0, 79, 100
2, 24288, Note_on_c, 0, 81, 120
2, 24332, Note_off_c, 0, 81, 100
2, 24336, Note_on_c, 0, 82, 120
2, 24380, Note_off_c, 0, 82, 100
2, 24384, Note_on_c, 0, 84, 120
2, 24428, Note_off_c, 0, 84, 100
2, 24432, Note_on_c, 0, 86, 120
2, 24476, Note_off_c, 0, 86, 100
2, 24480, Note_on_c, 0, 88, 120
2, 24524, Note_off_c, 0, 88, 100
2, 24528, Note_on_c, 0, 89, 120
2, 24572, Note_off_c, 0, 89, 100
2, 24576, Note_on_c, 0, 89, 120
2, 24668, Note_off_c, 0, 89, 100
2, 24672, Note_on_c, 0, 88, 120
2, 24764, Note_off_c, 0, 88, 100
2, 24768, Note_on_c, 0, 88, 120
2, 24956, Note_off_c, 0, 88, 100
2, 25056, Note_on_c, 0, 84, 120
2, 25080, Note_on_c, 0, 86, 120
2, 25100, Note_off_c, 0, 84, 100
2, 25104, Note_on_c, 0, 84, 120
2, 25124, Note_off_c, 0, 86, 100
2, 25148, Note_off_c, 0, 84, 100
2, 25152, Note_on_c, 0, 88, 120
2, 25244, Note_off_c, 0, 88, 100
2, 25248, Note_on_c, 0, 84, 120
2, 25340, Note_off_c, 0, 84, 100
2, 25344, Note_on_c, 0, 78, 120
2, 25368, Note_on_c, 0, 79, 120
2, 25388, Note_off_c, 0, 78, 100
2, 25532, Note_off_c, 0, 79, 100
2, 25536, Note_on_c, 0, 79, 120
2, 25724, Note_off_c, 0, 79, 100
2, 25824, Note_on_c, 0, 79, 120
2, 25848, Note_on_c, 0, 81, 120
2, 25868, Note_off_c, 0, 79, 100
2, 25872, Note_on_c, 0, 79, 120
2, 25892, Note_off_c, 0, 81, 100
2, 25916, Note_off_c, 0, 79, 100
2, 25920, Note_on_c, 0, 81, 120
2, 26012, Note_off_c, 0, 81, 100
2, 26016, Note_on_c, 0, 82, 120
2, 26108, Note_off_c, 0, 82, 100
2, 26112, Note_on_c, 0, 82, 120
2, 26156, Note_off_c, 0, 82, 100
2, 26160, Note_on_c, 0, 81, 120
2, 26204, Note_off_c, 0, 81, 100
2, 26208, Note_on_c, 0, 80, 120
2, 26252, Note_off_c, 0, 80, 100
2, 26256, Note_on_c, 0, 81, 120
2, 26300, Note_off_c, 0, 81, 100
2, 26304, Note_on_c, 0, 84, 120
2, 26348, Note_off_c, 0, 84, 100
2, 26352, Note_on_c, 0, 81, 120
2, 26396, Note_off_c, 0, 81, 100
2, 26400, Note_on_c, 0, 79, 120
2, 26444, Note_off_c, 0, 79, 100
2, 26448, Note_on_c, 0, 77, 120
2, 26492, Note_off_c, 0, 77, 100
2, 26496, Note_on_c, 0, 75, 120
2, 26540, Note_off_c, 0, 75, 100
2, 26544, Note_on_c, 0, 74, 120
2, 26588, Note_off_c, 0, 74, 100
2, 26592, Note_on_c, 0, 73, 120
2, 26636, Note_off_c, 0, 73, 100
2, 26640, Note_on_c, 0, 74, 120
2, 26684, Note_off_c, 0, 74, 100
2, 26688, Note_on_c, 0, 84, 120
2, 26732, Note_off_c, 0, 84, 100
2, 26736, Note_on_c, 0, 82, 120
2, 26780, Note_off_c, 0, 82, 100
2, 26784, Note_on_c, 0, 81, 120
2, 26828, Note_off_c, 0, 81, 100
2, 26832, Note_on_c, 0, 79, 120
2, 26876, Note_off_c, 0, 79, 100
2, 26880, Note_on_c, 0, 77, 120
2, 27260, Note_off_c, 0, 77, 100
2, 27264, Note_on_c, 0, 79, 120
2, 27288, Note_on_c, 0, 81, 120
2, 27308, Note_off_c, 0, 79, 100
2, 27312, Note_on_c, 0, 79, 120
2, 27332, Note_off_c, 0, 81, 100
2, 27336, Note_on_c, 0, 81, 120
2, 27356, Note_off_c, 0, 79, 100
2, 27360, Note_on_c, 0, 79, 120
2, 27380, Note_off_c, 0, 81, 100
2, 27384, Note_on_c, 0, 81, 120
2, 27404, Note_off_c, 0, 79, 100
2, 27408, Note_on_c, 0, 79, 120
2, 27428, Note_off_c, 0, 81, 100
2, 27432, Note_on_c, 0, 81, 120
2, 27452, Note_off_c, 0, 79, 100
2, 27456, Note_on_c, 0, 79, 120
2, 27476, Note_off_c, 0, 81, 100
2, 27480, Note_on_c, 0, 81, 120
2, 27500, Note_off_c, 0, 79, 100
2, 27504, Note_on_c, 0, 79, 120
2, 27524, Note_off_c, 0, 81, 100
2, 27528, Note_on_c, 0, 81, 120
2, 27548, Note_off_c, 0, 79, 100
2, 27552, Note_on_c, 0, 79, 120
2, 27572, Note_off_c, 0, 81, 100
2, 27584, Note_on_c, 0, 77, 120
2, 27596, Note_off_c, 0, 79, 100
2, 27616, Note_on_c, 0, 79, 120
2, 27628, Note_off_c, 0, 77, 100
2, 27644, Note_off_c, 0, 79, 100
2, 27648, Note_on_c, 0, 77, 120
2, 28412, Note_off_c, 0, 77, 100
2, 28416, Note_on_c, 0, 69, 70
2, 28440, Note_on_c, 0, 70, 70
2, 28460, Note_off_c, 0, 69, 100
2, 28604, Note_off_c, 0, 70, 100
2, 28608, Note_on_c, 0, 70, 70
2, 28892, Note_off_c, 0, 70, 100
2, 28896, Note_on_c, 0, 74, 70
2, 28988, Note_off_c, 0, 74, 100
2, 28992, Note_on_c, 0, 72, 70
2, 29084, Note_off_c, 0, 72, 100
2, 29088, Note_on_c, 0, 70, 70
2, 29180, Note_off_c, 0, 70, 100
2, 29184, Note_on_c, 0, 70, 70
2, 29208, Note_on_c, 0, 69, 70
2, 29228, Note_off_c, 0, 70, 100
2, 29372, Note_off_c, 0, 69, 100
2, 29376, Note_on_c, 0, 69, 70
2, 29564, Note_off_c, 0, 69, 100
2, 29760, Note_on_c, 0, 65, 70
2, 29784, Note_on_c, 0, 67, 70
2, 29804, Note_off_c, 0, 65, 100
2, 29808, Note_on_c, 0, 65, 70
2, 29828, Note_off_c, 0, 67, 100
2, 29900, Note_off_c, 0, 65, 100
2, 29904, Note_on_c, 0, 65, 70
2, 29948, Note_off_c, 0, 65, 100
2, 29952, Note_on_c, 0, 72, 70
2, 30140, Note_off_c, 0, 72, 100
2, 30144, Note_on_c, 0, 72, 70
2, 30332, Note_off_c, 0, 72, 100
2, 30336, Note_on_c, 0, 72, 70
2, 30428, Note_off_c, 0, 72, 100
2, 30432, Note_on_c, 0, 75, 70
2, 30524, Note_off_c, 0, 75, 100
2, 30528, Note_on_c, 0, 74, 70
2, 30620, Note_off_c, 0, 74, 100
2, 30624, Note_on_c, 0, 72, 70
2, 30716, Note_off_c, 0, 72, 100
2, 30720, Note_on_c, 0, 70, 70
2, 30764, Note_off_c, 0, 70, 100
2, 30768, Note_on_c, 0, 72, 70
2, 30812, Note_off_c, 0, 72, 100
2, 30816, Note_on_c, 0, 70, 70
2, 30860, Note_off_c, 0, 70, 100
2, 30864, Note_on_c, 0, 72, 70
2, 30908, Note_off_c, 0, 72, 100
2, 30912, Note_on_c, 0, 74, 70
2, 30956, Note_off_c, 0, 74, 100
2, 30960, Note_on_c, 0, 75, 70
2, 31004, Note_off_c, 0, 75, 100
2, 31008, Note_on_c, 0, 74, 70
2, 31052, Note_off_c, 0, 74, 100
2, 31056, Note_on_c, 0, 75, 70
2, 31100, Note_off_c, 0, 75, 100
2, 31104, Note_on_c, 0, 77, 70
2, 31148, Note_off_c, 0, 77, 100
2, 31152, Note_on_c, 0, 79, 70
2, 31196, Note_off_c, 0, 79, 100
2, 31200, Note_on_c, 0, 77, 70
2, 31244, Note_off_c, 0, 77, 100
2, 31248, Note_on_c, 0, 79, 70
2, 31292, Note_off_c, 0, 79, 100
2, 31296, Note_on_c, 0, 81, 70
2, 31340, Note_off_c, 0, 81, 100
2, 31344, Note_on_c, 0, 82, 70
2, 31388, Note_off_c, 0, 82, 100
2, 31392, Note_on_c, 0, 81, 70
2, 31436, Note_off_c, 0, 81, 100
2, 31440, Note_on_c, 0, 82, 70
2, 31484, Note_off_c, 0, 82, 100
2, 31488, Note_on_c, 0, 82, 70
2, 31580, Note_off_c, 0, 82, 100
2, 31584, Note_on_c, 0, 72, 70
2, 31676, Note_off_c, 0, 72, 100
2, 31680, Note_on_c, 0, 75, 70
2, 31772, Note_off_c, 0, 75, 100
2, 31776, Note_on_c, 0, 79, 70
2, 31868, Note_off_c, 0, 79, 100
2, 31872, Note_on_c, 0, 75, 70
2, 31872, Note_on_c, 0, 79, 70
2, 31964, Note_off_c, 0, 75, 100
2, 31964, Note_off_c, 0, 79, 100
2, 31968, Note_on_c, 0, 74, 70
2, 31968, Note_on_c, 0, 77, 70
2, 32060, Note_off_c, 0, 74, 100
2, 32060, Note_off_c, 0, 77, 100
2, 32064, Note_on_c, 0, 72, 70
2, 32064, Note_on_c, 0, 75, 70
2, 32156, Note_off_c, 0, 72, 100
2, 32156, Note_off_c, 0, 75, 100
2, 32160, Note_on_c, 0, 70, 70
2, 32160, Note_on_c, 0, 74, 70
2, 32252, Note_off_c, 0, 70, 100
2, 32252, Note_off_c, 0, 74, 100
2, 32256, Note_on_c, 0, 70, 70
2, 32256, Note_on_c, 0, 74, 70
2, 32636, Note_off_c, 0, 70, 100
2, 32636, Note_off_c, 0, 74, 100
2, 32640, Note_on_c, 0, 69, 70
2, 32640, Note_on_c, 0, 72, 70
2, 32828, Note_off_c, 0, 69, 100
2, 32828, Note_off_c, 0, 72, 100
2, 32832, Note_on_c, 0, 58, 70
2, 32972, Note_off_c, 0, 58, 100
2, 32976, Note_on_c, 0, 62, 70
2, 33020, Note_off_c, 0, 62, 100
2, 33024, Note_on_c, 0, 65, 100
2, 33212, Note_off_c, 0, 65, 100
2, 33216, Note_on_c, 0, 65, 100
2, 33404, Note_off_c, 0, 65, 100
2, 33456, Note_on_c, 0, 65, 100
2, 33500, Note_off_c, 0, 65, 100
2, 33504, Note_on_c, 0, 64, 100
2, 33548, Note_off_c, 0, 64, 100
2, 33552, Note_on_c, 0, 65, 100
2, 33596, Note_off_c, 0, 65, 100
2, 33600, Note_on_c, 0, 67, 100
2, 33644, Note_off_c, 0, 67, 100
2, 33648, Note_on_c, 0, 65, 100
2, 33692, Note_off_c, 0, 65, 100
2, 33696, Note_on_c, 0, 63, 100
2, 33740, Note_off_c, 0, 63, 100
2, 33744, Note_on_c, 0, 62, 100
2, 33788, Note_off_c, 0, 62, 100
2, 33792, Note_on_c, 0, 65, 100
2, 33884, Note_off_c, 0, 65, 100
2, 33888, Note_on_c, 0, 63, 100
2, 33980, Note_off_c, 0, 63, 100
2, 33984, Note_on_c, 0, 63, 100
2, 34364, Note_off_c, 0, 63, 100
2, 34368, Note_on_c, 0, 57, 100
2, 34392, Note_on_c, 0, 58, 100
2, 34412, Note_off_c, 0, 57, 100
2, 34416, Note_on_c, 0, 57, 100
2, 34436, Note_off_c, 0, 58, 100
2, 34508, Note_off_c, 0, 57, 100
2, 34512, Note_on_c, 0, 60, 100
2, 34556, Note_off_c, 0, 60, 100
2, 34560, Note_on_c, 0, 63, 100
2, 34748, Note_off_c, 0, 63, 100
2, 34752, Note_on_c, 0, 62, 100
2, 34776, Note_on_c, 0, 63, 100
2, 34796, Note_off_c, 0, 62, 100
2, 34940, Note_off_c, 0, 63, 100
2, 34992, Note_on_c, 0, 63, 100
2, 35016, Note_on_c, 0, 65, 100
2, 35036, Note_off_c, 0, 63, 100
2, 35040, Note_on_c, 0, 63, 100
2, 35060, Note_off_c, 0, 65, 100
2, 35064, Note_on_c, 0, 62, 100
2, 35084, Note_off_c, 0, 63, 100
2, 35088, Note_on_c, 0, 63, 100
2, 35108, Note_off_c, 0, 62, 100
2, 35132, Note_off_c, 0, 63, 100
2, 35136, Note_on_c, 0, 65, 100
2, 35180, Note_off_c, 0, 65, 100
2, 35184, Note_on_c, 0, 63, 100
2, 35228, Note_off_c, 0, 63, 100
2, 35232, Note_on_c, 0, 62, 100
2, 35276, Note_off_c, 0, 62, 100
2, 35280, Note_on_c, 0, 60, 100
2, 35324, Note_off_c, 0, 60, 100
2, 35328, Note_on_c, 0, 58, 100
2, 35372, Note_off_c, 0, 58, 100
2, 35376, Note_on_c, 0, 62, 100
2, 35420, Note_off_c, 0, 62, 100
2, 35424, Note_on_c, 0, 65, 100
2, 35468, Note_off_c, 0, 65, 100
2, 35472, Note_on_c, 0, 70, 100
2, 35516, Note_off_c, 0, 70, 100
2, 35520, Note_on_c, 0, 62, 100
2, 35564, Note_off_c, 0, 62, 100
2, 35568, Note_on_c, 0, 65, 100
2, 35612, Note_off_c, 0, 65, 100
2, 35616, Note_on_c, 0, 70, 100
2, 35660, Note_off_c, 0, 70, 100
2, 35664, Note_on_c, 0, 74, 100
2, 35708, Note_off_c, 0, 74, 100
2, 35712, Note_on_c, 0, 65, 100
2, 35756, Note_off_c, 0, 65, 100
2, 35760, Note_on_c, 0, 70, 100
2, 35804, Note_off_c, 0, 70, 100
2, 35808, Note_on_c, 0, 74, 100
2, 35852, Note_off_c, 0, 74, 100
2, 35856, Note_on_c, 0, 77, 100
2, 35900, Note_off_c, 0, 77, 100
2, 35904, Note_on_c, 0, 70, 100
2, 35948, Note_off_c, 0, 70, 100
2, 35952, Note_on_c, 0, 74, 100
2, 35996, Note_off_c, 0, 74, 100
2, 36000, Note_on_c, 0, 77, 100
2, 36044, Note_off_c, 0, 77, 100
2, 36048, Note_on_c, 0, 82, 100
2, 36092, Note_off_c, 0, 82, 100
2, 36096, Note_on_c, 0, 82, 100
2, 36188, Note_off_c, 0, 82, 100
2, 36192, Note_on_c, 0, 72, 100
2, 36284, Note_off_c, 0, 72, 100
2, 36288, Note_on_c, 0, 75, 100
2, 36380, Note_off_c, 0, 75, 100
2, 36384, Note_on_c, 0, 79, 100
2, 36476, Note_off_c, 0, 79, 100
2, 36480, Note_on_c, 0, 75, 100
2, 36480, Note_on_c, 0, 79, 100
2, 36572, Note_off_c, 0, 75, 100
2, 36572, Note_off_c, 0, 79, 100
2, 36576, Note_on_c, 0, 74, 100
2, 36576, Note_on_c, 0, 77, 100
2, 36668, Note_off_c, 0, 74, 100
2, 36668, Note_off_c, 0, 77, 100
2, 36672, Note_on_c, 0, 72, 100
2, 36672, Note_on_c, 0, 75, 100
2, 36764, Note_off_c, 0, 72, 100
2, 36764, Note_off_c, 0, 75, 100
2, 36768, Note_on_c, 0, 70, 100
2, 36768, Note_on_c, 0, 74, 100
2, 36860, Note_off_c, 0, 70, 100
2, 36860, Note_off_c, 0, 74, 100
2, 36864, Note_on_c, 0, 70, 100
2, 36864, Note_on_c, 0, 74, 100
2, 37244, Note_off_c, 0, 70, 100
2, 37244, Note_off_c, 0, 74, 100
2, 37248, Note_on_c, 0, 69, 100
2, 37248, Note_on_c, 0, 72, 100
2, 37436, Note_off_c, 0, 69, 100
2, 37436, Note_off_c, 0, 72, 100
2, 37440, Note_on_c, 0, 65, 70
2, 37580, Note_off_c, 0, 65, 100
2, 37584, Note_on_c, 0, 65, 70
2, 37628, Note_off_c, 0, 65, 100
2, 37632, Note_on_c, 0, 75, 70
2, 37864, Note_off_c, 0, 75, 100
2, 37872, Note_on_c, 0, 77, 70
2, 37916, Note_off_c, 0, 77, 100
2, 37920, Note_on_c, 0, 75, 70
2, 37964, Note_off_c, 0, 75, 100
2, 37968, Note_on_c, 0, 74, 70
2, 38012, Note_off_c, 0, 74, 100
2, 38016, Note_on_c, 0, 72, 70
2, 38108, Note_off_c, 0, 72, 100
2, 38112, Note_on_c, 0, 81, 70
2, 38136, Note_on_c, 0, 82, 70
2, 38156, Note_off_c, 0, 81, 100
2, 38160, Note_on_c, 0, 81, 70
2, 38180, Note_off_c, 0, 82, 100
2, 38204, Note_off_c, 0, 81, 100
2, 38208, Note_on_c, 0, 84, 70
2, 38300, Note_off_c, 0, 84, 100
2, 38304, Note_on_c, 0, 75, 70
2, 38396, Note_off_c, 0, 75, 100
2, 38400, Note_on_c, 0, 74, 100
2, 38444, Note_off_c, 0, 74, 100
2, 38448, Note_on_c, 0, 75, 100
2, 38492, Note_off_c, 0, 75, 100
2, 38496, Note_on_c, 0, 77, 100
2, 38540, Note_off_c, 0, 77, 100
2, 38544, Note_on_c, 0, 79, 100
2, 38588, Note_off_c, 0, 79, 100
2, 38592, Note_on_c, 0, 77, 100
2, 38780, Note_off_c, 0, 77, 100
2, 38976, Note_on_c, 0, 65, 100
2, 39116, Note_off_c, 0, 65, 100
2, 39120, Note_on_c, 0, 65, 100
2, 39164, Note_off_c, 0, 65, 100
2, 39168, Note_on_c, 0, 75, 120
2, 39400, Note_off_c, 0, 75, 100
2, 39408, Note_on_c, 0, 77, 120
2, 39452, Note_off_c, 0, 77, 100
2, 39456, Note_on_c, 0, 75, 120
2, 39500, Note_off_c, 0, 75, 100
2, 39504, Note_on_c, 0, 74, 120
2, 39548, Note_off_c, 0, 74, 100
2, 39552, Note_on_c, 0, 72, 120
2, 39596, Note_off_c, 0, 72, 100
2, 39600, Note_on_c, 0, 81, 120
2, 39644, Note_off_c, 0, 81, 100
2, 39648, Note_on_c, 0, 84, 120
2, 39692, Note_off_c, 0, 84, 100
2, 39696, Note_on_c, 0, 82, 120
2, 39740, Note_off_c, 0, 82, 100
2, 39744, Note_on_c, 0, 81, 120
2, 39788, Note_off_c, 0, 81, 100
2, 39792, Note_on_c, 0, 79, 120
2, 39836, Note_off_c, 0, 79, 100
2, 39840, Note_on_c, 0, 77, 120
2, 39884, Note_off_c, 0, 77, 100
2, 39888, Note_on_c, 0, 75, 120
2, 39932, Note_off_c, 0, 75, 100
2, 39936, Note_on_c, 0, 74, 120
2, 39980, Note_off_c, 0, 74, 100
2, 39984, Note_on_c, 0, 70, 120
2, 40028, Note_off_c, 0, 70, 100
2, 40032, Note_on_c, 0, 72, 120
2, 40076, Note_off_c, 0, 72, 100
2, 40080, Note_on_c, 0, 74, 120
2, 40124, Note_off_c, 0, 74, 100
2, 40128, Note_on_c, 0, 75, 120
2, 40172, Note_off_c, 0, 75, 100
2, 40176, Note_on_c, 0, 77, 120
2, 40220, Note_off_c, 0, 77, 100
2, 40224, Note_on_c, 0, 79, 120
2, 40268, Note_off_c, 0, 79, 100
2, 40272, Note_on_c, 0, 81, 120
2, 40316, Note_off_c, 0, 81, 100
2, 40320, Note_on_c, 0, 82, 120
2, 40364, Note_off_c, 0, 82, 100
2, 40368, Note_on_c, 0, 86, 120
2, 40412, Note_off_c, 0, 86, 100
2, 40416, Note_on_c, 0, 84, 120
2, 40460, Note_off_c, 0, 84, 100
2, 40464, Note_on_c, 0, 87, 120
2, 40508, Note_off_c, 0, 87, 100
2, 40512, Note_on_c, 0, 86, 120
2, 40556, Note_off_c, 0, 86, 100
2, 40560, Note_on_c, 0, 89, 120
2, 40604, Note_off_c, 0, 89, 100
2, 40608, Note_on_c, 0, 81, 120
2, 40652, Note_off_c, 0, 81, 100
2, 40656, Note_on_c, 0, 84, 120
2, 40700, Note_off_c, 0, 84, 100
2, 40704, Note_on_c, 0, 82, 120
2, 41084, Note_off_c, 0, 82, 100
2, 41088, Note_on_c, 0, 80, 120
2, 41468, Note_off_c, 0, 80, 100
2, 41472, Note_on_c, 0, 79, 120
2, 41516, Note_off_c, 0, 79, 100
2, 41520, Note_on_c, 0, 81, 120
2, 41564, Note_off_c, 0, 81, 100
2, 41568, Note_on_c, 0, 82, 120
2, 41612, Note_off_c, 0, 82, 100
2, 41616, Note_on_c, 0, 78, 120
2, 41660, Note_off_c, 0, 78, 100
2, 41664, Note_on_c, 0, 79, 120
2, 41708, Note_off_c, 0, 79, 100
2, 41712, Note_on_c, 0, 74, 120
2, 41756, Note_off_c, 0, 74, 100
2, 41760, Note_on_c, 0, 75, 120
2, 41804, Note_off_c, 0, 75, 100
2, 41808, Note_on_c, 0, 71, 120
2, 41852, Note_off_c, 0, 71, 100
2, 41856, Note_on_c, 0, 72, 120
2, 41900, Note_off_c, 0, 72, 100
2, 41904, Note_on_c, 0, 75, 120
2, 41948, Note_off_c, 0, 75, 100
2, 41952, Note_on_c, 0, 74, 120
2, 41996, Note_off_c, 0, 74, 100
2, 42000, Note_on_c, 0, 72, 120
2, 42044, Note_off_c, 0, 72, 100
2, 42048, Note_on_c, 0, 71, 120
2, 42092, Note_off_c, 0, 71, 100
2, 42096, Note_on_c, 0, 72, 120
2, 42140, Note_off_c, 0, 72, 100
2, 42144, Note_on_c, 0, 75, 120
2, 42188, Note_off_c, 0, 75, 100
2, 42192, Note_on_c, 0, 72, 120
2, 42236, Note_off_c, 0, 72, 100
2, 42240, Note_on_c, 0, 74, 120
2, 42240, Note_on_c, 0, 77, 120
2, 42332, Note_off_c, 0, 74, 100
2, 42332, Note_off_c, 0, 77, 100
2, 42336, Note_on_c, 0, 70, 120
2, 42336, Note_on_c, 0, 74, 120
2, 42524, Note_off_c, 0, 70, 100
2, 42524, Note_off_c, 0, 74, 100
2, 42528, Note_on_c, 0, 74, 120
2, 42528, Note_on_c, 0, 77, 120
2, 42620, Note_off_c, 0, 74, 100
2, 42620, Note_off_c, 0, 77, 100
2, 42624, Note_on_c, 0, 74, 120
2, 42624, Note_on_c, 0, 77, 120
2, 42716, Note_off_c, 0, 74, 100
2, 42716, Note_off_c, 0, 77, 100
2, 42720, Note_on_c, 0, 72, 120
2, 42720, Note_on_c, 0, 75, 120
2, 42812, Note_off_c, 0, 72, 100
2, 42812, Note_off_c, 0, 75, 100
2, 42816, Note_on_c, 0, 70, 100
2, 42816, Note_on_c, 0, 74, 100
2, 42908, Note_off_c, 0, 70, 100
2, 42908, Note_off_c, 0, 74, 100
2, 42912, Note_on_c, 0, 69, 80
2, 42912, Note_on_c, 0, 72, 80
2, 43004, Note_off_c, 0, 69, 100
2, 43004, Note_off_c, 0, 72, 100
2, 43008, Note_on_c, 0, 70, 70
2, 43032, Note_on_c, 0, 72, 70
2, 43052, Note_off_c, 0, 70, 100
2, 43056, Note_on_c, 0, 70, 70
2, 43076, Note_off_c, 0, 72, 100
2, 43196, Note_off_c, 0, 70, 100
2, 43200, Note_on_c, 0, 70, 70
2, 43388, Note_off_c, 0, 70, 100
2, 43584, Note_on_c, 0, 74, 70
2, 43724, Note_off_c, 0, 74, 100
2, 43728, Note_on_c, 0, 70, 70
2, 43772, Note_off_c, 0, 70, 100
2, 43776, Note_on_c, 0, 70, 70
2, 43800, Note_on_c, 0, 69, 70
2, 43820, Note_off_c, 0, 70, 100
2, 43964, Note_off_c, 0, 69, 100
2, 43968, Note_on_c, 0, 69, 70
2, 44156, Note_off_c, 0, 69, 100
2, 44352, Note_on_c, 0, 77, 100
2, 44396, Note_off_c, 0, 77, 100
2, 44400, Note_on_c, 0, 75, 90
2, 44444, Note_off_c, 0, 75, 100
2, 44448, Note_on_c, 0, 74, 80
2, 44492, Note_off_c, 0, 74, 100
2, 44496, Note_on_c, 0, 72, 70
2, 44540, Note_off_c, 0, 72, 100
2, 44544, Note_on_c, 0, 69, 70
2, 44568, Note_on_c, 0, 70, 70
2, 44588, Note_off_c, 0, 69, 100
2, 44732, Note_off_c, 0, 70, 100
2, 44736, Note_on_c, 0, 70, 70
2, 44924, Note_off_c, 0, 70, 100
2, 45096, Note_on_c, 0, 73, 70
2, 45120, Note_on_c, 0, 74, 70
2, 45140, Note_off_c, 0, 73, 100
2, 45260, Note_off_c, 0, 74, 100
2, 45264, Note_on_c, 0, 70, 70
2, 45308, Note_off_c, 0, 70, 100
2, 45312, Note_on_c, 0, 70, 70
2, 45336, Note_on_c, 0, 69, 70
2, 45356, Note_off_c, 0, 70, 100
2, 45500, Note_off_c, 0, 69, 100
2, 45504, Note_on_c, 0, 69, 70
2, 45692, Note_off_c, 0, 69, 100
2, 45888, Note_on_c, 0, 77, 100
2, 45932, Note_off_c, 0, 77, 100
2, 45936, Note_on_c, 0, 75, 90
2, 45980, Note_off_c, 0, 75, 100
2, 45984, Note_on_c, 0, 74, 80
2, 46028, Note_off_c, 0, 74, 100
2, 46032, Note_on_c, 0, 72, 70
2, 46076, Note_off_c, 0, 72, 100
2, 46080, Note_on_c, 0, 70, 70
2, 46220, Note_off_c, 0, 70, 100
2, 46224, Note_on_c, 0, 74, 70
2, 46268, Note_off_c, 0, 74, 100
2, 46272, Note_on_c, 0, 72, 70
2, 46412, Note_off_c, 0, 72, 100
2, 46416, Note_on_c, 0, 69, 70
2, 46460, Note_off_c, 0, 69, 100
2, 46464, Note_on_c, 0, 70, 70
2, 46604, Note_off_c, 0, 70, 100
2, 46608, Note_on_c, 0, 74, 70
2, 46652, Note_off_c, 0, 74, 100
2, 46656, Note_on_c, 0, 72, 70
2, 46796, Note_off_c, 0, 72, 100
2, 46800, Note_on_c, 0, 69, 70
2, 46844, Note_off_c, 0, 69, 100
2, 46848, Note_on_c, 0, 63, 70
2, 46848, Note_on_c, 0, 69, 70
2, 47228, Note_off_c, 0, 63, 100
2, 47228, Note_off_c, 0, 69, 100
2, 47232, Note_on_c, 0, 62, 70
2, 47232, Note_on_c, 0, 70, 70
2, 47612, Note_off_c, 0, 62, 100
2, 47612, Note_off_c, 0, 70, 100
2, 48000, Control_c, 0, 11, 0
2, 48096, Note_on_c, 0, 70, 1
2, 48188, Note_off_c, 0, 70, 100
2, 48188, End_track
3, 0, Start_track
3, 0, Title_t, "Piano Left"
3, 0, Control_c, 1, 0, 0
3, 0, Program_c, 1, 0
3, 0, Control_c, 1, 7, 100
3, 0, Control_c, 1, 10, 57
3, 0, Control_c, 1, 91, 127
3, 0, Key_signature, -2, "major"
3, 768, Note_on_c, 1, 58, 70
3, 860, Note_off_c, 1, 58, 100
3, 864, Note_on_c, 1, 65, 70
3, 956, Note_off_c, 1, 65, 100
3, 960, Note_on_c, 1, 62, 70
3, 1052, Note_off_c, 1, 62, 100
3, 1056, Note_on_c, 1, 65, 70
3, 1148, Note_off_c, 1, 65, 100
3, 1152, Note_on_c, 1, 58, 70
3, 1244, Note_off_c, 1, 58, 100
3, 1248, Note_on_c, 1, 65, 70
3, 1340, Note_off_c, 1, 65, 100
3, 1344, Note_on_c, 1, 63, 70
3, 1436, Note_off_c, 1, 63, 100
3, 1440, Note_on_c, 1, 62, 70
3, 1532, Note_off_c, 1, 62, 100
3, 1536, Note_on_c, 1, 60, 70
3, 1628, Note_off_c, 1, 60, 100
3, 1632, Note_on_c, 1, 65, 70
3, 1724, Note_off_c, 1, 65, 100
3, 1728, Note_on_c, 1, 63, 70
3, 1820, Note_off_c, 1, 63, 100
3, 1824, Note_on_c, 1, 65, 70
3, 1916, Note_off_c, 1, 65, 100
3, 1920, Note_on_c, 1, 60, 70
3, 2012, Note_off_c, 1, 60, 100
3, 2016, Note_on_c, 1, 65, 70
3, 2108, Note_off_c, 1, 65, 100
3, 2112, Note_on_c, 1, 63, 70
3, 2204, Note_off_c, 1, 63, 100
3, 2208, Note_on_c, 1, 65, 70
3, 2300, Note_off_c, 1, 65, 100
3, 2304, Note_on_c, 1, 57, 70
3, 2396, Note_off_c, 1, 57, 100
3, 2400, Note_on_c, 1, 65, 70
3, 2492, Note_off_c, 1, 65, 100
3, 2496, Note_on_c, 1, 60, 70
3, 2588, Note_off_c, 1, 60, 100
3, 2592, Note_on_c, 1, 65, 70
3, 2684, Note_off_c, 1, 65, 100
3, 2688, Note_on_c, 1, 57, 70
3, 2780, Note_off_c, 1, 57, 100
3, 2784, Note_on_c, 1, 60, 70
3, 2876, Note_off_c, 1, 60, 100
3, 2880, Note_on_c, 1, 58, 70
3, 2972, Note_off_c, 1, 58, 100
3, 2976, Note_on_c, 1, 57, 70
3, 3068, Note_off_c, 1, 57, 100
3, 3072, Note_on_c, 1, 58, 70
3, 3164, Note_off_c, 1, 58, 100
3, 3168, Note_on_c, 1, 65, 70
3, 3260, Note_off_c, 1, 65, 100
3, 3264, Note_on_c, 1, 62, 70
3, 3356, Note_off_c, 1, 62, 100
3, 3360, Note_on_c, 1, 65, 70
3, 3452, Note_off_c, 1, 65, 100
3, 3456, Note_on_c, 1, 58, 70
3, 3548, Note_off_c, 1, 58, 100
3, 3552, Note_on_c, 1, 65, 70
3, 3644, Note_off_c, 1, 65, 100
3, 3648, Note_on_c, 1, 62, 70
3, 3740, Note_off_c, 1, 62, 100
3, 3744, Note_on_c, 1, 65, 90
3, 3836, Note_off_c, 1, 65, 100
3, 3840, Note_on_c, 1, 50, 110
3, 3932, Note_off_c, 1, 50, 100
3, 3936, Note_on_c, 1, 58, 110
3, 4028, Note_off_c, 1, 58, 100
3, 4032, Note_on_c, 1, 53, 110
3, 4124, Note_off_c, 1, 53, 100
3, 4128, Note_on_c, 1, 58, 110
3, 4220, Note_off_c, 1, 58, 100
3, 4224, Note_on_c, 1, 50, 110
3, 4316, Note_off_c, 1, 50, 100
3, 4320, Note_on_c, 1, 58, 110
3, 4412, Note_off_c, 1, 58, 100
3, 4416, Note_on_c, 1, 53, 110
3, 4508, Note_off_c, 1, 53, 100
3, 4512, Note_on_c, 1, 58, 110
3, 4604, Note_off_c, 1, 58, 100
3, 4608, Note_on_c, 1, 51, 110
3, 4700, Note_off_c, 1, 51, 100
3, 4704, Note_on_c, 1, 60, 110
3, 4796, Note_off_c, 1, 60, 100
3, 4800, Note_on_c, 1, 59, 110
3, 4892, Note_off_c, 1, 59, 100
3, 4896, Note_on_c, 1, 60, 110
3, 4988, Note_off_c, 1, 60, 100
3, 4992, Note_on_c, 1, 51, 110
3, 5084, Note_off_c, 1, 51, 100
3, 5088, Note_on_c, 1, 60, 110
3, 5180, Note_off_c, 1, 60, 100
3, 5184, Note_on_c, 1, 51, 110
3, 5276, Note_off_c, 1, 51, 100
3, 5280, Note_on_c, 1, 60, 110
3, 5372, Note_off_c, 1, 60, 100
3, 5376, Note_on_c, 1, 53, 110
3, 5468, Note_off_c, 1, 53, 100
3, 5472, Note_on_c, 1, 62, 110
3, 5564, Note_off_c, 1, 62, 100
3, 5568, Note_on_c, 1, 58, 110
3, 5660, Note_off_c, 1, 58, 100
3, 5664, Note_on_c, 1, 62, 110
3, 5756, Note_off_c, 1, 62, 100
3, 5760, Note_on_c, 1, 53, 110
3, 5852, Note_off_c, 1, 53, 100
3, 5856, Note_on_c, 1, 60, 110
3, 5948, Note_off_c, 1, 60, 100
3, 5952, Note_on_c, 1, 57, 110
3, 6044, Note_off_c, 1, 57, 100
3, 6048, Note_on_c, 1, 60, 110
3, 6140, Note_off_c, 1, 60, 100
3, 6144, Note_on_c, 1, 46, 110
3, 6236, Note_off_c, 1, 46, 100
3, 6240, Note_on_c, 1, 58, 110
3, 6332, Note_off_c, 1, 58, 100
3, 6336, Note_on_c, 1, 53, 110
3, 6428, Note_off_c, 1, 53, 100
3, 6432, Note_on_c, 1, 50, 110
3, 6524, Note_off_c, 1, 50, 100
3, 6528, Note_on_c, 1, 46, 110
3, 6908, Note_off_c, 1, 46, 100
3, 6912, Note_on_c, 1, 58, 70
3, 7004, Note_off_c, 1, 58, 100
3, 7008, Note_on_c, 1, 65, 70
3, 7100, Note_off_c, 1, 65, 100
3, 7104, Note_on_c, 1, 62, 70
3, 7196, Note_off_c, 1, 62, 100
3, 7200, Note_on_c, 1, 65, 70
3, 7292, Note_off_c, 1, 65, 100
3, 7296, Note_on_c, 1, 58, 70
3, 7388, Note_off_c, 1, 58, 100
3, 7392, Note_on_c, 1, 65, 70
3, 7484, Note_off_c, 1, 65, 100
3, 7488, Note_on_c, 1, 62, 70
3, 7580, Note_off_c, 1, 62, 100
3, 7584, Note_on_c, 1, 65, 70
3, 7676, Note_off_c, 1, 65, 100
3, 7680, Note_on_c, 1, 57, 70
3, 7772, Note_off_c, 1, 57, 100
3, 7776, Note_on_c, 1, 65, 70
3, 7868, Note_off_c, 1, 65, 100
3, 7872, Note_on_c, 1, 60, 70
3, 7964, Note_off_c, 1, 60, 100
3, 7968, Note_on_c, 1, 65, 70
3, 8060, Note_off_c, 1, 65, 100
3, 8064, Note_on_c, 1, 57, 70
3, 8156, Note_off_c, 1, 57, 100
3, 8160, Note_on_c, 1, 65, 70
3, 8252, Note_off_c, 1, 65, 100
3, 8256, Note_on_c, 1, 60, 70
3, 8348, Note_off_c, 1, 60, 100
3, 8352, Note_on_c, 1, 65, 70
3, 8444, Note_off_c, 1, 65, 100
3, 8448, Note_on_c, 1, 58, 70
3, 8636, Note_off_c, 1, 58, 100
3, 8640, Note_on_c, 1, 58, 70
3, 8780, Note_off_c, 1, 58, 100
3, 8784, Note_on_c, 1, 57, 70
3, 8828, Note_off_c, 1, 57, 100
3, 8832, Note_on_c, 1, 58, 70
3, 9116, Note_off_c, 1, 58, 100
3, 9120, Note_on_c, 1, 59, 70
3, 9212, Note_off_c, 1, 59, 100
3, 9216, Note_on_c, 1, 60, 70
3, 9404, Note_off_c, 1, 60, 100
3, 9408, Note_on_c, 1, 48, 70
3, 9596, Note_off_c, 1, 48, 100
3, 9600, Note_on_c, 1, 48, 70
3, 9788, Note_off_c, 1, 48, 100
3, 10176, Note_on_c, 1, 45, 100
3, 10364, Note_off_c, 1, 45, 100
3, 10368, Note_on_c, 1, 41, 100
3, 10556, Note_off_c, 1, 41, 100
3, 10560, Note_on_c, 1, 41, 100
3, 10748, Note_off_c, 1, 41, 100
3, 10944, Note_on_c, 1, 43, 100
3, 11132, Note_off_c, 1, 43, 100
3, 11136, Note_on_c, 1, 43, 100
3, 11324, Note_off_c, 1, 43, 100
3, 11328, Note_on_c, 1, 43, 100
3, 11516, Note_off_c, 1, 43, 100
3, 11712, Note_on_c, 1, 43, 100
3, 11900, Note_off_c, 1, 43, 100
3, 11904, Note_on_c, 1, 40, 100
3, 12092, Note_off_c, 1, 40, 100
3, 12096, Note_on_c, 1, 40, 100
3, 12284, Note_off_c, 1, 40, 100
3, 12288, Note_on_c, 1, 41, 100
3, 12668, Note_off_c, 1, 41, 100
3, 12672, Note_on_c, 1, 45, 100
3, 13052, Note_off_c, 1, 45, 100
3, 13056, Note_on_c, 1, 46, 100
3, 13340, Note_off_c, 1, 46, 100
3, 13344, Note_on_c, 1, 46, 100
3, 13436, Note_off_c, 1, 46, 100
3, 13440, Note_on_c, 1, 46, 100
3, 13724, Note_off_c, 1, 46, 100
3, 13728, Note_on_c, 1, 47, 100
3, 13820, Note_off_c, 1, 47, 100
3, 13824, Note_on_c, 1, 48, 100
3, 14012, Note_off_c, 1, 48, 100
3, 14016, Note_on_c, 1, 36, 100
3, 14204, Note_off_c, 1, 36, 100
3, 14208, Note_on_c, 1, 36, 100
3, 14396, Note_off_c, 1, 36, 100
3, 14592, Note_on_c, 1, 52, 100
3, 14684, Note_off_c, 1, 52, 100
3, 14688, Note_on_c, 1, 60, 100
3, 14780, Note_off_c, 1, 60, 100
3, 14784, Note_on_c, 1, 55, 100
3, 14876, Note_off_c, 1, 55, 100
3, 14880, Note_on_c, 1, 60, 100
3, 14972, Note_off_c, 1, 60, 100
3, 14976, Note_on_c, 1, 52, 100
3, 15068, Note_off_c, 1, 52, 100
3, 15072, Note_on_c, 1, 60, 100
3, 15164, Note_off_c, 1, 60, 100
3, 15168, Note_on_c, 1, 55, 100
3, 15260, Note_off_c, 1, 55, 100
3, 15264, Note_on_c, 1, 60, 100
3, 15356, Note_off_c, 1, 60, 100
3, 15360, Note_on_c, 1, 53, 100
3, 15452, Note_off_c, 1, 53, 100
3, 15456, Note_on_c, 1, 60, 100
3, 15548, Note_off_c, 1, 60, 100
3, 15552, Note_on_c, 1, 57, 100
3, 15644, Note_off_c, 1, 57, 100
3, 15648, Note_on_c, 1, 60, 100
3, 15740, Note_off_c, 1, 60, 100
3, 15744, Note_on_c, 1, 53, 100
3, 15836, Note_off_c, 1, 53, 100
3, 15840, Note_on_c, 1, 60, 100
3, 15932, Note_off_c, 1, 60, 100
3, 15936, Note_on_c, 1, 57, 100
3, 16028, Note_off_c, 1, 57, 100
3, 16032, Note_on_c, 1, 60, 100
3, 16124, Note_off_c, 1, 60, 100
3, 16128, Note_on_c, 1, 52, 100
3, 16220, Note_off_c, 1, 52, 100
3, 16224, Note_on_c, 1, 60, 100
3, 16316, Note_off_c, 1, 60, 100
3, 16320, Note_on_c, 1, 55, 100
3, 16412, Note_off_c, 1, 55, 100
3, 16416, Note_on_c, 1, 60, 100
3, 16508, Note_off_c, 1, 60, 100
3, 16512, Note_on_c, 1, 52, 100
3, 16604, Note_off_c, 1, 52, 100
3, 16608, Note_on_c, 1, 60, 100
3, 16700, Note_off_c, 1, 60, 100
3, 16704, Note_on_c, 1, 55, 100
3, 16796, Note_off_c, 1, 55, 100
3, 16800, Note_on_c, 1, 60, 100
3, 16892, Note_off_c, 1, 60, 100
3, 16896, Note_on_c, 1, 53, 100
3, 17276, Note_off_c, 1, 53, 100
3, 17280, Note_on_c, 1, 41, 100
3, 17660, Note_off_c, 1, 41, 100
3, 17664, Note_on_c, 1, 53, 100
3, 17708, Note_off_c, 1, 53, 100
3, 17712, Note_on_c, 1, 57, 100
3, 17756, Note_off_c, 1, 57, 100
3, 17760, Note_on_c, 1, 55, 100
3, 17804, Note_off_c, 1, 55, 100
3, 17808, Note_on_c, 1, 58, 100
3, 17852, Note_off_c, 1, 58, 100
3, 17856, Note_on_c, 1, 57, 100
3, 17900, Note_off_c, 1, 57, 100
3, 17904, Note_on_c, 1, 60, 100
3, 17948, Note_off_c, 1, 60, 100
3, 17952, Note_on_c, 1, 53, 100
3, 17996, Note_off_c, 1, 53, 100
3, 18000, Note_on_c, 1, 57, 100
3, 18044, Note_off_c, 1, 57, 100
3, 18048, Note_on_c, 1, 58, 100
3, 18428, Note_off_c, 1, 58, 100
3, 18432, Note_on_c, 1, 60, 100
3, 18620, Note_off_c, 1, 60, 100
3, 18624, Note_on_c, 1, 60, 100
3, 18812, Note_off_c, 1, 60, 100
3, 18816, Note_on_c, 1, 48, 100
3, 19004, Note_off_c, 1, 48, 100
3, 19008, Note_on_c, 1, 48, 100
3, 19196, Note_off_c, 1, 48, 100
3, 19200, Note_on_c, 1, 53, 70
3, 19200, Note_on_c, 1, 57, 70
3, 19292, Note_off_c, 1, 53, 100
3, 19292, Note_off_c, 1, 57, 100
3, 19296, Note_on_c, 1, 60, 70
3, 19388, Note_off_c, 1, 60, 100
3, 19392, Note_on_c, 1, 57, 70
3, 19484, Note_off_c, 1, 57, 100
3, 19488, Note_on_c, 1, 60, 70
3, 19580, Note_off_c, 1, 60, 100
3, 19584, Note_on_c, 1, 53, 70
3, 19584, Note_on_c, 1, 57, 70
3, 19676, Note_off_c, 1, 53, 100
3, 19676, Note_off_c, 1, 57, 100
3, 19680, Note_on_c, 1, 60, 70
3, 19772, Note_off_c, 1, 60, 100
3, 19776, Note_on_c, 1, 57, 70
3, 19868, Note_off_c, 1, 57, 100
3, 19872, Note_on_c, 1, 60, 70
3, 19964, Note_off_c, 1, 60, 100
3, 19968, Note_on_c, 1, 55, 70
3, 19968, Note_on_c, 1, 58, 70
3, 20060, Note_off_c, 1, 55, 100
3, 20060, Note_off_c, 1, 58, 100
3, 20064, Note_on_c, 1, 60, 70
3, 20156, Note_off_c, 1, 60, 100
3, 20160, Note_on_c, 1, 58, 70
3, 20252, Note_off_c, 1, 58, 100
3, 20256, Note_on_c, 1, 60, 70
3, 20348, Note_off_c, 1, 60, 100
3, 20352, Note_on_c, 1, 55, 70
3, 20352, Note_on_c, 1, 58, 70
3, 20444, Note_off_c, 1, 55, 100
3, 20444, Note_off_c, 1, 58, 100
3, 20448, Note_on_c, 1, 60, 70
3, 20540, Note_off_c, 1, 60, 100
3, 20544, Note_on_c, 1, 58, 70
3, 20636, Note_off_c, 1, 58, 100
3, 20640, Note_on_c, 1, 60, 70
3, 20732, Note_off_c, 1, 60, 100
3, 20736, Note_on_c, 1, 53, 70
3, 20736, Note_on_c, 1, 57, 70
3, 20828, Note_off_c, 1, 53, 100
3, 20828, Note_off_c, 1, 57, 100
3, 20832, Note_on_c, 1, 60, 70
3, 20924, Note_off_c, 1, 60, 100
3, 20928, Note_on_c, 1, 57, 70
3, 21020, Note_off_c, 1, 57, 100
3, 21024, Note_on_c, 1, 60, 70
3, 21116, Note_off_c, 1, 60, 100
3, 21120, Note_on_c, 1, 53, 70
3, 21120, Note_on_c, 1, 57, 70
3, 21212, Note_off_c, 1, 53, 100
3, 21212, Note_off_c, 1, 57, 100
3, 21216, Note_on_c, 1, 60, 70
3, 21308, Note_off_c, 1, 60, 100
3, 21312, Note_on_c, 1, 57, 70
3, 21404, Note_off_c, 1, 57, 100
3, 21408, Note_on_c, 1, 60, 70
3, 21500, Note_off_c, 1, 60, 100
3, 21504, Note_on_c, 1, 55, 70
3, 21504, Note_on_c, 1, 58, 70
3, 21596, Note_off_c, 1, 55, 100
3, 21596, Note_off_c, 1, 58, 100
3, 21600, Note_on_c, 1, 60, 70
3, 21692, Note_off_c, 1, 60, 100
3, 21696, Note_on_c, 1, 58, 70
3, 21788, Note_off_c, 1, 58, 100
3, 21792, Note_on_c, 1, 60, 70
3, 21884, Note_off_c, 1, 60, 100
3, 21888, Note_on_c, 1, 55, 70
3, 21888, Note_on_c, 1, 58, 70
3, 21980, Note_off_c, 1, 55, 100
3, 21980, Note_off_c, 1, 58, 100
3, 21984, Note_on_c, 1, 60, 70
3, 22076, Note_off_c, 1, 60, 100
3, 22080, Note_on_c, 1, 58, 70
3, 22172, Note_off_c, 1, 58, 100
3, 22176, Note_on_c, 1, 60, 70
3, 22268, Note_off_c, 1, 60, 100
3, 22272, Note_on_c, 1, 53, 70
3, 22272, Note_on_c, 1, 57, 70
3, 22364, Note_off_c, 1, 53, 100
3, 22364, Note_off_c, 1, 57, 100
3, 22368, Note_on_c, 1, 60, 70
3, 22460, Note_off_c, 1, 60, 100
3, 22464, Note_on_c, 1, 58, 70
3, 22556, Note_off_c, 1, 58, 100
3, 22560, Note_on_c, 1, 60, 70
3, 22652, Note_off_c, 1, 60, 100
3, 22656, Note_on_c, 1, 53, 70
3, 22656, Note_on_c, 1, 57, 70
3, 22748, Note_off_c, 1, 53, 100
3, 22748, Note_off_c, 1, 57, 100
3, 22752, Note_on_c, 1, 60, 70
3, 22844, Note_off_c, 1, 60, 100
3, 22848, Note_on_c, 1, 58, 70
3, 22940, Note_off_c, 1, 58, 100
3, 22944, Note_on_c, 1, 60, 70
3, 23036, Note_off_c, 1, 60, 100
3, 23040, Note_on_c, 1, 53, 70
3, 23228, Note_off_c, 1, 53, 100
3, 23232, Note_on_c, 1, 48, 70
3, 23420, Note_off_c, 1, 48, 100
3, 23424, Note_on_c, 1, 41, 70
3, 23612, Note_off_c, 1, 41, 100
3, 23808, Note_on_c, 1, 53, 120
3, 23900, Note_off_c, 1, 53, 100
3, 23904, Note_on_c, 1, 57, 120
3, 23996, Note_off_c, 1, 57, 100
3, 24000, Note_on_c, 1, 60, 120
3, 24092, Note_off_c, 1, 60, 100
3, 24096, Note_on_c, 1, 57, 120
3, 24188, Note_off_c, 1, 57, 100
3, 24192, Note_on_c, 1, 53, 120
3, 24284, Note_off_c, 1, 53, 100
3, 24288, Note_on_c, 1, 57, 120
3, 24380, Note_off_c, 1, 57, 100
3, 24384, Note_on_c, 1, 60, 120
3, 24476, Note_off_c, 1, 60, 100
3, 24480, Note_on_c, 1, 57, 120
3, 24572, Note_off_c, 1, 57, 100
3, 24576, Note_on_c, 1, 55, 120
3, 24668, Note_off_c, 1, 55, 100
3, 24672, Note_on_c, 1, 58, 120
3, 24764, Note_off_c, 1, 58, 100
3, 24768, Note_on_c, 1, 60, 120
3, 24860, Note_off_c, 1, 60, 100
3, 24864, Note_on_c, 1, 58, 120
3, 24956, Note_off_c, 1, 58, 100
3, 24960, Note_on_c, 1, 55, 120
3, 25052, Note_off_c, 1, 55, 100
3, 25056, Note_on_c, 1, 58, 120
3, 25148, Note_off_c, 1, 58, 100
3, 25152, Note_on_c, 1, 60, 120
3, 25244, Note_off_c, 1, 60, 100
3, 25248, Note_on_c, 1, 58, 120
3, 25340, Note_off_c, 1, 58, 100
3, 25344, Note_on_c, 1, 52, 120
3, 25436, Note_off_c, 1, 52, 100
3, 25440, Note_on_c, 1, 60, 120
3, 25532, Note_off_c, 1, 60, 100
3, 25536, Note_on_c, 1, 52, 120
3, 25628, Note_off_c, 1, 52, 100
3, 25632, Note_on_c, 1, 60, 120
3, 25724, Note_off_c, 1, 60, 100
3, 25728, Note_on_c, 1, 48, 120
3, 25820, Note_off_c, 1, 48, 100
3, 25824, Note_on_c, 1, 52, 120
3, 25916, Note_off_c, 1, 52, 100
3, 25920, Note_on_c, 1, 53, 120
3, 26012, Note_off_c, 1, 53, 100
3, 26016, Note_on_c, 1, 55, 120
3, 26108, Note_off_c, 1, 55, 100
3, 26112, Note_on_c, 1, 55, 120
3, 26156, Note_off_c, 1, 55, 100
3, 26160, Note_on_c, 1, 53, 120
3, 26204, Note_off_c, 1, 53, 100
3, 26208, Note_on_c, 1, 52, 120
3, 26252, Note_off_c, 1, 52, 100
3, 26256, Note_on_c, 1, 53, 120
3, 26300, Note_off_c, 1, 53, 100
3, 26304, Note_on_c, 1, 45, 120
3, 26304, Note_on_c, 1, 57, 120
3, 26492, Note_off_c, 1, 45, 100
3, 26492, Note_off_c, 1, 57, 100
3, 26496, Note_on_c, 1, 60, 120
3, 26540, Note_off_c, 1, 60, 100
3, 26544, Note_on_c, 1, 58, 120
3, 26588, Note_off_c, 1, 58, 100
3, 26592, Note_on_c, 1, 57, 120
3, 26636, Note_off_c, 1, 57, 100
3, 26640, Note_on_c, 1, 58, 120
3, 26684, Note_off_c, 1, 58, 100
3, 26688, Note_on_c, 1, 46, 120
3, 26688, Note_on_c, 1, 58, 120
3, 26876, Note_off_c, 1, 46, 100
3, 26876, Note_off_c, 1, 58, 100
3, 26880, Note_on_c, 1, 48, 120
3, 26972, Note_off_c, 1, 48, 100
3, 26976, Note_on_c, 1, 53, 120
3, 27068, Note_off_c, 1, 53, 100
3, 27072, Note_on_c, 1, 57, 120
3, 27164, Note_off_c, 1, 57, 100
3, 27168, Note_on_c, 1, 60, 120
3, 27260, Note_off_c, 1, 60, 100
3, 27264, Note_on_c, 1, 48, 120
3, 27356, Note_off_c, 1, 48, 100
3, 27360, Note_on_c, 1, 52, 120
3, 27452, Note_off_c, 1, 52, 100
3, 27456, Note_on_c, 1, 55, 120
3, 27548, Note_off_c, 1, 55, 100
3, 27552, Note_on_c, 1, 58, 120
3, 27644, Note_off_c, 1, 58, 100
3, 27696, Note_on_c, 1, 53, 120
3, 27740, Note_off_c, 1, 53, 100
3, 27744, Note_on_c, 1, 55, 120
3, 27788, Note_off_c, 1, 55, 100
3, 27792, Note_on_c, 1, 57, 120
3, 27836, Note_off_c, 1, 57, 100
3, 27840, Note_on_c, 1, 58, 120
3, 27884, Note_off_c, 1, 58, 100
3, 27888, Note_on_c, 1, 60, 120
3, 27932, Note_off_c, 1, 60, 100
3, 27936, Note_on_c, 1, 62, 120
3, 27980, Note_off_c, 1, 62, 100
3, 27984, Note_on_c, 1, 64, 120
3, 28028, Note_off_c, 1, 64, 100
3, 28032, Note_on_c, 1, 65, 120
3, 28076, Note_off_c, 1, 65, 100
3, 28080, Note_on_c, 1, 64, 120
3, 28124, Note_off_c, 1, 64, 100
3, 28128, Note_on_c, 1, 65, 120
3, 28172, Note_off_c, 1, 65, 100
3, 28176, Note_on_c, 1, 64, 120
3, 28220, Note_off_c, 1, 64, 100
3, 28224, Note_on_c, 1, 65, 120
3, 28268, Note_off_c, 1, 65, 100
3, 28272, Note_on_c, 1, 63, 110
3, 28316, Note_off_c, 1, 63, 100
3, 28320, Note_on_c, 1, 62, 97
3, 28364, Note_off_c, 1, 62, 100
3, 28368, Note_on_c, 1, 60, 84
3, 28412, Note_off_c, 1, 60, 100
3, 28416, Note_on_c, 1, 58, 70
3, 28508, Note_off_c, 1, 58, 100
3, 28512, Note_on_c, 1, 65, 70
3, 28604, Note_off_c, 1, 65, 100
3, 28608, Note_on_c, 1, 62, 70
3, 28700, Note_off_c, 1, 62, 100
3, 28704, Note_on_c, 1, 65, 70
3, 28796, Note_off_c, 1, 65, 100
3, 28800, Note_on_c, 1, 58, 70
3, 28892, Note_off_c, 1, 58, 100
3, 28896, Note_on_c, 1, 65, 70
3, 28988, Note_off_c, 1, 65, 100
3, 28992, Note_on_c, 1, 63, 70
3, 29084, Note_off_c, 1, 63, 100
3, 29088, Note_on_c, 1, 62, 70
3, 29180, Note_off_c, 1, 62, 100
3, 29184, Note_on_c, 1, 60, 70
3, 29276, Note_off_c, 1, 60, 100
3, 29280, Note_on_c, 1, 65, 70
3, 29372, Note_off_c, 1, 65, 100
3, 29376, Note_on_c, 1, 63, 70
3, 29468, Note_off_c, 1, 63, 100
3, 29472, Note_on_c, 1, 65, 70
3, 29564, Note_off_c, 1, 65, 100
3, 29568, Note_on_c, 1, 60, 70
3, 29660, Note_off_c, 1, 60, 100
3, 29664, Note_on_c, 1, 65, 70
3, 29756, Note_off_c, 1, 65, 100
3, 29760, Note_on_c, 1, 63, 70
3, 29852, Note_off_c, 1, 63, 100
3, 29856, Note_on_c, 1, 65, 70
3, 29948, Note_off_c, 1, 65, 100
3, 29952, Note_on_c, 1, 57, 70
3, 30044, Note_off_c, 1, 57, 100
3, 30048, Note_on_c, 1, 65, 70
3, 30140, Note_off_c, 1, 65, 100
3, 30144, Note_on_c, 1, 60, 70
3, 30236, Note_off_c, 1, 60, 100
3, 30240, Note_on_c, 1, 65, 70
3, 30332, Note_off_c, 1, 65, 100
3, 30336, Note_on_c, 1, 57, 70
3, 30428, Note_off_c, 1, 57, 100
3, 30432, Note_on_c, 1, 60, 70
3, 30524, Note_off_c, 1, 60, 100
3, 30528, Note_on_c, 1, 58, 70
3, 30620, Note_off_c, 1, 58, 100
3, 30624, Note_on_c, 1, 57, 70
3, 30716, Note_off_c, 1, 57, 100
3, 30720, Note_on_c, 1, 50, 70
3, 30720, Note_on_c, 1, 58, 70
3, 30908, Note_off_c, 1, 50, 100
3, 30908, Note_off_c, 1, 58, 100
3, 30912, Note_on_c, 1, 46, 70
3, 30912, Note_on_c, 1, 58, 70
3, 31100, Note_off_c, 1, 46, 100
3, 31100, Note_off_c, 1, 58, 100
3, 31104, Note_on_c, 1, 50, 70
3, 31104, Note_on_c, 1, 58, 70
3, 31292, Note_off_c, 1, 50, 100
3, 31292, Note_off_c, 1, 58, 100
3, 31296, Note_on_c, 1, 46, 70
3, 31296, Note_on_c, 1, 58, 70
3, 31484, Note_off_c, 1, 46, 100
3, 31484, Note_off_c, 1, 58, 100
3, 31488, Note_on_c, 1, 51, 70
3, 31676, Note_off_c, 1, 51, 100
3, 31680, Note_on_c, 1, 51, 70
3, 31868, Note_off_c, 1, 51, 100
3, 31872, Note_on_c, 1, 51, 70
3, 32156, Note_off_c, 1, 51, 100
3, 32160, Note_on_c, 1, 52, 70
3, 32252, Note_off_c, 1, 52, 100
3, 32256, Note_on_c, 1, 53, 70
3, 32444, Note_off_c, 1, 53, 100
3, 32448, Note_on_c, 1, 41, 70
3, 32636, Note_off_c, 1, 41, 100
3, 32640, Note_on_c, 1, 41, 70
3, 32828, Note_off_c, 1, 41, 100
3, 33024, Note_on_c, 1, 50, 100
3, 33212, Note_off_c, 1, 50, 100
3, 33216, Note_on_c, 1, 50, 100
3, 33404, Note_off_c, 1, 50, 100
3, 33408, Note_on_c, 1, 46, 100
3, 33596, Note_off_c, 1, 46, 100
3, 33600, Note_on_c, 1, 46, 100
3, 33788, Note_off_c, 1, 46, 100
3, 33984, Note_on_c, 1, 48, 100
3, 34172, Note_off_c, 1, 48, 100
3, 34176, Note_on_c, 1, 48, 100
3, 34364, Note_off_c, 1, 48, 100
3, 34368, Note_on_c, 1, 48, 100
3, 34556, Note_off_c, 1, 48, 100
3, 34752, Note_on_c, 1, 41, 100
3, 34940, Note_off_c, 1, 41, 100
3, 34944, Note_on_c, 1, 41, 100
3, 35132, Note_off_c, 1, 41, 100
3, 35136, Note_on_c, 1, 41, 100
3, 35324, Note_off_c, 1, 41, 100
3, 35328, Note_on_c, 1, 46, 100
3, 35708, Note_off_c, 1, 46, 100
3, 35712, Note_on_c, 1, 50, 100
3, 36092, Note_off_c, 1, 50, 100
3, 36096, Note_on_c, 1, 51, 100
3, 36284, Note_off_c, 1, 51, 100
3, 36288, Note_on_c, 1, 51, 100
3, 36476, Note_off_c, 1, 51, 100
3, 36480, Note_on_c, 1, 51, 100
3, 36764, Note_off_c, 1, 51, 100
3, 36768, Note_on_c, 1, 52, 100
3, 36860, Note_off_c, 1, 52, 100
3, 36864, Note_on_c, 1, 53, 100
3, 37052, Note_off_c, 1, 53, 100
3, 37056, Note_on_c, 1, 41, 100
3, 37244, Note_off_c, 1, 41, 100
3, 37248, Note_on_c, 1, 41, 100
3, 37436, Note_off_c, 1, 41, 100
3, 37632, Note_on_c, 1, 53, 70
3, 37724, Note_off_c, 1, 53, 100
3, 37728, Note_on_c, 1, 60, 70
3, 37820, Note_off_c, 1, 60, 100
3, 37824, Note_on_c, 1, 57, 70
3, 37916, Note_off_c, 1, 57, 100
3, 37920, Note_on_c, 1, 60, 70
3, 38012, Note_off_c, 1, 60, 100
3, 38016, Note_on_c, 1, 53, 70
3, 38108, Note_off_c, 1, 53, 100
3, 38112, Note_on_c, 1, 60, 70
3, 38204, Note_off_c, 1, 60, 100
3, 38208, Note_on_c, 1, 57, 70
3, 38300, Note_off_c, 1, 57, 100
3, 38304, Note_on_c, 1, 60, 70
3, 38396, Note_off_c, 1, 60, 100
3, 38400, Note_on_c, 1, 53, 100
3, 38492, Note_off_c, 1, 53, 100
3, 38496, Note_on_c, 1, 62, 100
3, 38588, Note_off_c, 1, 62, 100
3, 38592, Note_on_c, 1, 58, 100
3, 38684, Note_off_c, 1, 58, 100
3, 38688, Note_on_c, 1, 62, 100
3, 38780, Note_off_c, 1, 62, 100
3, 38784, Note_on_c, 1, 53, 100
3, 38876, Note_off_c, 1, 53, 100
3, 38880, Note_on_c, 1, 62, 100
3, 38972, Note_off_c, 1, 62, 100
3, 38976, Note_on_c, 1, 58, 100
3, 39068, Note_off_c, 1, 58, 100
3, 39072, Note_on_c, 1, 62, 100
3, 39164, Note_off_c, 1, 62, 100
3, 39168, Note_on_c, 1, 53, 120
3, 39260, Note_off_c, 1, 53, 100
3, 39264, Note_on_c, 1, 60, 120
3, 39356, Note_off_c, 1, 60, 100
3, 39360, Note_on_c, 1, 57, 120
3, 39452, Note_off_c, 1, 57, 100
3, 39456, Note_on_c, 1, 60, 120
3, 39548, Note_off_c, 1, 60, 100
3, 39552, Note_on_c, 1, 53, 120
3, 39644, Note_off_c, 1, 53, 100
3, 39648, Note_on_c, 1, 60, 120
3, 39740, Note_off_c, 1, 60, 100
3, 39744, Note_on_c, 1, 57, 120
3, 39836, Note_off_c, 1, 57, 100
3, 39840, Note_on_c, 1, 60, 120
3, 39932, Note_off_c, 1, 60, 100
3, 39936, Note_on_c, 1, 58, 120
3, 40316, Note_off_c, 1, 58, 100
3, 40320, Note_on_c, 1, 46, 120
3, 40700, Note_off_c, 1, 46, 100
3, 40704, Note_on_c, 1, 46, 120
3, 40748, Note_off_c, 1, 46, 100
3, 40752, Note_on_c, 1, 50, 120
3, 40796, Note_off_c, 1, 50, 100
3, 40800, Note_on_c, 1, 48, 120
3, 40844, Note_off_c, 1, 48, 100
3, 40848, Note_on_c, 1, 51, 120
3, 40892, Note_off_c, 1, 51, 100
3, 40896, Note_on_c, 1, 50, 120
3, 40940, Note_off_c, 1, 50, 100
3, 40944, Note_on_c, 1, 53, 120
3, 40988, Note_off_c, 1, 53, 100
3, 40992, Note_on_c, 1, 48, 120
3, 41036, Note_off_c, 1, 48, 100
3, 41040, Note_on_c, 1, 51, 120
3, 41084, Note_off_c, 1, 51, 100
3, 41088, Note_on_c, 1, 46, 120
3, 41132, Note_off_c, 1, 46, 100
3, 41136, Note_on_c, 1, 50, 120
3, 41180, Note_off_c, 1, 50, 100
3, 41184, Note_on_c, 1, 48, 120
3, 41228, Note_off_c, 1, 48, 100
3, 41232, Note_on_c, 1, 51, 120
3, 41276, Note_off_c, 1, 51, 100
3, 41280, Note_on_c, 1, 50, 120
3, 41324, Note_off_c, 1, 50, 100
3, 41328, Note_on_c, 1, 53, 120
3, 41372, Note_off_c, 1, 53, 100
3, 41376, Note_on_c, 1, 46, 120
3, 41420, Note_off_c, 1, 46, 100
3, 41424, Note_on_c, 1, 50, 120
3, 41468, Note_off_c, 1, 50, 100
3, 41472, Note_on_c, 1, 51, 120
3, 41852, Note_off_c, 1, 51, 100
3, 41856, Note_on_c, 1, 39, 120
3, 42236, Note_off_c, 1, 39, 100
3, 42240, Note_on_c, 1, 53, 120
3, 42428, Note_off_c, 1, 53, 100
3, 42432, Note_on_c, 1, 53, 120
3, 42620, Note_off_c, 1, 53, 100
3, 42624, Note_on_c, 1, 41, 120
3, 42812, Note_off_c, 1, 41, 100
3, 42816, Note_on_c, 1, 41, 100
3, 43004, Note_off_c, 1, 41, 100
3, 43008, Note_on_c, 1, 62, 70
3, 43008, Note_on_c, 1, 58, 70
3, 43100, Note_off_c, 1, 62, 100
3, 43104, Note_on_c, 1, 65, 70
3, 43196, Note_off_c, 1, 65, 100
3, 43200, Note_on_c, 1, 62, 70
3, 43292, Note_off_c, 1, 62, 100
3, 43296, Note_on_c, 1, 65, 70
3, 43388, Note_off_c, 1, 65, 100
3, 43392, Note_on_c, 1, 62, 70
3, 43484, Note_off_c, 1, 62, 100
3, 43488, Note_on_c, 1, 65, 70
3, 43580, Note_off_c, 1, 65, 100
3, 43584, Note_on_c, 1, 62, 70
3, 43676, Note_off_c, 1, 62, 100
3, 43680, Note_on_c, 1, 65, 70
3, 43772, Note_off_c, 1, 58, 100
3, 43772, Note_off_c, 1, 65, 100
3, 43776, Note_on_c, 1, 63, 70
3, 43776, Note_on_c, 1, 60, 70
3, 43868, Note_off_c, 1, 63, 100
3, 43872, Note_on_c, 1, 65, 70
3, 43964, Note_off_c, 1, 65, 100
3, 43968, Note_on_c, 1, 63, 70
3, 44060, Note_off_c, 1, 63, 100
3, 44064, Note_on_c, 1, 65, 70
3, 44156, Note_off_c, 1, 65, 100
3, 44160, Note_on_c, 1, 63, 70
3, 44252, Note_off_c, 1, 63, 100
3, 44256, Note_on_c, 1, 65, 70
3, 44348, Note_off_c, 1, 65, 100
3, 44352, Note_on_c, 1, 63, 100
3, 44444, Note_off_c, 1, 63, 100
3, 44448, Note_on_c, 1, 65, 80
3, 44540, Note_off_c, 1, 60, 100
3, 44540, Note_off_c, 1, 65, 100
3, 44544, Note_on_c, 1, 62, 70
3, 44544, Note_on_c, 1, 58, 70
3, 44636, Note_off_c, 1, 62, 100
3, 44640, Note_on_c, 1, 65, 70
3, 44732, Note_off_c, 1, 65, 100
3, 44736, Note_on_c, 1, 62, 70
3, 44828, Note_off_c, 1, 62, 100
3, 44832, Note_on_c, 1, 65, 70
3, 44924, Note_off_c, 1, 65, 100
3, 44928, Note_on_c, 1, 62, 70
3, 45020, Note_off_c, 1, 62, 100
3, 45024, Note_on_c, 1, 65, 70
3, 45116, Note_off_c, 1, 65, 100
3, 45120, Note_on_c, 1, 62, 70
3, 45212, Note_off_c, 1, 62, 100
3, 45216, Note_on_c, 1, 65, 70
3, 45308, Note_off_c, 1, 58, 100
3, 45308, Note_off_c, 1, 65, 100
3, 45312, Note_on_c, 1, 63, 70
3, 45312, Note_on_c, 1, 60, 70
3, 45404, Note_off_c, 1, 63, 100
3, 45408, Note_on_c, 1, 65, 70
3, 45500, Note_off_c, 1, 65, 100
3, 45504, Note_on_c, 1, 63, 70
3, 45596, Note_off_c, 1, 63, 100
3, 45600, Note_on_c, 1, 65, 70
3, 45692, Note_off_c, 1, 65, 100
3, 45696, Note_on_c, 1, 63, 70
3, 45788, Note_off_c, 1, 63, 100
3, 45792, Note_on_c, 1, 65, 70
3, 45884, Note_off_c, 1, 65, 100
3, 45888, Note_on_c, 1, 63, 100
3, 45980, Note_off_c, 1, 63, 100
3, 45984, Note_on_c, 1, 65, 80
3, 46076, Note_off_c, 1, 60, 100
3, 46076, Note_off_c, 1, 65, 100
3, 46080, Note_on_c, 1, 62, 70
3, 46080, Note_on_c, 1, 58, 70
3, 46172, Note_off_c, 1, 62, 100
3, 46172, Note_off_c, 1, 58, 100
3, 46176, Note_on_c, 1, 65, 70
3, 46268, Note_off_c, 1, 65, 100
3, 46272, Note_on_c, 1, 63, 70
3, 46364, Note_off_c, 1, 63, 100
3, 46368, Note_on_c, 1, 65, 70
3, 46460, Note_off_c, 1, 65, 100
3, 46464, Note_on_c, 1, 58, 70
3, 46464, Note_on_c, 1, 62, 70
3, 46556, Note_off_c, 1, 58, 100
3, 46556, Note_off_c, 1, 62, 100
3, 46560, Note_on_c, 1, 65, 70
3, 46652, Note_off_c, 1, 65, 100
3, 46656, Note_on_c, 1, 63, 70
3, 46748, Note_off_c, 1, 63, 100
3, 46752, Note_on_c, 1, 65, 70
3, 46844, Note_off_c, 1, 65, 100
3, 46848, Note_on_c, 1, 58, 70
3, 47036, Note_off_c, 1, 58, 100
3, 47040, Note_on_c, 1, 53, 70
3, 47228, Note_off_c, 1, 53, 100
3, 47232, Note_on_c, 1, 46, 70
3, 47612, Note_off_c, 1, 46, 100
3, 47612, End_track
0, 0, End_of_file
