0, 0, Header, 1, 3, 384
1, 0, Start_track
1, 0, Title_t, "L.v.Beethoven 3mov - Kurfursten-Sonatas No.1 in Eb Major WoO 47-1\000"
1, 0, Copyright_t, "Copyright(C) 1995-2009, Suzuki Software\000"
1, 0, Sequencer_specific, 9, 67, 123, 0, 88, 70, 48, 50, 0, 1
1, 0, Text_t, "XFhd:2009/03/15:JP:Classical::::L.v.Beethoven:::Kaoru Suzuki\000"
1, 0, Text_t, "XFln:JP:\221I\222é\214ò\203\\\203i\203^\221æ1\224Ô\225Ï\203z\222·\222² WoO 47-1\201`\221æ3\212y\217Í:L.v.\203x\201[\203g\201[\203\224\203F\203\223:::\227é\202¿\202á\202ñ:\227é\202¿\202á\202ñ\000"
1, 0, Time_signature, 3, 2, 96, 8
1, 0, Sequencer_specific, 3, 0, 0, 65
1, 0, Sequencer_specific, 5, 0, 0, 119, 14, 0
1, 0, Tempo, 400000
1, 18048, Tempo, 410958
1, 18240, Tempo, 428571
1, 18432, Tempo, 400000
1, 24960, Tempo, 408163
1, 25344, Tempo, 413793
1, 25536, Tempo, 428571
1, 25728, Tempo, 444444
1, 26496, Tempo, 400000
1, 37632, Tempo, 410958
1, 37824, Tempo, 428571
1, 38208, Tempo, 400000
1, 39552, Tempo, 410958
1, 39936, Tempo, 428571
1, 41856, Tempo, 441176
1, 42240, Tempo, 461538
1, 42432, Tempo, 500000
1, 42624, Tempo, 600000
1, 42816, Tempo, 750000
1, 43776, Tempo, 400000
1, 64128, Tempo, 410958
1, 64320, Tempo, 428571
1, 64512, Tempo, 400000
1, 66432, Tempo, 410958
1, 66624, Tempo, 428571
1, 66816, Tempo, 400000
1, 73344, Tempo, 410958
1, 73728, Tempo, 428571
1, 74112, Tempo, 441176
1, 74880, Tempo, 400000
1, 80064, Tempo, 410958
1, 80448, Tempo, 428571
1, 82944, Tempo, 441176
1, 83328, Tempo, 461538
1, 83520, Tempo, 500000
1, 83904, Tempo, 600000
1, 84096, Tempo, 461538
1, 87552, Tempo, 400000
1, 104448, Tempo, 410958
1, 104832, Tempo, 428571
1, 105216, Tempo, 441176
1, 105408, Tempo, 461538
1, 105792, Tempo, 428571
1, 105984, Tempo, 400000
1, 111744, Tempo, 410958
1, 112128, Tempo, 428571
1, 112896, Tempo, 400000
1, 118272, Tempo, 410958
1, 118656, Tempo, 428571
1, 118848, Tempo, 461538
1, 119040, Tempo, 500000
1, 120960, Tempo, 400000
1, 128832, Tempo, 410958
1, 129024, Tempo, 416666
1, 130176, Tempo, 428571
1, 130944, Tempo, 441176
1, 131136, Tempo, 461538
1, 131712, Tempo, 500000
1, 131712, End_track
2, 0, Start_track
2, 0, Title_t, "Piano Right"
2, 0, Control_c, 0, 0, 0
2, 0, Program_c, 0, 0
2, 0, Control_c, 0, 7, 100
2, 0, Control_c, 0, 10, 75
2, 0, Control_c, 0, 91, 127
2, 0, Key_signature, -3, "major"
2, 192, Note_on_c, 0, 70, 70
2, 380, Note_off_c, 0, 70, 100
2, 384, Note_on_c, 0, 70, 70
2, 572, Note_off_c, 0, 70, 100
2, 576, Note_on_c, 0, 70, 70
2, 764, Note_off_c, 0, 70, 100
2, 768, Note_on_c, 0, 67, 70
2, 956, Note_off_c, 0, 67, 100
2, 960, Note_on_c, 0, 63, 70
2, 1148, Note_off_c, 0, 63, 100
2, 1152, Note_on_c, 0, 62, 70
2, 1340, Note_off_c, 0, 62, 100
2, 1344, Note_on_c, 0, 63, 70
2, 1532, Note_off_c, 0, 63, 100
2, 1536, Note_on_c, 0, 64, 70
2, 1724, Note_off_c, 0, 64, 100
2, 1728, Note_on_c, 0, 62, 70
2, 1728, Note_on_c, 0, 65, 70
2, 1916, Note_off_c, 0, 62, 100
2, 1916, Note_off_c, 0, 65, 100
2, 1920, Note_on_c, 0, 63, 70
2, 1920, Note_on_c, 0, 67, 70
2, 2108, Note_off_c, 0, 63, 100
2, 2108, Note_off_c, 0, 67, 100
2, 2112, Note_on_c, 0, 65, 70
2, 2112, Note_on_c, 0, 68, 70
2, 2300, Note_off_c, 0, 65, 100
2, 2300, Note_off_c, 0, 68, 100
2, 2304, Note_on_c, 0, 67, 70
2, 2304, Note_on_c, 0, 70, 70
2, 2492, Note_off_c, 0, 67, 100
2, 2492, Note_off_c, 0, 70, 100
2, 2496, Note_on_c, 0, 68, 70
2, 2496, Note_on_c, 0, 72, 70
2, 2684, Note_off_c, 0, 68, 100
2, 2684, Note_off_c, 0, 72, 100
2, 2688, Note_on_c, 0, 67, 70
2, 2688, Note_on_c, 0, 70, 70
2, 2876, Note_off_c, 0, 67, 100
2, 2876, Note_off_c, 0, 70, 100
2, 2880, Note_on_c, 0, 67, 70
2, 2880, Note_on_c, 0, 70, 70
2, 3068, Note_off_c, 0, 67, 100
2, 3068, Note_off_c, 0, 70, 100
2, 3072, Note_on_c, 0, 65, 70
2, 3072, Note_on_c, 0, 68, 70
2, 3260, Note_off_c, 0, 65, 100
2, 3260, Note_off_c, 0, 68, 100
2, 3264, Note_on_c, 0, 63, 70
2, 3264, Note_on_c, 0, 67, 70
2, 3452, Note_off_c, 0, 63, 100
2, 3452, Note_off_c, 0, 67, 100
2, 3456, Note_on_c, 0, 63, 70
2, 3456, Note_on_c, 0, 67, 70
2, 4028, Note_off_c, 0, 63, 100
2, 4028, Note_off_c, 0, 67, 100
2, 4032, Note_on_c, 0, 62, 70
2, 4032, Note_on_c, 0, 65, 70
2, 4220, Note_off_c, 0, 62, 100
2, 4220, Note_off_c, 0, 65, 100
2, 4800, Note_on_c, 0, 70, 100
2, 4800, Note_on_c, 0, 82, 100
2, 4988, Note_off_c, 0, 70, 100
2, 4988, Note_off_c, 0, 82, 100
2, 4992, Note_on_c, 0, 70, 100
2, 4992, Note_on_c, 0, 82, 100
2, 5180, Note_off_c, 0, 70, 100
2, 5180, Note_off_c, 0, 82, 100
2, 5184, Note_on_c, 0, 70, 100
2, 5184, Note_on_c, 0, 82, 100
2, 5372, Note_off_c, 0, 70, 100
2, 5372, Note_off_c, 0, 82, 100
2, 5376, Note_on_c, 0, 67, 100
2, 5376, Note_on_c, 0, 79, 100
2, 5564, Note_off_c, 0, 67, 100
2, 5564, Note_off_c, 0, 79, 100
2, 5568, Note_on_c, 0, 63, 100
2, 5568, Note_on_c, 0, 75, 100
2, 5756, Note_off_c, 0, 63, 100
2, 5756, Note_off_c, 0, 75, 100
2, 5760, Note_on_c, 0, 62, 100
2, 5760, Note_on_c, 0, 74, 100
2, 5948, Note_off_c, 0, 62, 100
2, 5948, Note_off_c, 0, 74, 100
2, 5952, Note_on_c, 0, 63, 100
2, 5952, Note_on_c, 0, 75, 100
2, 6140, Note_off_c, 0, 63, 100
2, 6140, Note_off_c, 0, 75, 100
2, 6144, Note_on_c, 0, 64, 100
2, 6144, Note_on_c, 0, 76, 100
2, 6332, Note_off_c, 0, 64, 100
2, 6332, Note_off_c, 0, 76, 100
2, 6336, Note_on_c, 0, 74, 100
2, 6336, Note_on_c, 0, 77, 100
2, 6524, Note_off_c, 0, 74, 100
2, 6524, Note_off_c, 0, 77, 100
2, 6528, Note_on_c, 0, 75, 100
2, 6528, Note_on_c, 0, 79, 100
2, 6716, Note_off_c, 0, 75, 100
2, 6716, Note_off_c, 0, 79, 100
2, 6720, Note_on_c, 0, 77, 100
2, 6720, Note_on_c, 0, 80, 100
2, 6908, Note_off_c, 0, 77, 100
2, 6908, Note_off_c, 0, 80, 100
2, 6912, Note_on_c, 0, 79, 100
2, 6912, Note_on_c, 0, 82, 100
2, 7100, Note_off_c, 0, 79, 100
2, 7100, Note_off_c, 0, 82, 100
2, 7104, Note_on_c, 0, 75, 100
2, 7104, Note_on_c, 0, 79, 100
2, 7292, Note_off_c, 0, 75, 100
2, 7292, Note_off_c, 0, 79, 100
2, 7296, Note_on_c, 0, 79, 100
2, 7296, Note_on_c, 0, 82, 100
2, 7484, Note_off_c, 0, 79, 100
2, 7484, Note_off_c, 0, 82, 100
2, 7488, Note_on_c, 0, 77, 100
2, 7488, Note_on_c, 0, 80, 100
2, 7676, Note_off_c, 0, 77, 100
2, 7676, Note_off_c, 0, 80, 100
2, 7680, Note_on_c, 0, 75, 100
2, 7680, Note_on_c, 0, 79, 100
2, 7868, Note_off_c, 0, 75, 100
2, 7868, Note_off_c, 0, 79, 100
2, 7872, Note_on_c, 0, 74, 100
2, 7872, Note_on_c, 0, 77, 100
2, 8060, Note_off_c, 0, 74, 100
2, 8060, Note_off_c, 0, 77, 100
2, 8064, Note_on_c, 0, 67, 100
2, 8064, Note_on_c, 0, 75, 100
2, 8252, Note_off_c, 0, 67, 100
2, 8252, Note_off_c, 0, 75, 100
2, 8256, Note_on_c, 0, 67, 100
2, 8256, Note_on_c, 0, 75, 100
2, 8444, Note_off_c, 0, 67, 100
2, 8444, Note_off_c, 0, 75, 100
2, 8448, Note_on_c, 0, 67, 100
2, 8448, Note_on_c, 0, 75, 100
2, 8636, Note_off_c, 0, 67, 100
2, 8636, Note_off_c, 0, 75, 100
2, 8640, Note_on_c, 0, 67, 100
2, 8640, Note_on_c, 0, 75, 100
2, 9212, Note_off_c, 0, 67, 100
2, 9212, Note_off_c, 0, 75, 100
2, 9216, Note_on_c, 0, 82, 100
2, 9308, Note_off_c, 0, 82, 100
2, 9312, Note_on_c, 0, 79, 100
2, 9404, Note_off_c, 0, 79, 100
2, 9408, Note_on_c, 0, 75, 100
2, 9500, Note_off_c, 0, 75, 100
2, 9504, Note_on_c, 0, 70, 100
2, 9596, Note_off_c, 0, 70, 100
2, 9600, Note_on_c, 0, 82, 100
2, 9692, Note_off_c, 0, 82, 100
2, 9696, Note_on_c, 0, 70, 100
2, 9788, Note_off_c, 0, 70, 100
2, 9792, Note_on_c, 0, 82, 100
2, 9884, Note_off_c, 0, 82, 100
2, 9888, Note_on_c, 0, 79, 100
2, 9980, Note_off_c, 0, 79, 100
2, 9984, Note_on_c, 0, 75, 100
2, 10076, Note_off_c, 0, 75, 100
2, 10080, Note_on_c, 0, 70, 100
2, 10172, Note_off_c, 0, 70, 100
2, 10176, Note_on_c, 0, 82, 100
2, 10268, Note_off_c, 0, 82, 100
2, 10272, Note_on_c, 0, 70, 100
2, 10364, Note_off_c, 0, 70, 100
2, 10368, Note_on_c, 0, 80, 100
2, 10460, Note_off_c, 0, 80, 100
2, 10464, Note_on_c, 0, 77, 100
2, 10556, Note_off_c, 0, 77, 100
2, 10560, Note_on_c, 0, 74, 100
2, 10652, Note_off_c, 0, 74, 100
2, 10656, Note_on_c, 0, 70, 100
2, 10748, Note_off_c, 0, 70, 100
2, 10752, Note_on_c, 0, 80, 100
2, 10844, Note_off_c, 0, 80, 100
2, 10848, Note_on_c, 0, 70, 100
2, 10940, Note_off_c, 0, 70, 100
2, 10944, Note_on_c, 0, 80, 100
2, 11036, Note_off_c, 0, 80, 100
2, 11040, Note_on_c, 0, 77, 100
2, 11132, Note_off_c, 0, 77, 100
2, 11136, Note_on_c, 0, 74, 100
2, 11228, Note_off_c, 0, 74, 100
2, 11232, Note_on_c, 0, 70, 100
2, 11324, Note_off_c, 0, 70, 100
2, 11328, Note_on_c, 0, 80, 100
2, 11420, Note_off_c, 0, 80, 100
2, 11424, Note_on_c, 0, 70, 100
2, 11516, Note_off_c, 0, 70, 100
2, 11520, Note_on_c, 0, 79, 100
2, 11612, Note_off_c, 0, 79, 100
2, 11616, Note_on_c, 0, 70, 100
2, 11708, Note_off_c, 0, 70, 100
2, 11712, Note_on_c, 0, 79, 100
2, 11804, Note_off_c, 0, 79, 100
2, 11808, Note_on_c, 0, 70, 100
2, 11900, Note_off_c, 0, 70, 100
2, 11904, Note_on_c, 0, 79, 100
2, 11996, Note_off_c, 0, 79, 100
2, 12000, Note_on_c, 0, 70, 100
2, 12092, Note_off_c, 0, 70, 100
2, 12096, Note_on_c, 0, 79, 100
2, 12188, Note_off_c, 0, 79, 100
2, 12192, Note_on_c, 0, 67, 100
2, 12284, Note_off_c, 0, 67, 100
2, 12288, Note_on_c, 0, 77, 100
2, 12380, Note_off_c, 0, 77, 100
2, 12384, Note_on_c, 0, 65, 100
2, 12476, Note_off_c, 0, 65, 100
2, 12480, Note_on_c, 0, 75, 100
2, 12572, Note_off_c, 0, 75, 100
2, 12576, Note_on_c, 0, 63, 100
2, 12668, Note_off_c, 0, 63, 100
2, 12672, Note_on_c, 0, 65, 100
2, 12672, Note_on_c, 0, 74, 100
2, 12860, Note_off_c, 0, 65, 100
2, 12860, Note_off_c, 0, 74, 100
2, 12864, Note_on_c, 0, 65, 100
2, 12864, Note_on_c, 0, 74, 100
2, 13052, Note_off_c, 0, 65, 100
2, 13052, Note_off_c, 0, 74, 100
2, 13056, Note_on_c, 0, 65, 100
2, 13056, Note_on_c, 0, 74, 100
2, 13244, Note_off_c, 0, 65, 100
2, 13244, Note_off_c, 0, 74, 100
2, 13248, Note_on_c, 0, 74, 100
2, 13248, Note_on_c, 0, 65, 100
2, 13820, Note_off_c, 0, 74, 100
2, 13820, Note_off_c, 0, 65, 100
2, 13824, Note_on_c, 0, 82, 100
2, 13916, Note_off_c, 0, 82, 100
2, 13920, Note_on_c, 0, 79, 100
2, 14012, Note_off_c, 0, 79, 100
2, 14016, Note_on_c, 0, 75, 100
2, 14108, Note_off_c, 0, 75, 100
2, 14112, Note_on_c, 0, 70, 100
2, 14204, Note_off_c, 0, 70, 100
2, 14208, Note_on_c, 0, 82, 100
2, 14300, Note_off_c, 0, 82, 100
2, 14304, Note_on_c, 0, 70, 100
2, 14396, Note_off_c, 0, 70, 100
2, 14400, Note_on_c, 0, 82, 100
2, 14492, Note_off_c, 0, 82, 100
2, 14496, Note_on_c, 0, 79, 100
2, 14588, Note_off_c, 0, 79, 100
2, 14592, Note_on_c, 0, 75, 100
2, 14684, Note_off_c, 0, 75, 100
2, 14688, Note_on_c, 0, 70, 100
2, 14780, Note_off_c, 0, 70, 100
2, 14784, Note_on_c, 0, 82, 100
2, 14876, Note_off_c, 0, 82, 100
2, 14880, Note_on_c, 0, 70, 100
2, 14972, Note_off_c, 0, 70, 100
2, 14976, Note_on_c, 0, 84, 100
2, 15068, Note_off_c, 0, 84, 100
2, 15072, Note_on_c, 0, 81, 100
2, 15164, Note_off_c, 0, 81, 100
2, 15168, Note_on_c, 0, 77, 100
2, 15260, Note_off_c, 0, 77, 100
2, 15264, Note_on_c, 0, 72, 100
2, 15356, Note_off_c, 0, 72, 100
2, 15360, Note_on_c, 0, 84, 100
2, 15452, Note_off_c, 0, 84, 100
2, 15456, Note_on_c, 0, 72, 100
2, 15548, Note_off_c, 0, 72, 100
2, 15552, Note_on_c, 0, 84, 100
2, 15644, Note_off_c, 0, 84, 100
2, 15648, Note_on_c, 0, 81, 100
2, 15740, Note_off_c, 0, 81, 100
2, 15744, Note_on_c, 0, 77, 100
2, 15836, Note_off_c, 0, 77, 100
2, 15840, Note_on_c, 0, 72, 100
2, 15932, Note_off_c, 0, 72, 100
2, 15936, Note_on_c, 0, 84, 100
2, 16028, Note_off_c, 0, 84, 100
2, 16032, Note_on_c, 0, 72, 100
2, 16124, Note_off_c, 0, 72, 100
2, 16128, Note_on_c, 0, 86, 100
2, 16220, Note_off_c, 0, 86, 100
2, 16224, Note_on_c, 0, 82, 100
2, 16316, Note_off_c, 0, 82, 100
2, 16320, Note_on_c, 0, 77, 100
2, 16412, Note_off_c, 0, 77, 100
2, 16416, Note_on_c, 0, 74, 100
2, 16508, Note_off_c, 0, 74, 100
2, 16512, Note_on_c, 0, 86, 100
2, 16604, Note_off_c, 0, 86, 100
2, 16608, Note_on_c, 0, 74, 100
2, 16700, Note_off_c, 0, 74, 100
2, 16704, Note_on_c, 0, 82, 100
2, 16796, Note_off_c, 0, 82, 100
2, 16800, Note_on_c, 0, 77, 100
2, 16892, Note_off_c, 0, 77, 100
2, 16896, Note_on_c, 0, 74, 100
2, 16988, Note_off_c, 0, 74, 100
2, 16992, Note_on_c, 0, 70, 100
2, 17084, Note_off_c, 0, 70, 100
2, 17088, Note_on_c, 0, 82, 100
2, 17180, Note_off_c, 0, 82, 100
2, 17184, Note_on_c, 0, 70, 100
2, 17276, Note_off_c, 0, 70, 100
2, 17280, Note_on_c, 0, 82, 100
2, 17372, Note_off_c, 0, 82, 100
2, 17376, Note_on_c, 0, 72, 100
2, 17468, Note_off_c, 0, 72, 100
2, 17472, Note_on_c, 0, 82, 100
2, 17564, Note_off_c, 0, 82, 100
2, 17568, Note_on_c, 0, 72, 100
2, 17660, Note_off_c, 0, 72, 100
2, 17664, Note_on_c, 0, 82, 100
2, 17756, Note_off_c, 0, 82, 100
2, 17760, Note_on_c, 0, 72, 100
2, 17852, Note_off_c, 0, 72, 100
2, 17856, Note_on_c, 0, 81, 100
2, 17948, Note_off_c, 0, 81, 100
2, 17952, Note_on_c, 0, 72, 100
2, 18044, Note_off_c, 0, 72, 100
2, 18048, Note_on_c, 0, 81, 100
2, 18140, Note_off_c, 0, 81, 100
2, 18144, Note_on_c, 0, 72, 100
2, 18236, Note_off_c, 0, 72, 100
2, 18240, Note_on_c, 0, 81, 100
2, 18332, Note_off_c, 0, 81, 100
2, 18336, Note_on_c, 0, 72, 100
2, 18428, Note_off_c, 0, 72, 100
2, 18432, Note_on_c, 0, 70, 100
2, 18432, Note_on_c, 0, 82, 100
2, 19004, Note_off_c, 0, 70, 100
2, 19004, Note_off_c, 0, 82, 100
2, 19008, Note_on_c, 0, 70, 100
2, 19056, Note_on_c, 0, 72, 100
2, 19100, Note_off_c, 0, 70, 100
2, 19104, Note_on_c, 0, 70, 100
2, 19148, Note_off_c, 0, 72, 100
2, 19388, Note_off_c, 0, 70, 100
2, 19392, Note_on_c, 0, 74, 100
2, 19580, Note_off_c, 0, 74, 100
2, 19584, Note_on_c, 0, 77, 100
2, 20156, Note_off_c, 0, 77, 100
2, 20160, Note_on_c, 0, 77, 100
2, 20208, Note_on_c, 0, 79, 100
2, 20252, Note_off_c, 0, 77, 100
2, 20256, Note_on_c, 0, 77, 100
2, 20300, Note_off_c, 0, 79, 100
2, 20540, Note_off_c, 0, 77, 100
2, 20544, Note_on_c, 0, 82, 100
2, 20732, Note_off_c, 0, 82, 100
2, 20736, Note_on_c, 0, 70, 100
2, 21308, Note_off_c, 0, 70, 100
2, 21312, Note_on_c, 0, 70, 100
2, 21360, Note_on_c, 0, 72, 100
2, 21404, Note_off_c, 0, 70, 100
2, 21408, Note_on_c, 0, 70, 100
2, 21452, Note_off_c, 0, 72, 100
2, 21692, Note_off_c, 0, 70, 100
2, 21696, Note_on_c, 0, 75, 100
2, 21884, Note_off_c, 0, 75, 100
2, 21888, Note_on_c, 0, 79, 100
2, 22460, Note_off_c, 0, 79, 100
2, 22464, Note_on_c, 0, 79, 100
2, 22512, Note_on_c, 0, 81, 100
2, 22556, Note_off_c, 0, 79, 100
2, 22560, Note_on_c, 0, 79, 100
2, 22604, Note_off_c, 0, 81, 100
2, 22844, Note_off_c, 0, 79, 100
2, 22848, Note_on_c, 0, 82, 100
2, 23036, Note_off_c, 0, 82, 100
2, 23040, Note_on_c, 0, 82, 100
2, 23420, Note_off_c, 0, 82, 100
2, 23424, Note_on_c, 0, 72, 100
2, 23612, Note_off_c, 0, 72, 100
2, 23616, Note_on_c, 0, 72, 100
2, 24188, Note_off_c, 0, 72, 100
2, 24384, Note_on_c, 0, 73, 100
2, 24572, Note_off_c, 0, 73, 100
2, 24576, Note_on_c, 0, 73, 100
2, 24764, Note_off_c, 0, 73, 100
2, 24768, Note_on_c, 0, 73, 100
2, 24956, Note_off_c, 0, 73, 100
2, 24960, Note_on_c, 0, 72, 100
2, 25148, Note_off_c, 0, 72, 100
2, 25152, Note_on_c, 0, 70, 100
2, 25340, Note_off_c, 0, 70, 100
2, 25344, Note_on_c, 0, 69, 100
2, 25532, Note_off_c, 0, 69, 100
2, 25536, Note_on_c, 0, 77, 100
2, 25536, Note_on_c, 0, 69, 100
2, 25724, Note_off_c, 0, 77, 100
2, 25724, Note_off_c, 0, 69, 100
2, 25728, Note_on_c, 0, 77, 100
2, 25728, Note_on_c, 0, 69, 100
2, 25916, Note_off_c, 0, 77, 100
2, 25916, Note_off_c, 0, 69, 100
2, 25920, Note_on_c, 0, 69, 100
2, 25920, Note_on_c, 0, 77, 100
2, 26492, Note_off_c, 0, 69, 100
2, 26492, Note_off_c, 0, 77, 100
2, 26496, Note_on_c, 0, 69, 100
2, 26592, Note_on_c, 0, 72, 100
2, 26684, Note_off_c, 0, 69, 100
2, 26688, Note_on_c, 0, 77, 100
2, 26780, Note_off_c, 0, 72, 100
2, 26780, Note_off_c, 0, 77, 100
2, 26784, Note_on_c, 0, 72, 100
2, 26876, Note_off_c, 0, 72, 100
2, 26880, Note_on_c, 0, 81, 100
2, 26972, Note_off_c, 0, 81, 100
2, 26976, Note_on_c, 0, 77, 100
2, 27068, Note_off_c, 0, 77, 100
2, 27072, Note_on_c, 0, 84, 100
2, 27168, Note_on_c, 0, 82, 100
2, 27260, Note_off_c, 0, 84, 100
2, 27260, Note_off_c, 0, 82, 100
2, 27264, Note_on_c, 0, 81, 100
2, 27356, Note_off_c, 0, 81, 100
2, 27360, Note_on_c, 0, 79, 100
2, 27452, Note_off_c, 0, 79, 100
2, 27456, Note_on_c, 0, 77, 100
2, 27548, Note_off_c, 0, 77, 100
2, 27552, Note_on_c, 0, 75, 100
2, 27644, Note_off_c, 0, 75, 100
2, 27648, Note_on_c, 0, 74, 100
2, 27744, Note_on_c, 0, 77, 100
2, 27836, Note_off_c, 0, 74, 100
2, 27840, Note_on_c, 0, 82, 100
2, 27932, Note_off_c, 0, 77, 100
2, 27932, Note_off_c, 0, 82, 100
2, 27936, Note_on_c, 0, 77, 100
2, 28028, Note_off_c, 0, 77, 100
2, 28032, Note_on_c, 0, 86, 100
2, 28124, Note_off_c, 0, 86, 100
2, 28128, Note_on_c, 0, 82, 100
2, 28220, Note_off_c, 0, 82, 100
2, 28224, Note_on_c, 0, 77, 100
2, 28320, Note_on_c, 0, 82, 100
2, 28412, Note_off_c, 0, 77, 100
2, 28412, Note_off_c, 0, 82, 100
2, 28416, Note_on_c, 0, 74, 100
2, 28508, Note_off_c, 0, 74, 100
2, 28512, Note_on_c, 0, 77, 100
2, 28604, Note_off_c, 0, 77, 100
2, 28608, Note_on_c, 0, 70, 100
2, 28796, Note_off_c, 0, 70, 100
2, 28800, Note_on_c, 0, 69, 100
2, 28896, Note_on_c, 0, 72, 100
2, 28988, Note_off_c, 0, 69, 100
2, 28992, Note_on_c, 0, 77, 100
2, 29084, Note_off_c, 0, 72, 100
2, 29084, Note_off_c, 0, 77, 100
2, 29088, Note_on_c, 0, 72, 100
2, 29180, Note_off_c, 0, 72, 100
2, 29184, Note_on_c, 0, 81, 100
2, 29276, Note_off_c, 0, 81, 100
2, 29280, Note_on_c, 0, 77, 100
2, 29372, Note_off_c, 0, 77, 100
2, 29376, Note_on_c, 0, 84, 100
2, 29472, Note_on_c, 0, 82, 100
2, 29564, Note_off_c, 0, 84, 100
2, 29564, Note_off_c, 0, 82, 100
2, 29568, Note_on_c, 0, 81, 100
2, 29660, Note_off_c, 0, 81, 100
2, 29664, Note_on_c, 0, 79, 100
2, 29756, Note_off_c, 0, 79, 100
2, 29760, Note_on_c, 0, 77, 100
2, 29852, Note_off_c, 0, 77, 100
2, 29856, Note_on_c, 0, 75, 100
2, 29948, Note_off_c, 0, 75, 100
2, 29952, Note_on_c, 0, 74, 100
2, 30048, Note_on_c, 0, 77, 100
2, 30140, Note_off_c, 0, 74, 100
2, 30144, Note_on_c, 0, 82, 100
2, 30236, Note_off_c, 0, 77, 100
2, 30236, Note_off_c, 0, 82, 100
2, 30240, Note_on_c, 0, 77, 100
2, 30332, Note_off_c, 0, 77, 100
2, 30336, Note_on_c, 0, 86, 100
2, 30428, Note_off_c, 0, 86, 100
2, 30432, Note_on_c, 0, 82, 100
2, 30524, Note_off_c, 0, 82, 100
2, 30528, Note_on_c, 0, 77, 100
2, 30624, Note_on_c, 0, 82, 100
2, 30716, Note_off_c, 0, 77, 100
2, 30716, Note_off_c, 0, 82, 100
2, 30720, Note_on_c, 0, 74, 100
2, 30812, Note_off_c, 0, 74, 100
2, 30816, Note_on_c, 0, 77, 100
2, 30908, Note_off_c, 0, 77, 100
2, 30912, Note_on_c, 0, 70, 100
2, 31100, Note_off_c, 0, 70, 100
2, 31104, Note_on_c, 0, 70, 100
2, 31196, Note_off_c, 0, 70, 100
2, 31200, Note_on_c, 0, 79, 100
2, 31296, Note_on_c, 0, 78, 100
2, 31388, Note_off_c, 0, 79, 100
2, 31392, Note_on_c, 0, 79, 100
2, 31484, Note_off_c, 0, 78, 100
2, 31488, Note_on_c, 0, 82, 100
2, 31580, Note_off_c, 0, 79, 100
2, 31584, Note_on_c, 0, 79, 100
2, 31676, Note_off_c, 0, 82, 100
2, 31676, Note_off_c, 0, 79, 100
2, 31680, Note_on_c, 0, 67, 100
2, 31772, Note_off_c, 0, 67, 100
2, 31776, Note_on_c, 0, 75, 100
2, 31872, Note_on_c, 0, 74, 100
2, 31964, Note_off_c, 0, 75, 100
2, 31968, Note_on_c, 0, 75, 100
2, 32060, Note_off_c, 0, 74, 100
2, 32064, Note_on_c, 0, 79, 100
2, 32156, Note_off_c, 0, 75, 100
2, 32160, Note_on_c, 0, 75, 100
2, 32252, Note_off_c, 0, 79, 100
2, 32252, Note_off_c, 0, 75, 100
2, 32256, Note_on_c, 0, 63, 100
2, 32348, Note_off_c, 0, 63, 100
2, 32352, Note_on_c, 0, 70, 100
2, 32448, Note_on_c, 0, 69, 100
2, 32540, Note_off_c, 0, 70, 100
2, 32544, Note_on_c, 0, 70, 100
2, 32636, Note_off_c, 0, 69, 100
2, 32640, Note_on_c, 0, 75, 100
2, 32732, Note_off_c, 0, 70, 100
2, 32736, Note_on_c, 0, 70, 100
2, 32828, Note_off_c, 0, 75, 100
2, 32828, Note_off_c, 0, 70, 100
2, 32832, Note_on_c, 0, 58, 100
2, 32924, Note_off_c, 0, 58, 100
2, 32928, Note_on_c, 0, 67, 100
2, 33024, Note_on_c, 0, 66, 100
2, 33116, Note_off_c, 0, 67, 100
2, 33120, Note_on_c, 0, 67, 100
2, 33212, Note_off_c, 0, 66, 100
2, 33216, Note_on_c, 0, 70, 100
2, 33308, Note_off_c, 0, 67, 100
2, 33312, Note_on_c, 0, 67, 100
2, 33404, Note_off_c, 0, 70, 100
2, 33404, Note_off_c, 0, 67, 100
2, 33408, Note_on_c, 0, 70, 100
2, 33500, Note_off_c, 0, 70, 100
2, 33504, Note_on_c, 0, 77, 100
2, 33600, Note_on_c, 0, 76, 100
2, 33692, Note_off_c, 0, 77, 100
2, 33696, Note_on_c, 0, 77, 100
2, 33788, Note_off_c, 0, 76, 100
2, 33792, Note_on_c, 0, 82, 100
2, 33884, Note_off_c, 0, 77, 100
2, 33888, Note_on_c, 0, 77, 100
2, 33980, Note_off_c, 0, 82, 100
2, 33980, Note_off_c, 0, 77, 100
2, 33984, Note_on_c, 0, 65, 100
2, 34076, Note_off_c, 0, 65, 100
2, 34080, Note_on_c, 0, 74, 100
2, 34176, Note_on_c, 0, 73, 100
2, 34268, Note_off_c, 0, 74, 100
2, 34272, Note_on_c, 0, 74, 100
2, 34364, Note_off_c, 0, 73, 100
2, 34368, Note_on_c, 0, 77, 100
2, 34460, Note_off_c, 0, 74, 100
2, 34464, Note_on_c, 0, 74, 100
2, 34556, Note_off_c, 0, 77, 100
2, 34556, Note_off_c, 0, 74, 100
2, 34560, Note_on_c, 0, 62, 100
2, 34652, Note_off_c, 0, 62, 100
2, 34656, Note_on_c, 0, 70, 100
2, 34752, Note_on_c, 0, 69, 100
2, 34844, Note_off_c, 0, 70, 100
2, 34848, Note_on_c, 0, 70, 100
2, 34940, Note_off_c, 0, 69, 100
2, 34944, Note_on_c, 0, 74, 100
2, 35036, Note_off_c, 0, 70, 100
2, 35040, Note_on_c, 0, 70, 100
2, 35132, Note_off_c, 0, 74, 100
2, 35132, Note_off_c, 0, 70, 100
2, 35136, Note_on_c, 0, 58, 100
2, 35228, Note_off_c, 0, 58, 100
2, 35232, Note_on_c, 0, 65, 100
2, 35328, Note_on_c, 0, 64, 100
2, 35420, Note_off_c, 0, 65, 100
2, 35424, Note_on_c, 0, 65, 100
2, 35516, Note_off_c, 0, 64, 100
2, 35520, Note_on_c, 0, 70, 100
2, 35612, Note_off_c, 0, 65, 100
2, 35616, Note_on_c, 0, 65, 100
2, 35708, Note_off_c, 0, 70, 100
2, 35708, Note_off_c, 0, 65, 100
2, 35712, Note_on_c, 0, 67, 100
2, 35808, Note_on_c, 0, 66, 100
2, 35900, Note_off_c, 0, 67, 100
2, 35904, Note_on_c, 0, 67, 100
2, 35996, Note_off_c, 0, 66, 100
2, 36000, Note_on_c, 0, 71, 100
2, 36092, Note_off_c, 0, 67, 100
2, 36092, Note_off_c, 0, 71, 100
2, 36096, Note_on_c, 0, 72, 100
2, 36188, Note_off_c, 0, 72, 100
2, 36192, Note_on_c, 0, 74, 100
2, 36284, Note_off_c, 0, 74, 100
2, 36288, Note_on_c, 0, 75, 100
2, 36384, Note_on_c, 0, 74, 100
2, 36476, Note_off_c, 0, 75, 100
2, 36480, Note_on_c, 0, 75, 100
2, 36572, Note_off_c, 0, 74, 100
2, 36576, Note_on_c, 0, 79, 100
2, 36668, Note_off_c, 0, 75, 100
2, 36668, Note_off_c, 0, 79, 100
2, 36672, Note_on_c, 0, 75, 100
2, 36764, Note_off_c, 0, 75, 100
2, 36768, Note_on_c, 0, 72, 100
2, 36860, Note_off_c, 0, 72, 100
2, 36864, Note_on_c, 0, 65, 100
2, 37052, Note_off_c, 0, 65, 100
2, 37056, Note_on_c, 0, 74, 100
2, 37056, Note_on_c, 0, 77, 100
2, 37244, Note_off_c, 0, 74, 100
2, 37244, Note_off_c, 0, 77, 100
2, 37248, Note_on_c, 0, 70, 100
2, 37248, Note_on_c, 0, 74, 100
2, 37436, Note_off_c, 0, 70, 100
2, 37436, Note_off_c, 0, 74, 100
2, 37440, Note_on_c, 0, 72, 100
2, 37440, Note_on_c, 0, 75, 100
2, 37488, Note_on_c, 0, 77, 100
2, 37532, Note_off_c, 0, 75, 100
2, 37536, Note_on_c, 0, 75, 100
2, 37580, Note_off_c, 0, 77, 100
2, 37628, Note_off_c, 0, 72, 100
2, 37628, Note_off_c, 0, 75, 100
2, 37632, Note_on_c, 0, 70, 90
2, 37632, Note_on_c, 0, 74, 90
2, 37820, Note_off_c, 0, 70, 100
2, 37820, Note_off_c, 0, 74, 100
2, 37824, Note_on_c, 0, 69, 80
2, 37824, Note_on_c, 0, 72, 80
2, 38012, Note_off_c, 0, 69, 100
2, 38012, Note_off_c, 0, 72, 100
2, 38016, Note_on_c, 0, 70, 70
2, 38204, Note_off_c, 0, 70, 100
2, 38208, Note_on_c, 0, 77, 70
2, 38396, Note_off_c, 0, 77, 100
2, 38400, Note_on_c, 0, 77, 70
2, 38588, Note_off_c, 0, 77, 100
2, 38592, Note_on_c, 0, 77, 70
2, 38684, Note_off_c, 0, 77, 100
2, 38688, Note_on_c, 0, 75, 70
2, 38780, Note_off_c, 0, 75, 100
2, 38784, Note_on_c, 0, 74, 70
2, 38876, Note_off_c, 0, 74, 100
2, 38880, Note_on_c, 0, 72, 70
2, 38972, Note_off_c, 0, 72, 100
2, 38976, Note_on_c, 0, 70, 70
2, 39068, Note_off_c, 0, 70, 100
2, 39072, Note_on_c, 0, 69, 70
2, 39164, Note_off_c, 0, 69, 100
2, 39168, Note_on_c, 0, 70, 60
2, 39356, Note_off_c, 0, 70, 100
2, 39360, Note_on_c, 0, 77, 60
2, 39548, Note_off_c, 0, 77, 100
2, 39552, Note_on_c, 0, 77, 60
2, 39740, Note_off_c, 0, 77, 100
2, 39744, Note_on_c, 0, 77, 60
2, 39836, Note_off_c, 0, 77, 100
2, 39840, Note_on_c, 0, 75, 60
2, 39932, Note_off_c, 0, 75, 100
2, 39936, Note_on_c, 0, 74, 60
2, 40028, Note_off_c, 0, 74, 100
2, 40032, Note_on_c, 0, 72, 60
2, 40124, Note_off_c, 0, 72, 100
2, 40128, Note_on_c, 0, 70, 60
2, 40220, Note_off_c, 0, 70, 100
2, 40224, Note_on_c, 0, 69, 60
2, 40316, Note_off_c, 0, 69, 100
2, 40320, Note_on_c, 0, 70, 60
2, 40368, Note_on_c, 0, 72, 60
2, 40412, Note_off_c, 0, 70, 100
2, 40416, Note_on_c, 0, 70, 60
2, 40460, Note_off_c, 0, 72, 100
2, 40464, Note_on_c, 0, 72, 60
2, 40508, Note_off_c, 0, 70, 100
2, 40512, Note_on_c, 0, 70, 60
2, 40556, Note_off_c, 0, 72, 100
2, 40560, Note_on_c, 0, 72, 60
2, 40604, Note_off_c, 0, 70, 100
2, 40608, Note_on_c, 0, 70, 60
2, 40652, Note_off_c, 0, 72, 100
2, 40656, Note_on_c, 0, 72, 60
2, 40700, Note_off_c, 0, 70, 100
2, 40704, Note_on_c, 0, 70, 60
2, 40748, Note_off_c, 0, 72, 100
2, 40752, Note_on_c, 0, 72, 60
2, 40796, Note_off_c, 0, 70, 100
2, 40800, Note_on_c, 0, 70, 60
2, 40844, Note_off_c, 0, 72, 100
2, 40848, Note_on_c, 0, 72, 60
2, 40892, Note_off_c, 0, 70, 100
2, 40896, Note_on_c, 0, 70, 60
2, 40940, Note_off_c, 0, 72, 100
2, 40944, Note_on_c, 0, 72, 60
2, 40988, Note_off_c, 0, 70, 100
2, 40992, Note_on_c, 0, 70, 60
2, 41036, Note_off_c, 0, 72, 100
2, 41040, Note_on_c, 0, 72, 60
2, 41084, Note_off_c, 0, 70, 100
2, 41088, Note_on_c, 0, 70, 60
2, 41132, Note_off_c, 0, 72, 100
2, 41136, Note_on_c, 0, 72, 60
2, 41180, Note_off_c, 0, 70, 100
2, 41184, Note_on_c, 0, 70, 60
2, 41228, Note_off_c, 0, 72, 100
2, 41232, Note_on_c, 0, 72, 60
2, 41276, Note_off_c, 0, 70, 100
2, 41280, Note_on_c, 0, 70, 60
2, 41324, Note_off_c, 0, 72, 100
2, 41328, Note_on_c, 0, 72, 60
2, 41372, Note_off_c, 0, 70, 100
2, 41376, Note_on_c, 0, 70, 60
2, 41420, Note_off_c, 0, 72, 100
2, 41424, Note_on_c, 0, 72, 60
2, 41468, Note_off_c, 0, 70, 100
2, 41472, Note_on_c, 0, 70, 60
2, 41516, Note_off_c, 0, 72, 100
2, 41520, Note_on_c, 0, 72, 60
2, 41564, Note_off_c, 0, 70, 100
2, 41568, Note_on_c, 0, 70, 60
2, 41612, Note_off_c, 0, 72, 100
2, 41616, Note_on_c, 0, 72, 60
2, 41660, Note_off_c, 0, 70, 100
2, 41664, Note_on_c, 0, 70, 60
2, 41708, Note_off_c, 0, 72, 100
2, 41712, Note_on_c, 0, 72, 60
2, 41756, Note_off_c, 0, 70, 100
2, 41760, Note_on_c, 0, 70, 60
2, 41804, Note_off_c, 0, 72, 100
2, 41808, Note_on_c, 0, 72, 60
2, 41852, Note_off_c, 0, 70, 100
2, 41856, Note_on_c, 0, 70, 60
2, 41900, Note_off_c, 0, 72, 100
2, 41904, Note_on_c, 0, 72, 60
2, 41948, Note_off_c, 0, 70, 100
2, 41952, Note_on_c, 0, 70, 60
2, 41996, Note_off_c, 0, 72, 100
2, 42000, Note_on_c, 0, 72, 60
2, 42044, Note_off_c, 0, 70, 100
2, 42048, Note_on_c, 0, 70, 60
2, 42092, Note_off_c, 0, 72, 100
2, 42096, Note_on_c, 0, 72, 60
2, 42140, Note_off_c, 0, 70, 100
2, 42144, Note_on_c, 0, 70, 60
2, 42188, Note_off_c, 0, 72, 100
2, 42192, Note_on_c, 0, 72, 60
2, 42236, Note_off_c, 0, 70, 100
2, 42240, Note_on_c, 0, 70, 60
2, 42284, Note_off_c, 0, 72, 100
2, 42288, Note_on_c, 0, 72, 60
2, 42332, Note_off_c, 0, 70, 100
2, 42336, Note_on_c, 0, 70, 60
2, 42380, Note_off_c, 0, 72, 100
2, 42384, Note_on_c, 0, 72, 60
2, 42428, Note_off_c, 0, 70, 100
2, 42432, Note_on_c, 0, 70, 60
2, 42476, Note_off_c, 0, 72, 100
2, 42480, Note_on_c, 0, 72, 60
2, 42524, Note_off_c, 0, 70, 100
2, 42528, Note_on_c, 0, 70, 60
2, 42572, Note_off_c, 0, 72, 100
2, 42576, Note_on_c, 0, 72, 60
2, 42620, Note_off_c, 0, 70, 100
2, 42624, Note_on_c, 0, 70, 60
2, 42668, Note_off_c, 0, 72, 100
2, 42812, Note_off_c, 0, 70, 100
2, 42816, Note_on_c, 0, 69, 55
2, 43004, Note_off_c, 0, 69, 100
2, 43008, Note_on_c, 0, 70, 50
2, 43388, Note_off_c, 0, 70, 100
2, 43968, Note_on_c, 0, 70, 70
2, 44156, Note_off_c, 0, 70, 100
2, 44160, Note_on_c, 0, 70, 70
2, 44348, Note_off_c, 0, 70, 100
2, 44352, Note_on_c, 0, 70, 70
2, 44540, Note_off_c, 0, 70, 100
2, 44544, Note_on_c, 0, 67, 70
2, 44732, Note_off_c, 0, 67, 100
2, 44736, Note_on_c, 0, 63, 70
2, 44924, Note_off_c, 0, 63, 100
2, 44928, Note_on_c, 0, 62, 70
2, 45116, Note_off_c, 0, 62, 100
2, 45120, Note_on_c, 0, 63, 70
2, 45308, Note_off_c, 0, 63, 100
2, 45312, Note_on_c, 0, 64, 70
2, 45500, Note_off_c, 0, 64, 100
2, 45504, Note_on_c, 0, 62, 70
2, 45504, Note_on_c, 0, 65, 70
2, 45692, Note_off_c, 0, 62, 100
2, 45692, Note_off_c, 0, 65, 100
2, 45696, Note_on_c, 0, 63, 70
2, 45696, Note_on_c, 0, 67, 70
2, 45884, Note_off_c, 0, 63, 100
2, 45884, Note_off_c, 0, 67, 100
2, 45888, Note_on_c, 0, 65, 70
2, 45888, Note_on_c, 0, 68, 70
2, 46076, Note_off_c, 0, 65, 100
2, 46076, Note_off_c, 0, 68, 100
2, 46080, Note_on_c, 0, 67, 70
2, 46080, Note_on_c, 0, 70, 70
2, 46268, Note_off_c, 0, 67, 100
2, 46268, Note_off_c, 0, 70, 100
2, 46272, Note_on_c, 0, 68, 70
2, 46272, Note_on_c, 0, 72, 70
2, 46460, Note_off_c, 0, 68, 100
2, 46460, Note_off_c, 0, 72, 100
2, 46464, Note_on_c, 0, 67, 70
2, 46464, Note_on_c, 0, 70, 70
2, 46652, Note_off_c, 0, 67, 100
2, 46652, Note_off_c, 0, 70, 100
2, 46656, Note_on_c, 0, 67, 70
2, 46656, Note_on_c, 0, 70, 70
2, 46844, Note_off_c, 0, 67, 100
2, 46844, Note_off_c, 0, 70, 100
2, 46848, Note_on_c, 0, 65, 70
2, 46848, Note_on_c, 0, 68, 70
2, 47036, Note_off_c, 0, 65, 100
2, 47036, Note_off_c, 0, 68, 100
2, 47040, Note_on_c, 0, 63, 70
2, 47040, Note_on_c, 0, 67, 70
2, 47228, Note_off_c, 0, 63, 100
2, 47228, Note_off_c, 0, 67, 100
2, 47232, Note_on_c, 0, 63, 70
2, 47232, Note_on_c, 0, 67, 70
2, 47804, Note_off_c, 0, 63, 100
2, 47804, Note_off_c, 0, 67, 100
2, 47808, Note_on_c, 0, 62, 70
2, 47808, Note_on_c, 0, 65, 70
2, 47996, Note_off_c, 0, 62, 100
2, 47996, Note_off_c, 0, 65, 100
2, 48576, Note_on_c, 0, 70, 100
2, 48576, Note_on_c, 0, 82, 100
2, 48764, Note_off_c, 0, 70, 100
2, 48764, Note_off_c, 0, 82, 100
2, 48768, Note_on_c, 0, 70, 100
2, 48768, Note_on_c, 0, 82, 100
2, 48956, Note_off_c, 0, 70, 100
2, 48956, Note_off_c, 0, 82, 100
2, 48960, Note_on_c, 0, 70, 100
2, 48960, Note_on_c, 0, 82, 100
2, 49148, Note_off_c, 0, 70, 100
2, 49148, Note_off_c, 0, 82, 100
2, 49152, Note_on_c, 0, 67, 100
2, 49152, Note_on_c, 0, 79, 100
2, 49340, Note_off_c, 0, 67, 100
2, 49340, Note_off_c, 0, 79, 100
2, 49344, Note_on_c, 0, 63, 100
2, 49344, Note_on_c, 0, 75, 100
2, 49532, Note_off_c, 0, 63, 100
2, 49532, Note_off_c, 0, 75, 100
2, 49536, Note_on_c, 0, 62, 100
2, 49536, Note_on_c, 0, 74, 100
2, 49724, Note_off_c, 0, 62, 100
2, 49724, Note_off_c, 0, 74, 100
2, 49728, Note_on_c, 0, 63, 100
2, 49728, Note_on_c, 0, 75, 100
2, 49916, Note_off_c, 0, 63, 100
2, 49916, Note_off_c, 0, 75, 100
2, 49920, Note_on_c, 0, 64, 100
2, 49920, Note_on_c, 0, 76, 100
2, 50108, Note_off_c, 0, 64, 100
2, 50108, Note_off_c, 0, 76, 100
2, 50112, Note_on_c, 0, 65, 100
2, 50112, Note_on_c, 0, 77, 100
2, 50300, Note_off_c, 0, 65, 100
2, 50300, Note_off_c, 0, 77, 100
2, 50304, Note_on_c, 0, 67, 100
2, 50304, Note_on_c, 0, 79, 100
2, 50492, Note_off_c, 0, 67, 100
2, 50492, Note_off_c, 0, 79, 100
2, 50496, Note_on_c, 0, 68, 100
2, 50496, Note_on_c, 0, 80, 100
2, 50684, Note_off_c, 0, 68, 100
2, 50684, Note_off_c, 0, 80, 100
2, 50688, Note_on_c, 0, 70, 100
2, 50688, Note_on_c, 0, 79, 100
2, 50688, Note_on_c, 0, 82, 100
2, 50876, Note_off_c, 0, 70, 100
2, 50876, Note_off_c, 0, 79, 100
2, 50876, Note_off_c, 0, 82, 100
2, 50880, Note_on_c, 0, 75, 100
2, 50880, Note_on_c, 0, 79, 100
2, 51068, Note_off_c, 0, 75, 100
2, 51068, Note_off_c, 0, 79, 100
2, 51072, Note_on_c, 0, 79, 100
2, 51072, Note_on_c, 0, 82, 100
2, 51260, Note_off_c, 0, 79, 100
2, 51260, Note_off_c, 0, 82, 100
2, 51264, Note_on_c, 0, 77, 100
2, 51264, Note_on_c, 0, 80, 100
2, 51452, Note_off_c, 0, 77, 100
2, 51452, Note_off_c, 0, 80, 100
2, 51456, Note_on_c, 0, 75, 100
2, 51456, Note_on_c, 0, 79, 100
2, 51644, Note_off_c, 0, 75, 100
2, 51644, Note_off_c, 0, 79, 100
2, 51648, Note_on_c, 0, 74, 100
2, 51648, Note_on_c, 0, 77, 100
2, 51836, Note_off_c, 0, 74, 100
2, 51836, Note_off_c, 0, 77, 100
2, 51840, Note_on_c, 0, 67, 100
2, 51840, Note_on_c, 0, 75, 100
2, 52220, Note_off_c, 0, 67, 100
2, 52220, Note_off_c, 0, 75, 100
2, 52224, Note_on_c, 0, 79, 100
2, 52224, Note_on_c, 0, 70, 100
2, 52412, Note_off_c, 0, 79, 100
2, 52412, Note_off_c, 0, 70, 100
2, 52416, Note_on_c, 0, 67, 100
2, 52416, Note_on_c, 0, 75, 100
2, 52988, Note_off_c, 0, 67, 100
2, 52988, Note_off_c, 0, 75, 100
2, 52992, Note_on_c, 0, 75, 110
2, 53180, Note_off_c, 0, 75, 100
2, 53184, Note_on_c, 0, 79, 110
2, 53276, Note_off_c, 0, 79, 100
2, 53280, Note_on_c, 0, 77, 110
2, 53372, Note_off_c, 0, 77, 100
2, 53376, Note_on_c, 0, 75, 110
2, 53468, Note_off_c, 0, 75, 100
2, 53472, Note_on_c, 0, 74, 110
2, 53564, Note_off_c, 0, 74, 100
2, 53568, Note_on_c, 0, 72, 110
2, 53756, Note_off_c, 0, 72, 100
2, 53760, Note_on_c, 0, 75, 110
2, 53852, Note_off_c, 0, 75, 100
2, 53856, Note_on_c, 0, 74, 110
2, 53948, Note_off_c, 0, 74, 100
2, 53952, Note_on_c, 0, 72, 100
2, 54044, Note_off_c, 0, 72, 100
2, 54048, Note_on_c, 0, 70, 90
2, 54140, Note_off_c, 0, 70, 100
2, 54144, Note_on_c, 0, 68, 70
2, 54332, Note_off_c, 0, 68, 100
2, 54336, Note_on_c, 0, 72, 70
2, 54428, Note_off_c, 0, 72, 100
2, 54432, Note_on_c, 0, 70, 70
2, 54524, Note_off_c, 0, 70, 100
2, 54528, Note_on_c, 0, 68, 70
2, 54620, Note_off_c, 0, 68, 100
2, 54624, Note_on_c, 0, 67, 70
2, 54716, Note_off_c, 0, 67, 100
2, 54720, Note_on_c, 0, 65, 70
2, 54908, Note_off_c, 0, 65, 100
2, 54912, Note_on_c, 0, 68, 70
2, 55004, Note_off_c, 0, 68, 100
2, 55008, Note_on_c, 0, 67, 70
2, 55100, Note_off_c, 0, 67, 100
2, 55104, Note_on_c, 0, 65, 70
2, 55196, Note_off_c, 0, 65, 100
2, 55200, Note_on_c, 0, 63, 70
2, 55292, Note_off_c, 0, 63, 100
2, 55296, Note_on_c, 0, 62, 100
2, 55484, Note_off_c, 0, 62, 100
2, 55488, Note_on_c, 0, 77, 100
2, 55580, Note_off_c, 0, 77, 100
2, 55584, Note_on_c, 0, 75, 100
2, 55676, Note_off_c, 0, 75, 100
2, 55680, Note_on_c, 0, 74, 100
2, 55772, Note_off_c, 0, 74, 100
2, 55776, Note_on_c, 0, 72, 100
2, 55868, Note_off_c, 0, 72, 100
2, 55872, Note_on_c, 0, 70, 100
2, 56060, Note_off_c, 0, 70, 100
2, 56064, Note_on_c, 0, 74, 100
2, 56156, Note_off_c, 0, 74, 100
2, 56160, Note_on_c, 0, 72, 100
2, 56252, Note_off_c, 0, 72, 100
2, 56256, Note_on_c, 0, 70, 90
2, 56348, Note_off_c, 0, 70, 100
2, 56352, Note_on_c, 0, 68, 80
2, 56444, Note_off_c, 0, 68, 100
2, 56448, Note_on_c, 0, 67, 70
2, 56636, Note_off_c, 0, 67, 100
2, 56640, Note_on_c, 0, 70, 70
2, 56732, Note_off_c, 0, 70, 100
2, 56736, Note_on_c, 0, 68, 70
2, 56828, Note_off_c, 0, 68, 100
2, 56832, Note_on_c, 0, 67, 70
2, 56924, Note_off_c, 0, 67, 100
2, 56928, Note_on_c, 0, 65, 70
2, 57020, Note_off_c, 0, 65, 100
2, 57024, Note_on_c, 0, 63, 70
2, 57212, Note_off_c, 0, 63, 100
2, 57216, Note_on_c, 0, 67, 70
2, 57404, Note_off_c, 0, 67, 100
2, 57408, Note_on_c, 0, 70, 70
2, 57596, Note_off_c, 0, 70, 100
2, 57600, Note_on_c, 0, 75, 70
2, 57692, Note_off_c, 0, 75, 100
2, 57696, Note_on_c, 0, 63, 70
2, 57788, Note_off_c, 0, 63, 100
2, 57792, Note_on_c, 0, 62, 70
2, 57884, Note_off_c, 0, 62, 100
2, 57888, Note_on_c, 0, 63, 70
2, 57980, Note_off_c, 0, 63, 100
2, 57984, Note_on_c, 0, 75, 70
2, 58076, Note_off_c, 0, 75, 100
2, 58080, Note_on_c, 0, 63, 70
2, 58172, Note_off_c, 0, 63, 100
2, 58176, Note_on_c, 0, 74, 70
2, 58268, Note_off_c, 0, 74, 100
2, 58272, Note_on_c, 0, 63, 70
2, 58364, Note_off_c, 0, 63, 100
2, 58368, Note_on_c, 0, 62, 70
2, 58460, Note_off_c, 0, 62, 100
2, 58464, Note_on_c, 0, 63, 70
2, 58556, Note_off_c, 0, 63, 100
2, 58560, Note_on_c, 0, 74, 70
2, 58652, Note_off_c, 0, 74, 100
2, 58656, Note_on_c, 0, 63, 70
2, 58748, Note_off_c, 0, 63, 100
2, 58752, Note_on_c, 0, 72, 70
2, 58844, Note_off_c, 0, 72, 100
2, 58848, Note_on_c, 0, 63, 70
2, 58940, Note_off_c, 0, 63, 100
2, 58944, Note_on_c, 0, 62, 70
2, 59036, Note_off_c, 0, 62, 100
2, 59040, Note_on_c, 0, 63, 70
2, 59132, Note_off_c, 0, 63, 100
2, 59136, Note_on_c, 0, 72, 70
2, 59228, Note_off_c, 0, 72, 100
2, 59232, Note_on_c, 0, 63, 70
2, 59324, Note_off_c, 0, 63, 100
2, 59328, Note_on_c, 0, 70, 70
2, 59420, Note_off_c, 0, 70, 100
2, 59424, Note_on_c, 0, 63, 70
2, 59516, Note_off_c, 0, 63, 100
2, 59520, Note_on_c, 0, 62, 70
2, 59612, Note_off_c, 0, 62, 100
2, 59616, Note_on_c, 0, 63, 70
2, 59708, Note_off_c, 0, 63, 100
2, 59712, Note_on_c, 0, 70, 70
2, 59804, Note_off_c, 0, 70, 100
2, 59808, Note_on_c, 0, 63, 70
2, 59900, Note_off_c, 0, 63, 100
2, 59904, Note_on_c, 0, 68, 70
2, 59996, Note_off_c, 0, 68, 100
2, 60000, Note_on_c, 0, 63, 70
2, 60092, Note_off_c, 0, 63, 100
2, 60096, Note_on_c, 0, 62, 70
2, 60188, Note_off_c, 0, 62, 100
2, 60192, Note_on_c, 0, 63, 70
2, 60284, Note_off_c, 0, 63, 100
2, 60288, Note_on_c, 0, 68, 70
2, 60380, Note_off_c, 0, 68, 100
2, 60384, Note_on_c, 0, 63, 70
2, 60476, Note_off_c, 0, 63, 100
2, 60480, Note_on_c, 0, 67, 70
2, 60572, Note_off_c, 0, 67, 100
2, 60576, Note_on_c, 0, 63, 70
2, 60668, Note_off_c, 0, 63, 100
2, 60672, Note_on_c, 0, 62, 70
2, 60764, Note_off_c, 0, 62, 100
2, 60768, Note_on_c, 0, 63, 70
2, 60860, Note_off_c, 0, 63, 100
2, 60864, Note_on_c, 0, 67, 70
2, 60956, Note_off_c, 0, 67, 100
2, 60960, Note_on_c, 0, 63, 70
2, 61052, Note_off_c, 0, 63, 100
2, 61152, Note_on_c, 0, 65, 100
2, 61244, Note_off_c, 0, 65, 100
2, 61248, Note_on_c, 0, 68, 100
2, 61340, Note_off_c, 0, 68, 100
2, 61344, Note_on_c, 0, 74, 100
2, 61436, Note_off_c, 0, 74, 100
2, 61440, Note_on_c, 0, 77, 90
2, 61532, Note_off_c, 0, 77, 100
2, 61536, Note_on_c, 0, 74, 80
2, 61628, Note_off_c, 0, 74, 100
2, 61632, Note_on_c, 0, 75, 70
2, 61724, Note_off_c, 0, 75, 100
2, 61728, Note_on_c, 0, 79, 70
2, 61820, Note_off_c, 0, 79, 100
2, 61824, Note_on_c, 0, 75, 70
2, 61916, Note_off_c, 0, 75, 100
2, 61920, Note_on_c, 0, 70, 70
2, 62012, Note_off_c, 0, 70, 100
2, 62016, Note_on_c, 0, 67, 70
2, 62108, Note_off_c, 0, 67, 100
2, 62112, Note_on_c, 0, 63, 70
2, 62204, Note_off_c, 0, 63, 100
2, 62304, Note_on_c, 0, 65, 100
2, 62396, Note_off_c, 0, 65, 100
2, 62400, Note_on_c, 0, 68, 100
2, 62492, Note_off_c, 0, 68, 100
2, 62496, Note_on_c, 0, 74, 100
2, 62588, Note_off_c, 0, 74, 100
2, 62592, Note_on_c, 0, 77, 90
2, 62684, Note_off_c, 0, 77, 100
2, 62688, Note_on_c, 0, 74, 80
2, 62780, Note_off_c, 0, 74, 100
2, 62784, Note_on_c, 0, 75, 70
2, 62876, Note_off_c, 0, 75, 100
2, 62880, Note_on_c, 0, 79, 70
2, 62972, Note_off_c, 0, 79, 100
2, 62976, Note_on_c, 0, 75, 70
2, 63068, Note_off_c, 0, 75, 100
2, 63072, Note_on_c, 0, 70, 70
2, 63164, Note_off_c, 0, 70, 100
2, 63168, Note_on_c, 0, 67, 70
2, 63260, Note_off_c, 0, 67, 100
2, 63264, Note_on_c, 0, 63, 70
2, 63356, Note_off_c, 0, 63, 100
2, 63456, Note_on_c, 0, 65, 100
2, 63548, Note_off_c, 0, 65, 100
2, 63552, Note_on_c, 0, 68, 100
2, 63644, Note_off_c, 0, 68, 100
2, 63648, Note_on_c, 0, 74, 100
2, 63740, Note_off_c, 0, 74, 100
2, 63744, Note_on_c, 0, 77, 90
2, 63836, Note_off_c, 0, 77, 100
2, 63840, Note_on_c, 0, 74, 80
2, 63932, Note_off_c, 0, 74, 100
2, 63936, Note_on_c, 0, 75, 70
2, 64028, Note_off_c, 0, 75, 100
2, 64032, Note_on_c, 0, 79, 70
2, 64124, Note_off_c, 0, 79, 100
2, 64128, Note_on_c, 0, 75, 70
2, 64220, Note_off_c, 0, 75, 100
2, 64224, Note_on_c, 0, 70, 70
2, 64316, Note_off_c, 0, 70, 100
2, 64320, Note_on_c, 0, 67, 70
2, 64412, Note_off_c, 0, 67, 100
2, 64416, Note_on_c, 0, 63, 70
2, 64508, Note_off_c, 0, 63, 100
2, 64608, Note_on_c, 0, 65, 100
2, 64700, Note_off_c, 0, 65, 100
2, 64704, Note_on_c, 0, 64, 100
2, 64796, Note_off_c, 0, 64, 100
2, 64800, Note_on_c, 0, 65, 100
2, 64892, Note_off_c, 0, 65, 100
2, 64896, Note_on_c, 0, 75, 90
2, 64988, Note_off_c, 0, 75, 100
2, 64992, Note_on_c, 0, 65, 80
2, 65084, Note_off_c, 0, 65, 100
2, 65088, Note_on_c, 0, 74, 70
2, 65180, Note_off_c, 0, 74, 100
2, 65184, Note_on_c, 0, 65, 70
2, 65276, Note_off_c, 0, 65, 100
2, 65280, Note_on_c, 0, 72, 70
2, 65372, Note_off_c, 0, 72, 100
2, 65376, Note_on_c, 0, 65, 70
2, 65468, Note_off_c, 0, 65, 100
2, 65472, Note_on_c, 0, 70, 70
2, 65564, Note_off_c, 0, 70, 100
2, 65568, Note_on_c, 0, 65, 70
2, 65660, Note_off_c, 0, 65, 100
2, 65664, Note_on_c, 0, 69, 100
2, 65756, Note_off_c, 0, 69, 100
2, 65760, Note_on_c, 0, 65, 100
2, 65852, Note_off_c, 0, 65, 100
2, 65856, Note_on_c, 0, 64, 100
2, 65948, Note_off_c, 0, 64, 100
2, 65952, Note_on_c, 0, 65, 100
2, 66044, Note_off_c, 0, 65, 100
2, 66048, Note_on_c, 0, 69, 100
2, 66140, Note_off_c, 0, 69, 100
2, 66144, Note_on_c, 0, 65, 100
2, 66236, Note_off_c, 0, 65, 100
2, 66240, Note_on_c, 0, 70, 100
2, 66332, Note_off_c, 0, 70, 100
2, 66336, Note_on_c, 0, 65, 100
2, 66428, Note_off_c, 0, 65, 100
2, 66432, Note_on_c, 0, 72, 100
2, 66524, Note_off_c, 0, 72, 100
2, 66528, Note_on_c, 0, 65, 100
2, 66620, Note_off_c, 0, 65, 100
2, 66624, Note_on_c, 0, 74, 90
2, 66716, Note_off_c, 0, 74, 100
2, 66720, Note_on_c, 0, 65, 80
2, 66812, Note_off_c, 0, 65, 100
2, 66912, Note_on_c, 0, 67, 70
2, 67004, Note_off_c, 0, 67, 100
2, 67008, Note_on_c, 0, 66, 70
2, 67100, Note_off_c, 0, 66, 100
2, 67104, Note_on_c, 0, 67, 70
2, 67196, Note_off_c, 0, 67, 100
2, 67200, Note_on_c, 0, 69, 70
2, 67292, Note_off_c, 0, 69, 100
2, 67296, Note_on_c, 0, 70, 70
2, 67388, Note_off_c, 0, 70, 100
2, 67392, Note_on_c, 0, 74, 70
2, 67484, Note_off_c, 0, 74, 100
2, 67488, Note_on_c, 0, 75, 70
2, 67580, Note_off_c, 0, 75, 100
2, 67584, Note_on_c, 0, 78, 70
2, 67676, Note_off_c, 0, 78, 100
2, 67680, Note_on_c, 0, 79, 70
2, 67772, Note_off_c, 0, 79, 100
2, 67776, Note_on_c, 0, 81, 70
2, 67868, Note_off_c, 0, 81, 100
2, 67872, Note_on_c, 0, 82, 70
2, 67964, Note_off_c, 0, 82, 100
2, 67968, Note_on_c, 0, 86, 100
2, 68060, Note_off_c, 0, 86, 100
2, 68064, Note_on_c, 0, 87, 100
2, 68156, Note_off_c, 0, 87, 100
2, 68160, Note_on_c, 0, 81, 100
2, 68252, Note_off_c, 0, 81, 100
2, 68256, Note_on_c, 0, 82, 100
2, 68348, Note_off_c, 0, 82, 100
2, 68352, Note_on_c, 0, 78, 100
2, 68444, Note_off_c, 0, 78, 100
2, 68448, Note_on_c, 0, 79, 100
2, 68540, Note_off_c, 0, 79, 100
2, 68544, Note_on_c, 0, 74, 100
2, 68636, Note_off_c, 0, 74, 100
2, 68640, Note_on_c, 0, 75, 100
2, 68732, Note_off_c, 0, 75, 100
2, 68736, Note_on_c, 0, 69, 100
2, 68828, Note_off_c, 0, 69, 100
2, 68832, Note_on_c, 0, 70, 100
2, 68924, Note_off_c, 0, 70, 100
2, 68928, Note_on_c, 0, 66, 90
2, 69020, Note_off_c, 0, 66, 100
2, 69024, Note_on_c, 0, 67, 80
2, 69116, Note_off_c, 0, 67, 100
2, 69216, Note_on_c, 0, 65, 70
2, 69308, Note_off_c, 0, 65, 100
2, 69312, Note_on_c, 0, 64, 70
2, 69404, Note_off_c, 0, 64, 100
2, 69408, Note_on_c, 0, 65, 70
2, 69500, Note_off_c, 0, 65, 100
2, 69504, Note_on_c, 0, 69, 70
2, 69596, Note_off_c, 0, 69, 100
2, 69600, Note_on_c, 0, 70, 70
2, 69692, Note_off_c, 0, 70, 100
2, 69696, Note_on_c, 0, 73, 70
2, 69788, Note_off_c, 0, 73, 100
2, 69792, Note_on_c, 0, 74, 70
2, 69884, Note_off_c, 0, 74, 100
2, 69888, Note_on_c, 0, 76, 70
2, 69980, Note_off_c, 0, 76, 100
2, 69984, Note_on_c, 0, 77, 70
2, 70076, Note_off_c, 0, 77, 100
2, 70080, Note_on_c, 0, 81, 70
2, 70172, Note_off_c, 0, 81, 100
2, 70176, Note_on_c, 0, 82, 70
2, 70268, Note_off_c, 0, 82, 100
2, 70272, Note_on_c, 0, 85, 100
2, 70364, Note_off_c, 0, 85, 100
2, 70368, Note_on_c, 0, 86, 100
2, 70460, Note_off_c, 0, 86, 100
2, 70464, Note_on_c, 0, 81, 100
2, 70556, Note_off_c, 0, 81, 100
2, 70560, Note_on_c, 0, 82, 100
2, 70652, Note_off_c, 0, 82, 100
2, 70656, Note_on_c, 0, 76, 100
2, 70748, Note_off_c, 0, 76, 100
2, 70752, Note_on_c, 0, 77, 100
2, 70844, Note_off_c, 0, 77, 100
2, 70848, Note_on_c, 0, 73, 100
2, 70940, Note_off_c, 0, 73, 100
2, 70944, Note_on_c, 0, 74, 100
2, 71036, Note_off_c, 0, 74, 100
2, 71040, Note_on_c, 0, 69, 100
2, 71132, Note_off_c, 0, 69, 100
2, 71136, Note_on_c, 0, 70, 100
2, 71228, Note_off_c, 0, 70, 100
2, 71232, Note_on_c, 0, 64, 90
2, 71324, Note_off_c, 0, 64, 100
2, 71328, Note_on_c, 0, 65, 80
2, 71420, Note_off_c, 0, 65, 100
2, 71424, Note_on_c, 0, 63, 70
2, 71516, Note_off_c, 0, 63, 100
2, 71520, Note_on_c, 0, 65, 70
2, 71612, Note_off_c, 0, 65, 100
2, 71616, Note_on_c, 0, 69, 70
2, 71708, Note_off_c, 0, 69, 100
2, 71712, Note_on_c, 0, 72, 70
2, 71804, Note_off_c, 0, 72, 100
2, 71808, Note_on_c, 0, 75, 70
2, 71900, Note_off_c, 0, 75, 100
2, 71904, Note_on_c, 0, 63, 70
2, 71996, Note_off_c, 0, 63, 100
2, 72000, Note_on_c, 0, 62, 70
2, 72092, Note_off_c, 0, 62, 100
2, 72096, Note_on_c, 0, 65, 70
2, 72188, Note_off_c, 0, 65, 100
2, 72192, Note_on_c, 0, 70, 70
2, 72284, Note_off_c, 0, 70, 100
2, 72288, Note_on_c, 0, 65, 70
2, 72380, Note_off_c, 0, 65, 100
2, 72384, Note_on_c, 0, 74, 70
2, 72476, Note_off_c, 0, 74, 100
2, 72480, Note_on_c, 0, 62, 70
2, 72572, Note_off_c, 0, 62, 100
2, 72672, Note_on_c, 0, 61, 100
2, 72764, Note_off_c, 0, 61, 100
2, 72768, Note_on_c, 0, 60, 100
2, 72860, Note_off_c, 0, 60, 100
2, 72864, Note_on_c, 0, 61, 100
2, 72956, Note_off_c, 0, 61, 100
2, 72960, Note_on_c, 0, 64, 100
2, 73052, Note_off_c, 0, 64, 100
2, 73056, Note_on_c, 0, 61, 100
2, 73148, Note_off_c, 0, 61, 100
2, 73152, Note_on_c, 0, 67, 100
2, 73244, Note_off_c, 0, 67, 100
2, 73248, Note_on_c, 0, 61, 100
2, 73340, Note_off_c, 0, 61, 100
2, 73344, Note_on_c, 0, 70, 100
2, 73436, Note_off_c, 0, 70, 100
2, 73440, Note_on_c, 0, 61, 100
2, 73532, Note_off_c, 0, 61, 100
2, 73536, Note_on_c, 0, 73, 100
2, 73628, Note_off_c, 0, 73, 100
2, 73632, Note_on_c, 0, 61, 100
2, 73724, Note_off_c, 0, 61, 100
2, 73728, Note_on_c, 0, 60, 100
2, 73916, Note_off_c, 0, 60, 100
2, 73920, Note_on_c, 0, 65, 100
2, 73920, Note_on_c, 0, 57, 100
2, 74108, Note_off_c, 0, 65, 100
2, 74108, Note_off_c, 0, 57, 100
2, 74112, Note_on_c, 0, 65, 100
2, 74112, Note_on_c, 0, 57, 100
2, 74300, Note_off_c, 0, 65, 100
2, 74300, Note_off_c, 0, 57, 100
2, 74304, Note_on_c, 0, 57, 100
2, 74304, Note_on_c, 0, 65, 100
2, 74876, Note_off_c, 0, 57, 100
2, 74876, Note_off_c, 0, 65, 100
2, 74880, Note_on_c, 0, 65, 100
2, 75068, Note_off_c, 0, 65, 100
2, 75072, Note_on_c, 0, 63, 100
2, 75164, Note_off_c, 0, 63, 100
2, 75168, Note_on_c, 0, 61, 100
2, 75260, Note_off_c, 0, 61, 100
2, 75264, Note_on_c, 0, 60, 100
2, 75356, Note_off_c, 0, 60, 100
2, 75360, Note_on_c, 0, 58, 100
2, 75452, Note_off_c, 0, 58, 100
2, 75456, Note_on_c, 0, 66, 100
2, 76028, Note_off_c, 0, 66, 100
2, 76032, Note_on_c, 0, 65, 100
2, 76220, Note_off_c, 0, 65, 100
2, 76224, Note_on_c, 0, 63, 100
2, 76316, Note_off_c, 0, 63, 100
2, 76320, Note_on_c, 0, 61, 100
2, 76412, Note_off_c, 0, 61, 100
2, 76416, Note_on_c, 0, 60, 100
2, 76508, Note_off_c, 0, 60, 100
2, 76512, Note_on_c, 0, 58, 100
2, 76604, Note_off_c, 0, 58, 100
2, 76608, Note_on_c, 0, 57, 100
2, 76700, Note_off_c, 0, 57, 100
2, 76704, Note_on_c, 0, 60, 100
2, 76796, Note_off_c, 0, 60, 100
2, 76800, Note_on_c, 0, 58, 100
2, 76892, Note_off_c, 0, 58, 100
2, 76896, Note_on_c, 0, 57, 100
2, 76988, Note_off_c, 0, 57, 100
2, 76992, Note_on_c, 0, 55, 100
2, 77084, Note_off_c, 0, 55, 100
2, 77088, Note_on_c, 0, 53, 100
2, 77180, Note_off_c, 0, 53, 100
2, 77184, Note_on_c, 0, 65, 100
2, 77372, Note_off_c, 0, 65, 100
2, 77376, Note_on_c, 0, 63, 100
2, 77468, Note_off_c, 0, 63, 100
2, 77472, Note_on_c, 0, 61, 100
2, 77564, Note_off_c, 0, 61, 100
2, 77568, Note_on_c, 0, 60, 100
2, 77660, Note_off_c, 0, 60, 100
2, 77664, Note_on_c, 0, 58, 100
2, 77756, Note_off_c, 0, 58, 100
2, 77760, Note_on_c, 0, 66, 100
2, 78332, Note_off_c, 0, 66, 100
2, 78336, Note_on_c, 0, 65, 100
2, 78524, Note_off_c, 0, 65, 100
2, 78528, Note_on_c, 0, 63, 100
2, 78620, Note_off_c, 0, 63, 100
2, 78624, Note_on_c, 0, 61, 100
2, 78716, Note_off_c, 0, 61, 100
2, 78720, Note_on_c, 0, 60, 100
2, 78812, Note_off_c, 0, 60, 100
2, 78816, Note_on_c, 0, 58, 100
2, 78908, Note_off_c, 0, 58, 100
2, 78912, Note_on_c, 0, 60, 100
2, 79004, Note_off_c, 0, 60, 100
2, 79008, Note_on_c, 0, 63, 100
2, 79100, Note_off_c, 0, 63, 100
2, 79104, Note_on_c, 0, 61, 100
2, 79196, Note_off_c, 0, 61, 100
2, 79200, Note_on_c, 0, 60, 100
2, 79292, Note_off_c, 0, 60, 100
2, 79296, Note_on_c, 0, 58, 100
2, 79388, Note_off_c, 0, 58, 100
2, 79392, Note_on_c, 0, 57, 100
2, 79484, Note_off_c, 0, 57, 100
2, 79488, Note_on_c, 0, 58, 100
2, 80060, Note_off_c, 0, 58, 100
2, 80064, Note_on_c, 0, 68, 100
2, 80252, Note_off_c, 0, 68, 100
2, 80256, Note_on_c, 0, 65, 90
2, 80444, Note_off_c, 0, 65, 100
2, 80448, Note_on_c, 0, 63, 80
2, 80636, Note_off_c, 0, 63, 100
2, 80640, Note_on_c, 0, 62, 70
2, 81024, Note_on_c, 0, 63, 70
2, 81212, Note_off_c, 0, 62, 100
2, 81212, Note_off_c, 0, 63, 100
2, 81216, Note_on_c, 0, 68, 70
2, 81216, Note_on_c, 0, 62, 70
2, 81596, Note_off_c, 0, 68, 100
2, 81600, Note_on_c, 0, 67, 70
2, 81788, Note_off_c, 0, 62, 100
2, 81788, Note_off_c, 0, 67, 100
2, 81792, Note_on_c, 0, 65, 70
2, 81792, Note_on_c, 0, 62, 70
2, 82176, Note_on_c, 0, 63, 70
2, 82364, Note_off_c, 0, 65, 100
2, 82364, Note_off_c, 0, 62, 100
2, 82364, Note_off_c, 0, 63, 100
2, 82368, Note_on_c, 0, 68, 70
2, 82368, Note_on_c, 0, 62, 70
2, 82748, Note_off_c, 0, 68, 100
2, 82752, Note_on_c, 0, 67, 70
2, 82940, Note_off_c, 0, 62, 100
2, 82940, Note_off_c, 0, 67, 100
2, 82944, Note_on_c, 0, 58, 70
2, 82944, Note_on_c, 0, 62, 70
2, 82944, Note_on_c, 0, 65, 70
2, 83324, Note_off_c, 0, 58, 100
2, 83324, Note_off_c, 0, 62, 100
2, 83324, Note_off_c, 0, 65, 100
2, 83328, Note_on_c, 0, 63, 70
2, 83328, Note_on_c, 0, 67, 70
2, 83516, Note_off_c, 0, 63, 100
2, 83516, Note_off_c, 0, 67, 100
2, 83520, Note_on_c, 0, 58, 70
2, 83520, Note_on_c, 0, 62, 70
2, 83520, Note_on_c, 0, 65, 70
2, 83900, Note_off_c, 0, 58, 100
2, 83900, Note_off_c, 0, 62, 100
2, 83900, Note_off_c, 0, 65, 100
2, 83904, Note_on_c, 0, 63, 70
2, 83904, Note_on_c, 0, 67, 70
2, 84092, Note_off_c, 0, 63, 100
2, 84092, Note_off_c, 0, 67, 100
2, 84096, Note_on_c, 0, 62, 70
2, 84096, Note_on_c, 0, 65, 70
2, 84096, Note_on_c, 0, 70, 70
2, 87164, Note_off_c, 0, 62, 100
2, 87164, Note_off_c, 0, 65, 100
2, 87164, Note_off_c, 0, 70, 100
2, 87744, Note_on_c, 0, 70, 70
2, 87932, Note_off_c, 0, 70, 100
2, 87936, Note_on_c, 0, 70, 70
2, 88124, Note_off_c, 0, 70, 100
2, 88128, Note_on_c, 0, 70, 70
2, 88316, Note_off_c, 0, 70, 100
2, 88320, Note_on_c, 0, 67, 70
2, 88508, Note_off_c, 0, 67, 100
2, 88512, Note_on_c, 0, 63, 70
2, 88700, Note_off_c, 0, 63, 100
2, 88704, Note_on_c, 0, 62, 70
2, 88892, Note_off_c, 0, 62, 100
2, 88896, Note_on_c, 0, 63, 70
2, 89084, Note_off_c, 0, 63, 100
2, 89088, Note_on_c, 0, 64, 70
2, 89276, Note_off_c, 0, 64, 100
2, 89280, Note_on_c, 0, 62, 70
2, 89280, Note_on_c, 0, 65, 70
2, 89468, Note_off_c, 0, 62, 100
2, 89468, Note_off_c, 0, 65, 100
2, 89472, Note_on_c, 0, 63, 70
2, 89472, Note_on_c, 0, 67, 70
2, 89660, Note_off_c, 0, 63, 100
2, 89660, Note_off_c, 0, 67, 100
2, 89664, Note_on_c, 0, 65, 70
2, 89664, Note_on_c, 0, 68, 70
2, 89852, Note_off_c, 0, 65, 100
2, 89852, Note_off_c, 0, 68, 100
2, 89856, Note_on_c, 0, 67, 70
2, 89856, Note_on_c, 0, 70, 70
2, 90044, Note_off_c, 0, 67, 100
2, 90044, Note_off_c, 0, 70, 100
2, 90048, Note_on_c, 0, 68, 70
2, 90048, Note_on_c, 0, 72, 70
2, 90236, Note_off_c, 0, 68, 100
2, 90236, Note_off_c, 0, 72, 100
2, 90240, Note_on_c, 0, 67, 70
2, 90240, Note_on_c, 0, 70, 70
2, 90428, Note_off_c, 0, 67, 100
2, 90428, Note_off_c, 0, 70, 100
2, 90432, Note_on_c, 0, 67, 70
2, 90432, Note_on_c, 0, 70, 70
2, 90620, Note_off_c, 0, 67, 100
2, 90620, Note_off_c, 0, 70, 100
2, 90624, Note_on_c, 0, 65, 70
2, 90624, Note_on_c, 0, 68, 70
2, 90812, Note_off_c, 0, 65, 100
2, 90812, Note_off_c, 0, 68, 100
2, 90816, Note_on_c, 0, 63, 70
2, 90816, Note_on_c, 0, 67, 70
2, 91004, Note_off_c, 0, 63, 100
2, 91004, Note_off_c, 0, 67, 100
2, 91008, Note_on_c, 0, 63, 70
2, 91008, Note_on_c, 0, 67, 70
2, 91580, Note_off_c, 0, 63, 100
2, 91580, Note_off_c, 0, 67, 100
2, 91584, Note_on_c, 0, 62, 70
2, 91584, Note_on_c, 0, 65, 70
2, 91772, Note_off_c, 0, 62, 100
2, 91772, Note_off_c, 0, 65, 100
2, 92352, Note_on_c, 0, 70, 100
2, 92352, Note_on_c, 0, 82, 100
2, 92540, Note_off_c, 0, 70, 100
2, 92540, Note_off_c, 0, 82, 100
2, 92544, Note_on_c, 0, 70, 100
2, 92544, Note_on_c, 0, 82, 100
2, 92732, Note_off_c, 0, 70, 100
2, 92732, Note_off_c, 0, 82, 100
2, 92736, Note_on_c, 0, 70, 100
2, 92736, Note_on_c, 0, 82, 100
2, 92924, Note_off_c, 0, 70, 100
2, 92924, Note_off_c, 0, 82, 100
2, 92928, Note_on_c, 0, 67, 100
2, 92928, Note_on_c, 0, 79, 100
2, 93116, Note_off_c, 0, 67, 100
2, 93116, Note_off_c, 0, 79, 100
2, 93120, Note_on_c, 0, 63, 100
2, 93120, Note_on_c, 0, 75, 100
2, 93308, Note_off_c, 0, 63, 100
2, 93308, Note_off_c, 0, 75, 100
2, 93312, Note_on_c, 0, 62, 100
2, 93312, Note_on_c, 0, 74, 100
2, 93500, Note_off_c, 0, 62, 100
2, 93500, Note_off_c, 0, 74, 100
2, 93504, Note_on_c, 0, 63, 100
2, 93504, Note_on_c, 0, 75, 100
2, 93692, Note_off_c, 0, 63, 100
2, 93692, Note_off_c, 0, 75, 100
2, 93696, Note_on_c, 0, 64, 100
2, 93696, Note_on_c, 0, 76, 100
2, 93884, Note_off_c, 0, 64, 100
2, 93884, Note_off_c, 0, 76, 100
2, 93888, Note_on_c, 0, 65, 100
2, 93888, Note_on_c, 0, 77, 100
2, 94076, Note_off_c, 0, 65, 100
2, 94076, Note_off_c, 0, 77, 100
2, 94080, Note_on_c, 0, 67, 100
2, 94080, Note_on_c, 0, 79, 100
2, 94268, Note_off_c, 0, 67, 100
2, 94268, Note_off_c, 0, 79, 100
2, 94272, Note_on_c, 0, 68, 100
2, 94272, Note_on_c, 0, 80, 100
2, 94460, Note_off_c, 0, 68, 100
2, 94460, Note_off_c, 0, 80, 100
2, 94464, Note_on_c, 0, 70, 100
2, 94464, Note_on_c, 0, 79, 100
2, 94464, Note_on_c, 0, 82, 100
2, 94652, Note_off_c, 0, 70, 100
2, 94652, Note_off_c, 0, 79, 100
2, 94652, Note_off_c, 0, 82, 100
2, 94656, Note_on_c, 0, 75, 100
2, 94656, Note_on_c, 0, 79, 100
2, 94844, Note_off_c, 0, 75, 100
2, 94844, Note_off_c, 0, 79, 100
2, 94848, Note_on_c, 0, 79, 100
2, 94848, Note_on_c, 0, 82, 100
2, 95036, Note_off_c, 0, 79, 100
2, 95036, Note_off_c, 0, 82, 100
2, 95040, Note_on_c, 0, 77, 100
2, 95040, Note_on_c, 0, 80, 100
2, 95228, Note_off_c, 0, 77, 100
2, 95228, Note_off_c, 0, 80, 100
2, 95232, Note_on_c, 0, 75, 100
2, 95232, Note_on_c, 0, 79, 100
2, 95420, Note_off_c, 0, 75, 100
2, 95420, Note_off_c, 0, 79, 100
2, 95424, Note_on_c, 0, 74, 100
2, 95424, Note_on_c, 0, 77, 100
2, 95612, Note_off_c, 0, 74, 100
2, 95612, Note_off_c, 0, 77, 100
2, 95616, Note_on_c, 0, 67, 100
2, 95616, Note_on_c, 0, 75, 100
2, 96188, Note_off_c, 0, 67, 100
2, 96188, Note_off_c, 0, 75, 100
2, 96576, Note_on_c, 0, 79, 100
2, 96764, Note_off_c, 0, 79, 100
2, 96768, Note_on_c, 0, 84, 100
2, 96956, Note_off_c, 0, 84, 100
2, 96960, Note_on_c, 0, 83, 100
2, 97052, Note_off_c, 0, 83, 100
2, 97056, Note_on_c, 0, 84, 100
2, 97148, Note_off_c, 0, 84, 100
2, 97152, Note_on_c, 0, 87, 100
2, 97244, Note_off_c, 0, 87, 100
2, 97248, Note_on_c, 0, 84, 100
2, 97340, Note_off_c, 0, 84, 100
2, 97344, Note_on_c, 0, 79, 100
2, 97532, Note_off_c, 0, 79, 100
2, 97536, Note_on_c, 0, 78, 100
2, 97628, Note_off_c, 0, 78, 100
2, 97632, Note_on_c, 0, 79, 100
2, 97724, Note_off_c, 0, 79, 100
2, 97728, Note_on_c, 0, 84, 100
2, 97820, Note_off_c, 0, 84, 100
2, 97824, Note_on_c, 0, 79, 100
2, 97916, Note_off_c, 0, 79, 100
2, 97920, Note_on_c, 0, 75, 100
2, 98108, Note_off_c, 0, 75, 100
2, 98112, Note_on_c, 0, 74, 100
2, 98204, Note_off_c, 0, 74, 100
2, 98208, Note_on_c, 0, 75, 100
2, 98300, Note_off_c, 0, 75, 100
2, 98304, Note_on_c, 0, 79, 100
2, 98396, Note_off_c, 0, 79, 100
2, 98400, Note_on_c, 0, 75, 100
2, 98492, Note_off_c, 0, 75, 100
2, 98496, Note_on_c, 0, 72, 100
2, 98684, Note_off_c, 0, 72, 100
2, 98688, Note_on_c, 0, 71, 100
2, 98780, Note_off_c, 0, 71, 100
2, 98784, Note_on_c, 0, 72, 100
2, 98876, Note_off_c, 0, 72, 100
2, 98880, Note_on_c, 0, 75, 90
2, 98972, Note_off_c, 0, 75, 100
2, 98976, Note_on_c, 0, 72, 80
2, 99068, Note_off_c, 0, 72, 100
2, 99072, Note_on_c, 0, 68, 70
2, 99072, Note_on_c, 0, 77, 70
2, 99260, Note_off_c, 0, 68, 100
2, 99260, Note_off_c, 0, 77, 100
2, 99264, Note_on_c, 0, 68, 70
2, 99264, Note_on_c, 0, 77, 70
2, 99452, Note_off_c, 0, 68, 100
2, 99452, Note_off_c, 0, 77, 100
2, 99456, Note_on_c, 0, 68, 70
2, 99456, Note_on_c, 0, 77, 70
2, 99644, Note_off_c, 0, 68, 100
2, 99644, Note_off_c, 0, 77, 100
2, 99648, Note_on_c, 0, 68, 70
2, 99648, Note_on_c, 0, 77, 70
2, 99836, Note_off_c, 0, 68, 100
2, 99836, Note_off_c, 0, 77, 100
2, 99840, Note_on_c, 0, 68, 70
2, 99840, Note_on_c, 0, 77, 70
2, 100028, Note_off_c, 0, 68, 100
2, 100028, Note_off_c, 0, 77, 100
2, 100032, Note_on_c, 0, 68, 70
2, 100032, Note_on_c, 0, 77, 70
2, 100220, Note_off_c, 0, 68, 100
2, 100220, Note_off_c, 0, 77, 100
2, 100224, Note_on_c, 0, 68, 100
2, 100224, Note_on_c, 0, 77, 100
2, 100796, Note_off_c, 0, 68, 100
2, 100796, Note_off_c, 0, 77, 100
2, 100800, Note_on_c, 0, 67, 100
2, 100800, Note_on_c, 0, 75, 100
2, 101180, Note_off_c, 0, 67, 100
2, 101180, Note_off_c, 0, 75, 100
2, 101184, Note_on_c, 0, 79, 100
2, 101372, Note_off_c, 0, 79, 100
2, 101376, Note_on_c, 0, 84, 100
2, 101564, Note_off_c, 0, 84, 100
2, 101568, Note_on_c, 0, 83, 100
2, 101660, Note_off_c, 0, 83, 100
2, 101664, Note_on_c, 0, 84, 100
2, 101756, Note_off_c, 0, 84, 100
2, 101760, Note_on_c, 0, 87, 100
2, 101852, Note_off_c, 0, 87, 100
2, 101856, Note_on_c, 0, 84, 100
2, 101948, Note_off_c, 0, 84, 100
2, 101952, Note_on_c, 0, 79, 100
2, 102140, Note_off_c, 0, 79, 100
2, 102144, Note_on_c, 0, 78, 100
2, 102236, Note_off_c, 0, 78, 100
2, 102240, Note_on_c, 0, 79, 100
2, 102332, Note_off_c, 0, 79, 100
2, 102336, Note_on_c, 0, 84, 100
2, 102428, Note_off_c, 0, 84, 100
2, 102432, Note_on_c, 0, 79, 100
2, 102524, Note_off_c, 0, 79, 100
2, 102528, Note_on_c, 0, 75, 100
2, 102716, Note_off_c, 0, 75, 100
2, 102720, Note_on_c, 0, 74, 100
2, 102812, Note_off_c, 0, 74, 100
2, 102816, Note_on_c, 0, 75, 100
2, 102908, Note_off_c, 0, 75, 100
2, 102912, Note_on_c, 0, 79, 100
2, 103004, Note_off_c, 0, 79, 100
2, 103008, Note_on_c, 0, 75, 100
2, 103100, Note_off_c, 0, 75, 100
2, 103104, Note_on_c, 0, 72, 100
2, 103292, Note_off_c, 0, 72, 100
2, 103296, Note_on_c, 0, 71, 100
2, 103388, Note_off_c, 0, 71, 100
2, 103392, Note_on_c, 0, 72, 100
2, 103484, Note_off_c, 0, 72, 100
2, 103488, Note_on_c, 0, 75, 100
2, 103580, Note_off_c, 0, 75, 100
2, 103584, Note_on_c, 0, 72, 100
2, 103676, Note_off_c, 0, 72, 100
2, 103680, Note_on_c, 0, 68, 100
2, 103868, Note_off_c, 0, 68, 100
2, 103872, Note_on_c, 0, 68, 100
2, 103872, Note_on_c, 0, 77, 100
2, 104060, Note_off_c, 0, 68, 100
2, 104060, Note_off_c, 0, 77, 100
2, 104064, Note_on_c, 0, 67, 100
2, 104064, Note_on_c, 0, 75, 100
2, 104252, Note_off_c, 0, 67, 100
2, 104252, Note_off_c, 0, 75, 100
2, 104256, Note_on_c, 0, 65, 100
2, 104256, Note_on_c, 0, 74, 100
2, 104444, Note_off_c, 0, 65, 100
2, 104444, Note_off_c, 0, 74, 100
2, 104448, Note_on_c, 0, 65, 100
2, 104448, Note_on_c, 0, 74, 100
2, 104636, Note_off_c, 0, 65, 100
2, 104636, Note_off_c, 0, 74, 100
2, 104640, Note_on_c, 0, 63, 100
2, 104640, Note_on_c, 0, 72, 100
2, 104828, Note_off_c, 0, 63, 100
2, 104828, Note_off_c, 0, 72, 100
2, 104832, Note_on_c, 0, 62, 100
2, 104832, Note_on_c, 0, 71, 100
2, 105020, Note_off_c, 0, 62, 100
2, 105020, Note_off_c, 0, 71, 100
2, 105024, Note_on_c, 0, 66, 100
2, 105116, Note_off_c, 0, 66, 100
2, 105120, Note_on_c, 0, 67, 100
2, 105212, Note_off_c, 0, 67, 100
2, 105216, Note_on_c, 0, 71, 100
2, 105308, Note_off_c, 0, 71, 100
2, 105312, Note_on_c, 0, 67, 100
2, 105404, Note_off_c, 0, 67, 100
2, 105408, Note_on_c, 0, 55, 100
2, 105788, Note_off_c, 0, 55, 100
2, 105792, Note_on_c, 0, 70, 70
2, 105980, Note_off_c, 0, 70, 100
2, 105984, Note_on_c, 0, 67, 70
2, 105984, Note_on_c, 0, 75, 70
2, 106172, Note_off_c, 0, 75, 100
2, 106176, Note_on_c, 0, 74, 70
2, 106268, Note_off_c, 0, 74, 100
2, 106272, Note_on_c, 0, 75, 70
2, 106364, Note_off_c, 0, 75, 100
2, 106368, Note_on_c, 0, 79, 70
2, 106460, Note_off_c, 0, 79, 100
2, 106464, Note_on_c, 0, 75, 70
2, 106556, Note_off_c, 0, 67, 100
2, 106556, Note_off_c, 0, 75, 100
2, 106560, Note_on_c, 0, 74, 70
2, 106656, Note_on_c, 0, 68, 70
2, 106748, Note_off_c, 0, 68, 100
2, 106752, Note_on_c, 0, 67, 70
2, 106844, Note_off_c, 0, 67, 100
2, 106848, Note_on_c, 0, 68, 70
2, 106940, Note_off_c, 0, 68, 100
2, 106944, Note_on_c, 0, 70, 70
2, 107036, Note_off_c, 0, 70, 100
2, 107040, Note_on_c, 0, 68, 70
2, 107132, Note_off_c, 0, 74, 100
2, 107132, Note_off_c, 0, 68, 100
2, 107136, Note_on_c, 0, 67, 70
2, 107232, Note_on_c, 0, 75, 70
2, 107324, Note_off_c, 0, 75, 100
2, 107328, Note_on_c, 0, 74, 70
2, 107420, Note_off_c, 0, 74, 100
2, 107424, Note_on_c, 0, 75, 70
2, 107516, Note_off_c, 0, 75, 100
2, 107520, Note_on_c, 0, 79, 70
2, 107612, Note_off_c, 0, 79, 100
2, 107616, Note_on_c, 0, 75, 70
2, 107708, Note_off_c, 0, 67, 100
2, 107708, Note_off_c, 0, 75, 100
2, 107712, Note_on_c, 0, 74, 70
2, 107808, Note_on_c, 0, 68, 70
2, 107900, Note_off_c, 0, 68, 100
2, 107904, Note_on_c, 0, 67, 70
2, 107996, Note_off_c, 0, 67, 100
2, 108000, Note_on_c, 0, 68, 70
2, 108092, Note_off_c, 0, 68, 100
2, 108096, Note_on_c, 0, 70, 70
2, 108188, Note_off_c, 0, 70, 100
2, 108192, Note_on_c, 0, 68, 70
2, 108284, Note_off_c, 0, 74, 100
2, 108284, Note_off_c, 0, 68, 100
2, 108288, Note_on_c, 0, 67, 100
2, 108380, Note_off_c, 0, 67, 100
2, 108384, Note_on_c, 0, 75, 100
2, 108476, Note_off_c, 0, 75, 100
2, 108480, Note_on_c, 0, 74, 100
2, 108572, Note_off_c, 0, 74, 100
2, 108576, Note_on_c, 0, 75, 100
2, 108668, Note_off_c, 0, 75, 100
2, 108672, Note_on_c, 0, 79, 100
2, 108764, Note_off_c, 0, 79, 100
2, 108768, Note_on_c, 0, 75, 100
2, 108860, Note_off_c, 0, 75, 100
2, 108960, Note_on_c, 0, 72, 100
2, 109052, Note_off_c, 0, 72, 100
2, 109056, Note_on_c, 0, 71, 100
2, 109148, Note_off_c, 0, 71, 100
2, 109152, Note_on_c, 0, 72, 100
2, 109244, Note_off_c, 0, 72, 100
2, 109248, Note_on_c, 0, 75, 100
2, 109340, Note_off_c, 0, 75, 100
2, 109344, Note_on_c, 0, 72, 100
2, 109436, Note_off_c, 0, 72, 100
2, 109536, Note_on_c, 0, 70, 100
2, 109628, Note_off_c, 0, 70, 100
2, 109632, Note_on_c, 0, 75, 100
2, 109724, Note_off_c, 0, 75, 100
2, 109728, Note_on_c, 0, 70, 100
2, 109820, Note_off_c, 0, 70, 100
2, 109824, Note_on_c, 0, 79, 100
2, 109916, Note_off_c, 0, 79, 100
2, 109920, Note_on_c, 0, 67, 100
2, 110012, Note_off_c, 0, 67, 100
2, 110016, Note_on_c, 0, 70, 100
2, 110108, Note_off_c, 0, 70, 100
2, 110112, Note_on_c, 0, 68, 100
2, 110204, Note_off_c, 0, 68, 100
2, 110208, Note_on_c, 0, 67, 100
2, 110300, Note_off_c, 0, 67, 100
2, 110304, Note_on_c, 0, 65, 100
2, 110396, Note_off_c, 0, 65, 100
2, 110400, Note_on_c, 0, 63, 100
2, 110492, Note_off_c, 0, 63, 100
2, 110496, Note_on_c, 0, 62, 100
2, 110588, Note_off_c, 0, 62, 100
2, 110592, Note_on_c, 0, 63, 100
2, 110684, Note_off_c, 0, 63, 100
2, 110688, Note_on_c, 0, 67, 100
2, 110780, Note_off_c, 0, 67, 100
2, 110784, Note_on_c, 0, 72, 100
2, 110876, Note_off_c, 0, 72, 100
2, 110880, Note_on_c, 0, 67, 100
2, 110972, Note_off_c, 0, 67, 100
2, 110976, Note_on_c, 0, 75, 100
2, 111068, Note_off_c, 0, 75, 100
2, 111072, Note_on_c, 0, 72, 100
2, 111164, Note_off_c, 0, 72, 100
2, 111168, Note_on_c, 0, 79, 100
2, 111356, Note_off_c, 0, 79, 100
2, 111360, Note_on_c, 0, 77, 100
2, 111452, Note_off_c, 0, 77, 100
2, 111456, Note_on_c, 0, 75, 100
2, 111548, Note_off_c, 0, 75, 100
2, 111552, Note_on_c, 0, 74, 100
2, 111644, Note_off_c, 0, 74, 100
2, 111648, Note_on_c, 0, 72, 100
2, 111740, Note_off_c, 0, 72, 100
2, 111744, Note_on_c, 0, 67, 100
2, 111744, Note_on_c, 0, 79, 100
2, 111932, Note_off_c, 0, 67, 100
2, 111932, Note_off_c, 0, 79, 100
2, 111936, Note_on_c, 0, 67, 100
2, 112124, Note_off_c, 0, 67, 100
2, 112128, Note_on_c, 0, 67, 100
2, 112316, Note_off_c, 0, 67, 100
2, 112320, Note_on_c, 0, 67, 100
2, 112700, Note_off_c, 0, 67, 100
2, 112704, Note_on_c, 0, 67, 100
2, 112892, Note_off_c, 0, 67, 100
2, 112896, Note_on_c, 0, 72, 100
2, 112896, Note_on_c, 0, 63, 100
2, 113084, Note_off_c, 0, 72, 100
2, 113088, Note_on_c, 0, 71, 100
2, 113180, Note_off_c, 0, 71, 100
2, 113184, Note_on_c, 0, 72, 100
2, 113276, Note_off_c, 0, 72, 100
2, 113280, Note_on_c, 0, 75, 100
2, 113372, Note_off_c, 0, 75, 100
2, 113376, Note_on_c, 0, 72, 100
2, 113468, Note_off_c, 0, 63, 100
2, 113468, Note_off_c, 0, 72, 100
2, 113472, Note_on_c, 0, 74, 100
2, 113568, Note_on_c, 0, 67, 100
2, 113660, Note_off_c, 0, 67, 100
2, 113664, Note_on_c, 0, 66, 100
2, 113756, Note_off_c, 0, 66, 100
2, 113760, Note_on_c, 0, 67, 100
2, 113852, Note_off_c, 0, 67, 100
2, 113856, Note_on_c, 0, 68, 100
2, 113948, Note_off_c, 0, 68, 100
2, 113952, Note_on_c, 0, 67, 100
2, 114044, Note_off_c, 0, 74, 100
2, 114044, Note_off_c, 0, 67, 100
2, 114048, Note_on_c, 0, 67, 100
2, 114144, Note_on_c, 0, 72, 100
2, 114236, Note_off_c, 0, 72, 100
2, 114240, Note_on_c, 0, 71, 100
2, 114332, Note_off_c, 0, 71, 100
2, 114336, Note_on_c, 0, 72, 100
2, 114428, Note_off_c, 0, 72, 100
2, 114432, Note_on_c, 0, 75, 100
2, 114524, Note_off_c, 0, 75, 100
2, 114528, Note_on_c, 0, 72, 100
2, 114620, Note_off_c, 0, 67, 100
2, 114620, Note_off_c, 0, 72, 100
2, 114624, Note_on_c, 0, 74, 100
2, 114720, Note_on_c, 0, 67, 100
2, 114812, Note_off_c, 0, 67, 100
2, 114816, Note_on_c, 0, 66, 100
2, 114908, Note_off_c, 0, 66, 100
2, 114912, Note_on_c, 0, 67, 100
2, 115004, Note_off_c, 0, 67, 100
2, 115008, Note_on_c, 0, 68, 100
2, 115100, Note_off_c, 0, 68, 100
2, 115104, Note_on_c, 0, 67, 100
2, 115196, Note_off_c, 0, 74, 100
2, 115196, Note_off_c, 0, 67, 100
2, 115200, Note_on_c, 0, 67, 100
2, 115296, Note_on_c, 0, 72, 100
2, 115388, Note_off_c, 0, 67, 100
2, 115392, Note_on_c, 0, 75, 100
2, 115484, Note_off_c, 0, 72, 100
2, 115488, Note_on_c, 0, 79, 100
2, 115580, Note_off_c, 0, 75, 100
2, 115584, Note_on_c, 0, 72, 100
2, 115676, Note_off_c, 0, 79, 100
2, 115680, Note_on_c, 0, 84, 100
2, 115772, Note_off_c, 0, 72, 100
2, 115776, Note_on_c, 0, 68, 100
2, 115868, Note_off_c, 0, 84, 100
2, 115872, Note_on_c, 0, 72, 100
2, 115964, Note_off_c, 0, 68, 100
2, 115968, Note_on_c, 0, 77, 100
2, 116060, Note_off_c, 0, 72, 100
2, 116064, Note_on_c, 0, 80, 100
2, 116156, Note_off_c, 0, 77, 100
2, 116160, Note_on_c, 0, 65, 100
2, 116252, Note_off_c, 0, 80, 100
2, 116256, Note_on_c, 0, 77, 100
2, 116348, Note_off_c, 0, 65, 100
2, 116348, Note_off_c, 0, 77, 100
2, 116352, Note_on_c, 0, 67, 100
2, 116448, Note_on_c, 0, 72, 100
2, 116540, Note_off_c, 0, 67, 100
2, 116544, Note_on_c, 0, 75, 100
2, 116636, Note_off_c, 0, 72, 100
2, 116640, Note_on_c, 0, 79, 100
2, 116732, Note_off_c, 0, 75, 100
2, 116736, Note_on_c, 0, 72, 100
2, 116828, Note_off_c, 0, 79, 100
2, 116832, Note_on_c, 0, 75, 100
2, 116924, Note_off_c, 0, 72, 100
2, 116928, Note_on_c, 0, 67, 100
2, 117020, Note_off_c, 0, 75, 100
2, 117024, Note_on_c, 0, 71, 100
2, 117116, Note_off_c, 0, 67, 100
2, 117120, Note_on_c, 0, 74, 100
2, 117212, Note_off_c, 0, 71, 100
2, 117216, Note_on_c, 0, 77, 100
2, 117308, Note_off_c, 0, 74, 100
2, 117312, Note_on_c, 0, 71, 100
2, 117404, Note_off_c, 0, 77, 100
2, 117408, Note_on_c, 0, 74, 100
2, 117500, Note_off_c, 0, 71, 100
2, 117500, Note_off_c, 0, 74, 100
2, 117504, Note_on_c, 0, 72, 100
2, 117692, Note_off_c, 0, 72, 100
2, 117696, Note_on_c, 0, 71, 100
2, 117788, Note_off_c, 0, 71, 100
2, 117792, Note_on_c, 0, 72, 100
2, 117884, Note_off_c, 0, 72, 100
2, 117888, Note_on_c, 0, 75, 100
2, 117980, Note_off_c, 0, 75, 100
2, 117984, Note_on_c, 0, 72, 100
2, 118076, Note_off_c, 0, 72, 100
2, 118080, Note_on_c, 0, 67, 100
2, 118268, Note_off_c, 0, 67, 100
2, 118272, Note_on_c, 0, 66, 100
2, 118364, Note_off_c, 0, 66, 100
2, 118368, Note_on_c, 0, 67, 100
2, 118460, Note_off_c, 0, 67, 100
2, 118464, Note_on_c, 0, 72, 100
2, 118556, Note_off_c, 0, 72, 100
2, 118560, Note_on_c, 0, 67, 100
2, 118652, Note_off_c, 0, 67, 100
2, 118656, Note_on_c, 0, 63, 100
2, 118748, Note_off_c, 0, 63, 100
2, 118752, Note_on_c, 0, 63, 100
2, 118844, Note_off_c, 0, 63, 100
2, 118848, Note_on_c, 0, 62, 100
2, 118940, Note_off_c, 0, 62, 100
2, 118944, Note_on_c, 0, 63, 100
2, 119036, Note_off_c, 0, 63, 100
2, 119040, Note_on_c, 0, 67, 100
2, 119132, Note_off_c, 0, 67, 100
2, 119136, Note_on_c, 0, 63, 100
2, 119324, Note_off_c, 0, 63, 100
2, 119328, Note_on_c, 0, 60, 100
2, 120860, Note_off_c, 0, 60, 100
2, 121152, Note_on_c, 0, 70, 70
2, 121340, Note_off_c, 0, 70, 100
2, 121344, Note_on_c, 0, 70, 70
2, 121532, Note_off_c, 0, 70, 100
2, 121536, Note_on_c, 0, 70, 70
2, 121724, Note_off_c, 0, 70, 100
2, 121728, Note_on_c, 0, 67, 70
2, 121916, Note_off_c, 0, 67, 100
2, 121920, Note_on_c, 0, 63, 70
2, 122108, Note_off_c, 0, 63, 100
2, 122112, Note_on_c, 0, 62, 70
2, 122300, Note_off_c, 0, 62, 100
2, 122304, Note_on_c, 0, 63, 70
2, 122492, Note_off_c, 0, 63, 100
2, 122496, Note_on_c, 0, 64, 70
2, 122684, Note_off_c, 0, 64, 100
2, 122688, Note_on_c, 0, 62, 70
2, 122688, Note_on_c, 0, 65, 70
2, 122876, Note_off_c, 0, 62, 100
2, 122876, Note_off_c, 0, 65, 100
2, 122880, Note_on_c, 0, 63, 70
2, 122880, Note_on_c, 0, 67, 70
2, 123068, Note_off_c, 0, 63, 100
2, 123068, Note_off_c, 0, 67, 100
2, 123072, Note_on_c, 0, 65, 70
2, 123072, Note_on_c, 0, 68, 70
2, 123260, Note_off_c, 0, 65, 100
2, 123260, Note_off_c, 0, 68, 100
2, 123264, Note_on_c, 0, 67, 70
2, 123264, Note_on_c, 0, 70, 70
2, 123452, Note_off_c, 0, 67, 100
2, 123452, Note_off_c, 0, 70, 100
2, 123456, Note_on_c, 0, 68, 70
2, 123456, Note_on_c, 0, 72, 70
2, 123644, Note_off_c, 0, 68, 100
2, 123644, Note_off_c, 0, 72, 100
2, 123648, Note_on_c, 0, 67, 70
2, 123648, Note_on_c, 0, 70, 70
2, 123836, Note_off_c, 0, 67, 100
2, 123836, Note_off_c, 0, 70, 100
2, 123840, Note_on_c, 0, 67, 70
2, 123840, Note_on_c, 0, 70, 70
2, 124028, Note_off_c, 0, 67, 100
2, 124028, Note_off_c, 0, 70, 100
2, 124032, Note_on_c, 0, 65, 70
2, 124032, Note_on_c, 0, 68, 70
2, 124220, Note_off_c, 0, 65, 100
2, 124220, Note_off_c, 0, 68, 100
2, 124224, Note_on_c, 0, 63, 70
2, 124224, Note_on_c, 0, 67, 70
2, 124412, Note_off_c, 0, 63, 100
2, 124412, Note_off_c, 0, 67, 100
2, 124416, Note_on_c, 0, 63, 70
2, 124416, Note_on_c, 0, 67, 70
2, 124988, Note_off_c, 0, 63, 100
2, 124988, Note_off_c, 0, 67, 100
2, 124992, Note_on_c, 0, 62, 70
2, 124992, Note_on_c, 0, 65, 70
2, 125180, Note_off_c, 0, 62, 100
2, 125180, Note_off_c, 0, 65, 100
2, 125760, Note_on_c, 0, 70, 100
2, 125760, Note_on_c, 0, 82, 100
2, 125948, Note_off_c, 0, 70, 100
2, 125948, Note_off_c, 0, 82, 100
2, 125952, Note_on_c, 0, 70, 100
2, 125952, Note_on_c, 0, 82, 100
2, 126140, Note_off_c, 0, 70, 100
2, 126140, Note_off_c, 0, 82, 100
2, 126144, Note_on_c, 0, 70, 100
2, 126144, Note_on_c, 0, 82, 100
2, 126332, Note_off_c, 0, 70, 100
2, 126332, Note_off_c, 0, 82, 100
2, 126336, Note_on_c, 0, 67, 100
2, 126336, Note_on_c, 0, 79, 100
2, 126524, Note_off_c, 0, 67, 100
2, 126524, Note_off_c, 0, 79, 100
2, 126528, Note_on_c, 0, 63, 100
2, 126528, Note_on_c, 0, 75, 100
2, 126716, Note_off_c, 0, 63, 100
2, 126716, Note_off_c, 0, 75, 100
2, 126720, Note_on_c, 0, 62, 100
2, 126720, Note_on_c, 0, 74, 100
2, 126908, Note_off_c, 0, 62, 100
2, 126908, Note_off_c, 0, 74, 100
2, 126912, Note_on_c, 0, 63, 100
2, 126912, Note_on_c, 0, 75, 100
2, 127100, Note_off_c, 0, 63, 100
2, 127100, Note_off_c, 0, 75, 100
2, 127104, Note_on_c, 0, 64, 100
2, 127104, Note_on_c, 0, 76, 100
2, 127292, Note_off_c, 0, 64, 100
2, 127292, Note_off_c, 0, 76, 100
2, 127296, Note_on_c, 0, 65, 100
2, 127296, Note_on_c, 0, 77, 100
2, 127484, Note_off_c, 0, 65, 100
2, 127484, Note_off_c, 0, 77, 100
2, 127488, Note_on_c, 0, 67, 100
2, 127488, Note_on_c, 0, 79, 100
2, 127676, Note_off_c, 0, 67, 100
2, 127676, Note_off_c, 0, 79, 100
2, 127680, Note_on_c, 0, 68, 100
2, 127680, Note_on_c, 0, 80, 100
2, 127868, Note_off_c, 0, 68, 100
2, 127868, Note_off_c, 0, 80, 100
2, 127872, Note_on_c, 0, 79, 100
2, 127872, Note_on_c, 0, 82, 100
2, 128060, Note_off_c, 0, 79, 100
2, 128060, Note_off_c, 0, 82, 100
2, 128064, Note_on_c, 0, 84, 100
2, 128064, Note_on_c, 0, 80, 100
2, 128252, Note_off_c, 0, 84, 100
2, 128252, Note_off_c, 0, 80, 100
2, 128256, Note_on_c, 0, 79, 100
2, 128256, Note_on_c, 0, 82, 100
2, 128444, Note_off_c, 0, 79, 100
2, 128444, Note_off_c, 0, 82, 100
2, 128448, Note_on_c, 0, 77, 100
2, 128448, Note_on_c, 0, 80, 100
2, 128636, Note_off_c, 0, 77, 100
2, 128636, Note_off_c, 0, 80, 100
2, 128640, Note_on_c, 0, 75, 100
2, 128640, Note_on_c, 0, 79, 100
2, 128828, Note_off_c, 0, 75, 100
2, 128828, Note_off_c, 0, 79, 100
2, 128832, Note_on_c, 0, 74, 100
2, 128832, Note_on_c, 0, 77, 100
2, 129020, Note_off_c, 0, 74, 100
2, 129020, Note_off_c, 0, 77, 100
2, 129024, Note_on_c, 0, 67, 100
2, 129024, Note_on_c, 0, 75, 100
2, 129212, Note_off_c, 0, 67, 100
2, 129212, Note_off_c, 0, 75, 100
2, 129216, Note_on_c, 0, 79, 100
2, 129312, Note_on_c, 0, 75, 100
2, 129404, Note_off_c, 0, 79, 100
2, 129408, Note_on_c, 0, 82, 100
2, 129500, Note_off_c, 0, 75, 100
2, 129504, Note_on_c, 0, 79, 100
2, 129596, Note_off_c, 0, 82, 100
2, 129600, Note_on_c, 0, 87, 100
2, 129692, Note_off_c, 0, 79, 100
2, 129788, Note_off_c, 0, 87, 100
2, 129792, Note_on_c, 0, 79, 100
2, 129884, Note_off_c, 0, 79, 100
2, 129888, Note_on_c, 0, 75, 100
2, 129980, Note_off_c, 0, 75, 100
2, 129984, Note_on_c, 0, 77, 100
2, 130076, Note_off_c, 0, 77, 100
2, 130080, Note_on_c, 0, 74, 100
2, 130172, Note_off_c, 0, 74, 100
2, 130176, Note_on_c, 0, 67, 100
2, 130176, Note_on_c, 0, 75, 100
2, 130364, Note_off_c, 0, 67, 100
2, 130364, Note_off_c, 0, 75, 100
2, 130368, Note_on_c, 0, 79, 100
2, 130464, Note_on_c, 0, 75, 100
2, 130556, Note_off_c, 0, 79, 100
2, 130560, Note_on_c, 0, 82, 100
2, 130652, Note_off_c, 0, 75, 100
2, 130656, Note_on_c, 0, 79, 100
2, 130748, Note_off_c, 0, 82, 100
2, 130752, Note_on_c, 0, 87, 100
2, 130844, Note_off_c, 0, 79, 100
2, 130940, Note_off_c, 0, 87, 100
2, 130944, Note_on_c, 0, 79, 100
2, 131036, Note_off_c, 0, 79, 100
2, 131040, Note_on_c, 0, 75, 100
2, 131132, Note_off_c, 0, 75, 100
2, 131136, Note_on_c, 0, 77, 100
2, 131228, Note_off_c, 0, 77, 100
2, 131232, Note_on_c, 0, 74, 100
2, 131324, Note_off_c, 0, 74, 100
2, 131328, Note_on_c, 0, 67, 100
2, 131328, Note_on_c, 0, 75, 100
2, 131516, Note_off_c, 0, 67, 100
2, 131516, Note_off_c, 0, 75, 100
2, 131520, Note_on_c, 0, 67, 100
2, 131520, Note_on_c, 0, 75, 100
2, 131708, Note_off_c, 0, 67, 100
2, 131708, Note_off_c, 0, 75, 100
2, 131712, Note_on_c, 0, 67, 100
2, 131712, Note_on_c, 0, 75, 100
2, 131900, Note_off_c, 0, 67, 100
2, 131900, Note_off_c, 0, 75, 100
2, 131904, Note_on_c, 0, 67, 100
2, 131904, Note_on_c, 0, 75, 100
2, 132476, Note_off_c, 0, 67, 100
2, 132476, Note_off_c, 0, 75, 100
2, 134784, Control_c, 0, 11, 0
2, 134880, Note_on_c, 0, 63, 1
2, 134972, Note_off_c, 0, 63, 100
2, 134972, End_track
3, 0, Start_track
3, 0, Title_t, "Piano Left"
3, 0, Control_c, 1, 0, 0
3, 0, Program_c, 1, 0
3, 0, Control_c, 1, 7, 100
3, 0, Control_c, 1, 10, 57
3, 0, Control_c, 1, 91, 127
3, 0, Key_signature, -3, "major"
3, 0, Note_on_c, 1, 51, 70
3, 572, Note_off_c, 1, 51, 100
3, 576, Note_on_c, 1, 55, 70
3, 1148, Note_off_c, 1, 55, 100
3, 1152, Note_on_c, 1, 58, 70
3, 1724, Note_off_c, 1, 58, 100
3, 1728, Note_on_c, 1, 56, 70
3, 1916, Note_off_c, 1, 56, 100
3, 1920, Note_on_c, 1, 55, 70
3, 2108, Note_off_c, 1, 55, 100
3, 2112, Note_on_c, 1, 53, 70
3, 2300, Note_off_c, 1, 53, 100
3, 2304, Note_on_c, 1, 51, 70
3, 2876, Note_off_c, 1, 51, 100
3, 2880, Note_on_c, 1, 51, 70
3, 3452, Note_off_c, 1, 51, 100
3, 3456, Note_on_c, 1, 46, 70
3, 4028, Note_off_c, 1, 46, 100
3, 4032, Note_on_c, 1, 58, 70
3, 4220, Note_off_c, 1, 58, 100
3, 4224, Note_on_c, 1, 56, 80
3, 4412, Note_off_c, 1, 56, 100
3, 4416, Note_on_c, 1, 53, 90
3, 4604, Note_off_c, 1, 53, 100
3, 4608, Note_on_c, 1, 51, 101
3, 5180, Note_off_c, 1, 51, 100
3, 5184, Note_on_c, 1, 55, 100
3, 5756, Note_off_c, 1, 55, 100
3, 5760, Note_on_c, 1, 58, 100
3, 6332, Note_off_c, 1, 58, 100
3, 6336, Note_on_c, 1, 56, 100
3, 6524, Note_off_c, 1, 56, 100
3, 6528, Note_on_c, 1, 55, 100
3, 6716, Note_off_c, 1, 55, 100
3, 6720, Note_on_c, 1, 53, 100
3, 6908, Note_off_c, 1, 53, 100
3, 6912, Note_on_c, 1, 51, 100
3, 7484, Note_off_c, 1, 51, 100
3, 7488, Note_on_c, 1, 58, 100
3, 7868, Note_off_c, 1, 58, 100
3, 7872, Note_on_c, 1, 46, 100
3, 8060, Note_off_c, 1, 46, 100
3, 8064, Note_on_c, 1, 51, 100
3, 8252, Note_off_c, 1, 51, 100
3, 8256, Note_on_c, 1, 51, 100
3, 8444, Note_off_c, 1, 51, 100
3, 8448, Note_on_c, 1, 51, 100
3, 8636, Note_off_c, 1, 51, 100
3, 8640, Note_on_c, 1, 51, 100
3, 9212, Note_off_c, 1, 51, 100
3, 9216, Note_on_c, 1, 51, 100
3, 9596, Note_off_c, 1, 51, 100
3, 9600, Note_on_c, 1, 55, 100
3, 9788, Note_off_c, 1, 55, 100
3, 9792, Note_on_c, 1, 51, 100
3, 10172, Note_off_c, 1, 51, 100
3, 10176, Note_on_c, 1, 55, 100
3, 10364, Note_off_c, 1, 55, 100
3, 10368, Note_on_c, 1, 50, 100
3, 10748, Note_off_c, 1, 50, 100
3, 10752, Note_on_c, 1, 53, 100
3, 10940, Note_off_c, 1, 53, 100
3, 10944, Note_on_c, 1, 50, 100
3, 11324, Note_off_c, 1, 50, 100
3, 11328, Note_on_c, 1, 53, 100
3, 11516, Note_off_c, 1, 53, 100
3, 11520, Note_on_c, 1, 51, 100
3, 12092, Note_off_c, 1, 51, 100
3, 12096, Note_on_c, 1, 51, 100
3, 12284, Note_off_c, 1, 51, 100
3, 12288, Note_on_c, 1, 56, 100
3, 12476, Note_off_c, 1, 56, 100
3, 12480, Note_on_c, 1, 57, 100
3, 12668, Note_off_c, 1, 57, 100
3, 12672, Note_on_c, 1, 58, 100
3, 12860, Note_off_c, 1, 58, 100
3, 12864, Note_on_c, 1, 58, 100
3, 13052, Note_off_c, 1, 58, 100
3, 13056, Note_on_c, 1, 58, 100
3, 13244, Note_off_c, 1, 58, 100
3, 13248, Note_on_c, 1, 58, 100
3, 13820, Note_off_c, 1, 58, 100
3, 13824, Note_on_c, 1, 51, 100
3, 14204, Note_off_c, 1, 51, 100
3, 14208, Note_on_c, 1, 55, 100
3, 14396, Note_off_c, 1, 55, 100
3, 14400, Note_on_c, 1, 51, 100
3, 14780, Note_off_c, 1, 51, 100
3, 14784, Note_on_c, 1, 55, 100
3, 14972, Note_off_c, 1, 55, 100
3, 14976, Note_on_c, 1, 51, 100
3, 15356, Note_off_c, 1, 51, 100
3, 15360, Note_on_c, 1, 53, 100
3, 15548, Note_off_c, 1, 53, 100
3, 15552, Note_on_c, 1, 51, 100
3, 15932, Note_off_c, 1, 51, 100
3, 15936, Note_on_c, 1, 53, 100
3, 16124, Note_off_c, 1, 53, 100
3, 16128, Note_on_c, 1, 50, 100
3, 16220, Note_off_c, 1, 50, 100
3, 16224, Note_on_c, 1, 53, 100
3, 16316, Note_off_c, 1, 53, 100
3, 16320, Note_on_c, 1, 50, 100
3, 16412, Note_off_c, 1, 50, 100
3, 16416, Note_on_c, 1, 53, 100
3, 16508, Note_off_c, 1, 53, 100
3, 16512, Note_on_c, 1, 50, 100
3, 16604, Note_off_c, 1, 50, 100
3, 16608, Note_on_c, 1, 53, 100
3, 16700, Note_off_c, 1, 53, 100
3, 16704, Note_on_c, 1, 46, 100
3, 16796, Note_off_c, 1, 46, 100
3, 16800, Note_on_c, 1, 53, 100
3, 16892, Note_off_c, 1, 53, 100
3, 16896, Note_on_c, 1, 46, 100
3, 16988, Note_off_c, 1, 46, 100
3, 16992, Note_on_c, 1, 53, 100
3, 17084, Note_off_c, 1, 53, 100
3, 17088, Note_on_c, 1, 46, 100
3, 17180, Note_off_c, 1, 46, 100
3, 17184, Note_on_c, 1, 53, 100
3, 17276, Note_off_c, 1, 53, 100
3, 17280, Note_on_c, 1, 51, 100
3, 17468, Note_off_c, 1, 51, 100
3, 17472, Note_on_c, 1, 51, 100
3, 17660, Note_off_c, 1, 51, 100
3, 17664, Note_on_c, 1, 51, 100
3, 17852, Note_off_c, 1, 51, 100
3, 17856, Note_on_c, 1, 53, 100
3, 18044, Note_off_c, 1, 53, 100
3, 18048, Note_on_c, 1, 53, 100
3, 18236, Note_off_c, 1, 53, 100
3, 18240, Note_on_c, 1, 41, 100
3, 18428, Note_off_c, 1, 41, 100
3, 18432, Note_on_c, 1, 46, 100
3, 18528, Note_on_c, 1, 50, 100
3, 18620, Note_off_c, 1, 46, 100
3, 18624, Note_on_c, 1, 53, 100
3, 18716, Note_off_c, 1, 50, 100
3, 18720, Note_on_c, 1, 50, 100
3, 18812, Note_off_c, 1, 53, 100
3, 18816, Note_on_c, 1, 53, 100
3, 18908, Note_off_c, 1, 50, 100
3, 18912, Note_on_c, 1, 50, 100
3, 19004, Note_off_c, 1, 53, 100
3, 19004, Note_off_c, 1, 50, 100
3, 19008, Note_on_c, 1, 46, 100
3, 19104, Note_on_c, 1, 50, 100
3, 19196, Note_off_c, 1, 46, 100
3, 19200, Note_on_c, 1, 53, 100
3, 19292, Note_off_c, 1, 50, 100
3, 19296, Note_on_c, 1, 50, 100
3, 19388, Note_off_c, 1, 53, 100
3, 19392, Note_on_c, 1, 53, 100
3, 19484, Note_off_c, 1, 50, 100
3, 19488, Note_on_c, 1, 50, 100
3, 19580, Note_off_c, 1, 53, 100
3, 19580, Note_off_c, 1, 50, 100
3, 19584, Note_on_c, 1, 50, 100
3, 19680, Note_on_c, 1, 53, 100
3, 19772, Note_off_c, 1, 50, 100
3, 19776, Note_on_c, 1, 58, 100
3, 19868, Note_off_c, 1, 53, 100
3, 19872, Note_on_c, 1, 53, 100
3, 19964, Note_off_c, 1, 58, 100
3, 19968, Note_on_c, 1, 58, 100
3, 20060, Note_off_c, 1, 53, 100
3, 20064, Note_on_c, 1, 53, 100
3, 20156, Note_off_c, 1, 58, 100
3, 20156, Note_off_c, 1, 53, 100
3, 20160, Note_on_c, 1, 50, 100
3, 20256, Note_on_c, 1, 53, 100
3, 20348, Note_off_c, 1, 50, 100
3, 20352, Note_on_c, 1, 58, 100
3, 20444, Note_off_c, 1, 53, 100
3, 20448, Note_on_c, 1, 53, 100
3, 20540, Note_off_c, 1, 58, 100
3, 20544, Note_on_c, 1, 58, 100
3, 20636, Note_off_c, 1, 53, 100
3, 20640, Note_on_c, 1, 53, 100
3, 20732, Note_off_c, 1, 58, 100
3, 20732, Note_off_c, 1, 53, 100
3, 20736, Note_on_c, 1, 51, 100
3, 20832, Note_on_c, 1, 55, 100
3, 20924, Note_off_c, 1, 51, 100
3, 20928, Note_on_c, 1, 58, 100
3, 21020, Note_off_c, 1, 55, 100
3, 21024, Note_on_c, 1, 55, 100
3, 21116, Note_off_c, 1, 58, 100
3, 21120, Note_on_c, 1, 58, 100
3, 21212, Note_off_c, 1, 55, 100
3, 21216, Note_on_c, 1, 55, 100
3, 21308, Note_off_c, 1, 58, 100
3, 21308, Note_off_c, 1, 55, 100
3, 21312, Note_on_c, 1, 51, 100
3, 21408, Note_on_c, 1, 55, 100
3, 21500, Note_off_c, 1, 51, 100
3, 21504, Note_on_c, 1, 58, 100
3, 21596, Note_off_c, 1, 55, 100
3, 21600, Note_on_c, 1, 55, 100
3, 21692, Note_off_c, 1, 58, 100
3, 21696, Note_on_c, 1, 58, 100
3, 21788, Note_off_c, 1, 55, 100
3, 21792, Note_on_c, 1, 55, 100
3, 21884, Note_off_c, 1, 58, 100
3, 21884, Note_off_c, 1, 55, 100
3, 21888, Note_on_c, 1, 51, 100
3, 21984, Note_on_c, 1, 55, 100
3, 22076, Note_off_c, 1, 51, 100
3, 22080, Note_on_c, 1, 58, 100
3, 22172, Note_off_c, 1, 55, 100
3, 22176, Note_on_c, 1, 55, 100
3, 22268, Note_off_c, 1, 58, 100
3, 22272, Note_on_c, 1, 58, 100
3, 22364, Note_off_c, 1, 55, 100
3, 22368, Note_on_c, 1, 55, 100
3, 22460, Note_off_c, 1, 58, 100
3, 22460, Note_off_c, 1, 55, 100
3, 22464, Note_on_c, 1, 51, 100
3, 22560, Note_on_c, 1, 55, 100
3, 22652, Note_off_c, 1, 51, 100
3, 22656, Note_on_c, 1, 58, 100
3, 22748, Note_off_c, 1, 55, 100
3, 22752, Note_on_c, 1, 55, 100
3, 22844, Note_off_c, 1, 58, 100
3, 22848, Note_on_c, 1, 58, 100
3, 22940, Note_off_c, 1, 55, 100
3, 22944, Note_on_c, 1, 55, 100
3, 23036, Note_off_c, 1, 58, 100
3, 23036, Note_off_c, 1, 55, 100
3, 23040, Note_on_c, 1, 52, 100
3, 23136, Note_on_c, 1, 55, 100
3, 23228, Note_off_c, 1, 52, 100
3, 23232, Note_on_c, 1, 58, 100
3, 23324, Note_off_c, 1, 55, 100
3, 23328, Note_on_c, 1, 55, 100
3, 23420, Note_off_c, 1, 58, 100
3, 23424, Note_on_c, 1, 58, 100
3, 23516, Note_off_c, 1, 55, 100
3, 23520, Note_on_c, 1, 55, 100
3, 23612, Note_off_c, 1, 58, 100
3, 23612, Note_off_c, 1, 55, 100
3, 23616, Note_on_c, 1, 52, 100
3, 23712, Note_on_c, 1, 55, 100
3, 23804, Note_off_c, 1, 52, 100
3, 23808, Note_on_c, 1, 58, 100
3, 23900, Note_off_c, 1, 55, 100
3, 23904, Note_on_c, 1, 55, 100
3, 23996, Note_off_c, 1, 58, 100
3, 24000, Note_on_c, 1, 58, 100
3, 24092, Note_off_c, 1, 55, 100
3, 24096, Note_on_c, 1, 55, 100
3, 24188, Note_off_c, 1, 58, 100
3, 24188, Note_off_c, 1, 55, 100
3, 24192, Note_on_c, 1, 52, 100
3, 24288, Note_on_c, 1, 55, 100
3, 24380, Note_off_c, 1, 52, 100
3, 24384, Note_on_c, 1, 58, 100
3, 24476, Note_off_c, 1, 55, 100
3, 24480, Note_on_c, 1, 55, 100
3, 24572, Note_off_c, 1, 58, 100
3, 24576, Note_on_c, 1, 58, 100
3, 24668, Note_off_c, 1, 55, 100
3, 24672, Note_on_c, 1, 55, 100
3, 24764, Note_off_c, 1, 58, 100
3, 24764, Note_off_c, 1, 55, 100
3, 24768, Note_on_c, 1, 52, 100
3, 24864, Note_on_c, 1, 55, 100
3, 24956, Note_off_c, 1, 52, 100
3, 24960, Note_on_c, 1, 58, 100
3, 25052, Note_off_c, 1, 55, 100
3, 25056, Note_on_c, 1, 55, 100
3, 25148, Note_off_c, 1, 58, 100
3, 25152, Note_on_c, 1, 58, 100
3, 25244, Note_off_c, 1, 55, 100
3, 25248, Note_on_c, 1, 55, 100
3, 25340, Note_off_c, 1, 58, 100
3, 25340, Note_off_c, 1, 55, 100
3, 25344, Note_on_c, 1, 53, 100
3, 25532, Note_off_c, 1, 53, 100
3, 25536, Note_on_c, 1, 41, 100
3, 25724, Note_off_c, 1, 41, 100
3, 25728, Note_on_c, 1, 41, 100
3, 25916, Note_off_c, 1, 41, 100
3, 25920, Note_on_c, 1, 41, 100
3, 26492, Note_off_c, 1, 41, 100
3, 26496, Note_on_c, 1, 53, 100
3, 26496, Note_on_c, 1, 57, 100
3, 26496, Note_on_c, 1, 60, 100
3, 27644, Note_off_c, 1, 53, 100
3, 27644, Note_off_c, 1, 57, 100
3, 27644, Note_off_c, 1, 60, 100
3, 27648, Note_on_c, 1, 53, 100
3, 27648, Note_on_c, 1, 58, 100
3, 27648, Note_on_c, 1, 62, 100
3, 28796, Note_off_c, 1, 53, 100
3, 28796, Note_off_c, 1, 58, 100
3, 28796, Note_off_c, 1, 62, 100
3, 28800, Note_on_c, 1, 53, 100
3, 28800, Note_on_c, 1, 57, 100
3, 28800, Note_on_c, 1, 60, 100
3, 29948, Note_off_c, 1, 53, 100
3, 29948, Note_off_c, 1, 57, 100
3, 29948, Note_off_c, 1, 60, 100
3, 29952, Note_on_c, 1, 53, 100
3, 29952, Note_on_c, 1, 58, 100
3, 29952, Note_on_c, 1, 62, 100
3, 31100, Note_off_c, 1, 53, 100
3, 31100, Note_off_c, 1, 58, 100
3, 31100, Note_off_c, 1, 62, 100
3, 31104, Note_on_c, 1, 39, 100
3, 31104, Note_on_c, 1, 43, 100
3, 31104, Note_on_c, 1, 46, 100
3, 31104, Note_on_c, 1, 51, 100
3, 32252, Note_off_c, 1, 39, 100
3, 32252, Note_off_c, 1, 43, 100
3, 32252, Note_off_c, 1, 46, 100
3, 32252, Note_off_c, 1, 51, 100
3, 33408, Note_on_c, 1, 38, 100
3, 33408, Note_on_c, 1, 41, 100
3, 33408, Note_on_c, 1, 46, 100
3, 33408, Note_on_c, 1, 50, 100
3, 34556, Note_off_c, 1, 38, 100
3, 34556, Note_off_c, 1, 41, 100
3, 34556, Note_off_c, 1, 46, 100
3, 34556, Note_off_c, 1, 50, 100
3, 35712, Note_on_c, 1, 55, 100
3, 36092, Note_off_c, 1, 55, 100
3, 36096, Note_on_c, 1, 53, 100
3, 36284, Note_off_c, 1, 53, 100
3, 36288, Note_on_c, 1, 51, 100
3, 36668, Note_off_c, 1, 51, 100
3, 36672, Note_on_c, 1, 48, 100
3, 36860, Note_off_c, 1, 48, 100
3, 36864, Note_on_c, 1, 53, 100
3, 37436, Note_off_c, 1, 53, 100
3, 37440, Note_on_c, 1, 41, 100
3, 38012, Note_off_c, 1, 41, 100
3, 38016, Note_on_c, 1, 58, 70
3, 38016, Note_on_c, 1, 62, 70
3, 38016, Note_on_c, 1, 65, 70
3, 38588, Note_off_c, 1, 58, 100
3, 38588, Note_off_c, 1, 62, 100
3, 38588, Note_off_c, 1, 65, 100
3, 38592, Note_on_c, 1, 60, 70
3, 38592, Note_on_c, 1, 63, 70
3, 38592, Note_on_c, 1, 65, 70
3, 39164, Note_off_c, 1, 60, 100
3, 39164, Note_off_c, 1, 63, 100
3, 39164, Note_off_c, 1, 65, 100
3, 39168, Note_on_c, 1, 58, 60
3, 39168, Note_on_c, 1, 62, 60
3, 39168, Note_on_c, 1, 65, 60
3, 39740, Note_off_c, 1, 58, 100
3, 39740, Note_off_c, 1, 62, 100
3, 39740, Note_off_c, 1, 65, 100
3, 39744, Note_on_c, 1, 60, 60
3, 39744, Note_on_c, 1, 63, 60
3, 39744, Note_on_c, 1, 65, 60
3, 40316, Note_off_c, 1, 60, 100
3, 40316, Note_off_c, 1, 63, 100
3, 40316, Note_off_c, 1, 65, 100
3, 40320, Note_on_c, 1, 46, 60
3, 40320, Note_on_c, 1, 50, 60
3, 40320, Note_on_c, 1, 53, 60
3, 40320, Note_on_c, 1, 58, 60
3, 43388, Note_off_c, 1, 46, 100
3, 43388, Note_off_c, 1, 50, 100
3, 43388, Note_off_c, 1, 53, 100
3, 43388, Note_off_c, 1, 58, 100
3, 43776, Note_on_c, 1, 51, 70
3, 44348, Note_off_c, 1, 51, 100
3, 44352, Note_on_c, 1, 55, 70
3, 44924, Note_off_c, 1, 55, 100
3, 44928, Note_on_c, 1, 58, 70
3, 45500, Note_off_c, 1, 58, 100
3, 45504, Note_on_c, 1, 56, 70
3, 45692, Note_off_c, 1, 56, 100
3, 45696, Note_on_c, 1, 55, 70
3, 45884, Note_off_c, 1, 55, 100
3, 45888, Note_on_c, 1, 53, 70
3, 46076, Note_off_c, 1, 53, 100
3, 46080, Note_on_c, 1, 51, 70
3, 46652, Note_off_c, 1, 51, 100
3, 46656, Note_on_c, 1, 51, 70
3, 47228, Note_off_c, 1, 51, 100
3, 47232, Note_on_c, 1, 46, 70
3, 47804, Note_off_c, 1, 46, 100
3, 47808, Note_on_c, 1, 58, 70
3, 47996, Note_off_c, 1, 58, 100
3, 48000, Note_on_c, 1, 56, 80
3, 48188, Note_off_c, 1, 56, 100
3, 48192, Note_on_c, 1, 53, 90
3, 48380, Note_off_c, 1, 53, 100
3, 48384, Note_on_c, 1, 51, 101
3, 48956, Note_off_c, 1, 51, 100
3, 48960, Note_on_c, 1, 55, 100
3, 49532, Note_off_c, 1, 55, 100
3, 49536, Note_on_c, 1, 58, 100
3, 50108, Note_off_c, 1, 58, 100
3, 50112, Note_on_c, 1, 56, 100
3, 50300, Note_off_c, 1, 56, 100
3, 50304, Note_on_c, 1, 55, 100
3, 50492, Note_off_c, 1, 55, 100
3, 50496, Note_on_c, 1, 53, 100
3, 50684, Note_off_c, 1, 53, 100
3, 50688, Note_on_c, 1, 51, 100
3, 51260, Note_off_c, 1, 51, 100
3, 51264, Note_on_c, 1, 58, 100
3, 51644, Note_off_c, 1, 58, 100
3, 51648, Note_on_c, 1, 46, 100
3, 51836, Note_off_c, 1, 46, 100
3, 51840, Note_on_c, 1, 51, 100
3, 52220, Note_off_c, 1, 51, 100
3, 52224, Note_on_c, 1, 39, 100
3, 52412, Note_off_c, 1, 39, 100
3, 52416, Note_on_c, 1, 51, 100
3, 52988, Note_off_c, 1, 51, 100
3, 52992, Note_on_c, 1, 63, 110
3, 52992, Note_on_c, 1, 51, 110
3, 53564, Note_off_c, 1, 63, 100
3, 53564, Note_off_c, 1, 51, 100
3, 53568, Note_on_c, 1, 60, 110
3, 53568, Note_on_c, 1, 48, 110
3, 54140, Note_off_c, 1, 60, 100
3, 54140, Note_off_c, 1, 48, 100
3, 54144, Note_on_c, 1, 56, 70
3, 54144, Note_on_c, 1, 44, 70
3, 54716, Note_off_c, 1, 56, 100
3, 54716, Note_off_c, 1, 44, 100
3, 54720, Note_on_c, 1, 53, 70
3, 54720, Note_on_c, 1, 41, 70
3, 55292, Note_off_c, 1, 53, 100
3, 55292, Note_off_c, 1, 41, 100
3, 55296, Note_on_c, 1, 62, 100
3, 55296, Note_on_c, 1, 50, 100
3, 55868, Note_off_c, 1, 62, 100
3, 55868, Note_off_c, 1, 50, 100
3, 55872, Note_on_c, 1, 58, 100
3, 55872, Note_on_c, 1, 46, 100
3, 56444, Note_off_c, 1, 58, 100
3, 56444, Note_off_c, 1, 46, 100
3, 56448, Note_on_c, 1, 55, 70
3, 56448, Note_on_c, 1, 43, 70
3, 57020, Note_off_c, 1, 55, 100
3, 57020, Note_off_c, 1, 43, 100
3, 57024, Note_on_c, 1, 51, 70
3, 57024, Note_on_c, 1, 39, 70
3, 57596, Note_off_c, 1, 51, 100
3, 57596, Note_off_c, 1, 39, 100
3, 57600, Note_on_c, 1, 60, 70
3, 57980, Note_off_c, 1, 60, 100
3, 57984, Note_on_c, 1, 60, 70
3, 58172, Note_off_c, 1, 60, 100
3, 58176, Note_on_c, 1, 58, 70
3, 58556, Note_off_c, 1, 58, 100
3, 58560, Note_on_c, 1, 58, 70
3, 58748, Note_off_c, 1, 58, 100
3, 58752, Note_on_c, 1, 56, 70
3, 59132, Note_off_c, 1, 56, 100
3, 59136, Note_on_c, 1, 56, 70
3, 59324, Note_off_c, 1, 56, 100
3, 59328, Note_on_c, 1, 55, 70
3, 59708, Note_off_c, 1, 55, 100
3, 59712, Note_on_c, 1, 55, 70
3, 59900, Note_off_c, 1, 55, 100
3, 59904, Note_on_c, 1, 60, 70
3, 60284, Note_off_c, 1, 60, 100
3, 60288, Note_on_c, 1, 60, 70
3, 60476, Note_off_c, 1, 60, 100
3, 60480, Note_on_c, 1, 58, 70
3, 60860, Note_off_c, 1, 58, 100
3, 60864, Note_on_c, 1, 58, 70
3, 61052, Note_off_c, 1, 58, 100
3, 61056, Note_on_c, 1, 46, 100
3, 61056, Note_on_c, 1, 56, 100
3, 61628, Note_off_c, 1, 46, 100
3, 61628, Note_off_c, 1, 56, 100
3, 61632, Note_on_c, 1, 51, 70
3, 61632, Note_on_c, 1, 55, 70
3, 62204, Note_off_c, 1, 51, 100
3, 62204, Note_off_c, 1, 55, 100
3, 62208, Note_on_c, 1, 46, 100
3, 62208, Note_on_c, 1, 56, 100
3, 62780, Note_off_c, 1, 46, 100
3, 62780, Note_off_c, 1, 56, 100
3, 62784, Note_on_c, 1, 51, 70
3, 62784, Note_on_c, 1, 55, 70
3, 63356, Note_off_c, 1, 51, 100
3, 63356, Note_off_c, 1, 55, 100
3, 63360, Note_on_c, 1, 46, 100
3, 63360, Note_on_c, 1, 56, 100
3, 63932, Note_off_c, 1, 46, 100
3, 63932, Note_off_c, 1, 56, 100
3, 63936, Note_on_c, 1, 51, 70
3, 63936, Note_on_c, 1, 55, 70
3, 64508, Note_off_c, 1, 51, 100
3, 64508, Note_off_c, 1, 55, 100
3, 64512, Note_on_c, 1, 45, 100
3, 64892, Note_off_c, 1, 45, 100
3, 64896, Note_on_c, 1, 45, 90
3, 65084, Note_off_c, 1, 45, 100
3, 65088, Note_on_c, 1, 46, 70
3, 65276, Note_off_c, 1, 46, 100
3, 65280, Note_on_c, 1, 48, 70
3, 65468, Note_off_c, 1, 48, 100
3, 65472, Note_on_c, 1, 50, 70
3, 65660, Note_off_c, 1, 50, 100
3, 65664, Note_on_c, 1, 51, 100
3, 66044, Note_off_c, 1, 51, 100
3, 66048, Note_on_c, 1, 51, 100
3, 66236, Note_off_c, 1, 51, 100
3, 66240, Note_on_c, 1, 50, 100
3, 66428, Note_off_c, 1, 50, 100
3, 66432, Note_on_c, 1, 48, 100
3, 66620, Note_off_c, 1, 48, 100
3, 66624, Note_on_c, 1, 46, 90
3, 66812, Note_off_c, 1, 46, 100
3, 66816, Note_on_c, 1, 39, 70
3, 66816, Note_on_c, 1, 51, 70
3, 67964, Note_off_c, 1, 39, 100
3, 67964, Note_off_c, 1, 51, 100
3, 69120, Note_on_c, 1, 38, 70
3, 69120, Note_on_c, 1, 50, 70
3, 70268, Note_off_c, 1, 38, 100
3, 70268, Note_off_c, 1, 50, 100
3, 71424, Note_on_c, 1, 48, 70
3, 71996, Note_off_c, 1, 48, 100
3, 72000, Note_on_c, 1, 46, 70
3, 72572, Note_off_c, 1, 46, 100
3, 72576, Note_on_c, 1, 40, 100
3, 72576, Note_on_c, 1, 52, 100
3, 73724, Note_off_c, 1, 40, 100
3, 73724, Note_off_c, 1, 52, 100
3, 73728, Note_on_c, 1, 41, 100
3, 73728, Note_on_c, 1, 53, 100
3, 73916, Note_off_c, 1, 41, 100
3, 73916, Note_off_c, 1, 53, 100
3, 73920, Note_on_c, 1, 41, 100
3, 73920, Note_on_c, 1, 53, 100
3, 74108, Note_off_c, 1, 41, 100
3, 74108, Note_off_c, 1, 53, 100
3, 74112, Note_on_c, 1, 41, 100
3, 74112, Note_on_c, 1, 53, 100
3, 74300, Note_off_c, 1, 41, 100
3, 74300, Note_off_c, 1, 53, 100
3, 74304, Note_on_c, 1, 41, 100
3, 74304, Note_on_c, 1, 53, 100
3, 74876, Note_off_c, 1, 41, 100
3, 74876, Note_off_c, 1, 53, 100
3, 74880, Note_on_c, 1, 50, 100
3, 75452, Note_off_c, 1, 50, 100
3, 75456, Note_on_c, 1, 51, 100
3, 75644, Note_off_c, 1, 51, 100
3, 75648, Note_on_c, 1, 49, 100
3, 75740, Note_off_c, 1, 49, 100
3, 75744, Note_on_c, 1, 48, 100
3, 75836, Note_off_c, 1, 48, 100
3, 75840, Note_on_c, 1, 46, 100
3, 75932, Note_off_c, 1, 46, 100
3, 75936, Note_on_c, 1, 45, 100
3, 76028, Note_off_c, 1, 45, 100
3, 76032, Note_on_c, 1, 46, 100
3, 76604, Note_off_c, 1, 46, 100
3, 76608, Note_on_c, 1, 53, 100
3, 76988, Note_off_c, 1, 53, 100
3, 76992, Note_on_c, 1, 41, 100
3, 77180, Note_off_c, 1, 41, 100
3, 77184, Note_on_c, 1, 46, 100
3, 77756, Note_off_c, 1, 46, 100
3, 77760, Note_on_c, 1, 51, 100
3, 77948, Note_off_c, 1, 51, 100
3, 77952, Note_on_c, 1, 49, 100
3, 78044, Note_off_c, 1, 49, 100
3, 78048, Note_on_c, 1, 48, 100
3, 78140, Note_off_c, 1, 48, 100
3, 78144, Note_on_c, 1, 46, 100
3, 78236, Note_off_c, 1, 46, 100
3, 78240, Note_on_c, 1, 45, 100
3, 78332, Note_off_c, 1, 45, 100
3, 78336, Note_on_c, 1, 46, 100
3, 78908, Note_off_c, 1, 46, 100
3, 78912, Note_on_c, 1, 53, 100
3, 79292, Note_off_c, 1, 53, 100
3, 79296, Note_on_c, 1, 41, 100
3, 79484, Note_off_c, 1, 41, 100
3, 79488, Note_on_c, 1, 46, 100
3, 80060, Note_off_c, 1, 46, 100
3, 80640, Note_on_c, 1, 56, 70
3, 80640, Note_on_c, 1, 46, 70
3, 81020, Note_off_c, 1, 56, 100
3, 81024, Note_on_c, 1, 55, 70
3, 81212, Note_off_c, 1, 46, 100
3, 81212, Note_off_c, 1, 55, 100
3, 81216, Note_on_c, 1, 53, 70
3, 81216, Note_on_c, 1, 46, 70
3, 81596, Note_off_c, 1, 53, 100
3, 81600, Note_on_c, 1, 51, 70
3, 81788, Note_off_c, 1, 46, 100
3, 81788, Note_off_c, 1, 51, 100
3, 81792, Note_on_c, 1, 56, 70
3, 81792, Note_on_c, 1, 46, 70
3, 82172, Note_off_c, 1, 56, 100
3, 82176, Note_on_c, 1, 55, 70
3, 82364, Note_off_c, 1, 46, 100
3, 82364, Note_off_c, 1, 55, 100
3, 82368, Note_on_c, 1, 53, 70
3, 82368, Note_on_c, 1, 46, 70
3, 82748, Note_off_c, 1, 53, 100
3, 82752, Note_on_c, 1, 51, 70
3, 82940, Note_off_c, 1, 46, 100
3, 82940, Note_off_c, 1, 51, 100
3, 82944, Note_on_c, 1, 46, 70
3, 83324, Note_off_c, 1, 46, 100
3, 83328, Note_on_c, 1, 51, 70
3, 83516, Note_off_c, 1, 51, 100
3, 83520, Note_on_c, 1, 46, 70
3, 83900, Note_off_c, 1, 46, 100
3, 83904, Note_on_c, 1, 51, 70
3, 84092, Note_off_c, 1, 51, 100
3, 84096, Note_on_c, 1, 46, 70
3, 84096, Note_on_c, 1, 50, 70
3, 84096, Note_on_c, 1, 53, 70
3, 84096, Note_on_c, 1, 58, 70
3, 87164, Note_off_c, 1, 46, 100
3, 87164, Note_off_c, 1, 50, 100
3, 87164, Note_off_c, 1, 53, 100
3, 87164, Note_off_c, 1, 58, 100
3, 87552, Note_on_c, 1, 51, 70
3, 88124, Note_off_c, 1, 51, 100
3, 88128, Note_on_c, 1, 55, 70
3, 88700, Note_off_c, 1, 55, 100
3, 88704, Note_on_c, 1, 58, 70
3, 89276, Note_off_c, 1, 58, 100
3, 89280, Note_on_c, 1, 56, 70
3, 89468, Note_off_c, 1, 56, 100
3, 89472, Note_on_c, 1, 55, 70
3, 89660, Note_off_c, 1, 55, 100
3, 89664, Note_on_c, 1, 53, 70
3, 89852, Note_off_c, 1, 53, 100
3, 89856, Note_on_c, 1, 51, 70
3, 90428, Note_off_c, 1, 51, 100
3, 90432, Note_on_c, 1, 51, 70
3, 91004, Note_off_c, 1, 51, 100
3, 91008, Note_on_c, 1, 46, 70
3, 91580, Note_off_c, 1, 46, 100
3, 91584, Note_on_c, 1, 58, 70
3, 91772, Note_off_c, 1, 58, 100
3, 91776, Note_on_c, 1, 56, 80
3, 91964, Note_off_c, 1, 56, 100
3, 91968, Note_on_c, 1, 53, 90
3, 92156, Note_off_c, 1, 53, 100
3, 92160, Note_on_c, 1, 51, 101
3, 92732, Note_off_c, 1, 51, 100
3, 92736, Note_on_c, 1, 55, 100
3, 93308, Note_off_c, 1, 55, 100
3, 93312, Note_on_c, 1, 58, 100
3, 93884, Note_off_c, 1, 58, 100
3, 93888, Note_on_c, 1, 56, 100
3, 94076, Note_off_c, 1, 56, 100
3, 94080, Note_on_c, 1, 55, 100
3, 94268, Note_off_c, 1, 55, 100
3, 94272, Note_on_c, 1, 53, 100
3, 94460, Note_off_c, 1, 53, 100
3, 94464, Note_on_c, 1, 51, 100
3, 95036, Note_off_c, 1, 51, 100
3, 95040, Note_on_c, 1, 58, 100
3, 95420, Note_off_c, 1, 58, 100
3, 95424, Note_on_c, 1, 46, 100
3, 95612, Note_off_c, 1, 46, 100
3, 95616, Note_on_c, 1, 51, 100
3, 95804, Note_off_c, 1, 51, 100
3, 95808, Note_on_c, 1, 46, 100
3, 95996, Note_off_c, 1, 46, 100
3, 96000, Note_on_c, 1, 43, 100
3, 96188, Note_off_c, 1, 43, 100
3, 96192, Note_on_c, 1, 39, 100
3, 96572, Note_off_c, 1, 39, 100
3, 96768, Note_on_c, 1, 60, 100
3, 96768, Note_on_c, 1, 48, 100
3, 97340, Note_off_c, 1, 60, 100
3, 97340, Note_off_c, 1, 48, 100
3, 97344, Note_on_c, 1, 55, 100
3, 97344, Note_on_c, 1, 43, 100
3, 97916, Note_off_c, 1, 55, 100
3, 97916, Note_off_c, 1, 43, 100
3, 97920, Note_on_c, 1, 51, 100
3, 97920, Note_on_c, 1, 39, 100
3, 98492, Note_off_c, 1, 51, 100
3, 98492, Note_off_c, 1, 39, 100
3, 98496, Note_on_c, 1, 48, 100
3, 98496, Note_on_c, 1, 36, 100
3, 99068, Note_off_c, 1, 48, 100
3, 99068, Note_off_c, 1, 36, 100
3, 99072, Note_on_c, 1, 47, 70
3, 99072, Note_on_c, 1, 35, 70
3, 99260, Note_off_c, 1, 47, 100
3, 99260, Note_off_c, 1, 35, 100
3, 99264, Note_on_c, 1, 47, 70
3, 99264, Note_on_c, 1, 35, 70
3, 99452, Note_off_c, 1, 47, 100
3, 99452, Note_off_c, 1, 35, 100
3, 99456, Note_on_c, 1, 47, 70
3, 99456, Note_on_c, 1, 35, 70
3, 99644, Note_off_c, 1, 47, 100
3, 99644, Note_off_c, 1, 35, 100
3, 99648, Note_on_c, 1, 47, 70
3, 99648, Note_on_c, 1, 35, 70
3, 99836, Note_off_c, 1, 47, 100
3, 99836, Note_off_c, 1, 35, 100
3, 99840, Note_on_c, 1, 47, 70
3, 99840, Note_on_c, 1, 35, 70
3, 100028, Note_off_c, 1, 47, 100
3, 100028, Note_off_c, 1, 35, 100
3, 100032, Note_on_c, 1, 47, 70
3, 100032, Note_on_c, 1, 35, 70
3, 100220, Note_off_c, 1, 47, 100
3, 100220, Note_off_c, 1, 35, 100
3, 100224, Note_on_c, 1, 48, 100
3, 100224, Note_on_c, 1, 36, 100
3, 101372, Note_off_c, 1, 48, 100
3, 101372, Note_off_c, 1, 36, 100
3, 101376, Note_on_c, 1, 60, 100
3, 101376, Note_on_c, 1, 48, 100
3, 101948, Note_off_c, 1, 60, 100
3, 101948, Note_off_c, 1, 48, 100
3, 101952, Note_on_c, 1, 55, 100
3, 101952, Note_on_c, 1, 43, 100
3, 102524, Note_off_c, 1, 55, 100
3, 102524, Note_off_c, 1, 43, 100
3, 102528, Note_on_c, 1, 51, 100
3, 102528, Note_on_c, 1, 39, 100
3, 103100, Note_off_c, 1, 51, 100
3, 103100, Note_off_c, 1, 39, 100
3, 103104, Note_on_c, 1, 48, 100
3, 103104, Note_on_c, 1, 36, 100
3, 103676, Note_off_c, 1, 48, 100
3, 103676, Note_off_c, 1, 36, 100
3, 103680, Note_on_c, 1, 53, 100
3, 103868, Note_off_c, 1, 53, 100
3, 104640, Note_on_c, 1, 54, 100
3, 104828, Note_off_c, 1, 54, 100
3, 104832, Note_on_c, 1, 55, 100
3, 105404, Note_off_c, 1, 55, 100
3, 105408, Note_on_c, 1, 43, 100
3, 105596, Note_off_c, 1, 43, 100
3, 105984, Note_on_c, 1, 51, 70
3, 105984, Note_on_c, 1, 39, 70
3, 106556, Note_off_c, 1, 51, 100
3, 106556, Note_off_c, 1, 39, 100
3, 106560, Note_on_c, 1, 58, 70
3, 106560, Note_on_c, 1, 46, 70
3, 107132, Note_off_c, 1, 58, 100
3, 107132, Note_off_c, 1, 46, 100
3, 107136, Note_on_c, 1, 51, 70
3, 107136, Note_on_c, 1, 39, 70
3, 107708, Note_off_c, 1, 51, 100
3, 107708, Note_off_c, 1, 39, 100
3, 107712, Note_on_c, 1, 58, 70
3, 107712, Note_on_c, 1, 46, 70
3, 108284, Note_off_c, 1, 58, 100
3, 108284, Note_off_c, 1, 46, 100
3, 108288, Note_on_c, 1, 51, 100
3, 108288, Note_on_c, 1, 39, 100
3, 108860, Note_off_c, 1, 51, 100
3, 108860, Note_off_c, 1, 39, 100
3, 108864, Note_on_c, 1, 56, 100
3, 108864, Note_on_c, 1, 44, 100
3, 109436, Note_off_c, 1, 56, 100
3, 109436, Note_off_c, 1, 44, 100
3, 109440, Note_on_c, 1, 58, 100
3, 109440, Note_on_c, 1, 46, 100
3, 110012, Note_off_c, 1, 58, 100
3, 110012, Note_off_c, 1, 46, 100
3, 110016, Note_on_c, 1, 46, 100
3, 110016, Note_on_c, 1, 34, 100
3, 110588, Note_off_c, 1, 46, 100
3, 110588, Note_off_c, 1, 34, 100
3, 110592, Note_on_c, 1, 51, 100
3, 110592, Note_on_c, 1, 39, 100
3, 110972, Note_off_c, 1, 51, 100
3, 110972, Note_off_c, 1, 39, 100
3, 111360, Note_on_c, 1, 53, 100
3, 111548, Note_off_c, 1, 53, 100
3, 111552, Note_on_c, 1, 54, 100
3, 111740, Note_off_c, 1, 54, 100
3, 111744, Note_on_c, 1, 55, 100
3, 111932, Note_off_c, 1, 55, 100
3, 111936, Note_on_c, 1, 43, 100
3, 112124, Note_off_c, 1, 43, 100
3, 112128, Note_on_c, 1, 43, 100
3, 112316, Note_off_c, 1, 43, 100
3, 112320, Note_on_c, 1, 43, 100
3, 112700, Note_off_c, 1, 43, 100
3, 112896, Note_on_c, 1, 48, 100
3, 112896, Note_on_c, 1, 36, 100
3, 113468, Note_off_c, 1, 48, 100
3, 113468, Note_off_c, 1, 36, 100
3, 113472, Note_on_c, 1, 47, 100
3, 113660, Note_off_c, 1, 47, 100
3, 113664, Note_on_c, 1, 50, 100
3, 113852, Note_off_c, 1, 50, 100
3, 113856, Note_on_c, 1, 53, 100
3, 114044, Note_off_c, 1, 53, 100
3, 114048, Note_on_c, 1, 51, 100
3, 114428, Note_off_c, 1, 51, 100
3, 114432, Note_on_c, 1, 48, 100
3, 114620, Note_off_c, 1, 48, 100
3, 114624, Note_on_c, 1, 47, 100
3, 114812, Note_off_c, 1, 47, 100
3, 114816, Note_on_c, 1, 50, 100
3, 115004, Note_off_c, 1, 50, 100
3, 115008, Note_on_c, 1, 53, 100
3, 115196, Note_off_c, 1, 53, 100
3, 115200, Note_on_c, 1, 51, 100
3, 115200, Note_on_c, 1, 39, 100
3, 115772, Note_off_c, 1, 51, 100
3, 115772, Note_off_c, 1, 39, 100
3, 115776, Note_on_c, 1, 53, 100
3, 115776, Note_on_c, 1, 41, 100
3, 116348, Note_off_c, 1, 53, 100
3, 116348, Note_off_c, 1, 41, 100
3, 116352, Note_on_c, 1, 55, 100
3, 116352, Note_on_c, 1, 43, 100
3, 116924, Note_off_c, 1, 55, 100
3, 116924, Note_off_c, 1, 43, 100
3, 116928, Note_on_c, 1, 43, 100
3, 116928, Note_on_c, 1, 31, 100
3, 117500, Note_off_c, 1, 43, 100
3, 117500, Note_off_c, 1, 31, 100
3, 117504, Note_on_c, 1, 60, 100
3, 117504, Note_on_c, 1, 48, 100
3, 118076, Note_off_c, 1, 60, 100
3, 118076, Note_off_c, 1, 48, 100
3, 118080, Note_on_c, 1, 55, 100
3, 118080, Note_on_c, 1, 43, 100
3, 118652, Note_off_c, 1, 55, 100
3, 118652, Note_off_c, 1, 43, 100
3, 118656, Note_on_c, 1, 51, 100
3, 118656, Note_on_c, 1, 39, 100
3, 119228, Note_off_c, 1, 51, 100
3, 119228, Note_off_c, 1, 39, 100
3, 119328, Note_on_c, 1, 48, 100
3, 119328, Note_on_c, 1, 36, 100
3, 120860, Note_off_c, 1, 36, 100
3, 120860, Note_off_c, 1, 48, 100
3, 120960, Note_on_c, 1, 51, 70
3, 121532, Note_off_c, 1, 51, 100
3, 121536, Note_on_c, 1, 55, 70
3, 122108, Note_off_c, 1, 55, 100
3, 122112, Note_on_c, 1, 58, 70
3, 122684, Note_off_c, 1, 58, 100
3, 122688, Note_on_c, 1, 56, 70
3, 122876, Note_off_c, 1, 56, 100
3, 122880, Note_on_c, 1, 55, 70
3, 123068, Note_off_c, 1, 55, 100
3, 123072, Note_on_c, 1, 53, 70
3, 123260, Note_off_c, 1, 53, 100
3, 123264, Note_on_c, 1, 51, 70
3, 123836, Note_off_c, 1, 51, 100
3, 123840, Note_on_c, 1, 51, 70
3, 124412, Note_off_c, 1, 51, 100
3, 124416, Note_on_c, 1, 46, 70
3, 124988, Note_off_c, 1, 46, 100
3, 124992, Note_on_c, 1, 58, 70
3, 125180, Note_off_c, 1, 58, 100
3, 125184, Note_on_c, 1, 56, 80
3, 125372, Note_off_c, 1, 56, 100
3, 125376, Note_on_c, 1, 53, 90
3, 125564, Note_off_c, 1, 53, 100
3, 125568, Note_on_c, 1, 51, 101
3, 126140, Note_off_c, 1, 51, 100
3, 126144, Note_on_c, 1, 55, 100
3, 126716, Note_off_c, 1, 55, 100
3, 126720, Note_on_c, 1, 58, 100
3, 127292, Note_off_c, 1, 58, 100
3, 127296, Note_on_c, 1, 56, 100
3, 127484, Note_off_c, 1, 56, 100
3, 127488, Note_on_c, 1, 55, 100
3, 127676, Note_off_c, 1, 55, 100
3, 127680, Note_on_c, 1, 53, 100
3, 127868, Note_off_c, 1, 53, 100
3, 127872, Note_on_c, 1, 51, 100
3, 128444, Note_off_c, 1, 51, 100
3, 128448, Note_on_c, 1, 58, 100
3, 128828, Note_off_c, 1, 58, 100
3, 128832, Note_on_c, 1, 46, 100
3, 129020, Note_off_c, 1, 46, 100
3, 129024, Note_on_c, 1, 51, 100
3, 129024, Note_on_c, 1, 39, 100
3, 129596, Note_off_c, 1, 51, 100
3, 129596, Note_off_c, 1, 39, 100
3, 129984, Note_on_c, 1, 58, 100
3, 129984, Note_on_c, 1, 46, 100
3, 130172, Note_off_c, 1, 58, 100
3, 130172, Note_off_c, 1, 46, 100
3, 130176, Note_on_c, 1, 51, 100
3, 130176, Note_on_c, 1, 39, 100
3, 130748, Note_off_c, 1, 51, 100
3, 130748, Note_off_c, 1, 39, 100
3, 131136, Note_on_c, 1, 58, 100
3, 131136, Note_on_c, 1, 46, 100
3, 131324, Note_off_c, 1, 58, 100
3, 131324, Note_off_c, 1, 46, 100
3, 131328, Note_on_c, 1, 51, 100
3, 131328, Note_on_c, 1, 39, 100
3, 131516, Note_off_c, 1, 51, 100
3, 131516, Note_off_c, 1, 39, 100
3, 131520, Note_on_c, 1, 51, 100
3, 131520, Note_on_c, 1, 39, 100
3, 131708, Note_off_c, 1, 51, 100
3, 131708, Note_off_c, 1, 39, 100
3, 131712, Note_on_c, 1, 51, 100
3, 131712, Note_on_c, 1, 39, 100
3, 131900, Note_off_c, 1, 51, 100
3, 131900, Note_off_c, 1, 39, 100
3, 131904, Note_on_c, 1, 51, 100
3, 131904, Note_on_c, 1, 39, 100
3, 132476, Note_off_c, 1, 51, 100
3, 132476, Note_off_c, 1, 39, 100
3, 132476, End_track
0, 0, End_of_file
