0, 0, Header, 1, 3, 384
1, 0, Start_track
1, 0, Title_t, "L.v.Beethoven 1mov - Kurfursten-Sonatas No.2 in f minor WoO 47-2\000"
1, 0, Copyright_t, "Copyright(C) 1995-2009, Suzuki Software\000"
1, 0, Sequencer_specific, 9, 67, 123, 0, 88, 70, 48, 50, 0, 1
1, 0, Text_t, "XFhd:2009/03/21:JP:Classical::::L.v.Beethoven:::Kaoru Suzuki\000"
1, 0, Text_t, "XFln:JP:\221I\222é\214ò\203\\\203i\203^\221æ2\224Ô\225Ï\203w\222Z\222² WoO 47-2\201`\221æ1\212y\217Í:L.v.\203x\201[\203g\201[\203\224\203F\203\223:::\227é\202¿\202á\202ñ:\227é\202¿\202á\202ñ\000"
1, 0, Time_signature, 4, 2, 96, 8
1, 0, Sequencer_specific, 5, 0, 0, 119, 14, 0
1, 0, Tempo, 1000000
1, 1152, Tempo, 1153846
1, 1536, Tempo, 1034482
1, 2496, Tempo, 1071428
1, 2688, Tempo, 1153846
1, 2880, Tempo, 1304347
1, 3072, Tempo, 1000000
1, 4224, Tempo, 1153846
1, 4608, Tempo, 1034482
1, 5568, Tempo, 1071428
1, 5760, Tempo, 1153846
1, 5952, Tempo, 1304347
1, 6144, Tempo, 1000000
1, 6240, Tempo, 937500
1, 11520, Tempo, 967741
1, 11712, Tempo, 1000000
1, 11904, Tempo, 1071428
1, 12096, Tempo, 1153846
1, 12288, Tempo, 1250000
1, 13056, Tempo, 1500000
1, 13824, Tempo, 333333
1, 24192, Tempo, 340909
1, 24384, Tempo, 352941
1, 28416, Tempo, 375000
1, 28800, Tempo, 400000
1, 29184, Tempo, 340909
1, 34560, Tempo, 352941
1, 34944, Tempo, 375000
1, 35328, Tempo, 344827
1, 38400, Tempo, 352941
1, 39936, Tempo, 375000
1, 40512, Tempo, 400000
1, 41472, Tempo, 333333
1, 52992, Tempo, 340909
1, 53376, Tempo, 352941
1, 53568, Tempo, 375000
1, 55296, Tempo, 333333
1, 65280, Tempo, 340909
1, 65664, Tempo, 352941
1, 67584, Tempo, 340909
1, 69888, Tempo, 352941
1, 70272, Tempo, 375000
1, 70656, Tempo, 342857
1, 75648, Tempo, 352941
1, 76032, Tempo, 375000
1, 76416, Tempo, 400000
1, 76800, Tempo, 352941
1, 81792, Tempo, 375000
1, 81984, Tempo, 400000
1, 82944, Tempo, 333333
1, 94464, Tempo, 340909
1, 94848, Tempo, 352941
1, 95040, Tempo, 375000
1, 96768, Tempo, 333333
1, 102528, Tempo, 352941
1, 102720, Tempo, 375000
1, 102912, Tempo, 333333
1, 109056, Tempo, 352941
1, 109632, Tempo, 375000
1, 110016, Tempo, 400000
1, 110208, Tempo, 428571
1, 110400, Tempo, 500000
1, 112128, Tempo, 1000000
1, 113280, Tempo, 1153846
1, 113664, Tempo, 1034482
1, 114624, Tempo, 1071428
1, 114816, Tempo, 1153846
1, 115008, Tempo, 1304347
1, 115200, Tempo, 1000000
1, 117696, Tempo, 1071428
1, 117888, Tempo, 1153846
1, 118080, Tempo, 1304347
1, 118272, Tempo, 909090
1, 124032, Tempo, 952380
1, 124224, Tempo, 1000000
1, 124800, Tempo, 1052631
1, 124992, Tempo, 1111111
1, 125184, Tempo, 1000000
1, 127488, Tempo, 333333
1, 137472, Tempo, 340909
1, 137856, Tempo, 352941
1, 142080, Tempo, 375000
1, 142464, Tempo, 400000
1, 142848, Tempo, 352941
1, 148224, Tempo, 365853
1, 148608, Tempo, 384615
1, 148992, Tempo, 352941
1, 153600, Tempo, 361445
1, 153984, Tempo, 375000
1, 154176, Tempo, 400000
1, 155136, Tempo, 342857
1, 158976, Tempo, 352941
1, 159360, Tempo, 361445
1, 159552, Tempo, 375000
1, 159744, Tempo, 337078
1, 166656, Tempo, 344827
1, 167040, Tempo, 352941
1, 167232, Tempo, 375000
1, 167808, Tempo, 428571
1, 168000, Tempo, 500000
1, 168000, End_track
2, 0, Start_track
2, 0, Title_t, "Piano Right"
2, 0, Control_c, 0, 0, 0
2, 0, Program_c, 0, 0
2, 0, Control_c, 0, 7, 100
2, 0, Control_c, 0, 10, 74
2, 0, Control_c, 0, 91, 127
2, 0, Key_signature, -4, "minor"
2, 0, Note_on_c, 0, 65, 100
2, 16, Note_on_c, 0, 68, 100
2, 32, Note_on_c, 0, 72, 100
2, 48, Note_on_c, 0, 77, 100
2, 764, Note_off_c, 0, 65, 100
2, 764, Note_off_c, 0, 68, 100
2, 764, Note_off_c, 0, 72, 100
2, 764, Note_off_c, 0, 77, 100
2, 768, Note_on_c, 0, 65, 100
2, 792, Note_on_c, 0, 67, 100
2, 812, Note_off_c, 0, 65, 100
2, 816, Note_on_c, 0, 65, 100
2, 836, Note_off_c, 0, 67, 100
2, 1052, Note_off_c, 0, 65, 100
2, 1056, Note_on_c, 0, 65, 100
2, 1148, Note_off_c, 0, 65, 100
2, 1152, Note_on_c, 0, 65, 100
2, 1532, Note_off_c, 0, 65, 100
2, 1536, Note_on_c, 0, 65, 70
2, 1724, Note_off_c, 0, 65, 100
2, 1728, Note_on_c, 0, 68, 70
2, 1916, Note_off_c, 0, 68, 100
2, 1920, Note_on_c, 0, 68, 70
2, 2108, Note_off_c, 0, 68, 100
2, 2112, Note_on_c, 0, 68, 70
2, 2300, Note_off_c, 0, 68, 100
2, 2304, Note_on_c, 0, 68, 70
2, 2328, Note_on_c, 0, 70, 70
2, 2348, Note_off_c, 0, 68, 100
2, 2352, Note_on_c, 0, 68, 70
2, 2372, Note_off_c, 0, 70, 100
2, 2492, Note_off_c, 0, 68, 100
2, 2496, Note_on_c, 0, 67, 70
2, 2684, Note_off_c, 0, 67, 100
2, 2688, Note_on_c, 0, 67, 70
2, 2876, Note_off_c, 0, 67, 100
2, 2880, Note_on_c, 0, 65, 70
2, 3068, Note_off_c, 0, 65, 100
2, 3072, Note_on_c, 0, 72, 110
2, 3088, Note_on_c, 0, 76, 110
2, 3104, Note_on_c, 0, 79, 110
2, 3120, Note_on_c, 0, 84, 110
2, 3836, Note_off_c, 0, 72, 100
2, 3836, Note_off_c, 0, 76, 100
2, 3836, Note_off_c, 0, 79, 100
2, 3836, Note_off_c, 0, 84, 100
2, 3840, Note_on_c, 0, 72, 100
2, 3864, Note_on_c, 0, 73, 100
2, 3884, Note_off_c, 0, 72, 100
2, 3888, Note_on_c, 0, 72, 100
2, 3908, Note_off_c, 0, 73, 100
2, 4124, Note_off_c, 0, 72, 100
2, 4128, Note_on_c, 0, 72, 100
2, 4220, Note_off_c, 0, 72, 100
2, 4224, Note_on_c, 0, 72, 100
2, 4604, Note_off_c, 0, 72, 100
2, 4608, Note_on_c, 0, 67, 70
2, 4796, Note_off_c, 0, 67, 100
2, 4800, Note_on_c, 0, 70, 70
2, 4988, Note_off_c, 0, 70, 100
2, 4992, Note_on_c, 0, 70, 70
2, 5180, Note_off_c, 0, 70, 100
2, 5184, Note_on_c, 0, 70, 70
2, 5372, Note_off_c, 0, 70, 100
2, 5376, Note_on_c, 0, 70, 70
2, 5564, Note_off_c, 0, 70, 100
2, 5568, Note_on_c, 0, 68, 70
2, 5756, Note_off_c, 0, 68, 100
2, 5760, Note_on_c, 0, 68, 70
2, 5948, Note_off_c, 0, 68, 100
2, 5952, Note_on_c, 0, 67, 70
2, 6140, Note_off_c, 0, 67, 100
2, 6144, Note_on_c, 0, 77, 100
2, 6144, Note_on_c, 0, 65, 100
2, 6908, Note_off_c, 0, 77, 100
2, 6908, Note_off_c, 0, 65, 100
2, 7104, Note_on_c, 0, 77, 100
2, 7104, Note_on_c, 0, 65, 100
2, 7292, Note_off_c, 0, 77, 100
2, 7292, Note_off_c, 0, 65, 100
2, 7296, Note_on_c, 0, 77, 100
2, 7296, Note_on_c, 0, 65, 100
2, 7484, Note_off_c, 0, 77, 100
2, 7484, Note_off_c, 0, 65, 100
2, 7488, Note_on_c, 0, 77, 100
2, 7488, Note_on_c, 0, 65, 100
2, 7676, Note_off_c, 0, 77, 100
2, 7676, Note_off_c, 0, 65, 100
2, 7680, Note_on_c, 0, 77, 100
2, 7680, Note_on_c, 0, 65, 100
2, 7868, Note_off_c, 0, 77, 100
2, 7868, Note_off_c, 0, 65, 100
2, 7872, Note_on_c, 0, 78, 100
2, 7872, Note_on_c, 0, 66, 100
2, 8060, Note_off_c, 0, 78, 100
2, 8060, Note_off_c, 0, 66, 100
2, 8064, Note_on_c, 0, 78, 100
2, 8064, Note_on_c, 0, 66, 100
2, 8444, Note_off_c, 0, 78, 100
2, 8444, Note_off_c, 0, 66, 100
2, 8640, Note_on_c, 0, 78, 100
2, 8640, Note_on_c, 0, 66, 100
2, 8828, Note_off_c, 0, 78, 100
2, 8828, Note_off_c, 0, 66, 100
2, 8832, Note_on_c, 0, 78, 100
2, 8832, Note_on_c, 0, 66, 100
2, 9020, Note_off_c, 0, 78, 100
2, 9020, Note_off_c, 0, 66, 100
2, 9024, Note_on_c, 0, 78, 100
2, 9024, Note_on_c, 0, 66, 100
2, 9212, Note_off_c, 0, 78, 100
2, 9212, Note_off_c, 0, 66, 100
2, 9216, Note_on_c, 0, 78, 100
2, 9216, Note_on_c, 0, 66, 100
2, 9404, Note_off_c, 0, 78, 100
2, 9404, Note_off_c, 0, 66, 100
2, 9408, Note_on_c, 0, 81, 100
2, 9408, Note_on_c, 0, 69, 100
2, 9596, Note_off_c, 0, 81, 100
2, 9596, Note_off_c, 0, 69, 100
2, 9600, Note_on_c, 0, 81, 100
2, 9600, Note_on_c, 0, 69, 100
2, 9980, Note_off_c, 0, 81, 100
2, 9980, Note_off_c, 0, 69, 100
2, 10176, Note_on_c, 0, 81, 100
2, 10176, Note_on_c, 0, 69, 100
2, 10364, Note_off_c, 0, 81, 100
2, 10364, Note_off_c, 0, 69, 100
2, 10368, Note_on_c, 0, 81, 100
2, 10368, Note_on_c, 0, 69, 100
2, 10556, Note_off_c, 0, 81, 100
2, 10556, Note_off_c, 0, 69, 100
2, 10560, Note_on_c, 0, 81, 100
2, 10560, Note_on_c, 0, 69, 100
2, 10748, Note_off_c, 0, 81, 100
2, 10748, Note_off_c, 0, 69, 100
2, 10752, Note_on_c, 0, 82, 100
2, 10752, Note_on_c, 0, 70, 100
2, 10940, Note_off_c, 0, 82, 100
2, 10940, Note_off_c, 0, 70, 100
2, 10944, Note_on_c, 0, 89, 100
2, 10944, Note_on_c, 0, 77, 100
2, 11132, Note_off_c, 0, 89, 100
2, 11132, Note_off_c, 0, 77, 100
2, 11136, Note_on_c, 0, 85, 100
2, 11136, Note_on_c, 0, 73, 100
2, 11324, Note_off_c, 0, 85, 100
2, 11324, Note_off_c, 0, 73, 100
2, 11328, Note_on_c, 0, 82, 100
2, 11328, Note_on_c, 0, 70, 100
2, 11516, Note_off_c, 0, 82, 100
2, 11516, Note_off_c, 0, 70, 100
2, 11520, Note_on_c, 0, 77, 93
2, 11520, Note_on_c, 0, 65, 93
2, 11708, Note_off_c, 0, 77, 100
2, 11708, Note_off_c, 0, 65, 100
2, 11712, Note_on_c, 0, 56, 85
2, 11900, Note_off_c, 0, 56, 100
2, 11904, Note_on_c, 0, 55, 77
2, 12092, Note_off_c, 0, 55, 100
2, 12096, Note_on_c, 0, 59, 70
2, 12096, Note_on_c, 0, 53, 70
2, 12284, Note_off_c, 0, 59, 100
2, 12284, Note_off_c, 0, 53, 100
2, 12288, Note_on_c, 0, 53, 60
2, 12288, Note_on_c, 0, 59, 60
2, 13052, Note_off_c, 0, 53, 100
2, 13052, Note_off_c, 0, 59, 100
2, 13056, Note_on_c, 0, 52, 60
2, 13056, Note_on_c, 0, 55, 60
2, 13056, Note_on_c, 0, 60, 60
2, 13628, Note_off_c, 0, 52, 100
2, 13628, Note_off_c, 0, 55, 100
2, 13628, Note_off_c, 0, 60, 100
2, 13824, Note_on_c, 0, 77, 100
2, 14012, Note_off_c, 0, 77, 100
2, 14016, Note_on_c, 0, 75, 100
2, 14108, Note_off_c, 0, 75, 100
2, 14112, Note_on_c, 0, 73, 100
2, 14204, Note_off_c, 0, 73, 100
2, 14208, Note_on_c, 0, 72, 100
2, 14300, Note_off_c, 0, 72, 100
2, 14304, Note_on_c, 0, 70, 100
2, 14396, Note_off_c, 0, 70, 100
2, 14400, Note_on_c, 0, 68, 100
2, 14492, Note_off_c, 0, 68, 100
2, 14496, Note_on_c, 0, 67, 100
2, 14588, Note_off_c, 0, 67, 100
2, 14592, Note_on_c, 0, 65, 100
2, 14780, Note_off_c, 0, 65, 100
2, 14784, Note_on_c, 0, 63, 100
2, 14876, Note_off_c, 0, 63, 100
2, 14880, Note_on_c, 0, 61, 100
2, 14972, Note_off_c, 0, 61, 100
2, 14976, Note_on_c, 0, 60, 100
2, 15068, Note_off_c, 0, 60, 100
2, 15072, Note_on_c, 0, 58, 100
2, 15164, Note_off_c, 0, 58, 100
2, 15168, Note_on_c, 0, 56, 100
2, 15260, Note_off_c, 0, 56, 100
2, 15264, Note_on_c, 0, 55, 100
2, 15356, Note_off_c, 0, 55, 100
2, 15360, Note_on_c, 0, 53, 100
2, 15740, Note_off_c, 0, 53, 100
2, 15744, Note_on_c, 0, 60, 100
2, 15744, Note_on_c, 0, 56, 100
2, 16124, Note_off_c, 0, 60, 100
2, 16124, Note_off_c, 0, 56, 100
2, 16128, Note_on_c, 0, 61, 100
2, 16128, Note_on_c, 0, 58, 100
2, 16508, Note_off_c, 0, 61, 100
2, 16508, Note_off_c, 0, 58, 100
2, 16512, Note_on_c, 0, 64, 100
2, 16512, Note_on_c, 0, 55, 100
2, 16892, Note_off_c, 0, 64, 100
2, 16892, Note_off_c, 0, 55, 100
2, 16896, Note_on_c, 0, 56, 100
2, 16896, Note_on_c, 0, 65, 100
2, 17276, Note_off_c, 0, 56, 100
2, 17276, Note_off_c, 0, 65, 100
2, 17280, Note_on_c, 0, 72, 100
2, 17280, Note_on_c, 0, 68, 100
2, 17660, Note_off_c, 0, 72, 100
2, 17660, Note_off_c, 0, 68, 100
2, 17664, Note_on_c, 0, 70, 100
2, 17664, Note_on_c, 0, 73, 100
2, 18044, Note_off_c, 0, 70, 100
2, 18044, Note_off_c, 0, 73, 100
2, 18048, Note_on_c, 0, 67, 100
2, 18048, Note_on_c, 0, 76, 100
2, 18428, Note_off_c, 0, 67, 100
2, 18428, Note_off_c, 0, 76, 100
2, 18432, Note_on_c, 0, 65, 100
2, 18496, Note_on_c, 0, 77, 100
2, 18620, Note_off_c, 0, 65, 100
2, 19004, Note_off_c, 0, 77, 100
2, 19008, Note_on_c, 0, 72, 100
2, 19196, Note_off_c, 0, 72, 100
2, 19200, Note_on_c, 0, 77, 100
2, 19388, Note_off_c, 0, 77, 100
2, 19392, Note_on_c, 0, 75, 100
2, 19580, Note_off_c, 0, 75, 100
2, 19584, Note_on_c, 0, 73, 100
2, 19772, Note_off_c, 0, 73, 100
2, 19776, Note_on_c, 0, 72, 100
2, 19964, Note_off_c, 0, 72, 100
2, 19968, Note_on_c, 0, 73, 100
2, 20032, Note_on_c, 0, 75, 100
2, 20060, Note_off_c, 0, 73, 100
2, 20096, Note_on_c, 0, 73, 100
2, 20124, Note_off_c, 0, 75, 100
2, 20540, Note_off_c, 0, 73, 100
2, 20544, Note_on_c, 0, 68, 100
2, 20732, Note_off_c, 0, 68, 100
2, 20736, Note_on_c, 0, 73, 100
2, 20924, Note_off_c, 0, 73, 100
2, 20928, Note_on_c, 0, 72, 100
2, 21116, Note_off_c, 0, 72, 100
2, 21120, Note_on_c, 0, 70, 100
2, 21308, Note_off_c, 0, 70, 100
2, 21312, Note_on_c, 0, 68, 100
2, 21500, Note_off_c, 0, 68, 100
2, 21504, Note_on_c, 0, 70, 100
2, 21568, Note_on_c, 0, 72, 100
2, 21596, Note_off_c, 0, 70, 100
2, 21632, Note_on_c, 0, 70, 100
2, 21660, Note_off_c, 0, 72, 100
2, 22076, Note_off_c, 0, 70, 100
2, 22080, Note_on_c, 0, 65, 100
2, 22268, Note_off_c, 0, 65, 100
2, 22272, Note_on_c, 0, 70, 100
2, 22460, Note_off_c, 0, 70, 100
2, 22464, Note_on_c, 0, 68, 100
2, 22652, Note_off_c, 0, 68, 100
2, 22656, Note_on_c, 0, 67, 100
2, 22844, Note_off_c, 0, 67, 100
2, 22848, Note_on_c, 0, 65, 100
2, 23036, Note_off_c, 0, 65, 100
2, 23040, Note_on_c, 0, 72, 100
2, 23420, Note_off_c, 0, 72, 100
2, 23424, Note_on_c, 0, 60, 120
2, 23472, Note_on_c, 0, 61, 120
2, 23516, Note_off_c, 0, 60, 100
2, 23520, Note_on_c, 0, 60, 120
2, 23564, Note_off_c, 0, 61, 100
2, 23568, Note_on_c, 0, 59, 120
2, 23612, Note_off_c, 0, 60, 100
2, 23616, Note_on_c, 0, 60, 120
2, 23660, Note_off_c, 0, 59, 100
2, 23708, Note_off_c, 0, 60, 100
2, 23712, Note_on_c, 0, 61, 120
2, 23804, Note_off_c, 0, 61, 100
2, 23808, Note_on_c, 0, 60, 120
2, 23996, Note_off_c, 0, 60, 100
2, 24000, Note_on_c, 0, 72, 120
2, 24188, Note_off_c, 0, 72, 100
2, 24192, Note_on_c, 0, 68, 120
2, 24380, Note_off_c, 0, 68, 100
2, 24384, Note_on_c, 0, 65, 120
2, 24572, Note_off_c, 0, 65, 100
2, 24576, Note_on_c, 0, 72, 120
2, 24956, Note_off_c, 0, 72, 100
2, 24960, Note_on_c, 0, 60, 120
2, 25008, Note_on_c, 0, 61, 120
2, 25052, Note_off_c, 0, 60, 100
2, 25056, Note_on_c, 0, 60, 120
2, 25100, Note_off_c, 0, 61, 100
2, 25104, Note_on_c, 0, 59, 120
2, 25148, Note_off_c, 0, 60, 100
2, 25152, Note_on_c, 0, 60, 120
2, 25196, Note_off_c, 0, 59, 100
2, 25244, Note_off_c, 0, 60, 100
2, 25248, Note_on_c, 0, 61, 120
2, 25340, Note_off_c, 0, 61, 100
2, 25344, Note_on_c, 0, 60, 120
2, 25724, Note_off_c, 0, 60, 100
2, 26112, Note_on_c, 0, 75, 100
2, 26492, Note_off_c, 0, 75, 100
2, 26496, Note_on_c, 0, 72, 100
2, 26568, Note_on_c, 0, 73, 100
2, 26636, Note_off_c, 0, 72, 100
2, 26644, Note_on_c, 0, 72, 100
2, 26708, Note_off_c, 0, 73, 100
2, 26720, Note_on_c, 0, 70, 100
2, 26784, Note_off_c, 0, 72, 100
2, 26796, Note_on_c, 0, 72, 100
2, 26860, Note_off_c, 0, 70, 100
2, 26880, Note_on_c, 0, 68, 100
2, 26936, Note_off_c, 0, 72, 100
2, 27260, Note_off_c, 0, 68, 100
2, 27264, Note_on_c, 0, 63, 100
2, 27336, Note_on_c, 0, 65, 100
2, 27404, Note_off_c, 0, 63, 100
2, 27412, Note_on_c, 0, 63, 100
2, 27476, Note_off_c, 0, 65, 100
2, 27488, Note_on_c, 0, 61, 100
2, 27552, Note_off_c, 0, 63, 100
2, 27560, Note_on_c, 0, 63, 100
2, 27628, Note_off_c, 0, 61, 100
2, 27648, Note_on_c, 0, 68, 100
2, 27700, Note_off_c, 0, 63, 100
2, 28028, Note_off_c, 0, 68, 100
2, 28032, Note_on_c, 0, 63, 100
2, 28104, Note_on_c, 0, 65, 100
2, 28172, Note_off_c, 0, 63, 100
2, 28180, Note_on_c, 0, 63, 100
2, 28244, Note_off_c, 0, 65, 100
2, 28256, Note_on_c, 0, 61, 100
2, 28320, Note_off_c, 0, 63, 100
2, 28328, Note_on_c, 0, 63, 100
2, 28396, Note_off_c, 0, 61, 100
2, 28416, Note_on_c, 0, 60, 100
2, 28468, Note_off_c, 0, 63, 100
2, 28796, Note_off_c, 0, 60, 100
2, 28800, Note_on_c, 0, 56, 100
2, 28872, Note_on_c, 0, 58, 100
2, 28940, Note_off_c, 0, 56, 100
2, 28948, Note_on_c, 0, 56, 100
2, 29012, Note_off_c, 0, 58, 100
2, 29024, Note_on_c, 0, 55, 100
2, 29088, Note_off_c, 0, 56, 100
2, 29096, Note_on_c, 0, 56, 100
2, 29164, Note_off_c, 0, 55, 100
2, 29184, Note_on_c, 0, 67, 70
2, 29184, Note_on_c, 0, 70, 70
2, 29236, Note_off_c, 0, 56, 100
2, 29756, Note_off_c, 0, 67, 100
2, 29756, Note_off_c, 0, 70, 100
2, 29760, Note_on_c, 0, 68, 70
2, 29760, Note_on_c, 0, 72, 70
2, 29948, Note_off_c, 0, 68, 100
2, 29948, Note_off_c, 0, 72, 100
2, 29952, Note_on_c, 0, 70, 70
2, 29952, Note_on_c, 0, 73, 70
2, 30332, Note_off_c, 0, 70, 100
2, 30332, Note_off_c, 0, 73, 100
2, 30336, Note_on_c, 0, 70, 70
2, 30336, Note_on_c, 0, 73, 70
2, 30716, Note_off_c, 0, 70, 100
2, 30716, Note_off_c, 0, 73, 100
2, 30720, Note_on_c, 0, 68, 70
2, 30720, Note_on_c, 0, 72, 70
2, 30908, Note_off_c, 0, 68, 100
2, 30908, Note_off_c, 0, 72, 100
2, 30912, Note_on_c, 0, 67, 70
2, 30912, Note_on_c, 0, 70, 70
2, 31100, Note_off_c, 0, 67, 100
2, 31100, Note_off_c, 0, 70, 100
2, 31104, Note_on_c, 0, 68, 70
2, 31104, Note_on_c, 0, 72, 70
2, 31292, Note_off_c, 0, 68, 100
2, 31292, Note_off_c, 0, 72, 100
2, 31296, Note_on_c, 0, 70, 70
2, 31296, Note_on_c, 0, 73, 70
2, 31484, Note_off_c, 0, 70, 100
2, 31484, Note_off_c, 0, 73, 100
2, 31488, Note_on_c, 0, 72, 70
2, 31488, Note_on_c, 0, 75, 70
2, 31868, Note_off_c, 0, 72, 100
2, 31868, Note_off_c, 0, 75, 100
2, 32256, Note_on_c, 0, 75, 100
2, 32636, Note_off_c, 0, 75, 100
2, 32640, Note_on_c, 0, 72, 100
2, 33020, Note_off_c, 0, 72, 100
2, 33024, Note_on_c, 0, 68, 100
2, 33404, Note_off_c, 0, 68, 100
2, 33408, Note_on_c, 0, 63, 100
2, 33788, Note_off_c, 0, 63, 100
2, 33792, Note_on_c, 0, 67, 100
2, 33856, Note_on_c, 0, 68, 100
2, 33884, Note_off_c, 0, 67, 100
2, 34172, Note_off_c, 0, 68, 100
2, 34176, Note_on_c, 0, 63, 100
2, 34556, Note_off_c, 0, 63, 100
2, 34560, Note_on_c, 0, 60, 100
2, 34940, Note_off_c, 0, 60, 100
2, 34944, Note_on_c, 0, 56, 100
2, 35324, Note_off_c, 0, 56, 100
2, 35328, Note_on_c, 0, 55, 70
2, 35328, Note_on_c, 0, 58, 70
2, 35900, Note_off_c, 0, 55, 100
2, 35900, Note_off_c, 0, 58, 100
2, 35904, Note_on_c, 0, 56, 70
2, 35904, Note_on_c, 0, 60, 70
2, 36092, Note_off_c, 0, 56, 100
2, 36092, Note_off_c, 0, 60, 100
2, 36096, Note_on_c, 0, 58, 70
2, 36096, Note_on_c, 0, 61, 70
2, 36476, Note_off_c, 0, 58, 100
2, 36476, Note_off_c, 0, 61, 100
2, 36480, Note_on_c, 0, 58, 70
2, 36480, Note_on_c, 0, 61, 70
2, 36860, Note_off_c, 0, 58, 100
2, 36860, Note_off_c, 0, 61, 100
2, 36864, Note_on_c, 0, 56, 70
2, 36864, Note_on_c, 0, 60, 70
2, 37052, Note_off_c, 0, 56, 100
2, 37052, Note_off_c, 0, 60, 100
2, 37056, Note_on_c, 0, 55, 70
2, 37056, Note_on_c, 0, 58, 70
2, 37244, Note_off_c, 0, 55, 100
2, 37244, Note_off_c, 0, 58, 100
2, 37248, Note_on_c, 0, 56, 70
2, 37248, Note_on_c, 0, 60, 70
2, 37436, Note_off_c, 0, 56, 100
2, 37436, Note_off_c, 0, 60, 100
2, 37440, Note_on_c, 0, 58, 70
2, 37440, Note_on_c, 0, 61, 70
2, 37628, Note_off_c, 0, 58, 100
2, 37628, Note_off_c, 0, 61, 100
2, 37632, Note_on_c, 0, 56, 70
2, 37632, Note_on_c, 0, 60, 70
2, 38012, Note_off_c, 0, 56, 100
2, 38012, Note_off_c, 0, 60, 100
2, 38400, Note_on_c, 0, 79, 70
2, 38400, Note_on_c, 0, 82, 70
2, 38972, Note_off_c, 0, 79, 100
2, 38972, Note_off_c, 0, 82, 100
2, 38976, Note_on_c, 0, 80, 70
2, 38976, Note_on_c, 0, 84, 70
2, 39164, Note_off_c, 0, 80, 100
2, 39164, Note_off_c, 0, 84, 100
2, 39168, Note_on_c, 0, 82, 70
2, 39168, Note_on_c, 0, 85, 70
2, 39548, Note_off_c, 0, 82, 100
2, 39548, Note_off_c, 0, 85, 100
2, 39552, Note_on_c, 0, 82, 70
2, 39552, Note_on_c, 0, 85, 70
2, 39932, Note_off_c, 0, 82, 100
2, 39932, Note_off_c, 0, 85, 100
2, 39936, Note_on_c, 0, 80, 70
2, 39936, Note_on_c, 0, 84, 70
2, 40124, Note_off_c, 0, 80, 100
2, 40124, Note_off_c, 0, 84, 100
2, 40128, Note_on_c, 0, 79, 70
2, 40128, Note_on_c, 0, 82, 70
2, 40316, Note_off_c, 0, 79, 100
2, 40316, Note_off_c, 0, 82, 100
2, 40320, Note_on_c, 0, 80, 70
2, 40320, Note_on_c, 0, 84, 70
2, 40508, Note_off_c, 0, 80, 100
2, 40508, Note_off_c, 0, 84, 100
2, 40512, Note_on_c, 0, 82, 70
2, 40512, Note_on_c, 0, 85, 70
2, 40700, Note_off_c, 0, 82, 100
2, 40700, Note_off_c, 0, 85, 100
2, 40704, Note_on_c, 0, 80, 70
2, 40704, Note_on_c, 0, 84, 70
2, 41084, Note_off_c, 0, 80, 100
2, 41084, Note_off_c, 0, 84, 100
2, 41472, Note_on_c, 0, 80, 120
2, 41564, Note_off_c, 0, 80, 100
2, 41568, Note_on_c, 0, 79, 120
2, 41660, Note_off_c, 0, 79, 100
2, 41664, Note_on_c, 0, 80, 120
2, 41756, Note_off_c, 0, 80, 100
2, 41760, Note_on_c, 0, 82, 120
2, 41852, Note_off_c, 0, 82, 100
2, 41856, Note_on_c, 0, 84, 120
2, 41948, Note_off_c, 0, 84, 100
2, 41952, Note_on_c, 0, 82, 120
2, 42044, Note_off_c, 0, 82, 100
2, 42048, Note_on_c, 0, 84, 120
2, 42140, Note_off_c, 0, 84, 100
2, 42144, Note_on_c, 0, 85, 120
2, 42236, Note_off_c, 0, 85, 100
2, 42240, Note_on_c, 0, 87, 120
2, 42332, Note_off_c, 0, 87, 100
2, 42336, Note_on_c, 0, 85, 120
2, 42428, Note_off_c, 0, 85, 100
2, 42432, Note_on_c, 0, 84, 120
2, 42524, Note_off_c, 0, 84, 100
2, 42528, Note_on_c, 0, 85, 120
2, 42620, Note_off_c, 0, 85, 100
2, 42624, Note_on_c, 0, 84, 120
2, 42716, Note_off_c, 0, 84, 100
2, 42720, Note_on_c, 0, 82, 120
2, 42812, Note_off_c, 0, 82, 100
2, 42816, Note_on_c, 0, 80, 120
2, 42908, Note_off_c, 0, 80, 100
2, 42912, Note_on_c, 0, 78, 120
2, 43004, Note_off_c, 0, 78, 100
2, 43008, Note_on_c, 0, 77, 120
2, 43100, Note_off_c, 0, 77, 100
2, 43104, Note_on_c, 0, 76, 120
2, 43196, Note_off_c, 0, 76, 100
2, 43200, Note_on_c, 0, 77, 120
2, 43292, Note_off_c, 0, 77, 100
2, 43296, Note_on_c, 0, 79, 120
2, 43388, Note_off_c, 0, 79, 100
2, 43392, Note_on_c, 0, 77, 120
2, 43484, Note_off_c, 0, 77, 100
2, 43488, Note_on_c, 0, 76, 120
2, 43580, Note_off_c, 0, 76, 100
2, 43584, Note_on_c, 0, 77, 120
2, 43676, Note_off_c, 0, 77, 100
2, 43680, Note_on_c, 0, 79, 120
2, 43772, Note_off_c, 0, 79, 100
2, 43776, Note_on_c, 0, 77, 120
2, 43964, Note_off_c, 0, 77, 100
2, 43968, Note_on_c, 0, 80, 120
2, 44156, Note_off_c, 0, 80, 100
2, 44160, Note_on_c, 0, 85, 120
2, 44348, Note_off_c, 0, 85, 100
2, 44352, Note_on_c, 0, 89, 120
2, 44540, Note_off_c, 0, 89, 100
2, 44544, Note_on_c, 0, 84, 120
2, 44732, Note_off_c, 0, 84, 100
2, 44736, Note_on_c, 0, 75, 120
2, 44924, Note_off_c, 0, 75, 100
2, 44928, Note_on_c, 0, 80, 120
2, 45116, Note_off_c, 0, 80, 100
2, 45120, Note_on_c, 0, 84, 120
2, 45308, Note_off_c, 0, 84, 100
2, 45312, Note_on_c, 0, 87, 120
2, 45312, Note_on_c, 0, 84, 120
2, 45500, Note_off_c, 0, 87, 100
2, 45500, Note_off_c, 0, 84, 100
2, 45504, Note_on_c, 0, 85, 120
2, 45504, Note_on_c, 0, 82, 120
2, 45692, Note_off_c, 0, 85, 100
2, 45692, Note_off_c, 0, 82, 100
2, 45696, Note_on_c, 0, 84, 120
2, 45696, Note_on_c, 0, 80, 120
2, 45884, Note_off_c, 0, 84, 100
2, 45884, Note_off_c, 0, 80, 100
2, 45888, Note_on_c, 0, 82, 120
2, 45888, Note_on_c, 0, 79, 120
2, 46076, Note_off_c, 0, 82, 100
2, 46076, Note_off_c, 0, 79, 100
2, 46080, Note_on_c, 0, 80, 120
2, 46080, Note_on_c, 0, 75, 120
2, 46176, Note_on_c, 0, 84, 120
2, 46268, Note_off_c, 0, 80, 100
2, 46268, Note_off_c, 0, 75, 100
2, 46272, Note_on_c, 0, 80, 120
2, 46272, Note_on_c, 0, 75, 120
2, 46364, Note_off_c, 0, 84, 100
2, 46368, Note_on_c, 0, 84, 120
2, 46460, Note_off_c, 0, 80, 100
2, 46460, Note_off_c, 0, 75, 100
2, 46464, Note_on_c, 0, 80, 120
2, 46464, Note_on_c, 0, 75, 120
2, 46556, Note_off_c, 0, 84, 100
2, 46560, Note_on_c, 0, 84, 120
2, 46652, Note_off_c, 0, 80, 100
2, 46652, Note_off_c, 0, 75, 100
2, 46656, Note_on_c, 0, 80, 120
2, 46656, Note_on_c, 0, 75, 120
2, 46748, Note_off_c, 0, 84, 100
2, 46752, Note_on_c, 0, 84, 120
2, 46844, Note_off_c, 0, 80, 100
2, 46844, Note_off_c, 0, 75, 100
2, 46848, Note_on_c, 0, 77, 120
2, 46848, Note_on_c, 0, 72, 120
2, 46940, Note_off_c, 0, 84, 100
2, 46944, Note_on_c, 0, 80, 120
2, 47036, Note_off_c, 0, 77, 100
2, 47036, Note_off_c, 0, 72, 100
2, 47040, Note_on_c, 0, 77, 120
2, 47040, Note_on_c, 0, 72, 120
2, 47132, Note_off_c, 0, 80, 100
2, 47136, Note_on_c, 0, 80, 120
2, 47228, Note_off_c, 0, 77, 100
2, 47228, Note_off_c, 0, 72, 100
2, 47232, Note_on_c, 0, 77, 120
2, 47232, Note_on_c, 0, 72, 120
2, 47324, Note_off_c, 0, 80, 100
2, 47328, Note_on_c, 0, 80, 120
2, 47420, Note_off_c, 0, 77, 100
2, 47420, Note_off_c, 0, 72, 100
2, 47424, Note_on_c, 0, 77, 120
2, 47424, Note_on_c, 0, 72, 120
2, 47516, Note_off_c, 0, 80, 100
2, 47520, Note_on_c, 0, 80, 120
2, 47612, Note_off_c, 0, 77, 100
2, 47612, Note_off_c, 0, 72, 100
2, 47612, Note_off_c, 0, 80, 100
2, 47616, Note_on_c, 0, 70, 120
2, 47616, Note_on_c, 0, 77, 120
2, 47712, Note_on_c, 0, 80, 120
2, 47804, Note_off_c, 0, 70, 100
2, 47804, Note_off_c, 0, 77, 100
2, 47808, Note_on_c, 0, 70, 120
2, 47808, Note_on_c, 0, 77, 120
2, 47900, Note_off_c, 0, 80, 100
2, 47904, Note_on_c, 0, 80, 120
2, 47996, Note_off_c, 0, 70, 100
2, 47996, Note_off_c, 0, 77, 100
2, 48000, Note_on_c, 0, 70, 120
2, 48000, Note_on_c, 0, 77, 120
2, 48092, Note_off_c, 0, 80, 100
2, 48096, Note_on_c, 0, 80, 120
2, 48188, Note_off_c, 0, 70, 100
2, 48188, Note_off_c, 0, 77, 100
2, 48192, Note_on_c, 0, 70, 120
2, 48192, Note_on_c, 0, 77, 120
2, 48284, Note_off_c, 0, 80, 100
2, 48288, Note_on_c, 0, 80, 120
2, 48380, Note_off_c, 0, 70, 100
2, 48380, Note_off_c, 0, 77, 100
2, 48384, Note_on_c, 0, 75, 120
2, 48384, Note_on_c, 0, 70, 120
2, 48476, Note_off_c, 0, 80, 100
2, 48480, Note_on_c, 0, 80, 120
2, 48572, Note_off_c, 0, 75, 100
2, 48572, Note_off_c, 0, 70, 100
2, 48576, Note_on_c, 0, 75, 120
2, 48576, Note_on_c, 0, 70, 120
2, 48668, Note_off_c, 0, 80, 100
2, 48672, Note_on_c, 0, 80, 120
2, 48764, Note_off_c, 0, 75, 100
2, 48764, Note_off_c, 0, 70, 100
2, 48768, Note_on_c, 0, 75, 120
2, 48768, Note_on_c, 0, 70, 120
2, 48860, Note_off_c, 0, 80, 100
2, 48864, Note_on_c, 0, 79, 120
2, 48956, Note_off_c, 0, 75, 100
2, 48956, Note_off_c, 0, 70, 100
2, 48960, Note_on_c, 0, 75, 120
2, 48960, Note_on_c, 0, 70, 120
2, 49052, Note_off_c, 0, 79, 100
2, 49056, Note_on_c, 0, 79, 120
2, 49148, Note_off_c, 0, 75, 100
2, 49148, Note_off_c, 0, 70, 100
2, 49148, Note_off_c, 0, 79, 100
2, 49152, Note_on_c, 0, 72, 120
2, 49152, Note_on_c, 0, 75, 120
2, 49248, Note_on_c, 0, 80, 120
2, 49340, Note_off_c, 0, 72, 100
2, 49340, Note_off_c, 0, 75, 100
2, 49344, Note_on_c, 0, 72, 120
2, 49344, Note_on_c, 0, 75, 120
2, 49436, Note_off_c, 0, 80, 100
2, 49440, Note_on_c, 0, 80, 120
2, 49532, Note_off_c, 0, 72, 100
2, 49532, Note_off_c, 0, 75, 100
2, 49536, Note_on_c, 0, 72, 120
2, 49536, Note_on_c, 0, 75, 120
2, 49628, Note_off_c, 0, 80, 100
2, 49632, Note_on_c, 0, 80, 120
2, 49724, Note_off_c, 0, 72, 100
2, 49724, Note_off_c, 0, 75, 100
2, 49728, Note_on_c, 0, 72, 120
2, 49728, Note_on_c, 0, 75, 120
2, 49820, Note_off_c, 0, 80, 100
2, 49824, Note_on_c, 0, 80, 120
2, 49916, Note_off_c, 0, 72, 100
2, 49916, Note_off_c, 0, 75, 100
2, 49920, Note_on_c, 0, 77, 120
2, 49920, Note_on_c, 0, 72, 120
2, 50012, Note_off_c, 0, 80, 100
2, 50016, Note_on_c, 0, 80, 120
2, 50108, Note_off_c, 0, 77, 100
2, 50108, Note_off_c, 0, 72, 100
2, 50112, Note_on_c, 0, 77, 120
2, 50112, Note_on_c, 0, 72, 120
2, 50204, Note_off_c, 0, 80, 100
2, 50208, Note_on_c, 0, 80, 120
2, 50300, Note_off_c, 0, 77, 100
2, 50300, Note_off_c, 0, 72, 100
2, 50304, Note_on_c, 0, 77, 120
2, 50304, Note_on_c, 0, 72, 120
2, 50396, Note_off_c, 0, 80, 100
2, 50400, Note_on_c, 0, 80, 120
2, 50492, Note_off_c, 0, 77, 100
2, 50492, Note_off_c, 0, 72, 100
2, 50496, Note_on_c, 0, 77, 120
2, 50496, Note_on_c, 0, 72, 120
2, 50588, Note_off_c, 0, 80, 100
2, 50592, Note_on_c, 0, 80, 120
2, 50684, Note_off_c, 0, 77, 100
2, 50684, Note_off_c, 0, 72, 100
2, 50684, Note_off_c, 0, 80, 100
2, 50688, Note_on_c, 0, 70, 120
2, 50688, Note_on_c, 0, 77, 120
2, 50784, Note_on_c, 0, 80, 120
2, 50876, Note_off_c, 0, 70, 100
2, 50876, Note_off_c, 0, 77, 100
2, 50880, Note_on_c, 0, 70, 120
2, 50880, Note_on_c, 0, 77, 120
2, 50972, Note_off_c, 0, 80, 100
2, 50976, Note_on_c, 0, 80, 120
2, 51068, Note_off_c, 0, 70, 100
2, 51068, Note_off_c, 0, 77, 100
2, 51072, Note_on_c, 0, 70, 120
2, 51072, Note_on_c, 0, 77, 120
2, 51164, Note_off_c, 0, 80, 100
2, 51168, Note_on_c, 0, 80, 120
2, 51260, Note_off_c, 0, 70, 100
2, 51260, Note_off_c, 0, 77, 100
2, 51264, Note_on_c, 0, 70, 120
2, 51264, Note_on_c, 0, 77, 120
2, 51356, Note_off_c, 0, 80, 100
2, 51360, Note_on_c, 0, 80, 120
2, 51452, Note_off_c, 0, 70, 100
2, 51452, Note_off_c, 0, 77, 100
2, 51456, Note_on_c, 0, 75, 120
2, 51456, Note_on_c, 0, 70, 120
2, 51548, Note_off_c, 0, 80, 100
2, 51552, Note_on_c, 0, 80, 120
2, 51644, Note_off_c, 0, 75, 100
2, 51644, Note_off_c, 0, 70, 100
2, 51648, Note_on_c, 0, 75, 120
2, 51648, Note_on_c, 0, 70, 120
2, 51740, Note_off_c, 0, 80, 100
2, 51744, Note_on_c, 0, 80, 120
2, 51836, Note_off_c, 0, 75, 100
2, 51836, Note_off_c, 0, 70, 100
2, 51840, Note_on_c, 0, 75, 120
2, 51840, Note_on_c, 0, 70, 120
2, 51932, Note_off_c, 0, 80, 100
2, 51936, Note_on_c, 0, 79, 120
2, 52028, Note_off_c, 0, 75, 100
2, 52028, Note_off_c, 0, 70, 100
2, 52032, Note_on_c, 0, 75, 120
2, 52032, Note_on_c, 0, 70, 120
2, 52124, Note_off_c, 0, 79, 100
2, 52128, Note_on_c, 0, 79, 120
2, 52220, Note_off_c, 0, 75, 100
2, 52220, Note_off_c, 0, 70, 100
2, 52220, Note_off_c, 0, 79, 100
2, 52224, Note_on_c, 0, 80, 120
2, 52224, Note_on_c, 0, 72, 120
2, 52412, Note_off_c, 0, 80, 100
2, 52412, Note_off_c, 0, 72, 100
2, 52416, Note_on_c, 0, 80, 120
2, 52416, Note_on_c, 0, 84, 120
2, 52508, Note_off_c, 0, 80, 100
2, 52508, Note_off_c, 0, 84, 100
2, 52512, Note_on_c, 0, 82, 120
2, 52512, Note_on_c, 0, 85, 120
2, 52604, Note_off_c, 0, 82, 100
2, 52604, Note_off_c, 0, 85, 100
2, 52608, Note_on_c, 0, 87, 120
2, 52608, Note_on_c, 0, 84, 120
2, 52796, Note_off_c, 0, 87, 100
2, 52796, Note_off_c, 0, 84, 100
2, 52800, Note_on_c, 0, 87, 120
2, 52800, Note_on_c, 0, 84, 120
2, 52988, Note_off_c, 0, 87, 100
2, 52988, Note_off_c, 0, 84, 100
2, 52992, Note_on_c, 0, 84, 120
2, 52992, Note_on_c, 0, 80, 120
2, 53180, Note_off_c, 0, 84, 100
2, 53180, Note_off_c, 0, 80, 100
2, 53184, Note_on_c, 0, 72, 120
2, 53184, Note_on_c, 0, 80, 120
2, 53372, Note_off_c, 0, 72, 100
2, 53372, Note_off_c, 0, 80, 100
2, 53376, Note_on_c, 0, 73, 120
2, 53376, Note_on_c, 0, 82, 120
2, 53564, Note_off_c, 0, 73, 100
2, 53564, Note_off_c, 0, 82, 100
2, 53568, Note_on_c, 0, 70, 120
2, 53568, Note_on_c, 0, 79, 120
2, 53756, Note_off_c, 0, 70, 100
2, 53756, Note_off_c, 0, 79, 100
2, 53760, Note_on_c, 0, 80, 120
2, 53760, Note_on_c, 0, 72, 120
2, 54332, Note_off_c, 0, 80, 100
2, 54332, Note_off_c, 0, 72, 100
2, 55296, Note_on_c, 0, 77, 100
2, 55484, Note_off_c, 0, 77, 100
2, 55488, Note_on_c, 0, 75, 100
2, 55580, Note_off_c, 0, 75, 100
2, 55584, Note_on_c, 0, 73, 100
2, 55676, Note_off_c, 0, 73, 100
2, 55680, Note_on_c, 0, 72, 100
2, 55772, Note_off_c, 0, 72, 100
2, 55776, Note_on_c, 0, 70, 100
2, 55868, Note_off_c, 0, 70, 100
2, 55872, Note_on_c, 0, 68, 100
2, 55964, Note_off_c, 0, 68, 100
2, 55968, Note_on_c, 0, 67, 100
2, 56060, Note_off_c, 0, 67, 100
2, 56064, Note_on_c, 0, 65, 100
2, 56252, Note_off_c, 0, 65, 100
2, 56256, Note_on_c, 0, 63, 100
2, 56348, Note_off_c, 0, 63, 100
2, 56352, Note_on_c, 0, 61, 100
2, 56444, Note_off_c, 0, 61, 100
2, 56448, Note_on_c, 0, 60, 100
2, 56540, Note_off_c, 0, 60, 100
2, 56544, Note_on_c, 0, 58, 100
2, 56636, Note_off_c, 0, 58, 100
2, 56640, Note_on_c, 0, 56, 100
2, 56732, Note_off_c, 0, 56, 100
2, 56736, Note_on_c, 0, 55, 100
2, 56828, Note_off_c, 0, 55, 100
2, 56832, Note_on_c, 0, 53, 100
2, 57212, Note_off_c, 0, 53, 100
2, 57216, Note_on_c, 0, 60, 100
2, 57216, Note_on_c, 0, 56, 100
2, 57596, Note_off_c, 0, 60, 100
2, 57596, Note_off_c, 0, 56, 100
2, 57600, Note_on_c, 0, 61, 100
2, 57600, Note_on_c, 0, 58, 100
2, 57980, Note_off_c, 0, 61, 100
2, 57980, Note_off_c, 0, 58, 100
2, 57984, Note_on_c, 0, 64, 100
2, 57984, Note_on_c, 0, 55, 100
2, 58364, Note_off_c, 0, 64, 100
2, 58364, Note_off_c, 0, 55, 100
2, 58368, Note_on_c, 0, 56, 100
2, 58368, Note_on_c, 0, 65, 100
2, 58748, Note_off_c, 0, 56, 100
2, 58748, Note_off_c, 0, 65, 100
2, 58752, Note_on_c, 0, 72, 100
2, 58752, Note_on_c, 0, 68, 100
2, 59132, Note_off_c, 0, 72, 100
2, 59132, Note_off_c, 0, 68, 100
2, 59136, Note_on_c, 0, 70, 100
2, 59136, Note_on_c, 0, 73, 100
2, 59516, Note_off_c, 0, 70, 100
2, 59516, Note_off_c, 0, 73, 100
2, 59520, Note_on_c, 0, 67, 100
2, 59520, Note_on_c, 0, 76, 100
2, 59900, Note_off_c, 0, 67, 100
2, 59900, Note_off_c, 0, 76, 100
2, 59904, Note_on_c, 0, 65, 100
2, 59968, Note_on_c, 0, 77, 100
2, 60092, Note_off_c, 0, 65, 100
2, 60476, Note_off_c, 0, 77, 100
2, 60480, Note_on_c, 0, 72, 100
2, 60668, Note_off_c, 0, 72, 100
2, 60672, Note_on_c, 0, 77, 100
2, 60860, Note_off_c, 0, 77, 100
2, 60864, Note_on_c, 0, 75, 100
2, 61052, Note_off_c, 0, 75, 100
2, 61056, Note_on_c, 0, 73, 100
2, 61244, Note_off_c, 0, 73, 100
2, 61248, Note_on_c, 0, 72, 100
2, 61436, Note_off_c, 0, 72, 100
2, 61440, Note_on_c, 0, 73, 100
2, 61504, Note_on_c, 0, 75, 100
2, 61532, Note_off_c, 0, 73, 100
2, 61568, Note_on_c, 0, 73, 100
2, 61596, Note_off_c, 0, 75, 100
2, 62012, Note_off_c, 0, 73, 100
2, 62016, Note_on_c, 0, 68, 100
2, 62204, Note_off_c, 0, 68, 100
2, 62208, Note_on_c, 0, 73, 100
2, 62396, Note_off_c, 0, 73, 100
2, 62400, Note_on_c, 0, 72, 100
2, 62588, Note_off_c, 0, 72, 100
2, 62592, Note_on_c, 0, 70, 100
2, 62780, Note_off_c, 0, 70, 100
2, 62784, Note_on_c, 0, 68, 100
2, 62972, Note_off_c, 0, 68, 100
2, 62976, Note_on_c, 0, 70, 100
2, 63040, Note_on_c, 0, 72, 100
2, 63068, Note_off_c, 0, 70, 100
2, 63104, Note_on_c, 0, 70, 100
2, 63132, Note_off_c, 0, 72, 100
2, 63548, Note_off_c, 0, 70, 100
2, 63552, Note_on_c, 0, 65, 100
2, 63740, Note_off_c, 0, 65, 100
2, 63744, Note_on_c, 0, 70, 100
2, 63932, Note_off_c, 0, 70, 100
2, 63936, Note_on_c, 0, 68, 100
2, 64124, Note_off_c, 0, 68, 100
2, 64128, Note_on_c, 0, 67, 100
2, 64316, Note_off_c, 0, 67, 100
2, 64320, Note_on_c, 0, 65, 100
2, 64508, Note_off_c, 0, 65, 100
2, 64512, Note_on_c, 0, 72, 100
2, 64892, Note_off_c, 0, 72, 100
2, 64896, Note_on_c, 0, 60, 120
2, 64944, Note_on_c, 0, 61, 120
2, 64988, Note_off_c, 0, 60, 100
2, 64992, Note_on_c, 0, 60, 120
2, 65036, Note_off_c, 0, 61, 100
2, 65040, Note_on_c, 0, 59, 120
2, 65084, Note_off_c, 0, 60, 100
2, 65088, Note_on_c, 0, 60, 120
2, 65132, Note_off_c, 0, 59, 100
2, 65180, Note_off_c, 0, 60, 100
2, 65184, Note_on_c, 0, 61, 120
2, 65276, Note_off_c, 0, 61, 100
2, 65280, Note_on_c, 0, 60, 120
2, 65468, Note_off_c, 0, 60, 100
2, 65472, Note_on_c, 0, 72, 120
2, 65660, Note_off_c, 0, 72, 100
2, 65664, Note_on_c, 0, 68, 120
2, 65852, Note_off_c, 0, 68, 100
2, 65856, Note_on_c, 0, 65, 120
2, 66044, Note_off_c, 0, 65, 100
2, 66048, Note_on_c, 0, 72, 120
2, 66428, Note_off_c, 0, 72, 100
2, 66432, Note_on_c, 0, 60, 120
2, 66480, Note_on_c, 0, 61, 120
2, 66524, Note_off_c, 0, 60, 100
2, 66528, Note_on_c, 0, 60, 120
2, 66572, Note_off_c, 0, 61, 100
2, 66576, Note_on_c, 0, 59, 120
2, 66620, Note_off_c, 0, 60, 100
2, 66624, Note_on_c, 0, 60, 120
2, 66668, Note_off_c, 0, 59, 100
2, 66716, Note_off_c, 0, 60, 100
2, 66720, Note_on_c, 0, 61, 120
2, 66812, Note_off_c, 0, 61, 100
2, 66816, Note_on_c, 0, 60, 120
2, 67196, Note_off_c, 0, 60, 100
2, 67584, Note_on_c, 0, 75, 100
2, 67964, Note_off_c, 0, 75, 100
2, 67968, Note_on_c, 0, 72, 100
2, 68040, Note_on_c, 0, 73, 100
2, 68108, Note_off_c, 0, 72, 100
2, 68116, Note_on_c, 0, 72, 100
2, 68180, Note_off_c, 0, 73, 100
2, 68192, Note_on_c, 0, 70, 100
2, 68256, Note_off_c, 0, 72, 100
2, 68268, Note_on_c, 0, 72, 100
2, 68332, Note_off_c, 0, 70, 100
2, 68352, Note_on_c, 0, 68, 100
2, 68408, Note_off_c, 0, 72, 100
2, 68732, Note_off_c, 0, 68, 100
2, 68736, Note_on_c, 0, 63, 100
2, 68808, Note_on_c, 0, 65, 100
2, 68876, Note_off_c, 0, 63, 100
2, 68884, Note_on_c, 0, 63, 100
2, 68948, Note_off_c, 0, 65, 100
2, 68960, Note_on_c, 0, 61, 100
2, 69024, Note_off_c, 0, 63, 100
2, 69032, Note_on_c, 0, 63, 100
2, 69100, Note_off_c, 0, 61, 100
2, 69120, Note_on_c, 0, 68, 100
2, 69172, Note_off_c, 0, 63, 100
2, 69500, Note_off_c, 0, 68, 100
2, 69504, Note_on_c, 0, 63, 100
2, 69576, Note_on_c, 0, 65, 100
2, 69644, Note_off_c, 0, 63, 100
2, 69652, Note_on_c, 0, 63, 100
2, 69716, Note_off_c, 0, 65, 100
2, 69728, Note_on_c, 0, 61, 100
2, 69792, Note_off_c, 0, 63, 100
2, 69800, Note_on_c, 0, 63, 100
2, 69868, Note_off_c, 0, 61, 100
2, 69888, Note_on_c, 0, 60, 100
2, 69940, Note_off_c, 0, 63, 100
2, 70268, Note_off_c, 0, 60, 100
2, 70272, Note_on_c, 0, 56, 100
2, 70344, Note_on_c, 0, 58, 100
2, 70412, Note_off_c, 0, 56, 100
2, 70420, Note_on_c, 0, 56, 100
2, 70484, Note_off_c, 0, 58, 100
2, 70496, Note_on_c, 0, 55, 100
2, 70560, Note_off_c, 0, 56, 100
2, 70568, Note_on_c, 0, 56, 100
2, 70636, Note_off_c, 0, 55, 100
2, 70656, Note_on_c, 0, 67, 70
2, 70656, Note_on_c, 0, 70, 70
2, 70708, Note_off_c, 0, 56, 100
2, 71228, Note_off_c, 0, 67, 100
2, 71228, Note_off_c, 0, 70, 100
2, 71232, Note_on_c, 0, 68, 70
2, 71232, Note_on_c, 0, 72, 70
2, 71420, Note_off_c, 0, 68, 100
2, 71420, Note_off_c, 0, 72, 100
2, 71424, Note_on_c, 0, 70, 70
2, 71424, Note_on_c, 0, 73, 70
2, 71804, Note_off_c, 0, 70, 100
2, 71804, Note_off_c, 0, 73, 100
2, 71808, Note_on_c, 0, 70, 70
2, 71808, Note_on_c, 0, 73, 70
2, 72188, Note_off_c, 0, 70, 100
2, 72188, Note_off_c, 0, 73, 100
2, 72192, Note_on_c, 0, 68, 70
2, 72192, Note_on_c, 0, 72, 70
2, 72380, Note_off_c, 0, 68, 100
2, 72380, Note_off_c, 0, 72, 100
2, 72384, Note_on_c, 0, 67, 70
2, 72384, Note_on_c, 0, 70, 70
2, 72572, Note_off_c, 0, 67, 100
2, 72572, Note_off_c, 0, 70, 100
2, 72576, Note_on_c, 0, 68, 70
2, 72576, Note_on_c, 0, 72, 70
2, 72764, Note_off_c, 0, 68, 100
2, 72764, Note_off_c, 0, 72, 100
2, 72768, Note_on_c, 0, 70, 70
2, 72768, Note_on_c, 0, 73, 70
2, 72956, Note_off_c, 0, 70, 100
2, 72956, Note_off_c, 0, 73, 100
2, 72960, Note_on_c, 0, 72, 70
2, 72960, Note_on_c, 0, 75, 70
2, 73340, Note_off_c, 0, 72, 100
2, 73340, Note_off_c, 0, 75, 100
2, 73728, Note_on_c, 0, 75, 100
2, 74108, Note_off_c, 0, 75, 100
2, 74112, Note_on_c, 0, 72, 100
2, 74492, Note_off_c, 0, 72, 100
2, 74496, Note_on_c, 0, 68, 100
2, 74876, Note_off_c, 0, 68, 100
2, 74880, Note_on_c, 0, 63, 100
2, 75260, Note_off_c, 0, 63, 100
2, 75264, Note_on_c, 0, 67, 100
2, 75328, Note_on_c, 0, 68, 100
2, 75356, Note_off_c, 0, 67, 100
2, 75644, Note_off_c, 0, 68, 100
2, 75648, Note_on_c, 0, 63, 100
2, 76028, Note_off_c, 0, 63, 100
2, 76032, Note_on_c, 0, 60, 100
2, 76412, Note_off_c, 0, 60, 100
2, 76416, Note_on_c, 0, 56, 100
2, 76796, Note_off_c, 0, 56, 100
2, 76800, Note_on_c, 0, 55, 70
2, 76800, Note_on_c, 0, 58, 70
2, 77372, Note_off_c, 0, 55, 100
2, 77372, Note_off_c, 0, 58, 100
2, 77376, Note_on_c, 0, 56, 70
2, 77376, Note_on_c, 0, 60, 70
2, 77564, Note_off_c, 0, 56, 100
2, 77564, Note_off_c, 0, 60, 100
2, 77568, Note_on_c, 0, 58, 70
2, 77568, Note_on_c, 0, 61, 70
2, 77948, Note_off_c, 0, 58, 100
2, 77948, Note_off_c, 0, 61, 100
2, 77952, Note_on_c, 0, 58, 70
2, 77952, Note_on_c, 0, 61, 70
2, 78332, Note_off_c, 0, 58, 100
2, 78332, Note_off_c, 0, 61, 100
2, 78336, Note_on_c, 0, 56, 70
2, 78336, Note_on_c, 0, 60, 70
2, 78524, Note_off_c, 0, 56, 100
2, 78524, Note_off_c, 0, 60, 100
2, 78528, Note_on_c, 0, 55, 70
2, 78528, Note_on_c, 0, 58, 70
2, 78716, Note_off_c, 0, 55, 100
2, 78716, Note_off_c, 0, 58, 100
2, 78720, Note_on_c, 0, 56, 70
2, 78720, Note_on_c, 0, 60, 70
2, 78908, Note_off_c, 0, 56, 100
2, 78908, Note_off_c, 0, 60, 100
2, 78912, Note_on_c, 0, 58, 70
2, 78912, Note_on_c, 0, 61, 70
2, 79100, Note_off_c, 0, 58, 100
2, 79100, Note_off_c, 0, 61, 100
2, 79104, Note_on_c, 0, 56, 70
2, 79104, Note_on_c, 0, 60, 70
2, 79484, Note_off_c, 0, 56, 100
2, 79484, Note_off_c, 0, 60, 100
2, 79872, Note_on_c, 0, 79, 70
2, 79872, Note_on_c, 0, 82, 70
2, 80444, Note_off_c, 0, 79, 100
2, 80444, Note_off_c, 0, 82, 100
2, 80448, Note_on_c, 0, 80, 70
2, 80448, Note_on_c, 0, 84, 70
2, 80636, Note_off_c, 0, 80, 100
2, 80636, Note_off_c, 0, 84, 100
2, 80640, Note_on_c, 0, 82, 70
2, 80640, Note_on_c, 0, 85, 70
2, 81020, Note_off_c, 0, 82, 100
2, 81020, Note_off_c, 0, 85, 100
2, 81024, Note_on_c, 0, 82, 70
2, 81024, Note_on_c, 0, 85, 70
2, 81404, Note_off_c, 0, 82, 100
2, 81404, Note_off_c, 0, 85, 100
2, 81408, Note_on_c, 0, 80, 70
2, 81408, Note_on_c, 0, 84, 70
2, 81596, Note_off_c, 0, 80, 100
2, 81596, Note_off_c, 0, 84, 100
2, 81600, Note_on_c, 0, 79, 70
2, 81600, Note_on_c, 0, 82, 70
2, 81788, Note_off_c, 0, 79, 100
2, 81788, Note_off_c, 0, 82, 100
2, 81792, Note_on_c, 0, 80, 70
2, 81792, Note_on_c, 0, 84, 70
2, 81980, Note_off_c, 0, 80, 100
2, 81980, Note_off_c, 0, 84, 100
2, 81984, Note_on_c, 0, 82, 70
2, 81984, Note_on_c, 0, 85, 70
2, 82172, Note_off_c, 0, 82, 100
2, 82172, Note_off_c, 0, 85, 100
2, 82176, Note_on_c, 0, 80, 70
2, 82176, Note_on_c, 0, 84, 70
2, 82556, Note_off_c, 0, 80, 100
2, 82556, Note_off_c, 0, 84, 100
2, 82944, Note_on_c, 0, 80, 120
2, 83036, Note_off_c, 0, 80, 100
2, 83040, Note_on_c, 0, 79, 120
2, 83132, Note_off_c, 0, 79, 100
2, 83136, Note_on_c, 0, 80, 120
2, 83228, Note_off_c, 0, 80, 100
2, 83232, Note_on_c, 0, 82, 120
2, 83324, Note_off_c, 0, 82, 100
2, 83328, Note_on_c, 0, 84, 120
2, 83420, Note_off_c, 0, 84, 100
2, 83424, Note_on_c, 0, 82, 120
2, 83516, Note_off_c, 0, 82, 100
2, 83520, Note_on_c, 0, 84, 120
2, 83612, Note_off_c, 0, 84, 100
2, 83616, Note_on_c, 0, 85, 120
2, 83708, Note_off_c, 0, 85, 100
2, 83712, Note_on_c, 0, 87, 120
2, 83804, Note_off_c, 0, 87, 100
2, 83808, Note_on_c, 0, 85, 120
2, 83900, Note_off_c, 0, 85, 100
2, 83904, Note_on_c, 0, 84, 120
2, 83996, Note_off_c, 0, 84, 100
2, 84000, Note_on_c, 0, 85, 120
2, 84092, Note_off_c, 0, 85, 100
2, 84096, Note_on_c, 0, 84, 120
2, 84188, Note_off_c, 0, 84, 100
2, 84192, Note_on_c, 0, 82, 120
2, 84284, Note_off_c, 0, 82, 100
2, 84288, Note_on_c, 0, 80, 120
2, 84380, Note_off_c, 0, 80, 100
2, 84384, Note_on_c, 0, 78, 120
2, 84476, Note_off_c, 0, 78, 100
2, 84480, Note_on_c, 0, 77, 120
2, 84572, Note_off_c, 0, 77, 100
2, 84576, Note_on_c, 0, 76, 120
2, 84668, Note_off_c, 0, 76, 100
2, 84672, Note_on_c, 0, 77, 120
2, 84764, Note_off_c, 0, 77, 100
2, 84768, Note_on_c, 0, 79, 120
2, 84860, Note_off_c, 0, 79, 100
2, 84864, Note_on_c, 0, 77, 120
2, 84956, Note_off_c, 0, 77, 100
2, 84960, Note_on_c, 0, 76, 120
2, 85052, Note_off_c, 0, 76, 100
2, 85056, Note_on_c, 0, 77, 120
2, 85148, Note_off_c, 0, 77, 100
2, 85152, Note_on_c, 0, 79, 120
2, 85244, Note_off_c, 0, 79, 100
2, 85248, Note_on_c, 0, 77, 120
2, 85436, Note_off_c, 0, 77, 100
2, 85440, Note_on_c, 0, 80, 120
2, 85628, Note_off_c, 0, 80, 100
2, 85632, Note_on_c, 0, 85, 120
2, 85820, Note_off_c, 0, 85, 100
2, 85824, Note_on_c, 0, 89, 120
2, 86012, Note_off_c, 0, 89, 100
2, 86016, Note_on_c, 0, 84, 120
2, 86204, Note_off_c, 0, 84, 100
2, 86208, Note_on_c, 0, 75, 120
2, 86396, Note_off_c, 0, 75, 100
2, 86400, Note_on_c, 0, 80, 120
2, 86588, Note_off_c, 0, 80, 100
2, 86592, Note_on_c, 0, 84, 120
2, 86780, Note_off_c, 0, 84, 100
2, 86784, Note_on_c, 0, 87, 120
2, 86784, Note_on_c, 0, 84, 120
2, 86972, Note_off_c, 0, 87, 100
2, 86972, Note_off_c, 0, 84, 100
2, 86976, Note_on_c, 0, 85, 120
2, 86976, Note_on_c, 0, 82, 120
2, 87164, Note_off_c, 0, 85, 100
2, 87164, Note_off_c, 0, 82, 100
2, 87168, Note_on_c, 0, 84, 120
2, 87168, Note_on_c, 0, 80, 120
2, 87356, Note_off_c, 0, 84, 100
2, 87356, Note_off_c, 0, 80, 100
2, 87360, Note_on_c, 0, 82, 120
2, 87360, Note_on_c, 0, 79, 120
2, 87548, Note_off_c, 0, 82, 100
2, 87548, Note_off_c, 0, 79, 100
2, 87552, Note_on_c, 0, 80, 120
2, 87552, Note_on_c, 0, 75, 120
2, 87648, Note_on_c, 0, 84, 120
2, 87740, Note_off_c, 0, 80, 100
2, 87740, Note_off_c, 0, 75, 100
2, 87744, Note_on_c, 0, 80, 120
2, 87744, Note_on_c, 0, 75, 120
2, 87836, Note_off_c, 0, 84, 100
2, 87840, Note_on_c, 0, 84, 120
2, 87932, Note_off_c, 0, 80, 100
2, 87932, Note_off_c, 0, 75, 100
2, 87936, Note_on_c, 0, 80, 120
2, 87936, Note_on_c, 0, 75, 120
2, 88028, Note_off_c, 0, 84, 100
2, 88032, Note_on_c, 0, 84, 120
2, 88124, Note_off_c, 0, 80, 100
2, 88124, Note_off_c, 0, 75, 100
2, 88128, Note_on_c, 0, 80, 120
2, 88128, Note_on_c, 0, 75, 120
2, 88220, Note_off_c, 0, 84, 100
2, 88224, Note_on_c, 0, 84, 120
2, 88316, Note_off_c, 0, 80, 100
2, 88316, Note_off_c, 0, 75, 100
2, 88320, Note_on_c, 0, 77, 120
2, 88320, Note_on_c, 0, 72, 120
2, 88412, Note_off_c, 0, 84, 100
2, 88416, Note_on_c, 0, 80, 120
2, 88508, Note_off_c, 0, 77, 100
2, 88508, Note_off_c, 0, 72, 100
2, 88512, Note_on_c, 0, 77, 120
2, 88512, Note_on_c, 0, 72, 120
2, 88604, Note_off_c, 0, 80, 100
2, 88608, Note_on_c, 0, 80, 120
2, 88700, Note_off_c, 0, 77, 100
2, 88700, Note_off_c, 0, 72, 100
2, 88704, Note_on_c, 0, 77, 120
2, 88704, Note_on_c, 0, 72, 120
2, 88796, Note_off_c, 0, 80, 100
2, 88800, Note_on_c, 0, 80, 120
2, 88892, Note_off_c, 0, 77, 100
2, 88892, Note_off_c, 0, 72, 100
2, 88896, Note_on_c, 0, 77, 120
2, 88896, Note_on_c, 0, 72, 120
2, 88988, Note_off_c, 0, 80, 100
2, 88992, Note_on_c, 0, 80, 120
2, 89084, Note_off_c, 0, 77, 100
2, 89084, Note_off_c, 0, 72, 100
2, 89084, Note_off_c, 0, 80, 100
2, 89088, Note_on_c, 0, 70, 120
2, 89088, Note_on_c, 0, 77, 120
2, 89184, Note_on_c, 0, 80, 120
2, 89276, Note_off_c, 0, 70, 100
2, 89276, Note_off_c, 0, 77, 100
2, 89280, Note_on_c, 0, 70, 120
2, 89280, Note_on_c, 0, 77, 120
2, 89372, Note_off_c, 0, 80, 100
2, 89376, Note_on_c, 0, 80, 120
2, 89468, Note_off_c, 0, 70, 100
2, 89468, Note_off_c, 0, 77, 100
2, 89472, Note_on_c, 0, 70, 120
2, 89472, Note_on_c, 0, 77, 120
2, 89564, Note_off_c, 0, 80, 100
2, 89568, Note_on_c, 0, 80, 120
2, 89660, Note_off_c, 0, 70, 100
2, 89660, Note_off_c, 0, 77, 100
2, 89664, Note_on_c, 0, 70, 120
2, 89664, Note_on_c, 0, 77, 120
2, 89756, Note_off_c, 0, 80, 100
2, 89760, Note_on_c, 0, 80, 120
2, 89852, Note_off_c, 0, 70, 100
2, 89852, Note_off_c, 0, 77, 100
2, 89856, Note_on_c, 0, 75, 120
2, 89856, Note_on_c, 0, 70, 120
2, 89948, Note_off_c, 0, 80, 100
2, 89952, Note_on_c, 0, 80, 120
2, 90044, Note_off_c, 0, 75, 100
2, 90044, Note_off_c, 0, 70, 100
2, 90048, Note_on_c, 0, 75, 120
2, 90048, Note_on_c, 0, 70, 120
2, 90140, Note_off_c, 0, 80, 100
2, 90144, Note_on_c, 0, 80, 120
2, 90236, Note_off_c, 0, 75, 100
2, 90236, Note_off_c, 0, 70, 100
2, 90240, Note_on_c, 0, 75, 120
2, 90240, Note_on_c, 0, 70, 120
2, 90332, Note_off_c, 0, 80, 100
2, 90336, Note_on_c, 0, 79, 120
2, 90428, Note_off_c, 0, 75, 100
2, 90428, Note_off_c, 0, 70, 100
2, 90432, Note_on_c, 0, 75, 120
2, 90432, Note_on_c, 0, 70, 120
2, 90524, Note_off_c, 0, 79, 100
2, 90528, Note_on_c, 0, 79, 120
2, 90620, Note_off_c, 0, 75, 100
2, 90620, Note_off_c, 0, 70, 100
2, 90620, Note_off_c, 0, 79, 100
2, 90624, Note_on_c, 0, 72, 120
2, 90624, Note_on_c, 0, 75, 120
2, 90720, Note_on_c, 0, 80, 120
2, 90812, Note_off_c, 0, 72, 100
2, 90812, Note_off_c, 0, 75, 100
2, 90816, Note_on_c, 0, 72, 120
2, 90816, Note_on_c, 0, 75, 120
2, 90908, Note_off_c, 0, 80, 100
2, 90912, Note_on_c, 0, 80, 120
2, 91004, Note_off_c, 0, 72, 100
2, 91004, Note_off_c, 0, 75, 100
2, 91008, Note_on_c, 0, 72, 120
2, 91008, Note_on_c, 0, 75, 120
2, 91100, Note_off_c, 0, 80, 100
2, 91104, Note_on_c, 0, 80, 120
2, 91196, Note_off_c, 0, 72, 100
2, 91196, Note_off_c, 0, 75, 100
2, 91200, Note_on_c, 0, 72, 120
2, 91200, Note_on_c, 0, 75, 120
2, 91292, Note_off_c, 0, 80, 100
2, 91296, Note_on_c, 0, 80, 120
2, 91388, Note_off_c, 0, 72, 100
2, 91388, Note_off_c, 0, 75, 100
2, 91392, Note_on_c, 0, 77, 120
2, 91392, Note_on_c, 0, 72, 120
2, 91484, Note_off_c, 0, 80, 100
2, 91488, Note_on_c, 0, 80, 120
2, 91580, Note_off_c, 0, 77, 100
2, 91580, Note_off_c, 0, 72, 100
2, 91584, Note_on_c, 0, 77, 120
2, 91584, Note_on_c, 0, 72, 120
2, 91676, Note_off_c, 0, 80, 100
2, 91680, Note_on_c, 0, 80, 120
2, 91772, Note_off_c, 0, 77, 100
2, 91772, Note_off_c, 0, 72, 100
2, 91776, Note_on_c, 0, 77, 120
2, 91776, Note_on_c, 0, 72, 120
2, 91868, Note_off_c, 0, 80, 100
2, 91872, Note_on_c, 0, 80, 120
2, 91964, Note_off_c, 0, 77, 100
2, 91964, Note_off_c, 0, 72, 100
2, 91968, Note_on_c, 0, 77, 120
2, 91968, Note_on_c, 0, 72, 120
2, 92060, Note_off_c, 0, 80, 100
2, 92064, Note_on_c, 0, 80, 120
2, 92156, Note_off_c, 0, 77, 100
2, 92156, Note_off_c, 0, 72, 100
2, 92156, Note_off_c, 0, 80, 100
2, 92160, Note_on_c, 0, 70, 120
2, 92160, Note_on_c, 0, 77, 120
2, 92256, Note_on_c, 0, 80, 120
2, 92348, Note_off_c, 0, 70, 100
2, 92348, Note_off_c, 0, 77, 100
2, 92352, Note_on_c, 0, 70, 120
2, 92352, Note_on_c, 0, 77, 120
2, 92444, Note_off_c, 0, 80, 100
2, 92448, Note_on_c, 0, 80, 120
2, 92540, Note_off_c, 0, 70, 100
2, 92540, Note_off_c, 0, 77, 100
2, 92544, Note_on_c, 0, 70, 120
2, 92544, Note_on_c, 0, 77, 120
2, 92636, Note_off_c, 0, 80, 100
2, 92640, Note_on_c, 0, 80, 120
2, 92732, Note_off_c, 0, 70, 100
2, 92732, Note_off_c, 0, 77, 100
2, 92736, Note_on_c, 0, 70, 120
2, 92736, Note_on_c, 0, 77, 120
2, 92828, Note_off_c, 0, 80, 100
2, 92832, Note_on_c, 0, 80, 120
2, 92924, Note_off_c, 0, 70, 100
2, 92924, Note_off_c, 0, 77, 100
2, 92928, Note_on_c, 0, 75, 120
2, 92928, Note_on_c, 0, 70, 120
2, 93020, Note_off_c, 0, 80, 100
2, 93024, Note_on_c, 0, 80, 120
2, 93116, Note_off_c, 0, 75, 100
2, 93116, Note_off_c, 0, 70, 100
2, 93120, Note_on_c, 0, 75, 120
2, 93120, Note_on_c, 0, 70, 120
2, 93212, Note_off_c, 0, 80, 100
2, 93216, Note_on_c, 0, 80, 120
2, 93308, Note_off_c, 0, 75, 100
2, 93308, Note_off_c, 0, 70, 100
2, 93312, Note_on_c, 0, 75, 120
2, 93312, Note_on_c, 0, 70, 120
2, 93404, Note_off_c, 0, 80, 100
2, 93408, Note_on_c, 0, 79, 120
2, 93500, Note_off_c, 0, 75, 100
2, 93500, Note_off_c, 0, 70, 100
2, 93504, Note_on_c, 0, 75, 120
2, 93504, Note_on_c, 0, 70, 120
2, 93596, Note_off_c, 0, 79, 100
2, 93600, Note_on_c, 0, 79, 120
2, 93692, Note_off_c, 0, 75, 100
2, 93692, Note_off_c, 0, 70, 100
2, 93692, Note_off_c, 0, 79, 100
2, 93696, Note_on_c, 0, 80, 120
2, 93696, Note_on_c, 0, 72, 120
2, 93884, Note_off_c, 0, 80, 100
2, 93884, Note_off_c, 0, 72, 100
2, 93888, Note_on_c, 0, 80, 120
2, 93888, Note_on_c, 0, 84, 120
2, 93980, Note_off_c, 0, 80, 100
2, 93980, Note_off_c, 0, 84, 100
2, 93984, Note_on_c, 0, 82, 120
2, 93984, Note_on_c, 0, 85, 120
2, 94076, Note_off_c, 0, 82, 100
2, 94076, Note_off_c, 0, 85, 100
2, 94080, Note_on_c, 0, 87, 120
2, 94080, Note_on_c, 0, 84, 120
2, 94268, Note_off_c, 0, 87, 100
2, 94268, Note_off_c, 0, 84, 100
2, 94272, Note_on_c, 0, 87, 120
2, 94272, Note_on_c, 0, 84, 120
2, 94460, Note_off_c, 0, 87, 100
2, 94460, Note_off_c, 0, 84, 100
2, 94464, Note_on_c, 0, 84, 120
2, 94464, Note_on_c, 0, 80, 120
2, 94652, Note_off_c, 0, 84, 100
2, 94652, Note_off_c, 0, 80, 100
2, 94656, Note_on_c, 0, 72, 120
2, 94656, Note_on_c, 0, 80, 120
2, 94844, Note_off_c, 0, 72, 100
2, 94844, Note_off_c, 0, 80, 100
2, 94848, Note_on_c, 0, 73, 120
2, 94848, Note_on_c, 0, 82, 120
2, 95036, Note_off_c, 0, 73, 100
2, 95036, Note_off_c, 0, 82, 100
2, 95040, Note_on_c, 0, 70, 120
2, 95040, Note_on_c, 0, 79, 120
2, 95228, Note_off_c, 0, 70, 100
2, 95228, Note_off_c, 0, 79, 100
2, 95232, Note_on_c, 0, 80, 120
2, 95232, Note_on_c, 0, 72, 120
2, 95804, Note_off_c, 0, 80, 100
2, 95804, Note_off_c, 0, 72, 100
2, 96768, Note_on_c, 0, 80, 100
2, 96956, Note_off_c, 0, 80, 100
2, 96960, Note_on_c, 0, 79, 100
2, 97052, Note_off_c, 0, 79, 100
2, 97056, Note_on_c, 0, 77, 100
2, 97148, Note_off_c, 0, 77, 100
2, 97152, Note_on_c, 0, 75, 100
2, 97244, Note_off_c, 0, 75, 100
2, 97248, Note_on_c, 0, 73, 100
2, 97340, Note_off_c, 0, 73, 100
2, 97344, Note_on_c, 0, 72, 100
2, 97436, Note_off_c, 0, 72, 100
2, 97440, Note_on_c, 0, 70, 100
2, 97532, Note_off_c, 0, 70, 100
2, 97536, Note_on_c, 0, 68, 100
2, 97724, Note_off_c, 0, 68, 100
2, 97728, Note_on_c, 0, 67, 100
2, 97820, Note_off_c, 0, 67, 100
2, 97824, Note_on_c, 0, 65, 100
2, 97916, Note_off_c, 0, 65, 100
2, 97920, Note_on_c, 0, 63, 100
2, 98012, Note_off_c, 0, 63, 100
2, 98016, Note_on_c, 0, 61, 100
2, 98108, Note_off_c, 0, 61, 100
2, 98112, Note_on_c, 0, 60, 100
2, 98204, Note_off_c, 0, 60, 100
2, 98208, Note_on_c, 0, 58, 100
2, 98300, Note_off_c, 0, 58, 100
2, 98304, Note_on_c, 0, 56, 100
2, 98684, Note_off_c, 0, 56, 100
2, 98688, Note_on_c, 0, 56, 100
2, 99068, Note_off_c, 0, 56, 100
2, 99456, Note_on_c, 0, 63, 100
2, 99456, Note_on_c, 0, 60, 100
2, 99836, Note_off_c, 0, 63, 100
2, 99836, Note_off_c, 0, 60, 100
2, 99840, Note_on_c, 0, 61, 100
2, 99840, Note_on_c, 0, 65, 100
2, 100220, Note_off_c, 0, 61, 100
2, 100220, Note_off_c, 0, 65, 100
2, 100224, Note_on_c, 0, 60, 100
2, 100224, Note_on_c, 0, 63, 100
2, 100604, Note_off_c, 0, 60, 100
2, 100604, Note_off_c, 0, 63, 100
2, 100608, Note_on_c, 0, 61, 100
2, 100608, Note_on_c, 0, 65, 100
2, 100988, Note_off_c, 0, 61, 100
2, 100988, Note_off_c, 0, 65, 100
2, 100992, Note_on_c, 0, 58, 100
2, 100992, Note_on_c, 0, 67, 100
2, 101372, Note_off_c, 0, 58, 100
2, 101372, Note_off_c, 0, 67, 100
2, 101376, Note_on_c, 0, 60, 100
2, 101376, Note_on_c, 0, 68, 100
2, 101756, Note_off_c, 0, 60, 100
2, 101756, Note_off_c, 0, 68, 100
2, 101760, Note_on_c, 0, 60, 100
2, 101760, Note_on_c, 0, 68, 100
2, 102140, Note_off_c, 0, 60, 100
2, 102140, Note_off_c, 0, 68, 100
2, 102528, Note_on_c, 0, 60, 100
2, 102528, Note_on_c, 0, 68, 100
2, 102908, Note_off_c, 0, 60, 100
2, 102908, Note_off_c, 0, 68, 100
2, 102912, Note_on_c, 0, 60, 100
2, 102912, Note_on_c, 0, 63, 100
2, 102912, Note_on_c, 0, 69, 100
2, 103676, Note_off_c, 0, 60, 100
2, 103676, Note_off_c, 0, 63, 100
2, 103676, Note_off_c, 0, 69, 100
2, 103872, Note_on_c, 0, 75, 100
2, 104060, Note_off_c, 0, 75, 100
2, 104064, Note_on_c, 0, 72, 100
2, 104252, Note_off_c, 0, 72, 100
2, 104256, Note_on_c, 0, 69, 100
2, 104444, Note_off_c, 0, 69, 100
2, 104448, Note_on_c, 0, 70, 100
2, 104636, Note_off_c, 0, 70, 100
2, 104640, Note_on_c, 0, 73, 100
2, 104828, Note_off_c, 0, 73, 100
2, 104832, Note_on_c, 0, 77, 100
2, 105020, Note_off_c, 0, 77, 100
2, 105024, Note_on_c, 0, 82, 100
2, 105212, Note_off_c, 0, 82, 100
2, 105216, Note_on_c, 0, 77, 100
2, 105980, Note_off_c, 0, 77, 100
2, 105984, Note_on_c, 0, 60, 100
2, 105984, Note_on_c, 0, 63, 100
2, 105984, Note_on_c, 0, 69, 100
2, 106748, Note_off_c, 0, 60, 100
2, 106748, Note_off_c, 0, 63, 100
2, 106748, Note_off_c, 0, 69, 100
2, 106944, Note_on_c, 0, 75, 100
2, 107132, Note_off_c, 0, 75, 100
2, 107136, Note_on_c, 0, 72, 100
2, 107324, Note_off_c, 0, 72, 100
2, 107328, Note_on_c, 0, 69, 100
2, 107516, Note_off_c, 0, 69, 100
2, 107520, Note_on_c, 0, 70, 100
2, 107708, Note_off_c, 0, 70, 100
2, 107712, Note_on_c, 0, 73, 100
2, 107900, Note_off_c, 0, 73, 100
2, 107904, Note_on_c, 0, 77, 100
2, 108092, Note_off_c, 0, 77, 100
2, 108096, Note_on_c, 0, 82, 100
2, 108284, Note_off_c, 0, 82, 100
2, 108288, Note_on_c, 0, 77, 100
2, 109052, Note_off_c, 0, 77, 100
2, 109248, Note_on_c, 0, 77, 100
2, 109436, Note_off_c, 0, 77, 100
2, 109440, Note_on_c, 0, 78, 100
2, 109628, Note_off_c, 0, 78, 100
2, 109632, Note_on_c, 0, 77, 100
2, 109820, Note_off_c, 0, 77, 100
2, 109824, Note_on_c, 0, 75, 100
2, 109888, Note_on_c, 0, 77, 100
2, 109948, Note_off_c, 0, 75, 100
2, 109952, Note_on_c, 0, 75, 100
2, 110012, Note_off_c, 0, 77, 100
2, 110016, Note_on_c, 0, 73, 100
2, 110076, Note_off_c, 0, 75, 100
2, 110204, Note_off_c, 0, 73, 100
2, 110208, Note_on_c, 0, 72, 100
2, 110272, Note_on_c, 0, 73, 100
2, 110332, Note_off_c, 0, 72, 100
2, 110336, Note_on_c, 0, 72, 100
2, 110396, Note_off_c, 0, 73, 100
2, 110400, Note_on_c, 0, 70, 100
2, 110460, Note_off_c, 0, 72, 100
2, 110588, Note_off_c, 0, 70, 100
2, 110592, Note_on_c, 0, 65, 100
2, 110592, Note_on_c, 0, 69, 100
2, 110592, Note_on_c, 0, 72, 100
2, 110592, Note_on_c, 0, 77, 100
2, 112124, Note_off_c, 0, 65, 100
2, 112124, Note_off_c, 0, 69, 100
2, 112124, Note_off_c, 0, 72, 100
2, 112124, Note_off_c, 0, 77, 100
2, 112128, Note_on_c, 0, 70, 120
2, 112144, Note_on_c, 0, 73, 120
2, 112160, Note_on_c, 0, 77, 120
2, 112176, Note_on_c, 0, 82, 120
2, 112892, Note_off_c, 0, 70, 100
2, 112892, Note_off_c, 0, 73, 100
2, 112892, Note_off_c, 0, 77, 100
2, 112892, Note_off_c, 0, 82, 100
2, 112896, Note_on_c, 0, 70, 100
2, 113180, Note_off_c, 0, 70, 100
2, 113184, Note_on_c, 0, 70, 100
2, 113276, Note_off_c, 0, 70, 100
2, 113280, Note_on_c, 0, 70, 100
2, 113660, Note_off_c, 0, 70, 100
2, 113664, Note_on_c, 0, 70, 70
2, 113852, Note_off_c, 0, 70, 100
2, 113856, Note_on_c, 0, 73, 70
2, 114044, Note_off_c, 0, 73, 100
2, 114048, Note_on_c, 0, 73, 70
2, 114236, Note_off_c, 0, 73, 100
2, 114240, Note_on_c, 0, 73, 70
2, 114428, Note_off_c, 0, 73, 100
2, 114432, Note_on_c, 0, 73, 70
2, 114620, Note_off_c, 0, 73, 100
2, 114624, Note_on_c, 0, 72, 70
2, 114812, Note_off_c, 0, 72, 100
2, 114816, Note_on_c, 0, 72, 70
2, 115004, Note_off_c, 0, 72, 100
2, 115008, Note_on_c, 0, 70, 70
2, 115196, Note_off_c, 0, 70, 100
2, 115200, Note_on_c, 0, 65, 120
2, 115216, Note_on_c, 0, 69, 120
2, 115232, Note_on_c, 0, 72, 120
2, 115248, Note_on_c, 0, 77, 120
2, 115964, Note_off_c, 0, 65, 100
2, 115964, Note_off_c, 0, 69, 100
2, 115964, Note_off_c, 0, 72, 100
2, 115964, Note_off_c, 0, 77, 100
2, 115968, Note_on_c, 0, 65, 100
2, 116252, Note_off_c, 0, 65, 100
2, 116256, Note_on_c, 0, 65, 100
2, 116348, Note_off_c, 0, 65, 100
2, 116352, Note_on_c, 0, 65, 100
2, 116732, Note_off_c, 0, 65, 100
2, 116736, Note_on_c, 0, 60, 70
2, 116924, Note_off_c, 0, 60, 100
2, 116928, Note_on_c, 0, 63, 70
2, 117116, Note_off_c, 0, 63, 100
2, 117120, Note_on_c, 0, 63, 70
2, 117308, Note_off_c, 0, 63, 100
2, 117312, Note_on_c, 0, 63, 70
2, 117500, Note_off_c, 0, 63, 100
2, 117504, Note_on_c, 0, 63, 70
2, 117692, Note_off_c, 0, 63, 100
2, 117696, Note_on_c, 0, 61, 70
2, 117884, Note_off_c, 0, 61, 100
2, 117888, Note_on_c, 0, 61, 70
2, 118076, Note_off_c, 0, 61, 100
2, 118080, Note_on_c, 0, 60, 70
2, 118268, Note_off_c, 0, 60, 100
2, 118464, Note_on_c, 0, 58, 120
2, 118496, Note_on_c, 0, 60, 120
2, 118524, Note_off_c, 0, 58, 100
2, 118528, Note_on_c, 0, 58, 120
2, 118556, Note_off_c, 0, 60, 100
2, 118652, Note_off_c, 0, 58, 100
2, 118656, Note_on_c, 0, 61, 120
2, 118844, Note_off_c, 0, 61, 100
2, 118848, Note_on_c, 0, 65, 120
2, 119036, Note_off_c, 0, 65, 100
2, 119040, Note_on_c, 0, 70, 120
2, 119228, Note_off_c, 0, 70, 100
2, 119232, Note_on_c, 0, 73, 120
2, 119420, Note_off_c, 0, 73, 100
2, 119424, Note_on_c, 0, 77, 120
2, 119612, Note_off_c, 0, 77, 100
2, 119616, Note_on_c, 0, 82, 120
2, 119804, Note_off_c, 0, 82, 100
2, 120000, Note_on_c, 0, 58, 120
2, 120188, Note_off_c, 0, 58, 100
2, 120192, Note_on_c, 0, 62, 120
2, 120380, Note_off_c, 0, 62, 100
2, 120384, Note_on_c, 0, 65, 120
2, 120572, Note_off_c, 0, 65, 100
2, 120576, Note_on_c, 0, 70, 120
2, 120764, Note_off_c, 0, 70, 100
2, 120768, Note_on_c, 0, 74, 120
2, 120956, Note_off_c, 0, 74, 100
2, 120960, Note_on_c, 0, 77, 120
2, 121148, Note_off_c, 0, 77, 100
2, 121152, Note_on_c, 0, 82, 120
2, 121340, Note_off_c, 0, 82, 100
2, 121536, Note_on_c, 0, 82, 120
2, 121724, Note_off_c, 0, 82, 100
2, 121728, Note_on_c, 0, 79, 120
2, 121916, Note_off_c, 0, 79, 100
2, 121920, Note_on_c, 0, 75, 120
2, 122108, Note_off_c, 0, 75, 100
2, 122112, Note_on_c, 0, 70, 120
2, 122300, Note_off_c, 0, 70, 100
2, 122304, Note_on_c, 0, 67, 120
2, 122492, Note_off_c, 0, 67, 100
2, 122496, Note_on_c, 0, 63, 120
2, 122684, Note_off_c, 0, 63, 100
2, 122688, Note_on_c, 0, 58, 120
2, 122876, Note_off_c, 0, 58, 100
2, 122880, Note_on_c, 0, 61, 120
2, 123068, Note_off_c, 0, 61, 100
2, 123072, Note_on_c, 0, 64, 120
2, 123260, Note_off_c, 0, 64, 100
2, 123264, Note_on_c, 0, 67, 120
2, 123452, Note_off_c, 0, 67, 100
2, 123456, Note_on_c, 0, 70, 120
2, 123644, Note_off_c, 0, 70, 100
2, 123648, Note_on_c, 0, 73, 120
2, 123672, Note_on_c, 0, 76, 120
2, 123692, Note_off_c, 0, 73, 100
2, 123696, Note_on_c, 0, 73, 120
2, 123716, Note_off_c, 0, 76, 100
2, 123720, Note_on_c, 0, 76, 120
2, 123740, Note_off_c, 0, 73, 100
2, 123744, Note_on_c, 0, 73, 120
2, 123764, Note_off_c, 0, 76, 100
2, 123776, Note_on_c, 0, 72, 120
2, 123788, Note_off_c, 0, 73, 100
2, 123808, Note_on_c, 0, 73, 120
2, 123820, Note_off_c, 0, 72, 100
2, 123840, Note_on_c, 0, 76, 120
2, 123852, Note_off_c, 0, 73, 100
2, 124028, Note_off_c, 0, 76, 100
2, 124032, Note_on_c, 0, 79, 120
2, 124220, Note_off_c, 0, 79, 100
2, 124224, Note_on_c, 0, 82, 120
2, 124412, Note_off_c, 0, 82, 100
2, 124416, Note_on_c, 0, 82, 120
2, 124604, Note_off_c, 0, 82, 100
2, 124608, Note_on_c, 0, 80, 120
2, 124796, Note_off_c, 0, 80, 100
2, 124800, Note_on_c, 0, 79, 120
2, 124988, Note_off_c, 0, 79, 100
2, 124992, Note_on_c, 0, 77, 120
2, 125180, Note_off_c, 0, 77, 100
2, 125184, Note_on_c, 0, 68, 120
2, 125184, Note_on_c, 0, 77, 120
2, 125948, Note_off_c, 0, 68, 100
2, 125948, Note_off_c, 0, 77, 100
2, 125952, Note_on_c, 0, 67, 120
2, 125952, Note_on_c, 0, 76, 120
2, 127484, Note_off_c, 0, 67, 100
2, 127484, Note_off_c, 0, 76, 100
2, 127488, Note_on_c, 0, 77, 120
2, 127676, Note_off_c, 0, 77, 100
2, 127680, Note_on_c, 0, 75, 120
2, 127772, Note_off_c, 0, 75, 100
2, 127776, Note_on_c, 0, 73, 120
2, 127868, Note_off_c, 0, 73, 100
2, 127872, Note_on_c, 0, 72, 120
2, 127964, Note_off_c, 0, 72, 100
2, 127968, Note_on_c, 0, 70, 120
2, 128060, Note_off_c, 0, 70, 100
2, 128064, Note_on_c, 0, 68, 120
2, 128156, Note_off_c, 0, 68, 100
2, 128160, Note_on_c, 0, 67, 120
2, 128252, Note_off_c, 0, 67, 100
2, 128256, Note_on_c, 0, 65, 120
2, 128444, Note_off_c, 0, 65, 100
2, 128448, Note_on_c, 0, 63, 120
2, 128540, Note_off_c, 0, 63, 100
2, 128544, Note_on_c, 0, 61, 120
2, 128636, Note_off_c, 0, 61, 100
2, 128640, Note_on_c, 0, 60, 120
2, 128732, Note_off_c, 0, 60, 100
2, 128736, Note_on_c, 0, 58, 120
2, 128828, Note_off_c, 0, 58, 100
2, 128832, Note_on_c, 0, 56, 120
2, 128924, Note_off_c, 0, 56, 100
2, 128928, Note_on_c, 0, 55, 120
2, 129020, Note_off_c, 0, 55, 100
2, 129024, Note_on_c, 0, 53, 120
2, 129404, Note_off_c, 0, 53, 100
2, 129408, Note_on_c, 0, 60, 120
2, 129408, Note_on_c, 0, 56, 120
2, 129788, Note_off_c, 0, 60, 100
2, 129788, Note_off_c, 0, 56, 100
2, 129792, Note_on_c, 0, 61, 120
2, 129792, Note_on_c, 0, 58, 120
2, 130172, Note_off_c, 0, 61, 100
2, 130172, Note_off_c, 0, 58, 100
2, 130176, Note_on_c, 0, 64, 120
2, 130176, Note_on_c, 0, 55, 120
2, 130556, Note_off_c, 0, 64, 100
2, 130556, Note_off_c, 0, 55, 100
2, 130560, Note_on_c, 0, 65, 120
2, 130560, Note_on_c, 0, 56, 120
2, 130940, Note_off_c, 0, 65, 100
2, 130940, Note_off_c, 0, 56, 100
2, 130944, Note_on_c, 0, 72, 120
2, 130944, Note_on_c, 0, 68, 120
2, 131324, Note_off_c, 0, 72, 100
2, 131324, Note_off_c, 0, 68, 100
2, 131328, Note_on_c, 0, 73, 120
2, 131328, Note_on_c, 0, 70, 120
2, 131708, Note_off_c, 0, 73, 100
2, 131708, Note_off_c, 0, 70, 100
2, 131712, Note_on_c, 0, 76, 120
2, 131712, Note_on_c, 0, 67, 120
2, 132092, Note_off_c, 0, 76, 100
2, 132092, Note_off_c, 0, 67, 100
2, 132096, Note_on_c, 0, 77, 120
2, 132668, Note_off_c, 0, 77, 100
2, 132672, Note_on_c, 0, 72, 120
2, 132860, Note_off_c, 0, 72, 100
2, 132864, Note_on_c, 0, 77, 120
2, 133052, Note_off_c, 0, 77, 100
2, 133056, Note_on_c, 0, 75, 120
2, 133244, Note_off_c, 0, 75, 100
2, 133248, Note_on_c, 0, 73, 120
2, 133436, Note_off_c, 0, 73, 100
2, 133440, Note_on_c, 0, 72, 120
2, 133628, Note_off_c, 0, 72, 100
2, 133632, Note_on_c, 0, 73, 120
2, 133696, Note_on_c, 0, 75, 120
2, 133724, Note_off_c, 0, 73, 100
2, 133760, Note_on_c, 0, 73, 120
2, 133788, Note_off_c, 0, 75, 100
2, 134204, Note_off_c, 0, 73, 100
2, 134208, Note_on_c, 0, 68, 120
2, 134396, Note_off_c, 0, 68, 100
2, 134400, Note_on_c, 0, 73, 120
2, 134588, Note_off_c, 0, 73, 100
2, 134592, Note_on_c, 0, 72, 120
2, 134780, Note_off_c, 0, 72, 100
2, 134784, Note_on_c, 0, 70, 120
2, 134972, Note_off_c, 0, 70, 100
2, 134976, Note_on_c, 0, 68, 120
2, 135164, Note_off_c, 0, 68, 100
2, 135168, Note_on_c, 0, 70, 120
2, 135232, Note_on_c, 0, 72, 120
2, 135260, Note_off_c, 0, 70, 100
2, 135296, Note_on_c, 0, 70, 120
2, 135324, Note_off_c, 0, 72, 100
2, 135740, Note_off_c, 0, 70, 100
2, 135744, Note_on_c, 0, 65, 120
2, 135932, Note_off_c, 0, 65, 100
2, 135936, Note_on_c, 0, 70, 120
2, 136124, Note_off_c, 0, 70, 100
2, 136128, Note_on_c, 0, 68, 120
2, 136316, Note_off_c, 0, 68, 100
2, 136320, Note_on_c, 0, 67, 120
2, 136508, Note_off_c, 0, 67, 100
2, 136512, Note_on_c, 0, 65, 120
2, 136700, Note_off_c, 0, 65, 100
2, 136704, Note_on_c, 0, 72, 120
2, 137084, Note_off_c, 0, 72, 100
2, 137088, Note_on_c, 0, 60, 120
2, 137180, Note_off_c, 0, 60, 100
2, 137184, Note_on_c, 0, 59, 120
2, 137276, Note_off_c, 0, 59, 100
2, 137280, Note_on_c, 0, 60, 120
2, 137372, Note_off_c, 0, 60, 100
2, 137376, Note_on_c, 0, 61, 120
2, 137468, Note_off_c, 0, 61, 100
2, 137472, Note_on_c, 0, 60, 120
2, 137660, Note_off_c, 0, 60, 100
2, 137664, Note_on_c, 0, 72, 120
2, 137852, Note_off_c, 0, 72, 100
2, 137856, Note_on_c, 0, 68, 120
2, 138044, Note_off_c, 0, 68, 100
2, 138048, Note_on_c, 0, 65, 120
2, 138236, Note_off_c, 0, 65, 100
2, 138240, Note_on_c, 0, 72, 120
2, 138620, Note_off_c, 0, 72, 100
2, 138624, Note_on_c, 0, 60, 120
2, 138716, Note_off_c, 0, 60, 100
2, 138720, Note_on_c, 0, 59, 120
2, 138812, Note_off_c, 0, 59, 100
2, 138816, Note_on_c, 0, 60, 120
2, 138908, Note_off_c, 0, 60, 100
2, 138912, Note_on_c, 0, 61, 120
2, 138960, Note_on_c, 0, 60, 120
2, 139004, Note_off_c, 0, 61, 100
2, 139340, Note_off_c, 0, 60, 100
2, 139776, Note_on_c, 0, 84, 100
2, 140156, Note_off_c, 0, 84, 100
2, 140160, Note_on_c, 0, 80, 100
2, 140540, Note_off_c, 0, 80, 100
2, 140544, Note_on_c, 0, 77, 100
2, 140924, Note_off_c, 0, 77, 100
2, 140928, Note_on_c, 0, 72, 100
2, 141308, Note_off_c, 0, 72, 100
2, 141312, Note_on_c, 0, 76, 100
2, 141376, Note_on_c, 0, 77, 100
2, 141500, Note_off_c, 0, 76, 100
2, 141692, Note_off_c, 0, 77, 100
2, 141696, Note_on_c, 0, 72, 100
2, 142076, Note_off_c, 0, 72, 100
2, 142080, Note_on_c, 0, 68, 100
2, 142460, Note_off_c, 0, 68, 100
2, 142464, Note_on_c, 0, 65, 100
2, 142844, Note_off_c, 0, 65, 100
2, 142848, Note_on_c, 0, 64, 70
2, 142848, Note_on_c, 0, 67, 70
2, 143420, Note_off_c, 0, 64, 100
2, 143420, Note_off_c, 0, 67, 100
2, 143424, Note_on_c, 0, 65, 70
2, 143424, Note_on_c, 0, 68, 70
2, 143612, Note_off_c, 0, 65, 100
2, 143612, Note_off_c, 0, 68, 100
2, 143616, Note_on_c, 0, 67, 70
2, 143616, Note_on_c, 0, 70, 70
2, 143996, Note_off_c, 0, 67, 100
2, 143996, Note_off_c, 0, 70, 100
2, 144000, Note_on_c, 0, 67, 70
2, 144000, Note_on_c, 0, 70, 70
2, 144380, Note_off_c, 0, 67, 100
2, 144380, Note_off_c, 0, 70, 100
2, 144384, Note_on_c, 0, 65, 70
2, 144384, Note_on_c, 0, 68, 70
2, 144572, Note_off_c, 0, 65, 100
2, 144572, Note_off_c, 0, 68, 100
2, 144576, Note_on_c, 0, 64, 70
2, 144576, Note_on_c, 0, 67, 70
2, 144764, Note_off_c, 0, 64, 100
2, 144764, Note_off_c, 0, 67, 100
2, 144768, Note_on_c, 0, 65, 70
2, 144768, Note_on_c, 0, 68, 70
2, 144956, Note_off_c, 0, 65, 100
2, 144956, Note_off_c, 0, 68, 100
2, 144960, Note_on_c, 0, 67, 70
2, 144960, Note_on_c, 0, 70, 70
2, 145148, Note_off_c, 0, 67, 100
2, 145148, Note_off_c, 0, 70, 100
2, 145152, Note_on_c, 0, 68, 70
2, 145152, Note_on_c, 0, 72, 70
2, 145532, Note_off_c, 0, 68, 100
2, 145532, Note_off_c, 0, 72, 100
2, 145920, Note_on_c, 0, 71, 100
2, 145984, Note_on_c, 0, 72, 100
2, 146108, Note_off_c, 0, 71, 100
2, 146300, Note_off_c, 0, 72, 100
2, 146304, Note_on_c, 0, 68, 100
2, 146376, Note_on_c, 0, 70, 100
2, 146444, Note_off_c, 0, 68, 100
2, 146452, Note_on_c, 0, 68, 100
2, 146516, Note_off_c, 0, 70, 100
2, 146528, Note_on_c, 0, 67, 100
2, 146592, Note_off_c, 0, 68, 100
2, 146596, Note_on_c, 0, 68, 100
2, 146668, Note_off_c, 0, 67, 100
2, 146688, Note_on_c, 0, 65, 100
2, 146736, Note_off_c, 0, 68, 100
2, 147068, Note_off_c, 0, 65, 100
2, 147072, Note_on_c, 0, 60, 100
2, 147452, Note_off_c, 0, 60, 100
2, 147456, Note_on_c, 0, 64, 100
2, 147520, Note_on_c, 0, 65, 100
2, 147644, Note_off_c, 0, 64, 100
2, 147836, Note_off_c, 0, 65, 100
2, 147840, Note_on_c, 0, 60, 100
2, 147912, Note_on_c, 0, 61, 100
2, 147980, Note_off_c, 0, 60, 100
2, 147984, Note_on_c, 0, 60, 100
2, 148016, Note_on_c, 0, 58, 100
2, 148052, Note_off_c, 0, 61, 100
2, 148124, Note_off_c, 0, 60, 100
2, 148128, Note_on_c, 0, 60, 100
2, 148156, Note_off_c, 0, 58, 100
2, 148224, Note_on_c, 0, 56, 100
2, 148268, Note_off_c, 0, 60, 100
2, 148604, Note_off_c, 0, 56, 100
2, 148608, Note_on_c, 0, 53, 100
2, 148988, Note_off_c, 0, 53, 100
2, 148992, Note_on_c, 0, 52, 70
2, 148992, Note_on_c, 0, 55, 70
2, 149564, Note_off_c, 0, 52, 100
2, 149564, Note_off_c, 0, 55, 100
2, 149568, Note_on_c, 0, 53, 70
2, 149568, Note_on_c, 0, 56, 70
2, 149756, Note_off_c, 0, 53, 100
2, 149756, Note_off_c, 0, 56, 100
2, 149760, Note_on_c, 0, 55, 70
2, 149760, Note_on_c, 0, 58, 70
2, 150140, Note_off_c, 0, 55, 100
2, 150140, Note_off_c, 0, 58, 100
2, 150144, Note_on_c, 0, 55, 70
2, 150144, Note_on_c, 0, 58, 70
2, 150524, Note_off_c, 0, 55, 100
2, 150524, Note_off_c, 0, 58, 100
2, 150528, Note_on_c, 0, 53, 70
2, 150528, Note_on_c, 0, 56, 70
2, 150716, Note_off_c, 0, 53, 100
2, 150716, Note_off_c, 0, 56, 100
2, 150720, Note_on_c, 0, 52, 70
2, 150720, Note_on_c, 0, 55, 70
2, 150908, Note_off_c, 0, 52, 100
2, 150908, Note_off_c, 0, 55, 100
2, 150912, Note_on_c, 0, 53, 70
2, 150912, Note_on_c, 0, 56, 70
2, 151100, Note_off_c, 0, 53, 100
2, 151100, Note_off_c, 0, 56, 100
2, 151104, Note_on_c, 0, 55, 70
2, 151104, Note_on_c, 0, 58, 70
2, 151292, Note_off_c, 0, 55, 100
2, 151292, Note_off_c, 0, 58, 100
2, 151296, Note_on_c, 0, 56, 70
2, 151296, Note_on_c, 0, 60, 70
2, 152060, Note_off_c, 0, 56, 100
2, 152060, Note_off_c, 0, 60, 100
2, 152064, Note_on_c, 0, 76, 70
2, 152064, Note_on_c, 0, 79, 70
2, 152636, Note_off_c, 0, 76, 100
2, 152636, Note_off_c, 0, 79, 100
2, 152640, Note_on_c, 0, 77, 70
2, 152640, Note_on_c, 0, 80, 70
2, 152828, Note_off_c, 0, 77, 100
2, 152828, Note_off_c, 0, 80, 100
2, 152832, Note_on_c, 0, 79, 70
2, 152832, Note_on_c, 0, 82, 70
2, 153212, Note_off_c, 0, 79, 100
2, 153212, Note_off_c, 0, 82, 100
2, 153216, Note_on_c, 0, 79, 70
2, 153216, Note_on_c, 0, 82, 70
2, 153596, Note_off_c, 0, 79, 100
2, 153596, Note_off_c, 0, 82, 100
2, 153600, Note_on_c, 0, 77, 70
2, 153600, Note_on_c, 0, 80, 70
2, 153788, Note_off_c, 0, 77, 100
2, 153788, Note_off_c, 0, 80, 100
2, 153792, Note_on_c, 0, 76, 70
2, 153792, Note_on_c, 0, 79, 70
2, 153980, Note_off_c, 0, 76, 100
2, 153980, Note_off_c, 0, 79, 100
2, 153984, Note_on_c, 0, 77, 70
2, 153984, Note_on_c, 0, 80, 70
2, 154172, Note_off_c, 0, 77, 100
2, 154172, Note_off_c, 0, 80, 100
2, 154176, Note_on_c, 0, 79, 70
2, 154176, Note_on_c, 0, 82, 70
2, 154364, Note_off_c, 0, 79, 100
2, 154364, Note_off_c, 0, 82, 100
2, 154368, Note_on_c, 0, 77, 70
2, 154368, Note_on_c, 0, 80, 70
2, 155132, Note_off_c, 0, 77, 100
2, 155132, Note_off_c, 0, 80, 100
2, 155136, Note_on_c, 0, 75, 100
2, 155200, Note_on_c, 0, 84, 100
2, 155260, Note_off_c, 0, 75, 100
2, 155324, Note_off_c, 0, 84, 100
2, 155328, Note_on_c, 0, 82, 100
2, 155420, Note_off_c, 0, 82, 100
2, 155424, Note_on_c, 0, 80, 100
2, 155516, Note_off_c, 0, 80, 100
2, 155520, Note_on_c, 0, 79, 100
2, 155612, Note_off_c, 0, 79, 100
2, 155616, Note_on_c, 0, 77, 100
2, 155708, Note_off_c, 0, 77, 100
2, 155712, Note_on_c, 0, 75, 100
2, 155804, Note_off_c, 0, 75, 100
2, 155808, Note_on_c, 0, 73, 100
2, 155900, Note_off_c, 0, 73, 100
2, 155904, Note_on_c, 0, 72, 100
2, 155996, Note_off_c, 0, 72, 100
2, 156000, Note_on_c, 0, 70, 100
2, 156092, Note_off_c, 0, 70, 100
2, 156096, Note_on_c, 0, 68, 100
2, 156188, Note_off_c, 0, 68, 100
2, 156192, Note_on_c, 0, 67, 100
2, 156284, Note_off_c, 0, 67, 100
2, 156288, Note_on_c, 0, 65, 100
2, 156380, Note_off_c, 0, 65, 100
2, 156384, Note_on_c, 0, 63, 100
2, 156476, Note_off_c, 0, 63, 100
2, 156480, Note_on_c, 0, 61, 100
2, 156572, Note_off_c, 0, 61, 100
2, 156576, Note_on_c, 0, 60, 100
2, 156668, Note_off_c, 0, 60, 100
2, 156672, Note_on_c, 0, 61, 100
2, 157436, Note_off_c, 0, 61, 100
2, 157440, Note_on_c, 0, 85, 100
2, 157440, Note_on_c, 0, 82, 100
2, 158204, Note_off_c, 0, 85, 100
2, 158204, Note_off_c, 0, 82, 100
2, 158208, Note_on_c, 0, 84, 100
2, 158208, Note_on_c, 0, 80, 100
2, 158396, Note_off_c, 0, 84, 100
2, 158396, Note_off_c, 0, 80, 100
2, 158400, Note_on_c, 0, 89, 100
2, 158588, Note_off_c, 0, 89, 100
2, 158592, Note_on_c, 0, 80, 100
2, 158592, Note_on_c, 0, 77, 100
2, 158780, Note_off_c, 0, 80, 100
2, 158780, Note_off_c, 0, 77, 100
2, 158784, Note_on_c, 0, 84, 100
2, 158784, Note_on_c, 0, 80, 100
2, 158972, Note_off_c, 0, 84, 100
2, 158972, Note_off_c, 0, 80, 100
2, 158976, Note_on_c, 0, 84, 100
2, 158976, Note_on_c, 0, 80, 100
2, 159164, Note_off_c, 0, 84, 100
2, 159164, Note_off_c, 0, 80, 100
2, 159168, Note_on_c, 0, 82, 100
2, 159168, Note_on_c, 0, 79, 100
2, 159356, Note_off_c, 0, 82, 100
2, 159356, Note_off_c, 0, 79, 100
2, 159360, Note_on_c, 0, 80, 100
2, 159360, Note_on_c, 0, 77, 100
2, 159548, Note_off_c, 0, 80, 100
2, 159548, Note_off_c, 0, 77, 100
2, 159552, Note_on_c, 0, 79, 100
2, 159552, Note_on_c, 0, 76, 100
2, 159740, Note_off_c, 0, 79, 100
2, 159740, Note_off_c, 0, 76, 100
2, 159744, Note_on_c, 0, 72, 100
2, 159744, Note_on_c, 0, 77, 100
2, 159840, Note_on_c, 0, 80, 100
2, 159932, Note_off_c, 0, 72, 100
2, 159932, Note_off_c, 0, 77, 100
2, 159936, Note_on_c, 0, 72, 100
2, 159936, Note_on_c, 0, 77, 100
2, 160028, Note_off_c, 0, 80, 100
2, 160032, Note_on_c, 0, 80, 100
2, 160124, Note_off_c, 0, 72, 100
2, 160124, Note_off_c, 0, 77, 100
2, 160128, Note_on_c, 0, 72, 100
2, 160128, Note_on_c, 0, 77, 100
2, 160220, Note_off_c, 0, 80, 100
2, 160224, Note_on_c, 0, 80, 100
2, 160316, Note_off_c, 0, 72, 100
2, 160316, Note_off_c, 0, 77, 100
2, 160320, Note_on_c, 0, 72, 100
2, 160320, Note_on_c, 0, 77, 100
2, 160412, Note_off_c, 0, 80, 100
2, 160416, Note_on_c, 0, 80, 100
2, 160508, Note_off_c, 0, 72, 100
2, 160508, Note_off_c, 0, 77, 100
2, 160512, Note_on_c, 0, 73, 100
2, 160512, Note_on_c, 0, 77, 100
2, 160604, Note_off_c, 0, 80, 100
2, 160608, Note_on_c, 0, 80, 100
2, 160700, Note_off_c, 0, 73, 100
2, 160700, Note_off_c, 0, 77, 100
2, 160704, Note_on_c, 0, 73, 100
2, 160704, Note_on_c, 0, 77, 100
2, 160796, Note_off_c, 0, 80, 100
2, 160800, Note_on_c, 0, 80, 100
2, 160892, Note_off_c, 0, 73, 100
2, 160892, Note_off_c, 0, 77, 100
2, 160896, Note_on_c, 0, 73, 100
2, 160896, Note_on_c, 0, 77, 100
2, 160988, Note_off_c, 0, 80, 100
2, 160992, Note_on_c, 0, 80, 100
2, 161084, Note_off_c, 0, 73, 100
2, 161084, Note_off_c, 0, 77, 100
2, 161088, Note_on_c, 0, 73, 100
2, 161088, Note_on_c, 0, 77, 100
2, 161180, Note_off_c, 0, 80, 100
2, 161184, Note_on_c, 0, 80, 100
2, 161276, Note_off_c, 0, 73, 100
2, 161276, Note_off_c, 0, 77, 100
2, 161276, Note_off_c, 0, 80, 100
2, 161280, Note_on_c, 0, 73, 100
2, 161280, Note_on_c, 0, 77, 100
2, 161376, Note_on_c, 0, 79, 100
2, 161468, Note_off_c, 0, 73, 100
2, 161468, Note_off_c, 0, 77, 100
2, 161472, Note_on_c, 0, 73, 100
2, 161472, Note_on_c, 0, 77, 100
2, 161564, Note_off_c, 0, 79, 100
2, 161568, Note_on_c, 0, 79, 100
2, 161660, Note_off_c, 0, 73, 100
2, 161660, Note_off_c, 0, 77, 100
2, 161664, Note_on_c, 0, 73, 100
2, 161664, Note_on_c, 0, 77, 100
2, 161756, Note_off_c, 0, 79, 100
2, 161760, Note_on_c, 0, 79, 100
2, 161852, Note_off_c, 0, 73, 100
2, 161852, Note_off_c, 0, 77, 100
2, 161856, Note_on_c, 0, 73, 100
2, 161856, Note_on_c, 0, 77, 100
2, 161948, Note_off_c, 0, 79, 100
2, 161952, Note_on_c, 0, 79, 100
2, 162044, Note_off_c, 0, 73, 100
2, 162044, Note_off_c, 0, 77, 100
2, 162048, Note_on_c, 0, 72, 100
2, 162048, Note_on_c, 0, 76, 100
2, 162140, Note_off_c, 0, 79, 100
2, 162144, Note_on_c, 0, 79, 100
2, 162236, Note_off_c, 0, 72, 100
2, 162236, Note_off_c, 0, 76, 100
2, 162240, Note_on_c, 0, 72, 100
2, 162240, Note_on_c, 0, 76, 100
2, 162332, Note_off_c, 0, 79, 100
2, 162336, Note_on_c, 0, 79, 100
2, 162428, Note_off_c, 0, 72, 100
2, 162428, Note_off_c, 0, 76, 100
2, 162432, Note_on_c, 0, 72, 100
2, 162432, Note_on_c, 0, 76, 100
2, 162524, Note_off_c, 0, 79, 100
2, 162528, Note_on_c, 0, 79, 100
2, 162620, Note_off_c, 0, 72, 100
2, 162620, Note_off_c, 0, 76, 100
2, 162624, Note_on_c, 0, 72, 100
2, 162624, Note_on_c, 0, 76, 100
2, 162716, Note_off_c, 0, 79, 100
2, 162720, Note_on_c, 0, 79, 100
2, 162812, Note_off_c, 0, 72, 100
2, 162812, Note_off_c, 0, 76, 100
2, 162812, Note_off_c, 0, 79, 100
2, 162816, Note_on_c, 0, 72, 100
2, 162816, Note_on_c, 0, 77, 100
2, 162912, Note_on_c, 0, 80, 100
2, 163004, Note_off_c, 0, 72, 100
2, 163004, Note_off_c, 0, 77, 100
2, 163008, Note_on_c, 0, 72, 100
2, 163008, Note_on_c, 0, 77, 100
2, 163100, Note_off_c, 0, 80, 100
2, 163104, Note_on_c, 0, 80, 100
2, 163196, Note_off_c, 0, 72, 100
2, 163196, Note_off_c, 0, 77, 100
2, 163200, Note_on_c, 0, 72, 100
2, 163200, Note_on_c, 0, 77, 100
2, 163292, Note_off_c, 0, 80, 100
2, 163296, Note_on_c, 0, 80, 100
2, 163388, Note_off_c, 0, 72, 100
2, 163388, Note_off_c, 0, 77, 100
2, 163392, Note_on_c, 0, 72, 100
2, 163392, Note_on_c, 0, 77, 100
2, 163484, Note_off_c, 0, 80, 100
2, 163488, Note_on_c, 0, 80, 100
2, 163580, Note_off_c, 0, 72, 100
2, 163580, Note_off_c, 0, 77, 100
2, 163584, Note_on_c, 0, 73, 100
2, 163584, Note_on_c, 0, 77, 100
2, 163676, Note_off_c, 0, 80, 100
2, 163680, Note_on_c, 0, 80, 100
2, 163772, Note_off_c, 0, 73, 100
2, 163772, Note_off_c, 0, 77, 100
2, 163776, Note_on_c, 0, 73, 100
2, 163776, Note_on_c, 0, 77, 100
2, 163868, Note_off_c, 0, 80, 100
2, 163872, Note_on_c, 0, 80, 100
2, 163964, Note_off_c, 0, 73, 100
2, 163964, Note_off_c, 0, 77, 100
2, 163968, Note_on_c, 0, 73, 100
2, 163968, Note_on_c, 0, 77, 100
2, 164060, Note_off_c, 0, 80, 100
2, 164064, Note_on_c, 0, 80, 100
2, 164156, Note_off_c, 0, 73, 100
2, 164156, Note_off_c, 0, 77, 100
2, 164160, Note_on_c, 0, 73, 100
2, 164160, Note_on_c, 0, 77, 100
2, 164252, Note_off_c, 0, 80, 100
2, 164256, Note_on_c, 0, 80, 100
2, 164348, Note_off_c, 0, 73, 100
2, 164348, Note_off_c, 0, 77, 100
2, 164348, Note_off_c, 0, 80, 100
2, 164352, Note_on_c, 0, 73, 100
2, 164352, Note_on_c, 0, 77, 100
2, 164448, Note_on_c, 0, 79, 100
2, 164540, Note_off_c, 0, 73, 100
2, 164540, Note_off_c, 0, 77, 100
2, 164544, Note_on_c, 0, 73, 100
2, 164544, Note_on_c, 0, 77, 100
2, 164636, Note_off_c, 0, 79, 100
2, 164640, Note_on_c, 0, 79, 100
2, 164732, Note_off_c, 0, 73, 100
2, 164732, Note_off_c, 0, 77, 100
2, 164736, Note_on_c, 0, 73, 100
2, 164736, Note_on_c, 0, 77, 100
2, 164828, Note_off_c, 0, 79, 100
2, 164832, Note_on_c, 0, 79, 100
2, 164924, Note_off_c, 0, 73, 100
2, 164924, Note_off_c, 0, 77, 100
2, 164928, Note_on_c, 0, 73, 100
2, 164928, Note_on_c, 0, 77, 100
2, 165020, Note_off_c, 0, 79, 100
2, 165024, Note_on_c, 0, 79, 100
2, 165116, Note_off_c, 0, 73, 100
2, 165116, Note_off_c, 0, 77, 100
2, 165120, Note_on_c, 0, 72, 100
2, 165120, Note_on_c, 0, 76, 100
2, 165212, Note_off_c, 0, 79, 100
2, 165216, Note_on_c, 0, 79, 100
2, 165308, Note_off_c, 0, 72, 100
2, 165308, Note_off_c, 0, 76, 100
2, 165312, Note_on_c, 0, 72, 100
2, 165312, Note_on_c, 0, 76, 100
2, 165404, Note_off_c, 0, 79, 100
2, 165408, Note_on_c, 0, 79, 100
2, 165500, Note_off_c, 0, 72, 100
2, 165500, Note_off_c, 0, 76, 100
2, 165504, Note_on_c, 0, 72, 100
2, 165504, Note_on_c, 0, 76, 100
2, 165596, Note_off_c, 0, 79, 100
2, 165600, Note_on_c, 0, 79, 100
2, 165692, Note_off_c, 0, 72, 100
2, 165692, Note_off_c, 0, 76, 100
2, 165696, Note_on_c, 0, 72, 100
2, 165696, Note_on_c, 0, 76, 100
2, 165788, Note_off_c, 0, 79, 100
2, 165792, Note_on_c, 0, 79, 100
2, 165884, Note_off_c, 0, 72, 100
2, 165884, Note_off_c, 0, 76, 100
2, 165884, Note_off_c, 0, 79, 100
2, 165888, Note_on_c, 0, 68, 100
2, 165888, Note_on_c, 0, 77, 100
2, 166076, Note_off_c, 0, 68, 100
2, 166076, Note_off_c, 0, 77, 100
2, 166080, Note_on_c, 0, 77, 100
2, 166080, Note_on_c, 0, 80, 100
2, 166172, Note_off_c, 0, 77, 100
2, 166172, Note_off_c, 0, 80, 100
2, 166176, Note_on_c, 0, 79, 100
2, 166176, Note_on_c, 0, 82, 100
2, 166268, Note_off_c, 0, 79, 100
2, 166268, Note_off_c, 0, 82, 100
2, 166272, Note_on_c, 0, 84, 100
2, 166272, Note_on_c, 0, 80, 100
2, 166460, Note_off_c, 0, 84, 100
2, 166460, Note_off_c, 0, 80, 100
2, 166464, Note_on_c, 0, 84, 100
2, 166464, Note_on_c, 0, 80, 100
2, 166652, Note_off_c, 0, 84, 100
2, 166652, Note_off_c, 0, 80, 100
2, 166656, Note_on_c, 0, 80, 100
2, 166656, Note_on_c, 0, 77, 100
2, 166844, Note_off_c, 0, 80, 100
2, 166844, Note_off_c, 0, 77, 100
2, 166848, Note_on_c, 0, 68, 100
2, 166848, Note_on_c, 0, 77, 100
2, 167036, Note_off_c, 0, 68, 100
2, 167036, Note_off_c, 0, 77, 100
2, 167040, Note_on_c, 0, 70, 100
2, 167040, Note_on_c, 0, 79, 100
2, 167228, Note_off_c, 0, 70, 100
2, 167228, Note_off_c, 0, 79, 100
2, 167232, Note_on_c, 0, 67, 100
2, 167232, Note_on_c, 0, 76, 100
2, 167420, Note_off_c, 0, 67, 100
2, 167420, Note_off_c, 0, 76, 100
2, 167424, Note_on_c, 0, 68, 100
2, 167424, Note_on_c, 0, 77, 100
2, 167612, Note_off_c, 0, 68, 100
2, 167612, Note_off_c, 0, 77, 100
2, 167616, Note_on_c, 0, 80, 100
2, 167804, Note_off_c, 0, 80, 100
2, 167808, Note_on_c, 0, 68, 100
2, 167808, Note_on_c, 0, 77, 100
2, 167996, Note_off_c, 0, 68, 100
2, 167996, Note_off_c, 0, 77, 100
2, 168000, Note_on_c, 0, 80, 100
2, 168188, Note_off_c, 0, 80, 100
2, 168192, Note_on_c, 0, 68, 100
2, 168192, Note_on_c, 0, 77, 100
2, 168956, Note_off_c, 0, 68, 100
2, 168956, Note_off_c, 0, 77, 100
2, 170496, Control_c, 0, 11, 0
2, 170688, Note_on_c, 0, 65, 1
2, 170780, Note_off_c, 0, 65, 100
2, 170780, End_track
3, 0, Start_track
3, 0, Title_t, "Piano Left"
3, 0, Control_c, 1, 0, 0
3, 0, Program_c, 1, 0
3, 0, Control_c, 1, 7, 100
3, 0, Control_c, 1, 10, 55
3, 0, Control_c, 1, 91, 127
3, 0, Key_signature, -4, "minor"
3, 0, Note_on_c, 1, 41, 100
3, 0, Note_on_c, 1, 53, 100
3, 764, Note_off_c, 1, 41, 100
3, 764, Note_off_c, 1, 53, 100
3, 768, Note_on_c, 1, 56, 100
3, 768, Note_on_c, 1, 53, 100
3, 1052, Note_off_c, 1, 56, 100
3, 1052, Note_off_c, 1, 53, 100
3, 1056, Note_on_c, 1, 53, 100
3, 1056, Note_on_c, 1, 56, 100
3, 1148, Note_off_c, 1, 53, 100
3, 1148, Note_off_c, 1, 56, 100
3, 1152, Note_on_c, 1, 53, 100
3, 1152, Note_on_c, 1, 56, 100
3, 1532, Note_off_c, 1, 53, 100
3, 1532, Note_off_c, 1, 56, 100
3, 1536, Note_on_c, 1, 56, 70
3, 1536, Note_on_c, 1, 53, 70
3, 1724, Note_off_c, 1, 56, 100
3, 1728, Note_on_c, 1, 60, 70
3, 1916, Note_off_c, 1, 60, 100
3, 1920, Note_on_c, 1, 60, 70
3, 2108, Note_off_c, 1, 60, 100
3, 2112, Note_on_c, 1, 60, 70
3, 2300, Note_off_c, 1, 60, 100
3, 2304, Note_on_c, 1, 60, 70
3, 2492, Note_off_c, 1, 60, 100
3, 2496, Note_on_c, 1, 58, 70
3, 2684, Note_off_c, 1, 58, 100
3, 2688, Note_on_c, 1, 58, 70
3, 2876, Note_off_c, 1, 58, 100
3, 2880, Note_on_c, 1, 56, 70
3, 3068, Note_off_c, 1, 53, 100
3, 3068, Note_off_c, 1, 56, 100
3, 3072, Note_on_c, 1, 48, 110
3, 3088, Note_on_c, 1, 52, 110
3, 3104, Note_on_c, 1, 55, 110
3, 3120, Note_on_c, 1, 60, 110
3, 3836, Note_off_c, 1, 48, 100
3, 3836, Note_off_c, 1, 52, 100
3, 3836, Note_off_c, 1, 55, 100
3, 3836, Note_off_c, 1, 60, 100
3, 3840, Note_on_c, 1, 48, 100
3, 4124, Note_off_c, 1, 48, 100
3, 4128, Note_on_c, 1, 48, 100
3, 4220, Note_off_c, 1, 48, 100
3, 4224, Note_on_c, 1, 48, 100
3, 4604, Note_off_c, 1, 48, 100
3, 4608, Note_on_c, 1, 64, 70
3, 4608, Note_on_c, 1, 60, 70
3, 4796, Note_off_c, 1, 64, 100
3, 4800, Note_on_c, 1, 67, 70
3, 4988, Note_off_c, 1, 67, 100
3, 4992, Note_on_c, 1, 67, 70
3, 5180, Note_off_c, 1, 67, 100
3, 5184, Note_on_c, 1, 67, 70
3, 5372, Note_off_c, 1, 67, 100
3, 5376, Note_on_c, 1, 67, 70
3, 5564, Note_off_c, 1, 67, 100
3, 5568, Note_on_c, 1, 65, 70
3, 5756, Note_off_c, 1, 65, 100
3, 5760, Note_on_c, 1, 65, 70
3, 5948, Note_off_c, 1, 65, 100
3, 5952, Note_on_c, 1, 64, 70
3, 6140, Note_off_c, 1, 60, 100
3, 6140, Note_off_c, 1, 64, 100
3, 6144, Note_on_c, 1, 32, 100
3, 6236, Note_off_c, 1, 32, 100
3, 6240, Note_on_c, 1, 41, 100
3, 6332, Note_off_c, 1, 41, 100
3, 6336, Note_on_c, 1, 40, 100
3, 6428, Note_off_c, 1, 40, 100
3, 6432, Note_on_c, 1, 41, 100
3, 6524, Note_off_c, 1, 41, 100
3, 6528, Note_on_c, 1, 44, 100
3, 6620, Note_off_c, 1, 44, 100
3, 6624, Note_on_c, 1, 41, 100
3, 6716, Note_off_c, 1, 41, 100
3, 6720, Note_on_c, 1, 40, 100
3, 6812, Note_off_c, 1, 40, 100
3, 6816, Note_on_c, 1, 41, 100
3, 6908, Note_off_c, 1, 41, 100
3, 6912, Note_on_c, 1, 32, 100
3, 7004, Note_off_c, 1, 32, 100
3, 7008, Note_on_c, 1, 41, 100
3, 7100, Note_off_c, 1, 41, 100
3, 7104, Note_on_c, 1, 40, 100
3, 7196, Note_off_c, 1, 40, 100
3, 7200, Note_on_c, 1, 41, 100
3, 7292, Note_off_c, 1, 41, 100
3, 7296, Note_on_c, 1, 44, 100
3, 7388, Note_off_c, 1, 44, 100
3, 7392, Note_on_c, 1, 41, 100
3, 7484, Note_off_c, 1, 41, 100
3, 7488, Note_on_c, 1, 40, 100
3, 7580, Note_off_c, 1, 40, 100
3, 7584, Note_on_c, 1, 41, 100
3, 7676, Note_off_c, 1, 41, 100
3, 7680, Note_on_c, 1, 34, 100
3, 7772, Note_off_c, 1, 34, 100
3, 7776, Note_on_c, 1, 46, 100
3, 7868, Note_off_c, 1, 46, 100
3, 7872, Note_on_c, 1, 45, 100
3, 7964, Note_off_c, 1, 45, 100
3, 7968, Note_on_c, 1, 46, 100
3, 8060, Note_off_c, 1, 46, 100
3, 8064, Note_on_c, 1, 49, 100
3, 8156, Note_off_c, 1, 49, 100
3, 8160, Note_on_c, 1, 46, 100
3, 8252, Note_off_c, 1, 46, 100
3, 8256, Note_on_c, 1, 45, 100
3, 8348, Note_off_c, 1, 45, 100
3, 8352, Note_on_c, 1, 46, 100
3, 8444, Note_off_c, 1, 46, 100
3, 8448, Note_on_c, 1, 34, 100
3, 8540, Note_off_c, 1, 34, 100
3, 8544, Note_on_c, 1, 46, 100
3, 8636, Note_off_c, 1, 46, 100
3, 8640, Note_on_c, 1, 45, 100
3, 8732, Note_off_c, 1, 45, 100
3, 8736, Note_on_c, 1, 46, 100
3, 8828, Note_off_c, 1, 46, 100
3, 8832, Note_on_c, 1, 49, 100
3, 8924, Note_off_c, 1, 49, 100
3, 8928, Note_on_c, 1, 46, 100
3, 9020, Note_off_c, 1, 46, 100
3, 9024, Note_on_c, 1, 45, 100
3, 9116, Note_off_c, 1, 45, 100
3, 9120, Note_on_c, 1, 46, 100
3, 9212, Note_off_c, 1, 46, 100
3, 9216, Note_on_c, 1, 36, 100
3, 9308, Note_off_c, 1, 36, 100
3, 9312, Note_on_c, 1, 48, 100
3, 9404, Note_off_c, 1, 48, 100
3, 9408, Note_on_c, 1, 47, 100
3, 9500, Note_off_c, 1, 47, 100
3, 9504, Note_on_c, 1, 48, 100
3, 9596, Note_off_c, 1, 48, 100
3, 9600, Note_on_c, 1, 51, 100
3, 9692, Note_off_c, 1, 51, 100
3, 9696, Note_on_c, 1, 48, 100
3, 9788, Note_off_c, 1, 48, 100
3, 9792, Note_on_c, 1, 47, 100
3, 9884, Note_off_c, 1, 47, 100
3, 9888, Note_on_c, 1, 48, 100
3, 9980, Note_off_c, 1, 48, 100
3, 9984, Note_on_c, 1, 36, 100
3, 10076, Note_off_c, 1, 36, 100
3, 10080, Note_on_c, 1, 48, 100
3, 10172, Note_off_c, 1, 48, 100
3, 10176, Note_on_c, 1, 47, 100
3, 10268, Note_off_c, 1, 47, 100
3, 10272, Note_on_c, 1, 48, 100
3, 10364, Note_off_c, 1, 48, 100
3, 10368, Note_on_c, 1, 51, 100
3, 10460, Note_off_c, 1, 51, 100
3, 10464, Note_on_c, 1, 48, 100
3, 10556, Note_off_c, 1, 48, 100
3, 10560, Note_on_c, 1, 47, 100
3, 10652, Note_off_c, 1, 47, 100
3, 10656, Note_on_c, 1, 48, 100
3, 10748, Note_off_c, 1, 48, 100
3, 10752, Note_on_c, 1, 37, 100
3, 10752, Note_on_c, 1, 49, 100
3, 12284, Note_off_c, 1, 37, 100
3, 12284, Note_off_c, 1, 49, 100
3, 12288, Note_on_c, 1, 36, 60
3, 13052, Note_off_c, 1, 36, 100
3, 13056, Note_on_c, 1, 36, 60
3, 13628, Note_off_c, 1, 36, 100
3, 13824, Note_on_c, 1, 53, 100
3, 14588, Note_off_c, 1, 53, 100
3, 14592, Note_on_c, 1, 53, 100
3, 14780, Note_off_c, 1, 53, 100
3, 14784, Note_on_c, 1, 51, 100
3, 14876, Note_off_c, 1, 51, 100
3, 14880, Note_on_c, 1, 49, 100
3, 14972, Note_off_c, 1, 49, 100
3, 14976, Note_on_c, 1, 48, 100
3, 15068, Note_off_c, 1, 48, 100
3, 15072, Note_on_c, 1, 46, 100
3, 15164, Note_off_c, 1, 46, 100
3, 15168, Note_on_c, 1, 44, 100
3, 15260, Note_off_c, 1, 44, 100
3, 15264, Note_on_c, 1, 43, 100
3, 15356, Note_off_c, 1, 43, 100
3, 15360, Note_on_c, 1, 41, 100
3, 15548, Note_off_c, 1, 41, 100
3, 15552, Note_on_c, 1, 41, 100
3, 15740, Note_off_c, 1, 41, 100
3, 15744, Note_on_c, 1, 41, 100
3, 15932, Note_off_c, 1, 41, 100
3, 15936, Note_on_c, 1, 41, 100
3, 16124, Note_off_c, 1, 41, 100
3, 16128, Note_on_c, 1, 41, 100
3, 16316, Note_off_c, 1, 41, 100
3, 16320, Note_on_c, 1, 41, 100
3, 16508, Note_off_c, 1, 41, 100
3, 16512, Note_on_c, 1, 41, 100
3, 16700, Note_off_c, 1, 41, 100
3, 16704, Note_on_c, 1, 41, 100
3, 16892, Note_off_c, 1, 41, 100
3, 16896, Note_on_c, 1, 53, 100
3, 17084, Note_off_c, 1, 53, 100
3, 17088, Note_on_c, 1, 53, 100
3, 17276, Note_off_c, 1, 53, 100
3, 17280, Note_on_c, 1, 53, 100
3, 17468, Note_off_c, 1, 53, 100
3, 17472, Note_on_c, 1, 53, 100
3, 17660, Note_off_c, 1, 53, 100
3, 17664, Note_on_c, 1, 53, 100
3, 17852, Note_off_c, 1, 53, 100
3, 17856, Note_on_c, 1, 53, 100
3, 18044, Note_off_c, 1, 53, 100
3, 18048, Note_on_c, 1, 53, 100
3, 18236, Note_off_c, 1, 53, 100
3, 18240, Note_on_c, 1, 53, 100
3, 18428, Note_off_c, 1, 53, 100
3, 18432, Note_on_c, 1, 53, 100
3, 18496, Note_on_c, 1, 65, 100
3, 18620, Note_off_c, 1, 53, 100
3, 19004, Note_off_c, 1, 65, 100
3, 19008, Note_on_c, 1, 60, 100
3, 19196, Note_off_c, 1, 60, 100
3, 19200, Note_on_c, 1, 65, 100
3, 19388, Note_off_c, 1, 65, 100
3, 19392, Note_on_c, 1, 63, 100
3, 19580, Note_off_c, 1, 63, 100
3, 19584, Note_on_c, 1, 61, 100
3, 19772, Note_off_c, 1, 61, 100
3, 19776, Note_on_c, 1, 60, 100
3, 19964, Note_off_c, 1, 60, 100
3, 19968, Note_on_c, 1, 61, 100
3, 20540, Note_off_c, 1, 61, 100
3, 20544, Note_on_c, 1, 56, 100
3, 20732, Note_off_c, 1, 56, 100
3, 20736, Note_on_c, 1, 61, 100
3, 20924, Note_off_c, 1, 61, 100
3, 20928, Note_on_c, 1, 60, 100
3, 21116, Note_off_c, 1, 60, 100
3, 21120, Note_on_c, 1, 58, 100
3, 21308, Note_off_c, 1, 58, 100
3, 21312, Note_on_c, 1, 56, 100
3, 21500, Note_off_c, 1, 56, 100
3, 21504, Note_on_c, 1, 58, 100
3, 22076, Note_off_c, 1, 58, 100
3, 22080, Note_on_c, 1, 53, 100
3, 22268, Note_off_c, 1, 53, 100
3, 22272, Note_on_c, 1, 58, 100
3, 22460, Note_off_c, 1, 58, 100
3, 22464, Note_on_c, 1, 56, 100
3, 22652, Note_off_c, 1, 56, 100
3, 22656, Note_on_c, 1, 55, 100
3, 22844, Note_off_c, 1, 55, 100
3, 22848, Note_on_c, 1, 53, 100
3, 23036, Note_off_c, 1, 53, 100
3, 23040, Note_on_c, 1, 60, 100
3, 23420, Note_off_c, 1, 60, 100
3, 23424, Note_on_c, 1, 48, 120
3, 23516, Note_off_c, 1, 48, 100
3, 23520, Note_on_c, 1, 47, 120
3, 23612, Note_off_c, 1, 47, 100
3, 23616, Note_on_c, 1, 48, 120
3, 23708, Note_off_c, 1, 48, 100
3, 23712, Note_on_c, 1, 49, 120
3, 23804, Note_off_c, 1, 49, 100
3, 23808, Note_on_c, 1, 48, 120
3, 23996, Note_off_c, 1, 48, 100
3, 24000, Note_on_c, 1, 60, 120
3, 24188, Note_off_c, 1, 60, 100
3, 24192, Note_on_c, 1, 56, 120
3, 24380, Note_off_c, 1, 56, 100
3, 24384, Note_on_c, 1, 53, 120
3, 24572, Note_off_c, 1, 53, 100
3, 24576, Note_on_c, 1, 60, 120
3, 24956, Note_off_c, 1, 60, 100
3, 24960, Note_on_c, 1, 48, 120
3, 25052, Note_off_c, 1, 48, 100
3, 25056, Note_on_c, 1, 47, 120
3, 25148, Note_off_c, 1, 47, 100
3, 25152, Note_on_c, 1, 48, 120
3, 25244, Note_off_c, 1, 48, 100
3, 25248, Note_on_c, 1, 49, 120
3, 25296, Note_on_c, 1, 48, 120
3, 25340, Note_off_c, 1, 49, 100
3, 25676, Note_off_c, 1, 48, 100
3, 26112, Note_on_c, 1, 63, 100
3, 26492, Note_off_c, 1, 63, 100
3, 26496, Note_on_c, 1, 60, 100
3, 26876, Note_off_c, 1, 60, 100
3, 26880, Note_on_c, 1, 56, 100
3, 27260, Note_off_c, 1, 56, 100
3, 27264, Note_on_c, 1, 51, 100
3, 27644, Note_off_c, 1, 51, 100
3, 27648, Note_on_c, 1, 56, 100
3, 28028, Note_off_c, 1, 56, 100
3, 28032, Note_on_c, 1, 51, 100
3, 28412, Note_off_c, 1, 51, 100
3, 28416, Note_on_c, 1, 48, 100
3, 28796, Note_off_c, 1, 48, 100
3, 28800, Note_on_c, 1, 44, 100
3, 29180, Note_off_c, 1, 44, 100
3, 29184, Note_on_c, 1, 39, 70
3, 29184, Note_on_c, 1, 51, 70
3, 30716, Note_off_c, 1, 39, 100
3, 30716, Note_off_c, 1, 51, 100
3, 30720, Note_on_c, 1, 44, 70
3, 30720, Note_on_c, 1, 56, 70
3, 32252, Note_off_c, 1, 44, 100
3, 32252, Note_off_c, 1, 56, 100
3, 32256, Note_on_c, 1, 63, 100
3, 32636, Note_off_c, 1, 63, 100
3, 32640, Note_on_c, 1, 60, 100
3, 33020, Note_off_c, 1, 60, 100
3, 33024, Note_on_c, 1, 56, 100
3, 33404, Note_off_c, 1, 56, 100
3, 33408, Note_on_c, 1, 51, 100
3, 33788, Note_off_c, 1, 51, 100
3, 33792, Note_on_c, 1, 56, 100
3, 34172, Note_off_c, 1, 56, 100
3, 34176, Note_on_c, 1, 51, 100
3, 34556, Note_off_c, 1, 51, 100
3, 34560, Note_on_c, 1, 48, 100
3, 34940, Note_off_c, 1, 48, 100
3, 34944, Note_on_c, 1, 44, 100
3, 35324, Note_off_c, 1, 44, 100
3, 35328, Note_on_c, 1, 39, 70
3, 35328, Note_on_c, 1, 51, 70
3, 36860, Note_off_c, 1, 39, 100
3, 36860, Note_off_c, 1, 51, 100
3, 36864, Note_on_c, 1, 44, 70
3, 36864, Note_on_c, 1, 56, 70
3, 38396, Note_off_c, 1, 44, 100
3, 38396, Note_off_c, 1, 56, 100
3, 38400, Note_on_c, 1, 39, 70
3, 38400, Note_on_c, 1, 51, 70
3, 39932, Note_off_c, 1, 39, 100
3, 39932, Note_off_c, 1, 51, 100
3, 39936, Note_on_c, 1, 44, 70
3, 39936, Note_on_c, 1, 56, 70
3, 41468, Note_off_c, 1, 44, 100
3, 41468, Note_off_c, 1, 56, 100
3, 41472, Note_on_c, 1, 48, 120
3, 41660, Note_off_c, 1, 48, 100
3, 41664, Note_on_c, 1, 56, 120
3, 41852, Note_off_c, 1, 56, 100
3, 41856, Note_on_c, 1, 48, 120
3, 42044, Note_off_c, 1, 48, 100
3, 42048, Note_on_c, 1, 56, 120
3, 42236, Note_off_c, 1, 56, 100
3, 42240, Note_on_c, 1, 48, 120
3, 42428, Note_off_c, 1, 48, 100
3, 42432, Note_on_c, 1, 56, 120
3, 42620, Note_off_c, 1, 56, 100
3, 42624, Note_on_c, 1, 48, 120
3, 42812, Note_off_c, 1, 48, 100
3, 42816, Note_on_c, 1, 56, 120
3, 43004, Note_off_c, 1, 56, 100
3, 43008, Note_on_c, 1, 49, 120
3, 43196, Note_off_c, 1, 49, 100
3, 43200, Note_on_c, 1, 56, 120
3, 43388, Note_off_c, 1, 56, 100
3, 43392, Note_on_c, 1, 49, 120
3, 43580, Note_off_c, 1, 49, 100
3, 43584, Note_on_c, 1, 56, 120
3, 43772, Note_off_c, 1, 56, 100
3, 43776, Note_on_c, 1, 49, 120
3, 43964, Note_off_c, 1, 49, 100
3, 43968, Note_on_c, 1, 56, 120
3, 44156, Note_off_c, 1, 56, 100
3, 44160, Note_on_c, 1, 49, 120
3, 44348, Note_off_c, 1, 49, 100
3, 44352, Note_on_c, 1, 56, 120
3, 44540, Note_off_c, 1, 56, 100
3, 44544, Note_on_c, 1, 51, 120
3, 45308, Note_off_c, 1, 51, 100
3, 45312, Note_on_c, 1, 39, 120
3, 46076, Note_off_c, 1, 39, 100
3, 46080, Note_on_c, 1, 56, 120
3, 46268, Note_off_c, 1, 56, 100
3, 46272, Note_on_c, 1, 56, 120
3, 46460, Note_off_c, 1, 56, 100
3, 46464, Note_on_c, 1, 60, 120
3, 46652, Note_off_c, 1, 60, 100
3, 46656, Note_on_c, 1, 56, 120
3, 46844, Note_off_c, 1, 56, 100
3, 46848, Note_on_c, 1, 53, 120
3, 47036, Note_off_c, 1, 53, 100
3, 47040, Note_on_c, 1, 53, 120
3, 47228, Note_off_c, 1, 53, 100
3, 47232, Note_on_c, 1, 56, 120
3, 47420, Note_off_c, 1, 56, 100
3, 47424, Note_on_c, 1, 53, 120
3, 47612, Note_off_c, 1, 53, 100
3, 47616, Note_on_c, 1, 49, 120
3, 47804, Note_off_c, 1, 49, 100
3, 47808, Note_on_c, 1, 49, 120
3, 47996, Note_off_c, 1, 49, 100
3, 48000, Note_on_c, 1, 53, 120
3, 48188, Note_off_c, 1, 53, 100
3, 48192, Note_on_c, 1, 49, 120
3, 48380, Note_off_c, 1, 49, 100
3, 48384, Note_on_c, 1, 51, 120
3, 48572, Note_off_c, 1, 51, 100
3, 48576, Note_on_c, 1, 51, 120
3, 48764, Note_off_c, 1, 51, 100
3, 48768, Note_on_c, 1, 39, 120
3, 48956, Note_off_c, 1, 39, 100
3, 48960, Note_on_c, 1, 39, 120
3, 49148, Note_off_c, 1, 39, 100
3, 49152, Note_on_c, 1, 44, 120
3, 49152, Note_on_c, 1, 56, 120
3, 49340, Note_off_c, 1, 44, 100
3, 49340, Note_off_c, 1, 56, 100
3, 49344, Note_on_c, 1, 56, 120
3, 49532, Note_off_c, 1, 56, 100
3, 49536, Note_on_c, 1, 60, 120
3, 49724, Note_off_c, 1, 60, 100
3, 49728, Note_on_c, 1, 56, 120
3, 49916, Note_off_c, 1, 56, 100
3, 49920, Note_on_c, 1, 53, 120
3, 50108, Note_off_c, 1, 53, 100
3, 50112, Note_on_c, 1, 53, 120
3, 50300, Note_off_c, 1, 53, 100
3, 50304, Note_on_c, 1, 56, 120
3, 50492, Note_off_c, 1, 56, 100
3, 50496, Note_on_c, 1, 53, 120
3, 50684, Note_off_c, 1, 53, 100
3, 50688, Note_on_c, 1, 49, 120
3, 50876, Note_off_c, 1, 49, 100
3, 50880, Note_on_c, 1, 49, 120
3, 51068, Note_off_c, 1, 49, 100
3, 51072, Note_on_c, 1, 53, 120
3, 51260, Note_off_c, 1, 53, 100
3, 51264, Note_on_c, 1, 49, 120
3, 51452, Note_off_c, 1, 49, 100
3, 51456, Note_on_c, 1, 51, 120
3, 51644, Note_off_c, 1, 51, 100
3, 51648, Note_on_c, 1, 51, 120
3, 51836, Note_off_c, 1, 51, 100
3, 51840, Note_on_c, 1, 39, 120
3, 52028, Note_off_c, 1, 39, 100
3, 52032, Note_on_c, 1, 39, 120
3, 52220, Note_off_c, 1, 39, 100
3, 52224, Note_on_c, 1, 44, 120
3, 52604, Note_off_c, 1, 44, 100
3, 53376, Note_on_c, 1, 39, 120
3, 53376, Note_on_c, 1, 51, 120
3, 53756, Note_off_c, 1, 39, 100
3, 53756, Note_off_c, 1, 51, 100
3, 53760, Note_on_c, 1, 56, 120
3, 53760, Note_on_c, 1, 44, 120
3, 54332, Note_off_c, 1, 56, 100
3, 54332, Note_off_c, 1, 44, 100
3, 55296, Note_on_c, 1, 53, 100
3, 56060, Note_off_c, 1, 53, 100
3, 56064, Note_on_c, 1, 53, 100
3, 56252, Note_off_c, 1, 53, 100
3, 56256, Note_on_c, 1, 51, 100
3, 56348, Note_off_c, 1, 51, 100
3, 56352, Note_on_c, 1, 49, 100
3, 56444, Note_off_c, 1, 49, 100
3, 56448, Note_on_c, 1, 48, 100
3, 56540, Note_off_c, 1, 48, 100
3, 56544, Note_on_c, 1, 46, 100
3, 56636, Note_off_c, 1, 46, 100
3, 56640, Note_on_c, 1, 44, 100
3, 56732, Note_off_c, 1, 44, 100
3, 56736, Note_on_c, 1, 43, 100
3, 56828, Note_off_c, 1, 43, 100
3, 56832, Note_on_c, 1, 41, 100
3, 57020, Note_off_c, 1, 41, 100
3, 57024, Note_on_c, 1, 41, 100
3, 57212, Note_off_c, 1, 41, 100
3, 57216, Note_on_c, 1, 41, 100
3, 57404, Note_off_c, 1, 41, 100
3, 57408, Note_on_c, 1, 41, 100
3, 57596, Note_off_c, 1, 41, 100
3, 57600, Note_on_c, 1, 41, 100
3, 57788, Note_off_c, 1, 41, 100
3, 57792, Note_on_c, 1, 41, 100
3, 57980, Note_off_c, 1, 41, 100
3, 57984, Note_on_c, 1, 41, 100
3, 58172, Note_off_c, 1, 41, 100
3, 58176, Note_on_c, 1, 41, 100
3, 58364, Note_off_c, 1, 41, 100
3, 58368, Note_on_c, 1, 53, 100
3, 58556, Note_off_c, 1, 53, 100
3, 58560, Note_on_c, 1, 53, 100
3, 58748, Note_off_c, 1, 53, 100
3, 58752, Note_on_c, 1, 53, 100
3, 58940, Note_off_c, 1, 53, 100
3, 58944, Note_on_c, 1, 53, 100
3, 59132, Note_off_c, 1, 53, 100
3, 59136, Note_on_c, 1, 53, 100
3, 59324, Note_off_c, 1, 53, 100
3, 59328, Note_on_c, 1, 53, 100
3, 59516, Note_off_c, 1, 53, 100
3, 59520, Note_on_c, 1, 53, 100
3, 59708, Note_off_c, 1, 53, 100
3, 59712, Note_on_c, 1, 53, 100
3, 59900, Note_off_c, 1, 53, 100
3, 59904, Note_on_c, 1, 53, 100
3, 59968, Note_on_c, 1, 65, 100
3, 60092, Note_off_c, 1, 53, 100
3, 60476, Note_off_c, 1, 65, 100
3, 60480, Note_on_c, 1, 60, 100
3, 60668, Note_off_c, 1, 60, 100
3, 60672, Note_on_c, 1, 65, 100
3, 60860, Note_off_c, 1, 65, 100
3, 60864, Note_on_c, 1, 63, 100
3, 61052, Note_off_c, 1, 63, 100
3, 61056, Note_on_c, 1, 61, 100
3, 61244, Note_off_c, 1, 61, 100
3, 61248, Note_on_c, 1, 60, 100
3, 61436, Note_off_c, 1, 60, 100
3, 61440, Note_on_c, 1, 61, 100
3, 62012, Note_off_c, 1, 61, 100
3, 62016, Note_on_c, 1, 56, 100
3, 62204, Note_off_c, 1, 56, 100
3, 62208, Note_on_c, 1, 61, 100
3, 62396, Note_off_c, 1, 61, 100
3, 62400, Note_on_c, 1, 60, 100
3, 62588, Note_off_c, 1, 60, 100
3, 62592, Note_on_c, 1, 58, 100
3, 62780, Note_off_c, 1, 58, 100
3, 62784, Note_on_c, 1, 56, 100
3, 62972, Note_off_c, 1, 56, 100
3, 62976, Note_on_c, 1, 58, 100
3, 63548, Note_off_c, 1, 58, 100
3, 63552, Note_on_c, 1, 53, 100
3, 63740, Note_off_c, 1, 53, 100
3, 63744, Note_on_c, 1, 58, 100
3, 63932, Note_off_c, 1, 58, 100
3, 63936, Note_on_c, 1, 56, 100
3, 64124, Note_off_c, 1, 56, 100
3, 64128, Note_on_c, 1, 55, 100
3, 64316, Note_off_c, 1, 55, 100
3, 64320, Note_on_c, 1, 53, 100
3, 64508, Note_off_c, 1, 53, 100
3, 64512, Note_on_c, 1, 60, 100
3, 64892, Note_off_c, 1, 60, 100
3, 64896, Note_on_c, 1, 48, 120
3, 64988, Note_off_c, 1, 48, 100
3, 64992, Note_on_c, 1, 47, 120
3, 65084, Note_off_c, 1, 47, 100
3, 65088, Note_on_c, 1, 48, 120
3, 65180, Note_off_c, 1, 48, 100
3, 65184, Note_on_c, 1, 49, 120
3, 65276, Note_off_c, 1, 49, 100
3, 65280, Note_on_c, 1, 48, 120
3, 65468, Note_off_c, 1, 48, 100
3, 65472, Note_on_c, 1, 60, 120
3, 65660, Note_off_c, 1, 60, 100
3, 65664, Note_on_c, 1, 56, 120
3, 65852, Note_off_c, 1, 56, 100
3, 65856, Note_on_c, 1, 53, 120
3, 66044, Note_off_c, 1, 53, 100
3, 66048, Note_on_c, 1, 60, 120
3, 66428, Note_off_c, 1, 60, 100
3, 66432, Note_on_c, 1, 48, 120
3, 66524, Note_off_c, 1, 48, 100
3, 66528, Note_on_c, 1, 47, 120
3, 66620, Note_off_c, 1, 47, 100
3, 66624, Note_on_c, 1, 48, 120
3, 66716, Note_off_c, 1, 48, 100
3, 66720, Note_on_c, 1, 49, 120
3, 66768, Note_on_c, 1, 48, 120
3, 66812, Note_off_c, 1, 49, 100
3, 67148, Note_off_c, 1, 48, 100
3, 67584, Note_on_c, 1, 63, 100
3, 67964, Note_off_c, 1, 63, 100
3, 67968, Note_on_c, 1, 60, 100
3, 68348, Note_off_c, 1, 60, 100
3, 68352, Note_on_c, 1, 56, 100
3, 68732, Note_off_c, 1, 56, 100
3, 68736, Note_on_c, 1, 51, 100
3, 69116, Note_off_c, 1, 51, 100
3, 69120, Note_on_c, 1, 56, 100
3, 69500, Note_off_c, 1, 56, 100
3, 69504, Note_on_c, 1, 51, 100
3, 69884, Note_off_c, 1, 51, 100
3, 69888, Note_on_c, 1, 48, 100
3, 70268, Note_off_c, 1, 48, 100
3, 70272, Note_on_c, 1, 44, 100
3, 70652, Note_off_c, 1, 44, 100
3, 70656, Note_on_c, 1, 39, 70
3, 70656, Note_on_c, 1, 51, 70
3, 72188, Note_off_c, 1, 39, 100
3, 72188, Note_off_c, 1, 51, 100
3, 72192, Note_on_c, 1, 44, 70
3, 72192, Note_on_c, 1, 56, 70
3, 73724, Note_off_c, 1, 44, 100
3, 73724, Note_off_c, 1, 56, 100
3, 73728, Note_on_c, 1, 63, 100
3, 74108, Note_off_c, 1, 63, 100
3, 74112, Note_on_c, 1, 60, 100
3, 74492, Note_off_c, 1, 60, 100
3, 74496, Note_on_c, 1, 56, 100
3, 74876, Note_off_c, 1, 56, 100
3, 74880, Note_on_c, 1, 51, 100
3, 75260, Note_off_c, 1, 51, 100
3, 75264, Note_on_c, 1, 56, 100
3, 75644, Note_off_c, 1, 56, 100
3, 75648, Note_on_c, 1, 51, 100
3, 76028, Note_off_c, 1, 51, 100
3, 76032, Note_on_c, 1, 48, 100
3, 76412, Note_off_c, 1, 48, 100
3, 76416, Note_on_c, 1, 44, 100
3, 76796, Note_off_c, 1, 44, 100
3, 76800, Note_on_c, 1, 39, 70
3, 76800, Note_on_c, 1, 51, 70
3, 78332, Note_off_c, 1, 39, 100
3, 78332, Note_off_c, 1, 51, 100
3, 78336, Note_on_c, 1, 44, 70
3, 78336, Note_on_c, 1, 56, 70
3, 79868, Note_off_c, 1, 44, 100
3, 79868, Note_off_c, 1, 56, 100
3, 79872, Note_on_c, 1, 39, 70
3, 79872, Note_on_c, 1, 51, 70
3, 81404, Note_off_c, 1, 39, 100
3, 81404, Note_off_c, 1, 51, 100
3, 81408, Note_on_c, 1, 44, 70
3, 81408, Note_on_c, 1, 56, 70
3, 82940, Note_off_c, 1, 44, 100
3, 82940, Note_off_c, 1, 56, 100
3, 82944, Note_on_c, 1, 48, 120
3, 83132, Note_off_c, 1, 48, 100
3, 83136, Note_on_c, 1, 56, 120
3, 83324, Note_off_c, 1, 56, 100
3, 83328, Note_on_c, 1, 48, 120
3, 83516, Note_off_c, 1, 48, 100
3, 83520, Note_on_c, 1, 56, 120
3, 83708, Note_off_c, 1, 56, 100
3, 83712, Note_on_c, 1, 48, 120
3, 83900, Note_off_c, 1, 48, 100
3, 83904, Note_on_c, 1, 56, 120
3, 84092, Note_off_c, 1, 56, 100
3, 84096, Note_on_c, 1, 48, 120
3, 84284, Note_off_c, 1, 48, 100
3, 84288, Note_on_c, 1, 56, 120
3, 84476, Note_off_c, 1, 56, 100
3, 84480, Note_on_c, 1, 49, 120
3, 84668, Note_off_c, 1, 49, 100
3, 84672, Note_on_c, 1, 56, 120
3, 84860, Note_off_c, 1, 56, 100
3, 84864, Note_on_c, 1, 49, 120
3, 85052, Note_off_c, 1, 49, 100
3, 85056, Note_on_c, 1, 56, 120
3, 85244, Note_off_c, 1, 56, 100
3, 85248, Note_on_c, 1, 49, 120
3, 85436, Note_off_c, 1, 49, 100
3, 85440, Note_on_c, 1, 56, 120
3, 85628, Note_off_c, 1, 56, 100
3, 85632, Note_on_c, 1, 49, 120
3, 85820, Note_off_c, 1, 49, 100
3, 85824, Note_on_c, 1, 56, 120
3, 86012, Note_off_c, 1, 56, 100
3, 86016, Note_on_c, 1, 51, 120
3, 86780, Note_off_c, 1, 51, 100
3, 86784, Note_on_c, 1, 39, 120
3, 87548, Note_off_c, 1, 39, 100
3, 87552, Note_on_c, 1, 56, 120
3, 87740, Note_off_c, 1, 56, 100
3, 87744, Note_on_c, 1, 56, 120
3, 87932, Note_off_c, 1, 56, 100
3, 87936, Note_on_c, 1, 60, 120
3, 88124, Note_off_c, 1, 60, 100
3, 88128, Note_on_c, 1, 56, 120
3, 88316, Note_off_c, 1, 56, 100
3, 88320, Note_on_c, 1, 53, 120
3, 88508, Note_off_c, 1, 53, 100
3, 88512, Note_on_c, 1, 53, 120
3, 88700, Note_off_c, 1, 53, 100
3, 88704, Note_on_c, 1, 56, 120
3, 88892, Note_off_c, 1, 56, 100
3, 88896, Note_on_c, 1, 53, 120
3, 89084, Note_off_c, 1, 53, 100
3, 89088, Note_on_c, 1, 49, 120
3, 89276, Note_off_c, 1, 49, 100
3, 89280, Note_on_c, 1, 49, 120
3, 89468, Note_off_c, 1, 49, 100
3, 89472, Note_on_c, 1, 53, 120
3, 89660, Note_off_c, 1, 53, 100
3, 89664, Note_on_c, 1, 49, 120
3, 89852, Note_off_c, 1, 49, 100
3, 89856, Note_on_c, 1, 51, 120
3, 90044, Note_off_c, 1, 51, 100
3, 90048, Note_on_c, 1, 51, 120
3, 90236, Note_off_c, 1, 51, 100
3, 90240, Note_on_c, 1, 39, 120
3, 90428, Note_off_c, 1, 39, 100
3, 90432, Note_on_c, 1, 39, 120
3, 90620, Note_off_c, 1, 39, 100
3, 90624, Note_on_c, 1, 44, 120
3, 90624, Note_on_c, 1, 56, 120
3, 90812, Note_off_c, 1, 44, 100
3, 90812, Note_off_c, 1, 56, 100
3, 90816, Note_on_c, 1, 56, 120
3, 91004, Note_off_c, 1, 56, 100
3, 91008, Note_on_c, 1, 60, 120
3, 91196, Note_off_c, 1, 60, 100
3, 91200, Note_on_c, 1, 56, 120
3, 91388, Note_off_c, 1, 56, 100
3, 91392, Note_on_c, 1, 53, 120
3, 91580, Note_off_c, 1, 53, 100
3, 91584, Note_on_c, 1, 53, 120
3, 91772, Note_off_c, 1, 53, 100
3, 91776, Note_on_c, 1, 56, 120
3, 91964, Note_off_c, 1, 56, 100
3, 91968, Note_on_c, 1, 53, 120
3, 92156, Note_off_c, 1, 53, 100
3, 92160, Note_on_c, 1, 49, 120
3, 92348, Note_off_c, 1, 49, 100
3, 92352, Note_on_c, 1, 49, 120
3, 92540, Note_off_c, 1, 49, 100
3, 92544, Note_on_c, 1, 53, 120
3, 92732, Note_off_c, 1, 53, 100
3, 92736, Note_on_c, 1, 49, 120
3, 92924, Note_off_c, 1, 49, 100
3, 92928, Note_on_c, 1, 51, 120
3, 93116, Note_off_c, 1, 51, 100
3, 93120, Note_on_c, 1, 51, 120
3, 93308, Note_off_c, 1, 51, 100
3, 93312, Note_on_c, 1, 39, 120
3, 93500, Note_off_c, 1, 39, 100
3, 93504, Note_on_c, 1, 39, 120
3, 93692, Note_off_c, 1, 39, 100
3, 93696, Note_on_c, 1, 44, 120
3, 94076, Note_off_c, 1, 44, 100
3, 94848, Note_on_c, 1, 39, 120
3, 94848, Note_on_c, 1, 51, 120
3, 95228, Note_off_c, 1, 39, 100
3, 95228, Note_off_c, 1, 51, 100
3, 95232, Note_on_c, 1, 56, 120
3, 95232, Note_on_c, 1, 44, 120
3, 95804, Note_off_c, 1, 56, 100
3, 95804, Note_off_c, 1, 44, 100
3, 96768, Note_on_c, 1, 44, 100
3, 96768, Note_on_c, 1, 56, 100
3, 97532, Note_off_c, 1, 44, 100
3, 97532, Note_off_c, 1, 56, 100
3, 97536, Note_on_c, 1, 56, 100
3, 97724, Note_off_c, 1, 56, 100
3, 97728, Note_on_c, 1, 55, 100
3, 97820, Note_off_c, 1, 55, 100
3, 97824, Note_on_c, 1, 53, 100
3, 97916, Note_off_c, 1, 53, 100
3, 97920, Note_on_c, 1, 51, 100
3, 98012, Note_off_c, 1, 51, 100
3, 98016, Note_on_c, 1, 49, 100
3, 98108, Note_off_c, 1, 49, 100
3, 98112, Note_on_c, 1, 48, 100
3, 98204, Note_off_c, 1, 48, 100
3, 98208, Note_on_c, 1, 46, 100
3, 98300, Note_off_c, 1, 46, 100
3, 98304, Note_on_c, 1, 44, 100
3, 98492, Note_off_c, 1, 44, 100
3, 98496, Note_on_c, 1, 44, 100
3, 98684, Note_off_c, 1, 44, 100
3, 98688, Note_on_c, 1, 44, 100
3, 98876, Note_off_c, 1, 44, 100
3, 98880, Note_on_c, 1, 44, 100
3, 99068, Note_off_c, 1, 44, 100
3, 99072, Note_on_c, 1, 44, 100
3, 99260, Note_off_c, 1, 44, 100
3, 99264, Note_on_c, 1, 44, 100
3, 99452, Note_off_c, 1, 44, 100
3, 99456, Note_on_c, 1, 44, 100
3, 99644, Note_off_c, 1, 44, 100
3, 99648, Note_on_c, 1, 44, 100
3, 99836, Note_off_c, 1, 44, 100
3, 99840, Note_on_c, 1, 44, 100
3, 100028, Note_off_c, 1, 44, 100
3, 100032, Note_on_c, 1, 44, 100
3, 100220, Note_off_c, 1, 44, 100
3, 100224, Note_on_c, 1, 44, 100
3, 100412, Note_off_c, 1, 44, 100
3, 100416, Note_on_c, 1, 44, 100
3, 100604, Note_off_c, 1, 44, 100
3, 100608, Note_on_c, 1, 44, 100
3, 100796, Note_off_c, 1, 44, 100
3, 100800, Note_on_c, 1, 44, 100
3, 100988, Note_off_c, 1, 44, 100
3, 100992, Note_on_c, 1, 44, 100
3, 101180, Note_off_c, 1, 44, 100
3, 101184, Note_on_c, 1, 44, 100
3, 101372, Note_off_c, 1, 44, 100
3, 101376, Note_on_c, 1, 44, 100
3, 101564, Note_off_c, 1, 44, 100
3, 101568, Note_on_c, 1, 44, 100
3, 101756, Note_off_c, 1, 44, 100
3, 101760, Note_on_c, 1, 44, 100
3, 101948, Note_off_c, 1, 44, 100
3, 101952, Note_on_c, 1, 44, 100
3, 102140, Note_off_c, 1, 44, 100
3, 102144, Note_on_c, 1, 44, 100
3, 102332, Note_off_c, 1, 44, 100
3, 102336, Note_on_c, 1, 44, 100
3, 102524, Note_off_c, 1, 44, 100
3, 102528, Note_on_c, 1, 44, 100
3, 102716, Note_off_c, 1, 44, 100
3, 102720, Note_on_c, 1, 44, 100
3, 102908, Note_off_c, 1, 44, 100
3, 102912, Note_on_c, 1, 41, 100
3, 103008, Note_on_c, 1, 53, 100
3, 103100, Note_off_c, 1, 41, 100
3, 103104, Note_on_c, 1, 45, 100
3, 103196, Note_off_c, 1, 53, 100
3, 103200, Note_on_c, 1, 53, 100
3, 103292, Note_off_c, 1, 45, 100
3, 103296, Note_on_c, 1, 48, 100
3, 103388, Note_off_c, 1, 53, 100
3, 103392, Note_on_c, 1, 53, 100
3, 103484, Note_off_c, 1, 48, 100
3, 103488, Note_on_c, 1, 45, 100
3, 103580, Note_off_c, 1, 53, 100
3, 103584, Note_on_c, 1, 53, 100
3, 103676, Note_off_c, 1, 45, 100
3, 103680, Note_on_c, 1, 41, 100
3, 103772, Note_off_c, 1, 53, 100
3, 103776, Note_on_c, 1, 53, 100
3, 103868, Note_off_c, 1, 41, 100
3, 103872, Note_on_c, 1, 45, 100
3, 103964, Note_off_c, 1, 53, 100
3, 103968, Note_on_c, 1, 53, 100
3, 104060, Note_off_c, 1, 45, 100
3, 104064, Note_on_c, 1, 48, 100
3, 104156, Note_off_c, 1, 53, 100
3, 104160, Note_on_c, 1, 53, 100
3, 104252, Note_off_c, 1, 48, 100
3, 104256, Note_on_c, 1, 45, 100
3, 104348, Note_off_c, 1, 53, 100
3, 104352, Note_on_c, 1, 53, 100
3, 104444, Note_off_c, 1, 45, 100
3, 104444, Note_off_c, 1, 53, 100
3, 104448, Note_on_c, 1, 41, 100
3, 104544, Note_on_c, 1, 53, 100
3, 104636, Note_off_c, 1, 41, 100
3, 104640, Note_on_c, 1, 46, 100
3, 104732, Note_off_c, 1, 53, 100
3, 104736, Note_on_c, 1, 53, 100
3, 104828, Note_off_c, 1, 46, 100
3, 104832, Note_on_c, 1, 49, 100
3, 104924, Note_off_c, 1, 53, 100
3, 104928, Note_on_c, 1, 53, 100
3, 105020, Note_off_c, 1, 49, 100
3, 105024, Note_on_c, 1, 46, 100
3, 105116, Note_off_c, 1, 53, 100
3, 105120, Note_on_c, 1, 53, 100
3, 105212, Note_off_c, 1, 46, 100
3, 105216, Note_on_c, 1, 41, 100
3, 105308, Note_off_c, 1, 53, 100
3, 105312, Note_on_c, 1, 53, 100
3, 105404, Note_off_c, 1, 41, 100
3, 105408, Note_on_c, 1, 46, 100
3, 105500, Note_off_c, 1, 53, 100
3, 105504, Note_on_c, 1, 53, 100
3, 105596, Note_off_c, 1, 46, 100
3, 105600, Note_on_c, 1, 49, 100
3, 105692, Note_off_c, 1, 53, 100
3, 105696, Note_on_c, 1, 53, 100
3, 105788, Note_off_c, 1, 49, 100
3, 105792, Note_on_c, 1, 46, 100
3, 105884, Note_off_c, 1, 53, 100
3, 105888, Note_on_c, 1, 53, 100
3, 105980, Note_off_c, 1, 46, 100
3, 105980, Note_off_c, 1, 53, 100
3, 105984, Note_on_c, 1, 41, 100
3, 106080, Note_on_c, 1, 53, 100
3, 106172, Note_off_c, 1, 41, 100
3, 106176, Note_on_c, 1, 45, 100
3, 106268, Note_off_c, 1, 53, 100
3, 106272, Note_on_c, 1, 53, 100
3, 106364, Note_off_c, 1, 45, 100
3, 106368, Note_on_c, 1, 48, 100
3, 106460, Note_off_c, 1, 53, 100
3, 106464, Note_on_c, 1, 53, 100
3, 106556, Note_off_c, 1, 48, 100
3, 106560, Note_on_c, 1, 45, 100
3, 106652, Note_off_c, 1, 53, 100
3, 106656, Note_on_c, 1, 53, 100
3, 106748, Note_off_c, 1, 45, 100
3, 106752, Note_on_c, 1, 41, 100
3, 106844, Note_off_c, 1, 53, 100
3, 106848, Note_on_c, 1, 53, 100
3, 106940, Note_off_c, 1, 41, 100
3, 106944, Note_on_c, 1, 45, 100
3, 107036, Note_off_c, 1, 53, 100
3, 107040, Note_on_c, 1, 53, 100
3, 107132, Note_off_c, 1, 45, 100
3, 107136, Note_on_c, 1, 48, 100
3, 107228, Note_off_c, 1, 53, 100
3, 107232, Note_on_c, 1, 53, 100
3, 107324, Note_off_c, 1, 48, 100
3, 107328, Note_on_c, 1, 45, 100
3, 107420, Note_off_c, 1, 53, 100
3, 107424, Note_on_c, 1, 53, 100
3, 107516, Note_off_c, 1, 45, 100
3, 107516, Note_off_c, 1, 53, 100
3, 107520, Note_on_c, 1, 41, 100
3, 107616, Note_on_c, 1, 53, 100
3, 107708, Note_off_c, 1, 41, 100
3, 107712, Note_on_c, 1, 46, 100
3, 107804, Note_off_c, 1, 53, 100
3, 107808, Note_on_c, 1, 53, 100
3, 107900, Note_off_c, 1, 46, 100
3, 107904, Note_on_c, 1, 49, 100
3, 107996, Note_off_c, 1, 53, 100
3, 108000, Note_on_c, 1, 53, 100
3, 108092, Note_off_c, 1, 49, 100
3, 108096, Note_on_c, 1, 46, 100
3, 108188, Note_off_c, 1, 53, 100
3, 108192, Note_on_c, 1, 53, 100
3, 108284, Note_off_c, 1, 46, 100
3, 108288, Note_on_c, 1, 41, 100
3, 108380, Note_off_c, 1, 53, 100
3, 108384, Note_on_c, 1, 53, 100
3, 108476, Note_off_c, 1, 41, 100
3, 108480, Note_on_c, 1, 46, 100
3, 108572, Note_off_c, 1, 53, 100
3, 108576, Note_on_c, 1, 53, 100
3, 108668, Note_off_c, 1, 46, 100
3, 108672, Note_on_c, 1, 49, 100
3, 108764, Note_off_c, 1, 53, 100
3, 108768, Note_on_c, 1, 53, 100
3, 108860, Note_off_c, 1, 49, 100
3, 108864, Note_on_c, 1, 46, 100
3, 108956, Note_off_c, 1, 53, 100
3, 108960, Note_on_c, 1, 53, 100
3, 109052, Note_off_c, 1, 46, 100
3, 109052, Note_off_c, 1, 53, 100
3, 109056, Note_on_c, 1, 49, 100
3, 109436, Note_off_c, 1, 49, 100
3, 109440, Note_on_c, 1, 49, 100
3, 109820, Note_off_c, 1, 49, 100
3, 109824, Note_on_c, 1, 51, 100
3, 110204, Note_off_c, 1, 51, 100
3, 110208, Note_on_c, 1, 52, 100
3, 110588, Note_off_c, 1, 52, 100
3, 110592, Note_on_c, 1, 41, 100
3, 110592, Note_on_c, 1, 45, 100
3, 110592, Note_on_c, 1, 48, 100
3, 110592, Note_on_c, 1, 53, 100
3, 112124, Note_off_c, 1, 41, 100
3, 112124, Note_off_c, 1, 45, 100
3, 112124, Note_off_c, 1, 48, 100
3, 112124, Note_off_c, 1, 53, 100
3, 112128, Note_on_c, 1, 46, 120
3, 112144, Note_on_c, 1, 49, 120
3, 112160, Note_on_c, 1, 53, 120
3, 112176, Note_on_c, 1, 58, 120
3, 112892, Note_off_c, 1, 46, 100
3, 112892, Note_off_c, 1, 49, 100
3, 112892, Note_off_c, 1, 53, 100
3, 112892, Note_off_c, 1, 58, 100
3, 112896, Note_on_c, 1, 46, 100
3, 112896, Note_on_c, 1, 49, 100
3, 112896, Note_on_c, 1, 58, 100
3, 113180, Note_off_c, 1, 46, 100
3, 113180, Note_off_c, 1, 49, 100
3, 113180, Note_off_c, 1, 58, 100
3, 113184, Note_on_c, 1, 46, 100
3, 113184, Note_on_c, 1, 58, 100
3, 113184, Note_on_c, 1, 49, 100
3, 113276, Note_off_c, 1, 46, 100
3, 113276, Note_off_c, 1, 58, 100
3, 113276, Note_off_c, 1, 49, 100
3, 113280, Note_on_c, 1, 46, 100
3, 113280, Note_on_c, 1, 49, 100
3, 113280, Note_on_c, 1, 58, 100
3, 113660, Note_off_c, 1, 46, 100
3, 113660, Note_off_c, 1, 49, 100
3, 113660, Note_off_c, 1, 58, 100
3, 113664, Note_on_c, 1, 61, 70
3, 113664, Note_on_c, 1, 58, 70
3, 113852, Note_off_c, 1, 61, 100
3, 113856, Note_on_c, 1, 65, 70
3, 114044, Note_off_c, 1, 65, 100
3, 114048, Note_on_c, 1, 65, 70
3, 114236, Note_off_c, 1, 65, 100
3, 114240, Note_on_c, 1, 65, 70
3, 114428, Note_off_c, 1, 65, 100
3, 114432, Note_on_c, 1, 65, 70
3, 114620, Note_off_c, 1, 65, 100
3, 114624, Note_on_c, 1, 63, 70
3, 114812, Note_off_c, 1, 63, 100
3, 114816, Note_on_c, 1, 63, 70
3, 115004, Note_off_c, 1, 63, 100
3, 115008, Note_on_c, 1, 61, 70
3, 115196, Note_off_c, 1, 58, 100
3, 115196, Note_off_c, 1, 61, 100
3, 115200, Note_on_c, 1, 41, 120
3, 115216, Note_on_c, 1, 45, 120
3, 115232, Note_on_c, 1, 48, 120
3, 115248, Note_on_c, 1, 53, 120
3, 115964, Note_off_c, 1, 41, 100
3, 115964, Note_off_c, 1, 45, 100
3, 115964, Note_off_c, 1, 48, 100
3, 115964, Note_off_c, 1, 53, 100
3, 115968, Note_on_c, 1, 41, 100
3, 115968, Note_on_c, 1, 53, 100
3, 116252, Note_off_c, 1, 41, 100
3, 116252, Note_off_c, 1, 53, 100
3, 116256, Note_on_c, 1, 41, 100
3, 116256, Note_on_c, 1, 53, 100
3, 116348, Note_off_c, 1, 41, 100
3, 116348, Note_off_c, 1, 53, 100
3, 116352, Note_on_c, 1, 41, 100
3, 116352, Note_on_c, 1, 53, 100
3, 116732, Note_off_c, 1, 41, 100
3, 116732, Note_off_c, 1, 53, 100
3, 116736, Note_on_c, 1, 57, 70
3, 116736, Note_on_c, 1, 53, 70
3, 116924, Note_off_c, 1, 57, 100
3, 116928, Note_on_c, 1, 60, 70
3, 117116, Note_off_c, 1, 60, 100
3, 117120, Note_on_c, 1, 60, 70
3, 117308, Note_off_c, 1, 60, 100
3, 117312, Note_on_c, 1, 60, 70
3, 117500, Note_off_c, 1, 60, 100
3, 117504, Note_on_c, 1, 60, 70
3, 117692, Note_off_c, 1, 60, 100
3, 117696, Note_on_c, 1, 58, 70
3, 117884, Note_off_c, 1, 58, 100
3, 117888, Note_on_c, 1, 58, 70
3, 118076, Note_off_c, 1, 58, 100
3, 118080, Note_on_c, 1, 57, 70
3, 118268, Note_off_c, 1, 53, 100
3, 118268, Note_off_c, 1, 57, 100
3, 118272, Note_on_c, 1, 46, 120
3, 118272, Note_on_c, 1, 49, 120
3, 118272, Note_on_c, 1, 53, 120
3, 118272, Note_on_c, 1, 58, 120
3, 119804, Note_off_c, 1, 46, 100
3, 119804, Note_off_c, 1, 49, 100
3, 119804, Note_off_c, 1, 53, 100
3, 119804, Note_off_c, 1, 58, 100
3, 119808, Note_on_c, 1, 44, 120
3, 119808, Note_on_c, 1, 50, 120
3, 119808, Note_on_c, 1, 53, 120
3, 119808, Note_on_c, 1, 56, 120
3, 121340, Note_off_c, 1, 44, 100
3, 121340, Note_off_c, 1, 50, 100
3, 121340, Note_off_c, 1, 53, 100
3, 121340, Note_off_c, 1, 56, 100
3, 121344, Note_on_c, 1, 43, 120
3, 121344, Note_on_c, 1, 46, 120
3, 121344, Note_on_c, 1, 51, 120
3, 121344, Note_on_c, 1, 55, 120
3, 122876, Note_off_c, 1, 43, 100
3, 122876, Note_off_c, 1, 46, 100
3, 122876, Note_off_c, 1, 51, 100
3, 122876, Note_off_c, 1, 55, 100
3, 122880, Note_on_c, 1, 40, 120
3, 122880, Note_on_c, 1, 52, 120
3, 124412, Note_off_c, 1, 40, 100
3, 124412, Note_off_c, 1, 52, 100
3, 124416, Note_on_c, 1, 37, 120
3, 124416, Note_on_c, 1, 49, 120
3, 125180, Note_off_c, 1, 37, 100
3, 125180, Note_off_c, 1, 49, 100
3, 125184, Note_on_c, 1, 36, 120
3, 125184, Note_on_c, 1, 48, 120
3, 125948, Note_off_c, 1, 36, 100
3, 125948, Note_off_c, 1, 48, 100
3, 125952, Note_on_c, 1, 36, 120
3, 125952, Note_on_c, 1, 48, 120
3, 127484, Note_off_c, 1, 36, 100
3, 127484, Note_off_c, 1, 48, 100
3, 127488, Note_on_c, 1, 41, 120
3, 127488, Note_on_c, 1, 53, 120
3, 128252, Note_off_c, 1, 41, 100
3, 128252, Note_off_c, 1, 53, 100
3, 128256, Note_on_c, 1, 53, 120
3, 128444, Note_off_c, 1, 53, 100
3, 128448, Note_on_c, 1, 51, 120
3, 128540, Note_off_c, 1, 51, 100
3, 128544, Note_on_c, 1, 49, 120
3, 128636, Note_off_c, 1, 49, 100
3, 128640, Note_on_c, 1, 48, 120
3, 128732, Note_off_c, 1, 48, 100
3, 128736, Note_on_c, 1, 46, 120
3, 128828, Note_off_c, 1, 46, 100
3, 128832, Note_on_c, 1, 44, 120
3, 128924, Note_off_c, 1, 44, 100
3, 128928, Note_on_c, 1, 43, 120
3, 129020, Note_off_c, 1, 43, 100
3, 129024, Note_on_c, 1, 41, 120
3, 129212, Note_off_c, 1, 41, 100
3, 129216, Note_on_c, 1, 41, 120
3, 129404, Note_off_c, 1, 41, 100
3, 129408, Note_on_c, 1, 41, 120
3, 129596, Note_off_c, 1, 41, 100
3, 129600, Note_on_c, 1, 41, 120
3, 129788, Note_off_c, 1, 41, 100
3, 129792, Note_on_c, 1, 41, 120
3, 129980, Note_off_c, 1, 41, 100
3, 129984, Note_on_c, 1, 41, 120
3, 130172, Note_off_c, 1, 41, 100
3, 130176, Note_on_c, 1, 41, 120
3, 130364, Note_off_c, 1, 41, 100
3, 130368, Note_on_c, 1, 41, 120
3, 130556, Note_off_c, 1, 41, 100
3, 130560, Note_on_c, 1, 53, 120
3, 130748, Note_off_c, 1, 53, 100
3, 130752, Note_on_c, 1, 53, 120
3, 130940, Note_off_c, 1, 53, 100
3, 130944, Note_on_c, 1, 53, 120
3, 131132, Note_off_c, 1, 53, 100
3, 131136, Note_on_c, 1, 53, 120
3, 131324, Note_off_c, 1, 53, 100
3, 131328, Note_on_c, 1, 53, 120
3, 131516, Note_off_c, 1, 53, 100
3, 131520, Note_on_c, 1, 53, 120
3, 131708, Note_off_c, 1, 53, 100
3, 131712, Note_on_c, 1, 53, 120
3, 131900, Note_off_c, 1, 53, 100
3, 131904, Note_on_c, 1, 53, 120
3, 132092, Note_off_c, 1, 53, 100
3, 132096, Note_on_c, 1, 65, 120
3, 132668, Note_off_c, 1, 65, 100
3, 132672, Note_on_c, 1, 60, 120
3, 132860, Note_off_c, 1, 60, 100
3, 132864, Note_on_c, 1, 65, 120
3, 133052, Note_off_c, 1, 65, 100
3, 133056, Note_on_c, 1, 63, 120
3, 133244, Note_off_c, 1, 63, 100
3, 133248, Note_on_c, 1, 61, 120
3, 133436, Note_off_c, 1, 61, 100
3, 133440, Note_on_c, 1, 60, 120
3, 133628, Note_off_c, 1, 60, 100
3, 133632, Note_on_c, 1, 61, 120
3, 134204, Note_off_c, 1, 61, 100
3, 134208, Note_on_c, 1, 56, 120
3, 134396, Note_off_c, 1, 56, 100
3, 134400, Note_on_c, 1, 61, 120
3, 134588, Note_off_c, 1, 61, 100
3, 134592, Note_on_c, 1, 60, 120
3, 134780, Note_off_c, 1, 60, 100
3, 134784, Note_on_c, 1, 58, 120
3, 134972, Note_off_c, 1, 58, 100
3, 134976, Note_on_c, 1, 56, 120
3, 135164, Note_off_c, 1, 56, 100
3, 135168, Note_on_c, 1, 58, 120
3, 135740, Note_off_c, 1, 58, 100
3, 135744, Note_on_c, 1, 53, 120
3, 135932, Note_off_c, 1, 53, 100
3, 135936, Note_on_c, 1, 58, 120
3, 136124, Note_off_c, 1, 58, 100
3, 136128, Note_on_c, 1, 56, 120
3, 136316, Note_off_c, 1, 56, 100
3, 136320, Note_on_c, 1, 55, 120
3, 136508, Note_off_c, 1, 55, 100
3, 136512, Note_on_c, 1, 53, 120
3, 136700, Note_off_c, 1, 53, 100
3, 136704, Note_on_c, 1, 60, 120
3, 137084, Note_off_c, 1, 60, 100
3, 137088, Note_on_c, 1, 48, 120
3, 137180, Note_off_c, 1, 48, 100
3, 137184, Note_on_c, 1, 47, 120
3, 137276, Note_off_c, 1, 47, 100
3, 137280, Note_on_c, 1, 48, 120
3, 137372, Note_off_c, 1, 48, 100
3, 137376, Note_on_c, 1, 49, 120
3, 137468, Note_off_c, 1, 49, 100
3, 137472, Note_on_c, 1, 48, 120
3, 137660, Note_off_c, 1, 48, 100
3, 137664, Note_on_c, 1, 60, 120
3, 137852, Note_off_c, 1, 60, 100
3, 137856, Note_on_c, 1, 56, 120
3, 138044, Note_off_c, 1, 56, 100
3, 138048, Note_on_c, 1, 53, 120
3, 138236, Note_off_c, 1, 53, 100
3, 138240, Note_on_c, 1, 60, 120
3, 138620, Note_off_c, 1, 60, 100
3, 138624, Note_on_c, 1, 48, 120
3, 138716, Note_off_c, 1, 48, 100
3, 138720, Note_on_c, 1, 47, 120
3, 138812, Note_off_c, 1, 47, 100
3, 138816, Note_on_c, 1, 48, 120
3, 138908, Note_off_c, 1, 48, 100
3, 138912, Note_on_c, 1, 49, 120
3, 138960, Note_on_c, 1, 48, 120
3, 139004, Note_off_c, 1, 49, 100
3, 139340, Note_off_c, 1, 48, 100
3, 139776, Note_on_c, 1, 60, 100
3, 140156, Note_off_c, 1, 60, 100
3, 140160, Note_on_c, 1, 56, 100
3, 140540, Note_off_c, 1, 56, 100
3, 140544, Note_on_c, 1, 53, 100
3, 140924, Note_off_c, 1, 53, 100
3, 140928, Note_on_c, 1, 48, 100
3, 141308, Note_off_c, 1, 48, 100
3, 141312, Note_on_c, 1, 53, 100
3, 141692, Note_off_c, 1, 53, 100
3, 141696, Note_on_c, 1, 48, 100
3, 142076, Note_off_c, 1, 48, 100
3, 142080, Note_on_c, 1, 44, 100
3, 142460, Note_off_c, 1, 44, 100
3, 142464, Note_on_c, 1, 41, 100
3, 142844, Note_off_c, 1, 41, 100
3, 142848, Note_on_c, 1, 36, 70
3, 142848, Note_on_c, 1, 48, 70
3, 144380, Note_off_c, 1, 36, 100
3, 144380, Note_off_c, 1, 48, 100
3, 144384, Note_on_c, 1, 41, 70
3, 144384, Note_on_c, 1, 53, 70
3, 145916, Note_off_c, 1, 41, 100
3, 145916, Note_off_c, 1, 53, 100
3, 145920, Note_on_c, 1, 60, 100
3, 146300, Note_off_c, 1, 60, 100
3, 146304, Note_on_c, 1, 56, 100
3, 146684, Note_off_c, 1, 56, 100
3, 146688, Note_on_c, 1, 53, 100
3, 147068, Note_off_c, 1, 53, 100
3, 147072, Note_on_c, 1, 48, 100
3, 147452, Note_off_c, 1, 48, 100
3, 147456, Note_on_c, 1, 53, 100
3, 147836, Note_off_c, 1, 53, 100
3, 147840, Note_on_c, 1, 48, 100
3, 148220, Note_off_c, 1, 48, 100
3, 148224, Note_on_c, 1, 44, 100
3, 148604, Note_off_c, 1, 44, 100
3, 148608, Note_on_c, 1, 41, 100
3, 148988, Note_off_c, 1, 41, 100
3, 148992, Note_on_c, 1, 36, 70
3, 148992, Note_on_c, 1, 48, 70
3, 150524, Note_off_c, 1, 36, 100
3, 150524, Note_off_c, 1, 48, 100
3, 150528, Note_on_c, 1, 41, 70
3, 150528, Note_on_c, 1, 53, 70
3, 152060, Note_off_c, 1, 41, 100
3, 152060, Note_off_c, 1, 53, 100
3, 152064, Note_on_c, 1, 48, 70
3, 152064, Note_on_c, 1, 60, 70
3, 153596, Note_off_c, 1, 48, 100
3, 153596, Note_off_c, 1, 60, 100
3, 153600, Note_on_c, 1, 41, 70
3, 153600, Note_on_c, 1, 53, 70
3, 155132, Note_off_c, 1, 41, 100
3, 155132, Note_off_c, 1, 53, 100
3, 155136, Note_on_c, 1, 44, 100
3, 155136, Note_on_c, 1, 56, 100
3, 155516, Note_off_c, 1, 44, 100
3, 155516, Note_off_c, 1, 56, 100
3, 156672, Note_on_c, 1, 46, 100
3, 156860, Note_off_c, 1, 46, 100
3, 156864, Note_on_c, 1, 46, 100
3, 157052, Note_off_c, 1, 46, 100
3, 157056, Note_on_c, 1, 46, 100
3, 157244, Note_off_c, 1, 46, 100
3, 157248, Note_on_c, 1, 46, 100
3, 157436, Note_off_c, 1, 46, 100
3, 157440, Note_on_c, 1, 46, 100
3, 157628, Note_off_c, 1, 46, 100
3, 157632, Note_on_c, 1, 46, 100
3, 157820, Note_off_c, 1, 46, 100
3, 157824, Note_on_c, 1, 46, 100
3, 158012, Note_off_c, 1, 46, 100
3, 158016, Note_on_c, 1, 46, 100
3, 158204, Note_off_c, 1, 46, 100
3, 158208, Note_on_c, 1, 48, 100
3, 158588, Note_off_c, 1, 48, 100
3, 158592, Note_on_c, 1, 48, 100
3, 158972, Note_off_c, 1, 48, 100
3, 158976, Note_on_c, 1, 36, 100
3, 159356, Note_off_c, 1, 36, 100
3, 159360, Note_on_c, 1, 36, 100
3, 159740, Note_off_c, 1, 36, 100
3, 159744, Note_on_c, 1, 41, 100
3, 159744, Note_on_c, 1, 53, 100
3, 159932, Note_off_c, 1, 41, 100
3, 159932, Note_off_c, 1, 53, 100
3, 159936, Note_on_c, 1, 53, 100
3, 160124, Note_off_c, 1, 53, 100
3, 160128, Note_on_c, 1, 56, 100
3, 160316, Note_off_c, 1, 56, 100
3, 160320, Note_on_c, 1, 53, 100
3, 160508, Note_off_c, 1, 53, 100
3, 160512, Note_on_c, 1, 49, 100
3, 160700, Note_off_c, 1, 49, 100
3, 160704, Note_on_c, 1, 49, 100
3, 160892, Note_off_c, 1, 49, 100
3, 160896, Note_on_c, 1, 53, 100
3, 161084, Note_off_c, 1, 53, 100
3, 161088, Note_on_c, 1, 49, 100
3, 161276, Note_off_c, 1, 49, 100
3, 161280, Note_on_c, 1, 46, 100
3, 161468, Note_off_c, 1, 46, 100
3, 161472, Note_on_c, 1, 46, 100
3, 161660, Note_off_c, 1, 46, 100
3, 161664, Note_on_c, 1, 49, 100
3, 161852, Note_off_c, 1, 49, 100
3, 161856, Note_on_c, 1, 46, 100
3, 162044, Note_off_c, 1, 46, 100
3, 162048, Note_on_c, 1, 48, 100
3, 162236, Note_off_c, 1, 48, 100
3, 162240, Note_on_c, 1, 48, 100
3, 162428, Note_off_c, 1, 48, 100
3, 162432, Note_on_c, 1, 36, 100
3, 162620, Note_off_c, 1, 36, 100
3, 162624, Note_on_c, 1, 36, 100
3, 162812, Note_off_c, 1, 36, 100
3, 162816, Note_on_c, 1, 41, 100
3, 162816, Note_on_c, 1, 53, 100
3, 163004, Note_off_c, 1, 41, 100
3, 163004, Note_off_c, 1, 53, 100
3, 163008, Note_on_c, 1, 53, 100
3, 163196, Note_off_c, 1, 53, 100
3, 163200, Note_on_c, 1, 56, 100
3, 163388, Note_off_c, 1, 56, 100
3, 163392, Note_on_c, 1, 53, 100
3, 163580, Note_off_c, 1, 53, 100
3, 163584, Note_on_c, 1, 49, 100
3, 163772, Note_off_c, 1, 49, 100
3, 163776, Note_on_c, 1, 49, 100
3, 163964, Note_off_c, 1, 49, 100
3, 163968, Note_on_c, 1, 53, 100
3, 164156, Note_off_c, 1, 53, 100
3, 164160, Note_on_c, 1, 49, 100
3, 164348, Note_off_c, 1, 49, 100
3, 164352, Note_on_c, 1, 46, 100
3, 164540, Note_off_c, 1, 46, 100
3, 164544, Note_on_c, 1, 46, 100
3, 164732, Note_off_c, 1, 46, 100
3, 164736, Note_on_c, 1, 49, 100
3, 164924, Note_off_c, 1, 49, 100
3, 164928, Note_on_c, 1, 46, 100
3, 165116, Note_off_c, 1, 46, 100
3, 165120, Note_on_c, 1, 48, 100
3, 165308, Note_off_c, 1, 48, 100
3, 165312, Note_on_c, 1, 48, 100
3, 165500, Note_off_c, 1, 48, 100
3, 165504, Note_on_c, 1, 36, 100
3, 165692, Note_off_c, 1, 36, 100
3, 165696, Note_on_c, 1, 36, 100
3, 165884, Note_off_c, 1, 36, 100
3, 165888, Note_on_c, 1, 41, 100
3, 165888, Note_on_c, 1, 53, 100
3, 166268, Note_off_c, 1, 41, 100
3, 166268, Note_off_c, 1, 53, 100
3, 167040, Note_on_c, 1, 48, 100
3, 167420, Note_off_c, 1, 48, 100
3, 167424, Note_on_c, 1, 41, 100
3, 167424, Note_on_c, 1, 53, 100
3, 167804, Note_off_c, 1, 41, 100
3, 167804, Note_off_c, 1, 53, 100
3, 167808, Note_on_c, 1, 41, 100
3, 167808, Note_on_c, 1, 53, 100
3, 168188, Note_off_c, 1, 41, 100
3, 168188, Note_off_c, 1, 53, 100
3, 168192, Note_on_c, 1, 41, 100
3, 168192, Note_on_c, 1, 53, 100
3, 168956, Note_off_c, 1, 41, 100
3, 168956, Note_off_c, 1, 53, 100
3, 168956, End_track
0, 0, End_of_file
