0, 0, Header, 1, 3, 384
1, 0, Start_track
1, 0, Title_t, "L.v.Beethoven 2mov - Kurfursten-Sonatas No.2 in f minor WoO 47-2\000"
1, 0, Copyright_t, "Copyright(C) 1995-2009, Suzuki Software\000"
1, 0, Sequencer_specific, 9, 67, 123, 0, 88, 70, 48, 50, 0, 1
1, 0, Text_t, "XFhd:2009/03/22:JP:Classical::::L.v.Beethoven:::Kaoru Suzuki\000"
1, 0, Text_t, "XFln:JP:\221I\222é\214ò\203\\\203i\203^\221æ2\224Ô\225Ï\203w\222Z\222² WoO 47-2\201`\221æ2\212y\217Í:L.v.\203x\201[\203g\201[\203\224\203F\203\223:::\227é\202¿\202á\202ñ:\227é\202¿\202á\202ñ\000"
1, 0, Time_signature, 2, 2, 96, 8
1, 0, Sequencer_specific, 3, 0, 0, 65
1, 0, Sequencer_specific, 5, 0, 0, 119, 14, 0
1, 0, Tempo, 1666666
1, 2688, Tempo, 1764705
1, 2880, Tempo, 1875000
1, 2976, Tempo, 2000000
1, 3072, Tempo, 1666666
1, 7104, Tempo, 1764705
1, 7296, Tempo, 1875000
1, 7488, Tempo, 1764705
1, 7680, Tempo, 1666666
1, 8640, Tempo, 1764705
1, 9216, Tempo, 1666666
1, 11328, Tempo, 1764705
1, 11520, Tempo, 1666666
1, 13440, Tempo, 1764705
1, 13632, Tempo, 2000000
1, 13824, Tempo, 1666666
1, 16704, Tempo, 1764705
1, 16800, Tempo, 1875000
1, 16848, Tempo, 2000000
1, 16896, Tempo, 1666666
1, 22656, Tempo, 1764705
1, 22848, Tempo, 1875000
1, 22944, Tempo, 2142857
1, 23040, Tempo, 1764705
1, 23424, Tempo, 1875000
1, 23616, Tempo, 2000000
1, 23712, Tempo, 2307692
1, 23808, Tempo, 1666666
1, 25920, Tempo, 1764705
1, 26016, Tempo, 2000000
1, 26112, Tempo, 1764705
1, 26304, Tempo, 1666666
1, 29568, Tempo, 1764705
1, 29952, Tempo, 2000000
1, 30336, Tempo, 1764705
1, 30528, Tempo, 1875000
1, 30720, Tempo, 1666666
1, 38784, Tempo, 1764705
1, 38976, Tempo, 1875000
1, 39072, Tempo, 2000000
1, 39168, Tempo, 1666666
1, 44352, Tempo, 1764705
1, 44448, Tempo, 1875000
1, 44496, Tempo, 2000000
1, 44544, Tempo, 1666666
1, 44928, Tempo, 1764705
1, 45120, Tempo, 1875000
1, 46080, Tempo, 1666666
1, 48960, Tempo, 1764705
1, 49056, Tempo, 1875000
1, 49104, Tempo, 2000000
1, 49152, Tempo, 1666666
1, 55104, Tempo, 1764705
1, 55200, Tempo, 1875000
1, 55488, Tempo, 1764705
1, 58368, Tempo, 1666666
1, 62592, Tempo, 1764705
1, 62784, Tempo, 1875000
1, 62976, Tempo, 1764705
1, 63360, Tempo, 1875000
1, 63552, Tempo, 2000000
1, 63648, Tempo, 2307692
1, 63744, Tempo, 1875000
1, 64128, Tempo, 2142857
1, 64128, End_track
2, 0, Start_track
2, 0, Title_t, "Piano Right"
2, 0, Control_c, 0, 0, 0
2, 0, Program_c, 0, 0
2, 0, Control_c, 0, 7, 100
2, 0, Control_c, 0, 10, 67
2, 0, Control_c, 0, 91, 127
2, 0, Key_signature, -4, "major"
2, 0, Note_on_c, 0, 68, 70
2, 0, Note_on_c, 0, 72, 70
2, 284, Note_off_c, 0, 68, 100
2, 284, Note_off_c, 0, 72, 100
2, 288, Note_on_c, 0, 67, 70
2, 288, Note_on_c, 0, 70, 70
2, 380, Note_off_c, 0, 67, 100
2, 380, Note_off_c, 0, 70, 100
2, 384, Note_on_c, 0, 65, 70
2, 384, Note_on_c, 0, 68, 70
2, 572, Note_off_c, 0, 65, 100
2, 572, Note_off_c, 0, 68, 100
2, 576, Note_on_c, 0, 65, 70
2, 576, Note_on_c, 0, 68, 70
2, 764, Note_off_c, 0, 65, 100
2, 764, Note_off_c, 0, 68, 100
2, 768, Note_on_c, 0, 70, 70
2, 768, Note_on_c, 0, 73, 70
2, 1052, Note_off_c, 0, 70, 100
2, 1052, Note_off_c, 0, 73, 100
2, 1056, Note_on_c, 0, 68, 70
2, 1056, Note_on_c, 0, 72, 70
2, 1148, Note_off_c, 0, 68, 100
2, 1148, Note_off_c, 0, 72, 100
2, 1152, Note_on_c, 0, 67, 70
2, 1152, Note_on_c, 0, 70, 70
2, 1340, Note_off_c, 0, 67, 100
2, 1340, Note_off_c, 0, 70, 100
2, 1344, Note_on_c, 0, 67, 70
2, 1344, Note_on_c, 0, 70, 70
2, 1532, Note_off_c, 0, 67, 100
2, 1532, Note_off_c, 0, 70, 100
2, 1536, Note_on_c, 0, 75, 70
2, 1628, Note_off_c, 0, 75, 100
2, 1632, Note_on_c, 0, 72, 70
2, 1724, Note_off_c, 0, 72, 100
2, 1728, Note_on_c, 0, 77, 70
2, 1820, Note_off_c, 0, 77, 100
2, 1824, Note_on_c, 0, 75, 70
2, 1916, Note_off_c, 0, 75, 100
2, 1920, Note_on_c, 0, 73, 70
2, 2012, Note_off_c, 0, 73, 100
2, 2016, Note_on_c, 0, 72, 70
2, 2108, Note_off_c, 0, 72, 100
2, 2112, Note_on_c, 0, 70, 70
2, 2204, Note_off_c, 0, 70, 100
2, 2208, Note_on_c, 0, 68, 70
2, 2300, Note_off_c, 0, 68, 100
2, 2304, Note_on_c, 0, 68, 70
2, 2396, Note_off_c, 0, 68, 100
2, 2400, Note_on_c, 0, 67, 70
2, 2492, Note_off_c, 0, 67, 100
2, 2496, Note_on_c, 0, 65, 70
2, 2588, Note_off_c, 0, 65, 100
2, 2592, Note_on_c, 0, 63, 70
2, 2684, Note_off_c, 0, 63, 100
2, 2688, Note_on_c, 0, 63, 70
2, 3068, Note_off_c, 0, 63, 100
2, 3072, Note_on_c, 0, 84, 70
2, 3072, Note_on_c, 0, 80, 70
2, 3356, Note_off_c, 0, 84, 100
2, 3356, Note_off_c, 0, 80, 100
2, 3360, Note_on_c, 0, 79, 70
2, 3360, Note_on_c, 0, 82, 70
2, 3452, Note_off_c, 0, 79, 100
2, 3452, Note_off_c, 0, 82, 100
2, 3456, Note_on_c, 0, 79, 70
2, 3456, Note_on_c, 0, 82, 70
2, 3548, Note_off_c, 0, 79, 100
2, 3548, Note_off_c, 0, 82, 100
2, 3552, Note_on_c, 0, 77, 70
2, 3552, Note_on_c, 0, 80, 70
2, 3644, Note_off_c, 0, 77, 100
2, 3644, Note_off_c, 0, 80, 100
2, 3648, Note_on_c, 0, 76, 70
2, 3648, Note_on_c, 0, 79, 70
2, 3740, Note_off_c, 0, 76, 100
2, 3740, Note_off_c, 0, 79, 100
2, 3744, Note_on_c, 0, 77, 70
2, 3744, Note_on_c, 0, 80, 70
2, 3836, Note_off_c, 0, 77, 100
2, 3836, Note_off_c, 0, 80, 100
2, 3840, Note_on_c, 0, 85, 70
2, 3840, Note_on_c, 0, 82, 70
2, 4124, Note_off_c, 0, 85, 100
2, 4124, Note_off_c, 0, 82, 100
2, 4128, Note_on_c, 0, 80, 70
2, 4128, Note_on_c, 0, 84, 70
2, 4220, Note_off_c, 0, 80, 100
2, 4220, Note_off_c, 0, 84, 100
2, 4224, Note_on_c, 0, 80, 70
2, 4224, Note_on_c, 0, 84, 70
2, 4316, Note_off_c, 0, 80, 100
2, 4316, Note_off_c, 0, 84, 100
2, 4320, Note_on_c, 0, 79, 70
2, 4320, Note_on_c, 0, 82, 70
2, 4412, Note_off_c, 0, 79, 100
2, 4412, Note_off_c, 0, 82, 100
2, 4416, Note_on_c, 0, 78, 70
2, 4416, Note_on_c, 0, 81, 70
2, 4508, Note_off_c, 0, 78, 100
2, 4508, Note_off_c, 0, 81, 100
2, 4512, Note_on_c, 0, 79, 70
2, 4512, Note_on_c, 0, 82, 70
2, 4604, Note_off_c, 0, 79, 100
2, 4604, Note_off_c, 0, 82, 100
2, 4608, Note_on_c, 0, 87, 70
2, 4700, Note_off_c, 0, 87, 100
2, 4704, Note_on_c, 0, 84, 70
2, 4796, Note_off_c, 0, 84, 100
2, 4800, Note_on_c, 0, 82, 70
2, 4892, Note_off_c, 0, 82, 100
2, 4896, Note_on_c, 0, 85, 70
2, 4988, Note_off_c, 0, 85, 100
2, 4992, Note_on_c, 0, 84, 70
2, 5084, Note_off_c, 0, 84, 100
2, 5088, Note_on_c, 0, 80, 70
2, 5180, Note_off_c, 0, 80, 100
2, 5184, Note_on_c, 0, 79, 70
2, 5276, Note_off_c, 0, 79, 100
2, 5280, Note_on_c, 0, 82, 70
2, 5372, Note_off_c, 0, 82, 100
2, 5376, Note_on_c, 0, 73, 70
2, 5376, Note_on_c, 0, 82, 70
2, 5756, Note_off_c, 0, 73, 100
2, 5756, Note_off_c, 0, 82, 100
2, 5760, Note_on_c, 0, 72, 70
2, 5760, Note_on_c, 0, 80, 70
2, 5948, Note_off_c, 0, 72, 100
2, 5948, Note_off_c, 0, 80, 100
2, 5952, Note_on_c, 0, 84, 70
2, 5996, Note_off_c, 0, 84, 100
2, 6000, Note_on_c, 0, 80, 76
2, 6044, Note_off_c, 0, 80, 100
2, 6048, Note_on_c, 0, 75, 83
2, 6092, Note_off_c, 0, 75, 100
2, 6096, Note_on_c, 0, 72, 90
2, 6140, Note_off_c, 0, 72, 100
2, 6144, Note_on_c, 0, 72, 100
2, 6144, Note_on_c, 0, 75, 100
2, 6332, Note_off_c, 0, 72, 100
2, 6332, Note_off_c, 0, 75, 100
2, 6336, Note_on_c, 0, 72, 100
2, 6336, Note_on_c, 0, 75, 100
2, 6716, Note_off_c, 0, 72, 100
2, 6716, Note_off_c, 0, 75, 100
2, 6720, Note_on_c, 0, 73, 100
2, 6736, Note_on_c, 0, 75, 100
2, 6748, Note_off_c, 0, 73, 100
2, 6752, Note_on_c, 0, 73, 100
2, 6764, Note_off_c, 0, 75, 100
2, 6768, Note_on_c, 0, 75, 100
2, 6780, Note_off_c, 0, 73, 100
2, 6784, Note_on_c, 0, 73, 100
2, 6796, Note_off_c, 0, 75, 100
2, 6800, Note_on_c, 0, 75, 100
2, 6812, Note_off_c, 0, 73, 100
2, 6816, Note_on_c, 0, 73, 100
2, 6828, Note_off_c, 0, 75, 100
2, 6832, Note_on_c, 0, 75, 100
2, 6844, Note_off_c, 0, 73, 100
2, 6848, Note_on_c, 0, 73, 100
2, 6860, Note_off_c, 0, 75, 100
2, 6864, Note_on_c, 0, 72, 100
2, 6876, Note_off_c, 0, 73, 100
2, 6888, Note_on_c, 0, 73, 100
2, 6908, Note_off_c, 0, 72, 100
2, 6908, Note_off_c, 0, 73, 100
2, 6912, Note_on_c, 0, 70, 100
2, 6912, Note_on_c, 0, 73, 100
2, 7100, Note_off_c, 0, 70, 100
2, 7100, Note_off_c, 0, 73, 100
2, 7104, Note_on_c, 0, 68, 100
2, 7104, Note_on_c, 0, 72, 100
2, 7292, Note_off_c, 0, 68, 100
2, 7292, Note_off_c, 0, 72, 100
2, 7488, Note_on_c, 0, 84, 100
2, 7532, Note_off_c, 0, 84, 100
2, 7536, Note_on_c, 0, 80, 100
2, 7580, Note_off_c, 0, 80, 100
2, 7584, Note_on_c, 0, 75, 100
2, 7628, Note_off_c, 0, 75, 100
2, 7632, Note_on_c, 0, 72, 100
2, 7676, Note_off_c, 0, 72, 100
2, 7680, Note_on_c, 0, 75, 70
2, 7868, Note_off_c, 0, 75, 100
2, 7872, Note_on_c, 0, 63, 70
2, 7872, Note_on_c, 0, 72, 70
2, 8252, Note_off_c, 0, 63, 100
2, 8252, Note_off_c, 0, 72, 100
2, 8256, Note_on_c, 0, 61, 70
2, 8256, Note_on_c, 0, 70, 70
2, 8272, Note_on_c, 0, 72, 70
2, 8284, Note_off_c, 0, 70, 100
2, 8288, Note_on_c, 0, 70, 70
2, 8300, Note_off_c, 0, 72, 100
2, 8304, Note_on_c, 0, 72, 70
2, 8316, Note_off_c, 0, 70, 100
2, 8320, Note_on_c, 0, 70, 70
2, 8332, Note_off_c, 0, 72, 100
2, 8336, Note_on_c, 0, 72, 70
2, 8348, Note_off_c, 0, 70, 100
2, 8352, Note_on_c, 0, 70, 70
2, 8364, Note_off_c, 0, 72, 100
2, 8368, Note_on_c, 0, 72, 70
2, 8380, Note_off_c, 0, 70, 100
2, 8384, Note_on_c, 0, 70, 70
2, 8396, Note_off_c, 0, 72, 100
2, 8400, Note_on_c, 0, 68, 70
2, 8412, Note_off_c, 0, 70, 100
2, 8424, Note_on_c, 0, 70, 70
2, 8444, Note_off_c, 0, 61, 100
2, 8444, Note_off_c, 0, 68, 100
2, 8444, Note_off_c, 0, 70, 100
2, 8448, Note_on_c, 0, 61, 70
2, 8448, Note_on_c, 0, 70, 70
2, 8636, Note_off_c, 0, 61, 100
2, 8636, Note_off_c, 0, 70, 100
2, 8640, Note_on_c, 0, 60, 70
2, 8640, Note_on_c, 0, 68, 70
2, 8828, Note_off_c, 0, 60, 100
2, 8828, Note_off_c, 0, 68, 100
2, 9024, Note_on_c, 0, 63, 70
2, 9024, Note_on_c, 0, 72, 70
2, 9212, Note_off_c, 0, 63, 100
2, 9212, Note_off_c, 0, 72, 100
2, 9216, Note_on_c, 0, 65, 70
2, 9216, Note_on_c, 0, 73, 70
2, 9404, Note_off_c, 0, 65, 100
2, 9404, Note_off_c, 0, 73, 100
2, 9408, Note_on_c, 0, 65, 72
2, 9408, Note_on_c, 0, 73, 72
2, 9596, Note_off_c, 0, 65, 100
2, 9596, Note_off_c, 0, 73, 100
2, 9600, Note_on_c, 0, 65, 75
2, 9600, Note_on_c, 0, 73, 75
2, 9788, Note_off_c, 0, 65, 100
2, 9788, Note_off_c, 0, 73, 100
2, 9792, Note_on_c, 0, 65, 78
2, 9792, Note_on_c, 0, 73, 78
2, 9980, Note_off_c, 0, 65, 100
2, 9980, Note_off_c, 0, 73, 100
2, 9984, Note_on_c, 0, 73, 81
2, 10000, Note_on_c, 0, 75, 81
2, 10012, Note_off_c, 0, 73, 100
2, 10016, Note_on_c, 0, 73, 81
2, 10028, Note_off_c, 0, 75, 100
2, 10032, Note_on_c, 0, 75, 81
2, 10044, Note_off_c, 0, 73, 100
2, 10048, Note_on_c, 0, 73, 82
2, 10060, Note_off_c, 0, 75, 100
2, 10064, Note_on_c, 0, 75, 82
2, 10076, Note_off_c, 0, 73, 100
2, 10080, Note_on_c, 0, 73, 82
2, 10092, Note_off_c, 0, 75, 100
2, 10096, Note_on_c, 0, 75, 82
2, 10108, Note_off_c, 0, 73, 100
2, 10112, Note_on_c, 0, 73, 83
2, 10124, Note_off_c, 0, 75, 100
2, 10128, Note_on_c, 0, 75, 83
2, 10140, Note_off_c, 0, 73, 100
2, 10144, Note_on_c, 0, 73, 83
2, 10156, Note_off_c, 0, 75, 100
2, 10160, Note_on_c, 0, 75, 83
2, 10172, Note_off_c, 0, 73, 100
2, 10176, Note_on_c, 0, 73, 84
2, 10188, Note_off_c, 0, 75, 100
2, 10192, Note_on_c, 0, 75, 84
2, 10204, Note_off_c, 0, 73, 100
2, 10208, Note_on_c, 0, 73, 84
2, 10220, Note_off_c, 0, 75, 100
2, 10224, Note_on_c, 0, 75, 84
2, 10236, Note_off_c, 0, 73, 100
2, 10240, Note_on_c, 0, 73, 85
2, 10252, Note_off_c, 0, 75, 100
2, 10256, Note_on_c, 0, 75, 85
2, 10268, Note_off_c, 0, 73, 100
2, 10272, Note_on_c, 0, 73, 85
2, 10284, Note_off_c, 0, 75, 100
2, 10288, Note_on_c, 0, 75, 85
2, 10300, Note_off_c, 0, 73, 100
2, 10304, Note_on_c, 0, 73, 85
2, 10316, Note_off_c, 0, 75, 100
2, 10320, Note_on_c, 0, 72, 86
2, 10332, Note_off_c, 0, 73, 100
2, 10344, Note_on_c, 0, 73, 86
2, 10364, Note_off_c, 0, 72, 100
2, 10364, Note_off_c, 0, 73, 100
2, 10368, Note_on_c, 0, 63, 86
2, 10368, Note_on_c, 0, 72, 86
2, 10652, Note_off_c, 0, 63, 100
2, 10652, Note_off_c, 0, 72, 100
2, 10656, Note_on_c, 0, 72, 91
2, 10656, Note_on_c, 0, 75, 91
2, 10748, Note_off_c, 0, 72, 100
2, 10748, Note_off_c, 0, 75, 100
2, 10752, Note_on_c, 0, 73, 92
2, 10752, Note_on_c, 0, 77, 92
2, 10940, Note_off_c, 0, 73, 100
2, 10940, Note_off_c, 0, 77, 100
2, 10944, Note_on_c, 0, 73, 95
2, 10944, Note_on_c, 0, 77, 95
2, 11132, Note_off_c, 0, 73, 100
2, 11132, Note_off_c, 0, 77, 100
2, 11136, Note_on_c, 0, 73, 98
2, 11136, Note_on_c, 0, 77, 98
2, 11324, Note_off_c, 0, 73, 100
2, 11324, Note_off_c, 0, 77, 100
2, 11328, Note_on_c, 0, 77, 100
2, 11328, Note_on_c, 0, 73, 100
2, 11516, Note_off_c, 0, 77, 100
2, 11516, Note_off_c, 0, 73, 100
2, 11520, Note_on_c, 0, 77, 100
2, 11536, Note_on_c, 0, 79, 100
2, 11548, Note_off_c, 0, 77, 100
2, 11552, Note_on_c, 0, 77, 100
2, 11564, Note_off_c, 0, 79, 100
2, 11568, Note_on_c, 0, 79, 100
2, 11580, Note_off_c, 0, 77, 100
2, 11584, Note_on_c, 0, 77, 100
2, 11596, Note_off_c, 0, 79, 100
2, 11600, Note_on_c, 0, 79, 100
2, 11612, Note_off_c, 0, 77, 100
2, 11616, Note_on_c, 0, 77, 100
2, 11628, Note_off_c, 0, 79, 100
2, 11632, Note_on_c, 0, 79, 100
2, 11644, Note_off_c, 0, 77, 100
2, 11648, Note_on_c, 0, 77, 100
2, 11660, Note_off_c, 0, 79, 100
2, 11664, Note_on_c, 0, 79, 100
2, 11676, Note_off_c, 0, 77, 100
2, 11680, Note_on_c, 0, 77, 100
2, 11692, Note_off_c, 0, 79, 100
2, 11696, Note_on_c, 0, 79, 100
2, 11708, Note_off_c, 0, 77, 100
2, 11712, Note_on_c, 0, 77, 100
2, 11724, Note_off_c, 0, 79, 100
2, 11728, Note_on_c, 0, 79, 100
2, 11740, Note_off_c, 0, 77, 100
2, 11744, Note_on_c, 0, 77, 100
2, 11756, Note_off_c, 0, 79, 100
2, 11760, Note_on_c, 0, 79, 100
2, 11772, Note_off_c, 0, 77, 100
2, 11776, Note_on_c, 0, 77, 100
2, 11788, Note_off_c, 0, 79, 100
2, 11792, Note_on_c, 0, 79, 100
2, 11804, Note_off_c, 0, 77, 100
2, 11808, Note_on_c, 0, 77, 100
2, 11820, Note_off_c, 0, 79, 100
2, 11824, Note_on_c, 0, 79, 100
2, 11836, Note_off_c, 0, 77, 100
2, 11840, Note_on_c, 0, 77, 100
2, 11852, Note_off_c, 0, 79, 100
2, 11856, Note_on_c, 0, 75, 100
2, 11868, Note_off_c, 0, 77, 100
2, 11880, Note_on_c, 0, 77, 100
2, 11900, Note_off_c, 0, 75, 100
2, 11900, Note_off_c, 0, 77, 100
2, 11904, Note_on_c, 0, 72, 100
2, 11904, Note_on_c, 0, 75, 100
2, 11948, Note_off_c, 0, 72, 100
2, 11948, Note_off_c, 0, 75, 100
2, 11952, Note_on_c, 0, 80, 100
2, 11996, Note_off_c, 0, 80, 100
2, 12000, Note_on_c, 0, 84, 100
2, 12044, Note_off_c, 0, 84, 100
2, 12048, Note_on_c, 0, 80, 100
2, 12092, Note_off_c, 0, 80, 100
2, 12096, Note_on_c, 0, 87, 100
2, 12140, Note_off_c, 0, 87, 100
2, 12144, Note_on_c, 0, 84, 100
2, 12188, Note_off_c, 0, 84, 100
2, 12192, Note_on_c, 0, 80, 100
2, 12236, Note_off_c, 0, 80, 100
2, 12240, Note_on_c, 0, 75, 100
2, 12284, Note_off_c, 0, 75, 100
2, 12288, Note_on_c, 0, 75, 70
2, 12288, Note_on_c, 0, 72, 70
2, 12312, Note_on_c, 0, 77, 70
2, 12332, Note_off_c, 0, 75, 100
2, 12336, Note_on_c, 0, 75, 70
2, 12356, Note_off_c, 0, 77, 100
2, 12380, Note_off_c, 0, 72, 100
2, 12380, Note_off_c, 0, 75, 100
2, 12384, Note_on_c, 0, 73, 70
2, 12384, Note_on_c, 0, 70, 70
2, 12476, Note_off_c, 0, 73, 100
2, 12476, Note_off_c, 0, 70, 100
2, 12480, Note_on_c, 0, 70, 70
2, 12480, Note_on_c, 0, 73, 70
2, 12860, Note_off_c, 0, 70, 100
2, 12860, Note_off_c, 0, 73, 100
2, 12864, Note_on_c, 0, 68, 70
2, 12864, Note_on_c, 0, 72, 70
2, 13052, Note_off_c, 0, 68, 100
2, 13052, Note_off_c, 0, 72, 100
2, 13056, Note_on_c, 0, 68, 70
2, 13056, Note_on_c, 0, 72, 70
2, 13072, Note_on_c, 0, 73, 70
2, 13084, Note_off_c, 0, 72, 100
2, 13088, Note_on_c, 0, 72, 70
2, 13100, Note_off_c, 0, 73, 100
2, 13104, Note_on_c, 0, 73, 70
2, 13116, Note_off_c, 0, 72, 100
2, 13120, Note_on_c, 0, 72, 70
2, 13132, Note_off_c, 0, 73, 100
2, 13136, Note_on_c, 0, 73, 70
2, 13148, Note_off_c, 0, 72, 100
2, 13152, Note_on_c, 0, 72, 70
2, 13164, Note_off_c, 0, 73, 100
2, 13168, Note_on_c, 0, 73, 70
2, 13180, Note_off_c, 0, 72, 100
2, 13184, Note_on_c, 0, 72, 70
2, 13196, Note_off_c, 0, 73, 100
2, 13200, Note_on_c, 0, 73, 70
2, 13212, Note_off_c, 0, 72, 100
2, 13216, Note_on_c, 0, 72, 70
2, 13228, Note_off_c, 0, 73, 100
2, 13232, Note_on_c, 0, 73, 70
2, 13244, Note_off_c, 0, 72, 100
2, 13248, Note_on_c, 0, 72, 70
2, 13260, Note_off_c, 0, 73, 100
2, 13264, Note_on_c, 0, 73, 70
2, 13276, Note_off_c, 0, 72, 100
2, 13280, Note_on_c, 0, 72, 70
2, 13292, Note_off_c, 0, 73, 100
2, 13296, Note_on_c, 0, 73, 70
2, 13308, Note_off_c, 0, 72, 100
2, 13312, Note_on_c, 0, 72, 70
2, 13324, Note_off_c, 0, 73, 100
2, 13328, Note_on_c, 0, 73, 70
2, 13340, Note_off_c, 0, 72, 100
2, 13344, Note_on_c, 0, 72, 70
2, 13356, Note_off_c, 0, 73, 100
2, 13360, Note_on_c, 0, 73, 70
2, 13372, Note_off_c, 0, 72, 100
2, 13376, Note_on_c, 0, 72, 70
2, 13388, Note_off_c, 0, 73, 100
2, 13392, Note_on_c, 0, 70, 70
2, 13404, Note_off_c, 0, 72, 100
2, 13416, Note_on_c, 0, 72, 70
2, 13436, Note_off_c, 0, 68, 100
2, 13436, Note_off_c, 0, 70, 100
2, 13436, Note_off_c, 0, 72, 100
2, 13440, Note_on_c, 0, 67, 70
2, 13440, Note_on_c, 0, 70, 70
2, 13628, Note_off_c, 0, 67, 100
2, 13628, Note_off_c, 0, 70, 100
2, 13632, Note_on_c, 0, 75, 70
2, 13820, Note_off_c, 0, 75, 100
2, 13824, Note_on_c, 0, 74, 100
2, 13868, Note_off_c, 0, 74, 100
2, 13872, Note_on_c, 0, 75, 100
2, 13916, Note_off_c, 0, 75, 100
2, 13920, Note_on_c, 0, 77, 100
2, 13964, Note_off_c, 0, 77, 100
2, 13968, Note_on_c, 0, 75, 100
2, 14012, Note_off_c, 0, 75, 100
2, 14016, Note_on_c, 0, 74, 100
2, 14060, Note_off_c, 0, 74, 100
2, 14064, Note_on_c, 0, 72, 100
2, 14108, Note_off_c, 0, 72, 100
2, 14112, Note_on_c, 0, 70, 100
2, 14156, Note_off_c, 0, 70, 100
2, 14160, Note_on_c, 0, 69, 100
2, 14204, Note_off_c, 0, 69, 100
2, 14208, Note_on_c, 0, 70, 100
2, 14252, Note_off_c, 0, 70, 100
2, 14256, Note_on_c, 0, 74, 100
2, 14300, Note_off_c, 0, 74, 100
2, 14304, Note_on_c, 0, 77, 100
2, 14348, Note_off_c, 0, 77, 100
2, 14352, Note_on_c, 0, 82, 100
2, 14396, Note_off_c, 0, 82, 100
2, 14400, Note_on_c, 0, 89, 100
2, 14444, Note_off_c, 0, 89, 100
2, 14448, Note_on_c, 0, 86, 100
2, 14492, Note_off_c, 0, 86, 100
2, 14496, Note_on_c, 0, 82, 100
2, 14540, Note_off_c, 0, 82, 100
2, 14544, Note_on_c, 0, 80, 100
2, 14588, Note_off_c, 0, 80, 100
2, 14592, Note_on_c, 0, 79, 100
2, 14636, Note_off_c, 0, 79, 100
2, 14640, Note_on_c, 0, 80, 100
2, 14684, Note_off_c, 0, 80, 100
2, 14688, Note_on_c, 0, 82, 100
2, 14700, Note_on_c, 0, 84, 100
2, 14708, Note_off_c, 0, 82, 100
2, 14712, Note_on_c, 0, 82, 100
2, 14720, Note_off_c, 0, 84, 100
2, 14732, Note_off_c, 0, 82, 100
2, 14736, Note_on_c, 0, 80, 100
2, 14780, Note_off_c, 0, 80, 100
2, 14784, Note_on_c, 0, 79, 100
2, 14796, Note_on_c, 0, 80, 100
2, 14804, Note_off_c, 0, 79, 100
2, 14808, Note_on_c, 0, 79, 100
2, 14816, Note_off_c, 0, 80, 100
2, 14828, Note_off_c, 0, 79, 100
2, 14832, Note_on_c, 0, 77, 100
2, 14876, Note_off_c, 0, 77, 100
2, 14880, Note_on_c, 0, 75, 100
2, 14924, Note_off_c, 0, 75, 100
2, 14928, Note_on_c, 0, 74, 100
2, 14972, Note_off_c, 0, 74, 100
2, 14976, Note_on_c, 0, 75, 100
2, 14988, Note_on_c, 0, 77, 100
2, 14996, Note_off_c, 0, 75, 100
2, 15000, Note_on_c, 0, 75, 100
2, 15008, Note_off_c, 0, 77, 100
2, 15020, Note_off_c, 0, 75, 100
2, 15024, Note_on_c, 0, 74, 100
2, 15068, Note_off_c, 0, 74, 100
2, 15072, Note_on_c, 0, 72, 100
2, 15084, Note_on_c, 0, 74, 100
2, 15092, Note_off_c, 0, 72, 100
2, 15096, Note_on_c, 0, 72, 100
2, 15104, Note_off_c, 0, 74, 100
2, 15116, Note_off_c, 0, 72, 100
2, 15120, Note_on_c, 0, 70, 100
2, 15164, Note_off_c, 0, 70, 100
2, 15168, Note_on_c, 0, 68, 100
2, 15180, Note_on_c, 0, 70, 100
2, 15188, Note_off_c, 0, 68, 100
2, 15192, Note_on_c, 0, 68, 100
2, 15200, Note_off_c, 0, 70, 100
2, 15212, Note_off_c, 0, 68, 100
2, 15216, Note_on_c, 0, 67, 100
2, 15260, Note_off_c, 0, 67, 100
2, 15264, Note_on_c, 0, 65, 100
2, 15276, Note_on_c, 0, 67, 100
2, 15284, Note_off_c, 0, 65, 100
2, 15288, Note_on_c, 0, 65, 100
2, 15296, Note_off_c, 0, 67, 100
2, 15308, Note_off_c, 0, 65, 100
2, 15312, Note_on_c, 0, 63, 100
2, 15356, Note_off_c, 0, 63, 100
2, 15360, Note_on_c, 0, 62, 70
2, 15404, Note_off_c, 0, 62, 100
2, 15408, Note_on_c, 0, 65, 70
2, 15452, Note_off_c, 0, 65, 100
2, 15456, Note_on_c, 0, 70, 70
2, 15500, Note_off_c, 0, 70, 100
2, 15504, Note_on_c, 0, 74, 70
2, 15548, Note_off_c, 0, 74, 100
2, 15552, Note_on_c, 0, 77, 70
2, 15596, Note_off_c, 0, 77, 100
2, 15600, Note_on_c, 0, 82, 70
2, 15644, Note_off_c, 0, 82, 100
2, 15648, Note_on_c, 0, 86, 70
2, 15692, Note_off_c, 0, 86, 100
2, 15696, Note_on_c, 0, 87, 70
2, 15740, Note_off_c, 0, 87, 100
2, 15744, Note_on_c, 0, 89, 70
2, 15788, Note_off_c, 0, 89, 100
2, 15792, Note_on_c, 0, 87, 70
2, 15836, Note_off_c, 0, 87, 100
2, 15840, Note_on_c, 0, 86, 70
2, 15884, Note_off_c, 0, 86, 100
2, 15888, Note_on_c, 0, 84, 70
2, 15932, Note_off_c, 0, 84, 100
2, 15936, Note_on_c, 0, 82, 70
2, 15980, Note_off_c, 0, 82, 100
2, 15984, Note_on_c, 0, 80, 70
2, 16028, Note_off_c, 0, 80, 100
2, 16032, Note_on_c, 0, 79, 70
2, 16076, Note_off_c, 0, 79, 100
2, 16080, Note_on_c, 0, 80, 70
2, 16124, Note_off_c, 0, 80, 100
2, 16128, Note_on_c, 0, 79, 70
2, 16172, Note_off_c, 0, 79, 100
2, 16176, Note_on_c, 0, 80, 70
2, 16220, Note_off_c, 0, 80, 100
2, 16224, Note_on_c, 0, 82, 70
2, 16268, Note_off_c, 0, 82, 100
2, 16272, Note_on_c, 0, 80, 70
2, 16316, Note_off_c, 0, 80, 100
2, 16320, Note_on_c, 0, 79, 70
2, 16364, Note_off_c, 0, 79, 100
2, 16368, Note_on_c, 0, 77, 70
2, 16412, Note_off_c, 0, 77, 100
2, 16416, Note_on_c, 0, 75, 70
2, 16460, Note_off_c, 0, 75, 100
2, 16464, Note_on_c, 0, 74, 70
2, 16508, Note_off_c, 0, 74, 100
2, 16512, Note_on_c, 0, 75, 70
2, 16700, Note_off_c, 0, 75, 100
2, 16896, Note_on_c, 0, 72, 100
2, 16988, Note_off_c, 0, 72, 100
2, 16992, Note_on_c, 0, 72, 70
2, 17180, Note_off_c, 0, 72, 100
2, 17184, Note_on_c, 0, 74, 70
2, 17276, Note_off_c, 0, 74, 100
2, 17280, Note_on_c, 0, 70, 100
2, 17280, Note_on_c, 0, 75, 100
2, 17372, Note_off_c, 0, 70, 100
2, 17372, Note_off_c, 0, 75, 100
2, 17376, Note_on_c, 0, 70, 70
2, 17376, Note_on_c, 0, 75, 70
2, 17564, Note_off_c, 0, 75, 100
2, 17568, Note_on_c, 0, 77, 70
2, 17660, Note_off_c, 0, 70, 100
2, 17660, Note_off_c, 0, 77, 100
2, 17664, Note_on_c, 0, 79, 70
2, 17756, Note_off_c, 0, 79, 100
2, 17760, Note_on_c, 0, 70, 70
2, 17760, Note_on_c, 0, 80, 70
2, 17852, Note_off_c, 0, 70, 100
2, 17852, Note_off_c, 0, 80, 100
2, 17856, Note_on_c, 0, 70, 100
2, 17856, Note_on_c, 0, 80, 100
2, 18236, Note_off_c, 0, 70, 100
2, 18236, Note_off_c, 0, 80, 100
2, 18336, Note_on_c, 0, 77, 70
2, 18380, Note_off_c, 0, 77, 100
2, 18384, Note_on_c, 0, 74, 70
2, 18428, Note_off_c, 0, 74, 100
2, 18432, Note_on_c, 0, 79, 70
2, 18524, Note_off_c, 0, 79, 100
2, 18528, Note_on_c, 0, 70, 70
2, 18528, Note_on_c, 0, 80, 70
2, 18620, Note_off_c, 0, 70, 100
2, 18620, Note_off_c, 0, 80, 100
2, 18624, Note_on_c, 0, 70, 100
2, 18624, Note_on_c, 0, 80, 100
2, 19004, Note_off_c, 0, 70, 100
2, 19004, Note_off_c, 0, 80, 100
2, 19104, Note_on_c, 0, 77, 70
2, 19148, Note_off_c, 0, 77, 100
2, 19152, Note_on_c, 0, 74, 70
2, 19196, Note_off_c, 0, 74, 100
2, 19200, Note_on_c, 0, 75, 70
2, 19292, Note_off_c, 0, 75, 100
2, 19296, Note_on_c, 0, 75, 70
2, 19320, Note_on_c, 0, 77, 70
2, 19340, Note_off_c, 0, 75, 100
2, 19344, Note_on_c, 0, 75, 70
2, 19364, Note_off_c, 0, 77, 100
2, 19388, Note_off_c, 0, 75, 100
2, 19392, Note_on_c, 0, 79, 70
2, 19484, Note_off_c, 0, 79, 100
2, 19488, Note_on_c, 0, 67, 70
2, 19488, Note_on_c, 0, 70, 70
2, 19580, Note_off_c, 0, 67, 100
2, 19580, Note_off_c, 0, 70, 100
2, 19584, Note_on_c, 0, 67, 70
2, 19584, Note_on_c, 0, 70, 70
2, 19608, Note_on_c, 0, 72, 70
2, 19628, Note_off_c, 0, 70, 100
2, 19632, Note_on_c, 0, 70, 70
2, 19652, Note_off_c, 0, 72, 100
2, 19676, Note_off_c, 0, 67, 100
2, 19676, Note_off_c, 0, 70, 100
2, 19680, Note_on_c, 0, 65, 70
2, 19680, Note_on_c, 0, 68, 70
2, 19772, Note_off_c, 0, 65, 100
2, 19772, Note_off_c, 0, 68, 100
2, 19776, Note_on_c, 0, 65, 70
2, 19776, Note_on_c, 0, 68, 70
2, 19800, Note_on_c, 0, 70, 70
2, 19820, Note_off_c, 0, 68, 100
2, 19824, Note_on_c, 0, 68, 70
2, 19844, Note_off_c, 0, 70, 100
2, 19868, Note_off_c, 0, 65, 100
2, 19868, Note_off_c, 0, 68, 100
2, 19872, Note_on_c, 0, 63, 70
2, 19872, Note_on_c, 0, 67, 70
2, 19964, Note_off_c, 0, 63, 100
2, 19964, Note_off_c, 0, 67, 100
2, 19968, Note_on_c, 0, 67, 70
2, 19968, Note_on_c, 0, 63, 70
2, 19992, Note_on_c, 0, 68, 70
2, 20012, Note_off_c, 0, 67, 100
2, 20016, Note_on_c, 0, 67, 70
2, 20036, Note_off_c, 0, 68, 100
2, 20156, Note_off_c, 0, 63, 100
2, 20156, Note_off_c, 0, 67, 100
2, 20160, Note_on_c, 0, 62, 70
2, 20160, Note_on_c, 0, 65, 70
2, 20348, Note_off_c, 0, 62, 100
2, 20348, Note_off_c, 0, 65, 100
2, 20640, Note_on_c, 0, 70, 70
2, 20732, Note_off_c, 0, 70, 100
2, 20736, Note_on_c, 0, 67, 70
2, 20736, Note_on_c, 0, 70, 70
2, 20924, Note_off_c, 0, 67, 100
2, 20924, Note_off_c, 0, 70, 100
2, 20928, Note_on_c, 0, 75, 70
2, 21068, Note_off_c, 0, 75, 100
2, 21072, Note_on_c, 0, 67, 70
2, 21072, Note_on_c, 0, 70, 70
2, 21116, Note_off_c, 0, 67, 100
2, 21116, Note_off_c, 0, 70, 100
2, 21120, Note_on_c, 0, 67, 70
2, 21120, Note_on_c, 0, 70, 70
2, 21212, Note_off_c, 0, 67, 100
2, 21212, Note_off_c, 0, 70, 100
2, 21216, Note_on_c, 0, 65, 70
2, 21216, Note_on_c, 0, 68, 70
2, 21308, Note_off_c, 0, 65, 100
2, 21308, Note_off_c, 0, 68, 100
2, 21312, Note_on_c, 0, 63, 70
2, 21312, Note_on_c, 0, 67, 70
2, 21404, Note_off_c, 0, 63, 100
2, 21404, Note_off_c, 0, 67, 100
2, 21408, Note_on_c, 0, 65, 70
2, 21408, Note_on_c, 0, 68, 70
2, 21500, Note_off_c, 0, 65, 100
2, 21500, Note_off_c, 0, 68, 100
2, 21504, Note_on_c, 0, 65, 70
2, 21504, Note_on_c, 0, 68, 70
2, 21692, Note_off_c, 0, 65, 100
2, 21692, Note_off_c, 0, 68, 100
2, 21696, Note_on_c, 0, 63, 70
2, 21696, Note_on_c, 0, 67, 70
2, 21884, Note_off_c, 0, 63, 100
2, 21884, Note_off_c, 0, 67, 100
2, 22176, Note_on_c, 0, 55, 70
2, 22176, Note_on_c, 0, 63, 70
2, 22268, Note_off_c, 0, 55, 100
2, 22268, Note_off_c, 0, 63, 100
2, 22272, Note_on_c, 0, 55, 70
2, 22272, Note_on_c, 0, 63, 70
2, 22296, Note_on_c, 0, 65, 70
2, 22316, Note_off_c, 0, 63, 100
2, 22320, Note_on_c, 0, 63, 70
2, 22340, Note_off_c, 0, 65, 100
2, 22460, Note_off_c, 0, 55, 100
2, 22460, Note_off_c, 0, 63, 100
2, 22464, Note_on_c, 0, 58, 70
2, 22464, Note_on_c, 0, 67, 70
2, 22604, Note_off_c, 0, 58, 100
2, 22604, Note_off_c, 0, 67, 100
2, 22608, Note_on_c, 0, 55, 70
2, 22608, Note_on_c, 0, 63, 70
2, 22652, Note_off_c, 0, 55, 100
2, 22652, Note_off_c, 0, 63, 100
2, 22656, Note_on_c, 0, 58, 70
2, 22656, Note_on_c, 0, 67, 70
2, 22748, Note_off_c, 0, 58, 100
2, 22748, Note_off_c, 0, 67, 100
2, 22752, Note_on_c, 0, 56, 70
2, 22752, Note_on_c, 0, 65, 70
2, 22844, Note_off_c, 0, 56, 100
2, 22844, Note_off_c, 0, 65, 100
2, 22848, Note_on_c, 0, 55, 70
2, 22848, Note_on_c, 0, 63, 70
2, 22940, Note_off_c, 0, 55, 100
2, 22940, Note_off_c, 0, 63, 100
2, 22944, Note_on_c, 0, 56, 70
2, 22944, Note_on_c, 0, 62, 70
2, 23036, Note_off_c, 0, 56, 100
2, 23036, Note_off_c, 0, 62, 100
2, 23040, Note_on_c, 0, 55, 100
2, 23040, Note_on_c, 0, 63, 100
2, 23228, Note_off_c, 0, 55, 100
2, 23228, Note_off_c, 0, 63, 100
2, 23232, Note_on_c, 0, 58, 100
2, 23232, Note_on_c, 0, 65, 100
2, 23324, Note_off_c, 0, 58, 100
2, 23324, Note_off_c, 0, 65, 100
2, 23328, Note_on_c, 0, 58, 100
2, 23328, Note_on_c, 0, 63, 100
2, 23328, Note_on_c, 0, 67, 100
2, 23420, Note_off_c, 0, 58, 100
2, 23420, Note_off_c, 0, 63, 100
2, 23420, Note_off_c, 0, 67, 100
2, 23424, Note_on_c, 0, 60, 100
2, 23424, Note_on_c, 0, 63, 100
2, 23424, Note_on_c, 0, 68, 100
2, 23612, Note_off_c, 0, 60, 100
2, 23612, Note_off_c, 0, 63, 100
2, 23612, Note_off_c, 0, 68, 100
2, 23616, Note_on_c, 0, 63, 100
2, 23616, Note_on_c, 0, 68, 100
2, 23708, Note_off_c, 0, 63, 100
2, 23708, Note_off_c, 0, 68, 100
2, 23712, Note_on_c, 0, 63, 100
2, 23712, Note_on_c, 0, 69, 100
2, 23804, Note_off_c, 0, 63, 100
2, 23804, Note_off_c, 0, 69, 100
2, 23808, Note_on_c, 0, 70, 100
2, 23808, Note_on_c, 0, 62, 100
2, 24188, Note_off_c, 0, 70, 100
2, 24188, Note_off_c, 0, 62, 100
2, 24288, Note_on_c, 0, 62, 70
2, 24288, Note_on_c, 0, 74, 70
2, 24380, Note_off_c, 0, 62, 100
2, 24380, Note_off_c, 0, 74, 100
2, 24384, Note_on_c, 0, 62, 70
2, 24384, Note_on_c, 0, 74, 70
2, 24476, Note_off_c, 0, 62, 100
2, 24476, Note_off_c, 0, 74, 100
2, 24480, Note_on_c, 0, 65, 70
2, 24480, Note_on_c, 0, 77, 70
2, 24572, Note_off_c, 0, 65, 100
2, 24572, Note_off_c, 0, 77, 100
2, 24672, Note_on_c, 0, 63, 70
2, 24672, Note_on_c, 0, 75, 70
2, 24764, Note_off_c, 0, 63, 100
2, 24764, Note_off_c, 0, 75, 100
2, 24768, Note_on_c, 0, 63, 70
2, 24768, Note_on_c, 0, 75, 70
2, 24860, Note_off_c, 0, 63, 100
2, 24860, Note_off_c, 0, 75, 100
2, 24864, Note_on_c, 0, 63, 70
2, 24864, Note_on_c, 0, 70, 70
2, 24956, Note_off_c, 0, 63, 100
2, 24956, Note_off_c, 0, 70, 100
2, 25056, Note_on_c, 0, 63, 70
2, 25056, Note_on_c, 0, 72, 70
2, 25148, Note_off_c, 0, 63, 100
2, 25148, Note_off_c, 0, 72, 100
2, 25152, Note_on_c, 0, 63, 70
2, 25152, Note_on_c, 0, 72, 70
2, 25244, Note_off_c, 0, 63, 100
2, 25244, Note_off_c, 0, 72, 100
2, 25248, Note_on_c, 0, 65, 70
2, 25248, Note_on_c, 0, 68, 70
2, 25340, Note_off_c, 0, 65, 100
2, 25340, Note_off_c, 0, 68, 100
2, 25440, Note_on_c, 0, 63, 70
2, 25440, Note_on_c, 0, 67, 70
2, 25532, Note_off_c, 0, 63, 100
2, 25532, Note_off_c, 0, 67, 100
2, 25536, Note_on_c, 0, 63, 70
2, 25536, Note_on_c, 0, 67, 70
2, 25628, Note_off_c, 0, 63, 100
2, 25628, Note_off_c, 0, 67, 100
2, 25632, Note_on_c, 0, 67, 70
2, 25632, Note_on_c, 0, 70, 70
2, 25724, Note_off_c, 0, 67, 100
2, 25724, Note_off_c, 0, 70, 100
2, 25824, Note_on_c, 0, 65, 70
2, 25824, Note_on_c, 0, 68, 70
2, 25916, Note_off_c, 0, 65, 100
2, 25916, Note_off_c, 0, 68, 100
2, 25920, Note_on_c, 0, 65, 70
2, 25920, Note_on_c, 0, 68, 70
2, 26012, Note_off_c, 0, 65, 100
2, 26012, Note_off_c, 0, 68, 100
2, 26016, Note_on_c, 0, 62, 70
2, 26016, Note_on_c, 0, 65, 70
2, 26108, Note_off_c, 0, 62, 100
2, 26108, Note_off_c, 0, 65, 100
2, 26112, Note_on_c, 0, 63, 90
2, 26204, Note_off_c, 0, 63, 100
2, 26208, Note_on_c, 0, 58, 90
2, 26300, Note_off_c, 0, 58, 100
2, 26304, Note_on_c, 0, 55, 90
2, 26396, Note_off_c, 0, 55, 100
2, 26400, Note_on_c, 0, 58, 90
2, 26492, Note_off_c, 0, 58, 100
2, 26496, Note_on_c, 0, 55, 70
2, 26588, Note_off_c, 0, 55, 100
2, 26592, Note_on_c, 0, 58, 70
2, 26684, Note_off_c, 0, 58, 100
2, 26688, Note_on_c, 0, 63, 70
2, 26688, Note_on_c, 0, 67, 70
2, 26780, Note_off_c, 0, 63, 100
2, 26784, Note_on_c, 0, 58, 70
2, 26876, Note_off_c, 0, 67, 100
2, 26876, Note_off_c, 0, 58, 100
2, 26880, Note_on_c, 0, 65, 90
2, 26880, Note_on_c, 0, 68, 90
2, 26972, Note_off_c, 0, 65, 100
2, 26976, Note_on_c, 0, 58, 90
2, 27068, Note_off_c, 0, 58, 100
2, 27072, Note_on_c, 0, 56, 90
2, 27164, Note_off_c, 0, 56, 100
2, 27168, Note_on_c, 0, 58, 90
2, 27260, Note_off_c, 0, 68, 100
2, 27260, Note_off_c, 0, 58, 100
2, 27264, Note_on_c, 0, 56, 70
2, 27356, Note_off_c, 0, 56, 100
2, 27360, Note_on_c, 0, 58, 70
2, 27452, Note_off_c, 0, 58, 100
2, 27456, Note_on_c, 0, 62, 70
2, 27456, Note_on_c, 0, 65, 70
2, 27548, Note_off_c, 0, 62, 100
2, 27552, Note_on_c, 0, 58, 70
2, 27644, Note_off_c, 0, 65, 100
2, 27644, Note_off_c, 0, 58, 100
2, 27648, Note_on_c, 0, 63, 90
2, 27740, Note_off_c, 0, 63, 100
2, 27744, Note_on_c, 0, 58, 90
2, 27836, Note_off_c, 0, 58, 100
2, 27840, Note_on_c, 0, 55, 90
2, 27932, Note_off_c, 0, 55, 100
2, 27936, Note_on_c, 0, 58, 90
2, 28028, Note_off_c, 0, 58, 100
2, 28032, Note_on_c, 0, 55, 70
2, 28124, Note_off_c, 0, 55, 100
2, 28128, Note_on_c, 0, 58, 70
2, 28220, Note_off_c, 0, 58, 100
2, 28224, Note_on_c, 0, 63, 70
2, 28224, Note_on_c, 0, 67, 70
2, 28316, Note_off_c, 0, 63, 100
2, 28320, Note_on_c, 0, 58, 70
2, 28412, Note_off_c, 0, 67, 100
2, 28412, Note_off_c, 0, 58, 100
2, 28416, Note_on_c, 0, 65, 90
2, 28416, Note_on_c, 0, 68, 90
2, 28508, Note_off_c, 0, 65, 100
2, 28512, Note_on_c, 0, 58, 90
2, 28604, Note_off_c, 0, 58, 100
2, 28608, Note_on_c, 0, 56, 90
2, 28700, Note_off_c, 0, 56, 100
2, 28704, Note_on_c, 0, 58, 90
2, 28796, Note_off_c, 0, 68, 100
2, 28796, Note_off_c, 0, 58, 100
2, 28800, Note_on_c, 0, 56, 70
2, 28892, Note_off_c, 0, 56, 100
2, 28896, Note_on_c, 0, 58, 70
2, 28988, Note_off_c, 0, 58, 100
2, 28992, Note_on_c, 0, 62, 70
2, 28992, Note_on_c, 0, 65, 70
2, 29084, Note_off_c, 0, 62, 100
2, 29088, Note_on_c, 0, 58, 70
2, 29180, Note_off_c, 0, 65, 100
2, 29180, Note_off_c, 0, 58, 100
2, 29184, Note_on_c, 0, 55, 70
2, 29184, Note_on_c, 0, 63, 70
2, 29372, Note_off_c, 0, 55, 100
2, 29372, Note_off_c, 0, 63, 100
2, 29568, Note_on_c, 0, 58, 70
2, 29568, Note_on_c, 0, 67, 70
2, 29756, Note_off_c, 0, 58, 100
2, 29756, Note_off_c, 0, 67, 100
2, 29952, Note_on_c, 0, 55, 70
2, 29952, Note_on_c, 0, 63, 70
2, 30140, Note_off_c, 0, 55, 100
2, 30140, Note_off_c, 0, 63, 100
2, 30336, Note_on_c, 0, 67, 70
2, 30336, Note_on_c, 0, 70, 70
2, 30524, Note_off_c, 0, 67, 100
2, 30524, Note_off_c, 0, 70, 100
2, 30528, Note_on_c, 0, 67, 70
2, 30528, Note_on_c, 0, 70, 70
2, 30716, Note_off_c, 0, 67, 100
2, 30716, Note_off_c, 0, 70, 100
2, 30720, Note_on_c, 0, 64, 70
2, 30720, Note_on_c, 0, 67, 70
2, 31004, Note_off_c, 0, 64, 100
2, 31004, Note_off_c, 0, 67, 100
2, 31008, Note_on_c, 0, 65, 70
2, 31008, Note_on_c, 0, 68, 70
2, 31100, Note_off_c, 0, 65, 100
2, 31100, Note_off_c, 0, 68, 100
2, 31104, Note_on_c, 0, 67, 70
2, 31104, Note_on_c, 0, 70, 70
2, 31292, Note_off_c, 0, 67, 100
2, 31292, Note_off_c, 0, 70, 100
2, 31296, Note_on_c, 0, 67, 70
2, 31296, Note_on_c, 0, 70, 70
2, 31484, Note_off_c, 0, 67, 100
2, 31484, Note_off_c, 0, 70, 100
2, 31488, Note_on_c, 0, 64, 70
2, 31488, Note_on_c, 0, 67, 70
2, 31772, Note_off_c, 0, 64, 100
2, 31772, Note_off_c, 0, 67, 100
2, 31776, Note_on_c, 0, 65, 70
2, 31776, Note_on_c, 0, 68, 70
2, 31868, Note_off_c, 0, 65, 100
2, 31868, Note_off_c, 0, 68, 100
2, 31872, Note_on_c, 0, 67, 70
2, 31872, Note_on_c, 0, 70, 70
2, 32060, Note_off_c, 0, 67, 100
2, 32060, Note_off_c, 0, 70, 100
2, 32064, Note_on_c, 0, 67, 70
2, 32064, Note_on_c, 0, 70, 70
2, 32252, Note_off_c, 0, 67, 100
2, 32252, Note_off_c, 0, 70, 100
2, 32256, Note_on_c, 0, 70, 70
2, 32256, Note_on_c, 0, 73, 70
2, 32348, Note_off_c, 0, 70, 100
2, 32348, Note_off_c, 0, 73, 100
2, 32352, Note_on_c, 0, 68, 70
2, 32352, Note_on_c, 0, 72, 70
2, 32444, Note_off_c, 0, 68, 100
2, 32444, Note_off_c, 0, 72, 100
2, 32448, Note_on_c, 0, 67, 70
2, 32448, Note_on_c, 0, 70, 70
2, 32540, Note_off_c, 0, 67, 100
2, 32540, Note_off_c, 0, 70, 100
2, 32544, Note_on_c, 0, 65, 70
2, 32544, Note_on_c, 0, 68, 70
2, 32636, Note_off_c, 0, 65, 100
2, 32636, Note_off_c, 0, 68, 100
2, 32640, Note_on_c, 0, 67, 70
2, 32640, Note_on_c, 0, 70, 70
2, 32828, Note_off_c, 0, 67, 100
2, 32828, Note_off_c, 0, 70, 100
2, 32832, Note_on_c, 0, 65, 70
2, 32832, Note_on_c, 0, 68, 70
2, 33020, Note_off_c, 0, 65, 100
2, 33020, Note_off_c, 0, 68, 100
2, 33024, Note_on_c, 0, 68, 70
2, 33024, Note_on_c, 0, 65, 70
2, 33048, Note_on_c, 0, 70, 70
2, 33068, Note_off_c, 0, 68, 100
2, 33072, Note_on_c, 0, 68, 70
2, 33092, Note_off_c, 0, 70, 100
2, 33212, Note_off_c, 0, 65, 100
2, 33212, Note_off_c, 0, 68, 100
2, 33216, Note_on_c, 0, 64, 70
2, 33216, Note_on_c, 0, 67, 70
2, 33404, Note_off_c, 0, 64, 100
2, 33404, Note_off_c, 0, 67, 100
2, 33408, Note_on_c, 0, 84, 70
2, 33408, Note_on_c, 0, 80, 70
2, 33596, Note_off_c, 0, 84, 100
2, 33596, Note_off_c, 0, 80, 100
2, 33600, Note_on_c, 0, 80, 70
2, 33600, Note_on_c, 0, 84, 70
2, 33788, Note_off_c, 0, 80, 100
2, 33788, Note_off_c, 0, 84, 100
2, 33792, Note_on_c, 0, 77, 70
2, 33792, Note_on_c, 0, 80, 70
2, 33816, Note_on_c, 0, 82, 70
2, 33836, Note_off_c, 0, 80, 100
2, 33840, Note_on_c, 0, 80, 70
2, 33860, Note_off_c, 0, 82, 100
2, 34076, Note_off_c, 0, 77, 100
2, 34076, Note_off_c, 0, 80, 100
2, 34080, Note_on_c, 0, 79, 70
2, 34080, Note_on_c, 0, 82, 70
2, 34172, Note_off_c, 0, 79, 100
2, 34172, Note_off_c, 0, 82, 100
2, 34176, Note_on_c, 0, 84, 70
2, 34176, Note_on_c, 0, 80, 70
2, 34364, Note_off_c, 0, 84, 100
2, 34364, Note_off_c, 0, 80, 100
2, 34368, Note_on_c, 0, 89, 100
2, 34368, Note_on_c, 0, 80, 100
2, 34556, Note_off_c, 0, 89, 100
2, 34556, Note_off_c, 0, 80, 100
2, 34560, Note_on_c, 0, 89, 100
2, 34560, Note_on_c, 0, 80, 100
2, 34748, Note_off_c, 0, 89, 100
2, 34748, Note_off_c, 0, 80, 100
2, 34752, Note_on_c, 0, 79, 100
2, 34752, Note_on_c, 0, 88, 100
2, 34940, Note_off_c, 0, 79, 100
2, 34940, Note_off_c, 0, 88, 100
2, 34944, Note_on_c, 0, 82, 70
2, 34944, Note_on_c, 0, 79, 70
2, 35132, Note_off_c, 0, 82, 100
2, 35132, Note_off_c, 0, 79, 100
2, 35136, Note_on_c, 0, 82, 70
2, 35136, Note_on_c, 0, 79, 70
2, 35324, Note_off_c, 0, 82, 100
2, 35324, Note_off_c, 0, 79, 100
2, 35328, Note_on_c, 0, 76, 70
2, 35328, Note_on_c, 0, 79, 70
2, 35352, Note_on_c, 0, 80, 70
2, 35372, Note_off_c, 0, 79, 100
2, 35376, Note_on_c, 0, 79, 70
2, 35396, Note_off_c, 0, 80, 100
2, 35612, Note_off_c, 0, 76, 100
2, 35612, Note_off_c, 0, 79, 100
2, 35616, Note_on_c, 0, 77, 70
2, 35616, Note_on_c, 0, 80, 70
2, 35708, Note_off_c, 0, 77, 100
2, 35708, Note_off_c, 0, 80, 100
2, 35712, Note_on_c, 0, 82, 70
2, 35712, Note_on_c, 0, 79, 70
2, 35900, Note_off_c, 0, 82, 100
2, 35900, Note_off_c, 0, 79, 100
2, 35904, Note_on_c, 0, 88, 70
2, 35904, Note_on_c, 0, 79, 70
2, 36092, Note_off_c, 0, 88, 100
2, 36092, Note_off_c, 0, 79, 100
2, 36096, Note_on_c, 0, 88, 100
2, 36096, Note_on_c, 0, 79, 100
2, 36284, Note_off_c, 0, 88, 100
2, 36284, Note_off_c, 0, 79, 100
2, 36288, Note_on_c, 0, 80, 100
2, 36288, Note_on_c, 0, 89, 100
2, 36476, Note_off_c, 0, 80, 100
2, 36476, Note_off_c, 0, 89, 100
2, 36576, Note_on_c, 0, 84, 100
2, 36668, Note_off_c, 0, 84, 100
2, 36672, Note_on_c, 0, 89, 100
2, 36764, Note_off_c, 0, 89, 100
2, 36768, Note_on_c, 0, 84, 100
2, 36860, Note_off_c, 0, 84, 100
2, 36864, Note_on_c, 0, 85, 100
2, 36956, Note_off_c, 0, 85, 100
2, 36960, Note_on_c, 0, 79, 100
2, 36976, Note_on_c, 0, 80, 100
2, 36988, Note_off_c, 0, 79, 100
2, 36992, Note_on_c, 0, 79, 100
2, 37004, Note_off_c, 0, 80, 100
2, 37052, Note_off_c, 0, 79, 100
2, 37056, Note_on_c, 0, 82, 100
2, 37148, Note_off_c, 0, 82, 100
2, 37152, Note_on_c, 0, 76, 100
2, 37244, Note_off_c, 0, 76, 100
2, 37248, Note_on_c, 0, 79, 100
2, 37340, Note_off_c, 0, 79, 100
2, 37344, Note_on_c, 0, 73, 100
2, 37360, Note_on_c, 0, 75, 100
2, 37372, Note_off_c, 0, 73, 100
2, 37376, Note_on_c, 0, 73, 100
2, 37388, Note_off_c, 0, 75, 100
2, 37436, Note_off_c, 0, 73, 100
2, 37440, Note_on_c, 0, 76, 100
2, 37532, Note_off_c, 0, 76, 100
2, 37536, Note_on_c, 0, 70, 100
2, 37628, Note_off_c, 0, 70, 100
2, 37632, Note_on_c, 0, 73, 100
2, 37724, Note_off_c, 0, 73, 100
2, 37728, Note_on_c, 0, 67, 100
2, 37744, Note_on_c, 0, 68, 100
2, 37756, Note_off_c, 0, 67, 100
2, 37760, Note_on_c, 0, 67, 100
2, 37772, Note_off_c, 0, 68, 100
2, 37820, Note_off_c, 0, 67, 100
2, 37824, Note_on_c, 0, 70, 100
2, 37916, Note_off_c, 0, 70, 100
2, 37920, Note_on_c, 0, 64, 100
2, 38012, Note_off_c, 0, 64, 100
2, 38016, Note_on_c, 0, 67, 100
2, 38108, Note_off_c, 0, 67, 100
2, 38112, Note_on_c, 0, 61, 100
2, 38128, Note_on_c, 0, 63, 100
2, 38140, Note_off_c, 0, 61, 100
2, 38144, Note_on_c, 0, 61, 100
2, 38156, Note_off_c, 0, 63, 100
2, 38204, Note_off_c, 0, 61, 100
2, 38208, Note_on_c, 0, 64, 100
2, 38300, Note_off_c, 0, 64, 100
2, 38304, Note_on_c, 0, 70, 100
2, 38396, Note_off_c, 0, 70, 100
2, 38400, Note_on_c, 0, 64, 100
2, 38400, Note_on_c, 0, 73, 100
2, 38492, Note_off_c, 0, 64, 100
2, 38492, Note_off_c, 0, 73, 100
2, 38496, Note_on_c, 0, 64, 100
2, 38496, Note_on_c, 0, 73, 100
2, 38684, Note_off_c, 0, 64, 100
2, 38684, Note_off_c, 0, 73, 100
2, 38688, Note_on_c, 0, 64, 100
2, 38688, Note_on_c, 0, 73, 100
2, 38876, Note_off_c, 0, 64, 100
2, 38876, Note_off_c, 0, 73, 100
2, 38880, Note_on_c, 0, 64, 100
2, 38880, Note_on_c, 0, 73, 100
2, 39068, Note_off_c, 0, 64, 100
2, 39068, Note_off_c, 0, 73, 100
2, 39072, Note_on_c, 0, 64, 100
2, 39072, Note_on_c, 0, 73, 100
2, 39164, Note_off_c, 0, 64, 100
2, 39164, Note_off_c, 0, 73, 100
2, 39168, Note_on_c, 0, 64, 100
2, 39168, Note_on_c, 0, 73, 100
2, 39740, Note_off_c, 0, 64, 100
2, 39740, Note_off_c, 0, 73, 100
2, 39744, Note_on_c, 0, 64, 70
2, 39744, Note_on_c, 0, 73, 70
2, 39932, Note_off_c, 0, 64, 100
2, 39932, Note_off_c, 0, 73, 100
2, 39936, Note_on_c, 0, 65, 70
2, 39936, Note_on_c, 0, 72, 70
2, 39948, Note_on_c, 0, 73, 70
2, 39956, Note_off_c, 0, 72, 100
2, 39960, Note_on_c, 0, 72, 70
2, 39968, Note_off_c, 0, 73, 100
2, 40220, Note_off_c, 0, 65, 100
2, 40220, Note_off_c, 0, 72, 100
2, 40224, Note_on_c, 0, 65, 70
2, 40224, Note_on_c, 0, 73, 70
2, 40316, Note_off_c, 0, 65, 100
2, 40316, Note_off_c, 0, 73, 100
2, 40320, Note_on_c, 0, 65, 70
2, 40320, Note_on_c, 0, 68, 70
2, 40508, Note_off_c, 0, 65, 100
2, 40508, Note_off_c, 0, 68, 100
2, 40512, Note_on_c, 0, 64, 70
2, 40512, Note_on_c, 0, 67, 70
2, 40528, Note_on_c, 0, 68, 70
2, 40540, Note_off_c, 0, 67, 100
2, 40544, Note_on_c, 0, 67, 70
2, 40556, Note_off_c, 0, 68, 100
2, 40560, Note_on_c, 0, 68, 70
2, 40572, Note_off_c, 0, 67, 100
2, 40576, Note_on_c, 0, 67, 70
2, 40588, Note_off_c, 0, 68, 100
2, 40592, Note_on_c, 0, 68, 70
2, 40604, Note_off_c, 0, 67, 100
2, 40608, Note_on_c, 0, 67, 70
2, 40620, Note_off_c, 0, 68, 100
2, 40624, Note_on_c, 0, 68, 70
2, 40636, Note_off_c, 0, 67, 100
2, 40640, Note_on_c, 0, 67, 70
2, 40652, Note_off_c, 0, 68, 100
2, 40656, Note_on_c, 0, 65, 70
2, 40668, Note_off_c, 0, 67, 100
2, 40680, Note_on_c, 0, 67, 70
2, 40700, Note_off_c, 0, 64, 100
2, 40700, Note_off_c, 0, 65, 100
2, 40700, Note_off_c, 0, 67, 100
2, 40704, Note_on_c, 0, 65, 70
2, 40796, Note_off_c, 0, 65, 100
2, 40800, Note_on_c, 0, 65, 70
2, 40812, Note_on_c, 0, 67, 70
2, 40820, Note_off_c, 0, 65, 100
2, 40824, Note_on_c, 0, 65, 70
2, 40832, Note_off_c, 0, 67, 100
2, 40892, Note_off_c, 0, 65, 100
2, 40896, Note_on_c, 0, 69, 70
2, 40988, Note_off_c, 0, 69, 100
2, 40992, Note_on_c, 0, 65, 70
2, 41084, Note_off_c, 0, 65, 100
2, 41088, Note_on_c, 0, 72, 70
2, 41180, Note_off_c, 0, 72, 100
2, 41184, Note_on_c, 0, 69, 70
2, 41276, Note_off_c, 0, 69, 100
2, 41280, Note_on_c, 0, 77, 70
2, 41372, Note_off_c, 0, 77, 100
2, 41376, Note_on_c, 0, 72, 70
2, 41468, Note_off_c, 0, 72, 100
2, 41472, Note_on_c, 0, 81, 70
2, 41516, Note_off_c, 0, 81, 100
2, 41520, Note_on_c, 0, 77, 70
2, 41564, Note_off_c, 0, 77, 100
2, 41568, Note_on_c, 0, 84, 70
2, 41612, Note_off_c, 0, 84, 100
2, 41616, Note_on_c, 0, 82, 70
2, 41660, Note_off_c, 0, 82, 100
2, 41664, Note_on_c, 0, 81, 70
2, 41708, Note_off_c, 0, 81, 100
2, 41712, Note_on_c, 0, 82, 70
2, 41756, Note_off_c, 0, 82, 100
2, 41760, Note_on_c, 0, 81, 70
2, 41804, Note_off_c, 0, 81, 100
2, 41808, Note_on_c, 0, 78, 70
2, 41852, Note_off_c, 0, 78, 100
2, 41856, Note_on_c, 0, 77, 70
2, 41900, Note_off_c, 0, 77, 100
2, 41904, Note_on_c, 0, 78, 70
2, 41948, Note_off_c, 0, 78, 100
2, 41952, Note_on_c, 0, 77, 70
2, 41996, Note_off_c, 0, 77, 100
2, 42000, Note_on_c, 0, 75, 70
2, 42044, Note_off_c, 0, 75, 100
2, 42048, Note_on_c, 0, 73, 70
2, 42092, Note_off_c, 0, 73, 100
2, 42096, Note_on_c, 0, 75, 70
2, 42140, Note_off_c, 0, 75, 100
2, 42144, Note_on_c, 0, 73, 70
2, 42188, Note_off_c, 0, 73, 100
2, 42192, Note_on_c, 0, 72, 70
2, 42236, Note_off_c, 0, 72, 100
2, 42240, Note_on_c, 0, 73, 70
2, 42284, Note_off_c, 0, 73, 100
2, 42288, Note_on_c, 0, 77, 70
2, 42332, Note_off_c, 0, 77, 100
2, 42336, Note_on_c, 0, 75, 70
2, 42380, Note_off_c, 0, 75, 100
2, 42384, Note_on_c, 0, 73, 70
2, 42428, Note_off_c, 0, 73, 100
2, 42432, Note_on_c, 0, 72, 70
2, 42444, Note_on_c, 0, 73, 70
2, 42452, Note_off_c, 0, 72, 100
2, 42456, Note_on_c, 0, 72, 70
2, 42464, Note_off_c, 0, 73, 100
2, 42476, Note_off_c, 0, 72, 100
2, 42480, Note_on_c, 0, 70, 70
2, 42524, Note_off_c, 0, 70, 100
2, 42528, Note_on_c, 0, 69, 70
2, 42572, Note_off_c, 0, 69, 100
2, 42576, Note_on_c, 0, 70, 70
2, 42620, Note_off_c, 0, 70, 100
2, 42624, Note_on_c, 0, 73, 70
2, 42668, Note_off_c, 0, 73, 100
2, 42672, Note_on_c, 0, 77, 70
2, 42716, Note_off_c, 0, 77, 100
2, 42720, Note_on_c, 0, 75, 70
2, 42764, Note_off_c, 0, 75, 100
2, 42768, Note_on_c, 0, 73, 70
2, 42812, Note_off_c, 0, 73, 100
2, 42816, Note_on_c, 0, 72, 70
2, 42828, Note_on_c, 0, 73, 70
2, 42836, Note_off_c, 0, 72, 100
2, 42840, Note_on_c, 0, 72, 70
2, 42848, Note_off_c, 0, 73, 100
2, 42860, Note_off_c, 0, 72, 100
2, 42864, Note_on_c, 0, 70, 70
2, 42908, Note_off_c, 0, 70, 100
2, 42912, Note_on_c, 0, 69, 70
2, 42956, Note_off_c, 0, 69, 100
2, 42960, Note_on_c, 0, 70, 70
2, 43004, Note_off_c, 0, 70, 100
2, 43056, Note_on_c, 0, 70, 70
2, 43100, Note_off_c, 0, 70, 100
2, 43104, Note_on_c, 0, 73, 70
2, 43148, Note_off_c, 0, 73, 100
2, 43152, Note_on_c, 0, 67, 70
2, 43196, Note_off_c, 0, 67, 100
2, 43200, Note_on_c, 0, 79, 70
2, 43244, Note_off_c, 0, 79, 100
2, 43248, Note_on_c, 0, 73, 70
2, 43292, Note_off_c, 0, 73, 100
2, 43296, Note_on_c, 0, 82, 70
2, 43340, Note_off_c, 0, 82, 100
2, 43344, Note_on_c, 0, 79, 70
2, 43388, Note_off_c, 0, 79, 100
2, 43392, Note_on_c, 0, 85, 70
2, 43416, Note_on_c, 0, 84, 70
2, 43436, Note_off_c, 0, 85, 100
2, 43440, Note_on_c, 0, 82, 70
2, 43460, Note_off_c, 0, 84, 100
2, 43464, Note_on_c, 0, 84, 70
2, 43484, Note_off_c, 0, 82, 100
2, 43488, Note_on_c, 0, 82, 70
2, 43508, Note_off_c, 0, 84, 100
2, 43512, Note_on_c, 0, 80, 70
2, 43532, Note_off_c, 0, 82, 100
2, 43536, Note_on_c, 0, 79, 70
2, 43556, Note_off_c, 0, 80, 100
2, 43560, Note_on_c, 0, 80, 70
2, 43580, Note_off_c, 0, 79, 100
2, 43584, Note_on_c, 0, 79, 70
2, 43604, Note_off_c, 0, 80, 100
2, 43608, Note_on_c, 0, 77, 70
2, 43628, Note_off_c, 0, 79, 100
2, 43632, Note_on_c, 0, 75, 70
2, 43652, Note_off_c, 0, 77, 100
2, 43656, Note_on_c, 0, 77, 70
2, 43676, Note_off_c, 0, 75, 100
2, 43680, Note_on_c, 0, 75, 70
2, 43700, Note_off_c, 0, 77, 100
2, 43704, Note_on_c, 0, 73, 70
2, 43724, Note_off_c, 0, 75, 100
2, 43728, Note_on_c, 0, 72, 70
2, 43748, Note_off_c, 0, 73, 100
2, 43752, Note_on_c, 0, 73, 70
2, 43772, Note_off_c, 0, 72, 100
2, 43772, Note_off_c, 0, 73, 100
2, 43776, Note_on_c, 0, 72, 70
2, 43820, Note_off_c, 0, 72, 100
2, 43824, Note_on_c, 0, 75, 70
2, 43868, Note_off_c, 0, 75, 100
2, 43872, Note_on_c, 0, 73, 70
2, 43916, Note_off_c, 0, 73, 100
2, 43920, Note_on_c, 0, 72, 70
2, 43964, Note_off_c, 0, 72, 100
2, 43968, Note_on_c, 0, 70, 70
2, 43980, Note_on_c, 0, 72, 70
2, 43988, Note_off_c, 0, 70, 100
2, 43992, Note_on_c, 0, 70, 70
2, 44000, Note_off_c, 0, 72, 100
2, 44012, Note_off_c, 0, 70, 100
2, 44016, Note_on_c, 0, 68, 70
2, 44060, Note_off_c, 0, 68, 100
2, 44064, Note_on_c, 0, 67, 70
2, 44108, Note_off_c, 0, 67, 100
2, 44112, Note_on_c, 0, 68, 70
2, 44156, Note_off_c, 0, 68, 100
2, 44160, Note_on_c, 0, 72, 70
2, 44204, Note_off_c, 0, 72, 100
2, 44208, Note_on_c, 0, 75, 70
2, 44252, Note_off_c, 0, 75, 100
2, 44256, Note_on_c, 0, 73, 70
2, 44300, Note_off_c, 0, 73, 100
2, 44304, Note_on_c, 0, 72, 70
2, 44348, Note_off_c, 0, 72, 100
2, 44352, Note_on_c, 0, 70, 70
2, 44364, Note_on_c, 0, 72, 70
2, 44372, Note_off_c, 0, 70, 100
2, 44376, Note_on_c, 0, 70, 70
2, 44384, Note_off_c, 0, 72, 100
2, 44396, Note_off_c, 0, 70, 100
2, 44400, Note_on_c, 0, 68, 70
2, 44444, Note_off_c, 0, 68, 100
2, 44448, Note_on_c, 0, 67, 70
2, 44492, Note_off_c, 0, 67, 100
2, 44496, Note_on_c, 0, 68, 70
2, 44540, Note_off_c, 0, 68, 100
2, 44544, Note_on_c, 0, 68, 100
2, 44544, Note_on_c, 0, 77, 100
2, 44636, Note_off_c, 0, 68, 100
2, 44636, Note_off_c, 0, 77, 100
2, 44640, Note_on_c, 0, 68, 70
2, 44640, Note_on_c, 0, 77, 70
2, 44828, Note_off_c, 0, 68, 100
2, 44828, Note_off_c, 0, 77, 100
2, 44832, Note_on_c, 0, 68, 70
2, 44832, Note_on_c, 0, 75, 70
2, 44924, Note_off_c, 0, 68, 100
2, 44924, Note_off_c, 0, 75, 100
2, 44928, Note_on_c, 0, 63, 100
2, 44928, Note_on_c, 0, 67, 100
2, 44928, Note_on_c, 0, 73, 100
2, 45020, Note_off_c, 0, 63, 100
2, 45020, Note_off_c, 0, 67, 100
2, 45020, Note_off_c, 0, 73, 100
2, 45024, Note_on_c, 0, 63, 70
2, 45024, Note_on_c, 0, 67, 70
2, 45024, Note_on_c, 0, 73, 70
2, 45212, Note_off_c, 0, 63, 100
2, 45212, Note_off_c, 0, 67, 100
2, 45212, Note_off_c, 0, 73, 100
2, 45216, Note_on_c, 0, 63, 70
2, 45216, Note_on_c, 0, 68, 70
2, 45216, Note_on_c, 0, 72, 70
2, 45308, Note_off_c, 0, 63, 100
2, 45308, Note_off_c, 0, 68, 100
2, 45308, Note_off_c, 0, 72, 100
2, 45312, Note_on_c, 0, 68, 70
2, 45312, Note_on_c, 0, 72, 70
2, 45328, Note_on_c, 0, 73, 70
2, 45340, Note_off_c, 0, 72, 100
2, 45344, Note_on_c, 0, 72, 70
2, 45356, Note_off_c, 0, 73, 100
2, 45360, Note_on_c, 0, 73, 70
2, 45372, Note_off_c, 0, 72, 100
2, 45376, Note_on_c, 0, 72, 70
2, 45388, Note_off_c, 0, 73, 100
2, 45392, Note_on_c, 0, 73, 70
2, 45404, Note_off_c, 0, 72, 100
2, 45408, Note_on_c, 0, 72, 70
2, 45420, Note_off_c, 0, 73, 100
2, 45424, Note_on_c, 0, 73, 70
2, 45436, Note_off_c, 0, 72, 100
2, 45440, Note_on_c, 0, 72, 70
2, 45452, Note_off_c, 0, 73, 100
2, 45456, Note_on_c, 0, 70, 70
2, 45468, Note_off_c, 0, 72, 100
2, 45480, Note_on_c, 0, 72, 70
2, 45500, Note_off_c, 0, 68, 100
2, 45500, Note_off_c, 0, 70, 100
2, 45500, Note_off_c, 0, 72, 100
2, 45504, Note_on_c, 0, 67, 70
2, 45504, Note_on_c, 0, 70, 70
2, 45692, Note_off_c, 0, 67, 100
2, 45692, Note_off_c, 0, 70, 100
2, 45888, Note_on_c, 0, 75, 70
2, 45932, Note_off_c, 0, 75, 100
2, 45936, Note_on_c, 0, 72, 70
2, 45980, Note_off_c, 0, 72, 100
2, 45984, Note_on_c, 0, 70, 70
2, 46028, Note_off_c, 0, 70, 100
2, 46032, Note_on_c, 0, 68, 70
2, 46076, Note_off_c, 0, 68, 100
2, 46080, Note_on_c, 0, 67, 100
2, 46124, Note_off_c, 0, 67, 100
2, 46128, Note_on_c, 0, 68, 100
2, 46172, Note_off_c, 0, 68, 100
2, 46176, Note_on_c, 0, 70, 100
2, 46220, Note_off_c, 0, 70, 100
2, 46224, Note_on_c, 0, 68, 100
2, 46268, Note_off_c, 0, 68, 100
2, 46272, Note_on_c, 0, 67, 100
2, 46316, Note_off_c, 0, 67, 100
2, 46320, Note_on_c, 0, 65, 100
2, 46364, Note_off_c, 0, 65, 100
2, 46368, Note_on_c, 0, 63, 100
2, 46412, Note_off_c, 0, 63, 100
2, 46416, Note_on_c, 0, 62, 100
2, 46460, Note_off_c, 0, 62, 100
2, 46464, Note_on_c, 0, 63, 100
2, 46508, Note_off_c, 0, 63, 100
2, 46512, Note_on_c, 0, 67, 100
2, 46556, Note_off_c, 0, 67, 100
2, 46560, Note_on_c, 0, 70, 100
2, 46604, Note_off_c, 0, 70, 100
2, 46608, Note_on_c, 0, 73, 100
2, 46652, Note_off_c, 0, 73, 100
2, 46656, Note_on_c, 0, 75, 100
2, 46700, Note_off_c, 0, 75, 100
2, 46704, Note_on_c, 0, 79, 100
2, 46748, Note_off_c, 0, 79, 100
2, 46752, Note_on_c, 0, 82, 100
2, 46796, Note_off_c, 0, 82, 100
2, 46800, Note_on_c, 0, 85, 100
2, 46844, Note_off_c, 0, 85, 100
2, 46848, Note_on_c, 0, 84, 100
2, 46892, Note_off_c, 0, 84, 100
2, 46896, Note_on_c, 0, 85, 100
2, 46940, Note_off_c, 0, 85, 100
2, 46944, Note_on_c, 0, 87, 100
2, 46988, Note_off_c, 0, 87, 100
2, 46992, Note_on_c, 0, 85, 100
2, 47036, Note_off_c, 0, 85, 100
2, 47040, Note_on_c, 0, 84, 100
2, 47084, Note_off_c, 0, 84, 100
2, 47088, Note_on_c, 0, 82, 100
2, 47132, Note_off_c, 0, 82, 100
2, 47136, Note_on_c, 0, 80, 100
2, 47180, Note_off_c, 0, 80, 100
2, 47184, Note_on_c, 0, 79, 100
2, 47228, Note_off_c, 0, 79, 100
2, 47232, Note_on_c, 0, 80, 100
2, 47244, Note_on_c, 0, 82, 100
2, 47252, Note_off_c, 0, 80, 100
2, 47256, Note_on_c, 0, 80, 100
2, 47264, Note_off_c, 0, 82, 100
2, 47276, Note_off_c, 0, 80, 100
2, 47280, Note_on_c, 0, 79, 100
2, 47324, Note_off_c, 0, 79, 100
2, 47328, Note_on_c, 0, 77, 100
2, 47340, Note_on_c, 0, 79, 100
2, 47348, Note_off_c, 0, 77, 100
2, 47352, Note_on_c, 0, 77, 100
2, 47360, Note_off_c, 0, 79, 100
2, 47372, Note_off_c, 0, 77, 100
2, 47376, Note_on_c, 0, 75, 100
2, 47420, Note_off_c, 0, 75, 100
2, 47424, Note_on_c, 0, 75, 100
2, 47424, Note_on_c, 0, 73, 100
2, 47444, Note_off_c, 0, 75, 100
2, 47444, Note_off_c, 0, 73, 100
2, 47448, Note_on_c, 0, 73, 100
2, 47468, Note_off_c, 0, 73, 100
2, 47472, Note_on_c, 0, 72, 100
2, 47516, Note_off_c, 0, 72, 100
2, 47520, Note_on_c, 0, 70, 100
2, 47532, Note_on_c, 0, 72, 100
2, 47540, Note_off_c, 0, 70, 100
2, 47544, Note_on_c, 0, 70, 100
2, 47552, Note_off_c, 0, 72, 100
2, 47564, Note_off_c, 0, 70, 100
2, 47568, Note_on_c, 0, 68, 83
2, 47612, Note_off_c, 0, 68, 100
2, 47616, Note_on_c, 0, 67, 70
2, 47660, Note_off_c, 0, 67, 100
2, 47664, Note_on_c, 0, 70, 70
2, 47708, Note_off_c, 0, 70, 100
2, 47712, Note_on_c, 0, 73, 70
2, 47756, Note_off_c, 0, 73, 100
2, 47760, Note_on_c, 0, 75, 70
2, 47804, Note_off_c, 0, 75, 100
2, 47808, Note_on_c, 0, 79, 70
2, 47852, Note_off_c, 0, 79, 100
2, 47856, Note_on_c, 0, 82, 70
2, 47900, Note_off_c, 0, 82, 100
2, 47904, Note_on_c, 0, 85, 70
2, 47948, Note_off_c, 0, 85, 100
2, 47952, Note_on_c, 0, 87, 70
2, 47996, Note_off_c, 0, 87, 100
2, 48000, Note_on_c, 0, 85, 70
2, 48044, Note_off_c, 0, 85, 100
2, 48048, Note_on_c, 0, 84, 70
2, 48092, Note_off_c, 0, 84, 100
2, 48096, Note_on_c, 0, 82, 70
2, 48140, Note_off_c, 0, 82, 100
2, 48144, Note_on_c, 0, 80, 70
2, 48188, Note_off_c, 0, 80, 100
2, 48192, Note_on_c, 0, 79, 70
2, 48236, Note_off_c, 0, 79, 100
2, 48240, Note_on_c, 0, 77, 70
2, 48284, Note_off_c, 0, 77, 100
2, 48288, Note_on_c, 0, 75, 70
2, 48332, Note_off_c, 0, 75, 100
2, 48336, Note_on_c, 0, 73, 70
2, 48380, Note_off_c, 0, 73, 100
2, 48384, Note_on_c, 0, 72, 70
2, 48428, Note_off_c, 0, 72, 100
2, 48432, Note_on_c, 0, 73, 70
2, 48476, Note_off_c, 0, 73, 100
2, 48480, Note_on_c, 0, 75, 70
2, 48524, Note_off_c, 0, 75, 100
2, 48528, Note_on_c, 0, 73, 70
2, 48572, Note_off_c, 0, 73, 100
2, 48576, Note_on_c, 0, 72, 70
2, 48620, Note_off_c, 0, 72, 100
2, 48624, Note_on_c, 0, 70, 70
2, 48668, Note_off_c, 0, 70, 100
2, 48672, Note_on_c, 0, 68, 70
2, 48716, Note_off_c, 0, 68, 100
2, 48720, Note_on_c, 0, 67, 70
2, 48764, Note_off_c, 0, 67, 100
2, 48768, Note_on_c, 0, 68, 70
2, 49148, Note_off_c, 0, 68, 100
2, 49152, Note_on_c, 0, 77, 70
2, 49244, Note_off_c, 0, 77, 100
2, 49248, Note_on_c, 0, 77, 100
2, 49436, Note_off_c, 0, 77, 100
2, 49440, Note_on_c, 0, 79, 70
2, 49532, Note_off_c, 0, 79, 100
2, 49536, Note_on_c, 0, 75, 70
2, 49536, Note_on_c, 0, 80, 70
2, 49628, Note_off_c, 0, 75, 100
2, 49628, Note_off_c, 0, 80, 100
2, 49632, Note_on_c, 0, 80, 100
2, 49632, Note_on_c, 0, 75, 100
2, 49820, Note_off_c, 0, 80, 100
2, 49820, Note_off_c, 0, 75, 100
2, 49824, Note_on_c, 0, 82, 70
2, 49916, Note_off_c, 0, 82, 100
2, 49920, Note_on_c, 0, 84, 70
2, 50012, Note_off_c, 0, 84, 100
2, 50016, Note_on_c, 0, 75, 70
2, 50016, Note_on_c, 0, 85, 70
2, 50108, Note_off_c, 0, 75, 100
2, 50108, Note_off_c, 0, 85, 100
2, 50112, Note_on_c, 0, 85, 100
2, 50112, Note_on_c, 0, 75, 100
2, 50492, Note_off_c, 0, 85, 100
2, 50492, Note_off_c, 0, 75, 100
2, 50592, Note_on_c, 0, 82, 70
2, 50636, Note_off_c, 0, 82, 100
2, 50640, Note_on_c, 0, 79, 70
2, 50684, Note_off_c, 0, 79, 100
2, 50688, Note_on_c, 0, 84, 70
2, 50780, Note_off_c, 0, 84, 100
2, 50784, Note_on_c, 0, 75, 70
2, 50784, Note_on_c, 0, 85, 70
2, 50876, Note_off_c, 0, 75, 100
2, 50876, Note_off_c, 0, 85, 100
2, 50880, Note_on_c, 0, 85, 100
2, 50880, Note_on_c, 0, 75, 100
2, 51260, Note_off_c, 0, 85, 100
2, 51260, Note_off_c, 0, 75, 100
2, 51360, Note_on_c, 0, 82, 70
2, 51404, Note_off_c, 0, 82, 100
2, 51408, Note_on_c, 0, 79, 70
2, 51452, Note_off_c, 0, 79, 100
2, 51456, Note_on_c, 0, 80, 70
2, 51500, Note_off_c, 0, 80, 100
2, 51504, Note_on_c, 0, 75, 70
2, 51548, Note_off_c, 0, 75, 100
2, 51552, Note_on_c, 0, 84, 70
2, 51596, Note_off_c, 0, 84, 100
2, 51600, Note_on_c, 0, 80, 70
2, 51644, Note_off_c, 0, 80, 100
2, 51648, Note_on_c, 0, 87, 70
2, 51692, Note_off_c, 0, 87, 100
2, 51696, Note_on_c, 0, 84, 70
2, 51740, Note_off_c, 0, 84, 100
2, 51744, Note_on_c, 0, 80, 70
2, 51788, Note_off_c, 0, 80, 100
2, 51792, Note_on_c, 0, 75, 70
2, 51836, Note_off_c, 0, 75, 100
2, 51840, Note_on_c, 0, 75, 70
2, 51852, Note_on_c, 0, 77, 70
2, 51860, Note_off_c, 0, 75, 100
2, 51864, Note_on_c, 0, 75, 70
2, 51872, Note_off_c, 0, 77, 100
2, 51932, Note_off_c, 0, 75, 100
2, 51936, Note_on_c, 0, 70, 70
2, 51936, Note_on_c, 0, 73, 70
2, 52028, Note_off_c, 0, 70, 100
2, 52028, Note_off_c, 0, 73, 100
2, 52032, Note_on_c, 0, 73, 70
2, 52044, Note_on_c, 0, 75, 70
2, 52052, Note_off_c, 0, 73, 100
2, 52056, Note_on_c, 0, 73, 70
2, 52064, Note_off_c, 0, 75, 100
2, 52124, Note_off_c, 0, 73, 100
2, 52128, Note_on_c, 0, 68, 70
2, 52128, Note_on_c, 0, 72, 70
2, 52220, Note_off_c, 0, 68, 100
2, 52220, Note_off_c, 0, 72, 100
2, 52224, Note_on_c, 0, 68, 70
2, 52224, Note_on_c, 0, 72, 70
2, 52236, Note_on_c, 0, 73, 70
2, 52244, Note_off_c, 0, 72, 100
2, 52248, Note_on_c, 0, 72, 70
2, 52256, Note_off_c, 0, 73, 100
2, 52412, Note_off_c, 0, 68, 100
2, 52412, Note_off_c, 0, 72, 100
2, 52416, Note_on_c, 0, 67, 70
2, 52416, Note_on_c, 0, 70, 70
2, 52604, Note_off_c, 0, 67, 100
2, 52604, Note_off_c, 0, 70, 100
2, 52896, Note_on_c, 0, 75, 70
2, 52988, Note_off_c, 0, 75, 100
2, 52992, Note_on_c, 0, 72, 70
2, 52992, Note_on_c, 0, 75, 70
2, 53004, Note_on_c, 0, 77, 70
2, 53012, Note_off_c, 0, 75, 100
2, 53016, Note_on_c, 0, 75, 70
2, 53024, Note_off_c, 0, 77, 100
2, 53180, Note_off_c, 0, 72, 100
2, 53180, Note_off_c, 0, 75, 100
2, 53184, Note_on_c, 0, 80, 70
2, 53324, Note_off_c, 0, 80, 100
2, 53328, Note_on_c, 0, 72, 70
2, 53328, Note_on_c, 0, 75, 70
2, 53372, Note_off_c, 0, 72, 100
2, 53372, Note_off_c, 0, 75, 100
2, 53376, Note_on_c, 0, 72, 70
2, 53376, Note_on_c, 0, 75, 70
2, 53468, Note_off_c, 0, 72, 100
2, 53468, Note_off_c, 0, 75, 100
2, 53472, Note_on_c, 0, 70, 70
2, 53472, Note_on_c, 0, 73, 70
2, 53564, Note_off_c, 0, 70, 100
2, 53564, Note_off_c, 0, 73, 100
2, 53568, Note_on_c, 0, 68, 70
2, 53568, Note_on_c, 0, 72, 70
2, 53660, Note_off_c, 0, 68, 100
2, 53660, Note_off_c, 0, 72, 100
2, 53664, Note_on_c, 0, 70, 70
2, 53664, Note_on_c, 0, 73, 70
2, 53756, Note_off_c, 0, 70, 100
2, 53756, Note_off_c, 0, 73, 100
2, 53760, Note_on_c, 0, 70, 70
2, 53760, Note_on_c, 0, 73, 70
2, 53948, Note_off_c, 0, 70, 100
2, 53948, Note_off_c, 0, 73, 100
2, 53952, Note_on_c, 0, 68, 70
2, 53952, Note_on_c, 0, 72, 70
2, 54140, Note_off_c, 0, 68, 100
2, 54140, Note_off_c, 0, 72, 100
2, 54432, Note_on_c, 0, 60, 70
2, 54432, Note_on_c, 0, 68, 70
2, 54524, Note_off_c, 0, 60, 100
2, 54524, Note_off_c, 0, 68, 100
2, 54528, Note_on_c, 0, 60, 70
2, 54528, Note_on_c, 0, 68, 70
2, 54716, Note_off_c, 0, 60, 100
2, 54716, Note_off_c, 0, 68, 100
2, 54720, Note_on_c, 0, 63, 70
2, 54720, Note_on_c, 0, 72, 70
2, 54860, Note_off_c, 0, 63, 100
2, 54860, Note_off_c, 0, 72, 100
2, 54864, Note_on_c, 0, 60, 70
2, 54864, Note_on_c, 0, 68, 70
2, 54908, Note_off_c, 0, 60, 100
2, 54908, Note_off_c, 0, 68, 100
2, 54912, Note_on_c, 0, 63, 70
2, 54912, Note_on_c, 0, 72, 70
2, 55004, Note_off_c, 0, 63, 100
2, 55004, Note_off_c, 0, 72, 100
2, 55008, Note_on_c, 0, 61, 70
2, 55008, Note_on_c, 0, 70, 70
2, 55100, Note_off_c, 0, 61, 100
2, 55100, Note_off_c, 0, 70, 100
2, 55104, Note_on_c, 0, 60, 70
2, 55104, Note_on_c, 0, 68, 70
2, 55196, Note_off_c, 0, 60, 100
2, 55196, Note_off_c, 0, 68, 100
2, 55200, Note_on_c, 0, 61, 70
2, 55200, Note_on_c, 0, 67, 70
2, 55292, Note_off_c, 0, 61, 100
2, 55292, Note_off_c, 0, 67, 100
2, 55296, Note_on_c, 0, 60, 100
2, 55296, Note_on_c, 0, 63, 100
2, 55296, Note_on_c, 0, 68, 100
2, 55484, Note_off_c, 0, 60, 100
2, 55484, Note_off_c, 0, 63, 100
2, 55484, Note_off_c, 0, 68, 100
2, 55488, Note_on_c, 0, 63, 100
2, 55488, Note_on_c, 0, 70, 100
2, 55580, Note_off_c, 0, 63, 100
2, 55580, Note_off_c, 0, 70, 100
2, 55584, Note_on_c, 0, 68, 100
2, 55584, Note_on_c, 0, 63, 100
2, 55584, Note_on_c, 0, 72, 100
2, 55676, Note_off_c, 0, 68, 100
2, 55676, Note_off_c, 0, 63, 100
2, 55676, Note_off_c, 0, 72, 100
2, 55680, Note_on_c, 0, 65, 100
2, 55680, Note_on_c, 0, 68, 100
2, 55680, Note_on_c, 0, 73, 100
2, 55868, Note_off_c, 0, 65, 100
2, 55868, Note_off_c, 0, 68, 100
2, 55868, Note_off_c, 0, 73, 100
2, 55872, Note_on_c, 0, 68, 100
2, 55872, Note_on_c, 0, 73, 100
2, 55964, Note_off_c, 0, 68, 100
2, 55964, Note_off_c, 0, 73, 100
2, 55968, Note_on_c, 0, 68, 100
2, 55968, Note_on_c, 0, 74, 100
2, 56060, Note_off_c, 0, 68, 100
2, 56060, Note_off_c, 0, 74, 100
2, 56064, Note_on_c, 0, 67, 100
2, 56064, Note_on_c, 0, 75, 100
2, 56444, Note_off_c, 0, 67, 100
2, 56444, Note_off_c, 0, 75, 100
2, 56544, Note_on_c, 0, 67, 70
2, 56544, Note_on_c, 0, 79, 70
2, 56636, Note_off_c, 0, 67, 100
2, 56636, Note_off_c, 0, 79, 100
2, 56640, Note_on_c, 0, 67, 70
2, 56640, Note_on_c, 0, 79, 70
2, 56732, Note_off_c, 0, 67, 100
2, 56732, Note_off_c, 0, 79, 100
2, 56736, Note_on_c, 0, 70, 70
2, 56736, Note_on_c, 0, 82, 70
2, 56828, Note_off_c, 0, 70, 100
2, 56828, Note_off_c, 0, 82, 100
2, 56928, Note_on_c, 0, 68, 70
2, 56928, Note_on_c, 0, 80, 70
2, 57020, Note_off_c, 0, 68, 100
2, 57020, Note_off_c, 0, 80, 100
2, 57024, Note_on_c, 0, 68, 70
2, 57024, Note_on_c, 0, 80, 70
2, 57116, Note_off_c, 0, 68, 100
2, 57116, Note_off_c, 0, 80, 100
2, 57120, Note_on_c, 0, 68, 70
2, 57120, Note_on_c, 0, 75, 70
2, 57212, Note_off_c, 0, 68, 100
2, 57212, Note_off_c, 0, 75, 100
2, 57312, Note_on_c, 0, 68, 70
2, 57312, Note_on_c, 0, 77, 70
2, 57404, Note_off_c, 0, 68, 100
2, 57404, Note_off_c, 0, 77, 100
2, 57408, Note_on_c, 0, 68, 70
2, 57408, Note_on_c, 0, 77, 70
2, 57500, Note_off_c, 0, 68, 100
2, 57500, Note_off_c, 0, 77, 100
2, 57504, Note_on_c, 0, 70, 70
2, 57504, Note_on_c, 0, 73, 70
2, 57596, Note_off_c, 0, 70, 100
2, 57596, Note_off_c, 0, 73, 100
2, 57696, Note_on_c, 0, 68, 70
2, 57696, Note_on_c, 0, 72, 70
2, 57788, Note_off_c, 0, 68, 100
2, 57788, Note_off_c, 0, 72, 100
2, 57792, Note_on_c, 0, 68, 70
2, 57792, Note_on_c, 0, 72, 70
2, 57884, Note_off_c, 0, 68, 100
2, 57884, Note_off_c, 0, 72, 100
2, 57888, Note_on_c, 0, 72, 70
2, 57888, Note_on_c, 0, 75, 70
2, 57980, Note_off_c, 0, 72, 100
2, 57980, Note_off_c, 0, 75, 100
2, 58080, Note_on_c, 0, 70, 70
2, 58080, Note_on_c, 0, 73, 70
2, 58172, Note_off_c, 0, 70, 100
2, 58172, Note_off_c, 0, 73, 100
2, 58176, Note_on_c, 0, 70, 70
2, 58176, Note_on_c, 0, 73, 70
2, 58268, Note_off_c, 0, 70, 100
2, 58268, Note_off_c, 0, 73, 100
2, 58272, Note_on_c, 0, 67, 70
2, 58272, Note_on_c, 0, 70, 70
2, 58364, Note_off_c, 0, 67, 100
2, 58364, Note_off_c, 0, 70, 100
2, 58368, Note_on_c, 0, 68, 90
2, 58460, Note_off_c, 0, 68, 100
2, 58464, Note_on_c, 0, 63, 90
2, 58556, Note_off_c, 0, 63, 100
2, 58560, Note_on_c, 0, 60, 90
2, 58652, Note_off_c, 0, 60, 100
2, 58656, Note_on_c, 0, 63, 81
2, 58748, Note_off_c, 0, 63, 100
2, 58752, Note_on_c, 0, 60, 70
2, 58844, Note_off_c, 0, 60, 100
2, 58848, Note_on_c, 0, 63, 70
2, 58940, Note_off_c, 0, 63, 100
2, 58944, Note_on_c, 0, 68, 70
2, 58944, Note_on_c, 0, 72, 70
2, 59036, Note_off_c, 0, 68, 100
2, 59040, Note_on_c, 0, 63, 70
2, 59132, Note_off_c, 0, 72, 100
2, 59132, Note_off_c, 0, 63, 100
2, 59136, Note_on_c, 0, 70, 90
2, 59136, Note_on_c, 0, 73, 90
2, 59228, Note_off_c, 0, 70, 100
2, 59232, Note_on_c, 0, 63, 90
2, 59324, Note_off_c, 0, 63, 100
2, 59328, Note_on_c, 0, 61, 90
2, 59420, Note_off_c, 0, 61, 100
2, 59424, Note_on_c, 0, 63, 80
2, 59516, Note_off_c, 0, 73, 100
2, 59516, Note_off_c, 0, 63, 100
2, 59520, Note_on_c, 0, 61, 70
2, 59612, Note_off_c, 0, 61, 100
2, 59616, Note_on_c, 0, 63, 70
2, 59708, Note_off_c, 0, 63, 100
2, 59712, Note_on_c, 0, 67, 70
2, 59712, Note_on_c, 0, 70, 70
2, 59804, Note_off_c, 0, 67, 100
2, 59808, Note_on_c, 0, 63, 70
2, 59900, Note_off_c, 0, 70, 100
2, 59900, Note_off_c, 0, 63, 100
2, 59904, Note_on_c, 0, 68, 90
2, 59996, Note_off_c, 0, 68, 100
2, 60000, Note_on_c, 0, 63, 90
2, 60092, Note_off_c, 0, 63, 100
2, 60096, Note_on_c, 0, 60, 90
2, 60188, Note_off_c, 0, 60, 100
2, 60192, Note_on_c, 0, 63, 81
2, 60284, Note_off_c, 0, 63, 100
2, 60288, Note_on_c, 0, 60, 70
2, 60380, Note_off_c, 0, 60, 100
2, 60384, Note_on_c, 0, 63, 70
2, 60476, Note_off_c, 0, 63, 100
2, 60480, Note_on_c, 0, 68, 70
2, 60480, Note_on_c, 0, 72, 70
2, 60572, Note_off_c, 0, 68, 100
2, 60576, Note_on_c, 0, 63, 70
2, 60668, Note_off_c, 0, 72, 100
2, 60668, Note_off_c, 0, 63, 100
2, 60672, Note_on_c, 0, 70, 90
2, 60672, Note_on_c, 0, 73, 90
2, 60764, Note_off_c, 0, 70, 100
2, 60768, Note_on_c, 0, 63, 90
2, 60860, Note_off_c, 0, 63, 100
2, 60864, Note_on_c, 0, 61, 90
2, 60956, Note_off_c, 0, 61, 100
2, 60960, Note_on_c, 0, 63, 81
2, 61052, Note_off_c, 0, 73, 100
2, 61052, Note_off_c, 0, 63, 100
2, 61056, Note_on_c, 0, 61, 70
2, 61148, Note_off_c, 0, 61, 100
2, 61152, Note_on_c, 0, 63, 70
2, 61244, Note_off_c, 0, 63, 100
2, 61248, Note_on_c, 0, 67, 70
2, 61248, Note_on_c, 0, 70, 70
2, 61340, Note_off_c, 0, 67, 100
2, 61344, Note_on_c, 0, 63, 70
2, 61436, Note_off_c, 0, 70, 100
2, 61436, Note_off_c, 0, 63, 100
2, 61440, Note_on_c, 0, 68, 70
2, 61440, Note_on_c, 0, 72, 70
2, 61724, Note_off_c, 0, 68, 100
2, 61724, Note_off_c, 0, 72, 100
2, 61728, Note_on_c, 0, 67, 70
2, 61728, Note_on_c, 0, 70, 70
2, 61820, Note_off_c, 0, 67, 100
2, 61820, Note_off_c, 0, 70, 100
2, 61824, Note_on_c, 0, 65, 70
2, 61824, Note_on_c, 0, 68, 70
2, 62012, Note_off_c, 0, 65, 100
2, 62012, Note_off_c, 0, 68, 100
2, 62016, Note_on_c, 0, 65, 70
2, 62016, Note_on_c, 0, 68, 70
2, 62204, Note_off_c, 0, 65, 100
2, 62204, Note_off_c, 0, 68, 100
2, 62208, Note_on_c, 0, 70, 70
2, 62208, Note_on_c, 0, 73, 70
2, 62492, Note_off_c, 0, 70, 100
2, 62492, Note_off_c, 0, 73, 100
2, 62496, Note_on_c, 0, 68, 70
2, 62496, Note_on_c, 0, 72, 70
2, 62588, Note_off_c, 0, 68, 100
2, 62588, Note_off_c, 0, 72, 100
2, 62592, Note_on_c, 0, 67, 70
2, 62592, Note_on_c, 0, 70, 70
2, 62780, Note_off_c, 0, 67, 100
2, 62780, Note_off_c, 0, 70, 100
2, 62784, Note_on_c, 0, 67, 70
2, 62784, Note_on_c, 0, 70, 70
2, 62972, Note_off_c, 0, 67, 100
2, 62972, Note_off_c, 0, 70, 100
2, 62976, Note_on_c, 0, 75, 70
2, 63068, Note_off_c, 0, 75, 100
2, 63072, Note_on_c, 0, 72, 70
2, 63164, Note_off_c, 0, 72, 100
2, 63168, Note_on_c, 0, 70, 70
2, 63260, Note_off_c, 0, 70, 100
2, 63264, Note_on_c, 0, 73, 70
2, 63356, Note_off_c, 0, 73, 100
2, 63360, Note_on_c, 0, 72, 70
2, 63452, Note_off_c, 0, 72, 100
2, 63456, Note_on_c, 0, 68, 70
2, 63548, Note_off_c, 0, 68, 100
2, 63552, Note_on_c, 0, 67, 70
2, 63552, Note_on_c, 0, 61, 70
2, 63644, Note_off_c, 0, 67, 100
2, 63648, Note_on_c, 0, 70, 70
2, 63740, Note_off_c, 0, 61, 100
2, 63740, Note_off_c, 0, 70, 100
2, 63744, Note_on_c, 0, 60, 60
2, 63744, Note_on_c, 0, 68, 60
2, 64124, Note_off_c, 0, 60, 100
2, 64124, Note_off_c, 0, 68, 100
2, 64128, Note_on_c, 0, 60, 60
2, 64128, Note_on_c, 0, 63, 60
2, 64508, Note_off_c, 0, 60, 100
2, 64508, Note_off_c, 0, 63, 100
2, 64512, Note_on_c, 0, 56, 60
2, 64512, Note_on_c, 0, 60, 60
2, 65276, Note_off_c, 0, 56, 100
2, 65276, Note_off_c, 0, 60, 100
2, 65664, Control_c, 0, 11, 0
2, 65760, Note_on_c, 0, 56, 1
2, 65852, Note_off_c, 0, 56, 100
2, 65852, End_track
3, 0, Start_track
3, 0, Title_t, "Piano Left"
3, 0, Control_c, 1, 0, 0
3, 0, Program_c, 1, 0
3, 0, Control_c, 1, 7, 100
3, 0, Control_c, 1, 10, 57
3, 0, Control_c, 1, 91, 127
3, 0, Key_signature, -4, "major"
3, 0, Note_on_c, 1, 44, 70
3, 0, Note_on_c, 1, 56, 70
3, 380, Note_off_c, 1, 44, 100
3, 380, Note_off_c, 1, 56, 100
3, 384, Note_on_c, 1, 49, 70
3, 384, Note_on_c, 1, 61, 70
3, 764, Note_off_c, 1, 49, 100
3, 764, Note_off_c, 1, 61, 100
3, 768, Note_on_c, 1, 46, 70
3, 768, Note_on_c, 1, 58, 70
3, 1148, Note_off_c, 1, 46, 100
3, 1148, Note_off_c, 1, 58, 100
3, 1152, Note_on_c, 1, 51, 70
3, 1152, Note_on_c, 1, 63, 70
3, 1532, Note_off_c, 1, 51, 100
3, 1532, Note_off_c, 1, 63, 100
3, 1536, Note_on_c, 1, 60, 70
3, 1916, Note_off_c, 1, 60, 100
3, 1920, Note_on_c, 1, 61, 70
3, 2300, Note_off_c, 1, 61, 100
3, 2304, Note_on_c, 1, 63, 70
3, 2492, Note_off_c, 1, 63, 100
3, 2496, Note_on_c, 1, 51, 70
3, 2684, Note_off_c, 1, 51, 100
3, 2784, Note_on_c, 1, 61, 70
3, 2876, Note_off_c, 1, 61, 100
3, 2880, Note_on_c, 1, 60, 70
3, 2972, Note_off_c, 1, 60, 100
3, 2976, Note_on_c, 1, 58, 70
3, 3068, Note_off_c, 1, 58, 100
3, 3072, Note_on_c, 1, 44, 70
3, 3072, Note_on_c, 1, 56, 70
3, 3452, Note_off_c, 1, 44, 100
3, 3452, Note_off_c, 1, 56, 100
3, 3456, Note_on_c, 1, 49, 70
3, 3456, Note_on_c, 1, 61, 70
3, 3836, Note_off_c, 1, 49, 100
3, 3836, Note_off_c, 1, 61, 100
3, 3840, Note_on_c, 1, 46, 70
3, 3840, Note_on_c, 1, 58, 70
3, 4220, Note_off_c, 1, 46, 100
3, 4220, Note_off_c, 1, 58, 100
3, 4224, Note_on_c, 1, 51, 70
3, 4224, Note_on_c, 1, 63, 70
3, 4604, Note_off_c, 1, 51, 100
3, 4604, Note_off_c, 1, 63, 100
3, 4608, Note_on_c, 1, 60, 70
3, 4796, Note_off_c, 1, 60, 100
3, 4800, Note_on_c, 1, 61, 70
3, 4988, Note_off_c, 1, 61, 100
3, 4992, Note_on_c, 1, 63, 70
3, 5180, Note_off_c, 1, 63, 100
3, 5184, Note_on_c, 1, 51, 70
3, 5372, Note_off_c, 1, 51, 100
3, 5376, Note_on_c, 1, 56, 70
3, 5564, Note_off_c, 1, 56, 100
3, 5568, Note_on_c, 1, 44, 70
3, 5756, Note_off_c, 1, 44, 100
3, 5760, Note_on_c, 1, 56, 70
3, 5948, Note_off_c, 1, 56, 100
3, 6144, Note_on_c, 1, 56, 100
3, 6332, Note_off_c, 1, 56, 100
3, 6336, Note_on_c, 1, 44, 100
3, 6524, Note_off_c, 1, 44, 100
3, 6528, Note_on_c, 1, 48, 100
3, 6716, Note_off_c, 1, 48, 100
3, 6720, Note_on_c, 1, 51, 100
3, 6908, Note_off_c, 1, 51, 100
3, 6912, Note_on_c, 1, 56, 100
3, 7100, Note_off_c, 1, 56, 100
3, 7104, Note_on_c, 1, 44, 100
3, 7292, Note_off_c, 1, 44, 100
3, 7296, Note_on_c, 1, 56, 100
3, 7484, Note_off_c, 1, 56, 100
3, 7680, Note_on_c, 1, 56, 70
3, 7868, Note_off_c, 1, 56, 100
3, 7872, Note_on_c, 1, 44, 70
3, 8060, Note_off_c, 1, 44, 100
3, 8064, Note_on_c, 1, 48, 70
3, 8252, Note_off_c, 1, 48, 100
3, 8256, Note_on_c, 1, 51, 70
3, 8444, Note_off_c, 1, 51, 100
3, 8448, Note_on_c, 1, 56, 70
3, 8636, Note_off_c, 1, 56, 100
3, 8640, Note_on_c, 1, 44, 70
3, 8828, Note_off_c, 1, 44, 100
3, 8832, Note_on_c, 1, 56, 70
3, 9020, Note_off_c, 1, 56, 100
3, 9216, Note_on_c, 1, 44, 70
3, 9308, Note_off_c, 1, 44, 100
3, 9312, Note_on_c, 1, 43, 71
3, 9404, Note_off_c, 1, 43, 100
3, 9408, Note_on_c, 1, 44, 72
3, 9500, Note_off_c, 1, 44, 100
3, 9504, Note_on_c, 1, 43, 74
3, 9596, Note_off_c, 1, 43, 100
3, 9600, Note_on_c, 1, 44, 75
3, 9692, Note_off_c, 1, 44, 100
3, 9696, Note_on_c, 1, 43, 77
3, 9788, Note_off_c, 1, 43, 100
3, 9792, Note_on_c, 1, 44, 78
3, 9884, Note_off_c, 1, 44, 100
3, 9888, Note_on_c, 1, 43, 79
3, 9980, Note_off_c, 1, 43, 100
3, 9984, Note_on_c, 1, 44, 81
3, 10076, Note_off_c, 1, 44, 100
3, 10080, Note_on_c, 1, 43, 82
3, 10172, Note_off_c, 1, 43, 100
3, 10176, Note_on_c, 1, 44, 84
3, 10268, Note_off_c, 1, 44, 100
3, 10272, Note_on_c, 1, 43, 85
3, 10364, Note_off_c, 1, 43, 100
3, 10368, Note_on_c, 1, 44, 86
3, 10460, Note_off_c, 1, 44, 100
3, 10464, Note_on_c, 1, 43, 88
3, 10556, Note_off_c, 1, 43, 100
3, 10560, Note_on_c, 1, 44, 89
3, 10748, Note_off_c, 1, 44, 100
3, 10944, Note_on_c, 1, 49, 95
3, 11132, Note_off_c, 1, 49, 100
3, 11136, Note_on_c, 1, 53, 98
3, 11324, Note_off_c, 1, 53, 100
3, 11328, Note_on_c, 1, 49, 100
3, 11516, Note_off_c, 1, 49, 100
3, 11520, Note_on_c, 1, 56, 100
3, 11708, Note_off_c, 1, 56, 100
3, 11712, Note_on_c, 1, 44, 100
3, 11900, Note_off_c, 1, 44, 100
3, 11904, Note_on_c, 1, 56, 100
3, 12092, Note_off_c, 1, 56, 100
3, 12480, Note_on_c, 1, 51, 70
3, 12668, Note_off_c, 1, 51, 100
3, 12672, Note_on_c, 1, 55, 70
3, 12860, Note_off_c, 1, 55, 100
3, 12864, Note_on_c, 1, 56, 70
3, 13052, Note_off_c, 1, 56, 100
3, 13056, Note_on_c, 1, 51, 70
3, 13244, Note_off_c, 1, 51, 100
3, 13248, Note_on_c, 1, 39, 70
3, 13436, Note_off_c, 1, 39, 100
3, 13440, Note_on_c, 1, 51, 70
3, 13628, Note_off_c, 1, 51, 100
3, 13824, Note_on_c, 1, 46, 100
3, 14012, Note_off_c, 1, 46, 100
3, 14016, Note_on_c, 1, 65, 100
3, 14016, Note_on_c, 1, 62, 100
3, 14204, Note_off_c, 1, 65, 100
3, 14204, Note_off_c, 1, 62, 100
3, 14208, Note_on_c, 1, 46, 100
3, 14396, Note_off_c, 1, 46, 100
3, 14400, Note_on_c, 1, 65, 100
3, 14400, Note_on_c, 1, 62, 100
3, 14588, Note_off_c, 1, 65, 100
3, 14588, Note_off_c, 1, 62, 100
3, 14592, Note_on_c, 1, 51, 100
3, 14780, Note_off_c, 1, 51, 100
3, 14784, Note_on_c, 1, 67, 100
3, 14784, Note_on_c, 1, 63, 100
3, 14972, Note_off_c, 1, 67, 100
3, 14972, Note_off_c, 1, 63, 100
3, 14976, Note_on_c, 1, 51, 100
3, 15164, Note_off_c, 1, 51, 100
3, 15168, Note_on_c, 1, 67, 100
3, 15168, Note_on_c, 1, 63, 100
3, 15356, Note_off_c, 1, 67, 100
3, 15356, Note_off_c, 1, 63, 100
3, 15360, Note_on_c, 1, 46, 70
3, 15548, Note_off_c, 1, 46, 100
3, 15552, Note_on_c, 1, 65, 70
3, 15552, Note_on_c, 1, 62, 70
3, 15740, Note_off_c, 1, 65, 100
3, 15740, Note_off_c, 1, 62, 100
3, 15744, Note_on_c, 1, 46, 70
3, 15932, Note_off_c, 1, 46, 100
3, 15936, Note_on_c, 1, 65, 70
3, 15936, Note_on_c, 1, 62, 70
3, 16124, Note_off_c, 1, 65, 100
3, 16124, Note_off_c, 1, 62, 100
3, 16128, Note_on_c, 1, 63, 70
3, 16316, Note_off_c, 1, 63, 100
3, 16320, Note_on_c, 1, 51, 70
3, 16508, Note_off_c, 1, 51, 100
3, 16512, Note_on_c, 1, 63, 70
3, 16556, Note_off_c, 1, 63, 100
3, 16560, Note_on_c, 1, 62, 70
3, 16604, Note_off_c, 1, 62, 100
3, 16608, Note_on_c, 1, 60, 70
3, 16652, Note_off_c, 1, 60, 100
3, 16656, Note_on_c, 1, 58, 70
3, 16700, Note_off_c, 1, 58, 100
3, 16704, Note_on_c, 1, 56, 70
3, 16748, Note_off_c, 1, 56, 100
3, 16752, Note_on_c, 1, 55, 70
3, 16796, Note_off_c, 1, 55, 100
3, 16800, Note_on_c, 1, 53, 70
3, 16844, Note_off_c, 1, 53, 100
3, 16848, Note_on_c, 1, 51, 70
3, 16892, Note_off_c, 1, 51, 100
3, 16896, Note_on_c, 1, 56, 100
3, 17084, Note_off_c, 1, 56, 100
3, 17088, Note_on_c, 1, 53, 70
3, 17276, Note_off_c, 1, 53, 100
3, 17280, Note_on_c, 1, 55, 100
3, 17468, Note_off_c, 1, 55, 100
3, 17472, Note_on_c, 1, 50, 70
3, 17660, Note_off_c, 1, 50, 100
3, 17664, Note_on_c, 1, 51, 70
3, 17852, Note_off_c, 1, 51, 100
3, 17856, Note_on_c, 1, 53, 70
3, 18044, Note_off_c, 1, 53, 100
3, 18048, Note_on_c, 1, 50, 70
3, 18236, Note_off_c, 1, 50, 100
3, 18240, Note_on_c, 1, 46, 70
3, 18428, Note_off_c, 1, 46, 100
3, 18432, Note_on_c, 1, 51, 70
3, 18620, Note_off_c, 1, 51, 100
3, 18624, Note_on_c, 1, 53, 70
3, 18812, Note_off_c, 1, 53, 100
3, 18816, Note_on_c, 1, 50, 70
3, 19004, Note_off_c, 1, 50, 100
3, 19008, Note_on_c, 1, 46, 70
3, 19196, Note_off_c, 1, 46, 100
3, 19200, Note_on_c, 1, 51, 70
3, 19388, Note_off_c, 1, 51, 100
3, 19392, Note_on_c, 1, 51, 70
3, 19580, Note_off_c, 1, 51, 100
3, 19584, Note_on_c, 1, 46, 70
3, 19772, Note_off_c, 1, 46, 100
3, 19776, Note_on_c, 1, 51, 70
3, 19964, Note_off_c, 1, 51, 100
3, 19968, Note_on_c, 1, 46, 70
3, 20060, Note_off_c, 1, 46, 100
3, 20064, Note_on_c, 1, 58, 70
3, 20156, Note_off_c, 1, 58, 100
3, 20160, Note_on_c, 1, 58, 70
3, 20252, Note_off_c, 1, 58, 100
3, 20256, Note_on_c, 1, 58, 70
3, 20348, Note_off_c, 1, 58, 100
3, 20352, Note_on_c, 1, 58, 70
3, 20444, Note_off_c, 1, 58, 100
3, 20448, Note_on_c, 1, 58, 70
3, 20540, Note_off_c, 1, 58, 100
3, 20544, Note_on_c, 1, 58, 70
3, 20636, Note_off_c, 1, 58, 100
3, 20640, Note_on_c, 1, 58, 70
3, 20732, Note_off_c, 1, 58, 100
3, 20736, Note_on_c, 1, 58, 70
3, 20828, Note_off_c, 1, 58, 100
3, 20832, Note_on_c, 1, 58, 70
3, 20924, Note_off_c, 1, 58, 100
3, 20928, Note_on_c, 1, 58, 70
3, 21020, Note_off_c, 1, 58, 100
3, 21024, Note_on_c, 1, 58, 70
3, 21116, Note_off_c, 1, 58, 100
3, 21120, Note_on_c, 1, 58, 70
3, 21212, Note_off_c, 1, 58, 100
3, 21216, Note_on_c, 1, 58, 70
3, 21308, Note_off_c, 1, 58, 100
3, 21312, Note_on_c, 1, 58, 70
3, 21404, Note_off_c, 1, 58, 100
3, 21408, Note_on_c, 1, 58, 70
3, 21500, Note_off_c, 1, 58, 100
3, 21504, Note_on_c, 1, 58, 70
3, 21596, Note_off_c, 1, 58, 100
3, 21600, Note_on_c, 1, 58, 70
3, 21692, Note_off_c, 1, 58, 100
3, 21696, Note_on_c, 1, 58, 70
3, 21788, Note_off_c, 1, 58, 100
3, 21792, Note_on_c, 1, 58, 70
3, 21884, Note_off_c, 1, 58, 100
3, 21888, Note_on_c, 1, 58, 70
3, 21980, Note_off_c, 1, 58, 100
3, 21984, Note_on_c, 1, 58, 70
3, 22076, Note_off_c, 1, 58, 100
3, 22080, Note_on_c, 1, 58, 70
3, 22172, Note_off_c, 1, 58, 100
3, 22176, Note_on_c, 1, 58, 70
3, 22268, Note_off_c, 1, 58, 100
3, 22272, Note_on_c, 1, 58, 70
3, 22364, Note_off_c, 1, 58, 100
3, 22368, Note_on_c, 1, 58, 70
3, 22460, Note_off_c, 1, 58, 100
3, 22464, Note_on_c, 1, 58, 70
3, 22556, Note_off_c, 1, 58, 100
3, 22560, Note_on_c, 1, 58, 70
3, 22652, Note_off_c, 1, 58, 100
3, 22656, Note_on_c, 1, 58, 70
3, 22748, Note_off_c, 1, 58, 100
3, 22752, Note_on_c, 1, 58, 70
3, 22844, Note_off_c, 1, 58, 100
3, 22848, Note_on_c, 1, 58, 70
3, 22940, Note_off_c, 1, 58, 100
3, 22944, Note_on_c, 1, 58, 70
3, 23036, Note_off_c, 1, 58, 100
3, 23040, Note_on_c, 1, 51, 100
3, 23228, Note_off_c, 1, 51, 100
3, 23232, Note_on_c, 1, 50, 100
3, 23324, Note_off_c, 1, 50, 100
3, 23328, Note_on_c, 1, 49, 100
3, 23420, Note_off_c, 1, 49, 100
3, 23424, Note_on_c, 1, 48, 100
3, 23612, Note_off_c, 1, 48, 100
3, 23616, Note_on_c, 1, 48, 100
3, 23708, Note_off_c, 1, 48, 100
3, 23712, Note_on_c, 1, 48, 100
3, 23804, Note_off_c, 1, 48, 100
3, 23808, Note_on_c, 1, 46, 100
3, 24188, Note_off_c, 1, 46, 100
3, 24192, Note_on_c, 1, 44, 70
3, 24192, Note_on_c, 1, 46, 70
3, 24572, Note_off_c, 1, 44, 100
3, 24572, Note_off_c, 1, 46, 100
3, 24576, Note_on_c, 1, 43, 70
3, 24956, Note_off_c, 1, 43, 100
3, 24960, Note_on_c, 1, 44, 70
3, 25340, Note_off_c, 1, 44, 100
3, 25344, Note_on_c, 1, 46, 70
3, 25724, Note_off_c, 1, 46, 100
3, 25728, Note_on_c, 1, 34, 70
3, 26108, Note_off_c, 1, 34, 100
3, 26112, Note_on_c, 1, 39, 90
3, 26492, Note_off_c, 1, 39, 100
3, 26880, Note_on_c, 1, 46, 90
3, 27644, Note_off_c, 1, 46, 100
3, 27648, Note_on_c, 1, 39, 90
3, 28028, Note_off_c, 1, 39, 100
3, 28416, Note_on_c, 1, 46, 90
3, 29180, Note_off_c, 1, 46, 100
3, 29184, Note_on_c, 1, 39, 70
3, 29372, Note_off_c, 1, 39, 100
3, 29568, Note_on_c, 1, 39, 70
3, 29756, Note_off_c, 1, 39, 100
3, 29952, Note_on_c, 1, 39, 70
3, 30140, Note_off_c, 1, 39, 100
3, 30912, Note_on_c, 1, 37, 70
3, 30912, Note_on_c, 1, 49, 70
3, 31100, Note_off_c, 1, 37, 100
3, 31100, Note_off_c, 1, 49, 100
3, 31104, Note_on_c, 1, 36, 70
3, 31104, Note_on_c, 1, 48, 70
3, 31484, Note_off_c, 1, 36, 100
3, 31484, Note_off_c, 1, 48, 100
3, 31680, Note_on_c, 1, 37, 70
3, 31680, Note_on_c, 1, 49, 70
3, 31868, Note_off_c, 1, 37, 100
3, 31868, Note_off_c, 1, 49, 100
3, 31872, Note_on_c, 1, 36, 70
3, 31872, Note_on_c, 1, 48, 70
3, 32252, Note_off_c, 1, 36, 100
3, 32252, Note_off_c, 1, 48, 100
3, 32448, Note_on_c, 1, 46, 70
3, 32828, Note_off_c, 1, 46, 100
3, 32832, Note_on_c, 1, 47, 70
3, 33020, Note_off_c, 1, 47, 100
3, 33024, Note_on_c, 1, 48, 70
3, 33116, Note_off_c, 1, 48, 100
3, 33120, Note_on_c, 1, 60, 70
3, 33212, Note_off_c, 1, 60, 100
3, 33216, Note_on_c, 1, 60, 70
3, 33308, Note_off_c, 1, 60, 100
3, 33312, Note_on_c, 1, 60, 70
3, 33404, Note_off_c, 1, 60, 100
3, 33408, Note_on_c, 1, 60, 70
3, 33500, Note_off_c, 1, 60, 100
3, 33504, Note_on_c, 1, 60, 70
3, 33596, Note_off_c, 1, 60, 100
3, 33600, Note_on_c, 1, 60, 70
3, 33692, Note_off_c, 1, 60, 100
3, 33696, Note_on_c, 1, 60, 70
3, 33788, Note_off_c, 1, 60, 100
3, 33792, Note_on_c, 1, 60, 70
3, 33884, Note_off_c, 1, 60, 100
3, 33888, Note_on_c, 1, 60, 70
3, 33980, Note_off_c, 1, 60, 100
3, 33984, Note_on_c, 1, 60, 70
3, 34076, Note_off_c, 1, 60, 100
3, 34080, Note_on_c, 1, 60, 70
3, 34172, Note_off_c, 1, 60, 100
3, 34176, Note_on_c, 1, 60, 70
3, 34268, Note_off_c, 1, 60, 100
3, 34272, Note_on_c, 1, 60, 86
3, 34364, Note_off_c, 1, 60, 100
3, 34368, Note_on_c, 1, 60, 100
3, 34460, Note_off_c, 1, 60, 100
3, 34464, Note_on_c, 1, 60, 100
3, 34556, Note_off_c, 1, 60, 100
3, 34560, Note_on_c, 1, 60, 100
3, 34652, Note_off_c, 1, 60, 100
3, 34656, Note_on_c, 1, 60, 100
3, 34748, Note_off_c, 1, 60, 100
3, 34752, Note_on_c, 1, 60, 100
3, 34844, Note_off_c, 1, 60, 100
3, 34848, Note_on_c, 1, 60, 85
3, 34940, Note_off_c, 1, 60, 100
3, 34944, Note_on_c, 1, 60, 70
3, 35036, Note_off_c, 1, 60, 100
3, 35040, Note_on_c, 1, 60, 70
3, 35132, Note_off_c, 1, 60, 100
3, 35136, Note_on_c, 1, 60, 70
3, 35228, Note_off_c, 1, 60, 100
3, 35232, Note_on_c, 1, 60, 70
3, 35324, Note_off_c, 1, 60, 100
3, 35328, Note_on_c, 1, 60, 70
3, 35420, Note_off_c, 1, 60, 100
3, 35424, Note_on_c, 1, 60, 70
3, 35516, Note_off_c, 1, 60, 100
3, 35520, Note_on_c, 1, 60, 70
3, 35612, Note_off_c, 1, 60, 100
3, 35616, Note_on_c, 1, 60, 70
3, 35708, Note_off_c, 1, 60, 100
3, 35712, Note_on_c, 1, 60, 70
3, 35804, Note_off_c, 1, 60, 100
3, 35808, Note_on_c, 1, 60, 70
3, 35900, Note_off_c, 1, 60, 100
3, 35904, Note_on_c, 1, 60, 70
3, 35996, Note_off_c, 1, 60, 100
3, 36000, Note_on_c, 1, 60, 85
3, 36092, Note_off_c, 1, 60, 100
3, 36096, Note_on_c, 1, 60, 100
3, 36188, Note_off_c, 1, 60, 100
3, 36192, Note_on_c, 1, 60, 100
3, 36284, Note_off_c, 1, 60, 100
3, 36288, Note_on_c, 1, 60, 100
3, 36380, Note_off_c, 1, 60, 100
3, 36384, Note_on_c, 1, 60, 100
3, 36476, Note_off_c, 1, 60, 100
3, 36480, Note_on_c, 1, 57, 100
3, 36860, Note_off_c, 1, 57, 100
3, 36864, Note_on_c, 1, 58, 100
3, 37244, Note_off_c, 1, 58, 100
3, 38400, Note_on_c, 1, 46, 100
3, 38492, Note_off_c, 1, 46, 100
3, 38496, Note_on_c, 1, 45, 100
3, 38588, Note_off_c, 1, 45, 100
3, 38592, Note_on_c, 1, 46, 100
3, 38684, Note_off_c, 1, 46, 100
3, 38688, Note_on_c, 1, 45, 100
3, 38780, Note_off_c, 1, 45, 100
3, 38784, Note_on_c, 1, 46, 100
3, 38876, Note_off_c, 1, 46, 100
3, 38880, Note_on_c, 1, 45, 100
3, 38972, Note_off_c, 1, 45, 100
3, 38976, Note_on_c, 1, 46, 100
3, 39068, Note_off_c, 1, 46, 100
3, 39072, Note_on_c, 1, 45, 100
3, 39164, Note_off_c, 1, 45, 100
3, 39168, Note_on_c, 1, 46, 100
3, 39168, Note_on_c, 1, 58, 100
3, 39740, Note_off_c, 1, 46, 100
3, 39740, Note_off_c, 1, 58, 100
3, 39744, Note_on_c, 1, 46, 70
3, 39744, Note_on_c, 1, 58, 70
3, 39932, Note_off_c, 1, 46, 100
3, 39932, Note_off_c, 1, 58, 100
3, 39936, Note_on_c, 1, 56, 70
3, 40124, Note_off_c, 1, 56, 100
3, 40128, Note_on_c, 1, 58, 70
3, 40316, Note_off_c, 1, 58, 100
3, 40320, Note_on_c, 1, 60, 70
3, 40508, Note_off_c, 1, 60, 100
3, 40512, Note_on_c, 1, 48, 70
3, 40700, Note_off_c, 1, 48, 100
3, 40704, Note_on_c, 1, 41, 70
3, 40704, Note_on_c, 1, 53, 70
3, 41084, Note_off_c, 1, 41, 100
3, 41084, Note_off_c, 1, 53, 100
3, 41472, Note_on_c, 1, 41, 70
3, 41472, Note_on_c, 1, 53, 70
3, 41852, Note_off_c, 1, 41, 100
3, 41852, Note_off_c, 1, 53, 100
3, 42240, Note_on_c, 1, 46, 70
3, 42240, Note_on_c, 1, 58, 70
3, 42620, Note_off_c, 1, 46, 100
3, 42620, Note_off_c, 1, 58, 100
3, 43008, Note_on_c, 1, 39, 70
3, 43008, Note_on_c, 1, 51, 70
3, 43388, Note_off_c, 1, 39, 100
3, 43388, Note_off_c, 1, 51, 100
3, 43392, Note_on_c, 1, 39, 70
3, 43392, Note_on_c, 1, 51, 70
3, 43772, Note_off_c, 1, 39, 100
3, 43772, Note_off_c, 1, 51, 100
3, 43776, Note_on_c, 1, 44, 70
3, 43776, Note_on_c, 1, 56, 70
3, 44156, Note_off_c, 1, 44, 100
3, 44156, Note_off_c, 1, 56, 100
3, 44160, Note_on_c, 1, 44, 70
3, 44160, Note_on_c, 1, 56, 70
3, 44540, Note_off_c, 1, 44, 100
3, 44540, Note_off_c, 1, 56, 100
3, 44544, Note_on_c, 1, 49, 100
3, 44544, Note_on_c, 1, 61, 100
3, 44732, Note_off_c, 1, 49, 100
3, 44732, Note_off_c, 1, 61, 100
3, 44736, Note_on_c, 1, 48, 70
3, 44736, Note_on_c, 1, 60, 70
3, 44924, Note_off_c, 1, 48, 100
3, 44924, Note_off_c, 1, 60, 100
3, 44928, Note_on_c, 1, 46, 100
3, 44928, Note_on_c, 1, 58, 100
3, 45116, Note_off_c, 1, 46, 100
3, 45116, Note_off_c, 1, 58, 100
3, 45120, Note_on_c, 1, 44, 70
3, 45120, Note_on_c, 1, 56, 70
3, 45308, Note_off_c, 1, 44, 100
3, 45308, Note_off_c, 1, 56, 100
3, 45312, Note_on_c, 1, 51, 70
3, 45500, Note_off_c, 1, 51, 100
3, 45504, Note_on_c, 1, 39, 70
3, 45692, Note_off_c, 1, 39, 100
3, 45696, Note_on_c, 1, 39, 70
3, 45884, Note_off_c, 1, 39, 100
3, 46080, Note_on_c, 1, 39, 100
3, 46268, Note_off_c, 1, 39, 100
3, 46272, Note_on_c, 1, 58, 100
3, 46272, Note_on_c, 1, 55, 100
3, 46460, Note_off_c, 1, 58, 100
3, 46460, Note_off_c, 1, 55, 100
3, 46848, Note_on_c, 1, 44, 100
3, 47036, Note_off_c, 1, 44, 100
3, 47040, Note_on_c, 1, 63, 100
3, 47040, Note_on_c, 1, 60, 100
3, 47228, Note_off_c, 1, 63, 100
3, 47228, Note_off_c, 1, 60, 100
3, 47616, Note_on_c, 1, 39, 70
3, 47804, Note_off_c, 1, 39, 100
3, 47808, Note_on_c, 1, 61, 70
3, 47808, Note_on_c, 1, 58, 70
3, 47996, Note_off_c, 1, 61, 100
3, 47996, Note_off_c, 1, 58, 100
3, 48384, Note_on_c, 1, 44, 70
3, 48572, Note_off_c, 1, 44, 100
3, 48576, Note_on_c, 1, 63, 70
3, 48576, Note_on_c, 1, 60, 70
3, 48764, Note_off_c, 1, 63, 100
3, 48764, Note_off_c, 1, 60, 100
3, 48768, Note_on_c, 1, 56, 70
3, 48812, Note_off_c, 1, 56, 100
3, 48816, Note_on_c, 1, 55, 70
3, 48860, Note_off_c, 1, 55, 100
3, 48864, Note_on_c, 1, 53, 70
3, 48908, Note_off_c, 1, 53, 100
3, 48912, Note_on_c, 1, 51, 70
3, 48956, Note_off_c, 1, 51, 100
3, 48960, Note_on_c, 1, 49, 70
3, 49004, Note_off_c, 1, 49, 100
3, 49008, Note_on_c, 1, 48, 70
3, 49052, Note_off_c, 1, 48, 100
3, 49056, Note_on_c, 1, 46, 70
3, 49100, Note_off_c, 1, 46, 100
3, 49104, Note_on_c, 1, 44, 70
3, 49148, Note_off_c, 1, 44, 100
3, 49152, Note_on_c, 1, 49, 70
3, 49340, Note_off_c, 1, 49, 100
3, 49344, Note_on_c, 1, 46, 70
3, 49532, Note_off_c, 1, 46, 100
3, 49536, Note_on_c, 1, 48, 70
3, 49724, Note_off_c, 1, 48, 100
3, 49728, Note_on_c, 1, 43, 70
3, 49916, Note_off_c, 1, 43, 100
3, 49920, Note_on_c, 1, 44, 70
3, 50108, Note_off_c, 1, 44, 100
3, 50112, Note_on_c, 1, 46, 70
3, 50300, Note_off_c, 1, 46, 100
3, 50304, Note_on_c, 1, 43, 70
3, 50492, Note_off_c, 1, 43, 100
3, 50496, Note_on_c, 1, 39, 70
3, 50684, Note_off_c, 1, 39, 100
3, 50688, Note_on_c, 1, 44, 70
3, 50876, Note_off_c, 1, 44, 100
3, 50880, Note_on_c, 1, 46, 70
3, 51068, Note_off_c, 1, 46, 100
3, 51072, Note_on_c, 1, 43, 70
3, 51260, Note_off_c, 1, 43, 100
3, 51264, Note_on_c, 1, 39, 70
3, 51452, Note_off_c, 1, 39, 100
3, 51456, Note_on_c, 1, 44, 70
3, 51644, Note_off_c, 1, 44, 100
3, 51648, Note_on_c, 1, 56, 70
3, 51836, Note_off_c, 1, 56, 100
3, 51840, Note_on_c, 1, 51, 70
3, 52028, Note_off_c, 1, 51, 100
3, 52032, Note_on_c, 1, 56, 70
3, 52220, Note_off_c, 1, 56, 100
3, 52224, Note_on_c, 1, 51, 70
3, 52316, Note_off_c, 1, 51, 100
3, 52320, Note_on_c, 1, 63, 70
3, 52412, Note_off_c, 1, 63, 100
3, 52416, Note_on_c, 1, 63, 70
3, 52508, Note_off_c, 1, 63, 100
3, 52512, Note_on_c, 1, 63, 70
3, 52604, Note_off_c, 1, 63, 100
3, 52608, Note_on_c, 1, 63, 70
3, 52700, Note_off_c, 1, 63, 100
3, 52704, Note_on_c, 1, 63, 70
3, 52796, Note_off_c, 1, 63, 100
3, 52800, Note_on_c, 1, 63, 70
3, 52892, Note_off_c, 1, 63, 100
3, 52896, Note_on_c, 1, 63, 70
3, 52988, Note_off_c, 1, 63, 100
3, 52992, Note_on_c, 1, 63, 70
3, 53084, Note_off_c, 1, 63, 100
3, 53088, Note_on_c, 1, 63, 70
3, 53180, Note_off_c, 1, 63, 100
3, 53184, Note_on_c, 1, 63, 70
3, 53276, Note_off_c, 1, 63, 100
3, 53280, Note_on_c, 1, 63, 70
3, 53372, Note_off_c, 1, 63, 100
3, 53376, Note_on_c, 1, 63, 70
3, 53468, Note_off_c, 1, 63, 100
3, 53472, Note_on_c, 1, 63, 70
3, 53564, Note_off_c, 1, 63, 100
3, 53568, Note_on_c, 1, 63, 70
3, 53660, Note_off_c, 1, 63, 100
3, 53664, Note_on_c, 1, 63, 70
3, 53756, Note_off_c, 1, 63, 100
3, 53760, Note_on_c, 1, 63, 70
3, 53852, Note_off_c, 1, 63, 100
3, 53856, Note_on_c, 1, 63, 70
3, 53948, Note_off_c, 1, 63, 100
3, 53952, Note_on_c, 1, 63, 70
3, 54044, Note_off_c, 1, 63, 100
3, 54048, Note_on_c, 1, 63, 70
3, 54140, Note_off_c, 1, 63, 100
3, 54144, Note_on_c, 1, 63, 70
3, 54236, Note_off_c, 1, 63, 100
3, 54240, Note_on_c, 1, 63, 70
3, 54332, Note_off_c, 1, 63, 100
3, 54336, Note_on_c, 1, 63, 70
3, 54428, Note_off_c, 1, 63, 100
3, 54432, Note_on_c, 1, 63, 70
3, 54524, Note_off_c, 1, 63, 100
3, 54528, Note_on_c, 1, 63, 70
3, 54620, Note_off_c, 1, 63, 100
3, 54624, Note_on_c, 1, 63, 70
3, 54716, Note_off_c, 1, 63, 100
3, 54720, Note_on_c, 1, 63, 70
3, 54812, Note_off_c, 1, 63, 100
3, 54816, Note_on_c, 1, 63, 70
3, 54908, Note_off_c, 1, 63, 100
3, 54912, Note_on_c, 1, 63, 70
3, 55004, Note_off_c, 1, 63, 100
3, 55008, Note_on_c, 1, 63, 70
3, 55100, Note_off_c, 1, 63, 100
3, 55104, Note_on_c, 1, 63, 70
3, 55196, Note_off_c, 1, 63, 100
3, 55200, Note_on_c, 1, 63, 70
3, 55292, Note_off_c, 1, 63, 100
3, 55296, Note_on_c, 1, 56, 100
3, 55484, Note_off_c, 1, 56, 100
3, 55488, Note_on_c, 1, 55, 100
3, 55580, Note_off_c, 1, 55, 100
3, 55584, Note_on_c, 1, 54, 100
3, 55676, Note_off_c, 1, 54, 100
3, 55680, Note_on_c, 1, 53, 100
3, 55868, Note_off_c, 1, 53, 100
3, 55872, Note_on_c, 1, 53, 100
3, 55964, Note_off_c, 1, 53, 100
3, 55968, Note_on_c, 1, 52, 100
3, 56060, Note_off_c, 1, 52, 100
3, 56064, Note_on_c, 1, 51, 100
3, 56444, Note_off_c, 1, 51, 100
3, 56448, Note_on_c, 1, 49, 70
3, 56448, Note_on_c, 1, 51, 70
3, 56828, Note_off_c, 1, 49, 100
3, 56828, Note_off_c, 1, 51, 100
3, 56832, Note_on_c, 1, 48, 70
3, 57212, Note_off_c, 1, 48, 100
3, 57216, Note_on_c, 1, 49, 70
3, 57596, Note_off_c, 1, 49, 100
3, 57600, Note_on_c, 1, 51, 70
3, 57980, Note_off_c, 1, 51, 100
3, 57984, Note_on_c, 1, 39, 70
3, 58364, Note_off_c, 1, 39, 100
3, 58368, Note_on_c, 1, 44, 90
3, 59132, Note_off_c, 1, 44, 100
3, 59136, Note_on_c, 1, 39, 90
3, 59136, Note_on_c, 1, 51, 90
3, 59900, Note_off_c, 1, 39, 100
3, 59900, Note_off_c, 1, 51, 100
3, 59904, Note_on_c, 1, 44, 90
3, 60668, Note_off_c, 1, 44, 100
3, 60672, Note_on_c, 1, 39, 90
3, 60672, Note_on_c, 1, 51, 90
3, 61436, Note_off_c, 1, 39, 100
3, 61436, Note_off_c, 1, 51, 100
3, 61440, Note_on_c, 1, 44, 70
3, 61440, Note_on_c, 1, 56, 70
3, 61820, Note_off_c, 1, 44, 100
3, 61820, Note_off_c, 1, 56, 100
3, 61824, Note_on_c, 1, 49, 70
3, 61824, Note_on_c, 1, 61, 70
3, 62204, Note_off_c, 1, 49, 100
3, 62204, Note_off_c, 1, 61, 100
3, 62208, Note_on_c, 1, 46, 70
3, 62208, Note_on_c, 1, 58, 70
3, 62588, Note_off_c, 1, 46, 100
3, 62588, Note_off_c, 1, 58, 100
3, 62592, Note_on_c, 1, 51, 70
3, 62592, Note_on_c, 1, 63, 70
3, 62972, Note_off_c, 1, 51, 100
3, 62972, Note_off_c, 1, 63, 100
3, 62976, Note_on_c, 1, 60, 70
3, 63164, Note_off_c, 1, 60, 100
3, 63168, Note_on_c, 1, 61, 70
3, 63356, Note_off_c, 1, 61, 100
3, 63360, Note_on_c, 1, 63, 70
3, 63548, Note_off_c, 1, 63, 100
3, 63552, Note_on_c, 1, 51, 70
3, 63740, Note_off_c, 1, 51, 100
3, 63744, Note_on_c, 1, 44, 60
3, 63744, Note_on_c, 1, 56, 60
3, 64124, Note_off_c, 1, 44, 100
3, 64124, Note_off_c, 1, 56, 100
3, 64128, Note_on_c, 1, 44, 60
3, 64128, Note_on_c, 1, 56, 60
3, 64508, Note_off_c, 1, 44, 100
3, 64508, Note_off_c, 1, 56, 100
3, 64512, Note_on_c, 1, 44, 60
3, 64512, Note_on_c, 1, 56, 60
3, 65276, Note_off_c, 1, 44, 100
3, 65276, Note_off_c, 1, 56, 100
3, 65276, End_track
0, 0, End_of_file
