0, 0, Header, 1, 3, 384
1, 0, Start_track
1, 0, Title_t, "L.v.Beethoven 3mov - Kurfursten-Sonatas No.2 in f minor WoO 47-2\000"
1, 0, Copyright_t, "Copyright(C) 1995-2009, Suzuki Software\000"
1, 0, Sequencer_specific, 9, 67, 123, 0, 88, 70, 48, 50, 0, 1
1, 0, Text_t, "XFhd:2009/03/23:JP:Classical::::L.v.Beethoven:::Kaoru Suzuki\000"
1, 0, Text_t, "XFln:JP:\221I\222é\214ò\203\\\203i\203^\221æ2\224Ô\225Ï\203w\222Z\222² WoO 47-2\201`\221æ3\212y\217Í:L.v.\203x\201[\203g\201[\203\224\203F\203\223:::\227é\202¿\202á\202ñ:\227é\202¿\202á\202ñ\000"
1, 0, Time_signature, 2, 2, 96, 8
1, 0, Sequencer_specific, 5, 0, 0, 119, 14, 0
1, 0, Tempo, 375000
1, 10560, Tempo, 384615
1, 11136, Tempo, 400000
1, 11328, Tempo, 428571
1, 12288, Tempo, 375000
1, 22272, Tempo, 384615
1, 22848, Tempo, 400000
1, 24576, Tempo, 389610
1, 27264, Tempo, 400000
1, 27456, Tempo, 416666
1, 27648, Tempo, 389610
1, 30336, Tempo, 400000
1, 30528, Tempo, 413793
1, 30720, Tempo, 400000
1, 31872, Tempo, 410958
1, 32256, Tempo, 428571
1, 32640, Tempo, 500000
1, 33792, Tempo, 375000
1, 67392, Tempo, 382165
1, 67968, Tempo, 394736
1, 68160, Tempo, 416666
1, 69120, Tempo, 375000
1, 79488, Tempo, 384615
1, 79680, Tempo, 400000
1, 81408, Tempo, 389610
1, 84096, Tempo, 400000
1, 84288, Tempo, 416666
1, 84480, Tempo, 389610
1, 86784, Tempo, 400000
1, 87168, Tempo, 410958
1, 87360, Tempo, 428571
1, 87552, Tempo, 389610
1, 89088, Tempo, 405405
1, 89472, Tempo, 428571
1, 90624, Tempo, 375000
1, 112512, Tempo, 384615
1, 112896, Tempo, 400000
1, 113664, Tempo, 375000
1, 119424, Tempo, 384615
1, 119616, Tempo, 400000
1, 124032, Tempo, 410958
1, 124224, Tempo, 428571
1, 124608, Tempo, 400000
1, 127104, Tempo, 410958
1, 127296, Tempo, 428571
1, 127488, Tempo, 387096
1, 129024, Tempo, 400000
1, 129408, Tempo, 428571
1, 130560, Tempo, 375000
1, 159360, Tempo, 384615
1, 159552, Tempo, 400000
1, 161280, Tempo, 384615
1, 163968, Tempo, 400000
1, 164160, Tempo, 413793
1, 164352, Tempo, 384615
1, 166656, Tempo, 400000
1, 167040, Tempo, 410958
1, 167232, Tempo, 428571
1, 167424, Tempo, 400000
1, 168576, Tempo, 410958
1, 168960, Tempo, 428571
1, 169344, Tempo, 468750
1, 169728, Tempo, 441176
1, 170496, Tempo, 375000
1, 190080, Tempo, 382165
1, 190272, Tempo, 389610
1, 191808, Tempo, 400000
1, 192384, Tempo, 441176
1, 192384, End_track
2, 0, Start_track
2, 0, Title_t, "Piano Right"
2, 0, Control_c, 0, 0, 0
2, 0, Program_c, 0, 0
2, 0, Control_c, 0, 7, 100
2, 0, Control_c, 0, 10, 78
2, 0, Control_c, 0, 91, 127
2, 0, Key_signature, -4, "minor"
2, 0, Note_on_c, 0, 65, 100
2, 64, Note_on_c, 0, 67, 100
2, 124, Note_off_c, 0, 65, 100
2, 128, Note_on_c, 0, 65, 100
2, 188, Note_off_c, 0, 67, 100
2, 192, Note_on_c, 0, 64, 100
2, 252, Note_off_c, 0, 65, 100
2, 380, Note_off_c, 0, 64, 100
2, 384, Note_on_c, 0, 62, 100
2, 448, Note_on_c, 0, 64, 100
2, 508, Note_off_c, 0, 62, 100
2, 512, Note_on_c, 0, 62, 100
2, 572, Note_off_c, 0, 64, 100
2, 576, Note_on_c, 0, 60, 100
2, 636, Note_off_c, 0, 62, 100
2, 764, Note_off_c, 0, 60, 100
2, 768, Note_on_c, 0, 65, 100
2, 956, Note_off_c, 0, 65, 100
2, 960, Note_on_c, 0, 68, 100
2, 1148, Note_off_c, 0, 68, 100
2, 1152, Note_on_c, 0, 72, 100
2, 1340, Note_off_c, 0, 72, 100
2, 1344, Note_on_c, 0, 65, 100
2, 1532, Note_off_c, 0, 65, 100
2, 1536, Note_on_c, 0, 67, 100
2, 1724, Note_off_c, 0, 67, 100
2, 1728, Note_on_c, 0, 64, 100
2, 1916, Note_off_c, 0, 64, 100
2, 1920, Note_on_c, 0, 62, 100
2, 1984, Note_on_c, 0, 64, 100
2, 2044, Note_off_c, 0, 62, 100
2, 2048, Note_on_c, 0, 62, 100
2, 2108, Note_off_c, 0, 64, 100
2, 2112, Note_on_c, 0, 60, 100
2, 2172, Note_off_c, 0, 62, 100
2, 2300, Note_off_c, 0, 60, 100
2, 2304, Note_on_c, 0, 67, 100
2, 2492, Note_off_c, 0, 67, 100
2, 2496, Note_on_c, 0, 70, 100
2, 2684, Note_off_c, 0, 70, 100
2, 2688, Note_on_c, 0, 73, 100
2, 2876, Note_off_c, 0, 73, 100
2, 2880, Note_on_c, 0, 67, 100
2, 3068, Note_off_c, 0, 67, 100
2, 3072, Note_on_c, 0, 68, 100
2, 3260, Note_off_c, 0, 68, 100
2, 3264, Note_on_c, 0, 72, 100
2, 3452, Note_off_c, 0, 72, 100
2, 3456, Note_on_c, 0, 71, 100
2, 3644, Note_off_c, 0, 71, 100
2, 3648, Note_on_c, 0, 72, 100
2, 3836, Note_off_c, 0, 72, 100
2, 3840, Note_on_c, 0, 70, 100
2, 3904, Note_on_c, 0, 72, 100
2, 3964, Note_off_c, 0, 70, 100
2, 3968, Note_on_c, 0, 70, 100
2, 4028, Note_off_c, 0, 72, 100
2, 4032, Note_on_c, 0, 68, 100
2, 4092, Note_off_c, 0, 70, 100
2, 4220, Note_off_c, 0, 68, 100
2, 4224, Note_on_c, 0, 67, 100
2, 4288, Note_on_c, 0, 68, 100
2, 4348, Note_off_c, 0, 67, 100
2, 4352, Note_on_c, 0, 67, 100
2, 4412, Note_off_c, 0, 68, 100
2, 4416, Note_on_c, 0, 65, 100
2, 4476, Note_off_c, 0, 67, 100
2, 4604, Note_off_c, 0, 65, 100
2, 4608, Note_on_c, 0, 72, 100
2, 4796, Note_off_c, 0, 72, 100
2, 4800, Note_on_c, 0, 60, 100
2, 4988, Note_off_c, 0, 60, 100
2, 4992, Note_on_c, 0, 60, 100
2, 5084, Note_off_c, 0, 60, 100
2, 5088, Note_on_c, 0, 59, 100
2, 5180, Note_off_c, 0, 59, 100
2, 5184, Note_on_c, 0, 60, 100
2, 5276, Note_off_c, 0, 60, 100
2, 5280, Note_on_c, 0, 59, 100
2, 5372, Note_off_c, 0, 59, 100
2, 5376, Note_on_c, 0, 60, 100
2, 5564, Note_off_c, 0, 60, 100
2, 5568, Note_on_c, 0, 62, 100
2, 5756, Note_off_c, 0, 62, 100
2, 5760, Note_on_c, 0, 63, 100
2, 5948, Note_off_c, 0, 63, 100
2, 5952, Note_on_c, 0, 64, 100
2, 6140, Note_off_c, 0, 64, 100
2, 6144, Note_on_c, 0, 65, 100
2, 6208, Note_on_c, 0, 67, 100
2, 6268, Note_off_c, 0, 65, 100
2, 6272, Note_on_c, 0, 65, 100
2, 6332, Note_off_c, 0, 67, 100
2, 6336, Note_on_c, 0, 64, 100
2, 6396, Note_off_c, 0, 65, 100
2, 6524, Note_off_c, 0, 64, 100
2, 6528, Note_on_c, 0, 62, 100
2, 6592, Note_on_c, 0, 64, 100
2, 6652, Note_off_c, 0, 62, 100
2, 6656, Note_on_c, 0, 62, 100
2, 6716, Note_off_c, 0, 64, 100
2, 6720, Note_on_c, 0, 60, 100
2, 6780, Note_off_c, 0, 62, 100
2, 6908, Note_off_c, 0, 60, 100
2, 6912, Note_on_c, 0, 65, 100
2, 7100, Note_off_c, 0, 65, 100
2, 7104, Note_on_c, 0, 68, 100
2, 7292, Note_off_c, 0, 68, 100
2, 7296, Note_on_c, 0, 72, 100
2, 7484, Note_off_c, 0, 72, 100
2, 7488, Note_on_c, 0, 65, 100
2, 7676, Note_off_c, 0, 65, 100
2, 7680, Note_on_c, 0, 67, 100
2, 7868, Note_off_c, 0, 67, 100
2, 7872, Note_on_c, 0, 64, 100
2, 8060, Note_off_c, 0, 64, 100
2, 8064, Note_on_c, 0, 62, 100
2, 8128, Note_on_c, 0, 64, 100
2, 8188, Note_off_c, 0, 62, 100
2, 8192, Note_on_c, 0, 62, 100
2, 8252, Note_off_c, 0, 64, 100
2, 8256, Note_on_c, 0, 60, 100
2, 8316, Note_off_c, 0, 62, 100
2, 8444, Note_off_c, 0, 60, 100
2, 8448, Note_on_c, 0, 67, 100
2, 8636, Note_off_c, 0, 67, 100
2, 8640, Note_on_c, 0, 70, 100
2, 8828, Note_off_c, 0, 70, 100
2, 8832, Note_on_c, 0, 73, 100
2, 9020, Note_off_c, 0, 73, 100
2, 9024, Note_on_c, 0, 67, 100
2, 9212, Note_off_c, 0, 67, 100
2, 9216, Note_on_c, 0, 72, 100
2, 9404, Note_off_c, 0, 72, 100
2, 9408, Note_on_c, 0, 72, 100
2, 9788, Note_off_c, 0, 72, 100
2, 9792, Note_on_c, 0, 67, 100
2, 9792, Note_on_c, 0, 70, 100
2, 9980, Note_off_c, 0, 67, 100
2, 9980, Note_off_c, 0, 70, 100
2, 9984, Note_on_c, 0, 65, 100
2, 9984, Note_on_c, 0, 68, 100
2, 10172, Note_off_c, 0, 65, 100
2, 10172, Note_off_c, 0, 68, 100
2, 10176, Note_on_c, 0, 65, 100
2, 10176, Note_on_c, 0, 68, 100
2, 10556, Note_off_c, 0, 65, 100
2, 10556, Note_off_c, 0, 68, 100
2, 10560, Note_on_c, 0, 64, 100
2, 10560, Note_on_c, 0, 67, 100
2, 10748, Note_off_c, 0, 64, 100
2, 10748, Note_off_c, 0, 67, 100
2, 10752, Note_on_c, 0, 58, 100
2, 10752, Note_on_c, 0, 67, 100
2, 11516, Note_off_c, 0, 58, 100
2, 11516, Note_off_c, 0, 67, 100
2, 11520, Note_on_c, 0, 56, 100
2, 11520, Note_on_c, 0, 65, 100
2, 11900, Note_off_c, 0, 56, 100
2, 11900, Note_off_c, 0, 65, 100
2, 12288, Note_on_c, 0, 77, 100
2, 12352, Note_on_c, 0, 79, 100
2, 12412, Note_off_c, 0, 77, 100
2, 12416, Note_on_c, 0, 77, 100
2, 12476, Note_off_c, 0, 79, 100
2, 12480, Note_on_c, 0, 76, 100
2, 12540, Note_off_c, 0, 77, 100
2, 12668, Note_off_c, 0, 76, 100
2, 12672, Note_on_c, 0, 74, 100
2, 12736, Note_on_c, 0, 76, 100
2, 12796, Note_off_c, 0, 74, 100
2, 12800, Note_on_c, 0, 74, 100
2, 12860, Note_off_c, 0, 76, 100
2, 12864, Note_on_c, 0, 72, 100
2, 12924, Note_off_c, 0, 74, 100
2, 13052, Note_off_c, 0, 72, 100
2, 13056, Note_on_c, 0, 77, 100
2, 13244, Note_off_c, 0, 77, 100
2, 13248, Note_on_c, 0, 80, 100
2, 13436, Note_off_c, 0, 80, 100
2, 13440, Note_on_c, 0, 84, 100
2, 13628, Note_off_c, 0, 84, 100
2, 13632, Note_on_c, 0, 77, 100
2, 13820, Note_off_c, 0, 77, 100
2, 13824, Note_on_c, 0, 79, 100
2, 14012, Note_off_c, 0, 79, 100
2, 14016, Note_on_c, 0, 76, 100
2, 14204, Note_off_c, 0, 76, 100
2, 14208, Note_on_c, 0, 74, 100
2, 14272, Note_on_c, 0, 76, 100
2, 14332, Note_off_c, 0, 74, 100
2, 14336, Note_on_c, 0, 74, 100
2, 14396, Note_off_c, 0, 76, 100
2, 14400, Note_on_c, 0, 72, 100
2, 14460, Note_off_c, 0, 74, 100
2, 14588, Note_off_c, 0, 72, 100
2, 14592, Note_on_c, 0, 79, 100
2, 14780, Note_off_c, 0, 79, 100
2, 14784, Note_on_c, 0, 82, 100
2, 14972, Note_off_c, 0, 82, 100
2, 14976, Note_on_c, 0, 85, 100
2, 15164, Note_off_c, 0, 85, 100
2, 15168, Note_on_c, 0, 79, 100
2, 15356, Note_off_c, 0, 79, 100
2, 15360, Note_on_c, 0, 80, 100
2, 15740, Note_off_c, 0, 80, 100
2, 15744, Note_on_c, 0, 80, 100
2, 15808, Note_on_c, 0, 82, 100
2, 15868, Note_off_c, 0, 80, 100
2, 15872, Note_on_c, 0, 80, 100
2, 15932, Note_off_c, 0, 82, 100
2, 15936, Note_on_c, 0, 84, 100
2, 15996, Note_off_c, 0, 80, 100
2, 16124, Note_off_c, 0, 84, 100
2, 16128, Note_on_c, 0, 82, 100
2, 16316, Note_off_c, 0, 82, 100
2, 16320, Note_on_c, 0, 80, 100
2, 16508, Note_off_c, 0, 80, 100
2, 16512, Note_on_c, 0, 79, 100
2, 16700, Note_off_c, 0, 79, 100
2, 16704, Note_on_c, 0, 77, 100
2, 16892, Note_off_c, 0, 77, 100
2, 16896, Note_on_c, 0, 77, 100
2, 17660, Note_off_c, 0, 77, 100
2, 17664, Note_on_c, 0, 76, 100
2, 18044, Note_off_c, 0, 76, 100
2, 18432, Note_on_c, 0, 77, 100
2, 18496, Note_on_c, 0, 79, 100
2, 18556, Note_off_c, 0, 77, 100
2, 18560, Note_on_c, 0, 77, 100
2, 18620, Note_off_c, 0, 79, 100
2, 18624, Note_on_c, 0, 76, 100
2, 18684, Note_off_c, 0, 77, 100
2, 18812, Note_off_c, 0, 76, 100
2, 18816, Note_on_c, 0, 74, 100
2, 18880, Note_on_c, 0, 76, 100
2, 18940, Note_off_c, 0, 74, 100
2, 18944, Note_on_c, 0, 74, 100
2, 19004, Note_off_c, 0, 76, 100
2, 19008, Note_on_c, 0, 72, 100
2, 19068, Note_off_c, 0, 74, 100
2, 19196, Note_off_c, 0, 72, 100
2, 19200, Note_on_c, 0, 72, 100
2, 19388, Note_off_c, 0, 72, 100
2, 19392, Note_on_c, 0, 77, 100
2, 19580, Note_off_c, 0, 77, 100
2, 19584, Note_on_c, 0, 77, 100
2, 19772, Note_off_c, 0, 77, 100
2, 19776, Note_on_c, 0, 80, 100
2, 19964, Note_off_c, 0, 80, 100
2, 19968, Note_on_c, 0, 79, 100
2, 20156, Note_off_c, 0, 79, 100
2, 20160, Note_on_c, 0, 76, 100
2, 20348, Note_off_c, 0, 76, 100
2, 20352, Note_on_c, 0, 74, 100
2, 20416, Note_on_c, 0, 75, 100
2, 20476, Note_off_c, 0, 74, 100
2, 20480, Note_on_c, 0, 74, 100
2, 20540, Note_off_c, 0, 75, 100
2, 20544, Note_on_c, 0, 72, 100
2, 20604, Note_off_c, 0, 74, 100
2, 20732, Note_off_c, 0, 72, 100
2, 20736, Note_on_c, 0, 72, 100
2, 20924, Note_off_c, 0, 72, 100
2, 20928, Note_on_c, 0, 79, 100
2, 21116, Note_off_c, 0, 79, 100
2, 21120, Note_on_c, 0, 79, 100
2, 21308, Note_off_c, 0, 79, 100
2, 21312, Note_on_c, 0, 82, 100
2, 21500, Note_off_c, 0, 82, 100
2, 21504, Note_on_c, 0, 72, 100
2, 21504, Note_on_c, 0, 80, 100
2, 21692, Note_off_c, 0, 72, 100
2, 21692, Note_off_c, 0, 80, 100
2, 21696, Note_on_c, 0, 72, 100
2, 21696, Note_on_c, 0, 80, 100
2, 22076, Note_off_c, 0, 72, 100
2, 22076, Note_off_c, 0, 80, 100
2, 22080, Note_on_c, 0, 70, 100
2, 22080, Note_on_c, 0, 79, 100
2, 22268, Note_off_c, 0, 70, 100
2, 22268, Note_off_c, 0, 79, 100
2, 22272, Note_on_c, 0, 68, 100
2, 22272, Note_on_c, 0, 77, 100
2, 22460, Note_off_c, 0, 68, 100
2, 22460, Note_off_c, 0, 77, 100
2, 22464, Note_on_c, 0, 68, 100
2, 22464, Note_on_c, 0, 77, 100
2, 22844, Note_off_c, 0, 68, 100
2, 22844, Note_off_c, 0, 77, 100
2, 22848, Note_on_c, 0, 67, 100
2, 22848, Note_on_c, 0, 76, 100
2, 23036, Note_off_c, 0, 67, 100
2, 23036, Note_off_c, 0, 76, 100
2, 23040, Note_on_c, 0, 68, 100
2, 23040, Note_on_c, 0, 77, 100
2, 23420, Note_off_c, 0, 68, 100
2, 23420, Note_off_c, 0, 77, 100
2, 24192, Note_on_c, 0, 63, 70
2, 24572, Note_off_c, 0, 63, 100
2, 24576, Note_on_c, 0, 68, 70
2, 24764, Note_off_c, 0, 68, 100
2, 24768, Note_on_c, 0, 67, 70
2, 24956, Note_off_c, 0, 67, 100
2, 24960, Note_on_c, 0, 65, 70
2, 25024, Note_on_c, 0, 67, 70
2, 25084, Note_off_c, 0, 65, 100
2, 25088, Note_on_c, 0, 65, 70
2, 25148, Note_off_c, 0, 67, 100
2, 25152, Note_on_c, 0, 63, 70
2, 25212, Note_off_c, 0, 65, 100
2, 25340, Note_off_c, 0, 63, 100
2, 25344, Note_on_c, 0, 62, 70
2, 25532, Note_off_c, 0, 62, 100
2, 25536, Note_on_c, 0, 63, 70
2, 25724, Note_off_c, 0, 63, 100
2, 25728, Note_on_c, 0, 65, 70
2, 25916, Note_off_c, 0, 65, 100
2, 25920, Note_on_c, 0, 63, 70
2, 26108, Note_off_c, 0, 63, 100
2, 26112, Note_on_c, 0, 61, 100
2, 26112, Note_on_c, 0, 63, 100
2, 26876, Note_off_c, 0, 61, 100
2, 26876, Note_off_c, 0, 63, 100
2, 26880, Note_on_c, 0, 61, 100
2, 26880, Note_on_c, 0, 63, 100
2, 27644, Note_off_c, 0, 61, 100
2, 27644, Note_off_c, 0, 63, 100
2, 27648, Note_on_c, 0, 60, 70
2, 27648, Note_on_c, 0, 68, 70
2, 27836, Note_off_c, 0, 60, 100
2, 27836, Note_off_c, 0, 68, 100
2, 27840, Note_on_c, 0, 67, 70
2, 28028, Note_off_c, 0, 67, 100
2, 28032, Note_on_c, 0, 65, 70
2, 28096, Note_on_c, 0, 67, 70
2, 28156, Note_off_c, 0, 65, 100
2, 28160, Note_on_c, 0, 65, 70
2, 28220, Note_off_c, 0, 67, 100
2, 28224, Note_on_c, 0, 63, 70
2, 28284, Note_off_c, 0, 65, 100
2, 28412, Note_off_c, 0, 63, 100
2, 28416, Note_on_c, 0, 62, 70
2, 28604, Note_off_c, 0, 62, 100
2, 28608, Note_on_c, 0, 63, 70
2, 28796, Note_off_c, 0, 63, 100
2, 28800, Note_on_c, 0, 65, 70
2, 28988, Note_off_c, 0, 65, 100
2, 28992, Note_on_c, 0, 63, 70
2, 29180, Note_off_c, 0, 63, 100
2, 29184, Note_on_c, 0, 61, 100
2, 29184, Note_on_c, 0, 63, 100
2, 29948, Note_off_c, 0, 61, 100
2, 29948, Note_off_c, 0, 63, 100
2, 29952, Note_on_c, 0, 61, 100
2, 29952, Note_on_c, 0, 63, 100
2, 30716, Note_off_c, 0, 61, 100
2, 30716, Note_off_c, 0, 63, 100
2, 30720, Note_on_c, 0, 60, 100
2, 30720, Note_on_c, 0, 68, 100
2, 30908, Note_off_c, 0, 60, 100
2, 30908, Note_off_c, 0, 68, 100
2, 30912, Note_on_c, 0, 68, 100
2, 31292, Note_off_c, 0, 68, 100
2, 31296, Note_on_c, 0, 63, 100
2, 31484, Note_off_c, 0, 63, 100
2, 31488, Note_on_c, 0, 65, 100
2, 31676, Note_off_c, 0, 65, 100
2, 31680, Note_on_c, 0, 58, 100
2, 31680, Note_on_c, 0, 70, 100
2, 32060, Note_off_c, 0, 58, 100
2, 32060, Note_off_c, 0, 70, 100
2, 32064, Note_on_c, 0, 58, 92
2, 32064, Note_on_c, 0, 68, 92
2, 32252, Note_off_c, 0, 58, 100
2, 32252, Note_off_c, 0, 68, 100
2, 32256, Note_on_c, 0, 60, 87
2, 32256, Note_on_c, 0, 68, 87
2, 33020, Note_off_c, 0, 60, 100
2, 33020, Note_off_c, 0, 68, 100
2, 33024, Note_on_c, 0, 67, 70
2, 33024, Note_on_c, 0, 58, 70
2, 33404, Note_off_c, 0, 67, 100
2, 33404, Note_off_c, 0, 58, 100
2, 33888, Note_on_c, 0, 63, 110
2, 33984, Note_on_c, 0, 67, 110
2, 34076, Note_off_c, 0, 63, 100
2, 34080, Note_on_c, 0, 70, 110
2, 34172, Note_off_c, 0, 67, 100
2, 34176, Note_on_c, 0, 73, 110
2, 34268, Note_off_c, 0, 70, 100
2, 34272, Note_on_c, 0, 67, 110
2, 34364, Note_off_c, 0, 73, 100
2, 34368, Note_on_c, 0, 70, 110
2, 34460, Note_off_c, 0, 67, 100
2, 34464, Note_on_c, 0, 73, 110
2, 34556, Note_off_c, 0, 70, 100
2, 34560, Note_on_c, 0, 79, 110
2, 34652, Note_off_c, 0, 73, 100
2, 34656, Note_on_c, 0, 70, 110
2, 34748, Note_off_c, 0, 79, 100
2, 34752, Note_on_c, 0, 73, 110
2, 34844, Note_off_c, 0, 70, 100
2, 34848, Note_on_c, 0, 79, 110
2, 34940, Note_off_c, 0, 73, 100
2, 34944, Note_on_c, 0, 82, 110
2, 35036, Note_off_c, 0, 79, 100
2, 35040, Note_on_c, 0, 73, 110
2, 35132, Note_off_c, 0, 82, 100
2, 35136, Note_on_c, 0, 79, 110
2, 35228, Note_off_c, 0, 73, 100
2, 35232, Note_on_c, 0, 82, 110
2, 35324, Note_off_c, 0, 79, 100
2, 35324, Note_off_c, 0, 82, 100
2, 35328, Note_on_c, 0, 85, 110
2, 35328, Note_on_c, 0, 82, 110
2, 35516, Note_off_c, 0, 85, 100
2, 35516, Note_off_c, 0, 82, 100
2, 35520, Note_on_c, 0, 84, 110
2, 35520, Note_on_c, 0, 80, 110
2, 35708, Note_off_c, 0, 84, 100
2, 35708, Note_off_c, 0, 80, 100
2, 35712, Note_on_c, 0, 82, 110
2, 35712, Note_on_c, 0, 79, 110
2, 35900, Note_off_c, 0, 82, 100
2, 35900, Note_off_c, 0, 79, 100
2, 35904, Note_on_c, 0, 80, 110
2, 35904, Note_on_c, 0, 77, 110
2, 36092, Note_off_c, 0, 80, 100
2, 36092, Note_off_c, 0, 77, 100
2, 36096, Note_on_c, 0, 79, 110
2, 36096, Note_on_c, 0, 75, 110
2, 36284, Note_off_c, 0, 79, 100
2, 36284, Note_off_c, 0, 75, 100
2, 36288, Note_on_c, 0, 77, 110
2, 36288, Note_on_c, 0, 73, 110
2, 36476, Note_off_c, 0, 77, 100
2, 36476, Note_off_c, 0, 73, 100
2, 36480, Note_on_c, 0, 75, 110
2, 36480, Note_on_c, 0, 72, 110
2, 36668, Note_off_c, 0, 75, 100
2, 36668, Note_off_c, 0, 72, 100
2, 36672, Note_on_c, 0, 73, 110
2, 36672, Note_on_c, 0, 70, 110
2, 36860, Note_off_c, 0, 73, 100
2, 36860, Note_off_c, 0, 70, 100
2, 36864, Note_on_c, 0, 72, 110
2, 36960, Note_on_c, 0, 80, 110
2, 37052, Note_off_c, 0, 72, 100
2, 37056, Note_on_c, 0, 75, 110
2, 37148, Note_off_c, 0, 80, 100
2, 37152, Note_on_c, 0, 72, 110
2, 37244, Note_off_c, 0, 75, 100
2, 37248, Note_on_c, 0, 68, 110
2, 37340, Note_off_c, 0, 72, 100
2, 37344, Note_on_c, 0, 75, 110
2, 37436, Note_off_c, 0, 68, 100
2, 37440, Note_on_c, 0, 72, 110
2, 37532, Note_off_c, 0, 75, 100
2, 37536, Note_on_c, 0, 68, 110
2, 37628, Note_off_c, 0, 72, 100
2, 37632, Note_on_c, 0, 63, 110
2, 37724, Note_off_c, 0, 68, 100
2, 37728, Note_on_c, 0, 72, 110
2, 37820, Note_off_c, 0, 63, 100
2, 37824, Note_on_c, 0, 68, 110
2, 37916, Note_off_c, 0, 72, 100
2, 37920, Note_on_c, 0, 63, 110
2, 38012, Note_off_c, 0, 68, 100
2, 38016, Note_on_c, 0, 60, 110
2, 38108, Note_off_c, 0, 63, 100
2, 38112, Note_on_c, 0, 68, 110
2, 38204, Note_off_c, 0, 60, 100
2, 38208, Note_on_c, 0, 63, 110
2, 38300, Note_off_c, 0, 68, 100
2, 38304, Note_on_c, 0, 60, 110
2, 38396, Note_off_c, 0, 63, 100
2, 38396, Note_off_c, 0, 60, 100
2, 38400, Note_on_c, 0, 56, 110
2, 39164, Note_off_c, 0, 56, 100
2, 40032, Note_on_c, 0, 63, 110
2, 40128, Note_on_c, 0, 67, 110
2, 40220, Note_off_c, 0, 63, 100
2, 40224, Note_on_c, 0, 70, 110
2, 40316, Note_off_c, 0, 67, 100
2, 40320, Note_on_c, 0, 73, 110
2, 40412, Note_off_c, 0, 70, 100
2, 40416, Note_on_c, 0, 67, 110
2, 40508, Note_off_c, 0, 73, 100
2, 40512, Note_on_c, 0, 70, 110
2, 40604, Note_off_c, 0, 67, 100
2, 40608, Note_on_c, 0, 73, 110
2, 40700, Note_off_c, 0, 70, 100
2, 40704, Note_on_c, 0, 79, 110
2, 40796, Note_off_c, 0, 73, 100
2, 40800, Note_on_c, 0, 70, 110
2, 40892, Note_off_c, 0, 79, 100
2, 40896, Note_on_c, 0, 73, 110
2, 40988, Note_off_c, 0, 70, 100
2, 40992, Note_on_c, 0, 79, 110
2, 41084, Note_off_c, 0, 73, 100
2, 41088, Note_on_c, 0, 82, 110
2, 41180, Note_off_c, 0, 79, 100
2, 41184, Note_on_c, 0, 73, 110
2, 41276, Note_off_c, 0, 82, 100
2, 41280, Note_on_c, 0, 79, 110
2, 41372, Note_off_c, 0, 73, 100
2, 41376, Note_on_c, 0, 82, 110
2, 41468, Note_off_c, 0, 79, 100
2, 41468, Note_off_c, 0, 82, 100
2, 41472, Note_on_c, 0, 85, 110
2, 41472, Note_on_c, 0, 82, 110
2, 41660, Note_off_c, 0, 85, 100
2, 41660, Note_off_c, 0, 82, 100
2, 41664, Note_on_c, 0, 84, 110
2, 41664, Note_on_c, 0, 80, 110
2, 41852, Note_off_c, 0, 84, 100
2, 41852, Note_off_c, 0, 80, 100
2, 41856, Note_on_c, 0, 82, 110
2, 41856, Note_on_c, 0, 79, 110
2, 42044, Note_off_c, 0, 82, 100
2, 42044, Note_off_c, 0, 79, 100
2, 42048, Note_on_c, 0, 80, 110
2, 42048, Note_on_c, 0, 77, 110
2, 42236, Note_off_c, 0, 80, 100
2, 42236, Note_off_c, 0, 77, 100
2, 42240, Note_on_c, 0, 79, 110
2, 42240, Note_on_c, 0, 75, 110
2, 42428, Note_off_c, 0, 79, 100
2, 42428, Note_off_c, 0, 75, 100
2, 42432, Note_on_c, 0, 77, 110
2, 42432, Note_on_c, 0, 73, 110
2, 42620, Note_off_c, 0, 77, 100
2, 42620, Note_off_c, 0, 73, 100
2, 42624, Note_on_c, 0, 75, 110
2, 42624, Note_on_c, 0, 72, 110
2, 42812, Note_off_c, 0, 75, 100
2, 42812, Note_off_c, 0, 72, 100
2, 42816, Note_on_c, 0, 73, 110
2, 42816, Note_on_c, 0, 70, 110
2, 43004, Note_off_c, 0, 73, 100
2, 43004, Note_off_c, 0, 70, 100
2, 43008, Note_on_c, 0, 72, 110
2, 43104, Note_on_c, 0, 80, 110
2, 43196, Note_off_c, 0, 72, 100
2, 43200, Note_on_c, 0, 75, 110
2, 43292, Note_off_c, 0, 80, 100
2, 43296, Note_on_c, 0, 72, 110
2, 43388, Note_off_c, 0, 75, 100
2, 43392, Note_on_c, 0, 68, 110
2, 43484, Note_off_c, 0, 72, 100
2, 43488, Note_on_c, 0, 75, 110
2, 43580, Note_off_c, 0, 68, 100
2, 43584, Note_on_c, 0, 72, 110
2, 43676, Note_off_c, 0, 75, 100
2, 43680, Note_on_c, 0, 68, 110
2, 43772, Note_off_c, 0, 72, 100
2, 43776, Note_on_c, 0, 63, 110
2, 43868, Note_off_c, 0, 68, 100
2, 43872, Note_on_c, 0, 72, 110
2, 43964, Note_off_c, 0, 63, 100
2, 43968, Note_on_c, 0, 68, 110
2, 44060, Note_off_c, 0, 72, 100
2, 44064, Note_on_c, 0, 63, 110
2, 44156, Note_off_c, 0, 68, 100
2, 44160, Note_on_c, 0, 60, 110
2, 44252, Note_off_c, 0, 63, 100
2, 44256, Note_on_c, 0, 68, 110
2, 44348, Note_off_c, 0, 60, 100
2, 44352, Note_on_c, 0, 63, 110
2, 44444, Note_off_c, 0, 68, 100
2, 44448, Note_on_c, 0, 60, 110
2, 44540, Note_off_c, 0, 63, 100
2, 44540, Note_off_c, 0, 60, 100
2, 44544, Note_on_c, 0, 56, 110
2, 45308, Note_off_c, 0, 56, 100
2, 45312, Note_on_c, 0, 78, 110
2, 45404, Note_off_c, 0, 78, 100
2, 45408, Note_on_c, 0, 77, 110
2, 45500, Note_off_c, 0, 77, 100
2, 45504, Note_on_c, 0, 75, 110
2, 45596, Note_off_c, 0, 75, 100
2, 45600, Note_on_c, 0, 73, 110
2, 45692, Note_off_c, 0, 73, 100
2, 45696, Note_on_c, 0, 72, 110
2, 45788, Note_off_c, 0, 72, 100
2, 45792, Note_on_c, 0, 70, 110
2, 45884, Note_off_c, 0, 70, 100
2, 45888, Note_on_c, 0, 68, 110
2, 45980, Note_off_c, 0, 68, 100
2, 45984, Note_on_c, 0, 66, 110
2, 46076, Note_off_c, 0, 66, 100
2, 46080, Note_on_c, 0, 65, 110
2, 46268, Note_off_c, 0, 65, 100
2, 46272, Note_on_c, 0, 80, 110
2, 46272, Note_on_c, 0, 77, 110
2, 46460, Note_off_c, 0, 80, 100
2, 46460, Note_off_c, 0, 77, 100
2, 46464, Note_on_c, 0, 79, 110
2, 46464, Note_on_c, 0, 75, 110
2, 46652, Note_off_c, 0, 79, 100
2, 46652, Note_off_c, 0, 75, 100
2, 46656, Note_on_c, 0, 77, 110
2, 46656, Note_on_c, 0, 73, 110
2, 46844, Note_off_c, 0, 77, 100
2, 46844, Note_off_c, 0, 73, 100
2, 47040, Note_on_c, 0, 77, 110
2, 47040, Note_on_c, 0, 73, 110
2, 47228, Note_off_c, 0, 77, 100
2, 47228, Note_off_c, 0, 73, 100
2, 47232, Note_on_c, 0, 75, 110
2, 47232, Note_on_c, 0, 72, 110
2, 47420, Note_off_c, 0, 75, 100
2, 47420, Note_off_c, 0, 72, 100
2, 47424, Note_on_c, 0, 73, 110
2, 47424, Note_on_c, 0, 70, 110
2, 47612, Note_off_c, 0, 73, 100
2, 47612, Note_off_c, 0, 70, 100
2, 47616, Note_on_c, 0, 72, 110
2, 47616, Note_on_c, 0, 68, 110
2, 47804, Note_off_c, 0, 72, 100
2, 47804, Note_off_c, 0, 68, 100
2, 47808, Note_on_c, 0, 75, 110
2, 47808, Note_on_c, 0, 72, 110
2, 47996, Note_off_c, 0, 75, 100
2, 47996, Note_off_c, 0, 72, 100
2, 48000, Note_on_c, 0, 72, 110
2, 48000, Note_on_c, 0, 68, 110
2, 48188, Note_off_c, 0, 72, 100
2, 48188, Note_off_c, 0, 68, 100
2, 48192, Note_on_c, 0, 75, 110
2, 48192, Note_on_c, 0, 72, 110
2, 48380, Note_off_c, 0, 75, 100
2, 48380, Note_off_c, 0, 72, 100
2, 48384, Note_on_c, 0, 75, 110
2, 48384, Note_on_c, 0, 72, 110
2, 48572, Note_off_c, 0, 75, 100
2, 48572, Note_off_c, 0, 72, 100
2, 48576, Note_on_c, 0, 73, 110
2, 48576, Note_on_c, 0, 70, 110
2, 48764, Note_off_c, 0, 73, 100
2, 48764, Note_off_c, 0, 70, 100
2, 48768, Note_on_c, 0, 72, 110
2, 48768, Note_on_c, 0, 68, 110
2, 48956, Note_off_c, 0, 72, 100
2, 48956, Note_off_c, 0, 68, 100
2, 48960, Note_on_c, 0, 70, 110
2, 48960, Note_on_c, 0, 67, 110
2, 49148, Note_off_c, 0, 70, 100
2, 49148, Note_off_c, 0, 67, 100
2, 49152, Note_on_c, 0, 68, 110
2, 49916, Note_off_c, 0, 68, 100
2, 49920, Note_on_c, 0, 78, 110
2, 50012, Note_off_c, 0, 78, 100
2, 50016, Note_on_c, 0, 77, 110
2, 50108, Note_off_c, 0, 77, 100
2, 50112, Note_on_c, 0, 75, 110
2, 50204, Note_off_c, 0, 75, 100
2, 50208, Note_on_c, 0, 73, 110
2, 50300, Note_off_c, 0, 73, 100
2, 50304, Note_on_c, 0, 72, 110
2, 50396, Note_off_c, 0, 72, 100
2, 50400, Note_on_c, 0, 70, 110
2, 50492, Note_off_c, 0, 70, 100
2, 50496, Note_on_c, 0, 68, 110
2, 50588, Note_off_c, 0, 68, 100
2, 50592, Note_on_c, 0, 66, 110
2, 50684, Note_off_c, 0, 66, 100
2, 50688, Note_on_c, 0, 65, 110
2, 50876, Note_off_c, 0, 65, 100
2, 50880, Note_on_c, 0, 80, 110
2, 50880, Note_on_c, 0, 77, 110
2, 51068, Note_off_c, 0, 80, 100
2, 51068, Note_off_c, 0, 77, 100
2, 51072, Note_on_c, 0, 79, 110
2, 51072, Note_on_c, 0, 75, 110
2, 51260, Note_off_c, 0, 79, 100
2, 51260, Note_off_c, 0, 75, 100
2, 51264, Note_on_c, 0, 77, 110
2, 51264, Note_on_c, 0, 73, 110
2, 51452, Note_off_c, 0, 77, 100
2, 51452, Note_off_c, 0, 73, 100
2, 51648, Note_on_c, 0, 77, 110
2, 51648, Note_on_c, 0, 73, 110
2, 51836, Note_off_c, 0, 77, 100
2, 51836, Note_off_c, 0, 73, 100
2, 51840, Note_on_c, 0, 75, 110
2, 51840, Note_on_c, 0, 72, 110
2, 52028, Note_off_c, 0, 75, 100
2, 52028, Note_off_c, 0, 72, 100
2, 52032, Note_on_c, 0, 73, 110
2, 52032, Note_on_c, 0, 70, 110
2, 52220, Note_off_c, 0, 73, 100
2, 52220, Note_off_c, 0, 70, 100
2, 52224, Note_on_c, 0, 72, 110
2, 52224, Note_on_c, 0, 68, 110
2, 52412, Note_off_c, 0, 72, 100
2, 52412, Note_off_c, 0, 68, 100
2, 52416, Note_on_c, 0, 75, 110
2, 52416, Note_on_c, 0, 72, 110
2, 52604, Note_off_c, 0, 75, 100
2, 52604, Note_off_c, 0, 72, 100
2, 52608, Note_on_c, 0, 72, 110
2, 52608, Note_on_c, 0, 68, 110
2, 52796, Note_off_c, 0, 72, 100
2, 52796, Note_off_c, 0, 68, 100
2, 52800, Note_on_c, 0, 75, 110
2, 52800, Note_on_c, 0, 72, 110
2, 52988, Note_off_c, 0, 75, 100
2, 52988, Note_off_c, 0, 72, 100
2, 52992, Note_on_c, 0, 75, 110
2, 52992, Note_on_c, 0, 72, 110
2, 53180, Note_off_c, 0, 75, 100
2, 53180, Note_off_c, 0, 72, 100
2, 53184, Note_on_c, 0, 73, 110
2, 53184, Note_on_c, 0, 70, 110
2, 53372, Note_off_c, 0, 73, 100
2, 53372, Note_off_c, 0, 70, 100
2, 53376, Note_on_c, 0, 72, 110
2, 53376, Note_on_c, 0, 68, 110
2, 53564, Note_off_c, 0, 72, 100
2, 53564, Note_off_c, 0, 68, 100
2, 53568, Note_on_c, 0, 70, 110
2, 53568, Note_on_c, 0, 67, 110
2, 53756, Note_off_c, 0, 70, 100
2, 53756, Note_off_c, 0, 67, 100
2, 53760, Note_on_c, 0, 68, 110
2, 53856, Note_on_c, 0, 80, 110
2, 53948, Note_off_c, 0, 68, 100
2, 53952, Note_on_c, 0, 75, 110
2, 54044, Note_off_c, 0, 80, 100
2, 54048, Note_on_c, 0, 72, 110
2, 54140, Note_off_c, 0, 75, 100
2, 54144, Note_on_c, 0, 68, 110
2, 54236, Note_off_c, 0, 72, 100
2, 54240, Note_on_c, 0, 75, 110
2, 54332, Note_off_c, 0, 68, 100
2, 54336, Note_on_c, 0, 72, 110
2, 54428, Note_off_c, 0, 75, 100
2, 54432, Note_on_c, 0, 68, 110
2, 54524, Note_off_c, 0, 72, 100
2, 54528, Note_on_c, 0, 63, 110
2, 54620, Note_off_c, 0, 68, 100
2, 54624, Note_on_c, 0, 72, 110
2, 54716, Note_off_c, 0, 63, 100
2, 54720, Note_on_c, 0, 68, 110
2, 54812, Note_off_c, 0, 72, 100
2, 54816, Note_on_c, 0, 63, 110
2, 54908, Note_off_c, 0, 68, 100
2, 54912, Note_on_c, 0, 60, 110
2, 55004, Note_off_c, 0, 63, 100
2, 55008, Note_on_c, 0, 68, 110
2, 55100, Note_off_c, 0, 60, 100
2, 55104, Note_on_c, 0, 63, 110
2, 55196, Note_off_c, 0, 68, 100
2, 55200, Note_on_c, 0, 60, 110
2, 55292, Note_off_c, 0, 63, 100
2, 55292, Note_off_c, 0, 60, 100
2, 55296, Note_on_c, 0, 56, 110
2, 55676, Note_off_c, 0, 56, 100
2, 55680, Note_on_c, 0, 56, 110
2, 56060, Note_off_c, 0, 56, 100
2, 56064, Note_on_c, 0, 56, 110
2, 56828, Note_off_c, 0, 56, 100
2, 56832, Note_on_c, 0, 65, 100
2, 56896, Note_on_c, 0, 67, 100
2, 56956, Note_off_c, 0, 65, 100
2, 56960, Note_on_c, 0, 65, 100
2, 57020, Note_off_c, 0, 67, 100
2, 57024, Note_on_c, 0, 64, 100
2, 57084, Note_off_c, 0, 65, 100
2, 57212, Note_off_c, 0, 64, 100
2, 57216, Note_on_c, 0, 62, 100
2, 57280, Note_on_c, 0, 64, 100
2, 57340, Note_off_c, 0, 62, 100
2, 57344, Note_on_c, 0, 62, 100
2, 57404, Note_off_c, 0, 64, 100
2, 57408, Note_on_c, 0, 60, 100
2, 57468, Note_off_c, 0, 62, 100
2, 57596, Note_off_c, 0, 60, 100
2, 57600, Note_on_c, 0, 65, 100
2, 57788, Note_off_c, 0, 65, 100
2, 57792, Note_on_c, 0, 68, 100
2, 57980, Note_off_c, 0, 68, 100
2, 57984, Note_on_c, 0, 72, 100
2, 58172, Note_off_c, 0, 72, 100
2, 58176, Note_on_c, 0, 65, 100
2, 58364, Note_off_c, 0, 65, 100
2, 58368, Note_on_c, 0, 67, 100
2, 58556, Note_off_c, 0, 67, 100
2, 58560, Note_on_c, 0, 64, 100
2, 58748, Note_off_c, 0, 64, 100
2, 58752, Note_on_c, 0, 62, 100
2, 58816, Note_on_c, 0, 64, 100
2, 58876, Note_off_c, 0, 62, 100
2, 58880, Note_on_c, 0, 62, 100
2, 58940, Note_off_c, 0, 64, 100
2, 58944, Note_on_c, 0, 60, 100
2, 59004, Note_off_c, 0, 62, 100
2, 59132, Note_off_c, 0, 60, 100
2, 59136, Note_on_c, 0, 67, 100
2, 59324, Note_off_c, 0, 67, 100
2, 59328, Note_on_c, 0, 70, 100
2, 59516, Note_off_c, 0, 70, 100
2, 59520, Note_on_c, 0, 73, 100
2, 59708, Note_off_c, 0, 73, 100
2, 59712, Note_on_c, 0, 67, 100
2, 59900, Note_off_c, 0, 67, 100
2, 59904, Note_on_c, 0, 68, 100
2, 60092, Note_off_c, 0, 68, 100
2, 60096, Note_on_c, 0, 72, 100
2, 60284, Note_off_c, 0, 72, 100
2, 60288, Note_on_c, 0, 71, 100
2, 60476, Note_off_c, 0, 71, 100
2, 60480, Note_on_c, 0, 72, 100
2, 60668, Note_off_c, 0, 72, 100
2, 60672, Note_on_c, 0, 70, 100
2, 60736, Note_on_c, 0, 72, 100
2, 60796, Note_off_c, 0, 70, 100
2, 60800, Note_on_c, 0, 70, 100
2, 60860, Note_off_c, 0, 72, 100
2, 60864, Note_on_c, 0, 68, 100
2, 60924, Note_off_c, 0, 70, 100
2, 61052, Note_off_c, 0, 68, 100
2, 61056, Note_on_c, 0, 67, 100
2, 61120, Note_on_c, 0, 68, 100
2, 61180, Note_off_c, 0, 67, 100
2, 61184, Note_on_c, 0, 67, 100
2, 61244, Note_off_c, 0, 68, 100
2, 61248, Note_on_c, 0, 65, 100
2, 61308, Note_off_c, 0, 67, 100
2, 61436, Note_off_c, 0, 65, 100
2, 61440, Note_on_c, 0, 72, 100
2, 61628, Note_off_c, 0, 72, 100
2, 61632, Note_on_c, 0, 60, 100
2, 61820, Note_off_c, 0, 60, 100
2, 61824, Note_on_c, 0, 60, 100
2, 61916, Note_off_c, 0, 60, 100
2, 61920, Note_on_c, 0, 59, 100
2, 62012, Note_off_c, 0, 59, 100
2, 62016, Note_on_c, 0, 60, 100
2, 62108, Note_off_c, 0, 60, 100
2, 62112, Note_on_c, 0, 59, 100
2, 62204, Note_off_c, 0, 59, 100
2, 62208, Note_on_c, 0, 60, 100
2, 62396, Note_off_c, 0, 60, 100
2, 62400, Note_on_c, 0, 62, 100
2, 62588, Note_off_c, 0, 62, 100
2, 62592, Note_on_c, 0, 63, 100
2, 62780, Note_off_c, 0, 63, 100
2, 62784, Note_on_c, 0, 64, 100
2, 62972, Note_off_c, 0, 64, 100
2, 62976, Note_on_c, 0, 65, 100
2, 63040, Note_on_c, 0, 67, 100
2, 63100, Note_off_c, 0, 65, 100
2, 63104, Note_on_c, 0, 65, 100
2, 63164, Note_off_c, 0, 67, 100
2, 63168, Note_on_c, 0, 64, 100
2, 63228, Note_off_c, 0, 65, 100
2, 63356, Note_off_c, 0, 64, 100
2, 63360, Note_on_c, 0, 62, 100
2, 63424, Note_on_c, 0, 64, 100
2, 63484, Note_off_c, 0, 62, 100
2, 63488, Note_on_c, 0, 62, 100
2, 63548, Note_off_c, 0, 64, 100
2, 63552, Note_on_c, 0, 60, 100
2, 63612, Note_off_c, 0, 62, 100
2, 63740, Note_off_c, 0, 60, 100
2, 63744, Note_on_c, 0, 65, 100
2, 63932, Note_off_c, 0, 65, 100
2, 63936, Note_on_c, 0, 68, 100
2, 64124, Note_off_c, 0, 68, 100
2, 64128, Note_on_c, 0, 72, 100
2, 64316, Note_off_c, 0, 72, 100
2, 64320, Note_on_c, 0, 65, 100
2, 64508, Note_off_c, 0, 65, 100
2, 64512, Note_on_c, 0, 67, 100
2, 64700, Note_off_c, 0, 67, 100
2, 64704, Note_on_c, 0, 64, 100
2, 64892, Note_off_c, 0, 64, 100
2, 64896, Note_on_c, 0, 62, 100
2, 64960, Note_on_c, 0, 64, 100
2, 65020, Note_off_c, 0, 62, 100
2, 65024, Note_on_c, 0, 62, 100
2, 65084, Note_off_c, 0, 64, 100
2, 65088, Note_on_c, 0, 60, 100
2, 65148, Note_off_c, 0, 62, 100
2, 65276, Note_off_c, 0, 60, 100
2, 65280, Note_on_c, 0, 67, 100
2, 65468, Note_off_c, 0, 67, 100
2, 65472, Note_on_c, 0, 70, 100
2, 65660, Note_off_c, 0, 70, 100
2, 65664, Note_on_c, 0, 73, 100
2, 65852, Note_off_c, 0, 73, 100
2, 65856, Note_on_c, 0, 67, 100
2, 66044, Note_off_c, 0, 67, 100
2, 66048, Note_on_c, 0, 72, 100
2, 66236, Note_off_c, 0, 72, 100
2, 66240, Note_on_c, 0, 72, 100
2, 66620, Note_off_c, 0, 72, 100
2, 66624, Note_on_c, 0, 67, 100
2, 66624, Note_on_c, 0, 70, 100
2, 66812, Note_off_c, 0, 67, 100
2, 66812, Note_off_c, 0, 70, 100
2, 66816, Note_on_c, 0, 65, 100
2, 66816, Note_on_c, 0, 68, 100
2, 67004, Note_off_c, 0, 65, 100
2, 67004, Note_off_c, 0, 68, 100
2, 67008, Note_on_c, 0, 65, 100
2, 67008, Note_on_c, 0, 68, 100
2, 67388, Note_off_c, 0, 65, 100
2, 67388, Note_off_c, 0, 68, 100
2, 67392, Note_on_c, 0, 64, 100
2, 67392, Note_on_c, 0, 67, 100
2, 67580, Note_off_c, 0, 64, 100
2, 67580, Note_off_c, 0, 67, 100
2, 67584, Note_on_c, 0, 58, 100
2, 67584, Note_on_c, 0, 67, 100
2, 68348, Note_off_c, 0, 58, 100
2, 68348, Note_off_c, 0, 67, 100
2, 68352, Note_on_c, 0, 56, 100
2, 68352, Note_on_c, 0, 65, 100
2, 68732, Note_off_c, 0, 56, 100
2, 68732, Note_off_c, 0, 65, 100
2, 69120, Note_on_c, 0, 77, 100
2, 69184, Note_on_c, 0, 79, 100
2, 69244, Note_off_c, 0, 77, 100
2, 69248, Note_on_c, 0, 77, 100
2, 69308, Note_off_c, 0, 79, 100
2, 69312, Note_on_c, 0, 76, 100
2, 69372, Note_off_c, 0, 77, 100
2, 69500, Note_off_c, 0, 76, 100
2, 69504, Note_on_c, 0, 74, 100
2, 69568, Note_on_c, 0, 76, 100
2, 69628, Note_off_c, 0, 74, 100
2, 69632, Note_on_c, 0, 74, 100
2, 69692, Note_off_c, 0, 76, 100
2, 69696, Note_on_c, 0, 72, 100
2, 69756, Note_off_c, 0, 74, 100
2, 69884, Note_off_c, 0, 72, 100
2, 69888, Note_on_c, 0, 77, 100
2, 70076, Note_off_c, 0, 77, 100
2, 70080, Note_on_c, 0, 80, 100
2, 70268, Note_off_c, 0, 80, 100
2, 70272, Note_on_c, 0, 84, 100
2, 70460, Note_off_c, 0, 84, 100
2, 70464, Note_on_c, 0, 77, 100
2, 70652, Note_off_c, 0, 77, 100
2, 70656, Note_on_c, 0, 79, 100
2, 70844, Note_off_c, 0, 79, 100
2, 70848, Note_on_c, 0, 76, 100
2, 71036, Note_off_c, 0, 76, 100
2, 71040, Note_on_c, 0, 74, 100
2, 71104, Note_on_c, 0, 76, 100
2, 71164, Note_off_c, 0, 74, 100
2, 71168, Note_on_c, 0, 74, 100
2, 71228, Note_off_c, 0, 76, 100
2, 71232, Note_on_c, 0, 72, 100
2, 71292, Note_off_c, 0, 74, 100
2, 71420, Note_off_c, 0, 72, 100
2, 71424, Note_on_c, 0, 79, 100
2, 71612, Note_off_c, 0, 79, 100
2, 71616, Note_on_c, 0, 82, 100
2, 71804, Note_off_c, 0, 82, 100
2, 71808, Note_on_c, 0, 85, 100
2, 71996, Note_off_c, 0, 85, 100
2, 72000, Note_on_c, 0, 79, 100
2, 72188, Note_off_c, 0, 79, 100
2, 72192, Note_on_c, 0, 80, 100
2, 72380, Note_off_c, 0, 80, 100
2, 72384, Note_on_c, 0, 82, 100
2, 72448, Note_on_c, 0, 80, 100
2, 72508, Note_off_c, 0, 82, 100
2, 72512, Note_on_c, 0, 79, 100
2, 72572, Note_off_c, 0, 80, 100
2, 72576, Note_on_c, 0, 80, 100
2, 72636, Note_off_c, 0, 79, 100
2, 72764, Note_off_c, 0, 80, 100
2, 72768, Note_on_c, 0, 84, 100
2, 72956, Note_off_c, 0, 84, 100
2, 72960, Note_on_c, 0, 82, 100
2, 73148, Note_off_c, 0, 82, 100
2, 73152, Note_on_c, 0, 80, 100
2, 73340, Note_off_c, 0, 80, 100
2, 73344, Note_on_c, 0, 79, 100
2, 73532, Note_off_c, 0, 79, 100
2, 73536, Note_on_c, 0, 77, 100
2, 73724, Note_off_c, 0, 77, 100
2, 73728, Note_on_c, 0, 77, 100
2, 74492, Note_off_c, 0, 77, 100
2, 74496, Note_on_c, 0, 76, 100
2, 74876, Note_off_c, 0, 76, 100
2, 75264, Note_on_c, 0, 77, 100
2, 75328, Note_on_c, 0, 79, 100
2, 75388, Note_off_c, 0, 77, 100
2, 75392, Note_on_c, 0, 77, 100
2, 75452, Note_off_c, 0, 79, 100
2, 75456, Note_on_c, 0, 76, 100
2, 75516, Note_off_c, 0, 77, 100
2, 75644, Note_off_c, 0, 76, 100
2, 75648, Note_on_c, 0, 74, 100
2, 75712, Note_on_c, 0, 76, 100
2, 75772, Note_off_c, 0, 74, 100
2, 75776, Note_on_c, 0, 74, 100
2, 75836, Note_off_c, 0, 76, 100
2, 75840, Note_on_c, 0, 72, 100
2, 75900, Note_off_c, 0, 74, 100
2, 76028, Note_off_c, 0, 72, 100
2, 76032, Note_on_c, 0, 72, 100
2, 76220, Note_off_c, 0, 72, 100
2, 76224, Note_on_c, 0, 77, 100
2, 76412, Note_off_c, 0, 77, 100
2, 76416, Note_on_c, 0, 77, 100
2, 76604, Note_off_c, 0, 77, 100
2, 76608, Note_on_c, 0, 80, 100
2, 76796, Note_off_c, 0, 80, 100
2, 76800, Note_on_c, 0, 79, 100
2, 76988, Note_off_c, 0, 79, 100
2, 76992, Note_on_c, 0, 76, 100
2, 77180, Note_off_c, 0, 76, 100
2, 77184, Note_on_c, 0, 74, 100
2, 77248, Note_on_c, 0, 75, 100
2, 77308, Note_off_c, 0, 74, 100
2, 77312, Note_on_c, 0, 74, 100
2, 77372, Note_off_c, 0, 75, 100
2, 77376, Note_on_c, 0, 72, 100
2, 77436, Note_off_c, 0, 74, 100
2, 77564, Note_off_c, 0, 72, 100
2, 77568, Note_on_c, 0, 72, 100
2, 77756, Note_off_c, 0, 72, 100
2, 77760, Note_on_c, 0, 79, 100
2, 77948, Note_off_c, 0, 79, 100
2, 77952, Note_on_c, 0, 79, 100
2, 78140, Note_off_c, 0, 79, 100
2, 78144, Note_on_c, 0, 82, 100
2, 78332, Note_off_c, 0, 82, 100
2, 78336, Note_on_c, 0, 72, 100
2, 78336, Note_on_c, 0, 80, 100
2, 78524, Note_off_c, 0, 72, 100
2, 78524, Note_off_c, 0, 80, 100
2, 78528, Note_on_c, 0, 72, 100
2, 78528, Note_on_c, 0, 80, 100
2, 78908, Note_off_c, 0, 72, 100
2, 78908, Note_off_c, 0, 80, 100
2, 78912, Note_on_c, 0, 70, 100
2, 78912, Note_on_c, 0, 79, 100
2, 79100, Note_off_c, 0, 70, 100
2, 79100, Note_off_c, 0, 79, 100
2, 79104, Note_on_c, 0, 68, 100
2, 79104, Note_on_c, 0, 77, 100
2, 79292, Note_off_c, 0, 68, 100
2, 79292, Note_off_c, 0, 77, 100
2, 79296, Note_on_c, 0, 68, 100
2, 79296, Note_on_c, 0, 77, 100
2, 79676, Note_off_c, 0, 68, 100
2, 79676, Note_off_c, 0, 77, 100
2, 79680, Note_on_c, 0, 67, 100
2, 79680, Note_on_c, 0, 76, 100
2, 79868, Note_off_c, 0, 67, 100
2, 79868, Note_off_c, 0, 76, 100
2, 79872, Note_on_c, 0, 68, 100
2, 79872, Note_on_c, 0, 77, 100
2, 80252, Note_off_c, 0, 68, 100
2, 80252, Note_off_c, 0, 77, 100
2, 81024, Note_on_c, 0, 63, 70
2, 81404, Note_off_c, 0, 63, 100
2, 81408, Note_on_c, 0, 68, 70
2, 81596, Note_off_c, 0, 68, 100
2, 81600, Note_on_c, 0, 67, 70
2, 81788, Note_off_c, 0, 67, 100
2, 81792, Note_on_c, 0, 65, 70
2, 81856, Note_on_c, 0, 67, 70
2, 81916, Note_off_c, 0, 65, 100
2, 81920, Note_on_c, 0, 65, 70
2, 81980, Note_off_c, 0, 67, 100
2, 81984, Note_on_c, 0, 63, 70
2, 82044, Note_off_c, 0, 65, 100
2, 82172, Note_off_c, 0, 63, 100
2, 82176, Note_on_c, 0, 62, 70
2, 82364, Note_off_c, 0, 62, 100
2, 82368, Note_on_c, 0, 63, 70
2, 82556, Note_off_c, 0, 63, 100
2, 82560, Note_on_c, 0, 65, 70
2, 82748, Note_off_c, 0, 65, 100
2, 82752, Note_on_c, 0, 63, 70
2, 82940, Note_off_c, 0, 63, 100
2, 82944, Note_on_c, 0, 61, 100
2, 82944, Note_on_c, 0, 63, 100
2, 83708, Note_off_c, 0, 61, 100
2, 83708, Note_off_c, 0, 63, 100
2, 83712, Note_on_c, 0, 61, 100
2, 83712, Note_on_c, 0, 63, 100
2, 84476, Note_off_c, 0, 61, 100
2, 84476, Note_off_c, 0, 63, 100
2, 84480, Note_on_c, 0, 60, 70
2, 84480, Note_on_c, 0, 68, 70
2, 84668, Note_off_c, 0, 60, 100
2, 84668, Note_off_c, 0, 68, 100
2, 84672, Note_on_c, 0, 67, 70
2, 84860, Note_off_c, 0, 67, 100
2, 84864, Note_on_c, 0, 65, 70
2, 84928, Note_on_c, 0, 67, 70
2, 84988, Note_off_c, 0, 65, 100
2, 84992, Note_on_c, 0, 65, 70
2, 85052, Note_off_c, 0, 67, 100
2, 85056, Note_on_c, 0, 63, 70
2, 85116, Note_off_c, 0, 65, 100
2, 85244, Note_off_c, 0, 63, 100
2, 85248, Note_on_c, 0, 62, 70
2, 85436, Note_off_c, 0, 62, 100
2, 85440, Note_on_c, 0, 63, 70
2, 85628, Note_off_c, 0, 63, 100
2, 85632, Note_on_c, 0, 65, 70
2, 85820, Note_off_c, 0, 65, 100
2, 85824, Note_on_c, 0, 63, 70
2, 86012, Note_off_c, 0, 63, 100
2, 86016, Note_on_c, 0, 61, 100
2, 86016, Note_on_c, 0, 63, 100
2, 86780, Note_off_c, 0, 61, 100
2, 86780, Note_off_c, 0, 63, 100
2, 86784, Note_on_c, 0, 61, 100
2, 86784, Note_on_c, 0, 63, 100
2, 87548, Note_off_c, 0, 61, 100
2, 87548, Note_off_c, 0, 63, 100
2, 87552, Note_on_c, 0, 60, 100
2, 87552, Note_on_c, 0, 68, 100
2, 87740, Note_off_c, 0, 60, 100
2, 87740, Note_off_c, 0, 68, 100
2, 87744, Note_on_c, 0, 68, 100
2, 88124, Note_off_c, 0, 68, 100
2, 88128, Note_on_c, 0, 63, 100
2, 88316, Note_off_c, 0, 63, 100
2, 88320, Note_on_c, 0, 65, 100
2, 88508, Note_off_c, 0, 65, 100
2, 88512, Note_on_c, 0, 58, 100
2, 88512, Note_on_c, 0, 70, 100
2, 88892, Note_off_c, 0, 58, 100
2, 88892, Note_off_c, 0, 70, 100
2, 88896, Note_on_c, 0, 58, 92
2, 88896, Note_on_c, 0, 68, 92
2, 89084, Note_off_c, 0, 58, 100
2, 89084, Note_off_c, 0, 68, 100
2, 89088, Note_on_c, 0, 60, 87
2, 89088, Note_on_c, 0, 68, 87
2, 89852, Note_off_c, 0, 60, 100
2, 89852, Note_off_c, 0, 68, 100
2, 89856, Note_on_c, 0, 67, 70
2, 89856, Note_on_c, 0, 58, 70
2, 90236, Note_off_c, 0, 67, 100
2, 90236, Note_off_c, 0, 58, 100
2, 90720, Note_on_c, 0, 63, 110
2, 90816, Note_on_c, 0, 67, 110
2, 90908, Note_off_c, 0, 63, 100
2, 90912, Note_on_c, 0, 70, 110
2, 91004, Note_off_c, 0, 67, 100
2, 91008, Note_on_c, 0, 73, 110
2, 91100, Note_off_c, 0, 70, 100
2, 91104, Note_on_c, 0, 67, 110
2, 91196, Note_off_c, 0, 73, 100
2, 91200, Note_on_c, 0, 70, 110
2, 91292, Note_off_c, 0, 67, 100
2, 91296, Note_on_c, 0, 73, 110
2, 91388, Note_off_c, 0, 70, 100
2, 91392, Note_on_c, 0, 79, 110
2, 91484, Note_off_c, 0, 73, 100
2, 91488, Note_on_c, 0, 70, 110
2, 91580, Note_off_c, 0, 79, 100
2, 91584, Note_on_c, 0, 73, 110
2, 91676, Note_off_c, 0, 70, 100
2, 91680, Note_on_c, 0, 79, 110
2, 91772, Note_off_c, 0, 73, 100
2, 91776, Note_on_c, 0, 82, 110
2, 91868, Note_off_c, 0, 79, 100
2, 91872, Note_on_c, 0, 73, 110
2, 91964, Note_off_c, 0, 82, 100
2, 91968, Note_on_c, 0, 79, 110
2, 92060, Note_off_c, 0, 73, 100
2, 92064, Note_on_c, 0, 82, 110
2, 92156, Note_off_c, 0, 79, 100
2, 92156, Note_off_c, 0, 82, 100
2, 92160, Note_on_c, 0, 85, 110
2, 92160, Note_on_c, 0, 82, 110
2, 92348, Note_off_c, 0, 85, 100
2, 92348, Note_off_c, 0, 82, 100
2, 92352, Note_on_c, 0, 84, 110
2, 92352, Note_on_c, 0, 80, 110
2, 92540, Note_off_c, 0, 84, 100
2, 92540, Note_off_c, 0, 80, 100
2, 92544, Note_on_c, 0, 82, 110
2, 92544, Note_on_c, 0, 79, 110
2, 92732, Note_off_c, 0, 82, 100
2, 92732, Note_off_c, 0, 79, 100
2, 92736, Note_on_c, 0, 80, 110
2, 92736, Note_on_c, 0, 77, 110
2, 92924, Note_off_c, 0, 80, 100
2, 92924, Note_off_c, 0, 77, 100
2, 92928, Note_on_c, 0, 79, 110
2, 92928, Note_on_c, 0, 75, 110
2, 93116, Note_off_c, 0, 79, 100
2, 93116, Note_off_c, 0, 75, 100
2, 93120, Note_on_c, 0, 77, 110
2, 93120, Note_on_c, 0, 73, 110
2, 93308, Note_off_c, 0, 77, 100
2, 93308, Note_off_c, 0, 73, 100
2, 93312, Note_on_c, 0, 75, 110
2, 93312, Note_on_c, 0, 72, 110
2, 93500, Note_off_c, 0, 75, 100
2, 93500, Note_off_c, 0, 72, 100
2, 93504, Note_on_c, 0, 73, 110
2, 93504, Note_on_c, 0, 70, 110
2, 93692, Note_off_c, 0, 73, 100
2, 93692, Note_off_c, 0, 70, 100
2, 93696, Note_on_c, 0, 72, 110
2, 93792, Note_on_c, 0, 80, 110
2, 93884, Note_off_c, 0, 72, 100
2, 93888, Note_on_c, 0, 75, 110
2, 93980, Note_off_c, 0, 80, 100
2, 93984, Note_on_c, 0, 72, 110
2, 94076, Note_off_c, 0, 75, 100
2, 94080, Note_on_c, 0, 68, 110
2, 94172, Note_off_c, 0, 72, 100
2, 94176, Note_on_c, 0, 75, 110
2, 94268, Note_off_c, 0, 68, 100
2, 94272, Note_on_c, 0, 72, 110
2, 94364, Note_off_c, 0, 75, 100
2, 94368, Note_on_c, 0, 68, 110
2, 94460, Note_off_c, 0, 72, 100
2, 94464, Note_on_c, 0, 63, 110
2, 94556, Note_off_c, 0, 68, 100
2, 94560, Note_on_c, 0, 72, 110
2, 94652, Note_off_c, 0, 63, 100
2, 94656, Note_on_c, 0, 68, 110
2, 94748, Note_off_c, 0, 72, 100
2, 94752, Note_on_c, 0, 63, 110
2, 94844, Note_off_c, 0, 68, 100
2, 94848, Note_on_c, 0, 60, 110
2, 94940, Note_off_c, 0, 63, 100
2, 94944, Note_on_c, 0, 68, 110
2, 95036, Note_off_c, 0, 60, 100
2, 95040, Note_on_c, 0, 63, 110
2, 95132, Note_off_c, 0, 68, 100
2, 95136, Note_on_c, 0, 60, 110
2, 95228, Note_off_c, 0, 63, 100
2, 95228, Note_off_c, 0, 60, 100
2, 95232, Note_on_c, 0, 56, 110
2, 95996, Note_off_c, 0, 56, 100
2, 96864, Note_on_c, 0, 63, 110
2, 96960, Note_on_c, 0, 67, 110
2, 97052, Note_off_c, 0, 63, 100
2, 97056, Note_on_c, 0, 70, 110
2, 97148, Note_off_c, 0, 67, 100
2, 97152, Note_on_c, 0, 73, 110
2, 97244, Note_off_c, 0, 70, 100
2, 97248, Note_on_c, 0, 67, 110
2, 97340, Note_off_c, 0, 73, 100
2, 97344, Note_on_c, 0, 70, 110
2, 97436, Note_off_c, 0, 67, 100
2, 97440, Note_on_c, 0, 73, 110
2, 97532, Note_off_c, 0, 70, 100
2, 97536, Note_on_c, 0, 79, 110
2, 97628, Note_off_c, 0, 73, 100
2, 97632, Note_on_c, 0, 70, 110
2, 97724, Note_off_c, 0, 79, 100
2, 97728, Note_on_c, 0, 73, 110
2, 97820, Note_off_c, 0, 70, 100
2, 97824, Note_on_c, 0, 79, 110
2, 97916, Note_off_c, 0, 73, 100
2, 97920, Note_on_c, 0, 82, 110
2, 98012, Note_off_c, 0, 79, 100
2, 98016, Note_on_c, 0, 73, 110
2, 98108, Note_off_c, 0, 82, 100
2, 98112, Note_on_c, 0, 79, 110
2, 98204, Note_off_c, 0, 73, 100
2, 98208, Note_on_c, 0, 82, 110
2, 98300, Note_off_c, 0, 79, 100
2, 98300, Note_off_c, 0, 82, 100
2, 98304, Note_on_c, 0, 85, 110
2, 98304, Note_on_c, 0, 82, 110
2, 98492, Note_off_c, 0, 85, 100
2, 98492, Note_off_c, 0, 82, 100
2, 98496, Note_on_c, 0, 84, 110
2, 98496, Note_on_c, 0, 80, 110
2, 98684, Note_off_c, 0, 84, 100
2, 98684, Note_off_c, 0, 80, 100
2, 98688, Note_on_c, 0, 82, 110
2, 98688, Note_on_c, 0, 79, 110
2, 98876, Note_off_c, 0, 82, 100
2, 98876, Note_off_c, 0, 79, 100
2, 98880, Note_on_c, 0, 80, 110
2, 98880, Note_on_c, 0, 77, 110
2, 99068, Note_off_c, 0, 80, 100
2, 99068, Note_off_c, 0, 77, 100
2, 99072, Note_on_c, 0, 79, 110
2, 99072, Note_on_c, 0, 75, 110
2, 99260, Note_off_c, 0, 79, 100
2, 99260, Note_off_c, 0, 75, 100
2, 99264, Note_on_c, 0, 77, 110
2, 99264, Note_on_c, 0, 73, 110
2, 99452, Note_off_c, 0, 77, 100
2, 99452, Note_off_c, 0, 73, 100
2, 99456, Note_on_c, 0, 75, 110
2, 99456, Note_on_c, 0, 72, 110
2, 99644, Note_off_c, 0, 75, 100
2, 99644, Note_off_c, 0, 72, 100
2, 99648, Note_on_c, 0, 73, 110
2, 99648, Note_on_c, 0, 70, 110
2, 99836, Note_off_c, 0, 73, 100
2, 99836, Note_off_c, 0, 70, 100
2, 99840, Note_on_c, 0, 72, 110
2, 99936, Note_on_c, 0, 80, 110
2, 100028, Note_off_c, 0, 72, 100
2, 100032, Note_on_c, 0, 75, 110
2, 100124, Note_off_c, 0, 80, 100
2, 100128, Note_on_c, 0, 72, 110
2, 100220, Note_off_c, 0, 75, 100
2, 100224, Note_on_c, 0, 68, 110
2, 100316, Note_off_c, 0, 72, 100
2, 100320, Note_on_c, 0, 75, 110
2, 100412, Note_off_c, 0, 68, 100
2, 100416, Note_on_c, 0, 72, 110
2, 100508, Note_off_c, 0, 75, 100
2, 100512, Note_on_c, 0, 68, 110
2, 100604, Note_off_c, 0, 72, 100
2, 100608, Note_on_c, 0, 63, 110
2, 100700, Note_off_c, 0, 68, 100
2, 100704, Note_on_c, 0, 72, 110
2, 100796, Note_off_c, 0, 63, 100
2, 100800, Note_on_c, 0, 68, 110
2, 100892, Note_off_c, 0, 72, 100
2, 100896, Note_on_c, 0, 63, 110
2, 100988, Note_off_c, 0, 68, 100
2, 100992, Note_on_c, 0, 60, 110
2, 101084, Note_off_c, 0, 63, 100
2, 101088, Note_on_c, 0, 68, 110
2, 101180, Note_off_c, 0, 60, 100
2, 101184, Note_on_c, 0, 63, 110
2, 101276, Note_off_c, 0, 68, 100
2, 101280, Note_on_c, 0, 60, 110
2, 101372, Note_off_c, 0, 63, 100
2, 101372, Note_off_c, 0, 60, 100
2, 101376, Note_on_c, 0, 56, 110
2, 102140, Note_off_c, 0, 56, 100
2, 102144, Note_on_c, 0, 78, 110
2, 102236, Note_off_c, 0, 78, 100
2, 102240, Note_on_c, 0, 77, 110
2, 102332, Note_off_c, 0, 77, 100
2, 102336, Note_on_c, 0, 75, 110
2, 102428, Note_off_c, 0, 75, 100
2, 102432, Note_on_c, 0, 73, 110
2, 102524, Note_off_c, 0, 73, 100
2, 102528, Note_on_c, 0, 72, 110
2, 102620, Note_off_c, 0, 72, 100
2, 102624, Note_on_c, 0, 70, 110
2, 102716, Note_off_c, 0, 70, 100
2, 102720, Note_on_c, 0, 68, 110
2, 102812, Note_off_c, 0, 68, 100
2, 102816, Note_on_c, 0, 66, 110
2, 102908, Note_off_c, 0, 66, 100
2, 102912, Note_on_c, 0, 65, 110
2, 103100, Note_off_c, 0, 65, 100
2, 103104, Note_on_c, 0, 80, 110
2, 103104, Note_on_c, 0, 77, 110
2, 103292, Note_off_c, 0, 80, 100
2, 103292, Note_off_c, 0, 77, 100
2, 103296, Note_on_c, 0, 79, 110
2, 103296, Note_on_c, 0, 75, 110
2, 103484, Note_off_c, 0, 79, 100
2, 103484, Note_off_c, 0, 75, 100
2, 103488, Note_on_c, 0, 77, 110
2, 103488, Note_on_c, 0, 73, 110
2, 103676, Note_off_c, 0, 77, 100
2, 103676, Note_off_c, 0, 73, 100
2, 103872, Note_on_c, 0, 77, 110
2, 103872, Note_on_c, 0, 73, 110
2, 104060, Note_off_c, 0, 77, 100
2, 104060, Note_off_c, 0, 73, 100
2, 104064, Note_on_c, 0, 75, 110
2, 104064, Note_on_c, 0, 72, 110
2, 104252, Note_off_c, 0, 75, 100
2, 104252, Note_off_c, 0, 72, 100
2, 104256, Note_on_c, 0, 73, 110
2, 104256, Note_on_c, 0, 70, 110
2, 104444, Note_off_c, 0, 73, 100
2, 104444, Note_off_c, 0, 70, 100
2, 104448, Note_on_c, 0, 72, 110
2, 104448, Note_on_c, 0, 68, 110
2, 104636, Note_off_c, 0, 72, 100
2, 104636, Note_off_c, 0, 68, 100
2, 104640, Note_on_c, 0, 75, 110
2, 104640, Note_on_c, 0, 72, 110
2, 104828, Note_off_c, 0, 75, 100
2, 104828, Note_off_c, 0, 72, 100
2, 104832, Note_on_c, 0, 72, 110
2, 104832, Note_on_c, 0, 68, 110
2, 105020, Note_off_c, 0, 72, 100
2, 105020, Note_off_c, 0, 68, 100
2, 105024, Note_on_c, 0, 75, 110
2, 105024, Note_on_c, 0, 72, 110
2, 105212, Note_off_c, 0, 75, 100
2, 105212, Note_off_c, 0, 72, 100
2, 105216, Note_on_c, 0, 75, 110
2, 105216, Note_on_c, 0, 72, 110
2, 105404, Note_off_c, 0, 75, 100
2, 105404, Note_off_c, 0, 72, 100
2, 105408, Note_on_c, 0, 73, 110
2, 105408, Note_on_c, 0, 70, 110
2, 105596, Note_off_c, 0, 73, 100
2, 105596, Note_off_c, 0, 70, 100
2, 105600, Note_on_c, 0, 72, 110
2, 105600, Note_on_c, 0, 68, 110
2, 105788, Note_off_c, 0, 72, 100
2, 105788, Note_off_c, 0, 68, 100
2, 105792, Note_on_c, 0, 70, 110
2, 105792, Note_on_c, 0, 67, 110
2, 105980, Note_off_c, 0, 70, 100
2, 105980, Note_off_c, 0, 67, 100
2, 105984, Note_on_c, 0, 68, 110
2, 106748, Note_off_c, 0, 68, 100
2, 106752, Note_on_c, 0, 78, 110
2, 106844, Note_off_c, 0, 78, 100
2, 106848, Note_on_c, 0, 77, 110
2, 106940, Note_off_c, 0, 77, 100
2, 106944, Note_on_c, 0, 75, 110
2, 107036, Note_off_c, 0, 75, 100
2, 107040, Note_on_c, 0, 73, 110
2, 107132, Note_off_c, 0, 73, 100
2, 107136, Note_on_c, 0, 72, 110
2, 107228, Note_off_c, 0, 72, 100
2, 107232, Note_on_c, 0, 70, 110
2, 107324, Note_off_c, 0, 70, 100
2, 107328, Note_on_c, 0, 68, 110
2, 107420, Note_off_c, 0, 68, 100
2, 107424, Note_on_c, 0, 66, 110
2, 107516, Note_off_c, 0, 66, 100
2, 107520, Note_on_c, 0, 65, 110
2, 107708, Note_off_c, 0, 65, 100
2, 107712, Note_on_c, 0, 80, 110
2, 107712, Note_on_c, 0, 77, 110
2, 107900, Note_off_c, 0, 80, 100
2, 107900, Note_off_c, 0, 77, 100
2, 107904, Note_on_c, 0, 79, 110
2, 107904, Note_on_c, 0, 75, 110
2, 108092, Note_off_c, 0, 79, 100
2, 108092, Note_off_c, 0, 75, 100
2, 108096, Note_on_c, 0, 77, 110
2, 108096, Note_on_c, 0, 73, 110
2, 108284, Note_off_c, 0, 77, 100
2, 108284, Note_off_c, 0, 73, 100
2, 108480, Note_on_c, 0, 77, 110
2, 108480, Note_on_c, 0, 73, 110
2, 108668, Note_off_c, 0, 77, 100
2, 108668, Note_off_c, 0, 73, 100
2, 108672, Note_on_c, 0, 75, 110
2, 108672, Note_on_c, 0, 72, 110
2, 108860, Note_off_c, 0, 75, 100
2, 108860, Note_off_c, 0, 72, 100
2, 108864, Note_on_c, 0, 73, 110
2, 108864, Note_on_c, 0, 70, 110
2, 109052, Note_off_c, 0, 73, 100
2, 109052, Note_off_c, 0, 70, 100
2, 109056, Note_on_c, 0, 72, 110
2, 109056, Note_on_c, 0, 68, 110
2, 109244, Note_off_c, 0, 72, 100
2, 109244, Note_off_c, 0, 68, 100
2, 109248, Note_on_c, 0, 75, 110
2, 109248, Note_on_c, 0, 72, 110
2, 109436, Note_off_c, 0, 75, 100
2, 109436, Note_off_c, 0, 72, 100
2, 109440, Note_on_c, 0, 72, 110
2, 109440, Note_on_c, 0, 68, 110
2, 109628, Note_off_c, 0, 72, 100
2, 109628, Note_off_c, 0, 68, 100
2, 109632, Note_on_c, 0, 75, 110
2, 109632, Note_on_c, 0, 72, 110
2, 109820, Note_off_c, 0, 75, 100
2, 109820, Note_off_c, 0, 72, 100
2, 109824, Note_on_c, 0, 75, 110
2, 109824, Note_on_c, 0, 72, 110
2, 110012, Note_off_c, 0, 75, 100
2, 110012, Note_off_c, 0, 72, 100
2, 110016, Note_on_c, 0, 73, 110
2, 110016, Note_on_c, 0, 70, 110
2, 110204, Note_off_c, 0, 73, 100
2, 110204, Note_off_c, 0, 70, 100
2, 110208, Note_on_c, 0, 72, 110
2, 110208, Note_on_c, 0, 68, 110
2, 110396, Note_off_c, 0, 72, 100
2, 110396, Note_off_c, 0, 68, 100
2, 110400, Note_on_c, 0, 70, 110
2, 110400, Note_on_c, 0, 67, 110
2, 110588, Note_off_c, 0, 70, 100
2, 110588, Note_off_c, 0, 67, 100
2, 110592, Note_on_c, 0, 68, 110
2, 110688, Note_on_c, 0, 80, 110
2, 110780, Note_off_c, 0, 68, 100
2, 110784, Note_on_c, 0, 75, 110
2, 110876, Note_off_c, 0, 80, 100
2, 110880, Note_on_c, 0, 72, 110
2, 110972, Note_off_c, 0, 75, 100
2, 110976, Note_on_c, 0, 68, 110
2, 111068, Note_off_c, 0, 72, 100
2, 111072, Note_on_c, 0, 75, 110
2, 111164, Note_off_c, 0, 68, 100
2, 111168, Note_on_c, 0, 72, 110
2, 111260, Note_off_c, 0, 75, 100
2, 111264, Note_on_c, 0, 68, 110
2, 111356, Note_off_c, 0, 72, 100
2, 111360, Note_on_c, 0, 63, 110
2, 111452, Note_off_c, 0, 68, 100
2, 111456, Note_on_c, 0, 72, 110
2, 111548, Note_off_c, 0, 63, 100
2, 111552, Note_on_c, 0, 68, 110
2, 111644, Note_off_c, 0, 72, 100
2, 111648, Note_on_c, 0, 63, 110
2, 111740, Note_off_c, 0, 68, 100
2, 111744, Note_on_c, 0, 60, 110
2, 111836, Note_off_c, 0, 63, 100
2, 111840, Note_on_c, 0, 68, 110
2, 111932, Note_off_c, 0, 60, 100
2, 111936, Note_on_c, 0, 63, 110
2, 112028, Note_off_c, 0, 68, 100
2, 112032, Note_on_c, 0, 60, 110
2, 112124, Note_off_c, 0, 63, 100
2, 112124, Note_off_c, 0, 60, 100
2, 112128, Note_on_c, 0, 56, 110
2, 112508, Note_off_c, 0, 56, 100
2, 112512, Note_on_c, 0, 56, 110
2, 112892, Note_off_c, 0, 56, 100
2, 112896, Note_on_c, 0, 56, 110
2, 113660, Note_off_c, 0, 56, 100
2, 113664, Note_on_c, 0, 53, 100
2, 113852, Note_off_c, 0, 53, 100
2, 113856, Note_on_c, 0, 52, 100
2, 114044, Note_off_c, 0, 52, 100
2, 114048, Note_on_c, 0, 50, 100
2, 114236, Note_off_c, 0, 50, 100
2, 114240, Note_on_c, 0, 48, 100
2, 114428, Note_off_c, 0, 48, 100
2, 114432, Note_on_c, 0, 53, 100
2, 114620, Note_off_c, 0, 53, 100
2, 114624, Note_on_c, 0, 57, 100
2, 114812, Note_off_c, 0, 57, 100
2, 114816, Note_on_c, 0, 60, 100
2, 115004, Note_off_c, 0, 60, 100
2, 115008, Note_on_c, 0, 63, 100
2, 115196, Note_off_c, 0, 63, 100
2, 115200, Note_on_c, 0, 66, 100
2, 115388, Note_off_c, 0, 66, 100
2, 115392, Note_on_c, 0, 66, 100
2, 115580, Note_off_c, 0, 66, 100
2, 115584, Note_on_c, 0, 65, 100
2, 115772, Note_off_c, 0, 65, 100
2, 115776, Note_on_c, 0, 66, 100
2, 115964, Note_off_c, 0, 66, 100
2, 115968, Note_on_c, 0, 65, 100
2, 116156, Note_off_c, 0, 65, 100
2, 116160, Note_on_c, 0, 63, 100
2, 116348, Note_off_c, 0, 63, 100
2, 116352, Note_on_c, 0, 61, 100
2, 116540, Note_off_c, 0, 61, 100
2, 116544, Note_on_c, 0, 60, 100
2, 116732, Note_off_c, 0, 60, 100
2, 116736, Note_on_c, 0, 63, 100
2, 116800, Note_on_c, 0, 65, 100
2, 116860, Note_off_c, 0, 63, 100
2, 116864, Note_on_c, 0, 63, 100
2, 116924, Note_off_c, 0, 65, 100
2, 116928, Note_on_c, 0, 61, 100
2, 116988, Note_off_c, 0, 63, 100
2, 117116, Note_off_c, 0, 61, 100
2, 117120, Note_on_c, 0, 60, 100
2, 117184, Note_on_c, 0, 61, 100
2, 117244, Note_off_c, 0, 60, 100
2, 117248, Note_on_c, 0, 60, 100
2, 117308, Note_off_c, 0, 61, 100
2, 117312, Note_on_c, 0, 58, 100
2, 117372, Note_off_c, 0, 60, 100
2, 117500, Note_off_c, 0, 58, 100
2, 117504, Note_on_c, 0, 61, 100
2, 117692, Note_off_c, 0, 61, 100
2, 117696, Note_on_c, 0, 65, 100
2, 117884, Note_off_c, 0, 65, 100
2, 117888, Note_on_c, 0, 70, 100
2, 118076, Note_off_c, 0, 70, 100
2, 118080, Note_on_c, 0, 72, 100
2, 118268, Note_off_c, 0, 72, 100
2, 118272, Note_on_c, 0, 73, 100
2, 118460, Note_off_c, 0, 73, 100
2, 118464, Note_on_c, 0, 72, 100
2, 118652, Note_off_c, 0, 72, 100
2, 118656, Note_on_c, 0, 70, 100
2, 118844, Note_off_c, 0, 70, 100
2, 118848, Note_on_c, 0, 72, 100
2, 119036, Note_off_c, 0, 72, 100
2, 119040, Note_on_c, 0, 70, 100
2, 119228, Note_off_c, 0, 70, 100
2, 119232, Note_on_c, 0, 68, 100
2, 119420, Note_off_c, 0, 68, 100
2, 119424, Note_on_c, 0, 67, 100
2, 119612, Note_off_c, 0, 67, 100
2, 119616, Note_on_c, 0, 65, 100
2, 119804, Note_off_c, 0, 65, 100
2, 119808, Note_on_c, 0, 72, 100
2, 120188, Note_off_c, 0, 72, 100
2, 121344, Note_on_c, 0, 77, 70
2, 121408, Note_on_c, 0, 79, 70
2, 121468, Note_off_c, 0, 77, 100
2, 121472, Note_on_c, 0, 77, 70
2, 121532, Note_off_c, 0, 79, 100
2, 121536, Note_on_c, 0, 76, 70
2, 121596, Note_off_c, 0, 77, 100
2, 121724, Note_off_c, 0, 76, 100
2, 121728, Note_on_c, 0, 73, 70
2, 121792, Note_on_c, 0, 75, 70
2, 121852, Note_off_c, 0, 73, 100
2, 121856, Note_on_c, 0, 73, 70
2, 121916, Note_off_c, 0, 75, 100
2, 121920, Note_on_c, 0, 72, 70
2, 121980, Note_off_c, 0, 73, 100
2, 122108, Note_off_c, 0, 72, 100
2, 122112, Note_on_c, 0, 71, 70
2, 122300, Note_off_c, 0, 71, 100
2, 122304, Note_on_c, 0, 72, 70
2, 122492, Note_off_c, 0, 72, 100
2, 122496, Note_on_c, 0, 73, 70
2, 122684, Note_off_c, 0, 73, 100
2, 122688, Note_on_c, 0, 72, 70
2, 122876, Note_off_c, 0, 72, 100
2, 122880, Note_on_c, 0, 70, 100
2, 122880, Note_on_c, 0, 72, 100
2, 123644, Note_off_c, 0, 70, 100
2, 123644, Note_off_c, 0, 72, 100
2, 123648, Note_on_c, 0, 70, 100
2, 123648, Note_on_c, 0, 72, 100
2, 124412, Note_off_c, 0, 70, 100
2, 124412, Note_off_c, 0, 72, 100
2, 124416, Note_on_c, 0, 68, 70
2, 124416, Note_on_c, 0, 77, 70
2, 124604, Note_off_c, 0, 68, 100
2, 124604, Note_off_c, 0, 77, 100
2, 124608, Note_on_c, 0, 76, 70
2, 124796, Note_off_c, 0, 76, 100
2, 124800, Note_on_c, 0, 73, 70
2, 124864, Note_on_c, 0, 75, 70
2, 124924, Note_off_c, 0, 73, 100
2, 124928, Note_on_c, 0, 73, 70
2, 124988, Note_off_c, 0, 75, 100
2, 124992, Note_on_c, 0, 72, 70
2, 125052, Note_off_c, 0, 73, 100
2, 125180, Note_off_c, 0, 72, 100
2, 125184, Note_on_c, 0, 71, 70
2, 125372, Note_off_c, 0, 71, 100
2, 125376, Note_on_c, 0, 72, 70
2, 125564, Note_off_c, 0, 72, 100
2, 125568, Note_on_c, 0, 73, 70
2, 125756, Note_off_c, 0, 73, 100
2, 125760, Note_on_c, 0, 72, 70
2, 125948, Note_off_c, 0, 72, 100
2, 125952, Note_on_c, 0, 70, 100
2, 125952, Note_on_c, 0, 72, 100
2, 126716, Note_off_c, 0, 70, 100
2, 126716, Note_off_c, 0, 72, 100
2, 126720, Note_on_c, 0, 70, 100
2, 126720, Note_on_c, 0, 72, 100
2, 127484, Note_off_c, 0, 70, 100
2, 127484, Note_off_c, 0, 72, 100
2, 127488, Note_on_c, 0, 68, 100
2, 127488, Note_on_c, 0, 77, 100
2, 127676, Note_off_c, 0, 68, 100
2, 127676, Note_off_c, 0, 77, 100
2, 127680, Note_on_c, 0, 77, 100
2, 128060, Note_off_c, 0, 77, 100
2, 128064, Note_on_c, 0, 72, 100
2, 128252, Note_off_c, 0, 72, 100
2, 128256, Note_on_c, 0, 73, 100
2, 128444, Note_off_c, 0, 73, 100
2, 128448, Note_on_c, 0, 67, 100
2, 128448, Note_on_c, 0, 79, 100
2, 128828, Note_off_c, 0, 67, 100
2, 128828, Note_off_c, 0, 79, 100
2, 128832, Note_on_c, 0, 67, 92
2, 128832, Note_on_c, 0, 77, 92
2, 129020, Note_off_c, 0, 67, 100
2, 129020, Note_off_c, 0, 77, 100
2, 129024, Note_on_c, 0, 68, 87
2, 129024, Note_on_c, 0, 77, 87
2, 129788, Note_off_c, 0, 68, 100
2, 129788, Note_off_c, 0, 77, 100
2, 129792, Note_on_c, 0, 67, 70
2, 129792, Note_on_c, 0, 76, 70
2, 130172, Note_off_c, 0, 67, 100
2, 130172, Note_off_c, 0, 76, 100
2, 130656, Note_on_c, 0, 60, 110
2, 130752, Note_on_c, 0, 64, 110
2, 130844, Note_off_c, 0, 60, 100
2, 130848, Note_on_c, 0, 67, 110
2, 130940, Note_off_c, 0, 64, 100
2, 130944, Note_on_c, 0, 70, 110
2, 131036, Note_off_c, 0, 67, 100
2, 131040, Note_on_c, 0, 64, 110
2, 131132, Note_off_c, 0, 70, 100
2, 131136, Note_on_c, 0, 67, 110
2, 131228, Note_off_c, 0, 64, 100
2, 131232, Note_on_c, 0, 70, 110
2, 131324, Note_off_c, 0, 67, 100
2, 131328, Note_on_c, 0, 76, 110
2, 131420, Note_off_c, 0, 70, 100
2, 131424, Note_on_c, 0, 67, 110
2, 131516, Note_off_c, 0, 76, 100
2, 131520, Note_on_c, 0, 70, 110
2, 131612, Note_off_c, 0, 67, 100
2, 131616, Note_on_c, 0, 76, 110
2, 131708, Note_off_c, 0, 70, 100
2, 131712, Note_on_c, 0, 79, 110
2, 131804, Note_off_c, 0, 76, 100
2, 131808, Note_on_c, 0, 70, 110
2, 131900, Note_off_c, 0, 79, 100
2, 131904, Note_on_c, 0, 76, 110
2, 131996, Note_off_c, 0, 70, 100
2, 132000, Note_on_c, 0, 79, 110
2, 132092, Note_off_c, 0, 76, 100
2, 132092, Note_off_c, 0, 79, 100
2, 132096, Note_on_c, 0, 82, 110
2, 132096, Note_on_c, 0, 79, 110
2, 132284, Note_off_c, 0, 82, 100
2, 132284, Note_off_c, 0, 79, 100
2, 132288, Note_on_c, 0, 80, 110
2, 132288, Note_on_c, 0, 77, 110
2, 132476, Note_off_c, 0, 80, 100
2, 132476, Note_off_c, 0, 77, 100
2, 132480, Note_on_c, 0, 79, 110
2, 132480, Note_on_c, 0, 76, 110
2, 132668, Note_off_c, 0, 79, 100
2, 132668, Note_off_c, 0, 76, 100
2, 132672, Note_on_c, 0, 77, 110
2, 132672, Note_on_c, 0, 74, 110
2, 132860, Note_off_c, 0, 77, 100
2, 132860, Note_off_c, 0, 74, 100
2, 132864, Note_on_c, 0, 76, 110
2, 132864, Note_on_c, 0, 72, 110
2, 133052, Note_off_c, 0, 76, 100
2, 133052, Note_off_c, 0, 72, 100
2, 133056, Note_on_c, 0, 73, 110
2, 133056, Note_on_c, 0, 70, 110
2, 133244, Note_off_c, 0, 73, 100
2, 133244, Note_off_c, 0, 70, 100
2, 133248, Note_on_c, 0, 72, 110
2, 133248, Note_on_c, 0, 68, 110
2, 133436, Note_off_c, 0, 72, 100
2, 133436, Note_off_c, 0, 68, 100
2, 133440, Note_on_c, 0, 70, 110
2, 133440, Note_on_c, 0, 67, 110
2, 133628, Note_off_c, 0, 70, 100
2, 133628, Note_off_c, 0, 67, 100
2, 133632, Note_on_c, 0, 68, 110
2, 133728, Note_on_c, 0, 77, 110
2, 133820, Note_off_c, 0, 68, 100
2, 133824, Note_on_c, 0, 72, 110
2, 133916, Note_off_c, 0, 77, 100
2, 133920, Note_on_c, 0, 68, 110
2, 134012, Note_off_c, 0, 72, 100
2, 134016, Note_on_c, 0, 65, 110
2, 134108, Note_off_c, 0, 68, 100
2, 134112, Note_on_c, 0, 72, 110
2, 134204, Note_off_c, 0, 65, 100
2, 134208, Note_on_c, 0, 68, 110
2, 134300, Note_off_c, 0, 72, 100
2, 134304, Note_on_c, 0, 65, 110
2, 134396, Note_off_c, 0, 68, 100
2, 134400, Note_on_c, 0, 60, 110
2, 134492, Note_off_c, 0, 65, 100
2, 134496, Note_on_c, 0, 68, 110
2, 134588, Note_off_c, 0, 60, 100
2, 134592, Note_on_c, 0, 65, 110
2, 134684, Note_off_c, 0, 68, 100
2, 134688, Note_on_c, 0, 60, 110
2, 134780, Note_off_c, 0, 65, 100
2, 134784, Note_on_c, 0, 56, 110
2, 134876, Note_off_c, 0, 60, 100
2, 134880, Note_on_c, 0, 65, 110
2, 134972, Note_off_c, 0, 56, 100
2, 134976, Note_on_c, 0, 60, 110
2, 135068, Note_off_c, 0, 65, 100
2, 135072, Note_on_c, 0, 56, 110
2, 135164, Note_off_c, 0, 60, 100
2, 135164, Note_off_c, 0, 56, 100
2, 135168, Note_on_c, 0, 53, 110
2, 135932, Note_off_c, 0, 53, 100
2, 136800, Note_on_c, 0, 60, 110
2, 136896, Note_on_c, 0, 64, 110
2, 136988, Note_off_c, 0, 60, 100
2, 136992, Note_on_c, 0, 67, 110
2, 137084, Note_off_c, 0, 64, 100
2, 137088, Note_on_c, 0, 70, 110
2, 137180, Note_off_c, 0, 67, 100
2, 137184, Note_on_c, 0, 64, 110
2, 137276, Note_off_c, 0, 70, 100
2, 137280, Note_on_c, 0, 67, 110
2, 137372, Note_off_c, 0, 64, 100
2, 137376, Note_on_c, 0, 70, 110
2, 137468, Note_off_c, 0, 67, 100
2, 137472, Note_on_c, 0, 76, 110
2, 137564, Note_off_c, 0, 70, 100
2, 137568, Note_on_c, 0, 67, 110
2, 137660, Note_off_c, 0, 76, 100
2, 137664, Note_on_c, 0, 70, 110
2, 137756, Note_off_c, 0, 67, 100
2, 137760, Note_on_c, 0, 76, 110
2, 137852, Note_off_c, 0, 70, 100
2, 137856, Note_on_c, 0, 79, 110
2, 137948, Note_off_c, 0, 76, 100
2, 137952, Note_on_c, 0, 70, 110
2, 138044, Note_off_c, 0, 79, 100
2, 138048, Note_on_c, 0, 76, 110
2, 138140, Note_off_c, 0, 70, 100
2, 138144, Note_on_c, 0, 79, 110
2, 138236, Note_off_c, 0, 76, 100
2, 138236, Note_off_c, 0, 79, 100
2, 138240, Note_on_c, 0, 82, 110
2, 138240, Note_on_c, 0, 79, 110
2, 138428, Note_off_c, 0, 82, 100
2, 138428, Note_off_c, 0, 79, 100
2, 138432, Note_on_c, 0, 80, 110
2, 138432, Note_on_c, 0, 77, 110
2, 138620, Note_off_c, 0, 80, 100
2, 138620, Note_off_c, 0, 77, 100
2, 138624, Note_on_c, 0, 79, 110
2, 138624, Note_on_c, 0, 76, 110
2, 138812, Note_off_c, 0, 79, 100
2, 138812, Note_off_c, 0, 76, 100
2, 138816, Note_on_c, 0, 77, 110
2, 138816, Note_on_c, 0, 74, 110
2, 139004, Note_off_c, 0, 77, 100
2, 139004, Note_off_c, 0, 74, 100
2, 139008, Note_on_c, 0, 76, 110
2, 139008, Note_on_c, 0, 72, 110
2, 139196, Note_off_c, 0, 76, 100
2, 139196, Note_off_c, 0, 72, 100
2, 139200, Note_on_c, 0, 73, 110
2, 139200, Note_on_c, 0, 70, 110
2, 139388, Note_off_c, 0, 73, 100
2, 139388, Note_off_c, 0, 70, 100
2, 139392, Note_on_c, 0, 72, 110
2, 139392, Note_on_c, 0, 68, 110
2, 139580, Note_off_c, 0, 72, 100
2, 139580, Note_off_c, 0, 68, 100
2, 139584, Note_on_c, 0, 70, 110
2, 139584, Note_on_c, 0, 67, 110
2, 139772, Note_off_c, 0, 70, 100
2, 139772, Note_off_c, 0, 67, 100
2, 139776, Note_on_c, 0, 68, 110
2, 139872, Note_on_c, 0, 77, 110
2, 139964, Note_off_c, 0, 68, 100
2, 139968, Note_on_c, 0, 72, 110
2, 140060, Note_off_c, 0, 77, 100
2, 140064, Note_on_c, 0, 68, 110
2, 140156, Note_off_c, 0, 72, 100
2, 140160, Note_on_c, 0, 65, 110
2, 140252, Note_off_c, 0, 68, 100
2, 140256, Note_on_c, 0, 72, 110
2, 140348, Note_off_c, 0, 65, 100
2, 140352, Note_on_c, 0, 68, 110
2, 140444, Note_off_c, 0, 72, 100
2, 140448, Note_on_c, 0, 65, 110
2, 140540, Note_off_c, 0, 68, 100
2, 140544, Note_on_c, 0, 60, 110
2, 140636, Note_off_c, 0, 65, 100
2, 140640, Note_on_c, 0, 68, 110
2, 140732, Note_off_c, 0, 60, 100
2, 140736, Note_on_c, 0, 65, 110
2, 140828, Note_off_c, 0, 68, 100
2, 140832, Note_on_c, 0, 60, 110
2, 140924, Note_off_c, 0, 65, 100
2, 140928, Note_on_c, 0, 56, 110
2, 141020, Note_off_c, 0, 60, 100
2, 141024, Note_on_c, 0, 65, 110
2, 141116, Note_off_c, 0, 56, 100
2, 141120, Note_on_c, 0, 60, 110
2, 141212, Note_off_c, 0, 65, 100
2, 141216, Note_on_c, 0, 56, 110
2, 141308, Note_off_c, 0, 60, 100
2, 141308, Note_off_c, 0, 56, 100
2, 141312, Note_on_c, 0, 53, 110
2, 142076, Note_off_c, 0, 53, 100
2, 142080, Note_on_c, 0, 75, 110
2, 142172, Note_off_c, 0, 75, 100
2, 142176, Note_on_c, 0, 73, 110
2, 142268, Note_off_c, 0, 73, 100
2, 142272, Note_on_c, 0, 72, 110
2, 142364, Note_off_c, 0, 72, 100
2, 142368, Note_on_c, 0, 70, 110
2, 142460, Note_off_c, 0, 70, 100
2, 142464, Note_on_c, 0, 69, 110
2, 142556, Note_off_c, 0, 69, 100
2, 142560, Note_on_c, 0, 67, 110
2, 142652, Note_off_c, 0, 67, 100
2, 142656, Note_on_c, 0, 65, 110
2, 142748, Note_off_c, 0, 65, 100
2, 142752, Note_on_c, 0, 63, 110
2, 142844, Note_off_c, 0, 63, 100
2, 142848, Note_on_c, 0, 61, 110
2, 143036, Note_off_c, 0, 61, 100
2, 143040, Note_on_c, 0, 77, 110
2, 143040, Note_on_c, 0, 73, 110
2, 143228, Note_off_c, 0, 77, 100
2, 143228, Note_off_c, 0, 73, 100
2, 143232, Note_on_c, 0, 75, 110
2, 143232, Note_on_c, 0, 72, 110
2, 143420, Note_off_c, 0, 75, 100
2, 143420, Note_off_c, 0, 72, 100
2, 143424, Note_on_c, 0, 73, 110
2, 143424, Note_on_c, 0, 70, 110
2, 143612, Note_off_c, 0, 73, 100
2, 143612, Note_off_c, 0, 70, 100
2, 143808, Note_on_c, 0, 73, 110
2, 143808, Note_on_c, 0, 70, 110
2, 143996, Note_off_c, 0, 73, 100
2, 143996, Note_off_c, 0, 70, 100
2, 144000, Note_on_c, 0, 72, 110
2, 144000, Note_on_c, 0, 68, 110
2, 144188, Note_off_c, 0, 72, 100
2, 144188, Note_off_c, 0, 68, 100
2, 144192, Note_on_c, 0, 70, 110
2, 144192, Note_on_c, 0, 67, 110
2, 144380, Note_off_c, 0, 70, 100
2, 144380, Note_off_c, 0, 67, 100
2, 144384, Note_on_c, 0, 68, 110
2, 144384, Note_on_c, 0, 65, 110
2, 144572, Note_off_c, 0, 68, 100
2, 144572, Note_off_c, 0, 65, 100
2, 144576, Note_on_c, 0, 72, 110
2, 144576, Note_on_c, 0, 68, 110
2, 144764, Note_off_c, 0, 72, 100
2, 144764, Note_off_c, 0, 68, 100
2, 144768, Note_on_c, 0, 68, 110
2, 144768, Note_on_c, 0, 65, 110
2, 144956, Note_off_c, 0, 68, 100
2, 144956, Note_off_c, 0, 65, 100
2, 144960, Note_on_c, 0, 72, 110
2, 144960, Note_on_c, 0, 68, 110
2, 145148, Note_off_c, 0, 72, 100
2, 145148, Note_off_c, 0, 68, 100
2, 145152, Note_on_c, 0, 72, 110
2, 145152, Note_on_c, 0, 68, 110
2, 145340, Note_off_c, 0, 72, 100
2, 145340, Note_off_c, 0, 68, 100
2, 145344, Note_on_c, 0, 70, 110
2, 145344, Note_on_c, 0, 67, 110
2, 145532, Note_off_c, 0, 70, 100
2, 145532, Note_off_c, 0, 67, 100
2, 145536, Note_on_c, 0, 68, 110
2, 145536, Note_on_c, 0, 65, 110
2, 145724, Note_off_c, 0, 68, 100
2, 145724, Note_off_c, 0, 65, 100
2, 145728, Note_on_c, 0, 67, 110
2, 145728, Note_on_c, 0, 64, 110
2, 145916, Note_off_c, 0, 67, 100
2, 145916, Note_off_c, 0, 64, 100
2, 145920, Note_on_c, 0, 65, 110
2, 146684, Note_off_c, 0, 65, 100
2, 146688, Note_on_c, 0, 75, 110
2, 146780, Note_off_c, 0, 75, 100
2, 146784, Note_on_c, 0, 73, 110
2, 146876, Note_off_c, 0, 73, 100
2, 146880, Note_on_c, 0, 72, 110
2, 146972, Note_off_c, 0, 72, 100
2, 146976, Note_on_c, 0, 70, 110
2, 147068, Note_off_c, 0, 70, 100
2, 147072, Note_on_c, 0, 69, 110
2, 147164, Note_off_c, 0, 69, 100
2, 147168, Note_on_c, 0, 67, 110
2, 147260, Note_off_c, 0, 67, 100
2, 147264, Note_on_c, 0, 65, 110
2, 147356, Note_off_c, 0, 65, 100
2, 147360, Note_on_c, 0, 63, 110
2, 147452, Note_off_c, 0, 63, 100
2, 147456, Note_on_c, 0, 61, 110
2, 147644, Note_off_c, 0, 61, 100
2, 147648, Note_on_c, 0, 77, 110
2, 147648, Note_on_c, 0, 73, 110
2, 147836, Note_off_c, 0, 77, 100
2, 147836, Note_off_c, 0, 73, 100
2, 147840, Note_on_c, 0, 75, 110
2, 147840, Note_on_c, 0, 72, 110
2, 148028, Note_off_c, 0, 75, 100
2, 148028, Note_off_c, 0, 72, 100
2, 148032, Note_on_c, 0, 73, 110
2, 148032, Note_on_c, 0, 70, 110
2, 148220, Note_off_c, 0, 73, 100
2, 148220, Note_off_c, 0, 70, 100
2, 148416, Note_on_c, 0, 73, 110
2, 148416, Note_on_c, 0, 70, 110
2, 148604, Note_off_c, 0, 73, 100
2, 148604, Note_off_c, 0, 70, 100
2, 148608, Note_on_c, 0, 72, 110
2, 148608, Note_on_c, 0, 68, 110
2, 148796, Note_off_c, 0, 72, 100
2, 148796, Note_off_c, 0, 68, 100
2, 148800, Note_on_c, 0, 70, 110
2, 148800, Note_on_c, 0, 67, 110
2, 148988, Note_off_c, 0, 70, 100
2, 148988, Note_off_c, 0, 67, 100
2, 148992, Note_on_c, 0, 68, 110
2, 148992, Note_on_c, 0, 65, 110
2, 149180, Note_off_c, 0, 68, 100
2, 149180, Note_off_c, 0, 65, 100
2, 149184, Note_on_c, 0, 72, 110
2, 149184, Note_on_c, 0, 68, 110
2, 149372, Note_off_c, 0, 72, 100
2, 149372, Note_off_c, 0, 68, 100
2, 149376, Note_on_c, 0, 68, 110
2, 149376, Note_on_c, 0, 65, 110
2, 149564, Note_off_c, 0, 68, 100
2, 149564, Note_off_c, 0, 65, 100
2, 149568, Note_on_c, 0, 72, 110
2, 149568, Note_on_c, 0, 68, 110
2, 149756, Note_off_c, 0, 72, 100
2, 149756, Note_off_c, 0, 68, 100
2, 149760, Note_on_c, 0, 72, 110
2, 149760, Note_on_c, 0, 68, 110
2, 149948, Note_off_c, 0, 72, 100
2, 149948, Note_off_c, 0, 68, 100
2, 149952, Note_on_c, 0, 70, 110
2, 149952, Note_on_c, 0, 67, 110
2, 150140, Note_off_c, 0, 70, 100
2, 150140, Note_off_c, 0, 67, 100
2, 150144, Note_on_c, 0, 68, 110
2, 150144, Note_on_c, 0, 65, 110
2, 150332, Note_off_c, 0, 68, 100
2, 150332, Note_off_c, 0, 65, 100
2, 150336, Note_on_c, 0, 67, 110
2, 150336, Note_on_c, 0, 64, 110
2, 150524, Note_off_c, 0, 67, 100
2, 150524, Note_off_c, 0, 64, 100
2, 150528, Note_on_c, 0, 65, 110
2, 150624, Note_on_c, 0, 77, 110
2, 150716, Note_off_c, 0, 65, 100
2, 150720, Note_on_c, 0, 72, 110
2, 150812, Note_off_c, 0, 77, 100
2, 150816, Note_on_c, 0, 68, 110
2, 150908, Note_off_c, 0, 72, 100
2, 150912, Note_on_c, 0, 65, 110
2, 151004, Note_off_c, 0, 68, 100
2, 151008, Note_on_c, 0, 72, 110
2, 151100, Note_off_c, 0, 65, 100
2, 151104, Note_on_c, 0, 68, 110
2, 151196, Note_off_c, 0, 72, 100
2, 151200, Note_on_c, 0, 65, 110
2, 151292, Note_off_c, 0, 68, 100
2, 151296, Note_on_c, 0, 60, 110
2, 151388, Note_off_c, 0, 65, 100
2, 151392, Note_on_c, 0, 68, 110
2, 151484, Note_off_c, 0, 60, 100
2, 151488, Note_on_c, 0, 65, 110
2, 151580, Note_off_c, 0, 68, 100
2, 151584, Note_on_c, 0, 60, 110
2, 151676, Note_off_c, 0, 65, 100
2, 151680, Note_on_c, 0, 56, 110
2, 151772, Note_off_c, 0, 60, 100
2, 151776, Note_on_c, 0, 65, 110
2, 151868, Note_off_c, 0, 56, 100
2, 151872, Note_on_c, 0, 60, 110
2, 151964, Note_off_c, 0, 65, 100
2, 151968, Note_on_c, 0, 56, 110
2, 152060, Note_off_c, 0, 60, 100
2, 152060, Note_off_c, 0, 56, 100
2, 152064, Note_on_c, 0, 53, 110
2, 152444, Note_off_c, 0, 53, 100
2, 152448, Note_on_c, 0, 53, 110
2, 152828, Note_off_c, 0, 53, 100
2, 152832, Note_on_c, 0, 53, 110
2, 153596, Note_off_c, 0, 53, 100
2, 153600, Note_on_c, 0, 53, 100
2, 153788, Note_off_c, 0, 53, 100
2, 153792, Note_on_c, 0, 52, 100
2, 153980, Note_off_c, 0, 52, 100
2, 153984, Note_on_c, 0, 50, 100
2, 154172, Note_off_c, 0, 50, 100
2, 154176, Note_on_c, 0, 48, 100
2, 154364, Note_off_c, 0, 48, 100
2, 154368, Note_on_c, 0, 53, 100
2, 154556, Note_off_c, 0, 53, 100
2, 154560, Note_on_c, 0, 57, 100
2, 154748, Note_off_c, 0, 57, 100
2, 154752, Note_on_c, 0, 60, 100
2, 154940, Note_off_c, 0, 60, 100
2, 154944, Note_on_c, 0, 63, 100
2, 155132, Note_off_c, 0, 63, 100
2, 155136, Note_on_c, 0, 66, 100
2, 155324, Note_off_c, 0, 66, 100
2, 155328, Note_on_c, 0, 66, 100
2, 155516, Note_off_c, 0, 66, 100
2, 155520, Note_on_c, 0, 65, 100
2, 155708, Note_off_c, 0, 65, 100
2, 155712, Note_on_c, 0, 66, 100
2, 155900, Note_off_c, 0, 66, 100
2, 155904, Note_on_c, 0, 65, 100
2, 156092, Note_off_c, 0, 65, 100
2, 156096, Note_on_c, 0, 63, 100
2, 156284, Note_off_c, 0, 63, 100
2, 156288, Note_on_c, 0, 61, 100
2, 156476, Note_off_c, 0, 61, 100
2, 156480, Note_on_c, 0, 60, 100
2, 156668, Note_off_c, 0, 60, 100
2, 156672, Note_on_c, 0, 63, 100
2, 156736, Note_on_c, 0, 65, 100
2, 156796, Note_off_c, 0, 63, 100
2, 156800, Note_on_c, 0, 63, 100
2, 156860, Note_off_c, 0, 65, 100
2, 156864, Note_on_c, 0, 61, 100
2, 156924, Note_off_c, 0, 63, 100
2, 157052, Note_off_c, 0, 61, 100
2, 157056, Note_on_c, 0, 60, 100
2, 157120, Note_on_c, 0, 61, 100
2, 157180, Note_off_c, 0, 60, 100
2, 157184, Note_on_c, 0, 60, 100
2, 157244, Note_off_c, 0, 61, 100
2, 157248, Note_on_c, 0, 58, 100
2, 157308, Note_off_c, 0, 60, 100
2, 157436, Note_off_c, 0, 58, 100
2, 157440, Note_on_c, 0, 61, 100
2, 157628, Note_off_c, 0, 61, 100
2, 157632, Note_on_c, 0, 65, 100
2, 157820, Note_off_c, 0, 65, 100
2, 157824, Note_on_c, 0, 70, 100
2, 158012, Note_off_c, 0, 70, 100
2, 158016, Note_on_c, 0, 72, 100
2, 158204, Note_off_c, 0, 72, 100
2, 158208, Note_on_c, 0, 73, 100
2, 158396, Note_off_c, 0, 73, 100
2, 158400, Note_on_c, 0, 72, 100
2, 158588, Note_off_c, 0, 72, 100
2, 158592, Note_on_c, 0, 70, 100
2, 158780, Note_off_c, 0, 70, 100
2, 158784, Note_on_c, 0, 72, 100
2, 158972, Note_off_c, 0, 72, 100
2, 158976, Note_on_c, 0, 70, 100
2, 159164, Note_off_c, 0, 70, 100
2, 159168, Note_on_c, 0, 68, 100
2, 159356, Note_off_c, 0, 68, 100
2, 159360, Note_on_c, 0, 67, 100
2, 159548, Note_off_c, 0, 67, 100
2, 159552, Note_on_c, 0, 65, 100
2, 159740, Note_off_c, 0, 65, 100
2, 159744, Note_on_c, 0, 72, 100
2, 160124, Note_off_c, 0, 72, 100
2, 161280, Note_on_c, 0, 77, 70
2, 161344, Note_on_c, 0, 79, 70
2, 161404, Note_off_c, 0, 77, 100
2, 161408, Note_on_c, 0, 77, 70
2, 161468, Note_off_c, 0, 79, 100
2, 161472, Note_on_c, 0, 76, 70
2, 161532, Note_off_c, 0, 77, 100
2, 161660, Note_off_c, 0, 76, 100
2, 161664, Note_on_c, 0, 73, 70
2, 161728, Note_on_c, 0, 75, 70
2, 161788, Note_off_c, 0, 73, 100
2, 161792, Note_on_c, 0, 73, 70
2, 161852, Note_off_c, 0, 75, 100
2, 161856, Note_on_c, 0, 72, 70
2, 161916, Note_off_c, 0, 73, 100
2, 162044, Note_off_c, 0, 72, 100
2, 162048, Note_on_c, 0, 71, 70
2, 162236, Note_off_c, 0, 71, 100
2, 162240, Note_on_c, 0, 72, 70
2, 162428, Note_off_c, 0, 72, 100
2, 162432, Note_on_c, 0, 73, 70
2, 162620, Note_off_c, 0, 73, 100
2, 162624, Note_on_c, 0, 72, 70
2, 162812, Note_off_c, 0, 72, 100
2, 162816, Note_on_c, 0, 70, 100
2, 162816, Note_on_c, 0, 72, 100
2, 163580, Note_off_c, 0, 70, 100
2, 163580, Note_off_c, 0, 72, 100
2, 163584, Note_on_c, 0, 70, 100
2, 163584, Note_on_c, 0, 72, 100
2, 164348, Note_off_c, 0, 70, 100
2, 164348, Note_off_c, 0, 72, 100
2, 164352, Note_on_c, 0, 68, 70
2, 164352, Note_on_c, 0, 77, 70
2, 164540, Note_off_c, 0, 68, 100
2, 164540, Note_off_c, 0, 77, 100
2, 164544, Note_on_c, 0, 76, 70
2, 164732, Note_off_c, 0, 76, 100
2, 164736, Note_on_c, 0, 73, 70
2, 164800, Note_on_c, 0, 75, 70
2, 164860, Note_off_c, 0, 73, 100
2, 164864, Note_on_c, 0, 73, 70
2, 164924, Note_off_c, 0, 75, 100
2, 164928, Note_on_c, 0, 72, 70
2, 164988, Note_off_c, 0, 73, 100
2, 165116, Note_off_c, 0, 72, 100
2, 165120, Note_on_c, 0, 71, 70
2, 165308, Note_off_c, 0, 71, 100
2, 165312, Note_on_c, 0, 72, 70
2, 165500, Note_off_c, 0, 72, 100
2, 165504, Note_on_c, 0, 73, 70
2, 165692, Note_off_c, 0, 73, 100
2, 165696, Note_on_c, 0, 72, 70
2, 165884, Note_off_c, 0, 72, 100
2, 165888, Note_on_c, 0, 70, 100
2, 165888, Note_on_c, 0, 72, 100
2, 166652, Note_off_c, 0, 70, 100
2, 166652, Note_off_c, 0, 72, 100
2, 166656, Note_on_c, 0, 70, 100
2, 166656, Note_on_c, 0, 72, 100
2, 167420, Note_off_c, 0, 70, 100
2, 167420, Note_off_c, 0, 72, 100
2, 167424, Note_on_c, 0, 68, 100
2, 167424, Note_on_c, 0, 77, 100
2, 167612, Note_off_c, 0, 68, 100
2, 167612, Note_off_c, 0, 77, 100
2, 167616, Note_on_c, 0, 77, 100
2, 167996, Note_off_c, 0, 77, 100
2, 168000, Note_on_c, 0, 72, 100
2, 168188, Note_off_c, 0, 72, 100
2, 168192, Note_on_c, 0, 73, 100
2, 168380, Note_off_c, 0, 73, 100
2, 168384, Note_on_c, 0, 67, 100
2, 168384, Note_on_c, 0, 79, 100
2, 168764, Note_off_c, 0, 67, 100
2, 168764, Note_off_c, 0, 79, 100
2, 168768, Note_on_c, 0, 67, 92
2, 168768, Note_on_c, 0, 77, 92
2, 168956, Note_off_c, 0, 67, 100
2, 168956, Note_off_c, 0, 77, 100
2, 168960, Note_on_c, 0, 68, 87
2, 168960, Note_on_c, 0, 77, 87
2, 169724, Note_off_c, 0, 68, 100
2, 169724, Note_off_c, 0, 77, 100
2, 169728, Note_on_c, 0, 67, 70
2, 169728, Note_on_c, 0, 76, 70
2, 170108, Note_off_c, 0, 67, 100
2, 170108, Note_off_c, 0, 76, 100
2, 170592, Note_on_c, 0, 60, 110
2, 170688, Note_on_c, 0, 64, 110
2, 170780, Note_off_c, 0, 60, 100
2, 170784, Note_on_c, 0, 67, 110
2, 170876, Note_off_c, 0, 64, 100
2, 170880, Note_on_c, 0, 70, 110
2, 170972, Note_off_c, 0, 67, 100
2, 170976, Note_on_c, 0, 64, 110
2, 171068, Note_off_c, 0, 70, 100
2, 171072, Note_on_c, 0, 67, 110
2, 171164, Note_off_c, 0, 64, 100
2, 171168, Note_on_c, 0, 70, 110
2, 171260, Note_off_c, 0, 67, 100
2, 171264, Note_on_c, 0, 76, 110
2, 171356, Note_off_c, 0, 70, 100
2, 171360, Note_on_c, 0, 67, 110
2, 171452, Note_off_c, 0, 76, 100
2, 171456, Note_on_c, 0, 70, 110
2, 171548, Note_off_c, 0, 67, 100
2, 171552, Note_on_c, 0, 76, 110
2, 171644, Note_off_c, 0, 70, 100
2, 171648, Note_on_c, 0, 79, 110
2, 171740, Note_off_c, 0, 76, 100
2, 171744, Note_on_c, 0, 70, 110
2, 171836, Note_off_c, 0, 79, 100
2, 171840, Note_on_c, 0, 76, 110
2, 171932, Note_off_c, 0, 70, 100
2, 171936, Note_on_c, 0, 79, 110
2, 172028, Note_off_c, 0, 76, 100
2, 172028, Note_off_c, 0, 79, 100
2, 172032, Note_on_c, 0, 82, 110
2, 172032, Note_on_c, 0, 79, 110
2, 172220, Note_off_c, 0, 82, 100
2, 172220, Note_off_c, 0, 79, 100
2, 172224, Note_on_c, 0, 80, 110
2, 172224, Note_on_c, 0, 77, 110
2, 172412, Note_off_c, 0, 80, 100
2, 172412, Note_off_c, 0, 77, 100
2, 172416, Note_on_c, 0, 79, 110
2, 172416, Note_on_c, 0, 76, 110
2, 172604, Note_off_c, 0, 79, 100
2, 172604, Note_off_c, 0, 76, 100
2, 172608, Note_on_c, 0, 77, 110
2, 172608, Note_on_c, 0, 74, 110
2, 172796, Note_off_c, 0, 77, 100
2, 172796, Note_off_c, 0, 74, 100
2, 172800, Note_on_c, 0, 76, 110
2, 172800, Note_on_c, 0, 72, 110
2, 172988, Note_off_c, 0, 76, 100
2, 172988, Note_off_c, 0, 72, 100
2, 172992, Note_on_c, 0, 73, 110
2, 172992, Note_on_c, 0, 70, 110
2, 173180, Note_off_c, 0, 73, 100
2, 173180, Note_off_c, 0, 70, 100
2, 173184, Note_on_c, 0, 72, 110
2, 173184, Note_on_c, 0, 68, 110
2, 173372, Note_off_c, 0, 72, 100
2, 173372, Note_off_c, 0, 68, 100
2, 173376, Note_on_c, 0, 70, 110
2, 173376, Note_on_c, 0, 67, 110
2, 173564, Note_off_c, 0, 70, 100
2, 173564, Note_off_c, 0, 67, 100
2, 173568, Note_on_c, 0, 68, 110
2, 173664, Note_on_c, 0, 77, 110
2, 173756, Note_off_c, 0, 68, 100
2, 173760, Note_on_c, 0, 72, 110
2, 173852, Note_off_c, 0, 77, 100
2, 173856, Note_on_c, 0, 68, 110
2, 173948, Note_off_c, 0, 72, 100
2, 173952, Note_on_c, 0, 65, 110
2, 174044, Note_off_c, 0, 68, 100
2, 174048, Note_on_c, 0, 72, 110
2, 174140, Note_off_c, 0, 65, 100
2, 174144, Note_on_c, 0, 68, 110
2, 174236, Note_off_c, 0, 72, 100
2, 174240, Note_on_c, 0, 65, 110
2, 174332, Note_off_c, 0, 68, 100
2, 174336, Note_on_c, 0, 60, 110
2, 174428, Note_off_c, 0, 65, 100
2, 174432, Note_on_c, 0, 68, 110
2, 174524, Note_off_c, 0, 60, 100
2, 174528, Note_on_c, 0, 65, 110
2, 174620, Note_off_c, 0, 68, 100
2, 174624, Note_on_c, 0, 60, 110
2, 174716, Note_off_c, 0, 65, 100
2, 174720, Note_on_c, 0, 56, 110
2, 174812, Note_off_c, 0, 60, 100
2, 174816, Note_on_c, 0, 65, 110
2, 174908, Note_off_c, 0, 56, 100
2, 174912, Note_on_c, 0, 60, 110
2, 175004, Note_off_c, 0, 65, 100
2, 175008, Note_on_c, 0, 56, 110
2, 175100, Note_off_c, 0, 60, 100
2, 175100, Note_off_c, 0, 56, 100
2, 175104, Note_on_c, 0, 53, 110
2, 175868, Note_off_c, 0, 53, 100
2, 176736, Note_on_c, 0, 60, 110
2, 176832, Note_on_c, 0, 64, 110
2, 176924, Note_off_c, 0, 60, 100
2, 176928, Note_on_c, 0, 67, 110
2, 177020, Note_off_c, 0, 64, 100
2, 177024, Note_on_c, 0, 70, 110
2, 177116, Note_off_c, 0, 67, 100
2, 177120, Note_on_c, 0, 64, 110
2, 177212, Note_off_c, 0, 70, 100
2, 177216, Note_on_c, 0, 67, 110
2, 177308, Note_off_c, 0, 64, 100
2, 177312, Note_on_c, 0, 70, 110
2, 177404, Note_off_c, 0, 67, 100
2, 177408, Note_on_c, 0, 76, 110
2, 177500, Note_off_c, 0, 70, 100
2, 177504, Note_on_c, 0, 67, 110
2, 177596, Note_off_c, 0, 76, 100
2, 177600, Note_on_c, 0, 70, 110
2, 177692, Note_off_c, 0, 67, 100
2, 177696, Note_on_c, 0, 76, 110
2, 177788, Note_off_c, 0, 70, 100
2, 177792, Note_on_c, 0, 79, 110
2, 177884, Note_off_c, 0, 76, 100
2, 177888, Note_on_c, 0, 70, 110
2, 177980, Note_off_c, 0, 79, 100
2, 177984, Note_on_c, 0, 76, 110
2, 178076, Note_off_c, 0, 70, 100
2, 178080, Note_on_c, 0, 79, 110
2, 178172, Note_off_c, 0, 76, 100
2, 178172, Note_off_c, 0, 79, 100
2, 178176, Note_on_c, 0, 82, 110
2, 178176, Note_on_c, 0, 79, 110
2, 178364, Note_off_c, 0, 82, 100
2, 178364, Note_off_c, 0, 79, 100
2, 178368, Note_on_c, 0, 80, 110
2, 178368, Note_on_c, 0, 77, 110
2, 178556, Note_off_c, 0, 80, 100
2, 178556, Note_off_c, 0, 77, 100
2, 178560, Note_on_c, 0, 79, 110
2, 178560, Note_on_c, 0, 76, 110
2, 178748, Note_off_c, 0, 79, 100
2, 178748, Note_off_c, 0, 76, 100
2, 178752, Note_on_c, 0, 77, 110
2, 178752, Note_on_c, 0, 74, 110
2, 178940, Note_off_c, 0, 77, 100
2, 178940, Note_off_c, 0, 74, 100
2, 178944, Note_on_c, 0, 76, 110
2, 178944, Note_on_c, 0, 72, 110
2, 179132, Note_off_c, 0, 76, 100
2, 179132, Note_off_c, 0, 72, 100
2, 179136, Note_on_c, 0, 73, 110
2, 179136, Note_on_c, 0, 70, 110
2, 179324, Note_off_c, 0, 73, 100
2, 179324, Note_off_c, 0, 70, 100
2, 179328, Note_on_c, 0, 72, 110
2, 179328, Note_on_c, 0, 68, 110
2, 179516, Note_off_c, 0, 72, 100
2, 179516, Note_off_c, 0, 68, 100
2, 179520, Note_on_c, 0, 70, 110
2, 179520, Note_on_c, 0, 67, 110
2, 179708, Note_off_c, 0, 70, 100
2, 179708, Note_off_c, 0, 67, 100
2, 179712, Note_on_c, 0, 68, 110
2, 179808, Note_on_c, 0, 77, 110
2, 179900, Note_off_c, 0, 68, 100
2, 179904, Note_on_c, 0, 72, 110
2, 179996, Note_off_c, 0, 77, 100
2, 180000, Note_on_c, 0, 68, 110
2, 180092, Note_off_c, 0, 72, 100
2, 180096, Note_on_c, 0, 65, 110
2, 180188, Note_off_c, 0, 68, 100
2, 180192, Note_on_c, 0, 72, 110
2, 180284, Note_off_c, 0, 65, 100
2, 180288, Note_on_c, 0, 68, 110
2, 180380, Note_off_c, 0, 72, 100
2, 180384, Note_on_c, 0, 65, 110
2, 180476, Note_off_c, 0, 68, 100
2, 180480, Note_on_c, 0, 60, 110
2, 180572, Note_off_c, 0, 65, 100
2, 180576, Note_on_c, 0, 68, 110
2, 180668, Note_off_c, 0, 60, 100
2, 180672, Note_on_c, 0, 65, 110
2, 180764, Note_off_c, 0, 68, 100
2, 180768, Note_on_c, 0, 60, 110
2, 180860, Note_off_c, 0, 65, 100
2, 180864, Note_on_c, 0, 56, 110
2, 180956, Note_off_c, 0, 60, 100
2, 180960, Note_on_c, 0, 65, 110
2, 181052, Note_off_c, 0, 56, 100
2, 181056, Note_on_c, 0, 60, 110
2, 181148, Note_off_c, 0, 65, 100
2, 181152, Note_on_c, 0, 56, 110
2, 181244, Note_off_c, 0, 60, 100
2, 181244, Note_off_c, 0, 56, 100
2, 181248, Note_on_c, 0, 53, 110
2, 182012, Note_off_c, 0, 53, 100
2, 182016, Note_on_c, 0, 75, 110
2, 182108, Note_off_c, 0, 75, 100
2, 182112, Note_on_c, 0, 73, 110
2, 182204, Note_off_c, 0, 73, 100
2, 182208, Note_on_c, 0, 72, 110
2, 182300, Note_off_c, 0, 72, 100
2, 182304, Note_on_c, 0, 70, 110
2, 182396, Note_off_c, 0, 70, 100
2, 182400, Note_on_c, 0, 69, 110
2, 182492, Note_off_c, 0, 69, 100
2, 182496, Note_on_c, 0, 67, 110
2, 182588, Note_off_c, 0, 67, 100
2, 182592, Note_on_c, 0, 65, 110
2, 182684, Note_off_c, 0, 65, 100
2, 182688, Note_on_c, 0, 63, 110
2, 182780, Note_off_c, 0, 63, 100
2, 182784, Note_on_c, 0, 61, 110
2, 182972, Note_off_c, 0, 61, 100
2, 182976, Note_on_c, 0, 77, 110
2, 182976, Note_on_c, 0, 73, 110
2, 183164, Note_off_c, 0, 77, 100
2, 183164, Note_off_c, 0, 73, 100
2, 183168, Note_on_c, 0, 75, 110
2, 183168, Note_on_c, 0, 72, 110
2, 183356, Note_off_c, 0, 75, 100
2, 183356, Note_off_c, 0, 72, 100
2, 183360, Note_on_c, 0, 73, 110
2, 183360, Note_on_c, 0, 70, 110
2, 183548, Note_off_c, 0, 73, 100
2, 183548, Note_off_c, 0, 70, 100
2, 183744, Note_on_c, 0, 73, 110
2, 183744, Note_on_c, 0, 70, 110
2, 183932, Note_off_c, 0, 73, 100
2, 183932, Note_off_c, 0, 70, 100
2, 183936, Note_on_c, 0, 72, 110
2, 183936, Note_on_c, 0, 68, 110
2, 184124, Note_off_c, 0, 72, 100
2, 184124, Note_off_c, 0, 68, 100
2, 184128, Note_on_c, 0, 70, 110
2, 184128, Note_on_c, 0, 67, 110
2, 184316, Note_off_c, 0, 70, 100
2, 184316, Note_off_c, 0, 67, 100
2, 184320, Note_on_c, 0, 68, 110
2, 184320, Note_on_c, 0, 65, 110
2, 184508, Note_off_c, 0, 68, 100
2, 184508, Note_off_c, 0, 65, 100
2, 184512, Note_on_c, 0, 72, 110
2, 184512, Note_on_c, 0, 68, 110
2, 184700, Note_off_c, 0, 72, 100
2, 184700, Note_off_c, 0, 68, 100
2, 184704, Note_on_c, 0, 68, 110
2, 184704, Note_on_c, 0, 65, 110
2, 184892, Note_off_c, 0, 68, 100
2, 184892, Note_off_c, 0, 65, 100
2, 184896, Note_on_c, 0, 72, 110
2, 184896, Note_on_c, 0, 68, 110
2, 185084, Note_off_c, 0, 72, 100
2, 185084, Note_off_c, 0, 68, 100
2, 185088, Note_on_c, 0, 72, 110
2, 185088, Note_on_c, 0, 68, 110
2, 185276, Note_off_c, 0, 72, 100
2, 185276, Note_off_c, 0, 68, 100
2, 185280, Note_on_c, 0, 70, 110
2, 185280, Note_on_c, 0, 67, 110
2, 185468, Note_off_c, 0, 70, 100
2, 185468, Note_off_c, 0, 67, 100
2, 185472, Note_on_c, 0, 68, 110
2, 185472, Note_on_c, 0, 65, 110
2, 185660, Note_off_c, 0, 68, 100
2, 185660, Note_off_c, 0, 65, 100
2, 185664, Note_on_c, 0, 67, 110
2, 185664, Note_on_c, 0, 64, 110
2, 185852, Note_off_c, 0, 67, 100
2, 185852, Note_off_c, 0, 64, 100
2, 185856, Note_on_c, 0, 65, 110
2, 186620, Note_off_c, 0, 65, 100
2, 186624, Note_on_c, 0, 75, 110
2, 186716, Note_off_c, 0, 75, 100
2, 186720, Note_on_c, 0, 73, 110
2, 186812, Note_off_c, 0, 73, 100
2, 186816, Note_on_c, 0, 72, 110
2, 186908, Note_off_c, 0, 72, 100
2, 186912, Note_on_c, 0, 70, 110
2, 187004, Note_off_c, 0, 70, 100
2, 187008, Note_on_c, 0, 69, 110
2, 187100, Note_off_c, 0, 69, 100
2, 187104, Note_on_c, 0, 67, 110
2, 187196, Note_off_c, 0, 67, 100
2, 187200, Note_on_c, 0, 65, 110
2, 187292, Note_off_c, 0, 65, 100
2, 187296, Note_on_c, 0, 63, 110
2, 187388, Note_off_c, 0, 63, 100
2, 187392, Note_on_c, 0, 61, 110
2, 187580, Note_off_c, 0, 61, 100
2, 187584, Note_on_c, 0, 77, 110
2, 187584, Note_on_c, 0, 73, 110
2, 187772, Note_off_c, 0, 77, 100
2, 187772, Note_off_c, 0, 73, 100
2, 187776, Note_on_c, 0, 75, 110
2, 187776, Note_on_c, 0, 72, 110
2, 187964, Note_off_c, 0, 75, 100
2, 187964, Note_off_c, 0, 72, 100
2, 187968, Note_on_c, 0, 73, 110
2, 187968, Note_on_c, 0, 70, 110
2, 188156, Note_off_c, 0, 73, 100
2, 188156, Note_off_c, 0, 70, 100
2, 188352, Note_on_c, 0, 73, 110
2, 188352, Note_on_c, 0, 70, 110
2, 188540, Note_off_c, 0, 73, 100
2, 188540, Note_off_c, 0, 70, 100
2, 188544, Note_on_c, 0, 72, 110
2, 188544, Note_on_c, 0, 68, 110
2, 188732, Note_off_c, 0, 72, 100
2, 188732, Note_off_c, 0, 68, 100
2, 188736, Note_on_c, 0, 70, 110
2, 188736, Note_on_c, 0, 67, 110
2, 188924, Note_off_c, 0, 70, 100
2, 188924, Note_off_c, 0, 67, 100
2, 188928, Note_on_c, 0, 68, 110
2, 188928, Note_on_c, 0, 65, 110
2, 189116, Note_off_c, 0, 68, 100
2, 189116, Note_off_c, 0, 65, 100
2, 189120, Note_on_c, 0, 72, 110
2, 189120, Note_on_c, 0, 68, 110
2, 189308, Note_off_c, 0, 72, 100
2, 189308, Note_off_c, 0, 68, 100
2, 189312, Note_on_c, 0, 68, 110
2, 189312, Note_on_c, 0, 65, 110
2, 189500, Note_off_c, 0, 68, 100
2, 189500, Note_off_c, 0, 65, 100
2, 189504, Note_on_c, 0, 72, 110
2, 189504, Note_on_c, 0, 68, 110
2, 189692, Note_off_c, 0, 72, 100
2, 189692, Note_off_c, 0, 68, 100
2, 189696, Note_on_c, 0, 72, 110
2, 189696, Note_on_c, 0, 68, 110
2, 189884, Note_off_c, 0, 72, 100
2, 189884, Note_off_c, 0, 68, 100
2, 189888, Note_on_c, 0, 70, 110
2, 189888, Note_on_c, 0, 67, 110
2, 190076, Note_off_c, 0, 70, 100
2, 190076, Note_off_c, 0, 67, 100
2, 190080, Note_on_c, 0, 68, 110
2, 190080, Note_on_c, 0, 65, 110
2, 190268, Note_off_c, 0, 68, 100
2, 190268, Note_off_c, 0, 65, 100
2, 190272, Note_on_c, 0, 67, 110
2, 190272, Note_on_c, 0, 64, 110
2, 190460, Note_off_c, 0, 67, 100
2, 190460, Note_off_c, 0, 64, 100
2, 190464, Note_on_c, 0, 65, 110
2, 190560, Note_on_c, 0, 77, 110
2, 190652, Note_off_c, 0, 65, 100
2, 190656, Note_on_c, 0, 72, 110
2, 190748, Note_off_c, 0, 77, 100
2, 190752, Note_on_c, 0, 68, 110
2, 190844, Note_off_c, 0, 72, 100
2, 190848, Note_on_c, 0, 65, 110
2, 190940, Note_off_c, 0, 68, 100
2, 190944, Note_on_c, 0, 72, 110
2, 191036, Note_off_c, 0, 65, 100
2, 191040, Note_on_c, 0, 68, 110
2, 191132, Note_off_c, 0, 72, 100
2, 191136, Note_on_c, 0, 65, 110
2, 191228, Note_off_c, 0, 68, 100
2, 191232, Note_on_c, 0, 60, 110
2, 191324, Note_off_c, 0, 65, 100
2, 191328, Note_on_c, 0, 68, 110
2, 191420, Note_off_c, 0, 60, 100
2, 191424, Note_on_c, 0, 65, 110
2, 191516, Note_off_c, 0, 68, 100
2, 191520, Note_on_c, 0, 60, 110
2, 191612, Note_off_c, 0, 65, 100
2, 191616, Note_on_c, 0, 56, 110
2, 191708, Note_off_c, 0, 60, 100
2, 191712, Note_on_c, 0, 65, 110
2, 191804, Note_off_c, 0, 56, 100
2, 191808, Note_on_c, 0, 60, 110
2, 191900, Note_off_c, 0, 65, 100
2, 191904, Note_on_c, 0, 56, 110
2, 191996, Note_off_c, 0, 60, 100
2, 191996, Note_off_c, 0, 56, 100
2, 192000, Note_on_c, 0, 53, 110
2, 192380, Note_off_c, 0, 53, 100
2, 192384, Note_on_c, 0, 53, 110
2, 192764, Note_off_c, 0, 53, 100
2, 192768, Note_on_c, 0, 53, 110
2, 193916, Note_off_c, 0, 53, 100
2, 195840, Control_c, 0, 11, 0
2, 195936, Note_on_c, 0, 65, 1
2, 196028, Note_off_c, 0, 65, 100
2, 196028, End_track
3, 0, Start_track
3, 0, Title_t, "Piano Left"
3, 0, Control_c, 1, 0, 0
3, 0, Program_c, 1, 0
3, 0, Control_c, 1, 7, 100
3, 0, Control_c, 1, 10, 55
3, 0, Control_c, 1, 91, 127
3, 0, Key_signature, -4, "minor"
3, 0, Note_on_c, 1, 53, 100
3, 192, Note_on_c, 1, 52, 100
3, 380, Note_off_c, 1, 53, 100
3, 380, Note_off_c, 1, 52, 100
3, 384, Note_on_c, 1, 50, 100
3, 576, Note_on_c, 1, 48, 100
3, 764, Note_off_c, 1, 50, 100
3, 764, Note_off_c, 1, 48, 100
3, 768, Note_on_c, 1, 53, 100
3, 956, Note_off_c, 1, 53, 100
3, 960, Note_on_c, 1, 56, 100
3, 1148, Note_off_c, 1, 56, 100
3, 1152, Note_on_c, 1, 60, 100
3, 1340, Note_off_c, 1, 60, 100
3, 1344, Note_on_c, 1, 53, 100
3, 1532, Note_off_c, 1, 53, 100
3, 1536, Note_on_c, 1, 55, 100
3, 1724, Note_off_c, 1, 55, 100
3, 1728, Note_on_c, 1, 52, 100
3, 1916, Note_off_c, 1, 52, 100
3, 1920, Note_on_c, 1, 50, 100
3, 2112, Note_on_c, 1, 48, 100
3, 2300, Note_off_c, 1, 50, 100
3, 2300, Note_off_c, 1, 48, 100
3, 2304, Note_on_c, 1, 55, 100
3, 2492, Note_off_c, 1, 55, 100
3, 2496, Note_on_c, 1, 58, 100
3, 2684, Note_off_c, 1, 58, 100
3, 2688, Note_on_c, 1, 61, 100
3, 2876, Note_off_c, 1, 61, 100
3, 2880, Note_on_c, 1, 55, 100
3, 3068, Note_off_c, 1, 55, 100
3, 3072, Note_on_c, 1, 56, 100
3, 3260, Note_off_c, 1, 56, 100
3, 3264, Note_on_c, 1, 60, 100
3, 3452, Note_off_c, 1, 60, 100
3, 3456, Note_on_c, 1, 59, 100
3, 3644, Note_off_c, 1, 59, 100
3, 3648, Note_on_c, 1, 60, 100
3, 3836, Note_off_c, 1, 60, 100
3, 3840, Note_on_c, 1, 58, 100
3, 4032, Note_on_c, 1, 56, 100
3, 4220, Note_off_c, 1, 58, 100
3, 4220, Note_off_c, 1, 56, 100
3, 4224, Note_on_c, 1, 55, 100
3, 4416, Note_on_c, 1, 53, 100
3, 4604, Note_off_c, 1, 55, 100
3, 4604, Note_off_c, 1, 53, 100
3, 4608, Note_on_c, 1, 60, 100
3, 4796, Note_off_c, 1, 60, 100
3, 4800, Note_on_c, 1, 48, 100
3, 4988, Note_off_c, 1, 48, 100
3, 4992, Note_on_c, 1, 48, 100
3, 5084, Note_off_c, 1, 48, 100
3, 5088, Note_on_c, 1, 47, 100
3, 5180, Note_off_c, 1, 47, 100
3, 5184, Note_on_c, 1, 48, 100
3, 5276, Note_off_c, 1, 48, 100
3, 5280, Note_on_c, 1, 47, 100
3, 5372, Note_off_c, 1, 47, 100
3, 5376, Note_on_c, 1, 48, 100
3, 5564, Note_off_c, 1, 48, 100
3, 5568, Note_on_c, 1, 50, 100
3, 5756, Note_off_c, 1, 50, 100
3, 5760, Note_on_c, 1, 51, 100
3, 5948, Note_off_c, 1, 51, 100
3, 5952, Note_on_c, 1, 52, 100
3, 6140, Note_off_c, 1, 52, 100
3, 6144, Note_on_c, 1, 53, 100
3, 6336, Note_on_c, 1, 52, 100
3, 6524, Note_off_c, 1, 53, 100
3, 6524, Note_off_c, 1, 52, 100
3, 6528, Note_on_c, 1, 50, 100
3, 6720, Note_on_c, 1, 48, 100
3, 6908, Note_off_c, 1, 50, 100
3, 6908, Note_off_c, 1, 48, 100
3, 6912, Note_on_c, 1, 53, 100
3, 7100, Note_off_c, 1, 53, 100
3, 7104, Note_on_c, 1, 56, 100
3, 7292, Note_off_c, 1, 56, 100
3, 7296, Note_on_c, 1, 60, 100
3, 7484, Note_off_c, 1, 60, 100
3, 7488, Note_on_c, 1, 53, 100
3, 7676, Note_off_c, 1, 53, 100
3, 7680, Note_on_c, 1, 55, 100
3, 7868, Note_off_c, 1, 55, 100
3, 7872, Note_on_c, 1, 52, 100
3, 8060, Note_off_c, 1, 52, 100
3, 8064, Note_on_c, 1, 50, 100
3, 8256, Note_on_c, 1, 48, 100
3, 8444, Note_off_c, 1, 50, 100
3, 8444, Note_off_c, 1, 48, 100
3, 8448, Note_on_c, 1, 55, 100
3, 8636, Note_off_c, 1, 55, 100
3, 8640, Note_on_c, 1, 58, 100
3, 8828, Note_off_c, 1, 58, 100
3, 8832, Note_on_c, 1, 61, 100
3, 9020, Note_off_c, 1, 61, 100
3, 9024, Note_on_c, 1, 55, 100
3, 9212, Note_off_c, 1, 55, 100
3, 9216, Note_on_c, 1, 56, 100
3, 9596, Note_off_c, 1, 56, 100
3, 9600, Note_on_c, 1, 58, 100
3, 9980, Note_off_c, 1, 58, 100
3, 9984, Note_on_c, 1, 60, 100
3, 10364, Note_off_c, 1, 60, 100
3, 10368, Note_on_c, 1, 48, 100
3, 10748, Note_off_c, 1, 48, 100
3, 10752, Note_on_c, 1, 41, 100
3, 10940, Note_off_c, 1, 41, 100
3, 10944, Note_on_c, 1, 53, 100
3, 11132, Note_off_c, 1, 53, 100
3, 11136, Note_on_c, 1, 48, 100
3, 11324, Note_off_c, 1, 48, 100
3, 11328, Note_on_c, 1, 44, 100
3, 11516, Note_off_c, 1, 44, 100
3, 11520, Note_on_c, 1, 41, 100
3, 11900, Note_off_c, 1, 41, 100
3, 12288, Note_on_c, 1, 53, 100
3, 12384, Note_on_c, 1, 60, 100
3, 12476, Note_off_c, 1, 53, 100
3, 12480, Note_on_c, 1, 56, 100
3, 12572, Note_off_c, 1, 60, 100
3, 12576, Note_on_c, 1, 60, 100
3, 12668, Note_off_c, 1, 56, 100
3, 12672, Note_on_c, 1, 53, 100
3, 12764, Note_off_c, 1, 60, 100
3, 12768, Note_on_c, 1, 60, 100
3, 12860, Note_off_c, 1, 53, 100
3, 12864, Note_on_c, 1, 56, 100
3, 12956, Note_off_c, 1, 60, 100
3, 12960, Note_on_c, 1, 60, 100
3, 13052, Note_off_c, 1, 56, 100
3, 13056, Note_on_c, 1, 53, 100
3, 13148, Note_off_c, 1, 60, 100
3, 13152, Note_on_c, 1, 60, 100
3, 13244, Note_off_c, 1, 53, 100
3, 13248, Note_on_c, 1, 56, 100
3, 13340, Note_off_c, 1, 60, 100
3, 13344, Note_on_c, 1, 60, 100
3, 13436, Note_off_c, 1, 56, 100
3, 13440, Note_on_c, 1, 53, 100
3, 13532, Note_off_c, 1, 60, 100
3, 13536, Note_on_c, 1, 60, 100
3, 13628, Note_off_c, 1, 53, 100
3, 13632, Note_on_c, 1, 56, 100
3, 13724, Note_off_c, 1, 60, 100
3, 13728, Note_on_c, 1, 60, 100
3, 13820, Note_off_c, 1, 56, 100
3, 13820, Note_off_c, 1, 60, 100
3, 13824, Note_on_c, 1, 52, 100
3, 13920, Note_on_c, 1, 60, 100
3, 14012, Note_off_c, 1, 52, 100
3, 14016, Note_on_c, 1, 55, 100
3, 14108, Note_off_c, 1, 60, 100
3, 14112, Note_on_c, 1, 60, 100
3, 14204, Note_off_c, 1, 55, 100
3, 14208, Note_on_c, 1, 52, 100
3, 14300, Note_off_c, 1, 60, 100
3, 14304, Note_on_c, 1, 60, 100
3, 14396, Note_off_c, 1, 52, 100
3, 14400, Note_on_c, 1, 55, 100
3, 14492, Note_off_c, 1, 60, 100
3, 14496, Note_on_c, 1, 60, 100
3, 14588, Note_off_c, 1, 55, 100
3, 14592, Note_on_c, 1, 52, 100
3, 14684, Note_off_c, 1, 60, 100
3, 14688, Note_on_c, 1, 60, 100
3, 14780, Note_off_c, 1, 52, 100
3, 14784, Note_on_c, 1, 55, 100
3, 14876, Note_off_c, 1, 60, 100
3, 14880, Note_on_c, 1, 60, 100
3, 14972, Note_off_c, 1, 55, 100
3, 14976, Note_on_c, 1, 52, 100
3, 15068, Note_off_c, 1, 60, 100
3, 15072, Note_on_c, 1, 60, 100
3, 15164, Note_off_c, 1, 52, 100
3, 15168, Note_on_c, 1, 55, 100
3, 15260, Note_off_c, 1, 60, 100
3, 15264, Note_on_c, 1, 60, 100
3, 15356, Note_off_c, 1, 55, 100
3, 15356, Note_off_c, 1, 60, 100
3, 15360, Note_on_c, 1, 53, 100
3, 15456, Note_on_c, 1, 60, 100
3, 15548, Note_off_c, 1, 53, 100
3, 15552, Note_on_c, 1, 56, 100
3, 15644, Note_off_c, 1, 60, 100
3, 15648, Note_on_c, 1, 60, 100
3, 15740, Note_off_c, 1, 56, 100
3, 15744, Note_on_c, 1, 53, 100
3, 15836, Note_off_c, 1, 60, 100
3, 15840, Note_on_c, 1, 60, 100
3, 15932, Note_off_c, 1, 53, 100
3, 15936, Note_on_c, 1, 56, 100
3, 16028, Note_off_c, 1, 60, 100
3, 16032, Note_on_c, 1, 60, 100
3, 16124, Note_off_c, 1, 56, 100
3, 16124, Note_off_c, 1, 60, 100
3, 16128, Note_on_c, 1, 46, 100
3, 16224, Note_on_c, 1, 55, 100
3, 16316, Note_off_c, 1, 46, 100
3, 16320, Note_on_c, 1, 49, 100
3, 16412, Note_off_c, 1, 55, 100
3, 16416, Note_on_c, 1, 55, 100
3, 16508, Note_off_c, 1, 49, 100
3, 16512, Note_on_c, 1, 47, 100
3, 16604, Note_off_c, 1, 55, 100
3, 16608, Note_on_c, 1, 55, 100
3, 16700, Note_off_c, 1, 47, 100
3, 16704, Note_on_c, 1, 50, 100
3, 16796, Note_off_c, 1, 55, 100
3, 16800, Note_on_c, 1, 55, 100
3, 16892, Note_off_c, 1, 50, 100
3, 16892, Note_off_c, 1, 55, 100
3, 16896, Note_on_c, 1, 48, 100
3, 16992, Note_on_c, 1, 56, 100
3, 17084, Note_off_c, 1, 48, 100
3, 17088, Note_on_c, 1, 53, 100
3, 17180, Note_off_c, 1, 56, 100
3, 17184, Note_on_c, 1, 56, 100
3, 17276, Note_off_c, 1, 53, 100
3, 17280, Note_on_c, 1, 48, 100
3, 17372, Note_off_c, 1, 56, 100
3, 17376, Note_on_c, 1, 56, 100
3, 17468, Note_off_c, 1, 48, 100
3, 17472, Note_on_c, 1, 53, 100
3, 17564, Note_off_c, 1, 56, 100
3, 17568, Note_on_c, 1, 56, 100
3, 17660, Note_off_c, 1, 53, 100
3, 17660, Note_off_c, 1, 56, 100
3, 17664, Note_on_c, 1, 48, 100
3, 17760, Note_on_c, 1, 55, 100
3, 17852, Note_off_c, 1, 48, 100
3, 17856, Note_on_c, 1, 52, 100
3, 17948, Note_off_c, 1, 55, 100
3, 17952, Note_on_c, 1, 55, 100
3, 18044, Note_off_c, 1, 52, 100
3, 18048, Note_on_c, 1, 48, 100
3, 18140, Note_off_c, 1, 55, 100
3, 18144, Note_on_c, 1, 55, 100
3, 18236, Note_off_c, 1, 48, 100
3, 18240, Note_on_c, 1, 52, 100
3, 18332, Note_off_c, 1, 55, 100
3, 18336, Note_on_c, 1, 55, 100
3, 18428, Note_off_c, 1, 52, 100
3, 18428, Note_off_c, 1, 55, 100
3, 18432, Note_on_c, 1, 53, 100
3, 18528, Note_on_c, 1, 60, 100
3, 18620, Note_off_c, 1, 53, 100
3, 18624, Note_on_c, 1, 56, 100
3, 18716, Note_off_c, 1, 60, 100
3, 18720, Note_on_c, 1, 60, 100
3, 18812, Note_off_c, 1, 56, 100
3, 18816, Note_on_c, 1, 53, 100
3, 18908, Note_off_c, 1, 60, 100
3, 18912, Note_on_c, 1, 60, 100
3, 19004, Note_off_c, 1, 53, 100
3, 19008, Note_on_c, 1, 56, 100
3, 19100, Note_off_c, 1, 60, 100
3, 19104, Note_on_c, 1, 60, 100
3, 19196, Note_off_c, 1, 56, 100
3, 19200, Note_on_c, 1, 53, 100
3, 19292, Note_off_c, 1, 60, 100
3, 19296, Note_on_c, 1, 60, 100
3, 19388, Note_off_c, 1, 53, 100
3, 19392, Note_on_c, 1, 56, 100
3, 19484, Note_off_c, 1, 60, 100
3, 19488, Note_on_c, 1, 60, 100
3, 19580, Note_off_c, 1, 56, 100
3, 19584, Note_on_c, 1, 53, 100
3, 19676, Note_off_c, 1, 60, 100
3, 19680, Note_on_c, 1, 60, 100
3, 19772, Note_off_c, 1, 53, 100
3, 19776, Note_on_c, 1, 56, 100
3, 19868, Note_off_c, 1, 60, 100
3, 19872, Note_on_c, 1, 60, 100
3, 19964, Note_off_c, 1, 56, 100
3, 19964, Note_off_c, 1, 60, 100
3, 19968, Note_on_c, 1, 52, 100
3, 20064, Note_on_c, 1, 60, 100
3, 20156, Note_off_c, 1, 52, 100
3, 20160, Note_on_c, 1, 55, 100
3, 20252, Note_off_c, 1, 60, 100
3, 20256, Note_on_c, 1, 60, 100
3, 20348, Note_off_c, 1, 55, 100
3, 20352, Note_on_c, 1, 52, 100
3, 20444, Note_off_c, 1, 60, 100
3, 20448, Note_on_c, 1, 60, 100
3, 20540, Note_off_c, 1, 52, 100
3, 20544, Note_on_c, 1, 55, 100
3, 20636, Note_off_c, 1, 60, 100
3, 20640, Note_on_c, 1, 60, 100
3, 20732, Note_off_c, 1, 55, 100
3, 20736, Note_on_c, 1, 52, 100
3, 20828, Note_off_c, 1, 60, 100
3, 20832, Note_on_c, 1, 60, 100
3, 20924, Note_off_c, 1, 52, 100
3, 20928, Note_on_c, 1, 55, 100
3, 21020, Note_off_c, 1, 60, 100
3, 21024, Note_on_c, 1, 60, 100
3, 21116, Note_off_c, 1, 55, 100
3, 21120, Note_on_c, 1, 52, 100
3, 21212, Note_off_c, 1, 60, 100
3, 21216, Note_on_c, 1, 60, 100
3, 21308, Note_off_c, 1, 52, 100
3, 21312, Note_on_c, 1, 55, 100
3, 21404, Note_off_c, 1, 60, 100
3, 21408, Note_on_c, 1, 60, 100
3, 21500, Note_off_c, 1, 55, 100
3, 21500, Note_off_c, 1, 60, 100
3, 21504, Note_on_c, 1, 53, 100
3, 21884, Note_off_c, 1, 53, 100
3, 21888, Note_on_c, 1, 58, 100
3, 22268, Note_off_c, 1, 58, 100
3, 22272, Note_on_c, 1, 60, 100
3, 22652, Note_off_c, 1, 60, 100
3, 22656, Note_on_c, 1, 48, 100
3, 23036, Note_off_c, 1, 48, 100
3, 23040, Note_on_c, 1, 53, 100
3, 23132, Note_off_c, 1, 53, 100
3, 23136, Note_on_c, 1, 65, 100
3, 23228, Note_off_c, 1, 65, 100
3, 23232, Note_on_c, 1, 64, 100
3, 23324, Note_off_c, 1, 64, 100
3, 23328, Note_on_c, 1, 65, 100
3, 23420, Note_off_c, 1, 65, 100
3, 23424, Note_on_c, 1, 67, 100
3, 23516, Note_off_c, 1, 67, 100
3, 23520, Note_on_c, 1, 65, 100
3, 23612, Note_off_c, 1, 65, 100
3, 23616, Note_on_c, 1, 64, 100
3, 23708, Note_off_c, 1, 64, 100
3, 23712, Note_on_c, 1, 65, 100
3, 23804, Note_off_c, 1, 65, 100
3, 23808, Note_on_c, 1, 53, 100
3, 24188, Note_off_c, 1, 53, 100
3, 26112, Note_on_c, 1, 46, 100
3, 26300, Note_off_c, 1, 46, 100
3, 26304, Note_on_c, 1, 44, 100
3, 26492, Note_off_c, 1, 44, 100
3, 26496, Note_on_c, 1, 43, 100
3, 26684, Note_off_c, 1, 43, 100
3, 26688, Note_on_c, 1, 41, 100
3, 26876, Note_off_c, 1, 41, 100
3, 26880, Note_on_c, 1, 39, 100
3, 27068, Note_off_c, 1, 39, 100
3, 27072, Note_on_c, 1, 41, 100
3, 27260, Note_off_c, 1, 41, 100
3, 27264, Note_on_c, 1, 43, 90
3, 27452, Note_off_c, 1, 43, 100
3, 27456, Note_on_c, 1, 39, 81
3, 27644, Note_off_c, 1, 39, 100
3, 27648, Note_on_c, 1, 44, 71
3, 28028, Note_off_c, 1, 44, 100
3, 29184, Note_on_c, 1, 46, 100
3, 29372, Note_off_c, 1, 46, 100
3, 29376, Note_on_c, 1, 44, 100
3, 29564, Note_off_c, 1, 44, 100
3, 29568, Note_on_c, 1, 43, 100
3, 29756, Note_off_c, 1, 43, 100
3, 29760, Note_on_c, 1, 41, 100
3, 29948, Note_off_c, 1, 41, 100
3, 29952, Note_on_c, 1, 39, 100
3, 30140, Note_off_c, 1, 39, 100
3, 30144, Note_on_c, 1, 41, 100
3, 30332, Note_off_c, 1, 41, 100
3, 30336, Note_on_c, 1, 43, 100
3, 30524, Note_off_c, 1, 43, 100
3, 30528, Note_on_c, 1, 39, 100
3, 30716, Note_off_c, 1, 39, 100
3, 30720, Note_on_c, 1, 44, 100
3, 31100, Note_off_c, 1, 44, 100
3, 31104, Note_on_c, 1, 48, 100
3, 31484, Note_off_c, 1, 48, 100
3, 31488, Note_on_c, 1, 49, 100
3, 31868, Note_off_c, 1, 49, 100
3, 31872, Note_on_c, 1, 50, 96
3, 32252, Note_off_c, 1, 50, 100
3, 32256, Note_on_c, 1, 51, 87
3, 32636, Note_off_c, 1, 51, 100
3, 32640, Note_on_c, 1, 39, 78
3, 33020, Note_off_c, 1, 39, 100
3, 33024, Note_on_c, 1, 51, 70
3, 33404, Note_off_c, 1, 51, 100
3, 33792, Note_on_c, 1, 39, 110
3, 33792, Note_on_c, 1, 51, 110
3, 35324, Note_off_c, 1, 39, 100
3, 35324, Note_off_c, 1, 51, 100
3, 35328, Note_on_c, 1, 39, 110
3, 35328, Note_on_c, 1, 51, 110
3, 36092, Note_off_c, 1, 39, 100
3, 36092, Note_off_c, 1, 51, 100
3, 36096, Note_on_c, 1, 39, 110
3, 36096, Note_on_c, 1, 51, 110
3, 36860, Note_off_c, 1, 39, 100
3, 36860, Note_off_c, 1, 51, 100
3, 36864, Note_on_c, 1, 32, 110
3, 36864, Note_on_c, 1, 44, 110
3, 38396, Note_off_c, 1, 32, 100
3, 38396, Note_off_c, 1, 44, 100
3, 38400, Note_on_c, 1, 44, 110
3, 38492, Note_off_c, 1, 44, 100
3, 38496, Note_on_c, 1, 46, 110
3, 38588, Note_off_c, 1, 46, 100
3, 38592, Note_on_c, 1, 48, 110
3, 38684, Note_off_c, 1, 48, 100
3, 38688, Note_on_c, 1, 49, 110
3, 38780, Note_off_c, 1, 49, 100
3, 38784, Note_on_c, 1, 51, 110
3, 38876, Note_off_c, 1, 51, 100
3, 38880, Note_on_c, 1, 53, 110
3, 38972, Note_off_c, 1, 53, 100
3, 38976, Note_on_c, 1, 55, 110
3, 39068, Note_off_c, 1, 55, 100
3, 39072, Note_on_c, 1, 56, 110
3, 39164, Note_off_c, 1, 56, 100
3, 39168, Note_on_c, 1, 44, 110
3, 39548, Note_off_c, 1, 44, 100
3, 39936, Note_on_c, 1, 39, 110
3, 39936, Note_on_c, 1, 51, 110
3, 41468, Note_off_c, 1, 39, 100
3, 41468, Note_off_c, 1, 51, 100
3, 41472, Note_on_c, 1, 39, 110
3, 41472, Note_on_c, 1, 51, 110
3, 42236, Note_off_c, 1, 39, 100
3, 42236, Note_off_c, 1, 51, 100
3, 42240, Note_on_c, 1, 39, 110
3, 42240, Note_on_c, 1, 51, 110
3, 43004, Note_off_c, 1, 39, 100
3, 43004, Note_off_c, 1, 51, 100
3, 43008, Note_on_c, 1, 44, 110
3, 43008, Note_on_c, 1, 32, 110
3, 43772, Note_off_c, 1, 44, 100
3, 43772, Note_off_c, 1, 32, 100
3, 44544, Note_on_c, 1, 44, 110
3, 44636, Note_off_c, 1, 44, 100
3, 44640, Note_on_c, 1, 46, 110
3, 44732, Note_off_c, 1, 46, 100
3, 44736, Note_on_c, 1, 48, 110
3, 44828, Note_off_c, 1, 48, 100
3, 44832, Note_on_c, 1, 49, 110
3, 44924, Note_off_c, 1, 49, 100
3, 44928, Note_on_c, 1, 51, 110
3, 45020, Note_off_c, 1, 51, 100
3, 45024, Note_on_c, 1, 53, 110
3, 45116, Note_off_c, 1, 53, 100
3, 45120, Note_on_c, 1, 55, 110
3, 45212, Note_off_c, 1, 55, 100
3, 45216, Note_on_c, 1, 56, 110
3, 45308, Note_off_c, 1, 56, 100
3, 45312, Note_on_c, 1, 44, 110
3, 46076, Note_off_c, 1, 44, 100
3, 46080, Note_on_c, 1, 49, 110
3, 46844, Note_off_c, 1, 49, 100
3, 46848, Note_on_c, 1, 49, 110
3, 47612, Note_off_c, 1, 49, 100
3, 47616, Note_on_c, 1, 51, 110
3, 48380, Note_off_c, 1, 51, 100
3, 48384, Note_on_c, 1, 39, 110
3, 49148, Note_off_c, 1, 39, 100
3, 49152, Note_on_c, 1, 44, 110
3, 49244, Note_off_c, 1, 44, 100
3, 49248, Note_on_c, 1, 46, 110
3, 49340, Note_off_c, 1, 46, 100
3, 49344, Note_on_c, 1, 48, 110
3, 49436, Note_off_c, 1, 48, 100
3, 49440, Note_on_c, 1, 49, 110
3, 49532, Note_off_c, 1, 49, 100
3, 49536, Note_on_c, 1, 51, 110
3, 49628, Note_off_c, 1, 51, 100
3, 49632, Note_on_c, 1, 53, 110
3, 49724, Note_off_c, 1, 53, 100
3, 49728, Note_on_c, 1, 55, 110
3, 49820, Note_off_c, 1, 55, 100
3, 49824, Note_on_c, 1, 56, 110
3, 49916, Note_off_c, 1, 56, 100
3, 49920, Note_on_c, 1, 44, 110
3, 50684, Note_off_c, 1, 44, 100
3, 50688, Note_on_c, 1, 49, 110
3, 51452, Note_off_c, 1, 49, 100
3, 51456, Note_on_c, 1, 49, 110
3, 52220, Note_off_c, 1, 49, 100
3, 52224, Note_on_c, 1, 51, 110
3, 52988, Note_off_c, 1, 51, 100
3, 52992, Note_on_c, 1, 39, 110
3, 53756, Note_off_c, 1, 39, 100
3, 53760, Note_on_c, 1, 44, 110
3, 54140, Note_off_c, 1, 44, 100
3, 54528, Note_on_c, 1, 44, 110
3, 54908, Note_off_c, 1, 44, 100
3, 55296, Note_on_c, 1, 32, 110
3, 55296, Note_on_c, 1, 44, 110
3, 55676, Note_off_c, 1, 32, 100
3, 55676, Note_off_c, 1, 44, 100
3, 55680, Note_on_c, 1, 32, 110
3, 55680, Note_on_c, 1, 44, 110
3, 56060, Note_off_c, 1, 32, 100
3, 56060, Note_off_c, 1, 44, 100
3, 56064, Note_on_c, 1, 32, 110
3, 56064, Note_on_c, 1, 44, 110
3, 56828, Note_off_c, 1, 32, 100
3, 56828, Note_off_c, 1, 44, 100
3, 56832, Note_on_c, 1, 53, 100
3, 57024, Note_on_c, 1, 52, 100
3, 57212, Note_off_c, 1, 53, 100
3, 57212, Note_off_c, 1, 52, 100
3, 57216, Note_on_c, 1, 50, 100
3, 57408, Note_on_c, 1, 48, 100
3, 57596, Note_off_c, 1, 50, 100
3, 57596, Note_off_c, 1, 48, 100
3, 57600, Note_on_c, 1, 53, 100
3, 57788, Note_off_c, 1, 53, 100
3, 57792, Note_on_c, 1, 56, 100
3, 57980, Note_off_c, 1, 56, 100
3, 57984, Note_on_c, 1, 60, 100
3, 58172, Note_off_c, 1, 60, 100
3, 58176, Note_on_c, 1, 53, 100
3, 58364, Note_off_c, 1, 53, 100
3, 58368, Note_on_c, 1, 55, 100
3, 58556, Note_off_c, 1, 55, 100
3, 58560, Note_on_c, 1, 52, 100
3, 58748, Note_off_c, 1, 52, 100
3, 58752, Note_on_c, 1, 50, 100
3, 58944, Note_on_c, 1, 48, 100
3, 59132, Note_off_c, 1, 50, 100
3, 59132, Note_off_c, 1, 48, 100
3, 59136, Note_on_c, 1, 55, 100
3, 59324, Note_off_c, 1, 55, 100
3, 59328, Note_on_c, 1, 58, 100
3, 59516, Note_off_c, 1, 58, 100
3, 59520, Note_on_c, 1, 61, 100
3, 59708, Note_off_c, 1, 61, 100
3, 59712, Note_on_c, 1, 55, 100
3, 59900, Note_off_c, 1, 55, 100
3, 59904, Note_on_c, 1, 56, 100
3, 60092, Note_off_c, 1, 56, 100
3, 60096, Note_on_c, 1, 60, 100
3, 60284, Note_off_c, 1, 60, 100
3, 60288, Note_on_c, 1, 59, 100
3, 60476, Note_off_c, 1, 59, 100
3, 60480, Note_on_c, 1, 60, 100
3, 60668, Note_off_c, 1, 60, 100
3, 60672, Note_on_c, 1, 58, 100
3, 60864, Note_on_c, 1, 56, 100
3, 61052, Note_off_c, 1, 58, 100
3, 61052, Note_off_c, 1, 56, 100
3, 61056, Note_on_c, 1, 55, 100
3, 61248, Note_on_c, 1, 53, 100
3, 61436, Note_off_c, 1, 55, 100
3, 61436, Note_off_c, 1, 53, 100
3, 61440, Note_on_c, 1, 60, 100
3, 61628, Note_off_c, 1, 60, 100
3, 61632, Note_on_c, 1, 48, 100
3, 61820, Note_off_c, 1, 48, 100
3, 61824, Note_on_c, 1, 48, 100
3, 61916, Note_off_c, 1, 48, 100
3, 61920, Note_on_c, 1, 47, 100
3, 62012, Note_off_c, 1, 47, 100
3, 62016, Note_on_c, 1, 48, 100
3, 62108, Note_off_c, 1, 48, 100
3, 62112, Note_on_c, 1, 47, 100
3, 62204, Note_off_c, 1, 47, 100
3, 62208, Note_on_c, 1, 48, 100
3, 62396, Note_off_c, 1, 48, 100
3, 62400, Note_on_c, 1, 50, 100
3, 62588, Note_off_c, 1, 50, 100
3, 62592, Note_on_c, 1, 51, 100
3, 62780, Note_off_c, 1, 51, 100
3, 62784, Note_on_c, 1, 52, 100
3, 62972, Note_off_c, 1, 52, 100
3, 62976, Note_on_c, 1, 53, 100
3, 63168, Note_on_c, 1, 52, 100
3, 63356, Note_off_c, 1, 53, 100
3, 63356, Note_off_c, 1, 52, 100
3, 63360, Note_on_c, 1, 50, 100
3, 63552, Note_on_c, 1, 48, 100
3, 63740, Note_off_c, 1, 50, 100
3, 63740, Note_off_c, 1, 48, 100
3, 63744, Note_on_c, 1, 53, 100
3, 63932, Note_off_c, 1, 53, 100
3, 63936, Note_on_c, 1, 56, 100
3, 64124, Note_off_c, 1, 56, 100
3, 64128, Note_on_c, 1, 60, 100
3, 64316, Note_off_c, 1, 60, 100
3, 64320, Note_on_c, 1, 53, 100
3, 64508, Note_off_c, 1, 53, 100
3, 64512, Note_on_c, 1, 55, 100
3, 64700, Note_off_c, 1, 55, 100
3, 64704, Note_on_c, 1, 52, 100
3, 64892, Note_off_c, 1, 52, 100
3, 64896, Note_on_c, 1, 50, 100
3, 65088, Note_on_c, 1, 48, 100
3, 65276, Note_off_c, 1, 50, 100
3, 65276, Note_off_c, 1, 48, 100
3, 65280, Note_on_c, 1, 55, 100
3, 65468, Note_off_c, 1, 55, 100
3, 65472, Note_on_c, 1, 58, 100
3, 65660, Note_off_c, 1, 58, 100
3, 65664, Note_on_c, 1, 61, 100
3, 65852, Note_off_c, 1, 61, 100
3, 65856, Note_on_c, 1, 55, 100
3, 66044, Note_off_c, 1, 55, 100
3, 66048, Note_on_c, 1, 56, 100
3, 66428, Note_off_c, 1, 56, 100
3, 66432, Note_on_c, 1, 58, 100
3, 66812, Note_off_c, 1, 58, 100
3, 66816, Note_on_c, 1, 60, 100
3, 67196, Note_off_c, 1, 60, 100
3, 67200, Note_on_c, 1, 48, 100
3, 67580, Note_off_c, 1, 48, 100
3, 67584, Note_on_c, 1, 41, 100
3, 67772, Note_off_c, 1, 41, 100
3, 67776, Note_on_c, 1, 53, 100
3, 67964, Note_off_c, 1, 53, 100
3, 67968, Note_on_c, 1, 48, 100
3, 68156, Note_off_c, 1, 48, 100
3, 68160, Note_on_c, 1, 44, 100
3, 68348, Note_off_c, 1, 44, 100
3, 68352, Note_on_c, 1, 41, 100
3, 68732, Note_off_c, 1, 41, 100
3, 69120, Note_on_c, 1, 53, 100
3, 69216, Note_on_c, 1, 60, 100
3, 69308, Note_off_c, 1, 53, 100
3, 69312, Note_on_c, 1, 56, 100
3, 69404, Note_off_c, 1, 60, 100
3, 69408, Note_on_c, 1, 60, 100
3, 69500, Note_off_c, 1, 56, 100
3, 69504, Note_on_c, 1, 53, 100
3, 69596, Note_off_c, 1, 60, 100
3, 69600, Note_on_c, 1, 60, 100
3, 69692, Note_off_c, 1, 53, 100
3, 69696, Note_on_c, 1, 56, 100
3, 69788, Note_off_c, 1, 60, 100
3, 69792, Note_on_c, 1, 60, 100
3, 69884, Note_off_c, 1, 56, 100
3, 69888, Note_on_c, 1, 53, 100
3, 69980, Note_off_c, 1, 60, 100
3, 69984, Note_on_c, 1, 60, 100
3, 70076, Note_off_c, 1, 53, 100
3, 70080, Note_on_c, 1, 56, 100
3, 70172, Note_off_c, 1, 60, 100
3, 70176, Note_on_c, 1, 60, 100
3, 70268, Note_off_c, 1, 56, 100
3, 70272, Note_on_c, 1, 53, 100
3, 70364, Note_off_c, 1, 60, 100
3, 70368, Note_on_c, 1, 60, 100
3, 70460, Note_off_c, 1, 53, 100
3, 70464, Note_on_c, 1, 56, 100
3, 70556, Note_off_c, 1, 60, 100
3, 70560, Note_on_c, 1, 60, 100
3, 70652, Note_off_c, 1, 56, 100
3, 70652, Note_off_c, 1, 60, 100
3, 70656, Note_on_c, 1, 52, 100
3, 70752, Note_on_c, 1, 60, 100
3, 70844, Note_off_c, 1, 52, 100
3, 70848, Note_on_c, 1, 55, 100
3, 70940, Note_off_c, 1, 60, 100
3, 70944, Note_on_c, 1, 60, 100
3, 71036, Note_off_c, 1, 55, 100
3, 71040, Note_on_c, 1, 52, 100
3, 71132, Note_off_c, 1, 60, 100
3, 71136, Note_on_c, 1, 60, 100
3, 71228, Note_off_c, 1, 52, 100
3, 71232, Note_on_c, 1, 55, 100
3, 71324, Note_off_c, 1, 60, 100
3, 71328, Note_on_c, 1, 60, 100
3, 71420, Note_off_c, 1, 55, 100
3, 71424, Note_on_c, 1, 52, 100
3, 71516, Note_off_c, 1, 60, 100
3, 71520, Note_on_c, 1, 60, 100
3, 71612, Note_off_c, 1, 52, 100
3, 71616, Note_on_c, 1, 55, 100
3, 71708, Note_off_c, 1, 60, 100
3, 71712, Note_on_c, 1, 60, 100
3, 71804, Note_off_c, 1, 55, 100
3, 71808, Note_on_c, 1, 52, 100
3, 71900, Note_off_c, 1, 60, 100
3, 71904, Note_on_c, 1, 60, 100
3, 71996, Note_off_c, 1, 52, 100
3, 72000, Note_on_c, 1, 55, 100
3, 72092, Note_off_c, 1, 60, 100
3, 72096, Note_on_c, 1, 60, 100
3, 72188, Note_off_c, 1, 55, 100
3, 72188, Note_off_c, 1, 60, 100
3, 72192, Note_on_c, 1, 53, 100
3, 72288, Note_on_c, 1, 60, 100
3, 72380, Note_off_c, 1, 53, 100
3, 72384, Note_on_c, 1, 56, 100
3, 72476, Note_off_c, 1, 60, 100
3, 72480, Note_on_c, 1, 60, 100
3, 72572, Note_off_c, 1, 56, 100
3, 72576, Note_on_c, 1, 53, 100
3, 72668, Note_off_c, 1, 60, 100
3, 72672, Note_on_c, 1, 60, 100
3, 72764, Note_off_c, 1, 53, 100
3, 72768, Note_on_c, 1, 56, 100
3, 72860, Note_off_c, 1, 60, 100
3, 72864, Note_on_c, 1, 60, 100
3, 72956, Note_off_c, 1, 56, 100
3, 72956, Note_off_c, 1, 60, 100
3, 72960, Note_on_c, 1, 46, 100
3, 73056, Note_on_c, 1, 55, 100
3, 73148, Note_off_c, 1, 46, 100
3, 73152, Note_on_c, 1, 49, 100
3, 73244, Note_off_c, 1, 55, 100
3, 73248, Note_on_c, 1, 55, 100
3, 73340, Note_off_c, 1, 49, 100
3, 73344, Note_on_c, 1, 47, 100
3, 73436, Note_off_c, 1, 55, 100
3, 73440, Note_on_c, 1, 55, 100
3, 73532, Note_off_c, 1, 47, 100
3, 73536, Note_on_c, 1, 50, 100
3, 73628, Note_off_c, 1, 55, 100
3, 73632, Note_on_c, 1, 55, 100
3, 73724, Note_off_c, 1, 50, 100
3, 73724, Note_off_c, 1, 55, 100
3, 73728, Note_on_c, 1, 48, 100
3, 73824, Note_on_c, 1, 56, 100
3, 73916, Note_off_c, 1, 48, 100
3, 73920, Note_on_c, 1, 53, 100
3, 74012, Note_off_c, 1, 56, 100
3, 74016, Note_on_c, 1, 56, 100
3, 74108, Note_off_c, 1, 53, 100
3, 74112, Note_on_c, 1, 48, 100
3, 74204, Note_off_c, 1, 56, 100
3, 74208, Note_on_c, 1, 56, 100
3, 74300, Note_off_c, 1, 48, 100
3, 74304, Note_on_c, 1, 53, 100
3, 74396, Note_off_c, 1, 56, 100
3, 74400, Note_on_c, 1, 56, 100
3, 74492, Note_off_c, 1, 53, 100
3, 74492, Note_off_c, 1, 56, 100
3, 74496, Note_on_c, 1, 48, 100
3, 74592, Note_on_c, 1, 55, 100
3, 74684, Note_off_c, 1, 48, 100
3, 74688, Note_on_c, 1, 52, 100
3, 74780, Note_off_c, 1, 55, 100
3, 74784, Note_on_c, 1, 55, 100
3, 74876, Note_off_c, 1, 52, 100
3, 74880, Note_on_c, 1, 48, 100
3, 74972, Note_off_c, 1, 55, 100
3, 74976, Note_on_c, 1, 55, 100
3, 75068, Note_off_c, 1, 48, 100
3, 75072, Note_on_c, 1, 52, 100
3, 75164, Note_off_c, 1, 55, 100
3, 75168, Note_on_c, 1, 55, 100
3, 75260, Note_off_c, 1, 52, 100
3, 75260, Note_off_c, 1, 55, 100
3, 75264, Note_on_c, 1, 53, 100
3, 75360, Note_on_c, 1, 60, 100
3, 75452, Note_off_c, 1, 53, 100
3, 75456, Note_on_c, 1, 56, 100
3, 75548, Note_off_c, 1, 60, 100
3, 75552, Note_on_c, 1, 60, 100
3, 75644, Note_off_c, 1, 56, 100
3, 75648, Note_on_c, 1, 53, 100
3, 75740, Note_off_c, 1, 60, 100
3, 75744, Note_on_c, 1, 60, 100
3, 75836, Note_off_c, 1, 53, 100
3, 75840, Note_on_c, 1, 56, 100
3, 75932, Note_off_c, 1, 60, 100
3, 75936, Note_on_c, 1, 60, 100
3, 76028, Note_off_c, 1, 56, 100
3, 76032, Note_on_c, 1, 53, 100
3, 76124, Note_off_c, 1, 60, 100
3, 76128, Note_on_c, 1, 60, 100
3, 76220, Note_off_c, 1, 53, 100
3, 76224, Note_on_c, 1, 56, 100
3, 76316, Note_off_c, 1, 60, 100
3, 76320, Note_on_c, 1, 60, 100
3, 76412, Note_off_c, 1, 56, 100
3, 76416, Note_on_c, 1, 53, 100
3, 76508, Note_off_c, 1, 60, 100
3, 76512, Note_on_c, 1, 60, 100
3, 76604, Note_off_c, 1, 53, 100
3, 76608, Note_on_c, 1, 56, 100
3, 76700, Note_off_c, 1, 60, 100
3, 76704, Note_on_c, 1, 60, 100
3, 76796, Note_off_c, 1, 56, 100
3, 76796, Note_off_c, 1, 60, 100
3, 76800, Note_on_c, 1, 52, 100
3, 76896, Note_on_c, 1, 60, 100
3, 76988, Note_off_c, 1, 52, 100
3, 76992, Note_on_c, 1, 55, 100
3, 77084, Note_off_c, 1, 60, 100
3, 77088, Note_on_c, 1, 60, 100
3, 77180, Note_off_c, 1, 55, 100
3, 77184, Note_on_c, 1, 52, 100
3, 77276, Note_off_c, 1, 60, 100
3, 77280, Note_on_c, 1, 60, 100
3, 77372, Note_off_c, 1, 52, 100
3, 77376, Note_on_c, 1, 55, 100
3, 77468, Note_off_c, 1, 60, 100
3, 77472, Note_on_c, 1, 60, 100
3, 77564, Note_off_c, 1, 55, 100
3, 77568, Note_on_c, 1, 52, 100
3, 77660, Note_off_c, 1, 60, 100
3, 77664, Note_on_c, 1, 60, 100
3, 77756, Note_off_c, 1, 52, 100
3, 77760, Note_on_c, 1, 55, 100
3, 77852, Note_off_c, 1, 60, 100
3, 77856, Note_on_c, 1, 60, 100
3, 77948, Note_off_c, 1, 55, 100
3, 77952, Note_on_c, 1, 52, 100
3, 78044, Note_off_c, 1, 60, 100
3, 78048, Note_on_c, 1, 60, 100
3, 78140, Note_off_c, 1, 52, 100
3, 78144, Note_on_c, 1, 55, 100
3, 78236, Note_off_c, 1, 60, 100
3, 78240, Note_on_c, 1, 60, 100
3, 78332, Note_off_c, 1, 55, 100
3, 78332, Note_off_c, 1, 60, 100
3, 78336, Note_on_c, 1, 53, 100
3, 78716, Note_off_c, 1, 53, 100
3, 78720, Note_on_c, 1, 58, 100
3, 79100, Note_off_c, 1, 58, 100
3, 79104, Note_on_c, 1, 60, 100
3, 79484, Note_off_c, 1, 60, 100
3, 79488, Note_on_c, 1, 48, 100
3, 79868, Note_off_c, 1, 48, 100
3, 79872, Note_on_c, 1, 53, 100
3, 79964, Note_off_c, 1, 53, 100
3, 79968, Note_on_c, 1, 65, 100
3, 80060, Note_off_c, 1, 65, 100
3, 80064, Note_on_c, 1, 64, 100
3, 80156, Note_off_c, 1, 64, 100
3, 80160, Note_on_c, 1, 65, 100
3, 80252, Note_off_c, 1, 65, 100
3, 80256, Note_on_c, 1, 67, 100
3, 80348, Note_off_c, 1, 67, 100
3, 80352, Note_on_c, 1, 65, 100
3, 80444, Note_off_c, 1, 65, 100
3, 80448, Note_on_c, 1, 64, 100
3, 80540, Note_off_c, 1, 64, 100
3, 80544, Note_on_c, 1, 65, 100
3, 80636, Note_off_c, 1, 65, 100
3, 80640, Note_on_c, 1, 53, 100
3, 81020, Note_off_c, 1, 53, 100
3, 82944, Note_on_c, 1, 46, 100
3, 83132, Note_off_c, 1, 46, 100
3, 83136, Note_on_c, 1, 44, 100
3, 83324, Note_off_c, 1, 44, 100
3, 83328, Note_on_c, 1, 43, 100
3, 83516, Note_off_c, 1, 43, 100
3, 83520, Note_on_c, 1, 41, 100
3, 83708, Note_off_c, 1, 41, 100
3, 83712, Note_on_c, 1, 39, 100
3, 83900, Note_off_c, 1, 39, 100
3, 83904, Note_on_c, 1, 41, 100
3, 84092, Note_off_c, 1, 41, 100
3, 84096, Note_on_c, 1, 43, 90
3, 84284, Note_off_c, 1, 43, 100
3, 84288, Note_on_c, 1, 39, 81
3, 84476, Note_off_c, 1, 39, 100
3, 84480, Note_on_c, 1, 44, 71
3, 84860, Note_off_c, 1, 44, 100
3, 86016, Note_on_c, 1, 46, 100
3, 86204, Note_off_c, 1, 46, 100
3, 86208, Note_on_c, 1, 44, 100
3, 86396, Note_off_c, 1, 44, 100
3, 86400, Note_on_c, 1, 43, 100
3, 86588, Note_off_c, 1, 43, 100
3, 86592, Note_on_c, 1, 41, 100
3, 86780, Note_off_c, 1, 41, 100
3, 86784, Note_on_c, 1, 39, 100
3, 86972, Note_off_c, 1, 39, 100
3, 86976, Note_on_c, 1, 41, 100
3, 87164, Note_off_c, 1, 41, 100
3, 87168, Note_on_c, 1, 43, 100
3, 87356, Note_off_c, 1, 43, 100
3, 87360, Note_on_c, 1, 39, 100
3, 87548, Note_off_c, 1, 39, 100
3, 87552, Note_on_c, 1, 44, 100
3, 87932, Note_off_c, 1, 44, 100
3, 87936, Note_on_c, 1, 48, 100
3, 88316, Note_off_c, 1, 48, 100
3, 88320, Note_on_c, 1, 49, 100
3, 88700, Note_off_c, 1, 49, 100
3, 88704, Note_on_c, 1, 50, 96
3, 89084, Note_off_c, 1, 50, 100
3, 89088, Note_on_c, 1, 51, 87
3, 89468, Note_off_c, 1, 51, 100
3, 89472, Note_on_c, 1, 39, 78
3, 89852, Note_off_c, 1, 39, 100
3, 89856, Note_on_c, 1, 51, 70
3, 90236, Note_off_c, 1, 51, 100
3, 90624, Note_on_c, 1, 39, 110
3, 90624, Note_on_c, 1, 51, 110
3, 92156, Note_off_c, 1, 39, 100
3, 92156, Note_off_c, 1, 51, 100
3, 92160, Note_on_c, 1, 39, 110
3, 92160, Note_on_c, 1, 51, 110
3, 92924, Note_off_c, 1, 39, 100
3, 92924, Note_off_c, 1, 51, 100
3, 92928, Note_on_c, 1, 39, 110
3, 92928, Note_on_c, 1, 51, 110
3, 93692, Note_off_c, 1, 39, 100
3, 93692, Note_off_c, 1, 51, 100
3, 93696, Note_on_c, 1, 32, 110
3, 93696, Note_on_c, 1, 44, 110
3, 95228, Note_off_c, 1, 32, 100
3, 95228, Note_off_c, 1, 44, 100
3, 95232, Note_on_c, 1, 44, 110
3, 95324, Note_off_c, 1, 44, 100
3, 95328, Note_on_c, 1, 46, 110
3, 95420, Note_off_c, 1, 46, 100
3, 95424, Note_on_c, 1, 48, 110
3, 95516, Note_off_c, 1, 48, 100
3, 95520, Note_on_c, 1, 49, 110
3, 95612, Note_off_c, 1, 49, 100
3, 95616, Note_on_c, 1, 51, 110
3, 95708, Note_off_c, 1, 51, 100
3, 95712, Note_on_c, 1, 53, 110
3, 95804, Note_off_c, 1, 53, 100
3, 95808, Note_on_c, 1, 55, 110
3, 95900, Note_off_c, 1, 55, 100
3, 95904, Note_on_c, 1, 56, 110
3, 95996, Note_off_c, 1, 56, 100
3, 96000, Note_on_c, 1, 44, 110
3, 96380, Note_off_c, 1, 44, 100
3, 96768, Note_on_c, 1, 39, 110
3, 96768, Note_on_c, 1, 51, 110
3, 98300, Note_off_c, 1, 39, 100
3, 98300, Note_off_c, 1, 51, 100
3, 98304, Note_on_c, 1, 39, 110
3, 98304, Note_on_c, 1, 51, 110
3, 99068, Note_off_c, 1, 39, 100
3, 99068, Note_off_c, 1, 51, 100
3, 99072, Note_on_c, 1, 39, 110
3, 99072, Note_on_c, 1, 51, 110
3, 99836, Note_off_c, 1, 39, 100
3, 99836, Note_off_c, 1, 51, 100
3, 99840, Note_on_c, 1, 44, 110
3, 99840, Note_on_c, 1, 32, 110
3, 100604, Note_off_c, 1, 44, 100
3, 100604, Note_off_c, 1, 32, 100
3, 101376, Note_on_c, 1, 44, 110
3, 101468, Note_off_c, 1, 44, 100
3, 101472, Note_on_c, 1, 46, 110
3, 101564, Note_off_c, 1, 46, 100
3, 101568, Note_on_c, 1, 48, 110
3, 101660, Note_off_c, 1, 48, 100
3, 101664, Note_on_c, 1, 49, 110
3, 101756, Note_off_c, 1, 49, 100
3, 101760, Note_on_c, 1, 51, 110
3, 101852, Note_off_c, 1, 51, 100
3, 101856, Note_on_c, 1, 53, 110
3, 101948, Note_off_c, 1, 53, 100
3, 101952, Note_on_c, 1, 55, 110
3, 102044, Note_off_c, 1, 55, 100
3, 102048, Note_on_c, 1, 56, 110
3, 102140, Note_off_c, 1, 56, 100
3, 102144, Note_on_c, 1, 44, 110
3, 102908, Note_off_c, 1, 44, 100
3, 102912, Note_on_c, 1, 49, 110
3, 103676, Note_off_c, 1, 49, 100
3, 103680, Note_on_c, 1, 49, 110
3, 104444, Note_off_c, 1, 49, 100
3, 104448, Note_on_c, 1, 51, 110
3, 105212, Note_off_c, 1, 51, 100
3, 105216, Note_on_c, 1, 39, 110
3, 105980, Note_off_c, 1, 39, 100
3, 105984, Note_on_c, 1, 44, 110
3, 106076, Note_off_c, 1, 44, 100
3, 106080, Note_on_c, 1, 46, 110
3, 106172, Note_off_c, 1, 46, 100
3, 106176, Note_on_c, 1, 48, 110
3, 106268, Note_off_c, 1, 48, 100
3, 106272, Note_on_c, 1, 49, 110
3, 106364, Note_off_c, 1, 49, 100
3, 106368, Note_on_c, 1, 51, 110
3, 106460, Note_off_c, 1, 51, 100
3, 106464, Note_on_c, 1, 53, 110
3, 106556, Note_off_c, 1, 53, 100
3, 106560, Note_on_c, 1, 55, 110
3, 106652, Note_off_c, 1, 55, 100
3, 106656, Note_on_c, 1, 56, 110
3, 106748, Note_off_c, 1, 56, 100
3, 106752, Note_on_c, 1, 44, 110
3, 107516, Note_off_c, 1, 44, 100
3, 107520, Note_on_c, 1, 49, 110
3, 108284, Note_off_c, 1, 49, 100
3, 108288, Note_on_c, 1, 49, 110
3, 109052, Note_off_c, 1, 49, 100
3, 109056, Note_on_c, 1, 51, 110
3, 109820, Note_off_c, 1, 51, 100
3, 109824, Note_on_c, 1, 39, 110
3, 110588, Note_off_c, 1, 39, 100
3, 110592, Note_on_c, 1, 44, 110
3, 110972, Note_off_c, 1, 44, 100
3, 111360, Note_on_c, 1, 44, 110
3, 111740, Note_off_c, 1, 44, 100
3, 112128, Note_on_c, 1, 32, 110
3, 112128, Note_on_c, 1, 44, 110
3, 112508, Note_off_c, 1, 32, 100
3, 112508, Note_off_c, 1, 44, 100
3, 112512, Note_on_c, 1, 32, 110
3, 112512, Note_on_c, 1, 44, 110
3, 112892, Note_off_c, 1, 32, 100
3, 112892, Note_off_c, 1, 44, 100
3, 112896, Note_on_c, 1, 32, 110
3, 112896, Note_on_c, 1, 44, 110
3, 113660, Note_off_c, 1, 32, 100
3, 113660, Note_off_c, 1, 44, 100
3, 113664, Note_on_c, 1, 41, 100
3, 113852, Note_off_c, 1, 41, 100
3, 113856, Note_on_c, 1, 40, 100
3, 114044, Note_off_c, 1, 40, 100
3, 114048, Note_on_c, 1, 38, 100
3, 114236, Note_off_c, 1, 38, 100
3, 114240, Note_on_c, 1, 36, 100
3, 114428, Note_off_c, 1, 36, 100
3, 114432, Note_on_c, 1, 41, 100
3, 114620, Note_off_c, 1, 41, 100
3, 114624, Note_on_c, 1, 45, 100
3, 114812, Note_off_c, 1, 45, 100
3, 114816, Note_on_c, 1, 48, 100
3, 115004, Note_off_c, 1, 48, 100
3, 115008, Note_on_c, 1, 51, 100
3, 115196, Note_off_c, 1, 51, 100
3, 115200, Note_on_c, 1, 54, 100
3, 115388, Note_off_c, 1, 54, 100
3, 115392, Note_on_c, 1, 54, 100
3, 115580, Note_off_c, 1, 54, 100
3, 115584, Note_on_c, 1, 53, 100
3, 115772, Note_off_c, 1, 53, 100
3, 115776, Note_on_c, 1, 54, 100
3, 115964, Note_off_c, 1, 54, 100
3, 115968, Note_on_c, 1, 53, 100
3, 116156, Note_off_c, 1, 53, 100
3, 116160, Note_on_c, 1, 51, 100
3, 116348, Note_off_c, 1, 51, 100
3, 116352, Note_on_c, 1, 49, 100
3, 116540, Note_off_c, 1, 49, 100
3, 116544, Note_on_c, 1, 48, 100
3, 116732, Note_off_c, 1, 48, 100
3, 116736, Note_on_c, 1, 51, 100
3, 116924, Note_off_c, 1, 51, 100
3, 116928, Note_on_c, 1, 49, 100
3, 117116, Note_off_c, 1, 49, 100
3, 117120, Note_on_c, 1, 48, 100
3, 117308, Note_off_c, 1, 48, 100
3, 117312, Note_on_c, 1, 46, 100
3, 117500, Note_off_c, 1, 46, 100
3, 117504, Note_on_c, 1, 49, 100
3, 117692, Note_off_c, 1, 49, 100
3, 117696, Note_on_c, 1, 53, 100
3, 117884, Note_off_c, 1, 53, 100
3, 117888, Note_on_c, 1, 58, 100
3, 118076, Note_off_c, 1, 58, 100
3, 118080, Note_on_c, 1, 60, 100
3, 118268, Note_off_c, 1, 60, 100
3, 118272, Note_on_c, 1, 61, 100
3, 118460, Note_off_c, 1, 61, 100
3, 118464, Note_on_c, 1, 60, 100
3, 118652, Note_off_c, 1, 60, 100
3, 118656, Note_on_c, 1, 58, 100
3, 118844, Note_off_c, 1, 58, 100
3, 118848, Note_on_c, 1, 60, 100
3, 119036, Note_off_c, 1, 60, 100
3, 119040, Note_on_c, 1, 58, 100
3, 119228, Note_off_c, 1, 58, 100
3, 119232, Note_on_c, 1, 56, 100
3, 119420, Note_off_c, 1, 56, 100
3, 119424, Note_on_c, 1, 55, 100
3, 119612, Note_off_c, 1, 55, 100
3, 119616, Note_on_c, 1, 53, 100
3, 119804, Note_off_c, 1, 53, 100
3, 119808, Note_on_c, 1, 48, 100
3, 119900, Note_off_c, 1, 48, 100
3, 119904, Note_on_c, 1, 60, 100
3, 119996, Note_off_c, 1, 60, 100
3, 120000, Note_on_c, 1, 59, 100
3, 120092, Note_off_c, 1, 59, 100
3, 120096, Note_on_c, 1, 60, 100
3, 120188, Note_off_c, 1, 60, 100
3, 120192, Note_on_c, 1, 61, 100
3, 120284, Note_off_c, 1, 61, 100
3, 120288, Note_on_c, 1, 60, 100
3, 120380, Note_off_c, 1, 60, 100
3, 120384, Note_on_c, 1, 59, 100
3, 120476, Note_off_c, 1, 59, 100
3, 120480, Note_on_c, 1, 60, 100
3, 120572, Note_off_c, 1, 60, 100
3, 120576, Note_on_c, 1, 48, 100
3, 121340, Note_off_c, 1, 48, 100
3, 122880, Note_on_c, 1, 55, 100
3, 123068, Note_off_c, 1, 55, 100
3, 123072, Note_on_c, 1, 53, 100
3, 123260, Note_off_c, 1, 53, 100
3, 123264, Note_on_c, 1, 52, 100
3, 123452, Note_off_c, 1, 52, 100
3, 123456, Note_on_c, 1, 50, 100
3, 123644, Note_off_c, 1, 50, 100
3, 123648, Note_on_c, 1, 48, 100
3, 123836, Note_off_c, 1, 48, 100
3, 123840, Note_on_c, 1, 50, 100
3, 124028, Note_off_c, 1, 50, 100
3, 124032, Note_on_c, 1, 52, 90
3, 124220, Note_off_c, 1, 52, 100
3, 124224, Note_on_c, 1, 48, 81
3, 124412, Note_off_c, 1, 48, 100
3, 124416, Note_on_c, 1, 53, 70
3, 124796, Note_off_c, 1, 53, 100
3, 125952, Note_on_c, 1, 55, 100
3, 126140, Note_off_c, 1, 55, 100
3, 126144, Note_on_c, 1, 53, 100
3, 126332, Note_off_c, 1, 53, 100
3, 126336, Note_on_c, 1, 52, 100
3, 126524, Note_off_c, 1, 52, 100
3, 126528, Note_on_c, 1, 50, 100
3, 126716, Note_off_c, 1, 50, 100
3, 126720, Note_on_c, 1, 48, 100
3, 126908, Note_off_c, 1, 48, 100
3, 126912, Note_on_c, 1, 50, 100
3, 127100, Note_off_c, 1, 50, 100
3, 127104, Note_on_c, 1, 52, 100
3, 127292, Note_off_c, 1, 52, 100
3, 127296, Note_on_c, 1, 48, 100
3, 127484, Note_off_c, 1, 48, 100
3, 127488, Note_on_c, 1, 53, 100
3, 127868, Note_off_c, 1, 53, 100
3, 127872, Note_on_c, 1, 44, 100
3, 128252, Note_off_c, 1, 44, 100
3, 128256, Note_on_c, 1, 46, 100
3, 128636, Note_off_c, 1, 46, 100
3, 128640, Note_on_c, 1, 47, 96
3, 129020, Note_off_c, 1, 47, 100
3, 129024, Note_on_c, 1, 48, 87
3, 129404, Note_off_c, 1, 48, 100
3, 129408, Note_on_c, 1, 36, 78
3, 129788, Note_off_c, 1, 36, 100
3, 129792, Note_on_c, 1, 48, 70
3, 130172, Note_off_c, 1, 48, 100
3, 130560, Note_on_c, 1, 36, 110
3, 130560, Note_on_c, 1, 48, 110
3, 132092, Note_off_c, 1, 36, 100
3, 132092, Note_off_c, 1, 48, 100
3, 132096, Note_on_c, 1, 36, 110
3, 132096, Note_on_c, 1, 48, 110
3, 133628, Note_off_c, 1, 36, 100
3, 133628, Note_off_c, 1, 48, 100
3, 133632, Note_on_c, 1, 29, 110
3, 133632, Note_on_c, 1, 41, 110
3, 134396, Note_off_c, 1, 29, 100
3, 134396, Note_off_c, 1, 41, 100
3, 135168, Note_on_c, 1, 41, 110
3, 135260, Note_off_c, 1, 41, 100
3, 135264, Note_on_c, 1, 43, 110
3, 135356, Note_off_c, 1, 43, 100
3, 135360, Note_on_c, 1, 44, 110
3, 135452, Note_off_c, 1, 44, 100
3, 135456, Note_on_c, 1, 46, 110
3, 135548, Note_off_c, 1, 46, 100
3, 135552, Note_on_c, 1, 48, 110
3, 135644, Note_off_c, 1, 48, 100
3, 135648, Note_on_c, 1, 50, 110
3, 135740, Note_off_c, 1, 50, 100
3, 135744, Note_on_c, 1, 52, 110
3, 135836, Note_off_c, 1, 52, 100
3, 135840, Note_on_c, 1, 53, 110
3, 135932, Note_off_c, 1, 53, 100
3, 135936, Note_on_c, 1, 41, 110
3, 136316, Note_off_c, 1, 41, 100
3, 136704, Note_on_c, 1, 36, 110
3, 136704, Note_on_c, 1, 48, 110
3, 137468, Note_off_c, 1, 36, 100
3, 137468, Note_off_c, 1, 48, 100
3, 138240, Note_on_c, 1, 36, 110
3, 138240, Note_on_c, 1, 48, 110
3, 139004, Note_off_c, 1, 36, 100
3, 139004, Note_off_c, 1, 48, 100
3, 139776, Note_on_c, 1, 29, 110
3, 139776, Note_on_c, 1, 41, 110
3, 140540, Note_off_c, 1, 29, 100
3, 140540, Note_off_c, 1, 41, 100
3, 141312, Note_on_c, 1, 41, 110
3, 141404, Note_off_c, 1, 41, 100
3, 141408, Note_on_c, 1, 43, 110
3, 141500, Note_off_c, 1, 43, 100
3, 141504, Note_on_c, 1, 44, 110
3, 141596, Note_off_c, 1, 44, 100
3, 141600, Note_on_c, 1, 46, 110
3, 141692, Note_off_c, 1, 46, 100
3, 141696, Note_on_c, 1, 48, 110
3, 141788, Note_off_c, 1, 48, 100
3, 141792, Note_on_c, 1, 50, 110
3, 141884, Note_off_c, 1, 50, 100
3, 141888, Note_on_c, 1, 52, 110
3, 141980, Note_off_c, 1, 52, 100
3, 141984, Note_on_c, 1, 53, 110
3, 142076, Note_off_c, 1, 53, 100
3, 142080, Note_on_c, 1, 41, 110
3, 142844, Note_off_c, 1, 41, 100
3, 142848, Note_on_c, 1, 46, 110
3, 143228, Note_off_c, 1, 46, 100
3, 143616, Note_on_c, 1, 46, 110
3, 143996, Note_off_c, 1, 46, 100
3, 144384, Note_on_c, 1, 48, 110
3, 145148, Note_off_c, 1, 48, 100
3, 145152, Note_on_c, 1, 36, 110
3, 145916, Note_off_c, 1, 36, 100
3, 145920, Note_on_c, 1, 41, 110
3, 146012, Note_off_c, 1, 41, 100
3, 146016, Note_on_c, 1, 43, 110
3, 146108, Note_off_c, 1, 43, 100
3, 146112, Note_on_c, 1, 44, 110
3, 146204, Note_off_c, 1, 44, 100
3, 146208, Note_on_c, 1, 46, 110
3, 146300, Note_off_c, 1, 46, 100
3, 146304, Note_on_c, 1, 48, 110
3, 146396, Note_off_c, 1, 48, 100
3, 146400, Note_on_c, 1, 50, 110
3, 146492, Note_off_c, 1, 50, 100
3, 146496, Note_on_c, 1, 52, 110
3, 146588, Note_off_c, 1, 52, 100
3, 146592, Note_on_c, 1, 53, 110
3, 146684, Note_off_c, 1, 53, 100
3, 146688, Note_on_c, 1, 41, 110
3, 147068, Note_off_c, 1, 41, 100
3, 147456, Note_on_c, 1, 46, 110
3, 147836, Note_off_c, 1, 46, 100
3, 148224, Note_on_c, 1, 46, 110
3, 148604, Note_off_c, 1, 46, 100
3, 148992, Note_on_c, 1, 48, 110
3, 149756, Note_off_c, 1, 48, 100
3, 149760, Note_on_c, 1, 36, 110
3, 150524, Note_off_c, 1, 36, 100
3, 150528, Note_on_c, 1, 29, 110
3, 150528, Note_on_c, 1, 41, 110
3, 151292, Note_off_c, 1, 29, 100
3, 151292, Note_off_c, 1, 41, 100
3, 151296, Note_on_c, 1, 29, 110
3, 151296, Note_on_c, 1, 41, 110
3, 152060, Note_off_c, 1, 29, 100
3, 152060, Note_off_c, 1, 41, 100
3, 152064, Note_on_c, 1, 29, 110
3, 152064, Note_on_c, 1, 41, 110
3, 152444, Note_off_c, 1, 29, 100
3, 152444, Note_off_c, 1, 41, 100
3, 152448, Note_on_c, 1, 29, 110
3, 152448, Note_on_c, 1, 41, 110
3, 152828, Note_off_c, 1, 29, 100
3, 152828, Note_off_c, 1, 41, 100
3, 152832, Note_on_c, 1, 29, 110
3, 152832, Note_on_c, 1, 41, 110
3, 153596, Note_off_c, 1, 29, 100
3, 153596, Note_off_c, 1, 41, 100
3, 153600, Note_on_c, 1, 41, 100
3, 153788, Note_off_c, 1, 41, 100
3, 153792, Note_on_c, 1, 40, 100
3, 153980, Note_off_c, 1, 40, 100
3, 153984, Note_on_c, 1, 38, 100
3, 154172, Note_off_c, 1, 38, 100
3, 154176, Note_on_c, 1, 36, 100
3, 154364, Note_off_c, 1, 36, 100
3, 154368, Note_on_c, 1, 41, 100
3, 154556, Note_off_c, 1, 41, 100
3, 154560, Note_on_c, 1, 45, 100
3, 154748, Note_off_c, 1, 45, 100
3, 154752, Note_on_c, 1, 48, 100
3, 154940, Note_off_c, 1, 48, 100
3, 154944, Note_on_c, 1, 51, 100
3, 155132, Note_off_c, 1, 51, 100
3, 155136, Note_on_c, 1, 54, 100
3, 155324, Note_off_c, 1, 54, 100
3, 155328, Note_on_c, 1, 54, 100
3, 155516, Note_off_c, 1, 54, 100
3, 155520, Note_on_c, 1, 53, 100
3, 155708, Note_off_c, 1, 53, 100
3, 155712, Note_on_c, 1, 54, 100
3, 155900, Note_off_c, 1, 54, 100
3, 155904, Note_on_c, 1, 53, 100
3, 156092, Note_off_c, 1, 53, 100
3, 156096, Note_on_c, 1, 51, 100
3, 156284, Note_off_c, 1, 51, 100
3, 156288, Note_on_c, 1, 49, 100
3, 156476, Note_off_c, 1, 49, 100
3, 156480, Note_on_c, 1, 48, 100
3, 156668, Note_off_c, 1, 48, 100
3, 156672, Note_on_c, 1, 51, 100
3, 156860, Note_off_c, 1, 51, 100
3, 156864, Note_on_c, 1, 49, 100
3, 157052, Note_off_c, 1, 49, 100
3, 157056, Note_on_c, 1, 48, 100
3, 157244, Note_off_c, 1, 48, 100
3, 157248, Note_on_c, 1, 46, 100
3, 157436, Note_off_c, 1, 46, 100
3, 157440, Note_on_c, 1, 49, 100
3, 157628, Note_off_c, 1, 49, 100
3, 157632, Note_on_c, 1, 53, 100
3, 157820, Note_off_c, 1, 53, 100
3, 157824, Note_on_c, 1, 58, 100
3, 158012, Note_off_c, 1, 58, 100
3, 158016, Note_on_c, 1, 60, 100
3, 158204, Note_off_c, 1, 60, 100
3, 158208, Note_on_c, 1, 61, 100
3, 158396, Note_off_c, 1, 61, 100
3, 158400, Note_on_c, 1, 60, 100
3, 158588, Note_off_c, 1, 60, 100
3, 158592, Note_on_c, 1, 58, 100
3, 158780, Note_off_c, 1, 58, 100
3, 158784, Note_on_c, 1, 60, 100
3, 158972, Note_off_c, 1, 60, 100
3, 158976, Note_on_c, 1, 58, 100
3, 159164, Note_off_c, 1, 58, 100
3, 159168, Note_on_c, 1, 56, 100
3, 159356, Note_off_c, 1, 56, 100
3, 159360, Note_on_c, 1, 55, 100
3, 159548, Note_off_c, 1, 55, 100
3, 159552, Note_on_c, 1, 53, 100
3, 159740, Note_off_c, 1, 53, 100
3, 159744, Note_on_c, 1, 48, 100
3, 159836, Note_off_c, 1, 48, 100
3, 159840, Note_on_c, 1, 60, 100
3, 159932, Note_off_c, 1, 60, 100
3, 159936, Note_on_c, 1, 59, 100
3, 160028, Note_off_c, 1, 59, 100
3, 160032, Note_on_c, 1, 60, 100
3, 160124, Note_off_c, 1, 60, 100
3, 160128, Note_on_c, 1, 61, 100
3, 160220, Note_off_c, 1, 61, 100
3, 160224, Note_on_c, 1, 60, 100
3, 160316, Note_off_c, 1, 60, 100
3, 160320, Note_on_c, 1, 59, 100
3, 160412, Note_off_c, 1, 59, 100
3, 160416, Note_on_c, 1, 60, 100
3, 160508, Note_off_c, 1, 60, 100
3, 160512, Note_on_c, 1, 48, 100
3, 161276, Note_off_c, 1, 48, 100
3, 162816, Note_on_c, 1, 55, 100
3, 163004, Note_off_c, 1, 55, 100
3, 163008, Note_on_c, 1, 53, 100
3, 163196, Note_off_c, 1, 53, 100
3, 163200, Note_on_c, 1, 52, 100
3, 163388, Note_off_c, 1, 52, 100
3, 163392, Note_on_c, 1, 50, 100
3, 163580, Note_off_c, 1, 50, 100
3, 163584, Note_on_c, 1, 48, 100
3, 163772, Note_off_c, 1, 48, 100
3, 163776, Note_on_c, 1, 50, 100
3, 163964, Note_off_c, 1, 50, 100
3, 163968, Note_on_c, 1, 52, 90
3, 164156, Note_off_c, 1, 52, 100
3, 164160, Note_on_c, 1, 48, 81
3, 164348, Note_off_c, 1, 48, 100
3, 164352, Note_on_c, 1, 53, 70
3, 164732, Note_off_c, 1, 53, 100
3, 165888, Note_on_c, 1, 55, 100
3, 166076, Note_off_c, 1, 55, 100
3, 166080, Note_on_c, 1, 53, 100
3, 166268, Note_off_c, 1, 53, 100
3, 166272, Note_on_c, 1, 52, 100
3, 166460, Note_off_c, 1, 52, 100
3, 166464, Note_on_c, 1, 50, 100
3, 166652, Note_off_c, 1, 50, 100
3, 166656, Note_on_c, 1, 48, 100
3, 166844, Note_off_c, 1, 48, 100
3, 166848, Note_on_c, 1, 50, 100
3, 167036, Note_off_c, 1, 50, 100
3, 167040, Note_on_c, 1, 52, 100
3, 167228, Note_off_c, 1, 52, 100
3, 167232, Note_on_c, 1, 48, 100
3, 167420, Note_off_c, 1, 48, 100
3, 167424, Note_on_c, 1, 53, 100
3, 167804, Note_off_c, 1, 53, 100
3, 167808, Note_on_c, 1, 44, 100
3, 168188, Note_off_c, 1, 44, 100
3, 168192, Note_on_c, 1, 46, 100
3, 168572, Note_off_c, 1, 46, 100
3, 168576, Note_on_c, 1, 47, 96
3, 168956, Note_off_c, 1, 47, 100
3, 168960, Note_on_c, 1, 48, 87
3, 169340, Note_off_c, 1, 48, 100
3, 169344, Note_on_c, 1, 36, 78
3, 169724, Note_off_c, 1, 36, 100
3, 169728, Note_on_c, 1, 48, 70
3, 170108, Note_off_c, 1, 48, 100
3, 170496, Note_on_c, 1, 36, 110
3, 170496, Note_on_c, 1, 48, 110
3, 172028, Note_off_c, 1, 36, 100
3, 172028, Note_off_c, 1, 48, 100
3, 172032, Note_on_c, 1, 36, 110
3, 172032, Note_on_c, 1, 48, 110
3, 173564, Note_off_c, 1, 36, 100
3, 173564, Note_off_c, 1, 48, 100
3, 173568, Note_on_c, 1, 29, 110
3, 173568, Note_on_c, 1, 41, 110
3, 174332, Note_off_c, 1, 29, 100
3, 174332, Note_off_c, 1, 41, 100
3, 175104, Note_on_c, 1, 41, 110
3, 175196, Note_off_c, 1, 41, 100
3, 175200, Note_on_c, 1, 43, 110
3, 175292, Note_off_c, 1, 43, 100
3, 175296, Note_on_c, 1, 44, 110
3, 175388, Note_off_c, 1, 44, 100
3, 175392, Note_on_c, 1, 46, 110
3, 175484, Note_off_c, 1, 46, 100
3, 175488, Note_on_c, 1, 48, 110
3, 175580, Note_off_c, 1, 48, 100
3, 175584, Note_on_c, 1, 50, 110
3, 175676, Note_off_c, 1, 50, 100
3, 175680, Note_on_c, 1, 52, 110
3, 175772, Note_off_c, 1, 52, 100
3, 175776, Note_on_c, 1, 53, 110
3, 175868, Note_off_c, 1, 53, 100
3, 175872, Note_on_c, 1, 41, 110
3, 176252, Note_off_c, 1, 41, 100
3, 176640, Note_on_c, 1, 36, 110
3, 176640, Note_on_c, 1, 48, 110
3, 177404, Note_off_c, 1, 36, 100
3, 177404, Note_off_c, 1, 48, 100
3, 178176, Note_on_c, 1, 36, 110
3, 178176, Note_on_c, 1, 48, 110
3, 178940, Note_off_c, 1, 36, 100
3, 178940, Note_off_c, 1, 48, 100
3, 179712, Note_on_c, 1, 29, 110
3, 179712, Note_on_c, 1, 41, 110
3, 180476, Note_off_c, 1, 29, 100
3, 180476, Note_off_c, 1, 41, 100
3, 181248, Note_on_c, 1, 41, 110
3, 181340, Note_off_c, 1, 41, 100
3, 181344, Note_on_c, 1, 43, 110
3, 181436, Note_off_c, 1, 43, 100
3, 181440, Note_on_c, 1, 44, 110
3, 181532, Note_off_c, 1, 44, 100
3, 181536, Note_on_c, 1, 46, 110
3, 181628, Note_off_c, 1, 46, 100
3, 181632, Note_on_c, 1, 48, 110
3, 181724, Note_off_c, 1, 48, 100
3, 181728, Note_on_c, 1, 50, 110
3, 181820, Note_off_c, 1, 50, 100
3, 181824, Note_on_c, 1, 52, 110
3, 181916, Note_off_c, 1, 52, 100
3, 181920, Note_on_c, 1, 53, 110
3, 182012, Note_off_c, 1, 53, 100
3, 182016, Note_on_c, 1, 41, 110
3, 182780, Note_off_c, 1, 41, 100
3, 182784, Note_on_c, 1, 46, 110
3, 183164, Note_off_c, 1, 46, 100
3, 183552, Note_on_c, 1, 46, 110
3, 183932, Note_off_c, 1, 46, 100
3, 184320, Note_on_c, 1, 48, 110
3, 185084, Note_off_c, 1, 48, 100
3, 185088, Note_on_c, 1, 36, 110
3, 185852, Note_off_c, 1, 36, 100
3, 185856, Note_on_c, 1, 41, 110
3, 185948, Note_off_c, 1, 41, 100
3, 185952, Note_on_c, 1, 43, 110
3, 186044, Note_off_c, 1, 43, 100
3, 186048, Note_on_c, 1, 44, 110
3, 186140, Note_off_c, 1, 44, 100
3, 186144, Note_on_c, 1, 46, 110
3, 186236, Note_off_c, 1, 46, 100
3, 186240, Note_on_c, 1, 48, 110
3, 186332, Note_off_c, 1, 48, 100
3, 186336, Note_on_c, 1, 50, 110
3, 186428, Note_off_c, 1, 50, 100
3, 186432, Note_on_c, 1, 52, 110
3, 186524, Note_off_c, 1, 52, 100
3, 186528, Note_on_c, 1, 53, 110
3, 186620, Note_off_c, 1, 53, 100
3, 186624, Note_on_c, 1, 41, 110
3, 187004, Note_off_c, 1, 41, 100
3, 187392, Note_on_c, 1, 46, 110
3, 187772, Note_off_c, 1, 46, 100
3, 188160, Note_on_c, 1, 46, 110
3, 188540, Note_off_c, 1, 46, 100
3, 188928, Note_on_c, 1, 48, 110
3, 189692, Note_off_c, 1, 48, 100
3, 189696, Note_on_c, 1, 36, 110
3, 190460, Note_off_c, 1, 36, 100
3, 190464, Note_on_c, 1, 29, 110
3, 190464, Note_on_c, 1, 41, 110
3, 191228, Note_off_c, 1, 29, 100
3, 191228, Note_off_c, 1, 41, 100
3, 191232, Note_on_c, 1, 29, 110
3, 191232, Note_on_c, 1, 41, 110
3, 191996, Note_off_c, 1, 29, 100
3, 191996, Note_off_c, 1, 41, 100
3, 192000, Note_on_c, 1, 29, 110
3, 192000, Note_on_c, 1, 41, 110
3, 192380, Note_off_c, 1, 29, 100
3, 192380, Note_off_c, 1, 41, 100
3, 192384, Note_on_c, 1, 29, 110
3, 192384, Note_on_c, 1, 41, 110
3, 192764, Note_off_c, 1, 29, 100
3, 192764, Note_off_c, 1, 41, 100
3, 192768, Note_on_c, 1, 41, 110
3, 192768, Note_on_c, 1, 29, 110
3, 193916, Note_off_c, 1, 29, 100
3, 193916, Note_off_c, 1, 41, 100
3, 193916, End_track
0, 0, End_of_file
