0, 0, Header, 1, 3, 384
1, 0, Start_track
1, 0, Title_t, "L.v.Beethoven 2mov - Kurfursten-Sonatas No.3 in D Major WoO 47-3\000"
1, 0, Copyright_t, "Copyright(C) 1995-2009, Suzuki Software\000"
1, 0, Sequencer_specific, 9, 67, 123, 0, 88, 70, 48, 50, 0, 1
1, 0, Text_t, "XFhd:2009/03/29:JP:Classical::::L.v.Beethoven:::Kaoru Suzuki\000"
1, 0, Text_t, "XFln:JP:\221I\222é\214ò\203\\\203i\203^\221æ3\224Ô\225Ï\203j\222·\222² WoO 47-3\201`\221æ2\212y\217Í:L.v.\203x\201[\203g\201[\203\224\203F\203\223:::\227é\202¿\202á\202ñ:\227é\202¿\202á\202ñ\000"
1, 0, Time_signature, 3, 2, 96, 8
1, 0, Sequencer_specific, 5, 0, 0, 119, 14, 0
1, 0, Tempo, 625000
1, 8064, Tempo, 638297
1, 8448, Tempo, 652173
1, 8832, Tempo, 666666
1, 9216, Tempo, 625000
1, 17280, Tempo, 638297
1, 17664, Tempo, 666666
1, 18048, Tempo, 681818
1, 18432, Tempo, 625000
1, 22272, Tempo, 652173
1, 22656, Tempo, 681818
1, 23040, Tempo, 625000
1, 26496, Tempo, 638297
1, 26880, Tempo, 659340
1, 27264, Tempo, 681818
1, 27648, Tempo, 625000
1, 31488, Tempo, 652173
1, 31872, Tempo, 681818
1, 32256, Tempo, 625000
1, 35712, Tempo, 638297
1, 36096, Tempo, 666666
1, 36480, Tempo, 697674
1, 36864, Tempo, 625000
1, 40704, Tempo, 652173
1, 41472, Tempo, 625000
1, 44928, Tempo, 638297
1, 45312, Tempo, 666666
1, 45696, Tempo, 681818
1, 46080, Tempo, 625000
1, 49920, Tempo, 652173
1, 50688, Tempo, 625000
1, 54144, Tempo, 638297
1, 54528, Tempo, 666666
1, 54912, Tempo, 689655
1, 55296, Tempo, 625000
1, 63360, Tempo, 638297
1, 63744, Tempo, 659340
1, 64128, Tempo, 689655
1, 64512, Tempo, 625000
1, 68544, Tempo, 638297
1, 68736, Tempo, 652173
1, 68928, Tempo, 666666
1, 69120, Tempo, 625000
1, 72576, Tempo, 638297
1, 72960, Tempo, 666666
1, 73344, Tempo, 697674
1, 73728, Tempo, 625000
1, 91392, Tempo, 638297
1, 91584, Tempo, 652173
1, 92160, Tempo, 625000
1, 105216, Tempo, 638297
1, 105408, Tempo, 652173
1, 105984, Tempo, 625000
1, 109440, Tempo, 638297
1, 109824, Tempo, 652173
1, 110016, Tempo, 681818
1, 110208, Tempo, 731707
1, 110592, Tempo, 625000
1, 119040, Tempo, 638297
1, 119232, Tempo, 666666
1, 119808, Tempo, 625000
1, 123648, Tempo, 638297
1, 124032, Tempo, 652173
1, 124224, Tempo, 666666
1, 124416, Tempo, 625000
1, 127872, Tempo, 638297
1, 128256, Tempo, 666666
1, 128448, Tempo, 697674
1, 129024, Tempo, 625000
1, 132864, Tempo, 638297
1, 133248, Tempo, 652173
1, 133440, Tempo, 681818
1, 133632, Tempo, 625000
1, 137088, Tempo, 638297
1, 137472, Tempo, 666666
1, 137664, Tempo, 697674
1, 138240, Tempo, 625000
1, 142080, Tempo, 638297
1, 142464, Tempo, 652173
1, 142656, Tempo, 681818
1, 142848, Tempo, 625000
1, 146304, Tempo, 638297
1, 146688, Tempo, 666666
1, 146880, Tempo, 697674
1, 147072, Tempo, 750000
1, 147456, Tempo, 638297
1, 155904, Tempo, 666666
1, 156096, Tempo, 697674
1, 156672, Tempo, 638297
1, 164736, Tempo, 652173
1, 165120, Tempo, 666666
1, 165312, Tempo, 697674
1, 165408, Tempo, 750000
1, 165888, Tempo, 638297
1, 170112, Tempo, 666666
1, 170304, Tempo, 697674
1, 170496, Tempo, 638297
1, 173952, Tempo, 652173
1, 174336, Tempo, 681818
1, 174528, Tempo, 714285
1, 175104, Tempo, 638297
1, 179328, Tempo, 659340
1, 179520, Tempo, 681818
1, 179712, Tempo, 638297
1, 182976, Tempo, 652173
1, 183168, Tempo, 666666
1, 183552, Tempo, 697674
1, 183744, Tempo, 750000
1, 184320, Tempo, 638297
1, 192384, Tempo, 652173
1, 192768, Tempo, 666666
1, 193152, Tempo, 697674
1, 193344, Tempo, 731707
1, 193536, Tempo, 638297
1, 201408, Tempo, 652173
1, 201600, Tempo, 666666
1, 201984, Tempo, 697674
1, 202368, Tempo, 731707
1, 202560, Tempo, 769230
1, 202752, Tempo, 666666
1, 202944, Tempo, 638297
1, 206976, Tempo, 666666
1, 207168, Tempo, 697674
1, 207360, Tempo, 638297
1, 210816, Tempo, 652173
1, 211200, Tempo, 666666
1, 211584, Tempo, 697674
1, 211776, Tempo, 750000
1, 211968, Tempo, 638297
1, 216000, Tempo, 652173
1, 216192, Tempo, 666666
1, 216384, Tempo, 697674
1, 216576, Tempo, 652173
1, 219648, Tempo, 666666
1, 220032, Tempo, 681818
1, 220416, Tempo, 714285
1, 220608, Tempo, 750000
1, 220800, Tempo, 857142
1, 220992, Tempo, 1000000
1, 221088, Tempo, 1500000
1, 221184, Tempo, 666666
1, 221376, Tempo, 625000
1, 238464, Tempo, 638297
1, 238656, Tempo, 652173
1, 238848, Tempo, 666666
1, 239040, Tempo, 697674
1, 239616, Tempo, 625000
1, 243456, Tempo, 638297
1, 243840, Tempo, 666666
1, 244032, Tempo, 714285
1, 244224, Tempo, 666666
1, 244416, Tempo, 625000
1, 247872, Tempo, 638297
1, 248064, Tempo, 666666
1, 248256, Tempo, 697674
1, 248832, Tempo, 625000
1, 252672, Tempo, 638297
1, 252864, Tempo, 652173
1, 253056, Tempo, 681818
1, 253248, Tempo, 714285
1, 253440, Tempo, 666666
1, 253632, Tempo, 625000
1, 255744, Tempo, 638297
1, 256128, Tempo, 666666
1, 256512, Tempo, 697674
1, 256704, Tempo, 750000
1, 257664, Tempo, 681818
1, 258816, Tempo, 697674
1, 259968, Tempo, 714285
1, 261120, Tempo, 731707
1, 261312, Tempo, 750000
1, 262272, Tempo, 769230
1, 262464, Tempo, 789473
1, 263424, Tempo, 810810
1, 263616, Tempo, 857142
1, 264192, Tempo, 909090
1, 264576, Tempo, 1000000
1, 264576, End_track
2, 0, Start_track
2, 0, Title_t, "Piano Right"
2, 0, Control_c, 0, 0, 0
2, 0, Program_c, 0, 0
2, 0, Control_c, 0, 7, 100
2, 0, Control_c, 0, 10, 72
2, 0, Control_c, 0, 91, 127
2, 0, Key_signature, 3, "major"
2, 0, Note_on_c, 0, 73, 70
2, 0, Note_on_c, 0, 76, 70
2, 380, Note_off_c, 0, 73, 100
2, 380, Note_off_c, 0, 76, 100
2, 384, Note_on_c, 0, 81, 70
2, 384, Note_on_c, 0, 78, 70
2, 764, Note_off_c, 0, 81, 100
2, 764, Note_off_c, 0, 78, 100
2, 768, Note_on_c, 0, 74, 70
2, 768, Note_on_c, 0, 78, 70
2, 1148, Note_off_c, 0, 74, 100
2, 1148, Note_off_c, 0, 78, 100
2, 1152, Note_on_c, 0, 73, 70
2, 1152, Note_on_c, 0, 76, 70
2, 1532, Note_off_c, 0, 73, 100
2, 1532, Note_off_c, 0, 76, 100
2, 1536, Note_on_c, 0, 81, 70
2, 1536, Note_on_c, 0, 78, 70
2, 1916, Note_off_c, 0, 81, 100
2, 1916, Note_off_c, 0, 78, 100
2, 1920, Note_on_c, 0, 74, 70
2, 1920, Note_on_c, 0, 78, 70
2, 2300, Note_off_c, 0, 74, 100
2, 2300, Note_off_c, 0, 78, 100
2, 2304, Note_on_c, 0, 73, 70
2, 2304, Note_on_c, 0, 76, 70
2, 2492, Note_off_c, 0, 73, 100
2, 2492, Note_off_c, 0, 76, 100
2, 2496, Note_on_c, 0, 69, 70
2, 2684, Note_off_c, 0, 69, 100
2, 2688, Note_on_c, 0, 71, 70
2, 2688, Note_on_c, 0, 74, 70
2, 3068, Note_off_c, 0, 71, 100
2, 3068, Note_off_c, 0, 74, 100
2, 3072, Note_on_c, 0, 69, 70
2, 3072, Note_on_c, 0, 73, 70
2, 3452, Note_off_c, 0, 69, 100
2, 3452, Note_off_c, 0, 73, 100
2, 3456, Note_on_c, 0, 73, 70
2, 3456, Note_on_c, 0, 69, 70
2, 3504, Note_on_c, 0, 74, 70
2, 3548, Note_off_c, 0, 73, 100
2, 3552, Note_on_c, 0, 73, 70
2, 3596, Note_off_c, 0, 74, 100
2, 3644, Note_off_c, 0, 69, 100
2, 3644, Note_off_c, 0, 73, 100
2, 3648, Note_on_c, 0, 71, 70
2, 3836, Note_off_c, 0, 71, 100
2, 3840, Note_on_c, 0, 69, 70
2, 4028, Note_off_c, 0, 69, 100
2, 4032, Note_on_c, 0, 68, 70
2, 4220, Note_off_c, 0, 68, 100
2, 4224, Note_on_c, 0, 66, 70
2, 4412, Note_off_c, 0, 66, 100
2, 4416, Note_on_c, 0, 64, 70
2, 4604, Note_off_c, 0, 64, 100
2, 4608, Note_on_c, 0, 73, 100
2, 4608, Note_on_c, 0, 76, 100
2, 4988, Note_off_c, 0, 73, 100
2, 4988, Note_off_c, 0, 76, 100
2, 4992, Note_on_c, 0, 81, 100
2, 4992, Note_on_c, 0, 78, 100
2, 5372, Note_off_c, 0, 81, 100
2, 5372, Note_off_c, 0, 78, 100
2, 5376, Note_on_c, 0, 74, 100
2, 5376, Note_on_c, 0, 78, 100
2, 5756, Note_off_c, 0, 74, 100
2, 5756, Note_off_c, 0, 78, 100
2, 5760, Note_on_c, 0, 73, 100
2, 5760, Note_on_c, 0, 76, 100
2, 6140, Note_off_c, 0, 73, 100
2, 6140, Note_off_c, 0, 76, 100
2, 6144, Note_on_c, 0, 81, 100
2, 6144, Note_on_c, 0, 78, 100
2, 6524, Note_off_c, 0, 81, 100
2, 6524, Note_off_c, 0, 78, 100
2, 6528, Note_on_c, 0, 74, 100
2, 6528, Note_on_c, 0, 78, 100
2, 6908, Note_off_c, 0, 74, 100
2, 6908, Note_off_c, 0, 78, 100
2, 6912, Note_on_c, 0, 73, 100
2, 6912, Note_on_c, 0, 76, 100
2, 7100, Note_off_c, 0, 73, 100
2, 7100, Note_off_c, 0, 76, 100
2, 7104, Note_on_c, 0, 69, 100
2, 7292, Note_off_c, 0, 69, 100
2, 7296, Note_on_c, 0, 69, 100
2, 7296, Note_on_c, 0, 73, 100
2, 7676, Note_off_c, 0, 69, 100
2, 7676, Note_off_c, 0, 73, 100
2, 7680, Note_on_c, 0, 71, 100
2, 7728, Note_on_c, 0, 73, 100
2, 7772, Note_off_c, 0, 71, 100
2, 7776, Note_on_c, 0, 71, 100
2, 7820, Note_off_c, 0, 73, 100
2, 7824, Note_on_c, 0, 73, 100
2, 7868, Note_off_c, 0, 71, 100
2, 7872, Note_on_c, 0, 71, 100
2, 7916, Note_off_c, 0, 73, 100
2, 7936, Note_on_c, 0, 69, 100
2, 7996, Note_off_c, 0, 71, 100
2, 8000, Note_on_c, 0, 71, 100
2, 8060, Note_off_c, 0, 69, 100
2, 8060, Note_off_c, 0, 71, 100
2, 8064, Note_on_c, 0, 68, 100
2, 8064, Note_on_c, 0, 71, 100
2, 8828, Note_off_c, 0, 68, 100
2, 8828, Note_off_c, 0, 71, 100
2, 8832, Note_on_c, 0, 69, 100
2, 9212, Note_off_c, 0, 69, 100
2, 9216, Note_on_c, 0, 73, 70
2, 9216, Note_on_c, 0, 76, 70
2, 9596, Note_off_c, 0, 73, 100
2, 9596, Note_off_c, 0, 76, 100
2, 9600, Note_on_c, 0, 81, 70
2, 9600, Note_on_c, 0, 78, 70
2, 9980, Note_off_c, 0, 81, 100
2, 9980, Note_off_c, 0, 78, 100
2, 9984, Note_on_c, 0, 74, 70
2, 9984, Note_on_c, 0, 78, 70
2, 10364, Note_off_c, 0, 74, 100
2, 10364, Note_off_c, 0, 78, 100
2, 10368, Note_on_c, 0, 73, 70
2, 10368, Note_on_c, 0, 76, 70
2, 10748, Note_off_c, 0, 73, 100
2, 10748, Note_off_c, 0, 76, 100
2, 10752, Note_on_c, 0, 81, 70
2, 10752, Note_on_c, 0, 78, 70
2, 11132, Note_off_c, 0, 81, 100
2, 11132, Note_off_c, 0, 78, 100
2, 11136, Note_on_c, 0, 74, 70
2, 11136, Note_on_c, 0, 78, 70
2, 11516, Note_off_c, 0, 74, 100
2, 11516, Note_off_c, 0, 78, 100
2, 11520, Note_on_c, 0, 73, 70
2, 11520, Note_on_c, 0, 76, 70
2, 11708, Note_off_c, 0, 73, 100
2, 11708, Note_off_c, 0, 76, 100
2, 11712, Note_on_c, 0, 69, 70
2, 11900, Note_off_c, 0, 69, 100
2, 11904, Note_on_c, 0, 71, 70
2, 11904, Note_on_c, 0, 74, 70
2, 12284, Note_off_c, 0, 71, 100
2, 12284, Note_off_c, 0, 74, 100
2, 12288, Note_on_c, 0, 69, 70
2, 12288, Note_on_c, 0, 73, 70
2, 12668, Note_off_c, 0, 69, 100
2, 12668, Note_off_c, 0, 73, 100
2, 12672, Note_on_c, 0, 73, 70
2, 12672, Note_on_c, 0, 69, 70
2, 12720, Note_on_c, 0, 74, 70
2, 12764, Note_off_c, 0, 73, 100
2, 12768, Note_on_c, 0, 73, 70
2, 12812, Note_off_c, 0, 74, 100
2, 12860, Note_off_c, 0, 69, 100
2, 12860, Note_off_c, 0, 73, 100
2, 12864, Note_on_c, 0, 71, 70
2, 13052, Note_off_c, 0, 71, 100
2, 13056, Note_on_c, 0, 69, 70
2, 13244, Note_off_c, 0, 69, 100
2, 13248, Note_on_c, 0, 68, 70
2, 13436, Note_off_c, 0, 68, 100
2, 13440, Note_on_c, 0, 66, 70
2, 13628, Note_off_c, 0, 66, 100
2, 13632, Note_on_c, 0, 64, 70
2, 13820, Note_off_c, 0, 64, 100
2, 13824, Note_on_c, 0, 73, 100
2, 13824, Note_on_c, 0, 76, 100
2, 14204, Note_off_c, 0, 73, 100
2, 14204, Note_off_c, 0, 76, 100
2, 14208, Note_on_c, 0, 81, 100
2, 14208, Note_on_c, 0, 78, 100
2, 14588, Note_off_c, 0, 81, 100
2, 14588, Note_off_c, 0, 78, 100
2, 14592, Note_on_c, 0, 74, 100
2, 14592, Note_on_c, 0, 78, 100
2, 14972, Note_off_c, 0, 74, 100
2, 14972, Note_off_c, 0, 78, 100
2, 14976, Note_on_c, 0, 73, 100
2, 14976, Note_on_c, 0, 76, 100
2, 15356, Note_off_c, 0, 73, 100
2, 15356, Note_off_c, 0, 76, 100
2, 15360, Note_on_c, 0, 81, 100
2, 15360, Note_on_c, 0, 78, 100
2, 15740, Note_off_c, 0, 81, 100
2, 15740, Note_off_c, 0, 78, 100
2, 15744, Note_on_c, 0, 74, 100
2, 15744, Note_on_c, 0, 78, 100
2, 16124, Note_off_c, 0, 74, 100
2, 16124, Note_off_c, 0, 78, 100
2, 16128, Note_on_c, 0, 73, 100
2, 16128, Note_on_c, 0, 76, 100
2, 16316, Note_off_c, 0, 73, 100
2, 16316, Note_off_c, 0, 76, 100
2, 16320, Note_on_c, 0, 69, 100
2, 16508, Note_off_c, 0, 69, 100
2, 16512, Note_on_c, 0, 69, 100
2, 16512, Note_on_c, 0, 73, 100
2, 16892, Note_off_c, 0, 69, 100
2, 16892, Note_off_c, 0, 73, 100
2, 16896, Note_on_c, 0, 71, 100
2, 16944, Note_on_c, 0, 73, 100
2, 16988, Note_off_c, 0, 71, 100
2, 16992, Note_on_c, 0, 71, 100
2, 17036, Note_off_c, 0, 73, 100
2, 17040, Note_on_c, 0, 73, 100
2, 17084, Note_off_c, 0, 71, 100
2, 17088, Note_on_c, 0, 71, 100
2, 17132, Note_off_c, 0, 73, 100
2, 17152, Note_on_c, 0, 69, 100
2, 17212, Note_off_c, 0, 71, 100
2, 17216, Note_on_c, 0, 71, 100
2, 17276, Note_off_c, 0, 69, 100
2, 17276, Note_off_c, 0, 71, 100
2, 17280, Note_on_c, 0, 68, 100
2, 17280, Note_on_c, 0, 71, 100
2, 18044, Note_off_c, 0, 68, 100
2, 18044, Note_off_c, 0, 71, 100
2, 18048, Note_on_c, 0, 69, 100
2, 18428, Note_off_c, 0, 69, 100
2, 18432, Note_on_c, 0, 64, 100
2, 18432, Note_on_c, 0, 71, 100
2, 18432, Note_on_c, 0, 74, 100
2, 18812, Note_off_c, 0, 64, 100
2, 18812, Note_off_c, 0, 71, 100
2, 18812, Note_off_c, 0, 74, 100
2, 18816, Note_on_c, 0, 64, 100
2, 18816, Note_on_c, 0, 71, 100
2, 18816, Note_on_c, 0, 74, 100
2, 19196, Note_off_c, 0, 64, 100
2, 19196, Note_off_c, 0, 71, 100
2, 19196, Note_off_c, 0, 74, 100
2, 19200, Note_on_c, 0, 64, 100
2, 19200, Note_on_c, 0, 71, 100
2, 19200, Note_on_c, 0, 74, 100
2, 19580, Note_off_c, 0, 64, 100
2, 19580, Note_off_c, 0, 71, 100
2, 19580, Note_off_c, 0, 74, 100
2, 19584, Note_on_c, 0, 71, 100
2, 19584, Note_on_c, 0, 74, 100
2, 19584, Note_on_c, 0, 64, 100
2, 19772, Note_off_c, 0, 71, 100
2, 19772, Note_off_c, 0, 74, 100
2, 19776, Note_on_c, 0, 69, 100
2, 19776, Note_on_c, 0, 73, 100
2, 19964, Note_off_c, 0, 64, 100
2, 19964, Note_off_c, 0, 69, 100
2, 19964, Note_off_c, 0, 73, 100
2, 19968, Note_on_c, 0, 64, 100
2, 19968, Note_on_c, 0, 69, 100
2, 19968, Note_on_c, 0, 73, 100
2, 20732, Note_off_c, 0, 64, 100
2, 20732, Note_off_c, 0, 69, 100
2, 20732, Note_off_c, 0, 73, 100
2, 20736, Note_on_c, 0, 74, 100
2, 20736, Note_on_c, 0, 80, 100
2, 21116, Note_off_c, 0, 74, 100
2, 21116, Note_off_c, 0, 80, 100
2, 21120, Note_on_c, 0, 74, 100
2, 21120, Note_on_c, 0, 80, 100
2, 21500, Note_off_c, 0, 74, 100
2, 21500, Note_off_c, 0, 80, 100
2, 21504, Note_on_c, 0, 74, 100
2, 21504, Note_on_c, 0, 80, 100
2, 21884, Note_off_c, 0, 74, 100
2, 21884, Note_off_c, 0, 80, 100
2, 21888, Note_on_c, 0, 74, 100
2, 21888, Note_on_c, 0, 80, 100
2, 22076, Note_off_c, 0, 74, 100
2, 22076, Note_off_c, 0, 80, 100
2, 22080, Note_on_c, 0, 73, 100
2, 22080, Note_on_c, 0, 81, 100
2, 22268, Note_off_c, 0, 73, 100
2, 22268, Note_off_c, 0, 81, 100
2, 22272, Note_on_c, 0, 73, 100
2, 22272, Note_on_c, 0, 81, 100
2, 23036, Note_off_c, 0, 73, 100
2, 23036, Note_off_c, 0, 81, 100
2, 23040, Note_on_c, 0, 73, 70
2, 23040, Note_on_c, 0, 76, 70
2, 23420, Note_off_c, 0, 73, 100
2, 23420, Note_off_c, 0, 76, 100
2, 23424, Note_on_c, 0, 81, 70
2, 23424, Note_on_c, 0, 78, 70
2, 23804, Note_off_c, 0, 81, 100
2, 23804, Note_off_c, 0, 78, 100
2, 23808, Note_on_c, 0, 74, 70
2, 23808, Note_on_c, 0, 78, 70
2, 24188, Note_off_c, 0, 74, 100
2, 24188, Note_off_c, 0, 78, 100
2, 24192, Note_on_c, 0, 73, 70
2, 24192, Note_on_c, 0, 76, 70
2, 24572, Note_off_c, 0, 73, 100
2, 24572, Note_off_c, 0, 76, 100
2, 24576, Note_on_c, 0, 81, 70
2, 24576, Note_on_c, 0, 78, 70
2, 24956, Note_off_c, 0, 81, 100
2, 24956, Note_off_c, 0, 78, 100
2, 24960, Note_on_c, 0, 74, 70
2, 24960, Note_on_c, 0, 78, 70
2, 25340, Note_off_c, 0, 74, 100
2, 25340, Note_off_c, 0, 78, 100
2, 25344, Note_on_c, 0, 73, 100
2, 25344, Note_on_c, 0, 76, 100
2, 25532, Note_off_c, 0, 73, 100
2, 25532, Note_off_c, 0, 76, 100
2, 25536, Note_on_c, 0, 69, 100
2, 25724, Note_off_c, 0, 69, 100
2, 25728, Note_on_c, 0, 69, 100
2, 25728, Note_on_c, 0, 73, 100
2, 26108, Note_off_c, 0, 69, 100
2, 26108, Note_off_c, 0, 73, 100
2, 26112, Note_on_c, 0, 71, 100
2, 26160, Note_on_c, 0, 73, 100
2, 26204, Note_off_c, 0, 71, 100
2, 26208, Note_on_c, 0, 71, 100
2, 26252, Note_off_c, 0, 73, 100
2, 26256, Note_on_c, 0, 73, 100
2, 26300, Note_off_c, 0, 71, 100
2, 26304, Note_on_c, 0, 71, 100
2, 26348, Note_off_c, 0, 73, 100
2, 26368, Note_on_c, 0, 69, 100
2, 26428, Note_off_c, 0, 71, 100
2, 26432, Note_on_c, 0, 71, 100
2, 26492, Note_off_c, 0, 69, 100
2, 26492, Note_off_c, 0, 71, 100
2, 26496, Note_on_c, 0, 68, 100
2, 26496, Note_on_c, 0, 71, 100
2, 27260, Note_off_c, 0, 68, 100
2, 27260, Note_off_c, 0, 71, 100
2, 27264, Note_on_c, 0, 69, 100
2, 27644, Note_off_c, 0, 69, 100
2, 27648, Note_on_c, 0, 64, 100
2, 27648, Note_on_c, 0, 71, 100
2, 27648, Note_on_c, 0, 74, 100
2, 28028, Note_off_c, 0, 64, 100
2, 28028, Note_off_c, 0, 71, 100
2, 28028, Note_off_c, 0, 74, 100
2, 28032, Note_on_c, 0, 64, 100
2, 28032, Note_on_c, 0, 71, 100
2, 28032, Note_on_c, 0, 74, 100
2, 28412, Note_off_c, 0, 64, 100
2, 28412, Note_off_c, 0, 71, 100
2, 28412, Note_off_c, 0, 74, 100
2, 28416, Note_on_c, 0, 64, 100
2, 28416, Note_on_c, 0, 71, 100
2, 28416, Note_on_c, 0, 74, 100
2, 28796, Note_off_c, 0, 64, 100
2, 28796, Note_off_c, 0, 71, 100
2, 28796, Note_off_c, 0, 74, 100
2, 28800, Note_on_c, 0, 71, 100
2, 28800, Note_on_c, 0, 74, 100
2, 28800, Note_on_c, 0, 64, 100
2, 28988, Note_off_c, 0, 71, 100
2, 28988, Note_off_c, 0, 74, 100
2, 28992, Note_on_c, 0, 69, 100
2, 28992, Note_on_c, 0, 73, 100
2, 29180, Note_off_c, 0, 64, 100
2, 29180, Note_off_c, 0, 69, 100
2, 29180, Note_off_c, 0, 73, 100
2, 29184, Note_on_c, 0, 64, 100
2, 29184, Note_on_c, 0, 69, 100
2, 29184, Note_on_c, 0, 73, 100
2, 29948, Note_off_c, 0, 64, 100
2, 29948, Note_off_c, 0, 69, 100
2, 29948, Note_off_c, 0, 73, 100
2, 29952, Note_on_c, 0, 74, 100
2, 29952, Note_on_c, 0, 80, 100
2, 30332, Note_off_c, 0, 74, 100
2, 30332, Note_off_c, 0, 80, 100
2, 30336, Note_on_c, 0, 74, 100
2, 30336, Note_on_c, 0, 80, 100
2, 30716, Note_off_c, 0, 74, 100
2, 30716, Note_off_c, 0, 80, 100
2, 30720, Note_on_c, 0, 74, 100
2, 30720, Note_on_c, 0, 80, 100
2, 31100, Note_off_c, 0, 74, 100
2, 31100, Note_off_c, 0, 80, 100
2, 31104, Note_on_c, 0, 74, 100
2, 31104, Note_on_c, 0, 80, 100
2, 31292, Note_off_c, 0, 74, 100
2, 31292, Note_off_c, 0, 80, 100
2, 31296, Note_on_c, 0, 73, 100
2, 31296, Note_on_c, 0, 81, 100
2, 31484, Note_off_c, 0, 73, 100
2, 31484, Note_off_c, 0, 81, 100
2, 31488, Note_on_c, 0, 73, 100
2, 31488, Note_on_c, 0, 81, 100
2, 32252, Note_off_c, 0, 73, 100
2, 32252, Note_off_c, 0, 81, 100
2, 32256, Note_on_c, 0, 73, 70
2, 32256, Note_on_c, 0, 76, 70
2, 32636, Note_off_c, 0, 73, 100
2, 32636, Note_off_c, 0, 76, 100
2, 32640, Note_on_c, 0, 81, 70
2, 32640, Note_on_c, 0, 78, 70
2, 33020, Note_off_c, 0, 81, 100
2, 33020, Note_off_c, 0, 78, 100
2, 33024, Note_on_c, 0, 74, 70
2, 33024, Note_on_c, 0, 78, 70
2, 33404, Note_off_c, 0, 74, 100
2, 33404, Note_off_c, 0, 78, 100
2, 33408, Note_on_c, 0, 73, 70
2, 33408, Note_on_c, 0, 76, 70
2, 33788, Note_off_c, 0, 73, 100
2, 33788, Note_off_c, 0, 76, 100
2, 33792, Note_on_c, 0, 81, 70
2, 33792, Note_on_c, 0, 78, 70
2, 34172, Note_off_c, 0, 81, 100
2, 34172, Note_off_c, 0, 78, 100
2, 34176, Note_on_c, 0, 74, 70
2, 34176, Note_on_c, 0, 78, 70
2, 34556, Note_off_c, 0, 74, 100
2, 34556, Note_off_c, 0, 78, 100
2, 34560, Note_on_c, 0, 73, 100
2, 34560, Note_on_c, 0, 76, 100
2, 34748, Note_off_c, 0, 73, 100
2, 34748, Note_off_c, 0, 76, 100
2, 34752, Note_on_c, 0, 69, 100
2, 34940, Note_off_c, 0, 69, 100
2, 34944, Note_on_c, 0, 69, 100
2, 34944, Note_on_c, 0, 73, 100
2, 35324, Note_off_c, 0, 69, 100
2, 35324, Note_off_c, 0, 73, 100
2, 35328, Note_on_c, 0, 71, 100
2, 35376, Note_on_c, 0, 73, 100
2, 35420, Note_off_c, 0, 71, 100
2, 35424, Note_on_c, 0, 71, 100
2, 35468, Note_off_c, 0, 73, 100
2, 35472, Note_on_c, 0, 73, 100
2, 35516, Note_off_c, 0, 71, 100
2, 35520, Note_on_c, 0, 71, 100
2, 35564, Note_off_c, 0, 73, 100
2, 35584, Note_on_c, 0, 69, 100
2, 35644, Note_off_c, 0, 71, 100
2, 35648, Note_on_c, 0, 71, 100
2, 35708, Note_off_c, 0, 69, 100
2, 35708, Note_off_c, 0, 71, 100
2, 35712, Note_on_c, 0, 68, 100
2, 35712, Note_on_c, 0, 71, 100
2, 36476, Note_off_c, 0, 68, 100
2, 36476, Note_off_c, 0, 71, 100
2, 36480, Note_on_c, 0, 69, 100
2, 36860, Note_off_c, 0, 69, 100
2, 36864, Note_on_c, 0, 73, 70
2, 36956, Note_off_c, 0, 73, 100
2, 36960, Note_on_c, 0, 64, 70
2, 37052, Note_off_c, 0, 64, 100
2, 37056, Note_on_c, 0, 69, 70
2, 37148, Note_off_c, 0, 69, 100
2, 37152, Note_on_c, 0, 73, 70
2, 37244, Note_off_c, 0, 73, 100
2, 37248, Note_on_c, 0, 76, 70
2, 37340, Note_off_c, 0, 76, 100
2, 37344, Note_on_c, 0, 69, 70
2, 37436, Note_off_c, 0, 69, 100
2, 37440, Note_on_c, 0, 73, 70
2, 37532, Note_off_c, 0, 73, 100
2, 37536, Note_on_c, 0, 76, 70
2, 37628, Note_off_c, 0, 76, 100
2, 37632, Note_on_c, 0, 83, 70
2, 37724, Note_off_c, 0, 83, 100
2, 37728, Note_on_c, 0, 81, 70
2, 37820, Note_off_c, 0, 81, 100
2, 37824, Note_on_c, 0, 80, 70
2, 37916, Note_off_c, 0, 80, 100
2, 37920, Note_on_c, 0, 78, 70
2, 38012, Note_off_c, 0, 78, 100
2, 38016, Note_on_c, 0, 76, 70
2, 38108, Note_off_c, 0, 76, 100
2, 38112, Note_on_c, 0, 69, 70
2, 38204, Note_off_c, 0, 69, 100
2, 38208, Note_on_c, 0, 73, 70
2, 38300, Note_off_c, 0, 73, 100
2, 38304, Note_on_c, 0, 76, 70
2, 38396, Note_off_c, 0, 76, 100
2, 38400, Note_on_c, 0, 81, 70
2, 38492, Note_off_c, 0, 81, 100
2, 38496, Note_on_c, 0, 73, 70
2, 38588, Note_off_c, 0, 73, 100
2, 38592, Note_on_c, 0, 76, 70
2, 38684, Note_off_c, 0, 76, 100
2, 38688, Note_on_c, 0, 85, 70
2, 38780, Note_off_c, 0, 85, 100
2, 38784, Note_on_c, 0, 83, 70
2, 38876, Note_off_c, 0, 83, 100
2, 38880, Note_on_c, 0, 81, 70
2, 38972, Note_off_c, 0, 81, 100
2, 38976, Note_on_c, 0, 80, 70
2, 39068, Note_off_c, 0, 80, 100
2, 39072, Note_on_c, 0, 78, 70
2, 39164, Note_off_c, 0, 78, 100
2, 39168, Note_on_c, 0, 76, 70
2, 39260, Note_off_c, 0, 76, 100
2, 39264, Note_on_c, 0, 81, 70
2, 39356, Note_off_c, 0, 81, 100
2, 39360, Note_on_c, 0, 73, 70
2, 39452, Note_off_c, 0, 73, 100
2, 39456, Note_on_c, 0, 76, 70
2, 39548, Note_off_c, 0, 76, 100
2, 39552, Note_on_c, 0, 74, 70
2, 39644, Note_off_c, 0, 74, 100
2, 39648, Note_on_c, 0, 76, 70
2, 39740, Note_off_c, 0, 76, 100
2, 39744, Note_on_c, 0, 71, 70
2, 39836, Note_off_c, 0, 71, 100
2, 39840, Note_on_c, 0, 74, 70
2, 39932, Note_off_c, 0, 74, 100
2, 39936, Note_on_c, 0, 73, 70
2, 40028, Note_off_c, 0, 73, 100
2, 40032, Note_on_c, 0, 76, 70
2, 40124, Note_off_c, 0, 76, 100
2, 40128, Note_on_c, 0, 69, 70
2, 40220, Note_off_c, 0, 69, 100
2, 40224, Note_on_c, 0, 73, 70
2, 40316, Note_off_c, 0, 73, 100
2, 40320, Note_on_c, 0, 71, 70
2, 40412, Note_off_c, 0, 71, 100
2, 40416, Note_on_c, 0, 76, 70
2, 40508, Note_off_c, 0, 76, 100
2, 40512, Note_on_c, 0, 75, 70
2, 40604, Note_off_c, 0, 75, 100
2, 40608, Note_on_c, 0, 73, 70
2, 40700, Note_off_c, 0, 73, 100
2, 40704, Note_on_c, 0, 71, 70
2, 40736, Note_on_c, 0, 73, 70
2, 40764, Note_off_c, 0, 71, 100
2, 40768, Note_on_c, 0, 71, 70
2, 40796, Note_off_c, 0, 73, 100
2, 40800, Note_on_c, 0, 69, 70
2, 40828, Note_off_c, 0, 71, 100
2, 40892, Note_off_c, 0, 69, 100
2, 40896, Note_on_c, 0, 68, 70
2, 40988, Note_off_c, 0, 68, 100
2, 40992, Note_on_c, 0, 66, 70
2, 41084, Note_off_c, 0, 66, 100
2, 41088, Note_on_c, 0, 64, 70
2, 41424, Note_on_c, 0, 68, 100
2, 41468, Note_off_c, 0, 64, 100
2, 41472, Note_on_c, 0, 69, 100
2, 41504, Note_on_c, 0, 71, 100
2, 41516, Note_off_c, 0, 68, 100
2, 41532, Note_off_c, 0, 69, 100
2, 41536, Note_on_c, 0, 69, 100
2, 41564, Note_off_c, 0, 71, 100
2, 41568, Note_on_c, 0, 64, 100
2, 41596, Note_off_c, 0, 69, 100
2, 41660, Note_off_c, 0, 64, 100
2, 41664, Note_on_c, 0, 69, 100
2, 41756, Note_off_c, 0, 69, 100
2, 41760, Note_on_c, 0, 73, 100
2, 41852, Note_off_c, 0, 73, 100
2, 41856, Note_on_c, 0, 76, 100
2, 41948, Note_off_c, 0, 76, 100
2, 41952, Note_on_c, 0, 69, 100
2, 42044, Note_off_c, 0, 69, 100
2, 42048, Note_on_c, 0, 73, 100
2, 42140, Note_off_c, 0, 73, 100
2, 42144, Note_on_c, 0, 76, 100
2, 42236, Note_off_c, 0, 76, 100
2, 42240, Note_on_c, 0, 83, 100
2, 42332, Note_off_c, 0, 83, 100
2, 42336, Note_on_c, 0, 81, 100
2, 42428, Note_off_c, 0, 81, 100
2, 42432, Note_on_c, 0, 80, 100
2, 42524, Note_off_c, 0, 80, 100
2, 42528, Note_on_c, 0, 78, 100
2, 42620, Note_off_c, 0, 78, 100
2, 42624, Note_on_c, 0, 76, 100
2, 42716, Note_off_c, 0, 76, 100
2, 42720, Note_on_c, 0, 69, 100
2, 42812, Note_off_c, 0, 69, 100
2, 42816, Note_on_c, 0, 73, 100
2, 42908, Note_off_c, 0, 73, 100
2, 42912, Note_on_c, 0, 76, 100
2, 43004, Note_off_c, 0, 76, 100
2, 43008, Note_on_c, 0, 81, 100
2, 43100, Note_off_c, 0, 81, 100
2, 43104, Note_on_c, 0, 73, 100
2, 43196, Note_off_c, 0, 73, 100
2, 43200, Note_on_c, 0, 76, 100
2, 43292, Note_off_c, 0, 76, 100
2, 43296, Note_on_c, 0, 85, 100
2, 43388, Note_off_c, 0, 85, 100
2, 43392, Note_on_c, 0, 83, 100
2, 43484, Note_off_c, 0, 83, 100
2, 43488, Note_on_c, 0, 81, 100
2, 43580, Note_off_c, 0, 81, 100
2, 43584, Note_on_c, 0, 80, 100
2, 43676, Note_off_c, 0, 80, 100
2, 43680, Note_on_c, 0, 78, 100
2, 43772, Note_off_c, 0, 78, 100
2, 43776, Note_on_c, 0, 76, 100
2, 43868, Note_off_c, 0, 76, 100
2, 43872, Note_on_c, 0, 73, 100
2, 43964, Note_off_c, 0, 73, 100
2, 43968, Note_on_c, 0, 69, 100
2, 44060, Note_off_c, 0, 69, 100
2, 44064, Note_on_c, 0, 81, 100
2, 44156, Note_off_c, 0, 81, 100
2, 44160, Note_on_c, 0, 76, 100
2, 44252, Note_off_c, 0, 76, 100
2, 44256, Note_on_c, 0, 73, 100
2, 44348, Note_off_c, 0, 73, 100
2, 44352, Note_on_c, 0, 69, 100
2, 44444, Note_off_c, 0, 69, 100
2, 44448, Note_on_c, 0, 73, 100
2, 44540, Note_off_c, 0, 73, 100
2, 44544, Note_on_c, 0, 71, 100
2, 44636, Note_off_c, 0, 71, 100
2, 44640, Note_on_c, 0, 74, 100
2, 44732, Note_off_c, 0, 74, 100
2, 44736, Note_on_c, 0, 68, 100
2, 44828, Note_off_c, 0, 68, 100
2, 44832, Note_on_c, 0, 71, 100
2, 44924, Note_off_c, 0, 71, 100
2, 44928, Note_on_c, 0, 68, 100
2, 44928, Note_on_c, 0, 71, 100
2, 45692, Note_off_c, 0, 68, 100
2, 45692, Note_off_c, 0, 71, 100
2, 45696, Note_on_c, 0, 69, 100
2, 46076, Note_off_c, 0, 69, 100
2, 46080, Note_on_c, 0, 73, 70
2, 46172, Note_off_c, 0, 73, 100
2, 46176, Note_on_c, 0, 64, 70
2, 46268, Note_off_c, 0, 64, 100
2, 46272, Note_on_c, 0, 69, 70
2, 46364, Note_off_c, 0, 69, 100
2, 46368, Note_on_c, 0, 73, 70
2, 46460, Note_off_c, 0, 73, 100
2, 46464, Note_on_c, 0, 76, 70
2, 46556, Note_off_c, 0, 76, 100
2, 46560, Note_on_c, 0, 69, 70
2, 46652, Note_off_c, 0, 69, 100
2, 46656, Note_on_c, 0, 73, 70
2, 46748, Note_off_c, 0, 73, 100
2, 46752, Note_on_c, 0, 76, 70
2, 46844, Note_off_c, 0, 76, 100
2, 46848, Note_on_c, 0, 83, 70
2, 46940, Note_off_c, 0, 83, 100
2, 46944, Note_on_c, 0, 81, 70
2, 47036, Note_off_c, 0, 81, 100
2, 47040, Note_on_c, 0, 80, 70
2, 47132, Note_off_c, 0, 80, 100
2, 47136, Note_on_c, 0, 78, 70
2, 47228, Note_off_c, 0, 78, 100
2, 47232, Note_on_c, 0, 76, 70
2, 47324, Note_off_c, 0, 76, 100
2, 47328, Note_on_c, 0, 69, 70
2, 47420, Note_off_c, 0, 69, 100
2, 47424, Note_on_c, 0, 73, 70
2, 47516, Note_off_c, 0, 73, 100
2, 47520, Note_on_c, 0, 76, 70
2, 47612, Note_off_c, 0, 76, 100
2, 47616, Note_on_c, 0, 81, 70
2, 47708, Note_off_c, 0, 81, 100
2, 47712, Note_on_c, 0, 73, 70
2, 47804, Note_off_c, 0, 73, 100
2, 47808, Note_on_c, 0, 76, 70
2, 47900, Note_off_c, 0, 76, 100
2, 47904, Note_on_c, 0, 85, 70
2, 47996, Note_off_c, 0, 85, 100
2, 48000, Note_on_c, 0, 83, 70
2, 48092, Note_off_c, 0, 83, 100
2, 48096, Note_on_c, 0, 81, 70
2, 48188, Note_off_c, 0, 81, 100
2, 48192, Note_on_c, 0, 80, 70
2, 48284, Note_off_c, 0, 80, 100
2, 48288, Note_on_c, 0, 78, 70
2, 48380, Note_off_c, 0, 78, 100
2, 48384, Note_on_c, 0, 76, 70
2, 48476, Note_off_c, 0, 76, 100
2, 48480, Note_on_c, 0, 81, 70
2, 48572, Note_off_c, 0, 81, 100
2, 48576, Note_on_c, 0, 73, 70
2, 48668, Note_off_c, 0, 73, 100
2, 48672, Note_on_c, 0, 76, 70
2, 48764, Note_off_c, 0, 76, 100
2, 48768, Note_on_c, 0, 74, 70
2, 48860, Note_off_c, 0, 74, 100
2, 48864, Note_on_c, 0, 76, 70
2, 48956, Note_off_c, 0, 76, 100
2, 48960, Note_on_c, 0, 71, 70
2, 49052, Note_off_c, 0, 71, 100
2, 49056, Note_on_c, 0, 74, 70
2, 49148, Note_off_c, 0, 74, 100
2, 49152, Note_on_c, 0, 73, 70
2, 49244, Note_off_c, 0, 73, 100
2, 49248, Note_on_c, 0, 76, 70
2, 49340, Note_off_c, 0, 76, 100
2, 49344, Note_on_c, 0, 69, 70
2, 49436, Note_off_c, 0, 69, 100
2, 49440, Note_on_c, 0, 73, 70
2, 49532, Note_off_c, 0, 73, 100
2, 49536, Note_on_c, 0, 71, 70
2, 49628, Note_off_c, 0, 71, 100
2, 49632, Note_on_c, 0, 76, 70
2, 49724, Note_off_c, 0, 76, 100
2, 49728, Note_on_c, 0, 75, 70
2, 49820, Note_off_c, 0, 75, 100
2, 49824, Note_on_c, 0, 73, 70
2, 49916, Note_off_c, 0, 73, 100
2, 49920, Note_on_c, 0, 71, 70
2, 49952, Note_on_c, 0, 73, 70
2, 49980, Note_off_c, 0, 71, 100
2, 49984, Note_on_c, 0, 71, 70
2, 50012, Note_off_c, 0, 73, 100
2, 50016, Note_on_c, 0, 69, 70
2, 50044, Note_off_c, 0, 71, 100
2, 50108, Note_off_c, 0, 69, 100
2, 50112, Note_on_c, 0, 68, 70
2, 50204, Note_off_c, 0, 68, 100
2, 50208, Note_on_c, 0, 66, 70
2, 50300, Note_off_c, 0, 66, 100
2, 50304, Note_on_c, 0, 64, 70
2, 50640, Note_on_c, 0, 68, 100
2, 50684, Note_off_c, 0, 64, 100
2, 50688, Note_on_c, 0, 69, 100
2, 50720, Note_on_c, 0, 71, 100
2, 50732, Note_off_c, 0, 68, 100
2, 50748, Note_off_c, 0, 69, 100
2, 50752, Note_on_c, 0, 69, 100
2, 50780, Note_off_c, 0, 71, 100
2, 50784, Note_on_c, 0, 64, 100
2, 50812, Note_off_c, 0, 69, 100
2, 50876, Note_off_c, 0, 64, 100
2, 50880, Note_on_c, 0, 69, 100
2, 50972, Note_off_c, 0, 69, 100
2, 50976, Note_on_c, 0, 73, 100
2, 51068, Note_off_c, 0, 73, 100
2, 51072, Note_on_c, 0, 76, 100
2, 51164, Note_off_c, 0, 76, 100
2, 51168, Note_on_c, 0, 69, 100
2, 51260, Note_off_c, 0, 69, 100
2, 51264, Note_on_c, 0, 73, 100
2, 51356, Note_off_c, 0, 73, 100
2, 51360, Note_on_c, 0, 76, 100
2, 51452, Note_off_c, 0, 76, 100
2, 51456, Note_on_c, 0, 83, 100
2, 51548, Note_off_c, 0, 83, 100
2, 51552, Note_on_c, 0, 81, 100
2, 51644, Note_off_c, 0, 81, 100
2, 51648, Note_on_c, 0, 80, 100
2, 51740, Note_off_c, 0, 80, 100
2, 51744, Note_on_c, 0, 78, 100
2, 51836, Note_off_c, 0, 78, 100
2, 51840, Note_on_c, 0, 76, 100
2, 51932, Note_off_c, 0, 76, 100
2, 51936, Note_on_c, 0, 69, 100
2, 52028, Note_off_c, 0, 69, 100
2, 52032, Note_on_c, 0, 73, 100
2, 52124, Note_off_c, 0, 73, 100
2, 52128, Note_on_c, 0, 76, 100
2, 52220, Note_off_c, 0, 76, 100
2, 52224, Note_on_c, 0, 81, 100
2, 52316, Note_off_c, 0, 81, 100
2, 52320, Note_on_c, 0, 73, 100
2, 52412, Note_off_c, 0, 73, 100
2, 52416, Note_on_c, 0, 76, 100
2, 52508, Note_off_c, 0, 76, 100
2, 52512, Note_on_c, 0, 85, 100
2, 52604, Note_off_c, 0, 85, 100
2, 52608, Note_on_c, 0, 83, 100
2, 52700, Note_off_c, 0, 83, 100
2, 52704, Note_on_c, 0, 81, 100
2, 52796, Note_off_c, 0, 81, 100
2, 52800, Note_on_c, 0, 80, 100
2, 52892, Note_off_c, 0, 80, 100
2, 52896, Note_on_c, 0, 78, 100
2, 52988, Note_off_c, 0, 78, 100
2, 52992, Note_on_c, 0, 76, 100
2, 53084, Note_off_c, 0, 76, 100
2, 53088, Note_on_c, 0, 73, 100
2, 53180, Note_off_c, 0, 73, 100
2, 53184, Note_on_c, 0, 69, 100
2, 53276, Note_off_c, 0, 69, 100
2, 53280, Note_on_c, 0, 81, 100
2, 53372, Note_off_c, 0, 81, 100
2, 53376, Note_on_c, 0, 76, 100
2, 53468, Note_off_c, 0, 76, 100
2, 53472, Note_on_c, 0, 73, 100
2, 53564, Note_off_c, 0, 73, 100
2, 53568, Note_on_c, 0, 69, 100
2, 53660, Note_off_c, 0, 69, 100
2, 53664, Note_on_c, 0, 73, 100
2, 53756, Note_off_c, 0, 73, 100
2, 53760, Note_on_c, 0, 71, 100
2, 53852, Note_off_c, 0, 71, 100
2, 53856, Note_on_c, 0, 74, 100
2, 53948, Note_off_c, 0, 74, 100
2, 53952, Note_on_c, 0, 68, 100
2, 54044, Note_off_c, 0, 68, 100
2, 54048, Note_on_c, 0, 71, 100
2, 54140, Note_off_c, 0, 71, 100
2, 54144, Note_on_c, 0, 68, 100
2, 54144, Note_on_c, 0, 71, 100
2, 54908, Note_off_c, 0, 68, 100
2, 54908, Note_off_c, 0, 71, 100
2, 54912, Note_on_c, 0, 69, 100
2, 55292, Note_off_c, 0, 69, 100
2, 55296, Note_on_c, 0, 71, 100
2, 55388, Note_off_c, 0, 71, 100
2, 55392, Note_on_c, 0, 64, 100
2, 55484, Note_off_c, 0, 64, 100
2, 55488, Note_on_c, 0, 71, 100
2, 55580, Note_off_c, 0, 71, 100
2, 55584, Note_on_c, 0, 74, 100
2, 55676, Note_off_c, 0, 74, 100
2, 55680, Note_on_c, 0, 80, 100
2, 55772, Note_off_c, 0, 80, 100
2, 55776, Note_on_c, 0, 74, 100
2, 55868, Note_off_c, 0, 74, 100
2, 55872, Note_on_c, 0, 80, 100
2, 55964, Note_off_c, 0, 80, 100
2, 55968, Note_on_c, 0, 83, 100
2, 56060, Note_off_c, 0, 83, 100
2, 56064, Note_on_c, 0, 86, 100
2, 56252, Note_off_c, 0, 86, 100
2, 56256, Note_on_c, 0, 74, 100
2, 56444, Note_off_c, 0, 74, 100
2, 56448, Note_on_c, 0, 74, 100
2, 56636, Note_off_c, 0, 74, 100
2, 56640, Note_on_c, 0, 73, 100
2, 56828, Note_off_c, 0, 73, 100
2, 56832, Note_on_c, 0, 73, 100
2, 57596, Note_off_c, 0, 73, 100
2, 57600, Note_on_c, 0, 86, 100
2, 57692, Note_off_c, 0, 86, 100
2, 57696, Note_on_c, 0, 85, 100
2, 57788, Note_off_c, 0, 85, 100
2, 57792, Note_on_c, 0, 83, 100
2, 57884, Note_off_c, 0, 83, 100
2, 57888, Note_on_c, 0, 85, 100
2, 57980, Note_off_c, 0, 85, 100
2, 57984, Note_on_c, 0, 86, 100
2, 58076, Note_off_c, 0, 86, 100
2, 58080, Note_on_c, 0, 85, 100
2, 58172, Note_off_c, 0, 85, 100
2, 58176, Note_on_c, 0, 83, 100
2, 58268, Note_off_c, 0, 83, 100
2, 58272, Note_on_c, 0, 81, 100
2, 58364, Note_off_c, 0, 81, 100
2, 58368, Note_on_c, 0, 80, 100
2, 58460, Note_off_c, 0, 80, 100
2, 58464, Note_on_c, 0, 78, 100
2, 58556, Note_off_c, 0, 78, 100
2, 58560, Note_on_c, 0, 76, 100
2, 58652, Note_off_c, 0, 76, 100
2, 58656, Note_on_c, 0, 74, 100
2, 58748, Note_off_c, 0, 74, 100
2, 58752, Note_on_c, 0, 73, 100
2, 58844, Note_off_c, 0, 73, 100
2, 58848, Note_on_c, 0, 81, 100
2, 58940, Note_off_c, 0, 81, 100
2, 58944, Note_on_c, 0, 80, 100
2, 59036, Note_off_c, 0, 80, 100
2, 59040, Note_on_c, 0, 81, 100
2, 59132, Note_off_c, 0, 81, 100
2, 59136, Note_on_c, 0, 75, 100
2, 59228, Note_off_c, 0, 75, 100
2, 59232, Note_on_c, 0, 76, 100
2, 59324, Note_off_c, 0, 76, 100
2, 59328, Note_on_c, 0, 75, 100
2, 59420, Note_off_c, 0, 75, 100
2, 59424, Note_on_c, 0, 76, 100
2, 59516, Note_off_c, 0, 76, 100
2, 59520, Note_on_c, 0, 72, 100
2, 59612, Note_off_c, 0, 72, 100
2, 59616, Note_on_c, 0, 73, 100
2, 59708, Note_off_c, 0, 73, 100
2, 59712, Note_on_c, 0, 72, 100
2, 59804, Note_off_c, 0, 72, 100
2, 59808, Note_on_c, 0, 73, 100
2, 59900, Note_off_c, 0, 73, 100
2, 59904, Note_on_c, 0, 69, 70
2, 59996, Note_off_c, 0, 69, 100
2, 60000, Note_on_c, 0, 64, 70
2, 60092, Note_off_c, 0, 64, 100
2, 60096, Note_on_c, 0, 69, 70
2, 60188, Note_off_c, 0, 69, 100
2, 60192, Note_on_c, 0, 73, 70
2, 60284, Note_off_c, 0, 73, 100
2, 60288, Note_on_c, 0, 76, 70
2, 60380, Note_off_c, 0, 76, 100
2, 60384, Note_on_c, 0, 69, 70
2, 60476, Note_off_c, 0, 69, 100
2, 60480, Note_on_c, 0, 73, 70
2, 60572, Note_off_c, 0, 73, 100
2, 60576, Note_on_c, 0, 76, 70
2, 60668, Note_off_c, 0, 76, 100
2, 60672, Note_on_c, 0, 83, 70
2, 60764, Note_off_c, 0, 83, 100
2, 60768, Note_on_c, 0, 81, 70
2, 60860, Note_off_c, 0, 81, 100
2, 60864, Note_on_c, 0, 80, 70
2, 60956, Note_off_c, 0, 80, 100
2, 60960, Note_on_c, 0, 78, 70
2, 61052, Note_off_c, 0, 78, 100
2, 61056, Note_on_c, 0, 76, 70
2, 61148, Note_off_c, 0, 76, 100
2, 61152, Note_on_c, 0, 69, 70
2, 61244, Note_off_c, 0, 69, 100
2, 61248, Note_on_c, 0, 73, 70
2, 61340, Note_off_c, 0, 73, 100
2, 61344, Note_on_c, 0, 76, 70
2, 61436, Note_off_c, 0, 76, 100
2, 61440, Note_on_c, 0, 81, 70
2, 61532, Note_off_c, 0, 81, 100
2, 61536, Note_on_c, 0, 73, 70
2, 61628, Note_off_c, 0, 73, 100
2, 61632, Note_on_c, 0, 76, 70
2, 61724, Note_off_c, 0, 76, 100
2, 61728, Note_on_c, 0, 85, 70
2, 61820, Note_off_c, 0, 85, 100
2, 61824, Note_on_c, 0, 83, 70
2, 61916, Note_off_c, 0, 83, 100
2, 61920, Note_on_c, 0, 81, 70
2, 62012, Note_off_c, 0, 81, 100
2, 62016, Note_on_c, 0, 80, 70
2, 62108, Note_off_c, 0, 80, 100
2, 62112, Note_on_c, 0, 78, 70
2, 62204, Note_off_c, 0, 78, 100
2, 62208, Note_on_c, 0, 76, 100
2, 62300, Note_off_c, 0, 76, 100
2, 62304, Note_on_c, 0, 73, 100
2, 62396, Note_off_c, 0, 73, 100
2, 62400, Note_on_c, 0, 69, 100
2, 62492, Note_off_c, 0, 69, 100
2, 62496, Note_on_c, 0, 81, 100
2, 62588, Note_off_c, 0, 81, 100
2, 62592, Note_on_c, 0, 76, 100
2, 62684, Note_off_c, 0, 76, 100
2, 62688, Note_on_c, 0, 73, 100
2, 62780, Note_off_c, 0, 73, 100
2, 62784, Note_on_c, 0, 69, 100
2, 62876, Note_off_c, 0, 69, 100
2, 62880, Note_on_c, 0, 73, 100
2, 62972, Note_off_c, 0, 73, 100
2, 62976, Note_on_c, 0, 71, 100
2, 63068, Note_off_c, 0, 71, 100
2, 63072, Note_on_c, 0, 74, 100
2, 63164, Note_off_c, 0, 74, 100
2, 63168, Note_on_c, 0, 68, 100
2, 63260, Note_off_c, 0, 68, 100
2, 63264, Note_on_c, 0, 71, 100
2, 63356, Note_off_c, 0, 71, 100
2, 63360, Note_on_c, 0, 68, 100
2, 63360, Note_on_c, 0, 71, 100
2, 64124, Note_off_c, 0, 68, 100
2, 64124, Note_off_c, 0, 71, 100
2, 64128, Note_on_c, 0, 69, 100
2, 64508, Note_off_c, 0, 69, 100
2, 64512, Note_on_c, 0, 71, 100
2, 64604, Note_off_c, 0, 71, 100
2, 64608, Note_on_c, 0, 64, 100
2, 64700, Note_off_c, 0, 64, 100
2, 64704, Note_on_c, 0, 71, 100
2, 64796, Note_off_c, 0, 71, 100
2, 64800, Note_on_c, 0, 74, 100
2, 64892, Note_off_c, 0, 74, 100
2, 64896, Note_on_c, 0, 80, 100
2, 64988, Note_off_c, 0, 80, 100
2, 64992, Note_on_c, 0, 74, 100
2, 65084, Note_off_c, 0, 74, 100
2, 65088, Note_on_c, 0, 80, 100
2, 65180, Note_off_c, 0, 80, 100
2, 65184, Note_on_c, 0, 83, 100
2, 65276, Note_off_c, 0, 83, 100
2, 65280, Note_on_c, 0, 86, 100
2, 65468, Note_off_c, 0, 86, 100
2, 65472, Note_on_c, 0, 74, 100
2, 65660, Note_off_c, 0, 74, 100
2, 65664, Note_on_c, 0, 74, 100
2, 65852, Note_off_c, 0, 74, 100
2, 65856, Note_on_c, 0, 73, 100
2, 66044, Note_off_c, 0, 73, 100
2, 66048, Note_on_c, 0, 73, 100
2, 66812, Note_off_c, 0, 73, 100
2, 66816, Note_on_c, 0, 86, 100
2, 66908, Note_off_c, 0, 86, 100
2, 66912, Note_on_c, 0, 85, 100
2, 67004, Note_off_c, 0, 85, 100
2, 67008, Note_on_c, 0, 83, 100
2, 67100, Note_off_c, 0, 83, 100
2, 67104, Note_on_c, 0, 85, 100
2, 67196, Note_off_c, 0, 85, 100
2, 67200, Note_on_c, 0, 86, 100
2, 67292, Note_off_c, 0, 86, 100
2, 67296, Note_on_c, 0, 85, 100
2, 67388, Note_off_c, 0, 85, 100
2, 67392, Note_on_c, 0, 83, 100
2, 67484, Note_off_c, 0, 83, 100
2, 67488, Note_on_c, 0, 81, 100
2, 67580, Note_off_c, 0, 81, 100
2, 67584, Note_on_c, 0, 80, 100
2, 67676, Note_off_c, 0, 80, 100
2, 67680, Note_on_c, 0, 78, 100
2, 67772, Note_off_c, 0, 78, 100
2, 67776, Note_on_c, 0, 76, 100
2, 67868, Note_off_c, 0, 76, 100
2, 67872, Note_on_c, 0, 74, 100
2, 67964, Note_off_c, 0, 74, 100
2, 67968, Note_on_c, 0, 73, 100
2, 68060, Note_off_c, 0, 73, 100
2, 68064, Note_on_c, 0, 81, 100
2, 68156, Note_off_c, 0, 81, 100
2, 68160, Note_on_c, 0, 80, 100
2, 68252, Note_off_c, 0, 80, 100
2, 68256, Note_on_c, 0, 81, 100
2, 68348, Note_off_c, 0, 81, 100
2, 68352, Note_on_c, 0, 75, 100
2, 68444, Note_off_c, 0, 75, 100
2, 68448, Note_on_c, 0, 76, 100
2, 68540, Note_off_c, 0, 76, 100
2, 68544, Note_on_c, 0, 75, 100
2, 68636, Note_off_c, 0, 75, 100
2, 68640, Note_on_c, 0, 76, 100
2, 68732, Note_off_c, 0, 76, 100
2, 68736, Note_on_c, 0, 72, 100
2, 68828, Note_off_c, 0, 72, 100
2, 68832, Note_on_c, 0, 73, 100
2, 68924, Note_off_c, 0, 73, 100
2, 68928, Note_on_c, 0, 72, 100
2, 69020, Note_off_c, 0, 72, 100
2, 69024, Note_on_c, 0, 73, 100
2, 69116, Note_off_c, 0, 73, 100
2, 69120, Note_on_c, 0, 69, 70
2, 69212, Note_off_c, 0, 69, 100
2, 69216, Note_on_c, 0, 64, 70
2, 69308, Note_off_c, 0, 64, 100
2, 69312, Note_on_c, 0, 69, 70
2, 69404, Note_off_c, 0, 69, 100
2, 69408, Note_on_c, 0, 73, 70
2, 69500, Note_off_c, 0, 73, 100
2, 69504, Note_on_c, 0, 76, 70
2, 69596, Note_off_c, 0, 76, 100
2, 69600, Note_on_c, 0, 69, 70
2, 69692, Note_off_c, 0, 69, 100
2, 69696, Note_on_c, 0, 73, 70
2, 69788, Note_off_c, 0, 73, 100
2, 69792, Note_on_c, 0, 76, 70
2, 69884, Note_off_c, 0, 76, 100
2, 69888, Note_on_c, 0, 83, 70
2, 69980, Note_off_c, 0, 83, 100
2, 69984, Note_on_c, 0, 81, 70
2, 70076, Note_off_c, 0, 81, 100
2, 70080, Note_on_c, 0, 80, 70
2, 70172, Note_off_c, 0, 80, 100
2, 70176, Note_on_c, 0, 78, 70
2, 70268, Note_off_c, 0, 78, 100
2, 70272, Note_on_c, 0, 76, 70
2, 70364, Note_off_c, 0, 76, 100
2, 70368, Note_on_c, 0, 69, 70
2, 70460, Note_off_c, 0, 69, 100
2, 70464, Note_on_c, 0, 73, 70
2, 70556, Note_off_c, 0, 73, 100
2, 70560, Note_on_c, 0, 76, 70
2, 70652, Note_off_c, 0, 76, 100
2, 70656, Note_on_c, 0, 81, 70
2, 70748, Note_off_c, 0, 81, 100
2, 70752, Note_on_c, 0, 73, 70
2, 70844, Note_off_c, 0, 73, 100
2, 70848, Note_on_c, 0, 76, 70
2, 70940, Note_off_c, 0, 76, 100
2, 70944, Note_on_c, 0, 85, 70
2, 71036, Note_off_c, 0, 85, 100
2, 71040, Note_on_c, 0, 83, 70
2, 71132, Note_off_c, 0, 83, 100
2, 71136, Note_on_c, 0, 81, 70
2, 71228, Note_off_c, 0, 81, 100
2, 71232, Note_on_c, 0, 80, 70
2, 71324, Note_off_c, 0, 80, 100
2, 71328, Note_on_c, 0, 78, 70
2, 71420, Note_off_c, 0, 78, 100
2, 71424, Note_on_c, 0, 76, 100
2, 71516, Note_off_c, 0, 76, 100
2, 71520, Note_on_c, 0, 73, 100
2, 71612, Note_off_c, 0, 73, 100
2, 71616, Note_on_c, 0, 69, 100
2, 71708, Note_off_c, 0, 69, 100
2, 71712, Note_on_c, 0, 81, 100
2, 71804, Note_off_c, 0, 81, 100
2, 71808, Note_on_c, 0, 76, 100
2, 71900, Note_off_c, 0, 76, 100
2, 71904, Note_on_c, 0, 73, 100
2, 71996, Note_off_c, 0, 73, 100
2, 72000, Note_on_c, 0, 69, 100
2, 72092, Note_off_c, 0, 69, 100
2, 72096, Note_on_c, 0, 73, 100
2, 72188, Note_off_c, 0, 73, 100
2, 72192, Note_on_c, 0, 71, 100
2, 72284, Note_off_c, 0, 71, 100
2, 72288, Note_on_c, 0, 74, 100
2, 72380, Note_off_c, 0, 74, 100
2, 72384, Note_on_c, 0, 68, 100
2, 72476, Note_off_c, 0, 68, 100
2, 72480, Note_on_c, 0, 71, 100
2, 72572, Note_off_c, 0, 71, 100
2, 72576, Note_on_c, 0, 68, 100
2, 72576, Note_on_c, 0, 71, 100
2, 73340, Note_off_c, 0, 68, 100
2, 73340, Note_off_c, 0, 71, 100
2, 73344, Note_on_c, 0, 69, 100
2, 73724, Note_off_c, 0, 69, 100
2, 73728, Note_on_c, 0, 76, 70
2, 73728, Note_on_c, 0, 69, 70
2, 74108, Note_off_c, 0, 76, 100
2, 74112, Note_on_c, 0, 81, 70
2, 74492, Note_off_c, 0, 69, 100
2, 74492, Note_off_c, 0, 81, 100
2, 74496, Note_on_c, 0, 69, 70
2, 74496, Note_on_c, 0, 78, 70
2, 74876, Note_off_c, 0, 69, 100
2, 74876, Note_off_c, 0, 78, 100
2, 74880, Note_on_c, 0, 76, 70
2, 74880, Note_on_c, 0, 69, 70
2, 75260, Note_off_c, 0, 76, 100
2, 75264, Note_on_c, 0, 81, 70
2, 75644, Note_off_c, 0, 69, 100
2, 75644, Note_off_c, 0, 81, 100
2, 75648, Note_on_c, 0, 69, 70
2, 75648, Note_on_c, 0, 78, 70
2, 76028, Note_off_c, 0, 69, 100
2, 76028, Note_off_c, 0, 78, 100
2, 76032, Note_on_c, 0, 64, 70
2, 76032, Note_on_c, 0, 73, 70
2, 76032, Note_on_c, 0, 76, 70
2, 76412, Note_off_c, 0, 73, 100
2, 76412, Note_off_c, 0, 76, 100
2, 76416, Note_on_c, 0, 71, 70
2, 76416, Note_on_c, 0, 74, 70
2, 76796, Note_off_c, 0, 71, 100
2, 76796, Note_off_c, 0, 74, 100
2, 76800, Note_on_c, 0, 73, 70
2, 76800, Note_on_c, 0, 69, 70
2, 77180, Note_off_c, 0, 64, 100
2, 77180, Note_off_c, 0, 73, 100
2, 77180, Note_off_c, 0, 69, 100
2, 77184, Note_on_c, 0, 64, 70
2, 77184, Note_on_c, 0, 68, 70
2, 77184, Note_on_c, 0, 71, 70
2, 77564, Note_off_c, 0, 64, 100
2, 77564, Note_off_c, 0, 68, 100
2, 77564, Note_off_c, 0, 71, 100
2, 78336, Note_on_c, 0, 76, 100
2, 78336, Note_on_c, 0, 69, 100
2, 78716, Note_off_c, 0, 76, 100
2, 78720, Note_on_c, 0, 81, 100
2, 79100, Note_off_c, 0, 69, 100
2, 79100, Note_off_c, 0, 81, 100
2, 79104, Note_on_c, 0, 69, 100
2, 79104, Note_on_c, 0, 78, 100
2, 79484, Note_off_c, 0, 69, 100
2, 79484, Note_off_c, 0, 78, 100
2, 79488, Note_on_c, 0, 76, 100
2, 79488, Note_on_c, 0, 69, 100
2, 79868, Note_off_c, 0, 76, 100
2, 79872, Note_on_c, 0, 81, 100
2, 80252, Note_off_c, 0, 69, 100
2, 80252, Note_off_c, 0, 81, 100
2, 80256, Note_on_c, 0, 69, 100
2, 80256, Note_on_c, 0, 78, 100
2, 80636, Note_off_c, 0, 69, 100
2, 80636, Note_off_c, 0, 78, 100
2, 80640, Note_on_c, 0, 76, 100
2, 80828, Note_off_c, 0, 76, 100
2, 80832, Note_on_c, 0, 69, 100
2, 81020, Note_off_c, 0, 69, 100
2, 81024, Note_on_c, 0, 73, 100
2, 81404, Note_off_c, 0, 73, 100
2, 81408, Note_on_c, 0, 71, 100
2, 81456, Note_on_c, 0, 73, 100
2, 81500, Note_off_c, 0, 71, 100
2, 81504, Note_on_c, 0, 71, 100
2, 81548, Note_off_c, 0, 73, 100
2, 81552, Note_on_c, 0, 73, 100
2, 81596, Note_off_c, 0, 71, 100
2, 81600, Note_on_c, 0, 71, 100
2, 81644, Note_off_c, 0, 73, 100
2, 81664, Note_on_c, 0, 69, 100
2, 81724, Note_off_c, 0, 71, 100
2, 81728, Note_on_c, 0, 71, 100
2, 81788, Note_off_c, 0, 69, 100
2, 81788, Note_off_c, 0, 71, 100
2, 81792, Note_on_c, 0, 71, 100
2, 82556, Note_off_c, 0, 71, 100
2, 82560, Note_on_c, 0, 69, 100
2, 82940, Note_off_c, 0, 69, 100
2, 82944, Note_on_c, 0, 76, 70
2, 82944, Note_on_c, 0, 69, 70
2, 83324, Note_off_c, 0, 76, 100
2, 83328, Note_on_c, 0, 81, 70
2, 83708, Note_off_c, 0, 69, 100
2, 83708, Note_off_c, 0, 81, 100
2, 83712, Note_on_c, 0, 69, 70
2, 83712, Note_on_c, 0, 78, 70
2, 84092, Note_off_c, 0, 69, 100
2, 84092, Note_off_c, 0, 78, 100
2, 84096, Note_on_c, 0, 76, 70
2, 84096, Note_on_c, 0, 69, 70
2, 84476, Note_off_c, 0, 76, 100
2, 84480, Note_on_c, 0, 81, 70
2, 84860, Note_off_c, 0, 69, 100
2, 84860, Note_off_c, 0, 81, 100
2, 84864, Note_on_c, 0, 69, 70
2, 84864, Note_on_c, 0, 78, 70
2, 85244, Note_off_c, 0, 69, 100
2, 85244, Note_off_c, 0, 78, 100
2, 85248, Note_on_c, 0, 64, 70
2, 85248, Note_on_c, 0, 73, 70
2, 85248, Note_on_c, 0, 76, 70
2, 85628, Note_off_c, 0, 73, 100
2, 85628, Note_off_c, 0, 76, 100
2, 85632, Note_on_c, 0, 71, 70
2, 85632, Note_on_c, 0, 74, 70
2, 86012, Note_off_c, 0, 71, 100
2, 86012, Note_off_c, 0, 74, 100
2, 86016, Note_on_c, 0, 73, 70
2, 86016, Note_on_c, 0, 69, 70
2, 86396, Note_off_c, 0, 64, 100
2, 86396, Note_off_c, 0, 73, 100
2, 86396, Note_off_c, 0, 69, 100
2, 86400, Note_on_c, 0, 64, 70
2, 86400, Note_on_c, 0, 68, 70
2, 86400, Note_on_c, 0, 71, 70
2, 86780, Note_off_c, 0, 64, 100
2, 86780, Note_off_c, 0, 68, 100
2, 86780, Note_off_c, 0, 71, 100
2, 87552, Note_on_c, 0, 76, 100
2, 87552, Note_on_c, 0, 69, 100
2, 87932, Note_off_c, 0, 76, 100
2, 87936, Note_on_c, 0, 81, 100
2, 88316, Note_off_c, 0, 69, 100
2, 88316, Note_off_c, 0, 81, 100
2, 88320, Note_on_c, 0, 69, 100
2, 88320, Note_on_c, 0, 78, 100
2, 88700, Note_off_c, 0, 69, 100
2, 88700, Note_off_c, 0, 78, 100
2, 88704, Note_on_c, 0, 76, 100
2, 88704, Note_on_c, 0, 69, 100
2, 89084, Note_off_c, 0, 76, 100
2, 89088, Note_on_c, 0, 81, 100
2, 89468, Note_off_c, 0, 69, 100
2, 89468, Note_off_c, 0, 81, 100
2, 89472, Note_on_c, 0, 69, 100
2, 89472, Note_on_c, 0, 78, 100
2, 89852, Note_off_c, 0, 69, 100
2, 89852, Note_off_c, 0, 78, 100
2, 89856, Note_on_c, 0, 76, 100
2, 90044, Note_off_c, 0, 76, 100
2, 90048, Note_on_c, 0, 69, 100
2, 90236, Note_off_c, 0, 69, 100
2, 90240, Note_on_c, 0, 73, 100
2, 90620, Note_off_c, 0, 73, 100
2, 90624, Note_on_c, 0, 71, 100
2, 90672, Note_on_c, 0, 73, 100
2, 90716, Note_off_c, 0, 71, 100
2, 90720, Note_on_c, 0, 71, 100
2, 90764, Note_off_c, 0, 73, 100
2, 90768, Note_on_c, 0, 73, 100
2, 90812, Note_off_c, 0, 71, 100
2, 90816, Note_on_c, 0, 71, 100
2, 90860, Note_off_c, 0, 73, 100
2, 90880, Note_on_c, 0, 69, 100
2, 90940, Note_off_c, 0, 71, 100
2, 90944, Note_on_c, 0, 71, 100
2, 91004, Note_off_c, 0, 69, 100
2, 91004, Note_off_c, 0, 71, 100
2, 91008, Note_on_c, 0, 71, 100
2, 91772, Note_off_c, 0, 71, 100
2, 91776, Note_on_c, 0, 69, 100
2, 92156, Note_off_c, 0, 69, 100
2, 92160, Note_on_c, 0, 64, 100
2, 92160, Note_on_c, 0, 74, 100
2, 92540, Note_off_c, 0, 64, 100
2, 92540, Note_off_c, 0, 74, 100
2, 92544, Note_on_c, 0, 64, 100
2, 92544, Note_on_c, 0, 74, 100
2, 92924, Note_off_c, 0, 64, 100
2, 92924, Note_off_c, 0, 74, 100
2, 92928, Note_on_c, 0, 64, 100
2, 92928, Note_on_c, 0, 74, 100
2, 93308, Note_off_c, 0, 64, 100
2, 93308, Note_off_c, 0, 74, 100
2, 93312, Note_on_c, 0, 74, 100
2, 93312, Note_on_c, 0, 64, 100
2, 93500, Note_off_c, 0, 74, 100
2, 93504, Note_on_c, 0, 73, 100
2, 93692, Note_off_c, 0, 64, 100
2, 93692, Note_off_c, 0, 73, 100
2, 93696, Note_on_c, 0, 64, 100
2, 93696, Note_on_c, 0, 73, 100
2, 94460, Note_off_c, 0, 64, 100
2, 94460, Note_off_c, 0, 73, 100
2, 94464, Note_on_c, 0, 79, 100
2, 94512, Note_on_c, 0, 80, 100
2, 94556, Note_off_c, 0, 79, 100
2, 94844, Note_off_c, 0, 80, 100
2, 94848, Note_on_c, 0, 80, 100
2, 95228, Note_off_c, 0, 80, 100
2, 95232, Note_on_c, 0, 80, 100
2, 95612, Note_off_c, 0, 80, 100
2, 95616, Note_on_c, 0, 80, 100
2, 95664, Note_on_c, 0, 81, 100
2, 95708, Note_off_c, 0, 80, 100
2, 95996, Note_off_c, 0, 81, 100
2, 96000, Note_on_c, 0, 69, 100
2, 96380, Note_off_c, 0, 69, 100
2, 96768, Note_on_c, 0, 75, 70
2, 96816, Note_on_c, 0, 76, 70
2, 96860, Note_off_c, 0, 75, 100
2, 97148, Note_off_c, 0, 76, 100
2, 97152, Note_on_c, 0, 81, 70
2, 97532, Note_off_c, 0, 81, 100
2, 97536, Note_on_c, 0, 78, 70
2, 97584, Note_on_c, 0, 80, 70
2, 97628, Note_off_c, 0, 78, 100
2, 97632, Note_on_c, 0, 78, 70
2, 97676, Note_off_c, 0, 80, 100
2, 97680, Note_on_c, 0, 80, 70
2, 97724, Note_off_c, 0, 78, 100
2, 97728, Note_on_c, 0, 78, 70
2, 97772, Note_off_c, 0, 80, 100
2, 97792, Note_on_c, 0, 76, 70
2, 97852, Note_off_c, 0, 78, 100
2, 97856, Note_on_c, 0, 78, 70
2, 97916, Note_off_c, 0, 76, 100
2, 97916, Note_off_c, 0, 78, 100
2, 97920, Note_on_c, 0, 76, 70
2, 98300, Note_off_c, 0, 76, 100
2, 98304, Note_on_c, 0, 81, 70
2, 98684, Note_off_c, 0, 81, 100
2, 98688, Note_on_c, 0, 78, 70
2, 98736, Note_on_c, 0, 80, 70
2, 98780, Note_off_c, 0, 78, 100
2, 98784, Note_on_c, 0, 78, 70
2, 98828, Note_off_c, 0, 80, 100
2, 98832, Note_on_c, 0, 80, 70
2, 98876, Note_off_c, 0, 78, 100
2, 98880, Note_on_c, 0, 78, 70
2, 98924, Note_off_c, 0, 80, 100
2, 98944, Note_on_c, 0, 76, 70
2, 99004, Note_off_c, 0, 78, 100
2, 99008, Note_on_c, 0, 78, 70
2, 99068, Note_off_c, 0, 76, 100
2, 99068, Note_off_c, 0, 78, 100
2, 99072, Note_on_c, 0, 76, 100
2, 99260, Note_off_c, 0, 76, 100
2, 99264, Note_on_c, 0, 69, 100
2, 99452, Note_off_c, 0, 69, 100
2, 99456, Note_on_c, 0, 73, 100
2, 99836, Note_off_c, 0, 73, 100
2, 99840, Note_on_c, 0, 71, 100
2, 99888, Note_on_c, 0, 73, 100
2, 99932, Note_off_c, 0, 71, 100
2, 99936, Note_on_c, 0, 71, 100
2, 99980, Note_off_c, 0, 73, 100
2, 99984, Note_on_c, 0, 73, 100
2, 100028, Note_off_c, 0, 71, 100
2, 100032, Note_on_c, 0, 71, 100
2, 100076, Note_off_c, 0, 73, 100
2, 100096, Note_on_c, 0, 69, 100
2, 100156, Note_off_c, 0, 71, 100
2, 100160, Note_on_c, 0, 71, 100
2, 100220, Note_off_c, 0, 69, 100
2, 100220, Note_off_c, 0, 71, 100
2, 100224, Note_on_c, 0, 71, 100
2, 100988, Note_off_c, 0, 71, 100
2, 100992, Note_on_c, 0, 69, 100
2, 101372, Note_off_c, 0, 69, 100
2, 101376, Note_on_c, 0, 64, 100
2, 101376, Note_on_c, 0, 74, 100
2, 101756, Note_off_c, 0, 64, 100
2, 101756, Note_off_c, 0, 74, 100
2, 101760, Note_on_c, 0, 64, 100
2, 101760, Note_on_c, 0, 74, 100
2, 102140, Note_off_c, 0, 64, 100
2, 102140, Note_off_c, 0, 74, 100
2, 102144, Note_on_c, 0, 64, 100
2, 102144, Note_on_c, 0, 74, 100
2, 102524, Note_off_c, 0, 64, 100
2, 102524, Note_off_c, 0, 74, 100
2, 102528, Note_on_c, 0, 74, 100
2, 102528, Note_on_c, 0, 64, 100
2, 102716, Note_off_c, 0, 74, 100
2, 102720, Note_on_c, 0, 73, 100
2, 102908, Note_off_c, 0, 64, 100
2, 102908, Note_off_c, 0, 73, 100
2, 102912, Note_on_c, 0, 64, 100
2, 102912, Note_on_c, 0, 73, 100
2, 103676, Note_off_c, 0, 64, 100
2, 103676, Note_off_c, 0, 73, 100
2, 103680, Note_on_c, 0, 79, 100
2, 103728, Note_on_c, 0, 80, 100
2, 103772, Note_off_c, 0, 79, 100
2, 104060, Note_off_c, 0, 80, 100
2, 104064, Note_on_c, 0, 80, 100
2, 104444, Note_off_c, 0, 80, 100
2, 104448, Note_on_c, 0, 80, 100
2, 104828, Note_off_c, 0, 80, 100
2, 104832, Note_on_c, 0, 80, 100
2, 104880, Note_on_c, 0, 81, 100
2, 104924, Note_off_c, 0, 80, 100
2, 105212, Note_off_c, 0, 81, 100
2, 105216, Note_on_c, 0, 69, 100
2, 105596, Note_off_c, 0, 69, 100
2, 105984, Note_on_c, 0, 75, 70
2, 106032, Note_on_c, 0, 76, 70
2, 106076, Note_off_c, 0, 75, 100
2, 106364, Note_off_c, 0, 76, 100
2, 106368, Note_on_c, 0, 81, 70
2, 106748, Note_off_c, 0, 81, 100
2, 106752, Note_on_c, 0, 78, 70
2, 106800, Note_on_c, 0, 80, 70
2, 106844, Note_off_c, 0, 78, 100
2, 106848, Note_on_c, 0, 78, 70
2, 106892, Note_off_c, 0, 80, 100
2, 106896, Note_on_c, 0, 80, 70
2, 106940, Note_off_c, 0, 78, 100
2, 106944, Note_on_c, 0, 78, 70
2, 106988, Note_off_c, 0, 80, 100
2, 107008, Note_on_c, 0, 76, 70
2, 107068, Note_off_c, 0, 78, 100
2, 107072, Note_on_c, 0, 78, 70
2, 107132, Note_off_c, 0, 76, 100
2, 107132, Note_off_c, 0, 78, 100
2, 107136, Note_on_c, 0, 76, 70
2, 107516, Note_off_c, 0, 76, 100
2, 107520, Note_on_c, 0, 81, 70
2, 107900, Note_off_c, 0, 81, 100
2, 107904, Note_on_c, 0, 78, 70
2, 107952, Note_on_c, 0, 80, 70
2, 107996, Note_off_c, 0, 78, 100
2, 108000, Note_on_c, 0, 78, 70
2, 108044, Note_off_c, 0, 80, 100
2, 108048, Note_on_c, 0, 80, 70
2, 108092, Note_off_c, 0, 78, 100
2, 108096, Note_on_c, 0, 78, 70
2, 108140, Note_off_c, 0, 80, 100
2, 108160, Note_on_c, 0, 76, 70
2, 108220, Note_off_c, 0, 78, 100
2, 108224, Note_on_c, 0, 78, 70
2, 108284, Note_off_c, 0, 76, 100
2, 108284, Note_off_c, 0, 78, 100
2, 108288, Note_on_c, 0, 76, 100
2, 108476, Note_off_c, 0, 76, 100
2, 108480, Note_on_c, 0, 69, 100
2, 108668, Note_off_c, 0, 69, 100
2, 108672, Note_on_c, 0, 73, 100
2, 109052, Note_off_c, 0, 73, 100
2, 109056, Note_on_c, 0, 71, 100
2, 109104, Note_on_c, 0, 73, 100
2, 109148, Note_off_c, 0, 71, 100
2, 109152, Note_on_c, 0, 71, 100
2, 109196, Note_off_c, 0, 73, 100
2, 109200, Note_on_c, 0, 73, 100
2, 109244, Note_off_c, 0, 71, 100
2, 109248, Note_on_c, 0, 71, 100
2, 109292, Note_off_c, 0, 73, 100
2, 109312, Note_on_c, 0, 69, 100
2, 109372, Note_off_c, 0, 71, 100
2, 109376, Note_on_c, 0, 71, 100
2, 109436, Note_off_c, 0, 69, 100
2, 109436, Note_off_c, 0, 71, 100
2, 109440, Note_on_c, 0, 71, 100
2, 110204, Note_off_c, 0, 71, 100
2, 110208, Note_on_c, 0, 69, 100
2, 110588, Note_off_c, 0, 69, 100
2, 110592, Note_on_c, 0, 73, 70
2, 110656, Note_on_c, 0, 76, 70
2, 110716, Note_off_c, 0, 73, 100
2, 110720, Note_on_c, 0, 68, 70
2, 110780, Note_off_c, 0, 76, 100
2, 110784, Note_on_c, 0, 73, 70
2, 110844, Note_off_c, 0, 68, 100
2, 110848, Note_on_c, 0, 76, 70
2, 110908, Note_off_c, 0, 73, 100
2, 110912, Note_on_c, 0, 68, 70
2, 110972, Note_off_c, 0, 76, 100
2, 110976, Note_on_c, 0, 78, 70
2, 111036, Note_off_c, 0, 68, 100
2, 111040, Note_on_c, 0, 81, 70
2, 111100, Note_off_c, 0, 78, 100
2, 111104, Note_on_c, 0, 69, 70
2, 111164, Note_off_c, 0, 81, 100
2, 111168, Note_on_c, 0, 78, 70
2, 111228, Note_off_c, 0, 69, 100
2, 111232, Note_on_c, 0, 81, 70
2, 111292, Note_off_c, 0, 78, 100
2, 111296, Note_on_c, 0, 69, 70
2, 111356, Note_off_c, 0, 81, 100
2, 111360, Note_on_c, 0, 74, 70
2, 111420, Note_off_c, 0, 69, 100
2, 111424, Note_on_c, 0, 78, 70
2, 111484, Note_off_c, 0, 74, 100
2, 111488, Note_on_c, 0, 69, 70
2, 111548, Note_off_c, 0, 78, 100
2, 111552, Note_on_c, 0, 74, 70
2, 111612, Note_off_c, 0, 69, 100
2, 111616, Note_on_c, 0, 78, 70
2, 111676, Note_off_c, 0, 74, 100
2, 111680, Note_on_c, 0, 69, 70
2, 111740, Note_off_c, 0, 78, 100
2, 111744, Note_on_c, 0, 73, 70
2, 111804, Note_off_c, 0, 69, 100
2, 111808, Note_on_c, 0, 76, 70
2, 111868, Note_off_c, 0, 73, 100
2, 111872, Note_on_c, 0, 68, 70
2, 111932, Note_off_c, 0, 76, 100
2, 111936, Note_on_c, 0, 73, 70
2, 111996, Note_off_c, 0, 68, 100
2, 112000, Note_on_c, 0, 76, 70
2, 112060, Note_off_c, 0, 73, 100
2, 112064, Note_on_c, 0, 68, 70
2, 112124, Note_off_c, 0, 76, 100
2, 112128, Note_on_c, 0, 78, 70
2, 112188, Note_off_c, 0, 68, 100
2, 112192, Note_on_c, 0, 81, 70
2, 112252, Note_off_c, 0, 78, 100
2, 112256, Note_on_c, 0, 69, 70
2, 112316, Note_off_c, 0, 81, 100
2, 112320, Note_on_c, 0, 78, 70
2, 112380, Note_off_c, 0, 69, 100
2, 112384, Note_on_c, 0, 81, 70
2, 112444, Note_off_c, 0, 78, 100
2, 112448, Note_on_c, 0, 69, 70
2, 112508, Note_off_c, 0, 81, 100
2, 112512, Note_on_c, 0, 74, 70
2, 112572, Note_off_c, 0, 69, 100
2, 112576, Note_on_c, 0, 78, 70
2, 112636, Note_off_c, 0, 74, 100
2, 112640, Note_on_c, 0, 69, 70
2, 112700, Note_off_c, 0, 78, 100
2, 112704, Note_on_c, 0, 74, 70
2, 112764, Note_off_c, 0, 69, 100
2, 112768, Note_on_c, 0, 78, 70
2, 112828, Note_off_c, 0, 74, 100
2, 112832, Note_on_c, 0, 69, 70
2, 112892, Note_off_c, 0, 78, 100
2, 112896, Note_on_c, 0, 73, 70
2, 112956, Note_off_c, 0, 69, 100
2, 112960, Note_on_c, 0, 76, 70
2, 113020, Note_off_c, 0, 73, 100
2, 113024, Note_on_c, 0, 64, 70
2, 113084, Note_off_c, 0, 76, 100
2, 113088, Note_on_c, 0, 73, 70
2, 113148, Note_off_c, 0, 64, 100
2, 113152, Note_on_c, 0, 76, 70
2, 113212, Note_off_c, 0, 73, 100
2, 113216, Note_on_c, 0, 64, 70
2, 113276, Note_off_c, 0, 76, 100
2, 113280, Note_on_c, 0, 71, 70
2, 113340, Note_off_c, 0, 64, 100
2, 113344, Note_on_c, 0, 74, 70
2, 113404, Note_off_c, 0, 71, 100
2, 113408, Note_on_c, 0, 64, 70
2, 113468, Note_off_c, 0, 74, 100
2, 113472, Note_on_c, 0, 71, 70
2, 113532, Note_off_c, 0, 64, 100
2, 113536, Note_on_c, 0, 74, 70
2, 113596, Note_off_c, 0, 71, 100
2, 113600, Note_on_c, 0, 64, 70
2, 113660, Note_off_c, 0, 74, 100
2, 113664, Note_on_c, 0, 69, 70
2, 113724, Note_off_c, 0, 64, 100
2, 113728, Note_on_c, 0, 73, 70
2, 113788, Note_off_c, 0, 69, 100
2, 113792, Note_on_c, 0, 64, 70
2, 113852, Note_off_c, 0, 73, 100
2, 113856, Note_on_c, 0, 69, 70
2, 113916, Note_off_c, 0, 64, 100
2, 113920, Note_on_c, 0, 73, 70
2, 113980, Note_off_c, 0, 69, 100
2, 113984, Note_on_c, 0, 64, 70
2, 114044, Note_off_c, 0, 73, 100
2, 114044, Note_off_c, 0, 64, 100
2, 114048, Note_on_c, 0, 68, 70
2, 114048, Note_on_c, 0, 71, 70
2, 114236, Note_off_c, 0, 68, 100
2, 114236, Note_off_c, 0, 71, 100
2, 115200, Note_on_c, 0, 73, 100
2, 115264, Note_on_c, 0, 76, 100
2, 115324, Note_off_c, 0, 73, 100
2, 115328, Note_on_c, 0, 68, 100
2, 115388, Note_off_c, 0, 76, 100
2, 115392, Note_on_c, 0, 73, 100
2, 115452, Note_off_c, 0, 68, 100
2, 115456, Note_on_c, 0, 76, 100
2, 115516, Note_off_c, 0, 73, 100
2, 115520, Note_on_c, 0, 68, 100
2, 115580, Note_off_c, 0, 76, 100
2, 115584, Note_on_c, 0, 78, 100
2, 115644, Note_off_c, 0, 68, 100
2, 115648, Note_on_c, 0, 81, 100
2, 115708, Note_off_c, 0, 78, 100
2, 115712, Note_on_c, 0, 69, 100
2, 115772, Note_off_c, 0, 81, 100
2, 115776, Note_on_c, 0, 78, 100
2, 115836, Note_off_c, 0, 69, 100
2, 115840, Note_on_c, 0, 81, 100
2, 115900, Note_off_c, 0, 78, 100
2, 115904, Note_on_c, 0, 69, 100
2, 115964, Note_off_c, 0, 81, 100
2, 115968, Note_on_c, 0, 74, 100
2, 116028, Note_off_c, 0, 69, 100
2, 116032, Note_on_c, 0, 78, 100
2, 116092, Note_off_c, 0, 74, 100
2, 116096, Note_on_c, 0, 69, 100
2, 116156, Note_off_c, 0, 78, 100
2, 116160, Note_on_c, 0, 74, 100
2, 116220, Note_off_c, 0, 69, 100
2, 116224, Note_on_c, 0, 78, 100
2, 116284, Note_off_c, 0, 74, 100
2, 116288, Note_on_c, 0, 69, 100
2, 116348, Note_off_c, 0, 78, 100
2, 116352, Note_on_c, 0, 73, 100
2, 116412, Note_off_c, 0, 69, 100
2, 116416, Note_on_c, 0, 76, 100
2, 116476, Note_off_c, 0, 73, 100
2, 116480, Note_on_c, 0, 68, 100
2, 116540, Note_off_c, 0, 76, 100
2, 116544, Note_on_c, 0, 73, 100
2, 116604, Note_off_c, 0, 68, 100
2, 116608, Note_on_c, 0, 76, 100
2, 116668, Note_off_c, 0, 73, 100
2, 116672, Note_on_c, 0, 68, 100
2, 116732, Note_off_c, 0, 76, 100
2, 116736, Note_on_c, 0, 78, 100
2, 116796, Note_off_c, 0, 68, 100
2, 116800, Note_on_c, 0, 81, 100
2, 116860, Note_off_c, 0, 78, 100
2, 116864, Note_on_c, 0, 69, 100
2, 116924, Note_off_c, 0, 81, 100
2, 116928, Note_on_c, 0, 78, 100
2, 116988, Note_off_c, 0, 69, 100
2, 116992, Note_on_c, 0, 81, 100
2, 117052, Note_off_c, 0, 78, 100
2, 117056, Note_on_c, 0, 69, 100
2, 117116, Note_off_c, 0, 81, 100
2, 117120, Note_on_c, 0, 74, 100
2, 117180, Note_off_c, 0, 69, 100
2, 117184, Note_on_c, 0, 78, 100
2, 117244, Note_off_c, 0, 74, 100
2, 117248, Note_on_c, 0, 69, 100
2, 117308, Note_off_c, 0, 78, 100
2, 117312, Note_on_c, 0, 74, 100
2, 117372, Note_off_c, 0, 69, 100
2, 117376, Note_on_c, 0, 78, 100
2, 117436, Note_off_c, 0, 74, 100
2, 117440, Note_on_c, 0, 69, 100
2, 117500, Note_off_c, 0, 78, 100
2, 117504, Note_on_c, 0, 73, 100
2, 117564, Note_off_c, 0, 69, 100
2, 117568, Note_on_c, 0, 76, 100
2, 117628, Note_off_c, 0, 73, 100
2, 117632, Note_on_c, 0, 68, 100
2, 117692, Note_off_c, 0, 76, 100
2, 117696, Note_on_c, 0, 69, 100
2, 117756, Note_off_c, 0, 68, 100
2, 117760, Note_on_c, 0, 73, 100
2, 117820, Note_off_c, 0, 69, 100
2, 117824, Note_on_c, 0, 61, 100
2, 117884, Note_off_c, 0, 73, 100
2, 117888, Note_on_c, 0, 73, 100
2, 117948, Note_off_c, 0, 61, 100
2, 117952, Note_on_c, 0, 76, 100
2, 118012, Note_off_c, 0, 73, 100
2, 118016, Note_on_c, 0, 64, 100
2, 118076, Note_off_c, 0, 76, 100
2, 118080, Note_on_c, 0, 71, 100
2, 118140, Note_off_c, 0, 64, 100
2, 118144, Note_on_c, 0, 74, 100
2, 118204, Note_off_c, 0, 71, 100
2, 118208, Note_on_c, 0, 62, 100
2, 118268, Note_off_c, 0, 74, 100
2, 118272, Note_on_c, 0, 69, 100
2, 118332, Note_off_c, 0, 62, 100
2, 118336, Note_on_c, 0, 73, 100
2, 118396, Note_off_c, 0, 69, 100
2, 118400, Note_on_c, 0, 61, 100
2, 118460, Note_off_c, 0, 73, 100
2, 118464, Note_on_c, 0, 68, 100
2, 118524, Note_off_c, 0, 61, 100
2, 118528, Note_on_c, 0, 71, 100
2, 118588, Note_off_c, 0, 68, 100
2, 118592, Note_on_c, 0, 59, 100
2, 118652, Note_off_c, 0, 71, 100
2, 118652, Note_off_c, 0, 59, 100
2, 118656, Note_on_c, 0, 61, 100
2, 118656, Note_on_c, 0, 69, 100
2, 118844, Note_off_c, 0, 61, 100
2, 118844, Note_off_c, 0, 69, 100
2, 119808, Note_on_c, 0, 73, 70
2, 119872, Note_on_c, 0, 76, 70
2, 119932, Note_off_c, 0, 73, 100
2, 119936, Note_on_c, 0, 68, 70
2, 119996, Note_off_c, 0, 76, 100
2, 120000, Note_on_c, 0, 73, 70
2, 120060, Note_off_c, 0, 68, 100
2, 120064, Note_on_c, 0, 76, 70
2, 120124, Note_off_c, 0, 73, 100
2, 120128, Note_on_c, 0, 68, 70
2, 120188, Note_off_c, 0, 76, 100
2, 120192, Note_on_c, 0, 78, 70
2, 120252, Note_off_c, 0, 68, 100
2, 120256, Note_on_c, 0, 81, 70
2, 120316, Note_off_c, 0, 78, 100
2, 120320, Note_on_c, 0, 69, 70
2, 120380, Note_off_c, 0, 81, 100
2, 120384, Note_on_c, 0, 78, 70
2, 120444, Note_off_c, 0, 69, 100
2, 120448, Note_on_c, 0, 81, 70
2, 120508, Note_off_c, 0, 78, 100
2, 120512, Note_on_c, 0, 69, 70
2, 120572, Note_off_c, 0, 81, 100
2, 120576, Note_on_c, 0, 74, 70
2, 120636, Note_off_c, 0, 69, 100
2, 120640, Note_on_c, 0, 78, 70
2, 120700, Note_off_c, 0, 74, 100
2, 120704, Note_on_c, 0, 69, 70
2, 120764, Note_off_c, 0, 78, 100
2, 120768, Note_on_c, 0, 74, 70
2, 120828, Note_off_c, 0, 69, 100
2, 120832, Note_on_c, 0, 78, 70
2, 120892, Note_off_c, 0, 74, 100
2, 120896, Note_on_c, 0, 69, 70
2, 120956, Note_off_c, 0, 78, 100
2, 120960, Note_on_c, 0, 73, 70
2, 121020, Note_off_c, 0, 69, 100
2, 121024, Note_on_c, 0, 76, 70
2, 121084, Note_off_c, 0, 73, 100
2, 121088, Note_on_c, 0, 68, 70
2, 121148, Note_off_c, 0, 76, 100
2, 121152, Note_on_c, 0, 73, 70
2, 121212, Note_off_c, 0, 68, 100
2, 121216, Note_on_c, 0, 76, 70
2, 121276, Note_off_c, 0, 73, 100
2, 121280, Note_on_c, 0, 68, 70
2, 121340, Note_off_c, 0, 76, 100
2, 121344, Note_on_c, 0, 78, 70
2, 121404, Note_off_c, 0, 68, 100
2, 121408, Note_on_c, 0, 81, 70
2, 121468, Note_off_c, 0, 78, 100
2, 121472, Note_on_c, 0, 69, 70
2, 121532, Note_off_c, 0, 81, 100
2, 121536, Note_on_c, 0, 78, 70
2, 121596, Note_off_c, 0, 69, 100
2, 121600, Note_on_c, 0, 81, 70
2, 121660, Note_off_c, 0, 78, 100
2, 121664, Note_on_c, 0, 69, 70
2, 121724, Note_off_c, 0, 81, 100
2, 121728, Note_on_c, 0, 74, 70
2, 121788, Note_off_c, 0, 69, 100
2, 121792, Note_on_c, 0, 78, 70
2, 121852, Note_off_c, 0, 74, 100
2, 121856, Note_on_c, 0, 69, 70
2, 121916, Note_off_c, 0, 78, 100
2, 121920, Note_on_c, 0, 74, 70
2, 121980, Note_off_c, 0, 69, 100
2, 121984, Note_on_c, 0, 78, 70
2, 122044, Note_off_c, 0, 74, 100
2, 122048, Note_on_c, 0, 69, 70
2, 122108, Note_off_c, 0, 78, 100
2, 122112, Note_on_c, 0, 73, 70
2, 122172, Note_off_c, 0, 69, 100
2, 122176, Note_on_c, 0, 76, 70
2, 122236, Note_off_c, 0, 73, 100
2, 122240, Note_on_c, 0, 64, 70
2, 122300, Note_off_c, 0, 76, 100
2, 122304, Note_on_c, 0, 73, 70
2, 122364, Note_off_c, 0, 64, 100
2, 122368, Note_on_c, 0, 76, 70
2, 122428, Note_off_c, 0, 73, 100
2, 122432, Note_on_c, 0, 64, 70
2, 122492, Note_off_c, 0, 76, 100
2, 122496, Note_on_c, 0, 71, 70
2, 122556, Note_off_c, 0, 64, 100
2, 122560, Note_on_c, 0, 74, 70
2, 122620, Note_off_c, 0, 71, 100
2, 122624, Note_on_c, 0, 64, 70
2, 122684, Note_off_c, 0, 74, 100
2, 122688, Note_on_c, 0, 71, 70
2, 122748, Note_off_c, 0, 64, 100
2, 122752, Note_on_c, 0, 74, 70
2, 122812, Note_off_c, 0, 71, 100
2, 122816, Note_on_c, 0, 64, 70
2, 122876, Note_off_c, 0, 74, 100
2, 122880, Note_on_c, 0, 69, 70
2, 122940, Note_off_c, 0, 64, 100
2, 122944, Note_on_c, 0, 73, 70
2, 123004, Note_off_c, 0, 69, 100
2, 123008, Note_on_c, 0, 64, 70
2, 123068, Note_off_c, 0, 73, 100
2, 123072, Note_on_c, 0, 69, 70
2, 123132, Note_off_c, 0, 64, 100
2, 123136, Note_on_c, 0, 73, 70
2, 123196, Note_off_c, 0, 69, 100
2, 123200, Note_on_c, 0, 64, 70
2, 123260, Note_off_c, 0, 73, 100
2, 123260, Note_off_c, 0, 64, 100
2, 123264, Note_on_c, 0, 68, 70
2, 123264, Note_on_c, 0, 71, 70
2, 123452, Note_off_c, 0, 68, 100
2, 123452, Note_off_c, 0, 71, 100
2, 124416, Note_on_c, 0, 73, 100
2, 124480, Note_on_c, 0, 76, 100
2, 124540, Note_off_c, 0, 73, 100
2, 124544, Note_on_c, 0, 68, 100
2, 124604, Note_off_c, 0, 76, 100
2, 124608, Note_on_c, 0, 73, 100
2, 124668, Note_off_c, 0, 68, 100
2, 124672, Note_on_c, 0, 76, 100
2, 124732, Note_off_c, 0, 73, 100
2, 124736, Note_on_c, 0, 68, 100
2, 124796, Note_off_c, 0, 76, 100
2, 124800, Note_on_c, 0, 78, 100
2, 124860, Note_off_c, 0, 68, 100
2, 124864, Note_on_c, 0, 81, 100
2, 124924, Note_off_c, 0, 78, 100
2, 124928, Note_on_c, 0, 69, 100
2, 124988, Note_off_c, 0, 81, 100
2, 124992, Note_on_c, 0, 78, 100
2, 125052, Note_off_c, 0, 69, 100
2, 125056, Note_on_c, 0, 81, 100
2, 125116, Note_off_c, 0, 78, 100
2, 125120, Note_on_c, 0, 69, 100
2, 125180, Note_off_c, 0, 81, 100
2, 125184, Note_on_c, 0, 74, 100
2, 125244, Note_off_c, 0, 69, 100
2, 125248, Note_on_c, 0, 78, 100
2, 125308, Note_off_c, 0, 74, 100
2, 125312, Note_on_c, 0, 69, 100
2, 125372, Note_off_c, 0, 78, 100
2, 125376, Note_on_c, 0, 74, 100
2, 125436, Note_off_c, 0, 69, 100
2, 125440, Note_on_c, 0, 78, 100
2, 125500, Note_off_c, 0, 74, 100
2, 125504, Note_on_c, 0, 69, 100
2, 125564, Note_off_c, 0, 78, 100
2, 125568, Note_on_c, 0, 73, 100
2, 125628, Note_off_c, 0, 69, 100
2, 125632, Note_on_c, 0, 76, 100
2, 125692, Note_off_c, 0, 73, 100
2, 125696, Note_on_c, 0, 68, 100
2, 125756, Note_off_c, 0, 76, 100
2, 125760, Note_on_c, 0, 73, 100
2, 125820, Note_off_c, 0, 68, 100
2, 125824, Note_on_c, 0, 76, 100
2, 125884, Note_off_c, 0, 73, 100
2, 125888, Note_on_c, 0, 68, 100
2, 125948, Note_off_c, 0, 76, 100
2, 125952, Note_on_c, 0, 78, 100
2, 126012, Note_off_c, 0, 68, 100
2, 126016, Note_on_c, 0, 81, 100
2, 126076, Note_off_c, 0, 78, 100
2, 126080, Note_on_c, 0, 69, 100
2, 126140, Note_off_c, 0, 81, 100
2, 126144, Note_on_c, 0, 78, 100
2, 126204, Note_off_c, 0, 69, 100
2, 126208, Note_on_c, 0, 81, 100
2, 126268, Note_off_c, 0, 78, 100
2, 126272, Note_on_c, 0, 69, 100
2, 126332, Note_off_c, 0, 81, 100
2, 126336, Note_on_c, 0, 74, 100
2, 126396, Note_off_c, 0, 69, 100
2, 126400, Note_on_c, 0, 78, 100
2, 126460, Note_off_c, 0, 74, 100
2, 126464, Note_on_c, 0, 69, 100
2, 126524, Note_off_c, 0, 78, 100
2, 126528, Note_on_c, 0, 74, 100
2, 126588, Note_off_c, 0, 69, 100
2, 126592, Note_on_c, 0, 78, 100
2, 126652, Note_off_c, 0, 74, 100
2, 126656, Note_on_c, 0, 69, 100
2, 126716, Note_off_c, 0, 78, 100
2, 126720, Note_on_c, 0, 73, 100
2, 126780, Note_off_c, 0, 69, 100
2, 126784, Note_on_c, 0, 76, 100
2, 126844, Note_off_c, 0, 73, 100
2, 126848, Note_on_c, 0, 68, 100
2, 126908, Note_off_c, 0, 76, 100
2, 126912, Note_on_c, 0, 69, 100
2, 126972, Note_off_c, 0, 68, 100
2, 126976, Note_on_c, 0, 73, 100
2, 127036, Note_off_c, 0, 69, 100
2, 127040, Note_on_c, 0, 61, 100
2, 127100, Note_off_c, 0, 73, 100
2, 127104, Note_on_c, 0, 73, 100
2, 127164, Note_off_c, 0, 61, 100
2, 127168, Note_on_c, 0, 76, 100
2, 127228, Note_off_c, 0, 73, 100
2, 127232, Note_on_c, 0, 64, 100
2, 127292, Note_off_c, 0, 76, 100
2, 127296, Note_on_c, 0, 71, 100
2, 127356, Note_off_c, 0, 64, 100
2, 127360, Note_on_c, 0, 74, 100
2, 127420, Note_off_c, 0, 71, 100
2, 127424, Note_on_c, 0, 62, 100
2, 127484, Note_off_c, 0, 74, 100
2, 127488, Note_on_c, 0, 69, 100
2, 127548, Note_off_c, 0, 62, 100
2, 127552, Note_on_c, 0, 73, 100
2, 127612, Note_off_c, 0, 69, 100
2, 127616, Note_on_c, 0, 61, 100
2, 127676, Note_off_c, 0, 73, 100
2, 127680, Note_on_c, 0, 68, 100
2, 127740, Note_off_c, 0, 61, 100
2, 127744, Note_on_c, 0, 71, 100
2, 127804, Note_off_c, 0, 68, 100
2, 127808, Note_on_c, 0, 59, 100
2, 127868, Note_off_c, 0, 71, 100
2, 127868, Note_off_c, 0, 59, 100
2, 127872, Note_on_c, 0, 61, 100
2, 127872, Note_on_c, 0, 69, 100
2, 128060, Note_off_c, 0, 61, 100
2, 128060, Note_off_c, 0, 69, 100
2, 129024, Note_on_c, 0, 64, 100
2, 129024, Note_on_c, 0, 74, 100
2, 129024, Note_on_c, 0, 71, 100
2, 129212, Note_off_c, 0, 64, 100
2, 129212, Note_off_c, 0, 74, 100
2, 129212, Note_off_c, 0, 71, 100
2, 129216, Note_on_c, 0, 64, 100
2, 129280, Note_on_c, 0, 71, 100
2, 129340, Note_off_c, 0, 64, 100
2, 129344, Note_on_c, 0, 74, 100
2, 129404, Note_off_c, 0, 71, 100
2, 129408, Note_on_c, 0, 71, 100
2, 129468, Note_off_c, 0, 74, 100
2, 129472, Note_on_c, 0, 74, 100
2, 129532, Note_off_c, 0, 71, 100
2, 129536, Note_on_c, 0, 80, 100
2, 129596, Note_off_c, 0, 74, 100
2, 129600, Note_on_c, 0, 74, 100
2, 129660, Note_off_c, 0, 80, 100
2, 129664, Note_on_c, 0, 80, 100
2, 129724, Note_off_c, 0, 74, 100
2, 129728, Note_on_c, 0, 83, 100
2, 129788, Note_off_c, 0, 80, 100
2, 129792, Note_on_c, 0, 86, 100
2, 129852, Note_off_c, 0, 83, 100
2, 129856, Note_on_c, 0, 83, 100
2, 129916, Note_off_c, 0, 86, 100
2, 129920, Note_on_c, 0, 80, 100
2, 129980, Note_off_c, 0, 83, 100
2, 129984, Note_on_c, 0, 76, 100
2, 130044, Note_off_c, 0, 80, 100
2, 130048, Note_on_c, 0, 78, 100
2, 130108, Note_off_c, 0, 76, 100
2, 130112, Note_on_c, 0, 74, 100
2, 130172, Note_off_c, 0, 78, 100
2, 130172, Note_off_c, 0, 74, 100
2, 130176, Note_on_c, 0, 73, 100
2, 130240, Note_on_c, 0, 76, 100
2, 130300, Note_off_c, 0, 73, 100
2, 130304, Note_on_c, 0, 74, 100
2, 130364, Note_off_c, 0, 76, 100
2, 130368, Note_on_c, 0, 73, 100
2, 130428, Note_off_c, 0, 74, 100
2, 130432, Note_on_c, 0, 71, 100
2, 130492, Note_off_c, 0, 73, 100
2, 130496, Note_on_c, 0, 69, 100
2, 130556, Note_off_c, 0, 71, 100
2, 130560, Note_on_c, 0, 81, 100
2, 130620, Note_off_c, 0, 69, 100
2, 130624, Note_on_c, 0, 76, 100
2, 130684, Note_off_c, 0, 81, 100
2, 130688, Note_on_c, 0, 75, 100
2, 130748, Note_off_c, 0, 76, 100
2, 130752, Note_on_c, 0, 76, 100
2, 130812, Note_off_c, 0, 75, 100
2, 130816, Note_on_c, 0, 75, 100
2, 130876, Note_off_c, 0, 76, 100
2, 130880, Note_on_c, 0, 76, 100
2, 130940, Note_off_c, 0, 75, 100
2, 130944, Note_on_c, 0, 73, 100
2, 131004, Note_off_c, 0, 76, 100
2, 131008, Note_on_c, 0, 76, 100
2, 131068, Note_off_c, 0, 73, 100
2, 131072, Note_on_c, 0, 74, 100
2, 131132, Note_off_c, 0, 76, 100
2, 131136, Note_on_c, 0, 73, 100
2, 131196, Note_off_c, 0, 74, 100
2, 131200, Note_on_c, 0, 71, 100
2, 131260, Note_off_c, 0, 73, 100
2, 131264, Note_on_c, 0, 69, 100
2, 131324, Note_off_c, 0, 71, 100
2, 131324, Note_off_c, 0, 69, 100
2, 131328, Note_on_c, 0, 68, 100
2, 131516, Note_off_c, 0, 68, 100
2, 131520, Note_on_c, 0, 64, 100
2, 131584, Note_on_c, 0, 68, 100
2, 131644, Note_off_c, 0, 64, 100
2, 131648, Note_on_c, 0, 71, 100
2, 131708, Note_off_c, 0, 68, 100
2, 131712, Note_on_c, 0, 68, 100
2, 131772, Note_off_c, 0, 71, 100
2, 131776, Note_on_c, 0, 71, 100
2, 131836, Note_off_c, 0, 68, 100
2, 131840, Note_on_c, 0, 74, 100
2, 131900, Note_off_c, 0, 71, 100
2, 131904, Note_on_c, 0, 71, 100
2, 131964, Note_off_c, 0, 74, 100
2, 131968, Note_on_c, 0, 74, 100
2, 132028, Note_off_c, 0, 71, 100
2, 132032, Note_on_c, 0, 80, 100
2, 132092, Note_off_c, 0, 74, 100
2, 132096, Note_on_c, 0, 83, 100
2, 132156, Note_off_c, 0, 80, 100
2, 132160, Note_on_c, 0, 81, 100
2, 132220, Note_off_c, 0, 83, 100
2, 132224, Note_on_c, 0, 80, 100
2, 132284, Note_off_c, 0, 81, 100
2, 132288, Note_on_c, 0, 78, 100
2, 132348, Note_off_c, 0, 80, 100
2, 132352, Note_on_c, 0, 76, 100
2, 132412, Note_off_c, 0, 78, 100
2, 132416, Note_on_c, 0, 74, 100
2, 132476, Note_off_c, 0, 76, 100
2, 132476, Note_off_c, 0, 74, 100
2, 132480, Note_on_c, 0, 73, 100
2, 132544, Note_on_c, 0, 76, 100
2, 132604, Note_off_c, 0, 73, 100
2, 132608, Note_on_c, 0, 74, 100
2, 132668, Note_off_c, 0, 76, 100
2, 132672, Note_on_c, 0, 73, 100
2, 132732, Note_off_c, 0, 74, 100
2, 132736, Note_on_c, 0, 74, 100
2, 132796, Note_off_c, 0, 73, 100
2, 132800, Note_on_c, 0, 71, 100
2, 132860, Note_off_c, 0, 74, 100
2, 132864, Note_on_c, 0, 69, 100
2, 132924, Note_off_c, 0, 71, 100
2, 132928, Note_on_c, 0, 68, 100
2, 132988, Note_off_c, 0, 69, 100
2, 132992, Note_on_c, 0, 69, 100
2, 133052, Note_off_c, 0, 68, 100
2, 133056, Note_on_c, 0, 64, 100
2, 133116, Note_off_c, 0, 69, 100
2, 133120, Note_on_c, 0, 63, 100
2, 133180, Note_off_c, 0, 64, 100
2, 133184, Note_on_c, 0, 64, 100
2, 133244, Note_off_c, 0, 63, 100
2, 133248, Note_on_c, 0, 61, 100
2, 133308, Note_off_c, 0, 64, 100
2, 133312, Note_on_c, 0, 60, 100
2, 133372, Note_off_c, 0, 61, 100
2, 133376, Note_on_c, 0, 61, 100
2, 133436, Note_off_c, 0, 60, 100
2, 133440, Note_on_c, 0, 57, 100
2, 133500, Note_off_c, 0, 61, 100
2, 133504, Note_on_c, 0, 56, 92
2, 133564, Note_off_c, 0, 57, 100
2, 133568, Note_on_c, 0, 57, 81
2, 133628, Note_off_c, 0, 56, 100
2, 133628, Note_off_c, 0, 57, 100
2, 133632, Note_on_c, 0, 73, 70
2, 133696, Note_on_c, 0, 76, 70
2, 133756, Note_off_c, 0, 73, 100
2, 133760, Note_on_c, 0, 68, 70
2, 133820, Note_off_c, 0, 76, 100
2, 133824, Note_on_c, 0, 73, 70
2, 133884, Note_off_c, 0, 68, 100
2, 133888, Note_on_c, 0, 76, 70
2, 133948, Note_off_c, 0, 73, 100
2, 133952, Note_on_c, 0, 68, 70
2, 134012, Note_off_c, 0, 76, 100
2, 134016, Note_on_c, 0, 78, 70
2, 134076, Note_off_c, 0, 68, 100
2, 134080, Note_on_c, 0, 81, 70
2, 134140, Note_off_c, 0, 78, 100
2, 134144, Note_on_c, 0, 69, 70
2, 134204, Note_off_c, 0, 81, 100
2, 134208, Note_on_c, 0, 78, 70
2, 134268, Note_off_c, 0, 69, 100
2, 134272, Note_on_c, 0, 81, 70
2, 134332, Note_off_c, 0, 78, 100
2, 134336, Note_on_c, 0, 69, 70
2, 134396, Note_off_c, 0, 81, 100
2, 134400, Note_on_c, 0, 74, 70
2, 134460, Note_off_c, 0, 69, 100
2, 134464, Note_on_c, 0, 78, 70
2, 134524, Note_off_c, 0, 74, 100
2, 134528, Note_on_c, 0, 69, 70
2, 134588, Note_off_c, 0, 78, 100
2, 134592, Note_on_c, 0, 74, 70
2, 134652, Note_off_c, 0, 69, 100
2, 134656, Note_on_c, 0, 78, 70
2, 134716, Note_off_c, 0, 74, 100
2, 134720, Note_on_c, 0, 69, 70
2, 134780, Note_off_c, 0, 78, 100
2, 134784, Note_on_c, 0, 73, 70
2, 134844, Note_off_c, 0, 69, 100
2, 134848, Note_on_c, 0, 76, 70
2, 134908, Note_off_c, 0, 73, 100
2, 134912, Note_on_c, 0, 68, 70
2, 134972, Note_off_c, 0, 76, 100
2, 134976, Note_on_c, 0, 73, 70
2, 135036, Note_off_c, 0, 68, 100
2, 135040, Note_on_c, 0, 76, 70
2, 135100, Note_off_c, 0, 73, 100
2, 135104, Note_on_c, 0, 68, 70
2, 135164, Note_off_c, 0, 76, 100
2, 135168, Note_on_c, 0, 78, 70
2, 135228, Note_off_c, 0, 68, 100
2, 135232, Note_on_c, 0, 81, 70
2, 135292, Note_off_c, 0, 78, 100
2, 135296, Note_on_c, 0, 69, 70
2, 135356, Note_off_c, 0, 81, 100
2, 135360, Note_on_c, 0, 78, 70
2, 135420, Note_off_c, 0, 69, 100
2, 135424, Note_on_c, 0, 81, 70
2, 135484, Note_off_c, 0, 78, 100
2, 135488, Note_on_c, 0, 69, 70
2, 135548, Note_off_c, 0, 81, 100
2, 135552, Note_on_c, 0, 74, 70
2, 135612, Note_off_c, 0, 69, 100
2, 135616, Note_on_c, 0, 78, 70
2, 135676, Note_off_c, 0, 74, 100
2, 135680, Note_on_c, 0, 69, 70
2, 135740, Note_off_c, 0, 78, 100
2, 135744, Note_on_c, 0, 74, 70
2, 135804, Note_off_c, 0, 69, 100
2, 135808, Note_on_c, 0, 78, 70
2, 135868, Note_off_c, 0, 74, 100
2, 135872, Note_on_c, 0, 69, 70
2, 135932, Note_off_c, 0, 78, 100
2, 135936, Note_on_c, 0, 73, 100
2, 135996, Note_off_c, 0, 69, 100
2, 136000, Note_on_c, 0, 76, 100
2, 136060, Note_off_c, 0, 73, 100
2, 136064, Note_on_c, 0, 68, 100
2, 136124, Note_off_c, 0, 76, 100
2, 136128, Note_on_c, 0, 69, 100
2, 136188, Note_off_c, 0, 68, 100
2, 136192, Note_on_c, 0, 73, 100
2, 136252, Note_off_c, 0, 69, 100
2, 136256, Note_on_c, 0, 61, 100
2, 136316, Note_off_c, 0, 73, 100
2, 136320, Note_on_c, 0, 73, 100
2, 136380, Note_off_c, 0, 61, 100
2, 136384, Note_on_c, 0, 76, 100
2, 136444, Note_off_c, 0, 73, 100
2, 136448, Note_on_c, 0, 64, 100
2, 136508, Note_off_c, 0, 76, 100
2, 136512, Note_on_c, 0, 71, 100
2, 136572, Note_off_c, 0, 64, 100
2, 136576, Note_on_c, 0, 64, 100
2, 136576, Note_on_c, 0, 74, 100
2, 136636, Note_off_c, 0, 71, 100
2, 136700, Note_off_c, 0, 64, 100
2, 136700, Note_off_c, 0, 74, 100
2, 136704, Note_on_c, 0, 69, 100
2, 136768, Note_on_c, 0, 73, 100
2, 136828, Note_off_c, 0, 69, 100
2, 136832, Note_on_c, 0, 64, 100
2, 136892, Note_off_c, 0, 73, 100
2, 136896, Note_on_c, 0, 68, 100
2, 136956, Note_off_c, 0, 64, 100
2, 136960, Note_on_c, 0, 71, 100
2, 137020, Note_off_c, 0, 68, 100
2, 137024, Note_on_c, 0, 64, 100
2, 137084, Note_off_c, 0, 71, 100
2, 137084, Note_off_c, 0, 64, 100
2, 137088, Note_on_c, 0, 61, 100
2, 137088, Note_on_c, 0, 69, 100
2, 137276, Note_off_c, 0, 61, 100
2, 137276, Note_off_c, 0, 69, 100
2, 138240, Note_on_c, 0, 64, 100
2, 138240, Note_on_c, 0, 74, 100
2, 138240, Note_on_c, 0, 71, 100
2, 138428, Note_off_c, 0, 64, 100
2, 138428, Note_off_c, 0, 74, 100
2, 138428, Note_off_c, 0, 71, 100
2, 138432, Note_on_c, 0, 64, 100
2, 138496, Note_on_c, 0, 71, 100
2, 138556, Note_off_c, 0, 64, 100
2, 138560, Note_on_c, 0, 74, 100
2, 138620, Note_off_c, 0, 71, 100
2, 138624, Note_on_c, 0, 71, 100
2, 138684, Note_off_c, 0, 74, 100
2, 138688, Note_on_c, 0, 74, 100
2, 138748, Note_off_c, 0, 71, 100
2, 138752, Note_on_c, 0, 80, 100
2, 138812, Note_off_c, 0, 74, 100
2, 138816, Note_on_c, 0, 74, 100
2, 138876, Note_off_c, 0, 80, 100
2, 138880, Note_on_c, 0, 80, 100
2, 138940, Note_off_c, 0, 74, 100
2, 138944, Note_on_c, 0, 83, 100
2, 139004, Note_off_c, 0, 80, 100
2, 139008, Note_on_c, 0, 86, 100
2, 139068, Note_off_c, 0, 83, 100
2, 139072, Note_on_c, 0, 83, 100
2, 139132, Note_off_c, 0, 86, 100
2, 139136, Note_on_c, 0, 80, 100
2, 139196, Note_off_c, 0, 83, 100
2, 139200, Note_on_c, 0, 76, 100
2, 139260, Note_off_c, 0, 80, 100
2, 139264, Note_on_c, 0, 78, 100
2, 139324, Note_off_c, 0, 76, 100
2, 139328, Note_on_c, 0, 74, 100
2, 139388, Note_off_c, 0, 78, 100
2, 139388, Note_off_c, 0, 74, 100
2, 139392, Note_on_c, 0, 73, 100
2, 139456, Note_on_c, 0, 76, 100
2, 139516, Note_off_c, 0, 73, 100
2, 139520, Note_on_c, 0, 74, 100
2, 139580, Note_off_c, 0, 76, 100
2, 139584, Note_on_c, 0, 73, 100
2, 139644, Note_off_c, 0, 74, 100
2, 139648, Note_on_c, 0, 71, 100
2, 139708, Note_off_c, 0, 73, 100
2, 139712, Note_on_c, 0, 69, 100
2, 139772, Note_off_c, 0, 71, 100
2, 139776, Note_on_c, 0, 81, 100
2, 139836, Note_off_c, 0, 69, 100
2, 139840, Note_on_c, 0, 76, 100
2, 139900, Note_off_c, 0, 81, 100
2, 139904, Note_on_c, 0, 75, 100
2, 139964, Note_off_c, 0, 76, 100
2, 139968, Note_on_c, 0, 76, 100
2, 140028, Note_off_c, 0, 75, 100
2, 140032, Note_on_c, 0, 75, 100
2, 140092, Note_off_c, 0, 76, 100
2, 140096, Note_on_c, 0, 76, 100
2, 140156, Note_off_c, 0, 75, 100
2, 140160, Note_on_c, 0, 73, 100
2, 140220, Note_off_c, 0, 76, 100
2, 140224, Note_on_c, 0, 76, 100
2, 140284, Note_off_c, 0, 73, 100
2, 140288, Note_on_c, 0, 74, 100
2, 140348, Note_off_c, 0, 76, 100
2, 140352, Note_on_c, 0, 73, 100
2, 140412, Note_off_c, 0, 74, 100
2, 140416, Note_on_c, 0, 71, 100
2, 140476, Note_off_c, 0, 73, 100
2, 140480, Note_on_c, 0, 69, 100
2, 140540, Note_off_c, 0, 71, 100
2, 140540, Note_off_c, 0, 69, 100
2, 140544, Note_on_c, 0, 68, 100
2, 140732, Note_off_c, 0, 68, 100
2, 140736, Note_on_c, 0, 64, 100
2, 140800, Note_on_c, 0, 68, 100
2, 140860, Note_off_c, 0, 64, 100
2, 140864, Note_on_c, 0, 71, 100
2, 140924, Note_off_c, 0, 68, 100
2, 140928, Note_on_c, 0, 68, 100
2, 140988, Note_off_c, 0, 71, 100
2, 140992, Note_on_c, 0, 71, 100
2, 141052, Note_off_c, 0, 68, 100
2, 141056, Note_on_c, 0, 74, 100
2, 141116, Note_off_c, 0, 71, 100
2, 141120, Note_on_c, 0, 71, 100
2, 141180, Note_off_c, 0, 74, 100
2, 141184, Note_on_c, 0, 74, 100
2, 141244, Note_off_c, 0, 71, 100
2, 141248, Note_on_c, 0, 80, 100
2, 141308, Note_off_c, 0, 74, 100
2, 141312, Note_on_c, 0, 83, 100
2, 141372, Note_off_c, 0, 80, 100
2, 141376, Note_on_c, 0, 81, 100
2, 141436, Note_off_c, 0, 83, 100
2, 141440, Note_on_c, 0, 80, 100
2, 141500, Note_off_c, 0, 81, 100
2, 141504, Note_on_c, 0, 78, 100
2, 141564, Note_off_c, 0, 80, 100
2, 141568, Note_on_c, 0, 76, 100
2, 141628, Note_off_c, 0, 78, 100
2, 141632, Note_on_c, 0, 74, 100
2, 141692, Note_off_c, 0, 76, 100
2, 141692, Note_off_c, 0, 74, 100
2, 141696, Note_on_c, 0, 73, 100
2, 141760, Note_on_c, 0, 76, 100
2, 141820, Note_off_c, 0, 73, 100
2, 141824, Note_on_c, 0, 74, 100
2, 141884, Note_off_c, 0, 76, 100
2, 141888, Note_on_c, 0, 73, 100
2, 141948, Note_off_c, 0, 74, 100
2, 141952, Note_on_c, 0, 74, 100
2, 142012, Note_off_c, 0, 73, 100
2, 142016, Note_on_c, 0, 71, 100
2, 142076, Note_off_c, 0, 74, 100
2, 142080, Note_on_c, 0, 69, 100
2, 142140, Note_off_c, 0, 71, 100
2, 142144, Note_on_c, 0, 68, 100
2, 142204, Note_off_c, 0, 69, 100
2, 142208, Note_on_c, 0, 69, 100
2, 142268, Note_off_c, 0, 68, 100
2, 142272, Note_on_c, 0, 64, 100
2, 142332, Note_off_c, 0, 69, 100
2, 142336, Note_on_c, 0, 63, 100
2, 142396, Note_off_c, 0, 64, 100
2, 142400, Note_on_c, 0, 64, 100
2, 142460, Note_off_c, 0, 63, 100
2, 142464, Note_on_c, 0, 61, 100
2, 142524, Note_off_c, 0, 64, 100
2, 142528, Note_on_c, 0, 60, 100
2, 142588, Note_off_c, 0, 61, 100
2, 142592, Note_on_c, 0, 61, 100
2, 142652, Note_off_c, 0, 60, 100
2, 142656, Note_on_c, 0, 57, 100
2, 142716, Note_off_c, 0, 61, 100
2, 142720, Note_on_c, 0, 56, 90
2, 142780, Note_off_c, 0, 57, 100
2, 142784, Note_on_c, 0, 57, 80
2, 142844, Note_off_c, 0, 56, 100
2, 142844, Note_off_c, 0, 57, 100
2, 142848, Note_on_c, 0, 73, 70
2, 142912, Note_on_c, 0, 76, 70
2, 142972, Note_off_c, 0, 73, 100
2, 142976, Note_on_c, 0, 68, 70
2, 143036, Note_off_c, 0, 76, 100
2, 143040, Note_on_c, 0, 73, 70
2, 143100, Note_off_c, 0, 68, 100
2, 143104, Note_on_c, 0, 76, 70
2, 143164, Note_off_c, 0, 73, 100
2, 143168, Note_on_c, 0, 68, 70
2, 143228, Note_off_c, 0, 76, 100
2, 143232, Note_on_c, 0, 78, 70
2, 143292, Note_off_c, 0, 68, 100
2, 143296, Note_on_c, 0, 81, 70
2, 143356, Note_off_c, 0, 78, 100
2, 143360, Note_on_c, 0, 69, 70
2, 143420, Note_off_c, 0, 81, 100
2, 143424, Note_on_c, 0, 78, 70
2, 143484, Note_off_c, 0, 69, 100
2, 143488, Note_on_c, 0, 81, 70
2, 143548, Note_off_c, 0, 78, 100
2, 143552, Note_on_c, 0, 69, 70
2, 143612, Note_off_c, 0, 81, 100
2, 143616, Note_on_c, 0, 74, 70
2, 143676, Note_off_c, 0, 69, 100
2, 143680, Note_on_c, 0, 78, 70
2, 143740, Note_off_c, 0, 74, 100
2, 143744, Note_on_c, 0, 69, 70
2, 143804, Note_off_c, 0, 78, 100
2, 143808, Note_on_c, 0, 74, 70
2, 143868, Note_off_c, 0, 69, 100
2, 143872, Note_on_c, 0, 78, 70
2, 143932, Note_off_c, 0, 74, 100
2, 143936, Note_on_c, 0, 69, 70
2, 143996, Note_off_c, 0, 78, 100
2, 144000, Note_on_c, 0, 73, 70
2, 144060, Note_off_c, 0, 69, 100
2, 144064, Note_on_c, 0, 76, 70
2, 144124, Note_off_c, 0, 73, 100
2, 144128, Note_on_c, 0, 68, 70
2, 144188, Note_off_c, 0, 76, 100
2, 144192, Note_on_c, 0, 73, 70
2, 144252, Note_off_c, 0, 68, 100
2, 144256, Note_on_c, 0, 76, 70
2, 144316, Note_off_c, 0, 73, 100
2, 144320, Note_on_c, 0, 68, 70
2, 144380, Note_off_c, 0, 76, 100
2, 144384, Note_on_c, 0, 78, 70
2, 144444, Note_off_c, 0, 68, 100
2, 144448, Note_on_c, 0, 81, 70
2, 144508, Note_off_c, 0, 78, 100
2, 144512, Note_on_c, 0, 69, 70
2, 144572, Note_off_c, 0, 81, 100
2, 144576, Note_on_c, 0, 78, 70
2, 144636, Note_off_c, 0, 69, 100
2, 144640, Note_on_c, 0, 81, 70
2, 144700, Note_off_c, 0, 78, 100
2, 144704, Note_on_c, 0, 69, 70
2, 144764, Note_off_c, 0, 81, 100
2, 144768, Note_on_c, 0, 74, 70
2, 144828, Note_off_c, 0, 69, 100
2, 144832, Note_on_c, 0, 78, 70
2, 144892, Note_off_c, 0, 74, 100
2, 144896, Note_on_c, 0, 69, 70
2, 144956, Note_off_c, 0, 78, 100
2, 144960, Note_on_c, 0, 74, 70
2, 145020, Note_off_c, 0, 69, 100
2, 145024, Note_on_c, 0, 78, 70
2, 145084, Note_off_c, 0, 74, 100
2, 145088, Note_on_c, 0, 69, 70
2, 145148, Note_off_c, 0, 78, 100
2, 145152, Note_on_c, 0, 73, 100
2, 145212, Note_off_c, 0, 69, 100
2, 145216, Note_on_c, 0, 76, 100
2, 145276, Note_off_c, 0, 73, 100
2, 145280, Note_on_c, 0, 68, 100
2, 145340, Note_off_c, 0, 76, 100
2, 145344, Note_on_c, 0, 69, 100
2, 145404, Note_off_c, 0, 68, 100
2, 145408, Note_on_c, 0, 73, 100
2, 145468, Note_off_c, 0, 69, 100
2, 145472, Note_on_c, 0, 61, 100
2, 145532, Note_off_c, 0, 73, 100
2, 145536, Note_on_c, 0, 73, 100
2, 145596, Note_off_c, 0, 61, 100
2, 145600, Note_on_c, 0, 76, 100
2, 145660, Note_off_c, 0, 73, 100
2, 145664, Note_on_c, 0, 64, 100
2, 145724, Note_off_c, 0, 76, 100
2, 145728, Note_on_c, 0, 71, 100
2, 145788, Note_off_c, 0, 64, 100
2, 145792, Note_on_c, 0, 64, 100
2, 145792, Note_on_c, 0, 74, 100
2, 145852, Note_off_c, 0, 71, 100
2, 145916, Note_off_c, 0, 64, 100
2, 145916, Note_off_c, 0, 74, 100
2, 145920, Note_on_c, 0, 69, 100
2, 145984, Note_on_c, 0, 73, 100
2, 146044, Note_off_c, 0, 69, 100
2, 146048, Note_on_c, 0, 64, 100
2, 146108, Note_off_c, 0, 73, 100
2, 146112, Note_on_c, 0, 68, 100
2, 146172, Note_off_c, 0, 64, 100
2, 146176, Note_on_c, 0, 71, 100
2, 146236, Note_off_c, 0, 68, 100
2, 146240, Note_on_c, 0, 64, 100
2, 146300, Note_off_c, 0, 71, 100
2, 146300, Note_off_c, 0, 64, 100
2, 146304, Note_on_c, 0, 61, 100
2, 146304, Note_on_c, 0, 69, 100
2, 146492, Note_off_c, 0, 61, 100
2, 146492, Note_off_c, 0, 69, 100
2, 147456, Note_on_c, 0, 69, 70
2, 147504, Note_on_c, 0, 64, 70
2, 147548, Note_off_c, 0, 69, 100
2, 147552, Note_on_c, 0, 66, 70
2, 147596, Note_off_c, 0, 64, 100
2, 147600, Note_on_c, 0, 68, 70
2, 147644, Note_off_c, 0, 66, 100
2, 147648, Note_on_c, 0, 69, 70
2, 147692, Note_off_c, 0, 68, 100
2, 147696, Note_on_c, 0, 71, 70
2, 147740, Note_off_c, 0, 69, 100
2, 147744, Note_on_c, 0, 73, 70
2, 147788, Note_off_c, 0, 71, 100
2, 147792, Note_on_c, 0, 74, 70
2, 147836, Note_off_c, 0, 73, 100
2, 147840, Note_on_c, 0, 76, 70
2, 147884, Note_off_c, 0, 74, 100
2, 147888, Note_on_c, 0, 69, 70
2, 147932, Note_off_c, 0, 76, 100
2, 147936, Note_on_c, 0, 71, 70
2, 147980, Note_off_c, 0, 69, 100
2, 147984, Note_on_c, 0, 73, 70
2, 148028, Note_off_c, 0, 71, 100
2, 148032, Note_on_c, 0, 74, 70
2, 148076, Note_off_c, 0, 73, 100
2, 148080, Note_on_c, 0, 76, 70
2, 148124, Note_off_c, 0, 74, 100
2, 148128, Note_on_c, 0, 78, 70
2, 148172, Note_off_c, 0, 76, 100
2, 148176, Note_on_c, 0, 80, 70
2, 148220, Note_off_c, 0, 78, 100
2, 148224, Note_on_c, 0, 83, 70
2, 148268, Note_off_c, 0, 80, 100
2, 148272, Note_on_c, 0, 81, 70
2, 148316, Note_off_c, 0, 83, 100
2, 148320, Note_on_c, 0, 80, 70
2, 148364, Note_off_c, 0, 81, 100
2, 148368, Note_on_c, 0, 81, 70
2, 148412, Note_off_c, 0, 80, 100
2, 148416, Note_on_c, 0, 83, 70
2, 148460, Note_off_c, 0, 81, 100
2, 148464, Note_on_c, 0, 81, 70
2, 148508, Note_off_c, 0, 83, 100
2, 148512, Note_on_c, 0, 80, 70
2, 148556, Note_off_c, 0, 81, 100
2, 148560, Note_on_c, 0, 78, 70
2, 148604, Note_off_c, 0, 80, 100
2, 148604, Note_off_c, 0, 78, 100
2, 148608, Note_on_c, 0, 76, 70
2, 148656, Note_on_c, 0, 64, 70
2, 148700, Note_off_c, 0, 76, 100
2, 148704, Note_on_c, 0, 66, 70
2, 148748, Note_off_c, 0, 64, 100
2, 148752, Note_on_c, 0, 68, 70
2, 148796, Note_off_c, 0, 66, 100
2, 148800, Note_on_c, 0, 69, 70
2, 148844, Note_off_c, 0, 68, 100
2, 148848, Note_on_c, 0, 71, 70
2, 148892, Note_off_c, 0, 69, 100
2, 148896, Note_on_c, 0, 73, 70
2, 148940, Note_off_c, 0, 71, 100
2, 148944, Note_on_c, 0, 74, 70
2, 148988, Note_off_c, 0, 73, 100
2, 148992, Note_on_c, 0, 76, 70
2, 149036, Note_off_c, 0, 74, 100
2, 149040, Note_on_c, 0, 69, 70
2, 149084, Note_off_c, 0, 76, 100
2, 149088, Note_on_c, 0, 71, 70
2, 149132, Note_off_c, 0, 69, 100
2, 149136, Note_on_c, 0, 73, 70
2, 149180, Note_off_c, 0, 71, 100
2, 149184, Note_on_c, 0, 74, 70
2, 149228, Note_off_c, 0, 73, 100
2, 149232, Note_on_c, 0, 76, 70
2, 149276, Note_off_c, 0, 74, 100
2, 149280, Note_on_c, 0, 78, 70
2, 149324, Note_off_c, 0, 76, 100
2, 149328, Note_on_c, 0, 80, 70
2, 149372, Note_off_c, 0, 78, 100
2, 149376, Note_on_c, 0, 83, 70
2, 149420, Note_off_c, 0, 80, 100
2, 149424, Note_on_c, 0, 81, 70
2, 149468, Note_off_c, 0, 83, 100
2, 149472, Note_on_c, 0, 80, 70
2, 149516, Note_off_c, 0, 81, 100
2, 149520, Note_on_c, 0, 81, 70
2, 149564, Note_off_c, 0, 80, 100
2, 149568, Note_on_c, 0, 83, 70
2, 149612, Note_off_c, 0, 81, 100
2, 149616, Note_on_c, 0, 81, 70
2, 149660, Note_off_c, 0, 83, 100
2, 149664, Note_on_c, 0, 80, 70
2, 149708, Note_off_c, 0, 81, 100
2, 149712, Note_on_c, 0, 78, 70
2, 149756, Note_off_c, 0, 80, 100
2, 149756, Note_off_c, 0, 78, 100
2, 149760, Note_on_c, 0, 76, 70
2, 149808, Note_on_c, 0, 81, 70
2, 149852, Note_off_c, 0, 76, 100
2, 149856, Note_on_c, 0, 76, 70
2, 149900, Note_off_c, 0, 81, 100
2, 149904, Note_on_c, 0, 73, 70
2, 149948, Note_off_c, 0, 76, 100
2, 149952, Note_on_c, 0, 76, 70
2, 149996, Note_off_c, 0, 73, 100
2, 150000, Note_on_c, 0, 81, 70
2, 150044, Note_off_c, 0, 76, 100
2, 150048, Note_on_c, 0, 85, 70
2, 150092, Note_off_c, 0, 81, 100
2, 150096, Note_on_c, 0, 81, 70
2, 150140, Note_off_c, 0, 85, 100
2, 150144, Note_on_c, 0, 74, 70
2, 150188, Note_off_c, 0, 81, 100
2, 150192, Note_on_c, 0, 76, 70
2, 150236, Note_off_c, 0, 74, 100
2, 150240, Note_on_c, 0, 74, 70
2, 150284, Note_off_c, 0, 76, 100
2, 150288, Note_on_c, 0, 71, 70
2, 150332, Note_off_c, 0, 74, 100
2, 150336, Note_on_c, 0, 74, 70
2, 150380, Note_off_c, 0, 71, 100
2, 150384, Note_on_c, 0, 76, 70
2, 150428, Note_off_c, 0, 74, 100
2, 150432, Note_on_c, 0, 83, 70
2, 150476, Note_off_c, 0, 76, 100
2, 150480, Note_on_c, 0, 76, 70
2, 150524, Note_off_c, 0, 83, 100
2, 150528, Note_on_c, 0, 73, 70
2, 150572, Note_off_c, 0, 76, 100
2, 150576, Note_on_c, 0, 76, 70
2, 150620, Note_off_c, 0, 73, 100
2, 150624, Note_on_c, 0, 73, 70
2, 150668, Note_off_c, 0, 76, 100
2, 150672, Note_on_c, 0, 69, 70
2, 150716, Note_off_c, 0, 73, 100
2, 150720, Note_on_c, 0, 73, 70
2, 150764, Note_off_c, 0, 69, 100
2, 150768, Note_on_c, 0, 76, 70
2, 150812, Note_off_c, 0, 73, 100
2, 150816, Note_on_c, 0, 81, 70
2, 150860, Note_off_c, 0, 76, 100
2, 150864, Note_on_c, 0, 76, 70
2, 150908, Note_off_c, 0, 81, 100
2, 150908, Note_off_c, 0, 76, 100
2, 150912, Note_on_c, 0, 71, 70
2, 151100, Note_off_c, 0, 71, 100
2, 152064, Note_on_c, 0, 69, 100
2, 152112, Note_on_c, 0, 64, 100
2, 152156, Note_off_c, 0, 69, 100
2, 152160, Note_on_c, 0, 66, 100
2, 152204, Note_off_c, 0, 64, 100
2, 152208, Note_on_c, 0, 68, 100
2, 152252, Note_off_c, 0, 66, 100
2, 152256, Note_on_c, 0, 69, 100
2, 152300, Note_off_c, 0, 68, 100
2, 152304, Note_on_c, 0, 71, 100
2, 152348, Note_off_c, 0, 69, 100
2, 152352, Note_on_c, 0, 73, 100
2, 152396, Note_off_c, 0, 71, 100
2, 152400, Note_on_c, 0, 74, 100
2, 152444, Note_off_c, 0, 73, 100
2, 152448, Note_on_c, 0, 76, 100
2, 152492, Note_off_c, 0, 74, 100
2, 152496, Note_on_c, 0, 69, 100
2, 152540, Note_off_c, 0, 76, 100
2, 152544, Note_on_c, 0, 71, 100
2, 152588, Note_off_c, 0, 69, 100
2, 152592, Note_on_c, 0, 73, 100
2, 152636, Note_off_c, 0, 71, 100
2, 152640, Note_on_c, 0, 74, 100
2, 152684, Note_off_c, 0, 73, 100
2, 152688, Note_on_c, 0, 76, 100
2, 152732, Note_off_c, 0, 74, 100
2, 152736, Note_on_c, 0, 78, 100
2, 152780, Note_off_c, 0, 76, 100
2, 152784, Note_on_c, 0, 80, 100
2, 152828, Note_off_c, 0, 78, 100
2, 152832, Note_on_c, 0, 83, 100
2, 152876, Note_off_c, 0, 80, 100
2, 152880, Note_on_c, 0, 81, 100
2, 152924, Note_off_c, 0, 83, 100
2, 152928, Note_on_c, 0, 80, 100
2, 152972, Note_off_c, 0, 81, 100
2, 152976, Note_on_c, 0, 81, 100
2, 153020, Note_off_c, 0, 80, 100
2, 153024, Note_on_c, 0, 83, 100
2, 153068, Note_off_c, 0, 81, 100
2, 153072, Note_on_c, 0, 81, 100
2, 153116, Note_off_c, 0, 83, 100
2, 153120, Note_on_c, 0, 80, 100
2, 153164, Note_off_c, 0, 81, 100
2, 153168, Note_on_c, 0, 78, 100
2, 153212, Note_off_c, 0, 80, 100
2, 153212, Note_off_c, 0, 78, 100
2, 153216, Note_on_c, 0, 76, 100
2, 153264, Note_on_c, 0, 64, 100
2, 153308, Note_off_c, 0, 76, 100
2, 153312, Note_on_c, 0, 66, 100
2, 153356, Note_off_c, 0, 64, 100
2, 153360, Note_on_c, 0, 68, 100
2, 153404, Note_off_c, 0, 66, 100
2, 153408, Note_on_c, 0, 69, 100
2, 153452, Note_off_c, 0, 68, 100
2, 153456, Note_on_c, 0, 71, 100
2, 153500, Note_off_c, 0, 69, 100
2, 153504, Note_on_c, 0, 73, 100
2, 153548, Note_off_c, 0, 71, 100
2, 153552, Note_on_c, 0, 74, 100
2, 153596, Note_off_c, 0, 73, 100
2, 153600, Note_on_c, 0, 76, 100
2, 153644, Note_off_c, 0, 74, 100
2, 153648, Note_on_c, 0, 69, 100
2, 153692, Note_off_c, 0, 76, 100
2, 153696, Note_on_c, 0, 71, 100
2, 153740, Note_off_c, 0, 69, 100
2, 153744, Note_on_c, 0, 73, 100
2, 153788, Note_off_c, 0, 71, 100
2, 153792, Note_on_c, 0, 74, 100
2, 153836, Note_off_c, 0, 73, 100
2, 153840, Note_on_c, 0, 76, 100
2, 153884, Note_off_c, 0, 74, 100
2, 153888, Note_on_c, 0, 78, 100
2, 153932, Note_off_c, 0, 76, 100
2, 153936, Note_on_c, 0, 80, 100
2, 153980, Note_off_c, 0, 78, 100
2, 153984, Note_on_c, 0, 83, 100
2, 154028, Note_off_c, 0, 80, 100
2, 154032, Note_on_c, 0, 81, 100
2, 154076, Note_off_c, 0, 83, 100
2, 154080, Note_on_c, 0, 80, 100
2, 154124, Note_off_c, 0, 81, 100
2, 154128, Note_on_c, 0, 81, 100
2, 154172, Note_off_c, 0, 80, 100
2, 154176, Note_on_c, 0, 83, 100
2, 154220, Note_off_c, 0, 81, 100
2, 154224, Note_on_c, 0, 81, 100
2, 154268, Note_off_c, 0, 83, 100
2, 154272, Note_on_c, 0, 80, 100
2, 154316, Note_off_c, 0, 81, 100
2, 154320, Note_on_c, 0, 78, 100
2, 154364, Note_off_c, 0, 80, 100
2, 154364, Note_off_c, 0, 78, 100
2, 154368, Note_on_c, 0, 76, 100
2, 154416, Note_on_c, 0, 81, 100
2, 154460, Note_off_c, 0, 76, 100
2, 154464, Note_on_c, 0, 85, 100
2, 154508, Note_off_c, 0, 81, 100
2, 154512, Note_on_c, 0, 88, 100
2, 154556, Note_off_c, 0, 85, 100
2, 154560, Note_on_c, 0, 85, 100
2, 154604, Note_off_c, 0, 88, 100
2, 154608, Note_on_c, 0, 81, 100
2, 154652, Note_off_c, 0, 85, 100
2, 154656, Note_on_c, 0, 76, 100
2, 154700, Note_off_c, 0, 81, 100
2, 154704, Note_on_c, 0, 73, 100
2, 154748, Note_off_c, 0, 76, 100
2, 154752, Note_on_c, 0, 69, 100
2, 154796, Note_off_c, 0, 73, 100
2, 154800, Note_on_c, 0, 73, 100
2, 154844, Note_off_c, 0, 69, 100
2, 154848, Note_on_c, 0, 76, 100
2, 154892, Note_off_c, 0, 73, 100
2, 154896, Note_on_c, 0, 81, 100
2, 154940, Note_off_c, 0, 76, 100
2, 154944, Note_on_c, 0, 76, 100
2, 154988, Note_off_c, 0, 81, 100
2, 154992, Note_on_c, 0, 73, 100
2, 155036, Note_off_c, 0, 76, 100
2, 155040, Note_on_c, 0, 69, 100
2, 155084, Note_off_c, 0, 73, 100
2, 155088, Note_on_c, 0, 64, 100
2, 155132, Note_off_c, 0, 69, 100
2, 155136, Note_on_c, 0, 73, 100
2, 155180, Note_off_c, 0, 64, 100
2, 155184, Note_on_c, 0, 64, 100
2, 155228, Note_off_c, 0, 73, 100
2, 155232, Note_on_c, 0, 62, 100
2, 155276, Note_off_c, 0, 64, 100
2, 155280, Note_on_c, 0, 71, 100
2, 155324, Note_off_c, 0, 62, 100
2, 155328, Note_on_c, 0, 69, 100
2, 155372, Note_off_c, 0, 71, 100
2, 155376, Note_on_c, 0, 61, 100
2, 155420, Note_off_c, 0, 69, 100
2, 155424, Note_on_c, 0, 59, 100
2, 155468, Note_off_c, 0, 61, 100
2, 155472, Note_on_c, 0, 68, 100
2, 155516, Note_off_c, 0, 59, 100
2, 155516, Note_off_c, 0, 68, 100
2, 155520, Note_on_c, 0, 69, 100
2, 155612, Note_off_c, 0, 69, 100
2, 155616, Note_on_c, 0, 68, 100
2, 155664, Note_on_c, 0, 66, 100
2, 155708, Note_off_c, 0, 68, 100
2, 155712, Note_on_c, 0, 64, 100
2, 155756, Note_off_c, 0, 66, 100
2, 155760, Note_on_c, 0, 62, 100
2, 155804, Note_off_c, 0, 64, 100
2, 155808, Note_on_c, 0, 61, 100
2, 155852, Note_off_c, 0, 62, 100
2, 155856, Note_on_c, 0, 59, 100
2, 155900, Note_off_c, 0, 61, 100
2, 155904, Note_on_c, 0, 57, 100
2, 155948, Note_off_c, 0, 59, 100
2, 155952, Note_on_c, 0, 56, 100
2, 155996, Note_off_c, 0, 57, 100
2, 156000, Note_on_c, 0, 57, 100
2, 156044, Note_off_c, 0, 56, 100
2, 156048, Note_on_c, 0, 59, 100
2, 156092, Note_off_c, 0, 57, 100
2, 156096, Note_on_c, 0, 57, 100
2, 156140, Note_off_c, 0, 59, 100
2, 156144, Note_on_c, 0, 56, 100
2, 156188, Note_off_c, 0, 57, 100
2, 156192, Note_on_c, 0, 57, 100
2, 156236, Note_off_c, 0, 56, 100
2, 156240, Note_on_c, 0, 59, 100
2, 156284, Note_off_c, 0, 57, 100
2, 156288, Note_on_c, 0, 57, 100
2, 156332, Note_off_c, 0, 59, 100
2, 156668, Note_off_c, 0, 57, 100
2, 156672, Note_on_c, 0, 69, 70
2, 156720, Note_on_c, 0, 64, 70
2, 156764, Note_off_c, 0, 69, 100
2, 156768, Note_on_c, 0, 66, 70
2, 156812, Note_off_c, 0, 64, 100
2, 156816, Note_on_c, 0, 68, 70
2, 156860, Note_off_c, 0, 66, 100
2, 156864, Note_on_c, 0, 69, 70
2, 156908, Note_off_c, 0, 68, 100
2, 156912, Note_on_c, 0, 71, 70
2, 156956, Note_off_c, 0, 69, 100
2, 156960, Note_on_c, 0, 73, 70
2, 157004, Note_off_c, 0, 71, 100
2, 157008, Note_on_c, 0, 74, 70
2, 157052, Note_off_c, 0, 73, 100
2, 157056, Note_on_c, 0, 76, 70
2, 157100, Note_off_c, 0, 74, 100
2, 157104, Note_on_c, 0, 69, 70
2, 157148, Note_off_c, 0, 76, 100
2, 157152, Note_on_c, 0, 71, 70
2, 157196, Note_off_c, 0, 69, 100
2, 157200, Note_on_c, 0, 73, 70
2, 157244, Note_off_c, 0, 71, 100
2, 157248, Note_on_c, 0, 74, 70
2, 157292, Note_off_c, 0, 73, 100
2, 157296, Note_on_c, 0, 76, 70
2, 157340, Note_off_c, 0, 74, 100
2, 157344, Note_on_c, 0, 78, 70
2, 157388, Note_off_c, 0, 76, 100
2, 157392, Note_on_c, 0, 80, 70
2, 157436, Note_off_c, 0, 78, 100
2, 157440, Note_on_c, 0, 83, 70
2, 157484, Note_off_c, 0, 80, 100
2, 157488, Note_on_c, 0, 81, 70
2, 157532, Note_off_c, 0, 83, 100
2, 157536, Note_on_c, 0, 80, 70
2, 157580, Note_off_c, 0, 81, 100
2, 157584, Note_on_c, 0, 81, 70
2, 157628, Note_off_c, 0, 80, 100
2, 157632, Note_on_c, 0, 83, 70
2, 157676, Note_off_c, 0, 81, 100
2, 157680, Note_on_c, 0, 81, 70
2, 157724, Note_off_c, 0, 83, 100
2, 157728, Note_on_c, 0, 80, 70
2, 157772, Note_off_c, 0, 81, 100
2, 157776, Note_on_c, 0, 78, 70
2, 157820, Note_off_c, 0, 80, 100
2, 157820, Note_off_c, 0, 78, 100
2, 157824, Note_on_c, 0, 76, 70
2, 157872, Note_on_c, 0, 64, 70
2, 157916, Note_off_c, 0, 76, 100
2, 157920, Note_on_c, 0, 66, 70
2, 157964, Note_off_c, 0, 64, 100
2, 157968, Note_on_c, 0, 68, 70
2, 158012, Note_off_c, 0, 66, 100
2, 158016, Note_on_c, 0, 69, 70
2, 158060, Note_off_c, 0, 68, 100
2, 158064, Note_on_c, 0, 71, 70
2, 158108, Note_off_c, 0, 69, 100
2, 158112, Note_on_c, 0, 73, 70
2, 158156, Note_off_c, 0, 71, 100
2, 158160, Note_on_c, 0, 74, 70
2, 158204, Note_off_c, 0, 73, 100
2, 158208, Note_on_c, 0, 76, 70
2, 158252, Note_off_c, 0, 74, 100
2, 158256, Note_on_c, 0, 69, 70
2, 158300, Note_off_c, 0, 76, 100
2, 158304, Note_on_c, 0, 71, 70
2, 158348, Note_off_c, 0, 69, 100
2, 158352, Note_on_c, 0, 73, 70
2, 158396, Note_off_c, 0, 71, 100
2, 158400, Note_on_c, 0, 74, 70
2, 158444, Note_off_c, 0, 73, 100
2, 158448, Note_on_c, 0, 76, 70
2, 158492, Note_off_c, 0, 74, 100
2, 158496, Note_on_c, 0, 78, 70
2, 158540, Note_off_c, 0, 76, 100
2, 158544, Note_on_c, 0, 80, 70
2, 158588, Note_off_c, 0, 78, 100
2, 158592, Note_on_c, 0, 83, 70
2, 158636, Note_off_c, 0, 80, 100
2, 158640, Note_on_c, 0, 81, 70
2, 158684, Note_off_c, 0, 83, 100
2, 158688, Note_on_c, 0, 80, 70
2, 158732, Note_off_c, 0, 81, 100
2, 158736, Note_on_c, 0, 81, 70
2, 158780, Note_off_c, 0, 80, 100
2, 158784, Note_on_c, 0, 83, 70
2, 158828, Note_off_c, 0, 81, 100
2, 158832, Note_on_c, 0, 81, 70
2, 158876, Note_off_c, 0, 83, 100
2, 158880, Note_on_c, 0, 80, 70
2, 158924, Note_off_c, 0, 81, 100
2, 158928, Note_on_c, 0, 78, 70
2, 158972, Note_off_c, 0, 80, 100
2, 158972, Note_off_c, 0, 78, 100
2, 158976, Note_on_c, 0, 76, 70
2, 159024, Note_on_c, 0, 81, 70
2, 159068, Note_off_c, 0, 76, 100
2, 159072, Note_on_c, 0, 76, 70
2, 159116, Note_off_c, 0, 81, 100
2, 159120, Note_on_c, 0, 73, 70
2, 159164, Note_off_c, 0, 76, 100
2, 159168, Note_on_c, 0, 76, 70
2, 159212, Note_off_c, 0, 73, 100
2, 159216, Note_on_c, 0, 81, 70
2, 159260, Note_off_c, 0, 76, 100
2, 159264, Note_on_c, 0, 85, 70
2, 159308, Note_off_c, 0, 81, 100
2, 159312, Note_on_c, 0, 81, 70
2, 159356, Note_off_c, 0, 85, 100
2, 159360, Note_on_c, 0, 74, 70
2, 159404, Note_off_c, 0, 81, 100
2, 159408, Note_on_c, 0, 76, 70
2, 159452, Note_off_c, 0, 74, 100
2, 159456, Note_on_c, 0, 74, 70
2, 159500, Note_off_c, 0, 76, 100
2, 159504, Note_on_c, 0, 71, 70
2, 159548, Note_off_c, 0, 74, 100
2, 159552, Note_on_c, 0, 74, 70
2, 159596, Note_off_c, 0, 71, 100
2, 159600, Note_on_c, 0, 76, 70
2, 159644, Note_off_c, 0, 74, 100
2, 159648, Note_on_c, 0, 83, 70
2, 159692, Note_off_c, 0, 76, 100
2, 159696, Note_on_c, 0, 76, 70
2, 159740, Note_off_c, 0, 83, 100
2, 159744, Note_on_c, 0, 73, 70
2, 159788, Note_off_c, 0, 76, 100
2, 159792, Note_on_c, 0, 76, 70
2, 159836, Note_off_c, 0, 73, 100
2, 159840, Note_on_c, 0, 73, 70
2, 159884, Note_off_c, 0, 76, 100
2, 159888, Note_on_c, 0, 69, 70
2, 159932, Note_off_c, 0, 73, 100
2, 159936, Note_on_c, 0, 73, 70
2, 159980, Note_off_c, 0, 69, 100
2, 159984, Note_on_c, 0, 76, 70
2, 160028, Note_off_c, 0, 73, 100
2, 160032, Note_on_c, 0, 81, 70
2, 160076, Note_off_c, 0, 76, 100
2, 160080, Note_on_c, 0, 76, 70
2, 160124, Note_off_c, 0, 81, 100
2, 160124, Note_off_c, 0, 76, 100
2, 160128, Note_on_c, 0, 71, 70
2, 160316, Note_off_c, 0, 71, 100
2, 161280, Note_on_c, 0, 69, 100
2, 161328, Note_on_c, 0, 64, 100
2, 161372, Note_off_c, 0, 69, 100
2, 161376, Note_on_c, 0, 66, 100
2, 161420, Note_off_c, 0, 64, 100
2, 161424, Note_on_c, 0, 68, 100
2, 161468, Note_off_c, 0, 66, 100
2, 161472, Note_on_c, 0, 69, 100
2, 161516, Note_off_c, 0, 68, 100
2, 161520, Note_on_c, 0, 71, 100
2, 161564, Note_off_c, 0, 69, 100
2, 161568, Note_on_c, 0, 73, 100
2, 161612, Note_off_c, 0, 71, 100
2, 161616, Note_on_c, 0, 74, 100
2, 161660, Note_off_c, 0, 73, 100
2, 161664, Note_on_c, 0, 76, 100
2, 161708, Note_off_c, 0, 74, 100
2, 161712, Note_on_c, 0, 69, 100
2, 161756, Note_off_c, 0, 76, 100
2, 161760, Note_on_c, 0, 71, 100
2, 161804, Note_off_c, 0, 69, 100
2, 161808, Note_on_c, 0, 73, 100
2, 161852, Note_off_c, 0, 71, 100
2, 161856, Note_on_c, 0, 74, 100
2, 161900, Note_off_c, 0, 73, 100
2, 161904, Note_on_c, 0, 76, 100
2, 161948, Note_off_c, 0, 74, 100
2, 161952, Note_on_c, 0, 78, 100
2, 161996, Note_off_c, 0, 76, 100
2, 162000, Note_on_c, 0, 80, 100
2, 162044, Note_off_c, 0, 78, 100
2, 162048, Note_on_c, 0, 83, 100
2, 162092, Note_off_c, 0, 80, 100
2, 162096, Note_on_c, 0, 81, 100
2, 162140, Note_off_c, 0, 83, 100
2, 162144, Note_on_c, 0, 80, 100
2, 162188, Note_off_c, 0, 81, 100
2, 162192, Note_on_c, 0, 81, 100
2, 162236, Note_off_c, 0, 80, 100
2, 162240, Note_on_c, 0, 83, 100
2, 162284, Note_off_c, 0, 81, 100
2, 162288, Note_on_c, 0, 81, 100
2, 162332, Note_off_c, 0, 83, 100
2, 162336, Note_on_c, 0, 80, 100
2, 162380, Note_off_c, 0, 81, 100
2, 162384, Note_on_c, 0, 78, 100
2, 162428, Note_off_c, 0, 80, 100
2, 162428, Note_off_c, 0, 78, 100
2, 162432, Note_on_c, 0, 76, 100
2, 162480, Note_on_c, 0, 64, 100
2, 162524, Note_off_c, 0, 76, 100
2, 162528, Note_on_c, 0, 66, 100
2, 162572, Note_off_c, 0, 64, 100
2, 162576, Note_on_c, 0, 68, 100
2, 162620, Note_off_c, 0, 66, 100
2, 162624, Note_on_c, 0, 69, 100
2, 162668, Note_off_c, 0, 68, 100
2, 162672, Note_on_c, 0, 71, 100
2, 162716, Note_off_c, 0, 69, 100
2, 162720, Note_on_c, 0, 73, 100
2, 162764, Note_off_c, 0, 71, 100
2, 162768, Note_on_c, 0, 74, 100
2, 162812, Note_off_c, 0, 73, 100
2, 162816, Note_on_c, 0, 76, 100
2, 162860, Note_off_c, 0, 74, 100
2, 162864, Note_on_c, 0, 69, 100
2, 162908, Note_off_c, 0, 76, 100
2, 162912, Note_on_c, 0, 71, 100
2, 162956, Note_off_c, 0, 69, 100
2, 162960, Note_on_c, 0, 73, 100
2, 163004, Note_off_c, 0, 71, 100
2, 163008, Note_on_c, 0, 74, 100
2, 163052, Note_off_c, 0, 73, 100
2, 163056, Note_on_c, 0, 76, 100
2, 163100, Note_off_c, 0, 74, 100
2, 163104, Note_on_c, 0, 78, 100
2, 163148, Note_off_c, 0, 76, 100
2, 163152, Note_on_c, 0, 80, 100
2, 163196, Note_off_c, 0, 78, 100
2, 163200, Note_on_c, 0, 83, 100
2, 163244, Note_off_c, 0, 80, 100
2, 163248, Note_on_c, 0, 81, 100
2, 163292, Note_off_c, 0, 83, 100
2, 163296, Note_on_c, 0, 80, 100
2, 163340, Note_off_c, 0, 81, 100
2, 163344, Note_on_c, 0, 81, 100
2, 163388, Note_off_c, 0, 80, 100
2, 163392, Note_on_c, 0, 83, 100
2, 163436, Note_off_c, 0, 81, 100
2, 163440, Note_on_c, 0, 81, 100
2, 163484, Note_off_c, 0, 83, 100
2, 163488, Note_on_c, 0, 80, 100
2, 163532, Note_off_c, 0, 81, 100
2, 163536, Note_on_c, 0, 78, 100
2, 163580, Note_off_c, 0, 80, 100
2, 163580, Note_off_c, 0, 78, 100
2, 163584, Note_on_c, 0, 76, 100
2, 163632, Note_on_c, 0, 81, 100
2, 163676, Note_off_c, 0, 76, 100
2, 163680, Note_on_c, 0, 85, 100
2, 163724, Note_off_c, 0, 81, 100
2, 163728, Note_on_c, 0, 88, 100
2, 163772, Note_off_c, 0, 85, 100
2, 163776, Note_on_c, 0, 85, 100
2, 163820, Note_off_c, 0, 88, 100
2, 163824, Note_on_c, 0, 81, 100
2, 163868, Note_off_c, 0, 85, 100
2, 163872, Note_on_c, 0, 76, 100
2, 163916, Note_off_c, 0, 81, 100
2, 163920, Note_on_c, 0, 73, 100
2, 163964, Note_off_c, 0, 76, 100
2, 163968, Note_on_c, 0, 69, 100
2, 164012, Note_off_c, 0, 73, 100
2, 164016, Note_on_c, 0, 73, 100
2, 164060, Note_off_c, 0, 69, 100
2, 164064, Note_on_c, 0, 76, 100
2, 164108, Note_off_c, 0, 73, 100
2, 164112, Note_on_c, 0, 81, 100
2, 164156, Note_off_c, 0, 76, 100
2, 164160, Note_on_c, 0, 76, 100
2, 164204, Note_off_c, 0, 81, 100
2, 164208, Note_on_c, 0, 73, 100
2, 164252, Note_off_c, 0, 76, 100
2, 164256, Note_on_c, 0, 69, 100
2, 164300, Note_off_c, 0, 73, 100
2, 164304, Note_on_c, 0, 64, 100
2, 164348, Note_off_c, 0, 69, 100
2, 164352, Note_on_c, 0, 73, 100
2, 164396, Note_off_c, 0, 64, 100
2, 164400, Note_on_c, 0, 64, 100
2, 164444, Note_off_c, 0, 73, 100
2, 164448, Note_on_c, 0, 62, 100
2, 164492, Note_off_c, 0, 64, 100
2, 164496, Note_on_c, 0, 71, 100
2, 164540, Note_off_c, 0, 62, 100
2, 164544, Note_on_c, 0, 69, 100
2, 164588, Note_off_c, 0, 71, 100
2, 164592, Note_on_c, 0, 61, 100
2, 164636, Note_off_c, 0, 69, 100
2, 164640, Note_on_c, 0, 59, 100
2, 164684, Note_off_c, 0, 61, 100
2, 164688, Note_on_c, 0, 68, 100
2, 164732, Note_off_c, 0, 59, 100
2, 164732, Note_off_c, 0, 68, 100
2, 164736, Note_on_c, 0, 69, 100
2, 164828, Note_off_c, 0, 69, 100
2, 164832, Note_on_c, 0, 68, 100
2, 164880, Note_on_c, 0, 66, 100
2, 164924, Note_off_c, 0, 68, 100
2, 164928, Note_on_c, 0, 64, 100
2, 164972, Note_off_c, 0, 66, 100
2, 164976, Note_on_c, 0, 62, 100
2, 165020, Note_off_c, 0, 64, 100
2, 165024, Note_on_c, 0, 61, 100
2, 165068, Note_off_c, 0, 62, 100
2, 165072, Note_on_c, 0, 59, 100
2, 165116, Note_off_c, 0, 61, 100
2, 165120, Note_on_c, 0, 57, 100
2, 165164, Note_off_c, 0, 59, 100
2, 165168, Note_on_c, 0, 56, 100
2, 165212, Note_off_c, 0, 57, 100
2, 165216, Note_on_c, 0, 57, 100
2, 165260, Note_off_c, 0, 56, 100
2, 165264, Note_on_c, 0, 59, 100
2, 165308, Note_off_c, 0, 57, 100
2, 165312, Note_on_c, 0, 57, 100
2, 165356, Note_off_c, 0, 59, 100
2, 165360, Note_on_c, 0, 56, 100
2, 165404, Note_off_c, 0, 57, 100
2, 165408, Note_on_c, 0, 57, 100
2, 165452, Note_off_c, 0, 56, 100
2, 165456, Note_on_c, 0, 59, 100
2, 165500, Note_off_c, 0, 57, 100
2, 165504, Note_on_c, 0, 57, 100
2, 165548, Note_off_c, 0, 59, 100
2, 165884, Note_off_c, 0, 57, 100
2, 165888, Note_on_c, 0, 62, 100
2, 165936, Note_on_c, 0, 59, 100
2, 165980, Note_off_c, 0, 62, 100
2, 165984, Note_on_c, 0, 61, 100
2, 166028, Note_off_c, 0, 59, 100
2, 166032, Note_on_c, 0, 62, 100
2, 166076, Note_off_c, 0, 61, 100
2, 166080, Note_on_c, 0, 64, 100
2, 166124, Note_off_c, 0, 62, 100
2, 166128, Note_on_c, 0, 66, 100
2, 166172, Note_off_c, 0, 64, 100
2, 166176, Note_on_c, 0, 68, 100
2, 166220, Note_off_c, 0, 66, 100
2, 166224, Note_on_c, 0, 69, 100
2, 166268, Note_off_c, 0, 68, 100
2, 166272, Note_on_c, 0, 71, 100
2, 166316, Note_off_c, 0, 69, 100
2, 166316, Note_off_c, 0, 71, 100
2, 166320, Note_on_c, 0, 71, 100
2, 166368, Note_on_c, 0, 73, 100
2, 166412, Note_off_c, 0, 71, 100
2, 166416, Note_on_c, 0, 74, 100
2, 166460, Note_off_c, 0, 73, 100
2, 166464, Note_on_c, 0, 76, 100
2, 166508, Note_off_c, 0, 74, 100
2, 166512, Note_on_c, 0, 78, 100
2, 166556, Note_off_c, 0, 76, 100
2, 166560, Note_on_c, 0, 80, 100
2, 166604, Note_off_c, 0, 78, 100
2, 166608, Note_on_c, 0, 81, 100
2, 166652, Note_off_c, 0, 80, 100
2, 166656, Note_on_c, 0, 83, 100
2, 166700, Note_off_c, 0, 81, 100
2, 166704, Note_on_c, 0, 85, 100
2, 166748, Note_off_c, 0, 83, 100
2, 166752, Note_on_c, 0, 86, 100
2, 166796, Note_off_c, 0, 85, 100
2, 166800, Note_on_c, 0, 85, 100
2, 166844, Note_off_c, 0, 86, 100
2, 166848, Note_on_c, 0, 86, 100
2, 166892, Note_off_c, 0, 85, 100
2, 166896, Note_on_c, 0, 83, 100
2, 166940, Note_off_c, 0, 86, 100
2, 166944, Note_on_c, 0, 80, 100
2, 166988, Note_off_c, 0, 83, 100
2, 166992, Note_on_c, 0, 74, 100
2, 167036, Note_off_c, 0, 80, 100
2, 167036, Note_off_c, 0, 74, 100
2, 167040, Note_on_c, 0, 73, 100
2, 167088, Note_on_c, 0, 81, 100
2, 167132, Note_off_c, 0, 73, 100
2, 167136, Note_on_c, 0, 80, 100
2, 167180, Note_off_c, 0, 81, 100
2, 167184, Note_on_c, 0, 78, 100
2, 167228, Note_off_c, 0, 80, 100
2, 167232, Note_on_c, 0, 76, 100
2, 167276, Note_off_c, 0, 78, 100
2, 167280, Note_on_c, 0, 74, 100
2, 167324, Note_off_c, 0, 76, 100
2, 167328, Note_on_c, 0, 73, 100
2, 167372, Note_off_c, 0, 74, 100
2, 167376, Note_on_c, 0, 71, 100
2, 167420, Note_off_c, 0, 73, 100
2, 167424, Note_on_c, 0, 69, 100
2, 167468, Note_off_c, 0, 71, 100
2, 167472, Note_on_c, 0, 73, 100
2, 167516, Note_off_c, 0, 69, 100
2, 167520, Note_on_c, 0, 76, 100
2, 167564, Note_off_c, 0, 73, 100
2, 167568, Note_on_c, 0, 81, 100
2, 167612, Note_off_c, 0, 76, 100
2, 167616, Note_on_c, 0, 69, 100
2, 167660, Note_off_c, 0, 81, 100
2, 167664, Note_on_c, 0, 73, 100
2, 167708, Note_off_c, 0, 69, 100
2, 167712, Note_on_c, 0, 76, 100
2, 167756, Note_off_c, 0, 73, 100
2, 167760, Note_on_c, 0, 81, 100
2, 167804, Note_off_c, 0, 76, 100
2, 167808, Note_on_c, 0, 69, 100
2, 167852, Note_off_c, 0, 81, 100
2, 168188, Note_off_c, 0, 69, 100
2, 168240, Note_on_c, 0, 62, 100
2, 168288, Note_on_c, 0, 64, 100
2, 168332, Note_off_c, 0, 62, 100
2, 168336, Note_on_c, 0, 68, 100
2, 168380, Note_off_c, 0, 64, 100
2, 168384, Note_on_c, 0, 64, 100
2, 168428, Note_off_c, 0, 68, 100
2, 168432, Note_on_c, 0, 68, 100
2, 168476, Note_off_c, 0, 64, 100
2, 168480, Note_on_c, 0, 71, 100
2, 168524, Note_off_c, 0, 68, 100
2, 168528, Note_on_c, 0, 74, 100
2, 168572, Note_off_c, 0, 71, 100
2, 168576, Note_on_c, 0, 71, 100
2, 168620, Note_off_c, 0, 74, 100
2, 168624, Note_on_c, 0, 74, 100
2, 168668, Note_off_c, 0, 71, 100
2, 168672, Note_on_c, 0, 76, 100
2, 168716, Note_off_c, 0, 74, 100
2, 168720, Note_on_c, 0, 80, 100
2, 168764, Note_off_c, 0, 76, 100
2, 168768, Note_on_c, 0, 76, 100
2, 168812, Note_off_c, 0, 80, 100
2, 168816, Note_on_c, 0, 80, 100
2, 168860, Note_off_c, 0, 76, 100
2, 168864, Note_on_c, 0, 83, 100
2, 168908, Note_off_c, 0, 80, 100
2, 168912, Note_on_c, 0, 86, 100
2, 168956, Note_off_c, 0, 83, 100
2, 168960, Note_on_c, 0, 83, 100
2, 169004, Note_off_c, 0, 86, 100
2, 169008, Note_on_c, 0, 80, 100
2, 169052, Note_off_c, 0, 83, 100
2, 169056, Note_on_c, 0, 76, 100
2, 169100, Note_off_c, 0, 80, 100
2, 169104, Note_on_c, 0, 74, 100
2, 169148, Note_off_c, 0, 76, 100
2, 169152, Note_on_c, 0, 86, 100
2, 169196, Note_off_c, 0, 74, 100
2, 169200, Note_on_c, 0, 83, 100
2, 169244, Note_off_c, 0, 86, 100
2, 169248, Note_on_c, 0, 80, 100
2, 169292, Note_off_c, 0, 83, 100
2, 169296, Note_on_c, 0, 74, 100
2, 169340, Note_off_c, 0, 80, 100
2, 169340, Note_off_c, 0, 74, 100
2, 169344, Note_on_c, 0, 73, 100
2, 169392, Note_on_c, 0, 81, 100
2, 169436, Note_off_c, 0, 73, 100
2, 169440, Note_on_c, 0, 80, 100
2, 169484, Note_off_c, 0, 81, 100
2, 169488, Note_on_c, 0, 81, 100
2, 169532, Note_off_c, 0, 80, 100
2, 169536, Note_on_c, 0, 76, 100
2, 169580, Note_off_c, 0, 81, 100
2, 169584, Note_on_c, 0, 81, 100
2, 169628, Note_off_c, 0, 76, 100
2, 169632, Note_on_c, 0, 73, 100
2, 169676, Note_off_c, 0, 81, 100
2, 169680, Note_on_c, 0, 76, 100
2, 169724, Note_off_c, 0, 73, 100
2, 169728, Note_on_c, 0, 69, 100
2, 169772, Note_off_c, 0, 76, 100
2, 169772, Note_off_c, 0, 69, 100
2, 169776, Note_on_c, 0, 69, 100
2, 169824, Note_on_c, 0, 68, 100
2, 169868, Note_off_c, 0, 69, 100
2, 169872, Note_on_c, 0, 69, 100
2, 169916, Note_off_c, 0, 68, 100
2, 169920, Note_on_c, 0, 64, 100
2, 169964, Note_off_c, 0, 69, 100
2, 169968, Note_on_c, 0, 69, 100
2, 170012, Note_off_c, 0, 64, 100
2, 170016, Note_on_c, 0, 61, 100
2, 170060, Note_off_c, 0, 69, 100
2, 170064, Note_on_c, 0, 64, 100
2, 170108, Note_off_c, 0, 61, 100
2, 170112, Note_on_c, 0, 57, 100
2, 170156, Note_off_c, 0, 64, 100
2, 170160, Note_on_c, 0, 56, 100
2, 170204, Note_off_c, 0, 57, 100
2, 170208, Note_on_c, 0, 57, 100
2, 170252, Note_off_c, 0, 56, 100
2, 170256, Note_on_c, 0, 59, 100
2, 170300, Note_off_c, 0, 57, 100
2, 170304, Note_on_c, 0, 57, 100
2, 170348, Note_off_c, 0, 59, 100
2, 170352, Note_on_c, 0, 61, 93
2, 170396, Note_off_c, 0, 57, 100
2, 170400, Note_on_c, 0, 64, 85
2, 170444, Note_off_c, 0, 61, 100
2, 170448, Note_on_c, 0, 68, 76
2, 170492, Note_off_c, 0, 64, 100
2, 170492, Note_off_c, 0, 68, 100
2, 170496, Note_on_c, 0, 69, 70
2, 170544, Note_on_c, 0, 64, 70
2, 170588, Note_off_c, 0, 69, 100
2, 170592, Note_on_c, 0, 66, 70
2, 170636, Note_off_c, 0, 64, 100
2, 170640, Note_on_c, 0, 68, 70
2, 170684, Note_off_c, 0, 66, 100
2, 170688, Note_on_c, 0, 69, 70
2, 170732, Note_off_c, 0, 68, 100
2, 170736, Note_on_c, 0, 71, 70
2, 170780, Note_off_c, 0, 69, 100
2, 170784, Note_on_c, 0, 73, 70
2, 170828, Note_off_c, 0, 71, 100
2, 170832, Note_on_c, 0, 74, 70
2, 170876, Note_off_c, 0, 73, 100
2, 170880, Note_on_c, 0, 76, 70
2, 170924, Note_off_c, 0, 74, 100
2, 170928, Note_on_c, 0, 69, 70
2, 170972, Note_off_c, 0, 76, 100
2, 170976, Note_on_c, 0, 71, 70
2, 171020, Note_off_c, 0, 69, 100
2, 171024, Note_on_c, 0, 73, 70
2, 171068, Note_off_c, 0, 71, 100
2, 171072, Note_on_c, 0, 74, 70
2, 171116, Note_off_c, 0, 73, 100
2, 171120, Note_on_c, 0, 76, 70
2, 171164, Note_off_c, 0, 74, 100
2, 171168, Note_on_c, 0, 78, 70
2, 171212, Note_off_c, 0, 76, 100
2, 171216, Note_on_c, 0, 80, 70
2, 171260, Note_off_c, 0, 78, 100
2, 171264, Note_on_c, 0, 83, 70
2, 171308, Note_off_c, 0, 80, 100
2, 171312, Note_on_c, 0, 81, 70
2, 171356, Note_off_c, 0, 83, 100
2, 171360, Note_on_c, 0, 80, 70
2, 171404, Note_off_c, 0, 81, 100
2, 171408, Note_on_c, 0, 81, 70
2, 171452, Note_off_c, 0, 80, 100
2, 171456, Note_on_c, 0, 83, 70
2, 171500, Note_off_c, 0, 81, 100
2, 171504, Note_on_c, 0, 81, 70
2, 171548, Note_off_c, 0, 83, 100
2, 171552, Note_on_c, 0, 80, 70
2, 171596, Note_off_c, 0, 81, 100
2, 171600, Note_on_c, 0, 78, 70
2, 171644, Note_off_c, 0, 80, 100
2, 171644, Note_off_c, 0, 78, 100
2, 171648, Note_on_c, 0, 76, 70
2, 171696, Note_on_c, 0, 64, 70
2, 171740, Note_off_c, 0, 76, 100
2, 171744, Note_on_c, 0, 66, 70
2, 171788, Note_off_c, 0, 64, 100
2, 171792, Note_on_c, 0, 68, 70
2, 171836, Note_off_c, 0, 66, 100
2, 171840, Note_on_c, 0, 69, 70
2, 171884, Note_off_c, 0, 68, 100
2, 171888, Note_on_c, 0, 71, 70
2, 171932, Note_off_c, 0, 69, 100
2, 171936, Note_on_c, 0, 73, 70
2, 171980, Note_off_c, 0, 71, 100
2, 171984, Note_on_c, 0, 74, 70
2, 172028, Note_off_c, 0, 73, 100
2, 172032, Note_on_c, 0, 76, 70
2, 172076, Note_off_c, 0, 74, 100
2, 172080, Note_on_c, 0, 69, 70
2, 172124, Note_off_c, 0, 76, 100
2, 172128, Note_on_c, 0, 71, 70
2, 172172, Note_off_c, 0, 69, 100
2, 172176, Note_on_c, 0, 73, 70
2, 172220, Note_off_c, 0, 71, 100
2, 172224, Note_on_c, 0, 74, 70
2, 172268, Note_off_c, 0, 73, 100
2, 172272, Note_on_c, 0, 76, 70
2, 172316, Note_off_c, 0, 74, 100
2, 172320, Note_on_c, 0, 78, 70
2, 172364, Note_off_c, 0, 76, 100
2, 172368, Note_on_c, 0, 80, 70
2, 172412, Note_off_c, 0, 78, 100
2, 172416, Note_on_c, 0, 83, 70
2, 172460, Note_off_c, 0, 80, 100
2, 172464, Note_on_c, 0, 81, 70
2, 172508, Note_off_c, 0, 83, 100
2, 172512, Note_on_c, 0, 80, 70
2, 172556, Note_off_c, 0, 81, 100
2, 172560, Note_on_c, 0, 81, 70
2, 172604, Note_off_c, 0, 80, 100
2, 172608, Note_on_c, 0, 83, 70
2, 172652, Note_off_c, 0, 81, 100
2, 172656, Note_on_c, 0, 81, 70
2, 172700, Note_off_c, 0, 83, 100
2, 172704, Note_on_c, 0, 80, 70
2, 172748, Note_off_c, 0, 81, 100
2, 172752, Note_on_c, 0, 78, 70
2, 172796, Note_off_c, 0, 80, 100
2, 172796, Note_off_c, 0, 78, 100
2, 172800, Note_on_c, 0, 76, 100
2, 172848, Note_on_c, 0, 81, 100
2, 172892, Note_off_c, 0, 76, 100
2, 172896, Note_on_c, 0, 85, 100
2, 172940, Note_off_c, 0, 81, 100
2, 172944, Note_on_c, 0, 88, 100
2, 172988, Note_off_c, 0, 85, 100
2, 172992, Note_on_c, 0, 85, 100
2, 173036, Note_off_c, 0, 88, 100
2, 173040, Note_on_c, 0, 81, 100
2, 173084, Note_off_c, 0, 85, 100
2, 173088, Note_on_c, 0, 76, 100
2, 173132, Note_off_c, 0, 81, 100
2, 173136, Note_on_c, 0, 73, 100
2, 173180, Note_off_c, 0, 76, 100
2, 173184, Note_on_c, 0, 69, 100
2, 173228, Note_off_c, 0, 73, 100
2, 173232, Note_on_c, 0, 73, 100
2, 173276, Note_off_c, 0, 69, 100
2, 173280, Note_on_c, 0, 76, 100
2, 173324, Note_off_c, 0, 73, 100
2, 173328, Note_on_c, 0, 81, 100
2, 173372, Note_off_c, 0, 76, 100
2, 173376, Note_on_c, 0, 76, 100
2, 173420, Note_off_c, 0, 81, 100
2, 173424, Note_on_c, 0, 73, 100
2, 173468, Note_off_c, 0, 76, 100
2, 173472, Note_on_c, 0, 69, 100
2, 173516, Note_off_c, 0, 73, 100
2, 173520, Note_on_c, 0, 64, 100
2, 173564, Note_off_c, 0, 69, 100
2, 173568, Note_on_c, 0, 73, 100
2, 173612, Note_off_c, 0, 64, 100
2, 173616, Note_on_c, 0, 64, 100
2, 173660, Note_off_c, 0, 73, 100
2, 173664, Note_on_c, 0, 62, 100
2, 173708, Note_off_c, 0, 64, 100
2, 173712, Note_on_c, 0, 71, 100
2, 173756, Note_off_c, 0, 62, 100
2, 173760, Note_on_c, 0, 69, 100
2, 173804, Note_off_c, 0, 71, 100
2, 173808, Note_on_c, 0, 61, 100
2, 173852, Note_off_c, 0, 69, 100
2, 173856, Note_on_c, 0, 59, 100
2, 173900, Note_off_c, 0, 61, 100
2, 173904, Note_on_c, 0, 68, 100
2, 173948, Note_off_c, 0, 59, 100
2, 173948, Note_off_c, 0, 68, 100
2, 173952, Note_on_c, 0, 69, 100
2, 174044, Note_off_c, 0, 69, 100
2, 174048, Note_on_c, 0, 68, 100
2, 174096, Note_on_c, 0, 66, 100
2, 174140, Note_off_c, 0, 68, 100
2, 174144, Note_on_c, 0, 64, 100
2, 174188, Note_off_c, 0, 66, 100
2, 174192, Note_on_c, 0, 62, 100
2, 174236, Note_off_c, 0, 64, 100
2, 174240, Note_on_c, 0, 61, 100
2, 174284, Note_off_c, 0, 62, 100
2, 174288, Note_on_c, 0, 59, 100
2, 174332, Note_off_c, 0, 61, 100
2, 174336, Note_on_c, 0, 57, 100
2, 174380, Note_off_c, 0, 59, 100
2, 174384, Note_on_c, 0, 56, 100
2, 174428, Note_off_c, 0, 57, 100
2, 174432, Note_on_c, 0, 57, 100
2, 174476, Note_off_c, 0, 56, 100
2, 174480, Note_on_c, 0, 59, 100
2, 174524, Note_off_c, 0, 57, 100
2, 174528, Note_on_c, 0, 57, 100
2, 174572, Note_off_c, 0, 59, 100
2, 174576, Note_on_c, 0, 56, 100
2, 174620, Note_off_c, 0, 57, 100
2, 174624, Note_on_c, 0, 57, 100
2, 174668, Note_off_c, 0, 56, 100
2, 174672, Note_on_c, 0, 59, 100
2, 174716, Note_off_c, 0, 57, 100
2, 174720, Note_on_c, 0, 57, 100
2, 174764, Note_off_c, 0, 59, 100
2, 175100, Note_off_c, 0, 57, 100
2, 175104, Note_on_c, 0, 62, 100
2, 175152, Note_on_c, 0, 59, 100
2, 175196, Note_off_c, 0, 62, 100
2, 175200, Note_on_c, 0, 61, 100
2, 175244, Note_off_c, 0, 59, 100
2, 175248, Note_on_c, 0, 62, 100
2, 175292, Note_off_c, 0, 61, 100
2, 175296, Note_on_c, 0, 64, 100
2, 175340, Note_off_c, 0, 62, 100
2, 175344, Note_on_c, 0, 66, 100
2, 175388, Note_off_c, 0, 64, 100
2, 175392, Note_on_c, 0, 68, 100
2, 175436, Note_off_c, 0, 66, 100
2, 175440, Note_on_c, 0, 69, 100
2, 175484, Note_off_c, 0, 68, 100
2, 175488, Note_on_c, 0, 71, 100
2, 175532, Note_off_c, 0, 69, 100
2, 175532, Note_off_c, 0, 71, 100
2, 175536, Note_on_c, 0, 71, 100
2, 175584, Note_on_c, 0, 73, 100
2, 175628, Note_off_c, 0, 71, 100
2, 175632, Note_on_c, 0, 74, 100
2, 175676, Note_off_c, 0, 73, 100
2, 175680, Note_on_c, 0, 76, 100
2, 175724, Note_off_c, 0, 74, 100
2, 175728, Note_on_c, 0, 78, 100
2, 175772, Note_off_c, 0, 76, 100
2, 175776, Note_on_c, 0, 80, 100
2, 175820, Note_off_c, 0, 78, 100
2, 175824, Note_on_c, 0, 81, 100
2, 175868, Note_off_c, 0, 80, 100
2, 175872, Note_on_c, 0, 83, 100
2, 175916, Note_off_c, 0, 81, 100
2, 175920, Note_on_c, 0, 85, 100
2, 175964, Note_off_c, 0, 83, 100
2, 175968, Note_on_c, 0, 86, 100
2, 176012, Note_off_c, 0, 85, 100
2, 176016, Note_on_c, 0, 85, 100
2, 176060, Note_off_c, 0, 86, 100
2, 176064, Note_on_c, 0, 86, 100
2, 176108, Note_off_c, 0, 85, 100
2, 176112, Note_on_c, 0, 83, 100
2, 176156, Note_off_c, 0, 86, 100
2, 176160, Note_on_c, 0, 80, 100
2, 176204, Note_off_c, 0, 83, 100
2, 176208, Note_on_c, 0, 74, 100
2, 176252, Note_off_c, 0, 80, 100
2, 176252, Note_off_c, 0, 74, 100
2, 176256, Note_on_c, 0, 73, 100
2, 176304, Note_on_c, 0, 81, 100
2, 176348, Note_off_c, 0, 73, 100
2, 176352, Note_on_c, 0, 80, 100
2, 176396, Note_off_c, 0, 81, 100
2, 176400, Note_on_c, 0, 78, 100
2, 176444, Note_off_c, 0, 80, 100
2, 176448, Note_on_c, 0, 76, 100
2, 176492, Note_off_c, 0, 78, 100
2, 176496, Note_on_c, 0, 74, 100
2, 176540, Note_off_c, 0, 76, 100
2, 176544, Note_on_c, 0, 73, 100
2, 176588, Note_off_c, 0, 74, 100
2, 176592, Note_on_c, 0, 71, 100
2, 176636, Note_off_c, 0, 73, 100
2, 176640, Note_on_c, 0, 69, 100
2, 176684, Note_off_c, 0, 71, 100
2, 176688, Note_on_c, 0, 73, 100
2, 176732, Note_off_c, 0, 69, 100
2, 176736, Note_on_c, 0, 76, 100
2, 176780, Note_off_c, 0, 73, 100
2, 176784, Note_on_c, 0, 81, 100
2, 176828, Note_off_c, 0, 76, 100
2, 176832, Note_on_c, 0, 69, 100
2, 176876, Note_off_c, 0, 81, 100
2, 176880, Note_on_c, 0, 73, 100
2, 176924, Note_off_c, 0, 69, 100
2, 176928, Note_on_c, 0, 76, 100
2, 176972, Note_off_c, 0, 73, 100
2, 176976, Note_on_c, 0, 81, 100
2, 177020, Note_off_c, 0, 76, 100
2, 177024, Note_on_c, 0, 69, 100
2, 177068, Note_off_c, 0, 81, 100
2, 177404, Note_off_c, 0, 69, 100
2, 177456, Note_on_c, 0, 62, 100
2, 177504, Note_on_c, 0, 64, 100
2, 177548, Note_off_c, 0, 62, 100
2, 177552, Note_on_c, 0, 68, 100
2, 177596, Note_off_c, 0, 64, 100
2, 177600, Note_on_c, 0, 64, 100
2, 177644, Note_off_c, 0, 68, 100
2, 177648, Note_on_c, 0, 68, 100
2, 177692, Note_off_c, 0, 64, 100
2, 177696, Note_on_c, 0, 71, 100
2, 177740, Note_off_c, 0, 68, 100
2, 177744, Note_on_c, 0, 74, 100
2, 177788, Note_off_c, 0, 71, 100
2, 177792, Note_on_c, 0, 71, 100
2, 177836, Note_off_c, 0, 74, 100
2, 177840, Note_on_c, 0, 74, 100
2, 177884, Note_off_c, 0, 71, 100
2, 177888, Note_on_c, 0, 76, 100
2, 177932, Note_off_c, 0, 74, 100
2, 177936, Note_on_c, 0, 80, 100
2, 177980, Note_off_c, 0, 76, 100
2, 177984, Note_on_c, 0, 76, 100
2, 178028, Note_off_c, 0, 80, 100
2, 178032, Note_on_c, 0, 80, 100
2, 178076, Note_off_c, 0, 76, 100
2, 178080, Note_on_c, 0, 83, 100
2, 178124, Note_off_c, 0, 80, 100
2, 178128, Note_on_c, 0, 86, 100
2, 178172, Note_off_c, 0, 83, 100
2, 178176, Note_on_c, 0, 83, 100
2, 178220, Note_off_c, 0, 86, 100
2, 178224, Note_on_c, 0, 80, 100
2, 178268, Note_off_c, 0, 83, 100
2, 178272, Note_on_c, 0, 76, 100
2, 178316, Note_off_c, 0, 80, 100
2, 178320, Note_on_c, 0, 74, 100
2, 178364, Note_off_c, 0, 76, 100
2, 178368, Note_on_c, 0, 86, 100
2, 178412, Note_off_c, 0, 74, 100
2, 178416, Note_on_c, 0, 83, 100
2, 178460, Note_off_c, 0, 86, 100
2, 178464, Note_on_c, 0, 80, 100
2, 178508, Note_off_c, 0, 83, 100
2, 178512, Note_on_c, 0, 74, 100
2, 178556, Note_off_c, 0, 80, 100
2, 178556, Note_off_c, 0, 74, 100
2, 178560, Note_on_c, 0, 73, 100
2, 178608, Note_on_c, 0, 81, 100
2, 178652, Note_off_c, 0, 73, 100
2, 178656, Note_on_c, 0, 80, 100
2, 178700, Note_off_c, 0, 81, 100
2, 178704, Note_on_c, 0, 81, 100
2, 178748, Note_off_c, 0, 80, 100
2, 178752, Note_on_c, 0, 76, 100
2, 178796, Note_off_c, 0, 81, 100
2, 178800, Note_on_c, 0, 81, 100
2, 178844, Note_off_c, 0, 76, 100
2, 178848, Note_on_c, 0, 73, 100
2, 178892, Note_off_c, 0, 81, 100
2, 178896, Note_on_c, 0, 76, 100
2, 178940, Note_off_c, 0, 73, 100
2, 178944, Note_on_c, 0, 69, 100
2, 178988, Note_off_c, 0, 76, 100
2, 178988, Note_off_c, 0, 69, 100
2, 178992, Note_on_c, 0, 69, 100
2, 179040, Note_on_c, 0, 68, 100
2, 179084, Note_off_c, 0, 69, 100
2, 179088, Note_on_c, 0, 69, 100
2, 179132, Note_off_c, 0, 68, 100
2, 179136, Note_on_c, 0, 64, 100
2, 179180, Note_off_c, 0, 69, 100
2, 179184, Note_on_c, 0, 69, 100
2, 179228, Note_off_c, 0, 64, 100
2, 179232, Note_on_c, 0, 61, 100
2, 179276, Note_off_c, 0, 69, 100
2, 179280, Note_on_c, 0, 64, 100
2, 179324, Note_off_c, 0, 61, 100
2, 179328, Note_on_c, 0, 57, 100
2, 179372, Note_off_c, 0, 64, 100
2, 179376, Note_on_c, 0, 56, 100
2, 179420, Note_off_c, 0, 57, 100
2, 179424, Note_on_c, 0, 57, 100
2, 179468, Note_off_c, 0, 56, 100
2, 179472, Note_on_c, 0, 59, 100
2, 179516, Note_off_c, 0, 57, 100
2, 179520, Note_on_c, 0, 57, 100
2, 179564, Note_off_c, 0, 59, 100
2, 179568, Note_on_c, 0, 61, 93
2, 179612, Note_off_c, 0, 57, 100
2, 179616, Note_on_c, 0, 64, 85
2, 179660, Note_off_c, 0, 61, 100
2, 179664, Note_on_c, 0, 68, 76
2, 179708, Note_off_c, 0, 64, 100
2, 179708, Note_off_c, 0, 68, 100
2, 179712, Note_on_c, 0, 69, 70
2, 179760, Note_on_c, 0, 64, 70
2, 179804, Note_off_c, 0, 69, 100
2, 179808, Note_on_c, 0, 66, 70
2, 179852, Note_off_c, 0, 64, 100
2, 179856, Note_on_c, 0, 68, 70
2, 179900, Note_off_c, 0, 66, 100
2, 179904, Note_on_c, 0, 69, 70
2, 179948, Note_off_c, 0, 68, 100
2, 179952, Note_on_c, 0, 71, 70
2, 179996, Note_off_c, 0, 69, 100
2, 180000, Note_on_c, 0, 73, 70
2, 180044, Note_off_c, 0, 71, 100
2, 180048, Note_on_c, 0, 74, 70
2, 180092, Note_off_c, 0, 73, 100
2, 180096, Note_on_c, 0, 76, 70
2, 180140, Note_off_c, 0, 74, 100
2, 180144, Note_on_c, 0, 69, 70
2, 180188, Note_off_c, 0, 76, 100
2, 180192, Note_on_c, 0, 71, 70
2, 180236, Note_off_c, 0, 69, 100
2, 180240, Note_on_c, 0, 73, 70
2, 180284, Note_off_c, 0, 71, 100
2, 180288, Note_on_c, 0, 74, 70
2, 180332, Note_off_c, 0, 73, 100
2, 180336, Note_on_c, 0, 76, 70
2, 180380, Note_off_c, 0, 74, 100
2, 180384, Note_on_c, 0, 78, 70
2, 180428, Note_off_c, 0, 76, 100
2, 180432, Note_on_c, 0, 80, 70
2, 180476, Note_off_c, 0, 78, 100
2, 180480, Note_on_c, 0, 83, 70
2, 180524, Note_off_c, 0, 80, 100
2, 180528, Note_on_c, 0, 81, 70
2, 180572, Note_off_c, 0, 83, 100
2, 180576, Note_on_c, 0, 80, 70
2, 180620, Note_off_c, 0, 81, 100
2, 180624, Note_on_c, 0, 81, 70
2, 180668, Note_off_c, 0, 80, 100
2, 180672, Note_on_c, 0, 83, 70
2, 180716, Note_off_c, 0, 81, 100
2, 180720, Note_on_c, 0, 81, 70
2, 180764, Note_off_c, 0, 83, 100
2, 180768, Note_on_c, 0, 80, 70
2, 180812, Note_off_c, 0, 81, 100
2, 180816, Note_on_c, 0, 78, 70
2, 180860, Note_off_c, 0, 80, 100
2, 180860, Note_off_c, 0, 78, 100
2, 180864, Note_on_c, 0, 76, 70
2, 180912, Note_on_c, 0, 64, 70
2, 180956, Note_off_c, 0, 76, 100
2, 180960, Note_on_c, 0, 66, 70
2, 181004, Note_off_c, 0, 64, 100
2, 181008, Note_on_c, 0, 68, 70
2, 181052, Note_off_c, 0, 66, 100
2, 181056, Note_on_c, 0, 69, 70
2, 181100, Note_off_c, 0, 68, 100
2, 181104, Note_on_c, 0, 71, 70
2, 181148, Note_off_c, 0, 69, 100
2, 181152, Note_on_c, 0, 73, 70
2, 181196, Note_off_c, 0, 71, 100
2, 181200, Note_on_c, 0, 74, 70
2, 181244, Note_off_c, 0, 73, 100
2, 181248, Note_on_c, 0, 76, 70
2, 181292, Note_off_c, 0, 74, 100
2, 181296, Note_on_c, 0, 69, 70
2, 181340, Note_off_c, 0, 76, 100
2, 181344, Note_on_c, 0, 71, 70
2, 181388, Note_off_c, 0, 69, 100
2, 181392, Note_on_c, 0, 73, 70
2, 181436, Note_off_c, 0, 71, 100
2, 181440, Note_on_c, 0, 74, 70
2, 181484, Note_off_c, 0, 73, 100
2, 181488, Note_on_c, 0, 76, 70
2, 181532, Note_off_c, 0, 74, 100
2, 181536, Note_on_c, 0, 78, 70
2, 181580, Note_off_c, 0, 76, 100
2, 181584, Note_on_c, 0, 80, 70
2, 181628, Note_off_c, 0, 78, 100
2, 181632, Note_on_c, 0, 83, 70
2, 181676, Note_off_c, 0, 80, 100
2, 181680, Note_on_c, 0, 81, 70
2, 181724, Note_off_c, 0, 83, 100
2, 181728, Note_on_c, 0, 80, 70
2, 181772, Note_off_c, 0, 81, 100
2, 181776, Note_on_c, 0, 81, 70
2, 181820, Note_off_c, 0, 80, 100
2, 181824, Note_on_c, 0, 83, 70
2, 181868, Note_off_c, 0, 81, 100
2, 181872, Note_on_c, 0, 81, 70
2, 181916, Note_off_c, 0, 83, 100
2, 181920, Note_on_c, 0, 80, 70
2, 181964, Note_off_c, 0, 81, 100
2, 181968, Note_on_c, 0, 78, 70
2, 182012, Note_off_c, 0, 80, 100
2, 182012, Note_off_c, 0, 78, 100
2, 182016, Note_on_c, 0, 76, 100
2, 182064, Note_on_c, 0, 81, 100
2, 182108, Note_off_c, 0, 76, 100
2, 182112, Note_on_c, 0, 85, 100
2, 182156, Note_off_c, 0, 81, 100
2, 182160, Note_on_c, 0, 88, 100
2, 182204, Note_off_c, 0, 85, 100
2, 182208, Note_on_c, 0, 85, 100
2, 182252, Note_off_c, 0, 88, 100
2, 182256, Note_on_c, 0, 81, 100
2, 182300, Note_off_c, 0, 85, 100
2, 182304, Note_on_c, 0, 76, 100
2, 182348, Note_off_c, 0, 81, 100
2, 182352, Note_on_c, 0, 73, 100
2, 182396, Note_off_c, 0, 76, 100
2, 182400, Note_on_c, 0, 69, 100
2, 182444, Note_off_c, 0, 73, 100
2, 182448, Note_on_c, 0, 73, 100
2, 182492, Note_off_c, 0, 69, 100
2, 182496, Note_on_c, 0, 76, 100
2, 182540, Note_off_c, 0, 73, 100
2, 182544, Note_on_c, 0, 81, 100
2, 182588, Note_off_c, 0, 76, 100
2, 182592, Note_on_c, 0, 76, 100
2, 182636, Note_off_c, 0, 81, 100
2, 182640, Note_on_c, 0, 73, 100
2, 182684, Note_off_c, 0, 76, 100
2, 182688, Note_on_c, 0, 69, 100
2, 182732, Note_off_c, 0, 73, 100
2, 182736, Note_on_c, 0, 64, 100
2, 182780, Note_off_c, 0, 69, 100
2, 182784, Note_on_c, 0, 73, 100
2, 182828, Note_off_c, 0, 64, 100
2, 182832, Note_on_c, 0, 64, 100
2, 182876, Note_off_c, 0, 73, 100
2, 182880, Note_on_c, 0, 62, 100
2, 182924, Note_off_c, 0, 64, 100
2, 182928, Note_on_c, 0, 71, 100
2, 182972, Note_off_c, 0, 62, 100
2, 182976, Note_on_c, 0, 69, 100
2, 183020, Note_off_c, 0, 71, 100
2, 183024, Note_on_c, 0, 61, 100
2, 183068, Note_off_c, 0, 69, 100
2, 183072, Note_on_c, 0, 59, 100
2, 183116, Note_off_c, 0, 61, 100
2, 183120, Note_on_c, 0, 68, 100
2, 183164, Note_off_c, 0, 59, 100
2, 183164, Note_off_c, 0, 68, 100
2, 183168, Note_on_c, 0, 69, 100
2, 183260, Note_off_c, 0, 69, 100
2, 183264, Note_on_c, 0, 68, 100
2, 183312, Note_on_c, 0, 66, 100
2, 183356, Note_off_c, 0, 68, 100
2, 183360, Note_on_c, 0, 64, 100
2, 183404, Note_off_c, 0, 66, 100
2, 183408, Note_on_c, 0, 62, 100
2, 183452, Note_off_c, 0, 64, 100
2, 183456, Note_on_c, 0, 61, 100
2, 183500, Note_off_c, 0, 62, 100
2, 183504, Note_on_c, 0, 59, 100
2, 183548, Note_off_c, 0, 61, 100
2, 183552, Note_on_c, 0, 57, 100
2, 183596, Note_off_c, 0, 59, 100
2, 183600, Note_on_c, 0, 56, 100
2, 183644, Note_off_c, 0, 57, 100
2, 183648, Note_on_c, 0, 57, 100
2, 183692, Note_off_c, 0, 56, 100
2, 183696, Note_on_c, 0, 59, 100
2, 183740, Note_off_c, 0, 57, 100
2, 183744, Note_on_c, 0, 57, 100
2, 183788, Note_off_c, 0, 59, 100
2, 183792, Note_on_c, 0, 56, 100
2, 183836, Note_off_c, 0, 57, 100
2, 183840, Note_on_c, 0, 57, 100
2, 183884, Note_off_c, 0, 56, 100
2, 183888, Note_on_c, 0, 59, 100
2, 183932, Note_off_c, 0, 57, 100
2, 183936, Note_on_c, 0, 57, 100
2, 183980, Note_off_c, 0, 59, 100
2, 184316, Note_off_c, 0, 57, 100
2, 184320, Key_signature, 0, "minor"
2, 184512, Note_on_c, 0, 76, 70
2, 184892, Note_off_c, 0, 76, 100
2, 184896, Note_on_c, 0, 69, 70
2, 185276, Note_off_c, 0, 69, 100
2, 185280, Note_on_c, 0, 65, 70
2, 185280, Note_on_c, 0, 77, 70
2, 185468, Note_off_c, 0, 65, 100
2, 185468, Note_off_c, 0, 77, 100
2, 185664, Note_on_c, 0, 76, 70
2, 186044, Note_off_c, 0, 76, 100
2, 186048, Note_on_c, 0, 69, 70
2, 186428, Note_off_c, 0, 69, 100
2, 186432, Note_on_c, 0, 65, 70
2, 186432, Note_on_c, 0, 77, 70
2, 186620, Note_off_c, 0, 65, 100
2, 186620, Note_off_c, 0, 77, 100
2, 186816, Note_on_c, 0, 64, 70
2, 186816, Note_on_c, 0, 76, 70
2, 187196, Note_off_c, 0, 64, 100
2, 187196, Note_off_c, 0, 76, 100
2, 187200, Note_on_c, 0, 74, 70
2, 187580, Note_off_c, 0, 74, 100
2, 187584, Note_on_c, 0, 72, 70
2, 187772, Note_off_c, 0, 72, 100
2, 187968, Note_on_c, 0, 71, 70
2, 188348, Note_off_c, 0, 71, 100
2, 188352, Note_on_c, 0, 68, 70
2, 188732, Note_off_c, 0, 68, 100
2, 188736, Note_on_c, 0, 64, 70
2, 188924, Note_off_c, 0, 64, 100
2, 189024, Note_on_c, 0, 76, 100
2, 189116, Note_off_c, 0, 76, 100
2, 189120, Note_on_c, 0, 75, 100
2, 189212, Note_off_c, 0, 75, 100
2, 189216, Note_on_c, 0, 76, 100
2, 189308, Note_off_c, 0, 76, 100
2, 189408, Note_on_c, 0, 69, 100
2, 189500, Note_off_c, 0, 69, 100
2, 189504, Note_on_c, 0, 68, 100
2, 189596, Note_off_c, 0, 68, 100
2, 189600, Note_on_c, 0, 69, 100
2, 189692, Note_off_c, 0, 69, 100
2, 189792, Note_on_c, 0, 77, 100
2, 189884, Note_off_c, 0, 77, 100
2, 189888, Note_on_c, 0, 76, 100
2, 189980, Note_off_c, 0, 76, 100
2, 189984, Note_on_c, 0, 77, 100
2, 190076, Note_off_c, 0, 77, 100
2, 190176, Note_on_c, 0, 76, 100
2, 190268, Note_off_c, 0, 76, 100
2, 190272, Note_on_c, 0, 75, 100
2, 190364, Note_off_c, 0, 75, 100
2, 190368, Note_on_c, 0, 76, 100
2, 190460, Note_off_c, 0, 76, 100
2, 190560, Note_on_c, 0, 69, 100
2, 190652, Note_off_c, 0, 69, 100
2, 190656, Note_on_c, 0, 68, 100
2, 190748, Note_off_c, 0, 68, 100
2, 190752, Note_on_c, 0, 69, 100
2, 190844, Note_off_c, 0, 69, 100
2, 190944, Note_on_c, 0, 77, 100
2, 191036, Note_off_c, 0, 77, 100
2, 191040, Note_on_c, 0, 76, 100
2, 191132, Note_off_c, 0, 76, 100
2, 191136, Note_on_c, 0, 77, 100
2, 191228, Note_off_c, 0, 77, 100
2, 191328, Note_on_c, 0, 76, 100
2, 191420, Note_off_c, 0, 76, 100
2, 191424, Note_on_c, 0, 75, 100
2, 191516, Note_off_c, 0, 75, 100
2, 191520, Note_on_c, 0, 76, 100
2, 191612, Note_off_c, 0, 76, 100
2, 191712, Note_on_c, 0, 69, 100
2, 191804, Note_off_c, 0, 69, 100
2, 191808, Note_on_c, 0, 68, 100
2, 191900, Note_off_c, 0, 68, 100
2, 191904, Note_on_c, 0, 69, 100
2, 191996, Note_off_c, 0, 69, 100
2, 192096, Note_on_c, 0, 71, 100
2, 192188, Note_off_c, 0, 71, 100
2, 192192, Note_on_c, 0, 69, 100
2, 192284, Note_off_c, 0, 69, 100
2, 192288, Note_on_c, 0, 71, 100
2, 192380, Note_off_c, 0, 71, 100
2, 192480, Note_on_c, 0, 69, 100
2, 192572, Note_off_c, 0, 69, 100
2, 192576, Note_on_c, 0, 68, 100
2, 192668, Note_off_c, 0, 68, 100
2, 192672, Note_on_c, 0, 69, 100
2, 192764, Note_off_c, 0, 69, 100
2, 192864, Note_on_c, 0, 64, 100
2, 192956, Note_off_c, 0, 64, 100
2, 192960, Note_on_c, 0, 63, 100
2, 193052, Note_off_c, 0, 63, 100
2, 193056, Note_on_c, 0, 64, 100
2, 193148, Note_off_c, 0, 64, 100
2, 193248, Note_on_c, 0, 57, 100
2, 193340, Note_off_c, 0, 57, 100
2, 193344, Note_on_c, 0, 56, 100
2, 193436, Note_off_c, 0, 56, 100
2, 193440, Note_on_c, 0, 57, 100
2, 193532, Note_off_c, 0, 57, 100
2, 193728, Note_on_c, 0, 76, 70
2, 194108, Note_off_c, 0, 76, 100
2, 194112, Note_on_c, 0, 69, 70
2, 194492, Note_off_c, 0, 69, 100
2, 194496, Note_on_c, 0, 65, 70
2, 194496, Note_on_c, 0, 77, 70
2, 194684, Note_off_c, 0, 65, 100
2, 194684, Note_off_c, 0, 77, 100
2, 194880, Note_on_c, 0, 76, 70
2, 195260, Note_off_c, 0, 76, 100
2, 195264, Note_on_c, 0, 69, 70
2, 195644, Note_off_c, 0, 69, 100
2, 195648, Note_on_c, 0, 65, 70
2, 195648, Note_on_c, 0, 77, 70
2, 195836, Note_off_c, 0, 65, 100
2, 195836, Note_off_c, 0, 77, 100
2, 196032, Note_on_c, 0, 64, 70
2, 196032, Note_on_c, 0, 76, 70
2, 196412, Note_off_c, 0, 64, 100
2, 196412, Note_off_c, 0, 76, 100
2, 196416, Note_on_c, 0, 74, 70
2, 196796, Note_off_c, 0, 74, 100
2, 196800, Note_on_c, 0, 72, 70
2, 196988, Note_off_c, 0, 72, 100
2, 197184, Note_on_c, 0, 71, 70
2, 197564, Note_off_c, 0, 71, 100
2, 197568, Note_on_c, 0, 68, 70
2, 197948, Note_off_c, 0, 68, 100
2, 197952, Note_on_c, 0, 64, 70
2, 198140, Note_off_c, 0, 64, 100
2, 198240, Note_on_c, 0, 76, 100
2, 198332, Note_off_c, 0, 76, 100
2, 198336, Note_on_c, 0, 75, 100
2, 198428, Note_off_c, 0, 75, 100
2, 198432, Note_on_c, 0, 76, 100
2, 198524, Note_off_c, 0, 76, 100
2, 198624, Note_on_c, 0, 69, 100
2, 198716, Note_off_c, 0, 69, 100
2, 198720, Note_on_c, 0, 68, 100
2, 198812, Note_off_c, 0, 68, 100
2, 198816, Note_on_c, 0, 69, 100
2, 198908, Note_off_c, 0, 69, 100
2, 199008, Note_on_c, 0, 77, 100
2, 199100, Note_off_c, 0, 77, 100
2, 199104, Note_on_c, 0, 76, 100
2, 199196, Note_off_c, 0, 76, 100
2, 199200, Note_on_c, 0, 77, 100
2, 199292, Note_off_c, 0, 77, 100
2, 199392, Note_on_c, 0, 76, 100
2, 199484, Note_off_c, 0, 76, 100
2, 199488, Note_on_c, 0, 75, 100
2, 199580, Note_off_c, 0, 75, 100
2, 199584, Note_on_c, 0, 76, 100
2, 199676, Note_off_c, 0, 76, 100
2, 199776, Note_on_c, 0, 69, 100
2, 199868, Note_off_c, 0, 69, 100
2, 199872, Note_on_c, 0, 68, 100
2, 199964, Note_off_c, 0, 68, 100
2, 199968, Note_on_c, 0, 69, 100
2, 200060, Note_off_c, 0, 69, 100
2, 200160, Note_on_c, 0, 77, 100
2, 200252, Note_off_c, 0, 77, 100
2, 200256, Note_on_c, 0, 76, 100
2, 200348, Note_off_c, 0, 76, 100
2, 200352, Note_on_c, 0, 77, 100
2, 200444, Note_off_c, 0, 77, 100
2, 200544, Note_on_c, 0, 76, 100
2, 200636, Note_off_c, 0, 76, 100
2, 200640, Note_on_c, 0, 75, 100
2, 200732, Note_off_c, 0, 75, 100
2, 200736, Note_on_c, 0, 76, 100
2, 200828, Note_off_c, 0, 76, 100
2, 200928, Note_on_c, 0, 69, 100
2, 201020, Note_off_c, 0, 69, 100
2, 201024, Note_on_c, 0, 68, 100
2, 201116, Note_off_c, 0, 68, 100
2, 201120, Note_on_c, 0, 69, 100
2, 201212, Note_off_c, 0, 69, 100
2, 201312, Note_on_c, 0, 71, 100
2, 201404, Note_off_c, 0, 71, 100
2, 201408, Note_on_c, 0, 69, 100
2, 201500, Note_off_c, 0, 69, 100
2, 201504, Note_on_c, 0, 71, 100
2, 201596, Note_off_c, 0, 71, 100
2, 201696, Note_on_c, 0, 69, 100
2, 201788, Note_off_c, 0, 69, 100
2, 201792, Note_on_c, 0, 68, 100
2, 201884, Note_off_c, 0, 68, 100
2, 201888, Note_on_c, 0, 69, 100
2, 201980, Note_off_c, 0, 69, 100
2, 202080, Note_on_c, 0, 64, 100
2, 202172, Note_off_c, 0, 64, 100
2, 202176, Note_on_c, 0, 63, 100
2, 202268, Note_off_c, 0, 63, 100
2, 202272, Note_on_c, 0, 64, 100
2, 202364, Note_off_c, 0, 64, 100
2, 202464, Note_on_c, 0, 57, 100
2, 202556, Note_off_c, 0, 57, 100
2, 202560, Note_on_c, 0, 56, 100
2, 202652, Note_off_c, 0, 56, 100
2, 202656, Note_on_c, 0, 57, 100
2, 202748, Note_off_c, 0, 57, 100
2, 202944, Note_on_c, 0, 74, 100
2, 202944, Note_on_c, 0, 64, 100
2, 203324, Note_off_c, 0, 74, 100
2, 203324, Note_off_c, 0, 64, 100
2, 203328, Note_on_c, 0, 64, 100
2, 203328, Note_on_c, 0, 71, 100
2, 203708, Note_off_c, 0, 71, 100
2, 203712, Note_on_c, 0, 68, 100
2, 203900, Note_off_c, 0, 64, 100
2, 203900, Note_off_c, 0, 68, 100
2, 204096, Note_on_c, 0, 69, 100
2, 204096, Note_on_c, 0, 64, 100
2, 204476, Note_off_c, 0, 69, 100
2, 204476, Note_off_c, 0, 64, 100
2, 204480, Note_on_c, 0, 64, 100
2, 204480, Note_on_c, 0, 72, 100
2, 204860, Note_off_c, 0, 72, 100
2, 204864, Note_on_c, 0, 76, 100
2, 205052, Note_off_c, 0, 64, 100
2, 205052, Note_off_c, 0, 76, 100
2, 205248, Note_on_c, 0, 77, 100
2, 205248, Note_on_c, 0, 74, 100
2, 205436, Note_off_c, 0, 77, 100
2, 205436, Note_off_c, 0, 74, 100
2, 205632, Note_on_c, 0, 74, 100
2, 205632, Note_on_c, 0, 77, 100
2, 205820, Note_off_c, 0, 74, 100
2, 205820, Note_off_c, 0, 77, 100
2, 205824, Note_on_c, 0, 72, 100
2, 205824, Note_on_c, 0, 76, 100
2, 206012, Note_off_c, 0, 72, 100
2, 206012, Note_off_c, 0, 76, 100
2, 206016, Note_on_c, 0, 71, 100
2, 206016, Note_on_c, 0, 74, 100
2, 206204, Note_off_c, 0, 71, 100
2, 206204, Note_off_c, 0, 74, 100
2, 206208, Note_on_c, 0, 72, 100
2, 206396, Note_off_c, 0, 72, 100
2, 206400, Note_on_c, 0, 81, 100
2, 206588, Note_off_c, 0, 81, 100
2, 206592, Note_on_c, 0, 80, 100
2, 206780, Note_off_c, 0, 80, 100
2, 206784, Note_on_c, 0, 81, 100
2, 206972, Note_off_c, 0, 81, 100
2, 206976, Note_on_c, 0, 68, 90
2, 207164, Note_off_c, 0, 68, 100
2, 207168, Note_on_c, 0, 69, 80
2, 207356, Note_off_c, 0, 69, 100
2, 207552, Note_on_c, 0, 88, 70
2, 207552, Note_on_c, 0, 76, 70
2, 207932, Note_off_c, 0, 88, 100
2, 207932, Note_off_c, 0, 76, 100
2, 207936, Note_on_c, 0, 81, 70
2, 207936, Note_on_c, 0, 69, 70
2, 208316, Note_off_c, 0, 81, 100
2, 208316, Note_off_c, 0, 69, 100
2, 208320, Note_on_c, 0, 89, 70
2, 208320, Note_on_c, 0, 77, 70
2, 208508, Note_off_c, 0, 89, 100
2, 208508, Note_off_c, 0, 77, 100
2, 208704, Note_on_c, 0, 88, 70
2, 208704, Note_on_c, 0, 76, 70
2, 209084, Note_off_c, 0, 88, 100
2, 209084, Note_off_c, 0, 76, 100
2, 209088, Note_on_c, 0, 81, 70
2, 209088, Note_on_c, 0, 69, 70
2, 209468, Note_off_c, 0, 81, 100
2, 209468, Note_off_c, 0, 69, 100
2, 209472, Note_on_c, 0, 89, 70
2, 209472, Note_on_c, 0, 77, 70
2, 209660, Note_off_c, 0, 89, 100
2, 209660, Note_off_c, 0, 77, 100
2, 209856, Note_on_c, 0, 88, 100
2, 209856, Note_on_c, 0, 76, 100
2, 210236, Note_off_c, 0, 88, 100
2, 210236, Note_off_c, 0, 76, 100
2, 210240, Note_on_c, 0, 81, 100
2, 210240, Note_on_c, 0, 69, 100
2, 210428, Note_off_c, 0, 81, 100
2, 210428, Note_off_c, 0, 69, 100
2, 210432, Note_on_c, 0, 83, 100
2, 210432, Note_on_c, 0, 71, 100
2, 210620, Note_off_c, 0, 83, 100
2, 210620, Note_off_c, 0, 71, 100
2, 210624, Note_on_c, 0, 80, 100
2, 210624, Note_on_c, 0, 68, 100
2, 210812, Note_off_c, 0, 80, 100
2, 210812, Note_off_c, 0, 68, 100
2, 210912, Note_on_c, 0, 81, 100
2, 210912, Note_on_c, 0, 69, 100
2, 211004, Note_off_c, 0, 81, 100
2, 211004, Note_off_c, 0, 69, 100
2, 211008, Note_on_c, 0, 80, 100
2, 211100, Note_off_c, 0, 80, 100
2, 211104, Note_on_c, 0, 81, 100
2, 211196, Note_off_c, 0, 81, 100
2, 211296, Note_on_c, 0, 64, 100
2, 211296, Note_on_c, 0, 76, 100
2, 211388, Note_off_c, 0, 64, 100
2, 211388, Note_off_c, 0, 76, 100
2, 211392, Note_on_c, 0, 75, 100
2, 211484, Note_off_c, 0, 75, 100
2, 211488, Note_on_c, 0, 76, 100
2, 211580, Note_off_c, 0, 76, 100
2, 211680, Note_on_c, 0, 57, 100
2, 211680, Note_on_c, 0, 69, 100
2, 211772, Note_off_c, 0, 57, 100
2, 211772, Note_off_c, 0, 69, 100
2, 211776, Note_on_c, 0, 68, 100
2, 211868, Note_off_c, 0, 68, 100
2, 211872, Note_on_c, 0, 69, 100
2, 211964, Note_off_c, 0, 69, 100
2, 212160, Note_on_c, 0, 74, 100
2, 212160, Note_on_c, 0, 64, 100
2, 212540, Note_off_c, 0, 74, 100
2, 212540, Note_off_c, 0, 64, 100
2, 212544, Note_on_c, 0, 64, 100
2, 212544, Note_on_c, 0, 71, 100
2, 212924, Note_off_c, 0, 71, 100
2, 212928, Note_on_c, 0, 68, 100
2, 213116, Note_off_c, 0, 64, 100
2, 213116, Note_off_c, 0, 68, 100
2, 213312, Note_on_c, 0, 69, 100
2, 213312, Note_on_c, 0, 64, 100
2, 213692, Note_off_c, 0, 69, 100
2, 213692, Note_off_c, 0, 64, 100
2, 213696, Note_on_c, 0, 64, 100
2, 213696, Note_on_c, 0, 72, 100
2, 214076, Note_off_c, 0, 72, 100
2, 214080, Note_on_c, 0, 76, 100
2, 214268, Note_off_c, 0, 64, 100
2, 214268, Note_off_c, 0, 76, 100
2, 214464, Note_on_c, 0, 77, 100
2, 214464, Note_on_c, 0, 74, 100
2, 214652, Note_off_c, 0, 77, 100
2, 214652, Note_off_c, 0, 74, 100
2, 214848, Note_on_c, 0, 74, 100
2, 214848, Note_on_c, 0, 77, 100
2, 215036, Note_off_c, 0, 74, 100
2, 215036, Note_off_c, 0, 77, 100
2, 215040, Note_on_c, 0, 72, 100
2, 215040, Note_on_c, 0, 76, 100
2, 215228, Note_off_c, 0, 72, 100
2, 215228, Note_off_c, 0, 76, 100
2, 215232, Note_on_c, 0, 71, 100
2, 215232, Note_on_c, 0, 74, 100
2, 215420, Note_off_c, 0, 71, 100
2, 215420, Note_off_c, 0, 74, 100
2, 215424, Note_on_c, 0, 72, 100
2, 215612, Note_off_c, 0, 72, 100
2, 215616, Note_on_c, 0, 81, 100
2, 215804, Note_off_c, 0, 81, 100
2, 215808, Note_on_c, 0, 80, 100
2, 215996, Note_off_c, 0, 80, 100
2, 216000, Note_on_c, 0, 81, 100
2, 216188, Note_off_c, 0, 81, 100
2, 216192, Note_on_c, 0, 68, 90
2, 216380, Note_off_c, 0, 68, 100
2, 216384, Note_on_c, 0, 69, 80
2, 216572, Note_off_c, 0, 69, 100
2, 216768, Note_on_c, 0, 88, 70
2, 216768, Note_on_c, 0, 76, 70
2, 217148, Note_off_c, 0, 88, 100
2, 217148, Note_off_c, 0, 76, 100
2, 217152, Note_on_c, 0, 81, 70
2, 217152, Note_on_c, 0, 69, 70
2, 217532, Note_off_c, 0, 81, 100
2, 217532, Note_off_c, 0, 69, 100
2, 217536, Note_on_c, 0, 89, 70
2, 217536, Note_on_c, 0, 77, 70
2, 217724, Note_off_c, 0, 89, 100
2, 217724, Note_off_c, 0, 77, 100
2, 217920, Note_on_c, 0, 88, 70
2, 217920, Note_on_c, 0, 76, 70
2, 218300, Note_off_c, 0, 88, 100
2, 218300, Note_off_c, 0, 76, 100
2, 218304, Note_on_c, 0, 81, 70
2, 218304, Note_on_c, 0, 69, 70
2, 218684, Note_off_c, 0, 81, 100
2, 218684, Note_off_c, 0, 69, 100
2, 218688, Note_on_c, 0, 89, 70
2, 218688, Note_on_c, 0, 77, 70
2, 218876, Note_off_c, 0, 89, 100
2, 218876, Note_off_c, 0, 77, 100
2, 219072, Note_on_c, 0, 88, 100
2, 219072, Note_on_c, 0, 76, 100
2, 219452, Note_off_c, 0, 88, 100
2, 219452, Note_off_c, 0, 76, 100
2, 219456, Note_on_c, 0, 81, 100
2, 219456, Note_on_c, 0, 69, 100
2, 219644, Note_off_c, 0, 81, 100
2, 219644, Note_off_c, 0, 69, 100
2, 219648, Note_on_c, 0, 83, 100
2, 219648, Note_on_c, 0, 71, 100
2, 219836, Note_off_c, 0, 83, 100
2, 219836, Note_off_c, 0, 71, 100
2, 219840, Note_on_c, 0, 80, 100
2, 219840, Note_on_c, 0, 68, 100
2, 220028, Note_off_c, 0, 80, 100
2, 220028, Note_off_c, 0, 68, 100
2, 220128, Note_on_c, 0, 81, 100
2, 220128, Note_on_c, 0, 69, 100
2, 220220, Note_off_c, 0, 81, 100
2, 220220, Note_off_c, 0, 69, 100
2, 220224, Note_on_c, 0, 80, 100
2, 220316, Note_off_c, 0, 80, 100
2, 220320, Note_on_c, 0, 81, 100
2, 220412, Note_off_c, 0, 81, 100
2, 220512, Note_on_c, 0, 64, 100
2, 220512, Note_on_c, 0, 76, 100
2, 220604, Note_off_c, 0, 64, 100
2, 220604, Note_off_c, 0, 76, 100
2, 220608, Note_on_c, 0, 75, 100
2, 220700, Note_off_c, 0, 75, 100
2, 220704, Note_on_c, 0, 76, 100
2, 220796, Note_off_c, 0, 76, 100
2, 220896, Note_on_c, 0, 57, 100
2, 220896, Note_on_c, 0, 69, 100
2, 220988, Note_off_c, 0, 57, 100
2, 220988, Note_off_c, 0, 69, 100
2, 220992, Note_on_c, 0, 68, 100
2, 221084, Note_off_c, 0, 68, 100
2, 221088, Note_on_c, 0, 69, 100
2, 221180, Note_off_c, 0, 69, 100
2, 221184, Key_signature, 3, "major"
2, 221184, Note_on_c, 0, 73, 70
2, 221308, Note_off_c, 0, 73, 100
2, 221312, Note_on_c, 0, 76, 70
2, 221436, Note_off_c, 0, 76, 100
2, 221440, Note_on_c, 0, 74, 70
2, 221564, Note_off_c, 0, 74, 100
2, 221568, Note_on_c, 0, 73, 70
2, 221692, Note_off_c, 0, 73, 100
2, 221696, Note_on_c, 0, 71, 70
2, 221820, Note_off_c, 0, 71, 100
2, 221824, Note_on_c, 0, 69, 70
2, 221948, Note_off_c, 0, 69, 100
2, 221952, Note_on_c, 0, 78, 70
2, 221952, Note_on_c, 0, 81, 70
2, 222076, Note_off_c, 0, 78, 100
2, 222076, Note_off_c, 0, 81, 100
2, 222080, Note_on_c, 0, 76, 70
2, 222080, Note_on_c, 0, 80, 70
2, 222204, Note_off_c, 0, 76, 100
2, 222204, Note_off_c, 0, 80, 100
2, 222208, Note_on_c, 0, 74, 70
2, 222208, Note_on_c, 0, 78, 70
2, 222332, Note_off_c, 0, 74, 100
2, 222332, Note_off_c, 0, 78, 100
2, 222336, Note_on_c, 0, 76, 70
2, 222336, Note_on_c, 0, 73, 70
2, 222460, Note_off_c, 0, 76, 100
2, 222460, Note_off_c, 0, 73, 100
2, 222464, Note_on_c, 0, 76, 70
2, 222588, Note_off_c, 0, 76, 100
2, 222592, Note_on_c, 0, 74, 70
2, 222716, Note_off_c, 0, 74, 100
2, 222720, Note_on_c, 0, 73, 70
2, 222844, Note_off_c, 0, 73, 100
2, 222848, Note_on_c, 0, 71, 70
2, 222972, Note_off_c, 0, 71, 100
2, 222976, Note_on_c, 0, 69, 70
2, 223100, Note_off_c, 0, 69, 100
2, 223104, Note_on_c, 0, 78, 70
2, 223104, Note_on_c, 0, 81, 70
2, 223228, Note_off_c, 0, 78, 100
2, 223228, Note_off_c, 0, 81, 100
2, 223232, Note_on_c, 0, 76, 70
2, 223232, Note_on_c, 0, 80, 70
2, 223356, Note_off_c, 0, 76, 100
2, 223356, Note_off_c, 0, 80, 100
2, 223360, Note_on_c, 0, 74, 70
2, 223360, Note_on_c, 0, 78, 70
2, 223484, Note_off_c, 0, 74, 100
2, 223484, Note_off_c, 0, 78, 100
2, 223488, Note_on_c, 0, 73, 70
2, 223488, Note_on_c, 0, 76, 70
2, 223612, Note_off_c, 0, 73, 100
2, 223612, Note_off_c, 0, 76, 100
2, 223616, Note_on_c, 0, 78, 70
2, 223740, Note_off_c, 0, 78, 100
2, 223744, Note_on_c, 0, 76, 70
2, 223868, Note_off_c, 0, 76, 100
2, 223872, Note_on_c, 0, 71, 70
2, 223872, Note_on_c, 0, 74, 70
2, 223996, Note_off_c, 0, 71, 100
2, 223996, Note_off_c, 0, 74, 100
2, 224000, Note_on_c, 0, 76, 70
2, 224124, Note_off_c, 0, 76, 100
2, 224128, Note_on_c, 0, 74, 70
2, 224252, Note_off_c, 0, 74, 100
2, 224256, Note_on_c, 0, 69, 70
2, 224256, Note_on_c, 0, 73, 70
2, 224380, Note_off_c, 0, 69, 100
2, 224380, Note_off_c, 0, 73, 100
2, 224384, Note_on_c, 0, 74, 70
2, 224508, Note_off_c, 0, 74, 100
2, 224512, Note_on_c, 0, 73, 70
2, 224636, Note_off_c, 0, 73, 100
2, 224640, Note_on_c, 0, 71, 70
2, 224640, Note_on_c, 0, 68, 70
2, 225020, Note_off_c, 0, 71, 100
2, 225020, Note_off_c, 0, 68, 100
2, 225792, Note_on_c, 0, 73, 100
2, 225916, Note_off_c, 0, 73, 100
2, 225920, Note_on_c, 0, 76, 100
2, 226044, Note_off_c, 0, 76, 100
2, 226048, Note_on_c, 0, 74, 100
2, 226172, Note_off_c, 0, 74, 100
2, 226176, Note_on_c, 0, 73, 100
2, 226224, Note_on_c, 0, 74, 100
2, 226268, Note_off_c, 0, 73, 100
2, 226272, Note_on_c, 0, 73, 100
2, 226304, Note_on_c, 0, 71, 100
2, 226316, Note_off_c, 0, 74, 100
2, 226364, Note_off_c, 0, 73, 100
2, 226428, Note_off_c, 0, 71, 100
2, 226432, Note_on_c, 0, 69, 100
2, 226556, Note_off_c, 0, 69, 100
2, 226560, Note_on_c, 0, 78, 100
2, 226560, Note_on_c, 0, 81, 100
2, 226684, Note_off_c, 0, 78, 100
2, 226684, Note_off_c, 0, 81, 100
2, 226688, Note_on_c, 0, 76, 100
2, 226688, Note_on_c, 0, 80, 100
2, 226812, Note_off_c, 0, 76, 100
2, 226812, Note_off_c, 0, 80, 100
2, 226816, Note_on_c, 0, 74, 100
2, 226816, Note_on_c, 0, 78, 100
2, 226940, Note_off_c, 0, 74, 100
2, 226940, Note_off_c, 0, 78, 100
2, 226944, Note_on_c, 0, 76, 100
2, 226944, Note_on_c, 0, 73, 100
2, 227068, Note_off_c, 0, 76, 100
2, 227068, Note_off_c, 0, 73, 100
2, 227072, Note_on_c, 0, 76, 100
2, 227196, Note_off_c, 0, 76, 100
2, 227200, Note_on_c, 0, 74, 100
2, 227324, Note_off_c, 0, 74, 100
2, 227328, Note_on_c, 0, 73, 100
2, 227452, Note_off_c, 0, 73, 100
2, 227456, Note_on_c, 0, 71, 100
2, 227580, Note_off_c, 0, 71, 100
2, 227584, Note_on_c, 0, 69, 100
2, 227708, Note_off_c, 0, 69, 100
2, 227712, Note_on_c, 0, 78, 100
2, 227712, Note_on_c, 0, 81, 100
2, 227836, Note_off_c, 0, 78, 100
2, 227836, Note_off_c, 0, 81, 100
2, 227840, Note_on_c, 0, 76, 100
2, 227840, Note_on_c, 0, 80, 100
2, 227964, Note_off_c, 0, 76, 100
2, 227964, Note_off_c, 0, 80, 100
2, 227968, Note_on_c, 0, 74, 100
2, 227968, Note_on_c, 0, 78, 100
2, 228092, Note_off_c, 0, 74, 100
2, 228092, Note_off_c, 0, 78, 100
2, 228096, Note_on_c, 0, 73, 100
2, 228096, Note_on_c, 0, 76, 100
2, 228220, Note_off_c, 0, 73, 100
2, 228220, Note_off_c, 0, 76, 100
2, 228224, Note_on_c, 0, 81, 100
2, 228348, Note_off_c, 0, 81, 100
2, 228352, Note_on_c, 0, 76, 100
2, 228476, Note_off_c, 0, 76, 100
2, 228480, Note_on_c, 0, 69, 100
2, 228480, Note_on_c, 0, 73, 100
2, 228604, Note_off_c, 0, 69, 100
2, 228604, Note_off_c, 0, 73, 100
2, 228608, Note_on_c, 0, 73, 100
2, 228608, Note_on_c, 0, 76, 100
2, 228732, Note_off_c, 0, 73, 100
2, 228732, Note_off_c, 0, 76, 100
2, 228736, Note_on_c, 0, 69, 100
2, 228736, Note_on_c, 0, 73, 100
2, 228860, Note_off_c, 0, 69, 100
2, 228860, Note_off_c, 0, 73, 100
2, 228864, Note_on_c, 0, 76, 100
2, 228864, Note_on_c, 0, 71, 100
2, 228912, Note_on_c, 0, 74, 100
2, 228956, Note_off_c, 0, 76, 100
2, 228988, Note_off_c, 0, 71, 100
2, 228988, Note_off_c, 0, 74, 100
2, 228992, Note_on_c, 0, 69, 100
2, 228992, Note_on_c, 0, 73, 100
2, 229116, Note_off_c, 0, 69, 100
2, 229116, Note_off_c, 0, 73, 100
2, 229120, Note_on_c, 0, 68, 100
2, 229120, Note_on_c, 0, 71, 100
2, 229244, Note_off_c, 0, 68, 100
2, 229244, Note_off_c, 0, 71, 100
2, 229248, Note_on_c, 0, 69, 100
2, 229628, Note_off_c, 0, 69, 100
2, 230400, Note_on_c, 0, 73, 70
2, 230524, Note_off_c, 0, 73, 100
2, 230528, Note_on_c, 0, 76, 70
2, 230652, Note_off_c, 0, 76, 100
2, 230656, Note_on_c, 0, 74, 70
2, 230780, Note_off_c, 0, 74, 100
2, 230784, Note_on_c, 0, 73, 70
2, 230908, Note_off_c, 0, 73, 100
2, 230912, Note_on_c, 0, 71, 70
2, 231036, Note_off_c, 0, 71, 100
2, 231040, Note_on_c, 0, 69, 70
2, 231164, Note_off_c, 0, 69, 100
2, 231168, Note_on_c, 0, 78, 70
2, 231168, Note_on_c, 0, 81, 70
2, 231292, Note_off_c, 0, 78, 100
2, 231292, Note_off_c, 0, 81, 100
2, 231296, Note_on_c, 0, 76, 70
2, 231296, Note_on_c, 0, 80, 70
2, 231420, Note_off_c, 0, 76, 100
2, 231420, Note_off_c, 0, 80, 100
2, 231424, Note_on_c, 0, 74, 70
2, 231424, Note_on_c, 0, 78, 70
2, 231548, Note_off_c, 0, 74, 100
2, 231548, Note_off_c, 0, 78, 100
2, 231552, Note_on_c, 0, 76, 70
2, 231552, Note_on_c, 0, 73, 70
2, 231676, Note_off_c, 0, 76, 100
2, 231676, Note_off_c, 0, 73, 100
2, 231680, Note_on_c, 0, 76, 70
2, 231804, Note_off_c, 0, 76, 100
2, 231808, Note_on_c, 0, 74, 70
2, 231932, Note_off_c, 0, 74, 100
2, 231936, Note_on_c, 0, 73, 70
2, 232060, Note_off_c, 0, 73, 100
2, 232064, Note_on_c, 0, 71, 70
2, 232188, Note_off_c, 0, 71, 100
2, 232192, Note_on_c, 0, 69, 70
2, 232316, Note_off_c, 0, 69, 100
2, 232320, Note_on_c, 0, 78, 70
2, 232320, Note_on_c, 0, 81, 70
2, 232444, Note_off_c, 0, 78, 100
2, 232444, Note_off_c, 0, 81, 100
2, 232448, Note_on_c, 0, 76, 70
2, 232448, Note_on_c, 0, 80, 70
2, 232572, Note_off_c, 0, 76, 100
2, 232572, Note_off_c, 0, 80, 100
2, 232576, Note_on_c, 0, 74, 70
2, 232576, Note_on_c, 0, 78, 70
2, 232700, Note_off_c, 0, 74, 100
2, 232700, Note_off_c, 0, 78, 100
2, 232704, Note_on_c, 0, 73, 70
2, 232704, Note_on_c, 0, 76, 70
2, 232828, Note_off_c, 0, 73, 100
2, 232828, Note_off_c, 0, 76, 100
2, 232832, Note_on_c, 0, 78, 70
2, 232956, Note_off_c, 0, 78, 100
2, 232960, Note_on_c, 0, 76, 70
2, 233084, Note_off_c, 0, 76, 100
2, 233088, Note_on_c, 0, 71, 70
2, 233088, Note_on_c, 0, 74, 70
2, 233212, Note_off_c, 0, 71, 100
2, 233212, Note_off_c, 0, 74, 100
2, 233216, Note_on_c, 0, 76, 70
2, 233340, Note_off_c, 0, 76, 100
2, 233344, Note_on_c, 0, 74, 70
2, 233468, Note_off_c, 0, 74, 100
2, 233472, Note_on_c, 0, 69, 70
2, 233472, Note_on_c, 0, 73, 70
2, 233596, Note_off_c, 0, 69, 100
2, 233596, Note_off_c, 0, 73, 100
2, 233600, Note_on_c, 0, 74, 70
2, 233724, Note_off_c, 0, 74, 100
2, 233728, Note_on_c, 0, 73, 70
2, 233852, Note_off_c, 0, 73, 100
2, 233856, Note_on_c, 0, 71, 70
2, 233856, Note_on_c, 0, 68, 70
2, 234236, Note_off_c, 0, 71, 100
2, 234236, Note_off_c, 0, 68, 100
2, 235008, Note_on_c, 0, 73, 100
2, 235132, Note_off_c, 0, 73, 100
2, 235136, Note_on_c, 0, 76, 100
2, 235260, Note_off_c, 0, 76, 100
2, 235264, Note_on_c, 0, 74, 100
2, 235388, Note_off_c, 0, 74, 100
2, 235392, Note_on_c, 0, 73, 100
2, 235440, Note_on_c, 0, 74, 100
2, 235484, Note_off_c, 0, 73, 100
2, 235488, Note_on_c, 0, 73, 100
2, 235520, Note_on_c, 0, 71, 100
2, 235532, Note_off_c, 0, 74, 100
2, 235580, Note_off_c, 0, 73, 100
2, 235644, Note_off_c, 0, 71, 100
2, 235648, Note_on_c, 0, 69, 100
2, 235772, Note_off_c, 0, 69, 100
2, 235776, Note_on_c, 0, 78, 100
2, 235776, Note_on_c, 0, 81, 100
2, 235900, Note_off_c, 0, 78, 100
2, 235900, Note_off_c, 0, 81, 100
2, 235904, Note_on_c, 0, 76, 100
2, 235904, Note_on_c, 0, 80, 100
2, 236028, Note_off_c, 0, 76, 100
2, 236028, Note_off_c, 0, 80, 100
2, 236032, Note_on_c, 0, 74, 100
2, 236032, Note_on_c, 0, 78, 100
2, 236156, Note_off_c, 0, 74, 100
2, 236156, Note_off_c, 0, 78, 100
2, 236160, Note_on_c, 0, 76, 100
2, 236160, Note_on_c, 0, 73, 100
2, 236284, Note_off_c, 0, 76, 100
2, 236284, Note_off_c, 0, 73, 100
2, 236288, Note_on_c, 0, 76, 100
2, 236412, Note_off_c, 0, 76, 100
2, 236416, Note_on_c, 0, 74, 100
2, 236540, Note_off_c, 0, 74, 100
2, 236544, Note_on_c, 0, 73, 100
2, 236668, Note_off_c, 0, 73, 100
2, 236672, Note_on_c, 0, 71, 100
2, 236796, Note_off_c, 0, 71, 100
2, 236800, Note_on_c, 0, 69, 100
2, 236924, Note_off_c, 0, 69, 100
2, 236928, Note_on_c, 0, 78, 100
2, 236928, Note_on_c, 0, 81, 100
2, 237052, Note_off_c, 0, 78, 100
2, 237052, Note_off_c, 0, 81, 100
2, 237056, Note_on_c, 0, 76, 100
2, 237056, Note_on_c, 0, 80, 100
2, 237180, Note_off_c, 0, 76, 100
2, 237180, Note_off_c, 0, 80, 100
2, 237184, Note_on_c, 0, 74, 100
2, 237184, Note_on_c, 0, 78, 100
2, 237308, Note_off_c, 0, 74, 100
2, 237308, Note_off_c, 0, 78, 100
2, 237312, Note_on_c, 0, 73, 100
2, 237312, Note_on_c, 0, 76, 100
2, 237436, Note_off_c, 0, 73, 100
2, 237436, Note_off_c, 0, 76, 100
2, 237440, Note_on_c, 0, 81, 100
2, 237564, Note_off_c, 0, 81, 100
2, 237568, Note_on_c, 0, 76, 100
2, 237692, Note_off_c, 0, 76, 100
2, 237696, Note_on_c, 0, 69, 100
2, 237696, Note_on_c, 0, 73, 100
2, 237820, Note_off_c, 0, 69, 100
2, 237820, Note_off_c, 0, 73, 100
2, 237824, Note_on_c, 0, 73, 100
2, 237824, Note_on_c, 0, 76, 100
2, 237948, Note_off_c, 0, 73, 100
2, 237948, Note_off_c, 0, 76, 100
2, 237952, Note_on_c, 0, 69, 100
2, 237952, Note_on_c, 0, 73, 100
2, 238076, Note_off_c, 0, 69, 100
2, 238076, Note_off_c, 0, 73, 100
2, 238080, Note_on_c, 0, 76, 100
2, 238080, Note_on_c, 0, 71, 100
2, 238128, Note_on_c, 0, 74, 100
2, 238172, Note_off_c, 0, 76, 100
2, 238204, Note_off_c, 0, 71, 100
2, 238204, Note_off_c, 0, 74, 100
2, 238208, Note_on_c, 0, 69, 100
2, 238208, Note_on_c, 0, 73, 100
2, 238332, Note_off_c, 0, 69, 100
2, 238332, Note_off_c, 0, 73, 100
2, 238336, Note_on_c, 0, 68, 100
2, 238336, Note_on_c, 0, 71, 100
2, 238460, Note_off_c, 0, 68, 100
2, 238460, Note_off_c, 0, 71, 100
2, 238464, Note_on_c, 0, 69, 100
2, 238844, Note_off_c, 0, 69, 100
2, 239616, Note_on_c, 0, 64, 100
2, 239616, Note_on_c, 0, 71, 100
2, 239616, Note_on_c, 0, 74, 100
2, 239996, Note_off_c, 0, 64, 100
2, 239996, Note_off_c, 0, 71, 100
2, 239996, Note_off_c, 0, 74, 100
2, 240000, Note_on_c, 0, 74, 100
2, 240124, Note_off_c, 0, 74, 100
2, 240128, Note_on_c, 0, 71, 100
2, 240252, Note_off_c, 0, 71, 100
2, 240256, Note_on_c, 0, 68, 100
2, 240380, Note_off_c, 0, 68, 100
2, 240384, Note_on_c, 0, 64, 100
2, 240508, Note_off_c, 0, 64, 100
2, 240512, Note_on_c, 0, 66, 100
2, 240636, Note_off_c, 0, 66, 100
2, 240640, Note_on_c, 0, 62, 100
2, 240764, Note_off_c, 0, 62, 100
2, 240768, Note_on_c, 0, 61, 100
2, 240892, Note_off_c, 0, 61, 100
2, 240896, Note_on_c, 0, 64, 100
2, 241020, Note_off_c, 0, 64, 100
2, 241024, Note_on_c, 0, 69, 100
2, 241148, Note_off_c, 0, 69, 100
2, 241152, Note_on_c, 0, 73, 100
2, 241532, Note_off_c, 0, 73, 100
2, 241536, Note_on_c, 0, 76, 100
2, 241916, Note_off_c, 0, 76, 100
2, 241920, Note_on_c, 0, 74, 100
2, 241968, Note_on_c, 0, 86, 100
2, 242012, Note_off_c, 0, 74, 100
2, 242300, Note_off_c, 0, 86, 100
2, 242304, Note_on_c, 0, 86, 100
2, 242428, Note_off_c, 0, 86, 100
2, 242432, Note_on_c, 0, 83, 100
2, 242556, Note_off_c, 0, 83, 100
2, 242560, Note_on_c, 0, 80, 100
2, 242684, Note_off_c, 0, 80, 100
2, 242688, Note_on_c, 0, 76, 100
2, 242812, Note_off_c, 0, 76, 100
2, 242816, Note_on_c, 0, 78, 100
2, 242940, Note_off_c, 0, 78, 100
2, 242944, Note_on_c, 0, 74, 100
2, 243068, Note_off_c, 0, 74, 100
2, 243072, Note_on_c, 0, 73, 100
2, 243196, Note_off_c, 0, 73, 100
2, 243200, Note_on_c, 0, 76, 100
2, 243324, Note_off_c, 0, 76, 100
2, 243328, Note_on_c, 0, 74, 100
2, 243452, Note_off_c, 0, 74, 100
2, 243456, Note_on_c, 0, 73, 100
2, 243580, Note_off_c, 0, 73, 100
2, 243584, Note_on_c, 0, 69, 100
2, 243708, Note_off_c, 0, 69, 100
2, 243712, Note_on_c, 0, 64, 100
2, 243836, Note_off_c, 0, 64, 100
2, 243840, Note_on_c, 0, 61, 100
2, 243964, Note_off_c, 0, 61, 100
2, 243968, Note_on_c, 0, 64, 90
2, 244092, Note_off_c, 0, 64, 100
2, 244096, Note_on_c, 0, 69, 80
2, 244220, Note_off_c, 0, 69, 100
2, 244224, Note_on_c, 0, 73, 70
2, 244348, Note_off_c, 0, 73, 100
2, 244352, Note_on_c, 0, 76, 70
2, 244476, Note_off_c, 0, 76, 100
2, 244480, Note_on_c, 0, 74, 70
2, 244604, Note_off_c, 0, 74, 100
2, 244608, Note_on_c, 0, 73, 70
2, 244656, Note_on_c, 0, 74, 70
2, 244700, Note_off_c, 0, 73, 100
2, 244704, Note_on_c, 0, 73, 70
2, 244736, Note_on_c, 0, 71, 70
2, 244748, Note_off_c, 0, 74, 100
2, 244796, Note_off_c, 0, 73, 100
2, 244860, Note_off_c, 0, 71, 100
2, 244864, Note_on_c, 0, 69, 70
2, 244988, Note_off_c, 0, 69, 100
2, 244992, Note_on_c, 0, 78, 70
2, 244992, Note_on_c, 0, 81, 70
2, 245116, Note_off_c, 0, 78, 100
2, 245116, Note_off_c, 0, 81, 100
2, 245120, Note_on_c, 0, 76, 70
2, 245120, Note_on_c, 0, 80, 70
2, 245244, Note_off_c, 0, 76, 100
2, 245244, Note_off_c, 0, 80, 100
2, 245248, Note_on_c, 0, 74, 70
2, 245248, Note_on_c, 0, 78, 70
2, 245372, Note_off_c, 0, 74, 100
2, 245372, Note_off_c, 0, 78, 100
2, 245376, Note_on_c, 0, 76, 70
2, 245376, Note_on_c, 0, 73, 70
2, 245500, Note_off_c, 0, 76, 100
2, 245500, Note_off_c, 0, 73, 100
2, 245504, Note_on_c, 0, 76, 70
2, 245628, Note_off_c, 0, 76, 100
2, 245632, Note_on_c, 0, 74, 70
2, 245756, Note_off_c, 0, 74, 100
2, 245760, Note_on_c, 0, 73, 70
2, 245884, Note_off_c, 0, 73, 100
2, 245888, Note_on_c, 0, 71, 70
2, 246012, Note_off_c, 0, 71, 100
2, 246016, Note_on_c, 0, 69, 70
2, 246140, Note_off_c, 0, 69, 100
2, 246144, Note_on_c, 0, 78, 70
2, 246144, Note_on_c, 0, 81, 70
2, 246268, Note_off_c, 0, 78, 100
2, 246268, Note_off_c, 0, 81, 100
2, 246272, Note_on_c, 0, 76, 70
2, 246272, Note_on_c, 0, 80, 70
2, 246396, Note_off_c, 0, 76, 100
2, 246396, Note_off_c, 0, 80, 100
2, 246400, Note_on_c, 0, 74, 70
2, 246400, Note_on_c, 0, 78, 70
2, 246524, Note_off_c, 0, 74, 100
2, 246524, Note_off_c, 0, 78, 100
2, 246528, Note_on_c, 0, 73, 100
2, 246528, Note_on_c, 0, 76, 100
2, 246652, Note_off_c, 0, 73, 100
2, 246652, Note_off_c, 0, 76, 100
2, 246656, Note_on_c, 0, 81, 100
2, 246780, Note_off_c, 0, 81, 100
2, 246784, Note_on_c, 0, 76, 100
2, 246908, Note_off_c, 0, 76, 100
2, 246912, Note_on_c, 0, 69, 100
2, 246912, Note_on_c, 0, 73, 100
2, 247036, Note_off_c, 0, 69, 100
2, 247036, Note_off_c, 0, 73, 100
2, 247040, Note_on_c, 0, 73, 100
2, 247040, Note_on_c, 0, 76, 100
2, 247164, Note_off_c, 0, 73, 100
2, 247164, Note_off_c, 0, 76, 100
2, 247168, Note_on_c, 0, 69, 100
2, 247168, Note_on_c, 0, 73, 100
2, 247292, Note_off_c, 0, 69, 100
2, 247292, Note_off_c, 0, 73, 100
2, 247296, Note_on_c, 0, 76, 100
2, 247296, Note_on_c, 0, 71, 100
2, 247344, Note_on_c, 0, 74, 100
2, 247388, Note_off_c, 0, 76, 100
2, 247420, Note_off_c, 0, 71, 100
2, 247420, Note_off_c, 0, 74, 100
2, 247424, Note_on_c, 0, 69, 100
2, 247424, Note_on_c, 0, 73, 100
2, 247548, Note_off_c, 0, 69, 100
2, 247548, Note_off_c, 0, 73, 100
2, 247552, Note_on_c, 0, 68, 100
2, 247552, Note_on_c, 0, 71, 100
2, 247676, Note_off_c, 0, 68, 100
2, 247676, Note_off_c, 0, 71, 100
2, 247680, Note_on_c, 0, 61, 100
2, 247680, Note_on_c, 0, 69, 100
2, 248060, Note_off_c, 0, 61, 100
2, 248060, Note_off_c, 0, 69, 100
2, 248832, Note_on_c, 0, 64, 100
2, 248832, Note_on_c, 0, 71, 100
2, 248832, Note_on_c, 0, 74, 100
2, 249212, Note_off_c, 0, 64, 100
2, 249212, Note_off_c, 0, 71, 100
2, 249212, Note_off_c, 0, 74, 100
2, 249216, Note_on_c, 0, 74, 100
2, 249340, Note_off_c, 0, 74, 100
2, 249344, Note_on_c, 0, 71, 100
2, 249468, Note_off_c, 0, 71, 100
2, 249472, Note_on_c, 0, 68, 100
2, 249596, Note_off_c, 0, 68, 100
2, 249600, Note_on_c, 0, 64, 100
2, 249724, Note_off_c, 0, 64, 100
2, 249728, Note_on_c, 0, 66, 100
2, 249852, Note_off_c, 0, 66, 100
2, 249856, Note_on_c, 0, 62, 100
2, 249980, Note_off_c, 0, 62, 100
2, 249984, Note_on_c, 0, 61, 100
2, 250108, Note_off_c, 0, 61, 100
2, 250112, Note_on_c, 0, 64, 100
2, 250236, Note_off_c, 0, 64, 100
2, 250240, Note_on_c, 0, 69, 100
2, 250364, Note_off_c, 0, 69, 100
2, 250368, Note_on_c, 0, 73, 100
2, 250748, Note_off_c, 0, 73, 100
2, 250752, Note_on_c, 0, 76, 100
2, 251132, Note_off_c, 0, 76, 100
2, 251136, Note_on_c, 0, 74, 100
2, 251184, Note_on_c, 0, 86, 100
2, 251228, Note_off_c, 0, 74, 100
2, 251516, Note_off_c, 0, 86, 100
2, 251520, Note_on_c, 0, 86, 100
2, 251644, Note_off_c, 0, 86, 100
2, 251648, Note_on_c, 0, 83, 100
2, 251772, Note_off_c, 0, 83, 100
2, 251776, Note_on_c, 0, 80, 100
2, 251900, Note_off_c, 0, 80, 100
2, 251904, Note_on_c, 0, 76, 100
2, 252028, Note_off_c, 0, 76, 100
2, 252032, Note_on_c, 0, 78, 100
2, 252156, Note_off_c, 0, 78, 100
2, 252160, Note_on_c, 0, 74, 100
2, 252284, Note_off_c, 0, 74, 100
2, 252288, Note_on_c, 0, 73, 100
2, 252412, Note_off_c, 0, 73, 100
2, 252416, Note_on_c, 0, 76, 100
2, 252540, Note_off_c, 0, 76, 100
2, 252544, Note_on_c, 0, 74, 100
2, 252668, Note_off_c, 0, 74, 100
2, 252672, Note_on_c, 0, 73, 100
2, 252796, Note_off_c, 0, 73, 100
2, 252800, Note_on_c, 0, 69, 100
2, 252924, Note_off_c, 0, 69, 100
2, 252928, Note_on_c, 0, 64, 100
2, 253052, Note_off_c, 0, 64, 100
2, 253056, Note_on_c, 0, 61, 100
2, 253180, Note_off_c, 0, 61, 100
2, 253184, Note_on_c, 0, 64, 90
2, 253308, Note_off_c, 0, 64, 100
2, 253312, Note_on_c, 0, 69, 80
2, 253436, Note_off_c, 0, 69, 100
2, 253440, Note_on_c, 0, 73, 70
2, 253564, Note_off_c, 0, 73, 100
2, 253568, Note_on_c, 0, 76, 70
2, 253692, Note_off_c, 0, 76, 100
2, 253696, Note_on_c, 0, 74, 70
2, 253820, Note_off_c, 0, 74, 100
2, 253824, Note_on_c, 0, 73, 70
2, 253872, Note_on_c, 0, 74, 70
2, 253916, Note_off_c, 0, 73, 100
2, 253920, Note_on_c, 0, 73, 70
2, 253952, Note_on_c, 0, 71, 70
2, 253964, Note_off_c, 0, 74, 100
2, 254012, Note_off_c, 0, 73, 100
2, 254076, Note_off_c, 0, 71, 100
2, 254080, Note_on_c, 0, 69, 70
2, 254204, Note_off_c, 0, 69, 100
2, 254208, Note_on_c, 0, 78, 70
2, 254208, Note_on_c, 0, 81, 70
2, 254332, Note_off_c, 0, 78, 100
2, 254332, Note_off_c, 0, 81, 100
2, 254336, Note_on_c, 0, 76, 70
2, 254336, Note_on_c, 0, 80, 70
2, 254460, Note_off_c, 0, 76, 100
2, 254460, Note_off_c, 0, 80, 100
2, 254464, Note_on_c, 0, 74, 70
2, 254464, Note_on_c, 0, 78, 70
2, 254588, Note_off_c, 0, 74, 100
2, 254588, Note_off_c, 0, 78, 100
2, 254592, Note_on_c, 0, 76, 70
2, 254592, Note_on_c, 0, 73, 70
2, 254716, Note_off_c, 0, 76, 100
2, 254716, Note_off_c, 0, 73, 100
2, 254720, Note_on_c, 0, 76, 70
2, 254844, Note_off_c, 0, 76, 100
2, 254848, Note_on_c, 0, 74, 70
2, 254972, Note_off_c, 0, 74, 100
2, 254976, Note_on_c, 0, 73, 70
2, 255100, Note_off_c, 0, 73, 100
2, 255104, Note_on_c, 0, 71, 70
2, 255228, Note_off_c, 0, 71, 100
2, 255232, Note_on_c, 0, 69, 70
2, 255356, Note_off_c, 0, 69, 100
2, 255360, Note_on_c, 0, 78, 70
2, 255360, Note_on_c, 0, 81, 70
2, 255484, Note_off_c, 0, 78, 100
2, 255484, Note_off_c, 0, 81, 100
2, 255488, Note_on_c, 0, 76, 70
2, 255488, Note_on_c, 0, 80, 70
2, 255612, Note_off_c, 0, 76, 100
2, 255612, Note_off_c, 0, 80, 100
2, 255616, Note_on_c, 0, 74, 70
2, 255616, Note_on_c, 0, 78, 70
2, 255740, Note_off_c, 0, 74, 100
2, 255740, Note_off_c, 0, 78, 100
2, 255744, Note_on_c, 0, 73, 100
2, 255744, Note_on_c, 0, 76, 100
2, 255868, Note_off_c, 0, 73, 100
2, 255868, Note_off_c, 0, 76, 100
2, 255872, Note_on_c, 0, 81, 100
2, 255996, Note_off_c, 0, 81, 100
2, 256000, Note_on_c, 0, 76, 100
2, 256124, Note_off_c, 0, 76, 100
2, 256128, Note_on_c, 0, 69, 100
2, 256128, Note_on_c, 0, 73, 100
2, 256252, Note_off_c, 0, 69, 100
2, 256252, Note_off_c, 0, 73, 100
2, 256256, Note_on_c, 0, 73, 100
2, 256256, Note_on_c, 0, 76, 100
2, 256380, Note_off_c, 0, 73, 100
2, 256380, Note_off_c, 0, 76, 100
2, 256384, Note_on_c, 0, 69, 100
2, 256384, Note_on_c, 0, 73, 100
2, 256508, Note_off_c, 0, 69, 100
2, 256508, Note_off_c, 0, 73, 100
2, 256512, Note_on_c, 0, 76, 100
2, 256512, Note_on_c, 0, 71, 100
2, 256560, Note_on_c, 0, 74, 100
2, 256604, Note_off_c, 0, 76, 100
2, 256636, Note_off_c, 0, 71, 100
2, 256636, Note_off_c, 0, 74, 100
2, 256640, Note_on_c, 0, 69, 100
2, 256640, Note_on_c, 0, 73, 100
2, 256764, Note_off_c, 0, 69, 100
2, 256764, Note_off_c, 0, 73, 100
2, 256768, Note_on_c, 0, 68, 100
2, 256768, Note_on_c, 0, 71, 100
2, 256892, Note_off_c, 0, 68, 100
2, 256892, Note_off_c, 0, 71, 100
2, 256896, Note_on_c, 0, 61, 100
2, 256896, Note_on_c, 0, 69, 100
2, 257660, Note_off_c, 0, 61, 100
2, 257660, Note_off_c, 0, 69, 100
2, 257664, Note_on_c, 0, 64, 100
2, 257664, Note_on_c, 0, 69, 100
2, 257788, Note_off_c, 0, 64, 100
2, 257788, Note_off_c, 0, 69, 100
2, 257792, Note_on_c, 0, 68, 100
2, 257916, Note_off_c, 0, 68, 100
2, 257920, Note_on_c, 0, 69, 100
2, 258044, Note_off_c, 0, 69, 100
2, 258048, Note_on_c, 0, 66, 100
2, 258048, Note_on_c, 0, 71, 100
2, 258428, Note_off_c, 0, 66, 100
2, 258428, Note_off_c, 0, 71, 100
2, 258432, Note_on_c, 0, 71, 100
2, 258556, Note_off_c, 0, 71, 100
2, 258560, Note_on_c, 0, 74, 100
2, 258560, Note_on_c, 0, 78, 100
2, 258684, Note_off_c, 0, 74, 100
2, 258684, Note_off_c, 0, 78, 100
2, 258688, Note_on_c, 0, 73, 100
2, 258688, Note_on_c, 0, 76, 100
2, 258812, Note_off_c, 0, 73, 100
2, 258812, Note_off_c, 0, 76, 100
2, 258816, Note_on_c, 0, 71, 100
2, 258816, Note_on_c, 0, 74, 100
2, 258940, Note_off_c, 0, 71, 100
2, 258940, Note_off_c, 0, 74, 100
2, 258944, Note_on_c, 0, 69, 100
2, 258944, Note_on_c, 0, 73, 100
2, 259068, Note_off_c, 0, 69, 100
2, 259068, Note_off_c, 0, 73, 100
2, 259072, Note_on_c, 0, 68, 100
2, 259072, Note_on_c, 0, 71, 100
2, 259196, Note_off_c, 0, 68, 100
2, 259196, Note_off_c, 0, 71, 100
2, 259200, Note_on_c, 0, 69, 100
2, 259580, Note_off_c, 0, 69, 100
2, 259584, Note_on_c, 0, 69, 98
2, 259708, Note_off_c, 0, 69, 100
2, 259712, Note_on_c, 0, 73, 97
2, 259836, Note_off_c, 0, 73, 100
2, 259840, Note_on_c, 0, 78, 96
2, 259964, Note_off_c, 0, 78, 100
2, 259968, Note_on_c, 0, 81, 95
2, 260092, Note_off_c, 0, 81, 100
2, 260096, Note_on_c, 0, 85, 94
2, 260220, Note_off_c, 0, 85, 100
2, 260224, Note_on_c, 0, 81, 93
2, 260348, Note_off_c, 0, 81, 100
2, 260352, Note_on_c, 0, 71, 93
2, 260732, Note_off_c, 0, 71, 100
2, 260736, Note_on_c, 0, 71, 90
2, 260860, Note_off_c, 0, 71, 100
2, 260864, Note_on_c, 0, 74, 89
2, 260864, Note_on_c, 0, 78, 89
2, 260988, Note_off_c, 0, 74, 100
2, 260988, Note_off_c, 0, 78, 100
2, 260992, Note_on_c, 0, 73, 88
2, 260992, Note_on_c, 0, 76, 88
2, 261116, Note_off_c, 0, 73, 100
2, 261116, Note_off_c, 0, 76, 100
2, 261120, Note_on_c, 0, 71, 87
2, 261120, Note_on_c, 0, 74, 87
2, 261244, Note_off_c, 0, 71, 100
2, 261244, Note_off_c, 0, 74, 100
2, 261248, Note_on_c, 0, 69, 86
2, 261248, Note_on_c, 0, 73, 86
2, 261372, Note_off_c, 0, 69, 100
2, 261372, Note_off_c, 0, 73, 100
2, 261376, Note_on_c, 0, 68, 85
2, 261376, Note_on_c, 0, 71, 85
2, 261500, Note_off_c, 0, 68, 100
2, 261500, Note_off_c, 0, 71, 100
2, 261504, Note_on_c, 0, 69, 85
2, 261884, Note_off_c, 0, 69, 100
2, 261888, Note_on_c, 0, 64, 82
2, 262012, Note_off_c, 0, 64, 100
2, 262016, Note_on_c, 0, 69, 81
2, 262140, Note_off_c, 0, 69, 100
2, 262144, Note_on_c, 0, 73, 80
2, 262268, Note_off_c, 0, 73, 100
2, 262272, Note_on_c, 0, 76, 79
2, 262396, Note_off_c, 0, 76, 100
2, 262400, Note_on_c, 0, 73, 78
2, 262524, Note_off_c, 0, 73, 100
2, 262528, Note_on_c, 0, 69, 77
2, 262652, Note_off_c, 0, 69, 100
2, 262656, Note_on_c, 0, 61, 77
2, 262656, Note_on_c, 0, 64, 77
2, 263036, Note_off_c, 0, 61, 100
2, 263036, Note_off_c, 0, 64, 100
2, 263040, Note_on_c, 0, 57, 74
2, 263040, Note_on_c, 0, 61, 74
2, 263164, Note_off_c, 0, 57, 100
2, 263164, Note_off_c, 0, 61, 100
2, 263168, Note_on_c, 0, 61, 73
2, 263168, Note_on_c, 0, 64, 73
2, 263292, Note_off_c, 0, 61, 100
2, 263292, Note_off_c, 0, 64, 100
2, 263296, Note_on_c, 0, 64, 72
2, 263296, Note_on_c, 0, 69, 72
2, 263420, Note_off_c, 0, 64, 100
2, 263420, Note_off_c, 0, 69, 100
2, 263424, Note_on_c, 0, 69, 71
2, 263424, Note_on_c, 0, 73, 71
2, 263548, Note_off_c, 0, 69, 100
2, 263548, Note_off_c, 0, 73, 100
2, 263552, Note_on_c, 0, 64, 70
2, 263552, Note_on_c, 0, 69, 70
2, 263676, Note_off_c, 0, 64, 100
2, 263676, Note_off_c, 0, 69, 100
2, 263680, Note_on_c, 0, 61, 70
2, 263680, Note_on_c, 0, 64, 70
2, 263804, Note_off_c, 0, 61, 100
2, 263804, Note_off_c, 0, 64, 100
2, 263808, Note_on_c, 0, 57, 70
2, 263808, Note_on_c, 0, 61, 70
2, 264188, Note_off_c, 0, 57, 100
2, 264188, Note_off_c, 0, 61, 100
2, 264192, Note_on_c, 0, 57, 70
2, 264192, Note_on_c, 0, 61, 70
2, 264572, Note_off_c, 0, 57, 100
2, 264572, Note_off_c, 0, 61, 100
2, 264576, Note_on_c, 0, 57, 70
2, 264576, Note_on_c, 0, 61, 70
2, 264956, Note_off_c, 0, 57, 100
2, 264956, Note_off_c, 0, 61, 100
2, 264960, Note_on_c, 0, 57, 70
2, 264960, Note_on_c, 0, 61, 70
2, 265724, Note_off_c, 0, 57, 100
2, 265724, Note_off_c, 0, 61, 100
2, 266496, Control_c, 0, 11, 0
2, 266688, Note_on_c, 0, 57, 1
2, 266780, Note_off_c, 0, 57, 100
2, 266780, End_track
3, 0, Start_track
3, 0, Title_t, "Piano Left"
3, 0, Control_c, 1, 0, 0
3, 0, Program_c, 1, 0
3, 0, Control_c, 1, 7, 100
3, 0, Control_c, 1, 10, 52
3, 0, Control_c, 1, 91, 127
3, 0, Key_signature, 3, "major"
3, 0, Note_on_c, 1, 45, 70
3, 0, Note_on_c, 1, 57, 70
3, 764, Note_off_c, 1, 45, 100
3, 764, Note_off_c, 1, 57, 100
3, 768, Note_on_c, 1, 50, 70
3, 1148, Note_off_c, 1, 50, 100
3, 1152, Note_on_c, 1, 45, 70
3, 1152, Note_on_c, 1, 57, 70
3, 1916, Note_off_c, 1, 45, 100
3, 1916, Note_off_c, 1, 57, 100
3, 1920, Note_on_c, 1, 50, 70
3, 2300, Note_off_c, 1, 50, 100
3, 2304, Note_on_c, 1, 45, 70
3, 2304, Note_on_c, 1, 57, 70
3, 2684, Note_off_c, 1, 45, 100
3, 2684, Note_off_c, 1, 57, 100
3, 2688, Note_on_c, 1, 50, 70
3, 3068, Note_off_c, 1, 50, 100
3, 3072, Note_on_c, 1, 51, 70
3, 3452, Note_off_c, 1, 51, 100
3, 3456, Note_on_c, 1, 52, 70
3, 3836, Note_off_c, 1, 52, 100
3, 3840, Note_on_c, 1, 40, 70
3, 4220, Note_off_c, 1, 40, 100
3, 4224, Note_on_c, 1, 52, 70
3, 4604, Note_off_c, 1, 52, 100
3, 4608, Note_on_c, 1, 45, 100
3, 4608, Note_on_c, 1, 57, 100
3, 5372, Note_off_c, 1, 45, 100
3, 5372, Note_off_c, 1, 57, 100
3, 5376, Note_on_c, 1, 50, 100
3, 5756, Note_off_c, 1, 50, 100
3, 5760, Note_on_c, 1, 45, 100
3, 5760, Note_on_c, 1, 57, 100
3, 6524, Note_off_c, 1, 45, 100
3, 6524, Note_off_c, 1, 57, 100
3, 6528, Note_on_c, 1, 50, 100
3, 6908, Note_off_c, 1, 50, 100
3, 6912, Note_on_c, 1, 45, 100
3, 7292, Note_off_c, 1, 45, 100
3, 7296, Note_on_c, 1, 52, 100
3, 7676, Note_off_c, 1, 52, 100
3, 7680, Note_on_c, 1, 40, 100
3, 8060, Note_off_c, 1, 40, 100
3, 8064, Note_on_c, 1, 57, 100
3, 8444, Note_off_c, 1, 57, 100
3, 8448, Note_on_c, 1, 52, 100
3, 8828, Note_off_c, 1, 52, 100
3, 8832, Note_on_c, 1, 45, 100
3, 9212, Note_off_c, 1, 45, 100
3, 9216, Note_on_c, 1, 45, 70
3, 9216, Note_on_c, 1, 57, 70
3, 9980, Note_off_c, 1, 45, 100
3, 9980, Note_off_c, 1, 57, 100
3, 9984, Note_on_c, 1, 50, 70
3, 10364, Note_off_c, 1, 50, 100
3, 10368, Note_on_c, 1, 45, 70
3, 10368, Note_on_c, 1, 57, 70
3, 11132, Note_off_c, 1, 45, 100
3, 11132, Note_off_c, 1, 57, 100
3, 11136, Note_on_c, 1, 50, 70
3, 11516, Note_off_c, 1, 50, 100
3, 11520, Note_on_c, 1, 45, 70
3, 11520, Note_on_c, 1, 57, 70
3, 11900, Note_off_c, 1, 45, 100
3, 11900, Note_off_c, 1, 57, 100
3, 11904, Note_on_c, 1, 50, 70
3, 12284, Note_off_c, 1, 50, 100
3, 12288, Note_on_c, 1, 51, 70
3, 12668, Note_off_c, 1, 51, 100
3, 12672, Note_on_c, 1, 52, 70
3, 13052, Note_off_c, 1, 52, 100
3, 13056, Note_on_c, 1, 40, 70
3, 13436, Note_off_c, 1, 40, 100
3, 13440, Note_on_c, 1, 52, 70
3, 13820, Note_off_c, 1, 52, 100
3, 13824, Note_on_c, 1, 45, 100
3, 13824, Note_on_c, 1, 57, 100
3, 14588, Note_off_c, 1, 45, 100
3, 14588, Note_off_c, 1, 57, 100
3, 14592, Note_on_c, 1, 50, 100
3, 14972, Note_off_c, 1, 50, 100
3, 14976, Note_on_c, 1, 45, 100
3, 14976, Note_on_c, 1, 57, 100
3, 15740, Note_off_c, 1, 45, 100
3, 15740, Note_off_c, 1, 57, 100
3, 15744, Note_on_c, 1, 50, 100
3, 16124, Note_off_c, 1, 50, 100
3, 16128, Note_on_c, 1, 45, 100
3, 16508, Note_off_c, 1, 45, 100
3, 16512, Note_on_c, 1, 52, 100
3, 16892, Note_off_c, 1, 52, 100
3, 16896, Note_on_c, 1, 40, 100
3, 17276, Note_off_c, 1, 40, 100
3, 17280, Note_on_c, 1, 57, 100
3, 17660, Note_off_c, 1, 57, 100
3, 17664, Note_on_c, 1, 52, 100
3, 18044, Note_off_c, 1, 52, 100
3, 18048, Note_on_c, 1, 45, 100
3, 18428, Note_off_c, 1, 45, 100
3, 18432, Note_on_c, 1, 44, 100
3, 18620, Note_off_c, 1, 44, 100
3, 18624, Note_on_c, 1, 52, 100
3, 18812, Note_off_c, 1, 52, 100
3, 18816, Note_on_c, 1, 47, 100
3, 19004, Note_off_c, 1, 47, 100
3, 19008, Note_on_c, 1, 52, 100
3, 19196, Note_off_c, 1, 52, 100
3, 19200, Note_on_c, 1, 44, 100
3, 19388, Note_off_c, 1, 44, 100
3, 19392, Note_on_c, 1, 52, 100
3, 19580, Note_off_c, 1, 52, 100
3, 19584, Note_on_c, 1, 45, 100
3, 19772, Note_off_c, 1, 45, 100
3, 19776, Note_on_c, 1, 52, 100
3, 19964, Note_off_c, 1, 52, 100
3, 19968, Note_on_c, 1, 49, 100
3, 20156, Note_off_c, 1, 49, 100
3, 20160, Note_on_c, 1, 52, 100
3, 20348, Note_off_c, 1, 52, 100
3, 20352, Note_on_c, 1, 45, 100
3, 20540, Note_off_c, 1, 45, 100
3, 20544, Note_on_c, 1, 52, 100
3, 20732, Note_off_c, 1, 52, 100
3, 20736, Note_on_c, 1, 47, 100
3, 20924, Note_off_c, 1, 47, 100
3, 20928, Note_on_c, 1, 52, 100
3, 21116, Note_off_c, 1, 52, 100
3, 21120, Note_on_c, 1, 50, 100
3, 21308, Note_off_c, 1, 50, 100
3, 21312, Note_on_c, 1, 52, 100
3, 21500, Note_off_c, 1, 52, 100
3, 21504, Note_on_c, 1, 47, 100
3, 21692, Note_off_c, 1, 47, 100
3, 21696, Note_on_c, 1, 52, 100
3, 21884, Note_off_c, 1, 52, 100
3, 21888, Note_on_c, 1, 45, 100
3, 22268, Note_off_c, 1, 45, 100
3, 22272, Note_on_c, 1, 57, 100
3, 22652, Note_off_c, 1, 57, 100
3, 22656, Note_on_c, 1, 45, 90
3, 23036, Note_off_c, 1, 45, 100
3, 23040, Note_on_c, 1, 45, 70
3, 23040, Note_on_c, 1, 57, 70
3, 23804, Note_off_c, 1, 45, 100
3, 23804, Note_off_c, 1, 57, 100
3, 23808, Note_on_c, 1, 50, 70
3, 24188, Note_off_c, 1, 50, 100
3, 24192, Note_on_c, 1, 45, 70
3, 24192, Note_on_c, 1, 57, 70
3, 24956, Note_off_c, 1, 45, 100
3, 24956, Note_off_c, 1, 57, 100
3, 24960, Note_on_c, 1, 50, 70
3, 25340, Note_off_c, 1, 50, 100
3, 25344, Note_on_c, 1, 45, 100
3, 25724, Note_off_c, 1, 45, 100
3, 25728, Note_on_c, 1, 52, 100
3, 26108, Note_off_c, 1, 52, 100
3, 26112, Note_on_c, 1, 40, 100
3, 26492, Note_off_c, 1, 40, 100
3, 26496, Note_on_c, 1, 57, 100
3, 26876, Note_off_c, 1, 57, 100
3, 26880, Note_on_c, 1, 52, 100
3, 27260, Note_off_c, 1, 52, 100
3, 27264, Note_on_c, 1, 45, 100
3, 27644, Note_off_c, 1, 45, 100
3, 27648, Note_on_c, 1, 44, 100
3, 27836, Note_off_c, 1, 44, 100
3, 27840, Note_on_c, 1, 52, 100
3, 28028, Note_off_c, 1, 52, 100
3, 28032, Note_on_c, 1, 47, 100
3, 28220, Note_off_c, 1, 47, 100
3, 28224, Note_on_c, 1, 52, 100
3, 28412, Note_off_c, 1, 52, 100
3, 28416, Note_on_c, 1, 44, 100
3, 28604, Note_off_c, 1, 44, 100
3, 28608, Note_on_c, 1, 52, 100
3, 28796, Note_off_c, 1, 52, 100
3, 28800, Note_on_c, 1, 45, 100
3, 28988, Note_off_c, 1, 45, 100
3, 28992, Note_on_c, 1, 52, 100
3, 29180, Note_off_c, 1, 52, 100
3, 29184, Note_on_c, 1, 49, 100
3, 29372, Note_off_c, 1, 49, 100
3, 29376, Note_on_c, 1, 52, 100
3, 29564, Note_off_c, 1, 52, 100
3, 29568, Note_on_c, 1, 45, 100
3, 29756, Note_off_c, 1, 45, 100
3, 29760, Note_on_c, 1, 52, 100
3, 29948, Note_off_c, 1, 52, 100
3, 29952, Note_on_c, 1, 47, 100
3, 30140, Note_off_c, 1, 47, 100
3, 30144, Note_on_c, 1, 52, 100
3, 30332, Note_off_c, 1, 52, 100
3, 30336, Note_on_c, 1, 50, 100
3, 30524, Note_off_c, 1, 50, 100
3, 30528, Note_on_c, 1, 52, 100
3, 30716, Note_off_c, 1, 52, 100
3, 30720, Note_on_c, 1, 47, 100
3, 30908, Note_off_c, 1, 47, 100
3, 30912, Note_on_c, 1, 52, 100
3, 31100, Note_off_c, 1, 52, 100
3, 31104, Note_on_c, 1, 45, 100
3, 31484, Note_off_c, 1, 45, 100
3, 31488, Note_on_c, 1, 57, 100
3, 31868, Note_off_c, 1, 57, 100
3, 31872, Note_on_c, 1, 45, 90
3, 32252, Note_off_c, 1, 45, 100
3, 32256, Note_on_c, 1, 45, 70
3, 32256, Note_on_c, 1, 57, 70
3, 33020, Note_off_c, 1, 45, 100
3, 33020, Note_off_c, 1, 57, 100
3, 33024, Note_on_c, 1, 50, 70
3, 33404, Note_off_c, 1, 50, 100
3, 33408, Note_on_c, 1, 45, 70
3, 33408, Note_on_c, 1, 57, 70
3, 34172, Note_off_c, 1, 45, 100
3, 34172, Note_off_c, 1, 57, 100
3, 34176, Note_on_c, 1, 50, 70
3, 34556, Note_off_c, 1, 50, 100
3, 34560, Note_on_c, 1, 45, 100
3, 34940, Note_off_c, 1, 45, 100
3, 34944, Note_on_c, 1, 52, 100
3, 35324, Note_off_c, 1, 52, 100
3, 35328, Note_on_c, 1, 40, 100
3, 35708, Note_off_c, 1, 40, 100
3, 35712, Note_on_c, 1, 57, 100
3, 36092, Note_off_c, 1, 57, 100
3, 36096, Note_on_c, 1, 52, 100
3, 36476, Note_off_c, 1, 52, 100
3, 36480, Note_on_c, 1, 45, 100
3, 36860, Note_off_c, 1, 45, 100
3, 36864, Note_on_c, 1, 57, 70
3, 37244, Note_off_c, 1, 57, 100
3, 37248, Note_on_c, 1, 61, 70
3, 37628, Note_off_c, 1, 61, 100
3, 37632, Note_on_c, 1, 62, 70
3, 38012, Note_off_c, 1, 62, 100
3, 38016, Note_on_c, 1, 61, 70
3, 38396, Note_off_c, 1, 61, 100
3, 38400, Note_on_c, 1, 57, 70
3, 38780, Note_off_c, 1, 57, 100
3, 38784, Note_on_c, 1, 62, 70
3, 39164, Note_off_c, 1, 62, 100
3, 39168, Note_on_c, 1, 45, 70
3, 39168, Note_on_c, 1, 57, 70
3, 39548, Note_off_c, 1, 45, 100
3, 39548, Note_off_c, 1, 57, 100
3, 39552, Note_on_c, 1, 40, 70
3, 39552, Note_on_c, 1, 52, 70
3, 39932, Note_off_c, 1, 40, 100
3, 39932, Note_off_c, 1, 52, 100
3, 39936, Note_on_c, 1, 45, 70
3, 39936, Note_on_c, 1, 57, 70
3, 40316, Note_off_c, 1, 45, 100
3, 40316, Note_off_c, 1, 57, 100
3, 40320, Note_on_c, 1, 52, 70
3, 40700, Note_off_c, 1, 52, 100
3, 40704, Note_on_c, 1, 40, 70
3, 41084, Note_off_c, 1, 40, 100
3, 41088, Note_on_c, 1, 52, 70
3, 41468, Note_off_c, 1, 52, 100
3, 41472, Note_on_c, 1, 57, 100
3, 41852, Note_off_c, 1, 57, 100
3, 41856, Note_on_c, 1, 61, 100
3, 42236, Note_off_c, 1, 61, 100
3, 42240, Note_on_c, 1, 62, 100
3, 42620, Note_off_c, 1, 62, 100
3, 42624, Note_on_c, 1, 61, 100
3, 43004, Note_off_c, 1, 61, 100
3, 43008, Note_on_c, 1, 57, 100
3, 43388, Note_off_c, 1, 57, 100
3, 43392, Note_on_c, 1, 62, 100
3, 43772, Note_off_c, 1, 62, 100
3, 43776, Note_on_c, 1, 57, 100
3, 44156, Note_off_c, 1, 57, 100
3, 44160, Note_on_c, 1, 52, 100
3, 44540, Note_off_c, 1, 52, 100
3, 44544, Note_on_c, 1, 40, 100
3, 44924, Note_off_c, 1, 40, 100
3, 44928, Note_on_c, 1, 45, 100
3, 45308, Note_off_c, 1, 45, 100
3, 45312, Note_on_c, 1, 57, 100
3, 45692, Note_off_c, 1, 57, 100
3, 45696, Note_on_c, 1, 45, 100
3, 46076, Note_off_c, 1, 45, 100
3, 46080, Note_on_c, 1, 57, 70
3, 46460, Note_off_c, 1, 57, 100
3, 46464, Note_on_c, 1, 61, 70
3, 46844, Note_off_c, 1, 61, 100
3, 46848, Note_on_c, 1, 62, 70
3, 47228, Note_off_c, 1, 62, 100
3, 47232, Note_on_c, 1, 61, 70
3, 47612, Note_off_c, 1, 61, 100
3, 47616, Note_on_c, 1, 57, 70
3, 47996, Note_off_c, 1, 57, 100
3, 48000, Note_on_c, 1, 62, 70
3, 48380, Note_off_c, 1, 62, 100
3, 48384, Note_on_c, 1, 45, 70
3, 48384, Note_on_c, 1, 57, 70
3, 48764, Note_off_c, 1, 45, 100
3, 48764, Note_off_c, 1, 57, 100
3, 48768, Note_on_c, 1, 40, 70
3, 48768, Note_on_c, 1, 52, 70
3, 49148, Note_off_c, 1, 40, 100
3, 49148, Note_off_c, 1, 52, 100
3, 49152, Note_on_c, 1, 45, 70
3, 49152, Note_on_c, 1, 57, 70
3, 49532, Note_off_c, 1, 45, 100
3, 49532, Note_off_c, 1, 57, 100
3, 49536, Note_on_c, 1, 52, 70
3, 49916, Note_off_c, 1, 52, 100
3, 49920, Note_on_c, 1, 40, 70
3, 50300, Note_off_c, 1, 40, 100
3, 50304, Note_on_c, 1, 52, 70
3, 50684, Note_off_c, 1, 52, 100
3, 50688, Note_on_c, 1, 57, 100
3, 51068, Note_off_c, 1, 57, 100
3, 51072, Note_on_c, 1, 61, 100
3, 51452, Note_off_c, 1, 61, 100
3, 51456, Note_on_c, 1, 62, 100
3, 51836, Note_off_c, 1, 62, 100
3, 51840, Note_on_c, 1, 61, 100
3, 52220, Note_off_c, 1, 61, 100
3, 52224, Note_on_c, 1, 57, 100
3, 52604, Note_off_c, 1, 57, 100
3, 52608, Note_on_c, 1, 62, 100
3, 52988, Note_off_c, 1, 62, 100
3, 52992, Note_on_c, 1, 57, 100
3, 53372, Note_off_c, 1, 57, 100
3, 53376, Note_on_c, 1, 52, 100
3, 53756, Note_off_c, 1, 52, 100
3, 53760, Note_on_c, 1, 40, 100
3, 54140, Note_off_c, 1, 40, 100
3, 54144, Note_on_c, 1, 45, 100
3, 54524, Note_off_c, 1, 45, 100
3, 54528, Note_on_c, 1, 57, 100
3, 54908, Note_off_c, 1, 57, 100
3, 54912, Note_on_c, 1, 45, 100
3, 55292, Note_off_c, 1, 45, 100
3, 55296, Note_on_c, 1, 44, 100
3, 55484, Note_off_c, 1, 44, 100
3, 55488, Note_on_c, 1, 52, 100
3, 55676, Note_off_c, 1, 52, 100
3, 55680, Note_on_c, 1, 47, 100
3, 55868, Note_off_c, 1, 47, 100
3, 55872, Note_on_c, 1, 52, 100
3, 56060, Note_off_c, 1, 52, 100
3, 56064, Note_on_c, 1, 44, 100
3, 56252, Note_off_c, 1, 44, 100
3, 56256, Note_on_c, 1, 52, 100
3, 56444, Note_off_c, 1, 52, 100
3, 56448, Note_on_c, 1, 45, 100
3, 56636, Note_off_c, 1, 45, 100
3, 56640, Note_on_c, 1, 52, 100
3, 56828, Note_off_c, 1, 52, 100
3, 56832, Note_on_c, 1, 49, 100
3, 57020, Note_off_c, 1, 49, 100
3, 57024, Note_on_c, 1, 52, 100
3, 57212, Note_off_c, 1, 52, 100
3, 57216, Note_on_c, 1, 45, 100
3, 57404, Note_off_c, 1, 45, 100
3, 57408, Note_on_c, 1, 52, 100
3, 57596, Note_off_c, 1, 52, 100
3, 57600, Note_on_c, 1, 47, 100
3, 57788, Note_off_c, 1, 47, 100
3, 57792, Note_on_c, 1, 52, 100
3, 57980, Note_off_c, 1, 52, 100
3, 57984, Note_on_c, 1, 50, 100
3, 58172, Note_off_c, 1, 50, 100
3, 58176, Note_on_c, 1, 52, 100
3, 58364, Note_off_c, 1, 52, 100
3, 58368, Note_on_c, 1, 47, 100
3, 58556, Note_off_c, 1, 47, 100
3, 58560, Note_on_c, 1, 52, 100
3, 58748, Note_off_c, 1, 52, 100
3, 58752, Note_on_c, 1, 45, 100
3, 59132, Note_off_c, 1, 45, 100
3, 59136, Note_on_c, 1, 57, 100
3, 59516, Note_off_c, 1, 57, 100
3, 59520, Note_on_c, 1, 45, 100
3, 59900, Note_off_c, 1, 45, 100
3, 59904, Note_on_c, 1, 57, 70
3, 60284, Note_off_c, 1, 57, 100
3, 60288, Note_on_c, 1, 61, 70
3, 60668, Note_off_c, 1, 61, 100
3, 60672, Note_on_c, 1, 62, 70
3, 61052, Note_off_c, 1, 62, 100
3, 61056, Note_on_c, 1, 61, 70
3, 61436, Note_off_c, 1, 61, 100
3, 61440, Note_on_c, 1, 57, 70
3, 61820, Note_off_c, 1, 57, 100
3, 61824, Note_on_c, 1, 62, 70
3, 62204, Note_off_c, 1, 62, 100
3, 62208, Note_on_c, 1, 57, 100
3, 62588, Note_off_c, 1, 57, 100
3, 62592, Note_on_c, 1, 52, 100
3, 62972, Note_off_c, 1, 52, 100
3, 62976, Note_on_c, 1, 40, 100
3, 63356, Note_off_c, 1, 40, 100
3, 63360, Note_on_c, 1, 45, 100
3, 63740, Note_off_c, 1, 45, 100
3, 63744, Note_on_c, 1, 57, 100
3, 64124, Note_off_c, 1, 57, 100
3, 64128, Note_on_c, 1, 45, 100
3, 64508, Note_off_c, 1, 45, 100
3, 64512, Note_on_c, 1, 44, 100
3, 64700, Note_off_c, 1, 44, 100
3, 64704, Note_on_c, 1, 52, 100
3, 64892, Note_off_c, 1, 52, 100
3, 64896, Note_on_c, 1, 47, 100
3, 65084, Note_off_c, 1, 47, 100
3, 65088, Note_on_c, 1, 52, 100
3, 65276, Note_off_c, 1, 52, 100
3, 65280, Note_on_c, 1, 44, 100
3, 65468, Note_off_c, 1, 44, 100
3, 65472, Note_on_c, 1, 52, 100
3, 65660, Note_off_c, 1, 52, 100
3, 65664, Note_on_c, 1, 45, 100
3, 65852, Note_off_c, 1, 45, 100
3, 65856, Note_on_c, 1, 52, 100
3, 66044, Note_off_c, 1, 52, 100
3, 66048, Note_on_c, 1, 49, 100
3, 66236, Note_off_c, 1, 49, 100
3, 66240, Note_on_c, 1, 52, 100
3, 66428, Note_off_c, 1, 52, 100
3, 66432, Note_on_c, 1, 45, 100
3, 66620, Note_off_c, 1, 45, 100
3, 66624, Note_on_c, 1, 52, 100
3, 66812, Note_off_c, 1, 52, 100
3, 66816, Note_on_c, 1, 47, 100
3, 67004, Note_off_c, 1, 47, 100
3, 67008, Note_on_c, 1, 52, 100
3, 67196, Note_off_c, 1, 52, 100
3, 67200, Note_on_c, 1, 50, 100
3, 67388, Note_off_c, 1, 50, 100
3, 67392, Note_on_c, 1, 52, 100
3, 67580, Note_off_c, 1, 52, 100
3, 67584, Note_on_c, 1, 47, 100
3, 67772, Note_off_c, 1, 47, 100
3, 67776, Note_on_c, 1, 52, 100
3, 67964, Note_off_c, 1, 52, 100
3, 67968, Note_on_c, 1, 45, 100
3, 68348, Note_off_c, 1, 45, 100
3, 68352, Note_on_c, 1, 57, 100
3, 68732, Note_off_c, 1, 57, 100
3, 68736, Note_on_c, 1, 45, 100
3, 69116, Note_off_c, 1, 45, 100
3, 69120, Note_on_c, 1, 57, 70
3, 69500, Note_off_c, 1, 57, 100
3, 69504, Note_on_c, 1, 61, 70
3, 69884, Note_off_c, 1, 61, 100
3, 69888, Note_on_c, 1, 62, 70
3, 70268, Note_off_c, 1, 62, 100
3, 70272, Note_on_c, 1, 61, 70
3, 70652, Note_off_c, 1, 61, 100
3, 70656, Note_on_c, 1, 57, 70
3, 71036, Note_off_c, 1, 57, 100
3, 71040, Note_on_c, 1, 62, 70
3, 71420, Note_off_c, 1, 62, 100
3, 71424, Note_on_c, 1, 57, 100
3, 71804, Note_off_c, 1, 57, 100
3, 71808, Note_on_c, 1, 52, 100
3, 72188, Note_off_c, 1, 52, 100
3, 72192, Note_on_c, 1, 40, 100
3, 72572, Note_off_c, 1, 40, 100
3, 72576, Note_on_c, 1, 45, 100
3, 72956, Note_off_c, 1, 45, 100
3, 72960, Note_on_c, 1, 57, 100
3, 73340, Note_off_c, 1, 57, 100
3, 73344, Note_on_c, 1, 45, 100
3, 73724, Note_off_c, 1, 45, 100
3, 73728, Note_on_c, 1, 45, 70
3, 73820, Note_off_c, 1, 45, 100
3, 73824, Note_on_c, 1, 57, 70
3, 73916, Note_off_c, 1, 57, 100
3, 73920, Note_on_c, 1, 61, 70
3, 74012, Note_off_c, 1, 61, 100
3, 74016, Note_on_c, 1, 57, 70
3, 74108, Note_off_c, 1, 57, 100
3, 74112, Note_on_c, 1, 64, 70
3, 74204, Note_off_c, 1, 64, 100
3, 74208, Note_on_c, 1, 57, 70
3, 74300, Note_off_c, 1, 57, 100
3, 74304, Note_on_c, 1, 61, 70
3, 74396, Note_off_c, 1, 61, 100
3, 74400, Note_on_c, 1, 57, 70
3, 74492, Note_off_c, 1, 57, 100
3, 74496, Note_on_c, 1, 62, 70
3, 74588, Note_off_c, 1, 62, 100
3, 74592, Note_on_c, 1, 57, 70
3, 74684, Note_off_c, 1, 57, 100
3, 74688, Note_on_c, 1, 62, 70
3, 74780, Note_off_c, 1, 62, 100
3, 74784, Note_on_c, 1, 57, 70
3, 74876, Note_off_c, 1, 57, 100
3, 74880, Note_on_c, 1, 45, 70
3, 74972, Note_off_c, 1, 45, 100
3, 74976, Note_on_c, 1, 57, 70
3, 75068, Note_off_c, 1, 57, 100
3, 75072, Note_on_c, 1, 61, 70
3, 75164, Note_off_c, 1, 61, 100
3, 75168, Note_on_c, 1, 57, 70
3, 75260, Note_off_c, 1, 57, 100
3, 75264, Note_on_c, 1, 64, 70
3, 75356, Note_off_c, 1, 64, 100
3, 75360, Note_on_c, 1, 57, 70
3, 75452, Note_off_c, 1, 57, 100
3, 75456, Note_on_c, 1, 61, 70
3, 75548, Note_off_c, 1, 61, 100
3, 75552, Note_on_c, 1, 57, 70
3, 75644, Note_off_c, 1, 57, 100
3, 75648, Note_on_c, 1, 62, 70
3, 75740, Note_off_c, 1, 62, 100
3, 75744, Note_on_c, 1, 57, 70
3, 75836, Note_off_c, 1, 57, 100
3, 75840, Note_on_c, 1, 62, 70
3, 75932, Note_off_c, 1, 62, 100
3, 75936, Note_on_c, 1, 57, 70
3, 76028, Note_off_c, 1, 57, 100
3, 76032, Note_on_c, 1, 45, 70
3, 76124, Note_off_c, 1, 45, 100
3, 76128, Note_on_c, 1, 57, 70
3, 76220, Note_off_c, 1, 57, 100
3, 76224, Note_on_c, 1, 61, 70
3, 76316, Note_off_c, 1, 61, 100
3, 76320, Note_on_c, 1, 57, 70
3, 76412, Note_off_c, 1, 57, 100
3, 76416, Note_on_c, 1, 40, 70
3, 76508, Note_off_c, 1, 40, 100
3, 76512, Note_on_c, 1, 52, 70
3, 76604, Note_off_c, 1, 52, 100
3, 76608, Note_on_c, 1, 56, 70
3, 76700, Note_off_c, 1, 56, 100
3, 76704, Note_on_c, 1, 52, 70
3, 76796, Note_off_c, 1, 52, 100
3, 76800, Note_on_c, 1, 45, 70
3, 76892, Note_off_c, 1, 45, 100
3, 76896, Note_on_c, 1, 57, 70
3, 76988, Note_off_c, 1, 57, 100
3, 76992, Note_on_c, 1, 61, 70
3, 77084, Note_off_c, 1, 61, 100
3, 77088, Note_on_c, 1, 57, 70
3, 77180, Note_off_c, 1, 57, 100
3, 77184, Note_on_c, 1, 40, 70
3, 77276, Note_off_c, 1, 40, 100
3, 77280, Note_on_c, 1, 52, 70
3, 77372, Note_off_c, 1, 52, 100
3, 77376, Note_on_c, 1, 51, 70
3, 77468, Note_off_c, 1, 51, 100
3, 77472, Note_on_c, 1, 54, 70
3, 77564, Note_off_c, 1, 54, 100
3, 77568, Note_on_c, 1, 52, 70
3, 77660, Note_off_c, 1, 52, 100
3, 77664, Note_on_c, 1, 54, 70
3, 77756, Note_off_c, 1, 54, 100
3, 77760, Note_on_c, 1, 50, 70
3, 77852, Note_off_c, 1, 50, 100
3, 77856, Note_on_c, 1, 52, 70
3, 77948, Note_off_c, 1, 52, 100
3, 77952, Note_on_c, 1, 49, 70
3, 78044, Note_off_c, 1, 49, 100
3, 78048, Note_on_c, 1, 50, 70
3, 78140, Note_off_c, 1, 50, 100
3, 78144, Note_on_c, 1, 47, 70
3, 78236, Note_off_c, 1, 47, 100
3, 78240, Note_on_c, 1, 49, 70
3, 78332, Note_off_c, 1, 49, 100
3, 78336, Note_on_c, 1, 45, 100
3, 78428, Note_off_c, 1, 45, 100
3, 78432, Note_on_c, 1, 57, 100
3, 78524, Note_off_c, 1, 57, 100
3, 78528, Note_on_c, 1, 61, 100
3, 78620, Note_off_c, 1, 61, 100
3, 78624, Note_on_c, 1, 57, 100
3, 78716, Note_off_c, 1, 57, 100
3, 78720, Note_on_c, 1, 64, 100
3, 78812, Note_off_c, 1, 64, 100
3, 78816, Note_on_c, 1, 57, 100
3, 78908, Note_off_c, 1, 57, 100
3, 78912, Note_on_c, 1, 61, 100
3, 79004, Note_off_c, 1, 61, 100
3, 79008, Note_on_c, 1, 57, 100
3, 79100, Note_off_c, 1, 57, 100
3, 79104, Note_on_c, 1, 62, 100
3, 79196, Note_off_c, 1, 62, 100
3, 79200, Note_on_c, 1, 57, 100
3, 79292, Note_off_c, 1, 57, 100
3, 79296, Note_on_c, 1, 62, 100
3, 79388, Note_off_c, 1, 62, 100
3, 79392, Note_on_c, 1, 57, 100
3, 79484, Note_off_c, 1, 57, 100
3, 79488, Note_on_c, 1, 45, 100
3, 79580, Note_off_c, 1, 45, 100
3, 79584, Note_on_c, 1, 57, 100
3, 79676, Note_off_c, 1, 57, 100
3, 79680, Note_on_c, 1, 61, 100
3, 79772, Note_off_c, 1, 61, 100
3, 79776, Note_on_c, 1, 57, 100
3, 79868, Note_off_c, 1, 57, 100
3, 79872, Note_on_c, 1, 64, 100
3, 79964, Note_off_c, 1, 64, 100
3, 79968, Note_on_c, 1, 57, 100
3, 80060, Note_off_c, 1, 57, 100
3, 80064, Note_on_c, 1, 61, 100
3, 80156, Note_off_c, 1, 61, 100
3, 80160, Note_on_c, 1, 57, 100
3, 80252, Note_off_c, 1, 57, 100
3, 80256, Note_on_c, 1, 62, 100
3, 80348, Note_off_c, 1, 62, 100
3, 80352, Note_on_c, 1, 57, 100
3, 80444, Note_off_c, 1, 57, 100
3, 80448, Note_on_c, 1, 62, 100
3, 80540, Note_off_c, 1, 62, 100
3, 80544, Note_on_c, 1, 57, 100
3, 80636, Note_off_c, 1, 57, 100
3, 80640, Note_on_c, 1, 61, 100
3, 80732, Note_off_c, 1, 61, 100
3, 80736, Note_on_c, 1, 57, 100
3, 80828, Note_off_c, 1, 57, 100
3, 80832, Note_on_c, 1, 45, 100
3, 80924, Note_off_c, 1, 45, 100
3, 80928, Note_on_c, 1, 57, 100
3, 81020, Note_off_c, 1, 57, 100
3, 81024, Note_on_c, 1, 40, 100
3, 81116, Note_off_c, 1, 40, 100
3, 81120, Note_on_c, 1, 52, 100
3, 81212, Note_off_c, 1, 52, 100
3, 81216, Note_on_c, 1, 57, 100
3, 81308, Note_off_c, 1, 57, 100
3, 81312, Note_on_c, 1, 52, 100
3, 81404, Note_off_c, 1, 52, 100
3, 81408, Note_on_c, 1, 40, 100
3, 81500, Note_off_c, 1, 40, 100
3, 81504, Note_on_c, 1, 52, 100
3, 81596, Note_off_c, 1, 52, 100
3, 81600, Note_on_c, 1, 57, 100
3, 81692, Note_off_c, 1, 57, 100
3, 81696, Note_on_c, 1, 52, 100
3, 81788, Note_off_c, 1, 52, 100
3, 81792, Note_on_c, 1, 45, 100
3, 81884, Note_off_c, 1, 45, 100
3, 81888, Note_on_c, 1, 57, 100
3, 81980, Note_off_c, 1, 57, 100
3, 81984, Note_on_c, 1, 56, 100
3, 82076, Note_off_c, 1, 56, 100
3, 82080, Note_on_c, 1, 54, 100
3, 82172, Note_off_c, 1, 54, 100
3, 82176, Note_on_c, 1, 52, 100
3, 82268, Note_off_c, 1, 52, 100
3, 82272, Note_on_c, 1, 50, 100
3, 82364, Note_off_c, 1, 50, 100
3, 82368, Note_on_c, 1, 49, 100
3, 82460, Note_off_c, 1, 49, 100
3, 82464, Note_on_c, 1, 47, 100
3, 82556, Note_off_c, 1, 47, 100
3, 82560, Note_on_c, 1, 45, 100
3, 82940, Note_off_c, 1, 45, 100
3, 82944, Note_on_c, 1, 45, 70
3, 83036, Note_off_c, 1, 45, 100
3, 83040, Note_on_c, 1, 57, 70
3, 83132, Note_off_c, 1, 57, 100
3, 83136, Note_on_c, 1, 61, 70
3, 83228, Note_off_c, 1, 61, 100
3, 83232, Note_on_c, 1, 57, 70
3, 83324, Note_off_c, 1, 57, 100
3, 83328, Note_on_c, 1, 64, 70
3, 83420, Note_off_c, 1, 64, 100
3, 83424, Note_on_c, 1, 57, 70
3, 83516, Note_off_c, 1, 57, 100
3, 83520, Note_on_c, 1, 61, 70
3, 83612, Note_off_c, 1, 61, 100
3, 83616, Note_on_c, 1, 57, 70
3, 83708, Note_off_c, 1, 57, 100
3, 83712, Note_on_c, 1, 62, 70
3, 83804, Note_off_c, 1, 62, 100
3, 83808, Note_on_c, 1, 57, 70
3, 83900, Note_off_c, 1, 57, 100
3, 83904, Note_on_c, 1, 62, 70
3, 83996, Note_off_c, 1, 62, 100
3, 84000, Note_on_c, 1, 57, 70
3, 84092, Note_off_c, 1, 57, 100
3, 84096, Note_on_c, 1, 45, 70
3, 84188, Note_off_c, 1, 45, 100
3, 84192, Note_on_c, 1, 57, 70
3, 84284, Note_off_c, 1, 57, 100
3, 84288, Note_on_c, 1, 61, 70
3, 84380, Note_off_c, 1, 61, 100
3, 84384, Note_on_c, 1, 57, 70
3, 84476, Note_off_c, 1, 57, 100
3, 84480, Note_on_c, 1, 64, 70
3, 84572, Note_off_c, 1, 64, 100
3, 84576, Note_on_c, 1, 57, 70
3, 84668, Note_off_c, 1, 57, 100
3, 84672, Note_on_c, 1, 61, 70
3, 84764, Note_off_c, 1, 61, 100
3, 84768, Note_on_c, 1, 57, 70
3, 84860, Note_off_c, 1, 57, 100
3, 84864, Note_on_c, 1, 62, 70
3, 84956, Note_off_c, 1, 62, 100
3, 84960, Note_on_c, 1, 57, 70
3, 85052, Note_off_c, 1, 57, 100
3, 85056, Note_on_c, 1, 62, 70
3, 85148, Note_off_c, 1, 62, 100
3, 85152, Note_on_c, 1, 57, 70
3, 85244, Note_off_c, 1, 57, 100
3, 85248, Note_on_c, 1, 45, 70
3, 85340, Note_off_c, 1, 45, 100
3, 85344, Note_on_c, 1, 57, 70
3, 85436, Note_off_c, 1, 57, 100
3, 85440, Note_on_c, 1, 61, 70
3, 85532, Note_off_c, 1, 61, 100
3, 85536, Note_on_c, 1, 57, 70
3, 85628, Note_off_c, 1, 57, 100
3, 85632, Note_on_c, 1, 40, 70
3, 85724, Note_off_c, 1, 40, 100
3, 85728, Note_on_c, 1, 52, 70
3, 85820, Note_off_c, 1, 52, 100
3, 85824, Note_on_c, 1, 56, 70
3, 85916, Note_off_c, 1, 56, 100
3, 85920, Note_on_c, 1, 52, 70
3, 86012, Note_off_c, 1, 52, 100
3, 86016, Note_on_c, 1, 45, 70
3, 86108, Note_off_c, 1, 45, 100
3, 86112, Note_on_c, 1, 57, 70
3, 86204, Note_off_c, 1, 57, 100
3, 86208, Note_on_c, 1, 61, 70
3, 86300, Note_off_c, 1, 61, 100
3, 86304, Note_on_c, 1, 57, 70
3, 86396, Note_off_c, 1, 57, 100
3, 86400, Note_on_c, 1, 40, 70
3, 86492, Note_off_c, 1, 40, 100
3, 86496, Note_on_c, 1, 52, 70
3, 86588, Note_off_c, 1, 52, 100
3, 86592, Note_on_c, 1, 51, 70
3, 86684, Note_off_c, 1, 51, 100
3, 86688, Note_on_c, 1, 54, 70
3, 86780, Note_off_c, 1, 54, 100
3, 86784, Note_on_c, 1, 52, 70
3, 86876, Note_off_c, 1, 52, 100
3, 86880, Note_on_c, 1, 54, 70
3, 86972, Note_off_c, 1, 54, 100
3, 86976, Note_on_c, 1, 50, 70
3, 87068, Note_off_c, 1, 50, 100
3, 87072, Note_on_c, 1, 52, 70
3, 87164, Note_off_c, 1, 52, 100
3, 87168, Note_on_c, 1, 49, 70
3, 87260, Note_off_c, 1, 49, 100
3, 87264, Note_on_c, 1, 50, 70
3, 87356, Note_off_c, 1, 50, 100
3, 87360, Note_on_c, 1, 47, 70
3, 87452, Note_off_c, 1, 47, 100
3, 87456, Note_on_c, 1, 49, 70
3, 87548, Note_off_c, 1, 49, 100
3, 87552, Note_on_c, 1, 45, 100
3, 87644, Note_off_c, 1, 45, 100
3, 87648, Note_on_c, 1, 57, 100
3, 87740, Note_off_c, 1, 57, 100
3, 87744, Note_on_c, 1, 61, 100
3, 87836, Note_off_c, 1, 61, 100
3, 87840, Note_on_c, 1, 57, 100
3, 87932, Note_off_c, 1, 57, 100
3, 87936, Note_on_c, 1, 64, 100
3, 88028, Note_off_c, 1, 64, 100
3, 88032, Note_on_c, 1, 57, 100
3, 88124, Note_off_c, 1, 57, 100
3, 88128, Note_on_c, 1, 61, 100
3, 88220, Note_off_c, 1, 61, 100
3, 88224, Note_on_c, 1, 57, 100
3, 88316, Note_off_c, 1, 57, 100
3, 88320, Note_on_c, 1, 62, 100
3, 88412, Note_off_c, 1, 62, 100
3, 88416, Note_on_c, 1, 57, 100
3, 88508, Note_off_c, 1, 57, 100
3, 88512, Note_on_c, 1, 62, 100
3, 88604, Note_off_c, 1, 62, 100
3, 88608, Note_on_c, 1, 57, 100
3, 88700, Note_off_c, 1, 57, 100
3, 88704, Note_on_c, 1, 45, 100
3, 88796, Note_off_c, 1, 45, 100
3, 88800, Note_on_c, 1, 57, 100
3, 88892, Note_off_c, 1, 57, 100
3, 88896, Note_on_c, 1, 61, 100
3, 88988, Note_off_c, 1, 61, 100
3, 88992, Note_on_c, 1, 57, 100
3, 89084, Note_off_c, 1, 57, 100
3, 89088, Note_on_c, 1, 64, 100
3, 89180, Note_off_c, 1, 64, 100
3, 89184, Note_on_c, 1, 57, 100
3, 89276, Note_off_c, 1, 57, 100
3, 89280, Note_on_c, 1, 61, 100
3, 89372, Note_off_c, 1, 61, 100
3, 89376, Note_on_c, 1, 57, 100
3, 89468, Note_off_c, 1, 57, 100
3, 89472, Note_on_c, 1, 62, 100
3, 89564, Note_off_c, 1, 62, 100
3, 89568, Note_on_c, 1, 57, 100
3, 89660, Note_off_c, 1, 57, 100
3, 89664, Note_on_c, 1, 62, 100
3, 89756, Note_off_c, 1, 62, 100
3, 89760, Note_on_c, 1, 57, 100
3, 89852, Note_off_c, 1, 57, 100
3, 89856, Note_on_c, 1, 61, 100
3, 89948, Note_off_c, 1, 61, 100
3, 89952, Note_on_c, 1, 57, 100
3, 90044, Note_off_c, 1, 57, 100
3, 90048, Note_on_c, 1, 45, 100
3, 90140, Note_off_c, 1, 45, 100
3, 90144, Note_on_c, 1, 57, 100
3, 90236, Note_off_c, 1, 57, 100
3, 90240, Note_on_c, 1, 40, 100
3, 90332, Note_off_c, 1, 40, 100
3, 90336, Note_on_c, 1, 52, 100
3, 90428, Note_off_c, 1, 52, 100
3, 90432, Note_on_c, 1, 57, 100
3, 90524, Note_off_c, 1, 57, 100
3, 90528, Note_on_c, 1, 52, 100
3, 90620, Note_off_c, 1, 52, 100
3, 90624, Note_on_c, 1, 40, 100
3, 90716, Note_off_c, 1, 40, 100
3, 90720, Note_on_c, 1, 52, 100
3, 90812, Note_off_c, 1, 52, 100
3, 90816, Note_on_c, 1, 57, 100
3, 90908, Note_off_c, 1, 57, 100
3, 90912, Note_on_c, 1, 52, 100
3, 91004, Note_off_c, 1, 52, 100
3, 91008, Note_on_c, 1, 45, 100
3, 91100, Note_off_c, 1, 45, 100
3, 91104, Note_on_c, 1, 57, 100
3, 91196, Note_off_c, 1, 57, 100
3, 91200, Note_on_c, 1, 56, 100
3, 91292, Note_off_c, 1, 56, 100
3, 91296, Note_on_c, 1, 54, 100
3, 91388, Note_off_c, 1, 54, 100
3, 91392, Note_on_c, 1, 52, 100
3, 91484, Note_off_c, 1, 52, 100
3, 91488, Note_on_c, 1, 50, 100
3, 91580, Note_off_c, 1, 50, 100
3, 91584, Note_on_c, 1, 49, 100
3, 91676, Note_off_c, 1, 49, 100
3, 91680, Note_on_c, 1, 47, 100
3, 91772, Note_off_c, 1, 47, 100
3, 91776, Note_on_c, 1, 45, 100
3, 92156, Note_off_c, 1, 45, 100
3, 92160, Note_on_c, 1, 44, 100
3, 92252, Note_off_c, 1, 44, 100
3, 92256, Note_on_c, 1, 52, 100
3, 92348, Note_off_c, 1, 52, 100
3, 92352, Note_on_c, 1, 47, 100
3, 92444, Note_off_c, 1, 47, 100
3, 92448, Note_on_c, 1, 52, 100
3, 92540, Note_off_c, 1, 52, 100
3, 92544, Note_on_c, 1, 56, 100
3, 92636, Note_off_c, 1, 56, 100
3, 92640, Note_on_c, 1, 52, 100
3, 92732, Note_off_c, 1, 52, 100
3, 92736, Note_on_c, 1, 47, 100
3, 92828, Note_off_c, 1, 47, 100
3, 92832, Note_on_c, 1, 52, 100
3, 92924, Note_off_c, 1, 52, 100
3, 92928, Note_on_c, 1, 44, 100
3, 93020, Note_off_c, 1, 44, 100
3, 93024, Note_on_c, 1, 52, 100
3, 93116, Note_off_c, 1, 52, 100
3, 93120, Note_on_c, 1, 47, 100
3, 93212, Note_off_c, 1, 47, 100
3, 93216, Note_on_c, 1, 52, 100
3, 93308, Note_off_c, 1, 52, 100
3, 93312, Note_on_c, 1, 45, 100
3, 93404, Note_off_c, 1, 45, 100
3, 93408, Note_on_c, 1, 52, 100
3, 93500, Note_off_c, 1, 52, 100
3, 93504, Note_on_c, 1, 49, 100
3, 93596, Note_off_c, 1, 49, 100
3, 93600, Note_on_c, 1, 52, 100
3, 93692, Note_off_c, 1, 52, 100
3, 93696, Note_on_c, 1, 57, 100
3, 93788, Note_off_c, 1, 57, 100
3, 93792, Note_on_c, 1, 52, 100
3, 93884, Note_off_c, 1, 52, 100
3, 93888, Note_on_c, 1, 49, 100
3, 93980, Note_off_c, 1, 49, 100
3, 93984, Note_on_c, 1, 52, 100
3, 94076, Note_off_c, 1, 52, 100
3, 94080, Note_on_c, 1, 45, 100
3, 94172, Note_off_c, 1, 45, 100
3, 94176, Note_on_c, 1, 52, 100
3, 94268, Note_off_c, 1, 52, 100
3, 94272, Note_on_c, 1, 49, 100
3, 94364, Note_off_c, 1, 49, 100
3, 94368, Note_on_c, 1, 52, 100
3, 94460, Note_off_c, 1, 52, 100
3, 94464, Note_on_c, 1, 47, 100
3, 94556, Note_off_c, 1, 47, 100
3, 94560, Note_on_c, 1, 52, 100
3, 94652, Note_off_c, 1, 52, 100
3, 94656, Note_on_c, 1, 50, 100
3, 94748, Note_off_c, 1, 50, 100
3, 94752, Note_on_c, 1, 52, 100
3, 94844, Note_off_c, 1, 52, 100
3, 94848, Note_on_c, 1, 59, 100
3, 94940, Note_off_c, 1, 59, 100
3, 94944, Note_on_c, 1, 52, 100
3, 95036, Note_off_c, 1, 52, 100
3, 95040, Note_on_c, 1, 50, 100
3, 95132, Note_off_c, 1, 50, 100
3, 95136, Note_on_c, 1, 52, 100
3, 95228, Note_off_c, 1, 52, 100
3, 95232, Note_on_c, 1, 47, 100
3, 95324, Note_off_c, 1, 47, 100
3, 95328, Note_on_c, 1, 52, 100
3, 95420, Note_off_c, 1, 52, 100
3, 95424, Note_on_c, 1, 50, 100
3, 95516, Note_off_c, 1, 50, 100
3, 95520, Note_on_c, 1, 52, 100
3, 95612, Note_off_c, 1, 52, 100
3, 95616, Note_on_c, 1, 45, 100
3, 95708, Note_off_c, 1, 45, 100
3, 95712, Note_on_c, 1, 57, 100
3, 95804, Note_off_c, 1, 57, 100
3, 95808, Note_on_c, 1, 56, 100
3, 95900, Note_off_c, 1, 56, 100
3, 95904, Note_on_c, 1, 54, 100
3, 95996, Note_off_c, 1, 54, 100
3, 96000, Note_on_c, 1, 52, 100
3, 96092, Note_off_c, 1, 52, 100
3, 96096, Note_on_c, 1, 50, 100
3, 96188, Note_off_c, 1, 50, 100
3, 96192, Note_on_c, 1, 49, 100
3, 96284, Note_off_c, 1, 49, 100
3, 96288, Note_on_c, 1, 47, 100
3, 96380, Note_off_c, 1, 47, 100
3, 96384, Note_on_c, 1, 45, 100
3, 96764, Note_off_c, 1, 45, 100
3, 96768, Note_on_c, 1, 45, 70
3, 96860, Note_off_c, 1, 45, 100
3, 96864, Note_on_c, 1, 49, 70
3, 96956, Note_off_c, 1, 49, 100
3, 96960, Note_on_c, 1, 52, 70
3, 97052, Note_off_c, 1, 52, 100
3, 97056, Note_on_c, 1, 57, 70
3, 97148, Note_off_c, 1, 57, 100
3, 97152, Note_on_c, 1, 49, 70
3, 97244, Note_off_c, 1, 49, 100
3, 97248, Note_on_c, 1, 52, 70
3, 97340, Note_off_c, 1, 52, 100
3, 97344, Note_on_c, 1, 57, 70
3, 97436, Note_off_c, 1, 57, 100
3, 97440, Note_on_c, 1, 61, 70
3, 97532, Note_off_c, 1, 61, 100
3, 97536, Note_on_c, 1, 50, 70
3, 97628, Note_off_c, 1, 50, 100
3, 97632, Note_on_c, 1, 54, 70
3, 97724, Note_off_c, 1, 54, 100
3, 97728, Note_on_c, 1, 57, 70
3, 97820, Note_off_c, 1, 57, 100
3, 97824, Note_on_c, 1, 62, 70
3, 97916, Note_off_c, 1, 62, 100
3, 97920, Note_on_c, 1, 45, 70
3, 98012, Note_off_c, 1, 45, 100
3, 98016, Note_on_c, 1, 57, 70
3, 98108, Note_off_c, 1, 57, 100
3, 98112, Note_on_c, 1, 61, 70
3, 98204, Note_off_c, 1, 61, 100
3, 98208, Note_on_c, 1, 57, 70
3, 98300, Note_off_c, 1, 57, 100
3, 98304, Note_on_c, 1, 49, 70
3, 98396, Note_off_c, 1, 49, 100
3, 98400, Note_on_c, 1, 57, 70
3, 98492, Note_off_c, 1, 57, 100
3, 98496, Note_on_c, 1, 61, 70
3, 98588, Note_off_c, 1, 61, 100
3, 98592, Note_on_c, 1, 57, 70
3, 98684, Note_off_c, 1, 57, 100
3, 98688, Note_on_c, 1, 50, 70
3, 98780, Note_off_c, 1, 50, 100
3, 98784, Note_on_c, 1, 57, 70
3, 98876, Note_off_c, 1, 57, 100
3, 98880, Note_on_c, 1, 62, 70
3, 98972, Note_off_c, 1, 62, 100
3, 98976, Note_on_c, 1, 57, 70
3, 99068, Note_off_c, 1, 57, 100
3, 99072, Note_on_c, 1, 45, 100
3, 99164, Note_off_c, 1, 45, 100
3, 99168, Note_on_c, 1, 57, 100
3, 99260, Note_off_c, 1, 57, 100
3, 99264, Note_on_c, 1, 61, 100
3, 99356, Note_off_c, 1, 61, 100
3, 99360, Note_on_c, 1, 57, 100
3, 99452, Note_off_c, 1, 57, 100
3, 99456, Note_on_c, 1, 40, 100
3, 99548, Note_off_c, 1, 40, 100
3, 99552, Note_on_c, 1, 52, 100
3, 99644, Note_off_c, 1, 52, 100
3, 99648, Note_on_c, 1, 57, 100
3, 99740, Note_off_c, 1, 57, 100
3, 99744, Note_on_c, 1, 52, 100
3, 99836, Note_off_c, 1, 52, 100
3, 99840, Note_on_c, 1, 40, 100
3, 99932, Note_off_c, 1, 40, 100
3, 99936, Note_on_c, 1, 52, 100
3, 100028, Note_off_c, 1, 52, 100
3, 100032, Note_on_c, 1, 57, 100
3, 100124, Note_off_c, 1, 57, 100
3, 100128, Note_on_c, 1, 52, 100
3, 100220, Note_off_c, 1, 52, 100
3, 100224, Note_on_c, 1, 45, 100
3, 100316, Note_off_c, 1, 45, 100
3, 100320, Note_on_c, 1, 57, 100
3, 100412, Note_off_c, 1, 57, 100
3, 100416, Note_on_c, 1, 61, 100
3, 100508, Note_off_c, 1, 61, 100
3, 100512, Note_on_c, 1, 57, 100
3, 100604, Note_off_c, 1, 57, 100
3, 100608, Note_on_c, 1, 52, 100
3, 100700, Note_off_c, 1, 52, 100
3, 100704, Note_on_c, 1, 57, 100
3, 100796, Note_off_c, 1, 57, 100
3, 100800, Note_on_c, 1, 52, 100
3, 100892, Note_off_c, 1, 52, 100
3, 100896, Note_on_c, 1, 49, 100
3, 100988, Note_off_c, 1, 49, 100
3, 100992, Note_on_c, 1, 45, 100
3, 101372, Note_off_c, 1, 45, 100
3, 101376, Note_on_c, 1, 44, 100
3, 101468, Note_off_c, 1, 44, 100
3, 101472, Note_on_c, 1, 52, 100
3, 101564, Note_off_c, 1, 52, 100
3, 101568, Note_on_c, 1, 47, 100
3, 101660, Note_off_c, 1, 47, 100
3, 101664, Note_on_c, 1, 52, 100
3, 101756, Note_off_c, 1, 52, 100
3, 101760, Note_on_c, 1, 56, 100
3, 101852, Note_off_c, 1, 56, 100
3, 101856, Note_on_c, 1, 52, 100
3, 101948, Note_off_c, 1, 52, 100
3, 101952, Note_on_c, 1, 47, 100
3, 102044, Note_off_c, 1, 47, 100
3, 102048, Note_on_c, 1, 52, 100
3, 102140, Note_off_c, 1, 52, 100
3, 102144, Note_on_c, 1, 44, 100
3, 102236, Note_off_c, 1, 44, 100
3, 102240, Note_on_c, 1, 52, 100
3, 102332, Note_off_c, 1, 52, 100
3, 102336, Note_on_c, 1, 47, 100
3, 102428, Note_off_c, 1, 47, 100
3, 102432, Note_on_c, 1, 52, 100
3, 102524, Note_off_c, 1, 52, 100
3, 102528, Note_on_c, 1, 45, 100
3, 102620, Note_off_c, 1, 45, 100
3, 102624, Note_on_c, 1, 52, 100
3, 102716, Note_off_c, 1, 52, 100
3, 102720, Note_on_c, 1, 49, 100
3, 102812, Note_off_c, 1, 49, 100
3, 102816, Note_on_c, 1, 52, 100
3, 102908, Note_off_c, 1, 52, 100
3, 102912, Note_on_c, 1, 57, 100
3, 103004, Note_off_c, 1, 57, 100
3, 103008, Note_on_c, 1, 52, 100
3, 103100, Note_off_c, 1, 52, 100
3, 103104, Note_on_c, 1, 49, 100
3, 103196, Note_off_c, 1, 49, 100
3, 103200, Note_on_c, 1, 52, 100
3, 103292, Note_off_c, 1, 52, 100
3, 103296, Note_on_c, 1, 45, 100
3, 103388, Note_off_c, 1, 45, 100
3, 103392, Note_on_c, 1, 52, 100
3, 103484, Note_off_c, 1, 52, 100
3, 103488, Note_on_c, 1, 49, 100
3, 103580, Note_off_c, 1, 49, 100
3, 103584, Note_on_c, 1, 52, 100
3, 103676, Note_off_c, 1, 52, 100
3, 103680, Note_on_c, 1, 47, 100
3, 103772, Note_off_c, 1, 47, 100
3, 103776, Note_on_c, 1, 52, 100
3, 103868, Note_off_c, 1, 52, 100
3, 103872, Note_on_c, 1, 50, 100
3, 103964, Note_off_c, 1, 50, 100
3, 103968, Note_on_c, 1, 52, 100
3, 104060, Note_off_c, 1, 52, 100
3, 104064, Note_on_c, 1, 59, 100
3, 104156, Note_off_c, 1, 59, 100
3, 104160, Note_on_c, 1, 52, 100
3, 104252, Note_off_c, 1, 52, 100
3, 104256, Note_on_c, 1, 50, 100
3, 104348, Note_off_c, 1, 50, 100
3, 104352, Note_on_c, 1, 52, 100
3, 104444, Note_off_c, 1, 52, 100
3, 104448, Note_on_c, 1, 47, 100
3, 104540, Note_off_c, 1, 47, 100
3, 104544, Note_on_c, 1, 52, 100
3, 104636, Note_off_c, 1, 52, 100
3, 104640, Note_on_c, 1, 50, 100
3, 104732, Note_off_c, 1, 50, 100
3, 104736, Note_on_c, 1, 52, 100
3, 104828, Note_off_c, 1, 52, 100
3, 104832, Note_on_c, 1, 45, 100
3, 104924, Note_off_c, 1, 45, 100
3, 104928, Note_on_c, 1, 57, 100
3, 105020, Note_off_c, 1, 57, 100
3, 105024, Note_on_c, 1, 56, 100
3, 105116, Note_off_c, 1, 56, 100
3, 105120, Note_on_c, 1, 54, 100
3, 105212, Note_off_c, 1, 54, 100
3, 105216, Note_on_c, 1, 52, 100
3, 105308, Note_off_c, 1, 52, 100
3, 105312, Note_on_c, 1, 50, 100
3, 105404, Note_off_c, 1, 50, 100
3, 105408, Note_on_c, 1, 49, 100
3, 105500, Note_off_c, 1, 49, 100
3, 105504, Note_on_c, 1, 47, 100
3, 105596, Note_off_c, 1, 47, 100
3, 105600, Note_on_c, 1, 45, 100
3, 105980, Note_off_c, 1, 45, 100
3, 105984, Note_on_c, 1, 45, 70
3, 106076, Note_off_c, 1, 45, 100
3, 106080, Note_on_c, 1, 49, 70
3, 106172, Note_off_c, 1, 49, 100
3, 106176, Note_on_c, 1, 52, 70
3, 106268, Note_off_c, 1, 52, 100
3, 106272, Note_on_c, 1, 57, 70
3, 106364, Note_off_c, 1, 57, 100
3, 106368, Note_on_c, 1, 49, 70
3, 106460, Note_off_c, 1, 49, 100
3, 106464, Note_on_c, 1, 52, 70
3, 106556, Note_off_c, 1, 52, 100
3, 106560, Note_on_c, 1, 57, 70
3, 106652, Note_off_c, 1, 57, 100
3, 106656, Note_on_c, 1, 61, 70
3, 106748, Note_off_c, 1, 61, 100
3, 106752, Note_on_c, 1, 50, 70
3, 106844, Note_off_c, 1, 50, 100
3, 106848, Note_on_c, 1, 54, 70
3, 106940, Note_off_c, 1, 54, 100
3, 106944, Note_on_c, 1, 57, 70
3, 107036, Note_off_c, 1, 57, 100
3, 107040, Note_on_c, 1, 62, 70
3, 107132, Note_off_c, 1, 62, 100
3, 107136, Note_on_c, 1, 45, 70
3, 107228, Note_off_c, 1, 45, 100
3, 107232, Note_on_c, 1, 57, 70
3, 107324, Note_off_c, 1, 57, 100
3, 107328, Note_on_c, 1, 61, 70
3, 107420, Note_off_c, 1, 61, 100
3, 107424, Note_on_c, 1, 57, 70
3, 107516, Note_off_c, 1, 57, 100
3, 107520, Note_on_c, 1, 49, 70
3, 107612, Note_off_c, 1, 49, 100
3, 107616, Note_on_c, 1, 57, 70
3, 107708, Note_off_c, 1, 57, 100
3, 107712, Note_on_c, 1, 61, 70
3, 107804, Note_off_c, 1, 61, 100
3, 107808, Note_on_c, 1, 57, 70
3, 107900, Note_off_c, 1, 57, 100
3, 107904, Note_on_c, 1, 50, 70
3, 107996, Note_off_c, 1, 50, 100
3, 108000, Note_on_c, 1, 57, 70
3, 108092, Note_off_c, 1, 57, 100
3, 108096, Note_on_c, 1, 62, 70
3, 108188, Note_off_c, 1, 62, 100
3, 108192, Note_on_c, 1, 57, 70
3, 108284, Note_off_c, 1, 57, 100
3, 108288, Note_on_c, 1, 45, 100
3, 108380, Note_off_c, 1, 45, 100
3, 108384, Note_on_c, 1, 57, 100
3, 108476, Note_off_c, 1, 57, 100
3, 108480, Note_on_c, 1, 61, 100
3, 108572, Note_off_c, 1, 61, 100
3, 108576, Note_on_c, 1, 57, 100
3, 108668, Note_off_c, 1, 57, 100
3, 108672, Note_on_c, 1, 40, 100
3, 108764, Note_off_c, 1, 40, 100
3, 108768, Note_on_c, 1, 52, 100
3, 108860, Note_off_c, 1, 52, 100
3, 108864, Note_on_c, 1, 57, 100
3, 108956, Note_off_c, 1, 57, 100
3, 108960, Note_on_c, 1, 52, 100
3, 109052, Note_off_c, 1, 52, 100
3, 109056, Note_on_c, 1, 40, 100
3, 109148, Note_off_c, 1, 40, 100
3, 109152, Note_on_c, 1, 52, 100
3, 109244, Note_off_c, 1, 52, 100
3, 109248, Note_on_c, 1, 57, 100
3, 109340, Note_off_c, 1, 57, 100
3, 109344, Note_on_c, 1, 52, 100
3, 109436, Note_off_c, 1, 52, 100
3, 109440, Note_on_c, 1, 45, 100
3, 109532, Note_off_c, 1, 45, 100
3, 109536, Note_on_c, 1, 57, 100
3, 109628, Note_off_c, 1, 57, 100
3, 109632, Note_on_c, 1, 61, 100
3, 109724, Note_off_c, 1, 61, 100
3, 109728, Note_on_c, 1, 57, 100
3, 109820, Note_off_c, 1, 57, 100
3, 109824, Note_on_c, 1, 52, 100
3, 109916, Note_off_c, 1, 52, 100
3, 109920, Note_on_c, 1, 57, 100
3, 110012, Note_off_c, 1, 57, 100
3, 110016, Note_on_c, 1, 52, 100
3, 110108, Note_off_c, 1, 52, 100
3, 110112, Note_on_c, 1, 49, 100
3, 110204, Note_off_c, 1, 49, 100
3, 110208, Note_on_c, 1, 45, 100
3, 110588, Note_off_c, 1, 45, 100
3, 110592, Note_on_c, 1, 45, 70
3, 110592, Note_on_c, 1, 57, 70
3, 111356, Note_off_c, 1, 45, 100
3, 111356, Note_off_c, 1, 57, 100
3, 111360, Note_on_c, 1, 50, 70
3, 111740, Note_off_c, 1, 50, 100
3, 111744, Note_on_c, 1, 45, 70
3, 111744, Note_on_c, 1, 57, 70
3, 112508, Note_off_c, 1, 45, 100
3, 112508, Note_off_c, 1, 57, 100
3, 112512, Note_on_c, 1, 50, 70
3, 112892, Note_off_c, 1, 50, 100
3, 112896, Note_on_c, 1, 45, 70
3, 112896, Note_on_c, 1, 57, 70
3, 113276, Note_off_c, 1, 45, 100
3, 113276, Note_off_c, 1, 57, 100
3, 113280, Note_on_c, 1, 40, 70
3, 113280, Note_on_c, 1, 52, 70
3, 113660, Note_off_c, 1, 40, 100
3, 113660, Note_off_c, 1, 52, 100
3, 113664, Note_on_c, 1, 45, 70
3, 113664, Note_on_c, 1, 57, 70
3, 114044, Note_off_c, 1, 45, 100
3, 114044, Note_off_c, 1, 57, 100
3, 114048, Note_on_c, 1, 40, 70
3, 114236, Note_off_c, 1, 40, 100
3, 114240, Note_on_c, 1, 52, 70
3, 114300, Note_off_c, 1, 52, 100
3, 114304, Note_on_c, 1, 51, 70
3, 114364, Note_off_c, 1, 51, 100
3, 114368, Note_on_c, 1, 52, 70
3, 114428, Note_off_c, 1, 52, 100
3, 114432, Note_on_c, 1, 56, 70
3, 114492, Note_off_c, 1, 56, 100
3, 114496, Note_on_c, 1, 55, 70
3, 114556, Note_off_c, 1, 55, 100
3, 114560, Note_on_c, 1, 56, 70
3, 114620, Note_off_c, 1, 56, 100
3, 114624, Note_on_c, 1, 59, 70
3, 114684, Note_off_c, 1, 59, 100
3, 114688, Note_on_c, 1, 58, 70
3, 114748, Note_off_c, 1, 58, 100
3, 114752, Note_on_c, 1, 59, 70
3, 114812, Note_off_c, 1, 59, 100
3, 114816, Note_on_c, 1, 52, 70
3, 114876, Note_off_c, 1, 52, 100
3, 114880, Note_on_c, 1, 54, 70
3, 114940, Note_off_c, 1, 54, 100
3, 114944, Note_on_c, 1, 52, 70
3, 115004, Note_off_c, 1, 52, 100
3, 115008, Note_on_c, 1, 50, 70
3, 115068, Note_off_c, 1, 50, 100
3, 115072, Note_on_c, 1, 49, 70
3, 115132, Note_off_c, 1, 49, 100
3, 115136, Note_on_c, 1, 47, 70
3, 115196, Note_off_c, 1, 47, 100
3, 115200, Note_on_c, 1, 45, 100
3, 115200, Note_on_c, 1, 57, 100
3, 115964, Note_off_c, 1, 45, 100
3, 115964, Note_off_c, 1, 57, 100
3, 115968, Note_on_c, 1, 50, 100
3, 116348, Note_off_c, 1, 50, 100
3, 116352, Note_on_c, 1, 45, 100
3, 116352, Note_on_c, 1, 57, 100
3, 117116, Note_off_c, 1, 45, 100
3, 117116, Note_off_c, 1, 57, 100
3, 117120, Note_on_c, 1, 50, 100
3, 117500, Note_off_c, 1, 50, 100
3, 117504, Note_on_c, 1, 45, 100
3, 117884, Note_off_c, 1, 45, 100
3, 117888, Note_on_c, 1, 52, 100
3, 118268, Note_off_c, 1, 52, 100
3, 118272, Note_on_c, 1, 40, 100
3, 118652, Note_off_c, 1, 40, 100
3, 118656, Note_on_c, 1, 45, 100
3, 118844, Note_off_c, 1, 45, 100
3, 118848, Note_on_c, 1, 57, 100
3, 118912, Note_on_c, 1, 56, 100
3, 118972, Note_off_c, 1, 57, 100
3, 118976, Note_on_c, 1, 57, 100
3, 119036, Note_off_c, 1, 56, 100
3, 119040, Note_on_c, 1, 52, 100
3, 119100, Note_off_c, 1, 57, 100
3, 119104, Note_on_c, 1, 51, 100
3, 119164, Note_off_c, 1, 52, 100
3, 119168, Note_on_c, 1, 52, 100
3, 119228, Note_off_c, 1, 51, 100
3, 119232, Note_on_c, 1, 49, 100
3, 119292, Note_off_c, 1, 52, 100
3, 119296, Note_on_c, 1, 48, 100
3, 119356, Note_off_c, 1, 49, 100
3, 119360, Note_on_c, 1, 49, 100
3, 119420, Note_off_c, 1, 48, 100
3, 119424, Note_on_c, 1, 45, 100
3, 119484, Note_off_c, 1, 49, 100
3, 119804, Note_off_c, 1, 45, 100
3, 119808, Note_on_c, 1, 45, 70
3, 119808, Note_on_c, 1, 57, 70
3, 120572, Note_off_c, 1, 45, 100
3, 120572, Note_off_c, 1, 57, 100
3, 120576, Note_on_c, 1, 50, 70
3, 120956, Note_off_c, 1, 50, 100
3, 120960, Note_on_c, 1, 45, 70
3, 120960, Note_on_c, 1, 57, 70
3, 121724, Note_off_c, 1, 45, 100
3, 121724, Note_off_c, 1, 57, 100
3, 121728, Note_on_c, 1, 50, 70
3, 122108, Note_off_c, 1, 50, 100
3, 122112, Note_on_c, 1, 45, 70
3, 122112, Note_on_c, 1, 57, 70
3, 122492, Note_off_c, 1, 45, 100
3, 122492, Note_off_c, 1, 57, 100
3, 122496, Note_on_c, 1, 40, 70
3, 122496, Note_on_c, 1, 52, 70
3, 122876, Note_off_c, 1, 40, 100
3, 122876, Note_off_c, 1, 52, 100
3, 122880, Note_on_c, 1, 45, 70
3, 122880, Note_on_c, 1, 57, 70
3, 123260, Note_off_c, 1, 45, 100
3, 123260, Note_off_c, 1, 57, 100
3, 123264, Note_on_c, 1, 40, 70
3, 123452, Note_off_c, 1, 40, 100
3, 123456, Note_on_c, 1, 52, 70
3, 123516, Note_off_c, 1, 52, 100
3, 123520, Note_on_c, 1, 51, 70
3, 123580, Note_off_c, 1, 51, 100
3, 123584, Note_on_c, 1, 52, 70
3, 123644, Note_off_c, 1, 52, 100
3, 123648, Note_on_c, 1, 56, 70
3, 123708, Note_off_c, 1, 56, 100
3, 123712, Note_on_c, 1, 55, 70
3, 123772, Note_off_c, 1, 55, 100
3, 123776, Note_on_c, 1, 56, 70
3, 123836, Note_off_c, 1, 56, 100
3, 123840, Note_on_c, 1, 59, 70
3, 123900, Note_off_c, 1, 59, 100
3, 123904, Note_on_c, 1, 58, 70
3, 123964, Note_off_c, 1, 58, 100
3, 123968, Note_on_c, 1, 59, 70
3, 124028, Note_off_c, 1, 59, 100
3, 124032, Note_on_c, 1, 52, 70
3, 124092, Note_off_c, 1, 52, 100
3, 124096, Note_on_c, 1, 54, 70
3, 124156, Note_off_c, 1, 54, 100
3, 124160, Note_on_c, 1, 52, 70
3, 124220, Note_off_c, 1, 52, 100
3, 124224, Note_on_c, 1, 50, 70
3, 124284, Note_off_c, 1, 50, 100
3, 124288, Note_on_c, 1, 49, 70
3, 124348, Note_off_c, 1, 49, 100
3, 124352, Note_on_c, 1, 47, 70
3, 124412, Note_off_c, 1, 47, 100
3, 124416, Note_on_c, 1, 45, 100
3, 124416, Note_on_c, 1, 57, 100
3, 125180, Note_off_c, 1, 45, 100
3, 125180, Note_off_c, 1, 57, 100
3, 125184, Note_on_c, 1, 50, 100
3, 125564, Note_off_c, 1, 50, 100
3, 125568, Note_on_c, 1, 45, 100
3, 125568, Note_on_c, 1, 57, 100
3, 126332, Note_off_c, 1, 45, 100
3, 126332, Note_off_c, 1, 57, 100
3, 126336, Note_on_c, 1, 50, 100
3, 126716, Note_off_c, 1, 50, 100
3, 126720, Note_on_c, 1, 45, 100
3, 127100, Note_off_c, 1, 45, 100
3, 127104, Note_on_c, 1, 52, 100
3, 127484, Note_off_c, 1, 52, 100
3, 127488, Note_on_c, 1, 40, 100
3, 127868, Note_off_c, 1, 40, 100
3, 127872, Note_on_c, 1, 45, 100
3, 128060, Note_off_c, 1, 45, 100
3, 128064, Note_on_c, 1, 57, 100
3, 128128, Note_on_c, 1, 56, 100
3, 128188, Note_off_c, 1, 57, 100
3, 128192, Note_on_c, 1, 57, 100
3, 128252, Note_off_c, 1, 56, 100
3, 128256, Note_on_c, 1, 52, 100
3, 128316, Note_off_c, 1, 57, 100
3, 128320, Note_on_c, 1, 51, 100
3, 128380, Note_off_c, 1, 52, 100
3, 128384, Note_on_c, 1, 52, 100
3, 128444, Note_off_c, 1, 51, 100
3, 128448, Note_on_c, 1, 49, 100
3, 128508, Note_off_c, 1, 52, 100
3, 128512, Note_on_c, 1, 48, 100
3, 128572, Note_off_c, 1, 49, 100
3, 128576, Note_on_c, 1, 49, 100
3, 128636, Note_off_c, 1, 48, 100
3, 128640, Note_on_c, 1, 45, 100
3, 128700, Note_off_c, 1, 49, 100
3, 129020, Note_off_c, 1, 45, 100
3, 129024, Note_on_c, 1, 45, 100
3, 129088, Note_on_c, 1, 52, 100
3, 129148, Note_off_c, 1, 45, 100
3, 129148, Note_off_c, 1, 52, 100
3, 129152, Note_on_c, 1, 52, 100
3, 129212, Note_off_c, 1, 52, 100
3, 129216, Note_on_c, 1, 52, 100
3, 129276, Note_off_c, 1, 52, 100
3, 129280, Note_on_c, 1, 52, 100
3, 129340, Note_off_c, 1, 52, 100
3, 129344, Note_on_c, 1, 52, 100
3, 129404, Note_off_c, 1, 52, 100
3, 129408, Note_on_c, 1, 52, 100
3, 129468, Note_off_c, 1, 52, 100
3, 129472, Note_on_c, 1, 52, 100
3, 129532, Note_off_c, 1, 52, 100
3, 129536, Note_on_c, 1, 52, 100
3, 129596, Note_off_c, 1, 52, 100
3, 129600, Note_on_c, 1, 52, 100
3, 129660, Note_off_c, 1, 52, 100
3, 129664, Note_on_c, 1, 52, 100
3, 129724, Note_off_c, 1, 52, 100
3, 129728, Note_on_c, 1, 52, 100
3, 129788, Note_off_c, 1, 52, 100
3, 129792, Note_on_c, 1, 45, 100
3, 129856, Note_on_c, 1, 52, 100
3, 129916, Note_off_c, 1, 45, 100
3, 129916, Note_off_c, 1, 52, 100
3, 129920, Note_on_c, 1, 52, 100
3, 129980, Note_off_c, 1, 52, 100
3, 129984, Note_on_c, 1, 52, 100
3, 130044, Note_off_c, 1, 52, 100
3, 130048, Note_on_c, 1, 52, 100
3, 130108, Note_off_c, 1, 52, 100
3, 130112, Note_on_c, 1, 52, 100
3, 130172, Note_off_c, 1, 52, 100
3, 130176, Note_on_c, 1, 45, 100
3, 130556, Note_off_c, 1, 45, 100
3, 130560, Note_on_c, 1, 49, 100
3, 130940, Note_off_c, 1, 49, 100
3, 130944, Note_on_c, 1, 45, 100
3, 131324, Note_off_c, 1, 45, 100
3, 131328, Note_on_c, 1, 52, 100
3, 131708, Note_off_c, 1, 52, 100
3, 131712, Note_on_c, 1, 40, 100
3, 132092, Note_off_c, 1, 40, 100
3, 132480, Note_on_c, 1, 56, 100
3, 132528, Note_on_c, 1, 57, 100
3, 132572, Note_off_c, 1, 56, 100
3, 132860, Note_off_c, 1, 57, 100
3, 132864, Note_on_c, 1, 45, 100
3, 133244, Note_off_c, 1, 45, 100
3, 133632, Note_on_c, 1, 45, 70
3, 133632, Note_on_c, 1, 57, 70
3, 134396, Note_off_c, 1, 45, 100
3, 134396, Note_off_c, 1, 57, 100
3, 134400, Note_on_c, 1, 50, 70
3, 134780, Note_off_c, 1, 50, 100
3, 134784, Note_on_c, 1, 45, 70
3, 134784, Note_on_c, 1, 57, 70
3, 135548, Note_off_c, 1, 45, 100
3, 135548, Note_off_c, 1, 57, 100
3, 135552, Note_on_c, 1, 50, 70
3, 135932, Note_off_c, 1, 50, 100
3, 135936, Note_on_c, 1, 45, 100
3, 136316, Note_off_c, 1, 45, 100
3, 136320, Note_on_c, 1, 52, 100
3, 136700, Note_off_c, 1, 52, 100
3, 136704, Note_on_c, 1, 40, 100
3, 137084, Note_off_c, 1, 40, 100
3, 137088, Note_on_c, 1, 45, 100
3, 137276, Note_off_c, 1, 45, 100
3, 137280, Note_on_c, 1, 57, 100
3, 137344, Note_on_c, 1, 56, 100
3, 137404, Note_off_c, 1, 57, 100
3, 137408, Note_on_c, 1, 57, 100
3, 137468, Note_off_c, 1, 56, 100
3, 137472, Note_on_c, 1, 52, 100
3, 137532, Note_off_c, 1, 57, 100
3, 137536, Note_on_c, 1, 51, 100
3, 137596, Note_off_c, 1, 52, 100
3, 137600, Note_on_c, 1, 52, 100
3, 137660, Note_off_c, 1, 51, 100
3, 137664, Note_on_c, 1, 49, 100
3, 137724, Note_off_c, 1, 52, 100
3, 137728, Note_on_c, 1, 48, 100
3, 137788, Note_off_c, 1, 49, 100
3, 137792, Note_on_c, 1, 49, 100
3, 137852, Note_off_c, 1, 48, 100
3, 137856, Note_on_c, 1, 45, 100
3, 137916, Note_off_c, 1, 49, 100
3, 138236, Note_off_c, 1, 45, 100
3, 138240, Note_on_c, 1, 45, 100
3, 138304, Note_on_c, 1, 52, 100
3, 138364, Note_off_c, 1, 45, 100
3, 138364, Note_off_c, 1, 52, 100
3, 138368, Note_on_c, 1, 52, 100
3, 138428, Note_off_c, 1, 52, 100
3, 138432, Note_on_c, 1, 52, 100
3, 138492, Note_off_c, 1, 52, 100
3, 138496, Note_on_c, 1, 52, 100
3, 138556, Note_off_c, 1, 52, 100
3, 138560, Note_on_c, 1, 52, 100
3, 138620, Note_off_c, 1, 52, 100
3, 138624, Note_on_c, 1, 52, 100
3, 138684, Note_off_c, 1, 52, 100
3, 138688, Note_on_c, 1, 52, 100
3, 138748, Note_off_c, 1, 52, 100
3, 138752, Note_on_c, 1, 52, 100
3, 138812, Note_off_c, 1, 52, 100
3, 138816, Note_on_c, 1, 52, 100
3, 138876, Note_off_c, 1, 52, 100
3, 138880, Note_on_c, 1, 52, 100
3, 138940, Note_off_c, 1, 52, 100
3, 138944, Note_on_c, 1, 52, 100
3, 139004, Note_off_c, 1, 52, 100
3, 139008, Note_on_c, 1, 45, 100
3, 139072, Note_on_c, 1, 52, 100
3, 139132, Note_off_c, 1, 45, 100
3, 139132, Note_off_c, 1, 52, 100
3, 139136, Note_on_c, 1, 52, 100
3, 139196, Note_off_c, 1, 52, 100
3, 139200, Note_on_c, 1, 52, 100
3, 139260, Note_off_c, 1, 52, 100
3, 139264, Note_on_c, 1, 52, 100
3, 139324, Note_off_c, 1, 52, 100
3, 139328, Note_on_c, 1, 52, 100
3, 139388, Note_off_c, 1, 52, 100
3, 139392, Note_on_c, 1, 45, 100
3, 139772, Note_off_c, 1, 45, 100
3, 139776, Note_on_c, 1, 49, 100
3, 140156, Note_off_c, 1, 49, 100
3, 140160, Note_on_c, 1, 45, 100
3, 140540, Note_off_c, 1, 45, 100
3, 140544, Note_on_c, 1, 52, 100
3, 140924, Note_off_c, 1, 52, 100
3, 140928, Note_on_c, 1, 40, 100
3, 141308, Note_off_c, 1, 40, 100
3, 141696, Note_on_c, 1, 56, 100
3, 141744, Note_on_c, 1, 57, 100
3, 141788, Note_off_c, 1, 56, 100
3, 142076, Note_off_c, 1, 57, 100
3, 142080, Note_on_c, 1, 45, 100
3, 142460, Note_off_c, 1, 45, 100
3, 142848, Note_on_c, 1, 45, 70
3, 142848, Note_on_c, 1, 57, 70
3, 143612, Note_off_c, 1, 45, 100
3, 143612, Note_off_c, 1, 57, 100
3, 143616, Note_on_c, 1, 50, 70
3, 143996, Note_off_c, 1, 50, 100
3, 144000, Note_on_c, 1, 45, 70
3, 144000, Note_on_c, 1, 57, 70
3, 144764, Note_off_c, 1, 45, 100
3, 144764, Note_off_c, 1, 57, 100
3, 144768, Note_on_c, 1, 50, 70
3, 145148, Note_off_c, 1, 50, 100
3, 145152, Note_on_c, 1, 45, 100
3, 145532, Note_off_c, 1, 45, 100
3, 145536, Note_on_c, 1, 52, 100
3, 145916, Note_off_c, 1, 52, 100
3, 145920, Note_on_c, 1, 40, 100
3, 146300, Note_off_c, 1, 40, 100
3, 146304, Note_on_c, 1, 45, 100
3, 146492, Note_off_c, 1, 45, 100
3, 146496, Note_on_c, 1, 57, 100
3, 146560, Note_on_c, 1, 56, 100
3, 146620, Note_off_c, 1, 57, 100
3, 146624, Note_on_c, 1, 57, 100
3, 146684, Note_off_c, 1, 56, 100
3, 146688, Note_on_c, 1, 52, 100
3, 146748, Note_off_c, 1, 57, 100
3, 146752, Note_on_c, 1, 51, 100
3, 146812, Note_off_c, 1, 52, 100
3, 146816, Note_on_c, 1, 52, 100
3, 146876, Note_off_c, 1, 51, 100
3, 146880, Note_on_c, 1, 49, 100
3, 146940, Note_off_c, 1, 52, 100
3, 146944, Note_on_c, 1, 48, 100
3, 147004, Note_off_c, 1, 49, 100
3, 147008, Note_on_c, 1, 49, 100
3, 147068, Note_off_c, 1, 48, 100
3, 147072, Note_on_c, 1, 45, 100
3, 147132, Note_off_c, 1, 49, 100
3, 147452, Note_off_c, 1, 45, 100
3, 147456, Note_on_c, 1, 45, 70
3, 147456, Note_on_c, 1, 57, 70
3, 148220, Note_off_c, 1, 45, 100
3, 148220, Note_off_c, 1, 57, 100
3, 148224, Note_on_c, 1, 50, 70
3, 148604, Note_off_c, 1, 50, 100
3, 148608, Note_on_c, 1, 45, 70
3, 148608, Note_on_c, 1, 57, 70
3, 149372, Note_off_c, 1, 45, 100
3, 149372, Note_off_c, 1, 57, 100
3, 149376, Note_on_c, 1, 50, 70
3, 149756, Note_off_c, 1, 50, 100
3, 149760, Note_on_c, 1, 45, 70
3, 149760, Note_on_c, 1, 57, 70
3, 150140, Note_off_c, 1, 45, 100
3, 150140, Note_off_c, 1, 57, 100
3, 150144, Note_on_c, 1, 40, 70
3, 150144, Note_on_c, 1, 52, 70
3, 150524, Note_off_c, 1, 40, 100
3, 150524, Note_off_c, 1, 52, 100
3, 150528, Note_on_c, 1, 45, 70
3, 150528, Note_on_c, 1, 57, 70
3, 150908, Note_off_c, 1, 45, 100
3, 150908, Note_off_c, 1, 57, 100
3, 150912, Note_on_c, 1, 40, 70
3, 151004, Note_off_c, 1, 40, 100
3, 151008, Note_on_c, 1, 52, 70
3, 151056, Note_on_c, 1, 51, 70
3, 151100, Note_off_c, 1, 52, 100
3, 151104, Note_on_c, 1, 52, 70
3, 151148, Note_off_c, 1, 51, 100
3, 151152, Note_on_c, 1, 51, 70
3, 151196, Note_off_c, 1, 52, 100
3, 151200, Note_on_c, 1, 52, 70
3, 151244, Note_off_c, 1, 51, 100
3, 151248, Note_on_c, 1, 56, 70
3, 151292, Note_off_c, 1, 52, 100
3, 151296, Note_on_c, 1, 52, 70
3, 151340, Note_off_c, 1, 56, 100
3, 151388, Note_off_c, 1, 52, 100
3, 151392, Note_on_c, 1, 51, 70
3, 151440, Note_on_c, 1, 49, 70
3, 151484, Note_off_c, 1, 51, 100
3, 151488, Note_on_c, 1, 47, 70
3, 151532, Note_off_c, 1, 49, 100
3, 151536, Note_on_c, 1, 45, 70
3, 151580, Note_off_c, 1, 47, 100
3, 151584, Note_on_c, 1, 44, 70
3, 151628, Note_off_c, 1, 45, 100
3, 151632, Note_on_c, 1, 42, 70
3, 151676, Note_off_c, 1, 44, 100
3, 151680, Note_on_c, 1, 40, 70
3, 151724, Note_off_c, 1, 42, 100
3, 152060, Note_off_c, 1, 40, 100
3, 152064, Note_on_c, 1, 45, 100
3, 152064, Note_on_c, 1, 57, 100
3, 152828, Note_off_c, 1, 45, 100
3, 152828, Note_off_c, 1, 57, 100
3, 152832, Note_on_c, 1, 50, 100
3, 153212, Note_off_c, 1, 50, 100
3, 153216, Note_on_c, 1, 45, 100
3, 153216, Note_on_c, 1, 57, 100
3, 153980, Note_off_c, 1, 45, 100
3, 153980, Note_off_c, 1, 57, 100
3, 153984, Note_on_c, 1, 50, 100
3, 154364, Note_off_c, 1, 50, 100
3, 154368, Note_on_c, 1, 45, 100
3, 154748, Note_off_c, 1, 45, 100
3, 154752, Note_on_c, 1, 52, 100
3, 155132, Note_off_c, 1, 52, 100
3, 155136, Note_on_c, 1, 45, 100
3, 155516, Note_off_c, 1, 45, 100
3, 155520, Note_on_c, 1, 57, 100
3, 155900, Note_off_c, 1, 57, 100
3, 155904, Note_on_c, 1, 45, 100
3, 156284, Note_off_c, 1, 45, 100
3, 156288, Note_on_c, 1, 33, 100
3, 156668, Note_off_c, 1, 33, 100
3, 156672, Note_on_c, 1, 45, 70
3, 156672, Note_on_c, 1, 57, 70
3, 157436, Note_off_c, 1, 45, 100
3, 157436, Note_off_c, 1, 57, 100
3, 157440, Note_on_c, 1, 50, 70
3, 157820, Note_off_c, 1, 50, 100
3, 157824, Note_on_c, 1, 45, 70
3, 157824, Note_on_c, 1, 57, 70
3, 158588, Note_off_c, 1, 45, 100
3, 158588, Note_off_c, 1, 57, 100
3, 158592, Note_on_c, 1, 50, 70
3, 158972, Note_off_c, 1, 50, 100
3, 158976, Note_on_c, 1, 45, 70
3, 158976, Note_on_c, 1, 57, 70
3, 159356, Note_off_c, 1, 45, 100
3, 159356, Note_off_c, 1, 57, 100
3, 159360, Note_on_c, 1, 40, 70
3, 159360, Note_on_c, 1, 52, 70
3, 159740, Note_off_c, 1, 40, 100
3, 159740, Note_off_c, 1, 52, 100
3, 159744, Note_on_c, 1, 45, 70
3, 159744, Note_on_c, 1, 57, 70
3, 160124, Note_off_c, 1, 45, 100
3, 160124, Note_off_c, 1, 57, 100
3, 160128, Note_on_c, 1, 40, 70
3, 160220, Note_off_c, 1, 40, 100
3, 160224, Note_on_c, 1, 52, 70
3, 160272, Note_on_c, 1, 51, 70
3, 160316, Note_off_c, 1, 52, 100
3, 160320, Note_on_c, 1, 52, 70
3, 160364, Note_off_c, 1, 51, 100
3, 160368, Note_on_c, 1, 51, 70
3, 160412, Note_off_c, 1, 52, 100
3, 160416, Note_on_c, 1, 52, 70
3, 160460, Note_off_c, 1, 51, 100
3, 160464, Note_on_c, 1, 56, 70
3, 160508, Note_off_c, 1, 52, 100
3, 160512, Note_on_c, 1, 52, 70
3, 160556, Note_off_c, 1, 56, 100
3, 160604, Note_off_c, 1, 52, 100
3, 160608, Note_on_c, 1, 51, 70
3, 160656, Note_on_c, 1, 49, 70
3, 160700, Note_off_c, 1, 51, 100
3, 160704, Note_on_c, 1, 47, 70
3, 160748, Note_off_c, 1, 49, 100
3, 160752, Note_on_c, 1, 45, 70
3, 160796, Note_off_c, 1, 47, 100
3, 160800, Note_on_c, 1, 44, 70
3, 160844, Note_off_c, 1, 45, 100
3, 160848, Note_on_c, 1, 42, 70
3, 160892, Note_off_c, 1, 44, 100
3, 160896, Note_on_c, 1, 40, 70
3, 160940, Note_off_c, 1, 42, 100
3, 161276, Note_off_c, 1, 40, 100
3, 161280, Note_on_c, 1, 45, 100
3, 161280, Note_on_c, 1, 57, 100
3, 162044, Note_off_c, 1, 45, 100
3, 162044, Note_off_c, 1, 57, 100
3, 162048, Note_on_c, 1, 50, 100
3, 162428, Note_off_c, 1, 50, 100
3, 162432, Note_on_c, 1, 45, 100
3, 162432, Note_on_c, 1, 57, 100
3, 163196, Note_off_c, 1, 45, 100
3, 163196, Note_off_c, 1, 57, 100
3, 163200, Note_on_c, 1, 50, 100
3, 163580, Note_off_c, 1, 50, 100
3, 163584, Note_on_c, 1, 45, 100
3, 163964, Note_off_c, 1, 45, 100
3, 163968, Note_on_c, 1, 52, 100
3, 164348, Note_off_c, 1, 52, 100
3, 164352, Note_on_c, 1, 45, 100
3, 164732, Note_off_c, 1, 45, 100
3, 164736, Note_on_c, 1, 57, 100
3, 165116, Note_off_c, 1, 57, 100
3, 165120, Note_on_c, 1, 45, 100
3, 165500, Note_off_c, 1, 45, 100
3, 165504, Note_on_c, 1, 33, 100
3, 165884, Note_off_c, 1, 33, 100
3, 165888, Note_on_c, 1, 40, 100
3, 166268, Note_off_c, 1, 40, 100
3, 166272, Note_on_c, 1, 52, 100
3, 166652, Note_off_c, 1, 52, 100
3, 166656, Note_on_c, 1, 40, 100
3, 167036, Note_off_c, 1, 40, 100
3, 167040, Note_on_c, 1, 57, 100
3, 167420, Note_off_c, 1, 57, 100
3, 167424, Note_on_c, 1, 45, 100
3, 167804, Note_off_c, 1, 45, 100
3, 167808, Note_on_c, 1, 57, 100
3, 167856, Note_on_c, 1, 56, 100
3, 167900, Note_off_c, 1, 57, 100
3, 167904, Note_on_c, 1, 54, 100
3, 167948, Note_off_c, 1, 56, 100
3, 167952, Note_on_c, 1, 52, 100
3, 167996, Note_off_c, 1, 54, 100
3, 168000, Note_on_c, 1, 50, 100
3, 168044, Note_off_c, 1, 52, 100
3, 168048, Note_on_c, 1, 49, 100
3, 168092, Note_off_c, 1, 50, 100
3, 168096, Note_on_c, 1, 47, 100
3, 168140, Note_off_c, 1, 49, 100
3, 168144, Note_on_c, 1, 45, 100
3, 168188, Note_off_c, 1, 47, 100
3, 168188, Note_off_c, 1, 45, 100
3, 168192, Note_on_c, 1, 40, 100
3, 168572, Note_off_c, 1, 40, 100
3, 168576, Note_on_c, 1, 52, 100
3, 168956, Note_off_c, 1, 52, 100
3, 168960, Note_on_c, 1, 40, 100
3, 169340, Note_off_c, 1, 40, 100
3, 169344, Note_on_c, 1, 45, 100
3, 169724, Note_off_c, 1, 45, 100
3, 169728, Note_on_c, 1, 57, 100
3, 170108, Note_off_c, 1, 57, 100
3, 170112, Note_on_c, 1, 45, 100
3, 170492, Note_off_c, 1, 45, 100
3, 170496, Note_on_c, 1, 45, 70
3, 170496, Note_on_c, 1, 57, 70
3, 171260, Note_off_c, 1, 45, 100
3, 171260, Note_off_c, 1, 57, 100
3, 171264, Note_on_c, 1, 50, 70
3, 171644, Note_off_c, 1, 50, 100
3, 171648, Note_on_c, 1, 45, 70
3, 171648, Note_on_c, 1, 57, 70
3, 172412, Note_off_c, 1, 45, 100
3, 172412, Note_off_c, 1, 57, 100
3, 172416, Note_on_c, 1, 50, 70
3, 172796, Note_off_c, 1, 50, 100
3, 172800, Note_on_c, 1, 45, 100
3, 173180, Note_off_c, 1, 45, 100
3, 173184, Note_on_c, 1, 52, 100
3, 173564, Note_off_c, 1, 52, 100
3, 173568, Note_on_c, 1, 45, 100
3, 173948, Note_off_c, 1, 45, 100
3, 173952, Note_on_c, 1, 57, 100
3, 174332, Note_off_c, 1, 57, 100
3, 174336, Note_on_c, 1, 45, 100
3, 174716, Note_off_c, 1, 45, 100
3, 174720, Note_on_c, 1, 33, 100
3, 175100, Note_off_c, 1, 33, 100
3, 175104, Note_on_c, 1, 40, 100
3, 175484, Note_off_c, 1, 40, 100
3, 175488, Note_on_c, 1, 52, 100
3, 175868, Note_off_c, 1, 52, 100
3, 175872, Note_on_c, 1, 40, 100
3, 176252, Note_off_c, 1, 40, 100
3, 176256, Note_on_c, 1, 57, 100
3, 176636, Note_off_c, 1, 57, 100
3, 176640, Note_on_c, 1, 45, 100
3, 177020, Note_off_c, 1, 45, 100
3, 177024, Note_on_c, 1, 57, 100
3, 177072, Note_on_c, 1, 56, 100
3, 177116, Note_off_c, 1, 57, 100
3, 177120, Note_on_c, 1, 54, 100
3, 177164, Note_off_c, 1, 56, 100
3, 177168, Note_on_c, 1, 52, 100
3, 177212, Note_off_c, 1, 54, 100
3, 177216, Note_on_c, 1, 50, 100
3, 177260, Note_off_c, 1, 52, 100
3, 177264, Note_on_c, 1, 49, 100
3, 177308, Note_off_c, 1, 50, 100
3, 177312, Note_on_c, 1, 47, 100
3, 177356, Note_off_c, 1, 49, 100
3, 177360, Note_on_c, 1, 45, 100
3, 177404, Note_off_c, 1, 47, 100
3, 177404, Note_off_c, 1, 45, 100
3, 177408, Note_on_c, 1, 40, 100
3, 177788, Note_off_c, 1, 40, 100
3, 177792, Note_on_c, 1, 52, 100
3, 178172, Note_off_c, 1, 52, 100
3, 178176, Note_on_c, 1, 40, 100
3, 178556, Note_off_c, 1, 40, 100
3, 178560, Note_on_c, 1, 45, 100
3, 178940, Note_off_c, 1, 45, 100
3, 178944, Note_on_c, 1, 57, 100
3, 179324, Note_off_c, 1, 57, 100
3, 179328, Note_on_c, 1, 45, 100
3, 179708, Note_off_c, 1, 45, 100
3, 179712, Note_on_c, 1, 45, 70
3, 179712, Note_on_c, 1, 57, 70
3, 180476, Note_off_c, 1, 45, 100
3, 180476, Note_off_c, 1, 57, 100
3, 180480, Note_on_c, 1, 50, 70
3, 180860, Note_off_c, 1, 50, 100
3, 180864, Note_on_c, 1, 45, 70
3, 180864, Note_on_c, 1, 57, 70
3, 181628, Note_off_c, 1, 45, 100
3, 181628, Note_off_c, 1, 57, 100
3, 181632, Note_on_c, 1, 50, 70
3, 182012, Note_off_c, 1, 50, 100
3, 182016, Note_on_c, 1, 45, 100
3, 182396, Note_off_c, 1, 45, 100
3, 182400, Note_on_c, 1, 52, 100
3, 182780, Note_off_c, 1, 52, 100
3, 182784, Note_on_c, 1, 45, 100
3, 183164, Note_off_c, 1, 45, 100
3, 183168, Note_on_c, 1, 57, 100
3, 183548, Note_off_c, 1, 57, 100
3, 183552, Note_on_c, 1, 45, 100
3, 183932, Note_off_c, 1, 45, 100
3, 183936, Note_on_c, 1, 33, 100
3, 184316, Note_off_c, 1, 33, 100
3, 184320, Key_signature, 0, "minor"
3, 184320, Note_on_c, 1, 60, 70
3, 184700, Note_off_c, 1, 60, 100
3, 184704, Note_on_c, 1, 57, 70
3, 185084, Note_off_c, 1, 57, 100
3, 185088, Note_on_c, 1, 62, 70
3, 185468, Note_off_c, 1, 62, 100
3, 185472, Note_on_c, 1, 60, 70
3, 185852, Note_off_c, 1, 60, 100
3, 185856, Note_on_c, 1, 57, 70
3, 186236, Note_off_c, 1, 57, 100
3, 186240, Note_on_c, 1, 62, 70
3, 186620, Note_off_c, 1, 62, 100
3, 186624, Note_on_c, 1, 60, 70
3, 187004, Note_off_c, 1, 60, 100
3, 187008, Note_on_c, 1, 59, 70
3, 187388, Note_off_c, 1, 59, 100
3, 187392, Note_on_c, 1, 57, 70
3, 187772, Note_off_c, 1, 57, 100
3, 187776, Note_on_c, 1, 56, 70
3, 188156, Note_off_c, 1, 56, 100
3, 188160, Note_on_c, 1, 64, 70
3, 188540, Note_off_c, 1, 64, 100
3, 188544, Note_on_c, 1, 52, 70
3, 188924, Note_off_c, 1, 52, 100
3, 188928, Note_on_c, 1, 60, 100
3, 189308, Note_off_c, 1, 60, 100
3, 189312, Note_on_c, 1, 57, 100
3, 189692, Note_off_c, 1, 57, 100
3, 189696, Note_on_c, 1, 62, 100
3, 190076, Note_off_c, 1, 62, 100
3, 190080, Note_on_c, 1, 60, 100
3, 190460, Note_off_c, 1, 60, 100
3, 190464, Note_on_c, 1, 57, 100
3, 190844, Note_off_c, 1, 57, 100
3, 190848, Note_on_c, 1, 62, 100
3, 191228, Note_off_c, 1, 62, 100
3, 191232, Note_on_c, 1, 52, 100
3, 191232, Note_on_c, 1, 60, 100
3, 191612, Note_off_c, 1, 60, 100
3, 191616, Note_on_c, 1, 64, 100
3, 191996, Note_off_c, 1, 64, 100
3, 192000, Note_on_c, 1, 62, 100
3, 192380, Note_off_c, 1, 52, 100
3, 192380, Note_off_c, 1, 62, 100
3, 192384, Note_on_c, 1, 60, 100
3, 192384, Note_on_c, 1, 57, 100
3, 192764, Note_off_c, 1, 60, 100
3, 192764, Note_off_c, 1, 57, 100
3, 192768, Note_on_c, 1, 52, 100
3, 193148, Note_off_c, 1, 52, 100
3, 193152, Note_on_c, 1, 45, 100
3, 193532, Note_off_c, 1, 45, 100
3, 193536, Note_on_c, 1, 60, 70
3, 193916, Note_off_c, 1, 60, 100
3, 193920, Note_on_c, 1, 57, 70
3, 194300, Note_off_c, 1, 57, 100
3, 194304, Note_on_c, 1, 62, 70
3, 194684, Note_off_c, 1, 62, 100
3, 194688, Note_on_c, 1, 60, 70
3, 195068, Note_off_c, 1, 60, 100
3, 195072, Note_on_c, 1, 57, 70
3, 195452, Note_off_c, 1, 57, 100
3, 195456, Note_on_c, 1, 62, 70
3, 195836, Note_off_c, 1, 62, 100
3, 195840, Note_on_c, 1, 60, 70
3, 196220, Note_off_c, 1, 60, 100
3, 196224, Note_on_c, 1, 59, 70
3, 196604, Note_off_c, 1, 59, 100
3, 196608, Note_on_c, 1, 57, 70
3, 196988, Note_off_c, 1, 57, 100
3, 196992, Note_on_c, 1, 56, 70
3, 197372, Note_off_c, 1, 56, 100
3, 197376, Note_on_c, 1, 64, 70
3, 197756, Note_off_c, 1, 64, 100
3, 197760, Note_on_c, 1, 52, 70
3, 198140, Note_off_c, 1, 52, 100
3, 198144, Note_on_c, 1, 60, 100
3, 198524, Note_off_c, 1, 60, 100
3, 198528, Note_on_c, 1, 57, 100
3, 198908, Note_off_c, 1, 57, 100
3, 198912, Note_on_c, 1, 62, 100
3, 199292, Note_off_c, 1, 62, 100
3, 199296, Note_on_c, 1, 60, 100
3, 199676, Note_off_c, 1, 60, 100
3, 199680, Note_on_c, 1, 57, 100
3, 200060, Note_off_c, 1, 57, 100
3, 200064, Note_on_c, 1, 62, 100
3, 200444, Note_off_c, 1, 62, 100
3, 200448, Note_on_c, 1, 52, 100
3, 200448, Note_on_c, 1, 60, 100
3, 200828, Note_off_c, 1, 60, 100
3, 200832, Note_on_c, 1, 64, 100
3, 201212, Note_off_c, 1, 64, 100
3, 201216, Note_on_c, 1, 62, 100
3, 201596, Note_off_c, 1, 52, 100
3, 201596, Note_off_c, 1, 62, 100
3, 201600, Note_on_c, 1, 60, 100
3, 201600, Note_on_c, 1, 57, 100
3, 201980, Note_off_c, 1, 60, 100
3, 201980, Note_off_c, 1, 57, 100
3, 201984, Note_on_c, 1, 52, 100
3, 202364, Note_off_c, 1, 52, 100
3, 202368, Note_on_c, 1, 45, 100
3, 202748, Note_off_c, 1, 45, 100
3, 202752, Note_on_c, 1, 47, 100
3, 203132, Note_off_c, 1, 47, 100
3, 203136, Note_on_c, 1, 50, 100
3, 203516, Note_off_c, 1, 50, 100
3, 203520, Note_on_c, 1, 52, 100
3, 203900, Note_off_c, 1, 52, 100
3, 203904, Note_on_c, 1, 48, 100
3, 204284, Note_off_c, 1, 48, 100
3, 204288, Note_on_c, 1, 52, 100
3, 204668, Note_off_c, 1, 52, 100
3, 204672, Note_on_c, 1, 45, 100
3, 205052, Note_off_c, 1, 45, 100
3, 205056, Note_on_c, 1, 44, 100
3, 205436, Note_off_c, 1, 44, 100
3, 205440, Note_on_c, 1, 56, 100
3, 205820, Note_off_c, 1, 56, 100
3, 205824, Note_on_c, 1, 44, 100
3, 206204, Note_off_c, 1, 44, 100
3, 206208, Note_on_c, 1, 45, 100
3, 206588, Note_off_c, 1, 45, 100
3, 206592, Note_on_c, 1, 57, 100
3, 206972, Note_off_c, 1, 57, 100
3, 206976, Note_on_c, 1, 45, 90
3, 207356, Note_off_c, 1, 45, 100
3, 207360, Note_on_c, 1, 64, 70
3, 207360, Note_on_c, 1, 60, 70
3, 207740, Note_off_c, 1, 64, 100
3, 207740, Note_off_c, 1, 60, 100
3, 207744, Note_on_c, 1, 60, 70
3, 207744, Note_on_c, 1, 57, 70
3, 208124, Note_off_c, 1, 60, 100
3, 208124, Note_off_c, 1, 57, 100
3, 208128, Note_on_c, 1, 65, 70
3, 208128, Note_on_c, 1, 62, 70
3, 208508, Note_off_c, 1, 65, 100
3, 208508, Note_off_c, 1, 62, 100
3, 208512, Note_on_c, 1, 64, 70
3, 208512, Note_on_c, 1, 60, 70
3, 208892, Note_off_c, 1, 64, 100
3, 208892, Note_off_c, 1, 60, 100
3, 208896, Note_on_c, 1, 60, 70
3, 208896, Note_on_c, 1, 57, 70
3, 209276, Note_off_c, 1, 60, 100
3, 209276, Note_off_c, 1, 57, 100
3, 209280, Note_on_c, 1, 65, 70
3, 209280, Note_on_c, 1, 62, 70
3, 209660, Note_off_c, 1, 65, 100
3, 209660, Note_off_c, 1, 62, 100
3, 209664, Note_on_c, 1, 64, 100
3, 209664, Note_on_c, 1, 60, 100
3, 210044, Note_off_c, 1, 64, 100
3, 210044, Note_off_c, 1, 60, 100
3, 210048, Note_on_c, 1, 48, 100
3, 210428, Note_off_c, 1, 48, 100
3, 210432, Note_on_c, 1, 50, 100
3, 210620, Note_off_c, 1, 50, 100
3, 210624, Note_on_c, 1, 52, 100
3, 210812, Note_off_c, 1, 52, 100
3, 210816, Note_on_c, 1, 57, 100
3, 211196, Note_off_c, 1, 57, 100
3, 211200, Note_on_c, 1, 52, 100
3, 211580, Note_off_c, 1, 52, 100
3, 211584, Note_on_c, 1, 45, 100
3, 211964, Note_off_c, 1, 45, 100
3, 211968, Note_on_c, 1, 47, 100
3, 212348, Note_off_c, 1, 47, 100
3, 212352, Note_on_c, 1, 50, 100
3, 212732, Note_off_c, 1, 50, 100
3, 212736, Note_on_c, 1, 52, 100
3, 213116, Note_off_c, 1, 52, 100
3, 213120, Note_on_c, 1, 48, 100
3, 213500, Note_off_c, 1, 48, 100
3, 213504, Note_on_c, 1, 52, 100
3, 213884, Note_off_c, 1, 52, 100
3, 213888, Note_on_c, 1, 45, 100
3, 214268, Note_off_c, 1, 45, 100
3, 214272, Note_on_c, 1, 44, 100
3, 214652, Note_off_c, 1, 44, 100
3, 214656, Note_on_c, 1, 56, 100
3, 215036, Note_off_c, 1, 56, 100
3, 215040, Note_on_c, 1, 44, 100
3, 215420, Note_off_c, 1, 44, 100
3, 215424, Note_on_c, 1, 45, 100
3, 215804, Note_off_c, 1, 45, 100
3, 215808, Note_on_c, 1, 57, 100
3, 216188, Note_off_c, 1, 57, 100
3, 216192, Note_on_c, 1, 45, 90
3, 216572, Note_off_c, 1, 45, 100
3, 216576, Note_on_c, 1, 64, 70
3, 216576, Note_on_c, 1, 60, 70
3, 216956, Note_off_c, 1, 64, 100
3, 216956, Note_off_c, 1, 60, 100
3, 216960, Note_on_c, 1, 60, 70
3, 216960, Note_on_c, 1, 57, 70
3, 217340, Note_off_c, 1, 60, 100
3, 217340, Note_off_c, 1, 57, 100
3, 217344, Note_on_c, 1, 65, 70
3, 217344, Note_on_c, 1, 62, 70
3, 217724, Note_off_c, 1, 65, 100
3, 217724, Note_off_c, 1, 62, 100
3, 217728, Note_on_c, 1, 64, 70
3, 217728, Note_on_c, 1, 60, 70
3, 218108, Note_off_c, 1, 64, 100
3, 218108, Note_off_c, 1, 60, 100
3, 218112, Note_on_c, 1, 60, 70
3, 218112, Note_on_c, 1, 57, 70
3, 218492, Note_off_c, 1, 60, 100
3, 218492, Note_off_c, 1, 57, 100
3, 218496, Note_on_c, 1, 65, 70
3, 218496, Note_on_c, 1, 62, 70
3, 218876, Note_off_c, 1, 65, 100
3, 218876, Note_off_c, 1, 62, 100
3, 218880, Note_on_c, 1, 64, 100
3, 218880, Note_on_c, 1, 60, 100
3, 219260, Note_off_c, 1, 64, 100
3, 219260, Note_off_c, 1, 60, 100
3, 219264, Note_on_c, 1, 48, 100
3, 219644, Note_off_c, 1, 48, 100
3, 219648, Note_on_c, 1, 50, 100
3, 219836, Note_off_c, 1, 50, 100
3, 219840, Note_on_c, 1, 52, 100
3, 220028, Note_off_c, 1, 52, 100
3, 220032, Note_on_c, 1, 57, 100
3, 220412, Note_off_c, 1, 57, 100
3, 220416, Note_on_c, 1, 52, 100
3, 220796, Note_off_c, 1, 52, 100
3, 220800, Note_on_c, 1, 45, 100
3, 221180, Note_off_c, 1, 45, 100
3, 221184, Key_signature, 3, "major"
3, 221184, Note_on_c, 1, 57, 70
3, 221184, Note_on_c, 1, 45, 70
3, 221948, Note_off_c, 1, 57, 100
3, 221948, Note_off_c, 1, 45, 100
3, 221952, Note_on_c, 1, 50, 70
3, 222332, Note_off_c, 1, 50, 100
3, 222336, Note_on_c, 1, 57, 70
3, 222336, Note_on_c, 1, 45, 70
3, 223100, Note_off_c, 1, 57, 100
3, 223100, Note_off_c, 1, 45, 100
3, 223104, Note_on_c, 1, 50, 70
3, 223484, Note_off_c, 1, 50, 100
3, 223488, Note_on_c, 1, 45, 70
3, 223488, Note_on_c, 1, 57, 70
3, 223868, Note_off_c, 1, 45, 100
3, 223868, Note_off_c, 1, 57, 100
3, 223872, Note_on_c, 1, 40, 70
3, 223872, Note_on_c, 1, 52, 70
3, 224252, Note_off_c, 1, 40, 100
3, 224252, Note_off_c, 1, 52, 100
3, 224256, Note_on_c, 1, 45, 70
3, 224256, Note_on_c, 1, 57, 70
3, 224636, Note_off_c, 1, 45, 100
3, 224636, Note_off_c, 1, 57, 100
3, 224640, Note_on_c, 1, 40, 70
3, 224764, Note_off_c, 1, 40, 100
3, 224768, Note_on_c, 1, 44, 70
3, 224892, Note_off_c, 1, 44, 100
3, 224896, Note_on_c, 1, 47, 70
3, 225020, Note_off_c, 1, 47, 100
3, 225024, Note_on_c, 1, 52, 70
3, 225148, Note_off_c, 1, 52, 100
3, 225152, Note_on_c, 1, 54, 70
3, 225276, Note_off_c, 1, 54, 100
3, 225280, Note_on_c, 1, 52, 70
3, 225404, Note_off_c, 1, 52, 100
3, 225408, Note_on_c, 1, 50, 70
3, 225532, Note_off_c, 1, 50, 100
3, 225536, Note_on_c, 1, 49, 70
3, 225660, Note_off_c, 1, 49, 100
3, 225664, Note_on_c, 1, 47, 70
3, 225788, Note_off_c, 1, 47, 100
3, 225792, Note_on_c, 1, 57, 100
3, 225792, Note_on_c, 1, 45, 100
3, 226556, Note_off_c, 1, 57, 100
3, 226556, Note_off_c, 1, 45, 100
3, 226560, Note_on_c, 1, 50, 100
3, 226940, Note_off_c, 1, 50, 100
3, 226944, Note_on_c, 1, 57, 100
3, 226944, Note_on_c, 1, 45, 100
3, 227708, Note_off_c, 1, 57, 100
3, 227708, Note_off_c, 1, 45, 100
3, 227712, Note_on_c, 1, 50, 100
3, 228092, Note_off_c, 1, 50, 100
3, 228096, Note_on_c, 1, 45, 100
3, 228476, Note_off_c, 1, 45, 100
3, 228480, Note_on_c, 1, 52, 100
3, 228860, Note_off_c, 1, 52, 100
3, 228864, Note_on_c, 1, 40, 100
3, 229244, Note_off_c, 1, 40, 100
3, 229248, Note_on_c, 1, 45, 100
3, 229372, Note_off_c, 1, 45, 100
3, 229376, Note_on_c, 1, 49, 100
3, 229500, Note_off_c, 1, 49, 100
3, 229504, Note_on_c, 1, 52, 100
3, 229628, Note_off_c, 1, 52, 100
3, 229632, Note_on_c, 1, 57, 100
3, 229756, Note_off_c, 1, 57, 100
3, 229760, Note_on_c, 1, 61, 100
3, 229884, Note_off_c, 1, 61, 100
3, 229888, Note_on_c, 1, 57, 100
3, 230012, Note_off_c, 1, 57, 100
3, 230016, Note_on_c, 1, 45, 100
3, 230396, Note_off_c, 1, 45, 100
3, 230400, Note_on_c, 1, 57, 70
3, 230400, Note_on_c, 1, 45, 70
3, 231164, Note_off_c, 1, 57, 100
3, 231164, Note_off_c, 1, 45, 100
3, 231168, Note_on_c, 1, 50, 70
3, 231548, Note_off_c, 1, 50, 100
3, 231552, Note_on_c, 1, 57, 70
3, 231552, Note_on_c, 1, 45, 70
3, 232316, Note_off_c, 1, 57, 100
3, 232316, Note_off_c, 1, 45, 100
3, 232320, Note_on_c, 1, 50, 70
3, 232700, Note_off_c, 1, 50, 100
3, 232704, Note_on_c, 1, 45, 70
3, 232704, Note_on_c, 1, 57, 70
3, 233084, Note_off_c, 1, 45, 100
3, 233084, Note_off_c, 1, 57, 100
3, 233088, Note_on_c, 1, 40, 70
3, 233088, Note_on_c, 1, 52, 70
3, 233468, Note_off_c, 1, 40, 100
3, 233468, Note_off_c, 1, 52, 100
3, 233472, Note_on_c, 1, 45, 70
3, 233472, Note_on_c, 1, 57, 70
3, 233852, Note_off_c, 1, 45, 100
3, 233852, Note_off_c, 1, 57, 100
3, 233856, Note_on_c, 1, 40, 70
3, 233980, Note_off_c, 1, 40, 100
3, 233984, Note_on_c, 1, 44, 70
3, 234108, Note_off_c, 1, 44, 100
3, 234112, Note_on_c, 1, 47, 70
3, 234236, Note_off_c, 1, 47, 100
3, 234240, Note_on_c, 1, 52, 70
3, 234364, Note_off_c, 1, 52, 100
3, 234368, Note_on_c, 1, 54, 70
3, 234492, Note_off_c, 1, 54, 100
3, 234496, Note_on_c, 1, 52, 70
3, 234620, Note_off_c, 1, 52, 100
3, 234624, Note_on_c, 1, 50, 70
3, 234748, Note_off_c, 1, 50, 100
3, 234752, Note_on_c, 1, 49, 70
3, 234876, Note_off_c, 1, 49, 100
3, 234880, Note_on_c, 1, 47, 70
3, 235004, Note_off_c, 1, 47, 100
3, 235008, Note_on_c, 1, 57, 100
3, 235008, Note_on_c, 1, 45, 100
3, 235772, Note_off_c, 1, 57, 100
3, 235772, Note_off_c, 1, 45, 100
3, 235776, Note_on_c, 1, 50, 100
3, 236156, Note_off_c, 1, 50, 100
3, 236160, Note_on_c, 1, 57, 100
3, 236160, Note_on_c, 1, 45, 100
3, 236924, Note_off_c, 1, 57, 100
3, 236924, Note_off_c, 1, 45, 100
3, 236928, Note_on_c, 1, 50, 100
3, 237308, Note_off_c, 1, 50, 100
3, 237312, Note_on_c, 1, 45, 100
3, 237692, Note_off_c, 1, 45, 100
3, 237696, Note_on_c, 1, 52, 100
3, 238076, Note_off_c, 1, 52, 100
3, 238080, Note_on_c, 1, 40, 100
3, 238460, Note_off_c, 1, 40, 100
3, 238464, Note_on_c, 1, 45, 100
3, 238588, Note_off_c, 1, 45, 100
3, 238592, Note_on_c, 1, 49, 100
3, 238716, Note_off_c, 1, 49, 100
3, 238720, Note_on_c, 1, 52, 100
3, 238844, Note_off_c, 1, 52, 100
3, 238848, Note_on_c, 1, 57, 100
3, 238972, Note_off_c, 1, 57, 100
3, 238976, Note_on_c, 1, 61, 100
3, 239100, Note_off_c, 1, 61, 100
3, 239104, Note_on_c, 1, 57, 100
3, 239228, Note_off_c, 1, 57, 100
3, 239232, Note_on_c, 1, 45, 100
3, 239612, Note_off_c, 1, 45, 100
3, 239616, Note_on_c, 1, 44, 100
3, 239740, Note_off_c, 1, 44, 100
3, 239744, Note_on_c, 1, 52, 100
3, 239868, Note_off_c, 1, 52, 100
3, 239872, Note_on_c, 1, 52, 100
3, 239996, Note_off_c, 1, 52, 100
3, 240000, Note_on_c, 1, 47, 100
3, 240124, Note_off_c, 1, 47, 100
3, 240128, Note_on_c, 1, 52, 100
3, 240252, Note_off_c, 1, 52, 100
3, 240256, Note_on_c, 1, 52, 100
3, 240380, Note_off_c, 1, 52, 100
3, 240384, Note_on_c, 1, 44, 100
3, 240508, Note_off_c, 1, 44, 100
3, 240512, Note_on_c, 1, 52, 100
3, 240636, Note_off_c, 1, 52, 100
3, 240640, Note_on_c, 1, 52, 100
3, 240764, Note_off_c, 1, 52, 100
3, 240768, Note_on_c, 1, 45, 100
3, 240892, Note_off_c, 1, 45, 100
3, 240896, Note_on_c, 1, 52, 100
3, 241020, Note_off_c, 1, 52, 100
3, 241024, Note_on_c, 1, 52, 100
3, 241148, Note_off_c, 1, 52, 100
3, 241152, Note_on_c, 1, 49, 100
3, 241276, Note_off_c, 1, 49, 100
3, 241280, Note_on_c, 1, 52, 100
3, 241404, Note_off_c, 1, 52, 100
3, 241408, Note_on_c, 1, 52, 100
3, 241532, Note_off_c, 1, 52, 100
3, 241536, Note_on_c, 1, 45, 100
3, 241660, Note_off_c, 1, 45, 100
3, 241664, Note_on_c, 1, 52, 100
3, 241788, Note_off_c, 1, 52, 100
3, 241792, Note_on_c, 1, 52, 100
3, 241916, Note_off_c, 1, 52, 100
3, 241920, Note_on_c, 1, 44, 100
3, 242044, Note_off_c, 1, 44, 100
3, 242048, Note_on_c, 1, 52, 100
3, 242172, Note_off_c, 1, 52, 100
3, 242176, Note_on_c, 1, 52, 100
3, 242300, Note_off_c, 1, 52, 100
3, 242304, Note_on_c, 1, 47, 100
3, 242428, Note_off_c, 1, 47, 100
3, 242432, Note_on_c, 1, 52, 100
3, 242556, Note_off_c, 1, 52, 100
3, 242560, Note_on_c, 1, 52, 100
3, 242684, Note_off_c, 1, 52, 100
3, 242688, Note_on_c, 1, 44, 100
3, 242812, Note_off_c, 1, 44, 100
3, 242816, Note_on_c, 1, 52, 100
3, 242940, Note_off_c, 1, 52, 100
3, 242944, Note_on_c, 1, 52, 100
3, 243068, Note_off_c, 1, 52, 100
3, 243072, Note_on_c, 1, 45, 100
3, 243452, Note_off_c, 1, 45, 100
3, 243456, Note_on_c, 1, 57, 100
3, 243836, Note_off_c, 1, 57, 100
3, 243840, Note_on_c, 1, 45, 100
3, 244220, Note_off_c, 1, 45, 100
3, 244224, Note_on_c, 1, 57, 70
3, 244224, Note_on_c, 1, 45, 70
3, 244988, Note_off_c, 1, 57, 100
3, 244988, Note_off_c, 1, 45, 100
3, 244992, Note_on_c, 1, 50, 70
3, 245372, Note_off_c, 1, 50, 100
3, 245376, Note_on_c, 1, 57, 70
3, 245376, Note_on_c, 1, 45, 70
3, 246140, Note_off_c, 1, 57, 100
3, 246140, Note_off_c, 1, 45, 100
3, 246144, Note_on_c, 1, 50, 70
3, 246524, Note_off_c, 1, 50, 100
3, 246528, Note_on_c, 1, 45, 100
3, 246908, Note_off_c, 1, 45, 100
3, 246912, Note_on_c, 1, 52, 100
3, 247292, Note_off_c, 1, 52, 100
3, 247296, Note_on_c, 1, 40, 100
3, 247676, Note_off_c, 1, 40, 100
3, 247680, Note_on_c, 1, 45, 100
3, 247804, Note_off_c, 1, 45, 100
3, 247808, Note_on_c, 1, 49, 100
3, 247932, Note_off_c, 1, 49, 100
3, 247936, Note_on_c, 1, 52, 100
3, 248060, Note_off_c, 1, 52, 100
3, 248064, Note_on_c, 1, 57, 100
3, 248188, Note_off_c, 1, 57, 100
3, 248192, Note_on_c, 1, 52, 100
3, 248316, Note_off_c, 1, 52, 100
3, 248320, Note_on_c, 1, 49, 100
3, 248444, Note_off_c, 1, 49, 100
3, 248448, Note_on_c, 1, 45, 100
3, 248828, Note_off_c, 1, 45, 100
3, 248832, Note_on_c, 1, 44, 100
3, 248956, Note_off_c, 1, 44, 100
3, 248960, Note_on_c, 1, 52, 100
3, 249084, Note_off_c, 1, 52, 100
3, 249088, Note_on_c, 1, 52, 100
3, 249212, Note_off_c, 1, 52, 100
3, 249216, Note_on_c, 1, 47, 100
3, 249340, Note_off_c, 1, 47, 100
3, 249344, Note_on_c, 1, 52, 100
3, 249468, Note_off_c, 1, 52, 100
3, 249472, Note_on_c, 1, 52, 100
3, 249596, Note_off_c, 1, 52, 100
3, 249600, Note_on_c, 1, 44, 100
3, 249724, Note_off_c, 1, 44, 100
3, 249728, Note_on_c, 1, 52, 100
3, 249852, Note_off_c, 1, 52, 100
3, 249856, Note_on_c, 1, 52, 100
3, 249980, Note_off_c, 1, 52, 100
3, 249984, Note_on_c, 1, 45, 100
3, 250108, Note_off_c, 1, 45, 100
3, 250112, Note_on_c, 1, 52, 100
3, 250236, Note_off_c, 1, 52, 100
3, 250240, Note_on_c, 1, 52, 100
3, 250364, Note_off_c, 1, 52, 100
3, 250368, Note_on_c, 1, 49, 100
3, 250492, Note_off_c, 1, 49, 100
3, 250496, Note_on_c, 1, 52, 100
3, 250620, Note_off_c, 1, 52, 100
3, 250624, Note_on_c, 1, 52, 100
3, 250748, Note_off_c, 1, 52, 100
3, 250752, Note_on_c, 1, 45, 100
3, 250876, Note_off_c, 1, 45, 100
3, 250880, Note_on_c, 1, 52, 100
3, 251004, Note_off_c, 1, 52, 100
3, 251008, Note_on_c, 1, 52, 100
3, 251132, Note_off_c, 1, 52, 100
3, 251136, Note_on_c, 1, 44, 100
3, 251260, Note_off_c, 1, 44, 100
3, 251264, Note_on_c, 1, 52, 100
3, 251388, Note_off_c, 1, 52, 100
3, 251392, Note_on_c, 1, 52, 100
3, 251516, Note_off_c, 1, 52, 100
3, 251520, Note_on_c, 1, 47, 100
3, 251644, Note_off_c, 1, 47, 100
3, 251648, Note_on_c, 1, 52, 100
3, 251772, Note_off_c, 1, 52, 100
3, 251776, Note_on_c, 1, 52, 100
3, 251900, Note_off_c, 1, 52, 100
3, 251904, Note_on_c, 1, 44, 100
3, 252028, Note_off_c, 1, 44, 100
3, 252032, Note_on_c, 1, 52, 100
3, 252156, Note_off_c, 1, 52, 100
3, 252160, Note_on_c, 1, 52, 100
3, 252284, Note_off_c, 1, 52, 100
3, 252288, Note_on_c, 1, 45, 100
3, 252668, Note_off_c, 1, 45, 100
3, 252672, Note_on_c, 1, 57, 100
3, 253052, Note_off_c, 1, 57, 100
3, 253056, Note_on_c, 1, 45, 100
3, 253436, Note_off_c, 1, 45, 100
3, 253440, Note_on_c, 1, 57, 70
3, 253440, Note_on_c, 1, 45, 70
3, 254204, Note_off_c, 1, 57, 100
3, 254204, Note_off_c, 1, 45, 100
3, 254208, Note_on_c, 1, 50, 70
3, 254588, Note_off_c, 1, 50, 100
3, 254592, Note_on_c, 1, 57, 70
3, 254592, Note_on_c, 1, 45, 70
3, 255356, Note_off_c, 1, 57, 100
3, 255356, Note_off_c, 1, 45, 100
3, 255360, Note_on_c, 1, 50, 70
3, 255740, Note_off_c, 1, 50, 100
3, 255744, Note_on_c, 1, 45, 100
3, 256124, Note_off_c, 1, 45, 100
3, 256128, Note_on_c, 1, 52, 100
3, 256508, Note_off_c, 1, 52, 100
3, 256512, Note_on_c, 1, 40, 100
3, 256892, Note_off_c, 1, 40, 100
3, 256896, Note_on_c, 1, 42, 100
3, 256896, Note_on_c, 1, 54, 100
3, 257276, Note_off_c, 1, 42, 100
3, 257276, Note_off_c, 1, 54, 100
3, 257280, Note_on_c, 1, 54, 100
3, 257660, Note_off_c, 1, 54, 100
3, 257664, Note_on_c, 1, 49, 100
3, 258044, Note_off_c, 1, 49, 100
3, 258048, Note_on_c, 1, 50, 100
3, 258428, Note_off_c, 1, 50, 100
3, 258432, Note_on_c, 1, 50, 100
3, 258812, Note_off_c, 1, 50, 100
3, 258816, Note_on_c, 1, 52, 100
3, 259196, Note_off_c, 1, 52, 100
3, 259200, Note_on_c, 1, 54, 100
3, 259580, Note_off_c, 1, 54, 100
3, 259584, Note_on_c, 1, 54, 98
3, 259964, Note_off_c, 1, 54, 100
3, 259968, Note_on_c, 1, 49, 95
3, 260348, Note_off_c, 1, 49, 100
3, 260352, Note_on_c, 1, 50, 93
3, 260732, Note_off_c, 1, 50, 100
3, 260736, Note_on_c, 1, 50, 90
3, 261116, Note_off_c, 1, 50, 100
3, 261120, Note_on_c, 1, 52, 87
3, 261500, Note_off_c, 1, 52, 100
3, 261504, Note_on_c, 1, 57, 85
3, 261884, Note_off_c, 1, 57, 100
3, 262656, Note_on_c, 1, 45, 77
3, 263036, Note_off_c, 1, 45, 100
3, 263808, Note_on_c, 1, 33, 70
3, 263808, Note_on_c, 1, 45, 70
3, 264188, Note_off_c, 1, 33, 100
3, 264188, Note_off_c, 1, 45, 100
3, 264192, Note_on_c, 1, 33, 70
3, 264192, Note_on_c, 1, 45, 70
3, 264572, Note_off_c, 1, 33, 100
3, 264572, Note_off_c, 1, 45, 100
3, 264576, Note_on_c, 1, 33, 70
3, 264576, Note_on_c, 1, 45, 70
3, 264956, Note_off_c, 1, 33, 100
3, 264956, Note_off_c, 1, 45, 100
3, 264960, Note_on_c, 1, 33, 70
3, 264960, Note_on_c, 1, 45, 70
3, 265724, Note_off_c, 1, 33, 100
3, 265724, Note_off_c, 1, 45, 100
3, 265724, End_track
0, 0, End_of_file
