0, 0, Header, 1, 3, 384
1, 0, Start_track
1, 0, Title_t, "L.v.Beethoven 1mov - Kurfursten-Sonatas No.3 in D Major WoO 47-3\000"
1, 0, Copyright_t, "Copyright(C) 1995-2009, Suzuki Software\000"
1, 0, Sequencer_specific, 9, 67, 123, 0, 88, 70, 48, 50, 0, 1
1, 0, Text_t, "XFhd:2009/03/28:JP:Classical::::L.v.Beethoven:::Kaoru Suzuki\000"
1, 0, Text_t, "XFln:JP:\221I\222é\214ò\203\\\203i\203^\221æ3\224Ô\225Ï\203j\222·\222² WoO 47-3\201`\221æ1\212y\217Í:L.v.\203x\201[\203g\201[\203\224\203F\203\223:::\227é\202¿\202á\202ñ:\227é\202¿\202á\202ñ\000"
1, 0, Time_signature, 4, 2, 96, 8
1, 0, Sequencer_specific, 5, 0, 0, 119, 14, 0
1, 0, Tempo, 468750
1, 96, Tempo, 251046
1, 576, Tempo, 468750
1, 11136, Tempo, 476190
1, 11520, Tempo, 483870
1, 11904, Tempo, 500000
1, 12096, Tempo, 526315
1, 12288, Tempo, 468750
1, 24576, Tempo, 483870
1, 24960, Tempo, 500000
1, 26112, Tempo, 468750
1, 28416, Tempo, 483870
1, 28800, Tempo, 500000
1, 28992, Tempo, 526315
1, 29376, Tempo, 468750
1, 33024, Tempo, 483870
1, 33408, Tempo, 500000
1, 33600, Tempo, 526315
1, 33792, Tempo, 483870
1, 35520, Tempo, 468750
1, 40896, Tempo, 483870
1, 41088, Tempo, 500000
1, 41280, Tempo, 545454
1, 41472, Tempo, 500000
1, 41664, Tempo, 468750
1, 47616, Tempo, 461538
1, 56064, Tempo, 476190
1, 56448, Tempo, 500000
1, 56832, Tempo, 468750
1, 60672, Tempo, 476190
1, 61056, Tempo, 483870
1, 61248, Tempo, 500000
1, 61440, Tempo, 476190
1, 62592, Tempo, 483870
1, 64128, Tempo, 500000
1, 64320, Tempo, 526315
1, 65280, Tempo, 600000
1, 66048, Tempo, 750000
1, 67584, Tempo, 468750
1, 74496, Tempo, 483870
1, 74880, Tempo, 500000
1, 75648, Tempo, 545454
1, 76032, Tempo, 600000
1, 76416, Tempo, 500000
1, 76800, Tempo, 468750
1, 86784, Tempo, 483870
1, 87168, Tempo, 500000
1, 87360, Tempo, 526315
1, 87552, Tempo, 468750
1, 97536, Tempo, 483870
1, 97920, Tempo, 500000
1, 98496, Tempo, 468750
1, 100224, Tempo, 483870
1, 100608, Tempo, 500000
1, 101376, Tempo, 468750
1, 108288, Tempo, 483870
1, 108672, Tempo, 500000
1, 109056, Tempo, 483870
1, 110784, Tempo, 468750
1, 128256, Tempo, 483870
1, 128640, Tempo, 500000
1, 128832, Tempo, 526315
1, 129216, Tempo, 468750
1, 131328, Tempo, 483870
1, 131712, Tempo, 500000
1, 131904, Tempo, 535714
1, 132096, Tempo, 480000
1, 139008, Tempo, 500000
1, 139392, Tempo, 545454
1, 139584, Tempo, 600000
1, 139776, Tempo, 530973
1, 140544, Tempo, 600000
1, 141312, Tempo, 750000
1, 142848, Tempo, 468750
1, 149760, Tempo, 483870
1, 150144, Tempo, 500000
1, 150528, Tempo, 545454
1, 150912, Tempo, 600000
1, 151680, Tempo, 508474
1, 152064, Tempo, 468750
1, 155904, Tempo, 483870
1, 156288, Tempo, 500000
1, 156480, Tempo, 535714
1, 156672, Tempo, 480000
1, 162048, Tempo, 500000
1, 162432, Tempo, 517241
1, 162624, Tempo, 545454
1, 162816, Tempo, 500000
1, 163008, Tempo, 468750
1, 172800, Tempo, 483870
1, 173184, Tempo, 500000
1, 173376, Tempo, 526315
1, 173568, Tempo, 500000
1, 173760, Tempo, 468750
1, 182784, Tempo, 483870
1, 183552, Tempo, 500000
1, 183936, Tempo, 517241
1, 184128, Tempo, 545454
1, 185088, Tempo, 600000
1, 185856, Tempo, 750000
1, 187008, Tempo, 500000
1, 187392, Tempo, 468750
1, 192000, Tempo, 483870
1, 192384, Tempo, 500000
1, 192576, Tempo, 545454
1, 193536, Tempo, 468750
1, 198912, Tempo, 483870
1, 199296, Tempo, 500000
1, 199488, Tempo, 535714
1, 199872, Tempo, 468750
1, 209088, Tempo, 461538
1, 214464, Tempo, 476190
1, 214656, Tempo, 500000
1, 214848, Tempo, 545454
1, 215040, Tempo, 508474
1, 215232, Tempo, 461538
1, 220416, Tempo, 476190
1, 220800, Tempo, 500000
1, 220992, Tempo, 545454
1, 221280, Tempo, 500000
1, 221376, Tempo, 461538
1, 226560, Tempo, 476190
1, 226944, Tempo, 500000
1, 227136, Tempo, 545454
1, 227712, Tempo, 476190
1, 231552, Tempo, 483870
1, 231744, Tempo, 500000
1, 232128, Tempo, 483870
1, 234240, Tempo, 500000
1, 234624, Tempo, 517241
1, 234816, Tempo, 545454
1, 235776, Tempo, 600000
1, 236544, Tempo, 750000
1, 238080, Tempo, 468750
1, 243840, Tempo, 476190
1, 244032, Tempo, 483870
1, 244992, Tempo, 500000
1, 245376, Tempo, 517241
1, 245568, Tempo, 545454
1, 245760, Tempo, 600000
1, 246144, Tempo, 750000
1, 246144, End_track
2, 0, Start_track
2, 0, Title_t, "Piano Right"
2, 0, Control_c, 0, 0, 0
2, 0, Program_c, 0, 0
2, 0, Control_c, 0, 7, 100
2, 0, Control_c, 0, 10, 74
2, 0, Control_c, 0, 91, 127
2, 0, Key_signature, 2, "major"
2, 1152, Note_on_c, 0, 69, 100
2, 1244, Note_off_c, 0, 69, 100
2, 1248, Note_on_c, 0, 66, 100
2, 1340, Note_off_c, 0, 66, 100
2, 1344, Note_on_c, 0, 67, 100
2, 1436, Note_off_c, 0, 67, 100
2, 1440, Note_on_c, 0, 64, 100
2, 1532, Note_off_c, 0, 64, 100
2, 1536, Note_on_c, 0, 62, 100
2, 1916, Note_off_c, 0, 62, 100
2, 1920, Note_on_c, 0, 74, 70
2, 1920, Note_on_c, 0, 71, 70
2, 2300, Note_off_c, 0, 74, 100
2, 2300, Note_off_c, 0, 71, 100
2, 2304, Note_on_c, 0, 69, 70
2, 2304, Note_on_c, 0, 73, 70
2, 2684, Note_off_c, 0, 69, 100
2, 2684, Note_off_c, 0, 73, 100
2, 2688, Note_on_c, 0, 67, 70
2, 2688, Note_on_c, 0, 71, 70
2, 3068, Note_off_c, 0, 67, 100
2, 3068, Note_off_c, 0, 71, 100
2, 3072, Note_on_c, 0, 66, 70
2, 3072, Note_on_c, 0, 69, 70
2, 3452, Note_off_c, 0, 66, 100
2, 3452, Note_off_c, 0, 69, 100
2, 3456, Note_on_c, 0, 66, 100
2, 3456, Note_on_c, 0, 69, 100
2, 3836, Note_off_c, 0, 66, 100
2, 3836, Note_off_c, 0, 69, 100
2, 3840, Note_on_c, 0, 64, 100
2, 3840, Note_on_c, 0, 67, 100
2, 4220, Note_off_c, 0, 64, 100
2, 4220, Note_off_c, 0, 67, 100
2, 4224, Note_on_c, 0, 62, 100
2, 4224, Note_on_c, 0, 66, 100
2, 4604, Note_off_c, 0, 62, 100
2, 4604, Note_off_c, 0, 66, 100
2, 4608, Note_on_c, 0, 64, 100
2, 4796, Note_off_c, 0, 64, 100
2, 4800, Note_on_c, 0, 64, 100
2, 4848, Note_on_c, 0, 66, 100
2, 4892, Note_off_c, 0, 64, 100
2, 4896, Note_on_c, 0, 64, 100
2, 4940, Note_off_c, 0, 66, 100
2, 4988, Note_off_c, 0, 64, 100
2, 4992, Note_on_c, 0, 67, 100
2, 5180, Note_off_c, 0, 67, 100
2, 5184, Note_on_c, 0, 64, 100
2, 5372, Note_off_c, 0, 64, 100
2, 5376, Note_on_c, 0, 71, 100
2, 5564, Note_off_c, 0, 71, 100
2, 5568, Note_on_c, 0, 67, 100
2, 5756, Note_off_c, 0, 67, 100
2, 5760, Note_on_c, 0, 64, 100
2, 5948, Note_off_c, 0, 64, 100
2, 5952, Note_on_c, 0, 62, 100
2, 6140, Note_off_c, 0, 62, 100
2, 6144, Note_on_c, 0, 62, 100
2, 6236, Note_off_c, 0, 62, 100
2, 6240, Note_on_c, 0, 61, 100
2, 6332, Note_off_c, 0, 61, 100
2, 6336, Note_on_c, 0, 64, 100
2, 6428, Note_off_c, 0, 64, 100
2, 6432, Note_on_c, 0, 62, 100
2, 6524, Note_off_c, 0, 62, 100
2, 6528, Note_on_c, 0, 61, 100
2, 6620, Note_off_c, 0, 61, 100
2, 6624, Note_on_c, 0, 62, 100
2, 6716, Note_off_c, 0, 62, 100
2, 6720, Note_on_c, 0, 59, 100
2, 6812, Note_off_c, 0, 59, 100
2, 6816, Note_on_c, 0, 61, 100
2, 6908, Note_off_c, 0, 61, 100
2, 6912, Note_on_c, 0, 57, 100
2, 7292, Note_off_c, 0, 57, 100
2, 7296, Note_on_c, 0, 69, 100
2, 7388, Note_off_c, 0, 69, 100
2, 7392, Note_on_c, 0, 66, 100
2, 7484, Note_off_c, 0, 66, 100
2, 7488, Note_on_c, 0, 67, 100
2, 7580, Note_off_c, 0, 67, 100
2, 7584, Note_on_c, 0, 64, 100
2, 7676, Note_off_c, 0, 64, 100
2, 7680, Note_on_c, 0, 62, 100
2, 8060, Note_off_c, 0, 62, 100
2, 8064, Note_on_c, 0, 74, 70
2, 8064, Note_on_c, 0, 71, 70
2, 8444, Note_off_c, 0, 74, 100
2, 8444, Note_off_c, 0, 71, 100
2, 8448, Note_on_c, 0, 69, 70
2, 8448, Note_on_c, 0, 73, 70
2, 8828, Note_off_c, 0, 69, 100
2, 8828, Note_off_c, 0, 73, 100
2, 8832, Note_on_c, 0, 67, 70
2, 8832, Note_on_c, 0, 71, 70
2, 9212, Note_off_c, 0, 67, 100
2, 9212, Note_off_c, 0, 71, 100
2, 9216, Note_on_c, 0, 66, 70
2, 9216, Note_on_c, 0, 69, 70
2, 9596, Note_off_c, 0, 66, 100
2, 9596, Note_off_c, 0, 69, 100
2, 9600, Note_on_c, 0, 66, 100
2, 9600, Note_on_c, 0, 74, 100
2, 9980, Note_off_c, 0, 66, 100
2, 9980, Note_off_c, 0, 74, 100
2, 9984, Note_on_c, 0, 67, 100
2, 9984, Note_on_c, 0, 73, 100
2, 10364, Note_off_c, 0, 67, 100
2, 10364, Note_off_c, 0, 73, 100
2, 10368, Note_on_c, 0, 69, 100
2, 10368, Note_on_c, 0, 72, 100
2, 10748, Note_off_c, 0, 69, 100
2, 10748, Note_off_c, 0, 72, 100
2, 10752, Note_on_c, 0, 71, 100
2, 10752, Note_on_c, 0, 67, 100
2, 10800, Note_on_c, 0, 73, 100
2, 10844, Note_off_c, 0, 71, 100
2, 10848, Note_on_c, 0, 71, 100
2, 10892, Note_off_c, 0, 73, 100
2, 11132, Note_off_c, 0, 67, 100
2, 11132, Note_off_c, 0, 71, 100
2, 11136, Note_on_c, 0, 71, 100
2, 11136, Note_on_c, 0, 79, 100
2, 11324, Note_off_c, 0, 71, 100
2, 11324, Note_off_c, 0, 79, 100
2, 11328, Note_on_c, 0, 67, 100
2, 11328, Note_on_c, 0, 76, 100
2, 11516, Note_off_c, 0, 67, 100
2, 11516, Note_off_c, 0, 76, 100
2, 11520, Note_on_c, 0, 67, 100
2, 11520, Note_on_c, 0, 76, 100
2, 11708, Note_off_c, 0, 67, 100
2, 11708, Note_off_c, 0, 76, 100
2, 11712, Note_on_c, 0, 66, 100
2, 11712, Note_on_c, 0, 74, 100
2, 11900, Note_off_c, 0, 66, 100
2, 11900, Note_off_c, 0, 74, 100
2, 11904, Note_on_c, 0, 66, 100
2, 11904, Note_on_c, 0, 74, 100
2, 12092, Note_off_c, 0, 66, 100
2, 12092, Note_off_c, 0, 74, 100
2, 12096, Note_on_c, 0, 64, 100
2, 12096, Note_on_c, 0, 73, 100
2, 12284, Note_off_c, 0, 64, 100
2, 12284, Note_off_c, 0, 73, 100
2, 12288, Note_on_c, 0, 73, 100
2, 12336, Note_on_c, 0, 74, 100
2, 12380, Note_off_c, 0, 73, 100
2, 12664, Note_off_c, 0, 74, 100
2, 12672, Note_on_c, 0, 62, 100
2, 13052, Note_off_c, 0, 62, 100
2, 13248, Note_on_c, 0, 74, 100
2, 13436, Note_off_c, 0, 74, 100
2, 13440, Note_on_c, 0, 76, 100
2, 13628, Note_off_c, 0, 76, 100
2, 13632, Note_on_c, 0, 78, 100
2, 13820, Note_off_c, 0, 78, 100
2, 13824, Note_on_c, 0, 79, 100
2, 13916, Note_off_c, 0, 79, 100
2, 13920, Note_on_c, 0, 81, 100
2, 14012, Note_off_c, 0, 81, 100
2, 14016, Note_on_c, 0, 79, 100
2, 14108, Note_off_c, 0, 79, 100
2, 14112, Note_on_c, 0, 78, 100
2, 14204, Note_off_c, 0, 78, 100
2, 14208, Note_on_c, 0, 76, 100
2, 14588, Note_off_c, 0, 76, 100
2, 14784, Note_on_c, 0, 64, 100
2, 14972, Note_off_c, 0, 64, 100
2, 14976, Note_on_c, 0, 66, 100
2, 15164, Note_off_c, 0, 66, 100
2, 15168, Note_on_c, 0, 67, 100
2, 15356, Note_off_c, 0, 67, 100
2, 15360, Note_on_c, 0, 69, 100
2, 15452, Note_off_c, 0, 69, 100
2, 15456, Note_on_c, 0, 71, 100
2, 15548, Note_off_c, 0, 71, 100
2, 15552, Note_on_c, 0, 69, 100
2, 15644, Note_off_c, 0, 69, 100
2, 15648, Note_on_c, 0, 67, 100
2, 15740, Note_off_c, 0, 67, 100
2, 15744, Note_on_c, 0, 66, 100
2, 16124, Note_off_c, 0, 66, 100
2, 16320, Note_on_c, 0, 74, 100
2, 16508, Note_off_c, 0, 74, 100
2, 16512, Note_on_c, 0, 76, 100
2, 16700, Note_off_c, 0, 76, 100
2, 16704, Note_on_c, 0, 78, 100
2, 16892, Note_off_c, 0, 78, 100
2, 16896, Note_on_c, 0, 79, 100
2, 16988, Note_off_c, 0, 79, 100
2, 16992, Note_on_c, 0, 81, 100
2, 17084, Note_off_c, 0, 81, 100
2, 17088, Note_on_c, 0, 79, 100
2, 17180, Note_off_c, 0, 79, 100
2, 17184, Note_on_c, 0, 78, 100
2, 17276, Note_off_c, 0, 78, 100
2, 17280, Note_on_c, 0, 76, 100
2, 17660, Note_off_c, 0, 76, 100
2, 17856, Note_on_c, 0, 64, 100
2, 18044, Note_off_c, 0, 64, 100
2, 18048, Note_on_c, 0, 66, 100
2, 18236, Note_off_c, 0, 66, 100
2, 18240, Note_on_c, 0, 67, 100
2, 18428, Note_off_c, 0, 67, 100
2, 18432, Note_on_c, 0, 69, 100
2, 18524, Note_off_c, 0, 69, 100
2, 18528, Note_on_c, 0, 67, 100
2, 18620, Note_off_c, 0, 67, 100
2, 18624, Note_on_c, 0, 66, 100
2, 18716, Note_off_c, 0, 66, 100
2, 18720, Note_on_c, 0, 64, 100
2, 18812, Note_off_c, 0, 64, 100
2, 18816, Note_on_c, 0, 62, 100
2, 19004, Note_off_c, 0, 62, 100
2, 19008, Note_on_c, 0, 66, 100
2, 19100, Note_off_c, 0, 66, 100
2, 19104, Note_on_c, 0, 69, 100
2, 19196, Note_off_c, 0, 69, 100
2, 19200, Note_on_c, 0, 74, 100
2, 19388, Note_off_c, 0, 74, 100
2, 19392, Note_on_c, 0, 74, 100
2, 19580, Note_off_c, 0, 74, 100
2, 19584, Note_on_c, 0, 74, 100
2, 19772, Note_off_c, 0, 74, 100
2, 19776, Note_on_c, 0, 74, 100
2, 19964, Note_off_c, 0, 74, 100
2, 19968, Note_on_c, 0, 74, 100
2, 20060, Note_off_c, 0, 74, 100
2, 20064, Note_on_c, 0, 73, 100
2, 20156, Note_off_c, 0, 73, 100
2, 20160, Note_on_c, 0, 71, 100
2, 20252, Note_off_c, 0, 71, 100
2, 20256, Note_on_c, 0, 70, 100
2, 20348, Note_off_c, 0, 70, 100
2, 20352, Note_on_c, 0, 71, 100
2, 20540, Note_off_c, 0, 71, 100
2, 20544, Note_on_c, 0, 74, 100
2, 20636, Note_off_c, 0, 74, 100
2, 20640, Note_on_c, 0, 78, 100
2, 20732, Note_off_c, 0, 78, 100
2, 20736, Note_on_c, 0, 83, 100
2, 20924, Note_off_c, 0, 83, 100
2, 20928, Note_on_c, 0, 83, 100
2, 21116, Note_off_c, 0, 83, 100
2, 21120, Note_on_c, 0, 83, 100
2, 21308, Note_off_c, 0, 83, 100
2, 21312, Note_on_c, 0, 83, 100
2, 21500, Note_off_c, 0, 83, 100
2, 21504, Note_on_c, 0, 83, 100
2, 21596, Note_off_c, 0, 83, 100
2, 21600, Note_on_c, 0, 81, 100
2, 21692, Note_off_c, 0, 81, 100
2, 21696, Note_on_c, 0, 79, 100
2, 21788, Note_off_c, 0, 79, 100
2, 21792, Note_on_c, 0, 78, 100
2, 21884, Note_off_c, 0, 78, 100
2, 21888, Note_on_c, 0, 79, 100
2, 21980, Note_off_c, 0, 79, 100
2, 21984, Note_on_c, 0, 81, 100
2, 22076, Note_off_c, 0, 81, 100
2, 22080, Note_on_c, 0, 83, 100
2, 22172, Note_off_c, 0, 83, 100
2, 22176, Note_on_c, 0, 81, 100
2, 22268, Note_off_c, 0, 81, 100
2, 22272, Note_on_c, 0, 79, 100
2, 22460, Note_off_c, 0, 79, 100
2, 22464, Note_on_c, 0, 78, 100
2, 22652, Note_off_c, 0, 78, 100
2, 22656, Note_on_c, 0, 76, 100
2, 22844, Note_off_c, 0, 76, 100
2, 22848, Note_on_c, 0, 74, 100
2, 23036, Note_off_c, 0, 74, 100
2, 23040, Note_on_c, 0, 73, 100
2, 23132, Note_off_c, 0, 73, 100
2, 23136, Note_on_c, 0, 81, 100
2, 23228, Note_off_c, 0, 81, 100
2, 23232, Note_on_c, 0, 80, 100
2, 23324, Note_off_c, 0, 80, 100
2, 23328, Note_on_c, 0, 81, 100
2, 23420, Note_off_c, 0, 81, 100
2, 23424, Note_on_c, 0, 76, 100
2, 23516, Note_off_c, 0, 76, 100
2, 23520, Note_on_c, 0, 81, 100
2, 23612, Note_off_c, 0, 81, 100
2, 23616, Note_on_c, 0, 74, 100
2, 23708, Note_off_c, 0, 74, 100
2, 23712, Note_on_c, 0, 81, 100
2, 23804, Note_off_c, 0, 81, 100
2, 23808, Note_on_c, 0, 73, 100
2, 23900, Note_off_c, 0, 73, 100
2, 23904, Note_on_c, 0, 81, 100
2, 23996, Note_off_c, 0, 81, 100
2, 24000, Note_on_c, 0, 80, 100
2, 24092, Note_off_c, 0, 80, 100
2, 24096, Note_on_c, 0, 81, 100
2, 24188, Note_off_c, 0, 81, 100
2, 24192, Note_on_c, 0, 73, 100
2, 24284, Note_off_c, 0, 73, 100
2, 24288, Note_on_c, 0, 81, 100
2, 24380, Note_off_c, 0, 81, 100
2, 24384, Note_on_c, 0, 71, 100
2, 24476, Note_off_c, 0, 71, 100
2, 24480, Note_on_c, 0, 81, 100
2, 24572, Note_off_c, 0, 81, 100
2, 24576, Note_on_c, 0, 69, 100
2, 24624, Note_on_c, 0, 71, 100
2, 24668, Note_off_c, 0, 69, 100
2, 24672, Note_on_c, 0, 69, 100
2, 24716, Note_off_c, 0, 71, 100
2, 24956, Note_off_c, 0, 69, 100
2, 24960, Note_on_c, 0, 73, 100
2, 25244, Note_off_c, 0, 73, 100
2, 25248, Note_on_c, 0, 76, 100
2, 25340, Note_off_c, 0, 76, 100
2, 25344, Note_on_c, 0, 69, 100
2, 25724, Note_off_c, 0, 69, 100
2, 26016, Note_on_c, 0, 64, 70
2, 26064, Note_on_c, 0, 69, 70
2, 26108, Note_off_c, 0, 64, 100
2, 26112, Note_on_c, 0, 73, 70
2, 26156, Note_off_c, 0, 69, 100
2, 26160, Note_on_c, 0, 76, 70
2, 26204, Note_off_c, 0, 73, 100
2, 26300, Note_off_c, 0, 76, 100
2, 26304, Note_on_c, 0, 76, 70
2, 26492, Note_off_c, 0, 76, 100
2, 26496, Note_on_c, 0, 76, 70
2, 26684, Note_off_c, 0, 76, 100
2, 26688, Note_on_c, 0, 73, 70
2, 26876, Note_off_c, 0, 73, 100
2, 26880, Note_on_c, 0, 74, 70
2, 27068, Note_off_c, 0, 74, 100
2, 27072, Note_on_c, 0, 74, 70
2, 27260, Note_off_c, 0, 74, 100
2, 27264, Note_on_c, 0, 74, 70
2, 27452, Note_off_c, 0, 74, 100
2, 27456, Note_on_c, 0, 71, 70
2, 27644, Note_off_c, 0, 71, 100
2, 27648, Note_on_c, 0, 73, 70
2, 27836, Note_off_c, 0, 73, 100
2, 27840, Note_on_c, 0, 73, 70
2, 28028, Note_off_c, 0, 73, 100
2, 28032, Note_on_c, 0, 73, 70
2, 28220, Note_off_c, 0, 73, 100
2, 28224, Note_on_c, 0, 69, 70
2, 28412, Note_off_c, 0, 69, 100
2, 28416, Note_on_c, 0, 71, 70
2, 28604, Note_off_c, 0, 71, 100
2, 28608, Note_on_c, 0, 71, 70
2, 28796, Note_off_c, 0, 71, 100
2, 28800, Note_on_c, 0, 71, 70
2, 28988, Note_off_c, 0, 71, 100
2, 28992, Note_on_c, 0, 68, 70
2, 29180, Note_off_c, 0, 68, 100
2, 29184, Note_on_c, 0, 69, 70
2, 29184, Note_on_c, 0, 64, 70
2, 29372, Note_off_c, 0, 69, 100
2, 29376, Note_on_c, 0, 71, 70
2, 29564, Note_off_c, 0, 71, 100
2, 29568, Note_on_c, 0, 73, 70
2, 29756, Note_off_c, 0, 73, 100
2, 29760, Note_on_c, 0, 74, 70
2, 29948, Note_off_c, 0, 74, 100
2, 29952, Note_on_c, 0, 73, 70
2, 30140, Note_off_c, 0, 73, 100
2, 30144, Note_on_c, 0, 71, 70
2, 30332, Note_off_c, 0, 71, 100
2, 30336, Note_on_c, 0, 69, 70
2, 30524, Note_off_c, 0, 69, 100
2, 30528, Note_on_c, 0, 68, 70
2, 30716, Note_off_c, 0, 64, 100
2, 30716, Note_off_c, 0, 68, 100
2, 30720, Note_on_c, 0, 69, 70
2, 30720, Note_on_c, 0, 64, 70
2, 30908, Note_off_c, 0, 69, 100
2, 30912, Note_on_c, 0, 71, 70
2, 31100, Note_off_c, 0, 71, 100
2, 31104, Note_on_c, 0, 72, 70
2, 31292, Note_off_c, 0, 72, 100
2, 31296, Note_on_c, 0, 74, 70
2, 31484, Note_off_c, 0, 74, 100
2, 31488, Note_on_c, 0, 72, 70
2, 31676, Note_off_c, 0, 72, 100
2, 31680, Note_on_c, 0, 71, 70
2, 31868, Note_off_c, 0, 71, 100
2, 31872, Note_on_c, 0, 69, 70
2, 32060, Note_off_c, 0, 69, 100
2, 32064, Note_on_c, 0, 68, 70
2, 32252, Note_off_c, 0, 64, 100
2, 32252, Note_off_c, 0, 68, 100
2, 32256, Note_on_c, 0, 69, 70
2, 32444, Note_off_c, 0, 69, 100
2, 32448, Note_on_c, 0, 68, 70
2, 32636, Note_off_c, 0, 68, 100
2, 32640, Note_on_c, 0, 69, 70
2, 32828, Note_off_c, 0, 69, 100
2, 32832, Note_on_c, 0, 71, 70
2, 33020, Note_off_c, 0, 71, 100
2, 33024, Note_on_c, 0, 74, 70
2, 33212, Note_off_c, 0, 74, 100
2, 33216, Note_on_c, 0, 72, 70
2, 33404, Note_off_c, 0, 72, 100
2, 33408, Note_on_c, 0, 71, 70
2, 33596, Note_off_c, 0, 71, 100
2, 33600, Note_on_c, 0, 69, 70
2, 33788, Note_off_c, 0, 69, 100
2, 33792, Note_on_c, 0, 68, 70
2, 33936, Note_on_c, 0, 75, 70
2, 33980, Note_off_c, 0, 68, 100
2, 33984, Note_on_c, 0, 76, 70
2, 34028, Note_off_c, 0, 75, 100
2, 34172, Note_off_c, 0, 76, 100
2, 34176, Note_on_c, 0, 76, 70
2, 34364, Note_off_c, 0, 76, 100
2, 34368, Note_on_c, 0, 76, 70
2, 34556, Note_off_c, 0, 76, 100
2, 34560, Note_on_c, 0, 76, 70
2, 34940, Note_off_c, 0, 76, 100
2, 34944, Note_on_c, 0, 77, 70
2, 35008, Note_on_c, 0, 78, 70
2, 35068, Note_off_c, 0, 77, 100
2, 35072, Note_on_c, 0, 77, 70
2, 35132, Note_off_c, 0, 78, 100
2, 35136, Note_on_c, 0, 75, 70
2, 35196, Note_off_c, 0, 77, 100
2, 35228, Note_off_c, 0, 75, 100
2, 35232, Note_on_c, 0, 77, 70
2, 35324, Note_off_c, 0, 77, 100
2, 35328, Note_on_c, 0, 78, 100
2, 35420, Note_off_c, 0, 78, 100
2, 35424, Note_on_c, 0, 81, 100
2, 35516, Note_off_c, 0, 81, 100
2, 35520, Note_on_c, 0, 77, 100
2, 35612, Note_off_c, 0, 77, 100
2, 35616, Note_on_c, 0, 78, 100
2, 35708, Note_off_c, 0, 78, 100
2, 35712, Note_on_c, 0, 78, 100
2, 35804, Note_off_c, 0, 78, 100
2, 35808, Note_on_c, 0, 74, 100
2, 35900, Note_off_c, 0, 74, 100
2, 35904, Note_on_c, 0, 73, 100
2, 35996, Note_off_c, 0, 73, 100
2, 36000, Note_on_c, 0, 74, 100
2, 36092, Note_off_c, 0, 74, 100
2, 36096, Note_on_c, 0, 74, 100
2, 36188, Note_off_c, 0, 74, 100
2, 36192, Note_on_c, 0, 69, 100
2, 36284, Note_off_c, 0, 69, 100
2, 36288, Note_on_c, 0, 68, 100
2, 36380, Note_off_c, 0, 68, 100
2, 36384, Note_on_c, 0, 69, 100
2, 36476, Note_off_c, 0, 69, 100
2, 36480, Note_on_c, 0, 69, 100
2, 36572, Note_off_c, 0, 69, 100
2, 36576, Note_on_c, 0, 66, 100
2, 36668, Note_off_c, 0, 66, 100
2, 36672, Note_on_c, 0, 65, 100
2, 36764, Note_off_c, 0, 65, 100
2, 36768, Note_on_c, 0, 66, 100
2, 36860, Note_off_c, 0, 66, 100
2, 36864, Note_on_c, 0, 66, 100
2, 36956, Note_off_c, 0, 66, 100
2, 36960, Note_on_c, 0, 69, 100
2, 37052, Note_off_c, 0, 69, 100
2, 37056, Note_on_c, 0, 65, 100
2, 37148, Note_off_c, 0, 65, 100
2, 37152, Note_on_c, 0, 66, 100
2, 37244, Note_off_c, 0, 66, 100
2, 37248, Note_on_c, 0, 66, 100
2, 37340, Note_off_c, 0, 66, 100
2, 37344, Note_on_c, 0, 62, 100
2, 37436, Note_off_c, 0, 62, 100
2, 37440, Note_on_c, 0, 61, 100
2, 37532, Note_off_c, 0, 61, 100
2, 37536, Note_on_c, 0, 62, 100
2, 37628, Note_off_c, 0, 62, 100
2, 37632, Note_on_c, 0, 62, 100
2, 37724, Note_off_c, 0, 62, 100
2, 37728, Note_on_c, 0, 57, 100
2, 37820, Note_off_c, 0, 57, 100
2, 37824, Note_on_c, 0, 56, 100
2, 37916, Note_off_c, 0, 56, 100
2, 37920, Note_on_c, 0, 57, 100
2, 38012, Note_off_c, 0, 57, 100
2, 38016, Note_on_c, 0, 57, 100
2, 38108, Note_off_c, 0, 57, 100
2, 38112, Note_on_c, 0, 54, 100
2, 38204, Note_off_c, 0, 54, 100
2, 38208, Note_on_c, 0, 53, 100
2, 38300, Note_off_c, 0, 53, 100
2, 38304, Note_on_c, 0, 54, 100
2, 38396, Note_off_c, 0, 54, 100
2, 38400, Note_on_c, 0, 54, 100
2, 38492, Note_off_c, 0, 54, 100
2, 38496, Note_on_c, 0, 50, 100
2, 38588, Note_off_c, 0, 50, 100
2, 38592, Note_on_c, 0, 49, 100
2, 38684, Note_off_c, 0, 49, 100
2, 38688, Note_on_c, 0, 50, 100
2, 38780, Note_off_c, 0, 50, 100
2, 38784, Note_on_c, 0, 54, 100
2, 38876, Note_off_c, 0, 54, 100
2, 38880, Note_on_c, 0, 50, 100
2, 38972, Note_off_c, 0, 50, 100
2, 38976, Note_on_c, 0, 57, 100
2, 39068, Note_off_c, 0, 57, 100
2, 39072, Note_on_c, 0, 54, 100
2, 39164, Note_off_c, 0, 54, 100
2, 39168, Note_on_c, 0, 62, 100
2, 39260, Note_off_c, 0, 62, 100
2, 39264, Note_on_c, 0, 57, 100
2, 39356, Note_off_c, 0, 57, 100
2, 39360, Note_on_c, 0, 56, 100
2, 39452, Note_off_c, 0, 56, 100
2, 39456, Note_on_c, 0, 57, 100
2, 39548, Note_off_c, 0, 57, 100
2, 39552, Note_on_c, 0, 62, 100
2, 39644, Note_off_c, 0, 62, 100
2, 39648, Note_on_c, 0, 57, 100
2, 39740, Note_off_c, 0, 57, 100
2, 39744, Note_on_c, 0, 66, 100
2, 39836, Note_off_c, 0, 66, 100
2, 39840, Note_on_c, 0, 62, 100
2, 39932, Note_off_c, 0, 62, 100
2, 39936, Note_on_c, 0, 69, 100
2, 40316, Note_off_c, 0, 69, 100
2, 40896, Note_on_c, 0, 78, 100
2, 41084, Note_off_c, 0, 78, 100
2, 41088, Note_on_c, 0, 78, 100
2, 41276, Note_off_c, 0, 78, 100
2, 41280, Note_on_c, 0, 78, 100
2, 41468, Note_off_c, 0, 78, 100
2, 41472, Note_on_c, 0, 76, 100
2, 41564, Note_off_c, 0, 76, 100
2, 41568, Note_on_c, 0, 81, 100
2, 41660, Note_off_c, 0, 81, 100
2, 41664, Note_on_c, 0, 75, 100
2, 41756, Note_off_c, 0, 75, 100
2, 41760, Note_on_c, 0, 76, 100
2, 41852, Note_off_c, 0, 76, 100
2, 41856, Note_on_c, 0, 76, 100
2, 41948, Note_off_c, 0, 76, 100
2, 41952, Note_on_c, 0, 73, 100
2, 42044, Note_off_c, 0, 73, 100
2, 42048, Note_on_c, 0, 72, 100
2, 42140, Note_off_c, 0, 72, 100
2, 42144, Note_on_c, 0, 73, 100
2, 42236, Note_off_c, 0, 73, 100
2, 42240, Note_on_c, 0, 73, 100
2, 42332, Note_off_c, 0, 73, 100
2, 42336, Note_on_c, 0, 69, 100
2, 42428, Note_off_c, 0, 69, 100
2, 42432, Note_on_c, 0, 68, 100
2, 42524, Note_off_c, 0, 68, 100
2, 42528, Note_on_c, 0, 69, 100
2, 42620, Note_off_c, 0, 69, 100
2, 42624, Note_on_c, 0, 69, 100
2, 42716, Note_off_c, 0, 69, 100
2, 42720, Note_on_c, 0, 64, 100
2, 42812, Note_off_c, 0, 64, 100
2, 42816, Note_on_c, 0, 63, 100
2, 42908, Note_off_c, 0, 63, 100
2, 42912, Note_on_c, 0, 64, 100
2, 43004, Note_off_c, 0, 64, 100
2, 43008, Note_on_c, 0, 64, 100
2, 43100, Note_off_c, 0, 64, 100
2, 43104, Note_on_c, 0, 61, 100
2, 43196, Note_off_c, 0, 61, 100
2, 43200, Note_on_c, 0, 60, 100
2, 43292, Note_off_c, 0, 60, 100
2, 43296, Note_on_c, 0, 61, 100
2, 43388, Note_off_c, 0, 61, 100
2, 43392, Note_on_c, 0, 61, 100
2, 43484, Note_off_c, 0, 61, 100
2, 43488, Note_on_c, 0, 57, 100
2, 43580, Note_off_c, 0, 57, 100
2, 43584, Note_on_c, 0, 56, 100
2, 43676, Note_off_c, 0, 56, 100
2, 43680, Note_on_c, 0, 57, 100
2, 43772, Note_off_c, 0, 57, 100
2, 43776, Note_on_c, 0, 57, 100
2, 43868, Note_off_c, 0, 57, 100
2, 43872, Note_on_c, 0, 52, 100
2, 43964, Note_off_c, 0, 52, 100
2, 43968, Note_on_c, 0, 51, 100
2, 44060, Note_off_c, 0, 51, 100
2, 44064, Note_on_c, 0, 52, 100
2, 44156, Note_off_c, 0, 52, 100
2, 44160, Note_on_c, 0, 52, 100
2, 44252, Note_off_c, 0, 52, 100
2, 44256, Note_on_c, 0, 49, 100
2, 44348, Note_off_c, 0, 49, 100
2, 44352, Note_on_c, 0, 48, 100
2, 44444, Note_off_c, 0, 48, 100
2, 44448, Note_on_c, 0, 49, 100
2, 44540, Note_off_c, 0, 49, 100
2, 44544, Note_on_c, 0, 49, 100
2, 44636, Note_off_c, 0, 49, 100
2, 44640, Note_on_c, 0, 45, 100
2, 44732, Note_off_c, 0, 45, 100
2, 44736, Note_on_c, 0, 44, 100
2, 44828, Note_off_c, 0, 44, 100
2, 44832, Note_on_c, 0, 45, 100
2, 44924, Note_off_c, 0, 45, 100
2, 44928, Note_on_c, 0, 49, 100
2, 45020, Note_off_c, 0, 49, 100
2, 45024, Note_on_c, 0, 45, 100
2, 45116, Note_off_c, 0, 45, 100
2, 45120, Note_on_c, 0, 52, 100
2, 45212, Note_off_c, 0, 52, 100
2, 45216, Note_on_c, 0, 49, 100
2, 45308, Note_off_c, 0, 49, 100
2, 45312, Note_on_c, 0, 57, 100
2, 45404, Note_off_c, 0, 57, 100
2, 45408, Note_on_c, 0, 52, 100
2, 45500, Note_off_c, 0, 52, 100
2, 45504, Note_on_c, 0, 51, 100
2, 45596, Note_off_c, 0, 51, 100
2, 45600, Note_on_c, 0, 52, 100
2, 45692, Note_off_c, 0, 52, 100
2, 45696, Note_on_c, 0, 57, 100
2, 45788, Note_off_c, 0, 57, 100
2, 45792, Note_on_c, 0, 52, 100
2, 45884, Note_off_c, 0, 52, 100
2, 45888, Note_on_c, 0, 61, 100
2, 45980, Note_off_c, 0, 61, 100
2, 45984, Note_on_c, 0, 57, 100
2, 46076, Note_off_c, 0, 57, 100
2, 46080, Note_on_c, 0, 64, 100
2, 46460, Note_off_c, 0, 64, 100
2, 47040, Note_on_c, 0, 88, 100
2, 47228, Note_off_c, 0, 88, 100
2, 47232, Note_on_c, 0, 88, 100
2, 47420, Note_off_c, 0, 88, 100
2, 47424, Note_on_c, 0, 88, 100
2, 47612, Note_off_c, 0, 88, 100
2, 47616, Note_on_c, 0, 86, 100
2, 47712, Note_on_c, 0, 88, 100
2, 47804, Note_off_c, 0, 86, 100
2, 47808, Note_on_c, 0, 83, 100
2, 47900, Note_off_c, 0, 88, 100
2, 47904, Note_on_c, 0, 88, 100
2, 47996, Note_off_c, 0, 83, 100
2, 48000, Note_on_c, 0, 80, 100
2, 48092, Note_off_c, 0, 88, 100
2, 48096, Note_on_c, 0, 88, 100
2, 48188, Note_off_c, 0, 80, 100
2, 48192, Note_on_c, 0, 76, 100
2, 48284, Note_off_c, 0, 88, 100
2, 48288, Note_on_c, 0, 88, 100
2, 48380, Note_off_c, 0, 76, 100
2, 48384, Note_on_c, 0, 74, 100
2, 48476, Note_off_c, 0, 88, 100
2, 48480, Note_on_c, 0, 88, 100
2, 48572, Note_off_c, 0, 74, 100
2, 48576, Note_on_c, 0, 76, 100
2, 48668, Note_off_c, 0, 88, 100
2, 48672, Note_on_c, 0, 88, 100
2, 48764, Note_off_c, 0, 76, 100
2, 48768, Note_on_c, 0, 74, 100
2, 48860, Note_off_c, 0, 88, 100
2, 48864, Note_on_c, 0, 88, 100
2, 48956, Note_off_c, 0, 74, 100
2, 48960, Note_on_c, 0, 76, 100
2, 49052, Note_off_c, 0, 88, 100
2, 49056, Note_on_c, 0, 88, 100
2, 49148, Note_off_c, 0, 76, 100
2, 49148, Note_off_c, 0, 88, 100
2, 49152, Note_on_c, 0, 73, 100
2, 49248, Note_on_c, 0, 88, 100
2, 49340, Note_off_c, 0, 73, 100
2, 49344, Note_on_c, 0, 76, 100
2, 49436, Note_off_c, 0, 88, 100
2, 49440, Note_on_c, 0, 88, 100
2, 49532, Note_off_c, 0, 76, 100
2, 49536, Note_on_c, 0, 81, 100
2, 49628, Note_off_c, 0, 88, 100
2, 49632, Note_on_c, 0, 88, 100
2, 49724, Note_off_c, 0, 81, 100
2, 49728, Note_on_c, 0, 85, 100
2, 49820, Note_off_c, 0, 88, 100
2, 49824, Note_on_c, 0, 88, 100
2, 49916, Note_off_c, 0, 85, 100
2, 49920, Note_on_c, 0, 81, 100
2, 50012, Note_off_c, 0, 88, 100
2, 50016, Note_on_c, 0, 88, 100
2, 50108, Note_off_c, 0, 81, 100
2, 50112, Note_on_c, 0, 76, 100
2, 50204, Note_off_c, 0, 88, 100
2, 50208, Note_on_c, 0, 88, 100
2, 50300, Note_off_c, 0, 76, 100
2, 50304, Note_on_c, 0, 73, 100
2, 50396, Note_off_c, 0, 88, 100
2, 50400, Note_on_c, 0, 88, 100
2, 50492, Note_off_c, 0, 73, 100
2, 50496, Note_on_c, 0, 76, 100
2, 50588, Note_off_c, 0, 88, 100
2, 50592, Note_on_c, 0, 88, 100
2, 50684, Note_off_c, 0, 76, 100
2, 50684, Note_off_c, 0, 88, 100
2, 50688, Note_on_c, 0, 86, 100
2, 50784, Note_on_c, 0, 88, 100
2, 50876, Note_off_c, 0, 86, 100
2, 50880, Note_on_c, 0, 83, 100
2, 50972, Note_off_c, 0, 88, 100
2, 50976, Note_on_c, 0, 88, 100
2, 51068, Note_off_c, 0, 83, 100
2, 51072, Note_on_c, 0, 80, 100
2, 51164, Note_off_c, 0, 88, 100
2, 51168, Note_on_c, 0, 88, 100
2, 51260, Note_off_c, 0, 80, 100
2, 51264, Note_on_c, 0, 76, 100
2, 51356, Note_off_c, 0, 88, 100
2, 51360, Note_on_c, 0, 88, 100
2, 51452, Note_off_c, 0, 76, 100
2, 51456, Note_on_c, 0, 74, 100
2, 51548, Note_off_c, 0, 88, 100
2, 51552, Note_on_c, 0, 88, 100
2, 51644, Note_off_c, 0, 74, 100
2, 51648, Note_on_c, 0, 76, 100
2, 51740, Note_off_c, 0, 88, 100
2, 51744, Note_on_c, 0, 88, 100
2, 51836, Note_off_c, 0, 76, 100
2, 51840, Note_on_c, 0, 74, 100
2, 51932, Note_off_c, 0, 88, 100
2, 51936, Note_on_c, 0, 88, 100
2, 52028, Note_off_c, 0, 74, 100
2, 52032, Note_on_c, 0, 76, 100
2, 52124, Note_off_c, 0, 88, 100
2, 52128, Note_on_c, 0, 88, 100
2, 52220, Note_off_c, 0, 76, 100
2, 52220, Note_off_c, 0, 88, 100
2, 52224, Note_on_c, 0, 73, 100
2, 52320, Note_on_c, 0, 88, 100
2, 52412, Note_off_c, 0, 73, 100
2, 52416, Note_on_c, 0, 76, 100
2, 52508, Note_off_c, 0, 88, 100
2, 52512, Note_on_c, 0, 88, 100
2, 52604, Note_off_c, 0, 76, 100
2, 52608, Note_on_c, 0, 81, 100
2, 52700, Note_off_c, 0, 88, 100
2, 52704, Note_on_c, 0, 88, 100
2, 52796, Note_off_c, 0, 81, 100
2, 52800, Note_on_c, 0, 85, 100
2, 52892, Note_off_c, 0, 88, 100
2, 52896, Note_on_c, 0, 88, 100
2, 52988, Note_off_c, 0, 85, 100
2, 52992, Note_on_c, 0, 81, 100
2, 53084, Note_off_c, 0, 88, 100
2, 53088, Note_on_c, 0, 88, 100
2, 53180, Note_off_c, 0, 81, 100
2, 53184, Note_on_c, 0, 76, 100
2, 53276, Note_off_c, 0, 88, 100
2, 53280, Note_on_c, 0, 88, 100
2, 53372, Note_off_c, 0, 76, 100
2, 53376, Note_on_c, 0, 73, 100
2, 53468, Note_off_c, 0, 88, 100
2, 53472, Note_on_c, 0, 88, 100
2, 53564, Note_off_c, 0, 73, 100
2, 53568, Note_on_c, 0, 76, 100
2, 53660, Note_off_c, 0, 88, 100
2, 53664, Note_on_c, 0, 88, 100
2, 53756, Note_off_c, 0, 76, 100
2, 53756, Note_off_c, 0, 88, 100
2, 53760, Note_on_c, 0, 86, 100
2, 53852, Note_off_c, 0, 86, 100
2, 53856, Note_on_c, 0, 85, 100
2, 53948, Note_off_c, 0, 85, 100
2, 53952, Note_on_c, 0, 83, 100
2, 54044, Note_off_c, 0, 83, 100
2, 54048, Note_on_c, 0, 82, 100
2, 54140, Note_off_c, 0, 82, 100
2, 54144, Note_on_c, 0, 83, 100
2, 54236, Note_off_c, 0, 83, 100
2, 54240, Note_on_c, 0, 82, 100
2, 54332, Note_off_c, 0, 82, 100
2, 54336, Note_on_c, 0, 83, 100
2, 54428, Note_off_c, 0, 83, 100
2, 54432, Note_on_c, 0, 85, 100
2, 54524, Note_off_c, 0, 85, 100
2, 54528, Note_on_c, 0, 86, 100
2, 54620, Note_off_c, 0, 86, 100
2, 54624, Note_on_c, 0, 85, 100
2, 54716, Note_off_c, 0, 85, 100
2, 54720, Note_on_c, 0, 85, 100
2, 54768, Note_on_c, 0, 83, 100
2, 54812, Note_off_c, 0, 85, 100
2, 54816, Note_on_c, 0, 82, 100
2, 54860, Note_off_c, 0, 83, 100
2, 54908, Note_off_c, 0, 82, 100
2, 54912, Note_on_c, 0, 83, 100
2, 55004, Note_off_c, 0, 83, 100
2, 55008, Note_on_c, 0, 82, 100
2, 55100, Note_off_c, 0, 82, 100
2, 55104, Note_on_c, 0, 83, 100
2, 55196, Note_off_c, 0, 83, 100
2, 55200, Note_on_c, 0, 86, 100
2, 55292, Note_off_c, 0, 86, 100
2, 55296, Note_on_c, 0, 85, 100
2, 55484, Note_off_c, 0, 85, 100
2, 55488, Note_on_c, 0, 76, 100
2, 55676, Note_off_c, 0, 76, 100
2, 55680, Note_on_c, 0, 81, 100
2, 55868, Note_off_c, 0, 81, 100
2, 55872, Note_on_c, 0, 76, 100
2, 55872, Note_on_c, 0, 85, 100
2, 56060, Note_off_c, 0, 76, 100
2, 56060, Note_off_c, 0, 85, 100
2, 56064, Note_on_c, 0, 85, 100
2, 56064, Note_on_c, 0, 76, 100
2, 56252, Note_off_c, 0, 85, 100
2, 56252, Note_off_c, 0, 76, 100
2, 56256, Note_on_c, 0, 83, 100
2, 56256, Note_on_c, 0, 74, 100
2, 56444, Note_off_c, 0, 83, 100
2, 56444, Note_off_c, 0, 74, 100
2, 56448, Note_on_c, 0, 81, 100
2, 56448, Note_on_c, 0, 73, 100
2, 56636, Note_off_c, 0, 81, 100
2, 56636, Note_off_c, 0, 73, 100
2, 56640, Note_on_c, 0, 80, 100
2, 56640, Note_on_c, 0, 71, 100
2, 56828, Note_off_c, 0, 80, 100
2, 56828, Note_off_c, 0, 71, 100
2, 56832, Note_on_c, 0, 73, 100
2, 56832, Note_on_c, 0, 81, 100
2, 57212, Note_off_c, 0, 73, 100
2, 57212, Note_off_c, 0, 81, 100
2, 57216, Note_on_c, 0, 76, 100
2, 57308, Note_off_c, 0, 76, 100
2, 57312, Note_on_c, 0, 72, 100
2, 57404, Note_off_c, 0, 72, 100
2, 57408, Note_on_c, 0, 74, 100
2, 57500, Note_off_c, 0, 74, 100
2, 57504, Note_on_c, 0, 71, 100
2, 57596, Note_off_c, 0, 71, 100
2, 57600, Note_on_c, 0, 69, 100
2, 57788, Note_off_c, 0, 69, 100
2, 57792, Note_on_c, 0, 69, 100
2, 57980, Note_off_c, 0, 69, 100
2, 57984, Note_on_c, 0, 69, 100
2, 58172, Note_off_c, 0, 69, 100
2, 58176, Note_on_c, 0, 69, 100
2, 58364, Note_off_c, 0, 69, 100
2, 58368, Note_on_c, 0, 69, 100
2, 58748, Note_off_c, 0, 69, 100
2, 58752, Note_on_c, 0, 68, 100
2, 58940, Note_off_c, 0, 68, 100
2, 58944, Note_on_c, 0, 69, 100
2, 59132, Note_off_c, 0, 69, 100
2, 59136, Note_on_c, 0, 68, 100
2, 59136, Note_on_c, 0, 71, 100
2, 59324, Note_off_c, 0, 68, 100
2, 59324, Note_off_c, 0, 71, 100
2, 59328, Note_on_c, 0, 69, 100
2, 59328, Note_on_c, 0, 72, 100
2, 59516, Note_off_c, 0, 69, 100
2, 59516, Note_off_c, 0, 72, 100
2, 59520, Note_on_c, 0, 71, 100
2, 59520, Note_on_c, 0, 74, 100
2, 59708, Note_off_c, 0, 71, 100
2, 59708, Note_off_c, 0, 74, 100
2, 59712, Note_on_c, 0, 71, 100
2, 59712, Note_on_c, 0, 74, 100
2, 59900, Note_off_c, 0, 71, 100
2, 59900, Note_off_c, 0, 74, 100
2, 59904, Note_on_c, 0, 71, 100
2, 59904, Note_on_c, 0, 74, 100
2, 60284, Note_off_c, 0, 71, 100
2, 60284, Note_off_c, 0, 74, 100
2, 60288, Note_on_c, 0, 69, 100
2, 60288, Note_on_c, 0, 72, 100
2, 60352, Note_on_c, 0, 74, 100
2, 60412, Note_off_c, 0, 72, 100
2, 60416, Note_on_c, 0, 72, 100
2, 60476, Note_off_c, 0, 74, 100
2, 60480, Note_on_c, 0, 71, 100
2, 60540, Note_off_c, 0, 72, 100
2, 60572, Note_off_c, 0, 71, 100
2, 60576, Note_on_c, 0, 72, 100
2, 60668, Note_off_c, 0, 69, 100
2, 60668, Note_off_c, 0, 72, 100
2, 60672, Note_on_c, 0, 69, 100
2, 60672, Note_on_c, 0, 74, 100
2, 60860, Note_off_c, 0, 69, 100
2, 60860, Note_off_c, 0, 74, 100
2, 60864, Note_on_c, 0, 72, 100
2, 61052, Note_off_c, 0, 72, 100
2, 61056, Note_on_c, 0, 71, 92
2, 61244, Note_off_c, 0, 71, 100
2, 61248, Note_on_c, 0, 69, 81
2, 61436, Note_off_c, 0, 69, 100
2, 61440, Note_on_c, 0, 64, 70
2, 61440, Note_on_c, 0, 68, 70
2, 61628, Note_off_c, 0, 64, 100
2, 61628, Note_off_c, 0, 68, 100
2, 61632, Note_on_c, 0, 66, 70
2, 61632, Note_on_c, 0, 69, 70
2, 61820, Note_off_c, 0, 66, 100
2, 61820, Note_off_c, 0, 69, 100
2, 61824, Note_on_c, 0, 68, 70
2, 61824, Note_on_c, 0, 71, 70
2, 62012, Note_off_c, 0, 68, 100
2, 62012, Note_off_c, 0, 71, 100
2, 62016, Note_on_c, 0, 69, 70
2, 62016, Note_on_c, 0, 72, 70
2, 62204, Note_off_c, 0, 69, 100
2, 62204, Note_off_c, 0, 72, 100
2, 62208, Note_on_c, 0, 71, 70
2, 62208, Note_on_c, 0, 74, 70
2, 62396, Note_off_c, 0, 71, 100
2, 62396, Note_off_c, 0, 74, 100
2, 62400, Note_on_c, 0, 69, 70
2, 62400, Note_on_c, 0, 72, 70
2, 62588, Note_off_c, 0, 69, 100
2, 62588, Note_off_c, 0, 72, 100
2, 62592, Note_on_c, 0, 68, 70
2, 62592, Note_on_c, 0, 71, 70
2, 62780, Note_off_c, 0, 68, 100
2, 62780, Note_off_c, 0, 71, 100
2, 62784, Note_on_c, 0, 66, 70
2, 62784, Note_on_c, 0, 69, 70
2, 62972, Note_off_c, 0, 66, 100
2, 62972, Note_off_c, 0, 69, 100
2, 62976, Note_on_c, 0, 64, 70
2, 62976, Note_on_c, 0, 68, 70
2, 63356, Note_off_c, 0, 64, 100
2, 63356, Note_off_c, 0, 68, 100
2, 64512, Note_on_c, 0, 68, 120
2, 64512, Note_on_c, 0, 71, 120
2, 64512, Note_on_c, 0, 76, 120
2, 65276, Note_off_c, 0, 68, 100
2, 65276, Note_off_c, 0, 71, 100
2, 65276, Note_off_c, 0, 76, 100
2, 65280, Note_on_c, 0, 66, 120
2, 65280, Note_on_c, 0, 71, 120
2, 65280, Note_on_c, 0, 78, 120
2, 66044, Note_off_c, 0, 66, 100
2, 66044, Note_off_c, 0, 71, 100
2, 66044, Note_off_c, 0, 78, 100
2, 66048, Note_on_c, 0, 68, 120
2, 66048, Note_on_c, 0, 71, 120
2, 66048, Note_on_c, 0, 76, 120
2, 66048, Note_on_c, 0, 80, 120
2, 67196, Note_off_c, 0, 68, 100
2, 67196, Note_off_c, 0, 71, 100
2, 67196, Note_off_c, 0, 76, 100
2, 67196, Note_off_c, 0, 80, 100
2, 67584, Note_on_c, 0, 81, 60
2, 67680, Note_on_c, 0, 76, 60
2, 67772, Note_off_c, 0, 81, 100
2, 67776, Note_on_c, 0, 75, 60
2, 67868, Note_off_c, 0, 76, 100
2, 67872, Note_on_c, 0, 76, 60
2, 67964, Note_off_c, 0, 75, 100
2, 67968, Note_on_c, 0, 81, 60
2, 68060, Note_off_c, 0, 76, 100
2, 68064, Note_on_c, 0, 76, 60
2, 68156, Note_off_c, 0, 81, 100
2, 68160, Note_on_c, 0, 80, 60
2, 68160, Note_on_c, 0, 83, 60
2, 68252, Note_off_c, 0, 76, 100
2, 68256, Note_on_c, 0, 76, 60
2, 68348, Note_off_c, 0, 80, 100
2, 68348, Note_off_c, 0, 83, 100
2, 68352, Note_on_c, 0, 85, 60
2, 68352, Note_on_c, 0, 81, 60
2, 68444, Note_off_c, 0, 76, 100
2, 68448, Note_on_c, 0, 76, 60
2, 68540, Note_off_c, 0, 85, 100
2, 68540, Note_off_c, 0, 81, 100
2, 68544, Note_on_c, 0, 75, 60
2, 68636, Note_off_c, 0, 76, 100
2, 68640, Note_on_c, 0, 76, 60
2, 68732, Note_off_c, 0, 75, 100
2, 68736, Note_on_c, 0, 85, 60
2, 68736, Note_on_c, 0, 81, 60
2, 68828, Note_off_c, 0, 76, 100
2, 68832, Note_on_c, 0, 76, 60
2, 68924, Note_off_c, 0, 85, 100
2, 68924, Note_off_c, 0, 81, 100
2, 68928, Note_on_c, 0, 83, 60
2, 68928, Note_on_c, 0, 86, 60
2, 69020, Note_off_c, 0, 76, 100
2, 69024, Note_on_c, 0, 76, 60
2, 69116, Note_off_c, 0, 83, 100
2, 69116, Note_off_c, 0, 86, 100
2, 69116, Note_off_c, 0, 76, 100
2, 69120, Note_on_c, 0, 88, 60
2, 69120, Note_on_c, 0, 85, 60
2, 69216, Note_on_c, 0, 76, 60
2, 69308, Note_off_c, 0, 88, 100
2, 69308, Note_off_c, 0, 85, 100
2, 69312, Note_on_c, 0, 88, 60
2, 69312, Note_on_c, 0, 85, 60
2, 69404, Note_off_c, 0, 76, 100
2, 69408, Note_on_c, 0, 76, 60
2, 69500, Note_off_c, 0, 88, 100
2, 69500, Note_off_c, 0, 85, 100
2, 69504, Note_on_c, 0, 85, 60
2, 69504, Note_on_c, 0, 81, 60
2, 69596, Note_off_c, 0, 76, 100
2, 69600, Note_on_c, 0, 76, 60
2, 69692, Note_off_c, 0, 85, 100
2, 69692, Note_off_c, 0, 81, 100
2, 69696, Note_on_c, 0, 81, 60
2, 69696, Note_on_c, 0, 85, 60
2, 69788, Note_off_c, 0, 76, 100
2, 69792, Note_on_c, 0, 76, 60
2, 69884, Note_off_c, 0, 81, 100
2, 69884, Note_off_c, 0, 85, 100
2, 69888, Note_on_c, 0, 86, 60
2, 69888, Note_on_c, 0, 83, 60
2, 69980, Note_off_c, 0, 76, 100
2, 69984, Note_on_c, 0, 76, 60
2, 70076, Note_off_c, 0, 86, 100
2, 70076, Note_off_c, 0, 83, 100
2, 70080, Note_on_c, 0, 83, 60
2, 70080, Note_on_c, 0, 86, 60
2, 70172, Note_off_c, 0, 76, 100
2, 70176, Note_on_c, 0, 76, 60
2, 70268, Note_off_c, 0, 83, 100
2, 70268, Note_off_c, 0, 86, 100
2, 70272, Note_on_c, 0, 80, 60
2, 70272, Note_on_c, 0, 83, 60
2, 70364, Note_off_c, 0, 76, 100
2, 70368, Note_on_c, 0, 76, 60
2, 70460, Note_off_c, 0, 80, 100
2, 70460, Note_off_c, 0, 83, 100
2, 70464, Note_on_c, 0, 83, 60
2, 70464, Note_on_c, 0, 80, 60
2, 70556, Note_off_c, 0, 76, 100
2, 70560, Note_on_c, 0, 76, 60
2, 70652, Note_off_c, 0, 83, 100
2, 70652, Note_off_c, 0, 80, 100
2, 70652, Note_off_c, 0, 76, 100
2, 70656, Note_on_c, 0, 81, 60
2, 70752, Note_on_c, 0, 76, 60
2, 70844, Note_off_c, 0, 81, 100
2, 70848, Note_on_c, 0, 75, 60
2, 70940, Note_off_c, 0, 76, 100
2, 70944, Note_on_c, 0, 76, 60
2, 71036, Note_off_c, 0, 75, 100
2, 71040, Note_on_c, 0, 81, 60
2, 71132, Note_off_c, 0, 76, 100
2, 71136, Note_on_c, 0, 76, 60
2, 71228, Note_off_c, 0, 81, 100
2, 71232, Note_on_c, 0, 80, 60
2, 71232, Note_on_c, 0, 83, 60
2, 71324, Note_off_c, 0, 76, 100
2, 71328, Note_on_c, 0, 76, 60
2, 71420, Note_off_c, 0, 80, 100
2, 71420, Note_off_c, 0, 83, 100
2, 71424, Note_on_c, 0, 85, 60
2, 71424, Note_on_c, 0, 81, 60
2, 71516, Note_off_c, 0, 76, 100
2, 71520, Note_on_c, 0, 76, 60
2, 71612, Note_off_c, 0, 85, 100
2, 71612, Note_off_c, 0, 81, 100
2, 71616, Note_on_c, 0, 75, 60
2, 71708, Note_off_c, 0, 76, 100
2, 71712, Note_on_c, 0, 76, 60
2, 71804, Note_off_c, 0, 75, 100
2, 71808, Note_on_c, 0, 85, 60
2, 71808, Note_on_c, 0, 81, 60
2, 71900, Note_off_c, 0, 76, 100
2, 71904, Note_on_c, 0, 76, 60
2, 71996, Note_off_c, 0, 85, 100
2, 71996, Note_off_c, 0, 81, 100
2, 72000, Note_on_c, 0, 83, 60
2, 72000, Note_on_c, 0, 86, 60
2, 72092, Note_off_c, 0, 76, 100
2, 72096, Note_on_c, 0, 76, 60
2, 72188, Note_off_c, 0, 83, 100
2, 72188, Note_off_c, 0, 86, 100
2, 72188, Note_off_c, 0, 76, 100
2, 72192, Note_on_c, 0, 88, 60
2, 72192, Note_on_c, 0, 85, 60
2, 72288, Note_on_c, 0, 76, 60
2, 72380, Note_off_c, 0, 88, 100
2, 72380, Note_off_c, 0, 85, 100
2, 72384, Note_on_c, 0, 88, 60
2, 72384, Note_on_c, 0, 85, 60
2, 72476, Note_off_c, 0, 76, 100
2, 72480, Note_on_c, 0, 76, 60
2, 72572, Note_off_c, 0, 88, 100
2, 72572, Note_off_c, 0, 85, 100
2, 72576, Note_on_c, 0, 85, 60
2, 72576, Note_on_c, 0, 81, 60
2, 72668, Note_off_c, 0, 76, 100
2, 72672, Note_on_c, 0, 76, 60
2, 72764, Note_off_c, 0, 85, 100
2, 72764, Note_off_c, 0, 81, 100
2, 72768, Note_on_c, 0, 81, 60
2, 72768, Note_on_c, 0, 85, 60
2, 72860, Note_off_c, 0, 76, 100
2, 72864, Note_on_c, 0, 76, 60
2, 72956, Note_off_c, 0, 81, 100
2, 72956, Note_off_c, 0, 85, 100
2, 72960, Note_on_c, 0, 86, 60
2, 72960, Note_on_c, 0, 83, 60
2, 73052, Note_off_c, 0, 76, 100
2, 73056, Note_on_c, 0, 76, 60
2, 73148, Note_off_c, 0, 86, 100
2, 73148, Note_off_c, 0, 83, 100
2, 73152, Note_on_c, 0, 83, 60
2, 73152, Note_on_c, 0, 86, 60
2, 73244, Note_off_c, 0, 76, 100
2, 73248, Note_on_c, 0, 76, 60
2, 73340, Note_off_c, 0, 83, 100
2, 73340, Note_off_c, 0, 86, 100
2, 73344, Note_on_c, 0, 80, 60
2, 73344, Note_on_c, 0, 83, 60
2, 73436, Note_off_c, 0, 76, 100
2, 73440, Note_on_c, 0, 76, 60
2, 73532, Note_off_c, 0, 80, 100
2, 73532, Note_off_c, 0, 83, 100
2, 73536, Note_on_c, 0, 83, 70
2, 73536, Note_on_c, 0, 80, 70
2, 73628, Note_off_c, 0, 76, 100
2, 73632, Note_on_c, 0, 76, 80
2, 73724, Note_off_c, 0, 83, 100
2, 73724, Note_off_c, 0, 80, 100
2, 73724, Note_off_c, 0, 76, 100
2, 73728, Note_on_c, 0, 88, 120
2, 73728, Note_on_c, 0, 85, 120
2, 73824, Note_on_c, 0, 76, 120
2, 73916, Note_off_c, 0, 88, 100
2, 73916, Note_off_c, 0, 85, 100
2, 73920, Note_on_c, 0, 88, 120
2, 73920, Note_on_c, 0, 85, 120
2, 74012, Note_off_c, 0, 76, 100
2, 74016, Note_on_c, 0, 76, 120
2, 74108, Note_off_c, 0, 88, 100
2, 74108, Note_off_c, 0, 85, 100
2, 74112, Note_on_c, 0, 85, 120
2, 74112, Note_on_c, 0, 81, 120
2, 74204, Note_off_c, 0, 76, 100
2, 74208, Note_on_c, 0, 76, 120
2, 74300, Note_off_c, 0, 85, 100
2, 74300, Note_off_c, 0, 81, 100
2, 74304, Note_on_c, 0, 81, 120
2, 74304, Note_on_c, 0, 85, 120
2, 74396, Note_off_c, 0, 76, 100
2, 74400, Note_on_c, 0, 76, 120
2, 74492, Note_off_c, 0, 81, 100
2, 74492, Note_off_c, 0, 85, 100
2, 74496, Note_on_c, 0, 86, 120
2, 74496, Note_on_c, 0, 83, 120
2, 74588, Note_off_c, 0, 76, 100
2, 74592, Note_on_c, 0, 76, 120
2, 74684, Note_off_c, 0, 86, 100
2, 74684, Note_off_c, 0, 83, 100
2, 74688, Note_on_c, 0, 83, 120
2, 74688, Note_on_c, 0, 86, 120
2, 74780, Note_off_c, 0, 76, 100
2, 74784, Note_on_c, 0, 76, 120
2, 74876, Note_off_c, 0, 83, 100
2, 74876, Note_off_c, 0, 86, 100
2, 74880, Note_on_c, 0, 80, 120
2, 74880, Note_on_c, 0, 83, 120
2, 74972, Note_off_c, 0, 76, 100
2, 74976, Note_on_c, 0, 76, 120
2, 75068, Note_off_c, 0, 80, 100
2, 75068, Note_off_c, 0, 83, 100
2, 75072, Note_on_c, 0, 83, 120
2, 75072, Note_on_c, 0, 80, 120
2, 75164, Note_off_c, 0, 76, 100
2, 75168, Note_on_c, 0, 76, 120
2, 75260, Note_off_c, 0, 83, 100
2, 75260, Note_off_c, 0, 80, 100
2, 75260, Note_off_c, 0, 76, 100
2, 75264, Note_on_c, 0, 85, 120
2, 75264, Note_on_c, 0, 81, 120
2, 75264, Note_on_c, 0, 76, 120
2, 75644, Note_off_c, 0, 85, 100
2, 75644, Note_off_c, 0, 81, 100
2, 75644, Note_off_c, 0, 76, 100
2, 75648, Note_on_c, 0, 83, 120
2, 75648, Note_on_c, 0, 80, 120
2, 75648, Note_on_c, 0, 76, 120
2, 76028, Note_off_c, 0, 83, 100
2, 76028, Note_off_c, 0, 80, 100
2, 76028, Note_off_c, 0, 76, 100
2, 76032, Note_on_c, 0, 85, 120
2, 76032, Note_on_c, 0, 81, 120
2, 76032, Note_on_c, 0, 76, 120
2, 76412, Note_off_c, 0, 85, 100
2, 76412, Note_off_c, 0, 81, 100
2, 76412, Note_off_c, 0, 76, 100
2, 76416, Note_on_c, 0, 69, 100
2, 76508, Note_off_c, 0, 69, 100
2, 76512, Note_on_c, 0, 66, 100
2, 76604, Note_off_c, 0, 66, 100
2, 76608, Note_on_c, 0, 67, 100
2, 76700, Note_off_c, 0, 67, 100
2, 76704, Note_on_c, 0, 64, 100
2, 76796, Note_off_c, 0, 64, 100
2, 76800, Note_on_c, 0, 62, 100
2, 77180, Note_off_c, 0, 62, 100
2, 77184, Note_on_c, 0, 74, 70
2, 77184, Note_on_c, 0, 71, 70
2, 77564, Note_off_c, 0, 74, 100
2, 77564, Note_off_c, 0, 71, 100
2, 77568, Note_on_c, 0, 69, 70
2, 77568, Note_on_c, 0, 73, 70
2, 77948, Note_off_c, 0, 69, 100
2, 77948, Note_off_c, 0, 73, 100
2, 77952, Note_on_c, 0, 67, 70
2, 77952, Note_on_c, 0, 71, 70
2, 78332, Note_off_c, 0, 67, 100
2, 78332, Note_off_c, 0, 71, 100
2, 78336, Note_on_c, 0, 66, 70
2, 78336, Note_on_c, 0, 69, 70
2, 78716, Note_off_c, 0, 66, 100
2, 78716, Note_off_c, 0, 69, 100
2, 78720, Note_on_c, 0, 66, 100
2, 78720, Note_on_c, 0, 69, 100
2, 79100, Note_off_c, 0, 66, 100
2, 79100, Note_off_c, 0, 69, 100
2, 79104, Note_on_c, 0, 64, 100
2, 79104, Note_on_c, 0, 67, 100
2, 79484, Note_off_c, 0, 64, 100
2, 79484, Note_off_c, 0, 67, 100
2, 79488, Note_on_c, 0, 62, 100
2, 79488, Note_on_c, 0, 66, 100
2, 79868, Note_off_c, 0, 62, 100
2, 79868, Note_off_c, 0, 66, 100
2, 79872, Note_on_c, 0, 64, 100
2, 80060, Note_off_c, 0, 64, 100
2, 80064, Note_on_c, 0, 64, 100
2, 80112, Note_on_c, 0, 66, 100
2, 80156, Note_off_c, 0, 64, 100
2, 80160, Note_on_c, 0, 64, 100
2, 80204, Note_off_c, 0, 66, 100
2, 80252, Note_off_c, 0, 64, 100
2, 80256, Note_on_c, 0, 67, 100
2, 80444, Note_off_c, 0, 67, 100
2, 80448, Note_on_c, 0, 64, 100
2, 80636, Note_off_c, 0, 64, 100
2, 80640, Note_on_c, 0, 71, 100
2, 80828, Note_off_c, 0, 71, 100
2, 80832, Note_on_c, 0, 67, 100
2, 81020, Note_off_c, 0, 67, 100
2, 81024, Note_on_c, 0, 64, 100
2, 81212, Note_off_c, 0, 64, 100
2, 81216, Note_on_c, 0, 62, 100
2, 81404, Note_off_c, 0, 62, 100
2, 81408, Note_on_c, 0, 62, 100
2, 81500, Note_off_c, 0, 62, 100
2, 81504, Note_on_c, 0, 61, 100
2, 81596, Note_off_c, 0, 61, 100
2, 81600, Note_on_c, 0, 64, 100
2, 81692, Note_off_c, 0, 64, 100
2, 81696, Note_on_c, 0, 62, 100
2, 81788, Note_off_c, 0, 62, 100
2, 81792, Note_on_c, 0, 61, 100
2, 81884, Note_off_c, 0, 61, 100
2, 81888, Note_on_c, 0, 62, 100
2, 81980, Note_off_c, 0, 62, 100
2, 81984, Note_on_c, 0, 59, 100
2, 82076, Note_off_c, 0, 59, 100
2, 82080, Note_on_c, 0, 61, 100
2, 82172, Note_off_c, 0, 61, 100
2, 82176, Note_on_c, 0, 57, 100
2, 82556, Note_off_c, 0, 57, 100
2, 82560, Note_on_c, 0, 69, 100
2, 82652, Note_off_c, 0, 69, 100
2, 82656, Note_on_c, 0, 66, 100
2, 82748, Note_off_c, 0, 66, 100
2, 82752, Note_on_c, 0, 67, 100
2, 82844, Note_off_c, 0, 67, 100
2, 82848, Note_on_c, 0, 64, 100
2, 82940, Note_off_c, 0, 64, 100
2, 82944, Note_on_c, 0, 62, 100
2, 83324, Note_off_c, 0, 62, 100
2, 83328, Note_on_c, 0, 74, 70
2, 83328, Note_on_c, 0, 71, 70
2, 83708, Note_off_c, 0, 74, 100
2, 83708, Note_off_c, 0, 71, 100
2, 83712, Note_on_c, 0, 69, 70
2, 83712, Note_on_c, 0, 73, 70
2, 84092, Note_off_c, 0, 69, 100
2, 84092, Note_off_c, 0, 73, 100
2, 84096, Note_on_c, 0, 67, 70
2, 84096, Note_on_c, 0, 71, 70
2, 84476, Note_off_c, 0, 67, 100
2, 84476, Note_off_c, 0, 71, 100
2, 84480, Note_on_c, 0, 66, 70
2, 84480, Note_on_c, 0, 69, 70
2, 84860, Note_off_c, 0, 66, 100
2, 84860, Note_off_c, 0, 69, 100
2, 84864, Note_on_c, 0, 66, 100
2, 84864, Note_on_c, 0, 74, 100
2, 85244, Note_off_c, 0, 66, 100
2, 85244, Note_off_c, 0, 74, 100
2, 85248, Note_on_c, 0, 67, 100
2, 85248, Note_on_c, 0, 73, 100
2, 85628, Note_off_c, 0, 67, 100
2, 85628, Note_off_c, 0, 73, 100
2, 85632, Note_on_c, 0, 69, 100
2, 85632, Note_on_c, 0, 72, 100
2, 86012, Note_off_c, 0, 69, 100
2, 86012, Note_off_c, 0, 72, 100
2, 86016, Note_on_c, 0, 71, 100
2, 86016, Note_on_c, 0, 67, 100
2, 86064, Note_on_c, 0, 73, 100
2, 86108, Note_off_c, 0, 71, 100
2, 86112, Note_on_c, 0, 71, 100
2, 86156, Note_off_c, 0, 73, 100
2, 86396, Note_off_c, 0, 67, 100
2, 86396, Note_off_c, 0, 71, 100
2, 86400, Note_on_c, 0, 71, 100
2, 86400, Note_on_c, 0, 79, 100
2, 86588, Note_off_c, 0, 71, 100
2, 86588, Note_off_c, 0, 79, 100
2, 86592, Note_on_c, 0, 67, 100
2, 86592, Note_on_c, 0, 76, 100
2, 86780, Note_off_c, 0, 67, 100
2, 86780, Note_off_c, 0, 76, 100
2, 86784, Note_on_c, 0, 67, 100
2, 86784, Note_on_c, 0, 76, 100
2, 86972, Note_off_c, 0, 67, 100
2, 86972, Note_off_c, 0, 76, 100
2, 86976, Note_on_c, 0, 66, 100
2, 86976, Note_on_c, 0, 74, 100
2, 87164, Note_off_c, 0, 66, 100
2, 87164, Note_off_c, 0, 74, 100
2, 87168, Note_on_c, 0, 66, 100
2, 87168, Note_on_c, 0, 74, 100
2, 87356, Note_off_c, 0, 66, 100
2, 87356, Note_off_c, 0, 74, 100
2, 87360, Note_on_c, 0, 64, 100
2, 87360, Note_on_c, 0, 73, 100
2, 87548, Note_off_c, 0, 64, 100
2, 87548, Note_off_c, 0, 73, 100
2, 87552, Note_on_c, 0, 73, 100
2, 87600, Note_on_c, 0, 74, 100
2, 87644, Note_off_c, 0, 73, 100
2, 87928, Note_off_c, 0, 74, 100
2, 87936, Note_on_c, 0, 62, 100
2, 88316, Note_off_c, 0, 62, 100
2, 88512, Note_on_c, 0, 74, 100
2, 88700, Note_off_c, 0, 74, 100
2, 88704, Note_on_c, 0, 76, 100
2, 88892, Note_off_c, 0, 76, 100
2, 88896, Note_on_c, 0, 78, 100
2, 89084, Note_off_c, 0, 78, 100
2, 89088, Note_on_c, 0, 79, 100
2, 89180, Note_off_c, 0, 79, 100
2, 89184, Note_on_c, 0, 81, 100
2, 89276, Note_off_c, 0, 81, 100
2, 89280, Note_on_c, 0, 79, 100
2, 89372, Note_off_c, 0, 79, 100
2, 89376, Note_on_c, 0, 78, 100
2, 89468, Note_off_c, 0, 78, 100
2, 89472, Note_on_c, 0, 76, 100
2, 89852, Note_off_c, 0, 76, 100
2, 90048, Note_on_c, 0, 64, 100
2, 90236, Note_off_c, 0, 64, 100
2, 90240, Note_on_c, 0, 66, 100
2, 90428, Note_off_c, 0, 66, 100
2, 90432, Note_on_c, 0, 67, 100
2, 90620, Note_off_c, 0, 67, 100
2, 90624, Note_on_c, 0, 69, 100
2, 90716, Note_off_c, 0, 69, 100
2, 90720, Note_on_c, 0, 71, 100
2, 90812, Note_off_c, 0, 71, 100
2, 90816, Note_on_c, 0, 69, 100
2, 90908, Note_off_c, 0, 69, 100
2, 90912, Note_on_c, 0, 67, 100
2, 91004, Note_off_c, 0, 67, 100
2, 91008, Note_on_c, 0, 66, 100
2, 91388, Note_off_c, 0, 66, 100
2, 91584, Note_on_c, 0, 74, 100
2, 91772, Note_off_c, 0, 74, 100
2, 91776, Note_on_c, 0, 76, 100
2, 91964, Note_off_c, 0, 76, 100
2, 91968, Note_on_c, 0, 78, 100
2, 92156, Note_off_c, 0, 78, 100
2, 92160, Note_on_c, 0, 79, 100
2, 92252, Note_off_c, 0, 79, 100
2, 92256, Note_on_c, 0, 81, 100
2, 92348, Note_off_c, 0, 81, 100
2, 92352, Note_on_c, 0, 79, 100
2, 92444, Note_off_c, 0, 79, 100
2, 92448, Note_on_c, 0, 78, 100
2, 92540, Note_off_c, 0, 78, 100
2, 92544, Note_on_c, 0, 76, 100
2, 92924, Note_off_c, 0, 76, 100
2, 93120, Note_on_c, 0, 64, 100
2, 93308, Note_off_c, 0, 64, 100
2, 93312, Note_on_c, 0, 66, 100
2, 93500, Note_off_c, 0, 66, 100
2, 93504, Note_on_c, 0, 67, 100
2, 93692, Note_off_c, 0, 67, 100
2, 93696, Note_on_c, 0, 69, 100
2, 93788, Note_off_c, 0, 69, 100
2, 93792, Note_on_c, 0, 67, 100
2, 93884, Note_off_c, 0, 67, 100
2, 93888, Note_on_c, 0, 66, 100
2, 93980, Note_off_c, 0, 66, 100
2, 93984, Note_on_c, 0, 64, 100
2, 94076, Note_off_c, 0, 64, 100
2, 94080, Note_on_c, 0, 62, 100
2, 94268, Note_off_c, 0, 62, 100
2, 94272, Note_on_c, 0, 66, 100
2, 94364, Note_off_c, 0, 66, 100
2, 94368, Note_on_c, 0, 69, 100
2, 94460, Note_off_c, 0, 69, 100
2, 94464, Note_on_c, 0, 74, 100
2, 94652, Note_off_c, 0, 74, 100
2, 94656, Note_on_c, 0, 74, 100
2, 94844, Note_off_c, 0, 74, 100
2, 94848, Note_on_c, 0, 74, 100
2, 95036, Note_off_c, 0, 74, 100
2, 95040, Note_on_c, 0, 74, 100
2, 95228, Note_off_c, 0, 74, 100
2, 95232, Note_on_c, 0, 74, 100
2, 95324, Note_off_c, 0, 74, 100
2, 95328, Note_on_c, 0, 73, 100
2, 95420, Note_off_c, 0, 73, 100
2, 95424, Note_on_c, 0, 71, 100
2, 95516, Note_off_c, 0, 71, 100
2, 95520, Note_on_c, 0, 70, 100
2, 95612, Note_off_c, 0, 70, 100
2, 95616, Note_on_c, 0, 71, 100
2, 95804, Note_off_c, 0, 71, 100
2, 95808, Note_on_c, 0, 74, 100
2, 95900, Note_off_c, 0, 74, 100
2, 95904, Note_on_c, 0, 78, 100
2, 95996, Note_off_c, 0, 78, 100
2, 96000, Note_on_c, 0, 83, 100
2, 96188, Note_off_c, 0, 83, 100
2, 96192, Note_on_c, 0, 83, 100
2, 96380, Note_off_c, 0, 83, 100
2, 96384, Note_on_c, 0, 83, 100
2, 96572, Note_off_c, 0, 83, 100
2, 96576, Note_on_c, 0, 83, 100
2, 96764, Note_off_c, 0, 83, 100
2, 96768, Note_on_c, 0, 83, 100
2, 96860, Note_off_c, 0, 83, 100
2, 96864, Note_on_c, 0, 81, 100
2, 96956, Note_off_c, 0, 81, 100
2, 96960, Note_on_c, 0, 79, 100
2, 97052, Note_off_c, 0, 79, 100
2, 97056, Note_on_c, 0, 78, 100
2, 97148, Note_off_c, 0, 78, 100
2, 97152, Note_on_c, 0, 79, 100
2, 97244, Note_off_c, 0, 79, 100
2, 97248, Note_on_c, 0, 81, 100
2, 97340, Note_off_c, 0, 81, 100
2, 97344, Note_on_c, 0, 83, 100
2, 97436, Note_off_c, 0, 83, 100
2, 97440, Note_on_c, 0, 81, 100
2, 97532, Note_off_c, 0, 81, 100
2, 97536, Note_on_c, 0, 79, 100
2, 97724, Note_off_c, 0, 79, 100
2, 97728, Note_on_c, 0, 78, 100
2, 97916, Note_off_c, 0, 78, 100
2, 97920, Note_on_c, 0, 76, 100
2, 98108, Note_off_c, 0, 76, 100
2, 98112, Note_on_c, 0, 74, 100
2, 98300, Note_off_c, 0, 74, 100
2, 98304, Note_on_c, 0, 73, 100
2, 98396, Note_off_c, 0, 73, 100
2, 98400, Note_on_c, 0, 81, 100
2, 98492, Note_off_c, 0, 81, 100
2, 98496, Note_on_c, 0, 80, 100
2, 98588, Note_off_c, 0, 80, 100
2, 98592, Note_on_c, 0, 81, 100
2, 98684, Note_off_c, 0, 81, 100
2, 98688, Note_on_c, 0, 76, 100
2, 98780, Note_off_c, 0, 76, 100
2, 98784, Note_on_c, 0, 81, 100
2, 98876, Note_off_c, 0, 81, 100
2, 98880, Note_on_c, 0, 74, 100
2, 98972, Note_off_c, 0, 74, 100
2, 98976, Note_on_c, 0, 81, 100
2, 99068, Note_off_c, 0, 81, 100
2, 99072, Note_on_c, 0, 73, 100
2, 99164, Note_off_c, 0, 73, 100
2, 99168, Note_on_c, 0, 81, 100
2, 99260, Note_off_c, 0, 81, 100
2, 99264, Note_on_c, 0, 80, 100
2, 99356, Note_off_c, 0, 80, 100
2, 99360, Note_on_c, 0, 81, 100
2, 99452, Note_off_c, 0, 81, 100
2, 99456, Note_on_c, 0, 73, 100
2, 99548, Note_off_c, 0, 73, 100
2, 99552, Note_on_c, 0, 81, 100
2, 99644, Note_off_c, 0, 81, 100
2, 99648, Note_on_c, 0, 71, 100
2, 99740, Note_off_c, 0, 71, 100
2, 99744, Note_on_c, 0, 81, 100
2, 99836, Note_off_c, 0, 81, 100
2, 99840, Note_on_c, 0, 69, 100
2, 99888, Note_on_c, 0, 71, 100
2, 99932, Note_off_c, 0, 69, 100
2, 99936, Note_on_c, 0, 69, 100
2, 99980, Note_off_c, 0, 71, 100
2, 100220, Note_off_c, 0, 69, 100
2, 100224, Note_on_c, 0, 73, 100
2, 100508, Note_off_c, 0, 73, 100
2, 100512, Note_on_c, 0, 76, 100
2, 100604, Note_off_c, 0, 76, 100
2, 100608, Note_on_c, 0, 69, 100
2, 100988, Note_off_c, 0, 69, 100
2, 101280, Note_on_c, 0, 64, 70
2, 101328, Note_on_c, 0, 69, 70
2, 101372, Note_off_c, 0, 64, 100
2, 101376, Note_on_c, 0, 73, 70
2, 101420, Note_off_c, 0, 69, 100
2, 101424, Note_on_c, 0, 76, 70
2, 101468, Note_off_c, 0, 73, 100
2, 101564, Note_off_c, 0, 76, 100
2, 101568, Note_on_c, 0, 76, 70
2, 101756, Note_off_c, 0, 76, 100
2, 101760, Note_on_c, 0, 76, 70
2, 101948, Note_off_c, 0, 76, 100
2, 101952, Note_on_c, 0, 73, 70
2, 102140, Note_off_c, 0, 73, 100
2, 102144, Note_on_c, 0, 74, 70
2, 102332, Note_off_c, 0, 74, 100
2, 102336, Note_on_c, 0, 74, 70
2, 102524, Note_off_c, 0, 74, 100
2, 102528, Note_on_c, 0, 74, 70
2, 102716, Note_off_c, 0, 74, 100
2, 102720, Note_on_c, 0, 71, 70
2, 102908, Note_off_c, 0, 71, 100
2, 102912, Note_on_c, 0, 73, 70
2, 103100, Note_off_c, 0, 73, 100
2, 103104, Note_on_c, 0, 73, 70
2, 103292, Note_off_c, 0, 73, 100
2, 103296, Note_on_c, 0, 73, 70
2, 103484, Note_off_c, 0, 73, 100
2, 103488, Note_on_c, 0, 69, 70
2, 103676, Note_off_c, 0, 69, 100
2, 103680, Note_on_c, 0, 71, 70
2, 103868, Note_off_c, 0, 71, 100
2, 103872, Note_on_c, 0, 71, 70
2, 104060, Note_off_c, 0, 71, 100
2, 104064, Note_on_c, 0, 71, 70
2, 104252, Note_off_c, 0, 71, 100
2, 104256, Note_on_c, 0, 68, 70
2, 104444, Note_off_c, 0, 68, 100
2, 104448, Note_on_c, 0, 69, 70
2, 104448, Note_on_c, 0, 64, 70
2, 104636, Note_off_c, 0, 69, 100
2, 104640, Note_on_c, 0, 71, 70
2, 104828, Note_off_c, 0, 71, 100
2, 104832, Note_on_c, 0, 73, 70
2, 105020, Note_off_c, 0, 73, 100
2, 105024, Note_on_c, 0, 74, 70
2, 105212, Note_off_c, 0, 74, 100
2, 105216, Note_on_c, 0, 73, 70
2, 105404, Note_off_c, 0, 73, 100
2, 105408, Note_on_c, 0, 71, 70
2, 105596, Note_off_c, 0, 71, 100
2, 105600, Note_on_c, 0, 69, 70
2, 105788, Note_off_c, 0, 69, 100
2, 105792, Note_on_c, 0, 68, 70
2, 105980, Note_off_c, 0, 64, 100
2, 105980, Note_off_c, 0, 68, 100
2, 105984, Note_on_c, 0, 69, 70
2, 105984, Note_on_c, 0, 64, 70
2, 106172, Note_off_c, 0, 69, 100
2, 106176, Note_on_c, 0, 71, 70
2, 106364, Note_off_c, 0, 71, 100
2, 106368, Note_on_c, 0, 72, 70
2, 106556, Note_off_c, 0, 72, 100
2, 106560, Note_on_c, 0, 74, 70
2, 106748, Note_off_c, 0, 74, 100
2, 106752, Note_on_c, 0, 72, 70
2, 106940, Note_off_c, 0, 72, 100
2, 106944, Note_on_c, 0, 71, 70
2, 107132, Note_off_c, 0, 71, 100
2, 107136, Note_on_c, 0, 69, 70
2, 107324, Note_off_c, 0, 69, 100
2, 107328, Note_on_c, 0, 68, 70
2, 107516, Note_off_c, 0, 64, 100
2, 107516, Note_off_c, 0, 68, 100
2, 107520, Note_on_c, 0, 69, 70
2, 107708, Note_off_c, 0, 69, 100
2, 107712, Note_on_c, 0, 68, 70
2, 107900, Note_off_c, 0, 68, 100
2, 107904, Note_on_c, 0, 69, 70
2, 108092, Note_off_c, 0, 69, 100
2, 108096, Note_on_c, 0, 71, 70
2, 108284, Note_off_c, 0, 71, 100
2, 108288, Note_on_c, 0, 74, 70
2, 108476, Note_off_c, 0, 74, 100
2, 108480, Note_on_c, 0, 72, 70
2, 108668, Note_off_c, 0, 72, 100
2, 108672, Note_on_c, 0, 71, 70
2, 108860, Note_off_c, 0, 71, 100
2, 108864, Note_on_c, 0, 69, 70
2, 109052, Note_off_c, 0, 69, 100
2, 109056, Note_on_c, 0, 68, 70
2, 109200, Note_on_c, 0, 75, 70
2, 109244, Note_off_c, 0, 68, 100
2, 109248, Note_on_c, 0, 76, 70
2, 109292, Note_off_c, 0, 75, 100
2, 109436, Note_off_c, 0, 76, 100
2, 109440, Note_on_c, 0, 76, 70
2, 109628, Note_off_c, 0, 76, 100
2, 109632, Note_on_c, 0, 76, 70
2, 109820, Note_off_c, 0, 76, 100
2, 109824, Note_on_c, 0, 76, 70
2, 110204, Note_off_c, 0, 76, 100
2, 110208, Note_on_c, 0, 77, 70
2, 110272, Note_on_c, 0, 78, 70
2, 110332, Note_off_c, 0, 77, 100
2, 110336, Note_on_c, 0, 77, 70
2, 110396, Note_off_c, 0, 78, 100
2, 110400, Note_on_c, 0, 75, 70
2, 110460, Note_off_c, 0, 77, 100
2, 110492, Note_off_c, 0, 75, 100
2, 110496, Note_on_c, 0, 77, 70
2, 110588, Note_off_c, 0, 77, 100
2, 110592, Note_on_c, 0, 78, 100
2, 110684, Note_off_c, 0, 78, 100
2, 110688, Note_on_c, 0, 81, 100
2, 110780, Note_off_c, 0, 81, 100
2, 110784, Note_on_c, 0, 77, 100
2, 110876, Note_off_c, 0, 77, 100
2, 110880, Note_on_c, 0, 78, 100
2, 110972, Note_off_c, 0, 78, 100
2, 110976, Note_on_c, 0, 78, 100
2, 111068, Note_off_c, 0, 78, 100
2, 111072, Note_on_c, 0, 74, 100
2, 111164, Note_off_c, 0, 74, 100
2, 111168, Note_on_c, 0, 73, 100
2, 111260, Note_off_c, 0, 73, 100
2, 111264, Note_on_c, 0, 74, 100
2, 111356, Note_off_c, 0, 74, 100
2, 111360, Note_on_c, 0, 74, 100
2, 111452, Note_off_c, 0, 74, 100
2, 111456, Note_on_c, 0, 69, 100
2, 111548, Note_off_c, 0, 69, 100
2, 111552, Note_on_c, 0, 68, 100
2, 111644, Note_off_c, 0, 68, 100
2, 111648, Note_on_c, 0, 69, 100
2, 111740, Note_off_c, 0, 69, 100
2, 111744, Note_on_c, 0, 69, 100
2, 111836, Note_off_c, 0, 69, 100
2, 111840, Note_on_c, 0, 66, 100
2, 111932, Note_off_c, 0, 66, 100
2, 111936, Note_on_c, 0, 65, 100
2, 112028, Note_off_c, 0, 65, 100
2, 112032, Note_on_c, 0, 66, 100
2, 112124, Note_off_c, 0, 66, 100
2, 112128, Note_on_c, 0, 66, 100
2, 112220, Note_off_c, 0, 66, 100
2, 112224, Note_on_c, 0, 69, 100
2, 112316, Note_off_c, 0, 69, 100
2, 112320, Note_on_c, 0, 65, 100
2, 112412, Note_off_c, 0, 65, 100
2, 112416, Note_on_c, 0, 66, 100
2, 112508, Note_off_c, 0, 66, 100
2, 112512, Note_on_c, 0, 66, 100
2, 112604, Note_off_c, 0, 66, 100
2, 112608, Note_on_c, 0, 62, 100
2, 112700, Note_off_c, 0, 62, 100
2, 112704, Note_on_c, 0, 61, 100
2, 112796, Note_off_c, 0, 61, 100
2, 112800, Note_on_c, 0, 62, 100
2, 112892, Note_off_c, 0, 62, 100
2, 112896, Note_on_c, 0, 62, 100
2, 112988, Note_off_c, 0, 62, 100
2, 112992, Note_on_c, 0, 57, 100
2, 113084, Note_off_c, 0, 57, 100
2, 113088, Note_on_c, 0, 56, 100
2, 113180, Note_off_c, 0, 56, 100
2, 113184, Note_on_c, 0, 57, 100
2, 113276, Note_off_c, 0, 57, 100
2, 113280, Note_on_c, 0, 57, 100
2, 113372, Note_off_c, 0, 57, 100
2, 113376, Note_on_c, 0, 54, 100
2, 113468, Note_off_c, 0, 54, 100
2, 113472, Note_on_c, 0, 53, 100
2, 113564, Note_off_c, 0, 53, 100
2, 113568, Note_on_c, 0, 54, 100
2, 113660, Note_off_c, 0, 54, 100
2, 113664, Note_on_c, 0, 54, 100
2, 113756, Note_off_c, 0, 54, 100
2, 113760, Note_on_c, 0, 50, 100
2, 113852, Note_off_c, 0, 50, 100
2, 113856, Note_on_c, 0, 49, 100
2, 113948, Note_off_c, 0, 49, 100
2, 113952, Note_on_c, 0, 50, 100
2, 114044, Note_off_c, 0, 50, 100
2, 114048, Note_on_c, 0, 54, 100
2, 114140, Note_off_c, 0, 54, 100
2, 114144, Note_on_c, 0, 50, 100
2, 114236, Note_off_c, 0, 50, 100
2, 114240, Note_on_c, 0, 57, 100
2, 114332, Note_off_c, 0, 57, 100
2, 114336, Note_on_c, 0, 54, 100
2, 114428, Note_off_c, 0, 54, 100
2, 114432, Note_on_c, 0, 62, 100
2, 114524, Note_off_c, 0, 62, 100
2, 114528, Note_on_c, 0, 57, 100
2, 114620, Note_off_c, 0, 57, 100
2, 114624, Note_on_c, 0, 56, 100
2, 114716, Note_off_c, 0, 56, 100
2, 114720, Note_on_c, 0, 57, 100
2, 114812, Note_off_c, 0, 57, 100
2, 114816, Note_on_c, 0, 62, 100
2, 114908, Note_off_c, 0, 62, 100
2, 114912, Note_on_c, 0, 57, 100
2, 115004, Note_off_c, 0, 57, 100
2, 115008, Note_on_c, 0, 66, 100
2, 115100, Note_off_c, 0, 66, 100
2, 115104, Note_on_c, 0, 62, 100
2, 115196, Note_off_c, 0, 62, 100
2, 115200, Note_on_c, 0, 69, 100
2, 115580, Note_off_c, 0, 69, 100
2, 116160, Note_on_c, 0, 78, 100
2, 116348, Note_off_c, 0, 78, 100
2, 116352, Note_on_c, 0, 78, 100
2, 116540, Note_off_c, 0, 78, 100
2, 116544, Note_on_c, 0, 78, 100
2, 116732, Note_off_c, 0, 78, 100
2, 116736, Note_on_c, 0, 76, 100
2, 116828, Note_off_c, 0, 76, 100
2, 116832, Note_on_c, 0, 81, 100
2, 116924, Note_off_c, 0, 81, 100
2, 116928, Note_on_c, 0, 75, 100
2, 117020, Note_off_c, 0, 75, 100
2, 117024, Note_on_c, 0, 76, 100
2, 117116, Note_off_c, 0, 76, 100
2, 117120, Note_on_c, 0, 76, 100
2, 117212, Note_off_c, 0, 76, 100
2, 117216, Note_on_c, 0, 73, 100
2, 117308, Note_off_c, 0, 73, 100
2, 117312, Note_on_c, 0, 72, 100
2, 117404, Note_off_c, 0, 72, 100
2, 117408, Note_on_c, 0, 73, 100
2, 117500, Note_off_c, 0, 73, 100
2, 117504, Note_on_c, 0, 73, 100
2, 117596, Note_off_c, 0, 73, 100
2, 117600, Note_on_c, 0, 69, 100
2, 117692, Note_off_c, 0, 69, 100
2, 117696, Note_on_c, 0, 68, 100
2, 117788, Note_off_c, 0, 68, 100
2, 117792, Note_on_c, 0, 69, 100
2, 117884, Note_off_c, 0, 69, 100
2, 117888, Note_on_c, 0, 69, 100
2, 117980, Note_off_c, 0, 69, 100
2, 117984, Note_on_c, 0, 64, 100
2, 118076, Note_off_c, 0, 64, 100
2, 118080, Note_on_c, 0, 63, 100
2, 118172, Note_off_c, 0, 63, 100
2, 118176, Note_on_c, 0, 64, 100
2, 118268, Note_off_c, 0, 64, 100
2, 118272, Note_on_c, 0, 64, 100
2, 118364, Note_off_c, 0, 64, 100
2, 118368, Note_on_c, 0, 61, 100
2, 118460, Note_off_c, 0, 61, 100
2, 118464, Note_on_c, 0, 60, 100
2, 118556, Note_off_c, 0, 60, 100
2, 118560, Note_on_c, 0, 61, 100
2, 118652, Note_off_c, 0, 61, 100
2, 118656, Note_on_c, 0, 61, 100
2, 118748, Note_off_c, 0, 61, 100
2, 118752, Note_on_c, 0, 57, 100
2, 118844, Note_off_c, 0, 57, 100
2, 118848, Note_on_c, 0, 56, 100
2, 118940, Note_off_c, 0, 56, 100
2, 118944, Note_on_c, 0, 57, 100
2, 119036, Note_off_c, 0, 57, 100
2, 119040, Note_on_c, 0, 57, 100
2, 119132, Note_off_c, 0, 57, 100
2, 119136, Note_on_c, 0, 52, 100
2, 119228, Note_off_c, 0, 52, 100
2, 119232, Note_on_c, 0, 51, 100
2, 119324, Note_off_c, 0, 51, 100
2, 119328, Note_on_c, 0, 52, 100
2, 119420, Note_off_c, 0, 52, 100
2, 119424, Note_on_c, 0, 52, 100
2, 119516, Note_off_c, 0, 52, 100
2, 119520, Note_on_c, 0, 49, 100
2, 119612, Note_off_c, 0, 49, 100
2, 119616, Note_on_c, 0, 48, 100
2, 119708, Note_off_c, 0, 48, 100
2, 119712, Note_on_c, 0, 49, 100
2, 119804, Note_off_c, 0, 49, 100
2, 119808, Note_on_c, 0, 49, 100
2, 119900, Note_off_c, 0, 49, 100
2, 119904, Note_on_c, 0, 45, 100
2, 119996, Note_off_c, 0, 45, 100
2, 120000, Note_on_c, 0, 44, 100
2, 120092, Note_off_c, 0, 44, 100
2, 120096, Note_on_c, 0, 45, 100
2, 120188, Note_off_c, 0, 45, 100
2, 120192, Note_on_c, 0, 49, 100
2, 120284, Note_off_c, 0, 49, 100
2, 120288, Note_on_c, 0, 45, 100
2, 120380, Note_off_c, 0, 45, 100
2, 120384, Note_on_c, 0, 52, 100
2, 120476, Note_off_c, 0, 52, 100
2, 120480, Note_on_c, 0, 49, 100
2, 120572, Note_off_c, 0, 49, 100
2, 120576, Note_on_c, 0, 57, 100
2, 120668, Note_off_c, 0, 57, 100
2, 120672, Note_on_c, 0, 52, 100
2, 120764, Note_off_c, 0, 52, 100
2, 120768, Note_on_c, 0, 51, 100
2, 120860, Note_off_c, 0, 51, 100
2, 120864, Note_on_c, 0, 52, 100
2, 120956, Note_off_c, 0, 52, 100
2, 120960, Note_on_c, 0, 57, 100
2, 121052, Note_off_c, 0, 57, 100
2, 121056, Note_on_c, 0, 52, 100
2, 121148, Note_off_c, 0, 52, 100
2, 121152, Note_on_c, 0, 61, 100
2, 121244, Note_off_c, 0, 61, 100
2, 121248, Note_on_c, 0, 57, 100
2, 121340, Note_off_c, 0, 57, 100
2, 121344, Note_on_c, 0, 64, 100
2, 121724, Note_off_c, 0, 64, 100
2, 122304, Note_on_c, 0, 88, 100
2, 122492, Note_off_c, 0, 88, 100
2, 122496, Note_on_c, 0, 88, 100
2, 122684, Note_off_c, 0, 88, 100
2, 122688, Note_on_c, 0, 88, 100
2, 122876, Note_off_c, 0, 88, 100
2, 122880, Note_on_c, 0, 86, 100
2, 122976, Note_on_c, 0, 88, 100
2, 123068, Note_off_c, 0, 86, 100
2, 123072, Note_on_c, 0, 83, 100
2, 123164, Note_off_c, 0, 88, 100
2, 123168, Note_on_c, 0, 88, 100
2, 123260, Note_off_c, 0, 83, 100
2, 123264, Note_on_c, 0, 80, 100
2, 123356, Note_off_c, 0, 88, 100
2, 123360, Note_on_c, 0, 88, 100
2, 123452, Note_off_c, 0, 80, 100
2, 123456, Note_on_c, 0, 76, 100
2, 123548, Note_off_c, 0, 88, 100
2, 123552, Note_on_c, 0, 88, 100
2, 123644, Note_off_c, 0, 76, 100
2, 123648, Note_on_c, 0, 74, 100
2, 123740, Note_off_c, 0, 88, 100
2, 123744, Note_on_c, 0, 88, 100
2, 123836, Note_off_c, 0, 74, 100
2, 123840, Note_on_c, 0, 76, 100
2, 123932, Note_off_c, 0, 88, 100
2, 123936, Note_on_c, 0, 88, 100
2, 124028, Note_off_c, 0, 76, 100
2, 124032, Note_on_c, 0, 74, 100
2, 124124, Note_off_c, 0, 88, 100
2, 124128, Note_on_c, 0, 88, 100
2, 124220, Note_off_c, 0, 74, 100
2, 124224, Note_on_c, 0, 76, 100
2, 124316, Note_off_c, 0, 88, 100
2, 124320, Note_on_c, 0, 88, 100
2, 124412, Note_off_c, 0, 76, 100
2, 124412, Note_off_c, 0, 88, 100
2, 124416, Note_on_c, 0, 73, 100
2, 124512, Note_on_c, 0, 88, 100
2, 124604, Note_off_c, 0, 73, 100
2, 124608, Note_on_c, 0, 76, 100
2, 124700, Note_off_c, 0, 88, 100
2, 124704, Note_on_c, 0, 88, 100
2, 124796, Note_off_c, 0, 76, 100
2, 124800, Note_on_c, 0, 81, 100
2, 124892, Note_off_c, 0, 88, 100
2, 124896, Note_on_c, 0, 88, 100
2, 124988, Note_off_c, 0, 81, 100
2, 124992, Note_on_c, 0, 85, 100
2, 125084, Note_off_c, 0, 88, 100
2, 125088, Note_on_c, 0, 88, 100
2, 125180, Note_off_c, 0, 85, 100
2, 125184, Note_on_c, 0, 81, 100
2, 125276, Note_off_c, 0, 88, 100
2, 125280, Note_on_c, 0, 88, 100
2, 125372, Note_off_c, 0, 81, 100
2, 125376, Note_on_c, 0, 76, 100
2, 125468, Note_off_c, 0, 88, 100
2, 125472, Note_on_c, 0, 88, 100
2, 125564, Note_off_c, 0, 76, 100
2, 125568, Note_on_c, 0, 73, 100
2, 125660, Note_off_c, 0, 88, 100
2, 125664, Note_on_c, 0, 88, 100
2, 125756, Note_off_c, 0, 73, 100
2, 125760, Note_on_c, 0, 76, 100
2, 125852, Note_off_c, 0, 88, 100
2, 125856, Note_on_c, 0, 88, 100
2, 125948, Note_off_c, 0, 76, 100
2, 125948, Note_off_c, 0, 88, 100
2, 125952, Note_on_c, 0, 86, 100
2, 126048, Note_on_c, 0, 88, 100
2, 126140, Note_off_c, 0, 86, 100
2, 126144, Note_on_c, 0, 83, 100
2, 126236, Note_off_c, 0, 88, 100
2, 126240, Note_on_c, 0, 88, 100
2, 126332, Note_off_c, 0, 83, 100
2, 126336, Note_on_c, 0, 80, 100
2, 126428, Note_off_c, 0, 88, 100
2, 126432, Note_on_c, 0, 88, 100
2, 126524, Note_off_c, 0, 80, 100
2, 126528, Note_on_c, 0, 76, 100
2, 126620, Note_off_c, 0, 88, 100
2, 126624, Note_on_c, 0, 88, 100
2, 126716, Note_off_c, 0, 76, 100
2, 126720, Note_on_c, 0, 74, 100
2, 126812, Note_off_c, 0, 88, 100
2, 126816, Note_on_c, 0, 88, 100
2, 126908, Note_off_c, 0, 74, 100
2, 126912, Note_on_c, 0, 76, 100
2, 127004, Note_off_c, 0, 88, 100
2, 127008, Note_on_c, 0, 88, 100
2, 127100, Note_off_c, 0, 76, 100
2, 127104, Note_on_c, 0, 74, 100
2, 127196, Note_off_c, 0, 88, 100
2, 127200, Note_on_c, 0, 88, 100
2, 127292, Note_off_c, 0, 74, 100
2, 127296, Note_on_c, 0, 76, 100
2, 127388, Note_off_c, 0, 88, 100
2, 127392, Note_on_c, 0, 88, 100
2, 127484, Note_off_c, 0, 76, 100
2, 127484, Note_off_c, 0, 88, 100
2, 127488, Note_on_c, 0, 73, 100
2, 127584, Note_on_c, 0, 88, 100
2, 127676, Note_off_c, 0, 73, 100
2, 127680, Note_on_c, 0, 76, 100
2, 127772, Note_off_c, 0, 88, 100
2, 127776, Note_on_c, 0, 88, 100
2, 127868, Note_off_c, 0, 76, 100
2, 127872, Note_on_c, 0, 81, 100
2, 127964, Note_off_c, 0, 88, 100
2, 127968, Note_on_c, 0, 88, 100
2, 128060, Note_off_c, 0, 81, 100
2, 128064, Note_on_c, 0, 85, 100
2, 128156, Note_off_c, 0, 88, 100
2, 128160, Note_on_c, 0, 88, 100
2, 128252, Note_off_c, 0, 85, 100
2, 128256, Note_on_c, 0, 81, 100
2, 128348, Note_off_c, 0, 88, 100
2, 128352, Note_on_c, 0, 88, 100
2, 128444, Note_off_c, 0, 81, 100
2, 128448, Note_on_c, 0, 76, 100
2, 128540, Note_off_c, 0, 88, 100
2, 128544, Note_on_c, 0, 88, 100
2, 128636, Note_off_c, 0, 76, 100
2, 128640, Note_on_c, 0, 73, 100
2, 128732, Note_off_c, 0, 88, 100
2, 128736, Note_on_c, 0, 88, 100
2, 128828, Note_off_c, 0, 73, 100
2, 128832, Note_on_c, 0, 76, 100
2, 128924, Note_off_c, 0, 88, 100
2, 128928, Note_on_c, 0, 88, 100
2, 129020, Note_off_c, 0, 76, 100
2, 129020, Note_off_c, 0, 88, 100
2, 129024, Note_on_c, 0, 86, 100
2, 129116, Note_off_c, 0, 86, 100
2, 129120, Note_on_c, 0, 85, 100
2, 129212, Note_off_c, 0, 85, 100
2, 129216, Note_on_c, 0, 83, 100
2, 129308, Note_off_c, 0, 83, 100
2, 129312, Note_on_c, 0, 82, 100
2, 129404, Note_off_c, 0, 82, 100
2, 129408, Note_on_c, 0, 83, 100
2, 129500, Note_off_c, 0, 83, 100
2, 129504, Note_on_c, 0, 82, 100
2, 129596, Note_off_c, 0, 82, 100
2, 129600, Note_on_c, 0, 83, 100
2, 129692, Note_off_c, 0, 83, 100
2, 129696, Note_on_c, 0, 85, 100
2, 129788, Note_off_c, 0, 85, 100
2, 129792, Note_on_c, 0, 86, 100
2, 129884, Note_off_c, 0, 86, 100
2, 129888, Note_on_c, 0, 85, 100
2, 129980, Note_off_c, 0, 85, 100
2, 129984, Note_on_c, 0, 85, 100
2, 130032, Note_on_c, 0, 83, 100
2, 130076, Note_off_c, 0, 85, 100
2, 130080, Note_on_c, 0, 82, 100
2, 130124, Note_off_c, 0, 83, 100
2, 130172, Note_off_c, 0, 82, 100
2, 130176, Note_on_c, 0, 83, 100
2, 130268, Note_off_c, 0, 83, 100
2, 130272, Note_on_c, 0, 82, 100
2, 130364, Note_off_c, 0, 82, 100
2, 130368, Note_on_c, 0, 83, 100
2, 130460, Note_off_c, 0, 83, 100
2, 130464, Note_on_c, 0, 86, 100
2, 130556, Note_off_c, 0, 86, 100
2, 130560, Note_on_c, 0, 85, 100
2, 130748, Note_off_c, 0, 85, 100
2, 130752, Note_on_c, 0, 76, 100
2, 130940, Note_off_c, 0, 76, 100
2, 130944, Note_on_c, 0, 81, 100
2, 131132, Note_off_c, 0, 81, 100
2, 131136, Note_on_c, 0, 76, 100
2, 131136, Note_on_c, 0, 85, 100
2, 131324, Note_off_c, 0, 76, 100
2, 131324, Note_off_c, 0, 85, 100
2, 131328, Note_on_c, 0, 85, 100
2, 131328, Note_on_c, 0, 76, 100
2, 131516, Note_off_c, 0, 85, 100
2, 131516, Note_off_c, 0, 76, 100
2, 131520, Note_on_c, 0, 83, 100
2, 131520, Note_on_c, 0, 74, 100
2, 131708, Note_off_c, 0, 83, 100
2, 131708, Note_off_c, 0, 74, 100
2, 131712, Note_on_c, 0, 81, 100
2, 131712, Note_on_c, 0, 73, 100
2, 131900, Note_off_c, 0, 81, 100
2, 131900, Note_off_c, 0, 73, 100
2, 131904, Note_on_c, 0, 80, 100
2, 131904, Note_on_c, 0, 71, 100
2, 132092, Note_off_c, 0, 80, 100
2, 132092, Note_off_c, 0, 71, 100
2, 132096, Note_on_c, 0, 73, 100
2, 132096, Note_on_c, 0, 81, 100
2, 132476, Note_off_c, 0, 73, 100
2, 132476, Note_off_c, 0, 81, 100
2, 132480, Note_on_c, 0, 76, 100
2, 132572, Note_off_c, 0, 76, 100
2, 132576, Note_on_c, 0, 72, 100
2, 132668, Note_off_c, 0, 72, 100
2, 132672, Note_on_c, 0, 74, 100
2, 132764, Note_off_c, 0, 74, 100
2, 132768, Note_on_c, 0, 71, 100
2, 132860, Note_off_c, 0, 71, 100
2, 132864, Note_on_c, 0, 69, 100
2, 133052, Note_off_c, 0, 69, 100
2, 133056, Note_on_c, 0, 69, 100
2, 133244, Note_off_c, 0, 69, 100
2, 133248, Note_on_c, 0, 69, 100
2, 133436, Note_off_c, 0, 69, 100
2, 133440, Note_on_c, 0, 69, 100
2, 133628, Note_off_c, 0, 69, 100
2, 133632, Note_on_c, 0, 69, 100
2, 134012, Note_off_c, 0, 69, 100
2, 134016, Note_on_c, 0, 68, 100
2, 134204, Note_off_c, 0, 68, 100
2, 134208, Note_on_c, 0, 69, 100
2, 134396, Note_off_c, 0, 69, 100
2, 134400, Note_on_c, 0, 68, 100
2, 134400, Note_on_c, 0, 71, 100
2, 134588, Note_off_c, 0, 68, 100
2, 134588, Note_off_c, 0, 71, 100
2, 134592, Note_on_c, 0, 69, 100
2, 134592, Note_on_c, 0, 72, 100
2, 134780, Note_off_c, 0, 69, 100
2, 134780, Note_off_c, 0, 72, 100
2, 134784, Note_on_c, 0, 71, 100
2, 134784, Note_on_c, 0, 74, 100
2, 134972, Note_off_c, 0, 71, 100
2, 134972, Note_off_c, 0, 74, 100
2, 134976, Note_on_c, 0, 71, 100
2, 134976, Note_on_c, 0, 74, 100
2, 135164, Note_off_c, 0, 71, 100
2, 135164, Note_off_c, 0, 74, 100
2, 135168, Note_on_c, 0, 71, 100
2, 135168, Note_on_c, 0, 74, 100
2, 135548, Note_off_c, 0, 71, 100
2, 135548, Note_off_c, 0, 74, 100
2, 135552, Note_on_c, 0, 69, 100
2, 135552, Note_on_c, 0, 72, 100
2, 135616, Note_on_c, 0, 74, 100
2, 135676, Note_off_c, 0, 72, 100
2, 135680, Note_on_c, 0, 72, 100
2, 135740, Note_off_c, 0, 74, 100
2, 135744, Note_on_c, 0, 71, 100
2, 135804, Note_off_c, 0, 72, 100
2, 135836, Note_off_c, 0, 71, 100
2, 135840, Note_on_c, 0, 72, 100
2, 135932, Note_off_c, 0, 69, 100
2, 135932, Note_off_c, 0, 72, 100
2, 135936, Note_on_c, 0, 69, 100
2, 135936, Note_on_c, 0, 74, 100
2, 136124, Note_off_c, 0, 69, 100
2, 136124, Note_off_c, 0, 74, 100
2, 136128, Note_on_c, 0, 72, 100
2, 136316, Note_off_c, 0, 72, 100
2, 136320, Note_on_c, 0, 71, 92
2, 136508, Note_off_c, 0, 71, 100
2, 136512, Note_on_c, 0, 69, 81
2, 136700, Note_off_c, 0, 69, 100
2, 136704, Note_on_c, 0, 64, 70
2, 136704, Note_on_c, 0, 68, 70
2, 136892, Note_off_c, 0, 64, 100
2, 136892, Note_off_c, 0, 68, 100
2, 136896, Note_on_c, 0, 66, 70
2, 136896, Note_on_c, 0, 69, 70
2, 137084, Note_off_c, 0, 66, 100
2, 137084, Note_off_c, 0, 69, 100
2, 137088, Note_on_c, 0, 68, 70
2, 137088, Note_on_c, 0, 71, 70
2, 137276, Note_off_c, 0, 68, 100
2, 137276, Note_off_c, 0, 71, 100
2, 137280, Note_on_c, 0, 69, 70
2, 137280, Note_on_c, 0, 72, 70
2, 137468, Note_off_c, 0, 69, 100
2, 137468, Note_off_c, 0, 72, 100
2, 137472, Note_on_c, 0, 71, 70
2, 137472, Note_on_c, 0, 74, 70
2, 137660, Note_off_c, 0, 71, 100
2, 137660, Note_off_c, 0, 74, 100
2, 137664, Note_on_c, 0, 69, 70
2, 137664, Note_on_c, 0, 72, 70
2, 137852, Note_off_c, 0, 69, 100
2, 137852, Note_off_c, 0, 72, 100
2, 137856, Note_on_c, 0, 68, 70
2, 137856, Note_on_c, 0, 71, 70
2, 138044, Note_off_c, 0, 68, 100
2, 138044, Note_off_c, 0, 71, 100
2, 138048, Note_on_c, 0, 66, 70
2, 138048, Note_on_c, 0, 69, 70
2, 138236, Note_off_c, 0, 66, 100
2, 138236, Note_off_c, 0, 69, 100
2, 138240, Note_on_c, 0, 64, 70
2, 138240, Note_on_c, 0, 68, 70
2, 138620, Note_off_c, 0, 64, 100
2, 138620, Note_off_c, 0, 68, 100
2, 139776, Note_on_c, 0, 68, 120
2, 139776, Note_on_c, 0, 71, 120
2, 139776, Note_on_c, 0, 76, 120
2, 140540, Note_off_c, 0, 68, 100
2, 140540, Note_off_c, 0, 71, 100
2, 140540, Note_off_c, 0, 76, 100
2, 140544, Note_on_c, 0, 66, 120
2, 140544, Note_on_c, 0, 71, 120
2, 140544, Note_on_c, 0, 78, 120
2, 141308, Note_off_c, 0, 66, 100
2, 141308, Note_off_c, 0, 71, 100
2, 141308, Note_off_c, 0, 78, 100
2, 141312, Note_on_c, 0, 68, 120
2, 141312, Note_on_c, 0, 71, 120
2, 141312, Note_on_c, 0, 76, 120
2, 141312, Note_on_c, 0, 80, 120
2, 142460, Note_off_c, 0, 68, 100
2, 142460, Note_off_c, 0, 71, 100
2, 142460, Note_off_c, 0, 76, 100
2, 142460, Note_off_c, 0, 80, 100
2, 142848, Note_on_c, 0, 81, 60
2, 142944, Note_on_c, 0, 76, 60
2, 143036, Note_off_c, 0, 81, 100
2, 143040, Note_on_c, 0, 75, 60
2, 143132, Note_off_c, 0, 76, 100
2, 143136, Note_on_c, 0, 76, 60
2, 143228, Note_off_c, 0, 75, 100
2, 143232, Note_on_c, 0, 81, 60
2, 143324, Note_off_c, 0, 76, 100
2, 143328, Note_on_c, 0, 76, 60
2, 143420, Note_off_c, 0, 81, 100
2, 143424, Note_on_c, 0, 80, 60
2, 143424, Note_on_c, 0, 83, 60
2, 143516, Note_off_c, 0, 76, 100
2, 143520, Note_on_c, 0, 76, 60
2, 143612, Note_off_c, 0, 80, 100
2, 143612, Note_off_c, 0, 83, 100
2, 143616, Note_on_c, 0, 85, 60
2, 143616, Note_on_c, 0, 81, 60
2, 143708, Note_off_c, 0, 76, 100
2, 143712, Note_on_c, 0, 76, 60
2, 143804, Note_off_c, 0, 85, 100
2, 143804, Note_off_c, 0, 81, 100
2, 143808, Note_on_c, 0, 75, 60
2, 143900, Note_off_c, 0, 76, 100
2, 143904, Note_on_c, 0, 76, 60
2, 143996, Note_off_c, 0, 75, 100
2, 144000, Note_on_c, 0, 85, 60
2, 144000, Note_on_c, 0, 81, 60
2, 144092, Note_off_c, 0, 76, 100
2, 144096, Note_on_c, 0, 76, 60
2, 144188, Note_off_c, 0, 85, 100
2, 144188, Note_off_c, 0, 81, 100
2, 144192, Note_on_c, 0, 83, 60
2, 144192, Note_on_c, 0, 86, 60
2, 144284, Note_off_c, 0, 76, 100
2, 144288, Note_on_c, 0, 76, 60
2, 144380, Note_off_c, 0, 83, 100
2, 144380, Note_off_c, 0, 86, 100
2, 144380, Note_off_c, 0, 76, 100
2, 144384, Note_on_c, 0, 88, 60
2, 144384, Note_on_c, 0, 85, 60
2, 144480, Note_on_c, 0, 76, 60
2, 144572, Note_off_c, 0, 88, 100
2, 144572, Note_off_c, 0, 85, 100
2, 144576, Note_on_c, 0, 88, 60
2, 144576, Note_on_c, 0, 85, 60
2, 144668, Note_off_c, 0, 76, 100
2, 144672, Note_on_c, 0, 76, 60
2, 144764, Note_off_c, 0, 88, 100
2, 144764, Note_off_c, 0, 85, 100
2, 144768, Note_on_c, 0, 85, 60
2, 144768, Note_on_c, 0, 81, 60
2, 144860, Note_off_c, 0, 76, 100
2, 144864, Note_on_c, 0, 76, 60
2, 144956, Note_off_c, 0, 85, 100
2, 144956, Note_off_c, 0, 81, 100
2, 144960, Note_on_c, 0, 81, 60
2, 144960, Note_on_c, 0, 85, 60
2, 145052, Note_off_c, 0, 76, 100
2, 145056, Note_on_c, 0, 76, 60
2, 145148, Note_off_c, 0, 81, 100
2, 145148, Note_off_c, 0, 85, 100
2, 145152, Note_on_c, 0, 86, 60
2, 145152, Note_on_c, 0, 83, 60
2, 145244, Note_off_c, 0, 76, 100
2, 145248, Note_on_c, 0, 76, 60
2, 145340, Note_off_c, 0, 86, 100
2, 145340, Note_off_c, 0, 83, 100
2, 145344, Note_on_c, 0, 83, 60
2, 145344, Note_on_c, 0, 86, 60
2, 145436, Note_off_c, 0, 76, 100
2, 145440, Note_on_c, 0, 76, 60
2, 145532, Note_off_c, 0, 83, 100
2, 145532, Note_off_c, 0, 86, 100
2, 145536, Note_on_c, 0, 80, 60
2, 145536, Note_on_c, 0, 83, 60
2, 145628, Note_off_c, 0, 76, 100
2, 145632, Note_on_c, 0, 76, 60
2, 145724, Note_off_c, 0, 80, 100
2, 145724, Note_off_c, 0, 83, 100
2, 145728, Note_on_c, 0, 83, 60
2, 145728, Note_on_c, 0, 80, 60
2, 145820, Note_off_c, 0, 76, 100
2, 145824, Note_on_c, 0, 76, 60
2, 145916, Note_off_c, 0, 83, 100
2, 145916, Note_off_c, 0, 80, 100
2, 145916, Note_off_c, 0, 76, 100
2, 145920, Note_on_c, 0, 81, 60
2, 146016, Note_on_c, 0, 76, 60
2, 146108, Note_off_c, 0, 81, 100
2, 146112, Note_on_c, 0, 75, 60
2, 146204, Note_off_c, 0, 76, 100
2, 146208, Note_on_c, 0, 76, 60
2, 146300, Note_off_c, 0, 75, 100
2, 146304, Note_on_c, 0, 81, 60
2, 146396, Note_off_c, 0, 76, 100
2, 146400, Note_on_c, 0, 76, 60
2, 146492, Note_off_c, 0, 81, 100
2, 146496, Note_on_c, 0, 80, 60
2, 146496, Note_on_c, 0, 83, 60
2, 146588, Note_off_c, 0, 76, 100
2, 146592, Note_on_c, 0, 76, 60
2, 146684, Note_off_c, 0, 80, 100
2, 146684, Note_off_c, 0, 83, 100
2, 146688, Note_on_c, 0, 85, 60
2, 146688, Note_on_c, 0, 81, 60
2, 146780, Note_off_c, 0, 76, 100
2, 146784, Note_on_c, 0, 76, 60
2, 146876, Note_off_c, 0, 85, 100
2, 146876, Note_off_c, 0, 81, 100
2, 146880, Note_on_c, 0, 75, 60
2, 146972, Note_off_c, 0, 76, 100
2, 146976, Note_on_c, 0, 76, 60
2, 147068, Note_off_c, 0, 75, 100
2, 147072, Note_on_c, 0, 85, 60
2, 147072, Note_on_c, 0, 81, 60
2, 147164, Note_off_c, 0, 76, 100
2, 147168, Note_on_c, 0, 76, 60
2, 147260, Note_off_c, 0, 85, 100
2, 147260, Note_off_c, 0, 81, 100
2, 147264, Note_on_c, 0, 83, 60
2, 147264, Note_on_c, 0, 86, 60
2, 147356, Note_off_c, 0, 76, 100
2, 147360, Note_on_c, 0, 76, 60
2, 147452, Note_off_c, 0, 83, 100
2, 147452, Note_off_c, 0, 86, 100
2, 147452, Note_off_c, 0, 76, 100
2, 147456, Note_on_c, 0, 88, 60
2, 147456, Note_on_c, 0, 85, 60
2, 147552, Note_on_c, 0, 76, 60
2, 147644, Note_off_c, 0, 88, 100
2, 147644, Note_off_c, 0, 85, 100
2, 147648, Note_on_c, 0, 88, 60
2, 147648, Note_on_c, 0, 85, 60
2, 147740, Note_off_c, 0, 76, 100
2, 147744, Note_on_c, 0, 76, 60
2, 147836, Note_off_c, 0, 88, 100
2, 147836, Note_off_c, 0, 85, 100
2, 147840, Note_on_c, 0, 85, 60
2, 147840, Note_on_c, 0, 81, 60
2, 147932, Note_off_c, 0, 76, 100
2, 147936, Note_on_c, 0, 76, 60
2, 148028, Note_off_c, 0, 85, 100
2, 148028, Note_off_c, 0, 81, 100
2, 148032, Note_on_c, 0, 81, 60
2, 148032, Note_on_c, 0, 85, 60
2, 148124, Note_off_c, 0, 76, 100
2, 148128, Note_on_c, 0, 76, 60
2, 148220, Note_off_c, 0, 81, 100
2, 148220, Note_off_c, 0, 85, 100
2, 148224, Note_on_c, 0, 86, 60
2, 148224, Note_on_c, 0, 83, 60
2, 148316, Note_off_c, 0, 76, 100
2, 148320, Note_on_c, 0, 76, 60
2, 148412, Note_off_c, 0, 86, 100
2, 148412, Note_off_c, 0, 83, 100
2, 148416, Note_on_c, 0, 83, 60
2, 148416, Note_on_c, 0, 86, 60
2, 148508, Note_off_c, 0, 76, 100
2, 148512, Note_on_c, 0, 76, 60
2, 148604, Note_off_c, 0, 83, 100
2, 148604, Note_off_c, 0, 86, 100
2, 148608, Note_on_c, 0, 80, 60
2, 148608, Note_on_c, 0, 83, 60
2, 148700, Note_off_c, 0, 76, 100
2, 148704, Note_on_c, 0, 76, 60
2, 148796, Note_off_c, 0, 80, 100
2, 148796, Note_off_c, 0, 83, 100
2, 148800, Note_on_c, 0, 83, 70
2, 148800, Note_on_c, 0, 80, 70
2, 148892, Note_off_c, 0, 76, 100
2, 148896, Note_on_c, 0, 76, 80
2, 148988, Note_off_c, 0, 83, 100
2, 148988, Note_off_c, 0, 80, 100
2, 148988, Note_off_c, 0, 76, 100
2, 148992, Note_on_c, 0, 88, 120
2, 148992, Note_on_c, 0, 85, 120
2, 149088, Note_on_c, 0, 76, 120
2, 149180, Note_off_c, 0, 88, 100
2, 149180, Note_off_c, 0, 85, 100
2, 149184, Note_on_c, 0, 88, 120
2, 149184, Note_on_c, 0, 85, 120
2, 149276, Note_off_c, 0, 76, 100
2, 149280, Note_on_c, 0, 76, 120
2, 149372, Note_off_c, 0, 88, 100
2, 149372, Note_off_c, 0, 85, 100
2, 149376, Note_on_c, 0, 85, 120
2, 149376, Note_on_c, 0, 81, 120
2, 149468, Note_off_c, 0, 76, 100
2, 149472, Note_on_c, 0, 76, 120
2, 149564, Note_off_c, 0, 85, 100
2, 149564, Note_off_c, 0, 81, 100
2, 149568, Note_on_c, 0, 81, 120
2, 149568, Note_on_c, 0, 85, 120
2, 149660, Note_off_c, 0, 76, 100
2, 149664, Note_on_c, 0, 76, 120
2, 149756, Note_off_c, 0, 81, 100
2, 149756, Note_off_c, 0, 85, 100
2, 149760, Note_on_c, 0, 86, 120
2, 149760, Note_on_c, 0, 83, 120
2, 149852, Note_off_c, 0, 76, 100
2, 149856, Note_on_c, 0, 76, 120
2, 149948, Note_off_c, 0, 86, 100
2, 149948, Note_off_c, 0, 83, 100
2, 149952, Note_on_c, 0, 83, 120
2, 149952, Note_on_c, 0, 86, 120
2, 150044, Note_off_c, 0, 76, 100
2, 150048, Note_on_c, 0, 76, 120
2, 150140, Note_off_c, 0, 83, 100
2, 150140, Note_off_c, 0, 86, 100
2, 150144, Note_on_c, 0, 80, 120
2, 150144, Note_on_c, 0, 83, 120
2, 150236, Note_off_c, 0, 76, 100
2, 150240, Note_on_c, 0, 76, 120
2, 150332, Note_off_c, 0, 80, 100
2, 150332, Note_off_c, 0, 83, 100
2, 150336, Note_on_c, 0, 83, 120
2, 150336, Note_on_c, 0, 80, 120
2, 150428, Note_off_c, 0, 76, 100
2, 150432, Note_on_c, 0, 76, 120
2, 150524, Note_off_c, 0, 83, 100
2, 150524, Note_off_c, 0, 80, 100
2, 150524, Note_off_c, 0, 76, 100
2, 150528, Note_on_c, 0, 85, 120
2, 150528, Note_on_c, 0, 81, 120
2, 150528, Note_on_c, 0, 76, 120
2, 150908, Note_off_c, 0, 85, 100
2, 150908, Note_off_c, 0, 81, 100
2, 150908, Note_off_c, 0, 76, 100
2, 150912, Note_on_c, 0, 83, 120
2, 150912, Note_on_c, 0, 80, 120
2, 150912, Note_on_c, 0, 76, 120
2, 151292, Note_off_c, 0, 83, 100
2, 151292, Note_off_c, 0, 80, 100
2, 151292, Note_off_c, 0, 76, 100
2, 151296, Note_on_c, 0, 85, 120
2, 151296, Note_on_c, 0, 81, 120
2, 151296, Note_on_c, 0, 76, 120
2, 151676, Note_off_c, 0, 85, 100
2, 151676, Note_off_c, 0, 81, 100
2, 151676, Note_off_c, 0, 76, 100
2, 151680, Note_on_c, 0, 76, 100
2, 151772, Note_off_c, 0, 76, 100
2, 151776, Note_on_c, 0, 73, 100
2, 151868, Note_off_c, 0, 73, 100
2, 151872, Note_on_c, 0, 74, 100
2, 151964, Note_off_c, 0, 74, 100
2, 151968, Note_on_c, 0, 71, 100
2, 152060, Note_off_c, 0, 71, 100
2, 152064, Note_on_c, 0, 69, 100
2, 152444, Note_off_c, 0, 69, 100
2, 152448, Note_on_c, 0, 81, 70
2, 152448, Note_on_c, 0, 78, 70
2, 152828, Note_off_c, 0, 81, 100
2, 152828, Note_off_c, 0, 78, 100
2, 152832, Note_on_c, 0, 80, 70
2, 152832, Note_on_c, 0, 76, 70
2, 153212, Note_off_c, 0, 80, 100
2, 153212, Note_off_c, 0, 76, 100
2, 153216, Note_on_c, 0, 78, 70
2, 153216, Note_on_c, 0, 74, 70
2, 153596, Note_off_c, 0, 78, 100
2, 153596, Note_off_c, 0, 74, 100
2, 153600, Note_on_c, 0, 76, 70
2, 153600, Note_on_c, 0, 73, 70
2, 153980, Note_off_c, 0, 76, 100
2, 153980, Note_off_c, 0, 73, 100
2, 153984, Note_on_c, 0, 76, 100
2, 153984, Note_on_c, 0, 73, 100
2, 154364, Note_off_c, 0, 76, 100
2, 154364, Note_off_c, 0, 73, 100
2, 154368, Note_on_c, 0, 74, 100
2, 154368, Note_on_c, 0, 71, 100
2, 154748, Note_off_c, 0, 74, 100
2, 154748, Note_off_c, 0, 71, 100
2, 154752, Note_on_c, 0, 73, 100
2, 154752, Note_on_c, 0, 69, 100
2, 155132, Note_off_c, 0, 73, 100
2, 155132, Note_off_c, 0, 69, 100
2, 155136, Note_on_c, 0, 71, 100
2, 155136, Note_on_c, 0, 66, 100
2, 155324, Note_off_c, 0, 71, 100
2, 155328, Note_on_c, 0, 71, 100
2, 155516, Note_off_c, 0, 66, 100
2, 155516, Note_off_c, 0, 71, 100
2, 155520, Note_on_c, 0, 66, 100
2, 155520, Note_on_c, 0, 74, 100
2, 155708, Note_off_c, 0, 66, 100
2, 155708, Note_off_c, 0, 74, 100
2, 155712, Note_on_c, 0, 62, 100
2, 155712, Note_on_c, 0, 71, 100
2, 155900, Note_off_c, 0, 62, 100
2, 155900, Note_off_c, 0, 71, 100
2, 155904, Note_on_c, 0, 62, 100
2, 155904, Note_on_c, 0, 71, 100
2, 156092, Note_off_c, 0, 62, 100
2, 156092, Note_off_c, 0, 71, 100
2, 156096, Note_on_c, 0, 61, 100
2, 156096, Note_on_c, 0, 69, 100
2, 156284, Note_off_c, 0, 61, 100
2, 156284, Note_off_c, 0, 69, 100
2, 156288, Note_on_c, 0, 61, 100
2, 156288, Note_on_c, 0, 69, 100
2, 156476, Note_off_c, 0, 61, 100
2, 156476, Note_off_c, 0, 69, 100
2, 156480, Note_on_c, 0, 59, 100
2, 156480, Note_on_c, 0, 68, 100
2, 156668, Note_off_c, 0, 59, 100
2, 156668, Note_off_c, 0, 68, 100
2, 156672, Note_on_c, 0, 61, 100
2, 156672, Note_on_c, 0, 69, 100
2, 157820, Note_off_c, 0, 61, 100
2, 157820, Note_off_c, 0, 69, 100
2, 157824, Note_on_c, 0, 76, 100
2, 157916, Note_off_c, 0, 76, 100
2, 157920, Note_on_c, 0, 73, 100
2, 158012, Note_off_c, 0, 73, 100
2, 158016, Note_on_c, 0, 74, 100
2, 158108, Note_off_c, 0, 74, 100
2, 158112, Note_on_c, 0, 71, 100
2, 158204, Note_off_c, 0, 71, 100
2, 158208, Note_on_c, 0, 70, 100
2, 158588, Note_off_c, 0, 70, 100
2, 158592, Note_on_c, 0, 82, 70
2, 158592, Note_on_c, 0, 79, 70
2, 158972, Note_off_c, 0, 82, 100
2, 158972, Note_off_c, 0, 79, 100
2, 158976, Note_on_c, 0, 82, 70
2, 158976, Note_on_c, 0, 78, 70
2, 159356, Note_off_c, 0, 82, 100
2, 159356, Note_off_c, 0, 78, 100
2, 159360, Note_on_c, 0, 82, 70
2, 159360, Note_on_c, 0, 76, 70
2, 159740, Note_off_c, 0, 82, 100
2, 159740, Note_off_c, 0, 76, 100
2, 159744, Note_on_c, 0, 83, 70
2, 159792, Note_on_c, 0, 85, 70
2, 159836, Note_off_c, 0, 83, 100
2, 159840, Note_on_c, 0, 83, 70
2, 159884, Note_off_c, 0, 85, 100
2, 160316, Note_off_c, 0, 83, 100
2, 160320, Note_on_c, 0, 86, 70
2, 160508, Note_off_c, 0, 86, 100
2, 160512, Note_on_c, 0, 74, 70
2, 160512, Note_on_c, 0, 83, 70
2, 160892, Note_off_c, 0, 74, 100
2, 160892, Note_off_c, 0, 83, 100
2, 160896, Note_on_c, 0, 74, 70
2, 160896, Note_on_c, 0, 78, 70
2, 161276, Note_off_c, 0, 74, 100
2, 161276, Note_off_c, 0, 78, 100
2, 161280, Note_on_c, 0, 76, 70
2, 161280, Note_on_c, 0, 79, 70
2, 161468, Note_off_c, 0, 76, 100
2, 161468, Note_off_c, 0, 79, 100
2, 161472, Note_on_c, 0, 79, 70
2, 161472, Note_on_c, 0, 83, 70
2, 161660, Note_off_c, 0, 79, 100
2, 161660, Note_off_c, 0, 83, 100
2, 161664, Note_on_c, 0, 76, 70
2, 161664, Note_on_c, 0, 79, 70
2, 161852, Note_off_c, 0, 76, 100
2, 161852, Note_off_c, 0, 79, 100
2, 161856, Note_on_c, 0, 73, 70
2, 161856, Note_on_c, 0, 76, 70
2, 162044, Note_off_c, 0, 73, 100
2, 162044, Note_off_c, 0, 76, 100
2, 162048, Note_on_c, 0, 71, 70
2, 162048, Note_on_c, 0, 74, 70
2, 162236, Note_off_c, 0, 71, 100
2, 162236, Note_off_c, 0, 74, 100
2, 162240, Note_on_c, 0, 74, 70
2, 162240, Note_on_c, 0, 78, 70
2, 162428, Note_off_c, 0, 74, 100
2, 162428, Note_off_c, 0, 78, 100
2, 162432, Note_on_c, 0, 73, 70
2, 162432, Note_on_c, 0, 76, 70
2, 162620, Note_off_c, 0, 73, 100
2, 162620, Note_off_c, 0, 76, 100
2, 162624, Note_on_c, 0, 70, 70
2, 162624, Note_on_c, 0, 73, 70
2, 162812, Note_off_c, 0, 70, 100
2, 162812, Note_off_c, 0, 73, 100
2, 162816, Note_on_c, 0, 71, 100
2, 162908, Note_off_c, 0, 71, 100
2, 162912, Note_on_c, 0, 66, 100
2, 163004, Note_off_c, 0, 66, 100
2, 163008, Note_on_c, 0, 65, 100
2, 163100, Note_off_c, 0, 65, 100
2, 163104, Note_on_c, 0, 66, 100
2, 163196, Note_off_c, 0, 66, 100
2, 163200, Note_on_c, 0, 71, 100
2, 163292, Note_off_c, 0, 71, 100
2, 163296, Note_on_c, 0, 66, 100
2, 163388, Note_off_c, 0, 66, 100
2, 163392, Note_on_c, 0, 74, 100
2, 163484, Note_off_c, 0, 74, 100
2, 163488, Note_on_c, 0, 71, 100
2, 163580, Note_off_c, 0, 71, 100
2, 163584, Note_on_c, 0, 78, 100
2, 163772, Note_off_c, 0, 78, 100
2, 163776, Note_on_c, 0, 78, 100
2, 163964, Note_off_c, 0, 78, 100
2, 163968, Note_on_c, 0, 78, 100
2, 164156, Note_off_c, 0, 78, 100
2, 164160, Note_on_c, 0, 78, 100
2, 164348, Note_off_c, 0, 78, 100
2, 164352, Note_on_c, 0, 76, 100
2, 164444, Note_off_c, 0, 76, 100
2, 164448, Note_on_c, 0, 73, 100
2, 164540, Note_off_c, 0, 73, 100
2, 164544, Note_on_c, 0, 73, 100
2, 164636, Note_off_c, 0, 73, 100
2, 164640, Note_on_c, 0, 70, 100
2, 164732, Note_off_c, 0, 70, 100
2, 164736, Note_on_c, 0, 70, 100
2, 164828, Note_off_c, 0, 70, 100
2, 164832, Note_on_c, 0, 67, 100
2, 164924, Note_off_c, 0, 67, 100
2, 164928, Note_on_c, 0, 67, 100
2, 165020, Note_off_c, 0, 67, 100
2, 165024, Note_on_c, 0, 64, 100
2, 165116, Note_off_c, 0, 64, 100
2, 165120, Note_on_c, 0, 66, 100
2, 165212, Note_off_c, 0, 66, 100
2, 165216, Note_on_c, 0, 62, 100
2, 165308, Note_off_c, 0, 62, 100
2, 165312, Note_on_c, 0, 64, 100
2, 165404, Note_off_c, 0, 64, 100
2, 165408, Note_on_c, 0, 61, 100
2, 165500, Note_off_c, 0, 61, 100
2, 165504, Note_on_c, 0, 62, 100
2, 165596, Note_off_c, 0, 62, 100
2, 165600, Note_on_c, 0, 59, 100
2, 165692, Note_off_c, 0, 59, 100
2, 165696, Note_on_c, 0, 61, 100
2, 165788, Note_off_c, 0, 61, 100
2, 165792, Note_on_c, 0, 58, 100
2, 165884, Note_off_c, 0, 58, 100
2, 165888, Note_on_c, 0, 62, 100
2, 165980, Note_off_c, 0, 62, 100
2, 165984, Note_on_c, 0, 59, 100
2, 166076, Note_off_c, 0, 59, 100
2, 166080, Note_on_c, 0, 58, 100
2, 166172, Note_off_c, 0, 58, 100
2, 166176, Note_on_c, 0, 59, 100
2, 166268, Note_off_c, 0, 59, 100
2, 166272, Note_on_c, 0, 62, 100
2, 166364, Note_off_c, 0, 62, 100
2, 166368, Note_on_c, 0, 59, 100
2, 166460, Note_off_c, 0, 59, 100
2, 166464, Note_on_c, 0, 66, 100
2, 166556, Note_off_c, 0, 66, 100
2, 166560, Note_on_c, 0, 62, 100
2, 166652, Note_off_c, 0, 62, 100
2, 166656, Note_on_c, 0, 71, 100
2, 166748, Note_off_c, 0, 71, 100
2, 166752, Note_on_c, 0, 66, 100
2, 166844, Note_off_c, 0, 66, 100
2, 166848, Note_on_c, 0, 65, 100
2, 166940, Note_off_c, 0, 65, 100
2, 166944, Note_on_c, 0, 66, 100
2, 167036, Note_off_c, 0, 66, 100
2, 167040, Note_on_c, 0, 71, 100
2, 167132, Note_off_c, 0, 71, 100
2, 167136, Note_on_c, 0, 66, 90
2, 167228, Note_off_c, 0, 66, 100
2, 167232, Note_on_c, 0, 74, 80
2, 167324, Note_off_c, 0, 74, 100
2, 167328, Note_on_c, 0, 71, 70
2, 167420, Note_off_c, 0, 71, 100
2, 167424, Note_on_c, 0, 72, 70
2, 167612, Note_off_c, 0, 72, 100
2, 167616, Note_on_c, 0, 62, 70
2, 167616, Note_on_c, 0, 66, 70
2, 167616, Note_on_c, 0, 72, 70
2, 167804, Note_off_c, 0, 62, 100
2, 167804, Note_off_c, 0, 66, 100
2, 167804, Note_off_c, 0, 72, 100
2, 167808, Note_on_c, 0, 62, 70
2, 167808, Note_on_c, 0, 66, 70
2, 167808, Note_on_c, 0, 72, 70
2, 167996, Note_off_c, 0, 62, 100
2, 167996, Note_off_c, 0, 66, 100
2, 167996, Note_off_c, 0, 72, 100
2, 168000, Note_on_c, 0, 62, 70
2, 168000, Note_on_c, 0, 66, 70
2, 168000, Note_on_c, 0, 72, 70
2, 168188, Note_off_c, 0, 62, 100
2, 168188, Note_off_c, 0, 66, 100
2, 168188, Note_off_c, 0, 72, 100
2, 168192, Note_on_c, 0, 74, 70
2, 168284, Note_off_c, 0, 74, 100
2, 168288, Note_on_c, 0, 72, 70
2, 168380, Note_off_c, 0, 72, 100
2, 168384, Note_on_c, 0, 71, 70
2, 168476, Note_off_c, 0, 71, 100
2, 168480, Note_on_c, 0, 72, 70
2, 168572, Note_off_c, 0, 72, 100
2, 168576, Note_on_c, 0, 74, 70
2, 168764, Note_off_c, 0, 74, 100
2, 168768, Note_on_c, 0, 62, 70
2, 168768, Note_on_c, 0, 66, 70
2, 168768, Note_on_c, 0, 72, 70
2, 168956, Note_off_c, 0, 62, 100
2, 168956, Note_off_c, 0, 66, 100
2, 168956, Note_off_c, 0, 72, 100
2, 168960, Note_on_c, 0, 62, 100
2, 168960, Note_on_c, 0, 67, 100
2, 168960, Note_on_c, 0, 71, 100
2, 169532, Note_off_c, 0, 62, 100
2, 169532, Note_off_c, 0, 67, 100
2, 169532, Note_off_c, 0, 71, 100
2, 169536, Note_on_c, 0, 74, 100
2, 169724, Note_off_c, 0, 74, 100
2, 169728, Note_on_c, 0, 79, 100
2, 169916, Note_off_c, 0, 79, 100
2, 169920, Note_on_c, 0, 78, 100
2, 170108, Note_off_c, 0, 78, 100
2, 170112, Note_on_c, 0, 76, 90
2, 170300, Note_off_c, 0, 76, 100
2, 170304, Note_on_c, 0, 74, 81
2, 170492, Note_off_c, 0, 74, 100
2, 170496, Note_on_c, 0, 74, 70
2, 170684, Note_off_c, 0, 74, 100
2, 170688, Note_on_c, 0, 72, 70
2, 170876, Note_off_c, 0, 72, 100
2, 170880, Note_on_c, 0, 62, 70
2, 170880, Note_on_c, 0, 66, 70
2, 170880, Note_on_c, 0, 72, 70
2, 171068, Note_off_c, 0, 62, 100
2, 171068, Note_off_c, 0, 66, 100
2, 171068, Note_off_c, 0, 72, 100
2, 171072, Note_on_c, 0, 62, 70
2, 171072, Note_on_c, 0, 66, 70
2, 171072, Note_on_c, 0, 72, 70
2, 171260, Note_off_c, 0, 62, 100
2, 171260, Note_off_c, 0, 66, 100
2, 171260, Note_off_c, 0, 72, 100
2, 171264, Note_on_c, 0, 63, 70
2, 171264, Note_on_c, 0, 66, 70
2, 171264, Note_on_c, 0, 72, 70
2, 171452, Note_off_c, 0, 63, 100
2, 171452, Note_off_c, 0, 66, 100
2, 171452, Note_off_c, 0, 72, 100
2, 171456, Note_on_c, 0, 63, 70
2, 171456, Note_on_c, 0, 66, 70
2, 171456, Note_on_c, 0, 72, 70
2, 171644, Note_off_c, 0, 63, 100
2, 171644, Note_off_c, 0, 66, 100
2, 171644, Note_off_c, 0, 72, 100
2, 171648, Note_on_c, 0, 63, 70
2, 171648, Note_on_c, 0, 66, 70
2, 171648, Note_on_c, 0, 72, 70
2, 171836, Note_off_c, 0, 63, 100
2, 171836, Note_off_c, 0, 66, 100
2, 171836, Note_off_c, 0, 72, 100
2, 171840, Note_on_c, 0, 63, 70
2, 171840, Note_on_c, 0, 66, 70
2, 171840, Note_on_c, 0, 72, 70
2, 172028, Note_off_c, 0, 63, 100
2, 172028, Note_off_c, 0, 66, 100
2, 172028, Note_off_c, 0, 72, 100
2, 172032, Note_on_c, 0, 64, 100
2, 172032, Note_on_c, 0, 72, 100
2, 172220, Note_off_c, 0, 72, 100
2, 172224, Note_on_c, 0, 71, 100
2, 172412, Note_off_c, 0, 71, 100
2, 172416, Note_on_c, 0, 71, 100
2, 172604, Note_off_c, 0, 71, 100
2, 172608, Note_on_c, 0, 71, 100
2, 172796, Note_off_c, 0, 64, 100
2, 172796, Note_off_c, 0, 71, 100
2, 172800, Note_on_c, 0, 63, 100
2, 172800, Note_on_c, 0, 71, 100
2, 172988, Note_off_c, 0, 71, 100
2, 172992, Note_on_c, 0, 69, 100
2, 173180, Note_off_c, 0, 69, 100
2, 173184, Note_on_c, 0, 69, 100
2, 173372, Note_off_c, 0, 69, 100
2, 173376, Note_on_c, 0, 69, 100
2, 173564, Note_off_c, 0, 63, 100
2, 173564, Note_off_c, 0, 69, 100
2, 173568, Note_on_c, 0, 67, 100
2, 173660, Note_off_c, 0, 67, 100
2, 173664, Note_on_c, 0, 64, 100
2, 173756, Note_off_c, 0, 64, 100
2, 173760, Note_on_c, 0, 66, 100
2, 173852, Note_off_c, 0, 66, 100
2, 173856, Note_on_c, 0, 67, 100
2, 173948, Note_off_c, 0, 67, 100
2, 173952, Note_on_c, 0, 69, 100
2, 174044, Note_off_c, 0, 69, 100
2, 174048, Note_on_c, 0, 71, 100
2, 174140, Note_off_c, 0, 71, 100
2, 174144, Note_on_c, 0, 73, 100
2, 174236, Note_off_c, 0, 73, 100
2, 174240, Note_on_c, 0, 75, 100
2, 174332, Note_off_c, 0, 75, 100
2, 174336, Note_on_c, 0, 76, 100
2, 174428, Note_off_c, 0, 76, 100
2, 174432, Note_on_c, 0, 78, 100
2, 174524, Note_off_c, 0, 78, 100
2, 174528, Note_on_c, 0, 79, 100
2, 174620, Note_off_c, 0, 79, 100
2, 174624, Note_on_c, 0, 81, 100
2, 174716, Note_off_c, 0, 81, 100
2, 174720, Note_on_c, 0, 83, 100
2, 174812, Note_off_c, 0, 83, 100
2, 174816, Note_on_c, 0, 79, 100
2, 174908, Note_off_c, 0, 79, 100
2, 174912, Note_on_c, 0, 78, 100
2, 175004, Note_off_c, 0, 78, 100
2, 175008, Note_on_c, 0, 76, 100
2, 175100, Note_off_c, 0, 76, 100
2, 175104, Note_on_c, 0, 78, 100
2, 175104, Note_on_c, 0, 81, 100
2, 176636, Note_off_c, 0, 78, 100
2, 176636, Note_off_c, 0, 81, 100
2, 176736, Note_on_c, 0, 64, 100
2, 176828, Note_off_c, 0, 64, 100
2, 176832, Note_on_c, 0, 66, 100
2, 176924, Note_off_c, 0, 66, 100
2, 176928, Note_on_c, 0, 67, 100
2, 177020, Note_off_c, 0, 67, 100
2, 177024, Note_on_c, 0, 69, 100
2, 177116, Note_off_c, 0, 69, 100
2, 177120, Note_on_c, 0, 71, 100
2, 177212, Note_off_c, 0, 71, 100
2, 177216, Note_on_c, 0, 73, 100
2, 177308, Note_off_c, 0, 73, 100
2, 177312, Note_on_c, 0, 75, 100
2, 177404, Note_off_c, 0, 75, 100
2, 177408, Note_on_c, 0, 76, 100
2, 177500, Note_off_c, 0, 76, 100
2, 177504, Note_on_c, 0, 78, 100
2, 177596, Note_off_c, 0, 78, 100
2, 177600, Note_on_c, 0, 79, 100
2, 177692, Note_off_c, 0, 79, 100
2, 177696, Note_on_c, 0, 81, 100
2, 177788, Note_off_c, 0, 81, 100
2, 177792, Note_on_c, 0, 83, 100
2, 177884, Note_off_c, 0, 83, 100
2, 177888, Note_on_c, 0, 79, 100
2, 177980, Note_off_c, 0, 79, 100
2, 177984, Note_on_c, 0, 78, 100
2, 178076, Note_off_c, 0, 78, 100
2, 178080, Note_on_c, 0, 76, 100
2, 178172, Note_off_c, 0, 76, 100
2, 178176, Note_on_c, 0, 78, 100
2, 178176, Note_on_c, 0, 81, 100
2, 179708, Note_off_c, 0, 78, 100
2, 179708, Note_off_c, 0, 81, 100
2, 179808, Note_on_c, 0, 64, 100
2, 179900, Note_off_c, 0, 64, 100
2, 179904, Note_on_c, 0, 66, 100
2, 179996, Note_off_c, 0, 66, 100
2, 180000, Note_on_c, 0, 67, 100
2, 180092, Note_off_c, 0, 67, 100
2, 180096, Note_on_c, 0, 69, 100
2, 180188, Note_off_c, 0, 69, 100
2, 180192, Note_on_c, 0, 71, 100
2, 180284, Note_off_c, 0, 71, 100
2, 180288, Note_on_c, 0, 73, 100
2, 180380, Note_off_c, 0, 73, 100
2, 180384, Note_on_c, 0, 75, 100
2, 180476, Note_off_c, 0, 75, 100
2, 180480, Note_on_c, 0, 76, 100
2, 180572, Note_off_c, 0, 76, 100
2, 180576, Note_on_c, 0, 78, 100
2, 180668, Note_off_c, 0, 78, 100
2, 180672, Note_on_c, 0, 79, 100
2, 180764, Note_off_c, 0, 79, 100
2, 180768, Note_on_c, 0, 81, 100
2, 180860, Note_off_c, 0, 81, 100
2, 180864, Note_on_c, 0, 83, 100
2, 180956, Note_off_c, 0, 83, 100
2, 180960, Note_on_c, 0, 79, 100
2, 181052, Note_off_c, 0, 79, 100
2, 181056, Note_on_c, 0, 78, 85
2, 181148, Note_off_c, 0, 78, 100
2, 181152, Note_on_c, 0, 76, 70
2, 181244, Note_off_c, 0, 76, 100
2, 181248, Note_on_c, 0, 79, 70
2, 181436, Note_off_c, 0, 79, 100
2, 181440, Note_on_c, 0, 81, 70
2, 181628, Note_off_c, 0, 81, 100
2, 181632, Note_on_c, 0, 79, 70
2, 181820, Note_off_c, 0, 79, 100
2, 181824, Note_on_c, 0, 76, 70
2, 182012, Note_off_c, 0, 76, 100
2, 182016, Note_on_c, 0, 73, 70
2, 182204, Note_off_c, 0, 73, 100
2, 182208, Note_on_c, 0, 69, 70
2, 182396, Note_off_c, 0, 69, 100
2, 182400, Note_on_c, 0, 67, 70
2, 182588, Note_off_c, 0, 67, 100
2, 182592, Note_on_c, 0, 64, 70
2, 182780, Note_off_c, 0, 64, 100
2, 182784, Note_on_c, 0, 65, 70
2, 182972, Note_off_c, 0, 65, 100
2, 182976, Note_on_c, 0, 69, 70
2, 183164, Note_off_c, 0, 69, 100
2, 183168, Note_on_c, 0, 65, 70
2, 183356, Note_off_c, 0, 65, 100
2, 183360, Note_on_c, 0, 62, 70
2, 183548, Note_off_c, 0, 62, 100
2, 183552, Note_on_c, 0, 58, 70
2, 183740, Note_off_c, 0, 58, 100
2, 183744, Note_on_c, 0, 62, 70
2, 183932, Note_off_c, 0, 62, 100
2, 183936, Note_on_c, 0, 58, 70
2, 184124, Note_off_c, 0, 58, 100
2, 184128, Note_on_c, 0, 56, 70
2, 184316, Note_off_c, 0, 56, 100
2, 184320, Note_on_c, 0, 57, 70
2, 185084, Note_off_c, 0, 57, 100
2, 185088, Note_on_c, 0, 69, 70
2, 185088, Note_on_c, 0, 64, 70
2, 185088, Note_on_c, 0, 61, 70
2, 185852, Note_off_c, 0, 69, 100
2, 185852, Note_off_c, 0, 64, 100
2, 185852, Note_off_c, 0, 61, 100
2, 185856, Note_on_c, 0, 61, 70
2, 185856, Note_on_c, 0, 64, 70
2, 185856, Note_on_c, 0, 69, 70
2, 186620, Note_off_c, 0, 61, 100
2, 186620, Note_off_c, 0, 64, 100
2, 186620, Note_off_c, 0, 69, 100
2, 187008, Note_on_c, 0, 69, 100
2, 187100, Note_off_c, 0, 69, 100
2, 187104, Note_on_c, 0, 66, 100
2, 187196, Note_off_c, 0, 66, 100
2, 187200, Note_on_c, 0, 67, 100
2, 187292, Note_off_c, 0, 67, 100
2, 187296, Note_on_c, 0, 64, 100
2, 187388, Note_off_c, 0, 64, 100
2, 187392, Note_on_c, 0, 62, 100
2, 187772, Note_off_c, 0, 62, 100
2, 187776, Note_on_c, 0, 71, 100
2, 187776, Note_on_c, 0, 74, 100
2, 187964, Note_off_c, 0, 71, 100
2, 187964, Note_off_c, 0, 74, 100
2, 187968, Note_on_c, 0, 69, 100
2, 187968, Note_on_c, 0, 73, 100
2, 188156, Note_off_c, 0, 69, 100
2, 188156, Note_off_c, 0, 73, 100
2, 188160, Note_on_c, 0, 73, 100
2, 188160, Note_on_c, 0, 76, 100
2, 188348, Note_off_c, 0, 73, 100
2, 188348, Note_off_c, 0, 76, 100
2, 188352, Note_on_c, 0, 71, 100
2, 188352, Note_on_c, 0, 74, 100
2, 188540, Note_off_c, 0, 71, 100
2, 188540, Note_off_c, 0, 74, 100
2, 188544, Note_on_c, 0, 69, 100
2, 188544, Note_on_c, 0, 73, 100
2, 188732, Note_off_c, 0, 69, 100
2, 188732, Note_off_c, 0, 73, 100
2, 188736, Note_on_c, 0, 67, 100
2, 188736, Note_on_c, 0, 71, 100
2, 188924, Note_off_c, 0, 67, 100
2, 188924, Note_off_c, 0, 71, 100
2, 188928, Note_on_c, 0, 67, 100
2, 188928, Note_on_c, 0, 71, 100
2, 189308, Note_off_c, 0, 67, 100
2, 189308, Note_off_c, 0, 71, 100
2, 189312, Note_on_c, 0, 66, 100
2, 189312, Note_on_c, 0, 69, 100
2, 189692, Note_off_c, 0, 66, 100
2, 189692, Note_off_c, 0, 69, 100
2, 190080, Note_on_c, 0, 69, 100
2, 190172, Note_off_c, 0, 69, 100
2, 190176, Note_on_c, 0, 66, 100
2, 190268, Note_off_c, 0, 66, 100
2, 190272, Note_on_c, 0, 67, 100
2, 190364, Note_off_c, 0, 67, 100
2, 190368, Note_on_c, 0, 64, 100
2, 190460, Note_off_c, 0, 64, 100
2, 190464, Note_on_c, 0, 62, 100
2, 190844, Note_off_c, 0, 62, 100
2, 190848, Note_on_c, 0, 67, 100
2, 190848, Note_on_c, 0, 71, 100
2, 191036, Note_off_c, 0, 67, 100
2, 191036, Note_off_c, 0, 71, 100
2, 191040, Note_on_c, 0, 66, 100
2, 191040, Note_on_c, 0, 69, 100
2, 191228, Note_off_c, 0, 66, 100
2, 191228, Note_off_c, 0, 69, 100
2, 191232, Note_on_c, 0, 69, 100
2, 191232, Note_on_c, 0, 73, 100
2, 191420, Note_off_c, 0, 69, 100
2, 191420, Note_off_c, 0, 73, 100
2, 191424, Note_on_c, 0, 67, 100
2, 191424, Note_on_c, 0, 71, 100
2, 191612, Note_off_c, 0, 67, 100
2, 191612, Note_off_c, 0, 71, 100
2, 191616, Note_on_c, 0, 66, 100
2, 191616, Note_on_c, 0, 69, 100
2, 191804, Note_off_c, 0, 66, 100
2, 191804, Note_off_c, 0, 69, 100
2, 191808, Note_on_c, 0, 64, 100
2, 191808, Note_on_c, 0, 67, 100
2, 191996, Note_off_c, 0, 64, 100
2, 191996, Note_off_c, 0, 67, 100
2, 192000, Note_on_c, 0, 64, 100
2, 192000, Note_on_c, 0, 67, 100
2, 192380, Note_off_c, 0, 64, 100
2, 192380, Note_off_c, 0, 67, 100
2, 192384, Note_on_c, 0, 62, 100
2, 192384, Note_on_c, 0, 66, 100
2, 192764, Note_off_c, 0, 62, 100
2, 192764, Note_off_c, 0, 66, 100
2, 193152, Note_on_c, 0, 62, 100
2, 193436, Note_off_c, 0, 62, 100
2, 193440, Note_on_c, 0, 62, 70
2, 193488, Note_on_c, 0, 67, 70
2, 193532, Note_off_c, 0, 62, 100
2, 193536, Note_on_c, 0, 71, 70
2, 193580, Note_off_c, 0, 67, 100
2, 193584, Note_on_c, 0, 74, 70
2, 193628, Note_off_c, 0, 71, 100
2, 193724, Note_off_c, 0, 74, 100
2, 193728, Note_on_c, 0, 74, 70
2, 193916, Note_off_c, 0, 74, 100
2, 193920, Note_on_c, 0, 74, 70
2, 194108, Note_off_c, 0, 74, 100
2, 194112, Note_on_c, 0, 71, 70
2, 194300, Note_off_c, 0, 71, 100
2, 194304, Note_on_c, 0, 72, 70
2, 194492, Note_off_c, 0, 72, 100
2, 194496, Note_on_c, 0, 72, 70
2, 194684, Note_off_c, 0, 72, 100
2, 194688, Note_on_c, 0, 72, 70
2, 194876, Note_off_c, 0, 72, 100
2, 194880, Note_on_c, 0, 69, 70
2, 195068, Note_off_c, 0, 69, 100
2, 195072, Note_on_c, 0, 71, 70
2, 195260, Note_off_c, 0, 71, 100
2, 195264, Note_on_c, 0, 71, 70
2, 195452, Note_off_c, 0, 71, 100
2, 195456, Note_on_c, 0, 71, 70
2, 195644, Note_off_c, 0, 71, 100
2, 195648, Note_on_c, 0, 67, 70
2, 195836, Note_off_c, 0, 67, 100
2, 195840, Note_on_c, 0, 69, 70
2, 196028, Note_off_c, 0, 69, 100
2, 196032, Note_on_c, 0, 69, 70
2, 196220, Note_off_c, 0, 69, 100
2, 196224, Note_on_c, 0, 69, 70
2, 196412, Note_off_c, 0, 69, 100
2, 196416, Note_on_c, 0, 66, 70
2, 196604, Note_off_c, 0, 66, 100
2, 196608, Note_on_c, 0, 62, 70
2, 196608, Note_on_c, 0, 67, 70
2, 196796, Note_off_c, 0, 67, 100
2, 196800, Note_on_c, 0, 69, 70
2, 196988, Note_off_c, 0, 69, 100
2, 196992, Note_on_c, 0, 71, 70
2, 197180, Note_off_c, 0, 71, 100
2, 197184, Note_on_c, 0, 72, 70
2, 197372, Note_off_c, 0, 72, 100
2, 197376, Note_on_c, 0, 71, 70
2, 197564, Note_off_c, 0, 71, 100
2, 197568, Note_on_c, 0, 69, 70
2, 197756, Note_off_c, 0, 69, 100
2, 197760, Note_on_c, 0, 67, 70
2, 197948, Note_off_c, 0, 67, 100
2, 197952, Note_on_c, 0, 66, 70
2, 198140, Note_off_c, 0, 62, 100
2, 198140, Note_off_c, 0, 66, 100
2, 198144, Note_on_c, 0, 62, 70
2, 198144, Note_on_c, 0, 67, 70
2, 198332, Note_off_c, 0, 67, 100
2, 198336, Note_on_c, 0, 66, 70
2, 198524, Note_off_c, 0, 66, 100
2, 198528, Note_on_c, 0, 67, 70
2, 198716, Note_off_c, 0, 67, 100
2, 198720, Note_on_c, 0, 66, 70
2, 198908, Note_off_c, 0, 66, 100
2, 198912, Note_on_c, 0, 67, 70
2, 199100, Note_off_c, 0, 67, 100
2, 199104, Note_on_c, 0, 69, 70
2, 199292, Note_off_c, 0, 69, 100
2, 199296, Note_on_c, 0, 71, 70
2, 199484, Note_off_c, 0, 71, 100
2, 199488, Note_on_c, 0, 72, 70
2, 199676, Note_off_c, 0, 62, 100
2, 199676, Note_off_c, 0, 72, 100
2, 199680, Note_on_c, 0, 71, 100
2, 199776, Note_on_c, 0, 67, 100
2, 199868, Note_off_c, 0, 71, 100
2, 199872, Note_on_c, 0, 66, 100
2, 199964, Note_off_c, 0, 67, 100
2, 199968, Note_on_c, 0, 67, 100
2, 200060, Note_off_c, 0, 66, 100
2, 200064, Note_on_c, 0, 74, 100
2, 200156, Note_off_c, 0, 67, 100
2, 200160, Note_on_c, 0, 71, 100
2, 200252, Note_off_c, 0, 74, 100
2, 200256, Note_on_c, 0, 70, 100
2, 200348, Note_off_c, 0, 71, 100
2, 200352, Note_on_c, 0, 71, 100
2, 200444, Note_off_c, 0, 70, 100
2, 200448, Note_on_c, 0, 79, 100
2, 200540, Note_off_c, 0, 71, 100
2, 200544, Note_on_c, 0, 74, 100
2, 200636, Note_off_c, 0, 79, 100
2, 200640, Note_on_c, 0, 73, 100
2, 200732, Note_off_c, 0, 74, 100
2, 200736, Note_on_c, 0, 74, 100
2, 200828, Note_off_c, 0, 73, 100
2, 200832, Note_on_c, 0, 83, 100
2, 200924, Note_off_c, 0, 74, 100
2, 200928, Note_on_c, 0, 79, 100
2, 201020, Note_off_c, 0, 83, 100
2, 201024, Note_on_c, 0, 78, 100
2, 201116, Note_off_c, 0, 79, 100
2, 201120, Note_on_c, 0, 79, 100
2, 201212, Note_off_c, 0, 78, 100
2, 201216, Note_on_c, 0, 86, 100
2, 201308, Note_off_c, 0, 79, 100
2, 201312, Note_on_c, 0, 83, 100
2, 201404, Note_off_c, 0, 86, 100
2, 201408, Note_on_c, 0, 79, 100
2, 201500, Note_off_c, 0, 83, 100
2, 201504, Note_on_c, 0, 83, 100
2, 201596, Note_off_c, 0, 79, 100
2, 201600, Note_on_c, 0, 79, 100
2, 201692, Note_off_c, 0, 83, 100
2, 201696, Note_on_c, 0, 83, 100
2, 201788, Note_off_c, 0, 79, 100
2, 201792, Note_on_c, 0, 79, 100
2, 201884, Note_off_c, 0, 83, 100
2, 201888, Note_on_c, 0, 74, 100
2, 201980, Note_off_c, 0, 79, 100
2, 201984, Note_on_c, 0, 71, 100
2, 202076, Note_off_c, 0, 74, 100
2, 202080, Note_on_c, 0, 74, 100
2, 202172, Note_off_c, 0, 71, 100
2, 202176, Note_on_c, 0, 79, 100
2, 202268, Note_off_c, 0, 74, 100
2, 202272, Note_on_c, 0, 74, 100
2, 202364, Note_off_c, 0, 79, 100
2, 202368, Note_on_c, 0, 71, 100
2, 202460, Note_off_c, 0, 74, 100
2, 202464, Note_on_c, 0, 74, 100
2, 202556, Note_off_c, 0, 71, 100
2, 202560, Note_on_c, 0, 71, 100
2, 202652, Note_off_c, 0, 74, 100
2, 202656, Note_on_c, 0, 67, 100
2, 202748, Note_off_c, 0, 71, 100
2, 202748, Note_off_c, 0, 67, 100
2, 202752, Note_on_c, 0, 74, 100
2, 203516, Note_off_c, 0, 74, 100
2, 203712, Note_on_c, 0, 71, 100
2, 203900, Note_off_c, 0, 71, 100
2, 203904, Note_on_c, 0, 71, 100
2, 204092, Note_off_c, 0, 71, 100
2, 204096, Note_on_c, 0, 71, 100
2, 204284, Note_off_c, 0, 71, 100
2, 204288, Note_on_c, 0, 69, 100
2, 204384, Note_on_c, 0, 66, 100
2, 204476, Note_off_c, 0, 69, 100
2, 204480, Note_on_c, 0, 64, 100
2, 204572, Note_off_c, 0, 66, 100
2, 204576, Note_on_c, 0, 62, 100
2, 204668, Note_off_c, 0, 64, 100
2, 204672, Note_on_c, 0, 74, 100
2, 204764, Note_off_c, 0, 62, 100
2, 204768, Note_on_c, 0, 69, 100
2, 204860, Note_off_c, 0, 74, 100
2, 204864, Note_on_c, 0, 68, 100
2, 204956, Note_off_c, 0, 69, 100
2, 204960, Note_on_c, 0, 69, 100
2, 205052, Note_off_c, 0, 68, 100
2, 205056, Note_on_c, 0, 78, 100
2, 205148, Note_off_c, 0, 69, 100
2, 205152, Note_on_c, 0, 74, 100
2, 205244, Note_off_c, 0, 78, 100
2, 205248, Note_on_c, 0, 73, 100
2, 205340, Note_off_c, 0, 74, 100
2, 205344, Note_on_c, 0, 74, 100
2, 205436, Note_off_c, 0, 73, 100
2, 205440, Note_on_c, 0, 81, 100
2, 205532, Note_off_c, 0, 74, 100
2, 205536, Note_on_c, 0, 78, 100
2, 205628, Note_off_c, 0, 81, 100
2, 205632, Note_on_c, 0, 77, 100
2, 205724, Note_off_c, 0, 78, 100
2, 205728, Note_on_c, 0, 78, 100
2, 205820, Note_off_c, 0, 77, 100
2, 205824, Note_on_c, 0, 86, 100
2, 205916, Note_off_c, 0, 78, 100
2, 205920, Note_on_c, 0, 81, 100
2, 206012, Note_off_c, 0, 86, 100
2, 206016, Note_on_c, 0, 78, 100
2, 206108, Note_off_c, 0, 81, 100
2, 206112, Note_on_c, 0, 81, 100
2, 206204, Note_off_c, 0, 78, 100
2, 206208, Note_on_c, 0, 74, 100
2, 206300, Note_off_c, 0, 81, 100
2, 206304, Note_on_c, 0, 78, 100
2, 206396, Note_off_c, 0, 74, 100
2, 206400, Note_on_c, 0, 74, 100
2, 206492, Note_off_c, 0, 78, 100
2, 206496, Note_on_c, 0, 69, 100
2, 206588, Note_off_c, 0, 74, 100
2, 206592, Note_on_c, 0, 66, 100
2, 206684, Note_off_c, 0, 69, 100
2, 206688, Note_on_c, 0, 69, 100
2, 206780, Note_off_c, 0, 66, 100
2, 206784, Note_on_c, 0, 74, 100
2, 206876, Note_off_c, 0, 69, 100
2, 206880, Note_on_c, 0, 69, 100
2, 206972, Note_off_c, 0, 74, 100
2, 206976, Note_on_c, 0, 66, 100
2, 207068, Note_off_c, 0, 69, 100
2, 207072, Note_on_c, 0, 69, 100
2, 207164, Note_off_c, 0, 66, 100
2, 207168, Note_on_c, 0, 66, 100
2, 207260, Note_off_c, 0, 69, 100
2, 207264, Note_on_c, 0, 62, 100
2, 207356, Note_off_c, 0, 66, 100
2, 207356, Note_off_c, 0, 62, 100
2, 207360, Note_on_c, 0, 69, 100
2, 208124, Note_off_c, 0, 69, 100
2, 208320, Note_on_c, 0, 81, 100
2, 208508, Note_off_c, 0, 81, 100
2, 208512, Note_on_c, 0, 81, 100
2, 208700, Note_off_c, 0, 81, 100
2, 208704, Note_on_c, 0, 81, 100
2, 208892, Note_off_c, 0, 81, 100
2, 208896, Note_on_c, 0, 79, 100
2, 208992, Note_on_c, 0, 81, 100
2, 209084, Note_off_c, 0, 79, 100
2, 209088, Note_on_c, 0, 76, 100
2, 209180, Note_off_c, 0, 81, 100
2, 209184, Note_on_c, 0, 81, 100
2, 209276, Note_off_c, 0, 76, 100
2, 209280, Note_on_c, 0, 73, 100
2, 209372, Note_off_c, 0, 81, 100
2, 209376, Note_on_c, 0, 81, 100
2, 209468, Note_off_c, 0, 73, 100
2, 209472, Note_on_c, 0, 69, 100
2, 209564, Note_off_c, 0, 81, 100
2, 209568, Note_on_c, 0, 81, 100
2, 209660, Note_off_c, 0, 69, 100
2, 209664, Note_on_c, 0, 67, 100
2, 209756, Note_off_c, 0, 81, 100
2, 209760, Note_on_c, 0, 81, 100
2, 209852, Note_off_c, 0, 67, 100
2, 209856, Note_on_c, 0, 69, 100
2, 209948, Note_off_c, 0, 81, 100
2, 209952, Note_on_c, 0, 81, 100
2, 210044, Note_off_c, 0, 69, 100
2, 210048, Note_on_c, 0, 67, 100
2, 210140, Note_off_c, 0, 81, 100
2, 210144, Note_on_c, 0, 81, 100
2, 210236, Note_off_c, 0, 67, 100
2, 210240, Note_on_c, 0, 69, 100
2, 210332, Note_off_c, 0, 81, 100
2, 210336, Note_on_c, 0, 81, 100
2, 210428, Note_off_c, 0, 69, 100
2, 210428, Note_off_c, 0, 81, 100
2, 210432, Note_on_c, 0, 66, 100
2, 210528, Note_on_c, 0, 81, 100
2, 210620, Note_off_c, 0, 66, 100
2, 210624, Note_on_c, 0, 69, 100
2, 210716, Note_off_c, 0, 81, 100
2, 210720, Note_on_c, 0, 81, 100
2, 210812, Note_off_c, 0, 69, 100
2, 210816, Note_on_c, 0, 74, 100
2, 210908, Note_off_c, 0, 81, 100
2, 210912, Note_on_c, 0, 81, 100
2, 211004, Note_off_c, 0, 74, 100
2, 211008, Note_on_c, 0, 78, 100
2, 211100, Note_off_c, 0, 81, 100
2, 211104, Note_on_c, 0, 81, 100
2, 211196, Note_off_c, 0, 78, 100
2, 211200, Note_on_c, 0, 74, 100
2, 211292, Note_off_c, 0, 81, 100
2, 211296, Note_on_c, 0, 81, 100
2, 211388, Note_off_c, 0, 74, 100
2, 211392, Note_on_c, 0, 69, 100
2, 211484, Note_off_c, 0, 81, 100
2, 211488, Note_on_c, 0, 81, 100
2, 211580, Note_off_c, 0, 69, 100
2, 211584, Note_on_c, 0, 66, 100
2, 211676, Note_off_c, 0, 81, 100
2, 211680, Note_on_c, 0, 81, 100
2, 211772, Note_off_c, 0, 66, 100
2, 211776, Note_on_c, 0, 69, 100
2, 211868, Note_off_c, 0, 81, 100
2, 211872, Note_on_c, 0, 81, 100
2, 211964, Note_off_c, 0, 69, 100
2, 211964, Note_off_c, 0, 81, 100
2, 211968, Note_on_c, 0, 79, 100
2, 212064, Note_on_c, 0, 81, 100
2, 212156, Note_off_c, 0, 79, 100
2, 212160, Note_on_c, 0, 76, 100
2, 212252, Note_off_c, 0, 81, 100
2, 212256, Note_on_c, 0, 81, 100
2, 212348, Note_off_c, 0, 76, 100
2, 212352, Note_on_c, 0, 73, 100
2, 212444, Note_off_c, 0, 81, 100
2, 212448, Note_on_c, 0, 81, 100
2, 212540, Note_off_c, 0, 73, 100
2, 212544, Note_on_c, 0, 69, 100
2, 212636, Note_off_c, 0, 81, 100
2, 212640, Note_on_c, 0, 81, 100
2, 212732, Note_off_c, 0, 69, 100
2, 212736, Note_on_c, 0, 67, 100
2, 212828, Note_off_c, 0, 81, 100
2, 212832, Note_on_c, 0, 81, 100
2, 212924, Note_off_c, 0, 67, 100
2, 212928, Note_on_c, 0, 69, 100
2, 213020, Note_off_c, 0, 81, 100
2, 213024, Note_on_c, 0, 81, 100
2, 213116, Note_off_c, 0, 69, 100
2, 213120, Note_on_c, 0, 67, 100
2, 213212, Note_off_c, 0, 81, 100
2, 213216, Note_on_c, 0, 81, 100
2, 213308, Note_off_c, 0, 67, 100
2, 213312, Note_on_c, 0, 69, 100
2, 213404, Note_off_c, 0, 81, 100
2, 213408, Note_on_c, 0, 81, 100
2, 213500, Note_off_c, 0, 69, 100
2, 213500, Note_off_c, 0, 81, 100
2, 213504, Note_on_c, 0, 66, 100
2, 213600, Note_on_c, 0, 81, 100
2, 213692, Note_off_c, 0, 66, 100
2, 213696, Note_on_c, 0, 69, 100
2, 213788, Note_off_c, 0, 81, 100
2, 213792, Note_on_c, 0, 81, 100
2, 213884, Note_off_c, 0, 69, 100
2, 213888, Note_on_c, 0, 74, 100
2, 213980, Note_off_c, 0, 81, 100
2, 213984, Note_on_c, 0, 81, 100
2, 214076, Note_off_c, 0, 74, 100
2, 214080, Note_on_c, 0, 78, 100
2, 214172, Note_off_c, 0, 81, 100
2, 214176, Note_on_c, 0, 81, 100
2, 214268, Note_off_c, 0, 78, 100
2, 214272, Note_on_c, 0, 74, 100
2, 214364, Note_off_c, 0, 81, 100
2, 214368, Note_on_c, 0, 81, 100
2, 214460, Note_off_c, 0, 74, 100
2, 214464, Note_on_c, 0, 69, 100
2, 214556, Note_off_c, 0, 81, 100
2, 214560, Note_on_c, 0, 81, 100
2, 214652, Note_off_c, 0, 69, 100
2, 214656, Note_on_c, 0, 66, 100
2, 214748, Note_off_c, 0, 81, 100
2, 214752, Note_on_c, 0, 81, 100
2, 214844, Note_off_c, 0, 66, 100
2, 214848, Note_on_c, 0, 69, 100
2, 214940, Note_off_c, 0, 81, 100
2, 214944, Note_on_c, 0, 81, 100
2, 215036, Note_off_c, 0, 69, 100
2, 215036, Note_off_c, 0, 81, 100
2, 215040, Note_on_c, 0, 83, 100
2, 215136, Note_on_c, 0, 71, 100
2, 215228, Note_off_c, 0, 83, 100
2, 215232, Note_on_c, 0, 83, 100
2, 215324, Note_off_c, 0, 71, 100
2, 215328, Note_on_c, 0, 81, 100
2, 215420, Note_off_c, 0, 83, 100
2, 215424, Note_on_c, 0, 79, 100
2, 215516, Note_off_c, 0, 81, 100
2, 215520, Note_on_c, 0, 67, 100
2, 215612, Note_off_c, 0, 79, 100
2, 215616, Note_on_c, 0, 79, 100
2, 215708, Note_off_c, 0, 67, 100
2, 215712, Note_on_c, 0, 78, 100
2, 215804, Note_off_c, 0, 79, 100
2, 215808, Note_on_c, 0, 76, 100
2, 215900, Note_off_c, 0, 78, 100
2, 215904, Note_on_c, 0, 64, 100
2, 215996, Note_off_c, 0, 76, 100
2, 216000, Note_on_c, 0, 76, 100
2, 216092, Note_off_c, 0, 64, 100
2, 216096, Note_on_c, 0, 74, 100
2, 216188, Note_off_c, 0, 76, 100
2, 216192, Note_on_c, 0, 73, 100
2, 216284, Note_off_c, 0, 74, 100
2, 216288, Note_on_c, 0, 76, 100
2, 216380, Note_off_c, 0, 73, 100
2, 216384, Note_on_c, 0, 79, 100
2, 216476, Note_off_c, 0, 76, 100
2, 216480, Note_on_c, 0, 83, 100
2, 216572, Note_off_c, 0, 79, 100
2, 216572, Note_off_c, 0, 83, 100
2, 216576, Note_on_c, 0, 81, 100
2, 216672, Note_on_c, 0, 69, 100
2, 216764, Note_off_c, 0, 81, 100
2, 216768, Note_on_c, 0, 81, 100
2, 216860, Note_off_c, 0, 69, 100
2, 216864, Note_on_c, 0, 79, 100
2, 216956, Note_off_c, 0, 81, 100
2, 216960, Note_on_c, 0, 78, 100
2, 217052, Note_off_c, 0, 79, 100
2, 217056, Note_on_c, 0, 66, 100
2, 217148, Note_off_c, 0, 78, 100
2, 217152, Note_on_c, 0, 78, 100
2, 217244, Note_off_c, 0, 66, 100
2, 217248, Note_on_c, 0, 76, 100
2, 217340, Note_off_c, 0, 78, 100
2, 217344, Note_on_c, 0, 74, 100
2, 217436, Note_off_c, 0, 76, 100
2, 217440, Note_on_c, 0, 62, 100
2, 217532, Note_off_c, 0, 74, 100
2, 217536, Note_on_c, 0, 74, 100
2, 217628, Note_off_c, 0, 62, 100
2, 217632, Note_on_c, 0, 73, 100
2, 217724, Note_off_c, 0, 74, 100
2, 217728, Note_on_c, 0, 71, 100
2, 217820, Note_off_c, 0, 73, 100
2, 217824, Note_on_c, 0, 74, 100
2, 217916, Note_off_c, 0, 71, 100
2, 217920, Note_on_c, 0, 78, 100
2, 218012, Note_off_c, 0, 74, 100
2, 218016, Note_on_c, 0, 81, 100
2, 218108, Note_off_c, 0, 78, 100
2, 218108, Note_off_c, 0, 81, 100
2, 218112, Note_on_c, 0, 79, 100
2, 218208, Note_on_c, 0, 67, 100
2, 218300, Note_off_c, 0, 79, 100
2, 218304, Note_on_c, 0, 79, 100
2, 218396, Note_off_c, 0, 67, 100
2, 218400, Note_on_c, 0, 78, 100
2, 218492, Note_off_c, 0, 79, 100
2, 218496, Note_on_c, 0, 76, 100
2, 218588, Note_off_c, 0, 78, 100
2, 218592, Note_on_c, 0, 64, 100
2, 218684, Note_off_c, 0, 76, 100
2, 218688, Note_on_c, 0, 76, 100
2, 218780, Note_off_c, 0, 64, 100
2, 218784, Note_on_c, 0, 74, 100
2, 218876, Note_off_c, 0, 76, 100
2, 218880, Note_on_c, 0, 73, 100
2, 218972, Note_off_c, 0, 74, 100
2, 218976, Note_on_c, 0, 61, 100
2, 219068, Note_off_c, 0, 73, 100
2, 219072, Note_on_c, 0, 73, 100
2, 219164, Note_off_c, 0, 61, 100
2, 219168, Note_on_c, 0, 71, 100
2, 219260, Note_off_c, 0, 73, 100
2, 219264, Note_on_c, 0, 69, 100
2, 219356, Note_off_c, 0, 71, 100
2, 219360, Note_on_c, 0, 73, 100
2, 219452, Note_off_c, 0, 69, 100
2, 219456, Note_on_c, 0, 76, 100
2, 219548, Note_off_c, 0, 73, 100
2, 219552, Note_on_c, 0, 79, 100
2, 219644, Note_off_c, 0, 76, 100
2, 219644, Note_off_c, 0, 79, 100
2, 219648, Note_on_c, 0, 78, 100
2, 219744, Note_on_c, 0, 74, 100
2, 219836, Note_off_c, 0, 78, 100
2, 219840, Note_on_c, 0, 86, 100
2, 219932, Note_off_c, 0, 74, 100
2, 219936, Note_on_c, 0, 81, 100
2, 220028, Note_off_c, 0, 86, 100
2, 220032, Note_on_c, 0, 83, 100
2, 220124, Note_off_c, 0, 81, 100
2, 220128, Note_on_c, 0, 79, 100
2, 220220, Note_off_c, 0, 83, 100
2, 220224, Note_on_c, 0, 78, 100
2, 220316, Note_off_c, 0, 79, 100
2, 220320, Note_on_c, 0, 76, 100
2, 220412, Note_off_c, 0, 78, 100
2, 220416, Note_on_c, 0, 78, 100
2, 220508, Note_off_c, 0, 76, 100
2, 220512, Note_on_c, 0, 81, 100
2, 220604, Note_off_c, 0, 78, 100
2, 220608, Note_on_c, 0, 74, 100
2, 220700, Note_off_c, 0, 81, 100
2, 220704, Note_on_c, 0, 78, 100
2, 220796, Note_off_c, 0, 74, 100
2, 220800, Note_on_c, 0, 76, 100
2, 220892, Note_off_c, 0, 78, 100
2, 220896, Note_on_c, 0, 79, 100
2, 220988, Note_off_c, 0, 76, 100
2, 220992, Note_on_c, 0, 73, 100
2, 221084, Note_off_c, 0, 79, 100
2, 221088, Note_on_c, 0, 76, 100
2, 221180, Note_off_c, 0, 73, 100
2, 221180, Note_off_c, 0, 76, 100
2, 221184, Note_on_c, 0, 66, 100
2, 221184, Note_on_c, 0, 74, 100
2, 221564, Note_off_c, 0, 66, 100
2, 221564, Note_off_c, 0, 74, 100
2, 221568, Note_on_c, 0, 62, 100
2, 221948, Note_off_c, 0, 62, 100
2, 222144, Note_on_c, 0, 74, 100
2, 222332, Note_off_c, 0, 74, 100
2, 222336, Note_on_c, 0, 76, 100
2, 222524, Note_off_c, 0, 76, 100
2, 222528, Note_on_c, 0, 78, 100
2, 222716, Note_off_c, 0, 78, 100
2, 222720, Note_on_c, 0, 79, 100
2, 222812, Note_off_c, 0, 79, 100
2, 222816, Note_on_c, 0, 81, 100
2, 222908, Note_off_c, 0, 81, 100
2, 222912, Note_on_c, 0, 79, 100
2, 223004, Note_off_c, 0, 79, 100
2, 223008, Note_on_c, 0, 78, 100
2, 223100, Note_off_c, 0, 78, 100
2, 223104, Note_on_c, 0, 76, 100
2, 223484, Note_off_c, 0, 76, 100
2, 223680, Note_on_c, 0, 64, 100
2, 223868, Note_off_c, 0, 64, 100
2, 223872, Note_on_c, 0, 66, 100
2, 224060, Note_off_c, 0, 66, 100
2, 224064, Note_on_c, 0, 67, 100
2, 224252, Note_off_c, 0, 67, 100
2, 224256, Note_on_c, 0, 69, 100
2, 224348, Note_off_c, 0, 69, 100
2, 224352, Note_on_c, 0, 71, 100
2, 224444, Note_off_c, 0, 71, 100
2, 224448, Note_on_c, 0, 69, 100
2, 224540, Note_off_c, 0, 69, 100
2, 224544, Note_on_c, 0, 67, 100
2, 224636, Note_off_c, 0, 67, 100
2, 224640, Note_on_c, 0, 66, 100
2, 225020, Note_off_c, 0, 66, 100
2, 225216, Note_on_c, 0, 74, 100
2, 225404, Note_off_c, 0, 74, 100
2, 225408, Note_on_c, 0, 76, 100
2, 225596, Note_off_c, 0, 76, 100
2, 225600, Note_on_c, 0, 78, 100
2, 225788, Note_off_c, 0, 78, 100
2, 225792, Note_on_c, 0, 76, 100
2, 225792, Note_on_c, 0, 79, 100
2, 226364, Note_off_c, 0, 76, 100
2, 226364, Note_off_c, 0, 79, 100
2, 226368, Note_on_c, 0, 79, 100
2, 226368, Note_on_c, 0, 83, 100
2, 226556, Note_off_c, 0, 79, 100
2, 226556, Note_off_c, 0, 83, 100
2, 226560, Note_on_c, 0, 78, 100
2, 226560, Note_on_c, 0, 81, 100
2, 226748, Note_off_c, 0, 78, 100
2, 226748, Note_off_c, 0, 81, 100
2, 226752, Note_on_c, 0, 76, 100
2, 226752, Note_on_c, 0, 79, 100
2, 226940, Note_off_c, 0, 76, 100
2, 226940, Note_off_c, 0, 79, 100
2, 226944, Note_on_c, 0, 74, 100
2, 226944, Note_on_c, 0, 78, 100
2, 227132, Note_off_c, 0, 74, 100
2, 227132, Note_off_c, 0, 78, 100
2, 227136, Note_on_c, 0, 73, 100
2, 227136, Note_on_c, 0, 76, 100
2, 227324, Note_off_c, 0, 73, 100
2, 227324, Note_off_c, 0, 76, 100
2, 227328, Note_on_c, 0, 74, 100
2, 227708, Note_off_c, 0, 74, 100
2, 227712, Note_on_c, 0, 69, 70
2, 227804, Note_off_c, 0, 69, 100
2, 227808, Note_on_c, 0, 65, 70
2, 227900, Note_off_c, 0, 65, 100
2, 227904, Note_on_c, 0, 67, 70
2, 227996, Note_off_c, 0, 67, 100
2, 228000, Note_on_c, 0, 64, 70
2, 228092, Note_off_c, 0, 64, 100
2, 228096, Note_on_c, 0, 62, 70
2, 228284, Note_off_c, 0, 62, 100
2, 228288, Note_on_c, 0, 62, 70
2, 228476, Note_off_c, 0, 62, 100
2, 228480, Note_on_c, 0, 62, 70
2, 228668, Note_off_c, 0, 62, 100
2, 228672, Note_on_c, 0, 62, 70
2, 228860, Note_off_c, 0, 62, 100
2, 228864, Note_on_c, 0, 62, 70
2, 229244, Note_off_c, 0, 62, 100
2, 229248, Note_on_c, 0, 61, 70
2, 229436, Note_off_c, 0, 61, 100
2, 229440, Note_on_c, 0, 62, 70
2, 229628, Note_off_c, 0, 62, 100
2, 229632, Note_on_c, 0, 61, 70
2, 229632, Note_on_c, 0, 64, 70
2, 229820, Note_off_c, 0, 61, 100
2, 229820, Note_off_c, 0, 64, 100
2, 229824, Note_on_c, 0, 62, 70
2, 229824, Note_on_c, 0, 65, 70
2, 230012, Note_off_c, 0, 62, 100
2, 230012, Note_off_c, 0, 65, 100
2, 230016, Note_on_c, 0, 64, 70
2, 230016, Note_on_c, 0, 67, 70
2, 230204, Note_off_c, 0, 64, 100
2, 230204, Note_off_c, 0, 67, 100
2, 230208, Note_on_c, 0, 64, 70
2, 230208, Note_on_c, 0, 67, 70
2, 230396, Note_off_c, 0, 64, 100
2, 230396, Note_off_c, 0, 67, 100
2, 230400, Note_on_c, 0, 64, 70
2, 230400, Note_on_c, 0, 67, 70
2, 230780, Note_off_c, 0, 64, 100
2, 230780, Note_off_c, 0, 67, 100
2, 230784, Note_on_c, 0, 62, 70
2, 230784, Note_on_c, 0, 65, 70
2, 230848, Note_on_c, 0, 67, 70
2, 230908, Note_off_c, 0, 65, 100
2, 230912, Note_on_c, 0, 65, 70
2, 230972, Note_off_c, 0, 67, 100
2, 230976, Note_on_c, 0, 64, 70
2, 231036, Note_off_c, 0, 65, 100
2, 231068, Note_off_c, 0, 64, 100
2, 231072, Note_on_c, 0, 65, 70
2, 231164, Note_off_c, 0, 62, 100
2, 231164, Note_off_c, 0, 65, 100
2, 231168, Note_on_c, 0, 67, 70
2, 231356, Note_off_c, 0, 67, 100
2, 231360, Note_on_c, 0, 65, 70
2, 231548, Note_off_c, 0, 65, 100
2, 231552, Note_on_c, 0, 64, 70
2, 231740, Note_off_c, 0, 64, 100
2, 231744, Note_on_c, 0, 62, 70
2, 231932, Note_off_c, 0, 62, 100
2, 231936, Note_on_c, 0, 57, 70
2, 231936, Note_on_c, 0, 61, 70
2, 232124, Note_off_c, 0, 57, 100
2, 232124, Note_off_c, 0, 61, 100
2, 232128, Note_on_c, 0, 59, 70
2, 232128, Note_on_c, 0, 62, 70
2, 232316, Note_off_c, 0, 59, 100
2, 232316, Note_off_c, 0, 62, 100
2, 232320, Note_on_c, 0, 61, 70
2, 232320, Note_on_c, 0, 64, 70
2, 232508, Note_off_c, 0, 61, 100
2, 232508, Note_off_c, 0, 64, 100
2, 232512, Note_on_c, 0, 62, 70
2, 232512, Note_on_c, 0, 65, 70
2, 232700, Note_off_c, 0, 62, 100
2, 232700, Note_off_c, 0, 65, 100
2, 232704, Note_on_c, 0, 64, 70
2, 232704, Note_on_c, 0, 67, 70
2, 232892, Note_off_c, 0, 64, 100
2, 232892, Note_off_c, 0, 67, 100
2, 232896, Note_on_c, 0, 62, 70
2, 232896, Note_on_c, 0, 65, 70
2, 233084, Note_off_c, 0, 62, 100
2, 233084, Note_off_c, 0, 65, 100
2, 233088, Note_on_c, 0, 61, 70
2, 233088, Note_on_c, 0, 64, 70
2, 233276, Note_off_c, 0, 61, 100
2, 233276, Note_off_c, 0, 64, 100
2, 233280, Note_on_c, 0, 59, 70
2, 233280, Note_on_c, 0, 62, 70
2, 233468, Note_off_c, 0, 59, 100
2, 233468, Note_off_c, 0, 62, 100
2, 233472, Note_on_c, 0, 57, 70
2, 233472, Note_on_c, 0, 61, 70
2, 234236, Note_off_c, 0, 57, 100
2, 234236, Note_off_c, 0, 61, 100
2, 235008, Note_on_c, 0, 61, 100
2, 235008, Note_on_c, 0, 64, 100
2, 235008, Note_on_c, 0, 69, 100
2, 235772, Note_off_c, 0, 61, 100
2, 235772, Note_off_c, 0, 64, 100
2, 235772, Note_off_c, 0, 69, 100
2, 235776, Note_on_c, 0, 71, 100
2, 235776, Note_on_c, 0, 64, 100
2, 236540, Note_off_c, 0, 71, 100
2, 236540, Note_off_c, 0, 64, 100
2, 236544, Note_on_c, 0, 64, 100
2, 236544, Note_on_c, 0, 69, 100
2, 236544, Note_on_c, 0, 73, 100
2, 237692, Note_off_c, 0, 64, 100
2, 237692, Note_off_c, 0, 69, 100
2, 237692, Note_off_c, 0, 73, 100
2, 238080, Note_on_c, 0, 74, 60
2, 238176, Note_on_c, 0, 69, 60
2, 238268, Note_off_c, 0, 74, 100
2, 238272, Note_on_c, 0, 68, 60
2, 238364, Note_off_c, 0, 69, 100
2, 238368, Note_on_c, 0, 69, 60
2, 238460, Note_off_c, 0, 68, 100
2, 238464, Note_on_c, 0, 74, 60
2, 238556, Note_off_c, 0, 69, 100
2, 238560, Note_on_c, 0, 69, 60
2, 238652, Note_off_c, 0, 74, 100
2, 238656, Note_on_c, 0, 76, 60
2, 238748, Note_off_c, 0, 69, 100
2, 238752, Note_on_c, 0, 69, 60
2, 238844, Note_off_c, 0, 76, 100
2, 238848, Note_on_c, 0, 74, 60
2, 238848, Note_on_c, 0, 78, 60
2, 238940, Note_off_c, 0, 69, 100
2, 238944, Note_on_c, 0, 69, 60
2, 239036, Note_off_c, 0, 74, 100
2, 239036, Note_off_c, 0, 78, 100
2, 239040, Note_on_c, 0, 68, 60
2, 239132, Note_off_c, 0, 69, 100
2, 239136, Note_on_c, 0, 69, 60
2, 239228, Note_off_c, 0, 68, 100
2, 239232, Note_on_c, 0, 78, 60
2, 239232, Note_on_c, 0, 74, 60
2, 239324, Note_off_c, 0, 69, 100
2, 239328, Note_on_c, 0, 69, 60
2, 239420, Note_off_c, 0, 78, 100
2, 239420, Note_off_c, 0, 74, 100
2, 239424, Note_on_c, 0, 79, 60
2, 239424, Note_on_c, 0, 76, 60
2, 239516, Note_off_c, 0, 69, 100
2, 239520, Note_on_c, 0, 69, 60
2, 239612, Note_off_c, 0, 79, 100
2, 239612, Note_off_c, 0, 76, 100
2, 239612, Note_off_c, 0, 69, 100
2, 239616, Note_on_c, 0, 81, 60
2, 239616, Note_on_c, 0, 78, 60
2, 239712, Note_on_c, 0, 69, 60
2, 239804, Note_off_c, 0, 81, 100
2, 239804, Note_off_c, 0, 78, 100
2, 239808, Note_on_c, 0, 81, 60
2, 239808, Note_on_c, 0, 78, 60
2, 239900, Note_off_c, 0, 69, 100
2, 239904, Note_on_c, 0, 69, 60
2, 239996, Note_off_c, 0, 81, 100
2, 239996, Note_off_c, 0, 78, 100
2, 240000, Note_on_c, 0, 78, 60
2, 240000, Note_on_c, 0, 74, 60
2, 240092, Note_off_c, 0, 69, 100
2, 240096, Note_on_c, 0, 69, 60
2, 240188, Note_off_c, 0, 78, 100
2, 240188, Note_off_c, 0, 74, 100
2, 240192, Note_on_c, 0, 78, 60
2, 240192, Note_on_c, 0, 74, 60
2, 240284, Note_off_c, 0, 69, 100
2, 240288, Note_on_c, 0, 69, 60
2, 240380, Note_off_c, 0, 78, 100
2, 240380, Note_off_c, 0, 74, 100
2, 240384, Note_on_c, 0, 79, 60
2, 240384, Note_on_c, 0, 76, 60
2, 240476, Note_off_c, 0, 69, 100
2, 240480, Note_on_c, 0, 69, 60
2, 240572, Note_off_c, 0, 79, 100
2, 240572, Note_off_c, 0, 76, 100
2, 240576, Note_on_c, 0, 79, 60
2, 240576, Note_on_c, 0, 76, 60
2, 240668, Note_off_c, 0, 69, 100
2, 240672, Note_on_c, 0, 69, 60
2, 240764, Note_off_c, 0, 79, 100
2, 240764, Note_off_c, 0, 76, 100
2, 240768, Note_on_c, 0, 76, 60
2, 240768, Note_on_c, 0, 73, 60
2, 240860, Note_off_c, 0, 69, 100
2, 240864, Note_on_c, 0, 69, 60
2, 240956, Note_off_c, 0, 76, 100
2, 240956, Note_off_c, 0, 73, 100
2, 240960, Note_on_c, 0, 76, 60
2, 240960, Note_on_c, 0, 73, 60
2, 241052, Note_off_c, 0, 69, 100
2, 241056, Note_on_c, 0, 69, 60
2, 241148, Note_off_c, 0, 76, 100
2, 241148, Note_off_c, 0, 73, 100
2, 241148, Note_off_c, 0, 69, 100
2, 241152, Note_on_c, 0, 74, 60
2, 241248, Note_on_c, 0, 69, 60
2, 241340, Note_off_c, 0, 74, 100
2, 241344, Note_on_c, 0, 68, 60
2, 241436, Note_off_c, 0, 69, 100
2, 241440, Note_on_c, 0, 69, 60
2, 241532, Note_off_c, 0, 68, 100
2, 241536, Note_on_c, 0, 74, 60
2, 241628, Note_off_c, 0, 69, 100
2, 241632, Note_on_c, 0, 69, 60
2, 241724, Note_off_c, 0, 74, 100
2, 241728, Note_on_c, 0, 76, 60
2, 241820, Note_off_c, 0, 69, 100
2, 241824, Note_on_c, 0, 69, 60
2, 241916, Note_off_c, 0, 76, 100
2, 241920, Note_on_c, 0, 74, 60
2, 241920, Note_on_c, 0, 78, 60
2, 242012, Note_off_c, 0, 69, 100
2, 242016, Note_on_c, 0, 69, 60
2, 242108, Note_off_c, 0, 74, 100
2, 242108, Note_off_c, 0, 78, 100
2, 242112, Note_on_c, 0, 68, 60
2, 242204, Note_off_c, 0, 69, 100
2, 242208, Note_on_c, 0, 69, 60
2, 242300, Note_off_c, 0, 68, 100
2, 242304, Note_on_c, 0, 78, 60
2, 242304, Note_on_c, 0, 74, 60
2, 242396, Note_off_c, 0, 69, 100
2, 242400, Note_on_c, 0, 69, 60
2, 242492, Note_off_c, 0, 78, 100
2, 242492, Note_off_c, 0, 74, 100
2, 242496, Note_on_c, 0, 79, 60
2, 242496, Note_on_c, 0, 76, 60
2, 242588, Note_off_c, 0, 69, 100
2, 242592, Note_on_c, 0, 69, 60
2, 242684, Note_off_c, 0, 79, 100
2, 242684, Note_off_c, 0, 76, 100
2, 242684, Note_off_c, 0, 69, 100
2, 242688, Note_on_c, 0, 81, 60
2, 242688, Note_on_c, 0, 78, 60
2, 242784, Note_on_c, 0, 69, 60
2, 242876, Note_off_c, 0, 81, 100
2, 242876, Note_off_c, 0, 78, 100
2, 242880, Note_on_c, 0, 81, 60
2, 242880, Note_on_c, 0, 78, 60
2, 242972, Note_off_c, 0, 69, 100
2, 242976, Note_on_c, 0, 69, 60
2, 243068, Note_off_c, 0, 81, 100
2, 243068, Note_off_c, 0, 78, 100
2, 243072, Note_on_c, 0, 78, 60
2, 243072, Note_on_c, 0, 74, 60
2, 243164, Note_off_c, 0, 69, 100
2, 243168, Note_on_c, 0, 69, 60
2, 243260, Note_off_c, 0, 78, 100
2, 243260, Note_off_c, 0, 74, 100
2, 243264, Note_on_c, 0, 78, 60
2, 243264, Note_on_c, 0, 74, 60
2, 243356, Note_off_c, 0, 69, 100
2, 243360, Note_on_c, 0, 69, 60
2, 243452, Note_off_c, 0, 78, 100
2, 243452, Note_off_c, 0, 74, 100
2, 243456, Note_on_c, 0, 79, 60
2, 243456, Note_on_c, 0, 76, 60
2, 243548, Note_off_c, 0, 69, 100
2, 243552, Note_on_c, 0, 69, 60
2, 243644, Note_off_c, 0, 79, 100
2, 243644, Note_off_c, 0, 76, 100
2, 243648, Note_on_c, 0, 79, 60
2, 243648, Note_on_c, 0, 76, 60
2, 243740, Note_off_c, 0, 69, 100
2, 243744, Note_on_c, 0, 69, 60
2, 243836, Note_off_c, 0, 79, 100
2, 243836, Note_off_c, 0, 76, 100
2, 243840, Note_on_c, 0, 76, 70
2, 243840, Note_on_c, 0, 73, 70
2, 243932, Note_off_c, 0, 69, 100
2, 243936, Note_on_c, 0, 69, 80
2, 244028, Note_off_c, 0, 76, 100
2, 244028, Note_off_c, 0, 73, 100
2, 244032, Note_on_c, 0, 76, 90
2, 244032, Note_on_c, 0, 73, 90
2, 244124, Note_off_c, 0, 69, 100
2, 244128, Note_on_c, 0, 69, 100
2, 244220, Note_off_c, 0, 76, 100
2, 244220, Note_off_c, 0, 73, 100
2, 244220, Note_off_c, 0, 69, 100
2, 244224, Note_on_c, 0, 81, 120
2, 244224, Note_on_c, 0, 78, 120
2, 244320, Note_on_c, 0, 69, 120
2, 244412, Note_off_c, 0, 81, 100
2, 244412, Note_off_c, 0, 78, 100
2, 244416, Note_on_c, 0, 81, 120
2, 244416, Note_on_c, 0, 78, 120
2, 244508, Note_off_c, 0, 69, 100
2, 244512, Note_on_c, 0, 69, 120
2, 244604, Note_off_c, 0, 81, 100
2, 244604, Note_off_c, 0, 78, 100
2, 244608, Note_on_c, 0, 78, 120
2, 244608, Note_on_c, 0, 74, 120
2, 244700, Note_off_c, 0, 69, 100
2, 244704, Note_on_c, 0, 69, 120
2, 244796, Note_off_c, 0, 78, 100
2, 244796, Note_off_c, 0, 74, 100
2, 244800, Note_on_c, 0, 78, 120
2, 244800, Note_on_c, 0, 74, 120
2, 244892, Note_off_c, 0, 69, 100
2, 244896, Note_on_c, 0, 69, 120
2, 244988, Note_off_c, 0, 78, 100
2, 244988, Note_off_c, 0, 74, 100
2, 244992, Note_on_c, 0, 79, 120
2, 244992, Note_on_c, 0, 76, 120
2, 245084, Note_off_c, 0, 69, 100
2, 245088, Note_on_c, 0, 69, 120
2, 245180, Note_off_c, 0, 79, 100
2, 245180, Note_off_c, 0, 76, 100
2, 245184, Note_on_c, 0, 79, 120
2, 245184, Note_on_c, 0, 76, 120
2, 245276, Note_off_c, 0, 69, 100
2, 245280, Note_on_c, 0, 69, 120
2, 245372, Note_off_c, 0, 79, 100
2, 245372, Note_off_c, 0, 76, 100
2, 245376, Note_on_c, 0, 76, 120
2, 245376, Note_on_c, 0, 73, 120
2, 245468, Note_off_c, 0, 69, 100
2, 245472, Note_on_c, 0, 69, 120
2, 245564, Note_off_c, 0, 76, 100
2, 245564, Note_off_c, 0, 73, 100
2, 245568, Note_on_c, 0, 76, 120
2, 245568, Note_on_c, 0, 73, 120
2, 245660, Note_off_c, 0, 69, 100
2, 245664, Note_on_c, 0, 69, 120
2, 245756, Note_off_c, 0, 76, 100
2, 245756, Note_off_c, 0, 73, 100
2, 245756, Note_off_c, 0, 69, 100
2, 245760, Note_on_c, 0, 69, 120
2, 245760, Note_on_c, 0, 74, 120
2, 245760, Note_on_c, 0, 78, 120
2, 246140, Note_off_c, 0, 69, 100
2, 246140, Note_off_c, 0, 74, 100
2, 246140, Note_off_c, 0, 78, 100
2, 246144, Note_on_c, 0, 76, 120
2, 246144, Note_on_c, 0, 79, 120
2, 246144, Note_on_c, 0, 81, 120
2, 246144, Note_on_c, 0, 85, 120
2, 246524, Note_off_c, 0, 76, 100
2, 246524, Note_off_c, 0, 79, 100
2, 246524, Note_off_c, 0, 81, 100
2, 246524, Note_off_c, 0, 85, 100
2, 246528, Note_on_c, 0, 74, 120
2, 246528, Note_on_c, 0, 78, 120
2, 246528, Note_on_c, 0, 81, 120
2, 246528, Note_on_c, 0, 86, 120
2, 247292, Note_off_c, 0, 74, 100
2, 247292, Note_off_c, 0, 78, 100
2, 247292, Note_off_c, 0, 81, 100
2, 247292, Note_off_c, 0, 86, 100
2, 248448, Control_c, 0, 11, 0
2, 248640, Note_on_c, 0, 62, 1
2, 248732, Note_off_c, 0, 62, 100
2, 248732, End_track
3, 0, Start_track
3, 0, Title_t, "Piano Left"
3, 0, Control_c, 1, 0, 0
3, 0, Program_c, 1, 0
3, 0, Control_c, 1, 7, 100
3, 0, Control_c, 1, 10, 54
3, 0, Control_c, 1, 91, 127
3, 0, Key_signature, 2, "major"
3, 1536, Note_on_c, 1, 38, 100
3, 1916, Note_off_c, 1, 38, 100
3, 3456, Note_on_c, 1, 50, 100
3, 3836, Note_off_c, 1, 50, 100
3, 3840, Note_on_c, 1, 52, 100
3, 4220, Note_off_c, 1, 52, 100
3, 4224, Note_on_c, 1, 54, 100
3, 4604, Note_off_c, 1, 54, 100
3, 4992, Note_on_c, 1, 55, 100
3, 4992, Note_on_c, 1, 59, 100
3, 5756, Note_off_c, 1, 55, 100
3, 5760, Note_on_c, 1, 56, 100
3, 6140, Note_off_c, 1, 59, 100
3, 6140, Note_off_c, 1, 56, 100
3, 6144, Note_on_c, 1, 57, 100
3, 6908, Note_off_c, 1, 57, 100
3, 6912, Note_on_c, 1, 45, 100
3, 7292, Note_off_c, 1, 45, 100
3, 7680, Note_on_c, 1, 38, 100
3, 8060, Note_off_c, 1, 38, 100
3, 9216, Note_on_c, 1, 50, 72
3, 9596, Note_off_c, 1, 50, 100
3, 9600, Note_on_c, 1, 50, 100
3, 9980, Note_off_c, 1, 50, 100
3, 9984, Note_on_c, 1, 52, 100
3, 10364, Note_off_c, 1, 52, 100
3, 10368, Note_on_c, 1, 54, 100
3, 10748, Note_off_c, 1, 54, 100
3, 10752, Note_on_c, 1, 55, 100
3, 11132, Note_off_c, 1, 55, 100
3, 11136, Note_on_c, 1, 55, 100
3, 11516, Note_off_c, 1, 55, 100
3, 11520, Note_on_c, 1, 57, 100
3, 11900, Note_off_c, 1, 57, 100
3, 11904, Note_on_c, 1, 45, 100
3, 12284, Note_off_c, 1, 45, 100
3, 12288, Note_on_c, 1, 50, 100
3, 12380, Note_off_c, 1, 50, 100
3, 12384, Note_on_c, 1, 57, 100
3, 12476, Note_off_c, 1, 57, 100
3, 12480, Note_on_c, 1, 54, 100
3, 12572, Note_off_c, 1, 54, 100
3, 12576, Note_on_c, 1, 57, 100
3, 12668, Note_off_c, 1, 57, 100
3, 12672, Note_on_c, 1, 62, 100
3, 12764, Note_off_c, 1, 62, 100
3, 12768, Note_on_c, 1, 57, 100
3, 12860, Note_off_c, 1, 57, 100
3, 12864, Note_on_c, 1, 54, 100
3, 12956, Note_off_c, 1, 54, 100
3, 12960, Note_on_c, 1, 57, 100
3, 13052, Note_off_c, 1, 57, 100
3, 13056, Note_on_c, 1, 50, 100
3, 13148, Note_off_c, 1, 50, 100
3, 13152, Note_on_c, 1, 57, 100
3, 13244, Note_off_c, 1, 57, 100
3, 13248, Note_on_c, 1, 54, 100
3, 13340, Note_off_c, 1, 54, 100
3, 13344, Note_on_c, 1, 57, 100
3, 13436, Note_off_c, 1, 57, 100
3, 13440, Note_on_c, 1, 62, 100
3, 13532, Note_off_c, 1, 62, 100
3, 13536, Note_on_c, 1, 57, 100
3, 13628, Note_off_c, 1, 57, 100
3, 13632, Note_on_c, 1, 54, 100
3, 13724, Note_off_c, 1, 54, 100
3, 13728, Note_on_c, 1, 57, 100
3, 13820, Note_off_c, 1, 57, 100
3, 13824, Note_on_c, 1, 52, 100
3, 13916, Note_off_c, 1, 52, 100
3, 13920, Note_on_c, 1, 57, 100
3, 14012, Note_off_c, 1, 57, 100
3, 14016, Note_on_c, 1, 55, 100
3, 14108, Note_off_c, 1, 55, 100
3, 14112, Note_on_c, 1, 57, 100
3, 14204, Note_off_c, 1, 57, 100
3, 14208, Note_on_c, 1, 61, 100
3, 14300, Note_off_c, 1, 61, 100
3, 14304, Note_on_c, 1, 57, 100
3, 14396, Note_off_c, 1, 57, 100
3, 14400, Note_on_c, 1, 55, 100
3, 14492, Note_off_c, 1, 55, 100
3, 14496, Note_on_c, 1, 57, 100
3, 14588, Note_off_c, 1, 57, 100
3, 14592, Note_on_c, 1, 52, 100
3, 14684, Note_off_c, 1, 52, 100
3, 14688, Note_on_c, 1, 57, 100
3, 14780, Note_off_c, 1, 57, 100
3, 14784, Note_on_c, 1, 55, 100
3, 14876, Note_off_c, 1, 55, 100
3, 14880, Note_on_c, 1, 57, 100
3, 14972, Note_off_c, 1, 57, 100
3, 14976, Note_on_c, 1, 61, 100
3, 15068, Note_off_c, 1, 61, 100
3, 15072, Note_on_c, 1, 57, 100
3, 15164, Note_off_c, 1, 57, 100
3, 15168, Note_on_c, 1, 55, 100
3, 15260, Note_off_c, 1, 55, 100
3, 15264, Note_on_c, 1, 57, 100
3, 15356, Note_off_c, 1, 57, 100
3, 15360, Note_on_c, 1, 50, 100
3, 15452, Note_off_c, 1, 50, 100
3, 15456, Note_on_c, 1, 57, 100
3, 15548, Note_off_c, 1, 57, 100
3, 15552, Note_on_c, 1, 54, 100
3, 15644, Note_off_c, 1, 54, 100
3, 15648, Note_on_c, 1, 57, 100
3, 15740, Note_off_c, 1, 57, 100
3, 15744, Note_on_c, 1, 62, 100
3, 15836, Note_off_c, 1, 62, 100
3, 15840, Note_on_c, 1, 57, 100
3, 15932, Note_off_c, 1, 57, 100
3, 15936, Note_on_c, 1, 54, 100
3, 16028, Note_off_c, 1, 54, 100
3, 16032, Note_on_c, 1, 57, 100
3, 16124, Note_off_c, 1, 57, 100
3, 16128, Note_on_c, 1, 50, 100
3, 16220, Note_off_c, 1, 50, 100
3, 16224, Note_on_c, 1, 57, 100
3, 16316, Note_off_c, 1, 57, 100
3, 16320, Note_on_c, 1, 54, 100
3, 16412, Note_off_c, 1, 54, 100
3, 16416, Note_on_c, 1, 57, 100
3, 16508, Note_off_c, 1, 57, 100
3, 16512, Note_on_c, 1, 62, 100
3, 16604, Note_off_c, 1, 62, 100
3, 16608, Note_on_c, 1, 57, 100
3, 16700, Note_off_c, 1, 57, 100
3, 16704, Note_on_c, 1, 54, 100
3, 16796, Note_off_c, 1, 54, 100
3, 16800, Note_on_c, 1, 57, 100
3, 16892, Note_off_c, 1, 57, 100
3, 16896, Note_on_c, 1, 52, 100
3, 16988, Note_off_c, 1, 52, 100
3, 16992, Note_on_c, 1, 57, 100
3, 17084, Note_off_c, 1, 57, 100
3, 17088, Note_on_c, 1, 55, 100
3, 17180, Note_off_c, 1, 55, 100
3, 17184, Note_on_c, 1, 57, 100
3, 17276, Note_off_c, 1, 57, 100
3, 17280, Note_on_c, 1, 61, 100
3, 17372, Note_off_c, 1, 61, 100
3, 17376, Note_on_c, 1, 57, 100
3, 17468, Note_off_c, 1, 57, 100
3, 17472, Note_on_c, 1, 55, 100
3, 17564, Note_off_c, 1, 55, 100
3, 17568, Note_on_c, 1, 57, 100
3, 17660, Note_off_c, 1, 57, 100
3, 17664, Note_on_c, 1, 52, 100
3, 17756, Note_off_c, 1, 52, 100
3, 17760, Note_on_c, 1, 57, 100
3, 17852, Note_off_c, 1, 57, 100
3, 17856, Note_on_c, 1, 55, 100
3, 17948, Note_off_c, 1, 55, 100
3, 17952, Note_on_c, 1, 57, 100
3, 18044, Note_off_c, 1, 57, 100
3, 18048, Note_on_c, 1, 61, 100
3, 18140, Note_off_c, 1, 61, 100
3, 18144, Note_on_c, 1, 57, 100
3, 18236, Note_off_c, 1, 57, 100
3, 18240, Note_on_c, 1, 55, 100
3, 18332, Note_off_c, 1, 55, 100
3, 18336, Note_on_c, 1, 57, 100
3, 18428, Note_off_c, 1, 57, 100
3, 18432, Note_on_c, 1, 50, 100
3, 18432, Note_on_c, 1, 38, 100
3, 19580, Note_off_c, 1, 50, 100
3, 19580, Note_off_c, 1, 38, 100
3, 19584, Note_on_c, 1, 49, 100
3, 19584, Note_on_c, 1, 37, 100
3, 19964, Note_off_c, 1, 49, 100
3, 19964, Note_off_c, 1, 37, 100
3, 19968, Note_on_c, 1, 47, 100
3, 19968, Note_on_c, 1, 35, 100
3, 21116, Note_off_c, 1, 47, 100
3, 21116, Note_off_c, 1, 35, 100
3, 21120, Note_on_c, 1, 45, 100
3, 21120, Note_on_c, 1, 33, 100
3, 21500, Note_off_c, 1, 45, 100
3, 21500, Note_off_c, 1, 33, 100
3, 21504, Note_on_c, 1, 43, 100
3, 21504, Note_on_c, 1, 31, 100
3, 22652, Note_off_c, 1, 43, 100
3, 22652, Note_off_c, 1, 31, 100
3, 22656, Note_on_c, 1, 44, 100
3, 22656, Note_on_c, 1, 32, 100
3, 23036, Note_off_c, 1, 44, 100
3, 23036, Note_off_c, 1, 32, 100
3, 23040, Note_on_c, 1, 49, 100
3, 23132, Note_off_c, 1, 49, 100
3, 23136, Note_on_c, 1, 57, 100
3, 23228, Note_off_c, 1, 57, 100
3, 23232, Note_on_c, 1, 56, 100
3, 23324, Note_off_c, 1, 56, 100
3, 23328, Note_on_c, 1, 57, 100
3, 23420, Note_off_c, 1, 57, 100
3, 23424, Note_on_c, 1, 52, 100
3, 23516, Note_off_c, 1, 52, 100
3, 23520, Note_on_c, 1, 57, 100
3, 23612, Note_off_c, 1, 57, 100
3, 23616, Note_on_c, 1, 50, 100
3, 23708, Note_off_c, 1, 50, 100
3, 23712, Note_on_c, 1, 57, 100
3, 23804, Note_off_c, 1, 57, 100
3, 23808, Note_on_c, 1, 49, 100
3, 23900, Note_off_c, 1, 49, 100
3, 23904, Note_on_c, 1, 57, 100
3, 23996, Note_off_c, 1, 57, 100
3, 24000, Note_on_c, 1, 56, 100
3, 24092, Note_off_c, 1, 56, 100
3, 24096, Note_on_c, 1, 57, 100
3, 24188, Note_off_c, 1, 57, 100
3, 24192, Note_on_c, 1, 49, 100
3, 24284, Note_off_c, 1, 49, 100
3, 24288, Note_on_c, 1, 57, 100
3, 24380, Note_off_c, 1, 57, 100
3, 24384, Note_on_c, 1, 47, 100
3, 24476, Note_off_c, 1, 47, 100
3, 24480, Note_on_c, 1, 57, 100
3, 24572, Note_off_c, 1, 57, 100
3, 24576, Note_on_c, 1, 45, 100
3, 24956, Note_off_c, 1, 45, 100
3, 24960, Note_on_c, 1, 49, 100
3, 25244, Note_off_c, 1, 49, 100
3, 25248, Note_on_c, 1, 52, 100
3, 25340, Note_off_c, 1, 52, 100
3, 25344, Note_on_c, 1, 45, 100
3, 25724, Note_off_c, 1, 45, 100
3, 27552, Note_on_c, 1, 52, 70
3, 27600, Note_on_c, 1, 57, 70
3, 27644, Note_off_c, 1, 52, 100
3, 27648, Note_on_c, 1, 61, 70
3, 27692, Note_off_c, 1, 57, 100
3, 27696, Note_on_c, 1, 64, 70
3, 27740, Note_off_c, 1, 61, 100
3, 27836, Note_off_c, 1, 64, 100
3, 27840, Note_on_c, 1, 64, 70
3, 28028, Note_off_c, 1, 64, 100
3, 28032, Note_on_c, 1, 64, 70
3, 28220, Note_off_c, 1, 64, 100
3, 28224, Note_on_c, 1, 61, 70
3, 28412, Note_off_c, 1, 61, 100
3, 28416, Note_on_c, 1, 62, 70
3, 28604, Note_off_c, 1, 62, 100
3, 28608, Note_on_c, 1, 62, 70
3, 28796, Note_off_c, 1, 62, 100
3, 28800, Note_on_c, 1, 62, 70
3, 28988, Note_off_c, 1, 62, 100
3, 28992, Note_on_c, 1, 59, 70
3, 29180, Note_off_c, 1, 59, 100
3, 29184, Note_on_c, 1, 61, 70
3, 29372, Note_off_c, 1, 61, 100
3, 29376, Note_on_c, 1, 59, 70
3, 29564, Note_off_c, 1, 59, 100
3, 29568, Note_on_c, 1, 57, 70
3, 29756, Note_off_c, 1, 57, 100
3, 29760, Note_on_c, 1, 56, 70
3, 29948, Note_off_c, 1, 56, 100
3, 29952, Note_on_c, 1, 57, 70
3, 30140, Note_off_c, 1, 57, 100
3, 30144, Note_on_c, 1, 59, 70
3, 30332, Note_off_c, 1, 59, 100
3, 30336, Note_on_c, 1, 61, 70
3, 30524, Note_off_c, 1, 61, 100
3, 30528, Note_on_c, 1, 62, 70
3, 30716, Note_off_c, 1, 62, 100
3, 30720, Note_on_c, 1, 60, 70
3, 30908, Note_off_c, 1, 60, 100
3, 30912, Note_on_c, 1, 59, 70
3, 31100, Note_off_c, 1, 59, 100
3, 31104, Note_on_c, 1, 57, 70
3, 31292, Note_off_c, 1, 57, 100
3, 31296, Note_on_c, 1, 56, 70
3, 31484, Note_off_c, 1, 56, 100
3, 31488, Note_on_c, 1, 57, 70
3, 31676, Note_off_c, 1, 57, 100
3, 31680, Note_on_c, 1, 59, 70
3, 31868, Note_off_c, 1, 59, 100
3, 31872, Note_on_c, 1, 60, 70
3, 32060, Note_off_c, 1, 60, 100
3, 32064, Note_on_c, 1, 62, 70
3, 32252, Note_off_c, 1, 62, 100
3, 32256, Note_on_c, 1, 57, 70
3, 33020, Note_off_c, 1, 57, 100
3, 33024, Note_on_c, 1, 53, 70
3, 33788, Note_off_c, 1, 53, 100
3, 33792, Note_on_c, 1, 52, 70
3, 34556, Note_off_c, 1, 52, 100
3, 34560, Note_on_c, 1, 49, 70
3, 35324, Note_off_c, 1, 49, 100
3, 35328, Note_on_c, 1, 50, 100
3, 36092, Note_off_c, 1, 50, 100
3, 36096, Note_on_c, 1, 50, 100
3, 36860, Note_off_c, 1, 50, 100
3, 36864, Note_on_c, 1, 38, 100
3, 38396, Note_off_c, 1, 38, 100
3, 39936, Note_on_c, 1, 42, 100
3, 40028, Note_off_c, 1, 42, 100
3, 40032, Note_on_c, 1, 38, 100
3, 40124, Note_off_c, 1, 38, 100
3, 40128, Note_on_c, 1, 37, 100
3, 40220, Note_off_c, 1, 37, 100
3, 40224, Note_on_c, 1, 38, 100
3, 40316, Note_off_c, 1, 38, 100
3, 40320, Note_on_c, 1, 42, 100
3, 40412, Note_off_c, 1, 42, 100
3, 40416, Note_on_c, 1, 38, 100
3, 40508, Note_off_c, 1, 38, 100
3, 40512, Note_on_c, 1, 45, 100
3, 40604, Note_off_c, 1, 45, 100
3, 40608, Note_on_c, 1, 42, 100
3, 40700, Note_off_c, 1, 42, 100
3, 40704, Note_on_c, 1, 50, 100
3, 41468, Note_off_c, 1, 50, 100
3, 41472, Note_on_c, 1, 49, 100
3, 43004, Note_off_c, 1, 49, 100
3, 43008, Note_on_c, 1, 37, 100
3, 43772, Note_off_c, 1, 37, 100
3, 46080, Note_on_c, 1, 37, 100
3, 46172, Note_off_c, 1, 37, 100
3, 46176, Note_on_c, 1, 33, 100
3, 46268, Note_off_c, 1, 33, 100
3, 46272, Note_on_c, 1, 32, 100
3, 46364, Note_off_c, 1, 32, 100
3, 46368, Note_on_c, 1, 33, 100
3, 46460, Note_off_c, 1, 33, 100
3, 46464, Note_on_c, 1, 37, 100
3, 46556, Note_off_c, 1, 37, 100
3, 46560, Note_on_c, 1, 33, 100
3, 46652, Note_off_c, 1, 33, 100
3, 46656, Note_on_c, 1, 40, 100
3, 46748, Note_off_c, 1, 40, 100
3, 46752, Note_on_c, 1, 37, 100
3, 46844, Note_off_c, 1, 37, 100
3, 46848, Note_on_c, 1, 45, 100
3, 47228, Note_off_c, 1, 45, 100
3, 47616, Note_on_c, 1, 52, 100
3, 47996, Note_off_c, 1, 52, 100
3, 48000, Note_on_c, 1, 56, 100
3, 48188, Note_off_c, 1, 56, 100
3, 48192, Note_on_c, 1, 59, 100
3, 48380, Note_off_c, 1, 59, 100
3, 48384, Note_on_c, 1, 62, 100
3, 48572, Note_off_c, 1, 62, 100
3, 48576, Note_on_c, 1, 59, 100
3, 48764, Note_off_c, 1, 59, 100
3, 48768, Note_on_c, 1, 56, 100
3, 48956, Note_off_c, 1, 56, 100
3, 48960, Note_on_c, 1, 52, 100
3, 49148, Note_off_c, 1, 52, 100
3, 49152, Note_on_c, 1, 57, 100
3, 49244, Note_off_c, 1, 57, 100
3, 49248, Note_on_c, 1, 57, 100
3, 49344, Note_on_c, 1, 61, 100
3, 49436, Note_off_c, 1, 57, 100
3, 49440, Note_on_c, 1, 57, 100
3, 49532, Note_off_c, 1, 61, 100
3, 49536, Note_on_c, 1, 52, 100
3, 49628, Note_off_c, 1, 57, 100
3, 49632, Note_on_c, 1, 57, 100
3, 49724, Note_off_c, 1, 52, 100
3, 49728, Note_on_c, 1, 52, 100
3, 49820, Note_off_c, 1, 57, 100
3, 49824, Note_on_c, 1, 49, 100
3, 49916, Note_off_c, 1, 52, 100
3, 49920, Note_on_c, 1, 45, 100
3, 50012, Note_off_c, 1, 49, 100
3, 50684, Note_off_c, 1, 45, 100
3, 50688, Note_on_c, 1, 52, 100
3, 51068, Note_off_c, 1, 52, 100
3, 51072, Note_on_c, 1, 56, 100
3, 51260, Note_off_c, 1, 56, 100
3, 51264, Note_on_c, 1, 59, 100
3, 51452, Note_off_c, 1, 59, 100
3, 51456, Note_on_c, 1, 62, 100
3, 51644, Note_off_c, 1, 62, 100
3, 51648, Note_on_c, 1, 59, 100
3, 51836, Note_off_c, 1, 59, 100
3, 51840, Note_on_c, 1, 56, 100
3, 52028, Note_off_c, 1, 56, 100
3, 52032, Note_on_c, 1, 52, 100
3, 52220, Note_off_c, 1, 52, 100
3, 52224, Note_on_c, 1, 57, 100
3, 52316, Note_off_c, 1, 57, 100
3, 52320, Note_on_c, 1, 57, 100
3, 52416, Note_on_c, 1, 61, 100
3, 52508, Note_off_c, 1, 57, 100
3, 52512, Note_on_c, 1, 57, 100
3, 52604, Note_off_c, 1, 61, 100
3, 52608, Note_on_c, 1, 52, 100
3, 52700, Note_off_c, 1, 57, 100
3, 52704, Note_on_c, 1, 57, 100
3, 52796, Note_off_c, 1, 52, 100
3, 52800, Note_on_c, 1, 52, 100
3, 52892, Note_off_c, 1, 57, 100
3, 52896, Note_on_c, 1, 49, 100
3, 52988, Note_off_c, 1, 52, 100
3, 52992, Note_on_c, 1, 45, 100
3, 53084, Note_off_c, 1, 49, 100
3, 53756, Note_off_c, 1, 45, 100
3, 53760, Note_on_c, 1, 42, 100
3, 53760, Note_on_c, 1, 50, 100
3, 53948, Note_off_c, 1, 42, 100
3, 53948, Note_off_c, 1, 50, 100
3, 53952, Note_on_c, 1, 42, 100
3, 53952, Note_on_c, 1, 50, 100
3, 54140, Note_off_c, 1, 42, 100
3, 54140, Note_off_c, 1, 50, 100
3, 54144, Note_on_c, 1, 42, 100
3, 54144, Note_on_c, 1, 50, 100
3, 54332, Note_off_c, 1, 42, 100
3, 54332, Note_off_c, 1, 50, 100
3, 54336, Note_on_c, 1, 42, 100
3, 54336, Note_on_c, 1, 50, 100
3, 54524, Note_off_c, 1, 42, 100
3, 54524, Note_off_c, 1, 50, 100
3, 54528, Note_on_c, 1, 42, 100
3, 54528, Note_on_c, 1, 50, 100
3, 54716, Note_off_c, 1, 42, 100
3, 54716, Note_off_c, 1, 50, 100
3, 54720, Note_on_c, 1, 42, 100
3, 54720, Note_on_c, 1, 50, 100
3, 54908, Note_off_c, 1, 42, 100
3, 54908, Note_off_c, 1, 50, 100
3, 54912, Note_on_c, 1, 42, 100
3, 54912, Note_on_c, 1, 50, 100
3, 55100, Note_off_c, 1, 42, 100
3, 55100, Note_off_c, 1, 50, 100
3, 55104, Note_on_c, 1, 42, 100
3, 55104, Note_on_c, 1, 50, 100
3, 55292, Note_off_c, 1, 42, 100
3, 55292, Note_off_c, 1, 50, 100
3, 55296, Note_on_c, 1, 52, 100
3, 56060, Note_off_c, 1, 52, 100
3, 56064, Note_on_c, 1, 52, 100
3, 56828, Note_off_c, 1, 52, 100
3, 56832, Note_on_c, 1, 57, 100
3, 57596, Note_off_c, 1, 57, 100
3, 57600, Note_on_c, 1, 64, 100
3, 57600, Note_on_c, 1, 60, 100
3, 58364, Note_off_c, 1, 64, 100
3, 58364, Note_off_c, 1, 60, 100
3, 58368, Note_on_c, 1, 62, 100
3, 58368, Note_on_c, 1, 59, 100
3, 59132, Note_off_c, 1, 62, 100
3, 59132, Note_off_c, 1, 59, 100
3, 59136, Note_on_c, 1, 52, 100
3, 59900, Note_off_c, 1, 52, 100
3, 59904, Note_on_c, 1, 57, 100
3, 60668, Note_off_c, 1, 57, 100
3, 60672, Note_on_c, 1, 53, 100
3, 61436, Note_off_c, 1, 53, 100
3, 61440, Note_on_c, 1, 52, 70
3, 61820, Note_off_c, 1, 52, 100
3, 62976, Note_on_c, 1, 52, 70
3, 62976, Note_on_c, 1, 56, 70
3, 63164, Note_off_c, 1, 52, 100
3, 63164, Note_off_c, 1, 56, 100
3, 63168, Note_on_c, 1, 54, 70
3, 63168, Note_on_c, 1, 57, 70
3, 63356, Note_off_c, 1, 54, 100
3, 63356, Note_off_c, 1, 57, 100
3, 63360, Note_on_c, 1, 56, 70
3, 63360, Note_on_c, 1, 59, 70
3, 63548, Note_off_c, 1, 56, 100
3, 63548, Note_off_c, 1, 59, 100
3, 63552, Note_on_c, 1, 57, 70
3, 63552, Note_on_c, 1, 60, 70
3, 63740, Note_off_c, 1, 57, 100
3, 63740, Note_off_c, 1, 60, 100
3, 63744, Note_on_c, 1, 59, 70
3, 63744, Note_on_c, 1, 62, 70
3, 63932, Note_off_c, 1, 59, 100
3, 63932, Note_off_c, 1, 62, 100
3, 63936, Note_on_c, 1, 57, 70
3, 63936, Note_on_c, 1, 60, 70
3, 64124, Note_off_c, 1, 57, 100
3, 64124, Note_off_c, 1, 60, 100
3, 64128, Note_on_c, 1, 56, 70
3, 64128, Note_on_c, 1, 59, 70
3, 64316, Note_off_c, 1, 56, 100
3, 64316, Note_off_c, 1, 59, 100
3, 64320, Note_on_c, 1, 54, 70
3, 64320, Note_on_c, 1, 57, 70
3, 64508, Note_off_c, 1, 54, 100
3, 64508, Note_off_c, 1, 57, 100
3, 64512, Note_on_c, 1, 40, 120
3, 64512, Note_on_c, 1, 52, 120
3, 65276, Note_off_c, 1, 40, 100
3, 65276, Note_off_c, 1, 52, 100
3, 65280, Note_on_c, 1, 39, 120
3, 65280, Note_on_c, 1, 51, 120
3, 66044, Note_off_c, 1, 39, 100
3, 66044, Note_off_c, 1, 51, 100
3, 66048, Note_on_c, 1, 38, 120
3, 66048, Note_on_c, 1, 50, 120
3, 67196, Note_off_c, 1, 38, 100
3, 67196, Note_off_c, 1, 50, 100
3, 67584, Note_on_c, 1, 45, 60
3, 67964, Note_off_c, 1, 45, 100
3, 69120, Note_on_c, 1, 45, 60
3, 69500, Note_off_c, 1, 45, 100
3, 69504, Note_on_c, 1, 49, 60
3, 69884, Note_off_c, 1, 49, 100
3, 69888, Note_on_c, 1, 52, 60
3, 70268, Note_off_c, 1, 52, 100
3, 70272, Note_on_c, 1, 40, 60
3, 70652, Note_off_c, 1, 40, 100
3, 70656, Note_on_c, 1, 45, 60
3, 71036, Note_off_c, 1, 45, 100
3, 72192, Note_on_c, 1, 45, 60
3, 72572, Note_off_c, 1, 45, 100
3, 72576, Note_on_c, 1, 49, 60
3, 72956, Note_off_c, 1, 49, 100
3, 72960, Note_on_c, 1, 52, 60
3, 73340, Note_off_c, 1, 52, 100
3, 73344, Note_on_c, 1, 40, 60
3, 73724, Note_off_c, 1, 40, 100
3, 73728, Note_on_c, 1, 45, 120
3, 74108, Note_off_c, 1, 45, 100
3, 74112, Note_on_c, 1, 49, 120
3, 74492, Note_off_c, 1, 49, 100
3, 74496, Note_on_c, 1, 52, 120
3, 74876, Note_off_c, 1, 52, 100
3, 74880, Note_on_c, 1, 40, 120
3, 75260, Note_off_c, 1, 40, 100
3, 75264, Note_on_c, 1, 45, 120
3, 75644, Note_off_c, 1, 45, 100
3, 75648, Note_on_c, 1, 52, 120
3, 76028, Note_off_c, 1, 52, 100
3, 76032, Note_on_c, 1, 45, 120
3, 76412, Note_off_c, 1, 45, 100
3, 76800, Note_on_c, 1, 38, 100
3, 77180, Note_off_c, 1, 38, 100
3, 78720, Note_on_c, 1, 50, 100
3, 79100, Note_off_c, 1, 50, 100
3, 79104, Note_on_c, 1, 52, 100
3, 79484, Note_off_c, 1, 52, 100
3, 79488, Note_on_c, 1, 54, 100
3, 79868, Note_off_c, 1, 54, 100
3, 80256, Note_on_c, 1, 55, 100
3, 80256, Note_on_c, 1, 59, 100
3, 81020, Note_off_c, 1, 55, 100
3, 81024, Note_on_c, 1, 56, 100
3, 81404, Note_off_c, 1, 59, 100
3, 81404, Note_off_c, 1, 56, 100
3, 81408, Note_on_c, 1, 57, 100
3, 82172, Note_off_c, 1, 57, 100
3, 82176, Note_on_c, 1, 45, 100
3, 82556, Note_off_c, 1, 45, 100
3, 82944, Note_on_c, 1, 38, 100
3, 83324, Note_off_c, 1, 38, 100
3, 84480, Note_on_c, 1, 50, 72
3, 84860, Note_off_c, 1, 50, 100
3, 84864, Note_on_c, 1, 50, 100
3, 85244, Note_off_c, 1, 50, 100
3, 85248, Note_on_c, 1, 52, 100
3, 85628, Note_off_c, 1, 52, 100
3, 85632, Note_on_c, 1, 54, 100
3, 86012, Note_off_c, 1, 54, 100
3, 86016, Note_on_c, 1, 55, 100
3, 86396, Note_off_c, 1, 55, 100
3, 86400, Note_on_c, 1, 55, 100
3, 86780, Note_off_c, 1, 55, 100
3, 86784, Note_on_c, 1, 57, 100
3, 87164, Note_off_c, 1, 57, 100
3, 87168, Note_on_c, 1, 45, 100
3, 87548, Note_off_c, 1, 45, 100
3, 87552, Note_on_c, 1, 50, 100
3, 87644, Note_off_c, 1, 50, 100
3, 87648, Note_on_c, 1, 57, 100
3, 87740, Note_off_c, 1, 57, 100
3, 87744, Note_on_c, 1, 54, 100
3, 87836, Note_off_c, 1, 54, 100
3, 87840, Note_on_c, 1, 57, 100
3, 87932, Note_off_c, 1, 57, 100
3, 87936, Note_on_c, 1, 62, 100
3, 88028, Note_off_c, 1, 62, 100
3, 88032, Note_on_c, 1, 57, 100
3, 88124, Note_off_c, 1, 57, 100
3, 88128, Note_on_c, 1, 54, 100
3, 88220, Note_off_c, 1, 54, 100
3, 88224, Note_on_c, 1, 57, 100
3, 88316, Note_off_c, 1, 57, 100
3, 88320, Note_on_c, 1, 50, 100
3, 88412, Note_off_c, 1, 50, 100
3, 88416, Note_on_c, 1, 57, 100
3, 88508, Note_off_c, 1, 57, 100
3, 88512, Note_on_c, 1, 54, 100
3, 88604, Note_off_c, 1, 54, 100
3, 88608, Note_on_c, 1, 57, 100
3, 88700, Note_off_c, 1, 57, 100
3, 88704, Note_on_c, 1, 62, 100
3, 88796, Note_off_c, 1, 62, 100
3, 88800, Note_on_c, 1, 57, 100
3, 88892, Note_off_c, 1, 57, 100
3, 88896, Note_on_c, 1, 54, 100
3, 88988, Note_off_c, 1, 54, 100
3, 88992, Note_on_c, 1, 57, 100
3, 89084, Note_off_c, 1, 57, 100
3, 89088, Note_on_c, 1, 52, 100
3, 89180, Note_off_c, 1, 52, 100
3, 89184, Note_on_c, 1, 57, 100
3, 89276, Note_off_c, 1, 57, 100
3, 89280, Note_on_c, 1, 55, 100
3, 89372, Note_off_c, 1, 55, 100
3, 89376, Note_on_c, 1, 57, 100
3, 89468, Note_off_c, 1, 57, 100
3, 89472, Note_on_c, 1, 61, 100
3, 89564, Note_off_c, 1, 61, 100
3, 89568, Note_on_c, 1, 57, 100
3, 89660, Note_off_c, 1, 57, 100
3, 89664, Note_on_c, 1, 55, 100
3, 89756, Note_off_c, 1, 55, 100
3, 89760, Note_on_c, 1, 57, 100
3, 89852, Note_off_c, 1, 57, 100
3, 89856, Note_on_c, 1, 52, 100
3, 89948, Note_off_c, 1, 52, 100
3, 89952, Note_on_c, 1, 57, 100
3, 90044, Note_off_c, 1, 57, 100
3, 90048, Note_on_c, 1, 55, 100
3, 90140, Note_off_c, 1, 55, 100
3, 90144, Note_on_c, 1, 57, 100
3, 90236, Note_off_c, 1, 57, 100
3, 90240, Note_on_c, 1, 61, 100
3, 90332, Note_off_c, 1, 61, 100
3, 90336, Note_on_c, 1, 57, 100
3, 90428, Note_off_c, 1, 57, 100
3, 90432, Note_on_c, 1, 55, 100
3, 90524, Note_off_c, 1, 55, 100
3, 90528, Note_on_c, 1, 57, 100
3, 90620, Note_off_c, 1, 57, 100
3, 90624, Note_on_c, 1, 50, 100
3, 90716, Note_off_c, 1, 50, 100
3, 90720, Note_on_c, 1, 57, 100
3, 90812, Note_off_c, 1, 57, 100
3, 90816, Note_on_c, 1, 54, 100
3, 90908, Note_off_c, 1, 54, 100
3, 90912, Note_on_c, 1, 57, 100
3, 91004, Note_off_c, 1, 57, 100
3, 91008, Note_on_c, 1, 62, 100
3, 91100, Note_off_c, 1, 62, 100
3, 91104, Note_on_c, 1, 57, 100
3, 91196, Note_off_c, 1, 57, 100
3, 91200, Note_on_c, 1, 54, 100
3, 91292, Note_off_c, 1, 54, 100
3, 91296, Note_on_c, 1, 57, 100
3, 91388, Note_off_c, 1, 57, 100
3, 91392, Note_on_c, 1, 50, 100
3, 91484, Note_off_c, 1, 50, 100
3, 91488, Note_on_c, 1, 57, 100
3, 91580, Note_off_c, 1, 57, 100
3, 91584, Note_on_c, 1, 54, 100
3, 91676, Note_off_c, 1, 54, 100
3, 91680, Note_on_c, 1, 57, 100
3, 91772, Note_off_c, 1, 57, 100
3, 91776, Note_on_c, 1, 62, 100
3, 91868, Note_off_c, 1, 62, 100
3, 91872, Note_on_c, 1, 57, 100
3, 91964, Note_off_c, 1, 57, 100
3, 91968, Note_on_c, 1, 54, 100
3, 92060, Note_off_c, 1, 54, 100
3, 92064, Note_on_c, 1, 57, 100
3, 92156, Note_off_c, 1, 57, 100
3, 92160, Note_on_c, 1, 52, 100
3, 92252, Note_off_c, 1, 52, 100
3, 92256, Note_on_c, 1, 57, 100
3, 92348, Note_off_c, 1, 57, 100
3, 92352, Note_on_c, 1, 55, 100
3, 92444, Note_off_c, 1, 55, 100
3, 92448, Note_on_c, 1, 57, 100
3, 92540, Note_off_c, 1, 57, 100
3, 92544, Note_on_c, 1, 61, 100
3, 92636, Note_off_c, 1, 61, 100
3, 92640, Note_on_c, 1, 57, 100
3, 92732, Note_off_c, 1, 57, 100
3, 92736, Note_on_c, 1, 55, 100
3, 92828, Note_off_c, 1, 55, 100
3, 92832, Note_on_c, 1, 57, 100
3, 92924, Note_off_c, 1, 57, 100
3, 92928, Note_on_c, 1, 52, 100
3, 93020, Note_off_c, 1, 52, 100
3, 93024, Note_on_c, 1, 57, 100
3, 93116, Note_off_c, 1, 57, 100
3, 93120, Note_on_c, 1, 55, 100
3, 93212, Note_off_c, 1, 55, 100
3, 93216, Note_on_c, 1, 57, 100
3, 93308, Note_off_c, 1, 57, 100
3, 93312, Note_on_c, 1, 61, 100
3, 93404, Note_off_c, 1, 61, 100
3, 93408, Note_on_c, 1, 57, 100
3, 93500, Note_off_c, 1, 57, 100
3, 93504, Note_on_c, 1, 55, 100
3, 93596, Note_off_c, 1, 55, 100
3, 93600, Note_on_c, 1, 57, 100
3, 93692, Note_off_c, 1, 57, 100
3, 93696, Note_on_c, 1, 50, 100
3, 93696, Note_on_c, 1, 38, 100
3, 94844, Note_off_c, 1, 50, 100
3, 94844, Note_off_c, 1, 38, 100
3, 94848, Note_on_c, 1, 49, 100
3, 94848, Note_on_c, 1, 37, 100
3, 95228, Note_off_c, 1, 49, 100
3, 95228, Note_off_c, 1, 37, 100
3, 95232, Note_on_c, 1, 47, 100
3, 95232, Note_on_c, 1, 35, 100
3, 96380, Note_off_c, 1, 47, 100
3, 96380, Note_off_c, 1, 35, 100
3, 96384, Note_on_c, 1, 45, 100
3, 96384, Note_on_c, 1, 33, 100
3, 96764, Note_off_c, 1, 45, 100
3, 96764, Note_off_c, 1, 33, 100
3, 96768, Note_on_c, 1, 43, 100
3, 96768, Note_on_c, 1, 31, 100
3, 97916, Note_off_c, 1, 43, 100
3, 97916, Note_off_c, 1, 31, 100
3, 97920, Note_on_c, 1, 44, 100
3, 97920, Note_on_c, 1, 32, 100
3, 98300, Note_off_c, 1, 44, 100
3, 98300, Note_off_c, 1, 32, 100
3, 98304, Note_on_c, 1, 49, 100
3, 98396, Note_off_c, 1, 49, 100
3, 98400, Note_on_c, 1, 57, 100
3, 98492, Note_off_c, 1, 57, 100
3, 98496, Note_on_c, 1, 56, 100
3, 98588, Note_off_c, 1, 56, 100
3, 98592, Note_on_c, 1, 57, 100
3, 98684, Note_off_c, 1, 57, 100
3, 98688, Note_on_c, 1, 52, 100
3, 98780, Note_off_c, 1, 52, 100
3, 98784, Note_on_c, 1, 57, 100
3, 98876, Note_off_c, 1, 57, 100
3, 98880, Note_on_c, 1, 50, 100
3, 98972, Note_off_c, 1, 50, 100
3, 98976, Note_on_c, 1, 57, 100
3, 99068, Note_off_c, 1, 57, 100
3, 99072, Note_on_c, 1, 49, 100
3, 99164, Note_off_c, 1, 49, 100
3, 99168, Note_on_c, 1, 57, 100
3, 99260, Note_off_c, 1, 57, 100
3, 99264, Note_on_c, 1, 56, 100
3, 99356, Note_off_c, 1, 56, 100
3, 99360, Note_on_c, 1, 57, 100
3, 99452, Note_off_c, 1, 57, 100
3, 99456, Note_on_c, 1, 49, 100
3, 99548, Note_off_c, 1, 49, 100
3, 99552, Note_on_c, 1, 57, 100
3, 99644, Note_off_c, 1, 57, 100
3, 99648, Note_on_c, 1, 47, 100
3, 99740, Note_off_c, 1, 47, 100
3, 99744, Note_on_c, 1, 57, 100
3, 99836, Note_off_c, 1, 57, 100
3, 99840, Note_on_c, 1, 45, 100
3, 100220, Note_off_c, 1, 45, 100
3, 100224, Note_on_c, 1, 49, 100
3, 100508, Note_off_c, 1, 49, 100
3, 100512, Note_on_c, 1, 52, 100
3, 100604, Note_off_c, 1, 52, 100
3, 100608, Note_on_c, 1, 45, 100
3, 100988, Note_off_c, 1, 45, 100
3, 102816, Note_on_c, 1, 52, 70
3, 102864, Note_on_c, 1, 57, 70
3, 102908, Note_off_c, 1, 52, 100
3, 102912, Note_on_c, 1, 61, 70
3, 102956, Note_off_c, 1, 57, 100
3, 102960, Note_on_c, 1, 64, 70
3, 103004, Note_off_c, 1, 61, 100
3, 103100, Note_off_c, 1, 64, 100
3, 103104, Note_on_c, 1, 64, 70
3, 103292, Note_off_c, 1, 64, 100
3, 103296, Note_on_c, 1, 64, 70
3, 103484, Note_off_c, 1, 64, 100
3, 103488, Note_on_c, 1, 61, 70
3, 103676, Note_off_c, 1, 61, 100
3, 103680, Note_on_c, 1, 62, 70
3, 103868, Note_off_c, 1, 62, 100
3, 103872, Note_on_c, 1, 62, 70
3, 104060, Note_off_c, 1, 62, 100
3, 104064, Note_on_c, 1, 62, 70
3, 104252, Note_off_c, 1, 62, 100
3, 104256, Note_on_c, 1, 59, 70
3, 104444, Note_off_c, 1, 59, 100
3, 104448, Note_on_c, 1, 61, 70
3, 104636, Note_off_c, 1, 61, 100
3, 104640, Note_on_c, 1, 59, 70
3, 104828, Note_off_c, 1, 59, 100
3, 104832, Note_on_c, 1, 57, 70
3, 105020, Note_off_c, 1, 57, 100
3, 105024, Note_on_c, 1, 56, 70
3, 105212, Note_off_c, 1, 56, 100
3, 105216, Note_on_c, 1, 57, 70
3, 105404, Note_off_c, 1, 57, 100
3, 105408, Note_on_c, 1, 59, 70
3, 105596, Note_off_c, 1, 59, 100
3, 105600, Note_on_c, 1, 61, 70
3, 105788, Note_off_c, 1, 61, 100
3, 105792, Note_on_c, 1, 62, 70
3, 105980, Note_off_c, 1, 62, 100
3, 105984, Note_on_c, 1, 60, 70
3, 106172, Note_off_c, 1, 60, 100
3, 106176, Note_on_c, 1, 59, 70
3, 106364, Note_off_c, 1, 59, 100
3, 106368, Note_on_c, 1, 57, 70
3, 106556, Note_off_c, 1, 57, 100
3, 106560, Note_on_c, 1, 56, 70
3, 106748, Note_off_c, 1, 56, 100
3, 106752, Note_on_c, 1, 57, 70
3, 106940, Note_off_c, 1, 57, 100
3, 106944, Note_on_c, 1, 59, 70
3, 107132, Note_off_c, 1, 59, 100
3, 107136, Note_on_c, 1, 60, 70
3, 107324, Note_off_c, 1, 60, 100
3, 107328, Note_on_c, 1, 62, 70
3, 107516, Note_off_c, 1, 62, 100
3, 107520, Note_on_c, 1, 57, 70
3, 108284, Note_off_c, 1, 57, 100
3, 108288, Note_on_c, 1, 53, 70
3, 109052, Note_off_c, 1, 53, 100
3, 109056, Note_on_c, 1, 52, 70
3, 109820, Note_off_c, 1, 52, 100
3, 109824, Note_on_c, 1, 49, 70
3, 110588, Note_off_c, 1, 49, 100
3, 110592, Note_on_c, 1, 50, 100
3, 111356, Note_off_c, 1, 50, 100
3, 111360, Note_on_c, 1, 50, 100
3, 112124, Note_off_c, 1, 50, 100
3, 112128, Note_on_c, 1, 38, 100
3, 113660, Note_off_c, 1, 38, 100
3, 115200, Note_on_c, 1, 42, 100
3, 115292, Note_off_c, 1, 42, 100
3, 115296, Note_on_c, 1, 38, 100
3, 115388, Note_off_c, 1, 38, 100
3, 115392, Note_on_c, 1, 37, 100
3, 115484, Note_off_c, 1, 37, 100
3, 115488, Note_on_c, 1, 38, 100
3, 115580, Note_off_c, 1, 38, 100
3, 115584, Note_on_c, 1, 42, 100
3, 115676, Note_off_c, 1, 42, 100
3, 115680, Note_on_c, 1, 38, 100
3, 115772, Note_off_c, 1, 38, 100
3, 115776, Note_on_c, 1, 45, 100
3, 115868, Note_off_c, 1, 45, 100
3, 115872, Note_on_c, 1, 42, 100
3, 115964, Note_off_c, 1, 42, 100
3, 115968, Note_on_c, 1, 50, 100
3, 116732, Note_off_c, 1, 50, 100
3, 116736, Note_on_c, 1, 49, 100
3, 118268, Note_off_c, 1, 49, 100
3, 118272, Note_on_c, 1, 37, 100
3, 119036, Note_off_c, 1, 37, 100
3, 121344, Note_on_c, 1, 37, 100
3, 121436, Note_off_c, 1, 37, 100
3, 121440, Note_on_c, 1, 33, 100
3, 121532, Note_off_c, 1, 33, 100
3, 121536, Note_on_c, 1, 32, 100
3, 121628, Note_off_c, 1, 32, 100
3, 121632, Note_on_c, 1, 33, 100
3, 121724, Note_off_c, 1, 33, 100
3, 121728, Note_on_c, 1, 37, 100
3, 121820, Note_off_c, 1, 37, 100
3, 121824, Note_on_c, 1, 33, 100
3, 121916, Note_off_c, 1, 33, 100
3, 121920, Note_on_c, 1, 40, 100
3, 122012, Note_off_c, 1, 40, 100
3, 122016, Note_on_c, 1, 37, 100
3, 122108, Note_off_c, 1, 37, 100
3, 122112, Note_on_c, 1, 45, 100
3, 122492, Note_off_c, 1, 45, 100
3, 122880, Note_on_c, 1, 52, 100
3, 123260, Note_off_c, 1, 52, 100
3, 123264, Note_on_c, 1, 56, 100
3, 123452, Note_off_c, 1, 56, 100
3, 123456, Note_on_c, 1, 59, 100
3, 123644, Note_off_c, 1, 59, 100
3, 123648, Note_on_c, 1, 62, 100
3, 123836, Note_off_c, 1, 62, 100
3, 123840, Note_on_c, 1, 59, 100
3, 124028, Note_off_c, 1, 59, 100
3, 124032, Note_on_c, 1, 56, 100
3, 124220, Note_off_c, 1, 56, 100
3, 124224, Note_on_c, 1, 52, 100
3, 124412, Note_off_c, 1, 52, 100
3, 124416, Note_on_c, 1, 57, 100
3, 124508, Note_off_c, 1, 57, 100
3, 124512, Note_on_c, 1, 57, 100
3, 124608, Note_on_c, 1, 61, 100
3, 124700, Note_off_c, 1, 57, 100
3, 124704, Note_on_c, 1, 57, 100
3, 124796, Note_off_c, 1, 61, 100
3, 124800, Note_on_c, 1, 52, 100
3, 124892, Note_off_c, 1, 57, 100
3, 124896, Note_on_c, 1, 57, 100
3, 124988, Note_off_c, 1, 52, 100
3, 124992, Note_on_c, 1, 52, 100
3, 125084, Note_off_c, 1, 57, 100
3, 125088, Note_on_c, 1, 49, 100
3, 125180, Note_off_c, 1, 52, 100
3, 125184, Note_on_c, 1, 45, 100
3, 125276, Note_off_c, 1, 49, 100
3, 125948, Note_off_c, 1, 45, 100
3, 125952, Note_on_c, 1, 52, 100
3, 126332, Note_off_c, 1, 52, 100
3, 126336, Note_on_c, 1, 56, 100
3, 126524, Note_off_c, 1, 56, 100
3, 126528, Note_on_c, 1, 59, 100
3, 126716, Note_off_c, 1, 59, 100
3, 126720, Note_on_c, 1, 62, 100
3, 126908, Note_off_c, 1, 62, 100
3, 126912, Note_on_c, 1, 59, 100
3, 127100, Note_off_c, 1, 59, 100
3, 127104, Note_on_c, 1, 56, 100
3, 127292, Note_off_c, 1, 56, 100
3, 127296, Note_on_c, 1, 52, 100
3, 127484, Note_off_c, 1, 52, 100
3, 127488, Note_on_c, 1, 57, 100
3, 127580, Note_off_c, 1, 57, 100
3, 127584, Note_on_c, 1, 57, 100
3, 127680, Note_on_c, 1, 61, 100
3, 127772, Note_off_c, 1, 57, 100
3, 127776, Note_on_c, 1, 57, 100
3, 127868, Note_off_c, 1, 61, 100
3, 127872, Note_on_c, 1, 52, 100
3, 127964, Note_off_c, 1, 57, 100
3, 127968, Note_on_c, 1, 57, 100
3, 128060, Note_off_c, 1, 52, 100
3, 128064, Note_on_c, 1, 52, 100
3, 128156, Note_off_c, 1, 57, 100
3, 128160, Note_on_c, 1, 49, 100
3, 128252, Note_off_c, 1, 52, 100
3, 128256, Note_on_c, 1, 45, 100
3, 128348, Note_off_c, 1, 49, 100
3, 129020, Note_off_c, 1, 45, 100
3, 129024, Note_on_c, 1, 42, 100
3, 129024, Note_on_c, 1, 50, 100
3, 129212, Note_off_c, 1, 42, 100
3, 129212, Note_off_c, 1, 50, 100
3, 129216, Note_on_c, 1, 42, 100
3, 129216, Note_on_c, 1, 50, 100
3, 129404, Note_off_c, 1, 42, 100
3, 129404, Note_off_c, 1, 50, 100
3, 129408, Note_on_c, 1, 42, 100
3, 129408, Note_on_c, 1, 50, 100
3, 129596, Note_off_c, 1, 42, 100
3, 129596, Note_off_c, 1, 50, 100
3, 129600, Note_on_c, 1, 42, 100
3, 129600, Note_on_c, 1, 50, 100
3, 129788, Note_off_c, 1, 42, 100
3, 129788, Note_off_c, 1, 50, 100
3, 129792, Note_on_c, 1, 42, 100
3, 129792, Note_on_c, 1, 50, 100
3, 129980, Note_off_c, 1, 42, 100
3, 129980, Note_off_c, 1, 50, 100
3, 129984, Note_on_c, 1, 42, 100
3, 129984, Note_on_c, 1, 50, 100
3, 130172, Note_off_c, 1, 42, 100
3, 130172, Note_off_c, 1, 50, 100
3, 130176, Note_on_c, 1, 42, 100
3, 130176, Note_on_c, 1, 50, 100
3, 130364, Note_off_c, 1, 42, 100
3, 130364, Note_off_c, 1, 50, 100
3, 130368, Note_on_c, 1, 42, 100
3, 130368, Note_on_c, 1, 50, 100
3, 130556, Note_off_c, 1, 42, 100
3, 130556, Note_off_c, 1, 50, 100
3, 130560, Note_on_c, 1, 52, 100
3, 131324, Note_off_c, 1, 52, 100
3, 131328, Note_on_c, 1, 52, 100
3, 132092, Note_off_c, 1, 52, 100
3, 132096, Note_on_c, 1, 57, 100
3, 132860, Note_off_c, 1, 57, 100
3, 132864, Note_on_c, 1, 64, 100
3, 132864, Note_on_c, 1, 60, 100
3, 133628, Note_off_c, 1, 64, 100
3, 133628, Note_off_c, 1, 60, 100
3, 133632, Note_on_c, 1, 62, 100
3, 133632, Note_on_c, 1, 59, 100
3, 134396, Note_off_c, 1, 62, 100
3, 134396, Note_off_c, 1, 59, 100
3, 134400, Note_on_c, 1, 52, 100
3, 135164, Note_off_c, 1, 52, 100
3, 135168, Note_on_c, 1, 57, 100
3, 135932, Note_off_c, 1, 57, 100
3, 135936, Note_on_c, 1, 53, 100
3, 136700, Note_off_c, 1, 53, 100
3, 136704, Note_on_c, 1, 52, 70
3, 137084, Note_off_c, 1, 52, 100
3, 138240, Note_on_c, 1, 52, 70
3, 138240, Note_on_c, 1, 56, 70
3, 138428, Note_off_c, 1, 52, 100
3, 138428, Note_off_c, 1, 56, 100
3, 138432, Note_on_c, 1, 54, 70
3, 138432, Note_on_c, 1, 57, 70
3, 138620, Note_off_c, 1, 54, 100
3, 138620, Note_off_c, 1, 57, 100
3, 138624, Note_on_c, 1, 56, 70
3, 138624, Note_on_c, 1, 59, 70
3, 138812, Note_off_c, 1, 56, 100
3, 138812, Note_off_c, 1, 59, 100
3, 138816, Note_on_c, 1, 57, 70
3, 138816, Note_on_c, 1, 60, 70
3, 139004, Note_off_c, 1, 57, 100
3, 139004, Note_off_c, 1, 60, 100
3, 139008, Note_on_c, 1, 59, 70
3, 139008, Note_on_c, 1, 62, 70
3, 139196, Note_off_c, 1, 59, 100
3, 139196, Note_off_c, 1, 62, 100
3, 139200, Note_on_c, 1, 57, 70
3, 139200, Note_on_c, 1, 60, 70
3, 139388, Note_off_c, 1, 57, 100
3, 139388, Note_off_c, 1, 60, 100
3, 139392, Note_on_c, 1, 56, 70
3, 139392, Note_on_c, 1, 59, 70
3, 139580, Note_off_c, 1, 56, 100
3, 139580, Note_off_c, 1, 59, 100
3, 139584, Note_on_c, 1, 54, 70
3, 139584, Note_on_c, 1, 57, 70
3, 139772, Note_off_c, 1, 54, 100
3, 139772, Note_off_c, 1, 57, 100
3, 139776, Note_on_c, 1, 40, 120
3, 139776, Note_on_c, 1, 52, 120
3, 140540, Note_off_c, 1, 40, 100
3, 140540, Note_off_c, 1, 52, 100
3, 140544, Note_on_c, 1, 39, 120
3, 140544, Note_on_c, 1, 51, 120
3, 141308, Note_off_c, 1, 39, 100
3, 141308, Note_off_c, 1, 51, 100
3, 141312, Note_on_c, 1, 38, 120
3, 141312, Note_on_c, 1, 50, 120
3, 142460, Note_off_c, 1, 38, 100
3, 142460, Note_off_c, 1, 50, 100
3, 142848, Note_on_c, 1, 45, 60
3, 143228, Note_off_c, 1, 45, 100
3, 144384, Note_on_c, 1, 45, 60
3, 144764, Note_off_c, 1, 45, 100
3, 144768, Note_on_c, 1, 49, 60
3, 145148, Note_off_c, 1, 49, 100
3, 145152, Note_on_c, 1, 52, 60
3, 145532, Note_off_c, 1, 52, 100
3, 145536, Note_on_c, 1, 40, 60
3, 145916, Note_off_c, 1, 40, 100
3, 145920, Note_on_c, 1, 45, 60
3, 146300, Note_off_c, 1, 45, 100
3, 147456, Note_on_c, 1, 45, 60
3, 147836, Note_off_c, 1, 45, 100
3, 147840, Note_on_c, 1, 49, 60
3, 148220, Note_off_c, 1, 49, 100
3, 148224, Note_on_c, 1, 52, 60
3, 148604, Note_off_c, 1, 52, 100
3, 148608, Note_on_c, 1, 40, 60
3, 148988, Note_off_c, 1, 40, 100
3, 148992, Note_on_c, 1, 45, 120
3, 149372, Note_off_c, 1, 45, 100
3, 149376, Note_on_c, 1, 49, 120
3, 149756, Note_off_c, 1, 49, 100
3, 149760, Note_on_c, 1, 52, 120
3, 150140, Note_off_c, 1, 52, 100
3, 150144, Note_on_c, 1, 40, 120
3, 150524, Note_off_c, 1, 40, 100
3, 150528, Note_on_c, 1, 45, 120
3, 150908, Note_off_c, 1, 45, 100
3, 150912, Note_on_c, 1, 52, 120
3, 151292, Note_off_c, 1, 52, 100
3, 151296, Note_on_c, 1, 45, 120
3, 151676, Note_off_c, 1, 45, 100
3, 152064, Note_on_c, 1, 45, 100
3, 152444, Note_off_c, 1, 45, 100
3, 153984, Note_on_c, 1, 45, 100
3, 154364, Note_off_c, 1, 45, 100
3, 154368, Note_on_c, 1, 47, 100
3, 154748, Note_off_c, 1, 47, 100
3, 154752, Note_on_c, 1, 49, 100
3, 155132, Note_off_c, 1, 49, 100
3, 155136, Note_on_c, 1, 50, 100
3, 155516, Note_off_c, 1, 50, 100
3, 155520, Note_on_c, 1, 50, 100
3, 155900, Note_off_c, 1, 50, 100
3, 155904, Note_on_c, 1, 52, 100
3, 156284, Note_off_c, 1, 52, 100
3, 156288, Note_on_c, 1, 40, 100
3, 156668, Note_off_c, 1, 40, 100
3, 156672, Note_on_c, 1, 45, 100
3, 157052, Note_off_c, 1, 45, 100
3, 157056, Note_on_c, 1, 57, 100
3, 157436, Note_off_c, 1, 57, 100
3, 157440, Note_on_c, 1, 45, 100
3, 157820, Note_off_c, 1, 45, 100
3, 158208, Note_on_c, 1, 42, 100
3, 158208, Note_on_c, 1, 54, 100
3, 159356, Note_off_c, 1, 42, 100
3, 159356, Note_off_c, 1, 54, 100
3, 159360, Note_on_c, 1, 54, 70
3, 159360, Note_on_c, 1, 42, 70
3, 159740, Note_off_c, 1, 54, 100
3, 159740, Note_off_c, 1, 42, 100
3, 159744, Note_on_c, 1, 43, 70
3, 159744, Note_on_c, 1, 55, 70
3, 160892, Note_off_c, 1, 43, 100
3, 160892, Note_off_c, 1, 55, 100
3, 160896, Note_on_c, 1, 50, 70
3, 161276, Note_off_c, 1, 50, 100
3, 161280, Note_on_c, 1, 52, 70
3, 161660, Note_off_c, 1, 52, 100
3, 161664, Note_on_c, 1, 52, 70
3, 162044, Note_off_c, 1, 52, 100
3, 162048, Note_on_c, 1, 54, 70
3, 162428, Note_off_c, 1, 54, 100
3, 162432, Note_on_c, 1, 42, 70
3, 162812, Note_off_c, 1, 42, 100
3, 162816, Note_on_c, 1, 35, 100
3, 162816, Note_on_c, 1, 47, 100
3, 163580, Note_off_c, 1, 35, 100
3, 163580, Note_off_c, 1, 47, 100
3, 163584, Note_on_c, 1, 38, 100
3, 163584, Note_on_c, 1, 50, 100
3, 164348, Note_off_c, 1, 38, 100
3, 164348, Note_off_c, 1, 50, 100
3, 164352, Note_on_c, 1, 49, 100
3, 164352, Note_on_c, 1, 37, 100
3, 165116, Note_off_c, 1, 49, 100
3, 165116, Note_off_c, 1, 37, 100
3, 165120, Note_on_c, 1, 54, 100
3, 165120, Note_on_c, 1, 42, 100
3, 165884, Note_off_c, 1, 54, 100
3, 165884, Note_off_c, 1, 42, 100
3, 165888, Note_on_c, 1, 47, 100
3, 165888, Note_on_c, 1, 35, 100
3, 166652, Note_off_c, 1, 47, 100
3, 166652, Note_off_c, 1, 35, 100
3, 167424, Note_on_c, 1, 45, 70
3, 167424, Note_on_c, 1, 33, 70
3, 168956, Note_off_c, 1, 45, 100
3, 168956, Note_off_c, 1, 33, 100
3, 168960, Note_on_c, 1, 43, 100
3, 168960, Note_on_c, 1, 31, 100
3, 169724, Note_off_c, 1, 43, 100
3, 169724, Note_off_c, 1, 31, 100
3, 170496, Note_on_c, 1, 45, 70
3, 170496, Note_on_c, 1, 33, 70
3, 172028, Note_off_c, 1, 45, 100
3, 172028, Note_off_c, 1, 33, 100
3, 172032, Note_on_c, 1, 55, 100
3, 172032, Note_on_c, 1, 43, 100
3, 172796, Note_off_c, 1, 55, 100
3, 172796, Note_off_c, 1, 43, 100
3, 172800, Note_on_c, 1, 54, 100
3, 172800, Note_on_c, 1, 42, 100
3, 173564, Note_off_c, 1, 54, 100
3, 173564, Note_off_c, 1, 42, 100
3, 173568, Note_on_c, 1, 40, 100
3, 173568, Note_on_c, 1, 52, 100
3, 175100, Note_off_c, 1, 40, 100
3, 175100, Note_off_c, 1, 52, 100
3, 175200, Note_on_c, 1, 47, 100
3, 175292, Note_off_c, 1, 47, 100
3, 175296, Note_on_c, 1, 49, 100
3, 175388, Note_off_c, 1, 49, 100
3, 175392, Note_on_c, 1, 51, 100
3, 175484, Note_off_c, 1, 51, 100
3, 175488, Note_on_c, 1, 52, 100
3, 175580, Note_off_c, 1, 52, 100
3, 175584, Note_on_c, 1, 54, 100
3, 175676, Note_off_c, 1, 54, 100
3, 175680, Note_on_c, 1, 55, 100
3, 175772, Note_off_c, 1, 55, 100
3, 175776, Note_on_c, 1, 57, 100
3, 175868, Note_off_c, 1, 57, 100
3, 175872, Note_on_c, 1, 59, 100
3, 175964, Note_off_c, 1, 59, 100
3, 175968, Note_on_c, 1, 54, 100
3, 176060, Note_off_c, 1, 54, 100
3, 176064, Note_on_c, 1, 59, 100
3, 176156, Note_off_c, 1, 59, 100
3, 176160, Note_on_c, 1, 58, 100
3, 176252, Note_off_c, 1, 58, 100
3, 176256, Note_on_c, 1, 59, 100
3, 176348, Note_off_c, 1, 59, 100
3, 176352, Note_on_c, 1, 57, 100
3, 176444, Note_off_c, 1, 57, 100
3, 176448, Note_on_c, 1, 55, 100
3, 176540, Note_off_c, 1, 55, 100
3, 176544, Note_on_c, 1, 54, 100
3, 176636, Note_off_c, 1, 54, 100
3, 176640, Note_on_c, 1, 52, 100
3, 178172, Note_off_c, 1, 52, 100
3, 178272, Note_on_c, 1, 47, 100
3, 178364, Note_off_c, 1, 47, 100
3, 178368, Note_on_c, 1, 49, 100
3, 178460, Note_off_c, 1, 49, 100
3, 178464, Note_on_c, 1, 51, 100
3, 178556, Note_off_c, 1, 51, 100
3, 178560, Note_on_c, 1, 52, 100
3, 178652, Note_off_c, 1, 52, 100
3, 178656, Note_on_c, 1, 54, 100
3, 178748, Note_off_c, 1, 54, 100
3, 178752, Note_on_c, 1, 55, 100
3, 178844, Note_off_c, 1, 55, 100
3, 178848, Note_on_c, 1, 57, 100
3, 178940, Note_off_c, 1, 57, 100
3, 178944, Note_on_c, 1, 59, 100
3, 179036, Note_off_c, 1, 59, 100
3, 179040, Note_on_c, 1, 63, 100
3, 179132, Note_off_c, 1, 63, 100
3, 179136, Note_on_c, 1, 66, 100
3, 179228, Note_off_c, 1, 66, 100
3, 179232, Note_on_c, 1, 60, 100
3, 179324, Note_off_c, 1, 60, 100
3, 179328, Note_on_c, 1, 59, 100
3, 179420, Note_off_c, 1, 59, 100
3, 179424, Note_on_c, 1, 57, 100
3, 179516, Note_off_c, 1, 57, 100
3, 179520, Note_on_c, 1, 55, 100
3, 179612, Note_off_c, 1, 55, 100
3, 179616, Note_on_c, 1, 54, 100
3, 179708, Note_off_c, 1, 54, 100
3, 179712, Note_on_c, 1, 40, 100
3, 179712, Note_on_c, 1, 52, 100
3, 181244, Note_off_c, 1, 40, 100
3, 181244, Note_off_c, 1, 52, 100
3, 181248, Note_on_c, 1, 45, 70
3, 182780, Note_off_c, 1, 45, 100
3, 182784, Note_on_c, 1, 45, 70
3, 184316, Note_off_c, 1, 45, 100
3, 184320, Note_on_c, 1, 45, 70
3, 185084, Note_off_c, 1, 45, 100
3, 185088, Note_on_c, 1, 45, 70
3, 185852, Note_off_c, 1, 45, 100
3, 185856, Note_on_c, 1, 45, 70
3, 186620, Note_off_c, 1, 45, 100
3, 187392, Note_on_c, 1, 38, 100
3, 187392, Note_on_c, 1, 50, 100
3, 187772, Note_off_c, 1, 38, 100
3, 187772, Note_off_c, 1, 50, 100
3, 188928, Note_on_c, 1, 50, 100
3, 189308, Note_off_c, 1, 50, 100
3, 189312, Note_on_c, 1, 38, 100
3, 189692, Note_off_c, 1, 38, 100
3, 189696, Note_on_c, 1, 42, 100
3, 190076, Note_off_c, 1, 42, 100
3, 190080, Note_on_c, 1, 45, 100
3, 190460, Note_off_c, 1, 45, 100
3, 190464, Note_on_c, 1, 50, 100
3, 190844, Note_off_c, 1, 50, 100
3, 192384, Note_on_c, 1, 50, 100
3, 192572, Note_off_c, 1, 50, 100
3, 192576, Note_on_c, 1, 49, 100
3, 192764, Note_off_c, 1, 49, 100
3, 192768, Note_on_c, 1, 50, 100
3, 193148, Note_off_c, 1, 50, 100
3, 194976, Note_on_c, 1, 50, 70
3, 195024, Note_on_c, 1, 55, 70
3, 195068, Note_off_c, 1, 50, 100
3, 195072, Note_on_c, 1, 59, 70
3, 195116, Note_off_c, 1, 55, 100
3, 195120, Note_on_c, 1, 62, 70
3, 195164, Note_off_c, 1, 59, 100
3, 195260, Note_off_c, 1, 62, 100
3, 195264, Note_on_c, 1, 62, 70
3, 195452, Note_off_c, 1, 62, 100
3, 195456, Note_on_c, 1, 62, 70
3, 195644, Note_off_c, 1, 62, 100
3, 195648, Note_on_c, 1, 59, 70
3, 195836, Note_off_c, 1, 59, 100
3, 195840, Note_on_c, 1, 60, 70
3, 196028, Note_off_c, 1, 60, 100
3, 196032, Note_on_c, 1, 60, 70
3, 196220, Note_off_c, 1, 60, 100
3, 196224, Note_on_c, 1, 60, 70
3, 196412, Note_off_c, 1, 60, 100
3, 196416, Note_on_c, 1, 57, 70
3, 196604, Note_off_c, 1, 57, 100
3, 196608, Note_on_c, 1, 59, 70
3, 196796, Note_off_c, 1, 59, 100
3, 196800, Note_on_c, 1, 57, 70
3, 196988, Note_off_c, 1, 57, 100
3, 196992, Note_on_c, 1, 55, 70
3, 197180, Note_off_c, 1, 55, 100
3, 197184, Note_on_c, 1, 54, 70
3, 197372, Note_off_c, 1, 54, 100
3, 197376, Note_on_c, 1, 55, 70
3, 197564, Note_off_c, 1, 55, 100
3, 197568, Note_on_c, 1, 57, 70
3, 197756, Note_off_c, 1, 57, 100
3, 197760, Note_on_c, 1, 59, 70
3, 197948, Note_off_c, 1, 59, 100
3, 197952, Note_on_c, 1, 60, 70
3, 198140, Note_off_c, 1, 60, 100
3, 198144, Note_on_c, 1, 59, 70
3, 198332, Note_off_c, 1, 59, 100
3, 198336, Note_on_c, 1, 57, 70
3, 198524, Note_off_c, 1, 57, 100
3, 198528, Note_on_c, 1, 59, 70
3, 198716, Note_off_c, 1, 59, 100
3, 198720, Note_on_c, 1, 57, 70
3, 198908, Note_off_c, 1, 57, 100
3, 198912, Note_on_c, 1, 59, 70
3, 199100, Note_off_c, 1, 59, 100
3, 199104, Note_on_c, 1, 57, 70
3, 199292, Note_off_c, 1, 57, 100
3, 199296, Note_on_c, 1, 55, 70
3, 199484, Note_off_c, 1, 55, 100
3, 199488, Note_on_c, 1, 54, 70
3, 199676, Note_off_c, 1, 54, 100
3, 199680, Note_on_c, 1, 55, 100
3, 199680, Note_on_c, 1, 43, 100
3, 201212, Note_off_c, 1, 55, 100
3, 201212, Note_off_c, 1, 43, 100
3, 201216, Note_on_c, 1, 55, 100
3, 201216, Note_on_c, 1, 43, 100
3, 202748, Note_off_c, 1, 55, 100
3, 202748, Note_off_c, 1, 43, 100
3, 202752, Note_on_c, 1, 59, 100
3, 202848, Note_on_c, 1, 55, 100
3, 202940, Note_off_c, 1, 59, 100
3, 202944, Note_on_c, 1, 50, 100
3, 203036, Note_off_c, 1, 55, 100
3, 203040, Note_on_c, 1, 55, 100
3, 203132, Note_off_c, 1, 50, 100
3, 203136, Note_on_c, 1, 50, 100
3, 203228, Note_off_c, 1, 55, 100
3, 203232, Note_on_c, 1, 55, 100
3, 203324, Note_off_c, 1, 50, 100
3, 203328, Note_on_c, 1, 50, 100
3, 203420, Note_off_c, 1, 55, 100
3, 203424, Note_on_c, 1, 47, 100
3, 203516, Note_off_c, 1, 50, 100
3, 203516, Note_off_c, 1, 47, 100
3, 203520, Note_on_c, 1, 43, 100
3, 204284, Note_off_c, 1, 43, 100
3, 204288, Note_on_c, 1, 54, 100
3, 204288, Note_on_c, 1, 42, 100
3, 205820, Note_off_c, 1, 54, 100
3, 205820, Note_off_c, 1, 42, 100
3, 205824, Note_on_c, 1, 54, 100
3, 205824, Note_on_c, 1, 42, 100
3, 206588, Note_off_c, 1, 54, 100
3, 206588, Note_off_c, 1, 42, 100
3, 206592, Note_on_c, 1, 54, 100
3, 206592, Note_on_c, 1, 42, 100
3, 207356, Note_off_c, 1, 54, 100
3, 207356, Note_off_c, 1, 42, 100
3, 207360, Note_on_c, 1, 54, 100
3, 207456, Note_on_c, 1, 50, 100
3, 207548, Note_off_c, 1, 54, 100
3, 207552, Note_on_c, 1, 45, 100
3, 207644, Note_off_c, 1, 50, 100
3, 207648, Note_on_c, 1, 50, 100
3, 207740, Note_off_c, 1, 45, 100
3, 207744, Note_on_c, 1, 45, 100
3, 207836, Note_off_c, 1, 50, 100
3, 207840, Note_on_c, 1, 50, 100
3, 207932, Note_off_c, 1, 45, 100
3, 207936, Note_on_c, 1, 45, 100
3, 208028, Note_off_c, 1, 50, 100
3, 208032, Note_on_c, 1, 42, 100
3, 208124, Note_off_c, 1, 45, 100
3, 208124, Note_off_c, 1, 42, 100
3, 208128, Note_on_c, 1, 38, 100
3, 208892, Note_off_c, 1, 38, 100
3, 208896, Note_on_c, 1, 45, 100
3, 209276, Note_off_c, 1, 45, 100
3, 209280, Note_on_c, 1, 49, 100
3, 209468, Note_off_c, 1, 49, 100
3, 209472, Note_on_c, 1, 52, 100
3, 209660, Note_off_c, 1, 52, 100
3, 209664, Note_on_c, 1, 55, 100
3, 209852, Note_off_c, 1, 55, 100
3, 209856, Note_on_c, 1, 52, 100
3, 210044, Note_off_c, 1, 52, 100
3, 210048, Note_on_c, 1, 49, 100
3, 210236, Note_off_c, 1, 49, 100
3, 210240, Note_on_c, 1, 45, 100
3, 210428, Note_off_c, 1, 45, 100
3, 210432, Note_on_c, 1, 50, 100
3, 210524, Note_off_c, 1, 50, 100
3, 210528, Note_on_c, 1, 50, 100
3, 210624, Note_on_c, 1, 54, 100
3, 210716, Note_off_c, 1, 50, 100
3, 210720, Note_on_c, 1, 50, 100
3, 210812, Note_off_c, 1, 54, 100
3, 210816, Note_on_c, 1, 45, 100
3, 210908, Note_off_c, 1, 50, 100
3, 210912, Note_on_c, 1, 50, 100
3, 211004, Note_off_c, 1, 45, 100
3, 211008, Note_on_c, 1, 45, 100
3, 211100, Note_off_c, 1, 50, 100
3, 211104, Note_on_c, 1, 42, 100
3, 211196, Note_off_c, 1, 45, 100
3, 211196, Note_off_c, 1, 42, 100
3, 211200, Note_on_c, 1, 38, 100
3, 211964, Note_off_c, 1, 38, 100
3, 211968, Note_on_c, 1, 45, 100
3, 212348, Note_off_c, 1, 45, 100
3, 212352, Note_on_c, 1, 49, 100
3, 212540, Note_off_c, 1, 49, 100
3, 212544, Note_on_c, 1, 52, 100
3, 212732, Note_off_c, 1, 52, 100
3, 212736, Note_on_c, 1, 55, 100
3, 212924, Note_off_c, 1, 55, 100
3, 212928, Note_on_c, 1, 52, 100
3, 213116, Note_off_c, 1, 52, 100
3, 213120, Note_on_c, 1, 49, 100
3, 213308, Note_off_c, 1, 49, 100
3, 213312, Note_on_c, 1, 45, 100
3, 213500, Note_off_c, 1, 45, 100
3, 213504, Note_on_c, 1, 50, 100
3, 213596, Note_off_c, 1, 50, 100
3, 213600, Note_on_c, 1, 50, 100
3, 213696, Note_on_c, 1, 54, 100
3, 213788, Note_off_c, 1, 50, 100
3, 213792, Note_on_c, 1, 50, 100
3, 213884, Note_off_c, 1, 54, 100
3, 213888, Note_on_c, 1, 45, 100
3, 213980, Note_off_c, 1, 50, 100
3, 213984, Note_on_c, 1, 50, 100
3, 214076, Note_off_c, 1, 45, 100
3, 214080, Note_on_c, 1, 45, 100
3, 214172, Note_off_c, 1, 50, 100
3, 214176, Note_on_c, 1, 42, 100
3, 214268, Note_off_c, 1, 45, 100
3, 214268, Note_off_c, 1, 42, 100
3, 214272, Note_on_c, 1, 38, 100
3, 215036, Note_off_c, 1, 38, 100
3, 215040, Note_on_c, 1, 55, 100
3, 215040, Note_on_c, 1, 43, 100
3, 215420, Note_off_c, 1, 55, 100
3, 215420, Note_off_c, 1, 43, 100
3, 215424, Note_on_c, 1, 52, 100
3, 215424, Note_on_c, 1, 40, 100
3, 215804, Note_off_c, 1, 52, 100
3, 215804, Note_off_c, 1, 40, 100
3, 215808, Note_on_c, 1, 49, 100
3, 215808, Note_on_c, 1, 37, 100
3, 216188, Note_off_c, 1, 49, 100
3, 216188, Note_off_c, 1, 37, 100
3, 216192, Note_on_c, 1, 45, 100
3, 216192, Note_on_c, 1, 33, 100
3, 216572, Note_off_c, 1, 45, 100
3, 216572, Note_off_c, 1, 33, 100
3, 216576, Note_on_c, 1, 54, 100
3, 216576, Note_on_c, 1, 42, 100
3, 216956, Note_off_c, 1, 54, 100
3, 216956, Note_off_c, 1, 42, 100
3, 216960, Note_on_c, 1, 50, 100
3, 216960, Note_on_c, 1, 38, 100
3, 217340, Note_off_c, 1, 50, 100
3, 217340, Note_off_c, 1, 38, 100
3, 217344, Note_on_c, 1, 47, 100
3, 217344, Note_on_c, 1, 35, 100
3, 217724, Note_off_c, 1, 47, 100
3, 217724, Note_off_c, 1, 35, 100
3, 217728, Note_on_c, 1, 43, 100
3, 217728, Note_on_c, 1, 31, 100
3, 218108, Note_off_c, 1, 43, 100
3, 218108, Note_off_c, 1, 31, 100
3, 218112, Note_on_c, 1, 52, 100
3, 218112, Note_on_c, 1, 40, 100
3, 218492, Note_off_c, 1, 52, 100
3, 218492, Note_off_c, 1, 40, 100
3, 218496, Note_on_c, 1, 49, 100
3, 218496, Note_on_c, 1, 37, 100
3, 218876, Note_off_c, 1, 49, 100
3, 218876, Note_off_c, 1, 37, 100
3, 218880, Note_on_c, 1, 45, 100
3, 218880, Note_on_c, 1, 33, 100
3, 219260, Note_off_c, 1, 45, 100
3, 219260, Note_off_c, 1, 33, 100
3, 219264, Note_on_c, 1, 49, 100
3, 219264, Note_on_c, 1, 37, 100
3, 219644, Note_off_c, 1, 49, 100
3, 219644, Note_off_c, 1, 37, 100
3, 219648, Note_on_c, 1, 50, 100
3, 219648, Note_on_c, 1, 38, 100
3, 220028, Note_off_c, 1, 50, 100
3, 220028, Note_off_c, 1, 38, 100
3, 220032, Note_on_c, 1, 55, 100
3, 220032, Note_on_c, 1, 43, 100
3, 220412, Note_off_c, 1, 55, 100
3, 220412, Note_off_c, 1, 43, 100
3, 220416, Note_on_c, 1, 57, 100
3, 220416, Note_on_c, 1, 45, 100
3, 220796, Note_off_c, 1, 57, 100
3, 220796, Note_off_c, 1, 45, 100
3, 220800, Note_on_c, 1, 45, 100
3, 220800, Note_on_c, 1, 33, 100
3, 221180, Note_off_c, 1, 45, 100
3, 221180, Note_off_c, 1, 33, 100
3, 221184, Note_on_c, 1, 50, 100
3, 221280, Note_on_c, 1, 57, 100
3, 221372, Note_off_c, 1, 50, 100
3, 221376, Note_on_c, 1, 54, 100
3, 221468, Note_off_c, 1, 57, 100
3, 221472, Note_on_c, 1, 57, 100
3, 221564, Note_off_c, 1, 54, 100
3, 221568, Note_on_c, 1, 62, 100
3, 221660, Note_off_c, 1, 57, 100
3, 221664, Note_on_c, 1, 57, 100
3, 221756, Note_off_c, 1, 62, 100
3, 221760, Note_on_c, 1, 54, 100
3, 221852, Note_off_c, 1, 57, 100
3, 221856, Note_on_c, 1, 57, 100
3, 221948, Note_off_c, 1, 54, 100
3, 221952, Note_on_c, 1, 50, 100
3, 222044, Note_off_c, 1, 57, 100
3, 222048, Note_on_c, 1, 57, 100
3, 222140, Note_off_c, 1, 50, 100
3, 222144, Note_on_c, 1, 54, 100
3, 222236, Note_off_c, 1, 57, 100
3, 222240, Note_on_c, 1, 57, 100
3, 222332, Note_off_c, 1, 54, 100
3, 222336, Note_on_c, 1, 62, 100
3, 222428, Note_off_c, 1, 57, 100
3, 222432, Note_on_c, 1, 57, 100
3, 222524, Note_off_c, 1, 62, 100
3, 222528, Note_on_c, 1, 54, 100
3, 222620, Note_off_c, 1, 57, 100
3, 222624, Note_on_c, 1, 57, 100
3, 222716, Note_off_c, 1, 54, 100
3, 222716, Note_off_c, 1, 57, 100
3, 222720, Note_on_c, 1, 52, 100
3, 222816, Note_on_c, 1, 57, 100
3, 222908, Note_off_c, 1, 52, 100
3, 222912, Note_on_c, 1, 55, 100
3, 223004, Note_off_c, 1, 57, 100
3, 223008, Note_on_c, 1, 57, 100
3, 223100, Note_off_c, 1, 55, 100
3, 223104, Note_on_c, 1, 61, 100
3, 223196, Note_off_c, 1, 57, 100
3, 223200, Note_on_c, 1, 57, 100
3, 223292, Note_off_c, 1, 61, 100
3, 223296, Note_on_c, 1, 55, 100
3, 223388, Note_off_c, 1, 57, 100
3, 223392, Note_on_c, 1, 57, 100
3, 223484, Note_off_c, 1, 55, 100
3, 223488, Note_on_c, 1, 52, 100
3, 223580, Note_off_c, 1, 57, 100
3, 223584, Note_on_c, 1, 57, 100
3, 223676, Note_off_c, 1, 52, 100
3, 223680, Note_on_c, 1, 55, 100
3, 223772, Note_off_c, 1, 57, 100
3, 223776, Note_on_c, 1, 57, 100
3, 223868, Note_off_c, 1, 55, 100
3, 223872, Note_on_c, 1, 61, 100
3, 223964, Note_off_c, 1, 57, 100
3, 223968, Note_on_c, 1, 57, 100
3, 224060, Note_off_c, 1, 61, 100
3, 224064, Note_on_c, 1, 55, 100
3, 224156, Note_off_c, 1, 57, 100
3, 224160, Note_on_c, 1, 57, 100
3, 224252, Note_off_c, 1, 55, 100
3, 224252, Note_off_c, 1, 57, 100
3, 224256, Note_on_c, 1, 50, 100
3, 224352, Note_on_c, 1, 57, 100
3, 224444, Note_off_c, 1, 50, 100
3, 224448, Note_on_c, 1, 54, 100
3, 224540, Note_off_c, 1, 57, 100
3, 224544, Note_on_c, 1, 57, 100
3, 224636, Note_off_c, 1, 54, 100
3, 224640, Note_on_c, 1, 62, 100
3, 224732, Note_off_c, 1, 57, 100
3, 224736, Note_on_c, 1, 57, 100
3, 224828, Note_off_c, 1, 62, 100
3, 224832, Note_on_c, 1, 54, 100
3, 224924, Note_off_c, 1, 57, 100
3, 224928, Note_on_c, 1, 57, 100
3, 225020, Note_off_c, 1, 54, 100
3, 225024, Note_on_c, 1, 50, 100
3, 225116, Note_off_c, 1, 57, 100
3, 225120, Note_on_c, 1, 57, 100
3, 225212, Note_off_c, 1, 50, 100
3, 225216, Note_on_c, 1, 54, 100
3, 225308, Note_off_c, 1, 57, 100
3, 225312, Note_on_c, 1, 57, 100
3, 225404, Note_off_c, 1, 54, 100
3, 225408, Note_on_c, 1, 62, 100
3, 225500, Note_off_c, 1, 57, 100
3, 225504, Note_on_c, 1, 57, 100
3, 225596, Note_off_c, 1, 62, 100
3, 225600, Note_on_c, 1, 54, 100
3, 225692, Note_off_c, 1, 57, 100
3, 225696, Note_on_c, 1, 57, 100
3, 225788, Note_off_c, 1, 54, 100
3, 225788, Note_off_c, 1, 57, 100
3, 225792, Note_on_c, 1, 43, 100
3, 225792, Note_on_c, 1, 55, 100
3, 226172, Note_off_c, 1, 43, 100
3, 226172, Note_off_c, 1, 55, 100
3, 226176, Note_on_c, 1, 43, 100
3, 226176, Note_on_c, 1, 55, 100
3, 226556, Note_off_c, 1, 43, 100
3, 226556, Note_off_c, 1, 55, 100
3, 226560, Note_on_c, 1, 45, 100
3, 226560, Note_on_c, 1, 57, 100
3, 226940, Note_off_c, 1, 45, 100
3, 226940, Note_off_c, 1, 57, 100
3, 226944, Note_on_c, 1, 33, 100
3, 226944, Note_on_c, 1, 45, 100
3, 227324, Note_off_c, 1, 33, 100
3, 227324, Note_off_c, 1, 45, 100
3, 227328, Note_on_c, 1, 38, 100
3, 227328, Note_on_c, 1, 50, 100
3, 228092, Note_off_c, 1, 38, 100
3, 228092, Note_off_c, 1, 50, 100
3, 228096, Note_on_c, 1, 53, 70
3, 228860, Note_off_c, 1, 53, 100
3, 228864, Note_on_c, 1, 52, 70
3, 228864, Note_on_c, 1, 55, 70
3, 229628, Note_off_c, 1, 52, 100
3, 229628, Note_off_c, 1, 55, 100
3, 229632, Note_on_c, 1, 45, 70
3, 230396, Note_off_c, 1, 45, 100
3, 230400, Note_on_c, 1, 50, 70
3, 231164, Note_off_c, 1, 50, 100
3, 231168, Note_on_c, 1, 46, 70
3, 231932, Note_off_c, 1, 46, 100
3, 231936, Note_on_c, 1, 45, 70
3, 232700, Note_off_c, 1, 45, 100
3, 233472, Note_on_c, 1, 45, 70
3, 233472, Note_on_c, 1, 49, 70
3, 233660, Note_off_c, 1, 45, 100
3, 233660, Note_off_c, 1, 49, 100
3, 233664, Note_on_c, 1, 47, 70
3, 233664, Note_on_c, 1, 50, 70
3, 233852, Note_off_c, 1, 47, 100
3, 233852, Note_off_c, 1, 50, 100
3, 233856, Note_on_c, 1, 49, 70
3, 233856, Note_on_c, 1, 52, 70
3, 234044, Note_off_c, 1, 49, 100
3, 234044, Note_off_c, 1, 52, 100
3, 234048, Note_on_c, 1, 50, 70
3, 234048, Note_on_c, 1, 53, 70
3, 234236, Note_off_c, 1, 50, 100
3, 234236, Note_off_c, 1, 53, 100
3, 234240, Note_on_c, 1, 52, 70
3, 234240, Note_on_c, 1, 55, 70
3, 234428, Note_off_c, 1, 52, 100
3, 234428, Note_off_c, 1, 55, 100
3, 234432, Note_on_c, 1, 50, 70
3, 234432, Note_on_c, 1, 53, 70
3, 234620, Note_off_c, 1, 50, 100
3, 234620, Note_off_c, 1, 53, 100
3, 234624, Note_on_c, 1, 49, 70
3, 234624, Note_on_c, 1, 52, 70
3, 234812, Note_off_c, 1, 49, 100
3, 234812, Note_off_c, 1, 52, 100
3, 234816, Note_on_c, 1, 47, 70
3, 234816, Note_on_c, 1, 50, 70
3, 235004, Note_off_c, 1, 47, 100
3, 235004, Note_off_c, 1, 50, 100
3, 235008, Note_on_c, 1, 45, 100
3, 235008, Note_on_c, 1, 57, 100
3, 235772, Note_off_c, 1, 45, 100
3, 235772, Note_off_c, 1, 57, 100
3, 235776, Note_on_c, 1, 44, 100
3, 235776, Note_on_c, 1, 56, 100
3, 236540, Note_off_c, 1, 44, 100
3, 236540, Note_off_c, 1, 56, 100
3, 236544, Note_on_c, 1, 43, 100
3, 236544, Note_on_c, 1, 55, 100
3, 237692, Note_off_c, 1, 43, 100
3, 237692, Note_off_c, 1, 55, 100
3, 238080, Note_on_c, 1, 38, 60
3, 238080, Note_on_c, 1, 50, 60
3, 238460, Note_off_c, 1, 38, 100
3, 238460, Note_off_c, 1, 50, 100
3, 239616, Note_on_c, 1, 50, 60
3, 239996, Note_off_c, 1, 50, 100
3, 240000, Note_on_c, 1, 54, 60
3, 240380, Note_off_c, 1, 54, 100
3, 240384, Note_on_c, 1, 57, 60
3, 240764, Note_off_c, 1, 57, 100
3, 240768, Note_on_c, 1, 45, 60
3, 241148, Note_off_c, 1, 45, 100
3, 241152, Note_on_c, 1, 38, 60
3, 241152, Note_on_c, 1, 50, 60
3, 241532, Note_off_c, 1, 38, 100
3, 241532, Note_off_c, 1, 50, 100
3, 242688, Note_on_c, 1, 50, 60
3, 243068, Note_off_c, 1, 50, 100
3, 243072, Note_on_c, 1, 54, 60
3, 243452, Note_off_c, 1, 54, 100
3, 243456, Note_on_c, 1, 57, 60
3, 243836, Note_off_c, 1, 57, 100
3, 243840, Note_on_c, 1, 45, 70
3, 244220, Note_off_c, 1, 45, 100
3, 244224, Note_on_c, 1, 50, 120
3, 244604, Note_off_c, 1, 50, 100
3, 244608, Note_on_c, 1, 54, 120
3, 244988, Note_off_c, 1, 54, 100
3, 244992, Note_on_c, 1, 57, 120
3, 245372, Note_off_c, 1, 57, 100
3, 245376, Note_on_c, 1, 45, 120
3, 245756, Note_off_c, 1, 45, 100
3, 245760, Note_on_c, 1, 50, 120
3, 246140, Note_off_c, 1, 50, 100
3, 246144, Note_on_c, 1, 45, 120
3, 246524, Note_off_c, 1, 45, 100
3, 246528, Note_on_c, 1, 38, 120
3, 247292, Note_off_c, 1, 38, 100
3, 247292, End_track
0, 0, End_of_file
