0, 0, Header, 1, 3, 384
1, 0, Start_track
1, 0, Title_t, "L.v.Beethoven 1mov - Sonata in C Major WoO 51\000"
1, 0, Copyright_t, "Copyright(C) 1995-2009, Suzuki Software\000"
1, 0, Sequencer_specific, 9, 67, 123, 0, 88, 70, 48, 50, 0, 1
1, 0, Text_t, "XFhd:2009/04/11:JP:Classical::::L.v.Beethoven:::Kaoru Suzuki\000"
1, 0, Text_t, "XFln:JP:\203\\\203i\203^ \203n\222·\222² WoO 51\201`\221æ1\212y\217Í:L.v.\203x\201[\203g\201[\203\224\203F\203\223:::\227é\202¿\202á\202ñ:\227é\202¿\202á\202ñ\000"
1, 0, Time_signature, 4, 2, 96, 8
1, 0, Sequencer_specific, 5, 0, 0, 119, 14, 0
1, 0, Tempo, 375000
1, 5376, Tempo, 384615
1, 5760, Tempo, 400000
1, 5952, Tempo, 428571
1, 6528, Tempo, 500000
1, 7104, Tempo, 375000
1, 11520, Tempo, 384615
1, 11904, Tempo, 400000
1, 12096, Tempo, 428571
1, 12672, Tempo, 500000
1, 13248, Tempo, 375000
1, 23808, Tempo, 384615
1, 24192, Tempo, 400000
1, 24576, Tempo, 375000
1, 28416, Tempo, 384615
1, 28800, Tempo, 400000
1, 28992, Tempo, 428571
1, 29184, Tempo, 375000
1, 46848, Tempo, 384615
1, 47232, Tempo, 400000
1, 47424, Tempo, 428571
1, 47616, Tempo, 389610
1, 48384, Tempo, 400000
1, 48768, Tempo, 410958
1, 48960, Tempo, 428571
1, 49536, Tempo, 375000
1, 54528, Tempo, 384615
1, 54912, Tempo, 400000
1, 55104, Tempo, 428571
1, 55680, Tempo, 500000
1, 56256, Tempo, 375000
1, 60672, Tempo, 384615
1, 61056, Tempo, 400000
1, 61248, Tempo, 428571
1, 61824, Tempo, 500000
1, 62400, Tempo, 375000
1, 72960, Tempo, 384615
1, 73344, Tempo, 400000
1, 73536, Tempo, 428571
1, 73728, Tempo, 375000
1, 77568, Tempo, 384615
1, 77952, Tempo, 400000
1, 78144, Tempo, 428571
1, 78528, Tempo, 375000
1, 96000, Tempo, 384615
1, 96384, Tempo, 400000
1, 96576, Tempo, 428571
1, 96960, Tempo, 400000
1, 97536, Tempo, 410958
1, 97920, Tempo, 428571
1, 98112, Tempo, 454545
1, 98688, Tempo, 375000
1, 103680, Tempo, 384615
1, 104064, Tempo, 400000
1, 104256, Tempo, 428571
1, 104832, Tempo, 500000
1, 105600, Tempo, 375000
1, 106752, Tempo, 384615
1, 107136, Tempo, 400000
1, 107328, Tempo, 428571
1, 107904, Tempo, 500000
1, 108672, Tempo, 375000
1, 109824, Tempo, 384615
1, 110208, Tempo, 400000
1, 110592, Tempo, 375000
1, 110976, Tempo, 357142
1, 131328, Tempo, 365853
1, 131712, Tempo, 375000
1, 132096, Tempo, 384615
1, 132288, Tempo, 400000
1, 132480, Tempo, 428571
1, 132672, Tempo, 500000
1, 133248, Tempo, 375000
1, 139008, Tempo, 384615
1, 139392, Tempo, 400000
1, 139584, Tempo, 428571
1, 140160, Tempo, 500000
1, 140736, Tempo, 375000
1, 145152, Tempo, 384615
1, 145536, Tempo, 400000
1, 145728, Tempo, 428571
1, 146304, Tempo, 500000
1, 146880, Tempo, 375000
1, 189696, Tempo, 384615
1, 190080, Tempo, 400000
1, 190272, Tempo, 428571
1, 190656, Tempo, 400000
1, 191232, Tempo, 428571
1, 191616, Tempo, 461538
1, 191808, Tempo, 500000
1, 191808, End_track
2, 0, Start_track
2, 0, Title_t, "Piano Right"
2, 0, Control_c, 0, 0, 0
2, 0, Program_c, 0, 0
2, 0, Control_c, 0, 7, 100
2, 0, Control_c, 0, 10, 72
2, 0, Control_c, 0, 91, 127
2, 960, Note_on_c, 0, 79, 70
2, 1148, Note_off_c, 0, 79, 100
2, 1152, Note_on_c, 0, 79, 70
2, 1216, Note_on_c, 0, 81, 70
2, 1276, Note_off_c, 0, 79, 100
2, 1280, Note_on_c, 0, 79, 70
2, 1340, Note_off_c, 0, 81, 100
2, 1344, Note_on_c, 0, 78, 70
2, 1404, Note_off_c, 0, 79, 100
2, 1436, Note_off_c, 0, 78, 100
2, 1440, Note_on_c, 0, 79, 70
2, 1532, Note_off_c, 0, 79, 100
2, 1536, Note_on_c, 0, 84, 70
2, 1728, Note_on_c, 0, 79, 70
2, 1916, Note_off_c, 0, 79, 100
2, 1920, Note_on_c, 0, 76, 70
2, 2108, Note_off_c, 0, 76, 100
2, 2112, Note_on_c, 0, 72, 70
2, 2300, Note_off_c, 0, 84, 100
2, 2300, Note_off_c, 0, 72, 100
2, 3072, Note_on_c, 0, 79, 70
2, 3260, Note_off_c, 0, 79, 100
2, 3264, Note_on_c, 0, 76, 70
2, 3452, Note_off_c, 0, 76, 100
2, 3456, Note_on_c, 0, 72, 70
2, 3644, Note_off_c, 0, 72, 100
2, 3648, Note_on_c, 0, 67, 70
2, 3836, Note_off_c, 0, 67, 100
2, 4608, Note_on_c, 0, 76, 70
2, 4796, Note_off_c, 0, 76, 100
2, 4800, Note_on_c, 0, 72, 73
2, 4988, Note_off_c, 0, 72, 100
2, 4992, Note_on_c, 0, 67, 77
2, 5180, Note_off_c, 0, 67, 100
2, 5184, Note_on_c, 0, 64, 81
2, 5372, Note_off_c, 0, 64, 100
2, 5376, Note_on_c, 0, 76, 85
2, 5564, Note_off_c, 0, 76, 100
2, 5568, Note_on_c, 0, 72, 89
2, 5756, Note_off_c, 0, 72, 100
2, 5760, Note_on_c, 0, 67, 93
2, 5948, Note_off_c, 0, 67, 100
2, 5952, Note_on_c, 0, 64, 97
2, 6140, Note_off_c, 0, 64, 100
2, 6144, Note_on_c, 0, 67, 100
2, 6192, Note_on_c, 0, 72, 100
2, 6240, Note_on_c, 0, 77, 100
2, 6908, Note_off_c, 0, 72, 100
2, 6912, Note_on_c, 0, 71, 81
2, 7100, Note_off_c, 0, 67, 100
2, 7100, Note_off_c, 0, 77, 100
2, 7100, Note_off_c, 0, 71, 100
2, 7104, Note_on_c, 0, 77, 70
2, 7292, Note_off_c, 0, 77, 100
2, 7296, Note_on_c, 0, 77, 70
2, 7360, Note_on_c, 0, 79, 70
2, 7420, Note_off_c, 0, 77, 100
2, 7424, Note_on_c, 0, 77, 70
2, 7484, Note_off_c, 0, 79, 100
2, 7488, Note_on_c, 0, 76, 70
2, 7548, Note_off_c, 0, 77, 100
2, 7580, Note_off_c, 0, 76, 100
2, 7584, Note_on_c, 0, 77, 70
2, 7676, Note_off_c, 0, 77, 100
2, 7680, Note_on_c, 0, 81, 70
2, 7868, Note_off_c, 0, 81, 100
2, 7872, Note_on_c, 0, 77, 70
2, 8060, Note_off_c, 0, 77, 100
2, 8064, Note_on_c, 0, 74, 70
2, 8252, Note_off_c, 0, 74, 100
2, 8256, Note_on_c, 0, 71, 70
2, 8444, Note_off_c, 0, 71, 100
2, 9216, Note_on_c, 0, 77, 70
2, 9404, Note_off_c, 0, 77, 100
2, 9408, Note_on_c, 0, 74, 70
2, 9596, Note_off_c, 0, 74, 100
2, 9600, Note_on_c, 0, 71, 70
2, 9788, Note_off_c, 0, 71, 100
2, 9792, Note_on_c, 0, 67, 70
2, 9980, Note_off_c, 0, 67, 100
2, 10752, Note_on_c, 0, 74, 70
2, 10940, Note_off_c, 0, 74, 100
2, 10944, Note_on_c, 0, 71, 73
2, 11132, Note_off_c, 0, 71, 100
2, 11136, Note_on_c, 0, 67, 77
2, 11324, Note_off_c, 0, 67, 100
2, 11328, Note_on_c, 0, 65, 81
2, 11516, Note_off_c, 0, 65, 100
2, 11520, Note_on_c, 0, 74, 85
2, 11708, Note_off_c, 0, 74, 100
2, 11712, Note_on_c, 0, 71, 89
2, 11900, Note_off_c, 0, 71, 100
2, 11904, Note_on_c, 0, 67, 93
2, 12092, Note_off_c, 0, 67, 100
2, 12096, Note_on_c, 0, 65, 97
2, 12284, Note_off_c, 0, 65, 100
2, 12288, Note_on_c, 0, 67, 100
2, 12336, Note_on_c, 0, 71, 100
2, 12384, Note_on_c, 0, 74, 100
2, 12432, Note_on_c, 0, 77, 100
2, 13052, Note_off_c, 0, 71, 100
2, 13052, Note_off_c, 0, 74, 100
2, 13052, Note_off_c, 0, 77, 100
2, 13056, Note_on_c, 0, 72, 80
2, 13056, Note_on_c, 0, 76, 80
2, 13244, Note_off_c, 0, 67, 100
2, 13244, Note_off_c, 0, 72, 100
2, 13244, Note_off_c, 0, 76, 100
2, 13248, Note_on_c, 0, 79, 70
2, 13436, Note_off_c, 0, 79, 100
2, 13440, Note_on_c, 0, 79, 70
2, 13504, Note_on_c, 0, 81, 70
2, 13564, Note_off_c, 0, 79, 100
2, 13568, Note_on_c, 0, 79, 70
2, 13628, Note_off_c, 0, 81, 100
2, 13632, Note_on_c, 0, 78, 70
2, 13692, Note_off_c, 0, 79, 100
2, 13724, Note_off_c, 0, 78, 100
2, 13728, Note_on_c, 0, 79, 70
2, 13820, Note_off_c, 0, 79, 100
2, 13824, Note_on_c, 0, 84, 70
2, 14332, Note_off_c, 0, 84, 100
2, 14336, Note_on_c, 0, 79, 70
2, 14460, Note_off_c, 0, 79, 100
2, 14464, Note_on_c, 0, 83, 70
2, 14588, Note_off_c, 0, 83, 100
2, 14592, Note_on_c, 0, 84, 70
2, 14716, Note_off_c, 0, 84, 100
2, 14720, Note_on_c, 0, 83, 70
2, 14844, Note_off_c, 0, 83, 100
2, 14848, Note_on_c, 0, 81, 70
2, 14972, Note_off_c, 0, 81, 100
2, 14976, Note_on_c, 0, 79, 70
2, 15100, Note_off_c, 0, 79, 100
2, 15104, Note_on_c, 0, 77, 70
2, 15228, Note_off_c, 0, 77, 100
2, 15232, Note_on_c, 0, 76, 70
2, 15356, Note_off_c, 0, 76, 100
2, 15360, Note_on_c, 0, 81, 70
2, 15868, Note_off_c, 0, 81, 100
2, 15872, Note_on_c, 0, 80, 70
2, 15996, Note_off_c, 0, 80, 100
2, 16000, Note_on_c, 0, 83, 70
2, 16124, Note_off_c, 0, 83, 100
2, 16128, Note_on_c, 0, 81, 70
2, 16252, Note_off_c, 0, 81, 100
2, 16256, Note_on_c, 0, 79, 70
2, 16380, Note_off_c, 0, 79, 100
2, 16384, Note_on_c, 0, 77, 70
2, 16508, Note_off_c, 0, 77, 100
2, 16512, Note_on_c, 0, 76, 70
2, 16636, Note_off_c, 0, 76, 100
2, 16640, Note_on_c, 0, 77, 70
2, 16764, Note_off_c, 0, 77, 100
2, 16768, Note_on_c, 0, 74, 70
2, 16892, Note_off_c, 0, 74, 100
2, 16896, Note_on_c, 0, 72, 70
2, 17404, Note_off_c, 0, 72, 100
2, 17408, Note_on_c, 0, 76, 70
2, 17532, Note_off_c, 0, 76, 100
2, 17536, Note_on_c, 0, 72, 70
2, 17660, Note_off_c, 0, 72, 100
2, 17664, Note_on_c, 0, 71, 70
2, 18172, Note_off_c, 0, 71, 100
2, 18176, Note_on_c, 0, 74, 70
2, 18300, Note_off_c, 0, 74, 100
2, 18304, Note_on_c, 0, 79, 70
2, 18428, Note_off_c, 0, 79, 100
2, 18432, Note_on_c, 0, 77, 70
2, 18940, Note_off_c, 0, 77, 100
2, 18944, Note_on_c, 0, 76, 70
2, 19068, Note_off_c, 0, 76, 100
2, 19072, Note_on_c, 0, 77, 74
2, 19196, Note_off_c, 0, 77, 100
2, 19200, Note_on_c, 0, 78, 78
2, 19324, Note_off_c, 0, 78, 100
2, 19328, Note_on_c, 0, 79, 83
2, 19452, Note_off_c, 0, 79, 100
2, 19456, Note_on_c, 0, 80, 87
2, 19580, Note_off_c, 0, 80, 100
2, 19584, Note_on_c, 0, 81, 92
2, 19708, Note_off_c, 0, 81, 100
2, 19712, Note_on_c, 0, 82, 96
2, 19836, Note_off_c, 0, 82, 100
2, 19840, Note_on_c, 0, 83, 100
2, 19964, Note_off_c, 0, 83, 100
2, 19968, Note_on_c, 0, 84, 100
2, 20476, Note_off_c, 0, 84, 100
2, 20480, Note_on_c, 0, 79, 100
2, 20604, Note_off_c, 0, 79, 100
2, 20608, Note_on_c, 0, 83, 100
2, 20732, Note_off_c, 0, 83, 100
2, 20736, Note_on_c, 0, 84, 100
2, 20860, Note_off_c, 0, 84, 100
2, 20864, Note_on_c, 0, 83, 100
2, 20988, Note_off_c, 0, 83, 100
2, 20992, Note_on_c, 0, 81, 100
2, 21116, Note_off_c, 0, 81, 100
2, 21120, Note_on_c, 0, 79, 100
2, 21244, Note_off_c, 0, 79, 100
2, 21248, Note_on_c, 0, 77, 100
2, 21372, Note_off_c, 0, 77, 100
2, 21376, Note_on_c, 0, 76, 100
2, 21500, Note_off_c, 0, 76, 100
2, 21504, Note_on_c, 0, 81, 100
2, 22012, Note_off_c, 0, 81, 100
2, 22016, Note_on_c, 0, 80, 100
2, 22140, Note_off_c, 0, 80, 100
2, 22144, Note_on_c, 0, 83, 100
2, 22268, Note_off_c, 0, 83, 100
2, 22272, Note_on_c, 0, 81, 100
2, 22396, Note_off_c, 0, 81, 100
2, 22400, Note_on_c, 0, 79, 100
2, 22524, Note_off_c, 0, 79, 100
2, 22528, Note_on_c, 0, 77, 100
2, 22652, Note_off_c, 0, 77, 100
2, 22656, Note_on_c, 0, 76, 100
2, 22780, Note_off_c, 0, 76, 100
2, 22784, Note_on_c, 0, 77, 100
2, 22908, Note_off_c, 0, 77, 100
2, 22912, Note_on_c, 0, 74, 100
2, 23036, Note_off_c, 0, 74, 100
2, 23040, Note_on_c, 0, 79, 110
2, 23548, Note_off_c, 0, 79, 100
2, 23552, Note_on_c, 0, 76, 110
2, 23676, Note_off_c, 0, 76, 100
2, 23680, Note_on_c, 0, 72, 110
2, 23804, Note_off_c, 0, 72, 100
2, 23808, Note_on_c, 0, 77, 110
2, 24316, Note_off_c, 0, 77, 100
2, 24320, Note_on_c, 0, 74, 110
2, 24444, Note_off_c, 0, 74, 100
2, 24448, Note_on_c, 0, 71, 110
2, 24572, Note_off_c, 0, 71, 100
2, 24576, Note_on_c, 0, 72, 110
2, 24956, Note_off_c, 0, 72, 100
2, 25536, Note_on_c, 0, 72, 110
2, 25724, Note_off_c, 0, 72, 100
2, 25728, Note_on_c, 0, 72, 110
2, 25792, Note_on_c, 0, 74, 110
2, 25852, Note_off_c, 0, 72, 100
2, 25856, Note_on_c, 0, 72, 110
2, 25916, Note_off_c, 0, 74, 100
2, 25920, Note_on_c, 0, 71, 110
2, 25980, Note_off_c, 0, 72, 100
2, 26016, Note_on_c, 0, 72, 110
2, 26108, Note_off_c, 0, 71, 100
2, 26108, Note_off_c, 0, 72, 100
2, 26112, Note_on_c, 0, 78, 100
2, 26492, Note_off_c, 0, 78, 100
2, 27072, Note_on_c, 0, 72, 110
2, 27260, Note_off_c, 0, 72, 100
2, 27264, Note_on_c, 0, 72, 110
2, 27328, Note_on_c, 0, 74, 110
2, 27388, Note_off_c, 0, 72, 100
2, 27392, Note_on_c, 0, 72, 110
2, 27452, Note_off_c, 0, 74, 100
2, 27456, Note_on_c, 0, 71, 110
2, 27516, Note_off_c, 0, 72, 100
2, 27552, Note_on_c, 0, 72, 110
2, 27644, Note_off_c, 0, 71, 100
2, 27644, Note_off_c, 0, 72, 100
2, 27648, Note_on_c, 0, 84, 100
2, 28156, Note_off_c, 0, 84, 100
2, 28160, Note_on_c, 0, 83, 100
2, 28284, Note_off_c, 0, 83, 100
2, 28288, Note_on_c, 0, 81, 100
2, 28412, Note_off_c, 0, 81, 100
2, 28416, Note_on_c, 0, 79, 100
2, 28540, Note_off_c, 0, 79, 100
2, 28544, Note_on_c, 0, 78, 100
2, 28668, Note_off_c, 0, 78, 100
2, 28672, Note_on_c, 0, 76, 100
2, 28796, Note_off_c, 0, 76, 100
2, 28800, Note_on_c, 0, 74, 100
2, 28924, Note_off_c, 0, 74, 100
2, 28928, Note_on_c, 0, 76, 100
2, 29052, Note_off_c, 0, 76, 100
2, 29056, Note_on_c, 0, 72, 100
2, 29180, Note_off_c, 0, 72, 100
2, 29312, Note_on_c, 0, 71, 91
2, 29440, Note_on_c, 0, 74, 81
2, 29564, Note_off_c, 0, 71, 100
2, 29692, Note_off_c, 0, 74, 100
2, 29696, Note_on_c, 0, 79, 70
2, 29824, Note_on_c, 0, 74, 70
2, 29948, Note_off_c, 0, 79, 100
2, 30076, Note_off_c, 0, 74, 100
2, 30080, Note_on_c, 0, 79, 70
2, 30208, Note_on_c, 0, 74, 70
2, 30332, Note_off_c, 0, 79, 100
2, 30460, Note_off_c, 0, 74, 100
2, 30464, Note_on_c, 0, 83, 70
2, 30592, Note_on_c, 0, 74, 70
2, 30716, Note_off_c, 0, 83, 100
2, 30716, Note_off_c, 0, 74, 100
2, 30848, Note_on_c, 0, 84, 70
2, 30976, Note_on_c, 0, 74, 70
2, 31100, Note_off_c, 0, 84, 100
2, 31228, Note_off_c, 0, 74, 100
2, 31232, Note_on_c, 0, 81, 70
2, 31360, Note_on_c, 0, 74, 70
2, 31484, Note_off_c, 0, 81, 100
2, 31612, Note_off_c, 0, 74, 100
2, 31616, Note_on_c, 0, 78, 70
2, 31744, Note_on_c, 0, 74, 70
2, 31868, Note_off_c, 0, 78, 100
2, 31996, Note_off_c, 0, 74, 100
2, 32000, Note_on_c, 0, 81, 70
2, 32128, Note_on_c, 0, 74, 70
2, 32252, Note_off_c, 0, 81, 100
2, 32252, Note_off_c, 0, 74, 100
2, 32384, Note_on_c, 0, 79, 72
2, 32512, Note_on_c, 0, 74, 75
2, 32636, Note_off_c, 0, 79, 100
2, 32764, Note_off_c, 0, 74, 100
2, 32768, Note_on_c, 0, 83, 81
2, 32896, Note_on_c, 0, 74, 84
2, 33020, Note_off_c, 0, 83, 100
2, 33148, Note_off_c, 0, 74, 100
2, 33152, Note_on_c, 0, 81, 89
2, 33280, Note_on_c, 0, 74, 92
2, 33404, Note_off_c, 0, 81, 100
2, 33532, Note_off_c, 0, 74, 100
2, 33536, Note_on_c, 0, 83, 98
2, 33664, Note_on_c, 0, 74, 100
2, 33788, Note_off_c, 0, 83, 100
2, 33788, Note_off_c, 0, 74, 100
2, 33920, Note_on_c, 0, 84, 98
2, 34048, Note_on_c, 0, 74, 95
2, 34172, Note_off_c, 0, 84, 100
2, 34300, Note_off_c, 0, 74, 100
2, 34304, Note_on_c, 0, 81, 89
2, 34432, Note_on_c, 0, 74, 86
2, 34556, Note_off_c, 0, 81, 100
2, 34684, Note_off_c, 0, 74, 100
2, 34688, Note_on_c, 0, 78, 81
2, 34816, Note_on_c, 0, 74, 78
2, 34940, Note_off_c, 0, 78, 100
2, 35068, Note_off_c, 0, 74, 100
2, 35072, Note_on_c, 0, 81, 72
2, 35200, Note_on_c, 0, 74, 70
2, 35324, Note_off_c, 0, 81, 100
2, 35324, Note_off_c, 0, 74, 100
2, 35456, Note_on_c, 0, 79, 70
2, 35584, Note_on_c, 0, 74, 70
2, 35708, Note_off_c, 0, 79, 100
2, 35836, Note_off_c, 0, 74, 100
2, 35840, Note_on_c, 0, 79, 71
2, 35968, Note_on_c, 0, 74, 73
2, 36092, Note_off_c, 0, 79, 100
2, 36220, Note_off_c, 0, 74, 100
2, 36224, Note_on_c, 0, 83, 76
2, 36352, Note_on_c, 0, 76, 77
2, 36476, Note_off_c, 0, 83, 100
2, 36604, Note_off_c, 0, 76, 100
2, 36608, Note_on_c, 0, 81, 80
2, 36736, Note_on_c, 0, 76, 82
2, 36860, Note_off_c, 0, 81, 100
2, 36860, Note_off_c, 0, 76, 100
2, 36992, Note_on_c, 0, 84, 85
2, 37120, Note_on_c, 0, 77, 87
2, 37244, Note_off_c, 0, 84, 100
2, 37372, Note_off_c, 0, 77, 100
2, 37376, Note_on_c, 0, 83, 90
2, 37504, Note_on_c, 0, 77, 91
2, 37628, Note_off_c, 0, 83, 100
2, 37756, Note_off_c, 0, 77, 100
2, 37760, Note_on_c, 0, 84, 94
2, 37888, Note_on_c, 0, 77, 96
2, 38012, Note_off_c, 0, 84, 100
2, 38140, Note_off_c, 0, 77, 100
2, 38144, Note_on_c, 0, 83, 99
2, 38272, Note_on_c, 0, 77, 100
2, 38396, Note_off_c, 0, 83, 100
2, 38396, Note_off_c, 0, 77, 100
2, 38528, Note_on_c, 0, 79, 88
2, 38656, Note_on_c, 0, 83, 75
2, 38780, Note_off_c, 0, 79, 100
2, 38908, Note_off_c, 0, 83, 100
2, 38912, Note_on_c, 0, 78, 70
2, 39040, Note_on_c, 0, 83, 70
2, 39164, Note_off_c, 0, 78, 100
2, 39292, Note_off_c, 0, 83, 100
2, 39296, Note_on_c, 0, 79, 70
2, 39424, Note_on_c, 0, 83, 70
2, 39548, Note_off_c, 0, 79, 100
2, 39676, Note_off_c, 0, 83, 100
2, 39680, Note_on_c, 0, 78, 70
2, 39808, Note_on_c, 0, 83, 70
2, 39932, Note_off_c, 0, 78, 100
2, 39932, Note_off_c, 0, 83, 100
2, 40064, Note_on_c, 0, 79, 70
2, 40192, Note_on_c, 0, 83, 70
2, 40316, Note_off_c, 0, 79, 100
2, 40444, Note_off_c, 0, 83, 100
2, 40448, Note_on_c, 0, 76, 70
2, 40576, Note_on_c, 0, 81, 70
2, 40700, Note_off_c, 0, 76, 100
2, 40828, Note_off_c, 0, 81, 100
2, 40832, Note_on_c, 0, 71, 70
2, 40960, Note_on_c, 0, 79, 70
2, 41084, Note_off_c, 0, 71, 100
2, 41212, Note_off_c, 0, 79, 100
2, 41216, Note_on_c, 0, 69, 70
2, 41344, Note_on_c, 0, 78, 70
2, 41468, Note_off_c, 0, 69, 100
2, 41468, Note_off_c, 0, 78, 100
2, 41600, Note_on_c, 0, 71, 80
2, 41728, Note_on_c, 0, 79, 90
2, 41852, Note_off_c, 0, 71, 100
2, 41980, Note_off_c, 0, 79, 100
2, 41984, Note_on_c, 0, 71, 110
2, 41984, Note_on_c, 0, 78, 110
2, 42112, Note_on_c, 0, 83, 110
2, 42236, Note_off_c, 0, 71, 100
2, 42236, Note_off_c, 0, 78, 100
2, 42364, Note_off_c, 0, 83, 100
2, 42368, Note_on_c, 0, 71, 110
2, 42368, Note_on_c, 0, 79, 110
2, 42496, Note_on_c, 0, 83, 110
2, 42620, Note_off_c, 0, 71, 100
2, 42620, Note_off_c, 0, 79, 100
2, 42748, Note_off_c, 0, 83, 100
2, 42752, Note_on_c, 0, 71, 110
2, 42752, Note_on_c, 0, 78, 110
2, 42880, Note_on_c, 0, 83, 110
2, 43004, Note_off_c, 0, 71, 100
2, 43004, Note_off_c, 0, 78, 100
2, 43004, Note_off_c, 0, 83, 100
2, 43136, Note_on_c, 0, 71, 110
2, 43136, Note_on_c, 0, 79, 110
2, 43264, Note_on_c, 0, 83, 110
2, 43388, Note_off_c, 0, 71, 100
2, 43388, Note_off_c, 0, 79, 100
2, 43516, Note_off_c, 0, 83, 100
2, 43520, Note_on_c, 0, 76, 110
2, 43520, Note_on_c, 0, 81, 110
2, 43648, Note_on_c, 0, 84, 110
2, 43772, Note_off_c, 0, 76, 100
2, 43772, Note_off_c, 0, 81, 100
2, 43900, Note_off_c, 0, 84, 100
2, 43904, Note_on_c, 0, 74, 110
2, 43904, Note_on_c, 0, 79, 110
2, 44032, Note_on_c, 0, 83, 110
2, 44156, Note_off_c, 0, 74, 100
2, 44156, Note_off_c, 0, 79, 100
2, 44284, Note_off_c, 0, 83, 100
2, 44288, Note_on_c, 0, 72, 110
2, 44288, Note_on_c, 0, 78, 110
2, 44416, Note_on_c, 0, 81, 110
2, 44540, Note_off_c, 0, 72, 100
2, 44540, Note_off_c, 0, 78, 100
2, 44540, Note_off_c, 0, 81, 100
2, 44672, Note_on_c, 0, 71, 110
2, 44800, Note_on_c, 0, 79, 110
2, 44924, Note_off_c, 0, 71, 100
2, 45052, Note_off_c, 0, 79, 100
2, 45056, Note_on_c, 0, 71, 110
2, 45184, Note_on_c, 0, 77, 110
2, 45308, Note_off_c, 0, 71, 100
2, 45436, Note_off_c, 0, 77, 100
2, 45440, Note_on_c, 0, 72, 108
2, 45568, Note_on_c, 0, 76, 106
2, 45692, Note_off_c, 0, 72, 100
2, 45820, Note_off_c, 0, 76, 100
2, 45824, Note_on_c, 0, 72, 101
2, 45952, Note_on_c, 0, 78, 99
2, 46076, Note_off_c, 0, 72, 100
2, 46076, Note_off_c, 0, 78, 100
2, 46208, Note_on_c, 0, 71, 95
2, 46336, Note_on_c, 0, 79, 92
2, 46460, Note_off_c, 0, 71, 100
2, 46588, Note_off_c, 0, 79, 100
2, 46592, Note_on_c, 0, 71, 88
2, 46720, Note_on_c, 0, 77, 85
2, 46844, Note_off_c, 0, 71, 100
2, 46972, Note_off_c, 0, 77, 100
2, 46976, Note_on_c, 0, 72, 81
2, 47104, Note_on_c, 0, 76, 79
2, 47228, Note_off_c, 0, 72, 100
2, 47356, Note_off_c, 0, 76, 100
2, 47360, Note_on_c, 0, 72, 74
2, 47488, Note_on_c, 0, 78, 72
2, 47612, Note_off_c, 0, 72, 100
2, 47612, Note_off_c, 0, 78, 100
2, 47616, Note_on_c, 0, 79, 70
2, 47744, Note_on_c, 0, 74, 70
2, 47868, Note_off_c, 0, 79, 100
2, 47872, Note_on_c, 0, 71, 70
2, 47996, Note_off_c, 0, 74, 100
2, 48000, Note_on_c, 0, 67, 70
2, 48124, Note_off_c, 0, 71, 100
2, 48128, Note_on_c, 0, 62, 70
2, 48252, Note_off_c, 0, 67, 100
2, 48256, Note_on_c, 0, 59, 70
2, 48380, Note_off_c, 0, 62, 100
2, 48384, Note_on_c, 0, 67, 70
2, 48508, Note_off_c, 0, 59, 100
2, 48512, Note_on_c, 0, 62, 70
2, 48636, Note_off_c, 0, 67, 100
2, 48640, Note_on_c, 0, 59, 70
2, 48764, Note_off_c, 0, 62, 100
2, 48892, Note_off_c, 0, 59, 100
2, 50112, Note_on_c, 0, 79, 70
2, 50300, Note_off_c, 0, 79, 100
2, 50304, Note_on_c, 0, 79, 70
2, 50368, Note_on_c, 0, 81, 70
2, 50428, Note_off_c, 0, 79, 100
2, 50432, Note_on_c, 0, 79, 70
2, 50492, Note_off_c, 0, 81, 100
2, 50496, Note_on_c, 0, 78, 70
2, 50556, Note_off_c, 0, 79, 100
2, 50588, Note_off_c, 0, 78, 100
2, 50592, Note_on_c, 0, 79, 70
2, 50684, Note_off_c, 0, 79, 100
2, 50688, Note_on_c, 0, 84, 70
2, 50880, Note_on_c, 0, 79, 70
2, 51068, Note_off_c, 0, 79, 100
2, 51072, Note_on_c, 0, 76, 70
2, 51260, Note_off_c, 0, 76, 100
2, 51264, Note_on_c, 0, 72, 70
2, 51452, Note_off_c, 0, 84, 100
2, 51452, Note_off_c, 0, 72, 100
2, 52224, Note_on_c, 0, 79, 70
2, 52412, Note_off_c, 0, 79, 100
2, 52416, Note_on_c, 0, 76, 70
2, 52604, Note_off_c, 0, 76, 100
2, 52608, Note_on_c, 0, 72, 70
2, 52796, Note_off_c, 0, 72, 100
2, 52800, Note_on_c, 0, 67, 70
2, 52988, Note_off_c, 0, 67, 100
2, 53760, Note_on_c, 0, 76, 70
2, 53948, Note_off_c, 0, 76, 100
2, 53952, Note_on_c, 0, 72, 73
2, 54140, Note_off_c, 0, 72, 100
2, 54144, Note_on_c, 0, 67, 77
2, 54332, Note_off_c, 0, 67, 100
2, 54336, Note_on_c, 0, 64, 81
2, 54524, Note_off_c, 0, 64, 100
2, 54528, Note_on_c, 0, 76, 85
2, 54716, Note_off_c, 0, 76, 100
2, 54720, Note_on_c, 0, 72, 89
2, 54908, Note_off_c, 0, 72, 100
2, 54912, Note_on_c, 0, 67, 93
2, 55100, Note_off_c, 0, 67, 100
2, 55104, Note_on_c, 0, 64, 97
2, 55292, Note_off_c, 0, 64, 100
2, 55296, Note_on_c, 0, 67, 100
2, 55344, Note_on_c, 0, 72, 100
2, 55392, Note_on_c, 0, 77, 100
2, 56060, Note_off_c, 0, 72, 100
2, 56064, Note_on_c, 0, 71, 81
2, 56252, Note_off_c, 0, 67, 100
2, 56252, Note_off_c, 0, 77, 100
2, 56252, Note_off_c, 0, 71, 100
2, 56256, Note_on_c, 0, 77, 70
2, 56444, Note_off_c, 0, 77, 100
2, 56448, Note_on_c, 0, 77, 70
2, 56512, Note_on_c, 0, 79, 70
2, 56572, Note_off_c, 0, 77, 100
2, 56576, Note_on_c, 0, 77, 70
2, 56636, Note_off_c, 0, 79, 100
2, 56640, Note_on_c, 0, 76, 70
2, 56700, Note_off_c, 0, 77, 100
2, 56732, Note_off_c, 0, 76, 100
2, 56736, Note_on_c, 0, 77, 70
2, 56828, Note_off_c, 0, 77, 100
2, 56832, Note_on_c, 0, 81, 70
2, 57020, Note_off_c, 0, 81, 100
2, 57024, Note_on_c, 0, 77, 70
2, 57212, Note_off_c, 0, 77, 100
2, 57216, Note_on_c, 0, 74, 70
2, 57404, Note_off_c, 0, 74, 100
2, 57408, Note_on_c, 0, 71, 70
2, 57596, Note_off_c, 0, 71, 100
2, 58368, Note_on_c, 0, 77, 70
2, 58556, Note_off_c, 0, 77, 100
2, 58560, Note_on_c, 0, 74, 70
2, 58748, Note_off_c, 0, 74, 100
2, 58752, Note_on_c, 0, 71, 70
2, 58940, Note_off_c, 0, 71, 100
2, 58944, Note_on_c, 0, 67, 70
2, 59132, Note_off_c, 0, 67, 100
2, 59904, Note_on_c, 0, 74, 70
2, 60092, Note_off_c, 0, 74, 100
2, 60096, Note_on_c, 0, 71, 73
2, 60284, Note_off_c, 0, 71, 100
2, 60288, Note_on_c, 0, 67, 77
2, 60476, Note_off_c, 0, 67, 100
2, 60480, Note_on_c, 0, 65, 81
2, 60668, Note_off_c, 0, 65, 100
2, 60672, Note_on_c, 0, 74, 85
2, 60860, Note_off_c, 0, 74, 100
2, 60864, Note_on_c, 0, 71, 89
2, 61052, Note_off_c, 0, 71, 100
2, 61056, Note_on_c, 0, 67, 93
2, 61244, Note_off_c, 0, 67, 100
2, 61248, Note_on_c, 0, 65, 97
2, 61436, Note_off_c, 0, 65, 100
2, 61440, Note_on_c, 0, 67, 100
2, 61488, Note_on_c, 0, 71, 100
2, 61536, Note_on_c, 0, 74, 100
2, 61584, Note_on_c, 0, 77, 100
2, 62204, Note_off_c, 0, 71, 100
2, 62204, Note_off_c, 0, 74, 100
2, 62204, Note_off_c, 0, 77, 100
2, 62208, Note_on_c, 0, 72, 80
2, 62208, Note_on_c, 0, 76, 80
2, 62396, Note_off_c, 0, 67, 100
2, 62396, Note_off_c, 0, 72, 100
2, 62396, Note_off_c, 0, 76, 100
2, 62400, Note_on_c, 0, 79, 70
2, 62588, Note_off_c, 0, 79, 100
2, 62592, Note_on_c, 0, 79, 70
2, 62656, Note_on_c, 0, 81, 70
2, 62716, Note_off_c, 0, 79, 100
2, 62720, Note_on_c, 0, 79, 70
2, 62780, Note_off_c, 0, 81, 100
2, 62784, Note_on_c, 0, 78, 70
2, 62844, Note_off_c, 0, 79, 100
2, 62876, Note_off_c, 0, 78, 100
2, 62880, Note_on_c, 0, 79, 70
2, 62972, Note_off_c, 0, 79, 100
2, 62976, Note_on_c, 0, 84, 70
2, 63484, Note_off_c, 0, 84, 100
2, 63488, Note_on_c, 0, 79, 70
2, 63612, Note_off_c, 0, 79, 100
2, 63616, Note_on_c, 0, 83, 70
2, 63740, Note_off_c, 0, 83, 100
2, 63744, Note_on_c, 0, 84, 70
2, 63868, Note_off_c, 0, 84, 100
2, 63872, Note_on_c, 0, 83, 70
2, 63996, Note_off_c, 0, 83, 100
2, 64000, Note_on_c, 0, 81, 70
2, 64124, Note_off_c, 0, 81, 100
2, 64128, Note_on_c, 0, 79, 70
2, 64252, Note_off_c, 0, 79, 100
2, 64256, Note_on_c, 0, 77, 70
2, 64380, Note_off_c, 0, 77, 100
2, 64384, Note_on_c, 0, 76, 70
2, 64508, Note_off_c, 0, 76, 100
2, 64512, Note_on_c, 0, 81, 70
2, 65020, Note_off_c, 0, 81, 100
2, 65024, Note_on_c, 0, 80, 70
2, 65148, Note_off_c, 0, 80, 100
2, 65152, Note_on_c, 0, 83, 70
2, 65276, Note_off_c, 0, 83, 100
2, 65280, Note_on_c, 0, 81, 70
2, 65404, Note_off_c, 0, 81, 100
2, 65408, Note_on_c, 0, 79, 70
2, 65532, Note_off_c, 0, 79, 100
2, 65536, Note_on_c, 0, 77, 70
2, 65660, Note_off_c, 0, 77, 100
2, 65664, Note_on_c, 0, 76, 70
2, 65788, Note_off_c, 0, 76, 100
2, 65792, Note_on_c, 0, 77, 70
2, 65916, Note_off_c, 0, 77, 100
2, 65920, Note_on_c, 0, 74, 70
2, 66044, Note_off_c, 0, 74, 100
2, 66048, Note_on_c, 0, 72, 70
2, 66556, Note_off_c, 0, 72, 100
2, 66560, Note_on_c, 0, 76, 70
2, 66684, Note_off_c, 0, 76, 100
2, 66688, Note_on_c, 0, 72, 70
2, 66812, Note_off_c, 0, 72, 100
2, 66816, Note_on_c, 0, 71, 70
2, 67324, Note_off_c, 0, 71, 100
2, 67328, Note_on_c, 0, 74, 70
2, 67452, Note_off_c, 0, 74, 100
2, 67456, Note_on_c, 0, 79, 70
2, 67580, Note_off_c, 0, 79, 100
2, 67584, Note_on_c, 0, 77, 70
2, 68092, Note_off_c, 0, 77, 100
2, 68096, Note_on_c, 0, 76, 70
2, 68220, Note_off_c, 0, 76, 100
2, 68224, Note_on_c, 0, 77, 74
2, 68348, Note_off_c, 0, 77, 100
2, 68352, Note_on_c, 0, 78, 78
2, 68476, Note_off_c, 0, 78, 100
2, 68480, Note_on_c, 0, 79, 83
2, 68604, Note_off_c, 0, 79, 100
2, 68608, Note_on_c, 0, 80, 87
2, 68732, Note_off_c, 0, 80, 100
2, 68736, Note_on_c, 0, 81, 92
2, 68860, Note_off_c, 0, 81, 100
2, 68864, Note_on_c, 0, 82, 96
2, 68988, Note_off_c, 0, 82, 100
2, 68992, Note_on_c, 0, 83, 100
2, 69116, Note_off_c, 0, 83, 100
2, 69120, Note_on_c, 0, 84, 100
2, 69628, Note_off_c, 0, 84, 100
2, 69632, Note_on_c, 0, 79, 100
2, 69756, Note_off_c, 0, 79, 100
2, 69760, Note_on_c, 0, 83, 100
2, 69884, Note_off_c, 0, 83, 100
2, 69888, Note_on_c, 0, 84, 100
2, 70012, Note_off_c, 0, 84, 100
2, 70016, Note_on_c, 0, 83, 100
2, 70140, Note_off_c, 0, 83, 100
2, 70144, Note_on_c, 0, 81, 100
2, 70268, Note_off_c, 0, 81, 100
2, 70272, Note_on_c, 0, 79, 100
2, 70396, Note_off_c, 0, 79, 100
2, 70400, Note_on_c, 0, 77, 100
2, 70524, Note_off_c, 0, 77, 100
2, 70528, Note_on_c, 0, 76, 100
2, 70652, Note_off_c, 0, 76, 100
2, 70656, Note_on_c, 0, 81, 100
2, 71164, Note_off_c, 0, 81, 100
2, 71168, Note_on_c, 0, 80, 100
2, 71292, Note_off_c, 0, 80, 100
2, 71296, Note_on_c, 0, 83, 100
2, 71420, Note_off_c, 0, 83, 100
2, 71424, Note_on_c, 0, 81, 100
2, 71548, Note_off_c, 0, 81, 100
2, 71552, Note_on_c, 0, 79, 100
2, 71676, Note_off_c, 0, 79, 100
2, 71680, Note_on_c, 0, 77, 100
2, 71804, Note_off_c, 0, 77, 100
2, 71808, Note_on_c, 0, 76, 100
2, 71932, Note_off_c, 0, 76, 100
2, 71936, Note_on_c, 0, 77, 100
2, 72060, Note_off_c, 0, 77, 100
2, 72064, Note_on_c, 0, 74, 100
2, 72188, Note_off_c, 0, 74, 100
2, 72192, Note_on_c, 0, 79, 110
2, 72700, Note_off_c, 0, 79, 100
2, 72704, Note_on_c, 0, 76, 110
2, 72828, Note_off_c, 0, 76, 100
2, 72832, Note_on_c, 0, 72, 110
2, 72956, Note_off_c, 0, 72, 100
2, 72960, Note_on_c, 0, 77, 110
2, 73468, Note_off_c, 0, 77, 100
2, 73472, Note_on_c, 0, 74, 110
2, 73596, Note_off_c, 0, 74, 100
2, 73600, Note_on_c, 0, 71, 110
2, 73724, Note_off_c, 0, 71, 100
2, 73728, Note_on_c, 0, 72, 110
2, 74108, Note_off_c, 0, 72, 100
2, 74688, Note_on_c, 0, 72, 110
2, 74876, Note_off_c, 0, 72, 100
2, 74880, Note_on_c, 0, 72, 110
2, 74944, Note_on_c, 0, 74, 110
2, 75004, Note_off_c, 0, 72, 100
2, 75008, Note_on_c, 0, 72, 110
2, 75068, Note_off_c, 0, 74, 100
2, 75072, Note_on_c, 0, 71, 110
2, 75132, Note_off_c, 0, 72, 100
2, 75168, Note_on_c, 0, 72, 110
2, 75260, Note_off_c, 0, 71, 100
2, 75260, Note_off_c, 0, 72, 100
2, 75264, Note_on_c, 0, 78, 100
2, 75644, Note_off_c, 0, 78, 100
2, 76224, Note_on_c, 0, 72, 110
2, 76412, Note_off_c, 0, 72, 100
2, 76416, Note_on_c, 0, 72, 110
2, 76480, Note_on_c, 0, 74, 110
2, 76540, Note_off_c, 0, 72, 100
2, 76544, Note_on_c, 0, 72, 110
2, 76604, Note_off_c, 0, 74, 100
2, 76608, Note_on_c, 0, 71, 110
2, 76668, Note_off_c, 0, 72, 100
2, 76704, Note_on_c, 0, 72, 110
2, 76796, Note_off_c, 0, 71, 100
2, 76796, Note_off_c, 0, 72, 100
2, 76800, Note_on_c, 0, 84, 100
2, 77308, Note_off_c, 0, 84, 100
2, 77312, Note_on_c, 0, 83, 100
2, 77436, Note_off_c, 0, 83, 100
2, 77440, Note_on_c, 0, 81, 100
2, 77564, Note_off_c, 0, 81, 100
2, 77568, Note_on_c, 0, 79, 100
2, 77692, Note_off_c, 0, 79, 100
2, 77696, Note_on_c, 0, 78, 100
2, 77820, Note_off_c, 0, 78, 100
2, 77824, Note_on_c, 0, 76, 100
2, 77948, Note_off_c, 0, 76, 100
2, 77952, Note_on_c, 0, 74, 100
2, 78076, Note_off_c, 0, 74, 100
2, 78080, Note_on_c, 0, 76, 100
2, 78204, Note_off_c, 0, 76, 100
2, 78208, Note_on_c, 0, 72, 100
2, 78332, Note_off_c, 0, 72, 100
2, 78464, Note_on_c, 0, 71, 91
2, 78592, Note_on_c, 0, 74, 81
2, 78716, Note_off_c, 0, 71, 100
2, 78844, Note_off_c, 0, 74, 100
2, 78848, Note_on_c, 0, 79, 70
2, 78976, Note_on_c, 0, 74, 70
2, 79100, Note_off_c, 0, 79, 100
2, 79228, Note_off_c, 0, 74, 100
2, 79232, Note_on_c, 0, 79, 70
2, 79360, Note_on_c, 0, 74, 70
2, 79484, Note_off_c, 0, 79, 100
2, 79612, Note_off_c, 0, 74, 100
2, 79616, Note_on_c, 0, 83, 70
2, 79744, Note_on_c, 0, 74, 70
2, 79868, Note_off_c, 0, 83, 100
2, 79868, Note_off_c, 0, 74, 100
2, 80000, Note_on_c, 0, 84, 70
2, 80128, Note_on_c, 0, 74, 70
2, 80252, Note_off_c, 0, 84, 100
2, 80380, Note_off_c, 0, 74, 100
2, 80384, Note_on_c, 0, 81, 70
2, 80512, Note_on_c, 0, 74, 70
2, 80636, Note_off_c, 0, 81, 100
2, 80764, Note_off_c, 0, 74, 100
2, 80768, Note_on_c, 0, 78, 70
2, 80896, Note_on_c, 0, 74, 70
2, 81020, Note_off_c, 0, 78, 100
2, 81148, Note_off_c, 0, 74, 100
2, 81152, Note_on_c, 0, 81, 70
2, 81280, Note_on_c, 0, 74, 70
2, 81404, Note_off_c, 0, 81, 100
2, 81404, Note_off_c, 0, 74, 100
2, 81536, Note_on_c, 0, 79, 72
2, 81664, Note_on_c, 0, 74, 75
2, 81788, Note_off_c, 0, 79, 100
2, 81916, Note_off_c, 0, 74, 100
2, 81920, Note_on_c, 0, 83, 81
2, 82048, Note_on_c, 0, 74, 84
2, 82172, Note_off_c, 0, 83, 100
2, 82300, Note_off_c, 0, 74, 100
2, 82304, Note_on_c, 0, 81, 89
2, 82432, Note_on_c, 0, 74, 92
2, 82556, Note_off_c, 0, 81, 100
2, 82684, Note_off_c, 0, 74, 100
2, 82688, Note_on_c, 0, 83, 98
2, 82816, Note_on_c, 0, 74, 100
2, 82940, Note_off_c, 0, 83, 100
2, 82940, Note_off_c, 0, 74, 100
2, 83072, Note_on_c, 0, 84, 98
2, 83200, Note_on_c, 0, 74, 95
2, 83324, Note_off_c, 0, 84, 100
2, 83452, Note_off_c, 0, 74, 100
2, 83456, Note_on_c, 0, 81, 89
2, 83584, Note_on_c, 0, 74, 86
2, 83708, Note_off_c, 0, 81, 100
2, 83836, Note_off_c, 0, 74, 100
2, 83840, Note_on_c, 0, 78, 81
2, 83968, Note_on_c, 0, 74, 78
2, 84092, Note_off_c, 0, 78, 100
2, 84220, Note_off_c, 0, 74, 100
2, 84224, Note_on_c, 0, 81, 72
2, 84352, Note_on_c, 0, 74, 70
2, 84476, Note_off_c, 0, 81, 100
2, 84476, Note_off_c, 0, 74, 100
2, 84608, Note_on_c, 0, 79, 70
2, 84736, Note_on_c, 0, 74, 70
2, 84860, Note_off_c, 0, 79, 100
2, 84988, Note_off_c, 0, 74, 100
2, 84992, Note_on_c, 0, 79, 71
2, 85120, Note_on_c, 0, 74, 73
2, 85244, Note_off_c, 0, 79, 100
2, 85372, Note_off_c, 0, 74, 100
2, 85376, Note_on_c, 0, 83, 76
2, 85504, Note_on_c, 0, 76, 77
2, 85628, Note_off_c, 0, 83, 100
2, 85756, Note_off_c, 0, 76, 100
2, 85760, Note_on_c, 0, 81, 80
2, 85888, Note_on_c, 0, 76, 82
2, 86012, Note_off_c, 0, 81, 100
2, 86012, Note_off_c, 0, 76, 100
2, 86144, Note_on_c, 0, 84, 85
2, 86272, Note_on_c, 0, 77, 87
2, 86396, Note_off_c, 0, 84, 100
2, 86524, Note_off_c, 0, 77, 100
2, 86528, Note_on_c, 0, 83, 90
2, 86656, Note_on_c, 0, 77, 91
2, 86780, Note_off_c, 0, 83, 100
2, 86908, Note_off_c, 0, 77, 100
2, 86912, Note_on_c, 0, 84, 94
2, 87040, Note_on_c, 0, 77, 96
2, 87164, Note_off_c, 0, 84, 100
2, 87292, Note_off_c, 0, 77, 100
2, 87296, Note_on_c, 0, 83, 99
2, 87424, Note_on_c, 0, 77, 100
2, 87548, Note_off_c, 0, 83, 100
2, 87548, Note_off_c, 0, 77, 100
2, 87680, Note_on_c, 0, 79, 88
2, 87808, Note_on_c, 0, 83, 75
2, 87932, Note_off_c, 0, 79, 100
2, 88060, Note_off_c, 0, 83, 100
2, 88064, Note_on_c, 0, 78, 70
2, 88192, Note_on_c, 0, 83, 70
2, 88316, Note_off_c, 0, 78, 100
2, 88444, Note_off_c, 0, 83, 100
2, 88448, Note_on_c, 0, 79, 70
2, 88576, Note_on_c, 0, 83, 70
2, 88700, Note_off_c, 0, 79, 100
2, 88828, Note_off_c, 0, 83, 100
2, 88832, Note_on_c, 0, 78, 70
2, 88960, Note_on_c, 0, 83, 70
2, 89084, Note_off_c, 0, 78, 100
2, 89084, Note_off_c, 0, 83, 100
2, 89216, Note_on_c, 0, 79, 70
2, 89344, Note_on_c, 0, 83, 70
2, 89468, Note_off_c, 0, 79, 100
2, 89596, Note_off_c, 0, 83, 100
2, 89600, Note_on_c, 0, 76, 70
2, 89728, Note_on_c, 0, 81, 70
2, 89852, Note_off_c, 0, 76, 100
2, 89980, Note_off_c, 0, 81, 100
2, 89984, Note_on_c, 0, 71, 70
2, 90112, Note_on_c, 0, 79, 70
2, 90236, Note_off_c, 0, 71, 100
2, 90364, Note_off_c, 0, 79, 100
2, 90368, Note_on_c, 0, 69, 70
2, 90496, Note_on_c, 0, 78, 70
2, 90620, Note_off_c, 0, 69, 100
2, 90620, Note_off_c, 0, 78, 100
2, 90752, Note_on_c, 0, 71, 80
2, 90880, Note_on_c, 0, 79, 90
2, 91004, Note_off_c, 0, 71, 100
2, 91132, Note_off_c, 0, 79, 100
2, 91136, Note_on_c, 0, 71, 110
2, 91136, Note_on_c, 0, 78, 110
2, 91264, Note_on_c, 0, 83, 110
2, 91388, Note_off_c, 0, 71, 100
2, 91388, Note_off_c, 0, 78, 100
2, 91516, Note_off_c, 0, 83, 100
2, 91520, Note_on_c, 0, 71, 110
2, 91520, Note_on_c, 0, 79, 110
2, 91648, Note_on_c, 0, 83, 110
2, 91772, Note_off_c, 0, 71, 100
2, 91772, Note_off_c, 0, 79, 100
2, 91900, Note_off_c, 0, 83, 100
2, 91904, Note_on_c, 0, 71, 110
2, 91904, Note_on_c, 0, 78, 110
2, 92032, Note_on_c, 0, 83, 110
2, 92156, Note_off_c, 0, 71, 100
2, 92156, Note_off_c, 0, 78, 100
2, 92156, Note_off_c, 0, 83, 100
2, 92288, Note_on_c, 0, 71, 110
2, 92288, Note_on_c, 0, 79, 110
2, 92416, Note_on_c, 0, 83, 110
2, 92540, Note_off_c, 0, 71, 100
2, 92540, Note_off_c, 0, 79, 100
2, 92668, Note_off_c, 0, 83, 100
2, 92672, Note_on_c, 0, 76, 110
2, 92672, Note_on_c, 0, 81, 110
2, 92800, Note_on_c, 0, 84, 110
2, 92924, Note_off_c, 0, 76, 100
2, 92924, Note_off_c, 0, 81, 100
2, 93052, Note_off_c, 0, 84, 100
2, 93056, Note_on_c, 0, 74, 110
2, 93056, Note_on_c, 0, 79, 110
2, 93184, Note_on_c, 0, 83, 110
2, 93308, Note_off_c, 0, 74, 100
2, 93308, Note_off_c, 0, 79, 100
2, 93436, Note_off_c, 0, 83, 100
2, 93440, Note_on_c, 0, 72, 110
2, 93440, Note_on_c, 0, 78, 110
2, 93568, Note_on_c, 0, 81, 110
2, 93692, Note_off_c, 0, 72, 100
2, 93692, Note_off_c, 0, 78, 100
2, 93692, Note_off_c, 0, 81, 100
2, 93824, Note_on_c, 0, 71, 110
2, 93952, Note_on_c, 0, 79, 110
2, 94076, Note_off_c, 0, 71, 100
2, 94204, Note_off_c, 0, 79, 100
2, 94208, Note_on_c, 0, 71, 110
2, 94336, Note_on_c, 0, 77, 110
2, 94460, Note_off_c, 0, 71, 100
2, 94588, Note_off_c, 0, 77, 100
2, 94592, Note_on_c, 0, 72, 108
2, 94720, Note_on_c, 0, 76, 106
2, 94844, Note_off_c, 0, 72, 100
2, 94972, Note_off_c, 0, 76, 100
2, 94976, Note_on_c, 0, 72, 101
2, 95104, Note_on_c, 0, 78, 99
2, 95228, Note_off_c, 0, 72, 100
2, 95228, Note_off_c, 0, 78, 100
2, 95360, Note_on_c, 0, 71, 95
2, 95488, Note_on_c, 0, 79, 92
2, 95612, Note_off_c, 0, 71, 100
2, 95740, Note_off_c, 0, 79, 100
2, 95744, Note_on_c, 0, 71, 88
2, 95872, Note_on_c, 0, 77, 85
2, 95996, Note_off_c, 0, 71, 100
2, 96124, Note_off_c, 0, 77, 100
2, 96128, Note_on_c, 0, 72, 81
2, 96256, Note_on_c, 0, 76, 79
2, 96380, Note_off_c, 0, 72, 100
2, 96508, Note_off_c, 0, 76, 100
2, 96512, Note_on_c, 0, 72, 74
2, 96640, Note_on_c, 0, 78, 72
2, 96764, Note_off_c, 0, 72, 100
2, 96764, Note_off_c, 0, 78, 100
2, 96768, Note_on_c, 0, 79, 70
2, 96896, Note_on_c, 0, 74, 70
2, 97020, Note_off_c, 0, 79, 100
2, 97024, Note_on_c, 0, 71, 70
2, 97148, Note_off_c, 0, 74, 100
2, 97152, Note_on_c, 0, 67, 70
2, 97276, Note_off_c, 0, 71, 100
2, 97280, Note_on_c, 0, 62, 70
2, 97404, Note_off_c, 0, 67, 100
2, 97408, Note_on_c, 0, 59, 70
2, 97532, Note_off_c, 0, 62, 100
2, 97536, Note_on_c, 0, 67, 70
2, 97660, Note_off_c, 0, 59, 100
2, 97664, Note_on_c, 0, 62, 70
2, 97788, Note_off_c, 0, 67, 100
2, 97792, Note_on_c, 0, 59, 70
2, 97916, Note_off_c, 0, 62, 100
2, 98044, Note_off_c, 0, 59, 100
2, 99264, Note_on_c, 0, 79, 70
2, 99452, Note_off_c, 0, 79, 100
2, 99456, Note_on_c, 0, 79, 70
2, 99520, Note_on_c, 0, 81, 70
2, 99580, Note_off_c, 0, 79, 100
2, 99584, Note_on_c, 0, 79, 70
2, 99644, Note_off_c, 0, 81, 100
2, 99648, Note_on_c, 0, 77, 70
2, 99708, Note_off_c, 0, 79, 100
2, 99740, Note_off_c, 0, 77, 100
2, 99744, Note_on_c, 0, 79, 70
2, 99836, Note_off_c, 0, 79, 100
2, 99840, Note_on_c, 0, 82, 100
2, 100028, Note_off_c, 0, 82, 100
2, 100032, Note_on_c, 0, 79, 100
2, 100220, Note_off_c, 0, 79, 100
2, 100224, Note_on_c, 0, 75, 100
2, 100412, Note_off_c, 0, 75, 100
2, 100416, Note_on_c, 0, 70, 100
2, 100604, Note_off_c, 0, 70, 100
2, 101376, Note_on_c, 0, 79, 100
2, 101564, Note_off_c, 0, 79, 100
2, 101568, Note_on_c, 0, 75, 100
2, 101756, Note_off_c, 0, 75, 100
2, 101760, Note_on_c, 0, 70, 100
2, 101948, Note_off_c, 0, 70, 100
2, 101952, Note_on_c, 0, 67, 100
2, 102140, Note_off_c, 0, 67, 100
2, 102912, Note_on_c, 0, 79, 100
2, 103100, Note_off_c, 0, 79, 100
2, 103104, Note_on_c, 0, 75, 100
2, 103292, Note_off_c, 0, 75, 100
2, 103296, Note_on_c, 0, 70, 100
2, 103484, Note_off_c, 0, 70, 100
2, 103488, Note_on_c, 0, 67, 100
2, 103676, Note_off_c, 0, 67, 100
2, 103680, Note_on_c, 0, 79, 100
2, 103868, Note_off_c, 0, 79, 100
2, 103872, Note_on_c, 0, 75, 100
2, 104060, Note_off_c, 0, 75, 100
2, 104064, Note_on_c, 0, 70, 100
2, 104252, Note_off_c, 0, 70, 100
2, 104256, Note_on_c, 0, 67, 100
2, 104444, Note_off_c, 0, 67, 100
2, 104448, Note_on_c, 0, 68, 100
2, 104496, Note_on_c, 0, 70, 100
2, 104544, Note_on_c, 0, 75, 100
2, 104592, Note_on_c, 0, 80, 100
2, 105212, Note_off_c, 0, 75, 100
2, 105216, Note_on_c, 0, 74, 80
2, 105404, Note_off_c, 0, 68, 100
2, 105404, Note_off_c, 0, 70, 100
2, 105404, Note_off_c, 0, 80, 100
2, 105404, Note_off_c, 0, 74, 100
2, 105984, Note_on_c, 0, 80, 70
2, 106172, Note_off_c, 0, 80, 100
2, 106176, Note_on_c, 0, 74, 74
2, 106364, Note_off_c, 0, 74, 100
2, 106368, Note_on_c, 0, 70, 78
2, 106556, Note_off_c, 0, 70, 100
2, 106560, Note_on_c, 0, 68, 83
2, 106748, Note_off_c, 0, 68, 100
2, 106752, Note_on_c, 0, 80, 87
2, 106940, Note_off_c, 0, 80, 100
2, 106944, Note_on_c, 0, 74, 92
2, 107132, Note_off_c, 0, 74, 100
2, 107136, Note_on_c, 0, 70, 96
2, 107324, Note_off_c, 0, 70, 100
2, 107328, Note_on_c, 0, 68, 100
2, 107516, Note_off_c, 0, 68, 100
2, 107520, Note_on_c, 0, 70, 100
2, 107568, Note_on_c, 0, 73, 100
2, 107616, Note_on_c, 0, 77, 100
2, 107664, Note_on_c, 0, 82, 100
2, 108284, Note_off_c, 0, 77, 100
2, 108288, Note_on_c, 0, 76, 82
2, 108476, Note_off_c, 0, 70, 100
2, 108476, Note_off_c, 0, 73, 100
2, 108476, Note_off_c, 0, 82, 100
2, 108476, Note_off_c, 0, 76, 100
2, 109056, Note_on_c, 0, 82, 70
2, 109244, Note_off_c, 0, 82, 100
2, 109248, Note_on_c, 0, 76, 75
2, 109436, Note_off_c, 0, 76, 100
2, 109440, Note_on_c, 0, 73, 80
2, 109628, Note_off_c, 0, 73, 100
2, 109632, Note_on_c, 0, 70, 85
2, 109820, Note_off_c, 0, 70, 100
2, 109824, Note_on_c, 0, 82, 90
2, 110012, Note_off_c, 0, 82, 100
2, 110016, Note_on_c, 0, 76, 95
2, 110204, Note_off_c, 0, 76, 100
2, 110208, Note_on_c, 0, 73, 100
2, 110396, Note_off_c, 0, 73, 100
2, 110400, Note_on_c, 0, 70, 85
2, 110588, Note_off_c, 0, 70, 100
2, 110784, Note_on_c, 0, 82, 70
2, 110972, Note_off_c, 0, 82, 100
2, 110976, Note_on_c, 0, 77, 70
2, 111164, Note_off_c, 0, 77, 100
2, 111168, Note_on_c, 0, 72, 70
2, 111356, Note_off_c, 0, 72, 100
2, 111552, Note_on_c, 0, 84, 70
2, 111740, Note_off_c, 0, 84, 100
2, 111744, Note_on_c, 0, 77, 70
2, 111932, Note_off_c, 0, 77, 100
2, 111936, Note_on_c, 0, 72, 70
2, 112124, Note_off_c, 0, 72, 100
2, 112320, Note_on_c, 0, 84, 70
2, 112508, Note_off_c, 0, 84, 100
2, 112512, Note_on_c, 0, 76, 70
2, 112700, Note_off_c, 0, 76, 100
2, 112704, Note_on_c, 0, 72, 70
2, 112892, Note_off_c, 0, 72, 100
2, 113088, Note_on_c, 0, 82, 70
2, 113276, Note_off_c, 0, 82, 100
2, 113280, Note_on_c, 0, 76, 70
2, 113468, Note_off_c, 0, 76, 100
2, 113472, Note_on_c, 0, 72, 70
2, 113660, Note_off_c, 0, 72, 100
2, 113856, Note_on_c, 0, 82, 70
2, 114044, Note_off_c, 0, 82, 100
2, 114048, Note_on_c, 0, 77, 70
2, 114236, Note_off_c, 0, 77, 100
2, 114240, Note_on_c, 0, 72, 70
2, 114428, Note_off_c, 0, 72, 100
2, 114624, Note_on_c, 0, 80, 70
2, 114812, Note_off_c, 0, 80, 100
2, 114816, Note_on_c, 0, 72, 70
2, 115004, Note_off_c, 0, 72, 100
2, 115008, Note_on_c, 0, 68, 70
2, 115196, Note_off_c, 0, 68, 100
2, 115392, Note_on_c, 0, 80, 70
2, 115580, Note_off_c, 0, 80, 100
2, 115584, Note_on_c, 0, 70, 70
2, 115772, Note_off_c, 0, 70, 100
2, 115776, Note_on_c, 0, 68, 70
2, 115964, Note_off_c, 0, 68, 100
2, 116160, Note_on_c, 0, 78, 70
2, 116348, Note_off_c, 0, 78, 100
2, 116352, Note_on_c, 0, 72, 70
2, 116540, Note_off_c, 0, 72, 100
2, 116544, Note_on_c, 0, 68, 70
2, 116732, Note_off_c, 0, 68, 100
2, 116736, Note_on_c, 0, 77, 70
2, 116924, Note_off_c, 0, 77, 100
2, 116928, Note_on_c, 0, 73, 70
2, 117116, Note_off_c, 0, 73, 100
2, 117120, Note_on_c, 0, 68, 70
2, 117308, Note_off_c, 0, 68, 100
2, 117312, Note_on_c, 0, 65, 70
2, 117500, Note_off_c, 0, 65, 100
2, 118272, Note_on_c, 0, 77, 70
2, 118460, Note_off_c, 0, 77, 100
2, 118464, Note_on_c, 0, 73, 70
2, 118652, Note_off_c, 0, 73, 100
2, 118656, Note_on_c, 0, 68, 70
2, 118844, Note_off_c, 0, 68, 100
2, 118848, Note_on_c, 0, 65, 70
2, 119036, Note_off_c, 0, 65, 100
2, 119808, Note_on_c, 0, 77, 70
2, 119996, Note_off_c, 0, 77, 100
2, 120000, Note_on_c, 0, 73, 72
2, 120188, Note_off_c, 0, 73, 100
2, 120192, Note_on_c, 0, 68, 75
2, 120380, Note_off_c, 0, 68, 100
2, 120384, Note_on_c, 0, 65, 78
2, 120572, Note_off_c, 0, 65, 100
2, 120576, Note_on_c, 0, 77, 81
2, 120764, Note_off_c, 0, 77, 100
2, 120768, Note_on_c, 0, 72, 84
2, 120956, Note_off_c, 0, 72, 100
2, 120960, Note_on_c, 0, 68, 87
2, 121148, Note_off_c, 0, 68, 100
2, 121152, Note_on_c, 0, 65, 90
2, 121340, Note_off_c, 0, 65, 100
2, 121344, Note_on_c, 0, 77, 90
2, 121532, Note_off_c, 0, 77, 100
2, 121536, Note_on_c, 0, 74, 88
2, 121724, Note_off_c, 0, 74, 100
2, 121728, Note_on_c, 0, 68, 85
2, 121916, Note_off_c, 0, 68, 100
2, 121920, Note_on_c, 0, 65, 82
2, 122108, Note_off_c, 0, 65, 100
2, 122112, Note_on_c, 0, 75, 79
2, 122300, Note_off_c, 0, 75, 100
2, 122304, Note_on_c, 0, 72, 76
2, 122492, Note_off_c, 0, 72, 100
2, 122496, Note_on_c, 0, 67, 73
2, 122684, Note_off_c, 0, 67, 100
2, 122688, Note_on_c, 0, 63, 70
2, 122876, Note_off_c, 0, 63, 100
2, 122880, Note_on_c, 0, 74, 70
2, 123068, Note_off_c, 0, 74, 100
2, 123072, Note_on_c, 0, 72, 70
2, 123260, Note_off_c, 0, 72, 100
2, 123264, Note_on_c, 0, 68, 70
2, 123452, Note_off_c, 0, 68, 100
2, 123456, Note_on_c, 0, 62, 70
2, 123644, Note_off_c, 0, 62, 100
2, 123648, Note_on_c, 0, 74, 70
2, 123836, Note_off_c, 0, 74, 100
2, 123840, Note_on_c, 0, 72, 70
2, 124028, Note_off_c, 0, 72, 100
2, 124032, Note_on_c, 0, 68, 70
2, 124220, Note_off_c, 0, 68, 100
2, 124224, Note_on_c, 0, 62, 70
2, 124412, Note_off_c, 0, 62, 100
2, 124416, Note_on_c, 0, 74, 70
2, 124604, Note_off_c, 0, 74, 100
2, 124608, Note_on_c, 0, 72, 70
2, 124796, Note_off_c, 0, 72, 100
2, 124800, Note_on_c, 0, 69, 70
2, 124988, Note_off_c, 0, 69, 100
2, 124992, Note_on_c, 0, 62, 70
2, 125180, Note_off_c, 0, 62, 100
2, 125184, Note_on_c, 0, 74, 70
2, 125372, Note_off_c, 0, 74, 100
2, 125376, Note_on_c, 0, 72, 70
2, 125564, Note_off_c, 0, 72, 100
2, 125568, Note_on_c, 0, 69, 70
2, 125756, Note_off_c, 0, 69, 100
2, 125760, Note_on_c, 0, 62, 70
2, 125948, Note_off_c, 0, 62, 100
2, 126080, Note_on_c, 0, 71, 60
2, 126208, Note_on_c, 0, 74, 60
2, 126332, Note_off_c, 0, 71, 100
2, 126336, Note_on_c, 0, 79, 60
2, 126460, Note_off_c, 0, 74, 100
2, 126716, Note_off_c, 0, 79, 100
2, 126848, Note_on_c, 0, 72, 60
2, 126976, Note_on_c, 0, 75, 60
2, 127100, Note_off_c, 0, 72, 100
2, 127104, Note_on_c, 0, 79, 60
2, 127228, Note_off_c, 0, 75, 100
2, 127484, Note_off_c, 0, 79, 100
2, 127616, Note_on_c, 0, 74, 60
2, 127744, Note_on_c, 0, 77, 60
2, 127868, Note_off_c, 0, 74, 100
2, 127872, Note_on_c, 0, 79, 60
2, 127996, Note_off_c, 0, 77, 100
2, 128252, Note_off_c, 0, 79, 100
2, 128384, Note_on_c, 0, 72, 60
2, 128512, Note_on_c, 0, 75, 60
2, 128636, Note_off_c, 0, 72, 100
2, 128640, Note_on_c, 0, 79, 60
2, 128764, Note_off_c, 0, 75, 100
2, 129020, Note_off_c, 0, 79, 100
2, 129152, Note_on_c, 0, 71, 60
2, 129280, Note_on_c, 0, 74, 60
2, 129404, Note_off_c, 0, 71, 100
2, 129408, Note_on_c, 0, 79, 60
2, 129532, Note_off_c, 0, 74, 100
2, 129788, Note_off_c, 0, 79, 100
2, 129920, Note_on_c, 0, 72, 62
2, 130048, Note_on_c, 0, 75, 65
2, 130172, Note_off_c, 0, 72, 100
2, 130176, Note_on_c, 0, 80, 68
2, 130300, Note_off_c, 0, 75, 100
2, 130556, Note_off_c, 0, 80, 100
2, 130688, Note_on_c, 0, 73, 79
2, 130816, Note_on_c, 0, 76, 82
2, 130940, Note_off_c, 0, 73, 100
2, 130944, Note_on_c, 0, 81, 85
2, 131068, Note_off_c, 0, 76, 100
2, 131324, Note_off_c, 0, 81, 100
2, 131456, Note_on_c, 0, 74, 96
2, 131584, Note_on_c, 0, 77, 99
2, 131708, Note_off_c, 0, 74, 100
2, 131712, Note_on_c, 0, 82, 102
2, 131836, Note_off_c, 0, 77, 100
2, 132092, Note_off_c, 0, 82, 100
2, 132224, Note_on_c, 0, 74, 110
2, 132352, Note_on_c, 0, 77, 110
2, 132476, Note_off_c, 0, 74, 100
2, 132480, Note_on_c, 0, 83, 110
2, 132604, Note_off_c, 0, 77, 100
2, 132860, Note_off_c, 0, 83, 100
2, 134592, Note_on_c, 0, 79, 70
2, 134780, Note_off_c, 0, 79, 100
2, 134784, Note_on_c, 0, 79, 70
2, 134848, Note_on_c, 0, 81, 70
2, 134908, Note_off_c, 0, 79, 100
2, 134912, Note_on_c, 0, 79, 70
2, 134972, Note_off_c, 0, 81, 100
2, 134976, Note_on_c, 0, 78, 70
2, 135036, Note_off_c, 0, 79, 100
2, 135068, Note_off_c, 0, 78, 100
2, 135072, Note_on_c, 0, 79, 70
2, 135164, Note_off_c, 0, 79, 100
2, 135168, Note_on_c, 0, 84, 70
2, 135356, Note_off_c, 0, 84, 100
2, 135360, Note_on_c, 0, 79, 70
2, 135548, Note_off_c, 0, 79, 100
2, 135552, Note_on_c, 0, 76, 70
2, 135740, Note_off_c, 0, 76, 100
2, 135744, Note_on_c, 0, 72, 70
2, 135932, Note_off_c, 0, 72, 100
2, 136704, Note_on_c, 0, 79, 70
2, 136892, Note_off_c, 0, 79, 100
2, 136896, Note_on_c, 0, 76, 70
2, 137084, Note_off_c, 0, 76, 100
2, 137088, Note_on_c, 0, 72, 70
2, 137276, Note_off_c, 0, 72, 100
2, 137280, Note_on_c, 0, 67, 70
2, 137468, Note_off_c, 0, 67, 100
2, 138240, Note_on_c, 0, 76, 70
2, 138428, Note_off_c, 0, 76, 100
2, 138432, Note_on_c, 0, 72, 73
2, 138620, Note_off_c, 0, 72, 100
2, 138624, Note_on_c, 0, 67, 77
2, 138812, Note_off_c, 0, 67, 100
2, 138816, Note_on_c, 0, 64, 81
2, 139004, Note_off_c, 0, 64, 100
2, 139008, Note_on_c, 0, 76, 85
2, 139196, Note_off_c, 0, 76, 100
2, 139200, Note_on_c, 0, 72, 89
2, 139388, Note_off_c, 0, 72, 100
2, 139392, Note_on_c, 0, 67, 93
2, 139580, Note_off_c, 0, 67, 100
2, 139584, Note_on_c, 0, 64, 97
2, 139772, Note_off_c, 0, 64, 100
2, 139776, Note_on_c, 0, 67, 100
2, 139824, Note_on_c, 0, 72, 100
2, 139872, Note_on_c, 0, 77, 100
2, 140540, Note_off_c, 0, 72, 100
2, 140544, Note_on_c, 0, 71, 81
2, 140732, Note_off_c, 0, 67, 100
2, 140732, Note_off_c, 0, 77, 100
2, 140732, Note_off_c, 0, 71, 100
2, 140736, Note_on_c, 0, 77, 70
2, 140924, Note_off_c, 0, 77, 100
2, 140928, Note_on_c, 0, 77, 70
2, 140992, Note_on_c, 0, 79, 70
2, 141052, Note_off_c, 0, 77, 100
2, 141056, Note_on_c, 0, 77, 70
2, 141116, Note_off_c, 0, 79, 100
2, 141120, Note_on_c, 0, 76, 70
2, 141180, Note_off_c, 0, 77, 100
2, 141212, Note_off_c, 0, 76, 100
2, 141216, Note_on_c, 0, 77, 70
2, 141308, Note_off_c, 0, 77, 100
2, 141312, Note_on_c, 0, 81, 70
2, 141500, Note_off_c, 0, 81, 100
2, 141504, Note_on_c, 0, 77, 70
2, 141692, Note_off_c, 0, 77, 100
2, 141696, Note_on_c, 0, 74, 70
2, 141884, Note_off_c, 0, 74, 100
2, 141888, Note_on_c, 0, 71, 70
2, 142076, Note_off_c, 0, 71, 100
2, 142848, Note_on_c, 0, 77, 70
2, 143036, Note_off_c, 0, 77, 100
2, 143040, Note_on_c, 0, 74, 70
2, 143228, Note_off_c, 0, 74, 100
2, 143232, Note_on_c, 0, 71, 70
2, 143420, Note_off_c, 0, 71, 100
2, 143424, Note_on_c, 0, 67, 70
2, 143612, Note_off_c, 0, 67, 100
2, 144384, Note_on_c, 0, 74, 70
2, 144572, Note_off_c, 0, 74, 100
2, 144576, Note_on_c, 0, 71, 73
2, 144764, Note_off_c, 0, 71, 100
2, 144768, Note_on_c, 0, 67, 77
2, 144956, Note_off_c, 0, 67, 100
2, 144960, Note_on_c, 0, 65, 81
2, 145148, Note_off_c, 0, 65, 100
2, 145152, Note_on_c, 0, 74, 85
2, 145340, Note_off_c, 0, 74, 100
2, 145344, Note_on_c, 0, 71, 89
2, 145532, Note_off_c, 0, 71, 100
2, 145536, Note_on_c, 0, 67, 93
2, 145724, Note_off_c, 0, 67, 100
2, 145728, Note_on_c, 0, 65, 97
2, 145916, Note_off_c, 0, 65, 100
2, 145920, Note_on_c, 0, 67, 100
2, 145968, Note_on_c, 0, 71, 100
2, 146016, Note_on_c, 0, 74, 100
2, 146064, Note_on_c, 0, 77, 100
2, 146684, Note_off_c, 0, 71, 100
2, 146684, Note_off_c, 0, 74, 100
2, 146684, Note_off_c, 0, 77, 100
2, 146688, Note_on_c, 0, 72, 80
2, 146688, Note_on_c, 0, 76, 80
2, 146876, Note_off_c, 0, 67, 100
2, 146876, Note_off_c, 0, 72, 100
2, 146876, Note_off_c, 0, 76, 100
2, 146880, Note_on_c, 0, 79, 70
2, 147068, Note_off_c, 0, 79, 100
2, 147072, Note_on_c, 0, 79, 70
2, 147136, Note_on_c, 0, 81, 70
2, 147196, Note_off_c, 0, 79, 100
2, 147200, Note_on_c, 0, 79, 70
2, 147260, Note_off_c, 0, 81, 100
2, 147264, Note_on_c, 0, 78, 70
2, 147324, Note_off_c, 0, 79, 100
2, 147356, Note_off_c, 0, 78, 100
2, 147360, Note_on_c, 0, 79, 70
2, 147452, Note_off_c, 0, 79, 100
2, 147456, Note_on_c, 0, 84, 70
2, 147964, Note_off_c, 0, 84, 100
2, 147968, Note_on_c, 0, 79, 70
2, 148092, Note_off_c, 0, 79, 100
2, 148096, Note_on_c, 0, 83, 70
2, 148220, Note_off_c, 0, 83, 100
2, 148224, Note_on_c, 0, 84, 70
2, 148348, Note_off_c, 0, 84, 100
2, 148352, Note_on_c, 0, 83, 70
2, 148476, Note_off_c, 0, 83, 100
2, 148480, Note_on_c, 0, 81, 70
2, 148604, Note_off_c, 0, 81, 100
2, 148608, Note_on_c, 0, 79, 70
2, 148732, Note_off_c, 0, 79, 100
2, 148736, Note_on_c, 0, 77, 70
2, 148860, Note_off_c, 0, 77, 100
2, 148864, Note_on_c, 0, 76, 70
2, 148988, Note_off_c, 0, 76, 100
2, 148992, Note_on_c, 0, 81, 70
2, 149500, Note_off_c, 0, 81, 100
2, 149504, Note_on_c, 0, 80, 70
2, 149628, Note_off_c, 0, 80, 100
2, 149632, Note_on_c, 0, 83, 70
2, 149756, Note_off_c, 0, 83, 100
2, 149760, Note_on_c, 0, 81, 70
2, 149884, Note_off_c, 0, 81, 100
2, 149888, Note_on_c, 0, 79, 70
2, 150012, Note_off_c, 0, 79, 100
2, 150016, Note_on_c, 0, 77, 70
2, 150140, Note_off_c, 0, 77, 100
2, 150144, Note_on_c, 0, 76, 70
2, 150268, Note_off_c, 0, 76, 100
2, 150272, Note_on_c, 0, 77, 70
2, 150396, Note_off_c, 0, 77, 100
2, 150400, Note_on_c, 0, 74, 70
2, 150524, Note_off_c, 0, 74, 100
2, 150528, Note_on_c, 0, 72, 70
2, 151036, Note_off_c, 0, 72, 100
2, 151040, Note_on_c, 0, 76, 70
2, 151164, Note_off_c, 0, 76, 100
2, 151168, Note_on_c, 0, 72, 70
2, 151292, Note_off_c, 0, 72, 100
2, 151296, Note_on_c, 0, 71, 70
2, 151804, Note_off_c, 0, 71, 100
2, 151808, Note_on_c, 0, 74, 70
2, 151932, Note_off_c, 0, 74, 100
2, 151936, Note_on_c, 0, 79, 70
2, 152060, Note_off_c, 0, 79, 100
2, 152064, Note_on_c, 0, 77, 70
2, 152572, Note_off_c, 0, 77, 100
2, 152576, Note_on_c, 0, 76, 70
2, 152700, Note_off_c, 0, 76, 100
2, 152704, Note_on_c, 0, 77, 74
2, 152828, Note_off_c, 0, 77, 100
2, 152832, Note_on_c, 0, 78, 78
2, 152956, Note_off_c, 0, 78, 100
2, 152960, Note_on_c, 0, 79, 83
2, 153084, Note_off_c, 0, 79, 100
2, 153088, Note_on_c, 0, 80, 87
2, 153212, Note_off_c, 0, 80, 100
2, 153216, Note_on_c, 0, 81, 92
2, 153340, Note_off_c, 0, 81, 100
2, 153344, Note_on_c, 0, 82, 96
2, 153468, Note_off_c, 0, 82, 100
2, 153472, Note_on_c, 0, 83, 100
2, 153596, Note_off_c, 0, 83, 100
2, 153600, Note_on_c, 0, 84, 100
2, 154108, Note_off_c, 0, 84, 100
2, 154112, Note_on_c, 0, 79, 100
2, 154236, Note_off_c, 0, 79, 100
2, 154240, Note_on_c, 0, 83, 100
2, 154364, Note_off_c, 0, 83, 100
2, 154368, Note_on_c, 0, 84, 100
2, 154492, Note_off_c, 0, 84, 100
2, 154496, Note_on_c, 0, 79, 100
2, 154624, Note_on_c, 0, 83, 100
2, 154748, Note_off_c, 0, 79, 100
2, 154752, Note_on_c, 0, 84, 100
2, 154876, Note_off_c, 0, 83, 100
2, 154880, Note_on_c, 0, 79, 100
2, 155004, Note_off_c, 0, 84, 100
2, 155008, Note_on_c, 0, 83, 100
2, 155132, Note_off_c, 0, 79, 100
2, 155132, Note_off_c, 0, 83, 100
2, 155136, Note_on_c, 0, 84, 100
2, 155644, Note_off_c, 0, 84, 100
2, 155648, Note_on_c, 0, 79, 100
2, 155772, Note_off_c, 0, 79, 100
2, 155776, Note_on_c, 0, 82, 100
2, 155900, Note_off_c, 0, 82, 100
2, 155904, Note_on_c, 0, 84, 100
2, 156028, Note_off_c, 0, 84, 100
2, 156032, Note_on_c, 0, 79, 100
2, 156160, Note_on_c, 0, 82, 100
2, 156284, Note_off_c, 0, 79, 100
2, 156288, Note_on_c, 0, 84, 100
2, 156412, Note_off_c, 0, 82, 100
2, 156416, Note_on_c, 0, 79, 100
2, 156540, Note_off_c, 0, 84, 100
2, 156544, Note_on_c, 0, 82, 100
2, 156668, Note_off_c, 0, 79, 100
2, 156668, Note_off_c, 0, 82, 100
2, 156672, Note_on_c, 0, 84, 70
2, 157180, Note_off_c, 0, 84, 100
2, 157184, Note_on_c, 0, 77, 70
2, 157312, Note_on_c, 0, 81, 70
2, 157436, Note_off_c, 0, 77, 100
2, 157440, Note_on_c, 0, 83, 70
2, 157564, Note_off_c, 0, 81, 100
2, 157948, Note_off_c, 0, 83, 100
2, 157952, Note_on_c, 0, 74, 90
2, 158080, Note_on_c, 0, 79, 80
2, 158204, Note_off_c, 0, 74, 100
2, 158204, Note_off_c, 0, 79, 100
2, 158208, Note_on_c, 0, 81, 70
2, 158716, Note_off_c, 0, 81, 100
2, 158720, Note_on_c, 0, 72, 70
2, 158848, Note_on_c, 0, 77, 70
2, 158972, Note_off_c, 0, 72, 100
2, 158976, Note_on_c, 0, 79, 70
2, 159100, Note_off_c, 0, 77, 100
2, 159484, Note_off_c, 0, 79, 100
2, 159488, Note_on_c, 0, 70, 70
2, 159616, Note_on_c, 0, 76, 70
2, 159740, Note_off_c, 0, 70, 100
2, 159740, Note_off_c, 0, 76, 100
2, 159872, Note_on_c, 0, 77, 70
2, 160000, Note_on_c, 0, 72, 70
2, 160124, Note_off_c, 0, 77, 100
2, 160252, Note_off_c, 0, 72, 100
2, 160256, Note_on_c, 0, 81, 70
2, 160384, Note_on_c, 0, 72, 70
2, 160508, Note_off_c, 0, 81, 100
2, 160636, Note_off_c, 0, 72, 100
2, 160640, Note_on_c, 0, 81, 70
2, 160768, Note_on_c, 0, 72, 70
2, 160892, Note_off_c, 0, 81, 100
2, 161020, Note_off_c, 0, 72, 100
2, 161024, Note_on_c, 0, 84, 70
2, 161152, Note_on_c, 0, 72, 70
2, 161276, Note_off_c, 0, 84, 100
2, 161276, Note_off_c, 0, 72, 100
2, 161408, Note_on_c, 0, 82, 70
2, 161536, Note_on_c, 0, 72, 70
2, 161660, Note_off_c, 0, 82, 100
2, 161788, Note_off_c, 0, 72, 100
2, 161792, Note_on_c, 0, 79, 70
2, 161920, Note_on_c, 0, 72, 70
2, 162044, Note_off_c, 0, 79, 100
2, 162172, Note_off_c, 0, 72, 100
2, 162176, Note_on_c, 0, 76, 70
2, 162304, Note_on_c, 0, 72, 70
2, 162428, Note_off_c, 0, 76, 100
2, 162556, Note_off_c, 0, 72, 100
2, 162560, Note_on_c, 0, 79, 70
2, 162688, Note_on_c, 0, 72, 70
2, 162812, Note_off_c, 0, 79, 100
2, 162812, Note_off_c, 0, 72, 100
2, 162944, Note_on_c, 0, 77, 71
2, 163072, Note_on_c, 0, 72, 73
2, 163196, Note_off_c, 0, 77, 100
2, 163324, Note_off_c, 0, 72, 100
2, 163328, Note_on_c, 0, 84, 77
2, 163456, Note_on_c, 0, 72, 79
2, 163580, Note_off_c, 0, 84, 100
2, 163708, Note_off_c, 0, 72, 100
2, 163712, Note_on_c, 0, 83, 83
2, 163840, Note_on_c, 0, 72, 85
2, 163964, Note_off_c, 0, 83, 100
2, 164092, Note_off_c, 0, 72, 100
2, 164096, Note_on_c, 0, 84, 89
2, 164224, Note_on_c, 0, 72, 90
2, 164348, Note_off_c, 0, 84, 100
2, 164348, Note_off_c, 0, 72, 100
2, 164480, Note_on_c, 0, 82, 89
2, 164608, Note_on_c, 0, 72, 87
2, 164732, Note_off_c, 0, 82, 100
2, 164860, Note_off_c, 0, 72, 100
2, 164864, Note_on_c, 0, 79, 83
2, 164992, Note_on_c, 0, 72, 81
2, 165116, Note_off_c, 0, 79, 100
2, 165244, Note_off_c, 0, 72, 100
2, 165248, Note_on_c, 0, 76, 77
2, 165376, Note_on_c, 0, 72, 75
2, 165500, Note_off_c, 0, 76, 100
2, 165628, Note_off_c, 0, 72, 100
2, 165632, Note_on_c, 0, 79, 71
2, 165760, Note_on_c, 0, 72, 70
2, 165884, Note_off_c, 0, 79, 100
2, 165884, Note_off_c, 0, 72, 100
2, 166016, Note_on_c, 0, 77, 70
2, 166144, Note_on_c, 0, 72, 70
2, 166268, Note_off_c, 0, 77, 100
2, 166396, Note_off_c, 0, 72, 100
2, 166400, Note_on_c, 0, 81, 70
2, 166528, Note_on_c, 0, 72, 70
2, 166652, Note_off_c, 0, 81, 100
2, 166780, Note_off_c, 0, 72, 100
2, 166784, Note_on_c, 0, 81, 72
2, 166912, Note_on_c, 0, 74, 74
2, 167036, Note_off_c, 0, 81, 100
2, 167164, Note_off_c, 0, 74, 100
2, 167168, Note_on_c, 0, 79, 79
2, 167296, Note_on_c, 0, 74, 81
2, 167420, Note_off_c, 0, 79, 100
2, 167420, Note_off_c, 0, 74, 100
2, 167552, Note_on_c, 0, 77, 85
2, 167680, Note_on_c, 0, 72, 88
2, 167804, Note_off_c, 0, 77, 100
2, 167932, Note_off_c, 0, 72, 100
2, 167936, Note_on_c, 0, 76, 92
2, 168064, Note_on_c, 0, 72, 95
2, 168188, Note_off_c, 0, 76, 100
2, 168316, Note_off_c, 0, 72, 100
2, 168320, Note_on_c, 0, 76, 99
2, 168448, Note_on_c, 0, 71, 101
2, 168572, Note_off_c, 0, 76, 100
2, 168700, Note_off_c, 0, 71, 100
2, 168704, Note_on_c, 0, 74, 106
2, 168832, Note_on_c, 0, 71, 108
2, 168956, Note_off_c, 0, 74, 100
2, 168956, Note_off_c, 0, 71, 100
2, 169088, Note_on_c, 0, 72, 90
2, 169216, Note_on_c, 0, 67, 80
2, 169340, Note_off_c, 0, 72, 100
2, 169468, Note_off_c, 0, 67, 100
2, 169472, Note_on_c, 0, 76, 70
2, 169600, Note_on_c, 0, 67, 70
2, 169724, Note_off_c, 0, 76, 100
2, 169852, Note_off_c, 0, 67, 100
2, 169856, Note_on_c, 0, 76, 70
2, 169984, Note_on_c, 0, 67, 70
2, 170108, Note_off_c, 0, 76, 100
2, 170236, Note_off_c, 0, 67, 100
2, 170240, Note_on_c, 0, 79, 70
2, 170368, Note_on_c, 0, 67, 70
2, 170492, Note_off_c, 0, 79, 100
2, 170492, Note_off_c, 0, 67, 100
2, 170624, Note_on_c, 0, 77, 70
2, 170752, Note_on_c, 0, 67, 70
2, 170876, Note_off_c, 0, 77, 100
2, 171004, Note_off_c, 0, 67, 100
2, 171008, Note_on_c, 0, 74, 70
2, 171136, Note_on_c, 0, 67, 70
2, 171260, Note_off_c, 0, 74, 100
2, 171388, Note_off_c, 0, 67, 100
2, 171392, Note_on_c, 0, 71, 70
2, 171520, Note_on_c, 0, 67, 70
2, 171644, Note_off_c, 0, 71, 100
2, 171772, Note_off_c, 0, 67, 100
2, 171776, Note_on_c, 0, 74, 70
2, 171904, Note_on_c, 0, 67, 70
2, 172028, Note_off_c, 0, 74, 100
2, 172028, Note_off_c, 0, 67, 100
2, 172160, Note_on_c, 0, 72, 71
2, 172288, Note_on_c, 0, 67, 73
2, 172412, Note_off_c, 0, 72, 100
2, 172540, Note_off_c, 0, 67, 100
2, 172544, Note_on_c, 0, 79, 77
2, 172672, Note_on_c, 0, 67, 79
2, 172796, Note_off_c, 0, 79, 100
2, 172924, Note_off_c, 0, 67, 100
2, 172928, Note_on_c, 0, 78, 83
2, 173056, Note_on_c, 0, 67, 85
2, 173180, Note_off_c, 0, 78, 100
2, 173308, Note_off_c, 0, 67, 100
2, 173312, Note_on_c, 0, 79, 89
2, 173440, Note_on_c, 0, 67, 90
2, 173564, Note_off_c, 0, 79, 100
2, 173564, Note_off_c, 0, 67, 100
2, 173696, Note_on_c, 0, 77, 89
2, 173824, Note_on_c, 0, 67, 87
2, 173948, Note_off_c, 0, 77, 100
2, 174076, Note_off_c, 0, 67, 100
2, 174080, Note_on_c, 0, 74, 83
2, 174208, Note_on_c, 0, 67, 81
2, 174332, Note_off_c, 0, 74, 100
2, 174460, Note_off_c, 0, 67, 100
2, 174464, Note_on_c, 0, 71, 77
2, 174592, Note_on_c, 0, 67, 75
2, 174716, Note_off_c, 0, 71, 100
2, 174844, Note_off_c, 0, 67, 100
2, 174848, Note_on_c, 0, 74, 71
2, 174976, Note_on_c, 0, 67, 70
2, 175100, Note_off_c, 0, 74, 100
2, 175100, Note_off_c, 0, 67, 100
2, 175232, Note_on_c, 0, 72, 70
2, 175360, Note_on_c, 0, 67, 70
2, 175484, Note_off_c, 0, 72, 100
2, 175612, Note_off_c, 0, 67, 100
2, 175616, Note_on_c, 0, 73, 70
2, 175744, Note_on_c, 0, 67, 71
2, 175868, Note_off_c, 0, 73, 100
2, 175996, Note_off_c, 0, 67, 100
2, 176000, Note_on_c, 0, 76, 74
2, 176128, Note_on_c, 0, 69, 76
2, 176252, Note_off_c, 0, 76, 100
2, 176380, Note_off_c, 0, 69, 100
2, 176384, Note_on_c, 0, 74, 79
2, 176512, Note_on_c, 0, 69, 81
2, 176636, Note_off_c, 0, 74, 100
2, 176636, Note_off_c, 0, 69, 100
2, 176768, Note_on_c, 0, 77, 84
2, 176896, Note_on_c, 0, 71, 86
2, 177020, Note_off_c, 0, 77, 100
2, 177148, Note_off_c, 0, 71, 100
2, 177152, Note_on_c, 0, 76, 89
2, 177280, Note_on_c, 0, 71, 91
2, 177404, Note_off_c, 0, 76, 100
2, 177532, Note_off_c, 0, 71, 100
2, 177536, Note_on_c, 0, 77, 94
2, 177664, Note_on_c, 0, 71, 96
2, 177788, Note_off_c, 0, 77, 100
2, 177916, Note_off_c, 0, 71, 100
2, 177920, Note_on_c, 0, 76, 99
2, 178048, Note_on_c, 0, 71, 100
2, 178172, Note_off_c, 0, 76, 100
2, 178172, Note_off_c, 0, 71, 100
2, 178304, Note_on_c, 0, 72, 100
2, 178432, Note_on_c, 0, 76, 100
2, 178556, Note_off_c, 0, 72, 100
2, 178684, Note_off_c, 0, 76, 100
2, 178688, Note_on_c, 0, 71, 70
2, 178816, Note_on_c, 0, 76, 70
2, 178940, Note_off_c, 0, 71, 100
2, 179068, Note_off_c, 0, 76, 100
2, 179072, Note_on_c, 0, 72, 70
2, 179200, Note_on_c, 0, 76, 70
2, 179324, Note_off_c, 0, 72, 100
2, 179452, Note_off_c, 0, 76, 100
2, 179456, Note_on_c, 0, 71, 70
2, 179584, Note_on_c, 0, 76, 70
2, 179708, Note_off_c, 0, 71, 100
2, 179708, Note_off_c, 0, 76, 100
2, 179840, Note_on_c, 0, 72, 70
2, 179968, Note_on_c, 0, 76, 70
2, 180092, Note_off_c, 0, 72, 100
2, 180220, Note_off_c, 0, 76, 100
2, 180224, Note_on_c, 0, 81, 70
2, 180224, Note_on_c, 0, 77, 70
2, 180352, Note_on_c, 0, 72, 70
2, 180476, Note_off_c, 0, 81, 100
2, 180476, Note_off_c, 0, 77, 100
2, 180604, Note_off_c, 0, 72, 100
2, 180608, Note_on_c, 0, 79, 70
2, 180608, Note_on_c, 0, 76, 70
2, 180736, Note_on_c, 0, 72, 70
2, 180860, Note_off_c, 0, 79, 100
2, 180860, Note_off_c, 0, 76, 100
2, 180988, Note_off_c, 0, 72, 100
2, 180992, Note_on_c, 0, 79, 70
2, 180992, Note_on_c, 0, 74, 70
2, 181120, Note_on_c, 0, 71, 70
2, 181244, Note_off_c, 0, 79, 100
2, 181244, Note_off_c, 0, 74, 100
2, 181244, Note_off_c, 0, 71, 100
2, 181376, Note_on_c, 0, 75, 70
2, 181504, Note_on_c, 0, 76, 70
2, 181628, Note_off_c, 0, 75, 100
2, 181756, Note_off_c, 0, 76, 100
2, 181760, Note_on_c, 0, 83, 100
2, 181760, Note_on_c, 0, 71, 100
2, 181888, Note_on_c, 0, 76, 100
2, 182012, Note_off_c, 0, 83, 100
2, 182012, Note_off_c, 0, 71, 100
2, 182140, Note_off_c, 0, 76, 100
2, 182144, Note_on_c, 0, 84, 100
2, 182144, Note_on_c, 0, 72, 100
2, 182272, Note_on_c, 0, 76, 100
2, 182396, Note_off_c, 0, 84, 100
2, 182396, Note_off_c, 0, 72, 100
2, 182524, Note_off_c, 0, 76, 100
2, 182528, Note_on_c, 0, 83, 100
2, 182528, Note_on_c, 0, 71, 100
2, 182656, Note_on_c, 0, 76, 100
2, 182780, Note_off_c, 0, 83, 100
2, 182780, Note_off_c, 0, 71, 100
2, 182780, Note_off_c, 0, 76, 100
2, 182912, Note_on_c, 0, 84, 100
2, 182912, Note_on_c, 0, 72, 100
2, 183040, Note_on_c, 0, 76, 100
2, 183164, Note_off_c, 0, 84, 100
2, 183164, Note_off_c, 0, 72, 100
2, 183292, Note_off_c, 0, 76, 100
2, 183296, Note_on_c, 0, 81, 100
2, 183296, Note_on_c, 0, 77, 100
2, 183424, Note_on_c, 0, 72, 100
2, 183548, Note_off_c, 0, 81, 100
2, 183548, Note_off_c, 0, 77, 100
2, 183676, Note_off_c, 0, 72, 100
2, 183680, Note_on_c, 0, 79, 100
2, 183680, Note_on_c, 0, 76, 100
2, 183808, Note_on_c, 0, 72, 100
2, 183932, Note_off_c, 0, 79, 100
2, 183932, Note_off_c, 0, 76, 100
2, 184060, Note_off_c, 0, 72, 100
2, 184064, Note_on_c, 0, 77, 100
2, 184064, Note_on_c, 0, 74, 100
2, 184192, Note_on_c, 0, 71, 100
2, 184316, Note_off_c, 0, 77, 100
2, 184316, Note_off_c, 0, 74, 100
2, 184316, Note_off_c, 0, 71, 100
2, 184448, Note_on_c, 0, 72, 100
2, 184576, Note_on_c, 0, 76, 100
2, 184700, Note_off_c, 0, 72, 100
2, 184828, Note_off_c, 0, 76, 100
2, 184832, Note_on_c, 0, 70, 100
2, 184960, Note_on_c, 0, 79, 100
2, 185084, Note_off_c, 0, 70, 100
2, 185212, Note_off_c, 0, 79, 100
2, 185216, Note_on_c, 0, 69, 100
2, 185344, Note_on_c, 0, 79, 100
2, 185468, Note_off_c, 0, 69, 100
2, 185596, Note_off_c, 0, 79, 100
2, 185600, Note_on_c, 0, 71, 100
2, 185728, Note_on_c, 0, 77, 100
2, 185852, Note_off_c, 0, 71, 100
2, 185852, Note_off_c, 0, 77, 100
2, 185984, Note_on_c, 0, 72, 98
2, 186112, Note_on_c, 0, 77, 95
2, 186236, Note_off_c, 0, 72, 100
2, 186364, Note_off_c, 0, 77, 100
2, 186368, Note_on_c, 0, 67, 89
2, 186496, Note_on_c, 0, 76, 86
2, 186620, Note_off_c, 0, 67, 100
2, 186748, Note_off_c, 0, 76, 100
2, 186752, Note_on_c, 0, 65, 81
2, 186880, Note_on_c, 0, 76, 78
2, 187004, Note_off_c, 0, 65, 100
2, 187132, Note_off_c, 0, 76, 100
2, 187136, Note_on_c, 0, 65, 72
2, 187264, Note_on_c, 0, 74, 70
2, 187388, Note_off_c, 0, 65, 100
2, 187388, Note_off_c, 0, 74, 100
2, 187520, Note_on_c, 0, 64, 70
2, 187648, Note_on_c, 0, 72, 70
2, 187772, Note_off_c, 0, 64, 100
2, 187900, Note_off_c, 0, 72, 100
2, 187904, Note_on_c, 0, 82, 70
2, 187904, Note_on_c, 0, 79, 70
2, 188032, Note_on_c, 0, 84, 70
2, 188156, Note_off_c, 0, 82, 100
2, 188156, Note_off_c, 0, 79, 100
2, 188284, Note_off_c, 0, 84, 100
2, 188288, Note_on_c, 0, 81, 70
2, 188288, Note_on_c, 0, 78, 70
2, 188416, Note_on_c, 0, 84, 70
2, 188540, Note_off_c, 0, 81, 100
2, 188540, Note_off_c, 0, 78, 100
2, 188668, Note_off_c, 0, 84, 100
2, 188672, Note_on_c, 0, 77, 70
2, 188672, Note_on_c, 0, 80, 70
2, 188800, Note_on_c, 0, 84, 70
2, 188924, Note_off_c, 0, 77, 100
2, 188924, Note_off_c, 0, 80, 100
2, 188924, Note_off_c, 0, 84, 100
2, 189056, Note_on_c, 0, 76, 73
2, 189056, Note_on_c, 0, 79, 73
2, 189184, Note_on_c, 0, 84, 76
2, 189308, Note_off_c, 0, 76, 100
2, 189308, Note_off_c, 0, 79, 100
2, 189436, Note_off_c, 0, 84, 100
2, 189440, Note_on_c, 0, 75, 83
2, 189440, Note_on_c, 0, 78, 83
2, 189568, Note_on_c, 0, 84, 87
2, 189692, Note_off_c, 0, 75, 100
2, 189692, Note_off_c, 0, 78, 100
2, 189820, Note_off_c, 0, 84, 100
2, 189824, Note_on_c, 0, 74, 94
2, 189824, Note_on_c, 0, 77, 94
2, 189952, Note_on_c, 0, 84, 97
2, 190076, Note_off_c, 0, 74, 100
2, 190076, Note_off_c, 0, 77, 100
2, 190204, Note_off_c, 0, 84, 100
2, 190208, Note_on_c, 0, 74, 90
2, 190208, Note_on_c, 0, 77, 90
2, 190336, Note_on_c, 0, 83, 80
2, 190460, Note_off_c, 0, 74, 100
2, 190460, Note_off_c, 0, 77, 100
2, 190460, Note_off_c, 0, 83, 100
2, 190464, Note_on_c, 0, 84, 70
2, 190592, Note_on_c, 0, 79, 70
2, 190716, Note_off_c, 0, 84, 100
2, 190720, Note_on_c, 0, 76, 70
2, 190844, Note_off_c, 0, 79, 100
2, 190848, Note_on_c, 0, 72, 70
2, 190972, Note_off_c, 0, 76, 100
2, 190976, Note_on_c, 0, 67, 70
2, 191100, Note_off_c, 0, 72, 100
2, 191104, Note_on_c, 0, 64, 70
2, 191228, Note_off_c, 0, 67, 100
2, 191232, Note_on_c, 0, 72, 70
2, 191356, Note_off_c, 0, 64, 100
2, 191360, Note_on_c, 0, 67, 70
2, 191484, Note_off_c, 0, 72, 100
2, 191488, Note_on_c, 0, 64, 70
2, 191612, Note_off_c, 0, 67, 100
2, 191740, Note_off_c, 0, 64, 100
2, 195072, Control_c, 0, 11, 0
2, 195264, Note_on_c, 0, 60, 1
2, 195452, Note_off_c, 0, 60, 100
2, 195452, End_track
3, 0, Start_track
3, 0, Title_t, "Piano Left"
3, 0, Control_c, 1, 0, 0
3, 0, Program_c, 1, 0
3, 0, Control_c, 1, 7, 100
3, 0, Control_c, 1, 10, 56
3, 0, Control_c, 1, 91, 127
3, 2304, Note_on_c, 1, 48, 70
3, 2496, Note_on_c, 1, 52, 70
3, 2684, Note_off_c, 1, 52, 100
3, 2688, Note_on_c, 1, 55, 70
3, 2876, Note_off_c, 1, 55, 100
3, 2880, Note_on_c, 1, 60, 70
3, 3068, Note_off_c, 1, 48, 100
3, 3068, Note_off_c, 1, 60, 100
3, 3840, Note_on_c, 1, 48, 70
3, 4028, Note_off_c, 1, 48, 100
3, 4032, Note_on_c, 1, 52, 70
3, 4220, Note_off_c, 1, 52, 100
3, 4224, Note_on_c, 1, 55, 70
3, 4412, Note_off_c, 1, 55, 100
3, 4416, Note_on_c, 1, 60, 70
3, 4604, Note_off_c, 1, 60, 100
3, 4608, Note_on_c, 1, 48, 70
3, 4796, Note_off_c, 1, 48, 100
3, 4800, Note_on_c, 1, 52, 73
3, 4988, Note_off_c, 1, 52, 100
3, 4992, Note_on_c, 1, 55, 77
3, 5180, Note_off_c, 1, 55, 100
3, 5184, Note_on_c, 1, 60, 81
3, 5372, Note_off_c, 1, 60, 100
3, 5376, Note_on_c, 1, 48, 85
3, 5564, Note_off_c, 1, 48, 100
3, 5568, Note_on_c, 1, 52, 89
3, 5756, Note_off_c, 1, 52, 100
3, 5760, Note_on_c, 1, 55, 93
3, 5948, Note_off_c, 1, 55, 100
3, 5952, Note_on_c, 1, 60, 97
3, 6140, Note_off_c, 1, 60, 100
3, 6144, Note_on_c, 1, 62, 100
3, 6144, Note_on_c, 1, 50, 100
3, 7100, Note_off_c, 1, 62, 100
3, 7100, Note_off_c, 1, 50, 100
3, 8448, Note_on_c, 1, 55, 70
3, 8636, Note_off_c, 1, 55, 100
3, 8640, Note_on_c, 1, 59, 70
3, 8828, Note_off_c, 1, 59, 100
3, 8832, Note_on_c, 1, 62, 70
3, 9020, Note_off_c, 1, 62, 100
3, 9024, Note_on_c, 1, 65, 70
3, 9212, Note_off_c, 1, 65, 100
3, 9984, Note_on_c, 1, 43, 70
3, 10172, Note_off_c, 1, 43, 100
3, 10176, Note_on_c, 1, 50, 70
3, 10364, Note_off_c, 1, 50, 100
3, 10368, Note_on_c, 1, 53, 70
3, 10556, Note_off_c, 1, 53, 100
3, 10560, Note_on_c, 1, 55, 70
3, 10748, Note_off_c, 1, 55, 100
3, 10752, Note_on_c, 1, 43, 70
3, 10940, Note_off_c, 1, 43, 100
3, 10944, Note_on_c, 1, 50, 73
3, 11132, Note_off_c, 1, 50, 100
3, 11136, Note_on_c, 1, 53, 77
3, 11324, Note_off_c, 1, 53, 100
3, 11328, Note_on_c, 1, 55, 81
3, 11516, Note_off_c, 1, 55, 100
3, 11520, Note_on_c, 1, 43, 85
3, 11708, Note_off_c, 1, 43, 100
3, 11712, Note_on_c, 1, 50, 89
3, 11900, Note_off_c, 1, 50, 100
3, 11904, Note_on_c, 1, 53, 93
3, 12092, Note_off_c, 1, 53, 100
3, 12096, Note_on_c, 1, 55, 97
3, 12284, Note_off_c, 1, 55, 100
3, 12288, Note_on_c, 1, 60, 100
3, 12288, Note_on_c, 1, 48, 100
3, 13244, Note_off_c, 1, 60, 100
3, 13244, Note_off_c, 1, 48, 100
3, 13952, Note_on_c, 1, 64, 70
3, 14080, Note_on_c, 1, 67, 70
3, 14204, Note_off_c, 1, 64, 100
3, 14208, Note_on_c, 1, 72, 70
3, 14332, Note_off_c, 1, 67, 100
3, 14588, Note_off_c, 1, 72, 100
3, 15488, Note_on_c, 1, 65, 70
3, 15616, Note_on_c, 1, 69, 70
3, 15740, Note_off_c, 1, 65, 100
3, 15744, Note_on_c, 1, 74, 70
3, 15868, Note_off_c, 1, 69, 100
3, 16124, Note_off_c, 1, 74, 100
3, 17024, Note_on_c, 1, 55, 70
3, 17152, Note_on_c, 1, 60, 70
3, 17276, Note_off_c, 1, 55, 100
3, 17280, Note_on_c, 1, 64, 70
3, 17404, Note_off_c, 1, 60, 100
3, 17660, Note_off_c, 1, 64, 100
3, 17792, Note_on_c, 1, 55, 70
3, 17920, Note_on_c, 1, 62, 70
3, 18044, Note_off_c, 1, 55, 100
3, 18048, Note_on_c, 1, 65, 70
3, 18172, Note_off_c, 1, 62, 100
3, 18428, Note_off_c, 1, 65, 100
3, 18560, Note_on_c, 1, 60, 70
3, 18688, Note_on_c, 1, 64, 70
3, 18812, Note_off_c, 1, 60, 100
3, 18816, Note_on_c, 1, 67, 70
3, 18940, Note_off_c, 1, 64, 100
3, 19196, Note_off_c, 1, 67, 100
3, 20096, Note_on_c, 1, 64, 100
3, 20224, Note_on_c, 1, 67, 100
3, 20348, Note_off_c, 1, 64, 100
3, 20352, Note_on_c, 1, 72, 100
3, 20476, Note_off_c, 1, 67, 100
3, 20732, Note_off_c, 1, 72, 100
3, 21632, Note_on_c, 1, 65, 100
3, 21760, Note_on_c, 1, 69, 100
3, 21884, Note_off_c, 1, 65, 100
3, 21888, Note_on_c, 1, 74, 100
3, 22012, Note_off_c, 1, 69, 100
3, 22268, Note_off_c, 1, 74, 100
3, 23168, Note_on_c, 1, 55, 110
3, 23296, Note_on_c, 1, 60, 110
3, 23420, Note_off_c, 1, 55, 100
3, 23424, Note_on_c, 1, 64, 110
3, 23548, Note_off_c, 1, 60, 100
3, 23804, Note_off_c, 1, 64, 100
3, 23936, Note_on_c, 1, 55, 110
3, 24064, Note_on_c, 1, 62, 110
3, 24188, Note_off_c, 1, 55, 100
3, 24192, Note_on_c, 1, 65, 110
3, 24316, Note_off_c, 1, 62, 100
3, 24572, Note_off_c, 1, 65, 100
3, 24576, Note_on_c, 1, 48, 110
3, 24764, Note_off_c, 1, 48, 100
3, 24768, Note_on_c, 1, 52, 110
3, 24956, Note_off_c, 1, 52, 100
3, 24960, Note_on_c, 1, 55, 110
3, 25148, Note_off_c, 1, 55, 100
3, 25152, Note_on_c, 1, 60, 110
3, 25340, Note_off_c, 1, 60, 100
3, 25344, Note_on_c, 1, 48, 110
3, 25724, Note_off_c, 1, 48, 100
3, 26112, Note_on_c, 1, 57, 100
3, 26300, Note_off_c, 1, 57, 100
3, 26304, Note_on_c, 1, 60, 100
3, 26492, Note_off_c, 1, 60, 100
3, 26496, Note_on_c, 1, 66, 100
3, 26684, Note_off_c, 1, 66, 100
3, 26688, Note_on_c, 1, 69, 100
3, 26876, Note_off_c, 1, 69, 100
3, 26880, Note_on_c, 1, 57, 100
3, 27260, Note_off_c, 1, 57, 100
3, 27648, Note_on_c, 1, 54, 100
3, 27836, Note_off_c, 1, 54, 100
3, 27840, Note_on_c, 1, 57, 100
3, 28028, Note_off_c, 1, 57, 100
3, 28032, Note_on_c, 1, 62, 100
3, 28220, Note_off_c, 1, 62, 100
3, 28224, Note_on_c, 1, 66, 100
3, 28412, Note_off_c, 1, 66, 100
3, 28416, Note_on_c, 1, 54, 100
3, 28796, Note_off_c, 1, 54, 100
3, 29184, Note_on_c, 1, 55, 100
3, 29564, Note_off_c, 1, 55, 100
3, 29568, Note_on_c, 1, 59, 70
3, 29948, Note_off_c, 1, 59, 100
3, 29952, Note_on_c, 1, 62, 70
3, 30332, Note_off_c, 1, 62, 100
3, 30336, Note_on_c, 1, 67, 70
3, 30716, Note_off_c, 1, 67, 100
3, 30720, Note_on_c, 1, 69, 70
3, 31100, Note_off_c, 1, 69, 100
3, 31104, Note_on_c, 1, 66, 70
3, 31484, Note_off_c, 1, 66, 100
3, 31488, Note_on_c, 1, 62, 70
3, 31868, Note_off_c, 1, 62, 100
3, 31872, Note_on_c, 1, 60, 70
3, 32252, Note_off_c, 1, 60, 100
3, 32256, Note_on_c, 1, 59, 70
3, 32636, Note_off_c, 1, 59, 100
3, 32640, Note_on_c, 1, 62, 78
3, 33020, Note_off_c, 1, 62, 100
3, 33024, Note_on_c, 1, 66, 86
3, 33404, Note_off_c, 1, 66, 100
3, 33408, Note_on_c, 1, 67, 95
3, 33788, Note_off_c, 1, 67, 100
3, 33792, Note_on_c, 1, 69, 100
3, 34172, Note_off_c, 1, 69, 100
3, 34176, Note_on_c, 1, 66, 92
3, 34556, Note_off_c, 1, 66, 100
3, 34560, Note_on_c, 1, 62, 84
3, 34940, Note_off_c, 1, 62, 100
3, 34944, Note_on_c, 1, 60, 75
3, 35324, Note_off_c, 1, 60, 100
3, 35328, Note_on_c, 1, 59, 70
3, 35708, Note_off_c, 1, 59, 100
3, 35712, Note_on_c, 1, 71, 70
3, 36092, Note_off_c, 1, 71, 100
3, 36096, Note_on_c, 1, 60, 74
3, 36476, Note_off_c, 1, 60, 100
3, 36480, Note_on_c, 1, 72, 79
3, 36860, Note_off_c, 1, 72, 100
3, 36864, Note_on_c, 1, 62, 83
3, 37244, Note_off_c, 1, 62, 100
3, 37248, Note_on_c, 1, 74, 88
3, 37628, Note_off_c, 1, 74, 100
3, 37632, Note_on_c, 1, 63, 93
3, 38012, Note_off_c, 1, 63, 100
3, 38016, Note_on_c, 1, 75, 97
3, 38396, Note_off_c, 1, 75, 100
3, 38400, Note_on_c, 1, 76, 100
3, 38780, Note_off_c, 1, 76, 100
3, 38784, Note_on_c, 1, 75, 70
3, 39164, Note_off_c, 1, 75, 100
3, 39168, Note_on_c, 1, 76, 70
3, 39548, Note_off_c, 1, 76, 100
3, 39552, Note_on_c, 1, 75, 70
3, 39932, Note_off_c, 1, 75, 100
3, 39936, Note_on_c, 1, 76, 70
3, 40316, Note_off_c, 1, 76, 100
3, 40320, Note_on_c, 1, 72, 70
3, 40700, Note_off_c, 1, 72, 100
3, 40704, Note_on_c, 1, 74, 70
3, 41084, Note_off_c, 1, 74, 100
3, 41088, Note_on_c, 1, 62, 70
3, 41468, Note_off_c, 1, 62, 100
3, 41472, Note_on_c, 1, 67, 70
3, 41852, Note_off_c, 1, 67, 100
3, 41856, Note_on_c, 1, 63, 110
3, 41856, Note_on_c, 1, 51, 110
3, 42236, Note_off_c, 1, 63, 100
3, 42236, Note_off_c, 1, 51, 100
3, 42240, Note_on_c, 1, 64, 110
3, 42240, Note_on_c, 1, 52, 110
3, 42620, Note_off_c, 1, 64, 100
3, 42620, Note_off_c, 1, 52, 100
3, 42624, Note_on_c, 1, 63, 110
3, 42624, Note_on_c, 1, 51, 110
3, 43004, Note_off_c, 1, 63, 100
3, 43004, Note_off_c, 1, 51, 100
3, 43008, Note_on_c, 1, 64, 110
3, 43008, Note_on_c, 1, 52, 110
3, 43388, Note_off_c, 1, 64, 100
3, 43388, Note_off_c, 1, 52, 100
3, 43392, Note_on_c, 1, 60, 110
3, 43392, Note_on_c, 1, 48, 110
3, 43772, Note_off_c, 1, 60, 100
3, 43772, Note_off_c, 1, 48, 100
3, 43776, Note_on_c, 1, 62, 110
3, 43776, Note_on_c, 1, 50, 110
3, 44156, Note_off_c, 1, 62, 100
3, 44156, Note_off_c, 1, 50, 100
3, 44160, Note_on_c, 1, 50, 110
3, 44540, Note_off_c, 1, 50, 100
3, 44544, Note_on_c, 1, 43, 110
3, 44928, Note_on_c, 1, 55, 110
3, 45308, Note_off_c, 1, 55, 100
3, 45312, Note_on_c, 1, 55, 110
3, 45692, Note_off_c, 1, 55, 100
3, 45696, Note_on_c, 1, 55, 104
3, 46076, Note_off_c, 1, 43, 100
3, 46076, Note_off_c, 1, 55, 100
3, 46080, Note_on_c, 1, 43, 97
3, 46464, Note_on_c, 1, 55, 90
3, 46844, Note_off_c, 1, 55, 100
3, 46848, Note_on_c, 1, 55, 83
3, 47228, Note_off_c, 1, 55, 100
3, 47232, Note_on_c, 1, 55, 76
3, 47612, Note_off_c, 1, 43, 100
3, 47612, Note_off_c, 1, 55, 100
3, 47616, Note_on_c, 1, 43, 70
3, 47616, Note_on_c, 1, 55, 70
3, 47996, Note_off_c, 1, 43, 100
3, 47996, Note_off_c, 1, 55, 100
3, 48768, Note_on_c, 1, 55, 70
3, 48896, Note_on_c, 1, 50, 70
3, 49020, Note_off_c, 1, 55, 100
3, 49024, Note_on_c, 1, 47, 70
3, 49148, Note_off_c, 1, 50, 100
3, 49148, Note_off_c, 1, 47, 100
3, 49152, Note_on_c, 1, 43, 70
3, 49532, Note_off_c, 1, 43, 100
3, 51456, Note_on_c, 1, 48, 70
3, 51648, Note_on_c, 1, 52, 70
3, 51836, Note_off_c, 1, 52, 100
3, 51840, Note_on_c, 1, 55, 70
3, 52028, Note_off_c, 1, 55, 100
3, 52032, Note_on_c, 1, 60, 70
3, 52220, Note_off_c, 1, 48, 100
3, 52220, Note_off_c, 1, 60, 100
3, 52992, Note_on_c, 1, 48, 70
3, 53180, Note_off_c, 1, 48, 100
3, 53184, Note_on_c, 1, 52, 70
3, 53372, Note_off_c, 1, 52, 100
3, 53376, Note_on_c, 1, 55, 70
3, 53564, Note_off_c, 1, 55, 100
3, 53568, Note_on_c, 1, 60, 70
3, 53756, Note_off_c, 1, 60, 100
3, 53760, Note_on_c, 1, 48, 70
3, 53948, Note_off_c, 1, 48, 100
3, 53952, Note_on_c, 1, 52, 73
3, 54140, Note_off_c, 1, 52, 100
3, 54144, Note_on_c, 1, 55, 77
3, 54332, Note_off_c, 1, 55, 100
3, 54336, Note_on_c, 1, 60, 81
3, 54524, Note_off_c, 1, 60, 100
3, 54528, Note_on_c, 1, 48, 85
3, 54716, Note_off_c, 1, 48, 100
3, 54720, Note_on_c, 1, 52, 89
3, 54908, Note_off_c, 1, 52, 100
3, 54912, Note_on_c, 1, 55, 93
3, 55100, Note_off_c, 1, 55, 100
3, 55104, Note_on_c, 1, 60, 97
3, 55292, Note_off_c, 1, 60, 100
3, 55296, Note_on_c, 1, 62, 100
3, 55296, Note_on_c, 1, 50, 100
3, 56252, Note_off_c, 1, 62, 100
3, 56252, Note_off_c, 1, 50, 100
3, 57600, Note_on_c, 1, 55, 70
3, 57788, Note_off_c, 1, 55, 100
3, 57792, Note_on_c, 1, 59, 70
3, 57980, Note_off_c, 1, 59, 100
3, 57984, Note_on_c, 1, 62, 70
3, 58172, Note_off_c, 1, 62, 100
3, 58176, Note_on_c, 1, 65, 70
3, 58364, Note_off_c, 1, 65, 100
3, 59136, Note_on_c, 1, 43, 70
3, 59324, Note_off_c, 1, 43, 100
3, 59328, Note_on_c, 1, 50, 70
3, 59516, Note_off_c, 1, 50, 100
3, 59520, Note_on_c, 1, 53, 70
3, 59708, Note_off_c, 1, 53, 100
3, 59712, Note_on_c, 1, 55, 70
3, 59900, Note_off_c, 1, 55, 100
3, 59904, Note_on_c, 1, 43, 70
3, 60092, Note_off_c, 1, 43, 100
3, 60096, Note_on_c, 1, 50, 73
3, 60284, Note_off_c, 1, 50, 100
3, 60288, Note_on_c, 1, 53, 77
3, 60476, Note_off_c, 1, 53, 100
3, 60480, Note_on_c, 1, 55, 81
3, 60668, Note_off_c, 1, 55, 100
3, 60672, Note_on_c, 1, 43, 85
3, 60860, Note_off_c, 1, 43, 100
3, 60864, Note_on_c, 1, 50, 89
3, 61052, Note_off_c, 1, 50, 100
3, 61056, Note_on_c, 1, 53, 93
3, 61244, Note_off_c, 1, 53, 100
3, 61248, Note_on_c, 1, 55, 97
3, 61436, Note_off_c, 1, 55, 100
3, 61440, Note_on_c, 1, 60, 100
3, 61440, Note_on_c, 1, 48, 100
3, 62396, Note_off_c, 1, 60, 100
3, 62396, Note_off_c, 1, 48, 100
3, 63104, Note_on_c, 1, 64, 70
3, 63232, Note_on_c, 1, 67, 70
3, 63356, Note_off_c, 1, 64, 100
3, 63360, Note_on_c, 1, 72, 70
3, 63484, Note_off_c, 1, 67, 100
3, 63740, Note_off_c, 1, 72, 100
3, 64640, Note_on_c, 1, 65, 70
3, 64768, Note_on_c, 1, 69, 70
3, 64892, Note_off_c, 1, 65, 100
3, 64896, Note_on_c, 1, 74, 70
3, 65020, Note_off_c, 1, 69, 100
3, 65276, Note_off_c, 1, 74, 100
3, 66176, Note_on_c, 1, 55, 70
3, 66304, Note_on_c, 1, 60, 70
3, 66428, Note_off_c, 1, 55, 100
3, 66432, Note_on_c, 1, 64, 70
3, 66556, Note_off_c, 1, 60, 100
3, 66812, Note_off_c, 1, 64, 100
3, 66944, Note_on_c, 1, 55, 70
3, 67072, Note_on_c, 1, 62, 70
3, 67196, Note_off_c, 1, 55, 100
3, 67200, Note_on_c, 1, 65, 70
3, 67324, Note_off_c, 1, 62, 100
3, 67580, Note_off_c, 1, 65, 100
3, 67712, Note_on_c, 1, 60, 70
3, 67840, Note_on_c, 1, 64, 70
3, 67964, Note_off_c, 1, 60, 100
3, 67968, Note_on_c, 1, 67, 70
3, 68092, Note_off_c, 1, 64, 100
3, 68348, Note_off_c, 1, 67, 100
3, 69248, Note_on_c, 1, 64, 100
3, 69376, Note_on_c, 1, 67, 100
3, 69500, Note_off_c, 1, 64, 100
3, 69504, Note_on_c, 1, 72, 100
3, 69628, Note_off_c, 1, 67, 100
3, 69884, Note_off_c, 1, 72, 100
3, 70784, Note_on_c, 1, 65, 100
3, 70912, Note_on_c, 1, 69, 100
3, 71036, Note_off_c, 1, 65, 100
3, 71040, Note_on_c, 1, 74, 100
3, 71164, Note_off_c, 1, 69, 100
3, 71420, Note_off_c, 1, 74, 100
3, 72320, Note_on_c, 1, 55, 110
3, 72448, Note_on_c, 1, 60, 110
3, 72572, Note_off_c, 1, 55, 100
3, 72576, Note_on_c, 1, 64, 110
3, 72700, Note_off_c, 1, 60, 100
3, 72956, Note_off_c, 1, 64, 100
3, 73088, Note_on_c, 1, 55, 110
3, 73216, Note_on_c, 1, 62, 110
3, 73340, Note_off_c, 1, 55, 100
3, 73344, Note_on_c, 1, 65, 110
3, 73468, Note_off_c, 1, 62, 100
3, 73724, Note_off_c, 1, 65, 100
3, 73728, Note_on_c, 1, 48, 110
3, 73916, Note_off_c, 1, 48, 100
3, 73920, Note_on_c, 1, 52, 110
3, 74108, Note_off_c, 1, 52, 100
3, 74112, Note_on_c, 1, 55, 110
3, 74300, Note_off_c, 1, 55, 100
3, 74304, Note_on_c, 1, 60, 110
3, 74492, Note_off_c, 1, 60, 100
3, 74496, Note_on_c, 1, 48, 110
3, 74876, Note_off_c, 1, 48, 100
3, 75264, Note_on_c, 1, 57, 100
3, 75452, Note_off_c, 1, 57, 100
3, 75456, Note_on_c, 1, 60, 100
3, 75644, Note_off_c, 1, 60, 100
3, 75648, Note_on_c, 1, 66, 100
3, 75836, Note_off_c, 1, 66, 100
3, 75840, Note_on_c, 1, 69, 100
3, 76028, Note_off_c, 1, 69, 100
3, 76032, Note_on_c, 1, 57, 100
3, 76412, Note_off_c, 1, 57, 100
3, 76800, Note_on_c, 1, 54, 100
3, 76988, Note_off_c, 1, 54, 100
3, 76992, Note_on_c, 1, 57, 100
3, 77180, Note_off_c, 1, 57, 100
3, 77184, Note_on_c, 1, 62, 100
3, 77372, Note_off_c, 1, 62, 100
3, 77376, Note_on_c, 1, 66, 100
3, 77564, Note_off_c, 1, 66, 100
3, 77568, Note_on_c, 1, 54, 100
3, 77948, Note_off_c, 1, 54, 100
3, 78336, Note_on_c, 1, 55, 100
3, 78716, Note_off_c, 1, 55, 100
3, 78720, Note_on_c, 1, 59, 70
3, 79100, Note_off_c, 1, 59, 100
3, 79104, Note_on_c, 1, 62, 70
3, 79484, Note_off_c, 1, 62, 100
3, 79488, Note_on_c, 1, 67, 70
3, 79868, Note_off_c, 1, 67, 100
3, 79872, Note_on_c, 1, 69, 70
3, 80252, Note_off_c, 1, 69, 100
3, 80256, Note_on_c, 1, 66, 70
3, 80636, Note_off_c, 1, 66, 100
3, 80640, Note_on_c, 1, 62, 70
3, 81020, Note_off_c, 1, 62, 100
3, 81024, Note_on_c, 1, 60, 70
3, 81404, Note_off_c, 1, 60, 100
3, 81408, Note_on_c, 1, 59, 70
3, 81788, Note_off_c, 1, 59, 100
3, 81792, Note_on_c, 1, 62, 78
3, 82172, Note_off_c, 1, 62, 100
3, 82176, Note_on_c, 1, 66, 86
3, 82556, Note_off_c, 1, 66, 100
3, 82560, Note_on_c, 1, 67, 95
3, 82940, Note_off_c, 1, 67, 100
3, 82944, Note_on_c, 1, 69, 100
3, 83324, Note_off_c, 1, 69, 100
3, 83328, Note_on_c, 1, 66, 92
3, 83708, Note_off_c, 1, 66, 100
3, 83712, Note_on_c, 1, 62, 84
3, 84092, Note_off_c, 1, 62, 100
3, 84096, Note_on_c, 1, 60, 75
3, 84476, Note_off_c, 1, 60, 100
3, 84480, Note_on_c, 1, 59, 70
3, 84860, Note_off_c, 1, 59, 100
3, 84864, Note_on_c, 1, 71, 70
3, 85244, Note_off_c, 1, 71, 100
3, 85248, Note_on_c, 1, 60, 74
3, 85628, Note_off_c, 1, 60, 100
3, 85632, Note_on_c, 1, 72, 79
3, 86012, Note_off_c, 1, 72, 100
3, 86016, Note_on_c, 1, 62, 83
3, 86396, Note_off_c, 1, 62, 100
3, 86400, Note_on_c, 1, 74, 88
3, 86780, Note_off_c, 1, 74, 100
3, 86784, Note_on_c, 1, 63, 93
3, 87164, Note_off_c, 1, 63, 100
3, 87168, Note_on_c, 1, 75, 97
3, 87548, Note_off_c, 1, 75, 100
3, 87552, Note_on_c, 1, 76, 100
3, 87932, Note_off_c, 1, 76, 100
3, 87936, Note_on_c, 1, 75, 70
3, 88316, Note_off_c, 1, 75, 100
3, 88320, Note_on_c, 1, 76, 70
3, 88700, Note_off_c, 1, 76, 100
3, 88704, Note_on_c, 1, 75, 70
3, 89084, Note_off_c, 1, 75, 100
3, 89088, Note_on_c, 1, 76, 70
3, 89468, Note_off_c, 1, 76, 100
3, 89472, Note_on_c, 1, 72, 70
3, 89852, Note_off_c, 1, 72, 100
3, 89856, Note_on_c, 1, 74, 70
3, 90236, Note_off_c, 1, 74, 100
3, 90240, Note_on_c, 1, 62, 70
3, 90620, Note_off_c, 1, 62, 100
3, 90624, Note_on_c, 1, 67, 70
3, 91004, Note_off_c, 1, 67, 100
3, 91008, Note_on_c, 1, 63, 110
3, 91008, Note_on_c, 1, 51, 110
3, 91388, Note_off_c, 1, 63, 100
3, 91388, Note_off_c, 1, 51, 100
3, 91392, Note_on_c, 1, 64, 110
3, 91392, Note_on_c, 1, 52, 110
3, 91772, Note_off_c, 1, 64, 100
3, 91772, Note_off_c, 1, 52, 100
3, 91776, Note_on_c, 1, 63, 110
3, 91776, Note_on_c, 1, 51, 110
3, 92156, Note_off_c, 1, 63, 100
3, 92156, Note_off_c, 1, 51, 100
3, 92160, Note_on_c, 1, 64, 110
3, 92160, Note_on_c, 1, 52, 110
3, 92540, Note_off_c, 1, 64, 100
3, 92540, Note_off_c, 1, 52, 100
3, 92544, Note_on_c, 1, 60, 110
3, 92544, Note_on_c, 1, 48, 110
3, 92924, Note_off_c, 1, 60, 100
3, 92924, Note_off_c, 1, 48, 100
3, 92928, Note_on_c, 1, 62, 110
3, 92928, Note_on_c, 1, 50, 110
3, 93308, Note_off_c, 1, 62, 100
3, 93308, Note_off_c, 1, 50, 100
3, 93312, Note_on_c, 1, 50, 110
3, 93692, Note_off_c, 1, 50, 100
3, 93696, Note_on_c, 1, 43, 110
3, 94080, Note_on_c, 1, 55, 110
3, 94460, Note_off_c, 1, 55, 100
3, 94464, Note_on_c, 1, 55, 110
3, 94844, Note_off_c, 1, 55, 100
3, 94848, Note_on_c, 1, 55, 104
3, 95228, Note_off_c, 1, 43, 100
3, 95228, Note_off_c, 1, 55, 100
3, 95232, Note_on_c, 1, 43, 97
3, 95616, Note_on_c, 1, 55, 90
3, 95996, Note_off_c, 1, 55, 100
3, 96000, Note_on_c, 1, 55, 83
3, 96380, Note_off_c, 1, 55, 100
3, 96384, Note_on_c, 1, 55, 76
3, 96764, Note_off_c, 1, 43, 100
3, 96764, Note_off_c, 1, 55, 100
3, 96768, Note_on_c, 1, 43, 70
3, 96768, Note_on_c, 1, 55, 70
3, 97148, Note_off_c, 1, 43, 100
3, 97148, Note_off_c, 1, 55, 100
3, 97920, Note_on_c, 1, 55, 70
3, 98048, Note_on_c, 1, 50, 70
3, 98172, Note_off_c, 1, 55, 100
3, 98176, Note_on_c, 1, 47, 70
3, 98300, Note_off_c, 1, 50, 100
3, 98300, Note_off_c, 1, 47, 100
3, 98304, Note_on_c, 1, 43, 70
3, 98684, Note_off_c, 1, 43, 100
3, 100608, Note_on_c, 1, 51, 100
3, 100796, Note_off_c, 1, 51, 100
3, 100800, Note_on_c, 1, 55, 100
3, 100988, Note_off_c, 1, 55, 100
3, 100992, Note_on_c, 1, 58, 100
3, 101180, Note_off_c, 1, 58, 100
3, 101184, Note_on_c, 1, 63, 100
3, 101372, Note_off_c, 1, 63, 100
3, 102144, Note_on_c, 1, 51, 100
3, 102332, Note_off_c, 1, 51, 100
3, 102336, Note_on_c, 1, 55, 100
3, 102524, Note_off_c, 1, 55, 100
3, 102528, Note_on_c, 1, 58, 100
3, 102716, Note_off_c, 1, 58, 100
3, 102720, Note_on_c, 1, 63, 100
3, 102908, Note_off_c, 1, 63, 100
3, 102912, Note_on_c, 1, 51, 100
3, 103100, Note_off_c, 1, 51, 100
3, 103104, Note_on_c, 1, 55, 100
3, 103292, Note_off_c, 1, 55, 100
3, 103296, Note_on_c, 1, 58, 100
3, 103484, Note_off_c, 1, 58, 100
3, 103488, Note_on_c, 1, 63, 100
3, 103676, Note_off_c, 1, 63, 100
3, 103680, Note_on_c, 1, 51, 100
3, 103868, Note_off_c, 1, 51, 100
3, 103872, Note_on_c, 1, 55, 100
3, 104060, Note_off_c, 1, 55, 100
3, 104064, Note_on_c, 1, 58, 100
3, 104252, Note_off_c, 1, 58, 100
3, 104256, Note_on_c, 1, 63, 100
3, 104444, Note_off_c, 1, 63, 100
3, 104448, Note_on_c, 1, 65, 100
3, 104448, Note_on_c, 1, 53, 100
3, 105404, Note_off_c, 1, 65, 100
3, 105404, Note_off_c, 1, 53, 100
3, 105984, Note_on_c, 1, 53, 70
3, 106172, Note_off_c, 1, 53, 100
3, 106176, Note_on_c, 1, 58, 74
3, 106364, Note_off_c, 1, 58, 100
3, 106368, Note_on_c, 1, 62, 78
3, 106556, Note_off_c, 1, 62, 100
3, 106560, Note_on_c, 1, 65, 83
3, 106748, Note_off_c, 1, 65, 100
3, 106752, Note_on_c, 1, 53, 87
3, 106940, Note_off_c, 1, 53, 100
3, 106944, Note_on_c, 1, 58, 92
3, 107132, Note_off_c, 1, 58, 100
3, 107136, Note_on_c, 1, 62, 96
3, 107324, Note_off_c, 1, 62, 100
3, 107328, Note_on_c, 1, 65, 100
3, 107516, Note_off_c, 1, 65, 100
3, 107520, Note_on_c, 1, 67, 100
3, 107520, Note_on_c, 1, 55, 100
3, 108476, Note_off_c, 1, 67, 100
3, 108476, Note_off_c, 1, 55, 100
3, 109056, Note_on_c, 1, 55, 70
3, 109244, Note_off_c, 1, 55, 100
3, 109248, Note_on_c, 1, 61, 75
3, 109436, Note_off_c, 1, 61, 100
3, 109440, Note_on_c, 1, 64, 80
3, 109628, Note_off_c, 1, 64, 100
3, 109632, Note_on_c, 1, 67, 85
3, 109820, Note_off_c, 1, 67, 100
3, 109824, Note_on_c, 1, 55, 90
3, 110012, Note_off_c, 1, 55, 100
3, 110016, Note_on_c, 1, 61, 95
3, 110204, Note_off_c, 1, 61, 100
3, 110208, Note_on_c, 1, 64, 100
3, 110396, Note_off_c, 1, 64, 100
3, 110400, Note_on_c, 1, 67, 85
3, 110588, Note_off_c, 1, 67, 100
3, 110592, Note_on_c, 1, 56, 70
3, 110972, Note_off_c, 1, 56, 100
3, 110976, Note_on_c, 1, 68, 70
3, 111356, Note_off_c, 1, 68, 100
3, 111360, Note_on_c, 1, 68, 70
3, 111740, Note_off_c, 1, 68, 100
3, 111744, Note_on_c, 1, 68, 70
3, 112124, Note_off_c, 1, 68, 100
3, 112128, Note_on_c, 1, 55, 70
3, 112508, Note_off_c, 1, 55, 100
3, 112512, Note_on_c, 1, 67, 70
3, 112892, Note_off_c, 1, 67, 100
3, 112896, Note_on_c, 1, 67, 70
3, 113276, Note_off_c, 1, 67, 100
3, 113280, Note_on_c, 1, 67, 70
3, 113660, Note_off_c, 1, 67, 100
3, 113664, Note_on_c, 1, 53, 70
3, 114044, Note_off_c, 1, 53, 100
3, 114048, Note_on_c, 1, 65, 70
3, 114428, Note_off_c, 1, 65, 100
3, 114432, Note_on_c, 1, 65, 70
3, 114812, Note_off_c, 1, 65, 100
3, 114816, Note_on_c, 1, 65, 70
3, 115196, Note_off_c, 1, 65, 100
3, 115200, Note_on_c, 1, 51, 70
3, 115580, Note_off_c, 1, 51, 100
3, 115584, Note_on_c, 1, 63, 70
3, 115964, Note_off_c, 1, 63, 100
3, 115968, Note_on_c, 1, 63, 70
3, 116348, Note_off_c, 1, 63, 100
3, 116352, Note_on_c, 1, 63, 70
3, 116732, Note_off_c, 1, 63, 100
3, 117504, Note_on_c, 1, 49, 70
3, 117692, Note_off_c, 1, 49, 100
3, 117696, Note_on_c, 1, 53, 70
3, 117884, Note_off_c, 1, 53, 100
3, 117888, Note_on_c, 1, 56, 70
3, 118076, Note_off_c, 1, 56, 100
3, 118080, Note_on_c, 1, 61, 70
3, 118268, Note_off_c, 1, 61, 100
3, 119040, Note_on_c, 1, 49, 70
3, 119228, Note_off_c, 1, 49, 100
3, 119232, Note_on_c, 1, 53, 70
3, 119420, Note_off_c, 1, 53, 100
3, 119424, Note_on_c, 1, 56, 70
3, 119612, Note_off_c, 1, 56, 100
3, 119616, Note_on_c, 1, 61, 70
3, 119804, Note_off_c, 1, 61, 100
3, 119808, Note_on_c, 1, 61, 70
3, 120572, Note_off_c, 1, 61, 100
3, 120576, Note_on_c, 1, 60, 81
3, 121340, Note_off_c, 1, 60, 100
3, 121344, Note_on_c, 1, 59, 90
3, 122108, Note_off_c, 1, 59, 100
3, 122112, Note_on_c, 1, 60, 79
3, 122876, Note_off_c, 1, 60, 100
3, 122880, Note_on_c, 1, 53, 70
3, 124028, Note_off_c, 1, 53, 100
3, 124032, Note_on_c, 1, 53, 70
3, 124412, Note_off_c, 1, 53, 100
3, 124416, Note_on_c, 1, 54, 70
3, 125564, Note_off_c, 1, 54, 100
3, 125568, Note_on_c, 1, 54, 70
3, 125948, Note_off_c, 1, 54, 100
3, 125952, Note_on_c, 1, 55, 60
3, 126460, Note_off_c, 1, 55, 100
3, 126464, Note_on_c, 1, 59, 60
3, 126592, Note_on_c, 1, 62, 60
3, 126716, Note_off_c, 1, 59, 100
3, 126720, Note_on_c, 1, 55, 60
3, 126844, Note_off_c, 1, 62, 100
3, 127228, Note_off_c, 1, 55, 100
3, 127232, Note_on_c, 1, 60, 60
3, 127360, Note_on_c, 1, 63, 60
3, 127484, Note_off_c, 1, 60, 100
3, 127484, Note_off_c, 1, 63, 100
3, 127488, Note_on_c, 1, 55, 60
3, 127996, Note_off_c, 1, 55, 100
3, 128000, Note_on_c, 1, 62, 60
3, 128128, Note_on_c, 1, 65, 60
3, 128252, Note_off_c, 1, 62, 100
3, 128256, Note_on_c, 1, 55, 60
3, 128380, Note_off_c, 1, 65, 100
3, 128764, Note_off_c, 1, 55, 100
3, 128768, Note_on_c, 1, 60, 60
3, 128896, Note_on_c, 1, 63, 60
3, 129020, Note_off_c, 1, 60, 100
3, 129020, Note_off_c, 1, 63, 100
3, 129024, Note_on_c, 1, 55, 60
3, 129532, Note_off_c, 1, 55, 100
3, 129536, Note_on_c, 1, 59, 60
3, 129664, Note_on_c, 1, 62, 60
3, 129788, Note_off_c, 1, 59, 100
3, 129792, Note_on_c, 1, 55, 60
3, 129916, Note_off_c, 1, 62, 100
3, 130300, Note_off_c, 1, 55, 100
3, 130304, Note_on_c, 1, 60, 71
3, 130432, Note_on_c, 1, 63, 74
3, 130556, Note_off_c, 1, 60, 100
3, 130556, Note_off_c, 1, 63, 100
3, 130560, Note_on_c, 1, 55, 76
3, 131068, Note_off_c, 1, 55, 100
3, 131072, Note_on_c, 1, 61, 88
3, 131200, Note_on_c, 1, 64, 91
3, 131324, Note_off_c, 1, 61, 100
3, 131328, Note_on_c, 1, 55, 93
3, 131452, Note_off_c, 1, 64, 100
3, 131836, Note_off_c, 1, 55, 100
3, 131840, Note_on_c, 1, 62, 105
3, 131968, Note_on_c, 1, 65, 108
3, 132092, Note_off_c, 1, 62, 100
3, 132092, Note_off_c, 1, 65, 100
3, 132096, Note_on_c, 1, 55, 110
3, 132604, Note_off_c, 1, 55, 100
3, 132608, Note_on_c, 1, 62, 110
3, 132736, Note_on_c, 1, 65, 110
3, 132860, Note_off_c, 1, 62, 100
3, 133372, Note_off_c, 1, 65, 100
3, 135936, Note_on_c, 1, 48, 70
3, 136124, Note_off_c, 1, 48, 100
3, 136128, Note_on_c, 1, 52, 70
3, 136316, Note_off_c, 1, 52, 100
3, 136320, Note_on_c, 1, 55, 70
3, 136508, Note_off_c, 1, 55, 100
3, 136512, Note_on_c, 1, 60, 70
3, 136700, Note_off_c, 1, 60, 100
3, 137472, Note_on_c, 1, 48, 70
3, 137660, Note_off_c, 1, 48, 100
3, 137664, Note_on_c, 1, 52, 70
3, 137852, Note_off_c, 1, 52, 100
3, 137856, Note_on_c, 1, 55, 70
3, 138044, Note_off_c, 1, 55, 100
3, 138048, Note_on_c, 1, 60, 70
3, 138236, Note_off_c, 1, 60, 100
3, 138240, Note_on_c, 1, 48, 70
3, 138428, Note_off_c, 1, 48, 100
3, 138432, Note_on_c, 1, 52, 73
3, 138620, Note_off_c, 1, 52, 100
3, 138624, Note_on_c, 1, 55, 77
3, 138812, Note_off_c, 1, 55, 100
3, 138816, Note_on_c, 1, 60, 81
3, 139004, Note_off_c, 1, 60, 100
3, 139008, Note_on_c, 1, 48, 85
3, 139196, Note_off_c, 1, 48, 100
3, 139200, Note_on_c, 1, 52, 89
3, 139388, Note_off_c, 1, 52, 100
3, 139392, Note_on_c, 1, 55, 93
3, 139580, Note_off_c, 1, 55, 100
3, 139584, Note_on_c, 1, 60, 97
3, 139772, Note_off_c, 1, 60, 100
3, 139776, Note_on_c, 1, 62, 100
3, 139776, Note_on_c, 1, 50, 100
3, 140732, Note_off_c, 1, 62, 100
3, 140732, Note_off_c, 1, 50, 100
3, 142080, Note_on_c, 1, 55, 70
3, 142268, Note_off_c, 1, 55, 100
3, 142272, Note_on_c, 1, 59, 70
3, 142460, Note_off_c, 1, 59, 100
3, 142464, Note_on_c, 1, 62, 70
3, 142652, Note_off_c, 1, 62, 100
3, 142656, Note_on_c, 1, 65, 70
3, 142844, Note_off_c, 1, 65, 100
3, 143616, Note_on_c, 1, 43, 70
3, 143804, Note_off_c, 1, 43, 100
3, 143808, Note_on_c, 1, 50, 70
3, 143996, Note_off_c, 1, 50, 100
3, 144000, Note_on_c, 1, 53, 70
3, 144188, Note_off_c, 1, 53, 100
3, 144192, Note_on_c, 1, 55, 70
3, 144380, Note_off_c, 1, 55, 100
3, 144384, Note_on_c, 1, 43, 70
3, 144572, Note_off_c, 1, 43, 100
3, 144576, Note_on_c, 1, 50, 73
3, 144764, Note_off_c, 1, 50, 100
3, 144768, Note_on_c, 1, 53, 77
3, 144956, Note_off_c, 1, 53, 100
3, 144960, Note_on_c, 1, 55, 81
3, 145148, Note_off_c, 1, 55, 100
3, 145152, Note_on_c, 1, 43, 85
3, 145340, Note_off_c, 1, 43, 100
3, 145344, Note_on_c, 1, 50, 89
3, 145532, Note_off_c, 1, 50, 100
3, 145536, Note_on_c, 1, 53, 93
3, 145724, Note_off_c, 1, 53, 100
3, 145728, Note_on_c, 1, 55, 97
3, 145916, Note_off_c, 1, 55, 100
3, 145920, Note_on_c, 1, 60, 100
3, 145920, Note_on_c, 1, 48, 100
3, 146876, Note_off_c, 1, 60, 100
3, 146876, Note_off_c, 1, 48, 100
3, 147584, Note_on_c, 1, 64, 70
3, 147712, Note_on_c, 1, 67, 70
3, 147836, Note_off_c, 1, 64, 100
3, 147840, Note_on_c, 1, 72, 70
3, 147964, Note_off_c, 1, 67, 100
3, 148220, Note_off_c, 1, 72, 100
3, 149120, Note_on_c, 1, 65, 70
3, 149248, Note_on_c, 1, 69, 70
3, 149372, Note_off_c, 1, 65, 100
3, 149376, Note_on_c, 1, 74, 70
3, 149500, Note_off_c, 1, 69, 100
3, 149756, Note_off_c, 1, 74, 100
3, 150656, Note_on_c, 1, 55, 70
3, 150784, Note_on_c, 1, 60, 70
3, 150908, Note_off_c, 1, 55, 100
3, 150912, Note_on_c, 1, 64, 70
3, 151036, Note_off_c, 1, 60, 100
3, 151292, Note_off_c, 1, 64, 100
3, 151424, Note_on_c, 1, 55, 70
3, 151552, Note_on_c, 1, 62, 70
3, 151676, Note_off_c, 1, 55, 100
3, 151680, Note_on_c, 1, 65, 70
3, 151804, Note_off_c, 1, 62, 100
3, 152060, Note_off_c, 1, 65, 100
3, 152192, Note_on_c, 1, 60, 70
3, 152320, Note_on_c, 1, 64, 70
3, 152444, Note_off_c, 1, 60, 100
3, 152448, Note_on_c, 1, 67, 70
3, 152572, Note_off_c, 1, 64, 100
3, 152828, Note_off_c, 1, 67, 100
3, 153728, Note_on_c, 1, 64, 100
3, 153856, Note_on_c, 1, 67, 100
3, 153980, Note_off_c, 1, 64, 100
3, 153984, Note_on_c, 1, 72, 100
3, 154108, Note_off_c, 1, 67, 100
3, 154364, Note_off_c, 1, 72, 100
3, 155264, Note_on_c, 1, 64, 100
3, 155392, Note_on_c, 1, 67, 100
3, 155516, Note_off_c, 1, 64, 100
3, 155520, Note_on_c, 1, 72, 100
3, 155644, Note_off_c, 1, 67, 100
3, 155900, Note_off_c, 1, 72, 100
3, 156800, Note_on_c, 1, 65, 70
3, 156928, Note_on_c, 1, 69, 70
3, 157052, Note_off_c, 1, 65, 100
3, 157056, Note_on_c, 1, 72, 70
3, 157180, Note_off_c, 1, 69, 100
3, 157436, Note_off_c, 1, 72, 100
3, 157568, Note_on_c, 1, 58, 70
3, 157696, Note_on_c, 1, 62, 70
3, 157820, Note_off_c, 1, 58, 100
3, 157824, Note_on_c, 1, 67, 70
3, 157948, Note_off_c, 1, 62, 100
3, 158204, Note_off_c, 1, 67, 100
3, 158336, Note_on_c, 1, 60, 70
3, 158464, Note_on_c, 1, 65, 70
3, 158588, Note_off_c, 1, 60, 100
3, 158592, Note_on_c, 1, 69, 70
3, 158716, Note_off_c, 1, 65, 100
3, 158972, Note_off_c, 1, 69, 100
3, 159104, Note_on_c, 1, 48, 70
3, 159232, Note_on_c, 1, 55, 70
3, 159356, Note_off_c, 1, 48, 100
3, 159360, Note_on_c, 1, 60, 70
3, 159484, Note_off_c, 1, 55, 100
3, 159740, Note_off_c, 1, 60, 100
3, 159744, Note_on_c, 1, 53, 70
3, 160124, Note_off_c, 1, 53, 100
3, 160128, Note_on_c, 1, 60, 70
3, 160508, Note_off_c, 1, 60, 100
3, 160512, Note_on_c, 1, 65, 70
3, 160892, Note_off_c, 1, 65, 100
3, 160896, Note_on_c, 1, 69, 70
3, 161276, Note_off_c, 1, 69, 100
3, 161280, Note_on_c, 1, 67, 70
3, 161660, Note_off_c, 1, 67, 100
3, 161664, Note_on_c, 1, 64, 70
3, 162044, Note_off_c, 1, 64, 100
3, 162048, Note_on_c, 1, 60, 70
3, 162428, Note_off_c, 1, 60, 100
3, 162432, Note_on_c, 1, 58, 70
3, 162812, Note_off_c, 1, 58, 100
3, 162816, Note_on_c, 1, 57, 70
3, 163196, Note_off_c, 1, 57, 100
3, 163200, Note_on_c, 1, 60, 75
3, 163580, Note_off_c, 1, 60, 100
3, 163584, Note_on_c, 1, 65, 81
3, 163964, Note_off_c, 1, 65, 100
3, 163968, Note_on_c, 1, 69, 87
3, 164348, Note_off_c, 1, 69, 100
3, 164352, Note_on_c, 1, 67, 90
3, 164732, Note_off_c, 1, 67, 100
3, 164736, Note_on_c, 1, 64, 85
3, 165116, Note_off_c, 1, 64, 100
3, 165120, Note_on_c, 1, 60, 79
3, 165500, Note_off_c, 1, 60, 100
3, 165504, Note_on_c, 1, 58, 73
3, 165884, Note_off_c, 1, 58, 100
3, 165888, Note_on_c, 1, 57, 70
3, 166268, Note_off_c, 1, 57, 100
3, 166272, Note_on_c, 1, 65, 70
3, 166652, Note_off_c, 1, 65, 100
3, 166656, Note_on_c, 1, 59, 70
3, 167036, Note_off_c, 1, 59, 100
3, 167040, Note_on_c, 1, 67, 76
3, 167420, Note_off_c, 1, 67, 100
3, 167424, Note_on_c, 1, 60, 83
3, 167804, Note_off_c, 1, 60, 100
3, 167808, Note_on_c, 1, 67, 90
3, 168188, Note_off_c, 1, 67, 100
3, 168192, Note_on_c, 1, 55, 97
3, 168572, Note_off_c, 1, 55, 100
3, 168576, Note_on_c, 1, 65, 104
3, 168956, Note_off_c, 1, 65, 100
3, 168960, Note_on_c, 1, 48, 110
3, 169340, Note_off_c, 1, 48, 100
3, 169344, Note_on_c, 1, 55, 70
3, 169724, Note_off_c, 1, 55, 100
3, 169728, Note_on_c, 1, 60, 70
3, 170108, Note_off_c, 1, 60, 100
3, 170112, Note_on_c, 1, 64, 70
3, 170492, Note_off_c, 1, 64, 100
3, 170496, Note_on_c, 1, 62, 70
3, 170876, Note_off_c, 1, 62, 100
3, 170880, Note_on_c, 1, 59, 70
3, 171260, Note_off_c, 1, 59, 100
3, 171264, Note_on_c, 1, 55, 70
3, 171644, Note_off_c, 1, 55, 100
3, 171648, Note_on_c, 1, 53, 70
3, 172028, Note_off_c, 1, 53, 100
3, 172032, Note_on_c, 1, 48, 70
3, 172412, Note_off_c, 1, 48, 100
3, 172416, Note_on_c, 1, 55, 75
3, 172796, Note_off_c, 1, 55, 100
3, 172800, Note_on_c, 1, 60, 81
3, 173180, Note_off_c, 1, 60, 100
3, 173184, Note_on_c, 1, 64, 87
3, 173564, Note_off_c, 1, 64, 100
3, 173568, Note_on_c, 1, 62, 90
3, 173948, Note_off_c, 1, 62, 100
3, 173952, Note_on_c, 1, 59, 85
3, 174332, Note_off_c, 1, 59, 100
3, 174336, Note_on_c, 1, 55, 79
3, 174716, Note_off_c, 1, 55, 100
3, 174720, Note_on_c, 1, 53, 73
3, 175100, Note_off_c, 1, 53, 100
3, 175104, Note_on_c, 1, 52, 70
3, 175484, Note_off_c, 1, 52, 100
3, 175488, Note_on_c, 1, 64, 70
3, 175868, Note_off_c, 1, 64, 100
3, 175872, Note_on_c, 1, 53, 73
3, 176252, Note_off_c, 1, 53, 100
3, 176256, Note_on_c, 1, 65, 78
3, 176636, Note_off_c, 1, 65, 100
3, 176640, Note_on_c, 1, 55, 83
3, 177020, Note_off_c, 1, 55, 100
3, 177024, Note_on_c, 1, 67, 87
3, 177404, Note_off_c, 1, 67, 100
3, 177408, Note_on_c, 1, 56, 92
3, 177788, Note_off_c, 1, 56, 100
3, 177792, Note_on_c, 1, 68, 97
3, 178172, Note_off_c, 1, 68, 100
3, 178176, Note_on_c, 1, 69, 100
3, 178556, Note_off_c, 1, 69, 100
3, 178560, Note_on_c, 1, 68, 70
3, 178940, Note_off_c, 1, 68, 100
3, 178944, Note_on_c, 1, 69, 70
3, 179324, Note_off_c, 1, 69, 100
3, 179328, Note_on_c, 1, 68, 70
3, 179708, Note_off_c, 1, 68, 100
3, 179712, Note_on_c, 1, 69, 70
3, 180092, Note_off_c, 1, 69, 100
3, 180096, Note_on_c, 1, 65, 70
3, 180476, Note_off_c, 1, 65, 100
3, 180480, Note_on_c, 1, 67, 70
3, 180860, Note_off_c, 1, 67, 100
3, 180864, Note_on_c, 1, 55, 70
3, 181244, Note_off_c, 1, 55, 100
3, 181248, Note_on_c, 1, 60, 70
3, 181628, Note_off_c, 1, 60, 100
3, 181632, Note_on_c, 1, 56, 100
3, 181632, Note_on_c, 1, 68, 100
3, 182012, Note_off_c, 1, 56, 100
3, 182012, Note_off_c, 1, 68, 100
3, 182016, Note_on_c, 1, 57, 100
3, 182016, Note_on_c, 1, 69, 100
3, 182396, Note_off_c, 1, 57, 100
3, 182396, Note_off_c, 1, 69, 100
3, 182400, Note_on_c, 1, 56, 100
3, 182400, Note_on_c, 1, 68, 100
3, 182780, Note_off_c, 1, 56, 100
3, 182780, Note_off_c, 1, 68, 100
3, 182784, Note_on_c, 1, 57, 100
3, 182784, Note_on_c, 1, 69, 100
3, 183164, Note_off_c, 1, 57, 100
3, 183164, Note_off_c, 1, 69, 100
3, 183168, Note_on_c, 1, 65, 100
3, 183548, Note_off_c, 1, 65, 100
3, 183552, Note_on_c, 1, 67, 100
3, 183932, Note_off_c, 1, 67, 100
3, 183936, Note_on_c, 1, 55, 100
3, 184316, Note_off_c, 1, 55, 100
3, 184320, Note_on_c, 1, 48, 100
3, 184704, Note_on_c, 1, 60, 100
3, 185084, Note_off_c, 1, 60, 100
3, 185088, Note_on_c, 1, 60, 100
3, 185468, Note_off_c, 1, 60, 100
3, 185472, Note_on_c, 1, 60, 100
3, 185852, Note_off_c, 1, 48, 100
3, 185852, Note_off_c, 1, 60, 100
3, 185856, Note_on_c, 1, 48, 100
3, 186240, Note_on_c, 1, 60, 92
3, 186620, Note_off_c, 1, 60, 100
3, 186624, Note_on_c, 1, 60, 84
3, 187004, Note_off_c, 1, 60, 100
3, 187008, Note_on_c, 1, 60, 75
3, 187388, Note_off_c, 1, 48, 100
3, 187388, Note_off_c, 1, 60, 100
3, 187392, Note_on_c, 1, 48, 70
3, 187776, Note_on_c, 1, 60, 70
3, 188156, Note_off_c, 1, 60, 100
3, 188160, Note_on_c, 1, 60, 70
3, 188540, Note_off_c, 1, 60, 100
3, 188544, Note_on_c, 1, 60, 70
3, 188924, Note_off_c, 1, 48, 100
3, 188924, Note_off_c, 1, 60, 100
3, 188928, Note_on_c, 1, 48, 70
3, 189312, Note_on_c, 1, 60, 80
3, 189692, Note_off_c, 1, 60, 100
3, 189696, Note_on_c, 1, 60, 90
3, 190076, Note_off_c, 1, 60, 100
3, 190080, Note_on_c, 1, 60, 100
3, 190460, Note_off_c, 1, 48, 100
3, 190460, Note_off_c, 1, 60, 100
3, 190464, Note_on_c, 1, 48, 70
3, 190844, Note_off_c, 1, 48, 100
3, 191616, Note_on_c, 1, 60, 70
3, 191744, Note_on_c, 1, 55, 70
3, 191868, Note_off_c, 1, 60, 100
3, 191872, Note_on_c, 1, 52, 70
3, 191996, Note_off_c, 1, 55, 100
3, 191996, Note_off_c, 1, 52, 100
3, 192000, Note_on_c, 1, 48, 70
3, 192764, Note_off_c, 1, 48, 100
3, 192764, End_track
0, 0, End_of_file
