0, 0, Header, 1, 3, 384
1, 0, Start_track
1, 0, Title_t, "L.v.Beethoven 2mov - Sonata in C Major WoO 51\000"
1, 0, Copyright_t, "Copyright(C) 1995-2009, Suzuki Software\000"
1, 0, Sequencer_specific, 9, 67, 123, 0, 88, 70, 48, 50, 0, 1
1, 0, Text_t, "XFhd:2009/04/12:JP:Classical::::L.v.Beethoven:::Kaoru Suzuki\000"
1, 0, Text_t, "XFln:JP:\203\\\203i\203^ \203n\222·\222² WoO 51\201`\221æ2\212y\217Í:L.v.\203x\201[\203g\201[\203\224\203F\203\223:::\227é\202¿\202á\202ñ:\227é\202¿\202á\202ñ\000"
1, 0, Time_signature, 3, 2, 96, 8
1, 0, Sequencer_specific, 5, 0, 0, 119, 14, 0
1, 0, Tempo, 1250000
1, 4224, Tempo, 1304347
1, 4416, Tempo, 1363636
1, 4512, Tempo, 1500000
1, 4608, Tempo, 1250000
1, 8256, Tempo, 1333333
1, 8352, Tempo, 1500000
1, 8640, Tempo, 1250000
1, 19200, Tempo, 1333333
1, 19392, Tempo, 1500000
1, 19488, Tempo, 1666666
1, 19584, Tempo, 1428571
1, 19680, Tempo, 1250000
1, 23808, Tempo, 1304347
1, 24000, Tempo, 1363636
1, 24096, Tempo, 1500000
1, 24192, Tempo, 1333333
1, 24288, Tempo, 1250000
1, 27264, Tempo, 1304347
1, 27456, Tempo, 1363636
1, 27552, Tempo, 1500000
1, 27744, Tempo, 1250000
1, 34176, Tempo, 1304347
1, 34368, Tempo, 1363636
1, 34464, Tempo, 1500000
1, 34656, Tempo, 1250000
1, 37632, Tempo, 1333333
1, 37824, Tempo, 1500000
1, 37920, Tempo, 1666666
1, 38016, Tempo, 1363636
1, 38400, Tempo, 1111111
1, 39168, Tempo, 1250000
1, 39168, End_track
2, 0, Start_track
2, 0, Title_t, "Piano Right"
2, 0, Control_c, 0, 0, 0
2, 0, Program_c, 0, 0
2, 0, Control_c, 0, 7, 100
2, 0, Control_c, 0, 10, 77
2, 0, Control_c, 0, 91, 127
2, 0, Key_signature, -1, "major"
2, 0, Note_on_c, 0, 81, 70
2, 380, Note_off_c, 0, 81, 100
2, 384, Note_on_c, 0, 82, 70
2, 956, Note_off_c, 0, 82, 100
2, 960, Note_on_c, 0, 81, 70
2, 1148, Note_off_c, 0, 81, 100
2, 1152, Note_on_c, 0, 81, 70
2, 1244, Note_off_c, 0, 81, 100
2, 1248, Note_on_c, 0, 79, 70
2, 1340, Note_off_c, 0, 79, 100
2, 1344, Note_on_c, 0, 77, 70
2, 1436, Note_off_c, 0, 77, 100
2, 1440, Note_on_c, 0, 76, 70
2, 1532, Note_off_c, 0, 76, 100
2, 1536, Note_on_c, 0, 79, 70
2, 1724, Note_off_c, 0, 79, 100
2, 1728, Note_on_c, 0, 77, 70
2, 2108, Note_off_c, 0, 77, 100
2, 2112, Note_on_c, 0, 79, 70
2, 2300, Note_off_c, 0, 79, 100
2, 2304, Note_on_c, 0, 81, 70
2, 2492, Note_off_c, 0, 81, 100
2, 2496, Note_on_c, 0, 84, 70
2, 2684, Note_off_c, 0, 84, 100
2, 2688, Note_on_c, 0, 84, 70
2, 2712, Note_on_c, 0, 82, 70
2, 2780, Note_off_c, 0, 84, 100
2, 2876, Note_off_c, 0, 82, 100
2, 2880, Note_on_c, 0, 81, 70
2, 3068, Note_off_c, 0, 81, 100
2, 3072, Note_on_c, 0, 79, 70
2, 3260, Note_off_c, 0, 79, 100
2, 3264, Note_on_c, 0, 77, 70
2, 3452, Note_off_c, 0, 77, 100
2, 3456, Note_on_c, 0, 81, 70
2, 3692, Note_off_c, 0, 81, 100
2, 3696, Note_on_c, 0, 82, 70
2, 3740, Note_off_c, 0, 82, 100
2, 3744, Note_on_c, 0, 83, 70
2, 3788, Note_off_c, 0, 83, 100
2, 3792, Note_on_c, 0, 84, 70
2, 3836, Note_off_c, 0, 84, 100
2, 3840, Note_on_c, 0, 79, 70
2, 4028, Note_off_c, 0, 79, 100
2, 4608, Note_on_c, 0, 76, 70
2, 4608, Note_on_c, 0, 79, 70
2, 4700, Note_off_c, 0, 76, 100
2, 4700, Note_off_c, 0, 79, 100
2, 4704, Note_on_c, 0, 84, 70
2, 4796, Note_off_c, 0, 84, 100
2, 4896, Note_on_c, 0, 84, 70
2, 4988, Note_off_c, 0, 84, 100
2, 4992, Note_on_c, 0, 79, 70
2, 4992, Note_on_c, 0, 82, 70
2, 5084, Note_off_c, 0, 79, 100
2, 5084, Note_off_c, 0, 82, 100
2, 5088, Note_on_c, 0, 84, 70
2, 5180, Note_off_c, 0, 84, 100
2, 5280, Note_on_c, 0, 84, 70
2, 5372, Note_off_c, 0, 84, 100
2, 5376, Note_on_c, 0, 77, 70
2, 5376, Note_on_c, 0, 81, 70
2, 5420, Note_off_c, 0, 77, 100
2, 5420, Note_off_c, 0, 81, 100
2, 5424, Note_on_c, 0, 84, 75
2, 5468, Note_off_c, 0, 84, 100
2, 5472, Note_on_c, 0, 83, 80
2, 5516, Note_off_c, 0, 83, 100
2, 5520, Note_on_c, 0, 84, 85
2, 5564, Note_off_c, 0, 84, 100
2, 5568, Note_on_c, 0, 83, 90
2, 5612, Note_off_c, 0, 83, 100
2, 5616, Note_on_c, 0, 84, 95
2, 5660, Note_off_c, 0, 84, 100
2, 5664, Note_on_c, 0, 83, 100
2, 5708, Note_off_c, 0, 83, 100
2, 5712, Note_on_c, 0, 84, 85
2, 5756, Note_off_c, 0, 84, 100
2, 5760, Note_on_c, 0, 76, 70
2, 5760, Note_on_c, 0, 79, 70
2, 5852, Note_off_c, 0, 76, 100
2, 5852, Note_off_c, 0, 79, 100
2, 5856, Note_on_c, 0, 84, 70
2, 5948, Note_off_c, 0, 84, 100
2, 6048, Note_on_c, 0, 84, 70
2, 6140, Note_off_c, 0, 84, 100
2, 6144, Note_on_c, 0, 79, 70
2, 6144, Note_on_c, 0, 82, 70
2, 6236, Note_off_c, 0, 79, 100
2, 6236, Note_off_c, 0, 82, 100
2, 6240, Note_on_c, 0, 84, 70
2, 6332, Note_off_c, 0, 84, 100
2, 6432, Note_on_c, 0, 84, 70
2, 6524, Note_off_c, 0, 84, 100
2, 6528, Note_on_c, 0, 77, 70
2, 6528, Note_on_c, 0, 81, 70
2, 6572, Note_off_c, 0, 77, 100
2, 6572, Note_off_c, 0, 81, 100
2, 6576, Note_on_c, 0, 84, 75
2, 6620, Note_off_c, 0, 84, 100
2, 6624, Note_on_c, 0, 83, 80
2, 6668, Note_off_c, 0, 83, 100
2, 6672, Note_on_c, 0, 84, 85
2, 6716, Note_off_c, 0, 84, 100
2, 6720, Note_on_c, 0, 83, 90
2, 6764, Note_off_c, 0, 83, 100
2, 6768, Note_on_c, 0, 84, 95
2, 6812, Note_off_c, 0, 84, 100
2, 6816, Note_on_c, 0, 83, 100
2, 6860, Note_off_c, 0, 83, 100
2, 6864, Note_on_c, 0, 84, 85
2, 6908, Note_off_c, 0, 84, 100
2, 6912, Note_on_c, 0, 84, 70
2, 7004, Note_off_c, 0, 84, 100
2, 7008, Note_on_c, 0, 74, 70
2, 7196, Note_off_c, 0, 74, 100
2, 7200, Note_on_c, 0, 82, 70
2, 7292, Note_off_c, 0, 82, 100
2, 7296, Note_on_c, 0, 82, 70
2, 7388, Note_off_c, 0, 82, 100
2, 7392, Note_on_c, 0, 72, 70
2, 7580, Note_off_c, 0, 72, 100
2, 7584, Note_on_c, 0, 81, 70
2, 7676, Note_off_c, 0, 81, 100
2, 7680, Note_on_c, 0, 81, 70
2, 7772, Note_off_c, 0, 81, 100
2, 7776, Note_on_c, 0, 70, 70
2, 7964, Note_off_c, 0, 70, 100
2, 7968, Note_on_c, 0, 79, 70
2, 8060, Note_off_c, 0, 79, 100
2, 8064, Note_on_c, 0, 70, 70
2, 8064, Note_on_c, 0, 79, 70
2, 8444, Note_off_c, 0, 70, 100
2, 8444, Note_off_c, 0, 79, 100
2, 8448, Note_on_c, 0, 77, 70
2, 8448, Note_on_c, 0, 69, 70
2, 8636, Note_off_c, 0, 77, 100
2, 8636, Note_off_c, 0, 69, 100
2, 9216, Note_on_c, 0, 65, 70
2, 9276, Note_off_c, 0, 65, 100
2, 9280, Note_on_c, 0, 69, 70
2, 9340, Note_off_c, 0, 69, 100
2, 9344, Note_on_c, 0, 74, 70
2, 9404, Note_off_c, 0, 74, 100
2, 9408, Note_on_c, 0, 77, 70
2, 9468, Note_off_c, 0, 77, 100
2, 9472, Note_on_c, 0, 74, 70
2, 9532, Note_off_c, 0, 74, 100
2, 9536, Note_on_c, 0, 69, 70
2, 9596, Note_off_c, 0, 69, 100
2, 9600, Note_on_c, 0, 65, 70
2, 9660, Note_off_c, 0, 65, 100
2, 9664, Note_on_c, 0, 69, 70
2, 9724, Note_off_c, 0, 69, 100
2, 9728, Note_on_c, 0, 74, 70
2, 9788, Note_off_c, 0, 74, 100
2, 9792, Note_on_c, 0, 77, 70
2, 9852, Note_off_c, 0, 77, 100
2, 9856, Note_on_c, 0, 74, 70
2, 9916, Note_off_c, 0, 74, 100
2, 9920, Note_on_c, 0, 69, 70
2, 9980, Note_off_c, 0, 69, 100
2, 9984, Note_on_c, 0, 65, 70
2, 10044, Note_off_c, 0, 65, 100
2, 10048, Note_on_c, 0, 69, 70
2, 10108, Note_off_c, 0, 69, 100
2, 10112, Note_on_c, 0, 74, 70
2, 10172, Note_off_c, 0, 74, 100
2, 10176, Note_on_c, 0, 77, 70
2, 10236, Note_off_c, 0, 77, 100
2, 10240, Note_on_c, 0, 74, 70
2, 10300, Note_off_c, 0, 74, 100
2, 10304, Note_on_c, 0, 69, 70
2, 10364, Note_off_c, 0, 69, 100
2, 10368, Note_on_c, 0, 67, 70
2, 10428, Note_off_c, 0, 67, 100
2, 10432, Note_on_c, 0, 69, 70
2, 10492, Note_off_c, 0, 69, 100
2, 10496, Note_on_c, 0, 73, 70
2, 10556, Note_off_c, 0, 73, 100
2, 10560, Note_on_c, 0, 79, 70
2, 10620, Note_off_c, 0, 79, 100
2, 10624, Note_on_c, 0, 73, 70
2, 10684, Note_off_c, 0, 73, 100
2, 10688, Note_on_c, 0, 69, 70
2, 10748, Note_off_c, 0, 69, 100
2, 10752, Note_on_c, 0, 67, 70
2, 10812, Note_off_c, 0, 67, 100
2, 10816, Note_on_c, 0, 69, 70
2, 10876, Note_off_c, 0, 69, 100
2, 10880, Note_on_c, 0, 73, 70
2, 10940, Note_off_c, 0, 73, 100
2, 10944, Note_on_c, 0, 79, 70
2, 11004, Note_off_c, 0, 79, 100
2, 11008, Note_on_c, 0, 73, 70
2, 11068, Note_off_c, 0, 73, 100
2, 11072, Note_on_c, 0, 69, 70
2, 11132, Note_off_c, 0, 69, 100
2, 11136, Note_on_c, 0, 67, 70
2, 11196, Note_off_c, 0, 67, 100
2, 11200, Note_on_c, 0, 69, 70
2, 11260, Note_off_c, 0, 69, 100
2, 11264, Note_on_c, 0, 73, 70
2, 11324, Note_off_c, 0, 73, 100
2, 11328, Note_on_c, 0, 79, 70
2, 11388, Note_off_c, 0, 79, 100
2, 11392, Note_on_c, 0, 73, 70
2, 11452, Note_off_c, 0, 73, 100
2, 11456, Note_on_c, 0, 69, 70
2, 11516, Note_off_c, 0, 69, 100
2, 11584, Note_on_c, 0, 69, 70
2, 11644, Note_off_c, 0, 69, 100
2, 11648, Note_on_c, 0, 74, 70
2, 11708, Note_off_c, 0, 74, 100
2, 11712, Note_on_c, 0, 81, 70
2, 11772, Note_off_c, 0, 81, 100
2, 11776, Note_on_c, 0, 77, 70
2, 11836, Note_off_c, 0, 77, 100
2, 11840, Note_on_c, 0, 74, 70
2, 11900, Note_off_c, 0, 74, 100
2, 11968, Note_on_c, 0, 67, 70
2, 12028, Note_off_c, 0, 67, 100
2, 12032, Note_on_c, 0, 70, 70
2, 12092, Note_off_c, 0, 70, 100
2, 12096, Note_on_c, 0, 79, 70
2, 12156, Note_off_c, 0, 79, 100
2, 12160, Note_on_c, 0, 76, 70
2, 12220, Note_off_c, 0, 76, 100
2, 12224, Note_on_c, 0, 70, 70
2, 12284, Note_off_c, 0, 70, 100
2, 12352, Note_on_c, 0, 67, 70
2, 12412, Note_off_c, 0, 67, 100
2, 12416, Note_on_c, 0, 69, 70
2, 12476, Note_off_c, 0, 69, 100
2, 12480, Note_on_c, 0, 76, 70
2, 12540, Note_off_c, 0, 76, 100
2, 12544, Note_on_c, 0, 73, 70
2, 12604, Note_off_c, 0, 73, 100
2, 12608, Note_on_c, 0, 69, 70
2, 12668, Note_off_c, 0, 69, 100
2, 12672, Note_on_c, 0, 65, 70
2, 12732, Note_off_c, 0, 65, 100
2, 12736, Note_on_c, 0, 69, 70
2, 12796, Note_off_c, 0, 69, 100
2, 12800, Note_on_c, 0, 74, 70
2, 12860, Note_off_c, 0, 74, 100
2, 12864, Note_on_c, 0, 77, 70
2, 12924, Note_off_c, 0, 77, 100
2, 12928, Note_on_c, 0, 74, 70
2, 12988, Note_off_c, 0, 74, 100
2, 12992, Note_on_c, 0, 69, 70
2, 13052, Note_off_c, 0, 69, 100
2, 13056, Note_on_c, 0, 65, 70
2, 13116, Note_off_c, 0, 65, 100
2, 13120, Note_on_c, 0, 69, 70
2, 13180, Note_off_c, 0, 69, 100
2, 13184, Note_on_c, 0, 74, 70
2, 13244, Note_off_c, 0, 74, 100
2, 13248, Note_on_c, 0, 77, 70
2, 13308, Note_off_c, 0, 77, 100
2, 13312, Note_on_c, 0, 74, 71
2, 13372, Note_off_c, 0, 74, 100
2, 13376, Note_on_c, 0, 69, 72
2, 13436, Note_off_c, 0, 69, 100
2, 13440, Note_on_c, 0, 65, 73
2, 13500, Note_off_c, 0, 65, 100
2, 13504, Note_on_c, 0, 74, 75
2, 13564, Note_off_c, 0, 74, 100
2, 13568, Note_on_c, 0, 77, 76
2, 13628, Note_off_c, 0, 77, 100
2, 13632, Note_on_c, 0, 65, 77
2, 13692, Note_off_c, 0, 65, 100
2, 13696, Note_on_c, 0, 72, 79
2, 13756, Note_off_c, 0, 72, 100
2, 13760, Note_on_c, 0, 77, 80
2, 13820, Note_off_c, 0, 77, 100
2, 13824, Note_on_c, 0, 65, 81
2, 13884, Note_off_c, 0, 65, 100
2, 13888, Note_on_c, 0, 71, 82
2, 13948, Note_off_c, 0, 71, 100
2, 13952, Note_on_c, 0, 74, 84
2, 14012, Note_off_c, 0, 74, 100
2, 14016, Note_on_c, 0, 77, 85
2, 14076, Note_off_c, 0, 77, 100
2, 14080, Note_on_c, 0, 74, 86
2, 14140, Note_off_c, 0, 74, 100
2, 14144, Note_on_c, 0, 71, 88
2, 14204, Note_off_c, 0, 71, 100
2, 14208, Note_on_c, 0, 65, 89
2, 14268, Note_off_c, 0, 65, 100
2, 14272, Note_on_c, 0, 71, 90
2, 14332, Note_off_c, 0, 71, 100
2, 14336, Note_on_c, 0, 74, 91
2, 14396, Note_off_c, 0, 74, 100
2, 14400, Note_on_c, 0, 77, 93
2, 14460, Note_off_c, 0, 77, 100
2, 14464, Note_on_c, 0, 74, 94
2, 14524, Note_off_c, 0, 74, 100
2, 14528, Note_on_c, 0, 71, 95
2, 14588, Note_off_c, 0, 71, 100
2, 14592, Note_on_c, 0, 64, 97
2, 14652, Note_off_c, 0, 64, 100
2, 14656, Note_on_c, 0, 69, 98
2, 14716, Note_off_c, 0, 69, 100
2, 14720, Note_on_c, 0, 72, 99
2, 14780, Note_off_c, 0, 72, 100
2, 14784, Note_on_c, 0, 76, 100
2, 14844, Note_off_c, 0, 76, 100
2, 14848, Note_on_c, 0, 72, 90
2, 14908, Note_off_c, 0, 72, 100
2, 14912, Note_on_c, 0, 69, 80
2, 14972, Note_off_c, 0, 69, 100
2, 15040, Note_on_c, 0, 65, 70
2, 15100, Note_off_c, 0, 65, 100
2, 15104, Note_on_c, 0, 69, 70
2, 15164, Note_off_c, 0, 69, 100
2, 15168, Note_on_c, 0, 76, 70
2, 15228, Note_off_c, 0, 76, 100
2, 15232, Note_on_c, 0, 69, 70
2, 15292, Note_off_c, 0, 69, 100
2, 15296, Note_on_c, 0, 74, 70
2, 15356, Note_off_c, 0, 74, 100
2, 15424, Note_on_c, 0, 64, 70
2, 15484, Note_off_c, 0, 64, 100
2, 15488, Note_on_c, 0, 67, 70
2, 15548, Note_off_c, 0, 67, 100
2, 15552, Note_on_c, 0, 74, 70
2, 15612, Note_off_c, 0, 74, 100
2, 15616, Note_on_c, 0, 67, 70
2, 15676, Note_off_c, 0, 67, 100
2, 15680, Note_on_c, 0, 72, 70
2, 15740, Note_off_c, 0, 72, 100
2, 15808, Note_on_c, 0, 62, 70
2, 15868, Note_off_c, 0, 62, 100
2, 15872, Note_on_c, 0, 65, 70
2, 15932, Note_off_c, 0, 65, 100
2, 15936, Note_on_c, 0, 72, 70
2, 15996, Note_off_c, 0, 72, 100
2, 16000, Note_on_c, 0, 65, 70
2, 16060, Note_off_c, 0, 65, 100
2, 16064, Note_on_c, 0, 71, 70
2, 16124, Note_off_c, 0, 71, 100
2, 16128, Note_on_c, 0, 64, 70
2, 16188, Note_off_c, 0, 64, 100
2, 16192, Note_on_c, 0, 67, 70
2, 16252, Note_off_c, 0, 67, 100
2, 16256, Note_on_c, 0, 72, 70
2, 16316, Note_off_c, 0, 72, 100
2, 16320, Note_on_c, 0, 64, 70
2, 16380, Note_off_c, 0, 64, 100
2, 16384, Note_on_c, 0, 67, 70
2, 16444, Note_off_c, 0, 67, 100
2, 16448, Note_on_c, 0, 72, 70
2, 16508, Note_off_c, 0, 72, 100
2, 16512, Note_on_c, 0, 64, 70
2, 16572, Note_off_c, 0, 64, 100
2, 16576, Note_on_c, 0, 67, 70
2, 16636, Note_off_c, 0, 67, 100
2, 16640, Note_on_c, 0, 72, 70
2, 16700, Note_off_c, 0, 72, 100
2, 16704, Note_on_c, 0, 64, 70
2, 16764, Note_off_c, 0, 64, 100
2, 16768, Note_on_c, 0, 67, 76
2, 16828, Note_off_c, 0, 67, 100
2, 16832, Note_on_c, 0, 73, 83
2, 16892, Note_off_c, 0, 73, 100
2, 16896, Note_on_c, 0, 65, 90
2, 16956, Note_off_c, 0, 65, 100
2, 16960, Note_on_c, 0, 69, 86
2, 17020, Note_off_c, 0, 69, 100
2, 17024, Note_on_c, 0, 74, 82
2, 17084, Note_off_c, 0, 74, 100
2, 17088, Note_on_c, 0, 65, 78
2, 17148, Note_off_c, 0, 65, 100
2, 17152, Note_on_c, 0, 67, 74
2, 17212, Note_off_c, 0, 67, 100
2, 17216, Note_on_c, 0, 71, 70
2, 17276, Note_off_c, 0, 71, 100
2, 17280, Note_on_c, 0, 64, 70
2, 17340, Note_off_c, 0, 64, 100
2, 17344, Note_on_c, 0, 67, 70
2, 17404, Note_off_c, 0, 67, 100
2, 17408, Note_on_c, 0, 72, 70
2, 17468, Note_off_c, 0, 72, 100
2, 17472, Note_on_c, 0, 64, 70
2, 17532, Note_off_c, 0, 64, 100
2, 17536, Note_on_c, 0, 67, 70
2, 17596, Note_off_c, 0, 67, 100
2, 17600, Note_on_c, 0, 72, 70
2, 17660, Note_off_c, 0, 72, 100
2, 17664, Note_on_c, 0, 64, 70
2, 17724, Note_off_c, 0, 64, 100
2, 17728, Note_on_c, 0, 67, 70
2, 17788, Note_off_c, 0, 67, 100
2, 17792, Note_on_c, 0, 72, 70
2, 17852, Note_off_c, 0, 72, 100
2, 17856, Note_on_c, 0, 64, 70
2, 17916, Note_off_c, 0, 64, 100
2, 17920, Note_on_c, 0, 67, 76
2, 17980, Note_off_c, 0, 67, 100
2, 17984, Note_on_c, 0, 73, 83
2, 18044, Note_off_c, 0, 73, 100
2, 18048, Note_on_c, 0, 65, 90
2, 18108, Note_off_c, 0, 65, 100
2, 18112, Note_on_c, 0, 69, 86
2, 18172, Note_off_c, 0, 69, 100
2, 18176, Note_on_c, 0, 74, 82
2, 18236, Note_off_c, 0, 74, 100
2, 18240, Note_on_c, 0, 65, 78
2, 18300, Note_off_c, 0, 65, 100
2, 18304, Note_on_c, 0, 67, 74
2, 18364, Note_off_c, 0, 67, 100
2, 18368, Note_on_c, 0, 71, 70
2, 18428, Note_off_c, 0, 71, 100
2, 18432, Note_on_c, 0, 64, 70
2, 18492, Note_off_c, 0, 64, 100
2, 18496, Note_on_c, 0, 67, 70
2, 18556, Note_off_c, 0, 67, 100
2, 18560, Note_on_c, 0, 72, 70
2, 18620, Note_off_c, 0, 72, 100
2, 18624, Note_on_c, 0, 65, 70
2, 18684, Note_off_c, 0, 65, 100
2, 18688, Note_on_c, 0, 69, 72
2, 18748, Note_off_c, 0, 69, 100
2, 18752, Note_on_c, 0, 74, 75
2, 18812, Note_off_c, 0, 74, 100
2, 18816, Note_on_c, 0, 67, 78
2, 18876, Note_off_c, 0, 67, 100
2, 18880, Note_on_c, 0, 70, 81
2, 18940, Note_off_c, 0, 70, 100
2, 18944, Note_on_c, 0, 76, 84
2, 19004, Note_off_c, 0, 76, 100
2, 19008, Note_on_c, 0, 69, 86
2, 19068, Note_off_c, 0, 69, 100
2, 19072, Note_on_c, 0, 72, 89
2, 19132, Note_off_c, 0, 72, 100
2, 19136, Note_on_c, 0, 77, 92
2, 19196, Note_off_c, 0, 77, 100
2, 19200, Note_on_c, 0, 72, 95
2, 19260, Note_off_c, 0, 72, 100
2, 19264, Note_on_c, 0, 76, 98
2, 19324, Note_off_c, 0, 76, 100
2, 19328, Note_on_c, 0, 79, 100
2, 19388, Note_off_c, 0, 79, 100
2, 19392, Note_on_c, 0, 72, 100
2, 19452, Note_off_c, 0, 72, 100
2, 19456, Note_on_c, 0, 76, 90
2, 19516, Note_off_c, 0, 76, 100
2, 19520, Note_on_c, 0, 80, 80
2, 19580, Note_off_c, 0, 80, 100
2, 19584, Note_on_c, 0, 81, 70
2, 19868, Note_off_c, 0, 81, 100
2, 19872, Note_on_c, 0, 82, 70
2, 19896, Note_on_c, 0, 81, 70
2, 19916, Note_off_c, 0, 82, 100
2, 19920, Note_on_c, 0, 79, 70
2, 19940, Note_off_c, 0, 81, 100
2, 19944, Note_on_c, 0, 81, 70
2, 19964, Note_off_c, 0, 79, 100
2, 19968, Note_on_c, 0, 84, 70
2, 19988, Note_off_c, 0, 81, 100
2, 20156, Note_off_c, 0, 84, 100
2, 20160, Note_on_c, 0, 82, 70
2, 20540, Note_off_c, 0, 82, 100
2, 20544, Note_on_c, 0, 81, 70
2, 20732, Note_off_c, 0, 81, 100
2, 20736, Note_on_c, 0, 81, 70
2, 20828, Note_off_c, 0, 81, 100
2, 20832, Note_on_c, 0, 79, 70
2, 20924, Note_off_c, 0, 79, 100
2, 20928, Note_on_c, 0, 77, 70
2, 21020, Note_off_c, 0, 77, 100
2, 21024, Note_on_c, 0, 76, 70
2, 21116, Note_off_c, 0, 76, 100
2, 21120, Note_on_c, 0, 79, 70
2, 21308, Note_off_c, 0, 79, 100
2, 21312, Note_on_c, 0, 77, 70
2, 21692, Note_off_c, 0, 77, 100
2, 21696, Note_on_c, 0, 79, 70
2, 21884, Note_off_c, 0, 79, 100
2, 21888, Note_on_c, 0, 81, 70
2, 21980, Note_off_c, 0, 81, 100
2, 21984, Note_on_c, 0, 82, 78
2, 22016, Note_on_c, 0, 81, 81
2, 22044, Note_off_c, 0, 82, 100
2, 22048, Note_on_c, 0, 79, 84
2, 22076, Note_off_c, 0, 81, 100
2, 22080, Note_on_c, 0, 81, 87
2, 22108, Note_off_c, 0, 79, 100
2, 22172, Note_off_c, 0, 81, 100
2, 22176, Note_on_c, 0, 82, 96
2, 22220, Note_off_c, 0, 82, 100
2, 22224, Note_on_c, 0, 84, 100
2, 22268, Note_off_c, 0, 84, 100
2, 22272, Note_on_c, 0, 84, 100
2, 22364, Note_off_c, 0, 84, 100
2, 22368, Note_on_c, 0, 82, 96
2, 22460, Note_off_c, 0, 82, 100
2, 22464, Note_on_c, 0, 82, 92
2, 22556, Note_off_c, 0, 82, 100
2, 22560, Note_on_c, 0, 81, 87
2, 22652, Note_off_c, 0, 81, 100
2, 22656, Note_on_c, 0, 81, 83
2, 22748, Note_off_c, 0, 81, 100
2, 22752, Note_on_c, 0, 79, 78
2, 22844, Note_off_c, 0, 79, 100
2, 22848, Note_on_c, 0, 79, 74
2, 22940, Note_off_c, 0, 79, 100
2, 22944, Note_on_c, 0, 77, 70
2, 23036, Note_off_c, 0, 77, 100
2, 23040, Note_on_c, 0, 81, 70
2, 23260, Note_off_c, 0, 81, 100
2, 23264, Note_on_c, 0, 84, 70
2, 23296, Note_on_c, 0, 83, 70
2, 23324, Note_off_c, 0, 84, 100
2, 23328, Note_on_c, 0, 84, 70
2, 23356, Note_off_c, 0, 83, 100
2, 23360, Note_on_c, 0, 82, 70
2, 23388, Note_off_c, 0, 84, 100
2, 23392, Note_on_c, 0, 81, 70
2, 23420, Note_off_c, 0, 82, 100
2, 23424, Note_on_c, 0, 79, 70
2, 23452, Note_off_c, 0, 81, 100
2, 23612, Note_off_c, 0, 79, 100
2, 24192, Note_on_c, 0, 76, 70
2, 24192, Note_on_c, 0, 79, 70
2, 24284, Note_off_c, 0, 76, 100
2, 24284, Note_off_c, 0, 79, 100
2, 24288, Note_on_c, 0, 84, 70
2, 24380, Note_off_c, 0, 84, 100
2, 24480, Note_on_c, 0, 84, 70
2, 24572, Note_off_c, 0, 84, 100
2, 24576, Note_on_c, 0, 79, 70
2, 24576, Note_on_c, 0, 82, 70
2, 24668, Note_off_c, 0, 79, 100
2, 24668, Note_off_c, 0, 82, 100
2, 24672, Note_on_c, 0, 84, 70
2, 24764, Note_off_c, 0, 84, 100
2, 24864, Note_on_c, 0, 84, 70
2, 24956, Note_off_c, 0, 84, 100
2, 24960, Note_on_c, 0, 77, 70
2, 24960, Note_on_c, 0, 81, 70
2, 25004, Note_off_c, 0, 77, 100
2, 25004, Note_off_c, 0, 81, 100
2, 25008, Note_on_c, 0, 84, 75
2, 25052, Note_off_c, 0, 84, 100
2, 25056, Note_on_c, 0, 83, 80
2, 25100, Note_off_c, 0, 83, 100
2, 25104, Note_on_c, 0, 84, 85
2, 25148, Note_off_c, 0, 84, 100
2, 25152, Note_on_c, 0, 83, 90
2, 25196, Note_off_c, 0, 83, 100
2, 25200, Note_on_c, 0, 84, 95
2, 25244, Note_off_c, 0, 84, 100
2, 25248, Note_on_c, 0, 83, 100
2, 25292, Note_off_c, 0, 83, 100
2, 25296, Note_on_c, 0, 84, 85
2, 25340, Note_off_c, 0, 84, 100
2, 25344, Note_on_c, 0, 76, 70
2, 25344, Note_on_c, 0, 79, 70
2, 25436, Note_off_c, 0, 76, 100
2, 25436, Note_off_c, 0, 79, 100
2, 25440, Note_on_c, 0, 84, 70
2, 25532, Note_off_c, 0, 84, 100
2, 25632, Note_on_c, 0, 84, 70
2, 25724, Note_off_c, 0, 84, 100
2, 25728, Note_on_c, 0, 79, 70
2, 25728, Note_on_c, 0, 82, 70
2, 25820, Note_off_c, 0, 79, 100
2, 25820, Note_off_c, 0, 82, 100
2, 25824, Note_on_c, 0, 84, 70
2, 25916, Note_off_c, 0, 84, 100
2, 26016, Note_on_c, 0, 84, 70
2, 26108, Note_off_c, 0, 84, 100
2, 26112, Note_on_c, 0, 77, 70
2, 26112, Note_on_c, 0, 81, 70
2, 26156, Note_off_c, 0, 77, 100
2, 26156, Note_off_c, 0, 81, 100
2, 26160, Note_on_c, 0, 84, 75
2, 26204, Note_off_c, 0, 84, 100
2, 26208, Note_on_c, 0, 83, 80
2, 26252, Note_off_c, 0, 83, 100
2, 26256, Note_on_c, 0, 84, 85
2, 26300, Note_off_c, 0, 84, 100
2, 26304, Note_on_c, 0, 83, 90
2, 26348, Note_off_c, 0, 83, 100
2, 26352, Note_on_c, 0, 84, 95
2, 26396, Note_off_c, 0, 84, 100
2, 26400, Note_on_c, 0, 83, 100
2, 26444, Note_off_c, 0, 83, 100
2, 26448, Note_on_c, 0, 84, 85
2, 26492, Note_off_c, 0, 84, 100
2, 26592, Note_on_c, 0, 74, 70
2, 26636, Note_off_c, 0, 74, 100
2, 26640, Note_on_c, 0, 79, 70
2, 26684, Note_off_c, 0, 79, 100
2, 26688, Note_on_c, 0, 84, 70
2, 26780, Note_off_c, 0, 84, 100
2, 26784, Note_on_c, 0, 82, 70
2, 26876, Note_off_c, 0, 82, 100
2, 26976, Note_on_c, 0, 72, 70
2, 27020, Note_off_c, 0, 72, 100
2, 27024, Note_on_c, 0, 77, 70
2, 27068, Note_off_c, 0, 77, 100
2, 27072, Note_on_c, 0, 82, 70
2, 27164, Note_off_c, 0, 82, 100
2, 27168, Note_on_c, 0, 81, 70
2, 27260, Note_off_c, 0, 81, 100
2, 27360, Note_on_c, 0, 70, 70
2, 27404, Note_off_c, 0, 70, 100
2, 27408, Note_on_c, 0, 76, 70
2, 27452, Note_off_c, 0, 76, 100
2, 27456, Note_on_c, 0, 81, 70
2, 27548, Note_off_c, 0, 81, 100
2, 27552, Note_on_c, 0, 79, 70
2, 27644, Note_off_c, 0, 79, 100
2, 27648, Note_on_c, 0, 69, 70
2, 27708, Note_off_c, 0, 69, 100
2, 27712, Note_on_c, 0, 72, 70
2, 27772, Note_off_c, 0, 72, 100
2, 27776, Note_on_c, 0, 77, 70
2, 27836, Note_off_c, 0, 77, 100
2, 27840, Note_on_c, 0, 81, 70
2, 27900, Note_off_c, 0, 81, 100
2, 27904, Note_on_c, 0, 77, 70
2, 27964, Note_off_c, 0, 77, 100
2, 27968, Note_on_c, 0, 72, 70
2, 28028, Note_off_c, 0, 72, 100
2, 28032, Note_on_c, 0, 69, 70
2, 28092, Note_off_c, 0, 69, 100
2, 28096, Note_on_c, 0, 72, 70
2, 28156, Note_off_c, 0, 72, 100
2, 28160, Note_on_c, 0, 77, 70
2, 28220, Note_off_c, 0, 77, 100
2, 28224, Note_on_c, 0, 81, 70
2, 28284, Note_off_c, 0, 81, 100
2, 28288, Note_on_c, 0, 77, 70
2, 28348, Note_off_c, 0, 77, 100
2, 28352, Note_on_c, 0, 72, 70
2, 28412, Note_off_c, 0, 72, 100
2, 28416, Note_on_c, 0, 69, 70
2, 28476, Note_off_c, 0, 69, 100
2, 28480, Note_on_c, 0, 72, 70
2, 28540, Note_off_c, 0, 72, 100
2, 28544, Note_on_c, 0, 77, 70
2, 28604, Note_off_c, 0, 77, 100
2, 28608, Note_on_c, 0, 81, 70
2, 28668, Note_off_c, 0, 81, 100
2, 28672, Note_on_c, 0, 77, 70
2, 28732, Note_off_c, 0, 77, 100
2, 28736, Note_on_c, 0, 72, 70
2, 28796, Note_off_c, 0, 72, 100
2, 28800, Note_on_c, 0, 69, 70
2, 28860, Note_off_c, 0, 69, 100
2, 28864, Note_on_c, 0, 74, 70
2, 28924, Note_off_c, 0, 74, 100
2, 28928, Note_on_c, 0, 77, 70
2, 28988, Note_off_c, 0, 77, 100
2, 28992, Note_on_c, 0, 81, 70
2, 29052, Note_off_c, 0, 81, 100
2, 29056, Note_on_c, 0, 77, 70
2, 29116, Note_off_c, 0, 77, 100
2, 29120, Note_on_c, 0, 74, 70
2, 29180, Note_off_c, 0, 74, 100
2, 29184, Note_on_c, 0, 69, 70
2, 29244, Note_off_c, 0, 69, 100
2, 29248, Note_on_c, 0, 74, 72
2, 29308, Note_off_c, 0, 74, 100
2, 29312, Note_on_c, 0, 77, 75
2, 29372, Note_off_c, 0, 77, 100
2, 29376, Note_on_c, 0, 81, 78
2, 29436, Note_off_c, 0, 81, 100
2, 29440, Note_on_c, 0, 77, 81
2, 29500, Note_off_c, 0, 77, 100
2, 29504, Note_on_c, 0, 74, 84
2, 29564, Note_off_c, 0, 74, 100
2, 29568, Note_on_c, 0, 69, 86
2, 29628, Note_off_c, 0, 69, 100
2, 29632, Note_on_c, 0, 74, 89
2, 29692, Note_off_c, 0, 74, 100
2, 29696, Note_on_c, 0, 77, 92
2, 29756, Note_off_c, 0, 77, 100
2, 29760, Note_on_c, 0, 81, 95
2, 29820, Note_off_c, 0, 81, 100
2, 29824, Note_on_c, 0, 77, 98
2, 29884, Note_off_c, 0, 77, 100
2, 29888, Note_on_c, 0, 74, 100
2, 29948, Note_off_c, 0, 74, 100
2, 30016, Note_on_c, 0, 70, 99
2, 30076, Note_off_c, 0, 70, 100
2, 30080, Note_on_c, 0, 74, 97
2, 30140, Note_off_c, 0, 74, 100
2, 30144, Note_on_c, 0, 81, 95
2, 30204, Note_off_c, 0, 81, 100
2, 30208, Note_on_c, 0, 74, 93
2, 30268, Note_off_c, 0, 74, 100
2, 30272, Note_on_c, 0, 79, 91
2, 30332, Note_off_c, 0, 79, 100
2, 30400, Note_on_c, 0, 69, 88
2, 30460, Note_off_c, 0, 69, 100
2, 30464, Note_on_c, 0, 72, 86
2, 30524, Note_off_c, 0, 72, 100
2, 30528, Note_on_c, 0, 79, 84
2, 30588, Note_off_c, 0, 79, 100
2, 30592, Note_on_c, 0, 72, 82
2, 30652, Note_off_c, 0, 72, 100
2, 30656, Note_on_c, 0, 77, 81
2, 30716, Note_off_c, 0, 77, 100
2, 30784, Note_on_c, 0, 67, 77
2, 30844, Note_off_c, 0, 67, 100
2, 30848, Note_on_c, 0, 70, 75
2, 30908, Note_off_c, 0, 70, 100
2, 30912, Note_on_c, 0, 77, 73
2, 30972, Note_off_c, 0, 77, 100
2, 30976, Note_on_c, 0, 70, 71
2, 31036, Note_off_c, 0, 70, 100
2, 31040, Note_on_c, 0, 76, 70
2, 31100, Note_off_c, 0, 76, 100
2, 31104, Note_on_c, 0, 65, 70
2, 31164, Note_off_c, 0, 65, 100
2, 31168, Note_on_c, 0, 69, 70
2, 31228, Note_off_c, 0, 69, 100
2, 31232, Note_on_c, 0, 74, 70
2, 31292, Note_off_c, 0, 74, 100
2, 31296, Note_on_c, 0, 77, 70
2, 31356, Note_off_c, 0, 77, 100
2, 31360, Note_on_c, 0, 74, 70
2, 31420, Note_off_c, 0, 74, 100
2, 31424, Note_on_c, 0, 69, 70
2, 31484, Note_off_c, 0, 69, 100
2, 31488, Note_on_c, 0, 65, 70
2, 31548, Note_off_c, 0, 65, 100
2, 31552, Note_on_c, 0, 69, 70
2, 31612, Note_off_c, 0, 69, 100
2, 31616, Note_on_c, 0, 77, 70
2, 31676, Note_off_c, 0, 77, 100
2, 31680, Note_on_c, 0, 64, 70
2, 31740, Note_off_c, 0, 64, 100
2, 31744, Note_on_c, 0, 69, 70
2, 31804, Note_off_c, 0, 69, 100
2, 31808, Note_on_c, 0, 76, 70
2, 31868, Note_off_c, 0, 76, 100
2, 31872, Note_on_c, 0, 62, 70
2, 31932, Note_off_c, 0, 62, 100
2, 31936, Note_on_c, 0, 65, 70
2, 31996, Note_off_c, 0, 65, 100
2, 32000, Note_on_c, 0, 74, 70
2, 32060, Note_off_c, 0, 74, 100
2, 32064, Note_on_c, 0, 60, 70
2, 32124, Note_off_c, 0, 60, 100
2, 32128, Note_on_c, 0, 65, 70
2, 32188, Note_off_c, 0, 65, 100
2, 32192, Note_on_c, 0, 72, 70
2, 32252, Note_off_c, 0, 72, 100
2, 32256, Note_on_c, 0, 59, 70
2, 32316, Note_off_c, 0, 59, 100
2, 32320, Note_on_c, 0, 62, 70
2, 32380, Note_off_c, 0, 62, 100
2, 32384, Note_on_c, 0, 65, 70
2, 32444, Note_off_c, 0, 65, 100
2, 32448, Note_on_c, 0, 71, 70
2, 32508, Note_off_c, 0, 71, 100
2, 32512, Note_on_c, 0, 65, 70
2, 32572, Note_off_c, 0, 65, 100
2, 32576, Note_on_c, 0, 62, 70
2, 32636, Note_off_c, 0, 62, 100
2, 32640, Note_on_c, 0, 58, 70
2, 32700, Note_off_c, 0, 58, 100
2, 32704, Note_on_c, 0, 64, 70
2, 32764, Note_off_c, 0, 64, 100
2, 32768, Note_on_c, 0, 67, 70
2, 32828, Note_off_c, 0, 67, 100
2, 32832, Note_on_c, 0, 70, 70
2, 32892, Note_off_c, 0, 70, 100
2, 32896, Note_on_c, 0, 67, 70
2, 32956, Note_off_c, 0, 67, 100
2, 32960, Note_on_c, 0, 64, 70
2, 33020, Note_off_c, 0, 64, 100
2, 33024, Note_on_c, 0, 57, 70
2, 33084, Note_off_c, 0, 57, 100
2, 33088, Note_on_c, 0, 62, 70
2, 33148, Note_off_c, 0, 62, 100
2, 33152, Note_on_c, 0, 65, 70
2, 33212, Note_off_c, 0, 65, 100
2, 33216, Note_on_c, 0, 69, 70
2, 33276, Note_off_c, 0, 69, 100
2, 33280, Note_on_c, 0, 65, 70
2, 33340, Note_off_c, 0, 65, 100
2, 33344, Note_on_c, 0, 62, 70
2, 33404, Note_off_c, 0, 62, 100
2, 33472, Note_on_c, 0, 58, 70
2, 33532, Note_off_c, 0, 58, 100
2, 33536, Note_on_c, 0, 62, 70
2, 33596, Note_off_c, 0, 62, 100
2, 33600, Note_on_c, 0, 69, 70
2, 33660, Note_off_c, 0, 69, 100
2, 33664, Note_on_c, 0, 62, 70
2, 33724, Note_off_c, 0, 62, 100
2, 33728, Note_on_c, 0, 67, 70
2, 33788, Note_off_c, 0, 67, 100
2, 33856, Note_on_c, 0, 57, 70
2, 33916, Note_off_c, 0, 57, 100
2, 33920, Note_on_c, 0, 60, 70
2, 33980, Note_off_c, 0, 60, 100
2, 33984, Note_on_c, 0, 67, 70
2, 34044, Note_off_c, 0, 67, 100
2, 34048, Note_on_c, 0, 60, 70
2, 34108, Note_off_c, 0, 60, 100
2, 34112, Note_on_c, 0, 65, 70
2, 34172, Note_off_c, 0, 65, 100
2, 34240, Note_on_c, 0, 55, 70
2, 34300, Note_off_c, 0, 55, 100
2, 34304, Note_on_c, 0, 58, 70
2, 34364, Note_off_c, 0, 58, 100
2, 34368, Note_on_c, 0, 65, 70
2, 34428, Note_off_c, 0, 65, 100
2, 34432, Note_on_c, 0, 58, 70
2, 34492, Note_off_c, 0, 58, 100
2, 34496, Note_on_c, 0, 64, 70
2, 34556, Note_off_c, 0, 64, 100
2, 34560, Note_on_c, 0, 57, 70
2, 34620, Note_off_c, 0, 57, 100
2, 34624, Note_on_c, 0, 60, 70
2, 34684, Note_off_c, 0, 60, 100
2, 34688, Note_on_c, 0, 65, 70
2, 34748, Note_off_c, 0, 65, 100
2, 34752, Note_on_c, 0, 57, 70
2, 34812, Note_off_c, 0, 57, 100
2, 34816, Note_on_c, 0, 60, 70
2, 34876, Note_off_c, 0, 60, 100
2, 34880, Note_on_c, 0, 65, 70
2, 34940, Note_off_c, 0, 65, 100
2, 34944, Note_on_c, 0, 57, 70
2, 35004, Note_off_c, 0, 57, 100
2, 35008, Note_on_c, 0, 60, 70
2, 35068, Note_off_c, 0, 60, 100
2, 35072, Note_on_c, 0, 65, 70
2, 35132, Note_off_c, 0, 65, 100
2, 35136, Note_on_c, 0, 57, 70
2, 35196, Note_off_c, 0, 57, 100
2, 35200, Note_on_c, 0, 60, 76
2, 35260, Note_off_c, 0, 60, 100
2, 35264, Note_on_c, 0, 66, 83
2, 35324, Note_off_c, 0, 66, 100
2, 35328, Note_on_c, 0, 58, 90
2, 35388, Note_off_c, 0, 58, 100
2, 35392, Note_on_c, 0, 62, 86
2, 35452, Note_off_c, 0, 62, 100
2, 35456, Note_on_c, 0, 67, 82
2, 35516, Note_off_c, 0, 67, 100
2, 35520, Note_on_c, 0, 58, 78
2, 35580, Note_off_c, 0, 58, 100
2, 35584, Note_on_c, 0, 60, 74
2, 35644, Note_off_c, 0, 60, 100
2, 35648, Note_on_c, 0, 64, 70
2, 35708, Note_off_c, 0, 64, 100
2, 35712, Note_on_c, 0, 57, 70
2, 35772, Note_off_c, 0, 57, 100
2, 35776, Note_on_c, 0, 60, 70
2, 35836, Note_off_c, 0, 60, 100
2, 35840, Note_on_c, 0, 65, 70
2, 35900, Note_off_c, 0, 65, 100
2, 35904, Note_on_c, 0, 57, 70
2, 35964, Note_off_c, 0, 57, 100
2, 35968, Note_on_c, 0, 60, 70
2, 36028, Note_off_c, 0, 60, 100
2, 36032, Note_on_c, 0, 65, 70
2, 36092, Note_off_c, 0, 65, 100
2, 36096, Note_on_c, 0, 57, 70
2, 36156, Note_off_c, 0, 57, 100
2, 36160, Note_on_c, 0, 60, 70
2, 36220, Note_off_c, 0, 60, 100
2, 36224, Note_on_c, 0, 65, 70
2, 36284, Note_off_c, 0, 65, 100
2, 36288, Note_on_c, 0, 57, 70
2, 36348, Note_off_c, 0, 57, 100
2, 36352, Note_on_c, 0, 60, 76
2, 36412, Note_off_c, 0, 60, 100
2, 36416, Note_on_c, 0, 66, 83
2, 36476, Note_off_c, 0, 66, 100
2, 36480, Note_on_c, 0, 58, 90
2, 36540, Note_off_c, 0, 58, 100
2, 36544, Note_on_c, 0, 62, 86
2, 36604, Note_off_c, 0, 62, 100
2, 36608, Note_on_c, 0, 67, 82
2, 36668, Note_off_c, 0, 67, 100
2, 36672, Note_on_c, 0, 58, 78
2, 36732, Note_off_c, 0, 58, 100
2, 36736, Note_on_c, 0, 60, 74
2, 36796, Note_off_c, 0, 60, 100
2, 36800, Note_on_c, 0, 64, 70
2, 36860, Note_off_c, 0, 64, 100
2, 36864, Note_on_c, 0, 58, 70
2, 36924, Note_off_c, 0, 58, 100
2, 36928, Note_on_c, 0, 61, 72
2, 36988, Note_off_c, 0, 61, 100
2, 36992, Note_on_c, 0, 64, 74
2, 37052, Note_off_c, 0, 64, 100
2, 37056, Note_on_c, 0, 67, 76
2, 37116, Note_off_c, 0, 67, 100
2, 37120, Note_on_c, 0, 64, 78
2, 37180, Note_off_c, 0, 64, 100
2, 37184, Note_on_c, 0, 61, 80
2, 37244, Note_off_c, 0, 61, 100
2, 37248, Note_on_c, 0, 58, 82
2, 37308, Note_off_c, 0, 58, 100
2, 37312, Note_on_c, 0, 61, 84
2, 37372, Note_off_c, 0, 61, 100
2, 37376, Note_on_c, 0, 64, 86
2, 37436, Note_off_c, 0, 64, 100
2, 37440, Note_on_c, 0, 67, 88
2, 37500, Note_off_c, 0, 67, 100
2, 37504, Note_on_c, 0, 64, 90
2, 37564, Note_off_c, 0, 64, 100
2, 37568, Note_on_c, 0, 61, 90
2, 37628, Note_off_c, 0, 61, 100
2, 37632, Note_on_c, 0, 58, 88
2, 37692, Note_off_c, 0, 58, 100
2, 37696, Note_on_c, 0, 61, 85
2, 37756, Note_off_c, 0, 61, 100
2, 37760, Note_on_c, 0, 64, 82
2, 37820, Note_off_c, 0, 64, 100
2, 37824, Note_on_c, 0, 67, 79
2, 37884, Note_off_c, 0, 67, 100
2, 37888, Note_on_c, 0, 64, 76
2, 37948, Note_off_c, 0, 64, 100
2, 37952, Note_on_c, 0, 61, 73
2, 38012, Note_off_c, 0, 61, 100
2, 38016, Note_on_c, 0, 57, 70
2, 38076, Note_off_c, 0, 57, 100
2, 38080, Note_on_c, 0, 60, 70
2, 38140, Note_off_c, 0, 60, 100
2, 38144, Note_on_c, 0, 65, 70
2, 38204, Note_off_c, 0, 65, 100
2, 38208, Note_on_c, 0, 69, 70
2, 38396, Note_off_c, 0, 69, 100
2, 39296, Note_on_c, 0, 57, 60
2, 39360, Note_on_c, 0, 65, 60
2, 39544, Note_off_c, 0, 57, 100
2, 39548, Note_off_c, 0, 65, 100
2, 39936, Note_on_c, 0, 57, 60
2, 39936, Note_on_c, 0, 60, 60
2, 40124, Note_off_c, 0, 57, 100
2, 40124, Note_off_c, 0, 60, 100
2, 40320, Note_on_c, 0, 53, 60
2, 40320, Note_on_c, 0, 57, 60
2, 41084, Note_off_c, 0, 53, 100
2, 41084, Note_off_c, 0, 57, 100
2, 41472, Control_c, 0, 11, 0
2, 41664, Note_on_c, 0, 65, 1
2, 41756, Note_off_c, 0, 65, 100
2, 41756, End_track
3, 0, Start_track
3, 0, Title_t, "Piano Left"
3, 0, Control_c, 1, 0, 0
3, 0, Program_c, 1, 0
3, 0, Control_c, 1, 7, 100
3, 0, Control_c, 1, 10, 54
3, 0, Control_c, 1, 91, 127
3, 0, Key_signature, -1, "major"
3, 0, Note_on_c, 1, 65, 70
3, 92, Note_off_c, 1, 65, 100
3, 96, Note_on_c, 1, 72, 70
3, 188, Note_off_c, 1, 72, 100
3, 192, Note_on_c, 1, 69, 70
3, 284, Note_off_c, 1, 69, 100
3, 288, Note_on_c, 1, 72, 70
3, 380, Note_off_c, 1, 72, 100
3, 384, Note_on_c, 1, 64, 70
3, 476, Note_off_c, 1, 64, 100
3, 480, Note_on_c, 1, 72, 70
3, 572, Note_off_c, 1, 72, 100
3, 576, Note_on_c, 1, 67, 70
3, 668, Note_off_c, 1, 67, 100
3, 672, Note_on_c, 1, 72, 70
3, 764, Note_off_c, 1, 72, 100
3, 768, Note_on_c, 1, 65, 70
3, 860, Note_off_c, 1, 65, 100
3, 864, Note_on_c, 1, 72, 70
3, 956, Note_off_c, 1, 72, 100
3, 960, Note_on_c, 1, 69, 70
3, 1052, Note_off_c, 1, 69, 100
3, 1056, Note_on_c, 1, 72, 70
3, 1148, Note_off_c, 1, 72, 100
3, 1152, Note_on_c, 1, 60, 70
3, 1244, Note_off_c, 1, 60, 100
3, 1248, Note_on_c, 1, 72, 70
3, 1340, Note_off_c, 1, 72, 100
3, 1344, Note_on_c, 1, 70, 70
3, 1436, Note_off_c, 1, 70, 100
3, 1440, Note_on_c, 1, 72, 70
3, 1532, Note_off_c, 1, 72, 100
3, 1536, Note_on_c, 1, 69, 70
3, 1628, Note_off_c, 1, 69, 100
3, 1632, Note_on_c, 1, 72, 70
3, 1724, Note_off_c, 1, 72, 100
3, 1728, Note_on_c, 1, 68, 70
3, 1820, Note_off_c, 1, 68, 100
3, 1824, Note_on_c, 1, 72, 70
3, 1916, Note_off_c, 1, 72, 100
3, 1920, Note_on_c, 1, 69, 70
3, 2012, Note_off_c, 1, 69, 100
3, 2016, Note_on_c, 1, 72, 70
3, 2108, Note_off_c, 1, 72, 100
3, 2112, Note_on_c, 1, 64, 70
3, 2204, Note_off_c, 1, 64, 100
3, 2208, Note_on_c, 1, 72, 70
3, 2300, Note_off_c, 1, 72, 100
3, 2304, Note_on_c, 1, 65, 70
3, 2396, Note_off_c, 1, 65, 100
3, 2400, Note_on_c, 1, 72, 70
3, 2492, Note_off_c, 1, 72, 100
3, 2496, Note_on_c, 1, 63, 70
3, 2588, Note_off_c, 1, 63, 100
3, 2592, Note_on_c, 1, 65, 70
3, 2684, Note_off_c, 1, 65, 100
3, 2688, Note_on_c, 1, 62, 70
3, 2780, Note_off_c, 1, 62, 100
3, 2784, Note_on_c, 1, 65, 70
3, 2876, Note_off_c, 1, 65, 100
3, 2880, Note_on_c, 1, 60, 70
3, 2972, Note_off_c, 1, 60, 100
3, 2976, Note_on_c, 1, 65, 70
3, 3068, Note_off_c, 1, 65, 100
3, 3072, Note_on_c, 1, 58, 70
3, 3164, Note_off_c, 1, 58, 100
3, 3168, Note_on_c, 1, 62, 70
3, 3260, Note_off_c, 1, 62, 100
3, 3264, Note_on_c, 1, 59, 70
3, 3356, Note_off_c, 1, 59, 100
3, 3360, Note_on_c, 1, 62, 70
3, 3452, Note_off_c, 1, 62, 100
3, 3456, Note_on_c, 1, 60, 70
3, 3548, Note_off_c, 1, 60, 100
3, 3552, Note_on_c, 1, 65, 70
3, 3644, Note_off_c, 1, 65, 100
3, 3648, Note_on_c, 1, 69, 70
3, 3740, Note_off_c, 1, 69, 100
3, 3744, Note_on_c, 1, 72, 70
3, 3836, Note_off_c, 1, 72, 100
3, 3840, Note_on_c, 1, 60, 70
3, 3932, Note_off_c, 1, 60, 100
3, 3936, Note_on_c, 1, 64, 70
3, 4028, Note_off_c, 1, 64, 100
3, 4032, Note_on_c, 1, 67, 70
3, 4124, Note_off_c, 1, 67, 100
3, 4128, Note_on_c, 1, 72, 70
3, 4220, Note_off_c, 1, 72, 100
3, 4224, Note_on_c, 1, 71, 70
3, 4316, Note_off_c, 1, 71, 100
3, 4320, Note_on_c, 1, 72, 70
3, 4412, Note_off_c, 1, 72, 100
3, 4416, Note_on_c, 1, 74, 70
3, 4508, Note_off_c, 1, 74, 100
3, 4512, Note_on_c, 1, 72, 70
3, 4604, Note_off_c, 1, 72, 100
3, 4608, Note_on_c, 1, 70, 70
3, 4700, Note_off_c, 1, 70, 100
3, 4704, Note_on_c, 1, 72, 70
3, 4796, Note_off_c, 1, 72, 100
3, 4800, Note_on_c, 1, 67, 70
3, 4892, Note_off_c, 1, 67, 100
3, 4896, Note_on_c, 1, 72, 70
3, 4988, Note_off_c, 1, 72, 100
3, 4992, Note_on_c, 1, 64, 70
3, 5084, Note_off_c, 1, 64, 100
3, 5088, Note_on_c, 1, 72, 70
3, 5180, Note_off_c, 1, 72, 100
3, 5184, Note_on_c, 1, 60, 70
3, 5276, Note_off_c, 1, 60, 100
3, 5280, Note_on_c, 1, 72, 70
3, 5372, Note_off_c, 1, 72, 100
3, 5376, Note_on_c, 1, 65, 70
3, 5468, Note_off_c, 1, 65, 100
3, 5472, Note_on_c, 1, 72, 80
3, 5564, Note_off_c, 1, 72, 100
3, 5568, Note_on_c, 1, 69, 90
3, 5660, Note_off_c, 1, 69, 100
3, 5664, Note_on_c, 1, 72, 100
3, 5756, Note_off_c, 1, 72, 100
3, 5760, Note_on_c, 1, 70, 70
3, 5852, Note_off_c, 1, 70, 100
3, 5856, Note_on_c, 1, 72, 70
3, 5948, Note_off_c, 1, 72, 100
3, 5952, Note_on_c, 1, 67, 70
3, 6044, Note_off_c, 1, 67, 100
3, 6048, Note_on_c, 1, 72, 70
3, 6140, Note_off_c, 1, 72, 100
3, 6144, Note_on_c, 1, 64, 70
3, 6236, Note_off_c, 1, 64, 100
3, 6240, Note_on_c, 1, 72, 70
3, 6332, Note_off_c, 1, 72, 100
3, 6336, Note_on_c, 1, 60, 70
3, 6428, Note_off_c, 1, 60, 100
3, 6432, Note_on_c, 1, 72, 70
3, 6524, Note_off_c, 1, 72, 100
3, 6528, Note_on_c, 1, 65, 70
3, 6620, Note_off_c, 1, 65, 100
3, 6624, Note_on_c, 1, 72, 80
3, 6716, Note_off_c, 1, 72, 100
3, 6720, Note_on_c, 1, 69, 90
3, 6812, Note_off_c, 1, 69, 100
3, 6816, Note_on_c, 1, 72, 100
3, 6908, Note_off_c, 1, 72, 100
3, 6912, Note_on_c, 1, 58, 70
3, 7004, Note_off_c, 1, 58, 100
3, 7008, Note_on_c, 1, 67, 70
3, 7100, Note_off_c, 1, 67, 100
3, 7104, Note_on_c, 1, 62, 70
3, 7196, Note_off_c, 1, 62, 100
3, 7200, Note_on_c, 1, 67, 70
3, 7292, Note_off_c, 1, 67, 100
3, 7296, Note_on_c, 1, 60, 70
3, 7388, Note_off_c, 1, 60, 100
3, 7392, Note_on_c, 1, 69, 70
3, 7484, Note_off_c, 1, 69, 100
3, 7488, Note_on_c, 1, 65, 70
3, 7580, Note_off_c, 1, 65, 100
3, 7584, Note_on_c, 1, 69, 70
3, 7676, Note_off_c, 1, 69, 100
3, 7680, Note_on_c, 1, 60, 70
3, 7772, Note_off_c, 1, 60, 100
3, 7776, Note_on_c, 1, 67, 70
3, 7868, Note_off_c, 1, 67, 100
3, 7872, Note_on_c, 1, 64, 70
3, 7964, Note_off_c, 1, 64, 100
3, 7968, Note_on_c, 1, 67, 70
3, 8060, Note_off_c, 1, 67, 100
3, 8064, Note_on_c, 1, 53, 70
3, 8156, Note_off_c, 1, 53, 100
3, 8160, Note_on_c, 1, 60, 70
3, 8252, Note_off_c, 1, 60, 100
3, 8256, Note_on_c, 1, 64, 70
3, 8348, Note_off_c, 1, 64, 100
3, 8352, Note_on_c, 1, 60, 70
3, 8444, Note_off_c, 1, 60, 100
3, 8448, Note_on_c, 1, 65, 70
3, 8636, Note_off_c, 1, 65, 100
3, 8640, Note_on_c, 1, 57, 70
3, 8828, Note_off_c, 1, 57, 100
3, 8832, Note_on_c, 1, 57, 70
3, 9020, Note_off_c, 1, 57, 100
3, 9024, Note_on_c, 1, 57, 70
3, 9212, Note_off_c, 1, 57, 100
3, 9216, Note_on_c, 1, 50, 70
3, 9216, Note_on_c, 1, 62, 70
3, 9788, Note_off_c, 1, 50, 100
3, 9788, Note_off_c, 1, 62, 100
3, 9792, Note_on_c, 1, 57, 70
3, 9980, Note_off_c, 1, 57, 100
3, 9984, Note_on_c, 1, 62, 70
3, 10172, Note_off_c, 1, 62, 100
3, 10176, Note_on_c, 1, 57, 70
3, 10364, Note_off_c, 1, 57, 100
3, 10368, Note_on_c, 1, 52, 70
3, 10368, Note_on_c, 1, 64, 70
3, 10940, Note_off_c, 1, 52, 100
3, 10940, Note_off_c, 1, 64, 100
3, 10944, Note_on_c, 1, 57, 70
3, 11132, Note_off_c, 1, 57, 100
3, 11136, Note_on_c, 1, 64, 70
3, 11324, Note_off_c, 1, 64, 100
3, 11328, Note_on_c, 1, 57, 70
3, 11516, Note_off_c, 1, 57, 100
3, 11520, Note_on_c, 1, 65, 70
3, 11520, Note_on_c, 1, 53, 70
3, 11900, Note_off_c, 1, 65, 100
3, 11900, Note_off_c, 1, 53, 100
3, 11904, Note_on_c, 1, 55, 70
3, 12284, Note_off_c, 1, 55, 100
3, 12288, Note_on_c, 1, 57, 70
3, 12668, Note_off_c, 1, 57, 100
3, 12672, Note_on_c, 1, 62, 70
3, 12672, Note_on_c, 1, 50, 70
3, 13244, Note_off_c, 1, 62, 100
3, 13244, Note_off_c, 1, 50, 100
3, 13248, Note_on_c, 1, 60, 70
3, 13436, Note_off_c, 1, 60, 100
3, 13440, Note_on_c, 1, 59, 73
3, 13628, Note_off_c, 1, 59, 100
3, 13632, Note_on_c, 1, 57, 77
3, 13820, Note_off_c, 1, 57, 100
3, 13824, Note_on_c, 1, 55, 81
3, 14204, Note_off_c, 1, 55, 100
3, 14208, Note_on_c, 1, 56, 89
3, 14588, Note_off_c, 1, 56, 100
3, 14592, Note_on_c, 1, 57, 97
3, 14972, Note_off_c, 1, 57, 100
3, 14976, Note_on_c, 1, 53, 70
3, 15356, Note_off_c, 1, 53, 100
3, 15360, Note_on_c, 1, 55, 70
3, 15744, Note_on_c, 1, 43, 70
3, 16124, Note_off_c, 1, 55, 100
3, 16124, Note_off_c, 1, 43, 100
3, 16128, Note_on_c, 1, 48, 70
3, 16704, Note_on_c, 1, 60, 70
3, 16892, Note_off_c, 1, 60, 100
3, 16896, Note_on_c, 1, 60, 90
3, 17084, Note_off_c, 1, 60, 100
3, 17088, Note_on_c, 1, 60, 78
3, 17276, Note_off_c, 1, 48, 100
3, 17276, Note_off_c, 1, 60, 100
3, 17280, Note_on_c, 1, 48, 70
3, 17856, Note_on_c, 1, 60, 70
3, 18044, Note_off_c, 1, 60, 100
3, 18048, Note_on_c, 1, 60, 90
3, 18236, Note_off_c, 1, 60, 100
3, 18240, Note_on_c, 1, 60, 78
3, 18428, Note_off_c, 1, 48, 100
3, 18428, Note_off_c, 1, 60, 100
3, 18432, Note_on_c, 1, 48, 70
3, 18620, Note_off_c, 1, 48, 100
3, 19584, Note_on_c, 1, 65, 70
3, 19676, Note_off_c, 1, 65, 100
3, 19680, Note_on_c, 1, 72, 70
3, 19772, Note_off_c, 1, 72, 100
3, 19776, Note_on_c, 1, 69, 70
3, 19868, Note_off_c, 1, 69, 100
3, 19872, Note_on_c, 1, 72, 70
3, 19964, Note_off_c, 1, 72, 100
3, 19968, Note_on_c, 1, 64, 70
3, 20060, Note_off_c, 1, 64, 100
3, 20064, Note_on_c, 1, 72, 70
3, 20156, Note_off_c, 1, 72, 100
3, 20160, Note_on_c, 1, 67, 70
3, 20252, Note_off_c, 1, 67, 100
3, 20256, Note_on_c, 1, 72, 70
3, 20348, Note_off_c, 1, 72, 100
3, 20352, Note_on_c, 1, 65, 70
3, 20444, Note_off_c, 1, 65, 100
3, 20448, Note_on_c, 1, 72, 70
3, 20540, Note_off_c, 1, 72, 100
3, 20544, Note_on_c, 1, 69, 70
3, 20636, Note_off_c, 1, 69, 100
3, 20640, Note_on_c, 1, 72, 70
3, 20732, Note_off_c, 1, 72, 100
3, 20736, Note_on_c, 1, 60, 70
3, 20828, Note_off_c, 1, 60, 100
3, 20832, Note_on_c, 1, 72, 70
3, 20924, Note_off_c, 1, 72, 100
3, 20928, Note_on_c, 1, 70, 70
3, 21020, Note_off_c, 1, 70, 100
3, 21024, Note_on_c, 1, 72, 70
3, 21116, Note_off_c, 1, 72, 100
3, 21120, Note_on_c, 1, 69, 70
3, 21212, Note_off_c, 1, 69, 100
3, 21216, Note_on_c, 1, 72, 70
3, 21308, Note_off_c, 1, 72, 100
3, 21312, Note_on_c, 1, 68, 70
3, 21404, Note_off_c, 1, 68, 100
3, 21408, Note_on_c, 1, 72, 70
3, 21500, Note_off_c, 1, 72, 100
3, 21504, Note_on_c, 1, 69, 70
3, 21596, Note_off_c, 1, 69, 100
3, 21600, Note_on_c, 1, 72, 70
3, 21692, Note_off_c, 1, 72, 100
3, 21696, Note_on_c, 1, 64, 70
3, 21788, Note_off_c, 1, 64, 100
3, 21792, Note_on_c, 1, 72, 70
3, 21884, Note_off_c, 1, 72, 100
3, 21888, Note_on_c, 1, 65, 70
3, 21980, Note_off_c, 1, 65, 100
3, 21984, Note_on_c, 1, 72, 78
3, 22076, Note_off_c, 1, 72, 100
3, 22080, Note_on_c, 1, 63, 87
3, 22172, Note_off_c, 1, 63, 100
3, 22176, Note_on_c, 1, 65, 96
3, 22268, Note_off_c, 1, 65, 100
3, 22272, Note_on_c, 1, 62, 100
3, 22364, Note_off_c, 1, 62, 100
3, 22368, Note_on_c, 1, 65, 96
3, 22460, Note_off_c, 1, 65, 100
3, 22464, Note_on_c, 1, 60, 92
3, 22556, Note_off_c, 1, 60, 100
3, 22560, Note_on_c, 1, 65, 87
3, 22652, Note_off_c, 1, 65, 100
3, 22656, Note_on_c, 1, 58, 83
3, 22748, Note_off_c, 1, 58, 100
3, 22752, Note_on_c, 1, 62, 78
3, 22844, Note_off_c, 1, 62, 100
3, 22848, Note_on_c, 1, 59, 74
3, 22940, Note_off_c, 1, 59, 100
3, 22944, Note_on_c, 1, 62, 70
3, 23036, Note_off_c, 1, 62, 100
3, 23040, Note_on_c, 1, 60, 70
3, 23132, Note_off_c, 1, 60, 100
3, 23136, Note_on_c, 1, 65, 70
3, 23228, Note_off_c, 1, 65, 100
3, 23232, Note_on_c, 1, 69, 70
3, 23324, Note_off_c, 1, 69, 100
3, 23328, Note_on_c, 1, 72, 70
3, 23420, Note_off_c, 1, 72, 100
3, 23424, Note_on_c, 1, 60, 70
3, 23516, Note_off_c, 1, 60, 100
3, 23520, Note_on_c, 1, 64, 70
3, 23612, Note_off_c, 1, 64, 100
3, 23616, Note_on_c, 1, 67, 70
3, 23708, Note_off_c, 1, 67, 100
3, 23712, Note_on_c, 1, 72, 70
3, 23804, Note_off_c, 1, 72, 100
3, 23808, Note_on_c, 1, 71, 70
3, 23900, Note_off_c, 1, 71, 100
3, 23904, Note_on_c, 1, 72, 70
3, 23996, Note_off_c, 1, 72, 100
3, 24000, Note_on_c, 1, 74, 70
3, 24092, Note_off_c, 1, 74, 100
3, 24096, Note_on_c, 1, 72, 70
3, 24188, Note_off_c, 1, 72, 100
3, 24192, Note_on_c, 1, 70, 70
3, 24284, Note_off_c, 1, 70, 100
3, 24288, Note_on_c, 1, 72, 70
3, 24380, Note_off_c, 1, 72, 100
3, 24384, Note_on_c, 1, 67, 70
3, 24476, Note_off_c, 1, 67, 100
3, 24480, Note_on_c, 1, 72, 70
3, 24572, Note_off_c, 1, 72, 100
3, 24576, Note_on_c, 1, 64, 70
3, 24668, Note_off_c, 1, 64, 100
3, 24672, Note_on_c, 1, 72, 70
3, 24764, Note_off_c, 1, 72, 100
3, 24768, Note_on_c, 1, 60, 70
3, 24860, Note_off_c, 1, 60, 100
3, 24864, Note_on_c, 1, 72, 70
3, 24956, Note_off_c, 1, 72, 100
3, 24960, Note_on_c, 1, 65, 70
3, 25052, Note_off_c, 1, 65, 100
3, 25056, Note_on_c, 1, 72, 80
3, 25148, Note_off_c, 1, 72, 100
3, 25152, Note_on_c, 1, 69, 90
3, 25244, Note_off_c, 1, 69, 100
3, 25248, Note_on_c, 1, 72, 100
3, 25340, Note_off_c, 1, 72, 100
3, 25344, Note_on_c, 1, 70, 70
3, 25436, Note_off_c, 1, 70, 100
3, 25440, Note_on_c, 1, 72, 70
3, 25532, Note_off_c, 1, 72, 100
3, 25536, Note_on_c, 1, 67, 70
3, 25628, Note_off_c, 1, 67, 100
3, 25632, Note_on_c, 1, 72, 70
3, 25724, Note_off_c, 1, 72, 100
3, 25728, Note_on_c, 1, 64, 70
3, 25820, Note_off_c, 1, 64, 100
3, 25824, Note_on_c, 1, 72, 70
3, 25916, Note_off_c, 1, 72, 100
3, 25920, Note_on_c, 1, 60, 70
3, 26012, Note_off_c, 1, 60, 100
3, 26016, Note_on_c, 1, 72, 70
3, 26108, Note_off_c, 1, 72, 100
3, 26112, Note_on_c, 1, 65, 70
3, 26204, Note_off_c, 1, 65, 100
3, 26208, Note_on_c, 1, 72, 80
3, 26300, Note_off_c, 1, 72, 100
3, 26304, Note_on_c, 1, 69, 90
3, 26396, Note_off_c, 1, 69, 100
3, 26400, Note_on_c, 1, 72, 100
3, 26492, Note_off_c, 1, 72, 100
3, 26496, Note_on_c, 1, 58, 70
3, 26588, Note_off_c, 1, 58, 100
3, 26592, Note_on_c, 1, 67, 70
3, 26684, Note_off_c, 1, 67, 100
3, 26688, Note_on_c, 1, 62, 70
3, 26780, Note_off_c, 1, 62, 100
3, 26784, Note_on_c, 1, 67, 70
3, 26876, Note_off_c, 1, 67, 100
3, 26880, Note_on_c, 1, 60, 70
3, 26972, Note_off_c, 1, 60, 100
3, 26976, Note_on_c, 1, 69, 70
3, 27068, Note_off_c, 1, 69, 100
3, 27072, Note_on_c, 1, 65, 70
3, 27164, Note_off_c, 1, 65, 100
3, 27168, Note_on_c, 1, 69, 70
3, 27260, Note_off_c, 1, 69, 100
3, 27264, Note_on_c, 1, 60, 70
3, 27356, Note_off_c, 1, 60, 100
3, 27360, Note_on_c, 1, 67, 70
3, 27452, Note_off_c, 1, 67, 100
3, 27456, Note_on_c, 1, 64, 70
3, 27548, Note_off_c, 1, 64, 100
3, 27552, Note_on_c, 1, 67, 70
3, 27644, Note_off_c, 1, 67, 100
3, 27648, Note_on_c, 1, 53, 70
3, 27648, Note_on_c, 1, 65, 70
3, 28220, Note_off_c, 1, 53, 100
3, 28220, Note_off_c, 1, 65, 100
3, 28224, Note_on_c, 1, 60, 70
3, 28412, Note_off_c, 1, 60, 100
3, 28416, Note_on_c, 1, 65, 70
3, 28416, Note_on_c, 1, 53, 70
3, 28604, Note_off_c, 1, 65, 100
3, 28604, Note_off_c, 1, 53, 100
3, 28608, Note_on_c, 1, 60, 70
3, 28796, Note_off_c, 1, 60, 100
3, 28800, Note_on_c, 1, 62, 70
3, 28800, Note_on_c, 1, 50, 70
3, 29372, Note_off_c, 1, 62, 100
3, 29372, Note_off_c, 1, 50, 100
3, 29376, Note_on_c, 1, 57, 78
3, 29564, Note_off_c, 1, 57, 100
3, 29568, Note_on_c, 1, 62, 86
3, 29568, Note_on_c, 1, 50, 86
3, 29756, Note_off_c, 1, 62, 100
3, 29756, Note_off_c, 1, 50, 100
3, 29760, Note_on_c, 1, 57, 95
3, 29948, Note_off_c, 1, 57, 100
3, 29952, Note_on_c, 1, 58, 100
3, 30332, Note_off_c, 1, 58, 100
3, 30336, Note_on_c, 1, 60, 90
3, 30716, Note_off_c, 1, 60, 100
3, 30720, Note_on_c, 1, 61, 79
3, 31100, Note_off_c, 1, 61, 100
3, 31104, Note_on_c, 1, 62, 70
3, 31676, Note_off_c, 1, 62, 100
3, 31680, Note_on_c, 1, 60, 70
3, 31868, Note_off_c, 1, 60, 100
3, 31872, Note_on_c, 1, 58, 70
3, 32060, Note_off_c, 1, 58, 100
3, 32064, Note_on_c, 1, 57, 70
3, 32252, Note_off_c, 1, 57, 100
3, 32256, Note_on_c, 1, 55, 70
3, 32636, Note_off_c, 1, 55, 100
3, 32640, Note_on_c, 1, 49, 70
3, 33020, Note_off_c, 1, 49, 100
3, 33024, Note_on_c, 1, 50, 70
3, 33404, Note_off_c, 1, 50, 100
3, 33408, Note_on_c, 1, 46, 70
3, 33788, Note_off_c, 1, 46, 100
3, 33792, Note_on_c, 1, 48, 70
3, 34176, Note_on_c, 1, 36, 70
3, 34556, Note_off_c, 1, 48, 100
3, 34556, Note_off_c, 1, 36, 100
3, 34560, Note_on_c, 1, 41, 70
3, 35136, Note_on_c, 1, 53, 70
3, 35324, Note_off_c, 1, 53, 100
3, 35328, Note_on_c, 1, 53, 90
3, 35516, Note_off_c, 1, 53, 100
3, 35520, Note_on_c, 1, 53, 78
3, 35708, Note_off_c, 1, 41, 100
3, 35708, Note_off_c, 1, 53, 100
3, 35712, Note_on_c, 1, 41, 70
3, 36288, Note_on_c, 1, 53, 70
3, 36476, Note_off_c, 1, 53, 100
3, 36480, Note_on_c, 1, 53, 90
3, 36668, Note_off_c, 1, 53, 100
3, 36672, Note_on_c, 1, 53, 78
3, 36860, Note_off_c, 1, 41, 100
3, 36860, Note_off_c, 1, 53, 100
3, 36864, Note_on_c, 1, 41, 70
3, 37248, Note_on_c, 1, 53, 82
3, 37628, Note_off_c, 1, 53, 100
3, 37632, Note_on_c, 1, 53, 88
3, 38012, Note_off_c, 1, 41, 100
3, 38012, Note_off_c, 1, 53, 100
3, 38016, Note_on_c, 1, 41, 70
3, 38016, Note_on_c, 1, 53, 70
3, 38396, Note_off_c, 1, 41, 100
3, 38396, Note_off_c, 1, 53, 100
3, 39168, Note_on_c, 1, 41, 60
3, 39228, Note_off_c, 1, 41, 100
3, 39232, Note_on_c, 1, 48, 60
3, 39292, Note_off_c, 1, 48, 100
3, 39936, Note_on_c, 1, 41, 60
3, 39936, Note_on_c, 1, 48, 60
3, 40124, Note_off_c, 1, 41, 100
3, 40124, Note_off_c, 1, 48, 100
3, 40320, Note_on_c, 1, 41, 60
3, 40320, Note_on_c, 1, 48, 60
3, 41084, Note_off_c, 1, 41, 100
3, 41084, Note_off_c, 1, 48, 100
3, 41084, End_track
0, 0, End_of_file
