0, 0, Header, 1, 3, 384
1, 0, Start_track
1, 0, Title_t, "L.v.Beethoven 2mov - Sonatina in G Major Anh.5-1\000"
1, 0, Copyright_t, "Copyright(C) 1995-2009, Suzuki Software\000"
1, 0, Sequencer_specific, 9, 67, 123, 0, 88, 70, 48, 50, 0, 1
1, 0, Text_t, "XFhd:2009/04/18:JP:Classical::::L.v.Beethoven:::Kaoru Suzuki\000"
1, 0, Text_t, "XFln:JP:\203\\\203i\203^ \203g\222·\222² Anh.5-1\201`\221æ2\212y\217Í:L.v.\203x\201[\203g\201[\203\224\203F\203\223:::\227é\202¿\202á\202ñ:\227é\202¿\202á\202ñ\000"
1, 0, Time_signature, 3, 2, 96, 8
1, 0, Sequencer_specific, 5, 0, 0, 119, 14, 0
1, 0, Tempo, 461538
1, 8832, Tempo, 476190
1, 9024, Tempo, 500000
1, 9984, Tempo, 461538
1, 18048, Tempo, 476190
1, 18240, Tempo, 500000
1, 19008, Tempo, 461538
1, 27456, Tempo, 476190
1, 30720, Tempo, 500000
1, 30912, Tempo, 545454
1, 32832, Tempo, 500000
1, 33024, Tempo, 461538
1, 43392, Tempo, 476190
1, 43584, Tempo, 500000
1, 44352, Tempo, 461538
1, 52800, Tempo, 476190
1, 56064, Tempo, 500000
1, 56256, Tempo, 545454
1, 58176, Tempo, 500000
1, 58368, Tempo, 461538
1, 68736, Tempo, 476190
1, 68928, Tempo, 500000
1, 69696, Tempo, 468750
1, 80064, Tempo, 483870
1, 80256, Tempo, 500000
1, 80448, Tempo, 545454
1, 81216, Tempo, 652173
1, 81216, End_track
2, 0, Start_track
2, 0, Title_t, "Piano Right"
2, 0, Control_c, 0, 0, 0
2, 0, Program_c, 0, 0
2, 0, Control_c, 0, 7, 100
2, 0, Control_c, 0, 10, 77
2, 0, Control_c, 0, 91, 127
2, 0, Key_signature, 1, "major"
2, 576, Note_on_c, 0, 71, 70
2, 764, Note_off_c, 0, 71, 100
2, 768, Note_on_c, 0, 72, 70
2, 956, Note_off_c, 0, 72, 100
2, 960, Note_on_c, 0, 74, 70
2, 1148, Note_off_c, 0, 74, 100
2, 1152, Note_on_c, 0, 67, 70
2, 1532, Note_off_c, 0, 67, 100
2, 1536, Note_on_c, 0, 67, 70
2, 1724, Note_off_c, 0, 67, 100
2, 1728, Note_on_c, 0, 71, 70
2, 1776, Note_on_c, 0, 69, 70
2, 1820, Note_off_c, 0, 71, 100
2, 1916, Note_off_c, 0, 69, 100
2, 1920, Note_on_c, 0, 67, 70
2, 2108, Note_off_c, 0, 67, 100
2, 2112, Note_on_c, 0, 69, 70
2, 2300, Note_off_c, 0, 69, 100
2, 2304, Note_on_c, 0, 71, 70
2, 2684, Note_off_c, 0, 71, 100
2, 2688, Note_on_c, 0, 67, 70
2, 2876, Note_off_c, 0, 67, 100
2, 2880, Note_on_c, 0, 71, 70
2, 3068, Note_off_c, 0, 71, 100
2, 3072, Note_on_c, 0, 72, 70
2, 3260, Note_off_c, 0, 72, 100
2, 3264, Note_on_c, 0, 74, 70
2, 3452, Note_off_c, 0, 74, 100
2, 3456, Note_on_c, 0, 67, 70
2, 3836, Note_off_c, 0, 67, 100
2, 3840, Note_on_c, 0, 67, 70
2, 4028, Note_off_c, 0, 67, 100
2, 4032, Note_on_c, 0, 69, 70
2, 4080, Note_on_c, 0, 67, 70
2, 4124, Note_off_c, 0, 69, 100
2, 4220, Note_off_c, 0, 67, 100
2, 4224, Note_on_c, 0, 66, 70
2, 4412, Note_off_c, 0, 66, 100
2, 4416, Note_on_c, 0, 67, 70
2, 4604, Note_off_c, 0, 67, 100
2, 4608, Note_on_c, 0, 69, 70
2, 4988, Note_off_c, 0, 69, 100
2, 5184, Note_on_c, 0, 71, 70
2, 5372, Note_off_c, 0, 71, 100
2, 5376, Note_on_c, 0, 72, 70
2, 5564, Note_off_c, 0, 72, 100
2, 5568, Note_on_c, 0, 74, 70
2, 5756, Note_off_c, 0, 74, 100
2, 5760, Note_on_c, 0, 67, 70
2, 6140, Note_off_c, 0, 67, 100
2, 6144, Note_on_c, 0, 67, 70
2, 6332, Note_off_c, 0, 67, 100
2, 6336, Note_on_c, 0, 67, 70
2, 6524, Note_off_c, 0, 67, 100
2, 6528, Note_on_c, 0, 69, 70
2, 6716, Note_off_c, 0, 69, 100
2, 6720, Note_on_c, 0, 71, 70
2, 6908, Note_off_c, 0, 71, 100
2, 6912, Note_on_c, 0, 72, 70
2, 7292, Note_off_c, 0, 72, 100
2, 7296, Note_on_c, 0, 76, 70
2, 7484, Note_off_c, 0, 76, 100
2, 7488, Note_on_c, 0, 79, 70
2, 7676, Note_off_c, 0, 79, 100
2, 7680, Note_on_c, 0, 76, 70
2, 7868, Note_off_c, 0, 76, 100
2, 7872, Note_on_c, 0, 72, 70
2, 8060, Note_off_c, 0, 72, 100
2, 8064, Note_on_c, 0, 71, 70
2, 8444, Note_off_c, 0, 71, 100
2, 8448, Note_on_c, 0, 74, 70
2, 8636, Note_off_c, 0, 74, 100
2, 8640, Note_on_c, 0, 72, 70
2, 8828, Note_off_c, 0, 72, 100
2, 8832, Note_on_c, 0, 69, 70
2, 9020, Note_off_c, 0, 69, 100
2, 9024, Note_on_c, 0, 74, 70
2, 9212, Note_off_c, 0, 74, 100
2, 9216, Note_on_c, 0, 67, 70
2, 9596, Note_off_c, 0, 67, 100
2, 9792, Note_on_c, 0, 71, 70
2, 9980, Note_off_c, 0, 71, 100
2, 9984, Note_on_c, 0, 72, 70
2, 10172, Note_off_c, 0, 72, 100
2, 10176, Note_on_c, 0, 74, 70
2, 10364, Note_off_c, 0, 74, 100
2, 10368, Note_on_c, 0, 67, 70
2, 10748, Note_off_c, 0, 67, 100
2, 10752, Note_on_c, 0, 67, 70
2, 10940, Note_off_c, 0, 67, 100
2, 10944, Note_on_c, 0, 71, 70
2, 10992, Note_on_c, 0, 69, 70
2, 11036, Note_off_c, 0, 71, 100
2, 11132, Note_off_c, 0, 69, 100
2, 11136, Note_on_c, 0, 67, 70
2, 11324, Note_off_c, 0, 67, 100
2, 11328, Note_on_c, 0, 69, 70
2, 11516, Note_off_c, 0, 69, 100
2, 11520, Note_on_c, 0, 71, 70
2, 11900, Note_off_c, 0, 71, 100
2, 11904, Note_on_c, 0, 67, 70
2, 12092, Note_off_c, 0, 67, 100
2, 12096, Note_on_c, 0, 71, 70
2, 12284, Note_off_c, 0, 71, 100
2, 12288, Note_on_c, 0, 72, 70
2, 12476, Note_off_c, 0, 72, 100
2, 12480, Note_on_c, 0, 74, 70
2, 12668, Note_off_c, 0, 74, 100
2, 12672, Note_on_c, 0, 67, 70
2, 13052, Note_off_c, 0, 67, 100
2, 13056, Note_on_c, 0, 67, 70
2, 13244, Note_off_c, 0, 67, 100
2, 13248, Note_on_c, 0, 69, 70
2, 13296, Note_on_c, 0, 67, 70
2, 13340, Note_off_c, 0, 69, 100
2, 13436, Note_off_c, 0, 67, 100
2, 13440, Note_on_c, 0, 66, 70
2, 13628, Note_off_c, 0, 66, 100
2, 13632, Note_on_c, 0, 67, 70
2, 13820, Note_off_c, 0, 67, 100
2, 13824, Note_on_c, 0, 69, 70
2, 14204, Note_off_c, 0, 69, 100
2, 14400, Note_on_c, 0, 71, 70
2, 14588, Note_off_c, 0, 71, 100
2, 14592, Note_on_c, 0, 72, 70
2, 14780, Note_off_c, 0, 72, 100
2, 14784, Note_on_c, 0, 74, 70
2, 14972, Note_off_c, 0, 74, 100
2, 14976, Note_on_c, 0, 67, 70
2, 15356, Note_off_c, 0, 67, 100
2, 15360, Note_on_c, 0, 67, 70
2, 15548, Note_off_c, 0, 67, 100
2, 15552, Note_on_c, 0, 67, 70
2, 15740, Note_off_c, 0, 67, 100
2, 15744, Note_on_c, 0, 69, 70
2, 15932, Note_off_c, 0, 69, 100
2, 15936, Note_on_c, 0, 71, 70
2, 16124, Note_off_c, 0, 71, 100
2, 16128, Note_on_c, 0, 72, 70
2, 16508, Note_off_c, 0, 72, 100
2, 16512, Note_on_c, 0, 76, 70
2, 16700, Note_off_c, 0, 76, 100
2, 16704, Note_on_c, 0, 79, 70
2, 16892, Note_off_c, 0, 79, 100
2, 16896, Note_on_c, 0, 76, 70
2, 17084, Note_off_c, 0, 76, 100
2, 17088, Note_on_c, 0, 72, 70
2, 17276, Note_off_c, 0, 72, 100
2, 17280, Note_on_c, 0, 71, 70
2, 17660, Note_off_c, 0, 71, 100
2, 17664, Note_on_c, 0, 74, 70
2, 17852, Note_off_c, 0, 74, 100
2, 17856, Note_on_c, 0, 72, 70
2, 18044, Note_off_c, 0, 72, 100
2, 18048, Note_on_c, 0, 69, 70
2, 18236, Note_off_c, 0, 69, 100
2, 18240, Note_on_c, 0, 74, 70
2, 18428, Note_off_c, 0, 74, 100
2, 18432, Note_on_c, 0, 67, 70
2, 18812, Note_off_c, 0, 67, 100
2, 19008, Note_on_c, 0, 69, 70
2, 19056, Note_on_c, 0, 67, 70
2, 19100, Note_off_c, 0, 69, 100
2, 19196, Note_off_c, 0, 67, 100
2, 19200, Note_on_c, 0, 66, 70
2, 19388, Note_off_c, 0, 66, 100
2, 19392, Note_on_c, 0, 67, 70
2, 19580, Note_off_c, 0, 67, 100
2, 19584, Note_on_c, 0, 69, 70
2, 19772, Note_off_c, 0, 69, 100
2, 19776, Note_on_c, 0, 71, 70
2, 19964, Note_off_c, 0, 71, 100
2, 19968, Note_on_c, 0, 73, 70
2, 20156, Note_off_c, 0, 73, 100
2, 20160, Note_on_c, 0, 74, 70
2, 20348, Note_off_c, 0, 74, 100
2, 20352, Note_on_c, 0, 76, 70
2, 20540, Note_off_c, 0, 76, 100
2, 20544, Note_on_c, 0, 78, 70
2, 20732, Note_off_c, 0, 78, 100
2, 20736, Note_on_c, 0, 81, 70
2, 21116, Note_off_c, 0, 81, 100
2, 21120, Note_on_c, 0, 79, 70
2, 21308, Note_off_c, 0, 79, 100
2, 21312, Note_on_c, 0, 78, 70
2, 21500, Note_off_c, 0, 78, 100
2, 21504, Note_on_c, 0, 76, 70
2, 21692, Note_off_c, 0, 76, 100
2, 21696, Note_on_c, 0, 74, 70
2, 21884, Note_off_c, 0, 74, 100
2, 21888, Note_on_c, 0, 73, 70
2, 22076, Note_off_c, 0, 73, 100
2, 22080, Note_on_c, 0, 71, 70
2, 22268, Note_off_c, 0, 71, 100
2, 22272, Note_on_c, 0, 69, 70
2, 22460, Note_off_c, 0, 69, 100
2, 22464, Note_on_c, 0, 76, 70
2, 22652, Note_off_c, 0, 76, 100
2, 22656, Note_on_c, 0, 73, 70
2, 22844, Note_off_c, 0, 73, 100
2, 22848, Note_on_c, 0, 67, 70
2, 23036, Note_off_c, 0, 67, 100
2, 23040, Note_on_c, 0, 66, 70
2, 23420, Note_off_c, 0, 66, 100
2, 23424, Note_on_c, 0, 69, 70
2, 23612, Note_off_c, 0, 69, 100
2, 23616, Note_on_c, 0, 74, 70
2, 23804, Note_off_c, 0, 74, 100
2, 23808, Note_on_c, 0, 74, 70
2, 23996, Note_off_c, 0, 74, 100
2, 24000, Note_on_c, 0, 74, 70
2, 24188, Note_off_c, 0, 74, 100
2, 24192, Note_on_c, 0, 71, 70
2, 24572, Note_off_c, 0, 71, 100
2, 24576, Note_on_c, 0, 67, 70
2, 24764, Note_off_c, 0, 67, 100
2, 24768, Note_on_c, 0, 74, 70
2, 24956, Note_off_c, 0, 74, 100
2, 24960, Note_on_c, 0, 74, 70
2, 25148, Note_off_c, 0, 74, 100
2, 25152, Note_on_c, 0, 74, 70
2, 25340, Note_off_c, 0, 74, 100
2, 25344, Note_on_c, 0, 71, 70
2, 25724, Note_off_c, 0, 71, 100
2, 25728, Note_on_c, 0, 67, 70
2, 25916, Note_off_c, 0, 67, 100
2, 25920, Note_on_c, 0, 74, 70
2, 26108, Note_off_c, 0, 74, 100
2, 26112, Note_on_c, 0, 74, 70
2, 26300, Note_off_c, 0, 74, 100
2, 26304, Note_on_c, 0, 74, 70
2, 26492, Note_off_c, 0, 74, 100
2, 26496, Note_on_c, 0, 71, 70
2, 26684, Note_off_c, 0, 71, 100
2, 26688, Note_on_c, 0, 67, 70
2, 26876, Note_off_c, 0, 67, 100
2, 26880, Note_on_c, 0, 64, 70
2, 27068, Note_off_c, 0, 64, 100
2, 27072, Note_on_c, 0, 66, 70
2, 27260, Note_off_c, 0, 66, 100
2, 27264, Note_on_c, 0, 67, 70
2, 27452, Note_off_c, 0, 67, 100
2, 27456, Note_on_c, 0, 64, 70
2, 27644, Note_off_c, 0, 64, 100
2, 27648, Note_on_c, 0, 62, 70
2, 28028, Note_off_c, 0, 62, 100
2, 28224, Note_on_c, 0, 66, 70
2, 28412, Note_off_c, 0, 66, 100
2, 28416, Note_on_c, 0, 64, 70
2, 28604, Note_off_c, 0, 64, 100
2, 28608, Note_on_c, 0, 62, 70
2, 28796, Note_off_c, 0, 62, 100
2, 28800, Note_on_c, 0, 69, 70
2, 29180, Note_off_c, 0, 69, 100
2, 29376, Note_on_c, 0, 69, 70
2, 29564, Note_off_c, 0, 69, 100
2, 29568, Note_on_c, 0, 67, 70
2, 29756, Note_off_c, 0, 67, 100
2, 29760, Note_on_c, 0, 66, 70
2, 29948, Note_off_c, 0, 66, 100
2, 29952, Note_on_c, 0, 72, 70
2, 30332, Note_off_c, 0, 72, 100
2, 30528, Note_on_c, 0, 72, 85
2, 30716, Note_off_c, 0, 72, 100
2, 30720, Note_on_c, 0, 71, 90
2, 30908, Note_off_c, 0, 71, 100
2, 30912, Note_on_c, 0, 69, 95
2, 31100, Note_off_c, 0, 69, 100
2, 31104, Note_on_c, 0, 76, 100
2, 32636, Note_off_c, 0, 76, 100
2, 32640, Note_on_c, 0, 74, 70
2, 32828, Note_off_c, 0, 74, 100
2, 32832, Note_on_c, 0, 72, 70
2, 33020, Note_off_c, 0, 72, 100
2, 33024, Note_on_c, 0, 71, 70
2, 33212, Note_off_c, 0, 71, 100
2, 33216, Note_on_c, 0, 69, 70
2, 33404, Note_off_c, 0, 69, 100
2, 33408, Note_on_c, 0, 67, 70
2, 33596, Note_off_c, 0, 67, 100
2, 33600, Note_on_c, 0, 66, 70
2, 33788, Note_off_c, 0, 66, 100
2, 33792, Note_on_c, 0, 64, 70
2, 33980, Note_off_c, 0, 64, 100
2, 33984, Note_on_c, 0, 62, 70
2, 34172, Note_off_c, 0, 62, 100
2, 34176, Note_on_c, 0, 64, 70
2, 34364, Note_off_c, 0, 64, 100
2, 34368, Note_on_c, 0, 66, 70
2, 34556, Note_off_c, 0, 66, 100
2, 34560, Note_on_c, 0, 67, 70
2, 34748, Note_off_c, 0, 67, 100
2, 34752, Note_on_c, 0, 69, 70
2, 34940, Note_off_c, 0, 69, 100
2, 34944, Note_on_c, 0, 70, 70
2, 35132, Note_off_c, 0, 70, 100
2, 35136, Note_on_c, 0, 71, 70
2, 35324, Note_off_c, 0, 71, 100
2, 35328, Note_on_c, 0, 72, 70
2, 35516, Note_off_c, 0, 72, 100
2, 35520, Note_on_c, 0, 74, 70
2, 35708, Note_off_c, 0, 74, 100
2, 35712, Note_on_c, 0, 67, 70
2, 36092, Note_off_c, 0, 67, 100
2, 36096, Note_on_c, 0, 67, 70
2, 36284, Note_off_c, 0, 67, 100
2, 36288, Note_on_c, 0, 71, 70
2, 36336, Note_on_c, 0, 69, 70
2, 36380, Note_off_c, 0, 71, 100
2, 36476, Note_off_c, 0, 69, 100
2, 36480, Note_on_c, 0, 67, 70
2, 36668, Note_off_c, 0, 67, 100
2, 36672, Note_on_c, 0, 69, 70
2, 36860, Note_off_c, 0, 69, 100
2, 36864, Note_on_c, 0, 71, 70
2, 37244, Note_off_c, 0, 71, 100
2, 37248, Note_on_c, 0, 67, 70
2, 37436, Note_off_c, 0, 67, 100
2, 37440, Note_on_c, 0, 71, 70
2, 37628, Note_off_c, 0, 71, 100
2, 37632, Note_on_c, 0, 72, 70
2, 37820, Note_off_c, 0, 72, 100
2, 37824, Note_on_c, 0, 74, 70
2, 38012, Note_off_c, 0, 74, 100
2, 38016, Note_on_c, 0, 67, 70
2, 38396, Note_off_c, 0, 67, 100
2, 38400, Note_on_c, 0, 67, 70
2, 38588, Note_off_c, 0, 67, 100
2, 38592, Note_on_c, 0, 69, 70
2, 38640, Note_on_c, 0, 67, 70
2, 38684, Note_off_c, 0, 69, 100
2, 38780, Note_off_c, 0, 67, 100
2, 38784, Note_on_c, 0, 66, 70
2, 38972, Note_off_c, 0, 66, 100
2, 38976, Note_on_c, 0, 67, 70
2, 39164, Note_off_c, 0, 67, 100
2, 39168, Note_on_c, 0, 69, 70
2, 39548, Note_off_c, 0, 69, 100
2, 39744, Note_on_c, 0, 71, 70
2, 39932, Note_off_c, 0, 71, 100
2, 39936, Note_on_c, 0, 72, 70
2, 40124, Note_off_c, 0, 72, 100
2, 40128, Note_on_c, 0, 74, 70
2, 40316, Note_off_c, 0, 74, 100
2, 40320, Note_on_c, 0, 67, 70
2, 40700, Note_off_c, 0, 67, 100
2, 40704, Note_on_c, 0, 67, 70
2, 40892, Note_off_c, 0, 67, 100
2, 40896, Note_on_c, 0, 67, 70
2, 41084, Note_off_c, 0, 67, 100
2, 41088, Note_on_c, 0, 69, 70
2, 41276, Note_off_c, 0, 69, 100
2, 41280, Note_on_c, 0, 71, 70
2, 41468, Note_off_c, 0, 71, 100
2, 41472, Note_on_c, 0, 72, 70
2, 41852, Note_off_c, 0, 72, 100
2, 41856, Note_on_c, 0, 76, 70
2, 42044, Note_off_c, 0, 76, 100
2, 42048, Note_on_c, 0, 79, 70
2, 42236, Note_off_c, 0, 79, 100
2, 42240, Note_on_c, 0, 76, 70
2, 42428, Note_off_c, 0, 76, 100
2, 42432, Note_on_c, 0, 72, 70
2, 42620, Note_off_c, 0, 72, 100
2, 42624, Note_on_c, 0, 71, 70
2, 43004, Note_off_c, 0, 71, 100
2, 43008, Note_on_c, 0, 74, 70
2, 43196, Note_off_c, 0, 74, 100
2, 43200, Note_on_c, 0, 72, 70
2, 43388, Note_off_c, 0, 72, 100
2, 43392, Note_on_c, 0, 69, 70
2, 43580, Note_off_c, 0, 69, 100
2, 43584, Note_on_c, 0, 74, 70
2, 43772, Note_off_c, 0, 74, 100
2, 43776, Note_on_c, 0, 67, 70
2, 44156, Note_off_c, 0, 67, 100
2, 44352, Note_on_c, 0, 69, 70
2, 44400, Note_on_c, 0, 67, 70
2, 44444, Note_off_c, 0, 69, 100
2, 44540, Note_off_c, 0, 67, 100
2, 44544, Note_on_c, 0, 66, 70
2, 44732, Note_off_c, 0, 66, 100
2, 44736, Note_on_c, 0, 67, 70
2, 44924, Note_off_c, 0, 67, 100
2, 44928, Note_on_c, 0, 69, 70
2, 45116, Note_off_c, 0, 69, 100
2, 45120, Note_on_c, 0, 71, 70
2, 45308, Note_off_c, 0, 71, 100
2, 45312, Note_on_c, 0, 73, 70
2, 45500, Note_off_c, 0, 73, 100
2, 45504, Note_on_c, 0, 74, 70
2, 45692, Note_off_c, 0, 74, 100
2, 45696, Note_on_c, 0, 76, 70
2, 45884, Note_off_c, 0, 76, 100
2, 45888, Note_on_c, 0, 78, 70
2, 46076, Note_off_c, 0, 78, 100
2, 46080, Note_on_c, 0, 81, 70
2, 46460, Note_off_c, 0, 81, 100
2, 46464, Note_on_c, 0, 79, 70
2, 46652, Note_off_c, 0, 79, 100
2, 46656, Note_on_c, 0, 78, 70
2, 46844, Note_off_c, 0, 78, 100
2, 46848, Note_on_c, 0, 76, 70
2, 47036, Note_off_c, 0, 76, 100
2, 47040, Note_on_c, 0, 74, 70
2, 47228, Note_off_c, 0, 74, 100
2, 47232, Note_on_c, 0, 73, 70
2, 47420, Note_off_c, 0, 73, 100
2, 47424, Note_on_c, 0, 71, 70
2, 47612, Note_off_c, 0, 71, 100
2, 47616, Note_on_c, 0, 69, 70
2, 47804, Note_off_c, 0, 69, 100
2, 47808, Note_on_c, 0, 76, 70
2, 47996, Note_off_c, 0, 76, 100
2, 48000, Note_on_c, 0, 73, 70
2, 48188, Note_off_c, 0, 73, 100
2, 48192, Note_on_c, 0, 67, 70
2, 48380, Note_off_c, 0, 67, 100
2, 48384, Note_on_c, 0, 66, 70
2, 48764, Note_off_c, 0, 66, 100
2, 48768, Note_on_c, 0, 69, 70
2, 48956, Note_off_c, 0, 69, 100
2, 48960, Note_on_c, 0, 74, 70
2, 49148, Note_off_c, 0, 74, 100
2, 49152, Note_on_c, 0, 74, 70
2, 49340, Note_off_c, 0, 74, 100
2, 49344, Note_on_c, 0, 74, 70
2, 49532, Note_off_c, 0, 74, 100
2, 49536, Note_on_c, 0, 71, 70
2, 49916, Note_off_c, 0, 71, 100
2, 49920, Note_on_c, 0, 67, 70
2, 50108, Note_off_c, 0, 67, 100
2, 50112, Note_on_c, 0, 74, 70
2, 50300, Note_off_c, 0, 74, 100
2, 50304, Note_on_c, 0, 74, 70
2, 50492, Note_off_c, 0, 74, 100
2, 50496, Note_on_c, 0, 74, 70
2, 50684, Note_off_c, 0, 74, 100
2, 50688, Note_on_c, 0, 71, 70
2, 51068, Note_off_c, 0, 71, 100
2, 51072, Note_on_c, 0, 67, 70
2, 51260, Note_off_c, 0, 67, 100
2, 51264, Note_on_c, 0, 74, 70
2, 51452, Note_off_c, 0, 74, 100
2, 51456, Note_on_c, 0, 74, 70
2, 51644, Note_off_c, 0, 74, 100
2, 51648, Note_on_c, 0, 74, 70
2, 51836, Note_off_c, 0, 74, 100
2, 51840, Note_on_c, 0, 71, 70
2, 52028, Note_off_c, 0, 71, 100
2, 52032, Note_on_c, 0, 67, 70
2, 52220, Note_off_c, 0, 67, 100
2, 52224, Note_on_c, 0, 64, 70
2, 52412, Note_off_c, 0, 64, 100
2, 52416, Note_on_c, 0, 66, 70
2, 52604, Note_off_c, 0, 66, 100
2, 52608, Note_on_c, 0, 67, 70
2, 52796, Note_off_c, 0, 67, 100
2, 52800, Note_on_c, 0, 64, 70
2, 52988, Note_off_c, 0, 64, 100
2, 52992, Note_on_c, 0, 62, 70
2, 53372, Note_off_c, 0, 62, 100
2, 53568, Note_on_c, 0, 66, 70
2, 53756, Note_off_c, 0, 66, 100
2, 53760, Note_on_c, 0, 64, 70
2, 53948, Note_off_c, 0, 64, 100
2, 53952, Note_on_c, 0, 62, 70
2, 54140, Note_off_c, 0, 62, 100
2, 54144, Note_on_c, 0, 69, 70
2, 54524, Note_off_c, 0, 69, 100
2, 54720, Note_on_c, 0, 69, 70
2, 54908, Note_off_c, 0, 69, 100
2, 54912, Note_on_c, 0, 67, 70
2, 55100, Note_off_c, 0, 67, 100
2, 55104, Note_on_c, 0, 66, 70
2, 55292, Note_off_c, 0, 66, 100
2, 55296, Note_on_c, 0, 72, 70
2, 55676, Note_off_c, 0, 72, 100
2, 55872, Note_on_c, 0, 72, 85
2, 56060, Note_off_c, 0, 72, 100
2, 56064, Note_on_c, 0, 71, 90
2, 56252, Note_off_c, 0, 71, 100
2, 56256, Note_on_c, 0, 69, 95
2, 56444, Note_off_c, 0, 69, 100
2, 56448, Note_on_c, 0, 76, 100
2, 57980, Note_off_c, 0, 76, 100
2, 57984, Note_on_c, 0, 74, 70
2, 58172, Note_off_c, 0, 74, 100
2, 58176, Note_on_c, 0, 72, 70
2, 58364, Note_off_c, 0, 72, 100
2, 58368, Note_on_c, 0, 71, 70
2, 58556, Note_off_c, 0, 71, 100
2, 58560, Note_on_c, 0, 69, 70
2, 58748, Note_off_c, 0, 69, 100
2, 58752, Note_on_c, 0, 67, 70
2, 58940, Note_off_c, 0, 67, 100
2, 58944, Note_on_c, 0, 66, 70
2, 59132, Note_off_c, 0, 66, 100
2, 59136, Note_on_c, 0, 64, 70
2, 59324, Note_off_c, 0, 64, 100
2, 59328, Note_on_c, 0, 62, 70
2, 59516, Note_off_c, 0, 62, 100
2, 59520, Note_on_c, 0, 64, 70
2, 59708, Note_off_c, 0, 64, 100
2, 59712, Note_on_c, 0, 66, 70
2, 59900, Note_off_c, 0, 66, 100
2, 59904, Note_on_c, 0, 67, 70
2, 60092, Note_off_c, 0, 67, 100
2, 60096, Note_on_c, 0, 69, 70
2, 60284, Note_off_c, 0, 69, 100
2, 60288, Note_on_c, 0, 70, 70
2, 60476, Note_off_c, 0, 70, 100
2, 60480, Note_on_c, 0, 71, 70
2, 60668, Note_off_c, 0, 71, 100
2, 60672, Note_on_c, 0, 72, 70
2, 60860, Note_off_c, 0, 72, 100
2, 60864, Note_on_c, 0, 74, 70
2, 61052, Note_off_c, 0, 74, 100
2, 61056, Note_on_c, 0, 67, 70
2, 61436, Note_off_c, 0, 67, 100
2, 61440, Note_on_c, 0, 67, 70
2, 61628, Note_off_c, 0, 67, 100
2, 61632, Note_on_c, 0, 71, 70
2, 61680, Note_on_c, 0, 69, 70
2, 61724, Note_off_c, 0, 71, 100
2, 61820, Note_off_c, 0, 69, 100
2, 61824, Note_on_c, 0, 67, 70
2, 62012, Note_off_c, 0, 67, 100
2, 62016, Note_on_c, 0, 69, 70
2, 62204, Note_off_c, 0, 69, 100
2, 62208, Note_on_c, 0, 71, 70
2, 62588, Note_off_c, 0, 71, 100
2, 62592, Note_on_c, 0, 67, 70
2, 62780, Note_off_c, 0, 67, 100
2, 62784, Note_on_c, 0, 71, 70
2, 62972, Note_off_c, 0, 71, 100
2, 62976, Note_on_c, 0, 72, 70
2, 63164, Note_off_c, 0, 72, 100
2, 63168, Note_on_c, 0, 74, 70
2, 63356, Note_off_c, 0, 74, 100
2, 63360, Note_on_c, 0, 67, 70
2, 63740, Note_off_c, 0, 67, 100
2, 63744, Note_on_c, 0, 67, 70
2, 63932, Note_off_c, 0, 67, 100
2, 63936, Note_on_c, 0, 69, 70
2, 63984, Note_on_c, 0, 67, 70
2, 64028, Note_off_c, 0, 69, 100
2, 64124, Note_off_c, 0, 67, 100
2, 64128, Note_on_c, 0, 66, 70
2, 64316, Note_off_c, 0, 66, 100
2, 64320, Note_on_c, 0, 67, 70
2, 64508, Note_off_c, 0, 67, 100
2, 64512, Note_on_c, 0, 69, 70
2, 64892, Note_off_c, 0, 69, 100
2, 65088, Note_on_c, 0, 71, 70
2, 65276, Note_off_c, 0, 71, 100
2, 65280, Note_on_c, 0, 72, 70
2, 65468, Note_off_c, 0, 72, 100
2, 65472, Note_on_c, 0, 74, 70
2, 65660, Note_off_c, 0, 74, 100
2, 65664, Note_on_c, 0, 67, 70
2, 66044, Note_off_c, 0, 67, 100
2, 66048, Note_on_c, 0, 67, 70
2, 66236, Note_off_c, 0, 67, 100
2, 66240, Note_on_c, 0, 67, 70
2, 66428, Note_off_c, 0, 67, 100
2, 66432, Note_on_c, 0, 69, 70
2, 66620, Note_off_c, 0, 69, 100
2, 66624, Note_on_c, 0, 71, 70
2, 66812, Note_off_c, 0, 71, 100
2, 66816, Note_on_c, 0, 72, 70
2, 67196, Note_off_c, 0, 72, 100
2, 67200, Note_on_c, 0, 76, 70
2, 67388, Note_off_c, 0, 76, 100
2, 67392, Note_on_c, 0, 79, 70
2, 67580, Note_off_c, 0, 79, 100
2, 67584, Note_on_c, 0, 76, 70
2, 67772, Note_off_c, 0, 76, 100
2, 67776, Note_on_c, 0, 72, 70
2, 67964, Note_off_c, 0, 72, 100
2, 67968, Note_on_c, 0, 71, 70
2, 68348, Note_off_c, 0, 71, 100
2, 68352, Note_on_c, 0, 74, 70
2, 68540, Note_off_c, 0, 74, 100
2, 68544, Note_on_c, 0, 72, 70
2, 68732, Note_off_c, 0, 72, 100
2, 68736, Note_on_c, 0, 69, 70
2, 68924, Note_off_c, 0, 69, 100
2, 68928, Note_on_c, 0, 74, 70
2, 69116, Note_off_c, 0, 74, 100
2, 69120, Note_on_c, 0, 67, 70
2, 69500, Note_off_c, 0, 67, 100
2, 69696, Note_on_c, 0, 71, 70
2, 69884, Note_off_c, 0, 71, 100
2, 69888, Note_on_c, 0, 72, 70
2, 70076, Note_off_c, 0, 72, 100
2, 70080, Note_on_c, 0, 74, 70
2, 70268, Note_off_c, 0, 74, 100
2, 70272, Note_on_c, 0, 69, 70
2, 70652, Note_off_c, 0, 69, 100
2, 70656, Note_on_c, 0, 69, 70
2, 70748, Note_off_c, 0, 69, 100
2, 70752, Note_on_c, 0, 69, 70
2, 70800, Note_on_c, 0, 71, 70
2, 70844, Note_off_c, 0, 69, 100
2, 70848, Note_on_c, 0, 72, 70
2, 70892, Note_off_c, 0, 71, 100
2, 71132, Note_off_c, 0, 72, 100
2, 71136, Note_on_c, 0, 71, 70
2, 71228, Note_off_c, 0, 71, 100
2, 71232, Note_on_c, 0, 69, 70
2, 71420, Note_off_c, 0, 69, 100
2, 71424, Note_on_c, 0, 67, 70
2, 71804, Note_off_c, 0, 67, 100
2, 71808, Note_on_c, 0, 67, 70
2, 71996, Note_off_c, 0, 67, 100
2, 72000, Note_on_c, 0, 69, 70
2, 72048, Note_on_c, 0, 67, 70
2, 72092, Note_off_c, 0, 69, 100
2, 72188, Note_off_c, 0, 67, 100
2, 72192, Note_on_c, 0, 66, 70
2, 72380, Note_off_c, 0, 66, 100
2, 72384, Note_on_c, 0, 67, 70
2, 72572, Note_off_c, 0, 67, 100
2, 72576, Note_on_c, 0, 64, 70
2, 72764, Note_off_c, 0, 64, 100
2, 72768, Note_on_c, 0, 66, 70
2, 72956, Note_off_c, 0, 66, 100
2, 72960, Note_on_c, 0, 67, 70
2, 73148, Note_off_c, 0, 67, 100
2, 73152, Note_on_c, 0, 69, 70
2, 73340, Note_off_c, 0, 69, 100
2, 73344, Note_on_c, 0, 71, 70
2, 73532, Note_off_c, 0, 71, 100
2, 73536, Note_on_c, 0, 69, 70
2, 73724, Note_off_c, 0, 69, 100
2, 73728, Note_on_c, 0, 69, 70
2, 74108, Note_off_c, 0, 69, 100
2, 74112, Note_on_c, 0, 62, 70
2, 74300, Note_off_c, 0, 62, 100
2, 74304, Note_on_c, 0, 71, 70
2, 74492, Note_off_c, 0, 71, 100
2, 74496, Note_on_c, 0, 72, 70
2, 74684, Note_off_c, 0, 72, 100
2, 74688, Note_on_c, 0, 74, 70
2, 74876, Note_off_c, 0, 74, 100
2, 74880, Note_on_c, 0, 69, 70
2, 75260, Note_off_c, 0, 69, 100
2, 75264, Note_on_c, 0, 69, 70
2, 75356, Note_off_c, 0, 69, 100
2, 75360, Note_on_c, 0, 69, 70
2, 75408, Note_on_c, 0, 71, 70
2, 75452, Note_off_c, 0, 69, 100
2, 75456, Note_on_c, 0, 72, 70
2, 75500, Note_off_c, 0, 71, 100
2, 75644, Note_off_c, 0, 72, 100
2, 75648, Note_on_c, 0, 71, 70
2, 75836, Note_off_c, 0, 71, 100
2, 75840, Note_on_c, 0, 69, 70
2, 76028, Note_off_c, 0, 69, 100
2, 76032, Note_on_c, 0, 67, 70
2, 76604, Note_off_c, 0, 67, 100
2, 76608, Note_on_c, 0, 79, 70
2, 76988, Note_off_c, 0, 79, 100
2, 76992, Note_on_c, 0, 76, 70
2, 77180, Note_off_c, 0, 76, 100
2, 77184, Note_on_c, 0, 74, 70
2, 77564, Note_off_c, 0, 74, 100
2, 77568, Note_on_c, 0, 71, 70
2, 77756, Note_off_c, 0, 71, 100
2, 77760, Note_on_c, 0, 69, 70
2, 78140, Note_off_c, 0, 69, 100
2, 78144, Note_on_c, 0, 74, 70
2, 78332, Note_off_c, 0, 74, 100
2, 78336, Note_on_c, 0, 71, 70
2, 78908, Note_off_c, 0, 71, 100
2, 78912, Note_on_c, 0, 79, 70
2, 79292, Note_off_c, 0, 79, 100
2, 79296, Note_on_c, 0, 76, 70
2, 79484, Note_off_c, 0, 76, 100
2, 79488, Note_on_c, 0, 74, 70
2, 79868, Note_off_c, 0, 74, 100
2, 79872, Note_on_c, 0, 71, 70
2, 80060, Note_off_c, 0, 71, 100
2, 80064, Note_on_c, 0, 72, 70
2, 80252, Note_off_c, 0, 72, 100
2, 80256, Note_on_c, 0, 69, 70
2, 80444, Note_off_c, 0, 69, 100
2, 80448, Note_on_c, 0, 74, 70
2, 80636, Note_off_c, 0, 74, 100
2, 80640, Note_on_c, 0, 67, 70
2, 81020, Note_off_c, 0, 67, 100
2, 81216, Note_on_c, 0, 71, 70
2, 81216, Note_on_c, 0, 79, 70
2, 81596, Note_off_c, 0, 71, 100
2, 81596, Note_off_c, 0, 79, 100
2, 81792, Note_on_c, 0, 59, 70
2, 81792, Note_on_c, 0, 67, 70
2, 82364, Note_off_c, 0, 59, 100
2, 82364, Note_off_c, 0, 67, 100
2, 84096, Control_c, 0, 11, 0
2, 84288, Note_on_c, 0, 67, 1
2, 84380, Note_off_c, 0, 67, 100
2, 84380, End_track
3, 0, Start_track
3, 0, Title_t, "Piano Left"
3, 0, Control_c, 1, 0, 0
3, 0, Program_c, 1, 0
3, 0, Control_c, 1, 7, 100
3, 0, Control_c, 1, 10, 57
3, 0, Control_c, 1, 91, 127
3, 0, Key_signature, 1, "major"
3, 1152, Note_on_c, 1, 55, 70
3, 1340, Note_off_c, 1, 55, 100
3, 1344, Note_on_c, 1, 62, 70
3, 1344, Note_on_c, 1, 59, 70
3, 1532, Note_off_c, 1, 62, 100
3, 1532, Note_off_c, 1, 59, 100
3, 1536, Note_on_c, 1, 62, 70
3, 1536, Note_on_c, 1, 59, 70
3, 1724, Note_off_c, 1, 62, 100
3, 1724, Note_off_c, 1, 59, 100
3, 1728, Note_on_c, 1, 54, 70
3, 1916, Note_off_c, 1, 54, 100
3, 1920, Note_on_c, 1, 62, 70
3, 1920, Note_on_c, 1, 60, 70
3, 2108, Note_off_c, 1, 62, 100
3, 2108, Note_off_c, 1, 60, 100
3, 2112, Note_on_c, 1, 62, 70
3, 2112, Note_on_c, 1, 60, 70
3, 2300, Note_off_c, 1, 62, 100
3, 2300, Note_off_c, 1, 60, 100
3, 2304, Note_on_c, 1, 55, 70
3, 2492, Note_off_c, 1, 55, 100
3, 2496, Note_on_c, 1, 62, 70
3, 2496, Note_on_c, 1, 59, 70
3, 2684, Note_off_c, 1, 62, 100
3, 2684, Note_off_c, 1, 59, 100
3, 2688, Note_on_c, 1, 62, 70
3, 2688, Note_on_c, 1, 59, 70
3, 2876, Note_off_c, 1, 62, 100
3, 2876, Note_off_c, 1, 59, 100
3, 3456, Note_on_c, 1, 52, 70
3, 3648, Note_on_c, 1, 59, 70
3, 3648, Note_on_c, 1, 55, 70
3, 3836, Note_off_c, 1, 59, 100
3, 3836, Note_off_c, 1, 55, 100
3, 3840, Note_on_c, 1, 59, 70
3, 3840, Note_on_c, 1, 55, 70
3, 4028, Note_off_c, 1, 52, 100
3, 4028, Note_off_c, 1, 59, 100
3, 4028, Note_off_c, 1, 55, 100
3, 4032, Note_on_c, 1, 52, 70
3, 4224, Note_on_c, 1, 61, 70
3, 4224, Note_on_c, 1, 55, 70
3, 4412, Note_off_c, 1, 61, 100
3, 4412, Note_off_c, 1, 55, 100
3, 4416, Note_on_c, 1, 61, 70
3, 4416, Note_on_c, 1, 55, 70
3, 4604, Note_off_c, 1, 52, 100
3, 4604, Note_off_c, 1, 61, 100
3, 4604, Note_off_c, 1, 55, 100
3, 4608, Note_on_c, 1, 50, 70
3, 4800, Note_on_c, 1, 62, 70
3, 4800, Note_on_c, 1, 54, 70
3, 4988, Note_off_c, 1, 62, 100
3, 4988, Note_off_c, 1, 54, 100
3, 4992, Note_on_c, 1, 62, 70
3, 4992, Note_on_c, 1, 54, 70
3, 5180, Note_off_c, 1, 50, 100
3, 5180, Note_off_c, 1, 62, 100
3, 5180, Note_off_c, 1, 54, 100
3, 5760, Note_on_c, 1, 55, 70
3, 5948, Note_off_c, 1, 55, 100
3, 5952, Note_on_c, 1, 59, 70
3, 6140, Note_off_c, 1, 59, 100
3, 6144, Note_on_c, 1, 62, 70
3, 6332, Note_off_c, 1, 62, 100
3, 6336, Note_on_c, 1, 55, 70
3, 6524, Note_off_c, 1, 55, 100
3, 6528, Note_on_c, 1, 62, 70
3, 6716, Note_off_c, 1, 62, 100
3, 6720, Note_on_c, 1, 66, 70
3, 6908, Note_off_c, 1, 66, 100
3, 6912, Note_on_c, 1, 64, 70
3, 6912, Note_on_c, 1, 60, 70
3, 7292, Note_off_c, 1, 64, 100
3, 7292, Note_off_c, 1, 60, 100
3, 8064, Note_on_c, 1, 50, 70
3, 8252, Note_off_c, 1, 50, 100
3, 8256, Note_on_c, 1, 55, 70
3, 8444, Note_off_c, 1, 55, 100
3, 8448, Note_on_c, 1, 59, 70
3, 8636, Note_off_c, 1, 59, 100
3, 8640, Note_on_c, 1, 50, 70
3, 8828, Note_off_c, 1, 50, 100
3, 8832, Note_on_c, 1, 54, 70
3, 9020, Note_off_c, 1, 54, 100
3, 9024, Note_on_c, 1, 60, 70
3, 9212, Note_off_c, 1, 60, 100
3, 9216, Note_on_c, 1, 55, 70
3, 9216, Note_on_c, 1, 59, 70
3, 9596, Note_off_c, 1, 55, 100
3, 9596, Note_off_c, 1, 59, 100
3, 10368, Note_on_c, 1, 55, 70
3, 10556, Note_off_c, 1, 55, 100
3, 10560, Note_on_c, 1, 62, 70
3, 10560, Note_on_c, 1, 59, 70
3, 10748, Note_off_c, 1, 62, 100
3, 10748, Note_off_c, 1, 59, 100
3, 10752, Note_on_c, 1, 62, 70
3, 10752, Note_on_c, 1, 59, 70
3, 10940, Note_off_c, 1, 62, 100
3, 10940, Note_off_c, 1, 59, 100
3, 10944, Note_on_c, 1, 54, 70
3, 11132, Note_off_c, 1, 54, 100
3, 11136, Note_on_c, 1, 62, 70
3, 11136, Note_on_c, 1, 60, 70
3, 11324, Note_off_c, 1, 62, 100
3, 11324, Note_off_c, 1, 60, 100
3, 11328, Note_on_c, 1, 62, 70
3, 11328, Note_on_c, 1, 60, 70
3, 11516, Note_off_c, 1, 62, 100
3, 11516, Note_off_c, 1, 60, 100
3, 11520, Note_on_c, 1, 55, 70
3, 11708, Note_off_c, 1, 55, 100
3, 11712, Note_on_c, 1, 62, 70
3, 11712, Note_on_c, 1, 59, 70
3, 11900, Note_off_c, 1, 62, 100
3, 11900, Note_off_c, 1, 59, 100
3, 11904, Note_on_c, 1, 62, 70
3, 11904, Note_on_c, 1, 59, 70
3, 12092, Note_off_c, 1, 62, 100
3, 12092, Note_off_c, 1, 59, 100
3, 12672, Note_on_c, 1, 52, 70
3, 12864, Note_on_c, 1, 59, 70
3, 12864, Note_on_c, 1, 55, 70
3, 13052, Note_off_c, 1, 59, 100
3, 13052, Note_off_c, 1, 55, 100
3, 13056, Note_on_c, 1, 59, 70
3, 13056, Note_on_c, 1, 55, 70
3, 13244, Note_off_c, 1, 52, 100
3, 13244, Note_off_c, 1, 59, 100
3, 13244, Note_off_c, 1, 55, 100
3, 13248, Note_on_c, 1, 52, 70
3, 13440, Note_on_c, 1, 61, 70
3, 13440, Note_on_c, 1, 55, 70
3, 13628, Note_off_c, 1, 61, 100
3, 13628, Note_off_c, 1, 55, 100
3, 13632, Note_on_c, 1, 61, 70
3, 13632, Note_on_c, 1, 55, 70
3, 13820, Note_off_c, 1, 52, 100
3, 13820, Note_off_c, 1, 61, 100
3, 13820, Note_off_c, 1, 55, 100
3, 13824, Note_on_c, 1, 50, 70
3, 14016, Note_on_c, 1, 62, 70
3, 14016, Note_on_c, 1, 54, 70
3, 14204, Note_off_c, 1, 62, 100
3, 14204, Note_off_c, 1, 54, 100
3, 14208, Note_on_c, 1, 62, 70
3, 14208, Note_on_c, 1, 54, 70
3, 14396, Note_off_c, 1, 50, 100
3, 14396, Note_off_c, 1, 62, 100
3, 14396, Note_off_c, 1, 54, 100
3, 14976, Note_on_c, 1, 55, 70
3, 15164, Note_off_c, 1, 55, 100
3, 15168, Note_on_c, 1, 59, 70
3, 15356, Note_off_c, 1, 59, 100
3, 15360, Note_on_c, 1, 62, 70
3, 15548, Note_off_c, 1, 62, 100
3, 15552, Note_on_c, 1, 55, 70
3, 15740, Note_off_c, 1, 55, 100
3, 15744, Note_on_c, 1, 62, 70
3, 15932, Note_off_c, 1, 62, 100
3, 15936, Note_on_c, 1, 66, 70
3, 16124, Note_off_c, 1, 66, 100
3, 16128, Note_on_c, 1, 64, 70
3, 16128, Note_on_c, 1, 60, 70
3, 16508, Note_off_c, 1, 64, 100
3, 16508, Note_off_c, 1, 60, 100
3, 17280, Note_on_c, 1, 50, 70
3, 17468, Note_off_c, 1, 50, 100
3, 17472, Note_on_c, 1, 55, 70
3, 17660, Note_off_c, 1, 55, 100
3, 17664, Note_on_c, 1, 59, 70
3, 17852, Note_off_c, 1, 59, 100
3, 17856, Note_on_c, 1, 50, 70
3, 18044, Note_off_c, 1, 50, 100
3, 18048, Note_on_c, 1, 54, 70
3, 18236, Note_off_c, 1, 54, 100
3, 18240, Note_on_c, 1, 60, 70
3, 18428, Note_off_c, 1, 60, 100
3, 18432, Note_on_c, 1, 55, 70
3, 18432, Note_on_c, 1, 59, 70
3, 18812, Note_off_c, 1, 55, 100
3, 18812, Note_off_c, 1, 59, 100
3, 19584, Note_on_c, 1, 54, 70
3, 19584, Note_on_c, 1, 57, 70
3, 20732, Note_off_c, 1, 54, 100
3, 20732, Note_off_c, 1, 57, 100
3, 20736, Note_on_c, 1, 52, 70
3, 20736, Note_on_c, 1, 59, 70
3, 21884, Note_off_c, 1, 52, 100
3, 21884, Note_off_c, 1, 59, 100
3, 21888, Note_on_c, 1, 57, 70
3, 21888, Note_on_c, 1, 61, 70
3, 23036, Note_off_c, 1, 57, 100
3, 23036, Note_off_c, 1, 61, 100
3, 23040, Note_on_c, 1, 50, 70
3, 23040, Note_on_c, 1, 62, 70
3, 23420, Note_off_c, 1, 50, 100
3, 23420, Note_off_c, 1, 62, 100
3, 23616, Note_on_c, 1, 50, 70
3, 23804, Note_off_c, 1, 50, 100
3, 23808, Note_on_c, 1, 52, 70
3, 23996, Note_off_c, 1, 52, 100
3, 24000, Note_on_c, 1, 54, 70
3, 24188, Note_off_c, 1, 54, 100
3, 24192, Note_on_c, 1, 55, 70
3, 24380, Note_off_c, 1, 55, 100
3, 24384, Note_on_c, 1, 57, 70
3, 24572, Note_off_c, 1, 57, 100
3, 24576, Note_on_c, 1, 59, 70
3, 24764, Note_off_c, 1, 59, 100
3, 24768, Note_on_c, 1, 50, 70
3, 24956, Note_off_c, 1, 50, 100
3, 24960, Note_on_c, 1, 52, 70
3, 25148, Note_off_c, 1, 52, 100
3, 25152, Note_on_c, 1, 54, 70
3, 25340, Note_off_c, 1, 54, 100
3, 25344, Note_on_c, 1, 55, 70
3, 25532, Note_off_c, 1, 55, 100
3, 25536, Note_on_c, 1, 57, 70
3, 25724, Note_off_c, 1, 57, 100
3, 25728, Note_on_c, 1, 59, 70
3, 25916, Note_off_c, 1, 59, 100
3, 25920, Note_on_c, 1, 50, 70
3, 26108, Note_off_c, 1, 50, 100
3, 26112, Note_on_c, 1, 52, 70
3, 26300, Note_off_c, 1, 52, 100
3, 26304, Note_on_c, 1, 54, 70
3, 26492, Note_off_c, 1, 54, 100
3, 26496, Note_on_c, 1, 55, 70
3, 26876, Note_off_c, 1, 55, 100
3, 27072, Note_on_c, 1, 57, 70
3, 27452, Note_off_c, 1, 57, 100
3, 27648, Note_on_c, 1, 50, 70
3, 28028, Note_off_c, 1, 50, 100
3, 28800, Note_on_c, 1, 50, 70
3, 28848, Note_on_c, 1, 54, 70
3, 28896, Note_on_c, 1, 57, 70
3, 28944, Note_on_c, 1, 60, 70
3, 29372, Note_off_c, 1, 50, 100
3, 29372, Note_off_c, 1, 54, 100
3, 29372, Note_off_c, 1, 57, 100
3, 29372, Note_off_c, 1, 60, 100
3, 29952, Note_on_c, 1, 50, 70
3, 30000, Note_on_c, 1, 54, 71
3, 30048, Note_on_c, 1, 57, 72
3, 30096, Note_on_c, 1, 60, 73
3, 30524, Note_off_c, 1, 50, 100
3, 30524, Note_off_c, 1, 54, 100
3, 30524, Note_off_c, 1, 57, 100
3, 30524, Note_off_c, 1, 60, 100
3, 31104, Note_on_c, 1, 50, 100
3, 31152, Note_on_c, 1, 54, 70
3, 31200, Note_on_c, 1, 57, 70
3, 31248, Note_on_c, 1, 60, 70
3, 32828, Note_off_c, 1, 50, 100
3, 32828, Note_off_c, 1, 54, 100
3, 32828, Note_off_c, 1, 57, 100
3, 32828, Note_off_c, 1, 60, 100
3, 35712, Note_on_c, 1, 55, 70
3, 35900, Note_off_c, 1, 55, 100
3, 35904, Note_on_c, 1, 62, 70
3, 35904, Note_on_c, 1, 59, 70
3, 36092, Note_off_c, 1, 62, 100
3, 36092, Note_off_c, 1, 59, 100
3, 36096, Note_on_c, 1, 62, 70
3, 36096, Note_on_c, 1, 59, 70
3, 36284, Note_off_c, 1, 62, 100
3, 36284, Note_off_c, 1, 59, 100
3, 36288, Note_on_c, 1, 54, 70
3, 36476, Note_off_c, 1, 54, 100
3, 36480, Note_on_c, 1, 62, 70
3, 36480, Note_on_c, 1, 60, 70
3, 36668, Note_off_c, 1, 62, 100
3, 36668, Note_off_c, 1, 60, 100
3, 36672, Note_on_c, 1, 62, 70
3, 36672, Note_on_c, 1, 60, 70
3, 36860, Note_off_c, 1, 62, 100
3, 36860, Note_off_c, 1, 60, 100
3, 36864, Note_on_c, 1, 55, 70
3, 37052, Note_off_c, 1, 55, 100
3, 37056, Note_on_c, 1, 62, 70
3, 37056, Note_on_c, 1, 59, 70
3, 37244, Note_off_c, 1, 62, 100
3, 37244, Note_off_c, 1, 59, 100
3, 37248, Note_on_c, 1, 62, 70
3, 37248, Note_on_c, 1, 59, 70
3, 37436, Note_off_c, 1, 62, 100
3, 37436, Note_off_c, 1, 59, 100
3, 38016, Note_on_c, 1, 52, 70
3, 38208, Note_on_c, 1, 59, 70
3, 38208, Note_on_c, 1, 55, 70
3, 38396, Note_off_c, 1, 59, 100
3, 38396, Note_off_c, 1, 55, 100
3, 38400, Note_on_c, 1, 59, 70
3, 38400, Note_on_c, 1, 55, 70
3, 38588, Note_off_c, 1, 52, 100
3, 38588, Note_off_c, 1, 59, 100
3, 38588, Note_off_c, 1, 55, 100
3, 38592, Note_on_c, 1, 52, 70
3, 38784, Note_on_c, 1, 61, 70
3, 38784, Note_on_c, 1, 55, 70
3, 38972, Note_off_c, 1, 61, 100
3, 38972, Note_off_c, 1, 55, 100
3, 38976, Note_on_c, 1, 61, 70
3, 38976, Note_on_c, 1, 55, 70
3, 39164, Note_off_c, 1, 52, 100
3, 39164, Note_off_c, 1, 61, 100
3, 39164, Note_off_c, 1, 55, 100
3, 39168, Note_on_c, 1, 50, 70
3, 39360, Note_on_c, 1, 62, 70
3, 39360, Note_on_c, 1, 54, 70
3, 39548, Note_off_c, 1, 62, 100
3, 39548, Note_off_c, 1, 54, 100
3, 39552, Note_on_c, 1, 62, 70
3, 39552, Note_on_c, 1, 54, 70
3, 39740, Note_off_c, 1, 50, 100
3, 39740, Note_off_c, 1, 62, 100
3, 39740, Note_off_c, 1, 54, 100
3, 40320, Note_on_c, 1, 55, 70
3, 40508, Note_off_c, 1, 55, 100
3, 40512, Note_on_c, 1, 59, 70
3, 40700, Note_off_c, 1, 59, 100
3, 40704, Note_on_c, 1, 62, 70
3, 40892, Note_off_c, 1, 62, 100
3, 40896, Note_on_c, 1, 55, 70
3, 41084, Note_off_c, 1, 55, 100
3, 41088, Note_on_c, 1, 62, 70
3, 41276, Note_off_c, 1, 62, 100
3, 41280, Note_on_c, 1, 66, 70
3, 41468, Note_off_c, 1, 66, 100
3, 41472, Note_on_c, 1, 64, 70
3, 41472, Note_on_c, 1, 60, 70
3, 41852, Note_off_c, 1, 64, 100
3, 41852, Note_off_c, 1, 60, 100
3, 42624, Note_on_c, 1, 50, 70
3, 42812, Note_off_c, 1, 50, 100
3, 42816, Note_on_c, 1, 55, 70
3, 43004, Note_off_c, 1, 55, 100
3, 43008, Note_on_c, 1, 59, 70
3, 43196, Note_off_c, 1, 59, 100
3, 43200, Note_on_c, 1, 50, 70
3, 43388, Note_off_c, 1, 50, 100
3, 43392, Note_on_c, 1, 54, 70
3, 43580, Note_off_c, 1, 54, 100
3, 43584, Note_on_c, 1, 60, 70
3, 43772, Note_off_c, 1, 60, 100
3, 43776, Note_on_c, 1, 55, 70
3, 43776, Note_on_c, 1, 59, 70
3, 44156, Note_off_c, 1, 55, 100
3, 44156, Note_off_c, 1, 59, 100
3, 44928, Note_on_c, 1, 54, 70
3, 44928, Note_on_c, 1, 57, 70
3, 46076, Note_off_c, 1, 54, 100
3, 46076, Note_off_c, 1, 57, 100
3, 46080, Note_on_c, 1, 52, 70
3, 46080, Note_on_c, 1, 59, 70
3, 47228, Note_off_c, 1, 52, 100
3, 47228, Note_off_c, 1, 59, 100
3, 47232, Note_on_c, 1, 57, 70
3, 47232, Note_on_c, 1, 61, 70
3, 48380, Note_off_c, 1, 57, 100
3, 48380, Note_off_c, 1, 61, 100
3, 48384, Note_on_c, 1, 50, 70
3, 48384, Note_on_c, 1, 62, 70
3, 48764, Note_off_c, 1, 50, 100
3, 48764, Note_off_c, 1, 62, 100
3, 48960, Note_on_c, 1, 50, 70
3, 49148, Note_off_c, 1, 50, 100
3, 49152, Note_on_c, 1, 52, 70
3, 49340, Note_off_c, 1, 52, 100
3, 49344, Note_on_c, 1, 54, 70
3, 49532, Note_off_c, 1, 54, 100
3, 49536, Note_on_c, 1, 55, 70
3, 49724, Note_off_c, 1, 55, 100
3, 49728, Note_on_c, 1, 57, 70
3, 49916, Note_off_c, 1, 57, 100
3, 49920, Note_on_c, 1, 59, 70
3, 50108, Note_off_c, 1, 59, 100
3, 50112, Note_on_c, 1, 50, 70
3, 50300, Note_off_c, 1, 50, 100
3, 50304, Note_on_c, 1, 52, 70
3, 50492, Note_off_c, 1, 52, 100
3, 50496, Note_on_c, 1, 54, 70
3, 50684, Note_off_c, 1, 54, 100
3, 50688, Note_on_c, 1, 55, 70
3, 50876, Note_off_c, 1, 55, 100
3, 50880, Note_on_c, 1, 57, 70
3, 51068, Note_off_c, 1, 57, 100
3, 51072, Note_on_c, 1, 59, 70
3, 51260, Note_off_c, 1, 59, 100
3, 51264, Note_on_c, 1, 50, 70
3, 51452, Note_off_c, 1, 50, 100
3, 51456, Note_on_c, 1, 52, 70
3, 51644, Note_off_c, 1, 52, 100
3, 51648, Note_on_c, 1, 54, 70
3, 51836, Note_off_c, 1, 54, 100
3, 51840, Note_on_c, 1, 55, 70
3, 52220, Note_off_c, 1, 55, 100
3, 52416, Note_on_c, 1, 57, 70
3, 52796, Note_off_c, 1, 57, 100
3, 52992, Note_on_c, 1, 50, 70
3, 53372, Note_off_c, 1, 50, 100
3, 54144, Note_on_c, 1, 50, 70
3, 54192, Note_on_c, 1, 54, 70
3, 54240, Note_on_c, 1, 57, 70
3, 54288, Note_on_c, 1, 60, 70
3, 54716, Note_off_c, 1, 50, 100
3, 54716, Note_off_c, 1, 54, 100
3, 54716, Note_off_c, 1, 57, 100
3, 54716, Note_off_c, 1, 60, 100
3, 55296, Note_on_c, 1, 50, 70
3, 55344, Note_on_c, 1, 54, 71
3, 55392, Note_on_c, 1, 57, 72
3, 55440, Note_on_c, 1, 60, 73
3, 55868, Note_off_c, 1, 50, 100
3, 55868, Note_off_c, 1, 54, 100
3, 55868, Note_off_c, 1, 57, 100
3, 55868, Note_off_c, 1, 60, 100
3, 56448, Note_on_c, 1, 50, 100
3, 56496, Note_on_c, 1, 54, 86
3, 56544, Note_on_c, 1, 57, 86
3, 56592, Note_on_c, 1, 60, 87
3, 58172, Note_off_c, 1, 50, 100
3, 58172, Note_off_c, 1, 54, 100
3, 58172, Note_off_c, 1, 57, 100
3, 58172, Note_off_c, 1, 60, 100
3, 61056, Note_on_c, 1, 55, 70
3, 61244, Note_off_c, 1, 55, 100
3, 61248, Note_on_c, 1, 62, 70
3, 61248, Note_on_c, 1, 59, 70
3, 61436, Note_off_c, 1, 62, 100
3, 61436, Note_off_c, 1, 59, 100
3, 61440, Note_on_c, 1, 62, 70
3, 61440, Note_on_c, 1, 59, 70
3, 61628, Note_off_c, 1, 62, 100
3, 61628, Note_off_c, 1, 59, 100
3, 61632, Note_on_c, 1, 54, 70
3, 61820, Note_off_c, 1, 54, 100
3, 61824, Note_on_c, 1, 62, 70
3, 61824, Note_on_c, 1, 60, 70
3, 62012, Note_off_c, 1, 62, 100
3, 62012, Note_off_c, 1, 60, 100
3, 62016, Note_on_c, 1, 62, 70
3, 62016, Note_on_c, 1, 60, 70
3, 62204, Note_off_c, 1, 62, 100
3, 62204, Note_off_c, 1, 60, 100
3, 62208, Note_on_c, 1, 55, 70
3, 62396, Note_off_c, 1, 55, 100
3, 62400, Note_on_c, 1, 62, 70
3, 62400, Note_on_c, 1, 59, 70
3, 62588, Note_off_c, 1, 62, 100
3, 62588, Note_off_c, 1, 59, 100
3, 62592, Note_on_c, 1, 62, 70
3, 62592, Note_on_c, 1, 59, 70
3, 62780, Note_off_c, 1, 62, 100
3, 62780, Note_off_c, 1, 59, 100
3, 63360, Note_on_c, 1, 52, 70
3, 63552, Note_on_c, 1, 59, 70
3, 63552, Note_on_c, 1, 55, 70
3, 63740, Note_off_c, 1, 59, 100
3, 63740, Note_off_c, 1, 55, 100
3, 63744, Note_on_c, 1, 59, 70
3, 63744, Note_on_c, 1, 55, 70
3, 63932, Note_off_c, 1, 52, 100
3, 63932, Note_off_c, 1, 59, 100
3, 63932, Note_off_c, 1, 55, 100
3, 63936, Note_on_c, 1, 52, 70
3, 64128, Note_on_c, 1, 61, 70
3, 64128, Note_on_c, 1, 55, 70
3, 64316, Note_off_c, 1, 61, 100
3, 64316, Note_off_c, 1, 55, 100
3, 64320, Note_on_c, 1, 61, 70
3, 64320, Note_on_c, 1, 55, 70
3, 64508, Note_off_c, 1, 52, 100
3, 64508, Note_off_c, 1, 61, 100
3, 64508, Note_off_c, 1, 55, 100
3, 64512, Note_on_c, 1, 50, 70
3, 64704, Note_on_c, 1, 62, 70
3, 64704, Note_on_c, 1, 54, 70
3, 64892, Note_off_c, 1, 62, 100
3, 64892, Note_off_c, 1, 54, 100
3, 64896, Note_on_c, 1, 62, 70
3, 64896, Note_on_c, 1, 54, 70
3, 65084, Note_off_c, 1, 50, 100
3, 65084, Note_off_c, 1, 62, 100
3, 65084, Note_off_c, 1, 54, 100
3, 65664, Note_on_c, 1, 55, 70
3, 65852, Note_off_c, 1, 55, 100
3, 65856, Note_on_c, 1, 59, 70
3, 66044, Note_off_c, 1, 59, 100
3, 66048, Note_on_c, 1, 62, 70
3, 66236, Note_off_c, 1, 62, 100
3, 66240, Note_on_c, 1, 55, 70
3, 66428, Note_off_c, 1, 55, 100
3, 66432, Note_on_c, 1, 62, 70
3, 66620, Note_off_c, 1, 62, 100
3, 66624, Note_on_c, 1, 66, 70
3, 66812, Note_off_c, 1, 66, 100
3, 66816, Note_on_c, 1, 64, 70
3, 66816, Note_on_c, 1, 60, 70
3, 67196, Note_off_c, 1, 64, 100
3, 67196, Note_off_c, 1, 60, 100
3, 67968, Note_on_c, 1, 50, 70
3, 68156, Note_off_c, 1, 50, 100
3, 68160, Note_on_c, 1, 55, 70
3, 68348, Note_off_c, 1, 55, 100
3, 68352, Note_on_c, 1, 59, 70
3, 68540, Note_off_c, 1, 59, 100
3, 68544, Note_on_c, 1, 50, 70
3, 68732, Note_off_c, 1, 50, 100
3, 68736, Note_on_c, 1, 54, 70
3, 68924, Note_off_c, 1, 54, 100
3, 68928, Note_on_c, 1, 60, 70
3, 69116, Note_off_c, 1, 60, 100
3, 69120, Note_on_c, 1, 55, 70
3, 69120, Note_on_c, 1, 59, 70
3, 69500, Note_off_c, 1, 55, 100
3, 69500, Note_off_c, 1, 59, 100
3, 70272, Note_on_c, 1, 50, 70
3, 70272, Note_on_c, 1, 54, 70
3, 70272, Note_on_c, 1, 60, 70
3, 71420, Note_off_c, 1, 50, 100
3, 71420, Note_off_c, 1, 54, 100
3, 71420, Note_off_c, 1, 60, 100
3, 71424, Note_on_c, 1, 52, 70
3, 71424, Note_on_c, 1, 55, 70
3, 71424, Note_on_c, 1, 59, 70
3, 71804, Note_off_c, 1, 52, 100
3, 71804, Note_off_c, 1, 55, 100
3, 71804, Note_off_c, 1, 59, 100
3, 72576, Note_on_c, 1, 48, 70
3, 73148, Note_off_c, 1, 48, 100
3, 73152, Note_on_c, 1, 55, 70
3, 73152, Note_on_c, 1, 49, 70
3, 73724, Note_off_c, 1, 55, 100
3, 73724, Note_off_c, 1, 49, 100
3, 73728, Note_on_c, 1, 50, 70
3, 73728, Note_on_c, 1, 54, 70
3, 74108, Note_off_c, 1, 50, 100
3, 74108, Note_off_c, 1, 54, 100
3, 74880, Note_on_c, 1, 50, 70
3, 75068, Note_off_c, 1, 50, 100
3, 75072, Note_on_c, 1, 54, 70
3, 75260, Note_off_c, 1, 54, 100
3, 75264, Note_on_c, 1, 60, 70
3, 75452, Note_off_c, 1, 60, 100
3, 75456, Note_on_c, 1, 50, 70
3, 75644, Note_off_c, 1, 50, 100
3, 75648, Note_on_c, 1, 54, 70
3, 75836, Note_off_c, 1, 54, 100
3, 75840, Note_on_c, 1, 60, 70
3, 76028, Note_off_c, 1, 60, 100
3, 76032, Note_on_c, 1, 52, 70
3, 76220, Note_off_c, 1, 52, 100
3, 76224, Note_on_c, 1, 55, 70
3, 76412, Note_off_c, 1, 55, 100
3, 76416, Note_on_c, 1, 59, 70
3, 76604, Note_off_c, 1, 59, 100
3, 76608, Note_on_c, 1, 48, 70
3, 76796, Note_off_c, 1, 48, 100
3, 76800, Note_on_c, 1, 52, 70
3, 76988, Note_off_c, 1, 52, 100
3, 76992, Note_on_c, 1, 55, 70
3, 77180, Note_off_c, 1, 55, 100
3, 77184, Note_on_c, 1, 50, 70
3, 77372, Note_off_c, 1, 50, 100
3, 77376, Note_on_c, 1, 55, 70
3, 77564, Note_off_c, 1, 55, 100
3, 77568, Note_on_c, 1, 59, 70
3, 77756, Note_off_c, 1, 59, 100
3, 77760, Note_on_c, 1, 50, 70
3, 77948, Note_off_c, 1, 50, 100
3, 77952, Note_on_c, 1, 54, 70
3, 78140, Note_off_c, 1, 54, 100
3, 78144, Note_on_c, 1, 60, 70
3, 78332, Note_off_c, 1, 60, 100
3, 78336, Note_on_c, 1, 55, 70
3, 78524, Note_off_c, 1, 55, 100
3, 78528, Note_on_c, 1, 59, 70
3, 78716, Note_off_c, 1, 59, 100
3, 78720, Note_on_c, 1, 62, 70
3, 78908, Note_off_c, 1, 62, 100
3, 78912, Note_on_c, 1, 48, 70
3, 79100, Note_off_c, 1, 48, 100
3, 79104, Note_on_c, 1, 52, 70
3, 79292, Note_off_c, 1, 52, 100
3, 79296, Note_on_c, 1, 55, 70
3, 79484, Note_off_c, 1, 55, 100
3, 79488, Note_on_c, 1, 50, 70
3, 79676, Note_off_c, 1, 50, 100
3, 79680, Note_on_c, 1, 55, 70
3, 79868, Note_off_c, 1, 55, 100
3, 79872, Note_on_c, 1, 59, 70
3, 80060, Note_off_c, 1, 59, 100
3, 80064, Note_on_c, 1, 50, 70
3, 80252, Note_off_c, 1, 50, 100
3, 80256, Note_on_c, 1, 54, 70
3, 80444, Note_off_c, 1, 54, 100
3, 80448, Note_on_c, 1, 60, 70
3, 80636, Note_off_c, 1, 60, 100
3, 80640, Note_on_c, 1, 55, 70
3, 80640, Note_on_c, 1, 59, 70
3, 81020, Note_off_c, 1, 55, 100
3, 81020, Note_off_c, 1, 59, 100
3, 81216, Note_on_c, 1, 62, 70
3, 81216, Note_on_c, 1, 55, 70
3, 81596, Note_off_c, 1, 62, 100
3, 81596, Note_off_c, 1, 55, 100
3, 81792, Note_on_c, 1, 43, 70
3, 81792, Note_on_c, 1, 50, 70
3, 82364, Note_off_c, 1, 43, 100
3, 82364, Note_off_c, 1, 50, 100
3, 82364, End_track
0, 0, End_of_file
