0, 0, Header, 1, 3, 384
1, 0, Start_track
1, 0, Title_t, "L.v.Beethoven 1mov - Sonatina in F Major Anh.5-2\000"
1, 0, Copyright_t, "Copyright(C) 1995-2009, Suzuki Software\000"
1, 0, Sequencer_specific, 9, 67, 123, 0, 88, 70, 48, 50, 0, 1
1, 0, Text_t, "XFhd:2009/04/19:JP:Classical::::L.v.Beethoven:::Kaoru Suzuki\000"
1, 0, Text_t, "XFln:JP:\203\\\203i\203^ \203w\222·\222² Anh.5-2\201`\221æ1\212y\217Í:L.v.\203x\201[\203g\201[\203\224\203F\203\223:::\227é\202¿\202á\202ñ:\227é\202¿\202á\202ñ\000"
1, 0, Time_signature, 2, 2, 96, 8
1, 0, Sequencer_specific, 5, 0, 0, 119, 14, 0
1, 0, Tempo, 500000
1, 45696, Tempo, 517241
1, 45888, Tempo, 545454
1, 46272, Tempo, 500000
1, 64512, Tempo, 508474
1, 65088, Tempo, 526315
1, 65664, Tempo, 545454
1, 65856, Tempo, 600000
1, 65856, End_track
2, 0, Start_track
2, 0, Title_t, "Piano Right"
2, 0, Control_c, 0, 0, 0
2, 0, Program_c, 0, 0
2, 0, Control_c, 0, 7, 100
2, 0, Control_c, 0, 10, 73
2, 0, Control_c, 0, 91, 127
2, 0, Key_signature, -1, "major"
2, 0, Note_on_c, 0, 77, 100
2, 380, Note_off_c, 0, 77, 100
2, 384, Note_on_c, 0, 77, 100
2, 572, Note_off_c, 0, 77, 100
2, 576, Note_on_c, 0, 77, 100
2, 764, Note_off_c, 0, 77, 100
2, 768, Note_on_c, 0, 77, 100
2, 860, Note_off_c, 0, 77, 100
2, 864, Note_on_c, 0, 76, 100
2, 956, Note_off_c, 0, 76, 100
2, 960, Note_on_c, 0, 74, 100
2, 1052, Note_off_c, 0, 74, 100
2, 1056, Note_on_c, 0, 72, 100
2, 1148, Note_off_c, 0, 72, 100
2, 1152, Note_on_c, 0, 70, 100
2, 1244, Note_off_c, 0, 70, 100
2, 1248, Note_on_c, 0, 69, 90
2, 1340, Note_off_c, 0, 69, 100
2, 1344, Note_on_c, 0, 67, 80
2, 1436, Note_off_c, 0, 67, 100
2, 1440, Note_on_c, 0, 65, 70
2, 1532, Note_off_c, 0, 65, 100
2, 1536, Note_on_c, 0, 64, 70
2, 1724, Note_off_c, 0, 64, 100
2, 1728, Note_on_c, 0, 65, 70
2, 1916, Note_off_c, 0, 65, 100
2, 1920, Note_on_c, 0, 67, 70
2, 2108, Note_off_c, 0, 67, 100
2, 2112, Note_on_c, 0, 69, 70
2, 2300, Note_off_c, 0, 69, 100
2, 2304, Note_on_c, 0, 72, 70
2, 2684, Note_off_c, 0, 72, 100
2, 2688, Note_on_c, 0, 70, 70
2, 2876, Note_off_c, 0, 70, 100
2, 3072, Note_on_c, 0, 79, 100
2, 3452, Note_off_c, 0, 79, 100
2, 3456, Note_on_c, 0, 79, 100
2, 3644, Note_off_c, 0, 79, 100
2, 3648, Note_on_c, 0, 79, 100
2, 3836, Note_off_c, 0, 79, 100
2, 3840, Note_on_c, 0, 79, 100
2, 3932, Note_off_c, 0, 79, 100
2, 3936, Note_on_c, 0, 77, 100
2, 4028, Note_off_c, 0, 77, 100
2, 4032, Note_on_c, 0, 76, 100
2, 4124, Note_off_c, 0, 76, 100
2, 4128, Note_on_c, 0, 74, 100
2, 4220, Note_off_c, 0, 74, 100
2, 4224, Note_on_c, 0, 72, 100
2, 4316, Note_off_c, 0, 72, 100
2, 4320, Note_on_c, 0, 70, 90
2, 4412, Note_off_c, 0, 70, 100
2, 4416, Note_on_c, 0, 69, 80
2, 4508, Note_off_c, 0, 69, 100
2, 4512, Note_on_c, 0, 67, 70
2, 4604, Note_off_c, 0, 67, 100
2, 4608, Note_on_c, 0, 65, 70
2, 4796, Note_off_c, 0, 65, 100
2, 4800, Note_on_c, 0, 64, 70
2, 4988, Note_off_c, 0, 64, 100
2, 4992, Note_on_c, 0, 65, 70
2, 5180, Note_off_c, 0, 65, 100
2, 5184, Note_on_c, 0, 67, 70
2, 5372, Note_off_c, 0, 67, 100
2, 5376, Note_on_c, 0, 69, 70
2, 5756, Note_off_c, 0, 69, 100
2, 5760, Note_on_c, 0, 72, 70
2, 5852, Note_off_c, 0, 72, 100
2, 5856, Note_on_c, 0, 69, 70
2, 5948, Note_off_c, 0, 69, 100
2, 5952, Note_on_c, 0, 72, 70
2, 6044, Note_off_c, 0, 72, 100
2, 6048, Note_on_c, 0, 69, 70
2, 6140, Note_off_c, 0, 69, 100
2, 6144, Note_on_c, 0, 65, 70
2, 6332, Note_off_c, 0, 65, 100
2, 6528, Note_on_c, 0, 69, 70
2, 6576, Note_on_c, 0, 67, 70
2, 6620, Note_off_c, 0, 69, 100
2, 6716, Note_off_c, 0, 67, 100
2, 6720, Note_on_c, 0, 65, 70
2, 6908, Note_off_c, 0, 65, 100
2, 6912, Note_on_c, 0, 69, 70
2, 6960, Note_on_c, 0, 67, 70
2, 7004, Note_off_c, 0, 69, 100
2, 7100, Note_off_c, 0, 67, 100
2, 7104, Note_on_c, 0, 65, 70
2, 7292, Note_off_c, 0, 65, 100
2, 7296, Note_on_c, 0, 77, 70
2, 7388, Note_off_c, 0, 77, 100
2, 7392, Note_on_c, 0, 72, 70
2, 7484, Note_off_c, 0, 72, 100
2, 7488, Note_on_c, 0, 77, 70
2, 7580, Note_off_c, 0, 77, 100
2, 7584, Note_on_c, 0, 72, 70
2, 7676, Note_off_c, 0, 72, 100
2, 7680, Note_on_c, 0, 69, 70
2, 7868, Note_off_c, 0, 69, 100
2, 8064, Note_on_c, 0, 72, 70
2, 8112, Note_on_c, 0, 70, 70
2, 8156, Note_off_c, 0, 72, 100
2, 8252, Note_off_c, 0, 70, 100
2, 8256, Note_on_c, 0, 69, 70
2, 8444, Note_off_c, 0, 69, 100
2, 8448, Note_on_c, 0, 72, 70
2, 8496, Note_on_c, 0, 70, 70
2, 8540, Note_off_c, 0, 72, 100
2, 8636, Note_off_c, 0, 70, 100
2, 8640, Note_on_c, 0, 69, 70
2, 8828, Note_off_c, 0, 69, 100
2, 8832, Note_on_c, 0, 81, 100
2, 8924, Note_off_c, 0, 81, 100
2, 8928, Note_on_c, 0, 77, 100
2, 9020, Note_off_c, 0, 77, 100
2, 9024, Note_on_c, 0, 81, 100
2, 9116, Note_off_c, 0, 81, 100
2, 9120, Note_on_c, 0, 77, 100
2, 9212, Note_off_c, 0, 77, 100
2, 9216, Note_on_c, 0, 74, 100
2, 9404, Note_off_c, 0, 74, 100
2, 9408, Note_on_c, 0, 74, 100
2, 9596, Note_off_c, 0, 74, 100
2, 9600, Note_on_c, 0, 73, 100
2, 9692, Note_off_c, 0, 73, 100
2, 9696, Note_on_c, 0, 74, 100
2, 9788, Note_off_c, 0, 74, 100
2, 9792, Note_on_c, 0, 76, 100
2, 9884, Note_off_c, 0, 76, 100
2, 9888, Note_on_c, 0, 77, 100
2, 9980, Note_off_c, 0, 77, 100
2, 9984, Note_on_c, 0, 79, 100
2, 10172, Note_off_c, 0, 79, 100
2, 10176, Note_on_c, 0, 79, 100
2, 10364, Note_off_c, 0, 79, 100
2, 10368, Note_on_c, 0, 81, 100
2, 10460, Note_off_c, 0, 81, 100
2, 10464, Note_on_c, 0, 79, 100
2, 10556, Note_off_c, 0, 79, 100
2, 10560, Note_on_c, 0, 77, 100
2, 10652, Note_off_c, 0, 77, 100
2, 10656, Note_on_c, 0, 76, 100
2, 10748, Note_off_c, 0, 76, 100
2, 10752, Note_on_c, 0, 73, 100
2, 10844, Note_off_c, 0, 73, 100
2, 10848, Note_on_c, 0, 74, 100
2, 10940, Note_off_c, 0, 74, 100
2, 10944, Note_on_c, 0, 73, 100
2, 11036, Note_off_c, 0, 73, 100
2, 11040, Note_on_c, 0, 74, 100
2, 11132, Note_off_c, 0, 74, 100
2, 11136, Note_on_c, 0, 73, 100
2, 11228, Note_off_c, 0, 73, 100
2, 11232, Note_on_c, 0, 74, 100
2, 11324, Note_off_c, 0, 74, 100
2, 11328, Note_on_c, 0, 76, 100
2, 11420, Note_off_c, 0, 76, 100
2, 11424, Note_on_c, 0, 77, 100
2, 11516, Note_off_c, 0, 77, 100
2, 11520, Note_on_c, 0, 81, 100
2, 11612, Note_off_c, 0, 81, 100
2, 11616, Note_on_c, 0, 79, 100
2, 11708, Note_off_c, 0, 79, 100
2, 11712, Note_on_c, 0, 81, 100
2, 11804, Note_off_c, 0, 81, 100
2, 11808, Note_on_c, 0, 79, 100
2, 11900, Note_off_c, 0, 79, 100
2, 11904, Note_on_c, 0, 81, 100
2, 11996, Note_off_c, 0, 81, 100
2, 12000, Note_on_c, 0, 79, 100
2, 12092, Note_off_c, 0, 79, 100
2, 12096, Note_on_c, 0, 77, 100
2, 12188, Note_off_c, 0, 77, 100
2, 12192, Note_on_c, 0, 76, 100
2, 12284, Note_off_c, 0, 76, 100
2, 12288, Note_on_c, 0, 74, 100
2, 12476, Note_off_c, 0, 74, 100
2, 12480, Note_on_c, 0, 76, 100
2, 12572, Note_off_c, 0, 76, 100
2, 12576, Note_on_c, 0, 77, 100
2, 12668, Note_off_c, 0, 77, 100
2, 12672, Note_on_c, 0, 72, 100
2, 12860, Note_off_c, 0, 72, 100
2, 12864, Note_on_c, 0, 71, 100
2, 13052, Note_off_c, 0, 71, 100
2, 13056, Note_on_c, 0, 72, 100
2, 13244, Note_off_c, 0, 72, 100
2, 13248, Note_on_c, 0, 71, 100
2, 13340, Note_off_c, 0, 71, 100
2, 13344, Note_on_c, 0, 72, 100
2, 13436, Note_off_c, 0, 72, 100
2, 13440, Note_on_c, 0, 73, 100
2, 13532, Note_off_c, 0, 73, 100
2, 13536, Note_on_c, 0, 74, 100
2, 13628, Note_off_c, 0, 74, 100
2, 13632, Note_on_c, 0, 75, 100
2, 13724, Note_off_c, 0, 75, 100
2, 13728, Note_on_c, 0, 76, 100
2, 13820, Note_off_c, 0, 76, 100
2, 13824, Note_on_c, 0, 77, 100
2, 14204, Note_off_c, 0, 77, 100
2, 14208, Note_on_c, 0, 77, 100
2, 14396, Note_off_c, 0, 77, 100
2, 14400, Note_on_c, 0, 77, 100
2, 14588, Note_off_c, 0, 77, 100
2, 14592, Note_on_c, 0, 77, 100
2, 14684, Note_off_c, 0, 77, 100
2, 14688, Note_on_c, 0, 76, 100
2, 14780, Note_off_c, 0, 76, 100
2, 14784, Note_on_c, 0, 74, 100
2, 14876, Note_off_c, 0, 74, 100
2, 14880, Note_on_c, 0, 72, 100
2, 14972, Note_off_c, 0, 72, 100
2, 14976, Note_on_c, 0, 70, 100
2, 15068, Note_off_c, 0, 70, 100
2, 15072, Note_on_c, 0, 69, 90
2, 15164, Note_off_c, 0, 69, 100
2, 15168, Note_on_c, 0, 67, 80
2, 15260, Note_off_c, 0, 67, 100
2, 15264, Note_on_c, 0, 65, 70
2, 15356, Note_off_c, 0, 65, 100
2, 15360, Note_on_c, 0, 64, 70
2, 15548, Note_off_c, 0, 64, 100
2, 15552, Note_on_c, 0, 65, 70
2, 15740, Note_off_c, 0, 65, 100
2, 15744, Note_on_c, 0, 67, 70
2, 15932, Note_off_c, 0, 67, 100
2, 15936, Note_on_c, 0, 69, 70
2, 16124, Note_off_c, 0, 69, 100
2, 16128, Note_on_c, 0, 72, 70
2, 16508, Note_off_c, 0, 72, 100
2, 16512, Note_on_c, 0, 70, 70
2, 16700, Note_off_c, 0, 70, 100
2, 16896, Note_on_c, 0, 79, 100
2, 17276, Note_off_c, 0, 79, 100
2, 17280, Note_on_c, 0, 79, 100
2, 17468, Note_off_c, 0, 79, 100
2, 17472, Note_on_c, 0, 79, 100
2, 17660, Note_off_c, 0, 79, 100
2, 17664, Note_on_c, 0, 79, 100
2, 17756, Note_off_c, 0, 79, 100
2, 17760, Note_on_c, 0, 77, 100
2, 17852, Note_off_c, 0, 77, 100
2, 17856, Note_on_c, 0, 76, 100
2, 17948, Note_off_c, 0, 76, 100
2, 17952, Note_on_c, 0, 74, 100
2, 18044, Note_off_c, 0, 74, 100
2, 18048, Note_on_c, 0, 72, 100
2, 18140, Note_off_c, 0, 72, 100
2, 18144, Note_on_c, 0, 70, 90
2, 18236, Note_off_c, 0, 70, 100
2, 18240, Note_on_c, 0, 69, 80
2, 18332, Note_off_c, 0, 69, 100
2, 18336, Note_on_c, 0, 67, 70
2, 18428, Note_off_c, 0, 67, 100
2, 18432, Note_on_c, 0, 65, 70
2, 18620, Note_off_c, 0, 65, 100
2, 18624, Note_on_c, 0, 64, 70
2, 18812, Note_off_c, 0, 64, 100
2, 18816, Note_on_c, 0, 65, 70
2, 19004, Note_off_c, 0, 65, 100
2, 19008, Note_on_c, 0, 67, 70
2, 19196, Note_off_c, 0, 67, 100
2, 19200, Note_on_c, 0, 69, 70
2, 19580, Note_off_c, 0, 69, 100
2, 19584, Note_on_c, 0, 72, 70
2, 19676, Note_off_c, 0, 72, 100
2, 19680, Note_on_c, 0, 69, 70
2, 19772, Note_off_c, 0, 69, 100
2, 19776, Note_on_c, 0, 72, 70
2, 19868, Note_off_c, 0, 72, 100
2, 19872, Note_on_c, 0, 69, 70
2, 19964, Note_off_c, 0, 69, 100
2, 19968, Note_on_c, 0, 65, 70
2, 20156, Note_off_c, 0, 65, 100
2, 20352, Note_on_c, 0, 69, 70
2, 20400, Note_on_c, 0, 67, 70
2, 20444, Note_off_c, 0, 69, 100
2, 20540, Note_off_c, 0, 67, 100
2, 20544, Note_on_c, 0, 65, 70
2, 20732, Note_off_c, 0, 65, 100
2, 20736, Note_on_c, 0, 69, 70
2, 20784, Note_on_c, 0, 67, 70
2, 20828, Note_off_c, 0, 69, 100
2, 20924, Note_off_c, 0, 67, 100
2, 20928, Note_on_c, 0, 65, 70
2, 21116, Note_off_c, 0, 65, 100
2, 21120, Note_on_c, 0, 77, 70
2, 21212, Note_off_c, 0, 77, 100
2, 21216, Note_on_c, 0, 72, 70
2, 21308, Note_off_c, 0, 72, 100
2, 21312, Note_on_c, 0, 77, 70
2, 21404, Note_off_c, 0, 77, 100
2, 21408, Note_on_c, 0, 72, 70
2, 21500, Note_off_c, 0, 72, 100
2, 21504, Note_on_c, 0, 69, 70
2, 21692, Note_off_c, 0, 69, 100
2, 21888, Note_on_c, 0, 72, 70
2, 21936, Note_on_c, 0, 70, 70
2, 21980, Note_off_c, 0, 72, 100
2, 22076, Note_off_c, 0, 70, 100
2, 22080, Note_on_c, 0, 69, 70
2, 22268, Note_off_c, 0, 69, 100
2, 22272, Note_on_c, 0, 72, 70
2, 22320, Note_on_c, 0, 70, 70
2, 22364, Note_off_c, 0, 72, 100
2, 22460, Note_off_c, 0, 70, 100
2, 22464, Note_on_c, 0, 69, 70
2, 22652, Note_off_c, 0, 69, 100
2, 22656, Note_on_c, 0, 81, 100
2, 22748, Note_off_c, 0, 81, 100
2, 22752, Note_on_c, 0, 77, 100
2, 22844, Note_off_c, 0, 77, 100
2, 22848, Note_on_c, 0, 81, 100
2, 22940, Note_off_c, 0, 81, 100
2, 22944, Note_on_c, 0, 77, 100
2, 23036, Note_off_c, 0, 77, 100
2, 23040, Note_on_c, 0, 74, 100
2, 23228, Note_off_c, 0, 74, 100
2, 23232, Note_on_c, 0, 74, 100
2, 23420, Note_off_c, 0, 74, 100
2, 23424, Note_on_c, 0, 73, 100
2, 23516, Note_off_c, 0, 73, 100
2, 23520, Note_on_c, 0, 74, 100
2, 23612, Note_off_c, 0, 74, 100
2, 23616, Note_on_c, 0, 76, 100
2, 23708, Note_off_c, 0, 76, 100
2, 23712, Note_on_c, 0, 77, 100
2, 23804, Note_off_c, 0, 77, 100
2, 23808, Note_on_c, 0, 79, 100
2, 23996, Note_off_c, 0, 79, 100
2, 24000, Note_on_c, 0, 79, 100
2, 24188, Note_off_c, 0, 79, 100
2, 24192, Note_on_c, 0, 81, 100
2, 24284, Note_off_c, 0, 81, 100
2, 24288, Note_on_c, 0, 79, 100
2, 24380, Note_off_c, 0, 79, 100
2, 24384, Note_on_c, 0, 77, 100
2, 24476, Note_off_c, 0, 77, 100
2, 24480, Note_on_c, 0, 76, 100
2, 24572, Note_off_c, 0, 76, 100
2, 24576, Note_on_c, 0, 73, 100
2, 24668, Note_off_c, 0, 73, 100
2, 24672, Note_on_c, 0, 74, 100
2, 24764, Note_off_c, 0, 74, 100
2, 24768, Note_on_c, 0, 73, 100
2, 24860, Note_off_c, 0, 73, 100
2, 24864, Note_on_c, 0, 74, 100
2, 24956, Note_off_c, 0, 74, 100
2, 24960, Note_on_c, 0, 73, 100
2, 25052, Note_off_c, 0, 73, 100
2, 25056, Note_on_c, 0, 74, 100
2, 25148, Note_off_c, 0, 74, 100
2, 25152, Note_on_c, 0, 76, 100
2, 25244, Note_off_c, 0, 76, 100
2, 25248, Note_on_c, 0, 77, 100
2, 25340, Note_off_c, 0, 77, 100
2, 25344, Note_on_c, 0, 81, 100
2, 25436, Note_off_c, 0, 81, 100
2, 25440, Note_on_c, 0, 79, 100
2, 25532, Note_off_c, 0, 79, 100
2, 25536, Note_on_c, 0, 81, 100
2, 25628, Note_off_c, 0, 81, 100
2, 25632, Note_on_c, 0, 79, 100
2, 25724, Note_off_c, 0, 79, 100
2, 25728, Note_on_c, 0, 81, 100
2, 25820, Note_off_c, 0, 81, 100
2, 25824, Note_on_c, 0, 79, 100
2, 25916, Note_off_c, 0, 79, 100
2, 25920, Note_on_c, 0, 77, 100
2, 26012, Note_off_c, 0, 77, 100
2, 26016, Note_on_c, 0, 76, 100
2, 26108, Note_off_c, 0, 76, 100
2, 26112, Note_on_c, 0, 74, 100
2, 26300, Note_off_c, 0, 74, 100
2, 26304, Note_on_c, 0, 76, 100
2, 26396, Note_off_c, 0, 76, 100
2, 26400, Note_on_c, 0, 77, 100
2, 26492, Note_off_c, 0, 77, 100
2, 26496, Note_on_c, 0, 72, 100
2, 26684, Note_off_c, 0, 72, 100
2, 26688, Note_on_c, 0, 71, 100
2, 26876, Note_off_c, 0, 71, 100
2, 26880, Note_on_c, 0, 72, 100
2, 27068, Note_off_c, 0, 72, 100
2, 27072, Note_on_c, 0, 71, 100
2, 27164, Note_off_c, 0, 71, 100
2, 27168, Note_on_c, 0, 72, 100
2, 27260, Note_off_c, 0, 72, 100
2, 27264, Note_on_c, 0, 73, 100
2, 27356, Note_off_c, 0, 73, 100
2, 27360, Note_on_c, 0, 74, 100
2, 27452, Note_off_c, 0, 74, 100
2, 27456, Note_on_c, 0, 75, 100
2, 27548, Note_off_c, 0, 75, 100
2, 27552, Note_on_c, 0, 76, 100
2, 27644, Note_off_c, 0, 76, 100
2, 27648, Note_on_c, 0, 77, 100
2, 28028, Note_off_c, 0, 77, 100
2, 28032, Note_on_c, 0, 77, 100
2, 28220, Note_off_c, 0, 77, 100
2, 28224, Note_on_c, 0, 77, 100
2, 28412, Note_off_c, 0, 77, 100
2, 28416, Note_on_c, 0, 77, 100
2, 28508, Note_off_c, 0, 77, 100
2, 28512, Note_on_c, 0, 76, 100
2, 28604, Note_off_c, 0, 76, 100
2, 28608, Note_on_c, 0, 74, 100
2, 28700, Note_off_c, 0, 74, 100
2, 28704, Note_on_c, 0, 72, 100
2, 28796, Note_off_c, 0, 72, 100
2, 28800, Note_on_c, 0, 70, 100
2, 28892, Note_off_c, 0, 70, 100
2, 28896, Note_on_c, 0, 69, 95
2, 28988, Note_off_c, 0, 69, 100
2, 28992, Note_on_c, 0, 67, 85
2, 29084, Note_off_c, 0, 67, 100
2, 29088, Note_on_c, 0, 65, 75
2, 29180, Note_off_c, 0, 65, 100
2, 29184, Note_on_c, 0, 63, 70
2, 29372, Note_off_c, 0, 63, 100
2, 29376, Note_on_c, 0, 62, 70
2, 29468, Note_off_c, 0, 62, 100
2, 29472, Note_on_c, 0, 65, 70
2, 29564, Note_off_c, 0, 65, 100
2, 29568, Note_on_c, 0, 63, 70
2, 29756, Note_off_c, 0, 63, 100
2, 29760, Note_on_c, 0, 62, 70
2, 29852, Note_off_c, 0, 62, 100
2, 29856, Note_on_c, 0, 65, 70
2, 29948, Note_off_c, 0, 65, 100
2, 29952, Note_on_c, 0, 63, 70
2, 30332, Note_off_c, 0, 63, 100
2, 30720, Note_on_c, 0, 75, 100
2, 31100, Note_off_c, 0, 75, 100
2, 31104, Note_on_c, 0, 75, 100
2, 31292, Note_off_c, 0, 75, 100
2, 31296, Note_on_c, 0, 75, 100
2, 31484, Note_off_c, 0, 75, 100
2, 31488, Note_on_c, 0, 75, 100
2, 31580, Note_off_c, 0, 75, 100
2, 31584, Note_on_c, 0, 74, 100
2, 31676, Note_off_c, 0, 74, 100
2, 31680, Note_on_c, 0, 72, 100
2, 31772, Note_off_c, 0, 72, 100
2, 31776, Note_on_c, 0, 70, 100
2, 31868, Note_off_c, 0, 70, 100
2, 31872, Note_on_c, 0, 69, 100
2, 31964, Note_off_c, 0, 69, 100
2, 31968, Note_on_c, 0, 67, 95
2, 32060, Note_off_c, 0, 67, 100
2, 32064, Note_on_c, 0, 65, 85
2, 32156, Note_off_c, 0, 65, 100
2, 32160, Note_on_c, 0, 63, 75
2, 32252, Note_off_c, 0, 63, 100
2, 32256, Note_on_c, 0, 62, 70
2, 32444, Note_off_c, 0, 62, 100
2, 32448, Note_on_c, 0, 60, 70
2, 32540, Note_off_c, 0, 60, 100
2, 32544, Note_on_c, 0, 63, 70
2, 32636, Note_off_c, 0, 63, 100
2, 32640, Note_on_c, 0, 62, 70
2, 32828, Note_off_c, 0, 62, 100
2, 32832, Note_on_c, 0, 60, 70
2, 32924, Note_off_c, 0, 60, 100
2, 32928, Note_on_c, 0, 63, 70
2, 33020, Note_off_c, 0, 63, 100
2, 33024, Note_on_c, 0, 62, 70
2, 33404, Note_off_c, 0, 62, 100
2, 33792, Note_on_c, 0, 74, 70
2, 33980, Note_off_c, 0, 74, 100
2, 33984, Note_on_c, 0, 75, 70
2, 34076, Note_off_c, 0, 75, 100
2, 34080, Note_on_c, 0, 73, 70
2, 34172, Note_off_c, 0, 73, 100
2, 34176, Note_on_c, 0, 74, 70
2, 34364, Note_off_c, 0, 74, 100
2, 34368, Note_on_c, 0, 75, 70
2, 34460, Note_off_c, 0, 75, 100
2, 34464, Note_on_c, 0, 73, 70
2, 34556, Note_off_c, 0, 73, 100
2, 34560, Note_on_c, 0, 74, 70
2, 34748, Note_off_c, 0, 74, 100
2, 34752, Note_on_c, 0, 81, 70
2, 34940, Note_off_c, 0, 81, 100
2, 34944, Note_on_c, 0, 78, 70
2, 35132, Note_off_c, 0, 78, 100
2, 35136, Note_on_c, 0, 72, 70
2, 35324, Note_off_c, 0, 72, 100
2, 35328, Note_on_c, 0, 70, 70
2, 35516, Note_off_c, 0, 70, 100
2, 35520, Note_on_c, 0, 69, 70
2, 35612, Note_off_c, 0, 69, 100
2, 35616, Note_on_c, 0, 72, 70
2, 35708, Note_off_c, 0, 72, 100
2, 35712, Note_on_c, 0, 70, 70
2, 35900, Note_off_c, 0, 70, 100
2, 35904, Note_on_c, 0, 69, 70
2, 35996, Note_off_c, 0, 69, 100
2, 36000, Note_on_c, 0, 72, 70
2, 36092, Note_off_c, 0, 72, 100
2, 36096, Note_on_c, 0, 70, 70
2, 36476, Note_off_c, 0, 70, 100
2, 36864, Note_on_c, 0, 72, 70
2, 37052, Note_off_c, 0, 72, 100
2, 37056, Note_on_c, 0, 71, 70
2, 37148, Note_off_c, 0, 71, 100
2, 37152, Note_on_c, 0, 74, 70
2, 37244, Note_off_c, 0, 74, 100
2, 37248, Note_on_c, 0, 72, 70
2, 37436, Note_off_c, 0, 72, 100
2, 37440, Note_on_c, 0, 71, 70
2, 37532, Note_off_c, 0, 71, 100
2, 37536, Note_on_c, 0, 74, 70
2, 37628, Note_off_c, 0, 74, 100
2, 37632, Note_on_c, 0, 72, 70
2, 37820, Note_off_c, 0, 72, 100
2, 37824, Note_on_c, 0, 79, 70
2, 38012, Note_off_c, 0, 79, 100
2, 38016, Note_on_c, 0, 76, 70
2, 38204, Note_off_c, 0, 76, 100
2, 38208, Note_on_c, 0, 70, 70
2, 38396, Note_off_c, 0, 70, 100
2, 38400, Note_on_c, 0, 69, 70
2, 38588, Note_off_c, 0, 69, 100
2, 38592, Note_on_c, 0, 67, 70
2, 38684, Note_off_c, 0, 67, 100
2, 38688, Note_on_c, 0, 70, 70
2, 38780, Note_off_c, 0, 70, 100
2, 38784, Note_on_c, 0, 69, 70
2, 38972, Note_off_c, 0, 69, 100
2, 38976, Note_on_c, 0, 67, 70
2, 39068, Note_off_c, 0, 67, 100
2, 39072, Note_on_c, 0, 70, 70
2, 39164, Note_off_c, 0, 70, 100
2, 39168, Note_on_c, 0, 69, 70
2, 39932, Note_off_c, 0, 69, 100
2, 39936, Note_on_c, 0, 70, 70
2, 40124, Note_off_c, 0, 70, 100
2, 40128, Note_on_c, 0, 77, 70
2, 40316, Note_off_c, 0, 77, 100
2, 40320, Note_on_c, 0, 74, 70
2, 40508, Note_off_c, 0, 74, 100
2, 40512, Note_on_c, 0, 69, 70
2, 40700, Note_off_c, 0, 69, 100
2, 40704, Note_on_c, 0, 67, 70
2, 41468, Note_off_c, 0, 67, 100
2, 41472, Note_on_c, 0, 69, 70
2, 41660, Note_off_c, 0, 69, 100
2, 41664, Note_on_c, 0, 76, 70
2, 41852, Note_off_c, 0, 76, 100
2, 41856, Note_on_c, 0, 73, 70
2, 42044, Note_off_c, 0, 73, 100
2, 42048, Note_on_c, 0, 67, 70
2, 42236, Note_off_c, 0, 67, 100
2, 42240, Note_on_c, 0, 65, 70
2, 43004, Note_off_c, 0, 65, 100
2, 43200, Note_on_c, 0, 65, 72
2, 43388, Note_off_c, 0, 65, 100
2, 43392, Note_on_c, 0, 74, 75
2, 43580, Note_off_c, 0, 74, 100
2, 43584, Note_on_c, 0, 71, 78
2, 43772, Note_off_c, 0, 71, 100
2, 43776, Note_on_c, 0, 77, 81
2, 43964, Note_off_c, 0, 77, 100
2, 43968, Note_on_c, 0, 74, 84
2, 44156, Note_off_c, 0, 74, 100
2, 44160, Note_on_c, 0, 83, 86
2, 44348, Note_off_c, 0, 83, 100
2, 44352, Note_on_c, 0, 77, 89
2, 44540, Note_off_c, 0, 77, 100
2, 44544, Note_on_c, 0, 86, 92
2, 44732, Note_off_c, 0, 86, 100
2, 44736, Note_on_c, 0, 83, 95
2, 44924, Note_off_c, 0, 83, 100
2, 44928, Note_on_c, 0, 89, 98
2, 45116, Note_off_c, 0, 89, 100
2, 45120, Note_on_c, 0, 86, 100
2, 45308, Note_off_c, 0, 86, 100
2, 45312, Note_on_c, 0, 84, 100
2, 45500, Note_off_c, 0, 84, 100
2, 45504, Note_on_c, 0, 83, 100
2, 45692, Note_off_c, 0, 83, 100
2, 45696, Note_on_c, 0, 81, 100
2, 45884, Note_off_c, 0, 81, 100
2, 45888, Note_on_c, 0, 83, 100
2, 46076, Note_off_c, 0, 83, 100
2, 46080, Note_on_c, 0, 84, 110
2, 46268, Note_off_c, 0, 84, 100
2, 46464, Note_on_c, 0, 79, 110
2, 46556, Note_off_c, 0, 79, 100
2, 46560, Note_on_c, 0, 76, 110
2, 46652, Note_off_c, 0, 76, 100
2, 46656, Note_on_c, 0, 79, 110
2, 46748, Note_off_c, 0, 79, 100
2, 46752, Note_on_c, 0, 76, 110
2, 46844, Note_off_c, 0, 76, 100
2, 46848, Note_on_c, 0, 72, 110
2, 47036, Note_off_c, 0, 72, 100
2, 47232, Note_on_c, 0, 84, 110
2, 47324, Note_off_c, 0, 84, 100
2, 47328, Note_on_c, 0, 79, 110
2, 47420, Note_off_c, 0, 79, 100
2, 47424, Note_on_c, 0, 84, 110
2, 47516, Note_off_c, 0, 84, 100
2, 47520, Note_on_c, 0, 79, 110
2, 47612, Note_off_c, 0, 79, 100
2, 47616, Note_on_c, 0, 76, 110
2, 47804, Note_off_c, 0, 76, 100
2, 48000, Note_on_c, 0, 88, 110
2, 48092, Note_off_c, 0, 88, 100
2, 48096, Note_on_c, 0, 84, 110
2, 48188, Note_off_c, 0, 84, 100
2, 48192, Note_on_c, 0, 88, 110
2, 48284, Note_off_c, 0, 88, 100
2, 48288, Note_on_c, 0, 84, 110
2, 48380, Note_off_c, 0, 84, 100
2, 48384, Note_on_c, 0, 83, 110
2, 48572, Note_off_c, 0, 83, 100
2, 48576, Note_on_c, 0, 86, 110
2, 48764, Note_off_c, 0, 86, 100
2, 48768, Note_on_c, 0, 89, 110
2, 48956, Note_off_c, 0, 89, 100
2, 48960, Note_on_c, 0, 83, 110
2, 49148, Note_off_c, 0, 83, 100
2, 49152, Note_on_c, 0, 84, 110
2, 49340, Note_off_c, 0, 84, 100
2, 49536, Note_on_c, 0, 86, 100
2, 49628, Note_off_c, 0, 86, 100
2, 49632, Note_on_c, 0, 82, 99
2, 49724, Note_off_c, 0, 82, 100
2, 49728, Note_on_c, 0, 86, 97
2, 49820, Note_off_c, 0, 86, 100
2, 49824, Note_on_c, 0, 82, 96
2, 49916, Note_off_c, 0, 82, 100
2, 49920, Note_on_c, 0, 79, 94
2, 50108, Note_off_c, 0, 79, 100
2, 50304, Note_on_c, 0, 82, 88
2, 50396, Note_off_c, 0, 82, 100
2, 50400, Note_on_c, 0, 79, 87
2, 50492, Note_off_c, 0, 79, 100
2, 50496, Note_on_c, 0, 82, 85
2, 50588, Note_off_c, 0, 82, 100
2, 50592, Note_on_c, 0, 79, 83
2, 50684, Note_off_c, 0, 79, 100
2, 50688, Note_on_c, 0, 76, 82
2, 50876, Note_off_c, 0, 76, 100
2, 51072, Note_on_c, 0, 79, 76
2, 51164, Note_off_c, 0, 79, 100
2, 51168, Note_on_c, 0, 76, 74
2, 51260, Note_off_c, 0, 76, 100
2, 51264, Note_on_c, 0, 79, 73
2, 51356, Note_off_c, 0, 79, 100
2, 51360, Note_on_c, 0, 76, 71
2, 51452, Note_off_c, 0, 76, 100
2, 51456, Note_on_c, 0, 72, 70
2, 51644, Note_off_c, 0, 72, 100
2, 51840, Note_on_c, 0, 72, 70
2, 51932, Note_off_c, 0, 72, 100
2, 51936, Note_on_c, 0, 69, 70
2, 52028, Note_off_c, 0, 69, 100
2, 52032, Note_on_c, 0, 72, 70
2, 52124, Note_off_c, 0, 72, 100
2, 52128, Note_on_c, 0, 69, 70
2, 52220, Note_off_c, 0, 69, 100
2, 52224, Note_on_c, 0, 65, 70
2, 52412, Note_off_c, 0, 65, 100
2, 52608, Note_on_c, 0, 69, 70
2, 52656, Note_on_c, 0, 67, 70
2, 52700, Note_off_c, 0, 69, 100
2, 52796, Note_off_c, 0, 67, 100
2, 52800, Note_on_c, 0, 65, 70
2, 52988, Note_off_c, 0, 65, 100
2, 52992, Note_on_c, 0, 69, 70
2, 53040, Note_on_c, 0, 67, 70
2, 53084, Note_off_c, 0, 69, 100
2, 53180, Note_off_c, 0, 67, 100
2, 53184, Note_on_c, 0, 65, 70
2, 53372, Note_off_c, 0, 65, 100
2, 53376, Note_on_c, 0, 77, 70
2, 53468, Note_off_c, 0, 77, 100
2, 53472, Note_on_c, 0, 72, 70
2, 53564, Note_off_c, 0, 72, 100
2, 53568, Note_on_c, 0, 77, 70
2, 53660, Note_off_c, 0, 77, 100
2, 53664, Note_on_c, 0, 72, 70
2, 53756, Note_off_c, 0, 72, 100
2, 53760, Note_on_c, 0, 69, 70
2, 53948, Note_off_c, 0, 69, 100
2, 54144, Note_on_c, 0, 72, 70
2, 54192, Note_on_c, 0, 70, 70
2, 54236, Note_off_c, 0, 72, 100
2, 54332, Note_off_c, 0, 70, 100
2, 54336, Note_on_c, 0, 69, 70
2, 54524, Note_off_c, 0, 69, 100
2, 54528, Note_on_c, 0, 72, 70
2, 54576, Note_on_c, 0, 70, 70
2, 54620, Note_off_c, 0, 72, 100
2, 54716, Note_off_c, 0, 70, 100
2, 54720, Note_on_c, 0, 69, 70
2, 54908, Note_off_c, 0, 69, 100
2, 54912, Note_on_c, 0, 81, 100
2, 55004, Note_off_c, 0, 81, 100
2, 55008, Note_on_c, 0, 77, 100
2, 55100, Note_off_c, 0, 77, 100
2, 55104, Note_on_c, 0, 81, 100
2, 55196, Note_off_c, 0, 81, 100
2, 55200, Note_on_c, 0, 77, 100
2, 55292, Note_off_c, 0, 77, 100
2, 55296, Note_on_c, 0, 74, 100
2, 55484, Note_off_c, 0, 74, 100
2, 55488, Note_on_c, 0, 74, 100
2, 55676, Note_off_c, 0, 74, 100
2, 55680, Note_on_c, 0, 73, 100
2, 55772, Note_off_c, 0, 73, 100
2, 55776, Note_on_c, 0, 74, 100
2, 55868, Note_off_c, 0, 74, 100
2, 55872, Note_on_c, 0, 76, 100
2, 55964, Note_off_c, 0, 76, 100
2, 55968, Note_on_c, 0, 77, 100
2, 56060, Note_off_c, 0, 77, 100
2, 56064, Note_on_c, 0, 79, 100
2, 56252, Note_off_c, 0, 79, 100
2, 56256, Note_on_c, 0, 79, 100
2, 56444, Note_off_c, 0, 79, 100
2, 56448, Note_on_c, 0, 86, 100
2, 56540, Note_off_c, 0, 86, 100
2, 56544, Note_on_c, 0, 82, 100
2, 56636, Note_off_c, 0, 82, 100
2, 56640, Note_on_c, 0, 86, 100
2, 56732, Note_off_c, 0, 86, 100
2, 56736, Note_on_c, 0, 82, 100
2, 56828, Note_off_c, 0, 82, 100
2, 56832, Note_on_c, 0, 81, 100
2, 56924, Note_off_c, 0, 81, 100
2, 56928, Note_on_c, 0, 79, 100
2, 57020, Note_off_c, 0, 79, 100
2, 57024, Note_on_c, 0, 81, 100
2, 57116, Note_off_c, 0, 81, 100
2, 57120, Note_on_c, 0, 79, 100
2, 57212, Note_off_c, 0, 79, 100
2, 57216, Note_on_c, 0, 78, 100
2, 57308, Note_off_c, 0, 78, 100
2, 57312, Note_on_c, 0, 79, 100
2, 57404, Note_off_c, 0, 79, 100
2, 57408, Note_on_c, 0, 81, 100
2, 57500, Note_off_c, 0, 81, 100
2, 57504, Note_on_c, 0, 82, 100
2, 57596, Note_off_c, 0, 82, 100
2, 57600, Note_on_c, 0, 86, 100
2, 57692, Note_off_c, 0, 86, 100
2, 57696, Note_on_c, 0, 84, 100
2, 57788, Note_off_c, 0, 84, 100
2, 57792, Note_on_c, 0, 86, 100
2, 57884, Note_off_c, 0, 86, 100
2, 57888, Note_on_c, 0, 84, 100
2, 57980, Note_off_c, 0, 84, 100
2, 57984, Note_on_c, 0, 82, 100
2, 58076, Note_off_c, 0, 82, 100
2, 58080, Note_on_c, 0, 81, 100
2, 58172, Note_off_c, 0, 81, 100
2, 58176, Note_on_c, 0, 79, 100
2, 58268, Note_off_c, 0, 79, 100
2, 58272, Note_on_c, 0, 77, 100
2, 58364, Note_off_c, 0, 77, 100
2, 58368, Note_on_c, 0, 79, 100
2, 58556, Note_off_c, 0, 79, 100
2, 58560, Note_on_c, 0, 81, 100
2, 58652, Note_off_c, 0, 81, 100
2, 58656, Note_on_c, 0, 82, 100
2, 58748, Note_off_c, 0, 82, 100
2, 58752, Note_on_c, 0, 77, 100
2, 58940, Note_off_c, 0, 77, 100
2, 58944, Note_on_c, 0, 76, 100
2, 59132, Note_off_c, 0, 76, 100
2, 59136, Note_on_c, 0, 77, 100
2, 59324, Note_off_c, 0, 77, 100
2, 59328, Note_on_c, 0, 81, 100
2, 59516, Note_off_c, 0, 81, 100
2, 59520, Note_on_c, 0, 77, 100
2, 59708, Note_off_c, 0, 77, 100
2, 59712, Note_on_c, 0, 74, 100
2, 59900, Note_off_c, 0, 74, 100
2, 59904, Note_on_c, 0, 72, 100
2, 60860, Note_off_c, 0, 72, 100
2, 60864, Note_on_c, 0, 81, 100
2, 61052, Note_off_c, 0, 81, 100
2, 61056, Note_on_c, 0, 77, 100
2, 61244, Note_off_c, 0, 77, 100
2, 61248, Note_on_c, 0, 74, 100
2, 61436, Note_off_c, 0, 74, 100
2, 61440, Note_on_c, 0, 72, 100
2, 62396, Note_off_c, 0, 72, 100
2, 62400, Note_on_c, 0, 81, 100
2, 62588, Note_off_c, 0, 81, 100
2, 62592, Note_on_c, 0, 79, 100
2, 62684, Note_off_c, 0, 79, 100
2, 62688, Note_on_c, 0, 77, 100
2, 62780, Note_off_c, 0, 77, 100
2, 62784, Note_on_c, 0, 76, 100
2, 62876, Note_off_c, 0, 76, 100
2, 62880, Note_on_c, 0, 74, 100
2, 62972, Note_off_c, 0, 74, 100
2, 62976, Note_on_c, 0, 72, 100
2, 63068, Note_off_c, 0, 72, 100
2, 63072, Note_on_c, 0, 74, 100
2, 63164, Note_off_c, 0, 74, 100
2, 63168, Note_on_c, 0, 72, 100
2, 63260, Note_off_c, 0, 72, 100
2, 63264, Note_on_c, 0, 74, 100
2, 63356, Note_off_c, 0, 74, 100
2, 63360, Note_on_c, 0, 72, 100
2, 63452, Note_off_c, 0, 72, 100
2, 63456, Note_on_c, 0, 74, 100
2, 63548, Note_off_c, 0, 74, 100
2, 63552, Note_on_c, 0, 72, 100
2, 63644, Note_off_c, 0, 72, 100
2, 63648, Note_on_c, 0, 74, 100
2, 63740, Note_off_c, 0, 74, 100
2, 63744, Note_on_c, 0, 72, 100
2, 63836, Note_off_c, 0, 72, 100
2, 63840, Note_on_c, 0, 74, 100
2, 63932, Note_off_c, 0, 74, 100
2, 63936, Note_on_c, 0, 72, 100
2, 64028, Note_off_c, 0, 72, 100
2, 64032, Note_on_c, 0, 74, 100
2, 64124, Note_off_c, 0, 74, 100
2, 64128, Note_on_c, 0, 72, 100
2, 64220, Note_off_c, 0, 72, 100
2, 64224, Note_on_c, 0, 74, 100
2, 64316, Note_off_c, 0, 74, 100
2, 64320, Note_on_c, 0, 72, 100
2, 64412, Note_off_c, 0, 72, 100
2, 64416, Note_on_c, 0, 74, 100
2, 64508, Note_off_c, 0, 74, 100
2, 64512, Note_on_c, 0, 72, 100
2, 64604, Note_off_c, 0, 72, 100
2, 64608, Note_on_c, 0, 74, 100
2, 64700, Note_off_c, 0, 74, 100
2, 64704, Note_on_c, 0, 72, 100
2, 64796, Note_off_c, 0, 72, 100
2, 64800, Note_on_c, 0, 74, 100
2, 64892, Note_off_c, 0, 74, 100
2, 64896, Note_on_c, 0, 72, 100
2, 64988, Note_off_c, 0, 72, 100
2, 64992, Note_on_c, 0, 81, 100
2, 65084, Note_off_c, 0, 81, 100
2, 65088, Note_on_c, 0, 79, 100
2, 65180, Note_off_c, 0, 79, 100
2, 65184, Note_on_c, 0, 77, 100
2, 65276, Note_off_c, 0, 77, 100
2, 65280, Note_on_c, 0, 76, 100
2, 65372, Note_off_c, 0, 76, 100
2, 65376, Note_on_c, 0, 77, 100
2, 65468, Note_off_c, 0, 77, 100
2, 65472, Note_on_c, 0, 76, 100
2, 65564, Note_off_c, 0, 76, 100
2, 65568, Note_on_c, 0, 77, 100
2, 65660, Note_off_c, 0, 77, 100
2, 65664, Note_on_c, 0, 76, 100
2, 65756, Note_off_c, 0, 76, 100
2, 65760, Note_on_c, 0, 82, 100
2, 65852, Note_off_c, 0, 82, 100
2, 65856, Note_on_c, 0, 81, 100
2, 65948, Note_off_c, 0, 81, 100
2, 65952, Note_on_c, 0, 79, 100
2, 66044, Note_off_c, 0, 79, 100
2, 66048, Note_on_c, 0, 77, 100
2, 66428, Note_off_c, 0, 77, 100
2, 66816, Note_on_c, 0, 88, 100
2, 66816, Note_on_c, 0, 82, 100
2, 66816, Note_on_c, 0, 79, 100
2, 67196, Note_off_c, 0, 88, 100
2, 67196, Note_off_c, 0, 82, 100
2, 67196, Note_off_c, 0, 79, 100
2, 67584, Note_on_c, 0, 89, 100
2, 67584, Note_on_c, 0, 81, 100
2, 68156, Note_off_c, 0, 89, 100
2, 68156, Note_off_c, 0, 81, 100
2, 69888, Control_c, 0, 11, 0
2, 69984, Note_on_c, 0, 65, 1
2, 70076, Note_off_c, 0, 65, 100
2, 70076, End_track
3, 0, Start_track
3, 0, Title_t, "Piano Left"
3, 0, Control_c, 1, 0, 0
3, 0, Program_c, 1, 0
3, 0, Control_c, 1, 7, 100
3, 0, Control_c, 1, 10, 58
3, 0, Control_c, 1, 91, 127
3, 0, Key_signature, -1, "major"
3, 0, Note_on_c, 1, 53, 100
3, 92, Note_off_c, 1, 53, 100
3, 96, Note_on_c, 1, 57, 100
3, 188, Note_off_c, 1, 57, 100
3, 192, Note_on_c, 1, 60, 100
3, 284, Note_off_c, 1, 60, 100
3, 288, Note_on_c, 1, 57, 100
3, 380, Note_off_c, 1, 57, 100
3, 384, Note_on_c, 1, 53, 100
3, 476, Note_off_c, 1, 53, 100
3, 480, Note_on_c, 1, 57, 100
3, 572, Note_off_c, 1, 57, 100
3, 576, Note_on_c, 1, 60, 100
3, 668, Note_off_c, 1, 60, 100
3, 672, Note_on_c, 1, 57, 100
3, 764, Note_off_c, 1, 57, 100
3, 768, Note_on_c, 1, 53, 100
3, 1148, Note_off_c, 1, 53, 100
3, 1536, Note_on_c, 1, 58, 70
3, 1628, Note_off_c, 1, 58, 100
3, 1632, Note_on_c, 1, 60, 70
3, 1724, Note_off_c, 1, 60, 100
3, 1728, Note_on_c, 1, 57, 70
3, 1820, Note_off_c, 1, 57, 100
3, 1824, Note_on_c, 1, 60, 70
3, 1916, Note_off_c, 1, 60, 100
3, 1920, Note_on_c, 1, 55, 70
3, 2012, Note_off_c, 1, 55, 100
3, 2016, Note_on_c, 1, 60, 70
3, 2108, Note_off_c, 1, 60, 100
3, 2112, Note_on_c, 1, 53, 70
3, 2204, Note_off_c, 1, 53, 100
3, 2208, Note_on_c, 1, 60, 70
3, 2300, Note_off_c, 1, 60, 100
3, 2304, Note_on_c, 1, 52, 70
3, 2684, Note_off_c, 1, 52, 100
3, 3072, Note_on_c, 1, 52, 100
3, 3164, Note_off_c, 1, 52, 100
3, 3168, Note_on_c, 1, 58, 100
3, 3260, Note_off_c, 1, 58, 100
3, 3264, Note_on_c, 1, 60, 100
3, 3356, Note_off_c, 1, 60, 100
3, 3360, Note_on_c, 1, 58, 100
3, 3452, Note_off_c, 1, 58, 100
3, 3456, Note_on_c, 1, 52, 100
3, 3548, Note_off_c, 1, 52, 100
3, 3552, Note_on_c, 1, 58, 100
3, 3644, Note_off_c, 1, 58, 100
3, 3648, Note_on_c, 1, 60, 100
3, 3740, Note_off_c, 1, 60, 100
3, 3744, Note_on_c, 1, 58, 100
3, 3836, Note_off_c, 1, 58, 100
3, 3840, Note_on_c, 1, 52, 100
3, 4220, Note_off_c, 1, 52, 100
3, 4608, Note_on_c, 1, 57, 70
3, 4700, Note_off_c, 1, 57, 100
3, 4704, Note_on_c, 1, 60, 70
3, 4796, Note_off_c, 1, 60, 100
3, 4800, Note_on_c, 1, 55, 70
3, 4892, Note_off_c, 1, 55, 100
3, 4896, Note_on_c, 1, 60, 70
3, 4988, Note_off_c, 1, 60, 100
3, 4992, Note_on_c, 1, 57, 70
3, 5084, Note_off_c, 1, 57, 100
3, 5088, Note_on_c, 1, 60, 70
3, 5180, Note_off_c, 1, 60, 100
3, 5184, Note_on_c, 1, 52, 70
3, 5276, Note_off_c, 1, 52, 100
3, 5280, Note_on_c, 1, 60, 70
3, 5372, Note_off_c, 1, 60, 100
3, 5376, Note_on_c, 1, 53, 70
3, 5756, Note_off_c, 1, 53, 100
3, 6144, Note_on_c, 1, 57, 70
3, 6236, Note_off_c, 1, 57, 100
3, 6240, Note_on_c, 1, 60, 70
3, 6332, Note_off_c, 1, 60, 100
3, 6336, Note_on_c, 1, 57, 70
3, 6428, Note_off_c, 1, 57, 100
3, 6432, Note_on_c, 1, 60, 70
3, 6524, Note_off_c, 1, 60, 100
3, 6528, Note_on_c, 1, 58, 70
3, 6620, Note_off_c, 1, 58, 100
3, 6624, Note_on_c, 1, 60, 70
3, 6716, Note_off_c, 1, 60, 100
3, 6720, Note_on_c, 1, 57, 70
3, 6812, Note_off_c, 1, 57, 100
3, 6816, Note_on_c, 1, 60, 70
3, 6908, Note_off_c, 1, 60, 100
3, 6912, Note_on_c, 1, 58, 70
3, 7004, Note_off_c, 1, 58, 100
3, 7008, Note_on_c, 1, 60, 70
3, 7100, Note_off_c, 1, 60, 100
3, 7104, Note_on_c, 1, 57, 70
3, 7196, Note_off_c, 1, 57, 100
3, 7200, Note_on_c, 1, 60, 70
3, 7292, Note_off_c, 1, 60, 100
3, 7680, Note_on_c, 1, 53, 70
3, 7772, Note_off_c, 1, 53, 100
3, 7776, Note_on_c, 1, 60, 70
3, 7868, Note_off_c, 1, 60, 100
3, 7872, Note_on_c, 1, 53, 70
3, 7964, Note_off_c, 1, 53, 100
3, 7968, Note_on_c, 1, 60, 70
3, 8060, Note_off_c, 1, 60, 100
3, 8064, Note_on_c, 1, 55, 70
3, 8156, Note_off_c, 1, 55, 100
3, 8160, Note_on_c, 1, 60, 70
3, 8252, Note_off_c, 1, 60, 100
3, 8256, Note_on_c, 1, 53, 70
3, 8348, Note_off_c, 1, 53, 100
3, 8352, Note_on_c, 1, 60, 70
3, 8444, Note_off_c, 1, 60, 100
3, 8448, Note_on_c, 1, 55, 70
3, 8540, Note_off_c, 1, 55, 100
3, 8544, Note_on_c, 1, 60, 70
3, 8636, Note_off_c, 1, 60, 100
3, 8640, Note_on_c, 1, 53, 70
3, 8732, Note_off_c, 1, 53, 100
3, 8736, Note_on_c, 1, 60, 70
3, 8828, Note_off_c, 1, 60, 100
3, 9216, Note_on_c, 1, 53, 100
3, 9216, Note_on_c, 1, 59, 100
3, 9980, Note_off_c, 1, 53, 100
3, 9980, Note_off_c, 1, 59, 100
3, 9984, Note_on_c, 1, 52, 100
3, 9984, Note_on_c, 1, 60, 100
3, 10748, Note_off_c, 1, 52, 100
3, 10748, Note_off_c, 1, 60, 100
3, 10752, Note_on_c, 1, 59, 100
3, 10752, Note_on_c, 1, 53, 100
3, 11516, Note_off_c, 1, 59, 100
3, 11516, Note_off_c, 1, 53, 100
3, 11520, Note_on_c, 1, 52, 100
3, 11520, Note_on_c, 1, 60, 100
3, 12284, Note_off_c, 1, 52, 100
3, 12284, Note_off_c, 1, 60, 100
3, 12480, Note_on_c, 1, 53, 100
3, 12668, Note_off_c, 1, 53, 100
3, 12672, Note_on_c, 1, 55, 100
3, 12860, Note_off_c, 1, 55, 100
3, 12864, Note_on_c, 1, 43, 100
3, 13052, Note_off_c, 1, 43, 100
3, 13056, Note_on_c, 1, 48, 100
3, 13436, Note_off_c, 1, 48, 100
3, 13824, Note_on_c, 1, 53, 100
3, 13916, Note_off_c, 1, 53, 100
3, 13920, Note_on_c, 1, 57, 100
3, 14012, Note_off_c, 1, 57, 100
3, 14016, Note_on_c, 1, 60, 100
3, 14108, Note_off_c, 1, 60, 100
3, 14112, Note_on_c, 1, 57, 100
3, 14204, Note_off_c, 1, 57, 100
3, 14208, Note_on_c, 1, 53, 100
3, 14300, Note_off_c, 1, 53, 100
3, 14304, Note_on_c, 1, 57, 100
3, 14396, Note_off_c, 1, 57, 100
3, 14400, Note_on_c, 1, 60, 100
3, 14492, Note_off_c, 1, 60, 100
3, 14496, Note_on_c, 1, 57, 100
3, 14588, Note_off_c, 1, 57, 100
3, 14592, Note_on_c, 1, 53, 100
3, 14972, Note_off_c, 1, 53, 100
3, 15360, Note_on_c, 1, 58, 70
3, 15452, Note_off_c, 1, 58, 100
3, 15456, Note_on_c, 1, 60, 70
3, 15548, Note_off_c, 1, 60, 100
3, 15552, Note_on_c, 1, 57, 70
3, 15644, Note_off_c, 1, 57, 100
3, 15648, Note_on_c, 1, 60, 70
3, 15740, Note_off_c, 1, 60, 100
3, 15744, Note_on_c, 1, 55, 70
3, 15836, Note_off_c, 1, 55, 100
3, 15840, Note_on_c, 1, 60, 70
3, 15932, Note_off_c, 1, 60, 100
3, 15936, Note_on_c, 1, 53, 70
3, 16028, Note_off_c, 1, 53, 100
3, 16032, Note_on_c, 1, 60, 70
3, 16124, Note_off_c, 1, 60, 100
3, 16128, Note_on_c, 1, 52, 70
3, 16508, Note_off_c, 1, 52, 100
3, 16896, Note_on_c, 1, 52, 100
3, 16988, Note_off_c, 1, 52, 100
3, 16992, Note_on_c, 1, 58, 100
3, 17084, Note_off_c, 1, 58, 100
3, 17088, Note_on_c, 1, 60, 100
3, 17180, Note_off_c, 1, 60, 100
3, 17184, Note_on_c, 1, 58, 100
3, 17276, Note_off_c, 1, 58, 100
3, 17280, Note_on_c, 1, 52, 100
3, 17372, Note_off_c, 1, 52, 100
3, 17376, Note_on_c, 1, 58, 100
3, 17468, Note_off_c, 1, 58, 100
3, 17472, Note_on_c, 1, 60, 100
3, 17564, Note_off_c, 1, 60, 100
3, 17568, Note_on_c, 1, 58, 100
3, 17660, Note_off_c, 1, 58, 100
3, 17664, Note_on_c, 1, 52, 100
3, 18044, Note_off_c, 1, 52, 100
3, 18432, Note_on_c, 1, 57, 70
3, 18524, Note_off_c, 1, 57, 100
3, 18528, Note_on_c, 1, 60, 70
3, 18620, Note_off_c, 1, 60, 100
3, 18624, Note_on_c, 1, 55, 70
3, 18716, Note_off_c, 1, 55, 100
3, 18720, Note_on_c, 1, 60, 70
3, 18812, Note_off_c, 1, 60, 100
3, 18816, Note_on_c, 1, 57, 70
3, 18908, Note_off_c, 1, 57, 100
3, 18912, Note_on_c, 1, 60, 70
3, 19004, Note_off_c, 1, 60, 100
3, 19008, Note_on_c, 1, 52, 70
3, 19100, Note_off_c, 1, 52, 100
3, 19104, Note_on_c, 1, 60, 70
3, 19196, Note_off_c, 1, 60, 100
3, 19200, Note_on_c, 1, 53, 70
3, 19580, Note_off_c, 1, 53, 100
3, 19968, Note_on_c, 1, 57, 70
3, 20060, Note_off_c, 1, 57, 100
3, 20064, Note_on_c, 1, 60, 70
3, 20156, Note_off_c, 1, 60, 100
3, 20160, Note_on_c, 1, 57, 70
3, 20252, Note_off_c, 1, 57, 100
3, 20256, Note_on_c, 1, 60, 70
3, 20348, Note_off_c, 1, 60, 100
3, 20352, Note_on_c, 1, 58, 70
3, 20444, Note_off_c, 1, 58, 100
3, 20448, Note_on_c, 1, 60, 70
3, 20540, Note_off_c, 1, 60, 100
3, 20544, Note_on_c, 1, 57, 70
3, 20636, Note_off_c, 1, 57, 100
3, 20640, Note_on_c, 1, 60, 70
3, 20732, Note_off_c, 1, 60, 100
3, 20736, Note_on_c, 1, 58, 70
3, 20828, Note_off_c, 1, 58, 100
3, 20832, Note_on_c, 1, 60, 70
3, 20924, Note_off_c, 1, 60, 100
3, 20928, Note_on_c, 1, 57, 70
3, 21020, Note_off_c, 1, 57, 100
3, 21024, Note_on_c, 1, 60, 70
3, 21116, Note_off_c, 1, 60, 100
3, 21504, Note_on_c, 1, 53, 70
3, 21596, Note_off_c, 1, 53, 100
3, 21600, Note_on_c, 1, 60, 70
3, 21692, Note_off_c, 1, 60, 100
3, 21696, Note_on_c, 1, 53, 70
3, 21788, Note_off_c, 1, 53, 100
3, 21792, Note_on_c, 1, 60, 70
3, 21884, Note_off_c, 1, 60, 100
3, 21888, Note_on_c, 1, 55, 70
3, 21980, Note_off_c, 1, 55, 100
3, 21984, Note_on_c, 1, 60, 70
3, 22076, Note_off_c, 1, 60, 100
3, 22080, Note_on_c, 1, 53, 70
3, 22172, Note_off_c, 1, 53, 100
3, 22176, Note_on_c, 1, 60, 70
3, 22268, Note_off_c, 1, 60, 100
3, 22272, Note_on_c, 1, 55, 70
3, 22364, Note_off_c, 1, 55, 100
3, 22368, Note_on_c, 1, 60, 70
3, 22460, Note_off_c, 1, 60, 100
3, 22464, Note_on_c, 1, 53, 70
3, 22556, Note_off_c, 1, 53, 100
3, 22560, Note_on_c, 1, 60, 70
3, 22652, Note_off_c, 1, 60, 100
3, 23040, Note_on_c, 1, 53, 100
3, 23040, Note_on_c, 1, 59, 100
3, 23804, Note_off_c, 1, 53, 100
3, 23804, Note_off_c, 1, 59, 100
3, 23808, Note_on_c, 1, 52, 100
3, 23808, Note_on_c, 1, 60, 100
3, 24572, Note_off_c, 1, 52, 100
3, 24572, Note_off_c, 1, 60, 100
3, 24576, Note_on_c, 1, 59, 100
3, 24576, Note_on_c, 1, 53, 100
3, 25340, Note_off_c, 1, 59, 100
3, 25340, Note_off_c, 1, 53, 100
3, 25344, Note_on_c, 1, 52, 100
3, 25344, Note_on_c, 1, 60, 100
3, 26108, Note_off_c, 1, 52, 100
3, 26108, Note_off_c, 1, 60, 100
3, 26304, Note_on_c, 1, 53, 100
3, 26492, Note_off_c, 1, 53, 100
3, 26496, Note_on_c, 1, 55, 100
3, 26684, Note_off_c, 1, 55, 100
3, 26688, Note_on_c, 1, 43, 100
3, 26876, Note_off_c, 1, 43, 100
3, 26880, Note_on_c, 1, 48, 100
3, 27260, Note_off_c, 1, 48, 100
3, 27648, Note_on_c, 1, 53, 100
3, 27740, Note_off_c, 1, 53, 100
3, 27744, Note_on_c, 1, 57, 100
3, 27836, Note_off_c, 1, 57, 100
3, 27840, Note_on_c, 1, 60, 100
3, 27932, Note_off_c, 1, 60, 100
3, 27936, Note_on_c, 1, 57, 100
3, 28028, Note_off_c, 1, 57, 100
3, 28032, Note_on_c, 1, 53, 100
3, 28124, Note_off_c, 1, 53, 100
3, 28128, Note_on_c, 1, 57, 100
3, 28220, Note_off_c, 1, 57, 100
3, 28224, Note_on_c, 1, 60, 100
3, 28316, Note_off_c, 1, 60, 100
3, 28320, Note_on_c, 1, 57, 100
3, 28412, Note_off_c, 1, 57, 100
3, 28416, Note_on_c, 1, 53, 100
3, 28796, Note_off_c, 1, 53, 100
3, 29184, Note_on_c, 1, 48, 70
3, 29276, Note_off_c, 1, 48, 100
3, 29280, Note_on_c, 1, 53, 70
3, 29372, Note_off_c, 1, 53, 100
3, 29376, Note_on_c, 1, 47, 70
3, 29468, Note_off_c, 1, 47, 100
3, 29472, Note_on_c, 1, 53, 70
3, 29564, Note_off_c, 1, 53, 100
3, 29568, Note_on_c, 1, 48, 70
3, 29660, Note_off_c, 1, 48, 100
3, 29664, Note_on_c, 1, 53, 70
3, 29756, Note_off_c, 1, 53, 100
3, 29760, Note_on_c, 1, 47, 70
3, 29852, Note_off_c, 1, 47, 100
3, 29856, Note_on_c, 1, 53, 70
3, 29948, Note_off_c, 1, 53, 100
3, 29952, Note_on_c, 1, 48, 70
3, 30332, Note_off_c, 1, 48, 100
3, 30720, Note_on_c, 1, 53, 100
3, 30812, Note_off_c, 1, 53, 100
3, 30816, Note_on_c, 1, 57, 100
3, 30908, Note_off_c, 1, 57, 100
3, 30912, Note_on_c, 1, 60, 100
3, 31004, Note_off_c, 1, 60, 100
3, 31008, Note_on_c, 1, 57, 100
3, 31100, Note_off_c, 1, 57, 100
3, 31104, Note_on_c, 1, 53, 100
3, 31196, Note_off_c, 1, 53, 100
3, 31200, Note_on_c, 1, 57, 100
3, 31292, Note_off_c, 1, 57, 100
3, 31296, Note_on_c, 1, 60, 100
3, 31388, Note_off_c, 1, 60, 100
3, 31392, Note_on_c, 1, 57, 100
3, 31484, Note_off_c, 1, 57, 100
3, 31488, Note_on_c, 1, 53, 100
3, 31868, Note_off_c, 1, 53, 100
3, 32256, Note_on_c, 1, 46, 70
3, 32348, Note_off_c, 1, 46, 100
3, 32352, Note_on_c, 1, 53, 70
3, 32444, Note_off_c, 1, 53, 100
3, 32448, Note_on_c, 1, 45, 70
3, 32540, Note_off_c, 1, 45, 100
3, 32544, Note_on_c, 1, 53, 70
3, 32636, Note_off_c, 1, 53, 100
3, 32640, Note_on_c, 1, 46, 70
3, 32732, Note_off_c, 1, 46, 100
3, 32736, Note_on_c, 1, 53, 70
3, 32828, Note_off_c, 1, 53, 100
3, 32832, Note_on_c, 1, 45, 70
3, 32924, Note_off_c, 1, 45, 100
3, 32928, Note_on_c, 1, 53, 70
3, 33020, Note_off_c, 1, 53, 100
3, 33024, Note_on_c, 1, 46, 70
3, 33404, Note_off_c, 1, 46, 100
3, 33792, Note_on_c, 1, 54, 70
3, 35324, Note_off_c, 1, 54, 100
3, 35328, Note_on_c, 1, 55, 70
3, 35516, Note_off_c, 1, 55, 100
3, 35520, Note_on_c, 1, 54, 70
3, 35708, Note_off_c, 1, 54, 100
3, 35712, Note_on_c, 1, 55, 70
3, 35900, Note_off_c, 1, 55, 100
3, 35904, Note_on_c, 1, 54, 70
3, 36092, Note_off_c, 1, 54, 100
3, 36096, Note_on_c, 1, 55, 70
3, 36284, Note_off_c, 1, 55, 100
3, 36288, Note_on_c, 1, 62, 70
3, 36476, Note_off_c, 1, 62, 100
3, 36480, Note_on_c, 1, 58, 70
3, 36668, Note_off_c, 1, 58, 100
3, 36672, Note_on_c, 1, 53, 70
3, 36860, Note_off_c, 1, 53, 100
3, 36864, Note_on_c, 1, 52, 70
3, 38396, Note_off_c, 1, 52, 100
3, 38400, Note_on_c, 1, 53, 70
3, 38588, Note_off_c, 1, 53, 100
3, 38592, Note_on_c, 1, 52, 70
3, 38780, Note_off_c, 1, 52, 100
3, 38784, Note_on_c, 1, 53, 70
3, 38972, Note_off_c, 1, 53, 100
3, 38976, Note_on_c, 1, 52, 70
3, 39164, Note_off_c, 1, 52, 100
3, 39168, Note_on_c, 1, 53, 70
3, 39356, Note_off_c, 1, 53, 100
3, 39360, Note_on_c, 1, 60, 70
3, 39548, Note_off_c, 1, 60, 100
3, 39552, Note_on_c, 1, 57, 70
3, 39740, Note_off_c, 1, 57, 100
3, 39744, Note_on_c, 1, 52, 70
3, 39932, Note_off_c, 1, 52, 100
3, 39936, Note_on_c, 1, 50, 70
3, 40700, Note_off_c, 1, 50, 100
3, 40704, Note_on_c, 1, 52, 70
3, 40892, Note_off_c, 1, 52, 100
3, 40896, Note_on_c, 1, 58, 70
3, 41084, Note_off_c, 1, 58, 100
3, 41088, Note_on_c, 1, 55, 70
3, 41276, Note_off_c, 1, 55, 100
3, 41280, Note_on_c, 1, 50, 70
3, 41468, Note_off_c, 1, 50, 100
3, 41472, Note_on_c, 1, 49, 70
3, 42236, Note_off_c, 1, 49, 100
3, 42240, Note_on_c, 1, 50, 70
3, 42428, Note_off_c, 1, 50, 100
3, 42432, Note_on_c, 1, 57, 70
3, 42620, Note_off_c, 1, 57, 100
3, 42624, Note_on_c, 1, 53, 70
3, 42812, Note_off_c, 1, 53, 100
3, 42816, Note_on_c, 1, 48, 70
3, 43004, Note_off_c, 1, 48, 100
3, 43008, Note_on_c, 1, 47, 70
3, 43388, Note_off_c, 1, 47, 100
3, 45312, Note_on_c, 1, 65, 100
3, 45312, Note_on_c, 1, 55, 100
3, 45692, Note_off_c, 1, 65, 100
3, 45692, Note_off_c, 1, 55, 100
3, 46080, Note_on_c, 1, 64, 110
3, 46080, Note_on_c, 1, 60, 110
3, 46268, Note_off_c, 1, 64, 100
3, 46268, Note_off_c, 1, 60, 100
3, 46272, Note_on_c, 1, 67, 110
3, 46460, Note_off_c, 1, 67, 100
3, 46464, Note_on_c, 1, 64, 110
3, 46464, Note_on_c, 1, 60, 110
3, 46652, Note_off_c, 1, 64, 100
3, 46652, Note_off_c, 1, 60, 100
3, 46656, Note_on_c, 1, 67, 110
3, 46844, Note_off_c, 1, 67, 100
3, 46848, Note_on_c, 1, 64, 110
3, 46848, Note_on_c, 1, 60, 110
3, 47036, Note_off_c, 1, 64, 100
3, 47036, Note_off_c, 1, 60, 100
3, 47040, Note_on_c, 1, 67, 110
3, 47228, Note_off_c, 1, 67, 100
3, 47232, Note_on_c, 1, 64, 110
3, 47232, Note_on_c, 1, 60, 110
3, 47420, Note_off_c, 1, 64, 100
3, 47420, Note_off_c, 1, 60, 100
3, 47424, Note_on_c, 1, 67, 110
3, 47612, Note_off_c, 1, 67, 100
3, 47616, Note_on_c, 1, 64, 110
3, 47616, Note_on_c, 1, 60, 110
3, 47804, Note_off_c, 1, 64, 100
3, 47804, Note_off_c, 1, 60, 100
3, 47808, Note_on_c, 1, 67, 110
3, 47996, Note_off_c, 1, 67, 100
3, 48000, Note_on_c, 1, 64, 110
3, 48000, Note_on_c, 1, 60, 110
3, 48188, Note_off_c, 1, 64, 100
3, 48188, Note_off_c, 1, 60, 100
3, 48192, Note_on_c, 1, 67, 110
3, 48380, Note_off_c, 1, 67, 100
3, 48384, Note_on_c, 1, 65, 110
3, 48384, Note_on_c, 1, 62, 110
3, 48572, Note_off_c, 1, 65, 100
3, 48572, Note_off_c, 1, 62, 100
3, 48576, Note_on_c, 1, 67, 110
3, 48764, Note_off_c, 1, 67, 100
3, 48768, Note_on_c, 1, 65, 110
3, 48768, Note_on_c, 1, 62, 110
3, 48956, Note_off_c, 1, 65, 100
3, 48956, Note_off_c, 1, 62, 100
3, 48960, Note_on_c, 1, 67, 110
3, 49148, Note_off_c, 1, 67, 100
3, 49152, Note_on_c, 1, 64, 110
3, 49152, Note_on_c, 1, 60, 110
3, 49340, Note_off_c, 1, 64, 100
3, 49340, Note_off_c, 1, 60, 100
3, 49920, Note_on_c, 1, 64, 94
3, 49920, Note_on_c, 1, 60, 94
3, 50108, Note_off_c, 1, 64, 100
3, 50108, Note_off_c, 1, 60, 100
3, 50688, Note_on_c, 1, 60, 82
3, 50688, Note_on_c, 1, 67, 82
3, 50876, Note_off_c, 1, 60, 100
3, 50876, Note_off_c, 1, 67, 100
3, 51456, Note_on_c, 1, 70, 70
3, 51456, Note_on_c, 1, 67, 70
3, 51456, Note_on_c, 1, 64, 70
3, 51644, Note_off_c, 1, 70, 100
3, 51644, Note_off_c, 1, 67, 100
3, 51644, Note_off_c, 1, 64, 100
3, 52224, Note_on_c, 1, 57, 70
3, 52316, Note_off_c, 1, 57, 100
3, 52320, Note_on_c, 1, 60, 70
3, 52412, Note_off_c, 1, 60, 100
3, 52416, Note_on_c, 1, 57, 70
3, 52508, Note_off_c, 1, 57, 100
3, 52512, Note_on_c, 1, 60, 70
3, 52604, Note_off_c, 1, 60, 100
3, 52608, Note_on_c, 1, 58, 70
3, 52700, Note_off_c, 1, 58, 100
3, 52704, Note_on_c, 1, 60, 70
3, 52796, Note_off_c, 1, 60, 100
3, 52800, Note_on_c, 1, 57, 70
3, 52892, Note_off_c, 1, 57, 100
3, 52896, Note_on_c, 1, 60, 70
3, 52988, Note_off_c, 1, 60, 100
3, 52992, Note_on_c, 1, 58, 70
3, 53084, Note_off_c, 1, 58, 100
3, 53088, Note_on_c, 1, 60, 70
3, 53180, Note_off_c, 1, 60, 100
3, 53184, Note_on_c, 1, 57, 70
3, 53276, Note_off_c, 1, 57, 100
3, 53280, Note_on_c, 1, 60, 70
3, 53372, Note_off_c, 1, 60, 100
3, 53760, Note_on_c, 1, 53, 70
3, 53852, Note_off_c, 1, 53, 100
3, 53856, Note_on_c, 1, 60, 70
3, 53948, Note_off_c, 1, 60, 100
3, 53952, Note_on_c, 1, 53, 70
3, 54044, Note_off_c, 1, 53, 100
3, 54048, Note_on_c, 1, 60, 70
3, 54140, Note_off_c, 1, 60, 100
3, 54144, Note_on_c, 1, 55, 70
3, 54236, Note_off_c, 1, 55, 100
3, 54240, Note_on_c, 1, 60, 70
3, 54332, Note_off_c, 1, 60, 100
3, 54336, Note_on_c, 1, 53, 70
3, 54428, Note_off_c, 1, 53, 100
3, 54432, Note_on_c, 1, 60, 70
3, 54524, Note_off_c, 1, 60, 100
3, 54528, Note_on_c, 1, 55, 70
3, 54620, Note_off_c, 1, 55, 100
3, 54624, Note_on_c, 1, 60, 70
3, 54716, Note_off_c, 1, 60, 100
3, 54720, Note_on_c, 1, 53, 70
3, 54812, Note_off_c, 1, 53, 100
3, 54816, Note_on_c, 1, 60, 70
3, 54908, Note_off_c, 1, 60, 100
3, 55296, Note_on_c, 1, 53, 100
3, 55296, Note_on_c, 1, 59, 100
3, 56060, Note_off_c, 1, 53, 100
3, 56060, Note_off_c, 1, 59, 100
3, 56064, Note_on_c, 1, 52, 100
3, 56064, Note_on_c, 1, 60, 100
3, 56444, Note_off_c, 1, 52, 100
3, 56444, Note_off_c, 1, 60, 100
3, 56832, Note_on_c, 1, 64, 100
3, 56832, Note_on_c, 1, 58, 100
3, 57596, Note_off_c, 1, 64, 100
3, 57596, Note_off_c, 1, 58, 100
3, 57600, Note_on_c, 1, 65, 100
3, 57600, Note_on_c, 1, 57, 100
3, 57980, Note_off_c, 1, 65, 100
3, 57980, Note_off_c, 1, 57, 100
3, 58560, Note_on_c, 1, 58, 100
3, 58748, Note_off_c, 1, 58, 100
3, 58752, Note_on_c, 1, 60, 100
3, 58940, Note_off_c, 1, 60, 100
3, 58944, Note_on_c, 1, 48, 100
3, 59132, Note_off_c, 1, 48, 100
3, 59136, Note_on_c, 1, 53, 100
3, 59516, Note_off_c, 1, 53, 100
3, 60096, Note_on_c, 1, 64, 100
3, 60284, Note_off_c, 1, 64, 100
3, 60288, Note_on_c, 1, 67, 100
3, 60476, Note_off_c, 1, 67, 100
3, 60480, Note_on_c, 1, 70, 100
3, 60668, Note_off_c, 1, 70, 100
3, 60672, Note_on_c, 1, 69, 100
3, 60672, Note_on_c, 1, 65, 100
3, 61052, Note_off_c, 1, 69, 100
3, 61052, Note_off_c, 1, 65, 100
3, 61632, Note_on_c, 1, 64, 100
3, 61820, Note_off_c, 1, 64, 100
3, 61824, Note_on_c, 1, 67, 100
3, 62012, Note_off_c, 1, 67, 100
3, 62016, Note_on_c, 1, 70, 100
3, 62204, Note_off_c, 1, 70, 100
3, 62208, Note_on_c, 1, 69, 100
3, 62208, Note_on_c, 1, 65, 100
3, 62588, Note_off_c, 1, 69, 100
3, 62588, Note_off_c, 1, 65, 100
3, 63168, Note_on_c, 1, 64, 100
3, 63356, Note_off_c, 1, 64, 100
3, 63360, Note_on_c, 1, 67, 100
3, 63548, Note_off_c, 1, 67, 100
3, 63552, Note_on_c, 1, 70, 100
3, 63740, Note_off_c, 1, 70, 100
3, 63744, Note_on_c, 1, 67, 100
3, 63932, Note_off_c, 1, 67, 100
3, 63936, Note_on_c, 1, 64, 100
3, 64124, Note_off_c, 1, 64, 100
3, 64128, Note_on_c, 1, 67, 100
3, 64316, Note_off_c, 1, 67, 100
3, 64320, Note_on_c, 1, 70, 100
3, 64508, Note_off_c, 1, 70, 100
3, 64512, Note_on_c, 1, 69, 100
3, 64512, Note_on_c, 1, 65, 100
3, 64892, Note_off_c, 1, 69, 100
3, 64892, Note_off_c, 1, 65, 100
3, 65280, Note_on_c, 1, 67, 100
3, 65280, Note_on_c, 1, 60, 100
3, 65660, Note_off_c, 1, 67, 100
3, 65660, Note_off_c, 1, 60, 100
3, 66048, Note_on_c, 1, 65, 100
3, 66048, Note_on_c, 1, 60, 100
3, 66428, Note_off_c, 1, 65, 100
3, 66428, Note_off_c, 1, 60, 100
3, 66816, Note_on_c, 1, 48, 100
3, 66816, Note_on_c, 1, 60, 100
3, 67196, Note_off_c, 1, 48, 100
3, 67196, Note_off_c, 1, 60, 100
3, 67584, Note_on_c, 1, 41, 100
3, 67584, Note_on_c, 1, 53, 100
3, 68156, Note_off_c, 1, 41, 100
3, 68156, Note_off_c, 1, 53, 100
3, 68156, End_track
0, 0, End_of_file
