0, 0, Header, 1, 3, 384
1, 0, Start_track
1, 0, Title_t, "L.v.Beethoven 2mov - Sonatina in F Major Anh.5-2\000"
1, 0, Copyright_t, "Copyright(C) 1995-2009, Suzuki Software\000"
1, 0, Sequencer_specific, 9, 67, 123, 0, 88, 70, 48, 50, 0, 1
1, 0, Text_t, "XFhd:2009/04/19:JP:Classical::::L.v.Beethoven:::Kaoru Suzuki\000"
1, 0, Text_t, "XFln:JP:\203\\\203i\203^ \203w\222·\222² Anh.5-2\201`\221æ2\212y\217Í:L.v.\203x\201[\203g\201[\203\224\203F\203\223:::\227é\202¿\202á\202ñ:\227é\202¿\202á\202ñ\000"
1, 0, Time_signature, 2, 2, 96, 8
1, 0, Sequencer_specific, 5, 0, 0, 119, 14, 0
1, 0, Tempo, 416666
1, 11328, Tempo, 428571
1, 11520, Tempo, 461538
1, 12288, Tempo, 416666
1, 19584, Tempo, 428571
1, 19776, Tempo, 447761
1, 20160, Tempo, 416666
1, 26496, Tempo, 428571
1, 26688, Tempo, 444444
1, 27648, Tempo, 416666
1, 34944, Tempo, 428571
1, 35136, Tempo, 447761
1, 35520, Tempo, 416666
1, 41856, Tempo, 428571
1, 42048, Tempo, 444444
1, 43008, Tempo, 416666
1, 50688, Tempo, 428571
1, 51072, Tempo, 441176
1, 51264, Tempo, 461538
1, 52224, Tempo, 416666
1, 59904, Tempo, 428571
1, 60288, Tempo, 441176
1, 60480, Tempo, 461538
1, 61440, Tempo, 416666
1, 68352, Tempo, 428571
1, 68736, Tempo, 441176
1, 68928, Tempo, 461538
1, 69120, Tempo, 416666
1, 73728, Tempo, 428571
1, 74112, Tempo, 441176
1, 74304, Tempo, 461538
1, 75264, Tempo, 416666
1, 82176, Tempo, 428571
1, 82560, Tempo, 441176
1, 82752, Tempo, 461538
1, 82944, Tempo, 416666
1, 87552, Tempo, 428571
1, 87936, Tempo, 441176
1, 88128, Tempo, 461538
1, 89088, Tempo, 428571
1, 90816, Tempo, 441176
1, 91584, Tempo, 461538
1, 92544, Tempo, 500000
1, 95616, Tempo, 545454
1, 95808, Tempo, 600000
1, 96000, Tempo, 428571
1, 96192, Tempo, 416666
1, 106752, Tempo, 428571
1, 107136, Tempo, 441176
1, 107328, Tempo, 461538
1, 109056, Tempo, 500000
1, 110208, Tempo, 600000
1, 110208, End_track
2, 0, Start_track
2, 0, Title_t, "Piano Right"
2, 0, Control_c, 0, 0, 0
2, 0, Program_c, 0, 0
2, 0, Control_c, 0, 7, 100
2, 0, Control_c, 0, 10, 77
2, 0, Control_c, 0, 91, 127
2, 0, Key_signature, -1, "major"
2, 0, Note_on_c, 0, 72, 70
2, 188, Note_off_c, 0, 72, 100
2, 192, Note_on_c, 0, 77, 70
2, 380, Note_off_c, 0, 77, 100
2, 384, Note_on_c, 0, 71, 70
2, 572, Note_off_c, 0, 71, 100
2, 576, Note_on_c, 0, 77, 70
2, 764, Note_off_c, 0, 77, 100
2, 768, Note_on_c, 0, 72, 70
2, 1340, Note_off_c, 0, 72, 100
2, 1344, Note_on_c, 0, 73, 93
2, 1532, Note_off_c, 0, 73, 100
2, 1536, Note_on_c, 0, 74, 100
2, 1724, Note_off_c, 0, 74, 100
2, 1728, Note_on_c, 0, 77, 100
2, 1916, Note_off_c, 0, 77, 100
2, 1920, Note_on_c, 0, 73, 100
2, 2108, Note_off_c, 0, 73, 100
2, 2112, Note_on_c, 0, 77, 100
2, 2300, Note_off_c, 0, 77, 100
2, 2304, Note_on_c, 0, 74, 100
2, 2876, Note_off_c, 0, 74, 100
2, 2880, Note_on_c, 0, 79, 100
2, 2928, Note_on_c, 0, 77, 100
2, 2972, Note_off_c, 0, 79, 100
2, 2976, Note_on_c, 0, 76, 100
2, 3020, Note_off_c, 0, 77, 100
2, 3024, Note_on_c, 0, 77, 100
2, 3068, Note_off_c, 0, 76, 100
2, 3068, Note_off_c, 0, 77, 100
2, 3072, Note_on_c, 0, 76, 110
2, 3260, Note_off_c, 0, 76, 100
2, 3264, Note_on_c, 0, 84, 110
2, 3452, Note_off_c, 0, 84, 100
2, 3456, Note_on_c, 0, 84, 110
2, 3644, Note_off_c, 0, 84, 100
2, 3648, Note_on_c, 0, 84, 110
2, 3836, Note_off_c, 0, 84, 100
2, 3840, Note_on_c, 0, 84, 110
2, 4220, Note_off_c, 0, 84, 100
2, 4224, Note_on_c, 0, 81, 110
2, 4316, Note_off_c, 0, 81, 100
2, 4320, Note_on_c, 0, 77, 110
2, 4412, Note_off_c, 0, 77, 100
2, 4416, Note_on_c, 0, 81, 110
2, 4508, Note_off_c, 0, 81, 100
2, 4512, Note_on_c, 0, 84, 110
2, 4604, Note_off_c, 0, 84, 100
2, 4608, Note_on_c, 0, 82, 110
2, 4796, Note_off_c, 0, 82, 100
2, 4800, Note_on_c, 0, 79, 110
2, 4892, Note_off_c, 0, 79, 100
2, 4896, Note_on_c, 0, 82, 110
2, 4988, Note_off_c, 0, 82, 100
2, 4992, Note_on_c, 0, 81, 110
2, 5180, Note_off_c, 0, 81, 100
2, 5184, Note_on_c, 0, 77, 110
2, 5276, Note_off_c, 0, 77, 100
2, 5280, Note_on_c, 0, 81, 110
2, 5372, Note_off_c, 0, 81, 100
2, 5376, Note_on_c, 0, 79, 110
2, 5564, Note_off_c, 0, 79, 100
2, 5568, Note_on_c, 0, 81, 100
2, 5660, Note_off_c, 0, 81, 100
2, 5664, Note_on_c, 0, 79, 94
2, 5756, Note_off_c, 0, 79, 100
2, 5760, Note_on_c, 0, 77, 88
2, 5852, Note_off_c, 0, 77, 100
2, 5856, Note_on_c, 0, 76, 82
2, 5948, Note_off_c, 0, 76, 100
2, 5952, Note_on_c, 0, 74, 76
2, 6044, Note_off_c, 0, 74, 100
2, 6048, Note_on_c, 0, 72, 70
2, 6140, Note_off_c, 0, 72, 100
2, 6144, Note_on_c, 0, 72, 70
2, 6332, Note_off_c, 0, 72, 100
2, 6336, Note_on_c, 0, 77, 70
2, 6524, Note_off_c, 0, 77, 100
2, 6528, Note_on_c, 0, 71, 70
2, 6716, Note_off_c, 0, 71, 100
2, 6720, Note_on_c, 0, 77, 70
2, 6908, Note_off_c, 0, 77, 100
2, 6912, Note_on_c, 0, 72, 70
2, 7484, Note_off_c, 0, 72, 100
2, 7488, Note_on_c, 0, 73, 93
2, 7676, Note_off_c, 0, 73, 100
2, 7680, Note_on_c, 0, 74, 100
2, 7868, Note_off_c, 0, 74, 100
2, 7872, Note_on_c, 0, 77, 100
2, 8060, Note_off_c, 0, 77, 100
2, 8064, Note_on_c, 0, 73, 100
2, 8252, Note_off_c, 0, 73, 100
2, 8256, Note_on_c, 0, 77, 100
2, 8444, Note_off_c, 0, 77, 100
2, 8448, Note_on_c, 0, 74, 100
2, 9020, Note_off_c, 0, 74, 100
2, 9024, Note_on_c, 0, 79, 100
2, 9072, Note_on_c, 0, 77, 100
2, 9116, Note_off_c, 0, 79, 100
2, 9120, Note_on_c, 0, 76, 100
2, 9164, Note_off_c, 0, 77, 100
2, 9168, Note_on_c, 0, 77, 100
2, 9212, Note_off_c, 0, 76, 100
2, 9212, Note_off_c, 0, 77, 100
2, 9216, Note_on_c, 0, 76, 110
2, 9404, Note_off_c, 0, 76, 100
2, 9408, Note_on_c, 0, 84, 110
2, 9596, Note_off_c, 0, 84, 100
2, 9600, Note_on_c, 0, 84, 110
2, 9788, Note_off_c, 0, 84, 100
2, 9792, Note_on_c, 0, 84, 110
2, 9980, Note_off_c, 0, 84, 100
2, 9984, Note_on_c, 0, 84, 110
2, 10364, Note_off_c, 0, 84, 100
2, 10368, Note_on_c, 0, 82, 110
2, 10460, Note_off_c, 0, 82, 100
2, 10464, Note_on_c, 0, 81, 110
2, 10556, Note_off_c, 0, 81, 100
2, 10560, Note_on_c, 0, 79, 110
2, 10652, Note_off_c, 0, 79, 100
2, 10656, Note_on_c, 0, 77, 110
2, 10748, Note_off_c, 0, 77, 100
2, 10752, Note_on_c, 0, 79, 110
2, 10940, Note_off_c, 0, 79, 100
2, 10944, Note_on_c, 0, 79, 110
2, 11036, Note_off_c, 0, 79, 100
2, 11040, Note_on_c, 0, 82, 110
2, 11132, Note_off_c, 0, 82, 100
2, 11136, Note_on_c, 0, 76, 110
2, 11324, Note_off_c, 0, 76, 100
2, 11328, Note_on_c, 0, 76, 110
2, 11420, Note_off_c, 0, 76, 100
2, 11424, Note_on_c, 0, 79, 110
2, 11516, Note_off_c, 0, 79, 100
2, 11520, Note_on_c, 0, 77, 110
2, 11900, Note_off_c, 0, 77, 100
2, 12288, Note_on_c, 0, 79, 100
2, 12476, Note_off_c, 0, 79, 100
2, 12480, Note_on_c, 0, 79, 100
2, 12668, Note_off_c, 0, 79, 100
2, 12672, Note_on_c, 0, 78, 100
2, 12860, Note_off_c, 0, 78, 100
2, 12864, Note_on_c, 0, 78, 100
2, 13052, Note_off_c, 0, 78, 100
2, 13056, Note_on_c, 0, 79, 100
2, 13244, Note_off_c, 0, 79, 100
2, 13248, Note_on_c, 0, 81, 100
2, 13340, Note_off_c, 0, 81, 100
2, 13344, Note_on_c, 0, 83, 100
2, 13436, Note_off_c, 0, 83, 100
2, 13440, Note_on_c, 0, 84, 100
2, 13532, Note_off_c, 0, 84, 100
2, 13536, Note_on_c, 0, 83, 100
2, 13628, Note_off_c, 0, 83, 100
2, 13632, Note_on_c, 0, 81, 100
2, 13724, Note_off_c, 0, 81, 100
2, 13728, Note_on_c, 0, 79, 100
2, 13820, Note_off_c, 0, 79, 100
2, 13824, Note_on_c, 0, 77, 100
2, 14012, Note_off_c, 0, 77, 100
2, 14016, Note_on_c, 0, 77, 100
2, 14204, Note_off_c, 0, 77, 100
2, 14208, Note_on_c, 0, 76, 100
2, 14396, Note_off_c, 0, 76, 100
2, 14400, Note_on_c, 0, 76, 100
2, 14588, Note_off_c, 0, 76, 100
2, 14592, Note_on_c, 0, 77, 100
2, 14780, Note_off_c, 0, 77, 100
2, 14784, Note_on_c, 0, 83, 100
2, 14876, Note_off_c, 0, 83, 100
2, 14880, Note_on_c, 0, 84, 100
2, 14972, Note_off_c, 0, 84, 100
2, 14976, Note_on_c, 0, 86, 100
2, 15068, Note_off_c, 0, 86, 100
2, 15072, Note_on_c, 0, 83, 100
2, 15164, Note_off_c, 0, 83, 100
2, 15168, Note_on_c, 0, 79, 100
2, 15260, Note_off_c, 0, 79, 100
2, 15264, Note_on_c, 0, 77, 100
2, 15356, Note_off_c, 0, 77, 100
2, 15360, Note_on_c, 0, 76, 100
2, 15452, Note_off_c, 0, 76, 100
2, 15456, Note_on_c, 0, 79, 100
2, 15548, Note_off_c, 0, 79, 100
2, 15552, Note_on_c, 0, 81, 100
2, 15644, Note_off_c, 0, 81, 100
2, 15648, Note_on_c, 0, 79, 100
2, 15740, Note_off_c, 0, 79, 100
2, 15744, Note_on_c, 0, 84, 100
2, 15836, Note_off_c, 0, 84, 100
2, 15840, Note_on_c, 0, 83, 100
2, 15932, Note_off_c, 0, 83, 100
2, 15936, Note_on_c, 0, 81, 100
2, 16028, Note_off_c, 0, 81, 100
2, 16032, Note_on_c, 0, 79, 100
2, 16124, Note_off_c, 0, 79, 100
2, 16128, Note_on_c, 0, 77, 100
2, 16220, Note_off_c, 0, 77, 100
2, 16224, Note_on_c, 0, 83, 100
2, 16316, Note_off_c, 0, 83, 100
2, 16320, Note_on_c, 0, 86, 100
2, 16412, Note_off_c, 0, 86, 100
2, 16416, Note_on_c, 0, 84, 100
2, 16508, Note_off_c, 0, 84, 100
2, 16512, Note_on_c, 0, 83, 100
2, 16604, Note_off_c, 0, 83, 100
2, 16608, Note_on_c, 0, 81, 100
2, 16700, Note_off_c, 0, 81, 100
2, 16704, Note_on_c, 0, 79, 100
2, 16796, Note_off_c, 0, 79, 100
2, 16800, Note_on_c, 0, 77, 100
2, 16892, Note_off_c, 0, 77, 100
2, 16896, Note_on_c, 0, 76, 100
2, 16988, Note_off_c, 0, 76, 100
2, 16992, Note_on_c, 0, 79, 100
2, 17084, Note_off_c, 0, 79, 100
2, 17088, Note_on_c, 0, 81, 100
2, 17180, Note_off_c, 0, 81, 100
2, 17184, Note_on_c, 0, 79, 100
2, 17276, Note_off_c, 0, 79, 100
2, 17280, Note_on_c, 0, 84, 100
2, 17372, Note_off_c, 0, 84, 100
2, 17376, Note_on_c, 0, 83, 100
2, 17468, Note_off_c, 0, 83, 100
2, 17472, Note_on_c, 0, 81, 100
2, 17564, Note_off_c, 0, 81, 100
2, 17568, Note_on_c, 0, 79, 100
2, 17660, Note_off_c, 0, 79, 100
2, 17664, Note_on_c, 0, 77, 100
2, 17756, Note_off_c, 0, 77, 100
2, 17760, Note_on_c, 0, 83, 100
2, 17852, Note_off_c, 0, 83, 100
2, 17856, Note_on_c, 0, 86, 100
2, 17948, Note_off_c, 0, 86, 100
2, 17952, Note_on_c, 0, 84, 100
2, 18044, Note_off_c, 0, 84, 100
2, 18048, Note_on_c, 0, 83, 100
2, 18140, Note_off_c, 0, 83, 100
2, 18144, Note_on_c, 0, 81, 100
2, 18236, Note_off_c, 0, 81, 100
2, 18240, Note_on_c, 0, 79, 100
2, 18332, Note_off_c, 0, 79, 100
2, 18336, Note_on_c, 0, 77, 100
2, 18428, Note_off_c, 0, 77, 100
2, 18432, Note_on_c, 0, 76, 100
2, 18528, Note_on_c, 0, 84, 100
2, 18620, Note_off_c, 0, 76, 100
2, 18624, Note_on_c, 0, 79, 100
2, 18716, Note_off_c, 0, 84, 100
2, 18720, Note_on_c, 0, 76, 100
2, 18812, Note_off_c, 0, 79, 100
2, 18816, Note_on_c, 0, 74, 100
2, 18908, Note_off_c, 0, 76, 100
2, 18912, Note_on_c, 0, 81, 100
2, 19004, Note_off_c, 0, 74, 100
2, 19008, Note_on_c, 0, 77, 100
2, 19100, Note_off_c, 0, 81, 100
2, 19104, Note_on_c, 0, 74, 100
2, 19196, Note_off_c, 0, 77, 100
2, 19200, Note_on_c, 0, 72, 100
2, 19292, Note_off_c, 0, 74, 100
2, 19296, Note_on_c, 0, 79, 100
2, 19388, Note_off_c, 0, 72, 100
2, 19392, Note_on_c, 0, 76, 100
2, 19484, Note_off_c, 0, 79, 100
2, 19488, Note_on_c, 0, 72, 100
2, 19580, Note_off_c, 0, 76, 100
2, 19584, Note_on_c, 0, 71, 100
2, 19676, Note_off_c, 0, 72, 100
2, 19680, Note_on_c, 0, 77, 100
2, 19772, Note_off_c, 0, 71, 100
2, 19776, Note_on_c, 0, 74, 100
2, 19868, Note_off_c, 0, 77, 100
2, 19872, Note_on_c, 0, 71, 100
2, 19964, Note_off_c, 0, 74, 100
2, 19964, Note_off_c, 0, 71, 100
2, 19968, Note_on_c, 0, 72, 100
2, 20156, Note_off_c, 0, 72, 100
2, 20160, Note_on_c, 0, 60, 100
2, 20252, Note_off_c, 0, 60, 100
2, 20256, Note_on_c, 0, 61, 100
2, 20348, Note_off_c, 0, 61, 100
2, 20352, Note_on_c, 0, 62, 100
2, 20444, Note_off_c, 0, 62, 100
2, 20448, Note_on_c, 0, 63, 100
2, 20540, Note_off_c, 0, 63, 100
2, 20544, Note_on_c, 0, 64, 100
2, 20636, Note_off_c, 0, 64, 100
2, 20640, Note_on_c, 0, 65, 100
2, 20732, Note_off_c, 0, 65, 100
2, 20736, Note_on_c, 0, 66, 100
2, 20828, Note_off_c, 0, 66, 100
2, 20832, Note_on_c, 0, 67, 100
2, 20924, Note_off_c, 0, 67, 100
2, 20928, Note_on_c, 0, 68, 100
2, 21020, Note_off_c, 0, 68, 100
2, 21024, Note_on_c, 0, 69, 100
2, 21116, Note_off_c, 0, 69, 100
2, 21120, Note_on_c, 0, 70, 100
2, 21212, Note_off_c, 0, 70, 100
2, 21216, Note_on_c, 0, 71, 95
2, 21308, Note_off_c, 0, 71, 100
2, 21312, Note_on_c, 0, 72, 85
2, 21404, Note_off_c, 0, 72, 100
2, 21408, Note_on_c, 0, 71, 75
2, 21500, Note_off_c, 0, 71, 100
2, 21504, Note_on_c, 0, 72, 70
2, 21692, Note_off_c, 0, 72, 100
2, 21696, Note_on_c, 0, 77, 70
2, 21884, Note_off_c, 0, 77, 100
2, 21888, Note_on_c, 0, 71, 70
2, 22076, Note_off_c, 0, 71, 100
2, 22080, Note_on_c, 0, 77, 70
2, 22268, Note_off_c, 0, 77, 100
2, 22272, Note_on_c, 0, 72, 70
2, 22844, Note_off_c, 0, 72, 100
2, 22848, Note_on_c, 0, 73, 93
2, 23036, Note_off_c, 0, 73, 100
2, 23040, Note_on_c, 0, 74, 100
2, 23228, Note_off_c, 0, 74, 100
2, 23232, Note_on_c, 0, 77, 100
2, 23420, Note_off_c, 0, 77, 100
2, 23424, Note_on_c, 0, 73, 100
2, 23612, Note_off_c, 0, 73, 100
2, 23616, Note_on_c, 0, 77, 100
2, 23804, Note_off_c, 0, 77, 100
2, 23808, Note_on_c, 0, 74, 100
2, 24380, Note_off_c, 0, 74, 100
2, 24384, Note_on_c, 0, 79, 100
2, 24432, Note_on_c, 0, 77, 100
2, 24476, Note_off_c, 0, 79, 100
2, 24480, Note_on_c, 0, 76, 100
2, 24524, Note_off_c, 0, 77, 100
2, 24528, Note_on_c, 0, 77, 100
2, 24572, Note_off_c, 0, 76, 100
2, 24572, Note_off_c, 0, 77, 100
2, 24576, Note_on_c, 0, 76, 110
2, 24764, Note_off_c, 0, 76, 100
2, 24768, Note_on_c, 0, 84, 110
2, 24956, Note_off_c, 0, 84, 100
2, 24960, Note_on_c, 0, 84, 110
2, 25148, Note_off_c, 0, 84, 100
2, 25152, Note_on_c, 0, 84, 110
2, 25340, Note_off_c, 0, 84, 100
2, 25344, Note_on_c, 0, 84, 110
2, 25724, Note_off_c, 0, 84, 100
2, 25728, Note_on_c, 0, 82, 110
2, 25820, Note_off_c, 0, 82, 100
2, 25824, Note_on_c, 0, 81, 110
2, 25916, Note_off_c, 0, 81, 100
2, 25920, Note_on_c, 0, 79, 110
2, 26012, Note_off_c, 0, 79, 100
2, 26016, Note_on_c, 0, 77, 110
2, 26108, Note_off_c, 0, 77, 100
2, 26112, Note_on_c, 0, 79, 110
2, 26300, Note_off_c, 0, 79, 100
2, 26304, Note_on_c, 0, 79, 110
2, 26396, Note_off_c, 0, 79, 100
2, 26400, Note_on_c, 0, 82, 110
2, 26492, Note_off_c, 0, 82, 100
2, 26496, Note_on_c, 0, 76, 110
2, 26684, Note_off_c, 0, 76, 100
2, 26688, Note_on_c, 0, 76, 110
2, 26780, Note_off_c, 0, 76, 100
2, 26784, Note_on_c, 0, 79, 110
2, 26876, Note_off_c, 0, 79, 100
2, 26880, Note_on_c, 0, 77, 110
2, 27260, Note_off_c, 0, 77, 100
2, 27648, Note_on_c, 0, 79, 100
2, 27836, Note_off_c, 0, 79, 100
2, 27840, Note_on_c, 0, 79, 100
2, 28028, Note_off_c, 0, 79, 100
2, 28032, Note_on_c, 0, 78, 100
2, 28220, Note_off_c, 0, 78, 100
2, 28224, Note_on_c, 0, 78, 100
2, 28412, Note_off_c, 0, 78, 100
2, 28416, Note_on_c, 0, 79, 100
2, 28604, Note_off_c, 0, 79, 100
2, 28608, Note_on_c, 0, 81, 100
2, 28700, Note_off_c, 0, 81, 100
2, 28704, Note_on_c, 0, 83, 100
2, 28796, Note_off_c, 0, 83, 100
2, 28800, Note_on_c, 0, 84, 100
2, 28892, Note_off_c, 0, 84, 100
2, 28896, Note_on_c, 0, 83, 100
2, 28988, Note_off_c, 0, 83, 100
2, 28992, Note_on_c, 0, 81, 100
2, 29084, Note_off_c, 0, 81, 100
2, 29088, Note_on_c, 0, 79, 100
2, 29180, Note_off_c, 0, 79, 100
2, 29184, Note_on_c, 0, 77, 100
2, 29372, Note_off_c, 0, 77, 100
2, 29376, Note_on_c, 0, 77, 100
2, 29564, Note_off_c, 0, 77, 100
2, 29568, Note_on_c, 0, 76, 100
2, 29756, Note_off_c, 0, 76, 100
2, 29760, Note_on_c, 0, 76, 100
2, 29948, Note_off_c, 0, 76, 100
2, 29952, Note_on_c, 0, 77, 100
2, 30140, Note_off_c, 0, 77, 100
2, 30144, Note_on_c, 0, 83, 100
2, 30236, Note_off_c, 0, 83, 100
2, 30240, Note_on_c, 0, 84, 100
2, 30332, Note_off_c, 0, 84, 100
2, 30336, Note_on_c, 0, 86, 100
2, 30428, Note_off_c, 0, 86, 100
2, 30432, Note_on_c, 0, 83, 100
2, 30524, Note_off_c, 0, 83, 100
2, 30528, Note_on_c, 0, 79, 100
2, 30620, Note_off_c, 0, 79, 100
2, 30624, Note_on_c, 0, 77, 100
2, 30716, Note_off_c, 0, 77, 100
2, 30720, Note_on_c, 0, 76, 100
2, 30812, Note_off_c, 0, 76, 100
2, 30816, Note_on_c, 0, 79, 100
2, 30908, Note_off_c, 0, 79, 100
2, 30912, Note_on_c, 0, 81, 100
2, 31004, Note_off_c, 0, 81, 100
2, 31008, Note_on_c, 0, 79, 100
2, 31100, Note_off_c, 0, 79, 100
2, 31104, Note_on_c, 0, 84, 100
2, 31196, Note_off_c, 0, 84, 100
2, 31200, Note_on_c, 0, 83, 100
2, 31292, Note_off_c, 0, 83, 100
2, 31296, Note_on_c, 0, 81, 100
2, 31388, Note_off_c, 0, 81, 100
2, 31392, Note_on_c, 0, 79, 100
2, 31484, Note_off_c, 0, 79, 100
2, 31488, Note_on_c, 0, 77, 100
2, 31580, Note_off_c, 0, 77, 100
2, 31584, Note_on_c, 0, 83, 100
2, 31676, Note_off_c, 0, 83, 100
2, 31680, Note_on_c, 0, 86, 100
2, 31772, Note_off_c, 0, 86, 100
2, 31776, Note_on_c, 0, 84, 100
2, 31868, Note_off_c, 0, 84, 100
2, 31872, Note_on_c, 0, 83, 100
2, 31964, Note_off_c, 0, 83, 100
2, 31968, Note_on_c, 0, 81, 100
2, 32060, Note_off_c, 0, 81, 100
2, 32064, Note_on_c, 0, 79, 100
2, 32156, Note_off_c, 0, 79, 100
2, 32160, Note_on_c, 0, 77, 100
2, 32252, Note_off_c, 0, 77, 100
2, 32256, Note_on_c, 0, 76, 100
2, 32348, Note_off_c, 0, 76, 100
2, 32352, Note_on_c, 0, 79, 100
2, 32444, Note_off_c, 0, 79, 100
2, 32448, Note_on_c, 0, 81, 100
2, 32540, Note_off_c, 0, 81, 100
2, 32544, Note_on_c, 0, 79, 100
2, 32636, Note_off_c, 0, 79, 100
2, 32640, Note_on_c, 0, 84, 100
2, 32732, Note_off_c, 0, 84, 100
2, 32736, Note_on_c, 0, 83, 100
2, 32828, Note_off_c, 0, 83, 100
2, 32832, Note_on_c, 0, 81, 100
2, 32924, Note_off_c, 0, 81, 100
2, 32928, Note_on_c, 0, 79, 100
2, 33020, Note_off_c, 0, 79, 100
2, 33024, Note_on_c, 0, 77, 100
2, 33116, Note_off_c, 0, 77, 100
2, 33120, Note_on_c, 0, 83, 100
2, 33212, Note_off_c, 0, 83, 100
2, 33216, Note_on_c, 0, 86, 100
2, 33308, Note_off_c, 0, 86, 100
2, 33312, Note_on_c, 0, 84, 100
2, 33404, Note_off_c, 0, 84, 100
2, 33408, Note_on_c, 0, 83, 100
2, 33500, Note_off_c, 0, 83, 100
2, 33504, Note_on_c, 0, 81, 100
2, 33596, Note_off_c, 0, 81, 100
2, 33600, Note_on_c, 0, 79, 100
2, 33692, Note_off_c, 0, 79, 100
2, 33696, Note_on_c, 0, 77, 100
2, 33788, Note_off_c, 0, 77, 100
2, 33792, Note_on_c, 0, 76, 100
2, 33888, Note_on_c, 0, 84, 100
2, 33980, Note_off_c, 0, 76, 100
2, 33984, Note_on_c, 0, 79, 100
2, 34076, Note_off_c, 0, 84, 100
2, 34080, Note_on_c, 0, 76, 100
2, 34172, Note_off_c, 0, 79, 100
2, 34176, Note_on_c, 0, 74, 100
2, 34268, Note_off_c, 0, 76, 100
2, 34272, Note_on_c, 0, 81, 100
2, 34364, Note_off_c, 0, 74, 100
2, 34368, Note_on_c, 0, 77, 100
2, 34460, Note_off_c, 0, 81, 100
2, 34464, Note_on_c, 0, 74, 100
2, 34556, Note_off_c, 0, 77, 100
2, 34560, Note_on_c, 0, 72, 100
2, 34652, Note_off_c, 0, 74, 100
2, 34656, Note_on_c, 0, 79, 100
2, 34748, Note_off_c, 0, 72, 100
2, 34752, Note_on_c, 0, 76, 100
2, 34844, Note_off_c, 0, 79, 100
2, 34848, Note_on_c, 0, 72, 100
2, 34940, Note_off_c, 0, 76, 100
2, 34944, Note_on_c, 0, 71, 100
2, 35036, Note_off_c, 0, 72, 100
2, 35040, Note_on_c, 0, 77, 100
2, 35132, Note_off_c, 0, 71, 100
2, 35136, Note_on_c, 0, 74, 100
2, 35228, Note_off_c, 0, 77, 100
2, 35232, Note_on_c, 0, 71, 100
2, 35324, Note_off_c, 0, 74, 100
2, 35324, Note_off_c, 0, 71, 100
2, 35328, Note_on_c, 0, 72, 100
2, 35516, Note_off_c, 0, 72, 100
2, 35520, Note_on_c, 0, 60, 100
2, 35612, Note_off_c, 0, 60, 100
2, 35616, Note_on_c, 0, 61, 100
2, 35708, Note_off_c, 0, 61, 100
2, 35712, Note_on_c, 0, 62, 100
2, 35804, Note_off_c, 0, 62, 100
2, 35808, Note_on_c, 0, 63, 100
2, 35900, Note_off_c, 0, 63, 100
2, 35904, Note_on_c, 0, 64, 100
2, 35996, Note_off_c, 0, 64, 100
2, 36000, Note_on_c, 0, 65, 100
2, 36092, Note_off_c, 0, 65, 100
2, 36096, Note_on_c, 0, 66, 100
2, 36188, Note_off_c, 0, 66, 100
2, 36192, Note_on_c, 0, 67, 100
2, 36284, Note_off_c, 0, 67, 100
2, 36288, Note_on_c, 0, 68, 100
2, 36380, Note_off_c, 0, 68, 100
2, 36384, Note_on_c, 0, 69, 100
2, 36476, Note_off_c, 0, 69, 100
2, 36480, Note_on_c, 0, 70, 100
2, 36572, Note_off_c, 0, 70, 100
2, 36576, Note_on_c, 0, 71, 95
2, 36668, Note_off_c, 0, 71, 100
2, 36672, Note_on_c, 0, 72, 85
2, 36764, Note_off_c, 0, 72, 100
2, 36768, Note_on_c, 0, 71, 75
2, 36860, Note_off_c, 0, 71, 100
2, 36864, Note_on_c, 0, 72, 70
2, 37052, Note_off_c, 0, 72, 100
2, 37056, Note_on_c, 0, 77, 70
2, 37244, Note_off_c, 0, 77, 100
2, 37248, Note_on_c, 0, 71, 70
2, 37436, Note_off_c, 0, 71, 100
2, 37440, Note_on_c, 0, 77, 70
2, 37628, Note_off_c, 0, 77, 100
2, 37632, Note_on_c, 0, 72, 70
2, 38204, Note_off_c, 0, 72, 100
2, 38208, Note_on_c, 0, 73, 93
2, 38396, Note_off_c, 0, 73, 100
2, 38400, Note_on_c, 0, 74, 100
2, 38588, Note_off_c, 0, 74, 100
2, 38592, Note_on_c, 0, 77, 100
2, 38780, Note_off_c, 0, 77, 100
2, 38784, Note_on_c, 0, 73, 100
2, 38972, Note_off_c, 0, 73, 100
2, 38976, Note_on_c, 0, 77, 100
2, 39164, Note_off_c, 0, 77, 100
2, 39168, Note_on_c, 0, 74, 100
2, 39740, Note_off_c, 0, 74, 100
2, 39744, Note_on_c, 0, 79, 100
2, 39792, Note_on_c, 0, 77, 100
2, 39836, Note_off_c, 0, 79, 100
2, 39840, Note_on_c, 0, 76, 100
2, 39884, Note_off_c, 0, 77, 100
2, 39888, Note_on_c, 0, 77, 100
2, 39932, Note_off_c, 0, 76, 100
2, 39932, Note_off_c, 0, 77, 100
2, 39936, Note_on_c, 0, 76, 110
2, 40124, Note_off_c, 0, 76, 100
2, 40128, Note_on_c, 0, 84, 110
2, 40316, Note_off_c, 0, 84, 100
2, 40320, Note_on_c, 0, 84, 110
2, 40508, Note_off_c, 0, 84, 100
2, 40512, Note_on_c, 0, 84, 110
2, 40700, Note_off_c, 0, 84, 100
2, 40704, Note_on_c, 0, 84, 110
2, 41084, Note_off_c, 0, 84, 100
2, 41088, Note_on_c, 0, 82, 110
2, 41180, Note_off_c, 0, 82, 100
2, 41184, Note_on_c, 0, 81, 110
2, 41276, Note_off_c, 0, 81, 100
2, 41280, Note_on_c, 0, 79, 110
2, 41372, Note_off_c, 0, 79, 100
2, 41376, Note_on_c, 0, 77, 110
2, 41468, Note_off_c, 0, 77, 100
2, 41472, Note_on_c, 0, 79, 110
2, 41660, Note_off_c, 0, 79, 100
2, 41664, Note_on_c, 0, 79, 110
2, 41756, Note_off_c, 0, 79, 100
2, 41760, Note_on_c, 0, 82, 110
2, 41852, Note_off_c, 0, 82, 100
2, 41856, Note_on_c, 0, 76, 110
2, 42044, Note_off_c, 0, 76, 100
2, 42048, Note_on_c, 0, 76, 110
2, 42140, Note_off_c, 0, 76, 100
2, 42144, Note_on_c, 0, 79, 110
2, 42236, Note_off_c, 0, 79, 100
2, 42240, Note_on_c, 0, 77, 110
2, 42620, Note_off_c, 0, 77, 100
2, 43008, Note_on_c, 0, 81, 70
2, 43388, Note_off_c, 0, 81, 100
2, 43392, Note_on_c, 0, 82, 70
2, 43580, Note_off_c, 0, 82, 100
2, 43584, Note_on_c, 0, 81, 70
2, 43772, Note_off_c, 0, 81, 100
2, 43776, Note_on_c, 0, 81, 70
2, 44156, Note_off_c, 0, 81, 100
2, 44160, Note_on_c, 0, 73, 70
2, 44348, Note_off_c, 0, 73, 100
2, 44352, Note_on_c, 0, 74, 70
2, 44540, Note_off_c, 0, 74, 100
2, 44544, Note_on_c, 0, 76, 70
2, 44732, Note_off_c, 0, 76, 100
2, 44736, Note_on_c, 0, 73, 70
2, 44924, Note_off_c, 0, 73, 100
2, 44928, Note_on_c, 0, 69, 70
2, 45116, Note_off_c, 0, 69, 100
2, 45120, Note_on_c, 0, 81, 70
2, 45308, Note_off_c, 0, 81, 100
2, 45312, Note_on_c, 0, 79, 70
2, 45692, Note_off_c, 0, 79, 100
2, 45696, Note_on_c, 0, 77, 70
2, 46076, Note_off_c, 0, 77, 100
2, 46080, Note_on_c, 0, 81, 70
2, 46268, Note_off_c, 0, 81, 100
2, 46272, Note_on_c, 0, 77, 70
2, 46460, Note_off_c, 0, 77, 100
2, 46464, Note_on_c, 0, 74, 70
2, 46652, Note_off_c, 0, 74, 100
2, 46656, Note_on_c, 0, 86, 70
2, 46844, Note_off_c, 0, 86, 100
2, 46848, Note_on_c, 0, 82, 91
2, 47612, Note_off_c, 0, 82, 100
2, 47616, Note_on_c, 0, 81, 70
2, 47804, Note_off_c, 0, 81, 100
2, 47808, Note_on_c, 0, 77, 70
2, 47996, Note_off_c, 0, 77, 100
2, 48000, Note_on_c, 0, 74, 70
2, 48188, Note_off_c, 0, 74, 100
2, 48192, Note_on_c, 0, 86, 70
2, 48380, Note_off_c, 0, 86, 100
2, 48384, Note_on_c, 0, 82, 91
2, 49148, Note_off_c, 0, 82, 100
2, 49152, Note_on_c, 0, 81, 70
2, 49340, Note_off_c, 0, 81, 100
2, 49344, Note_on_c, 0, 77, 70
2, 49532, Note_off_c, 0, 77, 100
2, 49536, Note_on_c, 0, 74, 70
2, 49724, Note_off_c, 0, 74, 100
2, 49728, Note_on_c, 0, 86, 70
2, 49916, Note_off_c, 0, 86, 100
2, 49920, Note_on_c, 0, 84, 70
2, 50108, Note_off_c, 0, 84, 100
2, 50112, Note_on_c, 0, 82, 70
2, 50300, Note_off_c, 0, 82, 100
2, 50304, Note_on_c, 0, 82, 70
2, 50492, Note_off_c, 0, 82, 100
2, 50496, Note_on_c, 0, 81, 70
2, 50684, Note_off_c, 0, 81, 100
2, 50688, Note_on_c, 0, 81, 70
2, 50876, Note_off_c, 0, 81, 100
2, 50880, Note_on_c, 0, 79, 70
2, 51068, Note_off_c, 0, 79, 100
2, 51072, Note_on_c, 0, 79, 70
2, 51260, Note_off_c, 0, 79, 100
2, 51264, Note_on_c, 0, 77, 70
2, 51452, Note_off_c, 0, 77, 100
2, 51456, Note_on_c, 0, 77, 70
2, 51836, Note_off_c, 0, 77, 100
2, 51840, Note_on_c, 0, 76, 70
2, 52028, Note_off_c, 0, 76, 100
2, 52224, Note_on_c, 0, 81, 70
2, 52604, Note_off_c, 0, 81, 100
2, 52608, Note_on_c, 0, 82, 70
2, 52796, Note_off_c, 0, 82, 100
2, 52800, Note_on_c, 0, 81, 70
2, 52988, Note_off_c, 0, 81, 100
2, 52992, Note_on_c, 0, 81, 70
2, 53372, Note_off_c, 0, 81, 100
2, 53376, Note_on_c, 0, 73, 70
2, 53564, Note_off_c, 0, 73, 100
2, 53568, Note_on_c, 0, 74, 70
2, 53756, Note_off_c, 0, 74, 100
2, 53760, Note_on_c, 0, 76, 70
2, 53948, Note_off_c, 0, 76, 100
2, 53952, Note_on_c, 0, 73, 70
2, 54140, Note_off_c, 0, 73, 100
2, 54144, Note_on_c, 0, 69, 70
2, 54332, Note_off_c, 0, 69, 100
2, 54336, Note_on_c, 0, 81, 70
2, 54524, Note_off_c, 0, 81, 100
2, 54528, Note_on_c, 0, 79, 70
2, 54908, Note_off_c, 0, 79, 100
2, 54912, Note_on_c, 0, 77, 70
2, 55292, Note_off_c, 0, 77, 100
2, 55296, Note_on_c, 0, 81, 70
2, 55484, Note_off_c, 0, 81, 100
2, 55488, Note_on_c, 0, 77, 70
2, 55676, Note_off_c, 0, 77, 100
2, 55680, Note_on_c, 0, 74, 70
2, 55868, Note_off_c, 0, 74, 100
2, 55872, Note_on_c, 0, 86, 70
2, 56060, Note_off_c, 0, 86, 100
2, 56064, Note_on_c, 0, 82, 91
2, 56828, Note_off_c, 0, 82, 100
2, 56832, Note_on_c, 0, 81, 70
2, 57020, Note_off_c, 0, 81, 100
2, 57024, Note_on_c, 0, 77, 70
2, 57212, Note_off_c, 0, 77, 100
2, 57216, Note_on_c, 0, 74, 70
2, 57404, Note_off_c, 0, 74, 100
2, 57408, Note_on_c, 0, 86, 70
2, 57596, Note_off_c, 0, 86, 100
2, 57600, Note_on_c, 0, 82, 91
2, 58364, Note_off_c, 0, 82, 100
2, 58368, Note_on_c, 0, 81, 70
2, 58556, Note_off_c, 0, 81, 100
2, 58560, Note_on_c, 0, 77, 70
2, 58748, Note_off_c, 0, 77, 100
2, 58752, Note_on_c, 0, 74, 70
2, 58940, Note_off_c, 0, 74, 100
2, 58944, Note_on_c, 0, 86, 70
2, 59132, Note_off_c, 0, 86, 100
2, 59136, Note_on_c, 0, 84, 70
2, 59324, Note_off_c, 0, 84, 100
2, 59328, Note_on_c, 0, 82, 70
2, 59516, Note_off_c, 0, 82, 100
2, 59520, Note_on_c, 0, 82, 70
2, 59708, Note_off_c, 0, 82, 100
2, 59712, Note_on_c, 0, 81, 70
2, 59900, Note_off_c, 0, 81, 100
2, 59904, Note_on_c, 0, 81, 70
2, 60092, Note_off_c, 0, 81, 100
2, 60096, Note_on_c, 0, 79, 70
2, 60284, Note_off_c, 0, 79, 100
2, 60288, Note_on_c, 0, 79, 70
2, 60476, Note_off_c, 0, 79, 100
2, 60480, Note_on_c, 0, 77, 70
2, 60668, Note_off_c, 0, 77, 100
2, 60672, Note_on_c, 0, 77, 70
2, 61052, Note_off_c, 0, 77, 100
2, 61056, Note_on_c, 0, 76, 70
2, 61244, Note_off_c, 0, 76, 100
2, 61440, Note_on_c, 0, 81, 70
2, 61820, Note_off_c, 0, 81, 100
2, 61824, Note_on_c, 0, 82, 70
2, 62012, Note_off_c, 0, 82, 100
2, 62016, Note_on_c, 0, 81, 70
2, 62204, Note_off_c, 0, 81, 100
2, 62208, Note_on_c, 0, 84, 90
2, 62972, Note_off_c, 0, 84, 100
2, 62976, Note_on_c, 0, 77, 70
2, 63356, Note_off_c, 0, 77, 100
2, 63360, Note_on_c, 0, 79, 70
2, 63548, Note_off_c, 0, 79, 100
2, 63552, Note_on_c, 0, 77, 70
2, 63740, Note_off_c, 0, 77, 100
2, 63744, Note_on_c, 0, 81, 90
2, 64508, Note_off_c, 0, 81, 100
2, 64512, Note_on_c, 0, 86, 70
2, 64700, Note_off_c, 0, 86, 100
2, 64704, Note_on_c, 0, 77, 70
2, 64892, Note_off_c, 0, 77, 100
2, 64896, Note_on_c, 0, 86, 70
2, 65084, Note_off_c, 0, 86, 100
2, 65088, Note_on_c, 0, 77, 70
2, 65276, Note_off_c, 0, 77, 100
2, 65280, Note_on_c, 0, 84, 70
2, 65468, Note_off_c, 0, 84, 100
2, 65472, Note_on_c, 0, 77, 70
2, 65660, Note_off_c, 0, 77, 100
2, 65664, Note_on_c, 0, 84, 70
2, 65852, Note_off_c, 0, 84, 100
2, 65856, Note_on_c, 0, 77, 70
2, 66044, Note_off_c, 0, 77, 100
2, 66048, Note_on_c, 0, 82, 70
2, 66236, Note_off_c, 0, 82, 100
2, 66240, Note_on_c, 0, 74, 70
2, 66428, Note_off_c, 0, 74, 100
2, 66432, Note_on_c, 0, 82, 70
2, 66620, Note_off_c, 0, 82, 100
2, 66624, Note_on_c, 0, 74, 70
2, 66812, Note_off_c, 0, 74, 100
2, 66816, Note_on_c, 0, 81, 70
2, 67004, Note_off_c, 0, 81, 100
2, 67008, Note_on_c, 0, 74, 70
2, 67196, Note_off_c, 0, 74, 100
2, 67200, Note_on_c, 0, 81, 70
2, 67388, Note_off_c, 0, 81, 100
2, 67392, Note_on_c, 0, 74, 70
2, 67580, Note_off_c, 0, 74, 100
2, 67584, Note_on_c, 0, 79, 70
2, 67772, Note_off_c, 0, 79, 100
2, 67776, Note_on_c, 0, 76, 70
2, 67964, Note_off_c, 0, 76, 100
2, 67968, Note_on_c, 0, 77, 70
2, 68156, Note_off_c, 0, 77, 100
2, 68160, Note_on_c, 0, 74, 70
2, 68348, Note_off_c, 0, 74, 100
2, 68352, Note_on_c, 0, 76, 70
2, 68540, Note_off_c, 0, 76, 100
2, 68544, Note_on_c, 0, 73, 70
2, 68732, Note_off_c, 0, 73, 100
2, 68736, Note_on_c, 0, 69, 70
2, 68924, Note_off_c, 0, 69, 100
2, 68928, Note_on_c, 0, 81, 70
2, 69116, Note_off_c, 0, 81, 100
2, 69120, Note_on_c, 0, 81, 70
2, 69500, Note_off_c, 0, 81, 100
2, 69504, Note_on_c, 0, 82, 70
2, 69692, Note_off_c, 0, 82, 100
2, 69696, Note_on_c, 0, 81, 70
2, 69884, Note_off_c, 0, 81, 100
2, 69888, Note_on_c, 0, 81, 70
2, 70268, Note_off_c, 0, 81, 100
2, 70272, Note_on_c, 0, 73, 70
2, 70460, Note_off_c, 0, 73, 100
2, 70464, Note_on_c, 0, 74, 70
2, 70652, Note_off_c, 0, 74, 100
2, 70656, Note_on_c, 0, 76, 70
2, 70844, Note_off_c, 0, 76, 100
2, 70848, Note_on_c, 0, 73, 70
2, 71036, Note_off_c, 0, 73, 100
2, 71040, Note_on_c, 0, 69, 70
2, 71228, Note_off_c, 0, 69, 100
2, 71232, Note_on_c, 0, 81, 70
2, 71420, Note_off_c, 0, 81, 100
2, 71424, Note_on_c, 0, 79, 70
2, 71804, Note_off_c, 0, 79, 100
2, 71808, Note_on_c, 0, 77, 70
2, 72188, Note_off_c, 0, 77, 100
2, 72192, Note_on_c, 0, 74, 70
2, 72572, Note_off_c, 0, 74, 100
2, 72576, Note_on_c, 0, 86, 70
2, 72764, Note_off_c, 0, 86, 100
2, 72768, Note_on_c, 0, 81, 70
2, 72956, Note_off_c, 0, 81, 100
2, 72960, Note_on_c, 0, 82, 70
2, 73340, Note_off_c, 0, 82, 100
2, 73344, Note_on_c, 0, 79, 70
2, 73532, Note_off_c, 0, 79, 100
2, 73536, Note_on_c, 0, 76, 70
2, 73724, Note_off_c, 0, 76, 100
2, 73728, Note_on_c, 0, 77, 70
2, 73916, Note_off_c, 0, 77, 100
2, 73920, Note_on_c, 0, 81, 70
2, 74108, Note_off_c, 0, 81, 100
2, 74112, Note_on_c, 0, 79, 70
2, 74300, Note_off_c, 0, 79, 100
2, 74304, Note_on_c, 0, 76, 70
2, 74492, Note_off_c, 0, 76, 100
2, 74496, Note_on_c, 0, 74, 70
2, 74876, Note_off_c, 0, 74, 100
2, 75264, Note_on_c, 0, 81, 70
2, 75644, Note_off_c, 0, 81, 100
2, 75648, Note_on_c, 0, 82, 70
2, 75836, Note_off_c, 0, 82, 100
2, 75840, Note_on_c, 0, 81, 70
2, 76028, Note_off_c, 0, 81, 100
2, 76032, Note_on_c, 0, 84, 90
2, 76796, Note_off_c, 0, 84, 100
2, 76800, Note_on_c, 0, 77, 70
2, 77180, Note_off_c, 0, 77, 100
2, 77184, Note_on_c, 0, 79, 70
2, 77372, Note_off_c, 0, 79, 100
2, 77376, Note_on_c, 0, 77, 70
2, 77564, Note_off_c, 0, 77, 100
2, 77568, Note_on_c, 0, 81, 90
2, 78332, Note_off_c, 0, 81, 100
2, 78336, Note_on_c, 0, 86, 70
2, 78524, Note_off_c, 0, 86, 100
2, 78528, Note_on_c, 0, 77, 70
2, 78716, Note_off_c, 0, 77, 100
2, 78720, Note_on_c, 0, 86, 70
2, 78908, Note_off_c, 0, 86, 100
2, 78912, Note_on_c, 0, 77, 70
2, 79100, Note_off_c, 0, 77, 100
2, 79104, Note_on_c, 0, 84, 70
2, 79292, Note_off_c, 0, 84, 100
2, 79296, Note_on_c, 0, 77, 70
2, 79484, Note_off_c, 0, 77, 100
2, 79488, Note_on_c, 0, 84, 70
2, 79676, Note_off_c, 0, 84, 100
2, 79680, Note_on_c, 0, 77, 70
2, 79868, Note_off_c, 0, 77, 100
2, 79872, Note_on_c, 0, 82, 70
2, 80060, Note_off_c, 0, 82, 100
2, 80064, Note_on_c, 0, 74, 70
2, 80252, Note_off_c, 0, 74, 100
2, 80256, Note_on_c, 0, 82, 70
2, 80444, Note_off_c, 0, 82, 100
2, 80448, Note_on_c, 0, 74, 70
2, 80636, Note_off_c, 0, 74, 100
2, 80640, Note_on_c, 0, 81, 70
2, 80828, Note_off_c, 0, 81, 100
2, 80832, Note_on_c, 0, 74, 70
2, 81020, Note_off_c, 0, 74, 100
2, 81024, Note_on_c, 0, 81, 70
2, 81212, Note_off_c, 0, 81, 100
2, 81216, Note_on_c, 0, 74, 70
2, 81404, Note_off_c, 0, 74, 100
2, 81408, Note_on_c, 0, 79, 70
2, 81596, Note_off_c, 0, 79, 100
2, 81600, Note_on_c, 0, 76, 70
2, 81788, Note_off_c, 0, 76, 100
2, 81792, Note_on_c, 0, 77, 70
2, 81980, Note_off_c, 0, 77, 100
2, 81984, Note_on_c, 0, 74, 70
2, 82172, Note_off_c, 0, 74, 100
2, 82176, Note_on_c, 0, 76, 70
2, 82364, Note_off_c, 0, 76, 100
2, 82368, Note_on_c, 0, 73, 70
2, 82556, Note_off_c, 0, 73, 100
2, 82560, Note_on_c, 0, 69, 70
2, 82748, Note_off_c, 0, 69, 100
2, 82752, Note_on_c, 0, 81, 70
2, 82940, Note_off_c, 0, 81, 100
2, 82944, Note_on_c, 0, 81, 70
2, 83324, Note_off_c, 0, 81, 100
2, 83328, Note_on_c, 0, 82, 70
2, 83516, Note_off_c, 0, 82, 100
2, 83520, Note_on_c, 0, 81, 70
2, 83708, Note_off_c, 0, 81, 100
2, 83712, Note_on_c, 0, 81, 70
2, 84092, Note_off_c, 0, 81, 100
2, 84096, Note_on_c, 0, 73, 70
2, 84284, Note_off_c, 0, 73, 100
2, 84288, Note_on_c, 0, 74, 70
2, 84476, Note_off_c, 0, 74, 100
2, 84480, Note_on_c, 0, 76, 70
2, 84668, Note_off_c, 0, 76, 100
2, 84672, Note_on_c, 0, 73, 70
2, 84860, Note_off_c, 0, 73, 100
2, 84864, Note_on_c, 0, 69, 70
2, 85052, Note_off_c, 0, 69, 100
2, 85056, Note_on_c, 0, 81, 70
2, 85244, Note_off_c, 0, 81, 100
2, 85248, Note_on_c, 0, 79, 70
2, 85628, Note_off_c, 0, 79, 100
2, 85632, Note_on_c, 0, 77, 70
2, 86012, Note_off_c, 0, 77, 100
2, 86016, Note_on_c, 0, 74, 70
2, 86396, Note_off_c, 0, 74, 100
2, 86400, Note_on_c, 0, 86, 70
2, 86588, Note_off_c, 0, 86, 100
2, 86592, Note_on_c, 0, 81, 70
2, 86780, Note_off_c, 0, 81, 100
2, 86784, Note_on_c, 0, 82, 70
2, 87164, Note_off_c, 0, 82, 100
2, 87168, Note_on_c, 0, 79, 70
2, 87356, Note_off_c, 0, 79, 100
2, 87360, Note_on_c, 0, 76, 70
2, 87548, Note_off_c, 0, 76, 100
2, 87552, Note_on_c, 0, 77, 70
2, 87740, Note_off_c, 0, 77, 100
2, 87744, Note_on_c, 0, 81, 70
2, 87932, Note_off_c, 0, 81, 100
2, 87936, Note_on_c, 0, 79, 70
2, 88124, Note_off_c, 0, 79, 100
2, 88128, Note_on_c, 0, 76, 70
2, 88316, Note_off_c, 0, 76, 100
2, 88320, Note_on_c, 0, 74, 70
2, 88700, Note_off_c, 0, 74, 100
2, 89088, Note_on_c, 0, 76, 70
2, 89468, Note_off_c, 0, 76, 100
2, 89856, Note_on_c, 0, 77, 70
2, 90236, Note_off_c, 0, 77, 100
2, 90624, Note_on_c, 0, 79, 70
2, 91004, Note_off_c, 0, 79, 100
2, 91392, Note_on_c, 0, 81, 70
2, 91772, Note_off_c, 0, 81, 100
2, 92160, Note_on_c, 0, 82, 110
2, 93308, Note_off_c, 0, 82, 100
2, 93312, Note_on_c, 0, 81, 100
2, 93500, Note_off_c, 0, 81, 100
2, 93504, Note_on_c, 0, 79, 94
2, 93692, Note_off_c, 0, 79, 100
2, 93696, Note_on_c, 0, 86, 88
2, 94076, Note_off_c, 0, 86, 100
2, 94080, Note_on_c, 0, 84, 76
2, 94268, Note_off_c, 0, 84, 100
2, 94272, Note_on_c, 0, 82, 70
2, 94460, Note_off_c, 0, 82, 100
2, 94464, Note_on_c, 0, 81, 70
2, 94652, Note_off_c, 0, 81, 100
2, 94656, Note_on_c, 0, 79, 70
2, 94844, Note_off_c, 0, 79, 100
2, 94848, Note_on_c, 0, 82, 70
2, 95036, Note_off_c, 0, 82, 100
2, 95040, Note_on_c, 0, 81, 70
2, 95228, Note_off_c, 0, 81, 100
2, 95232, Note_on_c, 0, 81, 70
2, 95280, Note_on_c, 0, 79, 70
2, 95324, Note_off_c, 0, 81, 100
2, 95420, Note_off_c, 0, 79, 100
2, 95424, Note_on_c, 0, 79, 70
2, 95472, Note_on_c, 0, 77, 70
2, 95516, Note_off_c, 0, 79, 100
2, 95612, Note_off_c, 0, 77, 100
2, 95616, Note_on_c, 0, 77, 70
2, 95664, Note_on_c, 0, 76, 70
2, 95708, Note_off_c, 0, 77, 100
2, 95804, Note_off_c, 0, 76, 100
2, 95808, Note_on_c, 0, 76, 70
2, 95856, Note_on_c, 0, 74, 70
2, 95900, Note_off_c, 0, 76, 100
2, 95996, Note_off_c, 0, 74, 100
2, 96000, Note_on_c, 0, 72, 70
2, 96188, Note_off_c, 0, 72, 100
2, 96192, Note_on_c, 0, 77, 70
2, 96380, Note_off_c, 0, 77, 100
2, 96384, Note_on_c, 0, 71, 70
2, 96572, Note_off_c, 0, 71, 100
2, 96576, Note_on_c, 0, 77, 70
2, 96764, Note_off_c, 0, 77, 100
2, 96768, Note_on_c, 0, 72, 70
2, 97340, Note_off_c, 0, 72, 100
2, 97344, Note_on_c, 0, 73, 93
2, 97532, Note_off_c, 0, 73, 100
2, 97536, Note_on_c, 0, 74, 100
2, 97724, Note_off_c, 0, 74, 100
2, 97728, Note_on_c, 0, 77, 100
2, 97916, Note_off_c, 0, 77, 100
2, 97920, Note_on_c, 0, 73, 100
2, 98108, Note_off_c, 0, 73, 100
2, 98112, Note_on_c, 0, 77, 100
2, 98300, Note_off_c, 0, 77, 100
2, 98304, Note_on_c, 0, 74, 100
2, 98876, Note_off_c, 0, 74, 100
2, 98880, Note_on_c, 0, 79, 100
2, 98928, Note_on_c, 0, 77, 100
2, 98972, Note_off_c, 0, 79, 100
2, 98976, Note_on_c, 0, 76, 100
2, 99020, Note_off_c, 0, 77, 100
2, 99024, Note_on_c, 0, 77, 100
2, 99068, Note_off_c, 0, 76, 100
2, 99068, Note_off_c, 0, 77, 100
2, 99072, Note_on_c, 0, 76, 110
2, 99260, Note_off_c, 0, 76, 100
2, 99264, Note_on_c, 0, 84, 110
2, 99452, Note_off_c, 0, 84, 100
2, 99456, Note_on_c, 0, 84, 110
2, 99644, Note_off_c, 0, 84, 100
2, 99648, Note_on_c, 0, 84, 110
2, 99836, Note_off_c, 0, 84, 100
2, 99840, Note_on_c, 0, 84, 110
2, 100220, Note_off_c, 0, 84, 100
2, 100224, Note_on_c, 0, 81, 110
2, 100316, Note_off_c, 0, 81, 100
2, 100320, Note_on_c, 0, 77, 110
2, 100412, Note_off_c, 0, 77, 100
2, 100416, Note_on_c, 0, 81, 110
2, 100508, Note_off_c, 0, 81, 100
2, 100512, Note_on_c, 0, 84, 110
2, 100604, Note_off_c, 0, 84, 100
2, 100608, Note_on_c, 0, 82, 110
2, 100796, Note_off_c, 0, 82, 100
2, 100800, Note_on_c, 0, 79, 110
2, 100892, Note_off_c, 0, 79, 100
2, 100896, Note_on_c, 0, 82, 110
2, 100988, Note_off_c, 0, 82, 100
2, 100992, Note_on_c, 0, 81, 110
2, 101180, Note_off_c, 0, 81, 100
2, 101184, Note_on_c, 0, 77, 110
2, 101276, Note_off_c, 0, 77, 100
2, 101280, Note_on_c, 0, 81, 110
2, 101372, Note_off_c, 0, 81, 100
2, 101376, Note_on_c, 0, 79, 110
2, 101564, Note_off_c, 0, 79, 100
2, 101568, Note_on_c, 0, 81, 100
2, 101660, Note_off_c, 0, 81, 100
2, 101664, Note_on_c, 0, 79, 94
2, 101756, Note_off_c, 0, 79, 100
2, 101760, Note_on_c, 0, 77, 88
2, 101852, Note_off_c, 0, 77, 100
2, 101856, Note_on_c, 0, 76, 82
2, 101948, Note_off_c, 0, 76, 100
2, 101952, Note_on_c, 0, 74, 76
2, 102044, Note_off_c, 0, 74, 100
2, 102048, Note_on_c, 0, 72, 70
2, 102140, Note_off_c, 0, 72, 100
2, 102144, Note_on_c, 0, 72, 70
2, 102332, Note_off_c, 0, 72, 100
2, 102336, Note_on_c, 0, 77, 70
2, 102524, Note_off_c, 0, 77, 100
2, 102528, Note_on_c, 0, 71, 70
2, 102716, Note_off_c, 0, 71, 100
2, 102720, Note_on_c, 0, 77, 70
2, 102908, Note_off_c, 0, 77, 100
2, 102912, Note_on_c, 0, 72, 70
2, 103484, Note_off_c, 0, 72, 100
2, 103488, Note_on_c, 0, 73, 93
2, 103676, Note_off_c, 0, 73, 100
2, 103680, Note_on_c, 0, 74, 100
2, 103868, Note_off_c, 0, 74, 100
2, 103872, Note_on_c, 0, 77, 100
2, 104060, Note_off_c, 0, 77, 100
2, 104064, Note_on_c, 0, 73, 100
2, 104252, Note_off_c, 0, 73, 100
2, 104256, Note_on_c, 0, 77, 100
2, 104444, Note_off_c, 0, 77, 100
2, 104448, Note_on_c, 0, 74, 100
2, 105020, Note_off_c, 0, 74, 100
2, 105024, Note_on_c, 0, 79, 100
2, 105072, Note_on_c, 0, 77, 100
2, 105116, Note_off_c, 0, 79, 100
2, 105120, Note_on_c, 0, 76, 100
2, 105164, Note_off_c, 0, 77, 100
2, 105168, Note_on_c, 0, 77, 100
2, 105212, Note_off_c, 0, 76, 100
2, 105212, Note_off_c, 0, 77, 100
2, 105216, Note_on_c, 0, 76, 110
2, 105404, Note_off_c, 0, 76, 100
2, 105408, Note_on_c, 0, 84, 110
2, 105596, Note_off_c, 0, 84, 100
2, 105600, Note_on_c, 0, 84, 110
2, 105788, Note_off_c, 0, 84, 100
2, 105792, Note_on_c, 0, 84, 110
2, 105980, Note_off_c, 0, 84, 100
2, 105984, Note_on_c, 0, 84, 110
2, 106364, Note_off_c, 0, 84, 100
2, 106368, Note_on_c, 0, 82, 110
2, 106460, Note_off_c, 0, 82, 100
2, 106464, Note_on_c, 0, 81, 110
2, 106556, Note_off_c, 0, 81, 100
2, 106560, Note_on_c, 0, 79, 110
2, 106652, Note_off_c, 0, 79, 100
2, 106656, Note_on_c, 0, 77, 110
2, 106748, Note_off_c, 0, 77, 100
2, 106752, Note_on_c, 0, 79, 110
2, 106940, Note_off_c, 0, 79, 100
2, 106944, Note_on_c, 0, 79, 110
2, 107036, Note_off_c, 0, 79, 100
2, 107040, Note_on_c, 0, 82, 110
2, 107132, Note_off_c, 0, 82, 100
2, 107136, Note_on_c, 0, 76, 110
2, 107324, Note_off_c, 0, 76, 100
2, 107328, Note_on_c, 0, 76, 110
2, 107420, Note_off_c, 0, 76, 100
2, 107424, Note_on_c, 0, 79, 110
2, 107516, Note_off_c, 0, 79, 100
2, 107520, Note_on_c, 0, 77, 110
2, 107900, Note_off_c, 0, 77, 100
2, 108288, Note_on_c, 0, 76, 70
2, 108288, Note_on_c, 0, 84, 70
2, 108668, Note_off_c, 0, 76, 100
2, 108668, Note_off_c, 0, 84, 100
2, 109056, Note_on_c, 0, 77, 70
2, 109056, Note_on_c, 0, 81, 70
2, 109436, Note_off_c, 0, 77, 100
2, 109436, Note_off_c, 0, 81, 100
2, 109824, Note_on_c, 0, 67, 110
2, 109824, Note_on_c, 0, 70, 110
2, 109824, Note_on_c, 0, 76, 110
2, 110204, Note_off_c, 0, 67, 100
2, 110204, Note_off_c, 0, 70, 100
2, 110204, Note_off_c, 0, 76, 100
2, 110208, Note_on_c, 0, 67, 110
2, 110208, Note_on_c, 0, 70, 110
2, 110208, Note_on_c, 0, 76, 110
2, 110588, Note_off_c, 0, 67, 100
2, 110588, Note_off_c, 0, 70, 100
2, 110588, Note_off_c, 0, 76, 100
2, 110592, Note_on_c, 0, 65, 110
2, 110592, Note_on_c, 0, 69, 110
2, 110592, Note_on_c, 0, 77, 110
2, 111356, Note_off_c, 0, 65, 100
2, 111356, Note_off_c, 0, 69, 100
2, 111356, Note_off_c, 0, 77, 100
2, 112896, Control_c, 0, 11, 0
2, 112992, Note_on_c, 0, 65, 1
2, 113084, Note_off_c, 0, 65, 100
2, 113084, End_track
3, 0, Start_track
3, 0, Title_t, "Piano Left"
3, 0, Control_c, 1, 0, 0
3, 0, Program_c, 1, 0
3, 0, Control_c, 1, 7, 100
3, 0, Control_c, 1, 10, 48
3, 0, Control_c, 1, 91, 127
3, 0, Key_signature, -1, "major"
3, 0, Note_on_c, 1, 57, 70
3, 188, Note_off_c, 1, 57, 100
3, 192, Note_on_c, 1, 53, 70
3, 380, Note_off_c, 1, 53, 100
3, 384, Note_on_c, 1, 56, 70
3, 572, Note_off_c, 1, 56, 100
3, 576, Note_on_c, 1, 53, 70
3, 764, Note_off_c, 1, 53, 100
3, 768, Note_on_c, 1, 57, 70
3, 956, Note_off_c, 1, 57, 100
3, 960, Note_on_c, 1, 53, 77
3, 1148, Note_off_c, 1, 53, 100
3, 1152, Note_on_c, 1, 57, 85
3, 1340, Note_off_c, 1, 57, 100
3, 1344, Note_on_c, 1, 53, 93
3, 1532, Note_off_c, 1, 53, 100
3, 1536, Note_on_c, 1, 58, 100
3, 1724, Note_off_c, 1, 58, 100
3, 1728, Note_on_c, 1, 53, 100
3, 1916, Note_off_c, 1, 53, 100
3, 1920, Note_on_c, 1, 57, 100
3, 2108, Note_off_c, 1, 57, 100
3, 2112, Note_on_c, 1, 53, 100
3, 2300, Note_off_c, 1, 53, 100
3, 2304, Note_on_c, 1, 58, 100
3, 2492, Note_off_c, 1, 58, 100
3, 2496, Note_on_c, 1, 53, 100
3, 2684, Note_off_c, 1, 53, 100
3, 2688, Note_on_c, 1, 58, 100
3, 2876, Note_off_c, 1, 58, 100
3, 2880, Note_on_c, 1, 53, 100
3, 3068, Note_off_c, 1, 53, 100
3, 3072, Note_on_c, 1, 55, 110
3, 3072, Note_on_c, 1, 58, 110
3, 3260, Note_off_c, 1, 55, 100
3, 3260, Note_off_c, 1, 58, 100
3, 3264, Note_on_c, 1, 48, 110
3, 3452, Note_off_c, 1, 48, 100
3, 3456, Note_on_c, 1, 55, 110
3, 3456, Note_on_c, 1, 58, 110
3, 3644, Note_off_c, 1, 55, 100
3, 3644, Note_off_c, 1, 58, 100
3, 3648, Note_on_c, 1, 48, 110
3, 3836, Note_off_c, 1, 48, 100
3, 3840, Note_on_c, 1, 53, 110
3, 3840, Note_on_c, 1, 57, 110
3, 4028, Note_off_c, 1, 53, 100
3, 4028, Note_off_c, 1, 57, 100
3, 4032, Note_on_c, 1, 48, 110
3, 4220, Note_off_c, 1, 48, 100
3, 4224, Note_on_c, 1, 53, 110
3, 4224, Note_on_c, 1, 57, 110
3, 4412, Note_off_c, 1, 53, 100
3, 4412, Note_off_c, 1, 57, 100
3, 4416, Note_on_c, 1, 48, 110
3, 4604, Note_off_c, 1, 48, 100
3, 4608, Note_on_c, 1, 52, 110
3, 4608, Note_on_c, 1, 55, 110
3, 4796, Note_off_c, 1, 52, 100
3, 4796, Note_off_c, 1, 55, 100
3, 4800, Note_on_c, 1, 48, 110
3, 4988, Note_off_c, 1, 48, 100
3, 4992, Note_on_c, 1, 53, 110
3, 4992, Note_on_c, 1, 57, 110
3, 5180, Note_off_c, 1, 53, 100
3, 5180, Note_off_c, 1, 57, 100
3, 5184, Note_on_c, 1, 48, 110
3, 5372, Note_off_c, 1, 48, 100
3, 5376, Note_on_c, 1, 48, 110
3, 5424, Note_on_c, 1, 52, 110
3, 5472, Note_on_c, 1, 55, 110
3, 5520, Note_on_c, 1, 60, 110
3, 6140, Note_off_c, 1, 48, 100
3, 6140, Note_off_c, 1, 52, 100
3, 6140, Note_off_c, 1, 55, 100
3, 6140, Note_off_c, 1, 60, 100
3, 6144, Note_on_c, 1, 57, 70
3, 6332, Note_off_c, 1, 57, 100
3, 6336, Note_on_c, 1, 53, 70
3, 6524, Note_off_c, 1, 53, 100
3, 6528, Note_on_c, 1, 56, 70
3, 6716, Note_off_c, 1, 56, 100
3, 6720, Note_on_c, 1, 53, 70
3, 6908, Note_off_c, 1, 53, 100
3, 6912, Note_on_c, 1, 57, 70
3, 7100, Note_off_c, 1, 57, 100
3, 7104, Note_on_c, 1, 53, 77
3, 7292, Note_off_c, 1, 53, 100
3, 7296, Note_on_c, 1, 57, 85
3, 7484, Note_off_c, 1, 57, 100
3, 7488, Note_on_c, 1, 53, 93
3, 7676, Note_off_c, 1, 53, 100
3, 7680, Note_on_c, 1, 58, 100
3, 7868, Note_off_c, 1, 58, 100
3, 7872, Note_on_c, 1, 53, 100
3, 8060, Note_off_c, 1, 53, 100
3, 8064, Note_on_c, 1, 57, 100
3, 8252, Note_off_c, 1, 57, 100
3, 8256, Note_on_c, 1, 53, 100
3, 8444, Note_off_c, 1, 53, 100
3, 8448, Note_on_c, 1, 58, 100
3, 8636, Note_off_c, 1, 58, 100
3, 8640, Note_on_c, 1, 53, 100
3, 8828, Note_off_c, 1, 53, 100
3, 8832, Note_on_c, 1, 58, 100
3, 9020, Note_off_c, 1, 58, 100
3, 9024, Note_on_c, 1, 53, 100
3, 9212, Note_off_c, 1, 53, 100
3, 9216, Note_on_c, 1, 55, 110
3, 9216, Note_on_c, 1, 58, 110
3, 9404, Note_off_c, 1, 55, 100
3, 9404, Note_off_c, 1, 58, 100
3, 9408, Note_on_c, 1, 48, 110
3, 9596, Note_off_c, 1, 48, 100
3, 9600, Note_on_c, 1, 55, 110
3, 9600, Note_on_c, 1, 58, 110
3, 9788, Note_off_c, 1, 55, 100
3, 9788, Note_off_c, 1, 58, 100
3, 9792, Note_on_c, 1, 48, 110
3, 9980, Note_off_c, 1, 48, 100
3, 9984, Note_on_c, 1, 53, 110
3, 9984, Note_on_c, 1, 57, 110
3, 10364, Note_off_c, 1, 53, 100
3, 10364, Note_off_c, 1, 57, 100
3, 10752, Note_on_c, 1, 58, 110
3, 10940, Note_off_c, 1, 58, 100
3, 10944, Note_on_c, 1, 62, 110
3, 11132, Note_off_c, 1, 62, 100
3, 11136, Note_on_c, 1, 48, 110
3, 11136, Note_on_c, 1, 55, 110
3, 11324, Note_off_c, 1, 48, 100
3, 11324, Note_off_c, 1, 55, 100
3, 11328, Note_on_c, 1, 58, 110
3, 11516, Note_off_c, 1, 58, 100
3, 11520, Note_on_c, 1, 53, 110
3, 11520, Note_on_c, 1, 57, 110
3, 11708, Note_off_c, 1, 53, 100
3, 11708, Note_off_c, 1, 57, 100
3, 11712, Note_on_c, 1, 60, 110
3, 11900, Note_off_c, 1, 60, 100
3, 11904, Note_on_c, 1, 53, 110
3, 11904, Note_on_c, 1, 57, 110
3, 12092, Note_off_c, 1, 53, 100
3, 12092, Note_off_c, 1, 57, 100
3, 12288, Note_on_c, 1, 60, 100
3, 12288, Note_on_c, 1, 64, 100
3, 12476, Note_off_c, 1, 60, 100
3, 12476, Note_off_c, 1, 64, 100
3, 12480, Note_on_c, 1, 60, 100
3, 12480, Note_on_c, 1, 64, 100
3, 12668, Note_off_c, 1, 60, 100
3, 12668, Note_off_c, 1, 64, 100
3, 12672, Note_on_c, 1, 60, 100
3, 12672, Note_on_c, 1, 63, 100
3, 12860, Note_off_c, 1, 60, 100
3, 12860, Note_off_c, 1, 63, 100
3, 12864, Note_on_c, 1, 60, 100
3, 12864, Note_on_c, 1, 63, 100
3, 13052, Note_off_c, 1, 60, 100
3, 13052, Note_off_c, 1, 63, 100
3, 13056, Note_on_c, 1, 64, 100
3, 13056, Note_on_c, 1, 60, 100
3, 13436, Note_off_c, 1, 64, 100
3, 13436, Note_off_c, 1, 60, 100
3, 13824, Note_on_c, 1, 55, 100
3, 13824, Note_on_c, 1, 62, 100
3, 14012, Note_off_c, 1, 55, 100
3, 14012, Note_off_c, 1, 62, 100
3, 14016, Note_on_c, 1, 55, 100
3, 14016, Note_on_c, 1, 62, 100
3, 14204, Note_off_c, 1, 55, 100
3, 14204, Note_off_c, 1, 62, 100
3, 14208, Note_on_c, 1, 55, 100
3, 14208, Note_on_c, 1, 61, 100
3, 14396, Note_off_c, 1, 55, 100
3, 14396, Note_off_c, 1, 61, 100
3, 14400, Note_on_c, 1, 55, 100
3, 14400, Note_on_c, 1, 61, 100
3, 14588, Note_off_c, 1, 55, 100
3, 14588, Note_off_c, 1, 61, 100
3, 14592, Note_on_c, 1, 62, 100
3, 14592, Note_on_c, 1, 55, 100
3, 14972, Note_off_c, 1, 62, 100
3, 14972, Note_off_c, 1, 55, 100
3, 15360, Note_on_c, 1, 64, 100
3, 15360, Note_on_c, 1, 60, 100
3, 16124, Note_off_c, 1, 64, 100
3, 16124, Note_off_c, 1, 60, 100
3, 16128, Note_on_c, 1, 62, 100
3, 16128, Note_on_c, 1, 55, 100
3, 16892, Note_off_c, 1, 62, 100
3, 16892, Note_off_c, 1, 55, 100
3, 16896, Note_on_c, 1, 64, 100
3, 16896, Note_on_c, 1, 60, 100
3, 17660, Note_off_c, 1, 64, 100
3, 17660, Note_off_c, 1, 60, 100
3, 17664, Note_on_c, 1, 62, 100
3, 17664, Note_on_c, 1, 55, 100
3, 18428, Note_off_c, 1, 62, 100
3, 18428, Note_off_c, 1, 55, 100
3, 18432, Note_on_c, 1, 60, 100
3, 18812, Note_off_c, 1, 60, 100
3, 18816, Note_on_c, 1, 65, 100
3, 19196, Note_off_c, 1, 65, 100
3, 19200, Note_on_c, 1, 67, 100
3, 19580, Note_off_c, 1, 67, 100
3, 19584, Note_on_c, 1, 55, 100
3, 19964, Note_off_c, 1, 55, 100
3, 19968, Note_on_c, 1, 60, 100
3, 20156, Note_off_c, 1, 60, 100
3, 21504, Note_on_c, 1, 57, 70
3, 21692, Note_off_c, 1, 57, 100
3, 21696, Note_on_c, 1, 53, 70
3, 21884, Note_off_c, 1, 53, 100
3, 21888, Note_on_c, 1, 56, 70
3, 22076, Note_off_c, 1, 56, 100
3, 22080, Note_on_c, 1, 53, 70
3, 22268, Note_off_c, 1, 53, 100
3, 22272, Note_on_c, 1, 57, 70
3, 22460, Note_off_c, 1, 57, 100
3, 22464, Note_on_c, 1, 53, 77
3, 22652, Note_off_c, 1, 53, 100
3, 22656, Note_on_c, 1, 57, 85
3, 22844, Note_off_c, 1, 57, 100
3, 22848, Note_on_c, 1, 53, 93
3, 23036, Note_off_c, 1, 53, 100
3, 23040, Note_on_c, 1, 58, 100
3, 23228, Note_off_c, 1, 58, 100
3, 23232, Note_on_c, 1, 53, 100
3, 23420, Note_off_c, 1, 53, 100
3, 23424, Note_on_c, 1, 57, 100
3, 23612, Note_off_c, 1, 57, 100
3, 23616, Note_on_c, 1, 53, 100
3, 23804, Note_off_c, 1, 53, 100
3, 23808, Note_on_c, 1, 58, 100
3, 23996, Note_off_c, 1, 58, 100
3, 24000, Note_on_c, 1, 53, 100
3, 24188, Note_off_c, 1, 53, 100
3, 24192, Note_on_c, 1, 58, 100
3, 24380, Note_off_c, 1, 58, 100
3, 24384, Note_on_c, 1, 53, 100
3, 24572, Note_off_c, 1, 53, 100
3, 24576, Note_on_c, 1, 55, 110
3, 24576, Note_on_c, 1, 58, 110
3, 24764, Note_off_c, 1, 55, 100
3, 24764, Note_off_c, 1, 58, 100
3, 24768, Note_on_c, 1, 48, 110
3, 24956, Note_off_c, 1, 48, 100
3, 24960, Note_on_c, 1, 55, 110
3, 24960, Note_on_c, 1, 58, 110
3, 25148, Note_off_c, 1, 55, 100
3, 25148, Note_off_c, 1, 58, 100
3, 25152, Note_on_c, 1, 48, 110
3, 25340, Note_off_c, 1, 48, 100
3, 25344, Note_on_c, 1, 53, 110
3, 25344, Note_on_c, 1, 57, 110
3, 25724, Note_off_c, 1, 53, 100
3, 25724, Note_off_c, 1, 57, 100
3, 26112, Note_on_c, 1, 58, 110
3, 26300, Note_off_c, 1, 58, 100
3, 26304, Note_on_c, 1, 62, 110
3, 26492, Note_off_c, 1, 62, 100
3, 26496, Note_on_c, 1, 48, 110
3, 26496, Note_on_c, 1, 55, 110
3, 26684, Note_off_c, 1, 48, 100
3, 26684, Note_off_c, 1, 55, 100
3, 26688, Note_on_c, 1, 58, 110
3, 26876, Note_off_c, 1, 58, 100
3, 26880, Note_on_c, 1, 53, 110
3, 26880, Note_on_c, 1, 57, 110
3, 27068, Note_off_c, 1, 53, 100
3, 27068, Note_off_c, 1, 57, 100
3, 27072, Note_on_c, 1, 60, 110
3, 27260, Note_off_c, 1, 60, 100
3, 27264, Note_on_c, 1, 53, 110
3, 27264, Note_on_c, 1, 57, 110
3, 27452, Note_off_c, 1, 53, 100
3, 27452, Note_off_c, 1, 57, 100
3, 27648, Note_on_c, 1, 60, 100
3, 27648, Note_on_c, 1, 64, 100
3, 27836, Note_off_c, 1, 60, 100
3, 27836, Note_off_c, 1, 64, 100
3, 27840, Note_on_c, 1, 60, 100
3, 27840, Note_on_c, 1, 64, 100
3, 28028, Note_off_c, 1, 60, 100
3, 28028, Note_off_c, 1, 64, 100
3, 28032, Note_on_c, 1, 60, 100
3, 28032, Note_on_c, 1, 63, 100
3, 28220, Note_off_c, 1, 60, 100
3, 28220, Note_off_c, 1, 63, 100
3, 28224, Note_on_c, 1, 60, 100
3, 28224, Note_on_c, 1, 63, 100
3, 28412, Note_off_c, 1, 60, 100
3, 28412, Note_off_c, 1, 63, 100
3, 28416, Note_on_c, 1, 64, 100
3, 28416, Note_on_c, 1, 60, 100
3, 28796, Note_off_c, 1, 64, 100
3, 28796, Note_off_c, 1, 60, 100
3, 29184, Note_on_c, 1, 55, 100
3, 29184, Note_on_c, 1, 62, 100
3, 29372, Note_off_c, 1, 55, 100
3, 29372, Note_off_c, 1, 62, 100
3, 29376, Note_on_c, 1, 55, 100
3, 29376, Note_on_c, 1, 62, 100
3, 29564, Note_off_c, 1, 55, 100
3, 29564, Note_off_c, 1, 62, 100
3, 29568, Note_on_c, 1, 55, 100
3, 29568, Note_on_c, 1, 61, 100
3, 29756, Note_off_c, 1, 55, 100
3, 29756, Note_off_c, 1, 61, 100
3, 29760, Note_on_c, 1, 55, 100
3, 29760, Note_on_c, 1, 61, 100
3, 29948, Note_off_c, 1, 55, 100
3, 29948, Note_off_c, 1, 61, 100
3, 29952, Note_on_c, 1, 62, 100
3, 29952, Note_on_c, 1, 55, 100
3, 30332, Note_off_c, 1, 62, 100
3, 30332, Note_off_c, 1, 55, 100
3, 30720, Note_on_c, 1, 64, 100
3, 30720, Note_on_c, 1, 60, 100
3, 31484, Note_off_c, 1, 64, 100
3, 31484, Note_off_c, 1, 60, 100
3, 31488, Note_on_c, 1, 62, 100
3, 31488, Note_on_c, 1, 55, 100
3, 32252, Note_off_c, 1, 62, 100
3, 32252, Note_off_c, 1, 55, 100
3, 32256, Note_on_c, 1, 64, 100
3, 32256, Note_on_c, 1, 60, 100
3, 33020, Note_off_c, 1, 64, 100
3, 33020, Note_off_c, 1, 60, 100
3, 33024, Note_on_c, 1, 62, 100
3, 33024, Note_on_c, 1, 55, 100
3, 33788, Note_off_c, 1, 62, 100
3, 33788, Note_off_c, 1, 55, 100
3, 33792, Note_on_c, 1, 60, 100
3, 34172, Note_off_c, 1, 60, 100
3, 34176, Note_on_c, 1, 65, 100
3, 34556, Note_off_c, 1, 65, 100
3, 34560, Note_on_c, 1, 67, 100
3, 34940, Note_off_c, 1, 67, 100
3, 34944, Note_on_c, 1, 55, 100
3, 35324, Note_off_c, 1, 55, 100
3, 35328, Note_on_c, 1, 60, 100
3, 35516, Note_off_c, 1, 60, 100
3, 36864, Note_on_c, 1, 57, 70
3, 37052, Note_off_c, 1, 57, 100
3, 37056, Note_on_c, 1, 53, 70
3, 37244, Note_off_c, 1, 53, 100
3, 37248, Note_on_c, 1, 56, 70
3, 37436, Note_off_c, 1, 56, 100
3, 37440, Note_on_c, 1, 53, 70
3, 37628, Note_off_c, 1, 53, 100
3, 37632, Note_on_c, 1, 57, 70
3, 37820, Note_off_c, 1, 57, 100
3, 37824, Note_on_c, 1, 53, 77
3, 38012, Note_off_c, 1, 53, 100
3, 38016, Note_on_c, 1, 57, 85
3, 38204, Note_off_c, 1, 57, 100
3, 38208, Note_on_c, 1, 53, 93
3, 38396, Note_off_c, 1, 53, 100
3, 38400, Note_on_c, 1, 58, 100
3, 38588, Note_off_c, 1, 58, 100
3, 38592, Note_on_c, 1, 53, 100
3, 38780, Note_off_c, 1, 53, 100
3, 38784, Note_on_c, 1, 57, 100
3, 38972, Note_off_c, 1, 57, 100
3, 38976, Note_on_c, 1, 53, 100
3, 39164, Note_off_c, 1, 53, 100
3, 39168, Note_on_c, 1, 58, 100
3, 39356, Note_off_c, 1, 58, 100
3, 39360, Note_on_c, 1, 53, 100
3, 39548, Note_off_c, 1, 53, 100
3, 39552, Note_on_c, 1, 58, 100
3, 39740, Note_off_c, 1, 58, 100
3, 39744, Note_on_c, 1, 53, 100
3, 39932, Note_off_c, 1, 53, 100
3, 39936, Note_on_c, 1, 55, 110
3, 39936, Note_on_c, 1, 58, 110
3, 40124, Note_off_c, 1, 55, 100
3, 40124, Note_off_c, 1, 58, 100
3, 40128, Note_on_c, 1, 48, 110
3, 40316, Note_off_c, 1, 48, 100
3, 40320, Note_on_c, 1, 55, 110
3, 40320, Note_on_c, 1, 58, 110
3, 40508, Note_off_c, 1, 55, 100
3, 40508, Note_off_c, 1, 58, 100
3, 40512, Note_on_c, 1, 48, 110
3, 40700, Note_off_c, 1, 48, 100
3, 40704, Note_on_c, 1, 53, 110
3, 40704, Note_on_c, 1, 57, 110
3, 41084, Note_off_c, 1, 53, 100
3, 41084, Note_off_c, 1, 57, 100
3, 41472, Note_on_c, 1, 58, 110
3, 41660, Note_off_c, 1, 58, 100
3, 41664, Note_on_c, 1, 62, 110
3, 41852, Note_off_c, 1, 62, 100
3, 41856, Note_on_c, 1, 48, 110
3, 41856, Note_on_c, 1, 55, 110
3, 42044, Note_off_c, 1, 48, 100
3, 42044, Note_off_c, 1, 55, 100
3, 42048, Note_on_c, 1, 58, 110
3, 42236, Note_off_c, 1, 58, 100
3, 42240, Note_on_c, 1, 53, 110
3, 42240, Note_on_c, 1, 57, 110
3, 42428, Note_off_c, 1, 53, 100
3, 42428, Note_off_c, 1, 57, 100
3, 42432, Note_on_c, 1, 60, 110
3, 42620, Note_off_c, 1, 60, 100
3, 42624, Note_on_c, 1, 53, 110
3, 42624, Note_on_c, 1, 57, 110
3, 42812, Note_off_c, 1, 53, 100
3, 42812, Note_off_c, 1, 57, 100
3, 43008, Note_on_c, 1, 62, 70
3, 43196, Note_off_c, 1, 62, 100
3, 43200, Note_on_c, 1, 65, 70
3, 43388, Note_off_c, 1, 65, 100
3, 43392, Note_on_c, 1, 62, 70
3, 43580, Note_off_c, 1, 62, 100
3, 43584, Note_on_c, 1, 65, 70
3, 43772, Note_off_c, 1, 65, 100
3, 43776, Note_on_c, 1, 64, 70
3, 43964, Note_off_c, 1, 64, 100
3, 43968, Note_on_c, 1, 67, 70
3, 44156, Note_off_c, 1, 67, 100
3, 44160, Note_on_c, 1, 64, 70
3, 44348, Note_off_c, 1, 64, 100
3, 44352, Note_on_c, 1, 67, 70
3, 44540, Note_off_c, 1, 67, 100
3, 44544, Note_on_c, 1, 61, 70
3, 44732, Note_off_c, 1, 61, 100
3, 44736, Note_on_c, 1, 64, 70
3, 44924, Note_off_c, 1, 64, 100
3, 44928, Note_on_c, 1, 61, 70
3, 45116, Note_off_c, 1, 61, 100
3, 45120, Note_on_c, 1, 64, 70
3, 45308, Note_off_c, 1, 64, 100
3, 45312, Note_on_c, 1, 62, 70
3, 45500, Note_off_c, 1, 62, 100
3, 45504, Note_on_c, 1, 65, 70
3, 45692, Note_off_c, 1, 65, 100
3, 45696, Note_on_c, 1, 62, 70
3, 45884, Note_off_c, 1, 62, 100
3, 45888, Note_on_c, 1, 65, 70
3, 46076, Note_off_c, 1, 65, 100
3, 46080, Note_on_c, 1, 53, 70
3, 46268, Note_off_c, 1, 53, 100
3, 46272, Note_on_c, 1, 62, 70
3, 46460, Note_off_c, 1, 62, 100
3, 46464, Note_on_c, 1, 57, 70
3, 46652, Note_off_c, 1, 57, 100
3, 46656, Note_on_c, 1, 62, 70
3, 46844, Note_off_c, 1, 62, 100
3, 46848, Note_on_c, 1, 55, 70
3, 47036, Note_off_c, 1, 55, 100
3, 47040, Note_on_c, 1, 62, 70
3, 47228, Note_off_c, 1, 62, 100
3, 47232, Note_on_c, 1, 58, 70
3, 47420, Note_off_c, 1, 58, 100
3, 47424, Note_on_c, 1, 62, 70
3, 47612, Note_off_c, 1, 62, 100
3, 47616, Note_on_c, 1, 53, 70
3, 47804, Note_off_c, 1, 53, 100
3, 47808, Note_on_c, 1, 62, 70
3, 47996, Note_off_c, 1, 62, 100
3, 48000, Note_on_c, 1, 57, 70
3, 48188, Note_off_c, 1, 57, 100
3, 48192, Note_on_c, 1, 62, 70
3, 48380, Note_off_c, 1, 62, 100
3, 48384, Note_on_c, 1, 55, 70
3, 48572, Note_off_c, 1, 55, 100
3, 48576, Note_on_c, 1, 62, 70
3, 48764, Note_off_c, 1, 62, 100
3, 48768, Note_on_c, 1, 58, 70
3, 48956, Note_off_c, 1, 58, 100
3, 48960, Note_on_c, 1, 62, 70
3, 49148, Note_off_c, 1, 62, 100
3, 49152, Note_on_c, 1, 53, 70
3, 49340, Note_off_c, 1, 53, 100
3, 49344, Note_on_c, 1, 62, 70
3, 49532, Note_off_c, 1, 62, 100
3, 49536, Note_on_c, 1, 57, 70
3, 49724, Note_off_c, 1, 57, 100
3, 49728, Note_on_c, 1, 62, 70
3, 49916, Note_off_c, 1, 62, 100
3, 49920, Note_on_c, 1, 55, 70
3, 50108, Note_off_c, 1, 55, 100
3, 50112, Note_on_c, 1, 62, 70
3, 50300, Note_off_c, 1, 62, 100
3, 50304, Note_on_c, 1, 53, 70
3, 50492, Note_off_c, 1, 53, 100
3, 50496, Note_on_c, 1, 62, 70
3, 50684, Note_off_c, 1, 62, 100
3, 50688, Note_on_c, 1, 52, 70
3, 50876, Note_off_c, 1, 52, 100
3, 50880, Note_on_c, 1, 61, 70
3, 51068, Note_off_c, 1, 61, 100
3, 51072, Note_on_c, 1, 50, 70
3, 51260, Note_off_c, 1, 50, 100
3, 51264, Note_on_c, 1, 62, 70
3, 51452, Note_off_c, 1, 62, 100
3, 51456, Note_on_c, 1, 57, 70
3, 51456, Note_on_c, 1, 62, 70
3, 51836, Note_off_c, 1, 62, 100
3, 51840, Note_on_c, 1, 61, 70
3, 52028, Note_off_c, 1, 57, 100
3, 52028, Note_off_c, 1, 61, 100
3, 52224, Note_on_c, 1, 62, 70
3, 52412, Note_off_c, 1, 62, 100
3, 52416, Note_on_c, 1, 65, 70
3, 52604, Note_off_c, 1, 65, 100
3, 52608, Note_on_c, 1, 62, 70
3, 52796, Note_off_c, 1, 62, 100
3, 52800, Note_on_c, 1, 65, 70
3, 52988, Note_off_c, 1, 65, 100
3, 52992, Note_on_c, 1, 64, 70
3, 53180, Note_off_c, 1, 64, 100
3, 53184, Note_on_c, 1, 67, 70
3, 53372, Note_off_c, 1, 67, 100
3, 53376, Note_on_c, 1, 64, 70
3, 53564, Note_off_c, 1, 64, 100
3, 53568, Note_on_c, 1, 67, 70
3, 53756, Note_off_c, 1, 67, 100
3, 53760, Note_on_c, 1, 61, 70
3, 53948, Note_off_c, 1, 61, 100
3, 53952, Note_on_c, 1, 64, 70
3, 54140, Note_off_c, 1, 64, 100
3, 54144, Note_on_c, 1, 61, 70
3, 54332, Note_off_c, 1, 61, 100
3, 54336, Note_on_c, 1, 64, 70
3, 54524, Note_off_c, 1, 64, 100
3, 54528, Note_on_c, 1, 62, 70
3, 54716, Note_off_c, 1, 62, 100
3, 54720, Note_on_c, 1, 65, 70
3, 54908, Note_off_c, 1, 65, 100
3, 54912, Note_on_c, 1, 62, 70
3, 55100, Note_off_c, 1, 62, 100
3, 55104, Note_on_c, 1, 65, 70
3, 55292, Note_off_c, 1, 65, 100
3, 55296, Note_on_c, 1, 53, 70
3, 55484, Note_off_c, 1, 53, 100
3, 55488, Note_on_c, 1, 62, 70
3, 55676, Note_off_c, 1, 62, 100
3, 55680, Note_on_c, 1, 57, 70
3, 55868, Note_off_c, 1, 57, 100
3, 55872, Note_on_c, 1, 62, 70
3, 56060, Note_off_c, 1, 62, 100
3, 56064, Note_on_c, 1, 55, 70
3, 56252, Note_off_c, 1, 55, 100
3, 56256, Note_on_c, 1, 62, 70
3, 56444, Note_off_c, 1, 62, 100
3, 56448, Note_on_c, 1, 58, 70
3, 56636, Note_off_c, 1, 58, 100
3, 56640, Note_on_c, 1, 62, 70
3, 56828, Note_off_c, 1, 62, 100
3, 56832, Note_on_c, 1, 53, 70
3, 57020, Note_off_c, 1, 53, 100
3, 57024, Note_on_c, 1, 62, 70
3, 57212, Note_off_c, 1, 62, 100
3, 57216, Note_on_c, 1, 57, 70
3, 57404, Note_off_c, 1, 57, 100
3, 57408, Note_on_c, 1, 62, 70
3, 57596, Note_off_c, 1, 62, 100
3, 57600, Note_on_c, 1, 55, 70
3, 57788, Note_off_c, 1, 55, 100
3, 57792, Note_on_c, 1, 62, 70
3, 57980, Note_off_c, 1, 62, 100
3, 57984, Note_on_c, 1, 58, 70
3, 58172, Note_off_c, 1, 58, 100
3, 58176, Note_on_c, 1, 62, 70
3, 58364, Note_off_c, 1, 62, 100
3, 58368, Note_on_c, 1, 53, 70
3, 58556, Note_off_c, 1, 53, 100
3, 58560, Note_on_c, 1, 62, 70
3, 58748, Note_off_c, 1, 62, 100
3, 58752, Note_on_c, 1, 57, 70
3, 58940, Note_off_c, 1, 57, 100
3, 58944, Note_on_c, 1, 62, 70
3, 59132, Note_off_c, 1, 62, 100
3, 59136, Note_on_c, 1, 55, 70
3, 59324, Note_off_c, 1, 55, 100
3, 59328, Note_on_c, 1, 62, 70
3, 59516, Note_off_c, 1, 62, 100
3, 59520, Note_on_c, 1, 53, 70
3, 59708, Note_off_c, 1, 53, 100
3, 59712, Note_on_c, 1, 62, 70
3, 59900, Note_off_c, 1, 62, 100
3, 59904, Note_on_c, 1, 52, 70
3, 60092, Note_off_c, 1, 52, 100
3, 60096, Note_on_c, 1, 61, 70
3, 60284, Note_off_c, 1, 61, 100
3, 60288, Note_on_c, 1, 50, 70
3, 60476, Note_off_c, 1, 50, 100
3, 60480, Note_on_c, 1, 62, 70
3, 60668, Note_off_c, 1, 62, 100
3, 60672, Note_on_c, 1, 57, 70
3, 60672, Note_on_c, 1, 62, 70
3, 61052, Note_off_c, 1, 62, 100
3, 61056, Note_on_c, 1, 61, 70
3, 61244, Note_off_c, 1, 57, 100
3, 61244, Note_off_c, 1, 61, 100
3, 61440, Note_on_c, 1, 62, 70
3, 61628, Note_off_c, 1, 62, 100
3, 61632, Note_on_c, 1, 65, 70
3, 61820, Note_off_c, 1, 65, 100
3, 61824, Note_on_c, 1, 62, 70
3, 62012, Note_off_c, 1, 62, 100
3, 62016, Note_on_c, 1, 65, 70
3, 62204, Note_off_c, 1, 65, 100
3, 62208, Note_on_c, 1, 57, 70
3, 62396, Note_off_c, 1, 57, 100
3, 62400, Note_on_c, 1, 64, 70
3, 62588, Note_off_c, 1, 64, 100
3, 62592, Note_on_c, 1, 57, 70
3, 62780, Note_off_c, 1, 57, 100
3, 62784, Note_on_c, 1, 64, 70
3, 62972, Note_off_c, 1, 64, 100
3, 62976, Note_on_c, 1, 58, 70
3, 63164, Note_off_c, 1, 58, 100
3, 63168, Note_on_c, 1, 62, 70
3, 63356, Note_off_c, 1, 62, 100
3, 63360, Note_on_c, 1, 58, 70
3, 63548, Note_off_c, 1, 58, 100
3, 63552, Note_on_c, 1, 62, 70
3, 63740, Note_off_c, 1, 62, 100
3, 63744, Note_on_c, 1, 53, 70
3, 63932, Note_off_c, 1, 53, 100
3, 63936, Note_on_c, 1, 60, 70
3, 64124, Note_off_c, 1, 60, 100
3, 64128, Note_on_c, 1, 53, 70
3, 64316, Note_off_c, 1, 53, 100
3, 64320, Note_on_c, 1, 60, 70
3, 64508, Note_off_c, 1, 60, 100
3, 64512, Note_on_c, 1, 58, 70
3, 64892, Note_off_c, 1, 58, 100
3, 64896, Note_on_c, 1, 62, 70
3, 65084, Note_off_c, 1, 62, 100
3, 65088, Note_on_c, 1, 65, 70
3, 65276, Note_off_c, 1, 65, 100
3, 65280, Note_on_c, 1, 57, 70
3, 66044, Note_off_c, 1, 57, 100
3, 66048, Note_on_c, 1, 55, 70
3, 66428, Note_off_c, 1, 55, 100
3, 66432, Note_on_c, 1, 58, 70
3, 66620, Note_off_c, 1, 58, 100
3, 66624, Note_on_c, 1, 62, 70
3, 66812, Note_off_c, 1, 62, 100
3, 66816, Note_on_c, 1, 53, 70
3, 67580, Note_off_c, 1, 53, 100
3, 67584, Note_on_c, 1, 49, 70
3, 67964, Note_off_c, 1, 49, 100
3, 67968, Note_on_c, 1, 50, 70
3, 68348, Note_off_c, 1, 50, 100
3, 68352, Note_on_c, 1, 45, 70
3, 68732, Note_off_c, 1, 45, 100
3, 69120, Note_on_c, 1, 62, 70
3, 69308, Note_off_c, 1, 62, 100
3, 69312, Note_on_c, 1, 65, 70
3, 69500, Note_off_c, 1, 65, 100
3, 69504, Note_on_c, 1, 62, 70
3, 69692, Note_off_c, 1, 62, 100
3, 69696, Note_on_c, 1, 65, 70
3, 69884, Note_off_c, 1, 65, 100
3, 69888, Note_on_c, 1, 64, 70
3, 70076, Note_off_c, 1, 64, 100
3, 70080, Note_on_c, 1, 67, 70
3, 70268, Note_off_c, 1, 67, 100
3, 70272, Note_on_c, 1, 64, 70
3, 70460, Note_off_c, 1, 64, 100
3, 70464, Note_on_c, 1, 67, 70
3, 70652, Note_off_c, 1, 67, 100
3, 70656, Note_on_c, 1, 61, 70
3, 70844, Note_off_c, 1, 61, 100
3, 70848, Note_on_c, 1, 64, 70
3, 71036, Note_off_c, 1, 64, 100
3, 71040, Note_on_c, 1, 61, 70
3, 71228, Note_off_c, 1, 61, 100
3, 71232, Note_on_c, 1, 64, 70
3, 71420, Note_off_c, 1, 64, 100
3, 71424, Note_on_c, 1, 62, 70
3, 71612, Note_off_c, 1, 62, 100
3, 71616, Note_on_c, 1, 65, 70
3, 71804, Note_off_c, 1, 65, 100
3, 71808, Note_on_c, 1, 62, 70
3, 71996, Note_off_c, 1, 62, 100
3, 72000, Note_on_c, 1, 65, 70
3, 72188, Note_off_c, 1, 65, 100
3, 72192, Note_on_c, 1, 53, 70
3, 72380, Note_off_c, 1, 53, 100
3, 72384, Note_on_c, 1, 62, 70
3, 72572, Note_off_c, 1, 62, 100
3, 72576, Note_on_c, 1, 57, 70
3, 72764, Note_off_c, 1, 57, 100
3, 72768, Note_on_c, 1, 62, 70
3, 72956, Note_off_c, 1, 62, 100
3, 72960, Note_on_c, 1, 55, 70
3, 73148, Note_off_c, 1, 55, 100
3, 73152, Note_on_c, 1, 62, 70
3, 73340, Note_off_c, 1, 62, 100
3, 73344, Note_on_c, 1, 58, 70
3, 73532, Note_off_c, 1, 58, 100
3, 73536, Note_on_c, 1, 64, 70
3, 73724, Note_off_c, 1, 64, 100
3, 73728, Note_on_c, 1, 62, 70
3, 73916, Note_off_c, 1, 62, 100
3, 73920, Note_on_c, 1, 57, 70
3, 74108, Note_off_c, 1, 57, 100
3, 74112, Note_on_c, 1, 61, 70
3, 74300, Note_off_c, 1, 61, 100
3, 74304, Note_on_c, 1, 57, 70
3, 74492, Note_off_c, 1, 57, 100
3, 74496, Note_on_c, 1, 62, 70
3, 74684, Note_off_c, 1, 62, 100
3, 74688, Note_on_c, 1, 57, 70
3, 74876, Note_off_c, 1, 57, 100
3, 74880, Note_on_c, 1, 50, 70
3, 75068, Note_off_c, 1, 50, 100
3, 75264, Note_on_c, 1, 62, 70
3, 75452, Note_off_c, 1, 62, 100
3, 75456, Note_on_c, 1, 65, 70
3, 75644, Note_off_c, 1, 65, 100
3, 75648, Note_on_c, 1, 62, 70
3, 75836, Note_off_c, 1, 62, 100
3, 75840, Note_on_c, 1, 65, 70
3, 76028, Note_off_c, 1, 65, 100
3, 76032, Note_on_c, 1, 57, 70
3, 76220, Note_off_c, 1, 57, 100
3, 76224, Note_on_c, 1, 64, 70
3, 76412, Note_off_c, 1, 64, 100
3, 76416, Note_on_c, 1, 57, 70
3, 76604, Note_off_c, 1, 57, 100
3, 76608, Note_on_c, 1, 64, 70
3, 76796, Note_off_c, 1, 64, 100
3, 76800, Note_on_c, 1, 58, 70
3, 76988, Note_off_c, 1, 58, 100
3, 76992, Note_on_c, 1, 62, 70
3, 77180, Note_off_c, 1, 62, 100
3, 77184, Note_on_c, 1, 58, 70
3, 77372, Note_off_c, 1, 58, 100
3, 77376, Note_on_c, 1, 62, 70
3, 77564, Note_off_c, 1, 62, 100
3, 77568, Note_on_c, 1, 53, 70
3, 77756, Note_off_c, 1, 53, 100
3, 77760, Note_on_c, 1, 60, 70
3, 77948, Note_off_c, 1, 60, 100
3, 77952, Note_on_c, 1, 53, 70
3, 78140, Note_off_c, 1, 53, 100
3, 78144, Note_on_c, 1, 60, 70
3, 78332, Note_off_c, 1, 60, 100
3, 78336, Note_on_c, 1, 58, 70
3, 78716, Note_off_c, 1, 58, 100
3, 78720, Note_on_c, 1, 62, 70
3, 78908, Note_off_c, 1, 62, 100
3, 78912, Note_on_c, 1, 65, 70
3, 79100, Note_off_c, 1, 65, 100
3, 79104, Note_on_c, 1, 57, 70
3, 79868, Note_off_c, 1, 57, 100
3, 79872, Note_on_c, 1, 55, 70
3, 80252, Note_off_c, 1, 55, 100
3, 80256, Note_on_c, 1, 58, 70
3, 80444, Note_off_c, 1, 58, 100
3, 80448, Note_on_c, 1, 62, 70
3, 80636, Note_off_c, 1, 62, 100
3, 80640, Note_on_c, 1, 53, 70
3, 81404, Note_off_c, 1, 53, 100
3, 81408, Note_on_c, 1, 49, 70
3, 81788, Note_off_c, 1, 49, 100
3, 81792, Note_on_c, 1, 50, 70
3, 82172, Note_off_c, 1, 50, 100
3, 82176, Note_on_c, 1, 45, 70
3, 82556, Note_off_c, 1, 45, 100
3, 82944, Note_on_c, 1, 62, 70
3, 83132, Note_off_c, 1, 62, 100
3, 83136, Note_on_c, 1, 65, 70
3, 83324, Note_off_c, 1, 65, 100
3, 83328, Note_on_c, 1, 62, 70
3, 83516, Note_off_c, 1, 62, 100
3, 83520, Note_on_c, 1, 65, 70
3, 83708, Note_off_c, 1, 65, 100
3, 83712, Note_on_c, 1, 64, 70
3, 83900, Note_off_c, 1, 64, 100
3, 83904, Note_on_c, 1, 67, 70
3, 84092, Note_off_c, 1, 67, 100
3, 84096, Note_on_c, 1, 64, 70
3, 84284, Note_off_c, 1, 64, 100
3, 84288, Note_on_c, 1, 67, 70
3, 84476, Note_off_c, 1, 67, 100
3, 84480, Note_on_c, 1, 61, 70
3, 84668, Note_off_c, 1, 61, 100
3, 84672, Note_on_c, 1, 64, 70
3, 84860, Note_off_c, 1, 64, 100
3, 84864, Note_on_c, 1, 61, 70
3, 85052, Note_off_c, 1, 61, 100
3, 85056, Note_on_c, 1, 64, 70
3, 85244, Note_off_c, 1, 64, 100
3, 85248, Note_on_c, 1, 62, 70
3, 85436, Note_off_c, 1, 62, 100
3, 85440, Note_on_c, 1, 65, 70
3, 85628, Note_off_c, 1, 65, 100
3, 85632, Note_on_c, 1, 62, 70
3, 85820, Note_off_c, 1, 62, 100
3, 85824, Note_on_c, 1, 65, 70
3, 86012, Note_off_c, 1, 65, 100
3, 86016, Note_on_c, 1, 53, 70
3, 86204, Note_off_c, 1, 53, 100
3, 86208, Note_on_c, 1, 62, 70
3, 86396, Note_off_c, 1, 62, 100
3, 86400, Note_on_c, 1, 57, 70
3, 86588, Note_off_c, 1, 57, 100
3, 86592, Note_on_c, 1, 62, 70
3, 86780, Note_off_c, 1, 62, 100
3, 86784, Note_on_c, 1, 55, 70
3, 86972, Note_off_c, 1, 55, 100
3, 86976, Note_on_c, 1, 62, 70
3, 87164, Note_off_c, 1, 62, 100
3, 87168, Note_on_c, 1, 58, 70
3, 87356, Note_off_c, 1, 58, 100
3, 87360, Note_on_c, 1, 64, 70
3, 87548, Note_off_c, 1, 64, 100
3, 87552, Note_on_c, 1, 62, 70
3, 87740, Note_off_c, 1, 62, 100
3, 87744, Note_on_c, 1, 57, 70
3, 87932, Note_off_c, 1, 57, 100
3, 87936, Note_on_c, 1, 61, 70
3, 88124, Note_off_c, 1, 61, 100
3, 88128, Note_on_c, 1, 57, 70
3, 88316, Note_off_c, 1, 57, 100
3, 88320, Note_on_c, 1, 62, 70
3, 88508, Note_off_c, 1, 62, 100
3, 88512, Note_on_c, 1, 57, 70
3, 88700, Note_off_c, 1, 57, 100
3, 88704, Note_on_c, 1, 50, 70
3, 88892, Note_off_c, 1, 50, 100
3, 89088, Note_on_c, 1, 58, 70
3, 89276, Note_off_c, 1, 58, 100
3, 89280, Note_on_c, 1, 55, 70
3, 89468, Note_off_c, 1, 55, 100
3, 89472, Note_on_c, 1, 48, 70
3, 89660, Note_off_c, 1, 48, 100
3, 89856, Note_on_c, 1, 57, 70
3, 90044, Note_off_c, 1, 57, 100
3, 90048, Note_on_c, 1, 53, 70
3, 90236, Note_off_c, 1, 53, 100
3, 90240, Note_on_c, 1, 48, 70
3, 90428, Note_off_c, 1, 48, 100
3, 90624, Note_on_c, 1, 55, 70
3, 90812, Note_off_c, 1, 55, 100
3, 90816, Note_on_c, 1, 52, 70
3, 91004, Note_off_c, 1, 52, 100
3, 91008, Note_on_c, 1, 48, 70
3, 91196, Note_off_c, 1, 48, 100
3, 91392, Note_on_c, 1, 53, 70
3, 91580, Note_off_c, 1, 53, 100
3, 91584, Note_on_c, 1, 48, 70
3, 91772, Note_off_c, 1, 48, 100
3, 91776, Note_on_c, 1, 41, 70
3, 91964, Note_off_c, 1, 41, 100
3, 92160, Note_on_c, 1, 36, 110
3, 92208, Note_on_c, 1, 40, 110
3, 92256, Note_on_c, 1, 43, 110
3, 92304, Note_on_c, 1, 48, 110
3, 93308, Note_off_c, 1, 36, 100
3, 93308, Note_off_c, 1, 40, 100
3, 93308, Note_off_c, 1, 43, 100
3, 93308, Note_off_c, 1, 48, 100
3, 96000, Note_on_c, 1, 57, 70
3, 96188, Note_off_c, 1, 57, 100
3, 96192, Note_on_c, 1, 53, 70
3, 96380, Note_off_c, 1, 53, 100
3, 96384, Note_on_c, 1, 56, 70
3, 96572, Note_off_c, 1, 56, 100
3, 96576, Note_on_c, 1, 53, 70
3, 96764, Note_off_c, 1, 53, 100
3, 96768, Note_on_c, 1, 57, 70
3, 96956, Note_off_c, 1, 57, 100
3, 96960, Note_on_c, 1, 53, 77
3, 97148, Note_off_c, 1, 53, 100
3, 97152, Note_on_c, 1, 57, 85
3, 97340, Note_off_c, 1, 57, 100
3, 97344, Note_on_c, 1, 53, 93
3, 97532, Note_off_c, 1, 53, 100
3, 97536, Note_on_c, 1, 58, 100
3, 97724, Note_off_c, 1, 58, 100
3, 97728, Note_on_c, 1, 53, 100
3, 97916, Note_off_c, 1, 53, 100
3, 97920, Note_on_c, 1, 57, 100
3, 98108, Note_off_c, 1, 57, 100
3, 98112, Note_on_c, 1, 53, 100
3, 98300, Note_off_c, 1, 53, 100
3, 98304, Note_on_c, 1, 58, 100
3, 98492, Note_off_c, 1, 58, 100
3, 98496, Note_on_c, 1, 53, 100
3, 98684, Note_off_c, 1, 53, 100
3, 98688, Note_on_c, 1, 58, 100
3, 98876, Note_off_c, 1, 58, 100
3, 98880, Note_on_c, 1, 53, 100
3, 99068, Note_off_c, 1, 53, 100
3, 99072, Note_on_c, 1, 55, 110
3, 99072, Note_on_c, 1, 58, 110
3, 99260, Note_off_c, 1, 55, 100
3, 99260, Note_off_c, 1, 58, 100
3, 99264, Note_on_c, 1, 48, 110
3, 99452, Note_off_c, 1, 48, 100
3, 99456, Note_on_c, 1, 55, 110
3, 99456, Note_on_c, 1, 58, 110
3, 99644, Note_off_c, 1, 55, 100
3, 99644, Note_off_c, 1, 58, 100
3, 99648, Note_on_c, 1, 48, 110
3, 99836, Note_off_c, 1, 48, 100
3, 99840, Note_on_c, 1, 53, 110
3, 99840, Note_on_c, 1, 57, 110
3, 100028, Note_off_c, 1, 53, 100
3, 100028, Note_off_c, 1, 57, 100
3, 100032, Note_on_c, 1, 48, 110
3, 100220, Note_off_c, 1, 48, 100
3, 100224, Note_on_c, 1, 53, 110
3, 100224, Note_on_c, 1, 57, 110
3, 100412, Note_off_c, 1, 53, 100
3, 100412, Note_off_c, 1, 57, 100
3, 100416, Note_on_c, 1, 48, 110
3, 100604, Note_off_c, 1, 48, 100
3, 100608, Note_on_c, 1, 52, 110
3, 100608, Note_on_c, 1, 55, 110
3, 100796, Note_off_c, 1, 52, 100
3, 100796, Note_off_c, 1, 55, 100
3, 100800, Note_on_c, 1, 48, 110
3, 100988, Note_off_c, 1, 48, 100
3, 100992, Note_on_c, 1, 53, 110
3, 100992, Note_on_c, 1, 57, 110
3, 101180, Note_off_c, 1, 53, 100
3, 101180, Note_off_c, 1, 57, 100
3, 101184, Note_on_c, 1, 48, 110
3, 101372, Note_off_c, 1, 48, 100
3, 101376, Note_on_c, 1, 48, 110
3, 101424, Note_on_c, 1, 52, 110
3, 101472, Note_on_c, 1, 55, 110
3, 101520, Note_on_c, 1, 60, 110
3, 102140, Note_off_c, 1, 48, 100
3, 102140, Note_off_c, 1, 52, 100
3, 102140, Note_off_c, 1, 55, 100
3, 102140, Note_off_c, 1, 60, 100
3, 102144, Note_on_c, 1, 57, 70
3, 102332, Note_off_c, 1, 57, 100
3, 102336, Note_on_c, 1, 53, 70
3, 102524, Note_off_c, 1, 53, 100
3, 102528, Note_on_c, 1, 56, 70
3, 102716, Note_off_c, 1, 56, 100
3, 102720, Note_on_c, 1, 53, 70
3, 102908, Note_off_c, 1, 53, 100
3, 102912, Note_on_c, 1, 57, 70
3, 103100, Note_off_c, 1, 57, 100
3, 103104, Note_on_c, 1, 53, 77
3, 103292, Note_off_c, 1, 53, 100
3, 103296, Note_on_c, 1, 57, 85
3, 103484, Note_off_c, 1, 57, 100
3, 103488, Note_on_c, 1, 53, 93
3, 103676, Note_off_c, 1, 53, 100
3, 103680, Note_on_c, 1, 58, 100
3, 103868, Note_off_c, 1, 58, 100
3, 103872, Note_on_c, 1, 53, 100
3, 104060, Note_off_c, 1, 53, 100
3, 104064, Note_on_c, 1, 57, 100
3, 104252, Note_off_c, 1, 57, 100
3, 104256, Note_on_c, 1, 53, 100
3, 104444, Note_off_c, 1, 53, 100
3, 104448, Note_on_c, 1, 58, 100
3, 104636, Note_off_c, 1, 58, 100
3, 104640, Note_on_c, 1, 53, 100
3, 104828, Note_off_c, 1, 53, 100
3, 104832, Note_on_c, 1, 58, 100
3, 105020, Note_off_c, 1, 58, 100
3, 105024, Note_on_c, 1, 53, 100
3, 105212, Note_off_c, 1, 53, 100
3, 105216, Note_on_c, 1, 55, 110
3, 105216, Note_on_c, 1, 58, 110
3, 105404, Note_off_c, 1, 55, 100
3, 105404, Note_off_c, 1, 58, 100
3, 105408, Note_on_c, 1, 48, 110
3, 105596, Note_off_c, 1, 48, 100
3, 105600, Note_on_c, 1, 55, 110
3, 105600, Note_on_c, 1, 58, 110
3, 105788, Note_off_c, 1, 55, 100
3, 105788, Note_off_c, 1, 58, 100
3, 105792, Note_on_c, 1, 48, 110
3, 105980, Note_off_c, 1, 48, 100
3, 105984, Note_on_c, 1, 53, 110
3, 105984, Note_on_c, 1, 57, 110
3, 106364, Note_off_c, 1, 53, 100
3, 106364, Note_off_c, 1, 57, 100
3, 106752, Note_on_c, 1, 58, 110
3, 106940, Note_off_c, 1, 58, 100
3, 106944, Note_on_c, 1, 62, 110
3, 107132, Note_off_c, 1, 62, 100
3, 107136, Note_on_c, 1, 48, 110
3, 107136, Note_on_c, 1, 55, 110
3, 107324, Note_off_c, 1, 48, 100
3, 107324, Note_off_c, 1, 55, 100
3, 107328, Note_on_c, 1, 58, 110
3, 107516, Note_off_c, 1, 58, 100
3, 107520, Note_on_c, 1, 53, 110
3, 107520, Note_on_c, 1, 57, 110
3, 107708, Note_off_c, 1, 53, 100
3, 107708, Note_off_c, 1, 57, 100
3, 107712, Note_on_c, 1, 60, 110
3, 107900, Note_off_c, 1, 60, 100
3, 107904, Note_on_c, 1, 53, 110
3, 107904, Note_on_c, 1, 57, 110
3, 108092, Note_off_c, 1, 53, 100
3, 108092, Note_off_c, 1, 57, 100
3, 108288, Note_on_c, 1, 60, 70
3, 108288, Note_on_c, 1, 67, 70
3, 108668, Note_off_c, 1, 60, 100
3, 108668, Note_off_c, 1, 67, 100
3, 109056, Note_on_c, 1, 65, 70
3, 109056, Note_on_c, 1, 69, 70
3, 109436, Note_off_c, 1, 65, 100
3, 109436, Note_off_c, 1, 69, 100
3, 109824, Note_on_c, 1, 48, 110
3, 109824, Note_on_c, 1, 60, 110
3, 110204, Note_off_c, 1, 48, 100
3, 110204, Note_off_c, 1, 60, 100
3, 110208, Note_on_c, 1, 48, 110
3, 110208, Note_on_c, 1, 60, 110
3, 110588, Note_off_c, 1, 48, 100
3, 110588, Note_off_c, 1, 60, 100
3, 110592, Note_on_c, 1, 41, 110
3, 110592, Note_on_c, 1, 53, 110
3, 111356, Note_off_c, 1, 41, 100
3, 111356, Note_off_c, 1, 53, 100
3, 111356, End_track
0, 0, End_of_file
